<?xml version="1.0" encoding="UTF-8"?>
<svg xmlns="http://www.w3.org/2000/svg" xmlns:xlink="http://www.w3.org/1999/xlink" width="134.8" height="134.8" viewBox="0 0 134.8 134.8">
<defs>
<clipPath id="clip-0">
<path clip-rule="nonzero" d="M 0 0 L 134.601562 0 L 134.601562 134.601562 L 0 134.601562 Z M 0 0 "/>
</clipPath>
</defs>
<g clip-path="url(#clip-0)">
<path fill-rule="evenodd" fill="rgb(87.799072%, 100%, 100%)" fill-opacity="1" stroke-width="0.4" stroke-linecap="butt" stroke-linejoin="round" stroke="rgb(0%, 0%, 0%)" stroke-opacity="1" stroke-miterlimit="10" d="M 4.799514 139.200486 L 4.799514 4.798246 L 139.201754 4.798246 L 139.201754 139.200486 Z M 4.799514 139.200486 " transform="matrix(0.998519, 0, 0, -0.998519, -4.593185, 139.193481)"/>
</g>
<path fill="none" stroke-width="0.4" stroke-linecap="butt" stroke-linejoin="round" stroke="rgb(0%, 0%, 0%)" stroke-opacity="1" stroke-miterlimit="10" d="M 48.000234 103.999899 Z M 48.000234 103.999899 " transform="matrix(0.998519, 0, 0, -0.998519, -4.593185, 139.193481)"/>
<path fill="none" stroke-width="0.4" stroke-linecap="butt" stroke-linejoin="round" stroke="rgb(0%, 0%, 0%)" stroke-opacity="1" stroke-miterlimit="10" d="M 52.808138 78.106069 L 132.336114 108.248381 " transform="matrix(0.998519, 0, 0, -0.998519, -4.593185, 139.193481)"/>
<path fill="none" stroke-width="0.4" stroke-linecap="butt" stroke-linejoin="round" stroke="rgb(0%, 0%, 0%)" stroke-opacity="1" stroke-miterlimit="10" d="M 26.789123 48.961329 L 118.866941 129.314746 " transform="matrix(0.998519, 0, 0, -0.998519, -4.593185, 139.193481)"/>
<path fill="none" stroke-width="0.4" stroke-linecap="butt" stroke-linejoin="round" stroke="rgb(0%, 0%, 0%)" stroke-opacity="1" stroke-miterlimit="10" d="M 43.427053 117.950254 L 128.740944 118.059791 " transform="matrix(0.998519, 0, 0, -0.998519, -4.593185, 139.193481)"/>
<path fill="none" stroke-width="0.4" stroke-linecap="butt" stroke-linejoin="round" stroke="rgb(0%, 0%, 0%)" stroke-opacity="1" stroke-miterlimit="10" d="M 34.824464 73.626777 L 110.405186 81.95161 " transform="matrix(0.998519, 0, 0, -0.998519, -4.593185, 139.193481)"/>
<path fill="none" stroke-width="0.4" stroke-linecap="butt" stroke-linejoin="round" stroke="rgb(0%, 0%, 0%)" stroke-opacity="1" stroke-miterlimit="10" d="M 34.711015 22.371155 L 18.037877 48.945681 " transform="matrix(0.998519, 0, 0, -0.998519, -4.593185, 139.193481)"/>
<path fill="none" stroke-width="0.4" stroke-linecap="butt" stroke-linejoin="round" stroke="rgb(0%, 0%, 0%)" stroke-opacity="1" stroke-miterlimit="10" d="M 21.738672 117.856365 L 64.516891 14.488383 " transform="matrix(0.998519, 0, 0, -0.998519, -4.593185, 139.193481)"/>
<path fill="none" stroke-width="0.4" stroke-linecap="butt" stroke-linejoin="round" stroke="rgb(0%, 0%, 0%)" stroke-opacity="1" stroke-miterlimit="10" d="M 81.518641 51.375061 L 80.90445 91.610451 " transform="matrix(0.998519, 0, 0, -0.998519, -4.593185, 139.193481)"/>
<path fill="none" stroke-width="0.4" stroke-linecap="butt" stroke-linejoin="round" stroke="rgb(0%, 0%, 0%)" stroke-opacity="1" stroke-miterlimit="10" d="M 134.526859 79.827369 L 108.284857 26.463155 " transform="matrix(0.998519, 0, 0, -0.998519, -4.593185, 139.193481)"/>
<path fill="none" stroke-width="0.4" stroke-linecap="butt" stroke-linejoin="round" stroke="rgb(0%, 0%, 0%)" stroke-opacity="1" stroke-miterlimit="10" d="M 47.542525 47.502136 L 31.839574 48.120239 " transform="matrix(0.998519, 0, 0, -0.998519, -4.593185, 139.193481)"/>
<path fill="none" stroke-width="0.4" stroke-linecap="butt" stroke-linejoin="round" stroke="rgb(0%, 0%, 0%)" stroke-opacity="1" stroke-miterlimit="10" d="M 117.525109 132.276165 L 90.942759 74.268352 " transform="matrix(0.998519, 0, 0, -0.998519, -4.593185, 139.193481)"/>
<path fill="none" stroke-width="0.4" stroke-linecap="butt" stroke-linejoin="round" stroke="rgb(0%, 0%, 0%)" stroke-opacity="1" stroke-miterlimit="10" d="M 66.246015 9.281451 L 24.261941 61.468139 " transform="matrix(0.998519, 0, 0, -0.998519, -4.593185, 139.193481)"/>
<path fill="none" stroke-width="0.4" stroke-linecap="butt" stroke-linejoin="round" stroke="rgb(0%, 0%, 0%)" stroke-opacity="1" stroke-miterlimit="10" d="M 11.344367 33.03148 L 94.620082 36.368454 " transform="matrix(0.998519, 0, 0, -0.998519, -4.593185, 139.193481)"/>
<path fill="none" stroke-width="0.4" stroke-linecap="butt" stroke-linejoin="round" stroke="rgb(0%, 0%, 0%)" stroke-opacity="1" stroke-miterlimit="10" d="M 134.448618 92.88969 L 34.804904 103.92557 " transform="matrix(0.998519, 0, 0, -0.998519, -4.593185, 139.193481)"/>
<path fill="none" stroke-width="0.4" stroke-linecap="butt" stroke-linejoin="round" stroke="rgb(0%, 0%, 0%)" stroke-opacity="1" stroke-miterlimit="10" d="M 40.852927 34.737131 L 56.880578 119.925837 " transform="matrix(0.998519, 0, 0, -0.998519, -4.593185, 139.193481)"/>
<path fill="none" stroke-width="0.4" stroke-linecap="butt" stroke-linejoin="round" stroke="rgb(0%, 0%, 0%)" stroke-opacity="1" stroke-miterlimit="10" d="M 76.2765 39.521563 L 75.752286 79.19753 " transform="matrix(0.998519, 0, 0, -0.998519, -4.593185, 139.193481)"/>
<path fill="none" stroke-width="0.4" stroke-linecap="butt" stroke-linejoin="round" stroke="rgb(0%, 0%, 0%)" stroke-opacity="1" stroke-miterlimit="10" d="M 109.212012 101.824802 L 126.029896 85.734558 " transform="matrix(0.998519, 0, 0, -0.998519, -4.593185, 139.193481)"/>
<path fill="none" stroke-width="0.4" stroke-linecap="butt" stroke-linejoin="round" stroke="rgb(0%, 0%, 0%)" stroke-opacity="1" stroke-miterlimit="10" d="M 92.754036 78.016092 L 28.303084 18.224387 " transform="matrix(0.998519, 0, 0, -0.998519, -4.593185, 139.193481)"/>
<path fill="none" stroke-width="0.4" stroke-linecap="butt" stroke-linejoin="round" stroke="rgb(0%, 0%, 0%)" stroke-opacity="1" stroke-miterlimit="10" d="M 122.579472 32.792845 L 42.691588 23.427408 " transform="matrix(0.998519, 0, 0, -0.998519, -4.593185, 139.193481)"/>
<path fill="none" stroke-width="0.4" stroke-linecap="butt" stroke-linejoin="round" stroke="rgb(0%, 0%, 0%)" stroke-opacity="1" stroke-miterlimit="10" d="M 45.962058 8.502953 L 17.404125 113.635268 " transform="matrix(0.998519, 0, 0, -0.998519, -4.593185, 139.193481)"/>
<path fill="none" stroke-width="0.4" stroke-linecap="butt" stroke-linejoin="round" stroke="rgb(0%, 0%, 0%)" stroke-opacity="1" stroke-miterlimit="10" d="M 21.668255 108.220996 L 77.943031 124.103902 " transform="matrix(0.998519, 0, 0, -0.998519, -4.593185, 139.193481)"/>
<path fill="none" stroke-width="2" stroke-linecap="butt" stroke-linejoin="round" stroke="rgb(0%, 0%, 100%)" stroke-opacity="1" stroke-miterlimit="10" d="M 34.711015 22.371155 L 18.037877 48.945681 " transform="matrix(0.998519, 0, 0, -0.998519, -4.593185, 139.193481)"/>
<path fill="none" stroke-width="2" stroke-linecap="butt" stroke-linejoin="round" stroke="rgb(0%, 0%, 100%)" stroke-opacity="1" stroke-miterlimit="10" d="M 134.526859 79.827369 L 108.284857 26.463155 " transform="matrix(0.998519, 0, 0, -0.998519, -4.593185, 139.193481)"/>
<path fill="none" stroke-width="2" stroke-linecap="butt" stroke-linejoin="round" stroke="rgb(0%, 0%, 100%)" stroke-opacity="1" stroke-miterlimit="10" d="M 109.212012 101.824802 L 126.029896 85.734558 " transform="matrix(0.998519, 0, 0, -0.998519, -4.593185, 139.193481)"/>
<path fill="none" stroke-width="2" stroke-linecap="butt" stroke-linejoin="round" stroke="rgb(0%, 0%, 100%)" stroke-opacity="1" stroke-miterlimit="10" d="M 76.2765 39.521563 L 75.752286 79.19753 " transform="matrix(0.998519, 0, 0, -0.998519, -4.593185, 139.193481)"/>
<path fill="none" stroke-width="2" stroke-linecap="butt" stroke-linejoin="round" stroke="rgb(0%, 0%, 100%)" stroke-opacity="1" stroke-miterlimit="10" d="M 81.518641 51.375061 L 80.90445 91.610451 " transform="matrix(0.998519, 0, 0, -0.998519, -4.593185, 139.193481)"/>
<path fill="none" stroke-width="2" stroke-linecap="butt" stroke-linejoin="round" stroke="rgb(0%, 0%, 100%)" stroke-opacity="1" stroke-miterlimit="10" d="M 117.525109 132.276165 L 90.942759 74.268352 " transform="matrix(0.998519, 0, 0, -0.998519, -4.593185, 139.193481)"/>
<path fill="none" stroke-width="2" stroke-linecap="butt" stroke-linejoin="round" stroke="rgb(0%, 0%, 100%)" stroke-opacity="1" stroke-miterlimit="10" d="M 21.668255 108.220996 L 77.943031 124.103902 " transform="matrix(0.998519, 0, 0, -0.998519, -4.593185, 139.193481)"/>
<path fill="none" stroke-width="2" stroke-linecap="butt" stroke-linejoin="round" stroke="rgb(0%, 0%, 100%)" stroke-opacity="1" stroke-miterlimit="10" d="M 47.542525 47.502136 L 31.839574 48.120239 " transform="matrix(0.998519, 0, 0, -0.998519, -4.593185, 139.193481)"/>
</svg>
