<?xml version="1.0" encoding="UTF-8"?>
<svg xmlns="http://www.w3.org/2000/svg" xmlns:xlink="http://www.w3.org/1999/xlink" width="134.8" height="134.8" viewBox="0 0 134.8 134.8">
<path fill="none" stroke-width="2" stroke-linecap="butt" stroke-linejoin="round" stroke="rgb(0%, 0%, 100%)" stroke-opacity="1" stroke-miterlimit="10" d="M 34.711015 22.371155 L 18.037877 48.945681 " transform="matrix(0.998519, 0, 0, -0.998519, -4.593185, 139.193481)"/>
<path fill="none" stroke-width="2" stroke-linecap="butt" stroke-linejoin="round" stroke="rgb(0%, 0%, 100%)" stroke-opacity="1" stroke-miterlimit="10" d="M 134.526859 79.827369 L 108.284857 26.463155 " transform="matrix(0.998519, 0, 0, -0.998519, -4.593185, 139.193481)"/>
<path fill="none" stroke-width="2" stroke-linecap="butt" stroke-linejoin="round" stroke="rgb(0%, 0%, 100%)" stroke-opacity="1" stroke-miterlimit="10" d="M 109.212012 101.824802 L 126.029896 85.734558 " transform="matrix(0.998519, 0, 0, -0.998519, -4.593185, 139.193481)"/>
<path fill="none" stroke-width="2" stroke-linecap="butt" stroke-linejoin="round" stroke="rgb(0%, 0%, 100%)" stroke-opacity="1" stroke-miterlimit="10" d="M 76.2765 39.521563 L 75.752286 79.19753 " transform="matrix(0.998519, 0, 0, -0.998519, -4.593185, 139.193481)"/>
<path fill="none" stroke-width="2" stroke-linecap="butt" stroke-linejoin="round" stroke="rgb(0%, 0%, 100%)" stroke-opacity="1" stroke-miterlimit="10" d="M 81.518641 51.375061 L 80.90445 91.610451 " transform="matrix(0.998519, 0, 0, -0.998519, -4.593185, 139.193481)"/>
<path fill="none" stroke-width="2" stroke-linecap="butt" stroke-linejoin="round" stroke="rgb(0%, 0%, 100%)" stroke-opacity="1" stroke-miterlimit="10" d="M 117.525109 132.276165 L 90.942759 74.268352 " transform="matrix(0.998519, 0, 0, -0.998519, -4.593185, 139.193481)"/>
<path fill="none" stroke-width="2" stroke-linecap="butt" stroke-linejoin="round" stroke="rgb(0%, 0%, 100%)" stroke-opacity="1" stroke-miterlimit="10" d="M 21.668255 108.220996 L 77.943031 124.103902 " transform="matrix(0.998519, 0, 0, -0.998519, -4.593185, 139.193481)"/>
<path fill="none" stroke-width="2" stroke-linecap="butt" stroke-linejoin="round" stroke="rgb(0%, 0%, 100%)" stroke-opacity="1" stroke-miterlimit="10" d="M 47.542525 47.502136 L 31.839574 48.120239 " transform="matrix(0.998519, 0, 0, -0.998519, -4.593185, 139.193481)"/>
</svg>
