<?xml version="1.0" encoding="UTF-8"?>
<svg xmlns="http://www.w3.org/2000/svg" xmlns:xlink="http://www.w3.org/1999/xlink" width="315.4" height="314.4" viewBox="0 0 315.4 314.4">
<defs>
<clipPath id="clip-0">
<path clip-rule="nonzero" d="M 145 253 L 206 253 L 206 313.800781 L 145 313.800781 Z M 145 253 "/>
</clipPath>
<clipPath id="clip-1">
<path clip-rule="nonzero" d="M 253 144 L 314.800781 144 L 314.800781 206 L 253 206 Z M 253 144 "/>
</clipPath>
</defs>
<path fill-rule="nonzero" fill="rgb(1.499939%, 24.699402%, 11.299133%)" fill-opacity="1" stroke-width="0.4" stroke-linecap="butt" stroke-linejoin="round" stroke="rgb(0%, 0%, 0%)" stroke-opacity="1" stroke-miterlimit="10" d="M 141.001351 139.499917 C 141.001351 126.518158 130.481313 115.99812 117.499554 115.99812 C 104.52171 115.99812 94.001671 126.518158 94.001671 139.499917 C 94.001671 152.481675 104.52171 163.001713 117.499554 163.001713 C 130.481313 163.001713 141.001351 152.481675 141.001351 139.499917 " transform="matrix(0.998095, 0, 0, -0.998095, -55.193714, 391.452952)"/>
<path fill-rule="nonzero" fill="rgb(13.299561%, 43.099976%, 42.298889%)" fill-opacity="1" stroke-width="0.4" stroke-linecap="butt" stroke-linejoin="round" stroke="rgb(0%, 0%, 0%)" stroke-opacity="1" stroke-miterlimit="10" d="M 128.000024 190.499402 C 128.000024 172.551152 113.44887 157.999999 95.50062 157.999999 C 77.552371 157.999999 63.001217 172.551152 63.001217 190.499402 C 63.001217 208.447652 77.552371 222.998806 95.50062 222.998806 C 113.44887 222.998806 128.000024 208.447652 128.000024 190.499402 " transform="matrix(0.998095, 0, 0, -0.998095, -55.193714, 391.452952)"/>
<path fill-rule="nonzero" fill="rgb(39.599609%, 44.699097%, 88.198853%)" fill-opacity="1" stroke-width="0.4" stroke-linecap="butt" stroke-linejoin="round" stroke="rgb(0%, 0%, 0%)" stroke-opacity="1" stroke-miterlimit="10" d="M 116.9986 253.001266 C 116.9986 236.156681 103.343684 222.501765 86.499099 222.501765 C 69.654515 222.501765 55.999599 236.156681 55.999599 253.001266 C 55.999599 269.845851 69.654515 283.500766 86.499099 283.500766 C 103.343684 283.500766 116.9986 269.845851 116.9986 253.001266 " transform="matrix(0.998095, 0, 0, -0.998095, -55.193714, 391.452952)"/>
<path fill-rule="nonzero" fill="rgb(1.098633%, 48.599243%, 89.399719%)" fill-opacity="1" stroke-width="0.4" stroke-linecap="butt" stroke-linejoin="round" stroke="rgb(0%, 0%, 0%)" stroke-opacity="1" stroke-miterlimit="10" d="M 114.000702 303.499797 C 114.000702 292.181363 104.819151 282.999812 93.500717 282.999812 C 82.17837 282.999812 73.000732 292.181363 73.000732 303.499797 C 73.000732 314.818231 82.17837 323.999782 93.500717 323.999782 C 104.819151 323.999782 114.000702 314.818231 114.000702 303.499797 " transform="matrix(0.998095, 0, 0, -0.998095, -55.193714, 391.452952)"/>
<path fill-rule="nonzero" fill="rgb(95.199585%, 46.998596%, 7.398987%)" fill-opacity="1" stroke-width="0.4" stroke-linecap="butt" stroke-linejoin="round" stroke="rgb(0%, 0%, 0%)" stroke-opacity="1" stroke-miterlimit="10" d="M 110.998891 332.500349 C 110.998891 327.252071 106.744694 323.001788 101.500329 323.001788 C 96.252052 323.001788 92.001768 327.252071 92.001768 332.500349 C 92.001768 337.744713 96.252052 341.99891 101.500329 341.99891 C 106.744694 341.99891 110.998891 337.744713 110.998891 332.500349 " transform="matrix(0.998095, 0, 0, -0.998095, -55.193714, 391.452952)"/>
<path fill-rule="nonzero" fill="rgb(22.299194%, 6.599426%, 4.998779%)" fill-opacity="1" stroke-width="0.4" stroke-linecap="butt" stroke-linejoin="round" stroke="rgb(0%, 0%, 0%)" stroke-opacity="1" stroke-miterlimit="10" d="M 106.00109 344.499767 C 106.00109 341.169205 100.999375 341.169205 100.999375 344.499767 C 100.999375 347.83033 106.00109 347.83033 106.00109 344.499767 " transform="matrix(0.998095, 0, 0, -0.998095, -55.193714, 391.452952)"/>
<path fill-rule="nonzero" fill="rgb(15.59906%, 19.898987%, 3.49884%)" fill-opacity="1" stroke-width="0.4" stroke-linecap="butt" stroke-linejoin="round" stroke="rgb(0%, 0%, 0%)" stroke-opacity="1" stroke-miterlimit="10" d="M 200.998443 117.500983 C 200.998443 99.552733 186.447289 85.001579 168.49904 85.001579 C 150.55079 85.001579 135.999636 99.552733 135.999636 117.500983 C 135.999636 135.449232 150.55079 150.000386 168.49904 150.000386 C 186.447289 150.000386 200.998443 135.449232 200.998443 117.500983 " transform="matrix(0.998095, 0, 0, -0.998095, -55.193714, 391.452952)"/>
<path fill-rule="nonzero" fill="rgb(45.799255%, 28.199768%, 69.799805%)" fill-opacity="1" stroke-width="0.4" stroke-linecap="butt" stroke-linejoin="round" stroke="rgb(0%, 0%, 0%)" stroke-opacity="1" stroke-miterlimit="10" d="M 182.999316 176.500081 C 182.999316 160.763074 170.236725 148.000483 154.499718 148.000483 C 138.762712 148.000483 126.000121 160.763074 126.000121 176.500081 C 126.000121 192.237087 138.762712 204.999678 154.499718 204.999678 C 170.236725 204.999678 182.999316 192.237087 182.999316 176.500081 " transform="matrix(0.998095, 0, 0, -0.998095, -55.193714, 391.452952)"/>
<path fill-rule="nonzero" fill="rgb(27.799988%, 67.399597%, 25.39978%)" fill-opacity="1" stroke-width="0.4" stroke-linecap="butt" stroke-linejoin="round" stroke="rgb(0%, 0%, 0%)" stroke-opacity="1" stroke-miterlimit="10" d="M 167.998086 230.998418 C 167.998086 215.813244 155.689484 203.500729 140.500397 203.500729 C 125.311309 203.500729 112.998794 215.813244 112.998794 230.998418 C 112.998794 246.187506 125.311309 258.500021 140.500397 258.500021 C 155.689484 258.500021 167.998086 246.187506 167.998086 230.998418 " transform="matrix(0.998095, 0, 0, -0.998095, -55.193714, 391.452952)"/>
<path fill-rule="nonzero" fill="rgb(68.199158%, 89.399719%, 88.598633%)" fill-opacity="1" stroke-width="0.4" stroke-linecap="butt" stroke-linejoin="round" stroke="rgb(0%, 0%, 0%)" stroke-opacity="1" stroke-miterlimit="10" d="M 155.998667 282.001817 C 155.998667 269.020059 145.478629 258.500021 132.500784 258.500021 C 119.519026 258.500021 108.998988 269.020059 108.998988 282.001817 C 108.998988 294.979662 119.519026 305.4997 132.500784 305.4997 C 145.478629 305.4997 155.998667 294.979662 155.998667 282.001817 " transform="matrix(0.998095, 0, 0, -0.998095, -55.193714, 391.452952)"/>
<path fill-rule="nonzero" fill="rgb(93.299866%, 0.299072%, 87.399292%)" fill-opacity="1" stroke-width="0.4" stroke-linecap="butt" stroke-linejoin="round" stroke="rgb(0%, 0%, 0%)" stroke-opacity="1" stroke-miterlimit="10" d="M 143.001254 321.999879 C 143.001254 312.610902 135.389098 304.998746 126.000121 304.998746 C 116.60723 304.998746 108.998988 312.610902 108.998988 321.999879 C 108.998988 331.39277 116.60723 339.001012 126.000121 339.001012 C 135.389098 339.001012 143.001254 331.39277 143.001254 321.999879 " transform="matrix(0.998095, 0, 0, -0.998095, -55.193714, 391.452952)"/>
<path fill-rule="nonzero" fill="rgb(35.998535%, 42.698669%, 88.999939%)" fill-opacity="1" stroke-width="0.4" stroke-linecap="butt" stroke-linejoin="round" stroke="rgb(0%, 0%, 0%)" stroke-opacity="1" stroke-miterlimit="10" d="M 124.998212 346.499671 C 124.998212 341.255306 120.747929 337.001109 115.499651 337.001109 C 110.255287 337.001109 106.00109 341.255306 106.00109 346.499671 C 106.00109 351.747948 110.255287 355.998232 115.499651 355.998232 C 120.747929 355.998232 124.998212 351.747948 124.998212 346.499671 " transform="matrix(0.998095, 0, 0, -0.998095, -55.193714, 391.452952)"/>
<g clip-path="url(#clip-0)">
<path fill-rule="nonzero" fill="rgb(80.699158%, 30.899048%, 1.899719%)" fill-opacity="1" stroke-width="0.4" stroke-linecap="butt" stroke-linejoin="round" stroke="rgb(0%, 0%, 0%)" stroke-opacity="1" stroke-miterlimit="10" d="M 260.99945 108.499462 C 260.99945 91.928836 247.571529 78.500915 231.000904 78.500915 C 214.430278 78.500915 200.998443 91.928836 200.998443 108.499462 C 200.998443 125.070087 214.430278 138.501922 231.000904 138.501922 C 247.571529 138.501922 260.99945 125.070087 260.99945 108.499462 " transform="matrix(0.998095, 0, 0, -0.998095, -55.193714, 391.452952)"/>
</g>
<path fill-rule="nonzero" fill="rgb(28.999329%, 19.898987%, 41.499329%)" fill-opacity="1" stroke-width="0.4" stroke-linecap="butt" stroke-linejoin="round" stroke="rgb(0%, 0%, 0%)" stroke-opacity="1" stroke-miterlimit="10" d="M 237.000613 162.500759 C 237.000613 147.033798 224.465017 134.498202 208.998056 134.498202 C 193.535009 134.498202 180.999413 147.033798 180.999413 162.500759 C 180.999413 177.963806 193.535009 190.499402 208.998056 190.499402 C 224.465017 190.499402 237.000613 177.963806 237.000613 162.500759 " transform="matrix(0.998095, 0, 0, -0.998095, -55.193714, 391.452952)"/>
<path fill-rule="nonzero" fill="rgb(76.399231%, 27.799988%, 42.698669%)" fill-opacity="1" stroke-width="0.4" stroke-linecap="butt" stroke-linejoin="round" stroke="rgb(0%, 0%, 0%)" stroke-opacity="1" stroke-miterlimit="10" d="M 221.001388 215.500148 C 221.001388 200.31106 208.688873 187.998545 193.499785 187.998545 C 178.310697 187.998545 165.998183 200.31106 165.998183 215.500148 C 165.998183 230.689235 178.310697 243.00175 193.499785 243.00175 C 208.688873 243.00175 221.001388 230.689235 221.001388 215.500148 " transform="matrix(0.998095, 0, 0, -0.998095, -55.193714, 391.452952)"/>
<path fill-rule="nonzero" fill="rgb(83.099365%, 32.899475%, 37.998962%)" fill-opacity="1" stroke-width="0.4" stroke-linecap="butt" stroke-linejoin="round" stroke="rgb(0%, 0%, 0%)" stroke-opacity="1" stroke-miterlimit="10" d="M 206.998153 267.501542 C 206.998153 252.864286 195.135714 241.001847 180.498458 241.001847 C 165.861203 241.001847 153.998764 252.864286 153.998764 267.501542 C 153.998764 282.138797 165.861203 294.001236 180.498458 294.001236 C 195.135714 294.001236 206.998153 282.138797 206.998153 267.501542 " transform="matrix(0.998095, 0, 0, -0.998095, -55.193714, 391.452952)"/>
<path fill-rule="nonzero" fill="rgb(2.69928%, 36.399841%, 60.299683%)" fill-opacity="1" stroke-width="0.4" stroke-linecap="butt" stroke-linejoin="round" stroke="rgb(0%, 0%, 0%)" stroke-opacity="1" stroke-miterlimit="10" d="M 190.000933 315.499216 C 190.000933 302.247412 179.2539 291.500379 165.998183 291.500379 C 152.746379 291.500379 141.999345 302.247412 141.999345 315.499216 C 141.999345 328.754934 152.746379 339.498053 165.998183 339.498053 C 179.2539 339.498053 190.000933 328.754934 190.000933 315.499216 " transform="matrix(0.998095, 0, 0, -0.998095, -55.193714, 391.452952)"/>
<path fill-rule="nonzero" fill="rgb(30.899048%, 5.799866%, 75.999451%)" fill-opacity="1" stroke-width="0.4" stroke-linecap="butt" stroke-linejoin="round" stroke="rgb(0%, 0%, 0%)" stroke-opacity="1" stroke-miterlimit="10" d="M 165.000188 354.499283 C 165.000188 343.180849 155.818637 333.999298 144.500203 333.999298 C 133.181769 333.999298 124.000218 343.180849 124.000218 354.499283 C 124.000218 365.82163 133.181769 374.999268 144.500203 374.999268 C 155.818637 374.999268 165.000188 365.82163 165.000188 354.499283 " transform="matrix(0.998095, 0, 0, -0.998095, -55.193714, 391.452952)"/>
<path fill-rule="nonzero" fill="rgb(98.799133%, 31.298828%, 21.499634%)" fill-opacity="1" stroke-width="0.4" stroke-linecap="butt" stroke-linejoin="round" stroke="rgb(0%, 0%, 0%)" stroke-opacity="1" stroke-miterlimit="10" d="M 301.99942 115.501079 C 301.99942 104.178732 292.821783 95.001094 281.499435 95.001094 C 270.181001 95.001094 260.99945 104.178732 260.99945 115.501079 C 260.99945 126.819513 270.181001 136.001065 281.499435 136.001065 C 292.821783 136.001065 301.99942 126.819513 301.99942 115.501079 " transform="matrix(0.998095, 0, 0, -0.998095, -55.193714, 391.452952)"/>
<path fill-rule="nonzero" fill="rgb(87.799072%, 19.599915%, 49.398804%)" fill-opacity="1" stroke-width="0.4" stroke-linecap="butt" stroke-linejoin="round" stroke="rgb(0%, 0%, 0%)" stroke-opacity="1" stroke-miterlimit="10" d="M 284.000292 154.501147 C 284.000292 141.245429 273.253259 130.498396 260.001455 130.498396 C 246.745737 130.498396 235.998704 141.245429 235.998704 154.501147 C 235.998704 167.752951 246.745737 178.499984 260.001455 178.499984 C 273.253259 178.499984 284.000292 167.752951 284.000292 154.501147 " transform="matrix(0.998095, 0, 0, -0.998095, -55.193714, 391.452952)"/>
<path fill-rule="nonzero" fill="rgb(88.198853%, 6.599426%, 17.199707%)" fill-opacity="1" stroke-width="0.4" stroke-linecap="butt" stroke-linejoin="round" stroke="rgb(0%, 0%, 0%)" stroke-opacity="1" stroke-miterlimit="10" d="M 272.000874 202.498821 C 272.000874 187.861565 260.138435 175.999126 245.501179 175.999126 C 230.863924 175.999126 219.001485 187.861565 219.001485 202.498821 C 219.001485 217.136076 230.863924 228.998515 245.501179 228.998515 C 260.138435 228.998515 272.000874 217.136076 272.000874 202.498821 " transform="matrix(0.998095, 0, 0, -0.998095, -55.193714, 391.452952)"/>
<path fill-rule="nonzero" fill="rgb(30.499268%, 95.599365%, 10.099792%)" fill-opacity="1" stroke-width="0.4" stroke-linecap="butt" stroke-linejoin="round" stroke="rgb(0%, 0%, 0%)" stroke-opacity="1" stroke-miterlimit="10" d="M 260.001455 254.500215 C 260.001455 239.311127 247.68894 226.998612 232.499852 226.998612 C 217.310765 226.998612 204.99825 239.311127 204.99825 254.500215 C 204.99825 269.689303 217.310765 282.001817 232.499852 282.001817 C 247.68894 282.001817 260.001455 269.689303 260.001455 254.500215 " transform="matrix(0.998095, 0, 0, -0.998095, -55.193714, 391.452952)"/>
<path fill-rule="nonzero" fill="rgb(61.499023%, 97.599792%, 46.199036%)" fill-opacity="1" stroke-width="0.4" stroke-linecap="butt" stroke-linejoin="round" stroke="rgb(0%, 0%, 0%)" stroke-opacity="1" stroke-miterlimit="10" d="M 245.000225 307.499603 C 245.000225 292.036556 232.464629 279.50096 217.001582 279.50096 C 201.534621 279.50096 188.999025 292.036556 188.999025 307.499603 C 188.999025 322.966564 201.534621 335.498247 217.001582 335.498247 C 232.464629 335.498247 245.000225 322.966564 245.000225 307.499603 " transform="matrix(0.998095, 0, 0, -0.998095, -55.193714, 391.452952)"/>
<path fill-rule="nonzero" fill="rgb(81.898499%, 38.798523%, 26.599121%)" fill-opacity="1" stroke-width="0.4" stroke-linecap="butt" stroke-linejoin="round" stroke="rgb(0%, 0%, 0%)" stroke-opacity="1" stroke-miterlimit="10" d="M 225.001194 361.500901 C 225.001194 344.930275 211.56936 331.49844 194.998734 331.49844 C 178.428109 331.49844 165.000188 344.930275 165.000188 361.500901 C 165.000188 378.071526 178.428109 391.499447 194.998734 391.499447 C 211.56936 391.499447 225.001194 378.071526 225.001194 361.500901 " transform="matrix(0.998095, 0, 0, -0.998095, -55.193714, 391.452952)"/>
<path fill-rule="nonzero" fill="rgb(9.399414%, 81.898499%, 55.999756%)" fill-opacity="1" stroke-width="0.4" stroke-linecap="butt" stroke-linejoin="round" stroke="rgb(0%, 0%, 0%)" stroke-opacity="1" stroke-miterlimit="10" d="M 319.998548 123.500692 C 319.998548 118.252414 315.744351 113.998217 310.499987 113.998217 C 305.255622 113.998217 301.001425 118.252414 301.001425 123.500692 C 301.001425 128.745056 305.255622 132.999253 310.499987 132.999253 C 315.744351 132.999253 319.998548 128.745056 319.998548 123.500692 " transform="matrix(0.998095, 0, 0, -0.998095, -55.193714, 391.452952)"/>
<path fill-rule="nonzero" fill="rgb(42.298889%, 19.599915%, 32.099915%)" fill-opacity="1" stroke-width="0.4" stroke-linecap="butt" stroke-linejoin="round" stroke="rgb(0%, 0%, 0%)" stroke-opacity="1" stroke-miterlimit="10" d="M 317.00065 148.000483 C 317.00065 138.607592 309.392408 130.99935 299.999517 130.99935 C 290.610539 130.99935 282.998384 138.607592 282.998384 148.000483 C 282.998384 157.389461 290.610539 165.001616 299.999517 165.001616 C 309.392408 165.001616 317.00065 157.389461 317.00065 148.000483 " transform="matrix(0.998095, 0, 0, -0.998095, -55.193714, 391.452952)"/>
<path fill-rule="nonzero" fill="rgb(78.799438%, 79.899597%, 14.898682%)" fill-opacity="1" stroke-width="0.4" stroke-linecap="butt" stroke-linejoin="round" stroke="rgb(0%, 0%, 0%)" stroke-opacity="1" stroke-miterlimit="10" d="M 317.00065 187.998545 C 317.00065 175.0207 306.480612 164.500662 293.498853 164.500662 C 280.521009 164.500662 270.000971 175.0207 270.000971 187.998545 C 270.000971 200.980303 280.521009 211.500341 293.498853 211.500341 C 306.480612 211.500341 317.00065 200.980303 317.00065 187.998545 " transform="matrix(0.998095, 0, 0, -0.998095, -55.193714, 391.452952)"/>
<path fill-rule="nonzero" fill="rgb(84.698486%, 55.599976%, 17.599487%)" fill-opacity="1" stroke-width="0.4" stroke-linecap="butt" stroke-linejoin="round" stroke="rgb(0%, 0%, 0%)" stroke-opacity="1" stroke-miterlimit="10" d="M 313.000844 239.001944 C 313.000844 223.812856 300.688329 211.500341 285.499241 211.500341 C 270.310153 211.500341 258.001552 223.812856 258.001552 239.001944 C 258.001552 254.187118 270.310153 266.499633 285.499241 266.499633 C 300.688329 266.499633 313.000844 254.187118 313.000844 239.001944 " transform="matrix(0.998095, 0, 0, -0.998095, -55.193714, 391.452952)"/>
<path fill-rule="nonzero" fill="rgb(15.99884%, 77.198792%, 48.999023%)" fill-opacity="1" stroke-width="0.4" stroke-linecap="butt" stroke-linejoin="round" stroke="rgb(0%, 0%, 0%)" stroke-opacity="1" stroke-miterlimit="10" d="M 299.999517 293.500282 C 299.999517 277.763275 287.236926 265.000684 271.499919 265.000684 C 255.762913 265.000684 243.000322 277.763275 243.000322 293.500282 C 243.000322 309.237288 255.762913 321.999879 271.499919 321.999879 C 287.236926 321.999879 299.999517 309.237288 299.999517 293.500282 " transform="matrix(0.998095, 0, 0, -0.998095, -55.193714, 391.452952)"/>
<path fill-rule="nonzero" fill="rgb(35.598755%, 26.199341%, 47.399902%)" fill-opacity="1" stroke-width="0.4" stroke-linecap="butt" stroke-linejoin="round" stroke="rgb(0%, 0%, 0%)" stroke-opacity="1" stroke-miterlimit="10" d="M 290.000001 352.49938 C 290.000001 334.55113 275.448848 319.999976 257.500598 319.999976 C 239.552348 319.999976 225.001194 334.55113 225.001194 352.49938 C 225.001194 370.447629 239.552348 384.998783 257.500598 384.998783 C 275.448848 384.998783 290.000001 370.447629 290.000001 352.49938 " transform="matrix(0.998095, 0, 0, -0.998095, -55.193714, 391.452952)"/>
<path fill-rule="nonzero" fill="rgb(42.698669%, 43.499756%, 34.899902%)" fill-opacity="1" stroke-width="0.4" stroke-linecap="butt" stroke-linejoin="round" stroke="rgb(0%, 0%, 0%)" stroke-opacity="1" stroke-miterlimit="10" d="M 325.000262 125.500595 C 325.000262 122.166118 319.998548 122.166118 319.998548 125.500595 C 319.998548 128.831158 325.000262 128.831158 325.000262 125.500595 " transform="matrix(0.998095, 0, 0, -0.998095, -55.193714, 391.452952)"/>
<path fill-rule="nonzero" fill="rgb(37.998962%, 54.098511%, 22.698975%)" fill-opacity="1" stroke-width="0.4" stroke-linecap="butt" stroke-linejoin="round" stroke="rgb(0%, 0%, 0%)" stroke-opacity="1" stroke-miterlimit="10" d="M 334.001783 137.500013 C 334.001783 132.255649 329.747586 128.001452 324.499308 128.001452 C 319.254944 128.001452 315.000747 132.255649 315.000747 137.500013 C 315.000747 142.744378 319.254944 146.998575 324.499308 146.998575 C 329.747586 146.998575 334.001783 142.744378 334.001783 137.500013 " transform="matrix(0.998095, 0, 0, -0.998095, -55.193714, 391.452952)"/>
<path fill-rule="nonzero" fill="rgb(35.598755%, 0%, 53.29895%)" fill-opacity="1" stroke-width="0.4" stroke-linecap="butt" stroke-linejoin="round" stroke="rgb(0%, 0%, 0%)" stroke-opacity="1" stroke-miterlimit="10" d="M 352.998906 166.500565 C 352.998906 155.178217 343.821268 146.00058 332.498921 146.00058 C 321.180487 146.00058 311.998935 155.178217 311.998935 166.500565 C 311.998935 177.818999 321.180487 187.00055 332.498921 187.00055 C 343.821268 187.00055 352.998906 177.818999 352.998906 166.500565 " transform="matrix(0.998095, 0, 0, -0.998095, -55.193714, 391.452952)"/>
<g clip-path="url(#clip-1)">
<path fill-rule="nonzero" fill="rgb(74.499512%, 26.998901%, 14.898682%)" fill-opacity="1" stroke-width="0.4" stroke-linecap="butt" stroke-linejoin="round" stroke="rgb(0%, 0%, 0%)" stroke-opacity="1" stroke-miterlimit="10" d="M 370.000039 216.999096 C 370.000039 200.154512 356.345123 186.499596 339.500538 186.499596 C 322.655953 186.499596 309.001038 200.154512 309.001038 216.999096 C 309.001038 233.843681 322.655953 247.498597 339.500538 247.498597 C 356.345123 247.498597 370.000039 233.843681 370.000039 216.999096 " transform="matrix(0.998095, 0, 0, -0.998095, -55.193714, 391.452952)"/>
</g>
<path fill-rule="nonzero" fill="rgb(55.999756%, 83.099365%, 96.798706%)" fill-opacity="1" stroke-width="0.4" stroke-linecap="butt" stroke-linejoin="round" stroke="rgb(0%, 0%, 0%)" stroke-opacity="1" stroke-miterlimit="10" d="M 362.998421 279.50096 C 362.998421 261.552711 348.447267 247.001557 330.499017 247.001557 C 312.550768 247.001557 297.999614 261.552711 297.999614 279.50096 C 297.999614 297.44921 312.550768 312.000364 330.499017 312.000364 C 348.447267 312.000364 362.998421 297.44921 362.998421 279.50096 " transform="matrix(0.998095, 0, 0, -0.998095, -55.193714, 391.452952)"/>
<path fill-rule="nonzero" fill="rgb(75.59967%, 14.898682%, 5.799866%)" fill-opacity="1" stroke-width="0.4" stroke-linecap="butt" stroke-linejoin="round" stroke="rgb(0%, 0%, 0%)" stroke-opacity="1" stroke-miterlimit="10" d="M 332.00188 330.500446 C 332.00188 317.518687 321.481842 306.998649 308.500083 306.998649 C 295.518325 306.998649 284.998287 317.518687 284.998287 330.500446 C 284.998287 343.47829 295.518325 353.998329 308.500083 353.998329 C 321.481842 353.998329 332.00188 343.47829 332.00188 330.500446 " transform="matrix(0.998095, 0, 0, -0.998095, -55.193714, 391.452952)"/>
</svg>
