<?xml version="1.0" encoding="UTF-8"?>
<svg xmlns="http://www.w3.org/2000/svg" xmlns:xlink="http://www.w3.org/1999/xlink" width="371.4" height="371.4" viewBox="0 0 371.4 371.4">
<defs>
<clipPath id="clip-0">
<path clip-rule="nonzero" d="M 0 338 L 33 338 L 33 370.800781 L 0 370.800781 Z M 0 338 "/>
</clipPath>
<clipPath id="clip-1">
<path clip-rule="nonzero" d="M 0 337 L 33 337 L 33 370.800781 L 0 370.800781 Z M 0 337 "/>
</clipPath>
<clipPath id="clip-2">
<path clip-rule="nonzero" d="M 135 338 L 168 338 L 168 370.800781 L 135 370.800781 Z M 135 338 "/>
</clipPath>
<clipPath id="clip-3">
<path clip-rule="nonzero" d="M 135 337 L 168 337 L 168 370.800781 L 135 370.800781 Z M 135 337 "/>
</clipPath>
<clipPath id="clip-4">
<path clip-rule="nonzero" d="M 203 338 L 236 338 L 236 370.800781 L 203 370.800781 Z M 203 338 "/>
</clipPath>
<clipPath id="clip-5">
<path clip-rule="nonzero" d="M 203 337 L 236 337 L 236 370.800781 L 203 370.800781 Z M 203 337 "/>
</clipPath>
<clipPath id="clip-6">
<path clip-rule="nonzero" d="M 338 338 L 370.800781 338 L 370.800781 370.800781 L 338 370.800781 Z M 338 338 "/>
</clipPath>
<clipPath id="clip-7">
<path clip-rule="nonzero" d="M 337 337 L 370.800781 337 L 370.800781 370.800781 L 337 370.800781 Z M 337 337 "/>
</clipPath>
<clipPath id="clip-8">
<path clip-rule="nonzero" d="M 338 270 L 370.800781 270 L 370.800781 303 L 338 303 Z M 338 270 "/>
</clipPath>
<clipPath id="clip-9">
<path clip-rule="nonzero" d="M 337 270 L 370.800781 270 L 370.800781 303 L 337 303 Z M 337 270 "/>
</clipPath>
<clipPath id="clip-10">
<path clip-rule="nonzero" d="M 338 203 L 370.800781 203 L 370.800781 236 L 338 236 Z M 338 203 "/>
</clipPath>
<clipPath id="clip-11">
<path clip-rule="nonzero" d="M 337 203 L 370.800781 203 L 370.800781 236 L 337 236 Z M 337 203 "/>
</clipPath>
<clipPath id="clip-12">
<path clip-rule="nonzero" d="M 338 135 L 370.800781 135 L 370.800781 168 L 338 168 Z M 338 135 "/>
</clipPath>
<clipPath id="clip-13">
<path clip-rule="nonzero" d="M 337 135 L 370.800781 135 L 370.800781 168 L 337 168 Z M 337 135 "/>
</clipPath>
<clipPath id="clip-14">
<path clip-rule="nonzero" d="M 338 68 L 370.800781 68 L 370.800781 101 L 338 101 Z M 338 68 "/>
</clipPath>
<clipPath id="clip-15">
<path clip-rule="nonzero" d="M 337 67 L 370.800781 67 L 370.800781 101 L 337 101 Z M 337 67 "/>
</clipPath>
<clipPath id="clip-16">
<path clip-rule="nonzero" d="M 338 0 L 370.800781 0 L 370.800781 33 L 338 33 Z M 338 0 "/>
</clipPath>
<clipPath id="clip-17">
<path clip-rule="nonzero" d="M 337 0 L 370.800781 0 L 370.800781 33 L 337 33 Z M 337 0 "/>
</clipPath>
</defs>
<path fill="none" stroke-width="1" stroke-linecap="butt" stroke-linejoin="round" stroke="rgb(0%, 0%, 0%)" stroke-opacity="1" stroke-miterlimit="10" d="M 35.998809 41.998995 L 103.001409 41.998995 " transform="matrix(0.998387, 0, 0, -0.998387, -19.268871, 396.060161)"/>
<path fill="none" stroke-width="1" stroke-linecap="butt" stroke-linejoin="round" stroke="rgb(0%, 0%, 0%)" stroke-opacity="1" stroke-miterlimit="10" d="M 35.998809 41.998995 L 103.001409 109.001595 " transform="matrix(0.998387, 0, 0, -0.998387, -19.268871, 396.060161)"/>
<path fill="none" stroke-width="1" stroke-linecap="butt" stroke-linejoin="round" stroke="rgb(0%, 0%, 0%)" stroke-opacity="1" stroke-miterlimit="10" d="M 35.998809 41.998995 L 35.998809 109.001595 " transform="matrix(0.998387, 0, 0, -0.998387, -19.268871, 396.060161)"/>
<path fill="none" stroke-width="1" stroke-linecap="butt" stroke-linejoin="round" stroke="rgb(0%, 0%, 0%)" stroke-opacity="1" stroke-miterlimit="10" d="M 35.998809 109.001595 L 103.001409 109.001595 " transform="matrix(0.998387, 0, 0, -0.998387, -19.268871, 396.060161)"/>
<path fill="none" stroke-width="1" stroke-linecap="butt" stroke-linejoin="round" stroke="rgb(0%, 0%, 0%)" stroke-opacity="1" stroke-miterlimit="10" d="M 35.998809 109.001595 L 103.001409 177.001898 " transform="matrix(0.998387, 0, 0, -0.998387, -19.268871, 396.060161)"/>
<path fill="none" stroke-width="1" stroke-linecap="butt" stroke-linejoin="round" stroke="rgb(0%, 0%, 0%)" stroke-opacity="1" stroke-miterlimit="10" d="M 35.998809 109.001595 L 35.998809 177.001898 " transform="matrix(0.998387, 0, 0, -0.998387, -19.268871, 396.060161)"/>
<path fill="none" stroke-width="1" stroke-linecap="butt" stroke-linejoin="round" stroke="rgb(0%, 0%, 0%)" stroke-opacity="1" stroke-miterlimit="10" d="M 35.998809 109.001595 L 35.998809 41.998995 " transform="matrix(0.998387, 0, 0, -0.998387, -19.268871, 396.060161)"/>
<path fill="none" stroke-width="1" stroke-linecap="butt" stroke-linejoin="round" stroke="rgb(0%, 0%, 0%)" stroke-opacity="1" stroke-miterlimit="10" d="M 35.998809 177.001898 L 103.001409 177.001898 " transform="matrix(0.998387, 0, 0, -0.998387, -19.268871, 396.060161)"/>
<path fill="none" stroke-width="1" stroke-linecap="butt" stroke-linejoin="round" stroke="rgb(0%, 0%, 0%)" stroke-opacity="1" stroke-miterlimit="10" d="M 35.998809 177.001898 L 103.001409 244.998289 " transform="matrix(0.998387, 0, 0, -0.998387, -19.268871, 396.060161)"/>
<path fill="none" stroke-width="1" stroke-linecap="butt" stroke-linejoin="round" stroke="rgb(0%, 0%, 0%)" stroke-opacity="1" stroke-miterlimit="10" d="M 35.998809 177.001898 L 35.998809 244.998289 " transform="matrix(0.998387, 0, 0, -0.998387, -19.268871, 396.060161)"/>
<path fill="none" stroke-width="1" stroke-linecap="butt" stroke-linejoin="round" stroke="rgb(0%, 0%, 0%)" stroke-opacity="1" stroke-miterlimit="10" d="M 35.998809 177.001898 L 35.998809 109.001595 " transform="matrix(0.998387, 0, 0, -0.998387, -19.268871, 396.060161)"/>
<path fill="none" stroke-width="1" stroke-linecap="butt" stroke-linejoin="round" stroke="rgb(0%, 0%, 0%)" stroke-opacity="1" stroke-miterlimit="10" d="M 35.998809 244.998289 L 103.001409 244.998289 " transform="matrix(0.998387, 0, 0, -0.998387, -19.268871, 396.060161)"/>
<path fill="none" stroke-width="1" stroke-linecap="butt" stroke-linejoin="round" stroke="rgb(0%, 0%, 0%)" stroke-opacity="1" stroke-miterlimit="10" d="M 35.998809 244.998289 L 103.001409 312.998591 " transform="matrix(0.998387, 0, 0, -0.998387, -19.268871, 396.060161)"/>
<path fill="none" stroke-width="1" stroke-linecap="butt" stroke-linejoin="round" stroke="rgb(0%, 0%, 0%)" stroke-opacity="1" stroke-miterlimit="10" d="M 35.998809 244.998289 L 35.998809 312.998591 " transform="matrix(0.998387, 0, 0, -0.998387, -19.268871, 396.060161)"/>
<path fill="none" stroke-width="1" stroke-linecap="butt" stroke-linejoin="round" stroke="rgb(0%, 0%, 0%)" stroke-opacity="1" stroke-miterlimit="10" d="M 35.998809 244.998289 L 35.998809 177.001898 " transform="matrix(0.998387, 0, 0, -0.998387, -19.268871, 396.060161)"/>
<path fill="none" stroke-width="1" stroke-linecap="butt" stroke-linejoin="round" stroke="rgb(0%, 0%, 0%)" stroke-opacity="1" stroke-miterlimit="10" d="M 35.998809 312.998591 L 103.001409 312.998591 " transform="matrix(0.998387, 0, 0, -0.998387, -19.268871, 396.060161)"/>
<path fill="none" stroke-width="1" stroke-linecap="butt" stroke-linejoin="round" stroke="rgb(0%, 0%, 0%)" stroke-opacity="1" stroke-miterlimit="10" d="M 35.998809 312.998591 L 103.001409 380.001191 " transform="matrix(0.998387, 0, 0, -0.998387, -19.268871, 396.060161)"/>
<path fill="none" stroke-width="1" stroke-linecap="butt" stroke-linejoin="round" stroke="rgb(0%, 0%, 0%)" stroke-opacity="1" stroke-miterlimit="10" d="M 35.998809 312.998591 L 35.998809 380.001191 " transform="matrix(0.998387, 0, 0, -0.998387, -19.268871, 396.060161)"/>
<path fill="none" stroke-width="1" stroke-linecap="butt" stroke-linejoin="round" stroke="rgb(0%, 0%, 0%)" stroke-opacity="1" stroke-miterlimit="10" d="M 35.998809 312.998591 L 35.998809 244.998289 " transform="matrix(0.998387, 0, 0, -0.998387, -19.268871, 396.060161)"/>
<path fill="none" stroke-width="1" stroke-linecap="butt" stroke-linejoin="round" stroke="rgb(0%, 0%, 0%)" stroke-opacity="1" stroke-miterlimit="10" d="M 35.998809 380.001191 L 35.998809 312.998591 " transform="matrix(0.998387, 0, 0, -0.998387, -19.268871, 396.060161)"/>
<path fill="none" stroke-width="1" stroke-linecap="butt" stroke-linejoin="round" stroke="rgb(0%, 0%, 0%)" stroke-opacity="1" stroke-miterlimit="10" d="M 35.998809 380.001191 L 103.001409 380.001191 " transform="matrix(0.998387, 0, 0, -0.998387, -19.268871, 396.060161)"/>
<path fill="none" stroke-width="1" stroke-linecap="butt" stroke-linejoin="round" stroke="rgb(0%, 0%, 0%)" stroke-opacity="1" stroke-miterlimit="10" d="M 103.001409 41.998995 L 171.001711 41.998995 " transform="matrix(0.998387, 0, 0, -0.998387, -19.268871, 396.060161)"/>
<path fill="none" stroke-width="1" stroke-linecap="butt" stroke-linejoin="round" stroke="rgb(0%, 0%, 0%)" stroke-opacity="1" stroke-miterlimit="10" d="M 103.001409 41.998995 L 171.001711 109.001595 " transform="matrix(0.998387, 0, 0, -0.998387, -19.268871, 396.060161)"/>
<path fill="none" stroke-width="1" stroke-linecap="butt" stroke-linejoin="round" stroke="rgb(0%, 0%, 0%)" stroke-opacity="1" stroke-miterlimit="10" d="M 103.001409 41.998995 L 103.001409 109.001595 " transform="matrix(0.998387, 0, 0, -0.998387, -19.268871, 396.060161)"/>
<path fill="none" stroke-width="1" stroke-linecap="butt" stroke-linejoin="round" stroke="rgb(0%, 0%, 0%)" stroke-opacity="1" stroke-miterlimit="10" d="M 103.001409 109.001595 L 103.001409 177.001898 " transform="matrix(0.998387, 0, 0, -0.998387, -19.268871, 396.060161)"/>
<path fill="none" stroke-width="1" stroke-linecap="butt" stroke-linejoin="round" stroke="rgb(0%, 0%, 0%)" stroke-opacity="1" stroke-miterlimit="10" d="M 103.001409 109.001595 L 103.001409 41.998995 " transform="matrix(0.998387, 0, 0, -0.998387, -19.268871, 396.060161)"/>
<path fill="none" stroke-width="1" stroke-linecap="butt" stroke-linejoin="round" stroke="rgb(0%, 0%, 0%)" stroke-opacity="1" stroke-miterlimit="10" d="M 103.001409 109.001595 L 171.001711 109.001595 " transform="matrix(0.998387, 0, 0, -0.998387, -19.268871, 396.060161)"/>
<path fill="none" stroke-width="1" stroke-linecap="butt" stroke-linejoin="round" stroke="rgb(0%, 0%, 0%)" stroke-opacity="1" stroke-miterlimit="10" d="M 103.001409 109.001595 L 171.001711 177.001898 " transform="matrix(0.998387, 0, 0, -0.998387, -19.268871, 396.060161)"/>
<path fill="none" stroke-width="1" stroke-linecap="butt" stroke-linejoin="round" stroke="rgb(0%, 0%, 0%)" stroke-opacity="1" stroke-miterlimit="10" d="M 103.001409 177.001898 L 103.001409 244.998289 " transform="matrix(0.998387, 0, 0, -0.998387, -19.268871, 396.060161)"/>
<path fill="none" stroke-width="1" stroke-linecap="butt" stroke-linejoin="round" stroke="rgb(0%, 0%, 0%)" stroke-opacity="1" stroke-miterlimit="10" d="M 103.001409 177.001898 L 103.001409 109.001595 " transform="matrix(0.998387, 0, 0, -0.998387, -19.268871, 396.060161)"/>
<path fill="none" stroke-width="1" stroke-linecap="butt" stroke-linejoin="round" stroke="rgb(0%, 0%, 0%)" stroke-opacity="1" stroke-miterlimit="10" d="M 103.001409 177.001898 L 171.001711 177.001898 " transform="matrix(0.998387, 0, 0, -0.998387, -19.268871, 396.060161)"/>
<path fill="none" stroke-width="1" stroke-linecap="butt" stroke-linejoin="round" stroke="rgb(0%, 0%, 0%)" stroke-opacity="1" stroke-miterlimit="10" d="M 103.001409 177.001898 L 171.001711 244.998289 " transform="matrix(0.998387, 0, 0, -0.998387, -19.268871, 396.060161)"/>
<path fill="none" stroke-width="1" stroke-linecap="butt" stroke-linejoin="round" stroke="rgb(0%, 0%, 0%)" stroke-opacity="1" stroke-miterlimit="10" d="M 103.001409 244.998289 L 103.001409 312.998591 " transform="matrix(0.998387, 0, 0, -0.998387, -19.268871, 396.060161)"/>
<path fill="none" stroke-width="1" stroke-linecap="butt" stroke-linejoin="round" stroke="rgb(0%, 0%, 0%)" stroke-opacity="1" stroke-miterlimit="10" d="M 103.001409 244.998289 L 103.001409 177.001898 " transform="matrix(0.998387, 0, 0, -0.998387, -19.268871, 396.060161)"/>
<path fill="none" stroke-width="1" stroke-linecap="butt" stroke-linejoin="round" stroke="rgb(0%, 0%, 0%)" stroke-opacity="1" stroke-miterlimit="10" d="M 103.001409 244.998289 L 171.001711 244.998289 " transform="matrix(0.998387, 0, 0, -0.998387, -19.268871, 396.060161)"/>
<path fill="none" stroke-width="1" stroke-linecap="butt" stroke-linejoin="round" stroke="rgb(0%, 0%, 0%)" stroke-opacity="1" stroke-miterlimit="10" d="M 103.001409 244.998289 L 171.001711 312.998591 " transform="matrix(0.998387, 0, 0, -0.998387, -19.268871, 396.060161)"/>
<path fill="none" stroke-width="1" stroke-linecap="butt" stroke-linejoin="round" stroke="rgb(0%, 0%, 0%)" stroke-opacity="1" stroke-miterlimit="10" d="M 103.001409 312.998591 L 103.001409 380.001191 " transform="matrix(0.998387, 0, 0, -0.998387, -19.268871, 396.060161)"/>
<path fill="none" stroke-width="1" stroke-linecap="butt" stroke-linejoin="round" stroke="rgb(0%, 0%, 0%)" stroke-opacity="1" stroke-miterlimit="10" d="M 103.001409 312.998591 L 103.001409 244.998289 " transform="matrix(0.998387, 0, 0, -0.998387, -19.268871, 396.060161)"/>
<path fill="none" stroke-width="1" stroke-linecap="butt" stroke-linejoin="round" stroke="rgb(0%, 0%, 0%)" stroke-opacity="1" stroke-miterlimit="10" d="M 103.001409 312.998591 L 171.001711 312.998591 " transform="matrix(0.998387, 0, 0, -0.998387, -19.268871, 396.060161)"/>
<path fill="none" stroke-width="1" stroke-linecap="butt" stroke-linejoin="round" stroke="rgb(0%, 0%, 0%)" stroke-opacity="1" stroke-miterlimit="10" d="M 103.001409 312.998591 L 171.001711 380.001191 " transform="matrix(0.998387, 0, 0, -0.998387, -19.268871, 396.060161)"/>
<path fill="none" stroke-width="1" stroke-linecap="butt" stroke-linejoin="round" stroke="rgb(0%, 0%, 0%)" stroke-opacity="1" stroke-miterlimit="10" d="M 103.001409 380.001191 L 103.001409 312.998591 " transform="matrix(0.998387, 0, 0, -0.998387, -19.268871, 396.060161)"/>
<path fill="none" stroke-width="1" stroke-linecap="butt" stroke-linejoin="round" stroke="rgb(0%, 0%, 0%)" stroke-opacity="1" stroke-miterlimit="10" d="M 103.001409 380.001191 L 171.001711 380.001191 " transform="matrix(0.998387, 0, 0, -0.998387, -19.268871, 396.060161)"/>
<path fill="none" stroke-width="1" stroke-linecap="butt" stroke-linejoin="round" stroke="rgb(0%, 0%, 0%)" stroke-opacity="1" stroke-miterlimit="10" d="M 171.001711 41.998995 L 238.998102 41.998995 " transform="matrix(0.998387, 0, 0, -0.998387, -19.268871, 396.060161)"/>
<path fill="none" stroke-width="1" stroke-linecap="butt" stroke-linejoin="round" stroke="rgb(0%, 0%, 0%)" stroke-opacity="1" stroke-miterlimit="10" d="M 171.001711 41.998995 L 238.998102 109.001595 " transform="matrix(0.998387, 0, 0, -0.998387, -19.268871, 396.060161)"/>
<path fill="none" stroke-width="1" stroke-linecap="butt" stroke-linejoin="round" stroke="rgb(0%, 0%, 0%)" stroke-opacity="1" stroke-miterlimit="10" d="M 171.001711 41.998995 L 171.001711 109.001595 " transform="matrix(0.998387, 0, 0, -0.998387, -19.268871, 396.060161)"/>
<path fill="none" stroke-width="1" stroke-linecap="butt" stroke-linejoin="round" stroke="rgb(0%, 0%, 0%)" stroke-opacity="1" stroke-miterlimit="10" d="M 171.001711 109.001595 L 171.001711 177.001898 " transform="matrix(0.998387, 0, 0, -0.998387, -19.268871, 396.060161)"/>
<path fill="none" stroke-width="1" stroke-linecap="butt" stroke-linejoin="round" stroke="rgb(0%, 0%, 0%)" stroke-opacity="1" stroke-miterlimit="10" d="M 171.001711 109.001595 L 171.001711 41.998995 " transform="matrix(0.998387, 0, 0, -0.998387, -19.268871, 396.060161)"/>
<path fill="none" stroke-width="1" stroke-linecap="butt" stroke-linejoin="round" stroke="rgb(0%, 0%, 0%)" stroke-opacity="1" stroke-miterlimit="10" d="M 171.001711 109.001595 L 238.998102 109.001595 " transform="matrix(0.998387, 0, 0, -0.998387, -19.268871, 396.060161)"/>
<path fill="none" stroke-width="1" stroke-linecap="butt" stroke-linejoin="round" stroke="rgb(0%, 0%, 0%)" stroke-opacity="1" stroke-miterlimit="10" d="M 171.001711 109.001595 L 238.998102 177.001898 " transform="matrix(0.998387, 0, 0, -0.998387, -19.268871, 396.060161)"/>
<path fill="none" stroke-width="1" stroke-linecap="butt" stroke-linejoin="round" stroke="rgb(0%, 0%, 0%)" stroke-opacity="1" stroke-miterlimit="10" d="M 171.001711 177.001898 L 171.001711 244.998289 " transform="matrix(0.998387, 0, 0, -0.998387, -19.268871, 396.060161)"/>
<path fill="none" stroke-width="1" stroke-linecap="butt" stroke-linejoin="round" stroke="rgb(0%, 0%, 0%)" stroke-opacity="1" stroke-miterlimit="10" d="M 171.001711 177.001898 L 171.001711 109.001595 " transform="matrix(0.998387, 0, 0, -0.998387, -19.268871, 396.060161)"/>
<path fill="none" stroke-width="1" stroke-linecap="butt" stroke-linejoin="round" stroke="rgb(0%, 0%, 0%)" stroke-opacity="1" stroke-miterlimit="10" d="M 171.001711 177.001898 L 238.998102 177.001898 " transform="matrix(0.998387, 0, 0, -0.998387, -19.268871, 396.060161)"/>
<path fill="none" stroke-width="1" stroke-linecap="butt" stroke-linejoin="round" stroke="rgb(0%, 0%, 0%)" stroke-opacity="1" stroke-miterlimit="10" d="M 171.001711 177.001898 L 238.998102 244.998289 " transform="matrix(0.998387, 0, 0, -0.998387, -19.268871, 396.060161)"/>
<path fill="none" stroke-width="1" stroke-linecap="butt" stroke-linejoin="round" stroke="rgb(0%, 0%, 0%)" stroke-opacity="1" stroke-miterlimit="10" d="M 171.001711 244.998289 L 171.001711 312.998591 " transform="matrix(0.998387, 0, 0, -0.998387, -19.268871, 396.060161)"/>
<path fill="none" stroke-width="1" stroke-linecap="butt" stroke-linejoin="round" stroke="rgb(0%, 0%, 0%)" stroke-opacity="1" stroke-miterlimit="10" d="M 171.001711 244.998289 L 171.001711 177.001898 " transform="matrix(0.998387, 0, 0, -0.998387, -19.268871, 396.060161)"/>
<path fill="none" stroke-width="1" stroke-linecap="butt" stroke-linejoin="round" stroke="rgb(0%, 0%, 0%)" stroke-opacity="1" stroke-miterlimit="10" d="M 171.001711 244.998289 L 238.998102 244.998289 " transform="matrix(0.998387, 0, 0, -0.998387, -19.268871, 396.060161)"/>
<path fill="none" stroke-width="1" stroke-linecap="butt" stroke-linejoin="round" stroke="rgb(0%, 0%, 0%)" stroke-opacity="1" stroke-miterlimit="10" d="M 171.001711 244.998289 L 238.998102 312.998591 " transform="matrix(0.998387, 0, 0, -0.998387, -19.268871, 396.060161)"/>
<path fill="none" stroke-width="1" stroke-linecap="butt" stroke-linejoin="round" stroke="rgb(0%, 0%, 0%)" stroke-opacity="1" stroke-miterlimit="10" d="M 171.001711 312.998591 L 171.001711 380.001191 " transform="matrix(0.998387, 0, 0, -0.998387, -19.268871, 396.060161)"/>
<path fill="none" stroke-width="1" stroke-linecap="butt" stroke-linejoin="round" stroke="rgb(0%, 0%, 0%)" stroke-opacity="1" stroke-miterlimit="10" d="M 171.001711 312.998591 L 171.001711 244.998289 " transform="matrix(0.998387, 0, 0, -0.998387, -19.268871, 396.060161)"/>
<path fill="none" stroke-width="1" stroke-linecap="butt" stroke-linejoin="round" stroke="rgb(0%, 0%, 0%)" stroke-opacity="1" stroke-miterlimit="10" d="M 171.001711 312.998591 L 238.998102 312.998591 " transform="matrix(0.998387, 0, 0, -0.998387, -19.268871, 396.060161)"/>
<path fill="none" stroke-width="1" stroke-linecap="butt" stroke-linejoin="round" stroke="rgb(0%, 0%, 0%)" stroke-opacity="1" stroke-miterlimit="10" d="M 171.001711 312.998591 L 238.998102 380.001191 " transform="matrix(0.998387, 0, 0, -0.998387, -19.268871, 396.060161)"/>
<path fill="none" stroke-width="1" stroke-linecap="butt" stroke-linejoin="round" stroke="rgb(0%, 0%, 0%)" stroke-opacity="1" stroke-miterlimit="10" d="M 171.001711 380.001191 L 171.001711 312.998591 " transform="matrix(0.998387, 0, 0, -0.998387, -19.268871, 396.060161)"/>
<path fill="none" stroke-width="1" stroke-linecap="butt" stroke-linejoin="round" stroke="rgb(0%, 0%, 0%)" stroke-opacity="1" stroke-miterlimit="10" d="M 171.001711 380.001191 L 238.998102 380.001191 " transform="matrix(0.998387, 0, 0, -0.998387, -19.268871, 396.060161)"/>
<path fill="none" stroke-width="1" stroke-linecap="butt" stroke-linejoin="round" stroke="rgb(0%, 0%, 0%)" stroke-opacity="1" stroke-miterlimit="10" d="M 238.998102 41.998995 L 306.998405 41.998995 " transform="matrix(0.998387, 0, 0, -0.998387, -19.268871, 396.060161)"/>
<path fill="none" stroke-width="1" stroke-linecap="butt" stroke-linejoin="round" stroke="rgb(0%, 0%, 0%)" stroke-opacity="1" stroke-miterlimit="10" d="M 238.998102 41.998995 L 306.998405 109.001595 " transform="matrix(0.998387, 0, 0, -0.998387, -19.268871, 396.060161)"/>
<path fill="none" stroke-width="1" stroke-linecap="butt" stroke-linejoin="round" stroke="rgb(0%, 0%, 0%)" stroke-opacity="1" stroke-miterlimit="10" d="M 238.998102 41.998995 L 238.998102 109.001595 " transform="matrix(0.998387, 0, 0, -0.998387, -19.268871, 396.060161)"/>
<path fill="none" stroke-width="1" stroke-linecap="butt" stroke-linejoin="round" stroke="rgb(0%, 0%, 0%)" stroke-opacity="1" stroke-miterlimit="10" d="M 238.998102 109.001595 L 238.998102 177.001898 " transform="matrix(0.998387, 0, 0, -0.998387, -19.268871, 396.060161)"/>
<path fill="none" stroke-width="1" stroke-linecap="butt" stroke-linejoin="round" stroke="rgb(0%, 0%, 0%)" stroke-opacity="1" stroke-miterlimit="10" d="M 238.998102 109.001595 L 238.998102 41.998995 " transform="matrix(0.998387, 0, 0, -0.998387, -19.268871, 396.060161)"/>
<path fill="none" stroke-width="1" stroke-linecap="butt" stroke-linejoin="round" stroke="rgb(0%, 0%, 0%)" stroke-opacity="1" stroke-miterlimit="10" d="M 238.998102 109.001595 L 306.998405 109.001595 " transform="matrix(0.998387, 0, 0, -0.998387, -19.268871, 396.060161)"/>
<path fill="none" stroke-width="1" stroke-linecap="butt" stroke-linejoin="round" stroke="rgb(0%, 0%, 0%)" stroke-opacity="1" stroke-miterlimit="10" d="M 238.998102 109.001595 L 306.998405 177.001898 " transform="matrix(0.998387, 0, 0, -0.998387, -19.268871, 396.060161)"/>
<path fill="none" stroke-width="1" stroke-linecap="butt" stroke-linejoin="round" stroke="rgb(0%, 0%, 0%)" stroke-opacity="1" stroke-miterlimit="10" d="M 238.998102 177.001898 L 238.998102 244.998289 " transform="matrix(0.998387, 0, 0, -0.998387, -19.268871, 396.060161)"/>
<path fill="none" stroke-width="1" stroke-linecap="butt" stroke-linejoin="round" stroke="rgb(0%, 0%, 0%)" stroke-opacity="1" stroke-miterlimit="10" d="M 238.998102 177.001898 L 238.998102 109.001595 " transform="matrix(0.998387, 0, 0, -0.998387, -19.268871, 396.060161)"/>
<path fill="none" stroke-width="1" stroke-linecap="butt" stroke-linejoin="round" stroke="rgb(0%, 0%, 0%)" stroke-opacity="1" stroke-miterlimit="10" d="M 238.998102 177.001898 L 306.998405 177.001898 " transform="matrix(0.998387, 0, 0, -0.998387, -19.268871, 396.060161)"/>
<path fill="none" stroke-width="1" stroke-linecap="butt" stroke-linejoin="round" stroke="rgb(0%, 0%, 0%)" stroke-opacity="1" stroke-miterlimit="10" d="M 238.998102 177.001898 L 306.998405 244.998289 " transform="matrix(0.998387, 0, 0, -0.998387, -19.268871, 396.060161)"/>
<path fill="none" stroke-width="1" stroke-linecap="butt" stroke-linejoin="round" stroke="rgb(0%, 0%, 0%)" stroke-opacity="1" stroke-miterlimit="10" d="M 238.998102 244.998289 L 238.998102 312.998591 " transform="matrix(0.998387, 0, 0, -0.998387, -19.268871, 396.060161)"/>
<path fill="none" stroke-width="1" stroke-linecap="butt" stroke-linejoin="round" stroke="rgb(0%, 0%, 0%)" stroke-opacity="1" stroke-miterlimit="10" d="M 238.998102 244.998289 L 238.998102 177.001898 " transform="matrix(0.998387, 0, 0, -0.998387, -19.268871, 396.060161)"/>
<path fill="none" stroke-width="1" stroke-linecap="butt" stroke-linejoin="round" stroke="rgb(0%, 0%, 0%)" stroke-opacity="1" stroke-miterlimit="10" d="M 238.998102 244.998289 L 306.998405 244.998289 " transform="matrix(0.998387, 0, 0, -0.998387, -19.268871, 396.060161)"/>
<path fill="none" stroke-width="1" stroke-linecap="butt" stroke-linejoin="round" stroke="rgb(0%, 0%, 0%)" stroke-opacity="1" stroke-miterlimit="10" d="M 238.998102 244.998289 L 306.998405 312.998591 " transform="matrix(0.998387, 0, 0, -0.998387, -19.268871, 396.060161)"/>
<path fill="none" stroke-width="1" stroke-linecap="butt" stroke-linejoin="round" stroke="rgb(0%, 0%, 0%)" stroke-opacity="1" stroke-miterlimit="10" d="M 238.998102 312.998591 L 238.998102 380.001191 " transform="matrix(0.998387, 0, 0, -0.998387, -19.268871, 396.060161)"/>
<path fill="none" stroke-width="1" stroke-linecap="butt" stroke-linejoin="round" stroke="rgb(0%, 0%, 0%)" stroke-opacity="1" stroke-miterlimit="10" d="M 238.998102 312.998591 L 238.998102 244.998289 " transform="matrix(0.998387, 0, 0, -0.998387, -19.268871, 396.060161)"/>
<path fill="none" stroke-width="1" stroke-linecap="butt" stroke-linejoin="round" stroke="rgb(0%, 0%, 0%)" stroke-opacity="1" stroke-miterlimit="10" d="M 238.998102 312.998591 L 306.998405 312.998591 " transform="matrix(0.998387, 0, 0, -0.998387, -19.268871, 396.060161)"/>
<path fill="none" stroke-width="1" stroke-linecap="butt" stroke-linejoin="round" stroke="rgb(0%, 0%, 0%)" stroke-opacity="1" stroke-miterlimit="10" d="M 238.998102 312.998591 L 306.998405 380.001191 " transform="matrix(0.998387, 0, 0, -0.998387, -19.268871, 396.060161)"/>
<path fill="none" stroke-width="1" stroke-linecap="butt" stroke-linejoin="round" stroke="rgb(0%, 0%, 0%)" stroke-opacity="1" stroke-miterlimit="10" d="M 238.998102 380.001191 L 238.998102 312.998591 " transform="matrix(0.998387, 0, 0, -0.998387, -19.268871, 396.060161)"/>
<path fill="none" stroke-width="1" stroke-linecap="butt" stroke-linejoin="round" stroke="rgb(0%, 0%, 0%)" stroke-opacity="1" stroke-miterlimit="10" d="M 238.998102 380.001191 L 306.998405 380.001191 " transform="matrix(0.998387, 0, 0, -0.998387, -19.268871, 396.060161)"/>
<path fill="none" stroke-width="1" stroke-linecap="butt" stroke-linejoin="round" stroke="rgb(0%, 0%, 0%)" stroke-opacity="1" stroke-miterlimit="10" d="M 306.998405 41.998995 L 374.001005 41.998995 " transform="matrix(0.998387, 0, 0, -0.998387, -19.268871, 396.060161)"/>
<path fill="none" stroke-width="1" stroke-linecap="butt" stroke-linejoin="round" stroke="rgb(0%, 0%, 0%)" stroke-opacity="1" stroke-miterlimit="10" d="M 306.998405 41.998995 L 374.001005 109.001595 " transform="matrix(0.998387, 0, 0, -0.998387, -19.268871, 396.060161)"/>
<path fill="none" stroke-width="1" stroke-linecap="butt" stroke-linejoin="round" stroke="rgb(0%, 0%, 0%)" stroke-opacity="1" stroke-miterlimit="10" d="M 306.998405 41.998995 L 306.998405 109.001595 " transform="matrix(0.998387, 0, 0, -0.998387, -19.268871, 396.060161)"/>
<path fill="none" stroke-width="1" stroke-linecap="butt" stroke-linejoin="round" stroke="rgb(0%, 0%, 0%)" stroke-opacity="1" stroke-miterlimit="10" d="M 306.998405 109.001595 L 306.998405 177.001898 " transform="matrix(0.998387, 0, 0, -0.998387, -19.268871, 396.060161)"/>
<path fill="none" stroke-width="1" stroke-linecap="butt" stroke-linejoin="round" stroke="rgb(0%, 0%, 0%)" stroke-opacity="1" stroke-miterlimit="10" d="M 306.998405 109.001595 L 306.998405 41.998995 " transform="matrix(0.998387, 0, 0, -0.998387, -19.268871, 396.060161)"/>
<path fill="none" stroke-width="1" stroke-linecap="butt" stroke-linejoin="round" stroke="rgb(0%, 0%, 0%)" stroke-opacity="1" stroke-miterlimit="10" d="M 306.998405 109.001595 L 374.001005 109.001595 " transform="matrix(0.998387, 0, 0, -0.998387, -19.268871, 396.060161)"/>
<path fill="none" stroke-width="1" stroke-linecap="butt" stroke-linejoin="round" stroke="rgb(0%, 0%, 0%)" stroke-opacity="1" stroke-miterlimit="10" d="M 306.998405 109.001595 L 374.001005 177.001898 " transform="matrix(0.998387, 0, 0, -0.998387, -19.268871, 396.060161)"/>
<path fill="none" stroke-width="1" stroke-linecap="butt" stroke-linejoin="round" stroke="rgb(0%, 0%, 0%)" stroke-opacity="1" stroke-miterlimit="10" d="M 306.998405 177.001898 L 306.998405 244.998289 " transform="matrix(0.998387, 0, 0, -0.998387, -19.268871, 396.060161)"/>
<path fill="none" stroke-width="1" stroke-linecap="butt" stroke-linejoin="round" stroke="rgb(0%, 0%, 0%)" stroke-opacity="1" stroke-miterlimit="10" d="M 306.998405 177.001898 L 306.998405 109.001595 " transform="matrix(0.998387, 0, 0, -0.998387, -19.268871, 396.060161)"/>
<path fill="none" stroke-width="1" stroke-linecap="butt" stroke-linejoin="round" stroke="rgb(0%, 0%, 0%)" stroke-opacity="1" stroke-miterlimit="10" d="M 306.998405 177.001898 L 374.001005 177.001898 " transform="matrix(0.998387, 0, 0, -0.998387, -19.268871, 396.060161)"/>
<path fill="none" stroke-width="1" stroke-linecap="butt" stroke-linejoin="round" stroke="rgb(0%, 0%, 0%)" stroke-opacity="1" stroke-miterlimit="10" d="M 306.998405 177.001898 L 374.001005 244.998289 " transform="matrix(0.998387, 0, 0, -0.998387, -19.268871, 396.060161)"/>
<path fill="none" stroke-width="1" stroke-linecap="butt" stroke-linejoin="round" stroke="rgb(0%, 0%, 0%)" stroke-opacity="1" stroke-miterlimit="10" d="M 306.998405 244.998289 L 306.998405 312.998591 " transform="matrix(0.998387, 0, 0, -0.998387, -19.268871, 396.060161)"/>
<path fill="none" stroke-width="1" stroke-linecap="butt" stroke-linejoin="round" stroke="rgb(0%, 0%, 0%)" stroke-opacity="1" stroke-miterlimit="10" d="M 306.998405 244.998289 L 306.998405 177.001898 " transform="matrix(0.998387, 0, 0, -0.998387, -19.268871, 396.060161)"/>
<path fill="none" stroke-width="1" stroke-linecap="butt" stroke-linejoin="round" stroke="rgb(0%, 0%, 0%)" stroke-opacity="1" stroke-miterlimit="10" d="M 306.998405 244.998289 L 374.001005 244.998289 " transform="matrix(0.998387, 0, 0, -0.998387, -19.268871, 396.060161)"/>
<path fill="none" stroke-width="1" stroke-linecap="butt" stroke-linejoin="round" stroke="rgb(0%, 0%, 0%)" stroke-opacity="1" stroke-miterlimit="10" d="M 306.998405 244.998289 L 374.001005 312.998591 " transform="matrix(0.998387, 0, 0, -0.998387, -19.268871, 396.060161)"/>
<path fill="none" stroke-width="1" stroke-linecap="butt" stroke-linejoin="round" stroke="rgb(0%, 0%, 0%)" stroke-opacity="1" stroke-miterlimit="10" d="M 306.998405 312.998591 L 306.998405 380.001191 " transform="matrix(0.998387, 0, 0, -0.998387, -19.268871, 396.060161)"/>
<path fill="none" stroke-width="1" stroke-linecap="butt" stroke-linejoin="round" stroke="rgb(0%, 0%, 0%)" stroke-opacity="1" stroke-miterlimit="10" d="M 306.998405 312.998591 L 306.998405 244.998289 " transform="matrix(0.998387, 0, 0, -0.998387, -19.268871, 396.060161)"/>
<path fill="none" stroke-width="1" stroke-linecap="butt" stroke-linejoin="round" stroke="rgb(0%, 0%, 0%)" stroke-opacity="1" stroke-miterlimit="10" d="M 306.998405 312.998591 L 374.001005 312.998591 " transform="matrix(0.998387, 0, 0, -0.998387, -19.268871, 396.060161)"/>
<path fill="none" stroke-width="1" stroke-linecap="butt" stroke-linejoin="round" stroke="rgb(0%, 0%, 0%)" stroke-opacity="1" stroke-miterlimit="10" d="M 306.998405 312.998591 L 374.001005 380.001191 " transform="matrix(0.998387, 0, 0, -0.998387, -19.268871, 396.060161)"/>
<path fill="none" stroke-width="1" stroke-linecap="butt" stroke-linejoin="round" stroke="rgb(0%, 0%, 0%)" stroke-opacity="1" stroke-miterlimit="10" d="M 306.998405 380.001191 L 306.998405 312.998591 " transform="matrix(0.998387, 0, 0, -0.998387, -19.268871, 396.060161)"/>
<path fill="none" stroke-width="1" stroke-linecap="butt" stroke-linejoin="round" stroke="rgb(0%, 0%, 0%)" stroke-opacity="1" stroke-miterlimit="10" d="M 306.998405 380.001191 L 374.001005 380.001191 " transform="matrix(0.998387, 0, 0, -0.998387, -19.268871, 396.060161)"/>
<path fill="none" stroke-width="1" stroke-linecap="butt" stroke-linejoin="round" stroke="rgb(0%, 0%, 0%)" stroke-opacity="1" stroke-miterlimit="10" d="M 374.001005 41.998995 L 374.001005 109.001595 " transform="matrix(0.998387, 0, 0, -0.998387, -19.268871, 396.060161)"/>
<path fill="none" stroke-width="1" stroke-linecap="butt" stroke-linejoin="round" stroke="rgb(0%, 0%, 0%)" stroke-opacity="1" stroke-miterlimit="10" d="M 374.001005 109.001595 L 374.001005 41.998995 " transform="matrix(0.998387, 0, 0, -0.998387, -19.268871, 396.060161)"/>
<path fill="none" stroke-width="1" stroke-linecap="butt" stroke-linejoin="round" stroke="rgb(0%, 0%, 0%)" stroke-opacity="1" stroke-miterlimit="10" d="M 374.001005 109.001595 L 374.001005 177.001898 " transform="matrix(0.998387, 0, 0, -0.998387, -19.268871, 396.060161)"/>
<path fill="none" stroke-width="1" stroke-linecap="butt" stroke-linejoin="round" stroke="rgb(0%, 0%, 0%)" stroke-opacity="1" stroke-miterlimit="10" d="M 374.001005 177.001898 L 374.001005 244.998289 " transform="matrix(0.998387, 0, 0, -0.998387, -19.268871, 396.060161)"/>
<path fill="none" stroke-width="1" stroke-linecap="butt" stroke-linejoin="round" stroke="rgb(0%, 0%, 0%)" stroke-opacity="1" stroke-miterlimit="10" d="M 374.001005 177.001898 L 374.001005 109.001595 " transform="matrix(0.998387, 0, 0, -0.998387, -19.268871, 396.060161)"/>
<path fill="none" stroke-width="1" stroke-linecap="butt" stroke-linejoin="round" stroke="rgb(0%, 0%, 0%)" stroke-opacity="1" stroke-miterlimit="10" d="M 374.001005 244.998289 L 374.001005 312.998591 " transform="matrix(0.998387, 0, 0, -0.998387, -19.268871, 396.060161)"/>
<path fill="none" stroke-width="1" stroke-linecap="butt" stroke-linejoin="round" stroke="rgb(0%, 0%, 0%)" stroke-opacity="1" stroke-miterlimit="10" d="M 374.001005 244.998289 L 374.001005 177.001898 " transform="matrix(0.998387, 0, 0, -0.998387, -19.268871, 396.060161)"/>
<path fill="none" stroke-width="1" stroke-linecap="butt" stroke-linejoin="round" stroke="rgb(0%, 0%, 0%)" stroke-opacity="1" stroke-miterlimit="10" d="M 374.001005 312.998591 L 374.001005 380.001191 " transform="matrix(0.998387, 0, 0, -0.998387, -19.268871, 396.060161)"/>
<path fill="none" stroke-width="1" stroke-linecap="butt" stroke-linejoin="round" stroke="rgb(0%, 0%, 0%)" stroke-opacity="1" stroke-miterlimit="10" d="M 374.001005 312.998591 L 374.001005 244.998289 " transform="matrix(0.998387, 0, 0, -0.998387, -19.268871, 396.060161)"/>
<path fill="none" stroke-width="1" stroke-linecap="butt" stroke-linejoin="round" stroke="rgb(0%, 0%, 0%)" stroke-opacity="1" stroke-miterlimit="10" d="M 374.001005 380.001191 L 374.001005 312.998591 " transform="matrix(0.998387, 0, 0, -0.998387, -19.268871, 396.060161)"/>
<g clip-path="url(#clip-0)">
<path fill-rule="nonzero" fill="rgb(1.499939%, 24.699402%, 11.299133%)" fill-opacity="1" d="M 32.648438 354.128906 C 32.648438 362.949219 25.496094 370.101562 16.671875 370.101562 C 7.851562 370.101562 0.699219 362.949219 0.699219 354.128906 C 0.699219 345.304688 7.851562 338.152344 16.671875 338.152344 C 25.496094 338.152344 32.648438 345.304688 32.648438 354.128906 "/>
</g>
<g clip-path="url(#clip-1)">
<path fill="none" stroke-width="0.4" stroke-linecap="butt" stroke-linejoin="round" stroke="rgb(0%, 0%, 0%)" stroke-opacity="1" stroke-miterlimit="10" d="M 52.001181 41.998995 C 52.001181 33.164434 44.837283 26.000535 35.998809 26.000535 C 27.164247 26.000535 20.000348 33.164434 20.000348 41.998995 C 20.000348 50.83747 27.164247 58.001368 35.998809 58.001368 C 44.837283 58.001368 52.001181 50.83747 52.001181 41.998995 " transform="matrix(0.998387, 0, 0, -0.998387, -19.268871, 396.060161)"/>
</g>
<path fill-rule="nonzero" fill="rgb(13.299561%, 43.099976%, 42.298889%)" fill-opacity="1" stroke-width="0.4" stroke-linecap="butt" stroke-linejoin="round" stroke="rgb(0%, 0%, 0%)" stroke-opacity="1" stroke-miterlimit="10" d="M 52.001181 109.498491 C 52.001181 100.663929 44.837283 93.50003 35.998809 93.50003 C 27.164247 93.50003 20.000348 100.663929 20.000348 109.498491 C 20.000348 118.336965 27.164247 125.500863 35.998809 125.500863 C 44.837283 125.500863 52.001181 118.336965 52.001181 109.498491 " transform="matrix(0.998387, 0, 0, -0.998387, -19.268871, 396.060161)"/>
<path fill-rule="nonzero" fill="rgb(39.599609%, 44.699097%, 88.198853%)" fill-opacity="1" stroke-width="0.4" stroke-linecap="butt" stroke-linejoin="round" stroke="rgb(0%, 0%, 0%)" stroke-opacity="1" stroke-miterlimit="10" d="M 52.001181 177.001898 C 52.001181 168.163424 44.837283 160.999525 35.998809 160.999525 C 27.164247 160.999525 20.000348 168.163424 20.000348 177.001898 C 20.000348 185.83646 27.164247 193.000358 35.998809 193.000358 C 44.837283 193.000358 52.001181 185.83646 52.001181 177.001898 " transform="matrix(0.998387, 0, 0, -0.998387, -19.268871, 396.060161)"/>
<path fill-rule="nonzero" fill="rgb(1.098633%, 48.599243%, 89.399719%)" fill-opacity="1" stroke-width="0.4" stroke-linecap="butt" stroke-linejoin="round" stroke="rgb(0%, 0%, 0%)" stroke-opacity="1" stroke-miterlimit="10" d="M 52.001181 244.998289 C 52.001181 236.163727 44.837283 228.999828 35.998809 228.999828 C 27.164247 228.999828 20.000348 236.163727 20.000348 244.998289 C 20.000348 253.836763 27.164247 261.000661 35.998809 261.000661 C 44.837283 261.000661 52.001181 253.836763 52.001181 244.998289 " transform="matrix(0.998387, 0, 0, -0.998387, -19.268871, 396.060161)"/>
<path fill-rule="nonzero" fill="rgb(95.199585%, 46.998596%, 7.398987%)" fill-opacity="1" stroke-width="0.4" stroke-linecap="butt" stroke-linejoin="round" stroke="rgb(0%, 0%, 0%)" stroke-opacity="1" stroke-miterlimit="10" d="M 52.001181 312.501696 C 52.001181 303.663222 44.837283 296.499324 35.998809 296.499324 C 27.164247 296.499324 20.000348 303.663222 20.000348 312.501696 C 20.000348 321.336258 27.164247 328.500157 35.998809 328.500157 C 44.837283 328.500157 52.001181 321.336258 52.001181 312.501696 " transform="matrix(0.998387, 0, 0, -0.998387, -19.268871, 396.060161)"/>
<path fill-rule="nonzero" fill="rgb(22.299194%, 6.599426%, 4.998779%)" fill-opacity="1" stroke-width="0.4" stroke-linecap="butt" stroke-linejoin="round" stroke="rgb(0%, 0%, 0%)" stroke-opacity="1" stroke-miterlimit="10" d="M 52.001181 380.001191 C 52.001181 371.162717 44.837283 363.998819 35.998809 363.998819 C 27.164247 363.998819 20.000348 371.162717 20.000348 380.001191 C 20.000348 388.835753 27.164247 395.999652 35.998809 395.999652 C 44.837283 395.999652 52.001181 388.835753 52.001181 380.001191 " transform="matrix(0.998387, 0, 0, -0.998387, -19.268871, 396.060161)"/>
<path fill-rule="nonzero" fill="rgb(15.59906%, 19.898987%, 3.49884%)" fill-opacity="1" stroke-width="0.4" stroke-linecap="butt" stroke-linejoin="round" stroke="rgb(0%, 0%, 0%)" stroke-opacity="1" stroke-miterlimit="10" d="M 118.999869 41.998995 C 118.999869 33.442225 112.058986 26.501343 103.498304 26.501343 C 94.941534 26.501343 88.000651 33.442225 88.000651 41.998995 C 88.000651 50.559678 94.941534 57.50056 103.498304 57.50056 C 112.058986 57.50056 118.999869 50.559678 118.999869 41.998995 " transform="matrix(0.998387, 0, 0, -0.998387, -19.268871, 396.060161)"/>
<path fill-rule="nonzero" fill="rgb(45.799255%, 28.199768%, 69.799805%)" fill-opacity="1" stroke-width="0.4" stroke-linecap="butt" stroke-linejoin="round" stroke="rgb(0%, 0%, 0%)" stroke-opacity="1" stroke-miterlimit="10" d="M 118.999869 109.498491 C 118.999869 100.941721 112.058986 94.000838 103.498304 94.000838 C 94.941534 94.000838 88.000651 100.941721 88.000651 109.498491 C 88.000651 118.059173 94.941534 125.000056 103.498304 125.000056 C 112.058986 125.000056 118.999869 118.059173 118.999869 109.498491 " transform="matrix(0.998387, 0, 0, -0.998387, -19.268871, 396.060161)"/>
<path fill-rule="nonzero" fill="rgb(27.799988%, 67.399597%, 25.39978%)" fill-opacity="1" stroke-width="0.4" stroke-linecap="butt" stroke-linejoin="round" stroke="rgb(0%, 0%, 0%)" stroke-opacity="1" stroke-miterlimit="10" d="M 118.999869 177.001898 C 118.999869 168.441216 112.058986 161.500333 103.498304 161.500333 C 94.941534 161.500333 88.000651 168.441216 88.000651 177.001898 C 88.000651 185.558668 94.941534 192.499551 103.498304 192.499551 C 112.058986 192.499551 118.999869 185.558668 118.999869 177.001898 " transform="matrix(0.998387, 0, 0, -0.998387, -19.268871, 396.060161)"/>
<path fill-rule="nonzero" fill="rgb(68.199158%, 89.399719%, 88.598633%)" fill-opacity="1" stroke-width="0.4" stroke-linecap="butt" stroke-linejoin="round" stroke="rgb(0%, 0%, 0%)" stroke-opacity="1" stroke-miterlimit="10" d="M 118.999869 244.998289 C 118.999869 236.441519 112.058986 229.500636 103.498304 229.500636 C 94.941534 229.500636 88.000651 236.441519 88.000651 244.998289 C 88.000651 253.558971 94.941534 260.499854 103.498304 260.499854 C 112.058986 260.499854 118.999869 253.558971 118.999869 244.998289 " transform="matrix(0.998387, 0, 0, -0.998387, -19.268871, 396.060161)"/>
<path fill-rule="nonzero" fill="rgb(93.299866%, 0.299072%, 87.399292%)" fill-opacity="1" stroke-width="0.4" stroke-linecap="butt" stroke-linejoin="round" stroke="rgb(0%, 0%, 0%)" stroke-opacity="1" stroke-miterlimit="10" d="M 118.999869 312.501696 C 118.999869 303.941014 112.058986 297.000131 103.498304 297.000131 C 94.941534 297.000131 88.000651 303.941014 88.000651 312.501696 C 88.000651 321.058466 94.941534 327.999349 103.498304 327.999349 C 112.058986 327.999349 118.999869 321.058466 118.999869 312.501696 " transform="matrix(0.998387, 0, 0, -0.998387, -19.268871, 396.060161)"/>
<path fill-rule="nonzero" fill="rgb(35.998535%, 42.698669%, 88.999939%)" fill-opacity="1" stroke-width="0.4" stroke-linecap="butt" stroke-linejoin="round" stroke="rgb(0%, 0%, 0%)" stroke-opacity="1" stroke-miterlimit="10" d="M 118.999869 380.001191 C 118.999869 371.440509 112.058986 364.499626 103.498304 364.499626 C 94.941534 364.499626 88.000651 371.440509 88.000651 380.001191 C 88.000651 388.557961 94.941534 395.498844 103.498304 395.498844 C 112.058986 395.498844 118.999869 388.557961 118.999869 380.001191 " transform="matrix(0.998387, 0, 0, -0.998387, -19.268871, 396.060161)"/>
<g clip-path="url(#clip-2)">
<path fill-rule="nonzero" fill="rgb(80.699158%, 30.899048%, 1.899719%)" fill-opacity="1" d="M 167.429688 354.128906 C 167.429688 362.949219 160.277344 370.101562 151.457031 370.101562 C 142.632812 370.101562 135.480469 362.949219 135.480469 354.128906 C 135.480469 345.304688 142.632812 338.152344 151.457031 338.152344 C 160.277344 338.152344 167.429688 345.304688 167.429688 354.128906 "/>
</g>
<g clip-path="url(#clip-3)">
<path fill="none" stroke-width="0.4" stroke-linecap="butt" stroke-linejoin="round" stroke="rgb(0%, 0%, 0%)" stroke-opacity="1" stroke-miterlimit="10" d="M 187.000172 41.998995 C 187.000172 33.164434 179.836273 26.000535 171.001711 26.000535 C 162.163237 26.000535 154.999339 33.164434 154.999339 41.998995 C 154.999339 50.83747 162.163237 58.001368 171.001711 58.001368 C 179.836273 58.001368 187.000172 50.83747 187.000172 41.998995 " transform="matrix(0.998387, 0, 0, -0.998387, -19.268871, 396.060161)"/>
</g>
<path fill-rule="nonzero" fill="rgb(28.999329%, 19.898987%, 41.499329%)" fill-opacity="1" stroke-width="0.4" stroke-linecap="butt" stroke-linejoin="round" stroke="rgb(0%, 0%, 0%)" stroke-opacity="1" stroke-miterlimit="10" d="M 187.000172 109.498491 C 187.000172 100.663929 179.836273 93.50003 171.001711 93.50003 C 162.163237 93.50003 154.999339 100.663929 154.999339 109.498491 C 154.999339 118.336965 162.163237 125.500863 171.001711 125.500863 C 179.836273 125.500863 187.000172 118.336965 187.000172 109.498491 " transform="matrix(0.998387, 0, 0, -0.998387, -19.268871, 396.060161)"/>
<path fill-rule="nonzero" fill="rgb(76.399231%, 27.799988%, 42.698669%)" fill-opacity="1" stroke-width="0.4" stroke-linecap="butt" stroke-linejoin="round" stroke="rgb(0%, 0%, 0%)" stroke-opacity="1" stroke-miterlimit="10" d="M 187.000172 177.001898 C 187.000172 168.163424 179.836273 160.999525 171.001711 160.999525 C 162.163237 160.999525 154.999339 168.163424 154.999339 177.001898 C 154.999339 185.83646 162.163237 193.000358 171.001711 193.000358 C 179.836273 193.000358 187.000172 185.83646 187.000172 177.001898 " transform="matrix(0.998387, 0, 0, -0.998387, -19.268871, 396.060161)"/>
<path fill-rule="nonzero" fill="rgb(83.099365%, 32.899475%, 37.998962%)" fill-opacity="1" stroke-width="0.4" stroke-linecap="butt" stroke-linejoin="round" stroke="rgb(0%, 0%, 0%)" stroke-opacity="1" stroke-miterlimit="10" d="M 187.000172 244.998289 C 187.000172 236.163727 179.836273 228.999828 171.001711 228.999828 C 162.163237 228.999828 154.999339 236.163727 154.999339 244.998289 C 154.999339 253.836763 162.163237 261.000661 171.001711 261.000661 C 179.836273 261.000661 187.000172 253.836763 187.000172 244.998289 " transform="matrix(0.998387, 0, 0, -0.998387, -19.268871, 396.060161)"/>
<path fill-rule="nonzero" fill="rgb(2.69928%, 36.399841%, 60.299683%)" fill-opacity="1" stroke-width="0.4" stroke-linecap="butt" stroke-linejoin="round" stroke="rgb(0%, 0%, 0%)" stroke-opacity="1" stroke-miterlimit="10" d="M 187.000172 312.501696 C 187.000172 303.663222 179.836273 296.499324 171.001711 296.499324 C 162.163237 296.499324 154.999339 303.663222 154.999339 312.501696 C 154.999339 321.336258 162.163237 328.500157 171.001711 328.500157 C 179.836273 328.500157 187.000172 321.336258 187.000172 312.501696 " transform="matrix(0.998387, 0, 0, -0.998387, -19.268871, 396.060161)"/>
<path fill-rule="nonzero" fill="rgb(30.899048%, 5.799866%, 75.999451%)" fill-opacity="1" stroke-width="0.4" stroke-linecap="butt" stroke-linejoin="round" stroke="rgb(0%, 0%, 0%)" stroke-opacity="1" stroke-miterlimit="10" d="M 187.000172 380.001191 C 187.000172 371.162717 179.836273 363.998819 171.001711 363.998819 C 162.163237 363.998819 154.999339 371.162717 154.999339 380.001191 C 154.999339 388.835753 162.163237 395.999652 171.001711 395.999652 C 179.836273 395.999652 187.000172 388.835753 187.000172 380.001191 " transform="matrix(0.998387, 0, 0, -0.998387, -19.268871, 396.060161)"/>
<g clip-path="url(#clip-4)">
<path fill-rule="nonzero" fill="rgb(98.799133%, 31.298828%, 21.499634%)" fill-opacity="1" d="M 235.320312 354.128906 C 235.320312 362.949219 228.167969 370.101562 219.34375 370.101562 C 210.523438 370.101562 203.371094 362.949219 203.371094 354.128906 C 203.371094 345.304688 210.523438 338.152344 219.34375 338.152344 C 228.167969 338.152344 235.320312 345.304688 235.320312 354.128906 "/>
</g>
<g clip-path="url(#clip-5)">
<path fill="none" stroke-width="0.4" stroke-linecap="butt" stroke-linejoin="round" stroke="rgb(0%, 0%, 0%)" stroke-opacity="1" stroke-miterlimit="10" d="M 255.000475 41.998995 C 255.000475 33.164434 247.836576 26.000535 238.998102 26.000535 C 230.16354 26.000535 222.999642 33.164434 222.999642 41.998995 C 222.999642 50.83747 230.16354 58.001368 238.998102 58.001368 C 247.836576 58.001368 255.000475 50.83747 255.000475 41.998995 " transform="matrix(0.998387, 0, 0, -0.998387, -19.268871, 396.060161)"/>
</g>
<path fill-rule="nonzero" fill="rgb(87.799072%, 19.599915%, 49.398804%)" fill-opacity="1" stroke-width="0.4" stroke-linecap="butt" stroke-linejoin="round" stroke="rgb(0%, 0%, 0%)" stroke-opacity="1" stroke-miterlimit="10" d="M 255.000475 109.498491 C 255.000475 100.663929 247.836576 93.50003 238.998102 93.50003 C 230.16354 93.50003 222.999642 100.663929 222.999642 109.498491 C 222.999642 118.336965 230.16354 125.500863 238.998102 125.500863 C 247.836576 125.500863 255.000475 118.336965 255.000475 109.498491 " transform="matrix(0.998387, 0, 0, -0.998387, -19.268871, 396.060161)"/>
<path fill-rule="nonzero" fill="rgb(88.198853%, 6.599426%, 17.199707%)" fill-opacity="1" stroke-width="0.4" stroke-linecap="butt" stroke-linejoin="round" stroke="rgb(0%, 0%, 0%)" stroke-opacity="1" stroke-miterlimit="10" d="M 255.000475 177.001898 C 255.000475 168.163424 247.836576 160.999525 238.998102 160.999525 C 230.16354 160.999525 222.999642 168.163424 222.999642 177.001898 C 222.999642 185.83646 230.16354 193.000358 238.998102 193.000358 C 247.836576 193.000358 255.000475 185.83646 255.000475 177.001898 " transform="matrix(0.998387, 0, 0, -0.998387, -19.268871, 396.060161)"/>
<path fill-rule="nonzero" fill="rgb(30.499268%, 95.599365%, 10.099792%)" fill-opacity="1" stroke-width="0.4" stroke-linecap="butt" stroke-linejoin="round" stroke="rgb(0%, 0%, 0%)" stroke-opacity="1" stroke-miterlimit="10" d="M 255.000475 244.998289 C 255.000475 236.163727 247.836576 228.999828 238.998102 228.999828 C 230.16354 228.999828 222.999642 236.163727 222.999642 244.998289 C 222.999642 253.836763 230.16354 261.000661 238.998102 261.000661 C 247.836576 261.000661 255.000475 253.836763 255.000475 244.998289 " transform="matrix(0.998387, 0, 0, -0.998387, -19.268871, 396.060161)"/>
<path fill-rule="nonzero" fill="rgb(61.499023%, 97.599792%, 46.199036%)" fill-opacity="1" stroke-width="0.4" stroke-linecap="butt" stroke-linejoin="round" stroke="rgb(0%, 0%, 0%)" stroke-opacity="1" stroke-miterlimit="10" d="M 255.000475 312.501696 C 255.000475 303.663222 247.836576 296.499324 238.998102 296.499324 C 230.16354 296.499324 222.999642 303.663222 222.999642 312.501696 C 222.999642 321.336258 230.16354 328.500157 238.998102 328.500157 C 247.836576 328.500157 255.000475 321.336258 255.000475 312.501696 " transform="matrix(0.998387, 0, 0, -0.998387, -19.268871, 396.060161)"/>
<path fill-rule="nonzero" fill="rgb(81.898499%, 38.798523%, 26.599121%)" fill-opacity="1" stroke-width="0.4" stroke-linecap="butt" stroke-linejoin="round" stroke="rgb(0%, 0%, 0%)" stroke-opacity="1" stroke-miterlimit="10" d="M 255.000475 380.001191 C 255.000475 371.162717 247.836576 363.998819 238.998102 363.998819 C 230.16354 363.998819 222.999642 371.162717 222.999642 380.001191 C 222.999642 388.835753 230.16354 395.999652 238.998102 395.999652 C 247.836576 395.999652 255.000475 388.835753 255.000475 380.001191 " transform="matrix(0.998387, 0, 0, -0.998387, -19.268871, 396.060161)"/>
<path fill-rule="nonzero" fill="rgb(9.399414%, 81.898499%, 55.999756%)" fill-opacity="1" stroke-width="0.4" stroke-linecap="butt" stroke-linejoin="round" stroke="rgb(0%, 0%, 0%)" stroke-opacity="1" stroke-miterlimit="10" d="M 321.999162 41.998995 C 321.999162 33.442225 315.058279 26.501343 306.501509 26.501343 C 297.940827 26.501343 290.999944 33.442225 290.999944 41.998995 C 290.999944 50.559678 297.940827 57.50056 306.501509 57.50056 C 315.058279 57.50056 321.999162 50.559678 321.999162 41.998995 " transform="matrix(0.998387, 0, 0, -0.998387, -19.268871, 396.060161)"/>
<path fill-rule="nonzero" fill="rgb(42.298889%, 19.599915%, 32.099915%)" fill-opacity="1" stroke-width="0.4" stroke-linecap="butt" stroke-linejoin="round" stroke="rgb(0%, 0%, 0%)" stroke-opacity="1" stroke-miterlimit="10" d="M 321.999162 109.498491 C 321.999162 100.941721 315.058279 94.000838 306.501509 94.000838 C 297.940827 94.000838 290.999944 100.941721 290.999944 109.498491 C 290.999944 118.059173 297.940827 125.000056 306.501509 125.000056 C 315.058279 125.000056 321.999162 118.059173 321.999162 109.498491 " transform="matrix(0.998387, 0, 0, -0.998387, -19.268871, 396.060161)"/>
<path fill-rule="nonzero" fill="rgb(78.799438%, 79.899597%, 14.898682%)" fill-opacity="1" stroke-width="0.4" stroke-linecap="butt" stroke-linejoin="round" stroke="rgb(0%, 0%, 0%)" stroke-opacity="1" stroke-miterlimit="10" d="M 321.999162 177.001898 C 321.999162 168.441216 315.058279 161.500333 306.501509 161.500333 C 297.940827 161.500333 290.999944 168.441216 290.999944 177.001898 C 290.999944 185.558668 297.940827 192.499551 306.501509 192.499551 C 315.058279 192.499551 321.999162 185.558668 321.999162 177.001898 " transform="matrix(0.998387, 0, 0, -0.998387, -19.268871, 396.060161)"/>
<path fill-rule="nonzero" fill="rgb(84.698486%, 55.599976%, 17.599487%)" fill-opacity="1" stroke-width="0.4" stroke-linecap="butt" stroke-linejoin="round" stroke="rgb(0%, 0%, 0%)" stroke-opacity="1" stroke-miterlimit="10" d="M 321.999162 244.998289 C 321.999162 236.441519 315.058279 229.500636 306.501509 229.500636 C 297.940827 229.500636 290.999944 236.441519 290.999944 244.998289 C 290.999944 253.558971 297.940827 260.499854 306.501509 260.499854 C 315.058279 260.499854 321.999162 253.558971 321.999162 244.998289 " transform="matrix(0.998387, 0, 0, -0.998387, -19.268871, 396.060161)"/>
<path fill-rule="nonzero" fill="rgb(15.99884%, 77.198792%, 48.999023%)" fill-opacity="1" stroke-width="0.4" stroke-linecap="butt" stroke-linejoin="round" stroke="rgb(0%, 0%, 0%)" stroke-opacity="1" stroke-miterlimit="10" d="M 321.999162 312.501696 C 321.999162 303.941014 315.058279 297.000131 306.501509 297.000131 C 297.940827 297.000131 290.999944 303.941014 290.999944 312.501696 C 290.999944 321.058466 297.940827 327.999349 306.501509 327.999349 C 315.058279 327.999349 321.999162 321.058466 321.999162 312.501696 " transform="matrix(0.998387, 0, 0, -0.998387, -19.268871, 396.060161)"/>
<path fill-rule="nonzero" fill="rgb(35.598755%, 26.199341%, 47.399902%)" fill-opacity="1" stroke-width="0.4" stroke-linecap="butt" stroke-linejoin="round" stroke="rgb(0%, 0%, 0%)" stroke-opacity="1" stroke-miterlimit="10" d="M 321.999162 380.001191 C 321.999162 371.440509 315.058279 364.499626 306.501509 364.499626 C 297.940827 364.499626 290.999944 371.440509 290.999944 380.001191 C 290.999944 388.557961 297.940827 395.498844 306.501509 395.498844 C 315.058279 395.498844 321.999162 388.557961 321.999162 380.001191 " transform="matrix(0.998387, 0, 0, -0.998387, -19.268871, 396.060161)"/>
<g clip-path="url(#clip-6)">
<path fill-rule="nonzero" fill="rgb(42.698669%, 43.499756%, 34.899902%)" fill-opacity="1" d="M 370.101562 354.128906 C 370.101562 362.949219 362.949219 370.101562 354.128906 370.101562 C 345.304688 370.101562 338.152344 362.949219 338.152344 354.128906 C 338.152344 345.304688 345.304688 338.152344 354.128906 338.152344 C 362.949219 338.152344 370.101562 345.304688 370.101562 354.128906 "/>
</g>
<g clip-path="url(#clip-7)">
<path fill="none" stroke-width="0.4" stroke-linecap="butt" stroke-linejoin="round" stroke="rgb(0%, 0%, 0%)" stroke-opacity="1" stroke-miterlimit="10" d="M 389.999465 41.998995 C 389.999465 33.164434 382.835566 26.000535 374.001005 26.000535 C 365.16253 26.000535 357.998632 33.164434 357.998632 41.998995 C 357.998632 50.83747 365.16253 58.001368 374.001005 58.001368 C 382.835566 58.001368 389.999465 50.83747 389.999465 41.998995 " transform="matrix(0.998387, 0, 0, -0.998387, -19.268871, 396.060161)"/>
</g>
<g clip-path="url(#clip-8)">
<path fill-rule="nonzero" fill="rgb(37.998962%, 54.098511%, 22.698975%)" fill-opacity="1" d="M 370.101562 286.738281 C 370.101562 295.558594 362.949219 302.710938 354.128906 302.710938 C 345.304688 302.710938 338.152344 295.558594 338.152344 286.738281 C 338.152344 277.914062 345.304688 270.761719 354.128906 270.761719 C 362.949219 270.761719 370.101562 277.914062 370.101562 286.738281 "/>
</g>
<g clip-path="url(#clip-9)">
<path fill="none" stroke-width="0.4" stroke-linecap="butt" stroke-linejoin="round" stroke="rgb(0%, 0%, 0%)" stroke-opacity="1" stroke-miterlimit="10" d="M 389.999465 109.498491 C 389.999465 100.663929 382.835566 93.50003 374.001005 93.50003 C 365.16253 93.50003 357.998632 100.663929 357.998632 109.498491 C 357.998632 118.336965 365.16253 125.500863 374.001005 125.500863 C 382.835566 125.500863 389.999465 118.336965 389.999465 109.498491 " transform="matrix(0.998387, 0, 0, -0.998387, -19.268871, 396.060161)"/>
</g>
<g clip-path="url(#clip-10)">
<path fill-rule="nonzero" fill="rgb(35.598755%, 0%, 53.29895%)" fill-opacity="1" d="M 370.101562 219.34375 C 370.101562 228.167969 362.949219 235.320312 354.128906 235.320312 C 345.304688 235.320312 338.152344 228.167969 338.152344 219.34375 C 338.152344 210.523438 345.304688 203.371094 354.128906 203.371094 C 362.949219 203.371094 370.101562 210.523438 370.101562 219.34375 "/>
</g>
<g clip-path="url(#clip-11)">
<path fill="none" stroke-width="0.4" stroke-linecap="butt" stroke-linejoin="round" stroke="rgb(0%, 0%, 0%)" stroke-opacity="1" stroke-miterlimit="10" d="M 389.999465 177.001898 C 389.999465 168.163424 382.835566 160.999525 374.001005 160.999525 C 365.16253 160.999525 357.998632 168.163424 357.998632 177.001898 C 357.998632 185.83646 365.16253 193.000358 374.001005 193.000358 C 382.835566 193.000358 389.999465 185.83646 389.999465 177.001898 " transform="matrix(0.998387, 0, 0, -0.998387, -19.268871, 396.060161)"/>
</g>
<g clip-path="url(#clip-12)">
<path fill-rule="nonzero" fill="rgb(74.499512%, 26.998901%, 14.898682%)" fill-opacity="1" d="M 370.101562 151.457031 C 370.101562 160.277344 362.949219 167.429688 354.128906 167.429688 C 345.304688 167.429688 338.152344 160.277344 338.152344 151.457031 C 338.152344 142.632812 345.304688 135.480469 354.128906 135.480469 C 362.949219 135.480469 370.101562 142.632812 370.101562 151.457031 "/>
</g>
<g clip-path="url(#clip-13)">
<path fill="none" stroke-width="0.4" stroke-linecap="butt" stroke-linejoin="round" stroke="rgb(0%, 0%, 0%)" stroke-opacity="1" stroke-miterlimit="10" d="M 389.999465 244.998289 C 389.999465 236.163727 382.835566 228.999828 374.001005 228.999828 C 365.16253 228.999828 357.998632 236.163727 357.998632 244.998289 C 357.998632 253.836763 365.16253 261.000661 374.001005 261.000661 C 382.835566 261.000661 389.999465 253.836763 389.999465 244.998289 " transform="matrix(0.998387, 0, 0, -0.998387, -19.268871, 396.060161)"/>
</g>
<g clip-path="url(#clip-14)">
<path fill-rule="nonzero" fill="rgb(55.999756%, 83.099365%, 96.798706%)" fill-opacity="1" d="M 370.101562 84.0625 C 370.101562 92.886719 362.949219 100.039062 354.128906 100.039062 C 345.304688 100.039062 338.152344 92.886719 338.152344 84.0625 C 338.152344 75.242188 345.304688 68.089844 354.128906 68.089844 C 362.949219 68.089844 370.101562 75.242188 370.101562 84.0625 "/>
</g>
<g clip-path="url(#clip-15)">
<path fill="none" stroke-width="0.4" stroke-linecap="butt" stroke-linejoin="round" stroke="rgb(0%, 0%, 0%)" stroke-opacity="1" stroke-miterlimit="10" d="M 389.999465 312.501696 C 389.999465 303.663222 382.835566 296.499324 374.001005 296.499324 C 365.16253 296.499324 357.998632 303.663222 357.998632 312.501696 C 357.998632 321.336258 365.16253 328.500157 374.001005 328.500157 C 382.835566 328.500157 389.999465 321.336258 389.999465 312.501696 " transform="matrix(0.998387, 0, 0, -0.998387, -19.268871, 396.060161)"/>
</g>
<g clip-path="url(#clip-16)">
<path fill-rule="nonzero" fill="rgb(75.59967%, 14.898682%, 5.799866%)" fill-opacity="1" d="M 370.101562 16.671875 C 370.101562 25.496094 362.949219 32.648438 354.128906 32.648438 C 345.304688 32.648438 338.152344 25.496094 338.152344 16.671875 C 338.152344 7.851562 345.304688 0.699219 354.128906 0.699219 C 362.949219 0.699219 370.101562 7.851562 370.101562 16.671875 "/>
</g>
<g clip-path="url(#clip-17)">
<path fill="none" stroke-width="0.4" stroke-linecap="butt" stroke-linejoin="round" stroke="rgb(0%, 0%, 0%)" stroke-opacity="1" stroke-miterlimit="10" d="M 389.999465 380.001191 C 389.999465 371.162717 382.835566 363.998819 374.001005 363.998819 C 365.16253 363.998819 357.998632 371.162717 357.998632 380.001191 C 357.998632 388.835753 365.16253 395.999652 374.001005 395.999652 C 382.835566 395.999652 389.999465 388.835753 389.999465 380.001191 " transform="matrix(0.998387, 0, 0, -0.998387, -19.268871, 396.060161)"/>
</g>
</svg>
