<?xml version="1.0" encoding="UTF-8"?>
<svg xmlns="http://www.w3.org/2000/svg" xmlns:xlink="http://www.w3.org/1999/xlink" width="82.358" height="92.8499" viewBox="0 0 82.358 92.8499">
<defs>
<clipPath id="clip-0">
<path clip-rule="nonzero" d="M 0 12 L 81.722656 12 L 81.722656 81 L 0 81 Z M 0 12 "/>
</clipPath>
<clipPath id="clip-1">
<path clip-rule="nonzero" d="M 0 12 L 81.722656 12 L 81.722656 92.417969 L 0 92.417969 Z M 0 12 "/>
</clipPath>
<clipPath id="clip-2">
<path clip-rule="nonzero" d="M 20 0.285156 L 81 0.285156 L 81 92.417969 L 20 92.417969 Z M 20 0.285156 "/>
</clipPath>
<clipPath id="clip-3">
<path clip-rule="nonzero" d="M 14 3 L 80 3 L 80 92.417969 L 14 92.417969 Z M 14 3 "/>
</clipPath>
<clipPath id="clip-4">
<path clip-rule="nonzero" d="M 6 0.285156 L 80 0.285156 L 80 86 L 6 86 Z M 6 0.285156 "/>
</clipPath>
<clipPath id="clip-5">
<path clip-rule="nonzero" d="M 13 0.285156 L 80 0.285156 L 80 90 L 13 90 Z M 13 0.285156 "/>
</clipPath>
<clipPath id="clip-6">
<path clip-rule="nonzero" d="M 0 12 L 81.722656 12 L 81.722656 81 L 0 81 Z M 0 12 "/>
</clipPath>
<clipPath id="clip-7">
<path clip-rule="nonzero" d="M 0 12 L 81.722656 12 L 81.722656 92.417969 L 0 92.417969 Z M 0 12 "/>
</clipPath>
<clipPath id="clip-8">
<path clip-rule="nonzero" d="M 20 0.285156 L 81 0.285156 L 81 92.417969 L 20 92.417969 Z M 20 0.285156 "/>
</clipPath>
<clipPath id="clip-9">
<path clip-rule="nonzero" d="M 14 2 L 80 2 L 80 92.417969 L 14 92.417969 Z M 14 2 "/>
</clipPath>
<clipPath id="clip-10">
<path clip-rule="nonzero" d="M 6 0.285156 L 80 0.285156 L 80 86 L 6 86 Z M 6 0.285156 "/>
</clipPath>
<clipPath id="clip-11">
<path clip-rule="nonzero" d="M 20 0.285156 L 81.722656 0.285156 L 81.722656 92.417969 L 20 92.417969 Z M 20 0.285156 "/>
</clipPath>
<clipPath id="clip-12">
<path clip-rule="nonzero" d="M 13 0.285156 L 80 0.285156 L 80 90 L 13 90 Z M 13 0.285156 "/>
</clipPath>
</defs>
<g clip-path="url(#clip-0)">
<path fill-rule="evenodd" fill="rgb(100%, 0%, 0%)" fill-opacity="0.1" d="M 0.199219 12.300781 L 0.199219 80.398438 L 81.355469 51.945312 Z M 0.199219 12.300781 "/>
</g>
<g clip-path="url(#clip-1)">
<path fill-rule="evenodd" fill="rgb(100%, 0%, 0%)" fill-opacity="0.1" d="M 0.199219 12.300781 L 20.667969 92.21875 L 81.523438 46.066406 Z M 0.199219 12.300781 "/>
</g>
<g clip-path="url(#clip-2)">
<path fill-rule="evenodd" fill="rgb(100%, 0%, 0%)" fill-opacity="0.1" d="M 20.667969 0.484375 L 20.667969 92.21875 L 80.742188 40.101562 Z M 20.667969 0.484375 "/>
</g>
<path fill-rule="evenodd" fill="rgb(0%, 0%, 100%)" fill-opacity="0.1" d="M 0.199219 12.300781 L 79.726562 58.710938 L 9.695312 87.570312 Z M 0.199219 12.300781 "/>
<path fill-rule="evenodd" fill="rgb(0%, 0%, 0%)" fill-opacity="0.1" d="M 79.703125 34.777344 L 0.199219 80.398438 L 9.625 5.117188 Z M 79.703125 34.777344 "/>
<path fill-rule="evenodd" fill="rgb(0%, 0%, 0%)" fill-opacity="0.1" d="M 0.199219 80.398438 L 79.644531 58.160156 L 5.5625 8.222656 Z M 0.199219 80.398438 "/>
<g clip-path="url(#clip-3)">
<path fill-rule="evenodd" fill="rgb(0%, 0%, 0%)" fill-opacity="0.1" d="M 79.703125 34.777344 L 14.121094 3.039062 L 20.667969 92.21875 Z M 79.703125 34.777344 "/>
</g>
<g clip-path="url(#clip-4)">
<path fill-rule="evenodd" fill="rgb(0%, 0%, 100%)" fill-opacity="0.1" d="M 20.667969 0.484375 L 79.703125 34.777344 L 6.171875 85.359375 Z M 20.667969 0.484375 "/>
</g>
<g clip-path="url(#clip-5)">
<path fill-rule="evenodd" fill="rgb(0%, 0%, 100%)" fill-opacity="0.1" d="M 20.667969 0.484375 L 79.644531 58.160156 L 13.386719 89.523438 Z M 20.667969 0.484375 "/>
</g>
<g clip-path="url(#clip-6)">
<path fill="none" stroke-width="0.125" stroke-linecap="butt" stroke-linejoin="round" stroke="rgb(0%, 0%, 0%)" stroke-opacity="1" stroke-miterlimit="10" d="M 158.436772 179.515175 L 158.436772 110.886681 L 240.225654 139.561605 Z M 158.436772 179.515175 " transform="matrix(0.992265, 0, 0, -0.992265, -157.012054, 190.427417)"/>
</g>
<g clip-path="url(#clip-7)">
<path fill="none" stroke-width="0.125" stroke-linecap="butt" stroke-linejoin="round" stroke="rgb(0%, 0%, 0%)" stroke-opacity="1" stroke-miterlimit="10" d="M 158.436772 179.515175 L 179.06508 98.974227 L 240.394932 145.486339 Z M 158.436772 179.515175 " transform="matrix(0.992265, 0, 0, -0.992265, -157.012054, 190.427417)"/>
</g>
<g clip-path="url(#clip-8)">
<path fill="none" stroke-width="0.125" stroke-linecap="butt" stroke-linejoin="round" stroke="rgb(0%, 0%, 0%)" stroke-opacity="1" stroke-miterlimit="10" d="M 179.06508 191.423693 L 179.06508 98.974227 L 239.607592 151.49768 Z M 179.06508 191.423693 " transform="matrix(0.992265, 0, 0, -0.992265, -157.012054, 190.427417)"/>
</g>
<path fill="none" stroke-width="0.125" stroke-linecap="butt" stroke-linejoin="round" stroke="rgb(0%, 0%, 0%)" stroke-opacity="1" stroke-miterlimit="10" d="M 158.436772 179.515175 L 238.58405 132.74324 L 168.00689 103.6589 Z M 158.436772 179.515175 " transform="matrix(0.992265, 0, 0, -0.992265, -157.012054, 190.427417)"/>
<path fill="none" stroke-width="0.125" stroke-linecap="butt" stroke-linejoin="round" stroke="rgb(0%, 0%, 0%)" stroke-opacity="1" stroke-miterlimit="10" d="M 238.56043 156.863402 L 158.436772 110.886681 L 167.936029 186.754766 Z M 238.56043 156.863402 " transform="matrix(0.992265, 0, 0, -0.992265, -157.012054, 190.427417)"/>
<path fill="none" stroke-width="0.125" stroke-linecap="butt" stroke-linejoin="round" stroke="rgb(0%, 0%, 0%)" stroke-opacity="1" stroke-miterlimit="10" d="M 158.436772 110.886681 L 238.501379 133.298315 L 163.841861 183.62509 Z M 158.436772 110.886681 " transform="matrix(0.992265, 0, 0, -0.992265, -157.012054, 190.427417)"/>
<g clip-path="url(#clip-9)">
<path fill="none" stroke-width="0.125" stroke-linecap="butt" stroke-linejoin="round" stroke="rgb(0%, 0%, 0%)" stroke-opacity="1" stroke-miterlimit="10" d="M 238.56043 156.863402 L 172.467171 188.849091 L 179.06508 98.974227 Z M 238.56043 156.863402 " transform="matrix(0.992265, 0, 0, -0.992265, -157.012054, 190.427417)"/>
</g>
<g clip-path="url(#clip-10)">
<path fill="none" stroke-width="0.125" stroke-linecap="butt" stroke-linejoin="round" stroke="rgb(0%, 0%, 0%)" stroke-opacity="1" stroke-miterlimit="10" d="M 179.06508 191.423693 L 238.56043 156.863402 L 164.455986 105.887072 Z M 179.06508 191.423693 " transform="matrix(0.992265, 0, 0, -0.992265, -157.012054, 190.427417)"/>
</g>
<g clip-path="url(#clip-11)">
<path fill="none" stroke-width="0.125" stroke-linecap="butt" stroke-linejoin="round" stroke="rgb(0%, 0%, 0%)" stroke-opacity="1" stroke-miterlimit="10" d="M 179.06508 191.423693 L 179.06508 98.974227 L 239.820174 149.348242 Z M 179.06508 191.423693 " transform="matrix(0.992265, 0, 0, -0.992265, -157.012054, 190.427417)"/>
</g>
<g clip-path="url(#clip-12)">
<path fill="none" stroke-width="0.125" stroke-linecap="butt" stroke-linejoin="round" stroke="rgb(0%, 0%, 0%)" stroke-opacity="1" stroke-miterlimit="10" d="M 179.06508 191.423693 L 238.501379 133.298315 L 171.727071 101.69055 Z M 179.06508 191.423693 " transform="matrix(0.992265, 0, 0, -0.992265, -157.012054, 190.427417)"/>
</g>
</svg>
