<?xml version="1.0" encoding="UTF-8"?>
<svg xmlns="http://www.w3.org/2000/svg" xmlns:xlink="http://www.w3.org/1999/xlink" width="87.526" height="99.8498" viewBox="0 0 87.526 99.8498">
<defs>
<clipPath id="clip-0">
<path clip-rule="nonzero" d="M 21 0.195312 L 28 0.195312 L 28 7 L 21 7 Z M 21 0.195312 "/>
</clipPath>
</defs>
<path fill-rule="evenodd" fill="rgb(100%, 0%, 0%)" fill-opacity="0.1" d="M 3.679688 15.722656 L 3.679688 83.980469 L 85.03125 55.457031 Z M 3.679688 15.722656 "/>
<path fill-rule="evenodd" fill="rgb(100%, 0%, 0%)" fill-opacity="0.1" d="M 3.679688 15.722656 L 24.199219 95.828125 L 85.199219 49.5625 Z M 3.679688 15.722656 "/>
<path fill-rule="evenodd" fill="rgb(100%, 0%, 0%)" fill-opacity="0.1" d="M 24.199219 3.875 L 24.199219 95.828125 L 84.414062 43.585938 Z M 24.199219 3.875 "/>
<path fill-rule="evenodd" fill="rgb(0%, 0%, 100%)" fill-opacity="0.1" d="M 3.679688 15.722656 L 83.394531 62.242188 L 13.199219 91.167969 Z M 3.679688 15.722656 "/>
<path fill-rule="evenodd" fill="rgb(0%, 0%, 0%)" fill-opacity="0.1" d="M 83.375 38.25 L 3.679688 83.980469 L 13.132812 8.519531 Z M 83.375 38.25 "/>
<path fill-rule="evenodd" fill="rgb(0%, 0%, 0%)" fill-opacity="0.1" d="M 3.679688 83.980469 L 83.316406 61.6875 L 9.058594 11.632812 Z M 3.679688 83.980469 "/>
<path fill-rule="evenodd" fill="rgb(0%, 0%, 0%)" fill-opacity="0.1" d="M 83.375 38.25 L 17.636719 6.433594 L 24.199219 95.828125 Z M 83.375 38.25 "/>
<path fill-rule="evenodd" fill="rgb(0%, 0%, 100%)" fill-opacity="0.1" d="M 24.199219 3.875 L 83.375 38.25 L 9.667969 88.949219 Z M 24.199219 3.875 "/>
<path fill-rule="evenodd" fill="rgb(0%, 0%, 100%)" fill-opacity="0.1" d="M 24.199219 3.875 L 83.316406 61.6875 L 16.902344 93.125 Z M 24.199219 3.875 "/>
<path fill="none" stroke-width="0.125" stroke-linecap="butt" stroke-linejoin="round" stroke="rgb(0%, 0%, 0%)" stroke-opacity="1" stroke-miterlimit="10" d="M 158.434615 179.512467 L 158.434615 110.885002 L 240.22674 139.562909 Z M 158.434615 179.512467 " transform="matrix(0.994614, 0, 0, -0.994614, -153.901541, 194.268204)"/>
<path fill="none" stroke-width="0.125" stroke-linecap="butt" stroke-linejoin="round" stroke="rgb(0%, 0%, 0%)" stroke-opacity="1" stroke-miterlimit="10" d="M 158.434615 179.512467 L 179.06527 98.973185 L 240.395618 145.489363 Z M 158.434615 179.512467 " transform="matrix(0.994614, 0, 0, -0.994614, -153.901541, 194.268204)"/>
<path fill="none" stroke-width="0.125" stroke-linecap="butt" stroke-linejoin="round" stroke="rgb(0%, 0%, 0%)" stroke-opacity="1" stroke-miterlimit="10" d="M 179.06527 191.424285 L 179.06527 98.973185 L 239.60621 151.498291 Z M 179.06527 191.424285 " transform="matrix(0.994614, 0, 0, -0.994614, -153.901541, 194.268204)"/>
<path fill="none" stroke-width="0.125" stroke-linecap="butt" stroke-linejoin="round" stroke="rgb(0%, 0%, 0%)" stroke-opacity="1" stroke-miterlimit="10" d="M 158.434615 179.512467 L 238.581157 132.741008 L 168.0057 103.658578 Z M 158.434615 179.512467 " transform="matrix(0.994614, 0, 0, -0.994614, -153.901541, 194.268204)"/>
<path fill="none" stroke-width="0.125" stroke-linecap="butt" stroke-linejoin="round" stroke="rgb(0%, 0%, 0%)" stroke-opacity="1" stroke-miterlimit="10" d="M 238.56152 156.863126 L 158.434615 110.885002 L 167.938934 186.754601 Z M 238.56152 156.863126 " transform="matrix(0.994614, 0, 0, -0.994614, -153.901541, 194.268204)"/>
<path fill="none" stroke-width="0.125" stroke-linecap="butt" stroke-linejoin="round" stroke="rgb(0%, 0%, 0%)" stroke-opacity="1" stroke-miterlimit="10" d="M 158.434615 110.885002 L 238.502609 133.298699 L 163.842651 183.62446 Z M 158.434615 110.885002 " transform="matrix(0.994614, 0, 0, -0.994614, -153.901541, 194.268204)"/>
<path fill="none" stroke-width="0.125" stroke-linecap="butt" stroke-linejoin="round" stroke="rgb(0%, 0%, 0%)" stroke-opacity="1" stroke-miterlimit="10" d="M 238.56152 156.863126 L 172.467231 188.851835 L 179.06527 98.973185 Z M 238.56152 156.863126 " transform="matrix(0.994614, 0, 0, -0.994614, -153.901541, 194.268204)"/>
<path fill="none" stroke-width="0.125" stroke-linecap="butt" stroke-linejoin="round" stroke="rgb(0%, 0%, 0%)" stroke-opacity="1" stroke-miterlimit="10" d="M 179.06527 191.424285 L 238.56152 156.863126 L 164.455326 105.889344 Z M 179.06527 191.424285 " transform="matrix(0.994614, 0, 0, -0.994614, -153.901541, 194.268204)"/>
<path fill="none" stroke-width="0.125" stroke-linecap="butt" stroke-linejoin="round" stroke="rgb(0%, 0%, 0%)" stroke-opacity="1" stroke-miterlimit="10" d="M 179.06527 191.424285 L 179.06527 98.973185 L 239.81829 149.350001 Z M 179.06527 191.424285 " transform="matrix(0.994614, 0, 0, -0.994614, -153.901541, 194.268204)"/>
<path fill="none" stroke-width="0.125" stroke-linecap="butt" stroke-linejoin="round" stroke="rgb(0%, 0%, 0%)" stroke-opacity="1" stroke-miterlimit="10" d="M 179.06527 191.424285 L 238.502609 133.298699 L 171.728879 101.690948 Z M 179.06527 191.424285 " transform="matrix(0.994614, 0, 0, -0.994614, -153.901541, 194.268204)"/>
<path fill-rule="evenodd" fill="rgb(100%, 84.298706%, 0%)" fill-opacity="1" d="M 6.167969 83.980469 C 6.167969 82.605469 5.054688 81.492188 3.679688 81.492188 C 2.308594 81.492188 1.195312 82.605469 1.195312 83.980469 C 1.195312 85.351562 2.308594 86.464844 3.679688 86.464844 C 5.054688 86.464844 6.167969 85.351562 6.167969 83.980469 "/>
<path fill-rule="evenodd" fill="rgb(0%, 0%, 0%)" fill-opacity="1" d="M 6.664062 83.980469 C 6.664062 82.332031 5.328125 80.996094 3.679688 80.996094 C 2.03125 80.996094 0.695312 82.332031 0.695312 83.980469 C 0.695312 85.625 2.03125 86.964844 3.679688 86.964844 C 5.328125 86.964844 6.664062 85.625 6.664062 83.980469 M 5.667969 83.980469 C 5.667969 82.878906 4.777344 81.992188 3.679688 81.992188 C 2.582031 81.992188 1.691406 82.878906 1.691406 83.980469 C 1.691406 85.078125 2.582031 85.96875 3.679688 85.96875 C 4.777344 85.96875 5.667969 85.078125 5.667969 83.980469 "/>
<path fill-rule="evenodd" fill="rgb(100%, 84.298706%, 0%)" fill-opacity="1" d="M 26.6875 95.824219 C 26.6875 94.453125 25.574219 93.339844 24.199219 93.339844 C 22.828125 93.339844 21.714844 94.453125 21.714844 95.824219 C 21.714844 97.199219 22.828125 98.3125 24.199219 98.3125 C 25.574219 98.3125 26.6875 97.199219 26.6875 95.824219 "/>
<path fill-rule="evenodd" fill="rgb(0%, 0%, 0%)" fill-opacity="1" d="M 27.183594 95.824219 C 27.183594 94.179688 25.847656 92.84375 24.199219 92.84375 C 22.554688 92.84375 21.21875 94.179688 21.21875 95.824219 C 21.21875 97.472656 22.554688 98.808594 24.199219 98.808594 C 25.847656 98.808594 27.183594 97.472656 27.183594 95.824219 M 26.191406 95.824219 C 26.191406 94.726562 25.300781 93.835938 24.199219 93.835938 C 23.101562 93.835938 22.210938 94.726562 22.210938 95.824219 C 22.210938 96.925781 23.101562 97.816406 24.199219 97.816406 C 25.300781 97.816406 26.191406 96.925781 26.191406 95.824219 "/>
<path fill-rule="evenodd" fill="rgb(100%, 84.298706%, 0%)" fill-opacity="1" d="M 6.167969 15.722656 C 6.167969 14.347656 5.054688 13.234375 3.679688 13.234375 C 2.308594 13.234375 1.195312 14.347656 1.195312 15.722656 C 1.195312 17.09375 2.308594 18.207031 3.679688 18.207031 C 5.054688 18.207031 6.167969 17.09375 6.167969 15.722656 "/>
<path fill-rule="evenodd" fill="rgb(0%, 0%, 0%)" fill-opacity="1" d="M 6.664062 15.722656 C 6.664062 14.074219 5.328125 12.738281 3.679688 12.738281 C 2.03125 12.738281 0.695312 14.074219 0.695312 15.722656 C 0.695312 17.371094 2.03125 18.707031 3.679688 18.707031 C 5.328125 18.707031 6.664062 17.371094 6.664062 15.722656 M 5.667969 15.722656 C 5.667969 14.625 4.777344 13.734375 3.679688 13.734375 C 2.582031 13.734375 1.691406 14.625 1.691406 15.722656 C 1.691406 16.820312 2.582031 17.710938 3.679688 17.710938 C 4.777344 17.710938 5.667969 16.820312 5.667969 15.722656 "/>
<path fill-rule="evenodd" fill="rgb(100%, 84.298706%, 0%)" fill-opacity="1" d="M 26.6875 3.875 C 26.6875 2.5 25.574219 1.386719 24.199219 1.386719 C 22.828125 1.386719 21.714844 2.5 21.714844 3.875 C 21.714844 5.246094 22.828125 6.359375 24.199219 6.359375 C 25.574219 6.359375 26.6875 5.246094 26.6875 3.875 "/>
<g clip-path="url(#clip-0)">
<path fill-rule="evenodd" fill="rgb(0%, 0%, 0%)" fill-opacity="1" d="M 27.183594 3.875 C 27.183594 2.226562 25.847656 0.890625 24.199219 0.890625 C 22.554688 0.890625 21.21875 2.226562 21.21875 3.875 C 21.21875 5.523438 22.554688 6.859375 24.199219 6.859375 C 25.847656 6.859375 27.183594 5.523438 27.183594 3.875 M 26.191406 3.875 C 26.191406 2.777344 25.300781 1.886719 24.199219 1.886719 C 23.101562 1.886719 22.210938 2.777344 22.210938 3.875 C 22.210938 4.972656 23.101562 5.863281 24.199219 5.863281 C 25.300781 5.863281 26.191406 4.972656 26.191406 3.875 "/>
</g>
<path fill-rule="evenodd" fill="rgb(100%, 84.298706%, 0%)" fill-opacity="1" d="M 85.800781 61.6875 C 85.800781 60.316406 84.6875 59.203125 83.316406 59.203125 C 81.941406 59.203125 80.828125 60.316406 80.828125 61.6875 C 80.828125 63.0625 81.941406 64.175781 83.316406 64.175781 C 84.6875 64.175781 85.800781 63.0625 85.800781 61.6875 "/>
<path fill-rule="evenodd" fill="rgb(0%, 0%, 0%)" fill-opacity="1" d="M 86.296875 61.6875 C 86.296875 60.042969 84.960938 58.703125 83.316406 58.703125 C 81.667969 58.703125 80.332031 60.042969 80.332031 61.6875 C 80.332031 63.335938 81.667969 64.671875 83.316406 64.671875 C 84.960938 64.671875 86.296875 63.335938 86.296875 61.6875 M 85.304688 61.6875 C 85.304688 60.589844 84.414062 59.699219 83.316406 59.699219 C 82.214844 59.699219 81.324219 60.589844 81.324219 61.6875 C 81.324219 62.789062 82.214844 63.675781 83.316406 63.675781 C 84.414062 63.675781 85.304688 62.789062 85.304688 61.6875 "/>
<path fill-rule="evenodd" fill="rgb(100%, 84.298706%, 0%)" fill-opacity="1" d="M 85.859375 38.25 C 85.859375 36.875 84.746094 35.761719 83.375 35.761719 C 82 35.761719 80.886719 36.875 80.886719 38.25 C 80.886719 39.621094 82 40.738281 83.375 40.738281 C 84.746094 40.738281 85.859375 39.621094 85.859375 38.25 "/>
<path fill-rule="evenodd" fill="rgb(0%, 0%, 0%)" fill-opacity="1" d="M 86.359375 38.25 C 86.359375 36.601562 85.023438 35.265625 83.375 35.265625 C 81.726562 35.265625 80.390625 36.601562 80.390625 38.25 C 80.390625 39.898438 81.726562 41.234375 83.375 41.234375 C 85.023438 41.234375 86.359375 39.898438 86.359375 38.25 M 85.363281 38.25 C 85.363281 37.152344 84.472656 36.261719 83.375 36.261719 C 82.277344 36.261719 81.386719 37.152344 81.386719 38.25 C 81.386719 39.347656 82.277344 40.238281 83.375 40.238281 C 84.472656 40.238281 85.363281 39.347656 85.363281 38.25 "/>
</svg>
