<?xml version="1.0" encoding="UTF-8"?>
<svg xmlns="http://www.w3.org/2000/svg" xmlns:xlink="http://www.w3.org/1999/xlink" width="100.161" height="102.2498" viewBox="0 0 100.161 102.2498">
<defs>
<clipPath id="clip-0">
<path clip-rule="nonzero" d="M 31 0.0507812 L 40 0.0507812 L 40 10 L 31 10 Z M 31 0.0507812 "/>
</clipPath>
</defs>
<path fill-rule="evenodd" fill="rgb(100%, 0%, 0%)" fill-opacity="0.1" d="M 15.011719 16.722656 L 15.011719 84.78125 L 96.121094 56.34375 Z M 15.011719 16.722656 "/>
<path fill-rule="evenodd" fill="rgb(100%, 0%, 0%)" fill-opacity="0.1" d="M 15.011719 16.722656 L 35.46875 96.59375 L 96.289062 50.46875 Z M 15.011719 16.722656 "/>
<path fill-rule="evenodd" fill="rgb(100%, 0%, 0%)" fill-opacity="0.1" d="M 35.46875 4.910156 L 35.46875 96.59375 L 95.507812 44.507812 Z M 35.46875 4.910156 "/>
<path fill-rule="evenodd" fill="rgb(0%, 0%, 100%)" fill-opacity="0.1" d="M 15.011719 16.722656 L 94.492188 63.109375 L 24.5 91.949219 Z M 15.011719 16.722656 "/>
<path fill-rule="evenodd" fill="rgb(0%, 0%, 0%)" fill-opacity="0.1" d="M 94.46875 39.1875 L 15.011719 84.78125 L 24.433594 9.542969 Z M 94.46875 39.1875 "/>
<path fill-rule="evenodd" fill="rgb(0%, 0%, 0%)" fill-opacity="0.1" d="M 15.011719 84.78125 L 94.410156 62.554688 L 20.371094 12.648438 Z M 15.011719 84.78125 "/>
<path fill-rule="evenodd" fill="rgb(0%, 0%, 0%)" fill-opacity="0.1" d="M 94.46875 39.1875 L 28.921875 7.464844 L 35.46875 96.59375 Z M 94.46875 39.1875 "/>
<path fill-rule="evenodd" fill="rgb(0%, 0%, 100%)" fill-opacity="0.1" d="M 35.46875 4.910156 L 94.46875 39.1875 L 20.980469 89.738281 Z M 35.46875 4.910156 "/>
<path fill-rule="evenodd" fill="rgb(0%, 0%, 100%)" fill-opacity="0.1" d="M 35.46875 4.910156 L 94.410156 62.554688 L 28.191406 93.902344 Z M 35.46875 4.910156 "/>
<path fill="none" stroke-width="0.125" stroke-linecap="butt" stroke-linejoin="round" stroke="rgb(0%, 0%, 0%)" stroke-opacity="1" stroke-miterlimit="10" d="M 158.437465 179.515415 L 158.437465 110.886727 L 240.226253 139.562434 Z M 158.437465 179.515415 " transform="matrix(0.991693, 0, 0, -0.991693, -142.109617, 194.746849)"/>
<path fill="none" stroke-width="0.125" stroke-linecap="butt" stroke-linejoin="round" stroke="rgb(0%, 0%, 0%)" stroke-opacity="1" stroke-miterlimit="10" d="M 158.437465 179.515415 L 179.065854 98.97528 L 240.395629 145.486646 Z M 158.437465 179.515415 " transform="matrix(0.991693, 0, 0, -0.991693, -142.109617, 194.746849)"/>
<path fill="none" stroke-width="0.125" stroke-linecap="butt" stroke-linejoin="round" stroke="rgb(0%, 0%, 0%)" stroke-opacity="1" stroke-miterlimit="10" d="M 179.065854 191.426862 L 179.065854 98.97528 L 239.607835 151.497516 Z M 179.065854 191.426862 " transform="matrix(0.991693, 0, 0, -0.991693, -142.109617, 194.746849)"/>
<path fill="none" stroke-width="0.125" stroke-linecap="butt" stroke-linejoin="round" stroke="rgb(0%, 0%, 0%)" stroke-opacity="1" stroke-miterlimit="10" d="M 158.437465 179.515415 L 238.583703 132.740137 L 168.005225 103.658716 Z M 158.437465 179.515415 " transform="matrix(0.991693, 0, 0, -0.991693, -142.109617, 194.746849)"/>
<path fill="none" stroke-width="0.125" stroke-linecap="butt" stroke-linejoin="round" stroke="rgb(0%, 0%, 0%)" stroke-opacity="1" stroke-miterlimit="10" d="M 238.560069 156.862394 L 158.437465 110.886727 L 167.938262 186.755243 Z M 238.560069 156.862394 " transform="matrix(0.991693, 0, 0, -0.991693, -142.109617, 194.746849)"/>
<path fill="none" stroke-width="0.125" stroke-linecap="butt" stroke-linejoin="round" stroke="rgb(0%, 0%, 0%)" stroke-opacity="1" stroke-miterlimit="10" d="M 158.437465 110.886727 L 238.500984 133.299471 L 163.841732 183.623761 Z M 158.437465 110.886727 " transform="matrix(0.991693, 0, 0, -0.991693, -142.109617, 194.746849)"/>
<path fill="none" stroke-width="0.125" stroke-linecap="butt" stroke-linejoin="round" stroke="rgb(0%, 0%, 0%)" stroke-opacity="1" stroke-miterlimit="10" d="M 238.560069 156.862394 L 172.464139 188.850775 L 179.065854 98.97528 Z M 238.560069 156.862394 " transform="matrix(0.991693, 0, 0, -0.991693, -142.109617, 194.746849)"/>
<path fill="none" stroke-width="0.125" stroke-linecap="butt" stroke-linejoin="round" stroke="rgb(0%, 0%, 0%)" stroke-opacity="1" stroke-miterlimit="10" d="M 179.065854 191.426862 L 238.560069 156.862394 L 164.456212 105.888173 Z M 179.065854 191.426862 " transform="matrix(0.991693, 0, 0, -0.991693, -142.109617, 194.746849)"/>
<path fill="none" stroke-width="0.125" stroke-linecap="butt" stroke-linejoin="round" stroke="rgb(0%, 0%, 0%)" stroke-opacity="1" stroke-miterlimit="10" d="M 179.065854 191.426862 L 179.065854 98.97528 L 239.820539 149.350777 Z M 179.065854 191.426862 " transform="matrix(0.991693, 0, 0, -0.991693, -142.109617, 194.746849)"/>
<path fill="none" stroke-width="0.125" stroke-linecap="butt" stroke-linejoin="round" stroke="rgb(0%, 0%, 0%)" stroke-opacity="1" stroke-miterlimit="10" d="M 179.065854 191.426862 L 238.500984 133.299471 L 171.727552 101.68923 Z M 179.065854 191.426862 " transform="matrix(0.991693, 0, 0, -0.991693, -142.109617, 194.746849)"/>
<path fill="none" stroke-width="1.2" stroke-linecap="butt" stroke-linejoin="round" stroke="rgb(0%, 0%, 0%)" stroke-opacity="1" stroke-miterlimit="10" d="M 158.437465 179.515415 L 238.500984 133.299471 " transform="matrix(0.991693, 0, 0, -0.991693, -142.109617, 194.746849)"/>
<path fill="none" stroke-width="1.2" stroke-linecap="butt" stroke-linejoin="round" stroke="rgb(54.499817%, 45.899963%, 0%)" stroke-opacity="1" stroke-miterlimit="10" d="M 158.437465 179.515415 L 179.065854 98.97528 " transform="matrix(0.991693, 0, 0, -0.991693, -142.109617, 194.746849)"/>
<path fill="none" stroke-width="1.2" stroke-linecap="butt" stroke-linejoin="round" stroke="rgb(9.799194%, 9.799194%, 43.899536%)" stroke-opacity="1" stroke-miterlimit="10" d="M 158.437465 179.515415 L 158.437465 110.886727 " transform="matrix(0.991693, 0, 0, -0.991693, -142.109617, 194.746849)"/>
<path fill="none" stroke-width="1.2" stroke-linecap="butt" stroke-linejoin="round" stroke="rgb(54.499817%, 13.699341%, 13.699341%)" stroke-opacity="1" stroke-miterlimit="10" d="M 179.065854 98.97528 L 238.560069 156.862394 " transform="matrix(0.991693, 0, 0, -0.991693, -142.109617, 194.746849)"/>
<path fill="none" stroke-width="1.2" stroke-linecap="butt" stroke-linejoin="round" stroke="rgb(0%, 40.79895%, 54.499817%)" stroke-opacity="1" stroke-miterlimit="10" d="M 179.065854 98.97528 L 179.065854 191.426862 " transform="matrix(0.991693, 0, 0, -0.991693, -142.109617, 194.746849)"/>
<path fill="none" stroke-width="1.2" stroke-linecap="butt" stroke-linejoin="round" stroke="rgb(54.499817%, 0%, 54.499817%)" stroke-opacity="1" stroke-miterlimit="10" d="M 238.560069 156.862394 L 179.065854 191.426862 " transform="matrix(0.991693, 0, 0, -0.991693, -142.109617, 194.746849)"/>
<path fill="none" stroke-width="1.2" stroke-linecap="butt" stroke-linejoin="round" stroke="rgb(40.79895%, 13.299561%, 54.499817%)" stroke-opacity="1" stroke-miterlimit="10" d="M 238.560069 156.862394 L 158.437465 110.886727 " transform="matrix(0.991693, 0, 0, -0.991693, -142.109617, 194.746849)"/>
<path fill="none" stroke-width="1.2" stroke-linecap="butt" stroke-linejoin="round" stroke="rgb(100%, 54.899597%, 0%)" stroke-opacity="1" stroke-miterlimit="10" d="M 179.065854 191.426862 L 238.500984 133.299471 " transform="matrix(0.991693, 0, 0, -0.991693, -142.109617, 194.746849)"/>
<path fill="none" stroke-width="1.2" stroke-linecap="butt" stroke-linejoin="round" stroke="rgb(33.299255%, 41.999817%, 18.399048%)" stroke-opacity="1" stroke-miterlimit="10" d="M 238.500984 133.299471 L 158.437465 110.886727 " transform="matrix(0.991693, 0, 0, -0.991693, -142.109617, 194.746849)"/>
<path fill="none" stroke-width="0.4" stroke-linecap="butt" stroke-linejoin="round" stroke="rgb(0%, 0%, 100%)" stroke-opacity="1" stroke-miterlimit="10" d="M 240.001732 145.199101 C 240.001732 171.708375 218.510708 193.199399 192.001434 193.199399 C 165.488222 193.199399 144.001137 171.708375 144.001137 145.199101 C 144.001137 118.689828 165.488222 97.198804 192.001434 97.198804 C 218.510708 97.198804 240.001732 118.689828 240.001732 145.199101 " transform="matrix(0.991693, 0, 0, -0.991693, -142.109617, 194.746849)"/>
<path fill="none" stroke-width="0.4" stroke-linecap="butt" stroke-linejoin="round" stroke="rgb(0%, 0%, 100%)" stroke-opacity="1" stroke-miterlimit="10" d="M 240.001732 145.199101 C 240.001732 171.708375 218.510708 193.199399 192.001434 193.199399 C 165.488222 193.199399 144.001137 171.708375 144.001137 145.199101 C 144.001137 118.689828 165.488222 97.198804 192.001434 97.198804 C 218.510708 97.198804 240.001732 118.689828 240.001732 145.199101 " transform="matrix(0.991693, 0, 0, -0.991693, -142.109617, 194.746849)"/>
<path fill="none" stroke-width="1.2" stroke-linecap="butt" stroke-linejoin="round" stroke="rgb(0%, 0%, 100%)" stroke-opacity="1" stroke-miterlimit="10" d="M 179.065854 98.97528 C 171.298204 101.149591 164.200179 105.246121 158.433526 110.886727 " transform="matrix(0.991693, 0, 0, -0.991693, -142.109617, 194.746849)"/>
<path fill-rule="evenodd" fill="rgb(0%, 0%, 100%)" fill-opacity="1" d="M 18.480469 84.78125 C 18.480469 82.863281 16.925781 81.3125 15.007812 81.3125 C 13.09375 81.3125 11.539062 82.863281 11.539062 84.78125 C 11.539062 86.699219 13.09375 88.253906 15.007812 88.253906 C 16.925781 88.253906 18.480469 86.699219 18.480469 84.78125 "/>
<path fill-rule="evenodd" fill="rgb(0%, 0%, 0%)" fill-opacity="1" d="M 19.175781 84.78125 C 19.175781 82.480469 17.308594 80.617188 15.007812 80.617188 C 12.710938 80.617188 10.84375 82.480469 10.84375 84.78125 C 10.84375 87.082031 12.710938 88.945312 15.007812 88.945312 C 17.308594 88.945312 19.175781 87.082031 19.175781 84.78125 M 17.785156 84.78125 C 17.785156 83.246094 16.542969 82.003906 15.007812 82.003906 C 13.476562 82.003906 12.234375 83.246094 12.234375 84.78125 C 12.234375 86.316406 13.476562 87.558594 15.007812 87.558594 C 16.542969 87.558594 17.785156 86.316406 17.785156 84.78125 "/>
<path fill-rule="evenodd" fill="rgb(0%, 0%, 100%)" fill-opacity="1" d="M 38.941406 96.59375 C 38.941406 94.675781 37.386719 93.125 35.46875 93.125 C 33.554688 93.125 32 94.675781 32 96.59375 C 32 98.511719 33.554688 100.066406 35.46875 100.066406 C 37.386719 100.066406 38.941406 98.511719 38.941406 96.59375 "/>
<path fill-rule="evenodd" fill="rgb(0%, 0%, 0%)" fill-opacity="1" d="M 39.636719 96.59375 C 39.636719 94.292969 37.769531 92.429688 35.46875 92.429688 C 33.167969 92.429688 31.304688 94.292969 31.304688 96.59375 C 31.304688 98.894531 33.167969 100.757812 35.46875 100.757812 C 37.769531 100.757812 39.636719 98.894531 39.636719 96.59375 M 38.246094 96.59375 C 38.246094 95.058594 37.003906 93.816406 35.46875 93.816406 C 33.9375 93.816406 32.691406 95.058594 32.691406 96.59375 C 32.691406 98.128906 33.9375 99.371094 35.46875 99.371094 C 37.003906 99.371094 38.246094 98.128906 38.246094 96.59375 "/>
<path fill-rule="evenodd" fill="rgb(0%, 0%, 100%)" fill-opacity="1" d="M 27.742188 95.269531 L 29.726562 95.269531 L 29.726562 93.289062 L 27.742188 93.289062 Z M 27.742188 95.269531 "/>
<path fill-rule="evenodd" fill="rgb(100%, 64.698792%, 0%)" fill-opacity="1" d="M 27.542969 95.46875 L 29.925781 95.46875 L 29.925781 93.089844 L 27.542969 93.089844 Z M 27.941406 95.074219 L 29.527344 95.074219 L 29.527344 93.484375 L 27.941406 93.484375 Z M 27.941406 95.074219 "/>
<path fill-rule="evenodd" fill="rgb(0%, 0%, 100%)" fill-opacity="1" d="M 23.507812 92.941406 L 25.492188 92.941406 L 25.492188 90.957031 L 23.507812 90.957031 Z M 23.507812 92.941406 "/>
<path fill-rule="evenodd" fill="rgb(100%, 64.698792%, 0%)" fill-opacity="1" d="M 23.3125 93.140625 L 25.691406 93.140625 L 25.691406 90.757812 L 23.3125 90.757812 Z M 23.707031 92.742188 L 25.292969 92.742188 L 25.292969 91.15625 L 23.707031 91.15625 Z M 23.707031 92.742188 "/>
<path fill-rule="evenodd" fill="rgb(0%, 0%, 100%)" fill-opacity="1" d="M 19.429688 90.382812 L 21.414062 90.382812 L 21.414062 88.398438 L 19.429688 88.398438 Z M 19.429688 90.382812 "/>
<path fill-rule="evenodd" fill="rgb(100%, 64.698792%, 0%)" fill-opacity="1" d="M 19.230469 90.582031 L 21.613281 90.582031 L 21.613281 88.199219 L 19.230469 88.199219 Z M 19.628906 90.183594 L 21.214844 90.183594 L 21.214844 88.597656 L 19.628906 88.597656 Z M 19.628906 90.183594 "/>
<path fill="none" stroke-width="1.2" stroke-linecap="butt" stroke-linejoin="round" stroke="rgb(0%, 0%, 0%)" stroke-opacity="1" stroke-miterlimit="10" d="M 158.433526 179.511476 C 164.200179 185.156021 171.298204 189.25255 179.065854 191.426862 " transform="matrix(0.991693, 0, 0, -0.991693, -142.109617, 194.746849)"/>
<path fill-rule="evenodd" fill="rgb(0%, 100%, 0%)" fill-opacity="1" d="M 18.480469 16.726562 C 18.480469 14.808594 16.925781 13.253906 15.007812 13.253906 C 13.09375 13.253906 11.539062 14.808594 11.539062 16.726562 C 11.539062 18.640625 13.09375 20.195312 15.007812 20.195312 C 16.925781 20.195312 18.480469 18.640625 18.480469 16.726562 "/>
<path fill-rule="evenodd" fill="rgb(0%, 0%, 0%)" fill-opacity="1" d="M 19.175781 16.726562 C 19.175781 14.425781 17.308594 12.558594 15.007812 12.558594 C 12.710938 12.558594 10.84375 14.425781 10.84375 16.726562 C 10.84375 19.023438 12.710938 20.890625 15.007812 20.890625 C 17.308594 20.890625 19.175781 19.023438 19.175781 16.726562 M 17.785156 16.726562 C 17.785156 15.191406 16.542969 13.949219 15.007812 13.949219 C 13.476562 13.949219 12.234375 15.191406 12.234375 16.726562 C 12.234375 18.257812 13.476562 19.5 15.007812 19.5 C 16.542969 19.5 17.785156 18.257812 17.785156 16.726562 "/>
<path fill-rule="evenodd" fill="rgb(0%, 100%, 0%)" fill-opacity="1" d="M 38.941406 4.910156 C 38.941406 2.996094 37.386719 1.441406 35.46875 1.441406 C 33.554688 1.441406 32 2.996094 32 4.910156 C 32 6.828125 33.554688 8.382812 35.46875 8.382812 C 37.386719 8.382812 38.941406 6.828125 38.941406 4.910156 "/>
<g clip-path="url(#clip-0)">
<path fill-rule="evenodd" fill="rgb(0%, 0%, 0%)" fill-opacity="1" d="M 39.636719 4.910156 C 39.636719 2.613281 37.769531 0.746094 35.46875 0.746094 C 33.167969 0.746094 31.304688 2.613281 31.304688 4.910156 C 31.304688 7.210938 33.167969 9.078125 35.46875 9.078125 C 37.769531 9.078125 39.636719 7.210938 39.636719 4.910156 M 38.246094 4.910156 C 38.246094 3.378906 37.003906 2.136719 35.46875 2.136719 C 33.9375 2.136719 32.691406 3.378906 32.691406 4.910156 C 32.691406 6.445312 33.9375 7.6875 35.46875 7.6875 C 37.003906 7.6875 38.246094 6.445312 38.246094 4.910156 "/>
</g>
<path fill-rule="evenodd" fill="rgb(0%, 0%, 0%)" fill-opacity="1" d="M 19.378906 13.640625 L 21.363281 13.640625 L 21.363281 11.65625 L 19.378906 11.65625 Z M 19.378906 13.640625 "/>
<path fill-rule="evenodd" fill="rgb(100%, 64.698792%, 0%)" fill-opacity="1" d="M 19.179688 13.839844 L 21.5625 13.839844 L 21.5625 11.457031 L 19.179688 11.457031 Z M 19.578125 13.441406 L 21.164062 13.441406 L 21.164062 11.855469 L 19.578125 11.855469 Z M 19.578125 13.441406 "/>
<path fill-rule="evenodd" fill="rgb(0%, 0%, 0%)" fill-opacity="1" d="M 27.933594 8.457031 L 29.914062 8.457031 L 29.914062 6.476562 L 27.933594 6.476562 Z M 27.933594 8.457031 "/>
<path fill-rule="evenodd" fill="rgb(100%, 64.698792%, 0%)" fill-opacity="1" d="M 27.734375 8.65625 L 30.113281 8.65625 L 30.113281 6.277344 L 27.734375 6.277344 Z M 28.128906 8.261719 L 29.71875 8.261719 L 29.71875 6.671875 L 28.128906 6.671875 Z M 28.128906 8.261719 "/>
<path fill-rule="evenodd" fill="rgb(0%, 0%, 0%)" fill-opacity="1" d="M 23.441406 10.535156 L 25.425781 10.535156 L 25.425781 8.550781 L 23.441406 8.550781 Z M 23.441406 10.535156 "/>
<path fill-rule="evenodd" fill="rgb(100%, 64.698792%, 0%)" fill-opacity="1" d="M 23.242188 10.734375 L 25.621094 10.734375 L 25.621094 8.355469 L 23.242188 8.355469 Z M 23.640625 10.335938 L 25.226562 10.335938 L 25.226562 8.75 L 23.640625 8.75 Z M 23.640625 10.335938 "/>
<path fill="none" stroke-width="1.2" stroke-linecap="butt" stroke-linejoin="round" stroke="rgb(100%, 0%, 0%)" stroke-opacity="1" stroke-miterlimit="10" d="M 238.642787 156.306999 C 240.580761 148.57086 240.561066 140.468398 238.583703 132.740137 " transform="matrix(0.991693, 0, 0, -0.991693, -142.109617, 194.746849)"/>
<path fill-rule="evenodd" fill="rgb(100%, 0%, 0%)" fill-opacity="1" d="M 97.882812 62.554688 C 97.882812 60.640625 96.328125 59.085938 94.410156 59.085938 C 92.492188 59.085938 90.9375 60.640625 90.9375 62.554688 C 90.9375 64.472656 92.492188 66.027344 94.410156 66.027344 C 96.328125 66.027344 97.882812 64.472656 97.882812 62.554688 "/>
<path fill-rule="evenodd" fill="rgb(0%, 0%, 0%)" fill-opacity="1" d="M 98.574219 62.554688 C 98.574219 60.257812 96.710938 58.390625 94.410156 58.390625 C 92.109375 58.390625 90.246094 60.257812 90.246094 62.554688 C 90.246094 64.855469 92.109375 66.722656 94.410156 66.722656 C 96.710938 66.722656 98.574219 64.855469 98.574219 62.554688 M 97.1875 62.554688 C 97.1875 61.023438 95.941406 59.78125 94.410156 59.78125 C 92.875 59.78125 91.632812 61.023438 91.632812 62.554688 C 91.632812 64.089844 92.875 65.332031 94.410156 65.332031 C 95.941406 65.332031 97.1875 64.089844 97.1875 62.554688 "/>
<path fill-rule="evenodd" fill="rgb(100%, 0%, 0%)" fill-opacity="1" d="M 95.128906 57.335938 L 97.113281 57.335938 L 97.113281 55.351562 L 95.128906 55.351562 Z M 95.128906 57.335938 "/>
<path fill-rule="evenodd" fill="rgb(100%, 64.698792%, 0%)" fill-opacity="1" d="M 94.933594 57.535156 L 97.3125 57.535156 L 97.3125 55.152344 L 94.933594 55.152344 Z M 95.328125 57.136719 L 96.914062 57.136719 L 96.914062 55.550781 L 95.328125 55.550781 Z M 95.328125 57.136719 "/>
<path fill-rule="evenodd" fill="rgb(100%, 0%, 0%)" fill-opacity="1" d="M 97.941406 39.1875 C 97.941406 37.269531 96.386719 35.714844 94.46875 35.714844 C 92.554688 35.714844 91 37.269531 91 39.1875 C 91 41.105469 92.554688 42.65625 94.46875 42.65625 C 96.386719 42.65625 97.941406 41.105469 97.941406 39.1875 "/>
<path fill-rule="evenodd" fill="rgb(0%, 0%, 0%)" fill-opacity="1" d="M 98.636719 39.1875 C 98.636719 36.886719 96.769531 35.023438 94.46875 35.023438 C 92.171875 35.023438 90.304688 36.886719 90.304688 39.1875 C 90.304688 41.488281 92.171875 43.351562 94.46875 43.351562 C 96.769531 43.351562 98.636719 41.488281 98.636719 39.1875 M 97.246094 39.1875 C 97.246094 37.652344 96.003906 36.410156 94.46875 36.410156 C 92.9375 36.410156 91.691406 37.652344 91.691406 39.1875 C 91.691406 40.71875 92.9375 41.964844 94.46875 41.964844 C 96.003906 41.964844 97.246094 40.71875 97.246094 39.1875 "/>
<path fill-rule="evenodd" fill="rgb(100%, 0%, 0%)" fill-opacity="1" d="M 95.296875 51.457031 L 97.28125 51.457031 L 97.28125 49.476562 L 95.296875 49.476562 Z M 95.296875 51.457031 "/>
<path fill-rule="evenodd" fill="rgb(100%, 64.698792%, 0%)" fill-opacity="1" d="M 95.097656 51.65625 L 97.476562 51.65625 L 97.476562 49.277344 L 95.097656 49.277344 Z M 95.496094 51.261719 L 97.082031 51.261719 L 97.082031 49.671875 L 95.496094 49.671875 Z M 95.496094 51.261719 "/>
<path fill-rule="evenodd" fill="rgb(100%, 0%, 0%)" fill-opacity="1" d="M 94.515625 45.5 L 96.5 45.5 L 96.5 43.515625 L 94.515625 43.515625 Z M 94.515625 45.5 "/>
<path fill-rule="evenodd" fill="rgb(100%, 64.698792%, 0%)" fill-opacity="1" d="M 94.320312 45.699219 L 96.699219 45.699219 L 96.699219 43.316406 L 94.320312 43.316406 Z M 94.714844 45.300781 L 96.300781 45.300781 L 96.300781 43.714844 L 94.714844 43.714844 Z M 94.714844 45.300781 "/>
</svg>
