<?xml version="1.0" encoding="UTF-8"?>
<svg xmlns="http://www.w3.org/2000/svg" xmlns:xlink="http://www.w3.org/1999/xlink" width="109.4" height="108.5539" viewBox="0 0 109.4 108.5539">
<defs>
<clipPath id="clip-0">
<path clip-rule="nonzero" d="M 84 41 L 108.804688 41 L 108.804688 67 L 84 67 Z M 84 41 "/>
</clipPath>
<clipPath id="clip-1">
<path clip-rule="nonzero" d="M 12 0.0742188 L 37 0.0742188 L 37 25 L 12 25 Z M 12 0.0742188 "/>
</clipPath>
</defs>
<path fill="none" stroke-width="0.4" stroke-linecap="butt" stroke-linejoin="round" stroke="rgb(0%, 0%, 100%)" stroke-opacity="1" stroke-miterlimit="10" d="M 239.999326 145.200481 C 239.999326 171.708351 218.511023 193.200581 191.999226 193.200581 C 165.491356 193.200581 143.999126 171.708351 143.999126 145.200481 C 143.999126 118.688684 165.491356 97.200382 191.999226 97.200382 C 218.511023 97.200382 239.999326 118.688684 239.999326 145.200481 " transform="matrix(0.994545, 0, 0, -0.994545, -142.518364, 198.463166)"/>
<path fill="none" stroke-width="0.4" stroke-linecap="butt" stroke-linejoin="round" stroke="rgb(0%, 0%, 100%)" stroke-opacity="1" stroke-miterlimit="10" d="M 239.999326 145.200481 C 239.999326 171.708351 218.511023 193.200581 191.999226 193.200581 C 165.491356 193.200581 143.999126 171.708351 143.999126 145.200481 C 143.999126 118.688684 165.491356 97.200382 191.999226 97.200382 C 218.511023 97.200382 239.999326 118.688684 239.999326 145.200481 " transform="matrix(0.994545, 0, 0, -0.994545, -142.518364, 198.463166)"/>
<path fill="none" stroke-width="0.4" stroke-linecap="butt" stroke-linejoin="round" stroke="rgb(0%, 0%, 100%)" stroke-opacity="1" stroke-miterlimit="10" d="M 239.999326 145.200481 L 168.00114 186.767052 L 168.00114 103.629983 Z M 239.999326 145.200481 " transform="matrix(0.994545, 0, 0, -0.994545, -142.518364, 198.463166)"/>
<g clip-path="url(#clip-0)">
<path fill="none" stroke-width="0.4" stroke-linecap="butt" stroke-linejoin="round" stroke="rgb(0%, 0%, 100%)" stroke-opacity="1" stroke-miterlimit="10" d="M 251.998369 145.200481 C 251.998369 151.826467 246.625311 157.199525 239.999326 157.199525 C 233.37334 157.199525 228.000283 151.826467 228.000283 145.200481 C 228.000283 138.574496 233.37334 133.201438 239.999326 133.201438 C 246.625311 133.201438 251.998369 138.574496 251.998369 145.200481 " transform="matrix(0.994545, 0, 0, -0.994545, -142.518364, 198.463166)"/>
</g>
<g clip-path="url(#clip-1)">
<path fill="none" stroke-width="0.4" stroke-linecap="butt" stroke-linejoin="round" stroke="rgb(0%, 0%, 100%)" stroke-opacity="1" stroke-miterlimit="10" d="M 180.008038 186.767052 C 180.008038 193.400893 174.631053 198.777878 168.00114 198.777878 C 161.367299 198.777878 155.990314 193.400893 155.990314 186.767052 C 155.990314 180.137139 161.367299 174.760154 168.00114 174.760154 C 174.631053 174.760154 180.008038 180.137139 180.008038 186.767052 " transform="matrix(0.994545, 0, 0, -0.994545, -142.518364, 198.463166)"/>
</g>
<path fill="none" stroke-width="0.4" stroke-linecap="butt" stroke-linejoin="round" stroke="rgb(0%, 0%, 100%)" stroke-opacity="1" stroke-miterlimit="10" d="M 180.008038 103.629983 C 180.008038 110.263824 174.631053 115.640809 168.00114 115.640809 C 161.367299 115.640809 155.990314 110.263824 155.990314 103.629983 C 155.990314 97.00007 161.367299 91.623085 168.00114 91.623085 C 174.631053 91.623085 180.008038 97.00007 180.008038 103.629983 " transform="matrix(0.994545, 0, 0, -0.994545, -142.518364, 198.463166)"/>
<path fill-rule="evenodd" fill="rgb(0%, 0%, 100%)" fill-opacity="1" d="M 50.222656 54.054688 C 50.222656 53.066406 49.421875 52.265625 48.433594 52.265625 C 47.445312 52.265625 46.644531 53.066406 46.644531 54.054688 C 46.644531 55.042969 47.445312 55.84375 48.433594 55.84375 C 49.421875 55.84375 50.222656 55.042969 50.222656 54.054688 "/>
<path fill="none" stroke-width="1.2" stroke-linecap="butt" stroke-linejoin="round" stroke="rgb(0%, 0%, 100%)" stroke-opacity="1" stroke-miterlimit="10" d="M 179.065396 98.97569 C 171.296458 101.147694 164.203079 105.244257 158.433327 110.884397 " transform="matrix(0.994545, 0, 0, -0.994545, -142.518364, 198.463166)"/>
<path fill-rule="evenodd" fill="rgb(0%, 0%, 100%)" fill-opacity="1" d="M 18.535156 88.183594 C 18.535156 86.257812 16.976562 84.699219 15.050781 84.699219 C 13.128906 84.699219 11.570312 86.257812 11.570312 88.183594 C 11.570312 90.105469 13.128906 91.664062 15.050781 91.664062 C 16.976562 91.664062 18.535156 90.105469 18.535156 88.183594 "/>
<path fill-rule="evenodd" fill="rgb(0%, 0%, 0%)" fill-opacity="1" d="M 19.230469 88.183594 C 19.230469 85.875 17.359375 84.003906 15.050781 84.003906 C 12.746094 84.003906 10.875 85.875 10.875 88.183594 C 10.875 90.488281 12.746094 92.359375 15.050781 92.359375 C 17.359375 92.359375 19.230469 90.488281 19.230469 88.183594 M 17.835938 88.183594 C 17.835938 86.644531 16.589844 85.398438 15.050781 85.398438 C 13.515625 85.398438 12.269531 86.644531 12.269531 88.183594 C 12.269531 89.71875 13.515625 90.964844 15.050781 90.964844 C 16.589844 90.964844 17.835938 89.71875 17.835938 88.183594 "/>
<path fill="none" stroke-width="0.4" stroke-linecap="butt" stroke-linejoin="round" stroke="rgb(0%, 0%, 100%)" stroke-opacity="1" stroke-miterlimit="10" d="M 172.203751 103.629983 C 172.203751 105.951238 170.322395 107.832594 168.00114 107.832594 C 165.679885 107.832594 163.798529 105.951238 163.798529 103.629983 C 163.798529 101.308728 165.679885 99.427372 168.00114 99.427372 C 170.322395 99.427372 172.203751 101.308728 172.203751 103.629983 " transform="matrix(0.994545, 0, 0, -0.994545, -142.518364, 198.463166)"/>
<path fill="none" stroke-width="0.4" stroke-linecap="butt" stroke-linejoin="round" stroke="rgb(0%, 0%, 100%)" stroke-opacity="1" stroke-miterlimit="10" d="M 244.201937 145.200481 C 244.201937 147.521737 242.320581 149.399165 239.999326 149.399165 C 237.678071 149.399165 235.800643 147.521737 235.800643 145.200481 C 235.800643 142.879226 237.678071 141.001798 239.999326 141.001798 C 242.320581 141.001798 244.201937 142.879226 244.201937 145.200481 " transform="matrix(0.994545, 0, 0, -0.994545, -142.518364, 198.463166)"/>
<path fill="none" stroke-width="0.4" stroke-linecap="butt" stroke-linejoin="round" stroke="rgb(0%, 0%, 100%)" stroke-opacity="1" stroke-miterlimit="10" d="M 172.203751 186.767052 C 172.203751 189.088307 170.322395 190.97359 168.00114 190.97359 C 165.679885 190.97359 163.798529 189.088307 163.798529 186.767052 C 163.798529 184.449725 165.679885 182.568369 168.00114 182.568369 C 170.322395 182.568369 172.203751 184.449725 172.203751 186.767052 " transform="matrix(0.994545, 0, 0, -0.994545, -142.518364, 198.463166)"/>
<path fill-rule="evenodd" fill="rgb(0%, 0%, 100%)" fill-opacity="1" d="M 39.054688 100.027344 C 39.054688 98.105469 37.496094 96.546875 35.570312 96.546875 C 33.648438 96.546875 32.089844 98.105469 32.089844 100.027344 C 32.089844 101.949219 33.648438 103.507812 35.570312 103.507812 C 37.496094 103.507812 39.054688 101.949219 39.054688 100.027344 "/>
<path fill-rule="evenodd" fill="rgb(0%, 0%, 0%)" fill-opacity="1" d="M 39.75 100.027344 C 39.75 97.71875 37.878906 95.851562 35.570312 95.851562 C 33.265625 95.851562 31.394531 97.71875 31.394531 100.027344 C 31.394531 102.335938 33.265625 104.203125 35.570312 104.203125 C 37.878906 104.203125 39.75 102.335938 39.75 100.027344 M 38.355469 100.027344 C 38.355469 98.488281 37.109375 97.242188 35.570312 97.242188 C 34.035156 97.242188 32.789062 98.488281 32.789062 100.027344 C 32.789062 101.566406 34.035156 102.8125 35.570312 102.8125 C 37.109375 102.8125 38.355469 101.566406 38.355469 100.027344 "/>
<path fill-rule="evenodd" fill="rgb(0%, 0%, 100%)" fill-opacity="1" d="M 27.824219 98.703125 L 29.8125 98.703125 L 29.8125 96.710938 L 27.824219 96.710938 Z M 27.824219 98.703125 "/>
<path fill-rule="evenodd" fill="rgb(100%, 64.698792%, 0%)" fill-opacity="1" d="M 27.625 98.898438 L 30.011719 98.898438 L 30.011719 96.511719 L 27.625 96.511719 Z M 28.019531 98.503906 L 29.613281 98.503906 L 29.613281 96.910156 L 28.019531 96.910156 Z M 28.019531 98.503906 "/>
<path fill-rule="evenodd" fill="rgb(0%, 0%, 100%)" fill-opacity="1" d="M 23.578125 96.363281 L 25.566406 96.363281 L 25.566406 94.375 L 23.578125 94.375 Z M 23.578125 96.363281 "/>
<path fill-rule="evenodd" fill="rgb(100%, 64.698792%, 0%)" fill-opacity="1" d="M 23.378906 96.5625 L 25.765625 96.5625 L 25.765625 94.175781 L 23.378906 94.175781 Z M 23.777344 96.164062 L 25.367188 96.164062 L 25.367188 94.574219 L 23.777344 94.574219 Z M 23.777344 96.164062 "/>
<path fill-rule="evenodd" fill="rgb(0%, 0%, 100%)" fill-opacity="1" d="M 19.484375 93.796875 L 21.476562 93.796875 L 21.476562 91.808594 L 19.484375 91.808594 Z M 19.484375 93.796875 "/>
<path fill-rule="evenodd" fill="rgb(100%, 64.698792%, 0%)" fill-opacity="1" d="M 19.289062 93.996094 L 21.675781 93.996094 L 21.675781 91.609375 L 19.289062 91.609375 Z M 19.683594 93.597656 L 21.277344 93.597656 L 21.277344 92.007812 L 19.683594 92.007812 Z M 19.683594 93.597656 "/>
<path fill="none" stroke-width="1.2" stroke-linecap="butt" stroke-linejoin="round" stroke="rgb(0%, 0%, 0%)" stroke-opacity="1" stroke-miterlimit="10" d="M 158.433327 179.512639 C 164.203079 185.156706 171.296458 189.249342 179.065396 191.425273 " transform="matrix(0.994545, 0, 0, -0.994545, -142.518364, 198.463166)"/>
<path fill-rule="evenodd" fill="rgb(0%, 100%, 0%)" fill-opacity="1" d="M 18.535156 19.929688 C 18.535156 18.007812 16.976562 16.449219 15.050781 16.449219 C 13.128906 16.449219 11.570312 18.007812 11.570312 19.929688 C 11.570312 21.851562 13.128906 23.410156 15.050781 23.410156 C 16.976562 23.410156 18.535156 21.851562 18.535156 19.929688 "/>
<path fill-rule="evenodd" fill="rgb(0%, 0%, 0%)" fill-opacity="1" d="M 19.230469 19.929688 C 19.230469 17.621094 17.359375 15.753906 15.050781 15.753906 C 12.746094 15.753906 10.875 17.621094 10.875 19.929688 C 10.875 22.234375 12.746094 24.105469 15.050781 24.105469 C 17.359375 24.105469 19.230469 22.234375 19.230469 19.929688 M 17.835938 19.929688 C 17.835938 18.390625 16.589844 17.144531 15.050781 17.144531 C 13.515625 17.144531 12.269531 18.390625 12.269531 19.929688 C 12.269531 21.46875 13.515625 22.714844 15.050781 22.714844 C 16.589844 22.714844 17.835938 21.46875 17.835938 19.929688 "/>
<path fill-rule="evenodd" fill="rgb(0%, 100%, 0%)" fill-opacity="1" d="M 39.054688 8.082031 C 39.054688 6.160156 37.496094 4.601562 35.570312 4.601562 C 33.648438 4.601562 32.089844 6.160156 32.089844 8.082031 C 32.089844 10.003906 33.648438 11.5625 35.570312 11.5625 C 37.496094 11.5625 39.054688 10.003906 39.054688 8.082031 "/>
<path fill-rule="evenodd" fill="rgb(0%, 0%, 0%)" fill-opacity="1" d="M 39.75 8.082031 C 39.75 5.777344 37.878906 3.90625 35.570312 3.90625 C 33.265625 3.90625 31.394531 5.777344 31.394531 8.082031 C 31.394531 10.390625 33.265625 12.257812 35.570312 12.257812 C 37.878906 12.257812 39.75 10.390625 39.75 8.082031 M 38.355469 8.082031 C 38.355469 6.542969 37.109375 5.296875 35.570312 5.296875 C 34.035156 5.296875 32.789062 6.542969 32.789062 8.082031 C 32.789062 9.621094 34.035156 10.867188 35.570312 10.867188 C 37.109375 10.867188 38.355469 9.621094 38.355469 8.082031 "/>
<path fill-rule="evenodd" fill="rgb(0%, 0%, 0%)" fill-opacity="1" d="M 19.433594 16.835938 L 21.425781 16.835938 L 21.425781 14.847656 L 19.433594 14.847656 Z M 19.433594 16.835938 "/>
<path fill-rule="evenodd" fill="rgb(100%, 64.698792%, 0%)" fill-opacity="1" d="M 19.238281 17.035156 L 21.625 17.035156 L 21.625 14.648438 L 19.238281 14.648438 Z M 19.632812 16.636719 L 21.226562 16.636719 L 21.226562 15.046875 L 19.632812 15.046875 Z M 19.632812 16.636719 "/>
<path fill-rule="evenodd" fill="rgb(0%, 0%, 0%)" fill-opacity="1" d="M 28.011719 11.640625 L 30 11.640625 L 30 9.648438 L 28.011719 9.648438 Z M 28.011719 11.640625 "/>
<path fill-rule="evenodd" fill="rgb(100%, 64.698792%, 0%)" fill-opacity="1" d="M 27.8125 11.835938 L 30.199219 11.835938 L 30.199219 9.449219 L 27.8125 9.449219 Z M 28.210938 11.441406 L 29.800781 11.441406 L 29.800781 9.847656 L 28.210938 9.847656 Z M 28.210938 11.441406 "/>
<path fill-rule="evenodd" fill="rgb(0%, 0%, 0%)" fill-opacity="1" d="M 23.507812 13.722656 L 25.496094 13.722656 L 25.496094 11.730469 L 23.507812 11.730469 Z M 23.507812 13.722656 "/>
<path fill-rule="evenodd" fill="rgb(100%, 64.698792%, 0%)" fill-opacity="1" d="M 23.308594 13.921875 L 25.695312 13.921875 L 25.695312 11.535156 L 23.308594 11.535156 Z M 23.707031 13.523438 L 25.296875 13.523438 L 25.296875 11.929688 L 23.707031 11.929688 Z M 23.707031 13.523438 "/>
<path fill="none" stroke-width="1.2" stroke-linecap="butt" stroke-linejoin="round" stroke="rgb(100%, 0%, 0%)" stroke-opacity="1" stroke-miterlimit="10" d="M 238.644278 156.307943 C 240.580622 148.570426 240.560983 140.471562 238.581436 132.741901 " transform="matrix(0.994545, 0, 0, -0.994545, -142.518364, 198.463166)"/>
<path fill-rule="evenodd" fill="rgb(100%, 0%, 0%)" fill-opacity="1" d="M 98.164062 65.890625 C 98.164062 63.96875 96.605469 62.410156 94.683594 62.410156 C 92.757812 62.410156 91.199219 63.96875 91.199219 65.890625 C 91.199219 67.816406 92.757812 69.375 94.683594 69.375 C 96.605469 69.375 98.164062 67.816406 98.164062 65.890625 "/>
<path fill-rule="evenodd" fill="rgb(0%, 0%, 0%)" fill-opacity="1" d="M 98.859375 65.890625 C 98.859375 63.585938 96.988281 61.714844 94.683594 61.714844 C 92.375 61.714844 90.503906 63.585938 90.503906 65.890625 C 90.503906 68.199219 92.375 70.070312 94.683594 70.070312 C 96.988281 70.070312 98.859375 68.199219 98.859375 65.890625 M 97.464844 65.890625 C 97.464844 64.355469 96.21875 63.109375 94.683594 63.109375 C 93.144531 63.109375 91.898438 64.355469 91.898438 65.890625 C 91.898438 67.429688 93.144531 68.675781 94.683594 68.675781 C 96.21875 68.675781 97.464844 67.429688 97.464844 65.890625 "/>
<path fill-rule="evenodd" fill="rgb(100%, 0%, 0%)" fill-opacity="1" d="M 95.402344 60.65625 L 97.394531 60.65625 L 97.394531 58.667969 L 95.402344 58.667969 Z M 95.402344 60.65625 "/>
<path fill-rule="evenodd" fill="rgb(100%, 64.698792%, 0%)" fill-opacity="1" d="M 95.203125 60.855469 L 97.589844 60.855469 L 97.589844 58.46875 L 95.203125 58.46875 Z M 95.601562 60.457031 L 97.195312 60.457031 L 97.195312 58.867188 L 95.601562 58.867188 Z M 95.601562 60.457031 "/>
<path fill-rule="evenodd" fill="rgb(100%, 0%, 0%)" fill-opacity="1" d="M 98.222656 42.457031 C 98.222656 40.535156 96.664062 38.976562 94.742188 38.976562 C 92.820312 38.976562 91.261719 40.535156 91.261719 42.457031 C 91.261719 44.378906 92.820312 45.9375 94.742188 45.9375 C 96.664062 45.9375 98.222656 44.378906 98.222656 42.457031 "/>
<path fill-rule="evenodd" fill="rgb(0%, 0%, 0%)" fill-opacity="1" d="M 98.917969 42.457031 C 98.917969 40.148438 97.046875 38.277344 94.742188 38.277344 C 92.433594 38.277344 90.566406 40.148438 90.566406 42.457031 C 90.566406 44.761719 92.433594 46.632812 94.742188 46.632812 C 97.046875 46.632812 98.917969 44.761719 98.917969 42.457031 M 97.527344 42.457031 C 97.527344 40.917969 96.28125 39.671875 94.742188 39.671875 C 93.203125 39.671875 91.957031 40.917969 91.957031 42.457031 C 91.957031 43.992188 93.203125 45.242188 94.742188 45.242188 C 96.28125 45.242188 97.527344 43.992188 97.527344 42.457031 "/>
<path fill-rule="evenodd" fill="rgb(100%, 0%, 0%)" fill-opacity="1" d="M 95.570312 54.761719 L 97.558594 54.761719 L 97.558594 52.773438 L 95.570312 52.773438 Z M 95.570312 54.761719 "/>
<path fill-rule="evenodd" fill="rgb(100%, 64.698792%, 0%)" fill-opacity="1" d="M 95.371094 54.960938 L 97.757812 54.960938 L 97.757812 52.574219 L 95.371094 52.574219 Z M 95.769531 54.5625 L 97.359375 54.5625 L 97.359375 52.972656 L 95.769531 52.972656 Z M 95.769531 54.5625 "/>
<path fill-rule="evenodd" fill="rgb(100%, 0%, 0%)" fill-opacity="1" d="M 94.789062 48.785156 L 96.777344 48.785156 L 96.777344 46.796875 L 94.789062 46.796875 Z M 94.789062 48.785156 "/>
<path fill-rule="evenodd" fill="rgb(100%, 64.698792%, 0%)" fill-opacity="1" d="M 94.589844 48.984375 L 96.976562 48.984375 L 96.976562 46.597656 L 94.589844 46.597656 Z M 94.988281 48.585938 L 96.578125 48.585938 L 96.578125 46.996094 L 94.988281 46.996094 Z M 94.988281 48.585938 "/>
</svg>
