<?xml version="1.0" encoding="UTF-8"?>
<svg xmlns="http://www.w3.org/2000/svg" xmlns:xlink="http://www.w3.org/1999/xlink" width="79.353" height="90.3397" viewBox="0 0 79.353 90.3397">
<defs>
<clipPath id="clip-0">
<path clip-rule="nonzero" d="M 8 87 L 11 87 L 11 89.648438 L 8 89.648438 Z M 8 87 "/>
</clipPath>
<clipPath id="clip-1">
<path clip-rule="nonzero" d="M 8 0.0390625 L 11 0.0390625 L 11 3 L 8 3 Z M 8 0.0390625 "/>
</clipPath>
<clipPath id="clip-2">
<path clip-rule="nonzero" d="M 8 0.0390625 L 12 0.0390625 L 12 3 L 8 3 Z M 8 0.0390625 "/>
</clipPath>
<clipPath id="clip-3">
<path clip-rule="nonzero" d="M 76 49 L 78.710938 49 L 78.710938 52 L 76 52 Z M 76 49 "/>
</clipPath>
<clipPath id="clip-4">
<path clip-rule="nonzero" d="M 75 49 L 78.710938 49 L 78.710938 52 L 75 52 Z M 75 49 "/>
</clipPath>
<clipPath id="clip-5">
<path clip-rule="nonzero" d="M 76 43 L 78.710938 43 L 78.710938 46 L 76 46 Z M 76 43 "/>
</clipPath>
</defs>
<g clip-path="url(#clip-0)">
<path fill-rule="evenodd" fill="rgb(0%, 0%, 100%)" fill-opacity="1" d="M 8.761719 89.25 L 10.746094 89.25 L 10.746094 87.265625 L 8.761719 87.265625 Z M 8.761719 89.25 "/>
<path fill-rule="evenodd" fill="rgb(100%, 64.698792%, 0%)" fill-opacity="1" d="M 8.5625 89.449219 L 10.945312 89.449219 L 10.945312 87.066406 L 8.5625 87.066406 Z M 8.960938 89.050781 L 10.546875 89.050781 L 10.546875 87.464844 L 8.960938 87.464844 Z M 8.960938 89.050781 "/>
</g>
<path fill-rule="evenodd" fill="rgb(0%, 0%, 100%)" fill-opacity="1" d="M 4.527344 86.917969 L 6.511719 86.917969 L 6.511719 84.9375 L 4.527344 84.9375 Z M 4.527344 86.917969 "/>
<path fill-rule="evenodd" fill="rgb(100%, 64.698792%, 0%)" fill-opacity="1" d="M 4.328125 87.117188 L 6.710938 87.117188 L 6.710938 84.738281 L 4.328125 84.738281 Z M 4.726562 86.722656 L 6.3125 86.722656 L 6.3125 85.132812 L 4.726562 85.132812 Z M 4.726562 86.722656 "/>
<path fill-rule="evenodd" fill="rgb(0%, 0%, 100%)" fill-opacity="1" d="M 0.449219 84.359375 L 2.429688 84.359375 L 2.429688 82.375 L 0.449219 82.375 Z M 0.449219 84.359375 "/>
<path fill-rule="evenodd" fill="rgb(100%, 64.698792%, 0%)" fill-opacity="1" d="M 0.25 84.558594 L 2.628906 84.558594 L 2.628906 82.179688 L 0.25 82.179688 Z M 0.644531 84.160156 L 2.234375 84.160156 L 2.234375 82.574219 L 0.644531 82.574219 Z M 0.644531 84.160156 "/>
<path fill-rule="evenodd" fill="rgb(0%, 0%, 0%)" fill-opacity="1" d="M 0.398438 7.601562 L 2.378906 7.601562 L 2.378906 5.617188 L 0.398438 5.617188 Z M 0.398438 7.601562 "/>
<path fill-rule="evenodd" fill="rgb(100%, 64.698792%, 0%)" fill-opacity="1" d="M 0.199219 7.800781 L 2.578125 7.800781 L 2.578125 5.417969 L 0.199219 5.417969 Z M 0.59375 7.402344 L 2.183594 7.402344 L 2.183594 5.816406 L 0.59375 5.816406 Z M 0.59375 7.402344 "/>
<g clip-path="url(#clip-1)">
<path fill-rule="evenodd" fill="rgb(0%, 0%, 0%)" fill-opacity="1" d="M 8.949219 2.417969 L 10.933594 2.417969 L 10.933594 0.433594 L 8.949219 0.433594 Z M 8.949219 2.417969 "/>
</g>
<g clip-path="url(#clip-2)">
<path fill-rule="evenodd" fill="rgb(100%, 64.698792%, 0%)" fill-opacity="1" d="M 8.753906 2.617188 L 11.132812 2.617188 L 11.132812 0.234375 L 8.753906 0.234375 Z M 9.148438 2.21875 L 10.738281 2.21875 L 10.738281 0.632812 L 9.148438 0.632812 Z M 9.148438 2.21875 "/>
</g>
<path fill-rule="evenodd" fill="rgb(0%, 0%, 0%)" fill-opacity="1" d="M 4.457031 4.496094 L 6.441406 4.496094 L 6.441406 2.511719 L 4.457031 2.511719 Z M 4.457031 4.496094 "/>
<path fill-rule="evenodd" fill="rgb(100%, 64.698792%, 0%)" fill-opacity="1" d="M 4.261719 4.695312 L 6.640625 4.695312 L 6.640625 2.3125 L 4.261719 2.3125 Z M 4.65625 4.296875 L 6.242188 4.296875 L 6.242188 2.710938 L 4.65625 2.710938 Z M 4.65625 4.296875 "/>
<g clip-path="url(#clip-3)">
<path fill-rule="evenodd" fill="rgb(100%, 0%, 0%)" fill-opacity="1" d="M 76.164062 51.304688 L 78.148438 51.304688 L 78.148438 49.320312 L 76.164062 49.320312 Z M 76.164062 51.304688 "/>
</g>
<g clip-path="url(#clip-4)">
<path fill-rule="evenodd" fill="rgb(100%, 64.698792%, 0%)" fill-opacity="1" d="M 75.964844 51.503906 L 78.347656 51.503906 L 78.347656 49.125 L 75.964844 49.125 Z M 76.363281 51.109375 L 77.949219 51.109375 L 77.949219 49.519531 L 76.363281 49.519531 Z M 76.363281 51.109375 "/>
</g>
<g clip-path="url(#clip-5)">
<path fill-rule="evenodd" fill="rgb(100%, 0%, 0%)" fill-opacity="1" d="M 76.332031 45.429688 L 78.316406 45.429688 L 78.316406 43.445312 L 76.332031 43.445312 Z M 76.332031 45.429688 "/>
<path fill-rule="evenodd" fill="rgb(100%, 64.698792%, 0%)" fill-opacity="1" d="M 76.132812 45.625 L 78.511719 45.625 L 78.511719 43.246094 L 76.132812 43.246094 Z M 76.527344 45.230469 L 78.117188 45.230469 L 78.117188 43.640625 L 76.527344 43.640625 Z M 76.527344 45.230469 "/>
</g>
<path fill-rule="evenodd" fill="rgb(100%, 0%, 0%)" fill-opacity="1" d="M 75.550781 39.46875 L 77.535156 39.46875 L 77.535156 37.484375 L 75.550781 37.484375 Z M 75.550781 39.46875 "/>
<path fill-rule="evenodd" fill="rgb(100%, 64.698792%, 0%)" fill-opacity="1" d="M 75.351562 39.664062 L 77.734375 39.664062 L 77.734375 37.285156 L 75.351562 37.285156 Z M 75.75 39.269531 L 77.335938 39.269531 L 77.335938 37.683594 L 75.75 37.683594 Z M 75.75 39.269531 "/>
</svg>
