<?xml version="1.0" encoding="UTF-8"?>
<svg xmlns="http://www.w3.org/2000/svg" xmlns:xlink="http://www.w3.org/1999/xlink" width="105.8" height="107.1704" viewBox="0 0 105.8 107.1704">
<path fill="none" stroke-width="0.4" stroke-linecap="butt" stroke-linejoin="round" stroke="rgb(0%, 0%, 0%)" stroke-opacity="1" stroke-miterlimit="10" d="M 240.001549 143.998758 L 192.641661 152.001639 L 167.999246 185.568072 L 143.998478 143.998758 L 167.999246 128.000871 L 216.000781 102.429445 Z M 240.001549 143.998758 " transform="matrix(0.992319, 0, 0, -0.992319, -137.724387, 189.005916)"/>
<path fill="none" stroke-width="0.4" stroke-linecap="butt" stroke-linejoin="round" stroke="rgb(0%, 0%, 0%)" stroke-opacity="1" stroke-miterlimit="10" d="M 169.337651 185.300391 L 167.999246 128.000871 " transform="matrix(0.992319, 0, 0, -0.992319, -137.724387, 189.005916)"/>
<path fill="none" stroke-width="0.4" stroke-linecap="butt" stroke-linejoin="round" stroke="rgb(0%, 0%, 0%)" stroke-opacity="1" stroke-miterlimit="10" d="M 192.641661 152.001639 L 216.000781 102.429445 " transform="matrix(0.992319, 0, 0, -0.992319, -137.724387, 189.005916)"/>
<path fill="none" stroke-width="0.4" stroke-linecap="butt" stroke-linejoin="round" stroke="rgb(0%, 0%, 0%)" stroke-opacity="1" stroke-miterlimit="10" d="M 143.998478 143.998758 C 138.034698 117.490448 154.689979 91.163216 181.19829 85.199436 C 207.710537 79.235657 234.033833 95.890938 240.001549 122.399248 C 241.599763 129.512482 241.599763 136.889461 240.001549 143.998758 " transform="matrix(0.992319, 0, 0, -0.992319, -137.724387, 189.005916)"/>
<path fill-rule="evenodd" fill="rgb(0%, 0%, 0%)" fill-opacity="1" d="M 33.152344 4.863281 C 33.152344 2.558594 31.289062 0.695312 28.984375 0.695312 C 26.683594 0.695312 24.816406 2.558594 24.816406 4.863281 C 24.816406 7.164062 26.683594 9.027344 28.984375 9.027344 C 31.289062 9.027344 33.152344 7.164062 33.152344 4.863281 "/>
<path fill-rule="evenodd" fill="rgb(0%, 0%, 0%)" fill-opacity="1" d="M 80.785156 87.363281 C 80.785156 85.0625 78.917969 83.195312 76.617188 83.195312 C 74.3125 83.195312 72.449219 85.0625 72.449219 87.363281 C 72.449219 89.664062 74.3125 91.53125 76.617188 91.53125 C 78.917969 91.53125 80.785156 89.664062 80.785156 87.363281 "/>
<path fill-rule="evenodd" fill="rgb(0%, 0%, 100%)" fill-opacity="1" d="M 57.605469 38.171875 C 57.605469 35.871094 55.738281 34.003906 53.4375 34.003906 C 51.136719 34.003906 49.269531 35.871094 49.269531 38.171875 C 49.269531 40.472656 51.136719 42.339844 53.4375 42.339844 C 55.738281 42.339844 57.605469 40.472656 57.605469 38.171875 "/>
<path fill-rule="evenodd" fill="rgb(100%, 0%, 0%)" fill-opacity="1" d="M 104.601562 46.113281 C 104.601562 43.808594 102.734375 41.945312 100.433594 41.945312 C 98.128906 41.945312 96.265625 43.808594 96.265625 46.113281 C 96.265625 48.414062 98.128906 50.28125 100.433594 50.28125 C 102.734375 50.28125 104.601562 48.414062 104.601562 46.113281 "/>
<path fill-rule="evenodd" fill="rgb(100%, 0%, 0%)" fill-opacity="1" d="M 33.152344 61.988281 C 33.152344 59.6875 31.289062 57.820312 28.984375 57.820312 C 26.683594 57.820312 24.816406 59.6875 24.816406 61.988281 C 24.816406 64.292969 26.683594 66.15625 28.984375 66.15625 C 31.289062 66.15625 33.152344 64.292969 33.152344 61.988281 "/>
<path fill-rule="evenodd" fill="rgb(0%, 0%, 100%)" fill-opacity="1" d="M 9.335938 46.113281 C 9.335938 43.808594 7.472656 41.945312 5.167969 41.945312 C 2.867188 41.945312 1 43.808594 1 46.113281 C 1 48.414062 2.867188 50.28125 5.167969 50.28125 C 7.472656 50.28125 9.335938 48.414062 9.335938 46.113281 "/>
</svg>
