<?xml version="1.0" encoding="UTF-8"?>
<svg xmlns="http://www.w3.org/2000/svg" xmlns:xlink="http://www.w3.org/1999/xlink" width="128.4" height="128.4" viewBox="0 0 128.4 128.4">
<path fill="none" stroke-width="1.2" stroke-linecap="butt" stroke-linejoin="round" stroke="rgb(0%, 0%, 0%)" stroke-opacity="1" stroke-miterlimit="10" d="M 158.436536 179.515804 L 238.500332 133.296926 " transform="matrix(0.995349, 0, 0, -0.995349, -135.168372, 207.231628)"/>
<path fill="none" stroke-width="1.2" stroke-linecap="butt" stroke-linejoin="round" stroke="rgb(0%, 0%, 0%)" stroke-opacity="1" stroke-miterlimit="10" d="M 158.436536 179.515804 L 179.067651 98.973218 " transform="matrix(0.995349, 0, 0, -0.995349, -135.168372, 207.231628)"/>
<path fill="none" stroke-width="1.2" stroke-linecap="butt" stroke-linejoin="round" stroke="rgb(0%, 0%, 0%)" stroke-opacity="1" stroke-miterlimit="10" d="M 158.436536 179.515804 L 158.436536 110.884087 " transform="matrix(0.995349, 0, 0, -0.995349, -135.168372, 207.231628)"/>
<path fill="none" stroke-width="1.2" stroke-linecap="butt" stroke-linejoin="round" stroke="rgb(0%, 0%, 0%)" stroke-opacity="1" stroke-miterlimit="10" d="M 179.067651 98.973218 L 238.5592 156.86357 " transform="matrix(0.995349, 0, 0, -0.995349, -135.168372, 207.231628)"/>
<path fill="none" stroke-width="1.2" stroke-linecap="butt" stroke-linejoin="round" stroke="rgb(0%, 0%, 0%)" stroke-opacity="1" stroke-miterlimit="10" d="M 179.067651 98.973218 L 179.067651 191.426672 " transform="matrix(0.995349, 0, 0, -0.995349, -135.168372, 207.231628)"/>
<path fill="none" stroke-width="1.2" stroke-linecap="butt" stroke-linejoin="round" stroke="rgb(0%, 0%, 0%)" stroke-opacity="1" stroke-miterlimit="10" d="M 238.5592 156.86357 L 179.067651 191.426672 " transform="matrix(0.995349, 0, 0, -0.995349, -135.168372, 207.231628)"/>
<path fill="none" stroke-width="1.2" stroke-linecap="butt" stroke-linejoin="round" stroke="rgb(0%, 0%, 0%)" stroke-opacity="1" stroke-miterlimit="10" d="M 238.5592 156.86357 L 158.436536 110.884087 " transform="matrix(0.995349, 0, 0, -0.995349, -135.168372, 207.231628)"/>
<path fill="none" stroke-width="1.2" stroke-linecap="butt" stroke-linejoin="round" stroke="rgb(0%, 0%, 0%)" stroke-opacity="1" stroke-miterlimit="10" d="M 179.067651 191.426672 L 238.500332 133.296926 " transform="matrix(0.995349, 0, 0, -0.995349, -135.168372, 207.231628)"/>
<path fill="none" stroke-width="1.2" stroke-linecap="butt" stroke-linejoin="round" stroke="rgb(0%, 0%, 0%)" stroke-opacity="1" stroke-miterlimit="10" d="M 238.500332 133.296926 L 158.436536 110.884087 " transform="matrix(0.995349, 0, 0, -0.995349, -135.168372, 207.231628)"/>
</svg>
