<?xml version="1.0" encoding="UTF-8"?>
<svg xmlns="http://www.w3.org/2000/svg" xmlns:xlink="http://www.w3.org/1999/xlink" width="205.217" height="107.832" viewBox="0 0 205.217 107.832">
<defs>
<clipPath id="clip-0">
<path clip-rule="nonzero" d="M 38 0.121094 L 107 0.121094 L 107 41 L 38 41 Z M 38 0.121094 "/>
</clipPath>
<clipPath id="clip-1">
<path clip-rule="nonzero" d="M 77 55 L 155 55 L 155 107.542969 L 77 107.542969 Z M 77 55 "/>
</clipPath>
</defs>
<path fill-rule="evenodd" fill="rgb(70.199585%, 93.299866%, 22.698975%)" fill-opacity="0.5" stroke-width="0.8" stroke-linecap="butt" stroke-linejoin="round" stroke="rgb(0%, 0%, 0%)" stroke-opacity="0.5" stroke-miterlimit="10" d="M 254.667541 279.333196 C 254.667541 274.667023 253.334348 269.334253 254.667541 264.001483 C 256.000733 258.668713 260.00031 253.332023 262.666695 246.66606 C 265.33308 240.000098 266.666273 232.000944 265.33308 225.331061 C 263.999888 218.665098 260.00031 213.332329 263.333291 207.999559 C 266.666273 202.666789 277.331812 197.33402 290.667657 197.33402 C 303.999582 197.33402 320.001812 202.666789 330.667351 210.665944 C 341.332891 218.665098 346.66566 229.334559 346.66566 242.666483 C 346.66566 255.998407 341.332891 272.000638 330.667351 278.000004 C 320.001812 283.99937 303.999582 279.999792 290.001061 280.666388 C 275.99862 281.332985 263.999888 286.665754 258.667118 287.332351 C 253.334348 287.998947 254.667541 283.99937 254.667541 279.333196 Z M 254.667541 279.333196 " transform="matrix(0.996199, 0, 0, -0.996199, -141.808932, 297.220677)"/>
<path fill-rule="evenodd" fill="rgb(60.798645%, 18.798828%, 100%)" fill-opacity="0.5" stroke-width="0.8" stroke-linecap="butt" stroke-linejoin="round" stroke="rgb(0%, 0%, 0%)" stroke-opacity="0.5" stroke-miterlimit="10" d="M 184.0005 244.666272 C 180.000923 238.666906 176.001345 233.334136 174.001557 228.001367 C 172.001768 222.668597 172.001768 217.331906 167.331673 214.665521 C 162.6655 211.999136 153.333153 211.999136 148.000383 219.331695 C 142.667613 226.668174 141.334421 241.333291 146.000595 253.998619 C 150.666768 266.667868 161.332307 277.333407 167.99827 279.999792 C 174.668153 282.666177 177.334538 277.333407 181.334115 274.000426 C 185.333692 270.667445 190.666462 269.334253 193.332847 268.00106 C 195.999232 266.667868 195.999232 265.334676 193.999443 261.331177 C 191.999654 257.3316 188.000077 250.665638 184.0005 244.666272 Z M 184.0005 244.666272 " transform="matrix(0.996199, 0, 0, -0.996199, -141.808932, 297.220677)"/>
<path fill-rule="evenodd" fill="rgb(100%, 60.099792%, 60.099792%)" fill-opacity="0.5" stroke-width="0.8" stroke-linecap="butt" stroke-linejoin="round" stroke="rgb(0%, 0%, 0%)" stroke-opacity="0.5" stroke-miterlimit="10" d="M 285.334888 264.001483 C 288.001272 258.668713 288.001272 253.332023 287.334676 249.999042 C 286.66808 246.66606 285.334888 245.332868 286.66808 243.999676 C 288.001272 242.666483 292.00085 241.333291 295.333831 238.666906 C 298.666812 236.000521 301.333197 232.000944 307.332563 232.000944 C 313.331929 232.000944 322.668197 236.000521 327.33437 243.999676 C 332.000544 251.99883 332.000544 264.001483 324.667985 274.000426 C 317.331506 283.99937 302.666389 291.998524 292.667446 292.66512 C 282.668503 293.331717 277.331812 286.665754 277.331812 280.666388 C 277.331812 274.667023 282.668503 269.334253 285.334888 264.001483 Z M 285.334888 264.001483 " transform="matrix(0.996199, 0, 0, -0.996199, -141.808932, 297.220677)"/>
<path fill-rule="evenodd" fill="rgb(60.798645%, 18.798828%, 100%)" fill-opacity="0.5" stroke-width="0.8" stroke-linecap="butt" stroke-linejoin="round" stroke="rgb(0%, 0%, 0%)" stroke-opacity="0.5" stroke-miterlimit="10" d="M 233.999137 241.999887 C 238.66531 241.333291 245.331273 238.666906 251.33456 238.666906 C 257.333926 238.666906 262.666695 241.333291 269.332657 244.666272 C 275.99862 247.999253 284.001695 251.99883 279.331601 261.331177 C 274.665427 270.667445 257.333926 285.332562 246.00179 282.666177 C 234.665733 279.999792 229.332963 260.001906 227.999771 250.665638 C 226.666579 241.333291 229.332963 242.666483 233.999137 241.999887 Z M 233.999137 241.999887 " transform="matrix(0.996199, 0, 0, -0.996199, -141.808932, 297.220677)"/>
<path fill-rule="evenodd" fill="rgb(56.498718%, 93.299866%, 56.498718%)" fill-opacity="0.5" stroke-width="0.8" stroke-linecap="butt" stroke-linejoin="round" stroke="rgb(0%, 0%, 0%)" stroke-opacity="0.5" stroke-miterlimit="10" d="M 245.331273 234.000732 C 248.001579 238.666906 248.001579 245.332868 231.999348 253.332023 C 216.001039 261.331177 184.0005 270.667445 178.66773 268.667657 C 173.33496 266.667868 194.666039 253.332023 206.668692 236.000521 C 218.667424 218.665098 221.333809 197.33402 224.000194 194.667635 C 226.666579 192.00125 229.332963 207.999559 233.332541 217.331906 C 237.332118 226.668174 242.668809 229.334559 245.331273 234.000732 Z M 245.331273 234.000732 " transform="matrix(0.996199, 0, 0, -0.996199, -141.808932, 297.220677)"/>
<path fill-rule="evenodd" fill="rgb(37.298584%, 61.999512%, 62.69989%)" fill-opacity="0.5" stroke-width="0.8" stroke-linecap="butt" stroke-linejoin="round" stroke="rgb(0%, 0%, 0%)" stroke-opacity="0.5" stroke-miterlimit="10" d="M 225.333386 257.3316 C 226.666579 262.668291 229.332963 269.334253 231.999348 274.000426 C 234.665733 278.6666 237.332118 281.332985 233.332541 283.99937 C 229.332963 286.665754 218.667424 289.332139 207.331367 287.998947 C 195.999232 286.665754 184.0005 281.332985 177.334538 274.667023 C 170.668576 268.00106 169.331462 260.001906 178.001134 254.665215 C 186.666885 249.332445 205.331579 246.66606 214.667847 247.332657 C 224.000194 247.999253 224.000194 251.99883 225.333386 257.3316 Z M 225.333386 257.3316 " transform="matrix(0.996199, 0, 0, -0.996199, -141.808932, 297.220677)"/>
<path fill-rule="evenodd" fill="rgb(100%, 60.099792%, 60.099792%)" fill-opacity="0.5" stroke-width="0.8" stroke-linecap="butt" stroke-linejoin="round" stroke="rgb(0%, 0%, 0%)" stroke-opacity="0.5" stroke-miterlimit="10" d="M 198.665617 245.332868 C 205.331579 243.999676 210.66827 243.999676 214.001251 243.333079 C 217.334232 242.666483 218.667424 241.333291 218.667424 238.666906 C 218.667424 236.000521 217.334232 232.000944 216.667635 228.001367 C 216.001039 224.001789 216.001039 219.998291 217.334232 215.998714 C 218.667424 211.999136 221.333809 207.999559 212.001462 205.99977 C 202.665194 203.999982 181.334115 203.999982 170.668576 211.999136 C 159.999115 219.998291 159.999115 236.000521 162.6655 243.999676 C 165.331885 251.99883 170.668576 251.99883 177.334538 250.665638 C 184.0005 249.332445 191.999654 246.66606 198.665617 245.332868 Z M 198.665617 245.332868 " transform="matrix(0.996199, 0, 0, -0.996199, -141.808932, 297.220677)"/>
<path fill-rule="evenodd" fill="rgb(100%, 49.798584%, 31.399536%)" fill-opacity="0.5" d="M 92.628906 35.550781 C 97.277344 38.207031 101.261719 42.195312 103.921875 37.542969 C 106.578125 32.894531 107.90625 19.613281 103.257812 11.644531 C 98.605469 3.671875 87.980469 1.019531 75.363281 1.019531 C 62.742188 1.019531 48.132812 3.671875 42.15625 8.324219 C 36.179688 12.972656 38.835938 19.613281 46.140625 23.597656 C 53.445312 27.582031 65.402344 28.910156 74.035156 30.238281 C 82.667969 31.566406 87.980469 32.894531 92.628906 35.550781 Z M 92.628906 35.550781 "/>
<g clip-path="url(#clip-0)">
<path fill="none" stroke-width="0.8" stroke-linecap="butt" stroke-linejoin="round" stroke="rgb(0%, 0%, 0%)" stroke-opacity="0.5" stroke-miterlimit="10" d="M 235.332329 262.668291 C 239.998503 260.001906 243.99808 255.998407 246.668386 260.668502 C 249.334771 265.334676 250.667963 278.6666 246.00179 286.665754 C 241.331695 294.66883 230.666156 297.331294 218.000828 297.331294 C 205.331579 297.331294 190.666462 294.66883 184.667096 289.998735 C 178.66773 285.332562 181.334115 278.6666 188.666673 274.667023 C 195.999232 270.667445 208.001885 269.334253 216.667635 268.00106 C 225.333386 266.667868 230.666156 265.334676 235.332329 262.668291 Z M 235.332329 262.668291 " transform="matrix(0.996199, 0, 0, -0.996199, -141.808932, 297.220677)"/>
</g>
<path fill-rule="evenodd" fill="rgb(67.799377%, 84.698486%, 90.19928%)" fill-opacity="0.5" d="M 135.027344 55.558594 C 143.234375 55.925781 151.523438 65.324219 153.578125 77.027344 C 155.636719 88.726562 151.460938 102.730469 136.648438 105.9375 C 121.832031 109.144531 96.371094 101.554688 85.28125 89.9375 C 74.191406 78.3125 77.472656 62.660156 84.082031 59.085938 C 90.691406 55.511719 100.628906 64.015625 109.664062 63.9375 C 118.695312 63.859375 126.820312 55.191406 135.027344 55.558594 Z M 135.027344 55.558594 "/>
<g clip-path="url(#clip-1)">
<path fill="none" stroke-width="0.8" stroke-linecap="butt" stroke-linejoin="round" stroke="rgb(0%, 0%, 0%)" stroke-opacity="0.5" stroke-miterlimit="10" d="M 277.892537 242.584139 C 286.130882 242.21555 294.451571 232.781253 296.514098 221.033476 C 298.580547 209.289619 294.388833 195.232281 279.519816 192.013013 C 264.646878 188.793746 239.088795 196.412548 227.956638 208.074061 C 216.824482 219.743416 220.118251 235.455481 226.752844 239.043337 C 233.387437 242.631193 243.362853 234.09484 252.432483 234.173263 C 261.498191 234.251686 269.654192 242.952727 277.892537 242.584139 Z M 277.892537 242.584139 " transform="matrix(0.996199, 0, 0, -0.996199, -141.808932, 297.220677)"/>
</g>
</svg>
