<?xml version="1.0" encoding="UTF-8"?>
<svg xmlns="http://www.w3.org/2000/svg" xmlns:xlink="http://www.w3.org/1999/xlink" width="208.4" height="112.4" viewBox="0 0 208.4 112.4">
<defs>
<clipPath id="clip-0">
<path clip-rule="nonzero" d="M 0.253906 0 L 207.546875 0 L 207.546875 111.804688 L 0.253906 111.804688 Z M 0.253906 0 "/>
</clipPath>
</defs>
<path fill-rule="evenodd" fill="rgb(70.199585%, 93.299866%, 22.698975%)" fill-opacity="0.5" stroke-width="0.8" stroke-linecap="butt" stroke-linejoin="round" stroke="rgb(0%, 0%, 0%)" stroke-opacity="0.5" stroke-miterlimit="10" d="M 254.666764 279.331381 C 254.666764 274.665984 253.331549 269.332979 254.666764 263.999975 C 255.998051 258.666971 259.999768 253.333966 262.66627 246.665747 C 265.332772 240.001455 266.667987 232.001949 265.332772 225.33373 C 264.001485 218.665511 259.999768 213.332507 263.333877 207.999502 C 266.667987 202.666498 277.333995 197.333494 290.666506 197.333494 C 303.999017 197.333494 320.001957 202.666498 330.667966 210.666005 C 341.333975 218.665511 346.666979 229.33152 346.666979 242.667958 C 346.666979 256.000468 341.333975 271.999481 330.667966 278.000093 C 320.001957 284.000705 303.999017 279.998988 289.998899 280.666595 C 275.998781 281.334203 264.001485 286.667207 258.66848 287.334814 C 253.331549 287.998494 254.666764 284.000705 254.666764 279.331381 Z M 254.666764 279.331381 " transform="matrix(0.99469, 0, 0, -0.99469, -138.802832, 298.606018)"/>
<path fill-rule="evenodd" fill="rgb(60.798645%, 18.798828%, 100%)" fill-opacity="0.5" stroke-width="0.8" stroke-linecap="butt" stroke-linejoin="round" stroke="rgb(0%, 0%, 0%)" stroke-opacity="0.5" stroke-miterlimit="10" d="M 183.998565 244.666852 C 180.000776 238.666241 175.999059 233.333236 174.000164 228.000232 C 172.001269 222.667228 172.001269 217.334223 167.331945 214.667721 C 162.666548 212.001219 153.331827 212.001219 147.998823 219.333118 C 142.665818 226.668945 141.334531 241.332743 145.999928 254.001574 C 150.665325 266.666477 161.331333 277.332486 167.999552 279.998988 C 174.667771 282.66549 177.334274 277.332486 181.332063 273.998376 C 185.33378 270.668194 190.666784 269.332979 193.333287 268.001692 C 195.999789 266.666477 195.999789 265.331263 194.000894 261.333473 C 191.998072 257.331756 188.000282 250.667464 183.998565 244.666852 Z M 183.998565 244.666852 " transform="matrix(0.99469, 0, 0, -0.99469, -138.802832, 298.606018)"/>
<path fill-rule="evenodd" fill="rgb(100%, 60.099792%, 60.099792%)" fill-opacity="0.5" stroke-width="0.8" stroke-linecap="butt" stroke-linejoin="round" stroke="rgb(0%, 0%, 0%)" stroke-opacity="0.5" stroke-miterlimit="10" d="M 285.333502 263.999975 C 288.000004 258.666971 288.000004 253.333966 287.332397 249.999857 C 286.668717 246.665747 285.333502 245.33446 286.668717 243.999245 C 288.000004 242.667958 292.001721 241.332743 295.331903 238.666241 C 298.666013 235.999739 301.332515 232.001949 307.333127 232.001949 C 313.333738 232.001949 322.668459 235.999739 327.333856 243.999245 C 331.999254 251.998752 331.999254 263.999975 324.667354 273.998376 C 317.331528 284.000705 302.66773 292.000211 292.665401 292.667819 C 282.667 293.331499 277.333995 286.667207 277.333995 280.666595 C 277.333995 274.665984 282.667 269.332979 285.333502 263.999975 Z M 285.333502 263.999975 " transform="matrix(0.99469, 0, 0, -0.99469, -138.802832, 298.606018)"/>
<path fill-rule="evenodd" fill="rgb(60.798645%, 18.798828%, 100%)" fill-opacity="0.5" stroke-width="0.8" stroke-linecap="butt" stroke-linejoin="round" stroke="rgb(0%, 0%, 0%)" stroke-opacity="0.5" stroke-miterlimit="10" d="M 233.998426 242.00035 C 238.667751 241.332743 245.332042 238.666241 251.332654 238.666241 C 257.333266 238.666241 262.66627 241.332743 269.334489 244.666852 C 275.998781 248.000962 283.998287 251.998752 279.33289 261.333473 C 274.667493 270.668194 257.333266 285.331992 245.99965 282.66549 C 234.666034 279.998988 229.333029 259.998258 228.001742 250.667464 C 226.666527 241.332743 229.333029 242.667958 233.998426 242.00035 Z M 233.998426 242.00035 " transform="matrix(0.99469, 0, 0, -0.99469, -138.802832, 298.606018)"/>
<path fill-rule="evenodd" fill="rgb(56.498718%, 93.299866%, 56.498718%)" fill-opacity="0.5" stroke-width="0.8" stroke-linecap="butt" stroke-linejoin="round" stroke="rgb(0%, 0%, 0%)" stroke-opacity="0.5" stroke-miterlimit="10" d="M 245.332042 234.000844 C 247.998545 238.666241 247.998545 245.33446 231.999532 253.333966 C 216.000519 261.333473 183.998565 270.668194 178.665561 268.665372 C 173.332557 266.666477 194.668501 253.333966 206.665797 235.999739 C 218.667021 218.665511 221.333523 197.333494 224.000025 194.666991 C 226.666527 192.000489 229.333029 207.999502 233.334746 217.334223 C 237.332536 226.668945 242.66554 229.33152 245.332042 234.000844 Z M 245.332042 234.000844 " transform="matrix(0.99469, 0, 0, -0.99469, -138.802832, 298.606018)"/>
<path fill-rule="evenodd" fill="rgb(37.298584%, 61.999512%, 62.69989%)" fill-opacity="0.5" stroke-width="0.8" stroke-linecap="butt" stroke-linejoin="round" stroke="rgb(0%, 0%, 0%)" stroke-opacity="0.5" stroke-miterlimit="10" d="M 225.331313 257.331756 C 226.666527 262.668687 229.333029 269.332979 231.999532 273.998376 C 234.666034 278.6677 237.332536 281.334203 233.334746 284.000705 C 229.333029 286.667207 218.667021 289.333709 207.333405 287.998494 C 195.999789 286.667207 183.998565 281.334203 177.334274 274.665984 C 170.666055 268.001692 169.334767 259.998258 178.001881 254.665254 C 186.665068 249.332249 205.33451 246.665747 214.665304 247.333355 C 224.000025 248.000962 224.000025 251.998752 225.331313 257.331756 Z M 225.331313 257.331756 " transform="matrix(0.99469, 0, 0, -0.99469, -138.802832, 298.606018)"/>
<path fill-rule="evenodd" fill="rgb(100%, 60.099792%, 60.099792%)" fill-opacity="0.5" stroke-width="0.8" stroke-linecap="butt" stroke-linejoin="round" stroke="rgb(0%, 0%, 0%)" stroke-opacity="0.5" stroke-miterlimit="10" d="M 198.666291 245.33446 C 205.33451 243.999245 210.667514 243.999245 214.001624 243.331638 C 217.331806 242.667958 218.667021 241.332743 218.667021 238.666241 C 218.667021 235.999739 217.331806 232.001949 216.668126 228.000232 C 216.000519 223.998515 216.000519 220.000726 217.331806 215.999009 C 218.667021 212.001219 221.333523 207.999502 211.998802 206.000607 C 202.668008 204.001713 181.332063 204.001713 170.666055 212.001219 C 160.000046 220.000726 160.000046 235.999739 162.666548 243.999245 C 165.33305 251.998752 170.666055 251.998752 177.334274 250.667464 C 183.998565 249.332249 191.998072 246.665747 198.666291 245.33446 Z M 198.666291 245.33446 " transform="matrix(0.99469, 0, 0, -0.99469, -138.802832, 298.606018)"/>
<path fill-rule="evenodd" fill="rgb(100%, 49.798584%, 31.399536%)" fill-opacity="0.5" stroke-width="0.8" stroke-linecap="butt" stroke-linejoin="round" stroke="rgb(0%, 0%, 0%)" stroke-opacity="0.5" stroke-miterlimit="10" d="M 235.333641 262.668687 C 239.999038 259.998258 244.000755 256.000468 246.667257 260.665865 C 249.333759 265.331263 250.665047 278.6677 245.99965 286.667207 C 241.334253 294.666713 230.668244 297.333216 217.999413 297.333216 C 205.33451 297.333216 190.666784 294.666713 184.666173 290.001316 C 178.665561 285.331992 181.332063 278.6677 188.66789 274.665984 C 195.999789 270.668194 208.001012 269.332979 216.668126 268.001692 C 225.331313 266.666477 230.668244 265.331263 235.333641 262.668687 Z M 235.333641 262.668687 " transform="matrix(0.99469, 0, 0, -0.99469, -138.802832, 298.606018)"/>
<path fill-rule="evenodd" fill="rgb(67.799377%, 84.698486%, 90.19928%)" fill-opacity="0.5" stroke-width="0.8" stroke-linecap="butt" stroke-linejoin="round" stroke="rgb(0%, 0%, 0%)" stroke-opacity="0.5" stroke-miterlimit="10" d="M 277.895571 242.585488 C 286.130704 242.216341 294.448305 232.779515 296.513961 221.033553 C 298.579617 209.287592 294.389399 195.232494 279.517464 192.012271 C 264.645529 188.792047 239.08795 196.410625 227.958544 208.074117 C 216.82521 219.741537 220.116121 235.457799 226.752923 239.043243 C 233.385798 242.632614 243.364564 234.091167 252.432243 234.173636 C 261.499921 234.252178 269.656511 242.950709 277.895571 242.585488 Z M 277.895571 242.585488 " transform="matrix(0.99469, 0, 0, -0.99469, -138.802832, 298.606018)"/>
<g clip-path="url(#clip-0)">
<path fill-rule="evenodd" fill="rgb(100%, 100%, 100%)" fill-opacity="0.6" d="M 0.453125 0.199219 L 0.453125 111.605469 L 207.347656 111.605469 L 207.347656 0.199219 Z M 0.453125 0.199219 "/>
</g>
<path fill="none" stroke-width="0.8" stroke-linecap="butt" stroke-linejoin="round" stroke="rgb(0%, 0%, 0%)" stroke-opacity="1" stroke-miterlimit="10" d="M 224.000025 248.000962 L 160.000046 256.000468 " transform="matrix(0.99469, 0, 0, -0.99469, -138.802832, 298.606018)"/>
<path fill="none" stroke-width="0.8" stroke-linecap="butt" stroke-linejoin="round" stroke="rgb(0%, 0%, 0%)" stroke-opacity="1" stroke-miterlimit="10" d="M 160.000046 256.000468 L 216.000519 263.999975 " transform="matrix(0.99469, 0, 0, -0.99469, -138.802832, 298.606018)"/>
<path fill="none" stroke-width="0.8" stroke-linecap="butt" stroke-linejoin="round" stroke="rgb(0%, 0%, 0%)" stroke-opacity="1" stroke-miterlimit="10" d="M 216.000519 263.999975 L 224.000025 248.000962 " transform="matrix(0.99469, 0, 0, -0.99469, -138.802832, 298.606018)"/>
<path fill="none" stroke-width="0.8" stroke-linecap="butt" stroke-linejoin="round" stroke="rgb(0%, 0%, 0%)" stroke-opacity="1" stroke-miterlimit="10" d="M 239.999038 287.998494 L 216.000519 263.999975 " transform="matrix(0.99469, 0, 0, -0.99469, -138.802832, 298.606018)"/>
<path fill="none" stroke-width="0.8" stroke-linecap="butt" stroke-linejoin="round" stroke="rgb(0%, 0%, 0%)" stroke-opacity="1" stroke-miterlimit="10" d="M 239.999038 287.998494 L 247.998545 248.000962 " transform="matrix(0.99469, 0, 0, -0.99469, -138.802832, 298.606018)"/>
<path fill="none" stroke-width="0.8" stroke-linecap="butt" stroke-linejoin="round" stroke="rgb(0%, 0%, 0%)" stroke-opacity="1" stroke-miterlimit="10" d="M 247.998545 248.000962 L 224.000025 248.000962 " transform="matrix(0.99469, 0, 0, -0.99469, -138.802832, 298.606018)"/>
<path fill="none" stroke-width="0.8" stroke-linecap="butt" stroke-linejoin="round" stroke="rgb(0%, 0%, 0%)" stroke-opacity="1" stroke-miterlimit="10" d="M 247.998545 248.000962 L 247.998545 215.999009 " transform="matrix(0.99469, 0, 0, -0.99469, -138.802832, 298.606018)"/>
<path fill="none" stroke-width="0.8" stroke-linecap="butt" stroke-linejoin="round" stroke="rgb(0%, 0%, 0%)" stroke-opacity="1" stroke-miterlimit="10" d="M 247.998545 215.999009 L 224.000025 248.000962 " transform="matrix(0.99469, 0, 0, -0.99469, -138.802832, 298.606018)"/>
<path fill="none" stroke-width="0.8" stroke-linecap="butt" stroke-linejoin="round" stroke="rgb(0%, 0%, 0%)" stroke-opacity="1" stroke-miterlimit="10" d="M 224.000025 248.000962 L 191.998072 232.001949 " transform="matrix(0.99469, 0, 0, -0.99469, -138.802832, 298.606018)"/>
<path fill="none" stroke-width="0.8" stroke-linecap="butt" stroke-linejoin="round" stroke="rgb(0%, 0%, 0%)" stroke-opacity="1" stroke-miterlimit="10" d="M 191.998072 232.001949 L 160.000046 256.000468 " transform="matrix(0.99469, 0, 0, -0.99469, -138.802832, 298.606018)"/>
<path fill="none" stroke-width="0.8" stroke-linecap="butt" stroke-linejoin="round" stroke="rgb(0%, 0%, 0%)" stroke-opacity="1" stroke-miterlimit="10" d="M 311.998524 223.998515 L 247.998545 215.999009 " transform="matrix(0.99469, 0, 0, -0.99469, -138.802832, 298.606018)"/>
<path fill="none" stroke-width="0.8" stroke-linecap="butt" stroke-linejoin="round" stroke="rgb(0%, 0%, 0%)" stroke-opacity="1" stroke-miterlimit="10" d="M 303.999017 263.999975 L 311.998524 223.998515 " transform="matrix(0.99469, 0, 0, -0.99469, -138.802832, 298.606018)"/>
<path fill="none" stroke-width="0.8" stroke-linecap="butt" stroke-linejoin="round" stroke="rgb(0%, 0%, 0%)" stroke-opacity="1" stroke-miterlimit="10" d="M 247.998545 248.000962 L 311.998524 223.998515 " transform="matrix(0.99469, 0, 0, -0.99469, -138.802832, 298.606018)"/>
<path fill-rule="evenodd" fill="rgb(100%, 100%, 0%)" fill-opacity="1" d="M 55.660156 67.835938 C 55.660156 65.914062 54.101562 64.355469 52.175781 64.355469 C 50.253906 64.355469 48.695312 65.914062 48.695312 67.835938 C 48.695312 69.761719 50.253906 71.320312 52.175781 71.320312 C 54.101562 71.320312 55.660156 69.761719 55.660156 67.835938 "/>
<path fill-rule="evenodd" fill="rgb(54.499817%, 0%, 54.499817%)" fill-opacity="1" d="M 56.355469 67.835938 C 56.355469 65.53125 54.484375 63.660156 52.175781 63.660156 C 49.871094 63.660156 48 65.53125 48 67.835938 C 48 70.144531 49.871094 72.015625 52.175781 72.015625 C 54.484375 72.015625 56.355469 70.144531 56.355469 67.835938 M 54.960938 67.835938 C 54.960938 66.300781 53.714844 65.054688 52.175781 65.054688 C 50.640625 65.054688 49.390625 66.300781 49.390625 67.835938 C 49.390625 69.375 50.640625 70.621094 52.175781 70.621094 C 53.714844 70.621094 54.960938 69.375 54.960938 67.835938 "/>
<path fill-rule="evenodd" fill="rgb(100%, 100%, 0%)" fill-opacity="1" d="M 23.828125 43.964844 C 23.828125 42.042969 22.269531 40.484375 20.347656 40.484375 C 18.425781 40.484375 16.867188 42.042969 16.867188 43.964844 C 16.867188 45.886719 18.425781 47.445312 20.347656 47.445312 C 22.269531 47.445312 23.828125 45.886719 23.828125 43.964844 "/>
<path fill-rule="evenodd" fill="rgb(54.499817%, 0%, 54.499817%)" fill-opacity="1" d="M 24.523438 43.964844 C 24.523438 41.65625 22.65625 39.789062 20.347656 39.789062 C 18.039062 39.789062 16.167969 41.65625 16.167969 43.964844 C 16.167969 46.273438 18.039062 48.144531 20.347656 48.144531 C 22.65625 48.144531 24.523438 46.273438 24.523438 43.964844 M 23.132812 43.964844 C 23.132812 42.425781 21.886719 41.179688 20.347656 41.179688 C 18.808594 41.179688 17.5625 42.425781 17.5625 43.964844 C 17.5625 45.503906 18.808594 46.75 20.347656 46.75 C 21.886719 46.75 23.132812 45.503906 23.132812 43.964844 "/>
<path fill-rule="evenodd" fill="rgb(100%, 100%, 0%)" fill-opacity="1" d="M 87.488281 51.921875 C 87.488281 50 85.929688 48.441406 84.007812 48.441406 C 82.085938 48.441406 80.527344 50 80.527344 51.921875 C 80.527344 53.84375 82.085938 55.402344 84.007812 55.402344 C 85.929688 55.402344 87.488281 53.84375 87.488281 51.921875 "/>
<path fill-rule="evenodd" fill="rgb(54.499817%, 0%, 54.499817%)" fill-opacity="1" d="M 88.183594 51.921875 C 88.183594 49.613281 86.316406 47.746094 84.007812 47.746094 C 81.699219 47.746094 79.832031 49.613281 79.832031 51.921875 C 79.832031 54.230469 81.699219 56.101562 84.007812 56.101562 C 86.316406 56.101562 88.183594 54.230469 88.183594 51.921875 M 86.792969 51.921875 C 86.792969 50.386719 85.546875 49.136719 84.007812 49.136719 C 82.46875 49.136719 81.222656 50.386719 81.222656 51.921875 C 81.222656 53.460938 82.46875 54.707031 84.007812 54.707031 C 85.546875 54.707031 86.792969 53.460938 86.792969 51.921875 "/>
<path fill-rule="evenodd" fill="rgb(100%, 100%, 0%)" fill-opacity="1" d="M 79.53125 36.007812 C 79.53125 34.085938 77.972656 32.527344 76.050781 32.527344 C 74.128906 32.527344 72.570312 34.085938 72.570312 36.007812 C 72.570312 37.929688 74.128906 39.488281 76.050781 39.488281 C 77.972656 39.488281 79.53125 37.929688 79.53125 36.007812 "/>
<path fill-rule="evenodd" fill="rgb(54.499817%, 0%, 54.499817%)" fill-opacity="1" d="M 80.226562 36.007812 C 80.226562 33.699219 78.359375 31.832031 76.050781 31.832031 C 73.742188 31.832031 71.871094 33.699219 71.871094 36.007812 C 71.871094 38.316406 73.742188 40.183594 76.050781 40.183594 C 78.359375 40.183594 80.226562 38.316406 80.226562 36.007812 M 78.835938 36.007812 C 78.835938 34.46875 77.589844 33.222656 76.050781 33.222656 C 74.511719 33.222656 73.265625 34.46875 73.265625 36.007812 C 73.265625 37.546875 74.511719 38.792969 76.050781 38.792969 C 77.589844 38.792969 78.835938 37.546875 78.835938 36.007812 "/>
<path fill-rule="evenodd" fill="rgb(100%, 100%, 0%)" fill-opacity="1" d="M 103.402344 12.136719 C 103.402344 10.210938 101.84375 8.652344 99.921875 8.652344 C 98 8.652344 96.441406 10.210938 96.441406 12.136719 C 96.441406 14.058594 98 15.617188 99.921875 15.617188 C 101.84375 15.617188 103.402344 14.058594 103.402344 12.136719 "/>
<path fill-rule="evenodd" fill="rgb(54.499817%, 0%, 54.499817%)" fill-opacity="1" d="M 104.101562 12.136719 C 104.101562 9.828125 102.230469 7.957031 99.921875 7.957031 C 97.613281 7.957031 95.746094 9.828125 95.746094 12.136719 C 95.746094 14.441406 97.613281 16.3125 99.921875 16.3125 C 102.230469 16.3125 104.101562 14.441406 104.101562 12.136719 M 102.707031 12.136719 C 102.707031 10.597656 101.460938 9.351562 99.921875 9.351562 C 98.386719 9.351562 97.136719 10.597656 97.136719 12.136719 C 97.136719 13.671875 98.386719 14.921875 99.921875 14.921875 C 101.460938 14.921875 102.707031 13.671875 102.707031 12.136719 "/>
<path fill-rule="evenodd" fill="rgb(100%, 100%, 0%)" fill-opacity="1" d="M 111.363281 51.921875 C 111.363281 50 109.804688 48.441406 107.878906 48.441406 C 105.957031 48.441406 104.398438 50 104.398438 51.921875 C 104.398438 53.84375 105.957031 55.402344 107.878906 55.402344 C 109.804688 55.402344 111.363281 53.84375 111.363281 51.921875 "/>
<path fill-rule="evenodd" fill="rgb(54.499817%, 0%, 54.499817%)" fill-opacity="1" d="M 112.058594 51.921875 C 112.058594 49.613281 110.1875 47.746094 107.878906 47.746094 C 105.574219 47.746094 103.703125 49.613281 103.703125 51.921875 C 103.703125 54.230469 105.574219 56.101562 107.878906 56.101562 C 110.1875 56.101562 112.058594 54.230469 112.058594 51.921875 M 110.664062 51.921875 C 110.664062 50.386719 109.417969 49.136719 107.878906 49.136719 C 106.34375 49.136719 105.09375 50.386719 105.09375 51.921875 C 105.09375 53.460938 106.34375 54.707031 107.878906 54.707031 C 109.417969 54.707031 110.664062 53.460938 110.664062 51.921875 "/>
<path fill-rule="evenodd" fill="rgb(100%, 100%, 0%)" fill-opacity="1" d="M 111.363281 83.753906 C 111.363281 81.832031 109.804688 80.273438 107.878906 80.273438 C 105.957031 80.273438 104.398438 81.832031 104.398438 83.753906 C 104.398438 85.675781 105.957031 87.234375 107.878906 87.234375 C 109.804688 87.234375 111.363281 85.675781 111.363281 83.753906 "/>
<path fill-rule="evenodd" fill="rgb(54.499817%, 0%, 54.499817%)" fill-opacity="1" d="M 112.058594 83.753906 C 112.058594 81.445312 110.1875 79.574219 107.878906 79.574219 C 105.574219 79.574219 103.703125 81.445312 103.703125 83.753906 C 103.703125 86.0625 105.574219 87.929688 107.878906 87.929688 C 110.1875 87.929688 112.058594 86.0625 112.058594 83.753906 M 110.664062 83.753906 C 110.664062 82.214844 109.417969 80.96875 107.878906 80.96875 C 106.34375 80.96875 105.09375 82.214844 105.09375 83.753906 C 105.09375 85.289062 106.34375 86.539062 107.878906 86.539062 C 109.417969 86.539062 110.664062 85.289062 110.664062 83.753906 "/>
<path fill-rule="evenodd" fill="rgb(100%, 100%, 0%)" fill-opacity="1" d="M 175.023438 75.796875 C 175.023438 73.871094 173.464844 72.3125 171.539062 72.3125 C 169.617188 72.3125 168.058594 73.871094 168.058594 75.796875 C 168.058594 77.71875 169.617188 79.277344 171.539062 79.277344 C 173.464844 79.277344 175.023438 77.71875 175.023438 75.796875 "/>
<path fill-rule="evenodd" fill="rgb(54.499817%, 0%, 54.499817%)" fill-opacity="1" d="M 175.71875 75.796875 C 175.71875 73.488281 173.847656 71.617188 171.539062 71.617188 C 169.234375 71.617188 167.363281 73.488281 167.363281 75.796875 C 167.363281 78.101562 169.234375 79.972656 171.539062 79.972656 C 173.847656 79.972656 175.71875 78.101562 175.71875 75.796875 M 174.324219 75.796875 C 174.324219 74.257812 173.078125 73.011719 171.539062 73.011719 C 170.003906 73.011719 168.753906 74.257812 168.753906 75.796875 C 168.753906 77.332031 170.003906 78.582031 171.539062 78.582031 C 173.078125 78.582031 174.324219 77.332031 174.324219 75.796875 "/>
<path fill-rule="evenodd" fill="rgb(100%, 100%, 0%)" fill-opacity="1" d="M 167.0625 36.007812 C 167.0625 34.085938 165.503906 32.527344 163.582031 32.527344 C 161.660156 32.527344 160.101562 34.085938 160.101562 36.007812 C 160.101562 37.929688 161.660156 39.488281 163.582031 39.488281 C 165.503906 39.488281 167.0625 37.929688 167.0625 36.007812 "/>
<path fill-rule="evenodd" fill="rgb(54.499817%, 0%, 54.499817%)" fill-opacity="1" d="M 167.761719 36.007812 C 167.761719 33.699219 165.890625 31.832031 163.582031 31.832031 C 161.273438 31.832031 159.40625 33.699219 159.40625 36.007812 C 159.40625 38.316406 161.273438 40.183594 163.582031 40.183594 C 165.890625 40.183594 167.761719 38.316406 167.761719 36.007812 M 166.367188 36.007812 C 166.367188 34.46875 165.121094 33.222656 163.582031 33.222656 C 162.046875 33.222656 160.796875 34.46875 160.796875 36.007812 C 160.796875 37.546875 162.046875 38.792969 163.582031 38.792969 C 165.121094 38.792969 166.367188 37.546875 166.367188 36.007812 "/>
</svg>
