<?xml version="1.0" encoding="UTF-8"?>
<svg xmlns="http://www.w3.org/2000/svg" xmlns:xlink="http://www.w3.org/1999/xlink" width="205.217" height="107.832" viewBox="0 0 205.217 107.832">
<defs>
<clipPath id="clip-0">
<path clip-rule="nonzero" d="M 38 0.121094 L 107 0.121094 L 107 41 L 38 41 Z M 38 0.121094 "/>
</clipPath>
<clipPath id="clip-1">
<path clip-rule="nonzero" d="M 77 55 L 155 55 L 155 107.542969 L 77 107.542969 Z M 77 55 "/>
</clipPath>
</defs>
<path fill-rule="evenodd" fill="rgb(70.199585%, 93.299866%, 22.698975%)" fill-opacity="0.5" stroke-width="0.8" stroke-linecap="butt" stroke-linejoin="round" stroke="rgb(0%, 0%, 0%)" stroke-opacity="0.5" stroke-miterlimit="10" d="M 254.667541 279.333196 C 254.667541 274.667023 253.334348 269.334253 254.667541 264.001483 C 256.000733 258.668713 260.00031 253.332023 262.666695 246.66606 C 265.33308 240.000098 266.666273 232.000944 265.33308 225.331061 C 263.999888 218.665098 260.00031 213.332329 263.333291 207.999559 C 266.666273 202.666789 277.331812 197.33402 290.667657 197.33402 C 303.999582 197.33402 320.001812 202.666789 330.667351 210.665944 C 341.332891 218.665098 346.66566 229.334559 346.66566 242.666483 C 346.66566 255.998407 341.332891 272.000638 330.667351 278.000004 C 320.001812 283.99937 303.999582 279.999792 290.001061 280.666388 C 275.99862 281.332985 263.999888 286.665754 258.667118 287.332351 C 253.334348 287.998947 254.667541 283.99937 254.667541 279.333196 Z M 254.667541 279.333196 " transform="matrix(0.996199, 0, 0, -0.996199, -141.808932, 297.220677)"/>
<path fill-rule="evenodd" fill="rgb(60.798645%, 18.798828%, 100%)" fill-opacity="0.5" stroke-width="0.8" stroke-linecap="butt" stroke-linejoin="round" stroke="rgb(0%, 0%, 0%)" stroke-opacity="0.5" stroke-miterlimit="10" d="M 184.0005 244.666272 C 180.000923 238.666906 176.001345 233.334136 174.001557 228.001367 C 172.001768 222.668597 172.001768 217.331906 167.331673 214.665521 C 162.6655 211.999136 153.333153 211.999136 148.000383 219.331695 C 142.667613 226.668174 141.334421 241.333291 146.000595 253.998619 C 150.666768 266.667868 161.332307 277.333407 167.99827 279.999792 C 174.668153 282.666177 177.334538 277.333407 181.334115 274.000426 C 185.333692 270.667445 190.666462 269.334253 193.332847 268.00106 C 195.999232 266.667868 195.999232 265.334676 193.999443 261.331177 C 191.999654 257.3316 188.000077 250.665638 184.0005 244.666272 Z M 184.0005 244.666272 " transform="matrix(0.996199, 0, 0, -0.996199, -141.808932, 297.220677)"/>
<path fill-rule="evenodd" fill="rgb(100%, 60.099792%, 60.099792%)" fill-opacity="0.5" stroke-width="0.8" stroke-linecap="butt" stroke-linejoin="round" stroke="rgb(0%, 0%, 0%)" stroke-opacity="0.5" stroke-miterlimit="10" d="M 285.334888 264.001483 C 288.001272 258.668713 288.001272 253.332023 287.334676 249.999042 C 286.66808 246.66606 285.334888 245.332868 286.66808 243.999676 C 288.001272 242.666483 292.00085 241.333291 295.333831 238.666906 C 298.666812 236.000521 301.333197 232.000944 307.332563 232.000944 C 313.331929 232.000944 322.668197 236.000521 327.33437 243.999676 C 332.000544 251.99883 332.000544 264.001483 324.667985 274.000426 C 317.331506 283.99937 302.666389 291.998524 292.667446 292.66512 C 282.668503 293.331717 277.331812 286.665754 277.331812 280.666388 C 277.331812 274.667023 282.668503 269.334253 285.334888 264.001483 Z M 285.334888 264.001483 " transform="matrix(0.996199, 0, 0, -0.996199, -141.808932, 297.220677)"/>
<path fill-rule="evenodd" fill="rgb(60.798645%, 18.798828%, 100%)" fill-opacity="0.5" stroke-width="0.8" stroke-linecap="butt" stroke-linejoin="round" stroke="rgb(0%, 0%, 0%)" stroke-opacity="0.5" stroke-miterlimit="10" d="M 233.999137 241.999887 C 238.66531 241.333291 245.331273 238.666906 251.33456 238.666906 C 257.333926 238.666906 262.666695 241.333291 269.332657 244.666272 C 275.99862 247.999253 284.001695 251.99883 279.331601 261.331177 C 274.665427 270.667445 257.333926 285.332562 246.00179 282.666177 C 234.665733 279.999792 229.332963 260.001906 227.999771 250.665638 C 226.666579 241.333291 229.332963 242.666483 233.999137 241.999887 Z M 233.999137 241.999887 " transform="matrix(0.996199, 0, 0, -0.996199, -141.808932, 297.220677)"/>
<path fill-rule="evenodd" fill="rgb(56.498718%, 93.299866%, 56.498718%)" fill-opacity="0.5" stroke-width="0.8" stroke-linecap="butt" stroke-linejoin="round" stroke="rgb(0%, 0%, 0%)" stroke-opacity="0.5" stroke-miterlimit="10" d="M 245.331273 234.000732 C 248.001579 238.666906 248.001579 245.332868 231.999348 253.332023 C 216.001039 261.331177 184.0005 270.667445 178.66773 268.667657 C 173.33496 266.667868 194.666039 253.332023 206.668692 236.000521 C 218.667424 218.665098 221.333809 197.33402 224.000194 194.667635 C 226.666579 192.00125 229.332963 207.999559 233.332541 217.331906 C 237.332118 226.668174 242.668809 229.334559 245.331273 234.000732 Z M 245.331273 234.000732 " transform="matrix(0.996199, 0, 0, -0.996199, -141.808932, 297.220677)"/>
<path fill-rule="evenodd" fill="rgb(37.298584%, 61.999512%, 62.69989%)" fill-opacity="0.5" stroke-width="0.8" stroke-linecap="butt" stroke-linejoin="round" stroke="rgb(0%, 0%, 0%)" stroke-opacity="0.5" stroke-miterlimit="10" d="M 225.333386 257.3316 C 226.666579 262.668291 229.332963 269.334253 231.999348 274.000426 C 234.665733 278.6666 237.332118 281.332985 233.332541 283.99937 C 229.332963 286.665754 218.667424 289.332139 207.331367 287.998947 C 195.999232 286.665754 184.0005 281.332985 177.334538 274.667023 C 170.668576 268.00106 169.331462 260.001906 178.001134 254.665215 C 186.666885 249.332445 205.331579 246.66606 214.667847 247.332657 C 224.000194 247.999253 224.000194 251.99883 225.333386 257.3316 Z M 225.333386 257.3316 " transform="matrix(0.996199, 0, 0, -0.996199, -141.808932, 297.220677)"/>
<path fill-rule="evenodd" fill="rgb(100%, 60.099792%, 60.099792%)" fill-opacity="0.5" stroke-width="0.8" stroke-linecap="butt" stroke-linejoin="round" stroke="rgb(0%, 0%, 0%)" stroke-opacity="0.5" stroke-miterlimit="10" d="M 198.665617 245.332868 C 205.331579 243.999676 210.66827 243.999676 214.001251 243.333079 C 217.334232 242.666483 218.667424 241.333291 218.667424 238.666906 C 218.667424 236.000521 217.334232 232.000944 216.667635 228.001367 C 216.001039 224.001789 216.001039 219.998291 217.334232 215.998714 C 218.667424 211.999136 221.333809 207.999559 212.001462 205.99977 C 202.665194 203.999982 181.334115 203.999982 170.668576 211.999136 C 159.999115 219.998291 159.999115 236.000521 162.6655 243.999676 C 165.331885 251.99883 170.668576 251.99883 177.334538 250.665638 C 184.0005 249.332445 191.999654 246.66606 198.665617 245.332868 Z M 198.665617 245.332868 " transform="matrix(0.996199, 0, 0, -0.996199, -141.808932, 297.220677)"/>
<path fill-rule="evenodd" fill="rgb(100%, 49.798584%, 31.399536%)" fill-opacity="0.5" d="M 92.628906 35.550781 C 97.277344 38.207031 101.261719 42.195312 103.921875 37.542969 C 106.578125 32.894531 107.90625 19.613281 103.257812 11.644531 C 98.605469 3.671875 87.980469 1.019531 75.363281 1.019531 C 62.742188 1.019531 48.132812 3.671875 42.15625 8.324219 C 36.179688 12.972656 38.835938 19.613281 46.140625 23.597656 C 53.445312 27.582031 65.402344 28.910156 74.035156 30.238281 C 82.667969 31.566406 87.980469 32.894531 92.628906 35.550781 Z M 92.628906 35.550781 "/>
<g clip-path="url(#clip-0)">
<path fill="none" stroke-width="0.8" stroke-linecap="butt" stroke-linejoin="round" stroke="rgb(0%, 0%, 0%)" stroke-opacity="0.5" stroke-miterlimit="10" d="M 235.332329 262.668291 C 239.998503 260.001906 243.99808 255.998407 246.668386 260.668502 C 249.334771 265.334676 250.667963 278.6666 246.00179 286.665754 C 241.331695 294.66883 230.666156 297.331294 218.000828 297.331294 C 205.331579 297.331294 190.666462 294.66883 184.667096 289.998735 C 178.66773 285.332562 181.334115 278.6666 188.666673 274.667023 C 195.999232 270.667445 208.001885 269.334253 216.667635 268.00106 C 225.333386 266.667868 230.666156 265.334676 235.332329 262.668291 Z M 235.332329 262.668291 " transform="matrix(0.996199, 0, 0, -0.996199, -141.808932, 297.220677)"/>
</g>
<path fill-rule="evenodd" fill="rgb(67.799377%, 84.698486%, 90.19928%)" fill-opacity="0.5" d="M 135.027344 55.558594 C 143.234375 55.925781 151.523438 65.324219 153.578125 77.027344 C 155.636719 88.726562 151.460938 102.730469 136.648438 105.9375 C 121.832031 109.144531 96.371094 101.554688 85.28125 89.9375 C 74.191406 78.3125 77.472656 62.660156 84.082031 59.085938 C 90.691406 55.511719 100.628906 64.015625 109.664062 63.9375 C 118.695312 63.859375 126.820312 55.191406 135.027344 55.558594 Z M 135.027344 55.558594 "/>
<g clip-path="url(#clip-1)">
<path fill="none" stroke-width="0.8" stroke-linecap="butt" stroke-linejoin="round" stroke="rgb(0%, 0%, 0%)" stroke-opacity="0.5" stroke-miterlimit="10" d="M 277.892537 242.584139 C 286.130882 242.21555 294.451571 232.781253 296.514098 221.033476 C 298.580547 209.289619 294.388833 195.232281 279.519816 192.013013 C 264.646878 188.793746 239.088795 196.412548 227.956638 208.074061 C 216.824482 219.743416 220.118251 235.455481 226.752844 239.043337 C 233.387437 242.631193 243.362853 234.09484 252.432483 234.173263 C 261.498191 234.251686 269.654192 242.952727 277.892537 242.584139 Z M 277.892537 242.584139 " transform="matrix(0.996199, 0, 0, -0.996199, -141.808932, 297.220677)"/>
</g>
<path fill-rule="evenodd" fill="rgb(100%, 54.899597%, 0%)" fill-opacity="0.1" d="M 111.890625 18.949219 C 111.890625 23.597656 110.5625 28.910156 111.890625 34.222656 C 113.21875 39.535156 117.203125 44.851562 119.859375 51.492188 C 122.515625 58.132812 123.84375 66.101562 122.515625 72.746094 C 121.1875 79.386719 117.203125 84.699219 120.523438 90.011719 C 123.84375 95.324219 134.46875 100.636719 147.753906 100.636719 C 161.035156 100.636719 176.976562 95.324219 187.601562 87.355469 C 198.226562 79.386719 203.539062 68.757812 203.539062 55.476562 C 203.539062 42.195312 198.226562 26.253906 187.601562 20.277344 C 176.976562 14.300781 161.035156 18.285156 147.089844 17.621094 C 133.140625 16.957031 121.1875 11.644531 115.875 10.980469 C 110.5625 10.316406 111.890625 14.300781 111.890625 18.949219 Z M 111.890625 18.949219 "/>
<path fill-rule="evenodd" fill="rgb(0%, 0%, 100%)" fill-opacity="0.1" d="M 116.605469 22.667969 C 116.605469 26.851562 115.410156 31.632812 116.605469 36.414062 C 117.800781 41.199219 121.386719 45.980469 123.777344 51.957031 C 126.167969 57.933594 127.363281 65.105469 126.167969 71.082031 C 124.972656 77.0625 121.386719 81.84375 124.375 86.625 C 127.363281 91.40625 136.925781 96.1875 148.882812 96.1875 C 160.835938 96.1875 175.179688 91.40625 184.746094 84.234375 C 194.308594 77.0625 199.089844 67.496094 199.089844 55.542969 C 199.089844 43.589844 194.308594 29.242188 184.746094 23.863281 C 175.179688 18.484375 160.835938 22.070312 148.285156 21.472656 C 135.730469 20.875 124.972656 16.09375 120.191406 15.496094 C 115.410156 14.898438 116.605469 18.484375 116.605469 22.667969 Z M 116.605469 22.667969 "/>
<path fill-rule="evenodd" fill="rgb(100%, 54.899597%, 0%)" fill-opacity="0.1" d="M 120.847656 26.015625 C 120.847656 29.78125 119.773438 34.085938 120.847656 38.386719 C 121.925781 42.691406 125.152344 46.996094 127.304688 52.375 C 129.457031 57.753906 130.53125 64.210938 129.457031 69.589844 C 128.378906 74.96875 125.152344 79.273438 127.84375 83.574219 C 130.53125 87.878906 139.140625 92.183594 149.898438 92.183594 C 160.65625 92.183594 173.566406 87.878906 182.175781 81.425781 C 190.78125 74.96875 195.085938 66.363281 195.085938 55.601562 C 195.085938 44.84375 190.78125 31.933594 182.175781 27.089844 C 173.566406 22.25 160.65625 25.476562 149.359375 24.941406 C 138.0625 24.402344 128.378906 20.097656 124.078125 19.558594 C 119.773438 19.023438 120.847656 22.25 120.847656 26.015625 Z M 120.847656 26.015625 "/>
<path fill-rule="evenodd" fill="rgb(100%, 100%, 0%)" fill-opacity="0.1" d="M 124.667969 29.027344 C 124.667969 32.417969 123.699219 36.289062 124.667969 40.164062 C 125.636719 44.035156 128.542969 47.910156 130.476562 52.75 C 132.414062 57.59375 133.382812 63.402344 132.414062 68.246094 C 131.445312 73.085938 128.542969 76.960938 130.960938 80.832031 C 133.382812 84.707031 141.128906 88.578125 150.8125 88.578125 C 160.496094 88.578125 172.117188 84.707031 179.863281 78.894531 C 187.609375 73.085938 191.480469 65.339844 191.480469 55.65625 C 191.480469 45.972656 187.609375 34.355469 179.863281 29.996094 C 172.117188 25.640625 160.496094 28.542969 150.328125 28.058594 C 140.160156 27.574219 131.445312 23.703125 127.574219 23.21875 C 123.699219 22.734375 124.667969 25.640625 124.667969 29.027344 Z M 124.667969 29.027344 "/>
<path fill-rule="evenodd" fill="rgb(0%, 0%, 0%)" fill-opacity="0.1" d="M 128.105469 31.738281 C 128.105469 34.789062 127.234375 38.277344 128.105469 41.761719 C 128.976562 45.246094 131.59375 48.734375 133.335938 53.089844 C 135.078125 57.449219 135.949219 62.675781 135.078125 67.035156 C 134.207031 71.390625 131.59375 74.878906 133.769531 78.363281 C 135.949219 81.847656 142.921875 85.335938 151.636719 85.335938 C 160.351562 85.335938 170.808594 81.847656 177.78125 76.621094 C 184.753906 71.390625 188.238281 64.421875 188.238281 55.707031 C 188.238281 46.992188 184.753906 36.53125 177.78125 32.609375 C 170.808594 28.6875 160.351562 31.304688 151.199219 30.867188 C 142.050781 30.433594 134.207031 26.945312 130.71875 26.511719 C 127.234375 26.074219 128.105469 28.6875 128.105469 31.738281 Z M 128.105469 31.738281 "/>
<path fill-rule="evenodd" fill="rgb(54.499817%, 0%, 54.499817%)" fill-opacity="0.1" d="M 131.199219 34.179688 C 131.199219 36.925781 130.414062 40.0625 131.199219 43.199219 C 131.984375 46.335938 134.335938 49.472656 135.90625 53.394531 C 137.472656 57.316406 138.257812 62.023438 137.472656 65.945312 C 136.691406 69.867188 134.335938 73.003906 136.296875 76.140625 C 138.257812 79.277344 144.535156 82.417969 152.375 82.417969 C 160.21875 82.417969 169.632812 79.277344 175.90625 74.570312 C 182.179688 69.867188 185.316406 63.59375 185.316406 55.75 C 185.316406 47.90625 182.179688 38.492188 175.90625 34.964844 C 169.632812 31.433594 160.21875 33.789062 151.984375 33.394531 C 143.75 33.003906 136.691406 29.867188 133.550781 29.472656 C 130.414062 29.082031 131.199219 31.433594 131.199219 34.179688 Z M 131.199219 34.179688 "/>
<path fill-rule="evenodd" fill="rgb(100%, 54.899597%, 0%)" fill-opacity="0.1" d="M 133.984375 36.375 C 133.984375 38.84375 133.277344 41.667969 133.984375 44.492188 C 134.691406 47.316406 136.808594 50.140625 138.21875 53.667969 C 139.632812 57.199219 140.335938 61.433594 139.632812 64.964844 C 138.925781 68.492188 136.808594 71.316406 138.574219 74.140625 C 140.335938 76.964844 145.984375 79.789062 153.042969 79.789062 C 160.101562 79.789062 168.574219 76.964844 174.21875 72.726562 C 179.867188 68.492188 182.691406 62.847656 182.691406 55.785156 C 182.691406 48.726562 179.867188 40.257812 174.21875 37.082031 C 168.574219 33.90625 160.101562 36.023438 152.691406 35.667969 C 145.277344 35.316406 138.925781 32.492188 136.101562 32.140625 C 133.277344 31.785156 133.984375 33.90625 133.984375 36.375 Z M 133.984375 36.375 "/>
<path fill-rule="evenodd" fill="rgb(100%, 54.899597%, 0%)" fill-opacity="0.1" d="M 136.488281 38.351562 C 136.488281 40.574219 135.855469 43.117188 136.488281 45.65625 C 137.125 48.199219 139.03125 50.738281 140.300781 53.917969 C 141.570312 57.09375 142.207031 60.90625 141.570312 64.082031 C 140.9375 67.257812 139.03125 69.800781 140.621094 72.339844 C 142.207031 74.882812 147.289062 77.421875 153.644531 77.421875 C 159.996094 77.421875 167.621094 74.882812 172.703125 71.070312 C 177.785156 67.257812 180.324219 62.175781 180.324219 55.824219 C 180.324219 49.46875 177.785156 41.847656 172.703125 38.988281 C 167.621094 36.128906 159.996094 38.035156 153.324219 37.71875 C 146.65625 37.398438 140.9375 34.859375 138.394531 34.539062 C 135.855469 34.222656 136.488281 36.128906 136.488281 38.351562 Z M 136.488281 38.351562 "/>
<path fill-rule="evenodd" fill="rgb(100%, 54.899597%, 0%)" fill-opacity="0.1" d="M 138.746094 40.128906 C 138.746094 42.132812 138.171875 44.417969 138.746094 46.707031 C 139.316406 48.992188 141.03125 51.28125 142.175781 54.140625 C 143.320312 57 143.890625 60.429688 143.320312 63.289062 C 142.746094 66.144531 141.03125 68.433594 142.460938 70.722656 C 143.890625 73.007812 148.464844 75.296875 154.183594 75.296875 C 159.902344 75.296875 166.761719 73.007812 171.335938 69.578125 C 175.910156 66.144531 178.199219 61.574219 178.199219 55.855469 C 178.199219 50.136719 175.910156 43.277344 171.335938 40.703125 C 166.761719 38.128906 159.902344 39.84375 153.898438 39.558594 C 147.894531 39.273438 142.746094 36.988281 140.460938 36.699219 C 138.171875 36.414062 138.746094 38.128906 138.746094 40.128906 Z M 138.746094 40.128906 "/>
<path fill-rule="evenodd" fill="rgb(100%, 54.899597%, 0%)" fill-opacity="0.1" d="M 140.773438 41.734375 C 140.773438 43.535156 140.261719 45.589844 140.773438 47.648438 C 141.289062 49.707031 142.832031 51.765625 143.863281 54.339844 C 144.890625 56.914062 145.40625 60 144.890625 62.574219 C 144.378906 65.144531 142.832031 67.203125 144.121094 69.261719 C 145.40625 71.320312 149.523438 73.378906 154.667969 73.378906 C 159.816406 73.378906 165.988281 71.320312 170.105469 68.234375 C 174.222656 65.144531 176.28125 61.03125 176.28125 55.882812 C 176.28125 50.738281 174.222656 44.5625 170.105469 42.246094 C 165.988281 39.929688 159.816406 41.472656 154.410156 41.21875 C 149.007812 40.960938 144.378906 38.902344 142.320312 38.644531 C 140.261719 38.386719 140.773438 39.929688 140.773438 41.734375 Z M 140.773438 41.734375 "/>
<path fill-rule="evenodd" fill="rgb(100%, 54.899597%, 0%)" fill-opacity="0.1" d="M 142.601562 43.171875 C 142.601562 44.792969 142.140625 46.648438 142.601562 48.5 C 143.066406 50.351562 144.453125 52.203125 145.378906 54.519531 C 146.308594 56.835938 146.769531 59.613281 146.308594 61.929688 C 145.84375 64.246094 144.453125 66.097656 145.613281 67.949219 C 146.769531 69.804688 150.476562 71.65625 155.105469 71.65625 C 159.738281 71.65625 165.296875 69.804688 169 67.023438 C 172.703125 64.246094 174.558594 60.539062 174.558594 55.910156 C 174.558594 51.277344 172.703125 45.71875 169 43.636719 C 165.296875 41.550781 159.738281 42.941406 154.875 42.710938 C 150.011719 42.480469 145.84375 40.625 143.992188 40.394531 C 142.140625 40.164062 142.601562 41.550781 142.601562 43.171875 Z M 142.601562 43.171875 "/>
<path fill-rule="evenodd" fill="rgb(100%, 54.899597%, 0%)" fill-opacity="0.1" d="M 144.246094 44.46875 C 144.246094 45.929688 143.828125 47.59375 144.246094 49.261719 C 144.664062 50.929688 145.914062 52.597656 146.746094 54.679688 C 147.582031 56.765625 147.996094 59.265625 147.582031 61.351562 C 147.164062 63.433594 145.914062 65.101562 146.957031 66.769531 C 147.996094 68.4375 151.332031 70.105469 155.5 70.105469 C 159.667969 70.105469 164.671875 68.4375 168.003906 65.933594 C 171.339844 63.433594 173.007812 60.101562 173.007812 55.929688 C 173.007812 51.761719 171.339844 46.761719 168.003906 44.886719 C 164.671875 43.011719 159.667969 44.261719 155.292969 44.050781 C 150.914062 43.84375 147.164062 42.175781 145.496094 41.96875 C 143.828125 41.757812 144.246094 43.011719 144.246094 44.46875 Z M 144.246094 44.46875 "/>
<path fill-rule="evenodd" fill="rgb(100%, 54.899597%, 0%)" fill-opacity="0.1" d="M 145.726562 45.636719 C 145.726562 46.949219 145.351562 48.449219 145.726562 49.949219 C 146.101562 51.449219 147.226562 52.953125 147.976562 54.828125 C 148.726562 56.703125 149.101562 58.953125 148.726562 60.828125 C 148.351562 62.707031 147.226562 64.207031 148.164062 65.707031 C 149.101562 67.207031 152.101562 68.707031 155.855469 68.707031 C 159.605469 68.707031 164.109375 67.207031 167.109375 64.957031 C 170.109375 62.707031 171.609375 59.703125 171.609375 55.953125 C 171.609375 52.203125 170.109375 47.699219 167.109375 46.011719 C 164.109375 44.324219 159.605469 45.449219 155.667969 45.261719 C 151.726562 45.074219 148.351562 43.574219 146.851562 43.386719 C 145.351562 43.199219 145.726562 44.324219 145.726562 45.636719 Z M 145.726562 45.636719 "/>
<path fill="none" stroke-width="0.8" stroke-linecap="butt" stroke-linejoin="round" stroke="rgb(0%, 0%, 0%)" stroke-opacity="1" stroke-miterlimit="10" d="M 254.667541 279.333196 C 254.667541 274.667023 253.334348 269.334253 254.667541 264.001483 C 256.000733 258.668713 260.00031 253.332023 262.666695 246.66606 C 265.33308 240.000098 266.666273 232.000944 265.33308 225.331061 C 263.999888 218.665098 260.00031 213.332329 263.333291 207.999559 C 266.666273 202.666789 277.331812 197.33402 290.667657 197.33402 C 303.999582 197.33402 320.001812 202.666789 330.667351 210.665944 C 341.332891 218.665098 346.66566 229.334559 346.66566 242.666483 C 346.66566 255.998407 341.332891 272.000638 330.667351 278.000004 C 320.001812 283.99937 303.999582 279.999792 290.001061 280.666388 C 275.99862 281.332985 263.999888 286.665754 258.667118 287.332351 C 253.334348 287.998947 254.667541 283.99937 254.667541 279.333196 Z M 254.667541 279.333196 " transform="matrix(0.996199, 0, 0, -0.996199, -141.808932, 297.220677)"/>
<path fill="none" stroke-width="0.8" stroke-linecap="butt" stroke-linejoin="round" stroke="rgb(0%, 0%, 50.19989%)" stroke-opacity="1" stroke-miterlimit="10" d="M 259.400374 275.600257 C 259.400374 271.400701 258.200501 266.601208 259.400374 261.801716 C 260.600247 256.998302 264.199867 252.198809 266.599613 246.199443 C 268.999359 240.200077 270.199232 233.000838 268.999359 227.001472 C 267.799486 220.998185 264.199867 216.198692 267.19955 211.3992 C 270.199232 206.599707 279.798218 201.800214 291.800871 201.800214 C 303.799603 201.800214 318.198081 206.599707 327.800988 213.798946 C 337.399973 220.998185 342.199466 230.601092 342.199466 242.599824 C 342.199466 254.598555 337.399973 269.000955 327.800988 274.400384 C 318.198081 279.799813 303.799603 276.200194 291.200934 276.80013 C 278.598345 277.400067 267.799486 282.19956 262.999993 282.799496 C 258.200501 283.399433 259.400374 279.799813 259.400374 275.600257 Z M 259.400374 275.600257 " transform="matrix(0.996199, 0, 0, -0.996199, -141.808932, 297.220677)"/>
<path fill="none" stroke-width="0.8" stroke-linecap="butt" stroke-linejoin="round" stroke="rgb(64.698792%, 16.499329%, 16.499329%)" stroke-opacity="1" stroke-miterlimit="10" d="M 263.658747 272.239828 C 263.658747 268.459835 262.58043 264.138724 263.658747 259.821533 C 264.740986 255.500421 267.979859 251.179309 270.140415 245.77988 C 272.300971 240.38045 273.379289 233.898782 272.300971 228.499353 C 271.218733 223.099924 267.979859 218.778812 270.681534 214.461621 C 273.379289 210.140509 282.021512 205.819397 292.820371 205.819397 C 303.61923 205.819397 316.578644 210.140509 325.220868 216.618256 C 333.859171 223.099924 338.180283 231.738226 338.180283 242.541006 C 338.180283 253.339865 333.859171 266.29928 325.220868 271.161511 C 316.578644 276.019821 303.61923 272.780947 292.279252 273.318146 C 280.939274 273.859265 271.218733 278.180377 266.901542 278.721496 C 262.58043 279.258694 263.658747 276.019821 263.658747 272.239828 Z M 263.658747 272.239828 " transform="matrix(0.996199, 0, 0, -0.996199, -141.808932, 297.220677)"/>
<path fill="none" stroke-width="0.8" stroke-linecap="butt" stroke-linejoin="round" stroke="rgb(17.999268%, 54.499817%, 34.098816%)" stroke-opacity="1" stroke-miterlimit="10" d="M 267.493636 269.216618 C 267.493636 265.813056 266.52119 261.927193 267.493636 258.037408 C 268.466082 254.151544 271.383421 250.261759 273.324392 245.403449 C 275.269285 240.541218 276.241731 234.710461 275.269285 229.84823 C 274.296839 224.98992 271.383421 221.100135 273.810615 217.214271 C 276.241731 213.324486 284.01738 209.438623 293.737921 209.438623 C 303.458462 209.438623 315.123896 213.324486 322.899545 219.159164 C 330.675194 224.98992 334.561057 232.765569 334.561057 242.48611 C 334.561057 252.206651 330.675194 263.868164 322.899545 268.244172 C 315.123896 272.616259 303.458462 269.702841 293.251698 270.189064 C 283.044934 270.675288 274.296839 274.561151 270.410975 275.047375 C 266.52119 275.533598 267.493636 272.616259 267.493636 269.216618 Z M 267.493636 269.216618 " transform="matrix(0.996199, 0, 0, -0.996199, -141.808932, 297.220677)"/>
<path fill="none" stroke-width="0.8" stroke-linecap="butt" stroke-linejoin="round" stroke="rgb(0%, 39.199829%, 0%)" stroke-opacity="1" stroke-miterlimit="10" d="M 270.944252 266.495337 C 270.944252 263.432916 270.069834 259.931325 270.944252 256.433656 C 271.818669 252.935986 274.445842 249.434395 276.194677 245.062308 C 277.943512 240.6863 278.817929 235.439796 277.943512 231.063788 C 277.069095 226.691701 274.445842 223.19011 276.629925 219.692441 C 278.817929 216.194771 285.81719 212.693181 294.565285 212.693181 C 303.31338 212.693181 313.810309 216.194771 320.80957 221.441276 C 327.80883 226.691701 331.306499 233.68704 331.306499 242.435135 C 331.306499 251.18323 327.80883 261.684081 320.80957 265.62092 C 313.810309 269.557759 303.31338 266.930585 294.126115 267.369755 C 284.942772 267.805003 277.069095 271.306593 273.567504 271.741842 C 270.069834 272.181011 270.944252 269.557759 270.944252 266.495337 Z M 270.944252 266.495337 " transform="matrix(0.996199, 0, 0, -0.996199, -141.808932, 297.220677)"/>
<path fill="none" stroke-width="0.8" stroke-linecap="butt" stroke-linejoin="round" stroke="rgb(0%, 0%, 0%)" stroke-opacity="1" stroke-miterlimit="10" d="M 274.049806 264.044616 C 274.049806 261.288044 273.261654 258.139358 274.049806 254.990671 C 274.837958 251.841984 277.198493 248.693297 278.774797 244.756458 C 280.34718 240.81962 281.135332 236.094629 280.34718 232.15779 C 279.562949 228.220951 277.198493 225.072264 279.166912 221.923578 C 281.135332 218.774891 287.436626 215.622283 295.306383 215.622283 C 303.18006 215.622283 312.630042 218.774891 318.927416 223.499882 C 325.224789 228.220951 328.373476 234.518325 328.373476 242.392002 C 328.373476 250.26568 325.224789 259.715662 318.927416 263.256464 C 312.630042 266.801187 303.18006 264.436731 294.914267 264.832768 C 286.648474 265.224883 279.562949 268.37357 276.410341 268.769607 C 273.261654 269.161722 274.049806 266.801187 274.049806 264.044616 Z M 274.049806 264.044616 " transform="matrix(0.996199, 0, 0, -0.996199, -141.808932, 297.220677)"/>
<path fill="none" stroke-width="0.8" stroke-linecap="butt" stroke-linejoin="round" stroke="rgb(27.099609%, 54.499817%, 45.498657%)" stroke-opacity="1" stroke-miterlimit="10" d="M 276.845589 261.840927 C 276.845589 259.362758 276.13586 256.527763 276.845589 253.692769 C 277.555318 250.857774 279.680583 248.02278 281.09612 244.481978 C 282.515578 240.937254 283.221386 236.686723 282.515578 233.142 C 281.805849 229.601197 279.680583 226.766203 281.452945 223.931208 C 283.221386 221.096214 288.891374 218.26122 295.9769 218.26122 C 303.062426 218.26122 311.567409 221.096214 317.233477 225.350666 C 322.903466 229.601197 325.73846 235.267265 325.73846 242.356712 C 325.73846 249.442238 322.903466 257.9433 317.233477 261.131198 C 311.567409 264.319097 303.062426 262.193831 295.623996 262.550656 C 288.181646 262.90356 281.805849 265.738554 278.970854 266.091458 C 276.13586 266.448283 276.845589 264.319097 276.845589 261.840927 Z M 276.845589 261.840927 " transform="matrix(0.996199, 0, 0, -0.996199, -141.808932, 297.220677)"/>
<path fill="none" stroke-width="0.8" stroke-linecap="butt" stroke-linejoin="round" stroke="rgb(0%, 0%, 54.499817%)" stroke-opacity="1" stroke-miterlimit="10" d="M 279.359049 259.856823 C 279.359049 257.625686 278.723822 255.073015 279.359049 252.524265 C 279.998197 249.971593 281.91172 247.422843 283.186095 244.231024 C 284.46047 241.043125 285.099618 237.216079 284.46047 234.028181 C 283.825243 230.840282 281.91172 228.287611 283.50763 225.738861 C 285.099618 223.186189 290.20104 220.637439 296.580758 220.637439 C 302.956555 220.637439 310.610648 223.186189 315.712069 227.013236 C 320.813491 230.840282 323.362241 235.941704 323.362241 242.3175 C 323.362241 248.697218 320.813491 256.34739 315.712069 259.217675 C 310.610648 262.08796 302.956555 260.174437 296.259223 260.49205 C 289.565813 260.813585 283.825243 263.362335 281.272572 263.68387 C 278.723822 264.001483 279.359049 262.08796 279.359049 259.856823 Z M 279.359049 259.856823 " transform="matrix(0.996199, 0, 0, -0.996199, -141.808932, 297.220677)"/>
<path fill="none" stroke-width="0.8" stroke-linecap="butt" stroke-linejoin="round" stroke="rgb(54.499817%, 13.699341%, 13.699341%)" stroke-opacity="1" stroke-miterlimit="10" d="M 281.625476 258.072698 C 281.625476 256.061146 281.049066 253.767271 281.625476 251.469474 C 282.197964 249.175599 283.919351 246.877803 285.068249 244.007518 C 286.217147 241.137233 286.789636 237.69446 286.217147 234.824175 C 285.640738 231.957811 283.919351 229.660015 285.354493 227.362218 C 286.789636 225.068343 291.381307 222.770547 297.121877 222.770547 C 302.862447 222.770547 309.747994 225.068343 314.339665 228.511117 C 318.931337 231.957811 321.229133 236.545562 321.229133 242.286131 C 321.229133 248.026701 318.931337 254.912248 314.339665 257.496288 C 309.747994 260.080329 302.862447 258.358942 296.835633 258.645187 C 290.808819 258.931431 285.640738 261.225306 283.346862 261.515471 C 281.049066 261.801716 281.625476 260.080329 281.625476 258.072698 Z M 281.625476 258.072698 " transform="matrix(0.996199, 0, 0, -0.996199, -141.808932, 297.220677)"/>
<path fill="none" stroke-width="0.8" stroke-linecap="butt" stroke-linejoin="round" stroke="rgb(32.499695%, 52.49939%, 54.499817%)" stroke-opacity="1" stroke-miterlimit="10" d="M 283.660555 256.461104 C 283.660555 254.653452 283.146884 252.590924 283.660555 250.524476 C 284.178147 248.458028 285.727003 246.39158 286.762188 243.807539 C 287.793451 241.223498 288.311044 238.125787 287.793451 235.541746 C 287.27978 232.961627 285.727003 230.895178 287.020984 228.82873 C 288.311044 226.762282 292.44394 224.695834 297.6081 224.695834 C 302.776181 224.695834 308.971605 226.762282 313.104502 229.859994 C 317.237398 232.961627 319.303846 237.090602 319.303846 242.258683 C 319.303846 247.422843 317.237398 253.622188 313.104502 255.947432 C 308.971605 258.272677 302.776181 256.723821 297.349304 256.978696 C 291.926348 257.237492 287.27978 259.30394 285.213332 259.562737 C 283.146884 259.821533 283.660555 258.272677 283.660555 256.461104 Z M 283.660555 256.461104 " transform="matrix(0.996199, 0, 0, -0.996199, -141.808932, 297.220677)"/>
<path fill="none" stroke-width="0.8" stroke-linecap="butt" stroke-linejoin="round" stroke="rgb(13.299561%, 54.499817%, 13.299561%)" stroke-opacity="1" stroke-miterlimit="10" d="M 285.495655 255.018119 C 285.495655 253.39084 285.032959 251.528292 285.495655 249.669665 C 285.962272 247.811038 287.354282 245.95241 288.283596 243.627166 C 289.21683 241.301922 289.679526 238.513981 289.21683 236.188736 C 288.750213 233.863492 287.354282 232.004865 288.518865 230.146238 C 289.679526 228.28369 293.400702 226.425063 298.04727 226.425063 C 302.697758 226.425063 308.277561 228.28369 311.994815 231.075551 C 315.712069 233.863492 317.574617 237.584667 317.574617 242.231235 C 317.574617 246.881724 315.712069 252.461526 311.994815 254.551502 C 308.277561 256.645398 302.697758 255.249467 297.815921 255.480815 C 292.934084 255.712163 288.750213 257.574711 286.891586 257.80606 C 285.032959 258.037408 285.495655 256.645398 285.495655 255.018119 Z M 285.495655 255.018119 " transform="matrix(0.996199, 0, 0, -0.996199, -141.808932, 297.220677)"/>
<path fill="none" stroke-width="0.8" stroke-linecap="butt" stroke-linejoin="round" stroke="rgb(0%, 0%, 0%)" stroke-opacity="1" stroke-miterlimit="10" d="M 287.146461 253.716296 C 287.146461 252.249784 286.726897 250.579372 287.146461 248.90504 C 287.566024 247.230707 288.820794 245.556374 289.656 243.466399 C 290.495127 241.372502 290.910769 238.862964 290.495127 236.769067 C 290.075563 234.679092 288.820794 233.004759 289.867742 231.330426 C 290.910769 229.656094 294.259435 227.981761 298.443306 227.981761 C 302.627178 227.981761 307.650176 229.656094 310.994921 232.169553 C 314.343586 234.679092 316.017919 238.023837 316.017919 242.211629 C 316.017919 246.395501 314.343586 251.414578 310.994921 253.296732 C 307.650176 255.178886 302.627178 253.924117 298.235485 254.135859 C 293.839871 254.34368 290.075563 256.018013 288.40123 256.225834 C 286.726897 256.437577 287.146461 255.178886 287.146461 253.716296 Z M 287.146461 253.716296 " transform="matrix(0.996199, 0, 0, -0.996199, -141.808932, 297.220677)"/>
<path fill="none" stroke-width="0.8" stroke-linecap="butt" stroke-linejoin="round" stroke="rgb(0%, 0%, 0%)" stroke-opacity="1" stroke-miterlimit="10" d="M 288.632578 252.543871 C 288.632578 251.226363 288.256148 249.72064 288.632578 248.214916 C 289.009009 246.709193 290.138302 245.199549 290.891163 243.317395 C 291.644025 241.435241 292.020456 239.176656 291.644025 237.294502 C 291.267594 235.408427 290.138302 233.902704 291.079379 232.39698 C 292.020456 230.891257 295.031902 229.385534 298.800131 229.385534 C 302.564439 229.385534 307.08553 230.891257 310.096976 233.149842 C 313.108423 235.408427 314.614146 238.423794 314.614146 242.188102 C 314.614146 245.95241 313.108423 250.473501 310.096976 252.16744 C 307.08553 253.861378 302.564439 252.732086 298.611916 252.920301 C 294.655471 253.108517 291.267594 254.61424 289.761871 254.802455 C 288.256148 254.990671 288.632578 253.861378 288.632578 252.543871 Z M 288.632578 252.543871 " transform="matrix(0.996199, 0, 0, -0.996199, -141.808932, 297.220677)"/>
<path fill="none" stroke-width="0.8" stroke-linecap="butt" stroke-linejoin="round" stroke="rgb(0%, 0%, 0%)" stroke-opacity="1" stroke-miterlimit="10" d="M 291.306805 250.43429 C 291.306805 249.379499 291.004877 248.175705 291.306805 246.971911 C 291.608734 245.764195 292.5106 244.560401 293.114458 243.054677 C 293.714394 241.548954 294.016323 239.741302 293.714394 238.235579 C 293.412465 236.729856 292.5106 235.52214 293.263461 234.318346 C 294.016323 233.114552 296.427833 231.906836 299.439279 231.906836 C 302.450726 231.906836 306.06603 233.114552 308.47754 234.922204 C 310.885128 236.729856 312.092844 239.137444 312.092844 242.152812 C 312.092844 245.164258 310.885128 248.779563 308.47754 250.132361 C 306.06603 251.48908 302.450726 250.587215 299.290275 250.736219 C 296.125904 250.885222 293.412465 252.092938 292.208671 252.241942 C 291.004877 252.394867 291.306805 251.48908 291.306805 250.43429 Z M 291.306805 250.43429 " transform="matrix(0.996199, 0, 0, -0.996199, -141.808932, 297.220677)"/>
<path fill="none" stroke-width="0.8" stroke-linecap="butt" stroke-linejoin="round" stroke="rgb(0%, 0%, 0%)" stroke-opacity="1" stroke-miterlimit="10" d="M 293.443835 248.748193 C 293.443835 247.905145 293.204644 246.940541 293.443835 245.975937 C 293.686946 245.011333 294.408438 244.050651 294.89074 242.842935 C 295.373042 241.639141 295.612233 240.192235 295.373042 238.988441 C 295.129931 237.784646 294.408438 236.820042 295.012296 235.855438 C 295.612233 234.890834 297.541441 233.926231 299.95295 233.926231 C 302.360539 233.926231 305.254351 234.890834 307.183559 236.33774 C 309.108846 237.784646 310.073449 239.709933 310.073449 242.121443 C 310.073449 244.532953 309.108846 247.422843 307.183559 248.505082 C 305.254351 249.591242 302.360539 248.869749 299.831395 248.987384 C 297.298329 249.10894 295.129931 250.073543 294.165327 250.195099 C 293.204644 250.316655 293.443835 249.591242 293.443835 248.748193 Z M 293.443835 248.748193 " transform="matrix(0.996199, 0, 0, -0.996199, -141.808932, 297.220677)"/>
<path fill-rule="evenodd" fill="rgb(54.499817%, 0%, 54.499817%)" fill-opacity="0.1" d="M 148.390625 47.738281 C 148.390625 48.789062 148.089844 49.988281 148.390625 51.1875 C 148.691406 52.390625 149.589844 53.589844 150.191406 55.089844 C 150.789062 56.589844 151.089844 58.390625 150.789062 59.890625 C 150.488281 61.390625 149.589844 62.59375 150.339844 63.792969 C 151.089844 64.992188 153.492188 66.195312 156.492188 66.195312 C 159.492188 66.195312 163.09375 64.992188 165.496094 63.191406 C 167.894531 61.390625 169.097656 58.992188 169.097656 55.988281 C 169.097656 52.988281 167.894531 49.386719 165.496094 48.039062 C 163.09375 46.6875 159.492188 47.585938 156.34375 47.4375 C 153.191406 47.289062 150.488281 46.085938 149.289062 45.9375 C 148.089844 45.785156 148.390625 46.6875 148.390625 47.738281 Z M 148.390625 47.738281 "/>
<path fill-rule="evenodd" fill="rgb(100%, 100%, 100%)" fill-opacity="0.1" d="M 150.519531 49.417969 C 150.519531 50.257812 150.28125 51.21875 150.519531 52.179688 C 150.761719 53.140625 151.480469 54.097656 151.960938 55.300781 C 152.441406 56.5 152.679688 57.941406 152.441406 59.140625 C 152.199219 60.339844 151.480469 61.300781 152.082031 62.261719 C 152.679688 63.222656 154.601562 64.183594 157.003906 64.183594 C 159.402344 64.183594 162.285156 63.222656 164.207031 61.78125 C 166.125 60.339844 167.085938 58.421875 167.085938 56.019531 C 167.085938 53.617188 166.125 50.738281 164.207031 49.660156 C 162.285156 48.578125 159.402344 49.296875 156.882812 49.179688 C 154.359375 49.058594 152.199219 48.097656 151.238281 47.976562 C 150.28125 47.855469 150.519531 48.578125 150.519531 49.417969 Z M 150.519531 49.417969 "/>
<path fill-rule="evenodd" fill="rgb(100%, 0%, 0%)" fill-opacity="1" d="M 162.828125 58.132812 C 162.828125 57.144531 162.027344 56.339844 161.035156 56.339844 C 160.046875 56.339844 159.242188 57.144531 159.242188 58.132812 C 159.242188 59.125 160.046875 59.925781 161.035156 59.925781 C 162.027344 59.925781 162.828125 59.125 162.828125 58.132812 "/>
</svg>
