<?xml version="1.0" encoding="UTF-8"?>
<svg xmlns="http://www.w3.org/2000/svg" xmlns:xlink="http://www.w3.org/1999/xlink" width="208.4" height="112.4" viewBox="0 0 208.4 112.4">
<defs>
<clipPath id="clip-0">
<path clip-rule="nonzero" d="M 0.253906 0 L 207.546875 0 L 207.546875 111.804688 L 0.253906 111.804688 Z M 0.253906 0 "/>
</clipPath>
</defs>
<path fill-rule="evenodd" fill="rgb(70.199585%, 93.299866%, 22.698975%)" fill-opacity="0.5" stroke-width="0.8" stroke-linecap="butt" stroke-linejoin="round" stroke="rgb(0%, 0%, 0%)" stroke-opacity="0.5" stroke-miterlimit="10" d="M 254.666764 279.331381 C 254.666764 274.665984 253.331549 269.332979 254.666764 263.999975 C 255.998051 258.666971 259.999768 253.333966 262.66627 246.665747 C 265.332772 240.001455 266.667987 232.001949 265.332772 225.33373 C 264.001485 218.665511 259.999768 213.332507 263.333877 207.999502 C 266.667987 202.666498 277.333995 197.333494 290.666506 197.333494 C 303.999017 197.333494 320.001957 202.666498 330.667966 210.666005 C 341.333975 218.665511 346.666979 229.33152 346.666979 242.667958 C 346.666979 256.000468 341.333975 271.999481 330.667966 278.000093 C 320.001957 284.000705 303.999017 279.998988 289.998899 280.666595 C 275.998781 281.334203 264.001485 286.667207 258.66848 287.334814 C 253.331549 287.998494 254.666764 284.000705 254.666764 279.331381 Z M 254.666764 279.331381 " transform="matrix(0.99469, 0, 0, -0.99469, -138.802832, 298.606018)"/>
<path fill-rule="evenodd" fill="rgb(60.798645%, 18.798828%, 100%)" fill-opacity="0.5" stroke-width="0.8" stroke-linecap="butt" stroke-linejoin="round" stroke="rgb(0%, 0%, 0%)" stroke-opacity="0.5" stroke-miterlimit="10" d="M 183.998565 244.666852 C 180.000776 238.666241 175.999059 233.333236 174.000164 228.000232 C 172.001269 222.667228 172.001269 217.334223 167.331945 214.667721 C 162.666548 212.001219 153.331827 212.001219 147.998823 219.333118 C 142.665818 226.668945 141.334531 241.332743 145.999928 254.001574 C 150.665325 266.666477 161.331333 277.332486 167.999552 279.998988 C 174.667771 282.66549 177.334274 277.332486 181.332063 273.998376 C 185.33378 270.668194 190.666784 269.332979 193.333287 268.001692 C 195.999789 266.666477 195.999789 265.331263 194.000894 261.333473 C 191.998072 257.331756 188.000282 250.667464 183.998565 244.666852 Z M 183.998565 244.666852 " transform="matrix(0.99469, 0, 0, -0.99469, -138.802832, 298.606018)"/>
<path fill-rule="evenodd" fill="rgb(100%, 60.099792%, 60.099792%)" fill-opacity="0.5" stroke-width="0.8" stroke-linecap="butt" stroke-linejoin="round" stroke="rgb(0%, 0%, 0%)" stroke-opacity="0.5" stroke-miterlimit="10" d="M 285.333502 263.999975 C 288.000004 258.666971 288.000004 253.333966 287.332397 249.999857 C 286.668717 246.665747 285.333502 245.33446 286.668717 243.999245 C 288.000004 242.667958 292.001721 241.332743 295.331903 238.666241 C 298.666013 235.999739 301.332515 232.001949 307.333127 232.001949 C 313.333738 232.001949 322.668459 235.999739 327.333856 243.999245 C 331.999254 251.998752 331.999254 263.999975 324.667354 273.998376 C 317.331528 284.000705 302.66773 292.000211 292.665401 292.667819 C 282.667 293.331499 277.333995 286.667207 277.333995 280.666595 C 277.333995 274.665984 282.667 269.332979 285.333502 263.999975 Z M 285.333502 263.999975 " transform="matrix(0.99469, 0, 0, -0.99469, -138.802832, 298.606018)"/>
<path fill-rule="evenodd" fill="rgb(60.798645%, 18.798828%, 100%)" fill-opacity="0.5" stroke-width="0.8" stroke-linecap="butt" stroke-linejoin="round" stroke="rgb(0%, 0%, 0%)" stroke-opacity="0.5" stroke-miterlimit="10" d="M 233.998426 242.00035 C 238.667751 241.332743 245.332042 238.666241 251.332654 238.666241 C 257.333266 238.666241 262.66627 241.332743 269.334489 244.666852 C 275.998781 248.000962 283.998287 251.998752 279.33289 261.333473 C 274.667493 270.668194 257.333266 285.331992 245.99965 282.66549 C 234.666034 279.998988 229.333029 259.998258 228.001742 250.667464 C 226.666527 241.332743 229.333029 242.667958 233.998426 242.00035 Z M 233.998426 242.00035 " transform="matrix(0.99469, 0, 0, -0.99469, -138.802832, 298.606018)"/>
<path fill-rule="evenodd" fill="rgb(56.498718%, 93.299866%, 56.498718%)" fill-opacity="0.5" stroke-width="0.8" stroke-linecap="butt" stroke-linejoin="round" stroke="rgb(0%, 0%, 0%)" stroke-opacity="0.5" stroke-miterlimit="10" d="M 245.332042 234.000844 C 247.998545 238.666241 247.998545 245.33446 231.999532 253.333966 C 216.000519 261.333473 183.998565 270.668194 178.665561 268.665372 C 173.332557 266.666477 194.668501 253.333966 206.665797 235.999739 C 218.667021 218.665511 221.333523 197.333494 224.000025 194.666991 C 226.666527 192.000489 229.333029 207.999502 233.334746 217.334223 C 237.332536 226.668945 242.66554 229.33152 245.332042 234.000844 Z M 245.332042 234.000844 " transform="matrix(0.99469, 0, 0, -0.99469, -138.802832, 298.606018)"/>
<path fill-rule="evenodd" fill="rgb(37.298584%, 61.999512%, 62.69989%)" fill-opacity="0.5" stroke-width="0.8" stroke-linecap="butt" stroke-linejoin="round" stroke="rgb(0%, 0%, 0%)" stroke-opacity="0.5" stroke-miterlimit="10" d="M 225.331313 257.331756 C 226.666527 262.668687 229.333029 269.332979 231.999532 273.998376 C 234.666034 278.6677 237.332536 281.334203 233.334746 284.000705 C 229.333029 286.667207 218.667021 289.333709 207.333405 287.998494 C 195.999789 286.667207 183.998565 281.334203 177.334274 274.665984 C 170.666055 268.001692 169.334767 259.998258 178.001881 254.665254 C 186.665068 249.332249 205.33451 246.665747 214.665304 247.333355 C 224.000025 248.000962 224.000025 251.998752 225.331313 257.331756 Z M 225.331313 257.331756 " transform="matrix(0.99469, 0, 0, -0.99469, -138.802832, 298.606018)"/>
<path fill-rule="evenodd" fill="rgb(100%, 60.099792%, 60.099792%)" fill-opacity="0.5" stroke-width="0.8" stroke-linecap="butt" stroke-linejoin="round" stroke="rgb(0%, 0%, 0%)" stroke-opacity="0.5" stroke-miterlimit="10" d="M 198.666291 245.33446 C 205.33451 243.999245 210.667514 243.999245 214.001624 243.331638 C 217.331806 242.667958 218.667021 241.332743 218.667021 238.666241 C 218.667021 235.999739 217.331806 232.001949 216.668126 228.000232 C 216.000519 223.998515 216.000519 220.000726 217.331806 215.999009 C 218.667021 212.001219 221.333523 207.999502 211.998802 206.000607 C 202.668008 204.001713 181.332063 204.001713 170.666055 212.001219 C 160.000046 220.000726 160.000046 235.999739 162.666548 243.999245 C 165.33305 251.998752 170.666055 251.998752 177.334274 250.667464 C 183.998565 249.332249 191.998072 246.665747 198.666291 245.33446 Z M 198.666291 245.33446 " transform="matrix(0.99469, 0, 0, -0.99469, -138.802832, 298.606018)"/>
<path fill-rule="evenodd" fill="rgb(100%, 49.798584%, 31.399536%)" fill-opacity="0.5" stroke-width="0.8" stroke-linecap="butt" stroke-linejoin="round" stroke="rgb(0%, 0%, 0%)" stroke-opacity="0.5" stroke-miterlimit="10" d="M 235.333641 262.668687 C 239.999038 259.998258 244.000755 256.000468 246.667257 260.665865 C 249.333759 265.331263 250.665047 278.6677 245.99965 286.667207 C 241.334253 294.666713 230.668244 297.333216 217.999413 297.333216 C 205.33451 297.333216 190.666784 294.666713 184.666173 290.001316 C 178.665561 285.331992 181.332063 278.6677 188.66789 274.665984 C 195.999789 270.668194 208.001012 269.332979 216.668126 268.001692 C 225.331313 266.666477 230.668244 265.331263 235.333641 262.668687 Z M 235.333641 262.668687 " transform="matrix(0.99469, 0, 0, -0.99469, -138.802832, 298.606018)"/>
<path fill-rule="evenodd" fill="rgb(67.799377%, 84.698486%, 90.19928%)" fill-opacity="0.5" stroke-width="0.8" stroke-linecap="butt" stroke-linejoin="round" stroke="rgb(0%, 0%, 0%)" stroke-opacity="0.5" stroke-miterlimit="10" d="M 277.895571 242.585488 C 286.130704 242.216341 294.448305 232.779515 296.513961 221.033553 C 298.579617 209.287592 294.389399 195.232494 279.517464 192.012271 C 264.645529 188.792047 239.08795 196.410625 227.958544 208.074117 C 216.82521 219.741537 220.116121 235.457799 226.752923 239.043243 C 233.385798 242.632614 243.364564 234.091167 252.432243 234.173636 C 261.499921 234.252178 269.656511 242.950709 277.895571 242.585488 Z M 277.895571 242.585488 " transform="matrix(0.99469, 0, 0, -0.99469, -138.802832, 298.606018)"/>
<path fill-rule="evenodd" fill="rgb(100%, 54.899597%, 0%)" fill-opacity="0.1" d="M 114.511719 20.757812 C 114.511719 25.398438 113.183594 30.703125 114.511719 36.007812 C 115.835938 41.3125 119.816406 46.617188 122.46875 53.25 C 125.121094 59.878906 126.449219 67.835938 125.121094 74.46875 C 123.796875 81.101562 119.816406 86.40625 123.132812 91.710938 C 126.449219 97.015625 137.058594 102.320312 150.320312 102.320312 C 163.582031 102.320312 179.5 97.015625 190.109375 89.058594 C 200.71875 81.101562 206.023438 70.492188 206.023438 57.226562 C 206.023438 43.964844 200.71875 28.050781 190.109375 22.082031 C 179.5 16.113281 163.582031 20.09375 149.65625 19.429688 C 135.730469 18.765625 123.796875 13.460938 118.492188 12.796875 C 113.183594 12.136719 114.511719 16.113281 114.511719 20.757812 Z M 114.511719 20.757812 "/>
<path fill-rule="evenodd" fill="rgb(0%, 0%, 100%)" fill-opacity="0.1" d="M 119.21875 24.46875 C 119.21875 28.648438 118.027344 33.421875 119.21875 38.195312 C 120.414062 42.96875 123.996094 47.746094 126.382812 53.714844 C 128.769531 59.679688 129.960938 66.84375 128.769531 72.8125 C 127.574219 78.78125 123.996094 83.554688 126.976562 88.328125 C 129.960938 93.101562 139.511719 97.878906 151.449219 97.878906 C 163.382812 97.878906 177.707031 93.101562 187.257812 85.941406 C 196.804688 78.78125 201.582031 69.230469 201.582031 57.292969 C 201.582031 45.359375 196.804688 31.035156 187.257812 25.664062 C 177.707031 20.292969 163.382812 23.871094 150.851562 23.277344 C 138.316406 22.679688 127.574219 17.90625 122.800781 17.308594 C 118.027344 16.710938 119.21875 20.292969 119.21875 24.46875 Z M 119.21875 24.46875 "/>
<path fill-rule="evenodd" fill="rgb(100%, 54.899597%, 0%)" fill-opacity="0.1" d="M 123.457031 27.8125 C 123.457031 31.570312 122.382812 35.867188 123.457031 40.164062 C 124.53125 44.460938 127.753906 48.757812 129.902344 54.132812 C 132.050781 59.503906 133.125 65.949219 132.050781 71.320312 C 130.976562 76.691406 127.753906 80.988281 130.441406 85.285156 C 133.125 89.582031 141.71875 93.878906 152.460938 93.878906 C 163.203125 93.878906 176.097656 89.582031 184.691406 83.136719 C 193.285156 76.691406 197.582031 68.097656 197.582031 57.355469 C 197.582031 46.609375 193.285156 33.71875 184.691406 28.886719 C 176.097656 24.050781 163.203125 27.273438 151.925781 26.738281 C 140.644531 26.199219 130.976562 21.902344 126.679688 21.367188 C 122.382812 20.828125 123.457031 24.050781 123.457031 27.8125 Z M 123.457031 27.8125 "/>
<path fill-rule="evenodd" fill="rgb(100%, 100%, 0%)" fill-opacity="0.1" d="M 127.269531 30.820312 C 127.269531 34.203125 126.304688 38.070312 127.269531 41.9375 C 128.238281 45.804688 131.136719 49.671875 133.070312 54.507812 C 135.003906 59.339844 135.972656 65.140625 135.003906 69.976562 C 134.039062 74.8125 131.136719 78.679688 133.554688 82.546875 C 135.972656 86.414062 143.707031 90.28125 153.375 90.28125 C 163.042969 90.28125 174.644531 86.414062 182.378906 80.613281 C 190.117188 74.8125 193.984375 67.074219 193.984375 57.40625 C 193.984375 47.738281 190.117188 36.136719 182.378906 31.785156 C 174.644531 27.4375 163.042969 30.335938 152.890625 29.851562 C 142.742188 29.371094 134.039062 25.5 130.171875 25.019531 C 126.304688 24.535156 127.269531 27.4375 127.269531 30.820312 Z M 127.269531 30.820312 "/>
<path fill-rule="evenodd" fill="rgb(0%, 0%, 0%)" fill-opacity="0.1" d="M 130.703125 33.527344 C 130.703125 36.574219 129.832031 40.054688 130.703125 43.535156 C 131.574219 47.015625 134.183594 50.496094 135.925781 54.84375 C 137.664062 59.195312 138.535156 64.417969 137.664062 68.769531 C 136.792969 73.117188 134.183594 76.597656 136.359375 80.082031 C 138.535156 83.5625 145.496094 87.042969 154.195312 87.042969 C 162.898438 87.042969 173.339844 83.5625 180.300781 78.339844 C 187.261719 73.117188 190.742188 66.15625 190.742188 57.457031 C 190.742188 48.753906 187.261719 38.3125 180.300781 34.398438 C 173.339844 30.480469 162.898438 33.089844 153.761719 32.65625 C 144.625 32.222656 136.792969 28.742188 133.3125 28.304688 C 129.832031 27.871094 130.703125 30.480469 130.703125 33.527344 Z M 130.703125 33.527344 "/>
<path fill-rule="evenodd" fill="rgb(54.499817%, 0%, 54.499817%)" fill-opacity="0.1" d="M 133.792969 35.964844 C 133.792969 38.703125 133.007812 41.835938 133.792969 44.96875 C 134.574219 48.101562 136.925781 51.234375 138.492188 55.152344 C 140.058594 59.066406 140.839844 63.765625 140.058594 67.679688 C 139.273438 71.597656 136.925781 74.730469 138.882812 77.863281 C 140.839844 80.992188 147.105469 84.125 154.9375 84.125 C 162.769531 84.125 172.167969 80.992188 178.429688 76.292969 C 184.695312 71.597656 187.828125 65.332031 187.828125 57.5 C 187.828125 49.667969 184.695312 40.269531 178.429688 36.746094 C 172.167969 33.222656 162.769531 35.570312 154.546875 35.179688 C 146.320312 34.789062 139.273438 31.65625 136.140625 31.265625 C 133.007812 30.875 133.792969 33.222656 133.792969 35.964844 Z M 133.792969 35.964844 "/>
<path fill-rule="evenodd" fill="rgb(100%, 54.899597%, 0%)" fill-opacity="0.1" d="M 136.570312 38.15625 C 136.570312 40.621094 135.867188 43.441406 136.570312 46.261719 C 137.277344 49.078125 139.390625 51.898438 140.800781 55.421875 C 142.210938 58.949219 142.917969 63.175781 142.210938 66.699219 C 141.503906 70.226562 139.390625 73.042969 141.152344 75.863281 C 142.917969 78.683594 148.554688 81.5 155.601562 81.5 C 162.652344 81.5 171.109375 78.683594 176.746094 74.453125 C 182.386719 70.226562 185.207031 64.585938 185.207031 57.539062 C 185.207031 50.488281 182.386719 42.03125 176.746094 38.859375 C 171.109375 35.6875 162.652344 37.804688 155.25 37.449219 C 147.851562 37.097656 141.503906 34.277344 138.6875 33.925781 C 135.867188 33.574219 136.570312 35.6875 136.570312 38.15625 Z M 136.570312 38.15625 "/>
<path fill-rule="evenodd" fill="rgb(100%, 54.899597%, 0%)" fill-opacity="0.1" d="M 139.074219 40.128906 C 139.074219 42.347656 138.441406 44.886719 139.074219 47.425781 C 139.707031 49.960938 141.609375 52.5 142.878906 55.671875 C 144.148438 58.84375 144.785156 62.648438 144.148438 65.820312 C 143.515625 68.992188 141.609375 71.527344 143.199219 74.066406 C 144.785156 76.605469 149.859375 79.140625 156.203125 79.140625 C 162.542969 79.140625 170.15625 76.605469 175.230469 72.796875 C 180.308594 68.992188 182.84375 63.917969 182.84375 57.574219 C 182.84375 51.230469 180.308594 43.617188 175.230469 40.761719 C 170.15625 37.910156 162.542969 39.8125 155.882812 39.496094 C 149.222656 39.179688 143.515625 36.640625 140.976562 36.324219 C 138.441406 36.003906 139.074219 37.910156 139.074219 40.128906 Z M 139.074219 40.128906 "/>
<path fill-rule="evenodd" fill="rgb(100%, 54.899597%, 0%)" fill-opacity="0.1" d="M 141.328125 41.90625 C 141.328125 43.902344 140.757812 46.1875 141.328125 48.472656 C 141.898438 50.753906 143.609375 53.039062 144.75 55.894531 C 145.894531 58.746094 146.464844 62.171875 145.894531 65.027344 C 145.324219 67.882812 143.609375 70.164062 145.035156 72.449219 C 146.464844 74.734375 151.03125 77.015625 156.742188 77.015625 C 162.449219 77.015625 169.300781 74.734375 173.867188 71.308594 C 178.4375 67.882812 180.71875 63.316406 180.71875 57.605469 C 180.71875 51.898438 178.4375 45.046875 173.867188 42.476562 C 169.300781 39.90625 162.449219 41.621094 156.453125 41.335938 C 150.460938 41.050781 145.324219 38.765625 143.039062 38.480469 C 140.757812 38.195312 141.328125 39.90625 141.328125 41.90625 Z M 141.328125 41.90625 "/>
<path fill-rule="evenodd" fill="rgb(100%, 54.899597%, 0%)" fill-opacity="0.1" d="M 143.351562 43.503906 C 143.351562 45.304688 142.839844 47.359375 143.351562 49.414062 C 143.867188 51.46875 145.40625 53.523438 146.433594 56.09375 C 147.464844 58.660156 147.976562 61.746094 147.464844 64.3125 C 146.949219 66.882812 145.40625 68.9375 146.691406 70.992188 C 147.976562 73.050781 152.085938 75.105469 157.226562 75.105469 C 162.363281 75.105469 168.53125 73.050781 172.640625 69.964844 C 176.75 66.882812 178.808594 62.773438 178.808594 57.632812 C 178.808594 52.496094 176.75 46.332031 172.640625 44.019531 C 168.53125 41.707031 162.363281 43.246094 156.96875 42.992188 C 151.574219 42.734375 146.949219 40.679688 144.894531 40.421875 C 142.839844 40.164062 143.351562 41.707031 143.351562 43.503906 Z M 143.351562 43.503906 "/>
<path fill-rule="evenodd" fill="rgb(100%, 54.899597%, 0%)" fill-opacity="0.1" d="M 145.175781 44.941406 C 145.175781 46.5625 144.714844 48.410156 145.175781 50.261719 C 145.640625 52.109375 147.027344 53.960938 147.953125 56.273438 C 148.875 58.585938 149.339844 61.359375 148.875 63.671875 C 148.414062 65.984375 147.027344 67.832031 148.183594 69.683594 C 149.339844 71.53125 153.039062 73.382812 157.664062 73.382812 C 162.285156 73.382812 167.835938 71.53125 171.535156 68.757812 C 175.234375 65.984375 177.085938 62.285156 177.085938 57.660156 C 177.085938 53.035156 175.234375 47.488281 171.535156 45.40625 C 167.835938 43.324219 162.285156 44.710938 157.433594 44.480469 C 152.574219 44.25 148.414062 42.398438 146.5625 42.167969 C 144.714844 41.9375 145.175781 43.324219 145.175781 44.941406 Z M 145.175781 44.941406 "/>
<path fill-rule="evenodd" fill="rgb(100%, 54.899597%, 0%)" fill-opacity="0.1" d="M 146.820312 46.238281 C 146.820312 47.695312 146.402344 49.359375 146.820312 51.023438 C 147.234375 52.6875 148.484375 54.351562 149.316406 56.433594 C 150.148438 58.515625 150.566406 61.011719 150.148438 63.09375 C 149.730469 65.175781 148.484375 66.839844 149.523438 68.503906 C 150.566406 70.167969 153.894531 71.832031 158.054688 71.832031 C 162.21875 71.832031 167.210938 70.167969 170.542969 67.671875 C 173.871094 65.175781 175.535156 61.84375 175.535156 57.683594 C 175.535156 53.519531 173.871094 48.527344 170.542969 46.652344 C 167.210938 44.78125 162.21875 46.027344 157.847656 45.820312 C 153.476562 45.613281 149.730469 43.949219 148.066406 43.742188 C 146.402344 43.53125 146.820312 44.78125 146.820312 46.238281 Z M 146.820312 46.238281 "/>
<path fill-rule="evenodd" fill="rgb(100%, 54.899597%, 0%)" fill-opacity="0.1" d="M 148.296875 47.402344 C 148.296875 48.714844 147.921875 50.210938 148.296875 51.710938 C 148.671875 53.207031 149.792969 54.707031 150.542969 56.578125 C 151.292969 58.453125 151.667969 60.699219 151.292969 62.574219 C 150.917969 64.445312 149.792969 65.945312 150.730469 67.441406 C 151.667969 68.941406 154.664062 70.4375 158.410156 70.4375 C 162.15625 70.4375 166.652344 68.941406 169.648438 66.691406 C 172.644531 64.445312 174.140625 61.449219 174.140625 57.703125 C 174.140625 53.957031 172.644531 49.464844 169.648438 47.777344 C 166.652344 46.09375 162.15625 47.214844 158.222656 47.027344 C 154.289062 46.839844 150.917969 45.34375 149.417969 45.15625 C 147.921875 44.96875 148.296875 46.09375 148.296875 47.402344 Z M 148.296875 47.402344 "/>
<path fill="none" stroke-width="0.8" stroke-linecap="butt" stroke-linejoin="round" stroke="rgb(0%, 0%, 0%)" stroke-opacity="1" stroke-miterlimit="10" d="M 254.666764 279.331381 C 254.666764 274.665984 253.331549 269.332979 254.666764 263.999975 C 255.998051 258.666971 259.999768 253.333966 262.66627 246.665747 C 265.332772 240.001455 266.667987 232.001949 265.332772 225.33373 C 264.001485 218.665511 259.999768 213.332507 263.333877 207.999502 C 266.667987 202.666498 277.333995 197.333494 290.666506 197.333494 C 303.999017 197.333494 320.001957 202.666498 330.667966 210.666005 C 341.333975 218.665511 346.666979 229.33152 346.666979 242.667958 C 346.666979 256.000468 341.333975 271.999481 330.667966 278.000093 C 320.001957 284.000705 303.999017 279.998988 289.998899 280.666595 C 275.998781 281.334203 264.001485 286.667207 258.66848 287.334814 C 253.331549 287.998494 254.666764 284.000705 254.666764 279.331381 Z M 254.666764 279.331381 " transform="matrix(0.99469, 0, 0, -0.99469, -138.802832, 298.606018)"/>
<path fill="none" stroke-width="0.8" stroke-linecap="butt" stroke-linejoin="round" stroke="rgb(0%, 0%, 50.19989%)" stroke-opacity="1" stroke-miterlimit="10" d="M 259.398921 275.600634 C 259.398921 271.398635 258.201155 266.599716 259.398921 261.800798 C 260.600614 257.001879 264.201767 252.199034 266.601226 246.198422 C 269.000685 240.201738 270.198451 232.999433 269.000685 226.998821 C 267.798992 220.99821 264.201767 216.199291 267.198146 211.400373 C 270.198451 206.601454 279.800215 201.798608 291.801439 201.798608 C 303.798735 201.798608 318.199418 206.601454 327.801182 213.799832 C 337.399019 220.99821 342.201864 230.599974 342.201864 242.601197 C 342.201864 254.598493 337.399019 268.999176 327.801182 274.398941 C 318.199418 279.798706 303.798735 276.20148 291.200592 276.7984 C 278.598522 277.399247 267.798992 282.198165 263.000074 282.799012 C 258.201155 283.399858 259.398921 279.798706 259.398921 275.600634 Z M 259.398921 275.600634 " transform="matrix(0.99469, 0, 0, -0.99469, -138.802832, 298.606018)"/>
<path fill="none" stroke-width="0.8" stroke-linecap="butt" stroke-linejoin="round" stroke="rgb(64.698792%, 16.499329%, 16.499329%)" stroke-opacity="1" stroke-miterlimit="10" d="M 263.659827 272.239035 C 263.659827 268.461163 262.579874 264.141351 263.659827 259.821539 C 264.73978 255.501727 267.979639 251.181914 270.139545 245.778222 C 272.299451 240.378457 273.379404 233.898739 272.299451 228.498974 C 271.219498 223.099209 267.979639 218.779397 270.681485 214.459585 C 273.379404 210.139773 282.019028 205.819961 292.818558 205.819961 C 303.618088 205.819961 316.581452 210.139773 325.221076 216.619491 C 333.8607 223.099209 338.180512 231.738833 338.180512 242.538363 C 338.180512 253.341821 333.8607 266.301257 325.221076 271.159082 C 316.581452 276.020834 303.618088 272.780975 292.280545 273.318988 C 280.939075 273.860928 271.219498 278.18074 266.899686 278.718753 C 262.579874 279.260693 263.659827 276.020834 263.659827 272.239035 Z M 263.659827 272.239035 " transform="matrix(0.99469, 0, 0, -0.99469, -138.802832, 298.606018)"/>
<path fill="none" stroke-width="0.8" stroke-linecap="butt" stroke-linejoin="round" stroke="rgb(17.999268%, 54.499817%, 34.098816%)" stroke-opacity="1" stroke-miterlimit="10" d="M 267.492678 269.215166 C 267.492678 265.814296 266.522684 261.926465 267.492678 258.038634 C 268.466599 254.150803 271.380509 250.262973 273.324424 245.401221 C 275.26834 240.543396 276.242261 234.711649 275.26834 229.849897 C 274.298346 224.988145 271.380509 221.100314 273.811385 217.212483 C 276.242261 213.324652 284.017923 209.436822 293.7375 209.436822 C 303.457077 209.436822 315.12057 213.324652 322.896231 219.156399 C 330.67582 224.988145 334.563651 232.767734 334.563651 242.487311 C 334.563651 252.206888 330.67582 263.870381 322.896231 268.245172 C 315.12057 272.616036 303.457077 269.702127 293.250539 270.189088 C 283.047929 270.672121 274.298346 274.563879 270.410515 275.046913 C 266.522684 275.533873 267.492678 272.616036 267.492678 269.215166 Z M 267.492678 269.215166 " transform="matrix(0.99469, 0, 0, -0.99469, -138.802832, 298.606018)"/>
<path fill="none" stroke-width="0.8" stroke-linecap="butt" stroke-linejoin="round" stroke="rgb(0%, 39.199829%, 0%)" stroke-opacity="1" stroke-miterlimit="10" d="M 270.944601 266.493685 C 270.944601 263.430545 270.068857 259.931497 270.944601 256.43245 C 271.820344 252.933402 274.443649 249.434354 276.195136 245.06349 C 277.942696 240.688698 278.81844 235.438163 277.942696 231.063372 C 277.066953 226.692507 274.443649 223.193459 276.631044 219.690485 C 278.81844 216.191437 285.816536 212.692389 294.562191 212.692389 C 303.311774 212.692389 313.808918 216.191437 320.807013 221.441972 C 327.805109 226.692507 331.304156 233.690603 331.304156 242.436259 C 331.304156 251.185842 327.805109 261.682985 320.807013 265.617941 C 313.808918 269.556824 303.311774 266.93352 294.126283 267.369428 C 284.940792 267.805337 277.066953 271.304384 273.567905 271.74422 C 270.068857 272.180128 270.944601 269.556824 270.944601 266.493685 Z M 270.944601 266.493685 " transform="matrix(0.99469, 0, 0, -0.99469, -138.802832, 298.606018)"/>
<path fill="none" stroke-width="0.8" stroke-linecap="butt" stroke-linejoin="round" stroke="rgb(0%, 0%, 0%)" stroke-opacity="1" stroke-miterlimit="10" d="M 274.050938 264.043173 C 274.050938 261.290275 273.261591 258.140739 274.050938 254.991203 C 274.836359 251.841668 277.200474 248.692132 278.775242 244.753249 C 280.35001 240.818293 281.13543 236.093989 280.35001 232.159033 C 279.560662 228.22015 277.200474 225.070614 279.167952 221.921078 C 281.13543 218.77547 287.434502 215.625934 295.308341 215.625934 C 303.18218 215.625934 312.630787 218.77547 318.925931 223.499773 C 325.225003 228.22015 328.374538 234.519221 328.374538 242.39306 C 328.374538 250.2669 325.225003 259.715507 318.925931 263.257753 C 312.630787 266.799999 303.18218 264.43981 294.915631 264.832521 C 286.645154 265.225231 279.560662 268.374766 276.411127 268.767477 C 273.261591 269.160187 274.050938 266.799999 274.050938 264.043173 Z M 274.050938 264.043173 " transform="matrix(0.99469, 0, 0, -0.99469, -138.802832, 298.606018)"/>
<path fill="none" stroke-width="0.8" stroke-linecap="butt" stroke-linejoin="round" stroke="rgb(27.099609%, 54.499817%, 45.498657%)" stroke-opacity="1" stroke-miterlimit="10" d="M 276.843108 261.840069 C 276.843108 259.362068 276.136229 256.5267 276.843108 253.691333 C 277.553913 250.859892 279.678475 248.024525 281.096159 244.482279 C 282.513843 240.936106 283.224648 236.686981 282.513843 233.144736 C 281.803037 229.598563 279.678475 226.767122 281.449598 223.931755 C 283.224648 221.096387 288.891456 218.264947 295.975948 218.264947 C 303.064367 218.264947 311.566542 221.096387 317.23335 225.349438 C 322.904086 229.598563 325.739453 235.269298 325.739453 242.353789 C 325.739453 249.442208 322.904086 257.944384 317.23335 261.133191 C 311.566542 264.321997 303.064367 262.193508 295.622509 262.550874 C 288.184578 262.904314 281.803037 265.739681 278.971597 266.09312 C 276.136229 266.446559 276.843108 264.321997 276.843108 261.840069 Z M 276.843108 261.840069 " transform="matrix(0.99469, 0, 0, -0.99469, -138.802832, 298.606018)"/>
<path fill="none" stroke-width="0.8" stroke-linecap="butt" stroke-linejoin="round" stroke="rgb(0%, 0%, 54.499817%)" stroke-opacity="1" stroke-miterlimit="10" d="M 279.36038 259.856883 C 279.36038 257.626289 278.72419 255.073672 279.36038 252.521056 C 279.996571 249.972367 281.909069 247.419751 283.185377 244.230944 C 284.461685 241.042137 285.101803 237.21714 284.461685 234.028334 C 283.825495 230.839527 281.909069 228.290838 283.5074 225.738221 C 285.101803 223.185605 290.203108 220.636916 296.580722 220.636916 C 302.954408 220.636916 310.60833 223.185605 315.709635 227.01453 C 320.814867 230.839527 323.363556 235.940832 323.363556 242.318446 C 323.363556 248.696059 320.814867 256.349981 315.709635 259.220692 C 310.60833 262.087476 302.954408 260.174978 296.258699 260.493073 C 289.562991 260.811168 283.825495 263.363784 281.272879 263.68188 C 278.72419 264.003902 279.36038 262.087476 279.36038 259.856883 Z M 279.36038 259.856883 " transform="matrix(0.99469, 0, 0, -0.99469, -138.802832, 298.606018)"/>
<path fill="none" stroke-width="0.8" stroke-linecap="butt" stroke-linejoin="round" stroke="rgb(54.499817%, 13.699341%, 13.699341%)" stroke-opacity="1" stroke-miterlimit="10" d="M 281.626318 258.070051 C 281.626318 256.063302 281.052961 253.765948 281.626318 251.468593 C 282.199675 249.175165 283.919745 246.877811 285.066459 244.007099 C 286.2171 241.140315 286.790457 237.696247 286.2171 234.825535 C 285.643743 231.954824 283.919745 229.661396 285.353138 227.364042 C 286.790457 225.066687 291.381239 222.77326 297.122662 222.77326 C 302.860158 222.77326 309.748294 225.066687 314.339076 228.510755 C 318.933786 231.954824 321.227213 236.545606 321.227213 242.287029 C 321.227213 248.024525 318.933786 254.912661 314.339076 257.496694 C 309.748294 260.080727 302.860158 258.35673 296.832056 258.643408 C 290.807882 258.930086 285.643743 261.227441 283.346388 261.514119 C 281.052961 261.800798 281.626318 260.080727 281.626318 258.070051 Z M 281.626318 258.070051 " transform="matrix(0.99469, 0, 0, -0.99469, -138.802832, 298.606018)"/>
<path fill="none" stroke-width="0.8" stroke-linecap="butt" stroke-linejoin="round" stroke="rgb(32.499695%, 52.49939%, 54.499817%)" stroke-opacity="1" stroke-miterlimit="10" d="M 283.660557 256.463866 C 283.660557 254.653473 283.146106 252.587817 283.660557 250.522161 C 284.178934 248.456506 285.726212 246.39085 286.75904 243.806817 C 287.795795 241.226711 288.310245 238.124301 287.795795 235.544195 C 287.277417 232.960162 285.726212 230.894506 287.018229 228.828851 C 288.310245 226.759268 292.441556 224.693612 297.609622 224.693612 C 302.773761 224.693612 308.974655 226.759268 313.105966 229.861678 C 317.237278 232.960162 319.30686 237.091473 319.30686 242.259539 C 319.30686 247.423678 317.237278 253.620645 313.105966 255.945489 C 308.974655 258.270333 302.773761 256.723055 297.350434 256.978317 C 291.927106 257.237506 287.277417 259.303161 285.211762 259.56235 C 283.146106 259.821539 283.660557 258.270333 283.660557 256.463866 Z M 283.660557 256.463866 " transform="matrix(0.99469, 0, 0, -0.99469, -138.802832, 298.606018)"/>
<path fill="none" stroke-width="0.8" stroke-linecap="butt" stroke-linejoin="round" stroke="rgb(13.299561%, 54.499817%, 13.299561%)" stroke-opacity="1" stroke-miterlimit="10" d="M 285.494513 255.018693 C 285.494513 253.388946 285.031115 251.531427 285.494513 249.66998 C 285.961838 247.812461 287.355959 245.951015 288.286683 243.62617 C 289.213479 241.301326 289.680804 238.513084 289.213479 236.18824 C 288.750081 233.863395 287.355959 232.005876 288.518382 230.14443 C 289.680804 228.286911 293.399769 226.425464 298.049458 226.425464 C 302.695219 226.425464 308.275631 228.286911 311.994597 231.075153 C 315.713562 233.863395 317.575008 237.582361 317.575008 242.232049 C 317.575008 246.881738 315.713562 252.458223 311.994597 254.551368 C 308.275631 256.644513 302.695219 255.250392 297.817759 255.482091 C 292.932444 255.71379 288.750081 257.575236 286.888634 257.806935 C 285.031115 258.038634 285.494513 256.644513 285.494513 255.018693 Z M 285.494513 255.018693 " transform="matrix(0.99469, 0, 0, -0.99469, -138.802832, 298.606018)"/>
<path fill="none" stroke-width="0.8" stroke-linecap="butt" stroke-linejoin="round" stroke="rgb(0%, 0%, 0%)" stroke-opacity="1" stroke-miterlimit="10" d="M 287.147823 253.714895 C 287.147823 252.250086 286.727623 250.577141 287.147823 248.904195 C 287.564096 247.23125 288.820768 245.558305 289.657241 243.465159 C 290.493714 241.372014 290.913914 238.862596 290.493714 236.769451 C 290.073514 234.676305 288.820768 233.00336 289.865378 231.330415 C 290.913914 229.657469 294.259805 227.984524 298.442168 227.984524 C 302.628459 227.984524 307.647295 229.657469 310.997113 232.166887 C 314.343004 234.676305 316.015949 238.026123 316.015949 242.208487 C 316.015949 246.394777 314.343004 251.413613 310.997113 253.298622 C 307.647295 255.179704 302.628459 253.926959 298.234032 254.135095 C 293.839605 254.343231 290.073514 256.016177 288.400569 256.224313 C 286.727623 256.436377 287.147823 255.179704 287.147823 253.714895 Z M 287.147823 253.714895 " transform="matrix(0.99469, 0, 0, -0.99469, -138.802832, 298.606018)"/>
<path fill="none" stroke-width="0.8" stroke-linecap="butt" stroke-linejoin="round" stroke="rgb(0%, 0%, 0%)" stroke-opacity="1" stroke-miterlimit="10" d="M 288.632268 252.544619 C 288.632268 251.225113 288.255266 249.721033 288.632268 248.213025 C 289.009269 246.708945 290.136348 245.200938 290.890351 243.319857 C 291.644355 241.434848 292.021356 239.176764 291.644355 237.291755 C 291.267353 235.410673 290.136348 233.902666 291.078852 232.398586 C 292.021356 230.890579 295.033444 229.386499 298.799534 229.386499 C 302.565625 229.386499 307.085719 230.890579 310.097806 233.15259 C 313.109894 235.410673 314.613974 238.422761 314.613974 242.188851 C 314.613974 245.954942 313.109894 250.471109 310.097806 252.167617 C 307.085719 253.860198 302.565625 252.73312 298.611033 252.921621 C 294.656442 253.110121 291.267353 254.614202 289.759346 254.802702 C 288.255266 254.991203 288.632268 253.860198 288.632268 252.544619 Z M 288.632268 252.544619 " transform="matrix(0.99469, 0, 0, -0.99469, -138.802832, 298.606018)"/>
<path fill="none" stroke-width="0.8" stroke-linecap="butt" stroke-linejoin="round" stroke="rgb(0%, 0%, 0%)" stroke-opacity="1" stroke-miterlimit="10" d="M 291.306624 250.435765 C 291.306624 249.379375 291.004237 248.177682 291.306624 246.972061 C 291.605084 245.766441 292.508317 244.560821 293.113091 243.056741 C 293.713937 241.548734 294.016324 239.742267 293.713937 238.23426 C 293.415478 236.726253 292.508317 235.524559 293.262321 234.318939 C 294.016324 233.113319 296.427565 231.907699 299.439652 231.907699 C 302.451739 231.907699 306.0686 233.113319 308.475913 234.919786 C 310.887154 236.726253 312.092774 239.137493 312.092774 242.14958 C 312.092774 245.161667 310.887154 248.778528 308.475913 250.133378 C 306.0686 251.488228 302.451739 250.584995 299.290422 250.738152 C 296.125178 250.887382 293.415478 252.093002 292.209857 252.242232 C 291.004237 252.395389 291.306624 251.488228 291.306624 250.435765 Z M 291.306624 250.435765 " transform="matrix(0.99469, 0, 0, -0.99469, -138.802832, 298.606018)"/>
<path fill="none" stroke-width="0.8" stroke-linecap="butt" stroke-linejoin="round" stroke="rgb(0%, 0%, 0%)" stroke-opacity="1" stroke-miterlimit="10" d="M 293.442967 248.747111 C 293.442967 247.906712 293.203414 246.940644 293.442967 245.978505 C 293.686448 245.012437 294.409034 244.050297 294.888141 242.844677 C 295.371174 241.639057 295.614655 240.193883 295.371174 238.988263 C 295.131621 237.782643 294.409034 236.820503 295.009881 235.854436 C 295.614655 234.888369 297.542862 233.926229 299.950175 233.926229 C 302.361416 233.926229 305.25569 234.888369 307.183897 236.337469 C 309.108177 237.782643 310.074244 239.71085 310.074244 242.12209 C 310.074244 244.529404 309.108177 247.423678 307.183897 248.507558 C 305.25569 249.591438 302.361416 248.868851 299.832362 248.990592 C 297.299381 249.108405 295.131621 250.074472 294.165554 250.192285 C 293.203414 250.314025 293.442967 249.591438 293.442967 248.747111 Z M 293.442967 248.747111 " transform="matrix(0.99469, 0, 0, -0.99469, -138.802832, 298.606018)"/>
<path fill-rule="evenodd" fill="rgb(54.499817%, 0%, 54.499817%)" fill-opacity="0.1" d="M 150.957031 49.5 C 150.957031 50.550781 150.65625 51.746094 150.957031 52.945312 C 151.253906 54.144531 152.152344 55.34375 152.753906 56.839844 C 153.351562 58.339844 153.652344 60.136719 153.351562 61.636719 C 153.054688 63.136719 152.152344 64.332031 152.902344 65.53125 C 153.652344 66.730469 156.050781 67.929688 159.046875 67.929688 C 162.042969 67.929688 165.640625 66.730469 168.035156 64.933594 C 170.433594 63.136719 171.632812 60.738281 171.632812 57.742188 C 171.632812 54.746094 170.433594 51.148438 168.035156 49.800781 C 165.640625 48.453125 162.042969 49.351562 158.898438 49.199219 C 155.75 49.050781 153.054688 47.851562 151.855469 47.703125 C 150.65625 47.550781 150.957031 48.453125 150.957031 49.5 Z M 150.957031 49.5 "/>
<path fill-rule="evenodd" fill="rgb(100%, 100%, 100%)" fill-opacity="0.1" d="M 153.082031 51.179688 C 153.082031 52.015625 152.84375 52.976562 153.082031 53.933594 C 153.324219 54.894531 154.042969 55.851562 154.519531 57.050781 C 155 58.25 155.242188 59.6875 155 60.886719 C 154.761719 62.085938 154.042969 63.042969 154.640625 64.003906 C 155.242188 64.964844 157.160156 65.921875 159.554688 65.921875 C 161.953125 65.921875 164.832031 64.964844 166.75 63.523438 C 168.664062 62.085938 169.625 60.167969 169.625 57.769531 C 169.625 55.375 168.664062 52.496094 166.75 51.417969 C 164.832031 50.339844 161.953125 51.058594 159.4375 50.9375 C 156.917969 50.820312 154.761719 49.859375 153.800781 49.742188 C 152.84375 49.621094 153.082031 50.339844 153.082031 51.179688 Z M 153.082031 51.179688 "/>
<g clip-path="url(#clip-0)">
<path fill-rule="evenodd" fill="rgb(100%, 100%, 100%)" fill-opacity="0.7" d="M 0.453125 0.199219 L 0.453125 111.605469 L 207.347656 111.605469 L 207.347656 0.199219 Z M 0.453125 0.199219 "/>
</g>
<path fill="none" stroke-width="0.8" stroke-linecap="butt" stroke-linejoin="round" stroke="rgb(0%, 0%, 0%)" stroke-opacity="1" stroke-miterlimit="10" d="M 183.998565 244.666852 C 180.000776 238.666241 175.999059 233.333236 174.000164 228.000232 C 172.001269 222.667228 172.001269 217.334223 167.331945 214.667721 C 162.666548 212.001219 153.331827 212.001219 147.998823 219.333118 C 142.665818 226.668945 141.334531 241.332743 145.999928 254.001574 C 150.665325 266.666477 161.331333 277.332486 167.999552 279.998988 C 174.667771 282.66549 177.334274 277.332486 181.332063 273.998376 C 185.33378 270.668194 190.666784 269.332979 193.333287 268.001692 C 195.999789 266.666477 195.999789 265.331263 194.000894 261.333473 C 191.998072 257.331756 188.000282 250.667464 183.998565 244.666852 Z M 183.998565 244.666852 " transform="matrix(0.99469, 0, 0, -0.99469, -138.802832, 298.606018)"/>
<path fill="none" stroke-width="0.8" stroke-linecap="butt" stroke-linejoin="round" stroke="rgb(0%, 0%, 0%)" stroke-opacity="1" stroke-miterlimit="10" d="M 285.333502 263.999975 C 288.000004 258.666971 288.000004 253.333966 287.332397 249.999857 C 286.668717 246.665747 285.333502 245.33446 286.668717 243.999245 C 288.000004 242.667958 292.001721 241.332743 295.331903 238.666241 C 298.666013 235.999739 301.332515 232.001949 307.333127 232.001949 C 313.333738 232.001949 322.668459 235.999739 327.333856 243.999245 C 331.999254 251.998752 331.999254 263.999975 324.667354 273.998376 C 317.331528 284.000705 302.66773 292.000211 292.665401 292.667819 C 282.667 293.331499 277.333995 286.667207 277.333995 280.666595 C 277.333995 274.665984 282.667 269.332979 285.333502 263.999975 Z M 285.333502 263.999975 " transform="matrix(0.99469, 0, 0, -0.99469, -138.802832, 298.606018)"/>
<path fill="none" stroke-width="0.8" stroke-linecap="butt" stroke-linejoin="round" stroke="rgb(0%, 0%, 0%)" stroke-opacity="1" stroke-miterlimit="10" d="M 235.333641 262.668687 C 239.999038 259.998258 244.000755 256.000468 246.667257 260.665865 C 249.333759 265.331263 250.665047 278.6677 245.99965 286.667207 C 241.334253 294.666713 230.668244 297.333216 217.999413 297.333216 C 205.33451 297.333216 190.666784 294.666713 184.666173 290.001316 C 178.665561 285.331992 181.332063 278.6677 188.66789 274.665984 C 195.999789 270.668194 208.001012 269.332979 216.668126 268.001692 C 225.331313 266.666477 230.668244 265.331263 235.333641 262.668687 Z M 235.333641 262.668687 " transform="matrix(0.99469, 0, 0, -0.99469, -138.802832, 298.606018)"/>
<path fill-rule="evenodd" fill="rgb(60.798645%, 18.798828%, 100%)" fill-opacity="0.5" d="M 44.21875 55.238281 C 40.242188 61.207031 36.261719 66.511719 34.273438 71.816406 C 32.285156 77.121094 32.285156 82.425781 27.640625 85.078125 C 23 87.730469 13.714844 87.730469 8.410156 80.4375 C 3.105469 73.140625 1.78125 58.554688 6.421875 45.953125 C 11.0625 33.355469 21.671875 22.746094 28.304688 20.09375 C 34.9375 17.441406 37.589844 22.746094 41.566406 26.0625 C 45.546875 29.375 50.851562 30.703125 53.503906 32.027344 C 56.15625 33.355469 56.15625 34.683594 54.167969 38.660156 C 52.175781 42.640625 48.199219 49.269531 44.21875 55.238281 Z M 44.21875 55.238281 "/>
<path fill-rule="evenodd" fill="rgb(100%, 60.099792%, 60.099792%)" fill-opacity="0.5" d="M 145.015625 36.007812 C 147.667969 41.3125 147.667969 46.617188 147.003906 49.933594 C 146.34375 53.25 145.015625 54.574219 146.34375 55.902344 C 147.667969 57.226562 151.648438 58.554688 154.960938 61.207031 C 158.277344 63.859375 160.929688 67.835938 166.898438 67.835938 C 172.867188 67.835938 182.152344 63.859375 186.792969 55.902344 C 191.433594 47.945312 191.433594 36.007812 184.140625 26.0625 C 176.84375 16.113281 162.257812 8.15625 152.308594 7.492188 C 142.363281 6.832031 137.058594 13.460938 137.058594 19.429688 C 137.058594 25.398438 142.363281 30.703125 145.015625 36.007812 Z M 145.015625 36.007812 "/>
<path fill-rule="evenodd" fill="rgb(100%, 49.798584%, 31.399536%)" fill-opacity="0.5" d="M 95.28125 37.332031 C 99.921875 39.988281 103.902344 43.964844 106.554688 39.324219 C 109.207031 34.683594 110.53125 21.417969 105.890625 13.460938 C 101.25 5.503906 90.640625 2.851562 78.039062 2.851562 C 65.441406 2.851562 50.851562 5.503906 44.882812 10.144531 C 38.914062 14.789062 41.566406 21.417969 48.863281 25.398438 C 56.15625 29.375 68.09375 30.703125 76.714844 32.027344 C 85.332031 33.355469 90.640625 34.683594 95.28125 37.332031 Z M 95.28125 37.332031 "/>
</svg>
