<?xml version="1.0" encoding="UTF-8"?>
<svg xmlns="http://www.w3.org/2000/svg" xmlns:xlink="http://www.w3.org/1999/xlink" width="205.217" height="504" viewBox="0 0 205.217 504">
<path fill-rule="evenodd" fill="rgb(70.199585%, 93.299866%, 22.698975%)" fill-opacity="0.5" stroke-width="0.8" stroke-linecap="butt" stroke-linejoin="round" stroke="rgb(0%, 0%, 0%)" stroke-opacity="0.5" stroke-miterlimit="10" d="M 254.667541 279.334366 C 254.667541 274.668192 253.334348 269.331502 254.667541 263.998732 C 256.000733 258.665962 260.00031 253.333192 262.666695 246.66723 C 265.33308 240.001268 266.666273 231.998192 265.33308 225.33223 C 263.999888 218.666268 260.00031 213.333499 263.333291 208.000729 C 266.666273 202.667959 277.331812 197.331268 290.667657 197.331268 C 303.999582 197.331268 320.001812 202.667959 330.667351 210.667114 C 341.332891 218.666268 346.66566 229.331808 346.66566 242.667653 C 346.66566 255.999577 341.332891 272.001808 330.667351 278.001173 C 320.001812 284.000539 303.999582 280.000962 290.001061 280.667558 C 275.99862 281.334155 263.999888 286.666924 258.667118 287.33352 C 253.334348 288.000117 254.667541 284.000539 254.667541 279.334366 Z M 254.667541 279.334366 " transform="matrix(0.996199, 0, 0, -0.996199, -141.808932, 503.042155)"/>
<path fill-rule="evenodd" fill="rgb(60.798645%, 18.798828%, 100%)" fill-opacity="0.5" stroke-width="0.8" stroke-linecap="butt" stroke-linejoin="round" stroke="rgb(0%, 0%, 0%)" stroke-opacity="0.5" stroke-miterlimit="10" d="M 184.0005 244.667442 C 180.000923 238.668076 176.001345 233.331385 174.001557 227.998615 C 172.001768 222.665845 172.001768 217.333076 167.331673 214.666691 C 162.6655 212.000306 153.333153 212.000306 148.000383 219.332864 C 142.667613 226.665423 141.334421 241.334461 146.000595 253.999789 C 150.666768 266.665117 161.332307 277.334577 167.99827 280.000962 C 174.668153 282.667347 177.334538 277.334577 181.334115 274.001596 C 185.333692 270.668615 190.666462 269.331502 193.332847 267.998309 C 195.999232 266.665117 195.999232 265.331924 193.999443 261.332347 C 191.999654 257.33277 188.000077 250.666808 184.0005 244.667442 Z M 184.0005 244.667442 " transform="matrix(0.996199, 0, 0, -0.996199, -141.808932, 503.042155)"/>
<path fill-rule="evenodd" fill="rgb(100%, 60.099792%, 60.099792%)" fill-opacity="0.5" stroke-width="0.8" stroke-linecap="butt" stroke-linejoin="round" stroke="rgb(0%, 0%, 0%)" stroke-opacity="0.5" stroke-miterlimit="10" d="M 285.334888 263.998732 C 288.001272 258.665962 288.001272 253.333192 287.334676 250.000211 C 286.66808 246.66723 285.334888 245.334038 286.66808 244.000845 C 288.001272 242.667653 292.00085 241.334461 295.333831 238.668076 C 298.666812 236.001691 301.333197 231.998192 307.332563 231.998192 C 313.331929 231.998192 322.668197 236.001691 327.33437 244.000845 C 332.000544 252 332.000544 263.998732 324.667985 274.001596 C 317.331506 284.000539 302.666389 291.999694 292.667446 292.66629 C 282.668503 293.332886 277.331812 286.666924 277.331812 280.667558 C 277.331812 274.668192 282.668503 269.331502 285.334888 263.998732 Z M 285.334888 263.998732 " transform="matrix(0.996199, 0, 0, -0.996199, -141.808932, 503.042155)"/>
<path fill-rule="evenodd" fill="rgb(60.798645%, 18.798828%, 100%)" fill-opacity="0.5" stroke-width="0.8" stroke-linecap="butt" stroke-linejoin="round" stroke="rgb(0%, 0%, 0%)" stroke-opacity="0.5" stroke-miterlimit="10" d="M 233.999137 242.001057 C 238.66531 241.334461 245.331273 238.668076 251.33456 238.668076 C 257.333926 238.668076 262.666695 241.334461 269.332657 244.667442 C 275.99862 248.000423 284.001695 252 279.331601 261.332347 C 274.665427 270.668615 257.333926 285.333732 246.00179 282.667347 C 234.665733 280.000962 229.332963 259.999155 227.999771 250.666808 C 226.666579 241.334461 229.332963 242.667653 233.999137 242.001057 Z M 233.999137 242.001057 " transform="matrix(0.996199, 0, 0, -0.996199, -141.808932, 503.042155)"/>
<path fill-rule="evenodd" fill="rgb(56.498718%, 93.299866%, 56.498718%)" fill-opacity="0.5" stroke-width="0.8" stroke-linecap="butt" stroke-linejoin="round" stroke="rgb(0%, 0%, 0%)" stroke-opacity="0.5" stroke-miterlimit="10" d="M 245.331273 234.001902 C 248.001579 238.668076 248.001579 245.334038 231.999348 253.333192 C 216.001039 261.332347 184.0005 270.668615 178.66773 268.668826 C 173.33496 266.665117 194.666039 253.333192 206.668692 236.001691 C 218.667424 218.666268 221.333809 197.331268 224.000194 194.668805 C 226.666579 191.998499 229.332963 208.000729 233.332541 217.333076 C 237.332118 226.665423 242.668809 229.331808 245.331273 234.001902 Z M 245.331273 234.001902 " transform="matrix(0.996199, 0, 0, -0.996199, -141.808932, 503.042155)"/>
<path fill-rule="evenodd" fill="rgb(37.298584%, 61.999512%, 62.69989%)" fill-opacity="0.5" stroke-width="0.8" stroke-linecap="butt" stroke-linejoin="round" stroke="rgb(0%, 0%, 0%)" stroke-opacity="0.5" stroke-miterlimit="10" d="M 225.333386 257.33277 C 226.666579 262.665539 229.332963 269.331502 231.999348 274.001596 C 234.665733 278.66777 237.332118 281.334155 233.332541 284.000539 C 229.332963 286.666924 218.667424 289.333309 207.331367 288.000117 C 195.999232 286.666924 184.0005 281.334155 177.334538 274.668192 C 170.668576 267.998309 169.331462 259.999155 178.001134 254.666385 C 186.666885 249.333615 205.331579 246.66723 214.667847 247.333827 C 224.000194 248.000423 224.000194 252 225.333386 257.33277 Z M 225.333386 257.33277 " transform="matrix(0.996199, 0, 0, -0.996199, -141.808932, 503.042155)"/>
<path fill-rule="evenodd" fill="rgb(100%, 60.099792%, 60.099792%)" fill-opacity="0.5" stroke-width="0.8" stroke-linecap="butt" stroke-linejoin="round" stroke="rgb(0%, 0%, 0%)" stroke-opacity="0.5" stroke-miterlimit="10" d="M 198.665617 245.334038 C 205.331579 244.000845 210.66827 244.000845 214.001251 243.334249 C 217.334232 242.667653 218.667424 241.334461 218.667424 238.668076 C 218.667424 236.001691 217.334232 231.998192 216.667635 227.998615 C 216.001039 223.999038 216.001039 219.999461 217.334232 215.999883 C 218.667424 212.000306 221.333809 208.000729 212.001462 206.00094 C 202.665194 204.001152 181.334115 204.001152 170.668576 212.000306 C 159.999115 219.999461 159.999115 236.001691 162.6655 244.000845 C 165.331885 252 170.668576 252 177.334538 250.666808 C 184.0005 249.333615 191.999654 246.66723 198.665617 245.334038 Z M 198.665617 245.334038 " transform="matrix(0.996199, 0, 0, -0.996199, -141.808932, 503.042155)"/>
<path fill-rule="evenodd" fill="rgb(100%, 49.798584%, 31.399536%)" fill-opacity="0.5" stroke-width="0.8" stroke-linecap="butt" stroke-linejoin="round" stroke="rgb(0%, 0%, 0%)" stroke-opacity="0.5" stroke-miterlimit="10" d="M 235.332329 262.665539 C 239.998503 259.999155 243.99808 255.999577 246.668386 260.665751 C 249.334771 265.331924 250.667963 278.66777 246.00179 286.666924 C 241.331695 294.666079 230.666156 297.332464 218.000828 297.332464 C 205.331579 297.332464 190.666462 294.666079 184.667096 289.999905 C 178.66773 285.333732 181.334115 278.66777 188.666673 274.668192 C 195.999232 270.668615 208.001885 269.331502 216.667635 267.998309 C 225.333386 266.665117 230.666156 265.331924 235.332329 262.665539 Z M 235.332329 262.665539 " transform="matrix(0.996199, 0, 0, -0.996199, -141.808932, 503.042155)"/>
<path fill-rule="evenodd" fill="rgb(67.799377%, 84.698486%, 90.19928%)" fill-opacity="0.5" stroke-width="0.8" stroke-linecap="butt" stroke-linejoin="round" stroke="rgb(0%, 0%, 0%)" stroke-opacity="0.5" stroke-miterlimit="10" d="M 277.892537 242.585309 C 286.130882 242.21672 294.451571 232.778502 296.514098 221.034645 C 298.580547 209.290789 294.388833 195.233451 279.519816 192.014183 C 264.646878 188.794916 239.088795 196.409797 227.956638 208.075231 C 216.824482 219.740664 220.118251 235.45665 226.752844 239.044507 C 233.387437 242.632363 243.362853 234.092089 252.432483 234.174433 C 261.498191 234.252856 269.654192 242.953897 277.892537 242.585309 Z M 277.892537 242.585309 " transform="matrix(0.996199, 0, 0, -0.996199, -141.808932, 503.042155)"/>
</svg>
