<?xml version="1.0" encoding="UTF-8"?>
<svg xmlns="http://www.w3.org/2000/svg" xmlns:xlink="http://www.w3.org/1999/xlink" width="94.3" height="91.8" viewBox="0 0 94.3 91.8">
<defs>
<clipPath id="clip-0">
<path clip-rule="nonzero" d="M 0 0.238281 L 93.605469 0.238281 L 93.605469 91 L 0 91 Z M 0 0.238281 "/>
</clipPath>
</defs>
<g clip-path="url(#clip-0)">
<path fill="none" stroke-width="0.8" stroke-linecap="butt" stroke-linejoin="round" stroke="rgb(0%, 0%, 0%)" stroke-opacity="1" stroke-miterlimit="10" d="M 254.667948 279.332143 C 254.667948 274.668876 253.333899 269.332682 254.667948 264.000423 C 255.998061 258.668164 260.000207 253.331969 262.668304 246.665662 C 265.332466 239.999354 266.666515 231.998998 265.332466 225.33269 C 263.998417 218.666382 260.000207 213.334123 263.333361 208.001864 C 266.666515 202.66567 277.331033 197.333411 290.667583 197.333411 C 304.000199 197.333411 320.000911 202.66567 330.665429 210.666026 C 341.333883 218.666382 346.666142 229.334836 346.666142 242.667451 C 346.666142 256.000067 341.333883 272.000779 330.665429 277.998095 C 320.000911 283.999346 304.000199 280.001135 289.998591 280.666192 C 276.000919 281.331249 263.998417 286.667443 258.666158 287.3325 C 253.333899 288.001492 254.667948 283.999346 254.667948 279.332143 Z M 254.667948 279.332143 " transform="matrix(0.992632, 0, 0, -0.992632, -251.400822, 286.348125)"/>
</g>
<path fill="none" stroke-width="0.8" stroke-linecap="butt" stroke-linejoin="round" stroke="rgb(0%, 0%, 50.19989%)" stroke-opacity="1" stroke-miterlimit="10" d="M 259.398114 275.60153 C 259.398114 271.398686 258.201799 266.601621 259.398114 261.80062 C 260.598364 256.999619 264.199115 252.198618 266.599615 246.201303 C 269.000116 240.200052 270.200366 232.99855 269.000116 227.001235 C 267.799866 220.999984 264.199115 216.198983 267.201708 211.401917 C 270.200366 206.600917 279.798432 201.799916 291.800934 201.799916 C 303.799501 201.799916 318.198568 206.600917 327.80057 213.798483 C 337.398636 220.999984 342.199637 230.59805 342.199637 242.600552 C 342.199637 254.599119 337.398636 268.998186 327.80057 274.401279 C 318.198568 279.800438 303.799501 276.199687 291.198842 276.80178 C 278.598182 277.399937 267.799866 282.200938 262.998865 282.799096 C 258.201799 283.401188 259.398114 279.800438 259.398114 275.60153 Z M 259.398114 275.60153 " transform="matrix(0.992632, 0, 0, -0.992632, -251.400822, 286.348125)"/>
<path fill="none" stroke-width="0.8" stroke-linecap="butt" stroke-linejoin="round" stroke="rgb(64.698792%, 16.499329%, 16.499329%)" stroke-opacity="1" stroke-miterlimit="10" d="M 263.659986 272.240829 C 263.659986 268.459057 262.581729 264.138156 263.659986 259.821191 C 264.738244 255.50029 267.980887 251.17939 270.141337 245.780231 C 272.301788 240.381073 273.380045 233.899722 272.301788 228.500564 C 271.219595 223.101405 267.980887 218.780505 270.680466 214.459604 C 273.380045 210.138703 282.021847 205.821738 292.820163 205.821738 C 303.61848 205.821738 316.581182 210.138703 325.219048 216.620054 C 333.860849 223.101405 338.18175 231.739272 338.18175 242.541523 C 338.18175 253.33984 333.860849 266.298607 325.219048 271.158636 C 316.581182 276.018666 303.61848 272.779958 292.281034 273.319087 C 280.939654 273.858215 271.219595 278.179116 266.898694 278.718245 C 262.581729 279.261309 263.659986 276.018666 263.659986 272.240829 Z M 263.659986 272.240829 " transform="matrix(0.992632, 0, 0, -0.992632, -251.400822, 286.348125)"/>
<path fill="none" stroke-width="0.8" stroke-linecap="butt" stroke-linejoin="round" stroke="rgb(17.999268%, 54.499817%, 34.098816%)" stroke-opacity="1" stroke-miterlimit="10" d="M 267.492916 269.214624 C 267.492916 265.814571 266.52091 261.926548 267.492916 258.038524 C 268.464922 254.150501 271.38094 250.262477 273.324952 245.402448 C 275.268963 240.542418 276.240969 234.710383 275.268963 229.850353 C 274.296958 224.990324 271.38094 221.1023 273.812922 217.214277 C 276.240969 213.326253 284.017017 209.438229 293.737076 209.438229 C 303.457135 209.438229 315.121205 213.326253 322.897253 219.158288 C 330.6733 224.990324 334.561323 232.766371 334.561323 242.48643 C 334.561323 252.206489 330.6733 263.87056 322.897253 268.242619 C 315.121205 272.618613 303.457135 269.702595 293.25304 270.18663 C 283.045011 270.674601 274.296958 274.562625 270.408934 275.04666 C 266.52091 275.53463 267.492916 272.618613 267.492916 269.214624 Z M 267.492916 269.214624 " transform="matrix(0.992632, 0, 0, -0.992632, -251.400822, 286.348125)"/>
<path fill="none" stroke-width="0.8" stroke-linecap="butt" stroke-linejoin="round" stroke="rgb(0%, 39.199829%, 0%)" stroke-opacity="1" stroke-miterlimit="10" d="M 270.944128 266.495369 C 270.944128 263.433747 270.070503 259.931378 270.944128 256.432944 C 271.821687 252.934509 274.442562 249.436075 276.193746 245.060081 C 277.944931 240.688022 278.818556 235.438403 277.944931 231.066344 C 277.067371 226.69035 274.442562 223.191916 276.630559 219.693482 C 278.818556 216.191112 285.815424 212.692678 294.563477 212.692678 C 303.31153 212.692678 313.810768 216.191112 320.807637 221.440731 C 327.80844 226.69035 331.306874 233.687219 331.306874 242.435272 C 331.306874 251.183325 327.80844 261.682563 320.807637 265.617809 C 313.810768 269.556991 303.31153 266.932181 294.126665 267.368994 C 284.9418 267.805806 277.067371 271.30424 273.568937 271.741053 C 270.070503 272.1818 270.944128 269.556991 270.944128 266.495369 Z M 270.944128 266.495369 " transform="matrix(0.992632, 0, 0, -0.992632, -251.400822, 286.348125)"/>
<path fill="none" stroke-width="0.8" stroke-linecap="butt" stroke-linejoin="round" stroke="rgb(0%, 0%, 0%)" stroke-opacity="1" stroke-miterlimit="10" d="M 274.049037 264.04371 C 274.049037 261.289038 273.261988 258.140841 274.049037 254.988708 C 274.836086 251.840511 277.197234 248.692314 278.775268 244.753132 C 280.349367 240.817885 281.136416 236.095589 280.349367 232.156408 C 279.562317 228.221161 277.197234 225.072964 279.168793 221.924767 C 281.136416 218.772634 287.436746 215.624437 295.307239 215.624437 C 303.181667 215.624437 312.630194 218.772634 318.926589 223.498865 C 325.226918 228.221161 328.375116 234.521491 328.375116 242.391984 C 328.375116 250.266412 325.226918 259.714939 318.926589 263.256661 C 312.630194 266.798383 303.181667 264.437235 294.913714 264.83076 C 286.645761 265.224284 279.562317 268.376417 276.410185 268.769942 C 273.261988 269.163466 274.049037 266.798383 274.049037 264.04371 Z M 274.049037 264.04371 " transform="matrix(0.992632, 0, 0, -0.992632, -251.400822, 286.348125)"/>
<path fill="none" stroke-width="0.8" stroke-linecap="butt" stroke-linejoin="round" stroke="rgb(27.099609%, 54.499817%, 45.498657%)" stroke-opacity="1" stroke-miterlimit="10" d="M 276.843062 261.839972 C 276.843062 259.360767 276.138653 256.52739 276.843062 253.690077 C 277.555342 250.856699 279.680375 248.023322 281.097064 244.4816 C 282.513752 240.939878 283.222097 236.685876 282.513752 233.144155 C 281.805408 229.598497 279.680375 226.76512 281.451236 223.931742 C 283.222097 221.098365 288.892787 218.261052 295.976231 218.261052 C 303.06361 218.261052 311.567678 221.098365 317.234433 225.348431 C 322.905123 229.598497 325.738501 235.269188 325.738501 242.356567 C 325.738501 249.440011 322.905123 257.944078 317.234433 261.131628 C 311.567678 264.319178 303.06361 262.194145 295.622059 262.548317 C 288.184443 262.902489 281.805408 265.739802 278.97203 266.090039 C 276.138653 266.448146 276.843062 264.319178 276.843062 261.839972 Z M 276.843062 261.839972 " transform="matrix(0.992632, 0, 0, -0.992632, -251.400822, 286.348125)"/>
<path fill="none" stroke-width="0.8" stroke-linecap="butt" stroke-linejoin="round" stroke="rgb(0%, 0%, 54.499817%)" stroke-opacity="1" stroke-miterlimit="10" d="M 279.36162 259.856608 C 279.36162 257.625323 278.72411 255.075284 279.36162 252.521309 C 279.99913 249.971269 281.91166 247.421229 283.18668 244.233679 C 284.461699 241.042194 285.099209 237.217135 284.461699 234.029585 C 283.824189 230.8381 281.91166 228.28806 283.505435 225.738021 C 285.099209 223.187981 290.203224 220.637941 296.578324 220.637941 C 302.957358 220.637941 310.607478 223.187981 315.711492 227.01304 C 320.811572 230.8381 323.365547 235.942115 323.365547 242.317214 C 323.365547 248.696249 320.811572 256.350303 315.711492 259.219098 C 310.607478 262.087893 302.957358 260.175363 296.259569 260.494118 C 289.565714 260.812873 283.824189 263.362913 281.27415 263.681668 C 278.72411 264.000423 279.36162 262.087893 279.36162 259.856608 Z M 279.36162 259.856608 " transform="matrix(0.992632, 0, 0, -0.992632, -251.400822, 286.348125)"/>
<path fill="none" stroke-width="0.8" stroke-linecap="butt" stroke-linejoin="round" stroke="rgb(54.499817%, 13.699341%, 13.699341%)" stroke-opacity="1" stroke-miterlimit="10" d="M 281.624387 258.070006 C 281.624387 256.06303 281.049841 253.764847 281.624387 251.470598 C 282.198933 249.172414 283.918635 246.878165 285.067727 244.00937 C 286.216819 241.140576 286.791365 237.6933 286.216819 234.824505 C 285.642273 231.95571 283.918635 229.661461 285.355 227.363277 C 286.791365 225.069029 291.383798 222.770845 297.121388 222.770845 C 302.862912 222.770845 309.749594 225.069029 314.338091 228.512369 C 318.930524 231.95571 321.228708 236.548143 321.228708 242.285732 C 321.228708 248.027257 318.930524 254.913938 314.338091 257.49546 C 309.749594 260.080917 302.862912 258.357279 296.834115 258.644552 C 290.809252 258.931825 285.642273 261.226074 283.344089 261.513347 C 281.049841 261.80062 281.624387 260.080917 281.624387 258.070006 Z M 281.624387 258.070006 " transform="matrix(0.992632, 0, 0, -0.992632, -251.400822, 286.348125)"/>
<path fill="none" stroke-width="0.8" stroke-linecap="butt" stroke-linejoin="round" stroke="rgb(32.499695%, 52.49939%, 54.499817%)" stroke-opacity="1" stroke-miterlimit="10" d="M 283.662844 256.464426 C 283.662844 254.654212 283.143392 252.588208 283.662844 250.522203 C 284.178362 248.456199 285.728849 246.390194 286.759883 243.808673 C 287.794853 241.223216 288.310371 238.126177 287.794853 235.544655 C 287.279336 232.959198 285.728849 230.893194 287.01961 228.827189 C 288.310371 226.761185 292.442379 224.69518 297.609358 224.69518 C 302.776337 224.69518 308.97435 226.761185 313.106359 229.858224 C 317.238368 232.959198 319.304372 237.091207 319.304372 242.258186 C 319.304372 247.425164 317.238368 253.623178 313.106359 255.948908 C 308.97435 258.270704 302.776337 256.720217 297.349632 256.979943 C 291.926862 257.239669 287.279336 259.305674 285.213332 259.561465 C 283.143392 259.821191 283.662844 258.270704 283.662844 256.464426 Z M 283.662844 256.464426 " transform="matrix(0.992632, 0, 0, -0.992632, -251.400822, 286.348125)"/>
<path fill="none" stroke-width="0.8" stroke-linecap="butt" stroke-linejoin="round" stroke="rgb(13.299561%, 54.499817%, 13.299561%)" stroke-opacity="1" stroke-miterlimit="10" d="M 285.496669 255.016255 C 285.496669 253.390998 285.03231 251.529626 285.496669 249.67219 C 285.961028 247.810818 287.354106 245.949447 288.286759 243.627651 C 289.215477 241.301921 289.679836 238.511831 289.215477 236.1861 C 288.751118 233.864305 287.354106 232.002933 288.518939 230.145497 C 289.679836 228.284125 293.398644 226.426689 298.046171 226.426689 C 302.697632 226.426689 308.277812 228.284125 311.99662 231.074215 C 315.715428 233.864305 317.572864 237.583113 317.572864 242.230639 C 317.572864 246.8821 315.715428 252.458345 311.99662 254.551896 C 308.277812 256.645447 302.697632 255.248434 297.817926 255.480614 C 292.934285 255.712794 288.751118 257.574165 286.889747 257.806345 C 285.03231 258.038524 285.496669 256.645447 285.496669 255.016255 Z M 285.496669 255.016255 " transform="matrix(0.992632, 0, 0, -0.992632, -251.400822, 286.348125)"/>
<path fill="none" stroke-width="0.8" stroke-linecap="butt" stroke-linejoin="round" stroke="rgb(0%, 0%, 0%)" stroke-opacity="1" stroke-miterlimit="10" d="M 287.145538 253.717624 C 287.145538 252.249777 286.728401 250.577297 287.145538 248.904817 C 287.566609 247.232337 288.821953 245.555922 289.656225 243.466306 C 290.494432 241.372755 290.911569 238.862068 290.494432 236.768517 C 290.073361 234.678901 288.821953 233.002486 289.864793 231.330006 C 290.911569 229.657526 294.260463 227.981111 298.44363 227.981111 C 302.626798 227.981111 307.648172 229.657526 310.997067 232.168213 C 314.342027 234.678901 316.018442 238.02386 316.018442 242.210963 C 316.018442 246.39413 314.342027 251.415504 310.997067 253.296552 C 307.648172 255.181535 302.626798 253.926192 298.235062 254.13476 C 293.839392 254.343328 290.073361 256.015808 288.400881 256.224376 C 286.728401 256.436879 287.145538 255.181535 287.145538 253.717624 Z M 287.145538 253.717624 " transform="matrix(0.992632, 0, 0, -0.992632, -251.400822, 286.348125)"/>
<path fill="none" stroke-width="0.8" stroke-linecap="butt" stroke-linejoin="round" stroke="rgb(0%, 0%, 0%)" stroke-opacity="1" stroke-miterlimit="10" d="M 288.633061 252.54492 C 288.633061 251.226612 288.255277 249.719413 288.633061 248.212214 C 289.006909 246.708949 290.136325 245.20175 290.891892 243.316767 C 291.643524 241.435719 292.021308 239.176888 291.643524 237.291904 C 291.269676 235.410857 290.136325 233.903657 291.080784 232.396458 C 292.021308 230.889258 295.031772 229.385994 298.797803 229.385994 C 302.563834 229.385994 307.085432 230.889258 310.095895 233.152025 C 313.110294 235.410857 314.613559 238.42132 314.613559 242.187351 C 314.613559 245.953382 313.110294 250.471045 310.095895 252.167136 C 307.085432 253.863228 302.563834 252.733812 298.612846 252.922704 C 294.657923 253.10766 291.269676 254.61486 289.762477 254.803752 C 288.255277 254.992643 288.633061 253.863228 288.633061 252.54492 Z M 288.633061 252.54492 " transform="matrix(0.992632, 0, 0, -0.992632, -251.400822, 286.348125)"/>
<path fill="none" stroke-width="0.8" stroke-linecap="butt" stroke-linejoin="round" stroke="rgb(0%, 0%, 0%)" stroke-opacity="1" stroke-miterlimit="10" d="M 291.305093 250.435628 C 291.305093 249.380982 291.002079 248.176796 291.305093 246.972611 C 291.608107 245.76449 292.509279 244.560305 293.111371 243.053105 C 293.713464 241.549841 294.016478 239.739628 293.713464 238.236364 C 293.414385 236.729164 292.509279 235.521043 293.264846 234.316858 C 294.016478 233.112673 296.428784 231.908487 299.439248 231.908487 C 302.453647 231.908487 306.066203 233.112673 308.478509 234.922886 C 310.88688 236.729164 312.091065 239.137535 312.091065 242.151934 C 312.091065 245.162398 310.88688 248.778889 308.478509 250.132614 C 306.066203 251.490274 302.453647 250.585167 299.289708 250.738642 C 296.12577 250.888181 293.414385 252.092367 292.2102 252.241906 C 291.002079 252.395381 291.305093 251.490274 291.305093 250.435628 Z M 291.305093 250.435628 " transform="matrix(0.992632, 0, 0, -0.992632, -251.400822, 286.348125)"/>
<path fill="none" stroke-width="0.8" stroke-linecap="butt" stroke-linejoin="round" stroke="rgb(0%, 0%, 0%)" stroke-opacity="1" stroke-miterlimit="10" d="M 293.445867 248.747407 C 293.445867 247.905264 293.201882 246.941129 293.445867 245.976994 C 293.685917 245.012858 294.406067 244.048723 294.890103 242.844537 C 295.370203 241.640352 295.614188 240.192181 295.370203 238.987996 C 295.130153 237.78381 294.406067 236.819675 295.012095 235.855539 C 295.614188 234.891404 297.542459 233.927269 299.95083 233.927269 C 302.363136 233.927269 305.255542 234.891404 307.183813 236.33564 C 309.108149 237.78381 310.072284 239.712081 310.072284 242.120452 C 310.072284 244.532758 309.108149 247.421229 307.183813 248.507357 C 305.255542 249.593485 302.363136 248.8694 299.832772 248.987457 C 297.298474 249.10945 295.130153 250.073585 294.166017 250.195578 C 293.201882 250.313635 293.445867 249.593485 293.445867 248.747407 Z M 293.445867 248.747407 " transform="matrix(0.992632, 0, 0, -0.992632, -251.400822, 286.348125)"/>
</svg>
