<?xml version="1.0" encoding="UTF-8"?>
<svg xmlns="http://www.w3.org/2000/svg" xmlns:xlink="http://www.w3.org/1999/xlink" width="93.9" height="91.4" viewBox="0 0 93.9 91.4">
<defs>
<clipPath id="clip-0">
<path clip-rule="nonzero" d="M 0.257812 0 L 93 0 L 93 90.804688 L 0.257812 90.804688 Z M 0.257812 0 "/>
</clipPath>
</defs>
<g clip-path="url(#clip-0)">
<path fill-rule="evenodd" fill="rgb(100%, 54.899597%, 0%)" fill-opacity="0.1" d="M 1.449219 8.644531 C 1.449219 13.277344 0.125 18.578125 1.449219 23.875 C 2.773438 29.175781 6.746094 34.472656 9.398438 41.097656 C 12.046875 47.71875 13.371094 55.667969 12.046875 62.292969 C 10.722656 68.914062 6.746094 74.210938 10.058594 79.511719 C 13.371094 84.808594 23.96875 90.109375 37.214844 90.109375 C 50.460938 90.109375 66.355469 84.808594 76.953125 76.863281 C 87.550781 68.914062 92.847656 58.316406 92.847656 45.070312 C 92.847656 31.824219 87.550781 15.929688 76.953125 9.96875 C 66.355469 4.007812 50.460938 7.980469 36.550781 7.316406 C 22.640625 6.65625 10.722656 1.355469 5.421875 0.695312 C 0.125 0.03125 1.449219 4.007812 1.449219 8.644531 Z M 1.449219 8.644531 "/>
</g>
<path fill-rule="evenodd" fill="rgb(0%, 0%, 100%)" fill-opacity="0.1" d="M 6.152344 12.351562 C 6.152344 16.523438 4.957031 21.292969 6.152344 26.0625 C 7.34375 30.832031 10.917969 35.597656 13.304688 41.558594 C 15.6875 47.519531 16.878906 54.675781 15.6875 60.636719 C 14.496094 66.597656 10.917969 71.363281 13.898438 76.132812 C 16.878906 80.902344 26.417969 85.671875 38.339844 85.671875 C 50.261719 85.671875 64.566406 80.902344 74.105469 73.75 C 83.640625 66.597656 88.410156 57.058594 88.410156 45.136719 C 88.410156 33.214844 83.640625 18.910156 74.105469 13.542969 C 64.566406 8.179688 50.261719 11.753906 37.742188 11.160156 C 25.226562 10.5625 14.496094 5.796875 9.726562 5.199219 C 4.957031 4.601562 6.152344 8.179688 6.152344 12.351562 Z M 6.152344 12.351562 "/>
<path fill-rule="evenodd" fill="rgb(100%, 54.899597%, 0%)" fill-opacity="0.1" d="M 10.382812 15.691406 C 10.382812 19.445312 9.308594 23.738281 10.382812 28.027344 C 11.457031 32.320312 14.675781 36.613281 16.820312 41.976562 C 18.964844 47.34375 20.039062 53.78125 18.964844 59.144531 C 17.894531 64.507812 14.675781 68.800781 17.355469 73.09375 C 20.039062 77.386719 28.625 81.675781 39.351562 81.675781 C 50.082031 81.675781 62.957031 77.386719 71.542969 70.945312 C 80.125 64.507812 84.417969 55.925781 84.417969 45.195312 C 84.417969 34.464844 80.125 21.589844 71.542969 16.761719 C 62.957031 11.933594 50.082031 15.152344 38.816406 14.617188 C 27.550781 14.082031 17.894531 9.789062 13.601562 9.253906 C 9.308594 8.714844 10.382812 11.933594 10.382812 15.691406 Z M 10.382812 15.691406 "/>
<path fill-rule="evenodd" fill="rgb(100%, 100%, 0%)" fill-opacity="0.1" d="M 14.191406 18.695312 C 14.191406 22.074219 13.226562 25.9375 14.191406 29.800781 C 15.15625 33.660156 18.054688 37.523438 19.984375 42.351562 C 21.917969 47.179688 22.882812 52.976562 21.917969 57.804688 C 20.953125 62.632812 18.054688 66.496094 20.46875 70.355469 C 22.882812 74.21875 30.609375 78.082031 40.265625 78.082031 C 49.921875 78.082031 61.507812 74.21875 69.234375 68.425781 C 76.960938 62.632812 80.824219 54.90625 80.824219 45.25 C 80.824219 35.59375 76.960938 24.003906 69.234375 19.660156 C 61.507812 15.316406 49.921875 18.210938 39.78125 17.730469 C 29.644531 17.246094 20.953125 13.382812 17.089844 12.898438 C 13.226562 12.417969 14.191406 15.316406 14.191406 18.695312 Z M 14.191406 18.695312 "/>
<path fill-rule="evenodd" fill="rgb(0%, 0%, 0%)" fill-opacity="0.1" d="M 17.621094 21.398438 C 17.621094 24.441406 16.75 27.917969 17.621094 31.394531 C 18.488281 34.867188 21.097656 38.34375 22.835938 42.691406 C 24.574219 47.035156 25.441406 52.25 24.574219 56.597656 C 23.703125 60.941406 21.097656 64.417969 23.269531 67.894531 C 25.441406 71.371094 32.394531 74.847656 41.085938 74.847656 C 49.777344 74.847656 60.207031 71.371094 67.160156 66.15625 C 74.113281 60.941406 77.585938 53.988281 77.585938 45.296875 C 77.585938 36.609375 74.113281 26.179688 67.160156 22.269531 C 60.207031 18.355469 49.777344 20.964844 40.652344 20.527344 C 31.527344 20.09375 23.703125 16.617188 20.226562 16.183594 C 16.75 15.75 17.621094 18.355469 17.621094 21.398438 Z M 17.621094 21.398438 "/>
<path fill-rule="evenodd" fill="rgb(54.499817%, 0%, 54.499817%)" fill-opacity="0.1" d="M 20.707031 23.832031 C 20.707031 26.570312 19.921875 29.699219 20.707031 32.828125 C 21.488281 35.957031 23.832031 39.085938 25.398438 42.996094 C 26.964844 46.90625 27.746094 51.597656 26.964844 55.511719 C 26.179688 59.421875 23.832031 62.550781 25.789062 65.679688 C 27.746094 68.808594 34.003906 71.9375 41.824219 71.9375 C 49.644531 71.9375 59.03125 68.808594 65.289062 64.113281 C 71.546875 59.421875 74.675781 53.164062 74.675781 45.34375 C 74.675781 37.519531 71.546875 28.132812 65.289062 24.613281 C 59.03125 21.09375 49.644531 23.441406 41.433594 23.050781 C 33.21875 22.660156 26.179688 19.53125 23.050781 19.140625 C 19.921875 18.746094 20.707031 21.09375 20.707031 23.832031 Z M 20.707031 23.832031 "/>
<path fill-rule="evenodd" fill="rgb(100%, 54.899597%, 0%)" fill-opacity="0.1" d="M 23.480469 26.019531 C 23.480469 28.484375 22.777344 31.300781 23.480469 34.117188 C 24.1875 36.933594 26.296875 39.75 27.707031 43.269531 C 29.113281 46.789062 29.820312 51.011719 29.113281 54.53125 C 28.410156 58.050781 26.296875 60.867188 28.058594 63.683594 C 29.820312 66.5 35.449219 69.316406 42.488281 69.316406 C 49.527344 69.316406 57.976562 66.5 63.609375 62.273438 C 69.242188 58.050781 72.054688 52.417969 72.054688 45.378906 C 72.054688 38.339844 69.242188 29.894531 63.609375 26.726562 C 57.976562 23.558594 49.527344 25.667969 42.136719 25.316406 C 34.746094 24.964844 28.410156 22.148438 25.59375 21.796875 C 22.777344 21.445312 23.480469 23.558594 23.480469 26.019531 Z M 23.480469 26.019531 "/>
<path fill-rule="evenodd" fill="rgb(100%, 54.899597%, 0%)" fill-opacity="0.1" d="M 25.980469 27.992188 C 25.980469 30.210938 25.347656 32.742188 25.980469 35.277344 C 26.613281 37.8125 28.515625 40.347656 29.78125 43.515625 C 31.050781 46.683594 31.683594 50.484375 31.050781 53.652344 C 30.414062 56.820312 28.515625 59.355469 30.101562 61.890625 C 31.683594 64.421875 36.75 66.957031 43.085938 66.957031 C 49.421875 66.957031 57.027344 64.421875 62.09375 60.621094 C 67.164062 56.820312 69.699219 51.75 69.699219 45.414062 C 69.699219 39.082031 67.164062 31.476562 62.09375 28.625 C 57.027344 25.773438 49.421875 27.675781 42.769531 27.359375 C 36.117188 27.042969 30.414062 24.507812 27.882812 24.191406 C 25.347656 23.875 25.980469 25.773438 25.980469 27.992188 Z M 25.980469 27.992188 "/>
<path fill-rule="evenodd" fill="rgb(100%, 54.899597%, 0%)" fill-opacity="0.1" d="M 28.230469 29.765625 C 28.230469 31.761719 27.660156 34.042969 28.230469 36.324219 C 28.800781 38.605469 30.511719 40.886719 31.652344 43.738281 C 32.792969 46.589844 33.363281 50.007812 32.792969 52.859375 C 32.222656 55.710938 30.511719 57.992188 31.9375 60.273438 C 33.363281 62.554688 37.925781 64.835938 43.625 64.835938 C 49.328125 64.835938 56.171875 62.554688 60.734375 59.132812 C 65.292969 55.710938 67.574219 51.148438 67.574219 45.449219 C 67.574219 39.746094 65.292969 32.902344 60.734375 30.335938 C 56.171875 27.773438 49.328125 29.480469 43.339844 29.195312 C 37.355469 28.910156 32.222656 26.632812 29.941406 26.347656 C 27.660156 26.0625 28.230469 27.773438 28.230469 29.765625 Z M 28.230469 29.765625 "/>
<path fill-rule="evenodd" fill="rgb(100%, 54.899597%, 0%)" fill-opacity="0.1" d="M 30.253906 31.363281 C 30.253906 33.160156 29.742188 35.210938 30.253906 37.265625 C 30.769531 39.316406 32.308594 41.371094 33.332031 43.9375 C 34.359375 46.503906 34.875 49.582031 34.359375 52.148438 C 33.847656 54.714844 32.308594 56.765625 33.589844 58.820312 C 34.875 60.871094 38.976562 62.925781 44.109375 62.925781 C 49.242188 62.925781 55.402344 60.871094 59.507812 57.792969 C 63.613281 54.714844 65.664062 50.609375 65.664062 45.476562 C 65.664062 40.34375 63.613281 34.1875 59.507812 31.875 C 55.402344 29.566406 49.242188 31.105469 43.855469 30.851562 C 38.464844 30.59375 33.847656 28.542969 31.792969 28.285156 C 29.742188 28.027344 30.253906 29.566406 30.253906 31.363281 Z M 30.253906 31.363281 "/>
<path fill-rule="evenodd" fill="rgb(100%, 54.899597%, 0%)" fill-opacity="0.1" d="M 32.078125 32.800781 C 32.078125 34.417969 31.613281 36.265625 32.078125 38.113281 C 32.539062 39.960938 33.921875 41.808594 34.847656 44.117188 C 35.769531 46.425781 36.234375 49.195312 35.769531 51.507812 C 35.308594 53.816406 33.921875 55.664062 35.078125 57.511719 C 36.234375 59.359375 39.929688 61.207031 44.546875 61.207031 C 49.164062 61.207031 54.707031 59.359375 58.402344 56.585938 C 62.097656 53.816406 63.945312 50.121094 63.945312 45.503906 C 63.945312 40.882812 62.097656 35.339844 58.402344 33.261719 C 54.707031 31.183594 49.164062 32.570312 44.316406 32.339844 C 39.464844 32.109375 35.308594 30.261719 33.460938 30.03125 C 31.613281 29.796875 32.078125 31.183594 32.078125 32.800781 Z M 32.078125 32.800781 "/>
<path fill-rule="evenodd" fill="rgb(100%, 54.899597%, 0%)" fill-opacity="0.1" d="M 33.714844 34.09375 C 33.714844 35.546875 33.300781 37.210938 33.714844 38.875 C 34.132812 40.535156 35.378906 42.199219 36.210938 44.277344 C 37.042969 46.355469 37.457031 48.851562 37.042969 50.929688 C 36.625 53.007812 35.378906 54.671875 36.417969 56.332031 C 37.457031 57.996094 40.78125 59.660156 44.9375 59.660156 C 49.097656 59.660156 54.085938 57.996094 57.410156 55.5 C 60.734375 53.007812 62.398438 49.683594 62.398438 45.523438 C 62.398438 41.367188 60.734375 36.378906 57.410156 34.507812 C 54.085938 32.640625 49.097656 33.886719 44.730469 33.679688 C 40.367188 33.46875 36.625 31.808594 34.960938 31.597656 C 33.300781 31.390625 33.714844 32.640625 33.714844 34.09375 Z M 33.714844 34.09375 "/>
<path fill-rule="evenodd" fill="rgb(100%, 54.899597%, 0%)" fill-opacity="0.1" d="M 35.191406 35.257812 C 35.191406 36.566406 34.816406 38.0625 35.191406 39.558594 C 35.566406 41.054688 36.6875 42.550781 37.4375 44.421875 C 38.183594 46.292969 38.558594 48.539062 38.183594 50.410156 C 37.8125 52.28125 36.6875 53.777344 37.625 55.273438 C 38.558594 56.769531 41.550781 58.265625 45.292969 58.265625 C 49.035156 58.265625 53.523438 56.769531 56.515625 54.523438 C 59.507812 52.28125 61.003906 49.285156 61.003906 45.546875 C 61.003906 41.804688 59.507812 37.316406 56.515625 35.632812 C 53.523438 33.949219 49.035156 35.070312 45.105469 34.882812 C 41.179688 34.695312 37.8125 33.199219 36.3125 33.011719 C 34.816406 32.824219 35.191406 33.949219 35.191406 35.257812 Z M 35.191406 35.257812 "/>
<path fill-rule="evenodd" fill="rgb(54.499817%, 0%, 54.499817%)" fill-opacity="0.1" d="M 37.847656 37.351562 C 37.847656 38.398438 37.546875 39.597656 37.847656 40.792969 C 38.148438 41.992188 39.042969 43.1875 39.644531 44.683594 C 40.242188 46.183594 40.542969 47.976562 40.242188 49.472656 C 39.941406 50.96875 39.042969 52.167969 39.792969 53.363281 C 40.542969 54.5625 42.9375 55.757812 45.929688 55.757812 C 48.921875 55.757812 52.511719 54.5625 54.90625 52.765625 C 57.300781 50.96875 58.5 48.574219 58.5 45.582031 C 58.5 42.589844 57.300781 38.996094 54.90625 37.652344 C 52.511719 36.304688 48.921875 37.203125 45.78125 37.054688 C 42.636719 36.902344 39.941406 35.707031 38.746094 35.554688 C 37.546875 35.40625 37.847656 36.304688 37.847656 37.351562 Z M 37.847656 37.351562 "/>
<path fill-rule="evenodd" fill="rgb(100%, 100%, 100%)" fill-opacity="0.1" d="M 39.972656 39.027344 C 39.972656 39.867188 39.734375 40.824219 39.972656 41.78125 C 40.210938 42.738281 40.929688 43.695312 41.410156 44.894531 C 41.886719 46.089844 42.128906 47.527344 41.886719 48.726562 C 41.648438 49.921875 40.929688 50.878906 41.53125 51.835938 C 42.128906 52.796875 44.042969 53.753906 46.4375 53.753906 C 48.832031 53.753906 51.707031 52.796875 53.621094 51.359375 C 55.535156 49.921875 56.496094 48.007812 56.496094 45.613281 C 56.496094 43.21875 55.535156 40.34375 53.621094 39.269531 C 51.707031 38.191406 48.832031 38.910156 46.316406 38.789062 C 43.804688 38.667969 41.648438 37.710938 40.691406 37.59375 C 39.734375 37.472656 39.972656 38.191406 39.972656 39.027344 Z M 39.972656 39.027344 "/>
</svg>
