<?xml version="1.0" encoding="UTF-8"?>
<svg xmlns="http://www.w3.org/2000/svg" xmlns:xlink="http://www.w3.org/1999/xlink" width="208.4" height="504" viewBox="0 0 208.4 504">
<defs>
<clipPath id="clip-0">
<path clip-rule="nonzero" d="M 0 204 L 207.800781 204 L 207.800781 316 L 0 316 Z M 0 204 "/>
</clipPath>
</defs>
<g clip-path="url(#clip-0)">
<path fill-rule="evenodd" fill="rgb(100%, 100%, 100%)" fill-opacity="0.7" d="M 0.199219 204.136719 L 0.199219 315.816406 L 207.601562 315.816406 L 207.601562 204.136719 Z M 0.199219 204.136719 "/>
</g>
<path fill="none" stroke-width="0.8" stroke-linecap="butt" stroke-linejoin="round" stroke="rgb(0%, 0%, 0%)" stroke-opacity="1" stroke-miterlimit="10" d="M 184.001112 244.666447 C 180.001348 238.66876 176.001584 233.33313 173.999744 228.001417 C 172.00182 222.665787 172.00182 217.334074 167.332165 214.666259 C 162.666426 211.998444 153.33495 211.998444 147.99932 219.331998 C 142.667607 226.665551 141.331741 241.332657 146.001397 254.001841 C 150.667135 266.667107 161.334478 277.334449 167.998139 279.998347 C 174.665718 282.666162 177.333533 277.334449 181.333297 274.00066 C 185.333061 270.66687 190.668691 269.334922 193.332588 267.999055 C 196.000403 266.667107 196.000403 265.33124 193.998563 261.331476 C 192.00064 257.331713 188.000876 250.668051 184.001112 244.666447 Z M 184.001112 244.666447 " transform="matrix(0.997129, 0, 0, -0.997129, -139.39866, 503.276555)"/>
<path fill="none" stroke-width="0.8" stroke-linecap="butt" stroke-linejoin="round" stroke="rgb(0%, 0%, 0%)" stroke-opacity="1" stroke-miterlimit="10" d="M 285.331074 263.999291 C 287.998889 258.667579 287.998889 253.331949 287.332914 249.998159 C 286.66694 246.668287 285.331074 245.332421 286.66694 244.000472 C 287.998889 242.668524 291.998653 241.332657 295.332442 238.66876 C 298.666232 236.000945 301.334047 232.001181 307.331734 232.001181 C 313.333338 232.001181 322.668732 236.000945 327.33447 244.000472 C 332.000208 252 332.000208 263.999291 324.666655 274.00066 C 317.333102 283.998111 302.665995 292.001556 292.668545 292.66753 C 282.667176 293.333505 277.331546 286.665926 277.331546 280.668239 C 277.331546 274.666634 282.667176 269.334922 285.331074 263.999291 Z M 285.331074 263.999291 " transform="matrix(0.997129, 0, 0, -0.997129, -139.39866, 503.276555)"/>
<path fill="none" stroke-width="0.8" stroke-linecap="butt" stroke-linejoin="round" stroke="rgb(0%, 0%, 0%)" stroke-opacity="1" stroke-miterlimit="10" d="M 235.332067 262.667343 C 240.001723 259.999528 244.001487 255.999764 246.665384 260.665502 C 249.333199 265.33124 250.665148 278.666398 245.99941 286.665926 C 241.333672 294.665453 230.666329 297.333268 218.001063 297.333268 C 205.33188 297.333268 190.668691 294.665453 184.667086 289.999715 C 178.665482 285.333977 181.333297 278.666398 188.66685 274.666634 C 196.000403 270.66687 207.999695 269.334922 216.665197 267.999055 C 225.334616 266.667107 230.666329 265.33124 235.332067 262.667343 Z M 235.332067 262.667343 " transform="matrix(0.997129, 0, 0, -0.997129, -139.39866, 503.276555)"/>
</svg>
