<?xml version="1.0" encoding="UTF-8"?>
<svg xmlns="http://www.w3.org/2000/svg" xmlns:xlink="http://www.w3.org/1999/xlink" width="208.4" height="504" viewBox="0 0 208.4 504">
<path fill="none" stroke-width="0.8" stroke-linecap="butt" stroke-linejoin="round" stroke="rgb(0%, 0%, 0%)" stroke-opacity="1" stroke-miterlimit="10" d="M 184.001112 244.666447 C 180.001348 238.66876 176.001584 233.33313 173.999744 228.001417 C 172.00182 222.665787 172.00182 217.334074 167.332165 214.666259 C 162.666426 211.998444 153.33495 211.998444 147.99932 219.331998 C 142.667607 226.665551 141.331741 241.332657 146.001397 254.001841 C 150.667135 266.667107 161.334478 277.334449 167.998139 279.998347 C 174.665718 282.666162 177.333533 277.334449 181.333297 274.00066 C 185.333061 270.66687 190.668691 269.334922 193.332588 267.999055 C 196.000403 266.667107 196.000403 265.33124 193.998563 261.331476 C 192.00064 257.331713 188.000876 250.668051 184.001112 244.666447 Z M 184.001112 244.666447 " transform="matrix(0.997129, 0, 0, -0.997129, -139.39866, 503.276555)"/>
<path fill="none" stroke-width="0.8" stroke-linecap="butt" stroke-linejoin="round" stroke="rgb(0%, 0%, 0%)" stroke-opacity="1" stroke-miterlimit="10" d="M 285.331074 263.999291 C 287.998889 258.667579 287.998889 253.331949 287.332914 249.998159 C 286.66694 246.668287 285.331074 245.332421 286.66694 244.000472 C 287.998889 242.668524 291.998653 241.332657 295.332442 238.66876 C 298.666232 236.000945 301.334047 232.001181 307.331734 232.001181 C 313.333338 232.001181 322.668732 236.000945 327.33447 244.000472 C 332.000208 252 332.000208 263.999291 324.666655 274.00066 C 317.333102 283.998111 302.665995 292.001556 292.668545 292.66753 C 282.667176 293.333505 277.331546 286.665926 277.331546 280.668239 C 277.331546 274.666634 282.667176 269.334922 285.331074 263.999291 Z M 285.331074 263.999291 " transform="matrix(0.997129, 0, 0, -0.997129, -139.39866, 503.276555)"/>
<path fill="none" stroke-width="0.8" stroke-linecap="butt" stroke-linejoin="round" stroke="rgb(0%, 0%, 0%)" stroke-opacity="1" stroke-miterlimit="10" d="M 235.332067 262.667343 C 240.001723 259.999528 244.001487 255.999764 246.665384 260.665502 C 249.333199 265.33124 250.665148 278.666398 245.99941 286.665926 C 241.333672 294.665453 230.666329 297.333268 218.001063 297.333268 C 205.33188 297.333268 190.668691 294.665453 184.667086 289.999715 C 178.665482 285.333977 181.333297 278.666398 188.66685 274.666634 C 196.000403 270.66687 207.999695 269.334922 216.665197 267.999055 C 225.334616 266.667107 230.666329 265.33124 235.332067 262.667343 Z M 235.332067 262.667343 " transform="matrix(0.997129, 0, 0, -0.997129, -139.39866, 503.276555)"/>
<path fill-rule="evenodd" fill="rgb(60.798645%, 18.798828%, 100%)" fill-opacity="0.5" d="M 44.074219 259.3125 C 40.085938 265.292969 36.097656 270.613281 34.101562 275.929688 C 32.109375 281.25 32.109375 286.566406 27.453125 289.226562 C 22.800781 291.886719 13.496094 291.886719 8.175781 284.574219 C 2.859375 277.261719 1.527344 262.636719 6.183594 250.003906 C 10.835938 237.375 21.472656 226.738281 28.117188 224.082031 C 34.765625 221.421875 37.425781 226.738281 41.414062 230.0625 C 45.402344 233.386719 50.722656 234.714844 53.378906 236.046875 C 56.039062 237.375 56.039062 238.707031 54.042969 242.695312 C 52.050781 246.683594 48.0625 253.328125 44.074219 259.3125 Z M 44.074219 259.3125 "/>
<path fill-rule="evenodd" fill="rgb(100%, 60.099792%, 60.099792%)" fill-opacity="0.5" d="M 145.113281 240.035156 C 147.773438 245.351562 147.773438 250.671875 147.109375 253.996094 C 146.445312 257.316406 145.113281 258.648438 146.445312 259.976562 C 147.773438 261.304688 151.761719 262.636719 155.085938 265.292969 C 158.410156 267.953125 161.070312 271.941406 167.050781 271.941406 C 173.035156 271.941406 182.34375 267.953125 186.996094 259.976562 C 191.648438 252 191.648438 240.035156 184.335938 230.0625 C 177.023438 220.09375 162.398438 212.113281 152.429688 211.449219 C 142.457031 210.785156 137.136719 217.433594 137.136719 223.414062 C 137.136719 229.398438 142.457031 234.714844 145.113281 240.035156 Z M 145.113281 240.035156 "/>
<path fill-rule="evenodd" fill="rgb(100%, 49.798584%, 31.399536%)" fill-opacity="0.5" d="M 95.257812 241.363281 C 99.914062 244.023438 103.902344 248.011719 106.558594 243.359375 C 109.21875 238.707031 110.546875 225.410156 105.894531 217.433594 C 101.242188 209.457031 90.605469 206.796875 77.976562 206.796875 C 65.34375 206.796875 50.722656 209.457031 44.738281 214.109375 C 38.753906 218.761719 41.414062 225.410156 48.726562 229.398438 C 56.039062 233.386719 68.003906 234.714844 76.644531 236.046875 C 85.289062 237.375 90.605469 238.707031 95.257812 241.363281 Z M 95.257812 241.363281 "/>
</svg>
