<?xml version="1.0" encoding="UTF-8"?>
<svg xmlns="http://www.w3.org/2000/svg" xmlns:xlink="http://www.w3.org/1999/xlink" width="208.4" height="504" viewBox="0 0 208.4 504">
<path fill-rule="evenodd" fill="rgb(100%, 54.899597%, 0%)" fill-opacity="0.1" d="M 114.539062 224.746094 C 114.539062 229.398438 113.207031 234.714844 114.539062 240.035156 C 115.867188 245.351562 119.855469 250.671875 122.515625 257.316406 C 125.171875 263.964844 126.503906 271.941406 125.171875 278.589844 C 123.84375 285.238281 119.855469 290.554688 123.179688 295.875 C 126.503906 301.191406 137.136719 306.511719 150.433594 306.511719 C 163.730469 306.511719 179.683594 301.191406 190.320312 293.214844 C 200.953125 285.238281 206.273438 274.601562 206.273438 261.304688 C 206.273438 248.011719 200.953125 232.058594 190.320312 226.074219 C 179.683594 220.09375 163.730469 224.082031 149.769531 223.414062 C 135.808594 222.75 123.84375 217.433594 118.527344 216.769531 C 113.207031 216.101562 114.539062 220.09375 114.539062 224.746094 Z M 114.539062 224.746094 "/>
<path fill-rule="evenodd" fill="rgb(0%, 0%, 100%)" fill-opacity="0.1" d="M 119.257812 228.46875 C 119.257812 232.65625 118.058594 237.441406 119.257812 242.226562 C 120.453125 247.015625 124.042969 251.800781 126.4375 257.785156 C 128.828125 263.765625 130.027344 270.945312 128.828125 276.929688 C 127.632812 282.910156 124.042969 287.695312 127.035156 292.484375 C 130.027344 297.269531 139.597656 302.054688 151.5625 302.054688 C 163.527344 302.054688 177.886719 297.269531 187.460938 290.089844 C 197.03125 282.910156 201.820312 273.339844 201.820312 261.371094 C 201.820312 249.40625 197.03125 235.046875 187.460938 229.664062 C 177.886719 224.28125 163.527344 227.871094 150.964844 227.269531 C 138.402344 226.671875 127.632812 221.886719 122.847656 221.289062 C 118.058594 220.691406 119.257812 224.28125 119.257812 228.46875 Z M 119.257812 228.46875 "/>
<path fill-rule="evenodd" fill="rgb(100%, 54.899597%, 0%)" fill-opacity="0.1" d="M 123.503906 231.816406 C 123.503906 235.585938 122.425781 239.894531 123.503906 244.203125 C 124.582031 248.511719 127.8125 252.816406 129.964844 258.203125 C 132.121094 263.585938 133.195312 270.046875 132.121094 275.433594 C 131.042969 280.816406 127.8125 285.125 130.503906 289.433594 C 133.195312 293.738281 141.8125 298.046875 152.582031 298.046875 C 163.351562 298.046875 176.273438 293.738281 184.886719 287.277344 C 193.503906 280.816406 197.808594 272.203125 197.808594 261.433594 C 197.808594 250.664062 193.503906 237.742188 184.886719 232.894531 C 176.273438 228.050781 163.351562 231.28125 152.042969 230.742188 C 140.734375 230.203125 131.042969 225.894531 126.734375 225.355469 C 122.425781 224.816406 123.503906 228.050781 123.503906 231.816406 Z M 123.503906 231.816406 "/>
<path fill-rule="evenodd" fill="rgb(100%, 100%, 0%)" fill-opacity="0.1" d="M 127.328125 234.832031 C 127.328125 238.226562 126.359375 242.101562 127.328125 245.980469 C 128.296875 249.855469 131.203125 253.734375 133.144531 258.578125 C 135.082031 263.425781 136.050781 269.242188 135.082031 274.085938 C 134.113281 278.933594 131.203125 282.808594 133.628906 286.6875 C 136.050781 290.5625 143.804688 294.441406 153.496094 294.441406 C 163.1875 294.441406 174.820312 290.5625 182.574219 284.746094 C 190.324219 278.933594 194.203125 271.179688 194.203125 261.488281 C 194.203125 251.792969 190.324219 240.164062 182.574219 235.800781 C 174.820312 231.441406 163.1875 234.347656 153.011719 233.863281 C 142.835938 233.378906 134.113281 229.503906 130.234375 229.019531 C 126.359375 228.535156 127.328125 231.441406 127.328125 234.832031 Z M 127.328125 234.832031 "/>
<path fill-rule="evenodd" fill="rgb(0%, 0%, 0%)" fill-opacity="0.1" d="M 130.769531 237.546875 C 130.769531 240.601562 129.894531 244.089844 130.769531 247.578125 C 131.640625 251.066406 134.257812 254.554688 136.003906 258.917969 C 137.746094 263.28125 138.617188 268.511719 137.746094 272.875 C 136.875 277.238281 134.257812 280.726562 136.4375 284.214844 C 138.617188 287.703125 145.597656 291.191406 154.320312 291.191406 C 163.042969 291.191406 173.511719 287.703125 180.488281 282.46875 C 187.46875 277.238281 190.957031 270.257812 190.957031 261.535156 C 190.957031 252.8125 187.46875 242.34375 180.488281 238.421875 C 173.511719 234.496094 163.042969 237.109375 153.882812 236.675781 C 144.726562 236.238281 136.875 232.75 133.386719 232.3125 C 129.894531 231.878906 130.769531 234.496094 130.769531 237.546875 Z M 130.769531 237.546875 "/>
<path fill-rule="evenodd" fill="rgb(54.499817%, 0%, 54.499817%)" fill-opacity="0.1" d="M 133.863281 239.988281 C 133.863281 242.738281 133.078125 245.878906 133.863281 249.019531 C 134.648438 252.160156 137.003906 255.296875 138.574219 259.222656 C 140.144531 263.148438 140.929688 267.859375 140.144531 271.785156 C 139.359375 275.710938 137.003906 278.851562 138.96875 281.992188 C 140.929688 285.128906 147.210938 288.273438 155.0625 288.273438 C 162.910156 288.273438 172.332031 285.128906 178.613281 280.421875 C 184.894531 275.710938 188.035156 269.429688 188.035156 261.578125 C 188.035156 253.730469 184.894531 244.308594 178.613281 240.773438 C 172.332031 237.242188 162.910156 239.597656 154.667969 239.203125 C 146.425781 238.8125 139.359375 235.671875 136.21875 235.28125 C 133.078125 234.886719 133.863281 237.242188 133.863281 239.988281 Z M 133.863281 239.988281 "/>
<path fill-rule="evenodd" fill="rgb(100%, 54.899597%, 0%)" fill-opacity="0.1" d="M 136.652344 242.1875 C 136.652344 244.660156 135.945312 247.484375 136.652344 250.3125 C 137.359375 253.140625 139.476562 255.964844 140.890625 259.496094 C 142.304688 263.03125 143.011719 267.269531 142.304688 270.804688 C 141.597656 274.335938 139.476562 277.160156 141.246094 279.988281 C 143.011719 282.8125 148.664062 285.640625 155.730469 285.640625 C 162.792969 285.640625 171.273438 282.8125 176.925781 278.574219 C 182.578125 274.335938 185.402344 268.683594 185.402344 261.617188 C 185.402344 254.550781 182.578125 246.074219 176.925781 242.894531 C 171.273438 239.714844 162.792969 241.835938 155.375 241.480469 C 147.957031 241.128906 141.597656 238.300781 138.769531 237.949219 C 135.945312 237.59375 136.652344 239.714844 136.652344 242.1875 Z M 136.652344 242.1875 "/>
<path fill-rule="evenodd" fill="rgb(100%, 54.899597%, 0%)" fill-opacity="0.1" d="M 139.160156 244.164062 C 139.160156 246.390625 138.523438 248.933594 139.160156 251.476562 C 139.796875 254.023438 141.703125 256.566406 142.976562 259.746094 C 144.246094 262.925781 144.882812 266.742188 144.246094 269.917969 C 143.609375 273.097656 141.703125 275.644531 143.292969 278.1875 C 144.882812 280.730469 149.96875 283.273438 156.328125 283.273438 C 162.6875 283.273438 170.320312 280.730469 175.40625 276.914062 C 180.492188 273.097656 183.035156 268.011719 183.035156 261.652344 C 183.035156 255.292969 180.492188 247.664062 175.40625 244.800781 C 170.320312 241.941406 162.6875 243.847656 156.011719 243.53125 C 149.335938 243.210938 143.609375 240.667969 141.066406 240.351562 C 138.523438 240.03125 139.160156 241.941406 139.160156 244.164062 Z M 139.160156 244.164062 "/>
<path fill-rule="evenodd" fill="rgb(100%, 54.899597%, 0%)" fill-opacity="0.1" d="M 141.417969 245.945312 C 141.417969 247.949219 140.84375 250.238281 141.417969 252.527344 C 141.988281 254.816406 143.707031 257.105469 144.851562 259.96875 C 145.996094 262.828125 146.566406 266.265625 145.996094 269.125 C 145.421875 271.988281 143.707031 274.277344 145.136719 276.566406 C 146.566406 278.855469 151.148438 281.144531 156.871094 281.144531 C 162.59375 281.144531 169.460938 278.855469 174.039062 275.421875 C 178.617188 271.988281 180.90625 267.410156 180.90625 261.683594 C 180.90625 255.960938 178.617188 249.09375 174.039062 246.519531 C 169.460938 243.945312 162.59375 245.660156 156.582031 245.375 C 150.574219 245.089844 145.421875 242.800781 143.132812 242.511719 C 140.84375 242.226562 141.417969 243.945312 141.417969 245.945312 Z M 141.417969 245.945312 "/>
<path fill-rule="evenodd" fill="rgb(100%, 54.899597%, 0%)" fill-opacity="0.1" d="M 143.449219 247.550781 C 143.449219 249.351562 142.933594 251.414062 143.449219 253.472656 C 143.964844 255.53125 145.507812 257.59375 146.539062 260.167969 C 147.570312 262.742188 148.085938 265.835938 147.570312 268.410156 C 147.054688 270.984375 145.507812 273.046875 146.796875 275.105469 C 148.085938 277.167969 152.203125 279.226562 157.355469 279.226562 C 162.507812 279.226562 168.6875 277.167969 172.808594 274.078125 C 176.929688 270.984375 178.988281 266.863281 178.988281 261.714844 C 178.988281 256.5625 176.929688 250.382812 172.808594 248.0625 C 168.6875 245.746094 162.507812 247.292969 157.097656 247.035156 C 151.691406 246.777344 147.054688 244.71875 144.996094 244.457031 C 142.933594 244.203125 143.449219 245.746094 143.449219 247.550781 Z M 143.449219 247.550781 "/>
<path fill-rule="evenodd" fill="rgb(100%, 54.899597%, 0%)" fill-opacity="0.1" d="M 145.277344 248.992188 C 145.277344 250.613281 144.8125 252.46875 145.277344 254.324219 C 145.742188 256.175781 147.132812 258.03125 148.058594 260.347656 C 148.984375 262.667969 149.449219 265.449219 148.984375 267.765625 C 148.523438 270.082031 147.132812 271.9375 148.292969 273.792969 C 149.449219 275.648438 153.15625 277.5 157.792969 277.5 C 162.429688 277.5 167.992188 275.648438 171.699219 272.867188 C 175.410156 270.082031 177.261719 266.375 177.261719 261.738281 C 177.261719 257.105469 175.410156 251.542969 171.699219 249.457031 C 167.992188 247.371094 162.429688 248.761719 157.5625 248.527344 C 152.695312 248.296875 148.523438 246.441406 146.667969 246.210938 C 144.8125 245.976562 145.277344 247.371094 145.277344 248.992188 Z M 145.277344 248.992188 "/>
<path fill-rule="evenodd" fill="rgb(100%, 54.899597%, 0%)" fill-opacity="0.1" d="M 146.921875 250.289062 C 146.921875 251.75 146.507812 253.417969 146.921875 255.085938 C 147.339844 256.753906 148.59375 258.425781 149.425781 260.511719 C 150.261719 262.597656 150.679688 265.101562 150.261719 267.1875 C 149.84375 269.273438 148.59375 270.941406 149.636719 272.609375 C 150.679688 274.277344 154.015625 275.949219 158.1875 275.949219 C 162.359375 275.949219 167.367188 274.277344 170.703125 271.773438 C 174.042969 269.273438 175.710938 265.933594 175.710938 261.761719 C 175.710938 257.589844 174.042969 252.582031 170.703125 250.707031 C 167.367188 248.828125 162.359375 250.082031 157.980469 249.871094 C 153.597656 249.664062 149.84375 247.996094 148.175781 247.785156 C 146.507812 247.578125 146.921875 248.828125 146.921875 250.289062 Z M 146.921875 250.289062 "/>
<path fill-rule="evenodd" fill="rgb(100%, 54.899597%, 0%)" fill-opacity="0.1" d="M 148.40625 251.457031 C 148.40625 252.773438 148.027344 254.273438 148.40625 255.773438 C 148.78125 257.277344 149.90625 258.78125 150.65625 260.65625 C 151.40625 262.535156 151.785156 264.789062 151.40625 266.664062 C 151.03125 268.542969 149.90625 270.042969 150.84375 271.546875 C 151.785156 273.046875 154.789062 274.550781 158.542969 274.550781 C 162.296875 274.550781 166.804688 273.046875 169.808594 270.792969 C 172.8125 268.542969 174.3125 265.539062 174.3125 261.78125 C 174.3125 258.027344 172.8125 253.523438 169.808594 251.832031 C 166.804688 250.144531 162.296875 251.269531 158.355469 251.082031 C 154.414062 250.894531 151.03125 249.390625 149.53125 249.203125 C 148.027344 249.015625 148.40625 250.144531 148.40625 251.457031 Z M 148.40625 251.457031 "/>
<path fill-rule="evenodd" fill="rgb(54.499817%, 0%, 54.499817%)" fill-opacity="0.1" d="M 151.070312 253.558594 C 151.070312 254.613281 150.769531 255.8125 151.070312 257.015625 C 151.371094 258.214844 152.273438 259.417969 152.871094 260.917969 C 153.472656 262.421875 153.773438 264.222656 153.472656 265.726562 C 153.171875 267.226562 152.273438 268.429688 153.023438 269.632812 C 153.773438 270.832031 156.175781 272.035156 159.179688 272.035156 C 162.183594 272.035156 165.789062 270.832031 168.191406 269.03125 C 170.597656 267.226562 171.796875 264.824219 171.796875 261.820312 C 171.796875 258.816406 170.597656 255.210938 168.191406 253.859375 C 165.789062 252.507812 162.183594 253.410156 159.03125 253.257812 C 155.878906 253.109375 153.171875 251.910156 151.972656 251.757812 C 150.769531 251.605469 151.070312 252.507812 151.070312 253.558594 Z M 151.070312 253.558594 "/>
<path fill-rule="evenodd" fill="rgb(100%, 100%, 100%)" fill-opacity="0.1" d="M 153.203125 255.242188 C 153.203125 256.082031 152.960938 257.042969 153.203125 258.003906 C 153.441406 258.96875 154.164062 259.929688 154.644531 261.128906 C 155.125 262.332031 155.367188 263.773438 155.125 264.976562 C 154.886719 266.175781 154.164062 267.136719 154.765625 268.097656 C 155.367188 269.0625 157.289062 270.023438 159.691406 270.023438 C 162.09375 270.023438 164.980469 269.0625 166.902344 267.617188 C 168.824219 266.175781 169.785156 264.253906 169.785156 261.851562 C 169.785156 259.449219 168.824219 256.5625 166.902344 255.484375 C 164.980469 254.402344 162.09375 255.121094 159.570312 255.003906 C 157.046875 254.882812 154.886719 253.921875 153.925781 253.800781 C 152.960938 253.679688 153.203125 254.402344 153.203125 255.242188 Z M 153.203125 255.242188 "/>
<path fill="none" stroke-width="0.8" stroke-linecap="butt" stroke-linejoin="round" stroke="rgb(0%, 0%, 0%)" stroke-opacity="1" stroke-miterlimit="10" d="M 184.001112 244.666447 C 180.001348 238.66876 176.001584 233.33313 173.999744 228.001417 C 172.00182 222.665787 172.00182 217.334074 167.332165 214.666259 C 162.666426 211.998444 153.33495 211.998444 147.99932 219.331998 C 142.667607 226.665551 141.331741 241.332657 146.001397 254.001841 C 150.667135 266.667107 161.334478 277.334449 167.998139 279.998347 C 174.665718 282.666162 177.333533 277.334449 181.333297 274.00066 C 185.333061 270.66687 190.668691 269.334922 193.332588 267.999055 C 196.000403 266.667107 196.000403 265.33124 193.998563 261.331476 C 192.00064 257.331713 188.000876 250.668051 184.001112 244.666447 Z M 184.001112 244.666447 " transform="matrix(0.997129, 0, 0, -0.997129, -139.39866, 503.276555)"/>
<path fill="none" stroke-width="0.8" stroke-linecap="butt" stroke-linejoin="round" stroke="rgb(0%, 0%, 0%)" stroke-opacity="1" stroke-miterlimit="10" d="M 285.331074 263.999291 C 287.998889 258.667579 287.998889 253.331949 287.332914 249.998159 C 286.66694 246.668287 285.331074 245.332421 286.66694 244.000472 C 287.998889 242.668524 291.998653 241.332657 295.332442 238.66876 C 298.666232 236.000945 301.334047 232.001181 307.331734 232.001181 C 313.333338 232.001181 322.668732 236.000945 327.33447 244.000472 C 332.000208 252 332.000208 263.999291 324.666655 274.00066 C 317.333102 283.998111 302.665995 292.001556 292.668545 292.66753 C 282.667176 293.333505 277.331546 286.665926 277.331546 280.668239 C 277.331546 274.666634 282.667176 269.334922 285.331074 263.999291 Z M 285.331074 263.999291 " transform="matrix(0.997129, 0, 0, -0.997129, -139.39866, 503.276555)"/>
<path fill="none" stroke-width="0.8" stroke-linecap="butt" stroke-linejoin="round" stroke="rgb(0%, 0%, 0%)" stroke-opacity="1" stroke-miterlimit="10" d="M 235.332067 262.667343 C 240.001723 259.999528 244.001487 255.999764 246.665384 260.665502 C 249.333199 265.33124 250.665148 278.666398 245.99941 286.665926 C 241.333672 294.665453 230.666329 297.333268 218.001063 297.333268 C 205.33188 297.333268 190.668691 294.665453 184.667086 289.999715 C 178.665482 285.333977 181.333297 278.666398 188.66685 274.666634 C 196.000403 270.66687 207.999695 269.334922 216.665197 267.999055 C 225.334616 266.667107 230.666329 265.33124 235.332067 262.667343 Z M 235.332067 262.667343 " transform="matrix(0.997129, 0, 0, -0.997129, -139.39866, 503.276555)"/>
<path fill-rule="evenodd" fill="rgb(60.798645%, 18.798828%, 100%)" fill-opacity="0.5" d="M 44.074219 259.3125 C 40.085938 265.292969 36.097656 270.613281 34.101562 275.929688 C 32.109375 281.25 32.109375 286.566406 27.453125 289.226562 C 22.800781 291.886719 13.496094 291.886719 8.175781 284.574219 C 2.859375 277.261719 1.527344 262.636719 6.183594 250.003906 C 10.835938 237.375 21.472656 226.738281 28.117188 224.082031 C 34.765625 221.421875 37.425781 226.738281 41.414062 230.0625 C 45.402344 233.386719 50.722656 234.714844 53.378906 236.046875 C 56.039062 237.375 56.039062 238.707031 54.042969 242.695312 C 52.050781 246.683594 48.0625 253.328125 44.074219 259.3125 Z M 44.074219 259.3125 "/>
<path fill-rule="evenodd" fill="rgb(100%, 60.099792%, 60.099792%)" fill-opacity="0.5" d="M 145.113281 240.035156 C 147.773438 245.351562 147.773438 250.671875 147.109375 253.996094 C 146.445312 257.316406 145.113281 258.648438 146.445312 259.976562 C 147.773438 261.304688 151.761719 262.636719 155.085938 265.292969 C 158.410156 267.953125 161.070312 271.941406 167.050781 271.941406 C 173.035156 271.941406 182.34375 267.953125 186.996094 259.976562 C 191.648438 252 191.648438 240.035156 184.335938 230.0625 C 177.023438 220.09375 162.398438 212.113281 152.429688 211.449219 C 142.457031 210.785156 137.136719 217.433594 137.136719 223.414062 C 137.136719 229.398438 142.457031 234.714844 145.113281 240.035156 Z M 145.113281 240.035156 "/>
<path fill-rule="evenodd" fill="rgb(100%, 49.798584%, 31.399536%)" fill-opacity="0.5" d="M 95.257812 241.363281 C 99.914062 244.023438 103.902344 248.011719 106.558594 243.359375 C 109.21875 238.707031 110.546875 225.410156 105.894531 217.433594 C 101.242188 209.457031 90.605469 206.796875 77.976562 206.796875 C 65.34375 206.796875 50.722656 209.457031 44.738281 214.109375 C 38.753906 218.761719 41.414062 225.410156 48.726562 229.398438 C 56.039062 233.386719 68.003906 234.714844 76.644531 236.046875 C 85.289062 237.375 90.605469 238.707031 95.257812 241.363281 Z M 95.257812 241.363281 "/>
<path fill-rule="evenodd" fill="rgb(100%, 0%, 0%)" fill-opacity="1" d="M 165.523438 263.964844 C 165.523438 262.972656 164.71875 262.171875 163.730469 262.171875 C 162.738281 262.171875 161.933594 262.972656 161.933594 263.964844 C 161.933594 264.957031 162.738281 265.761719 163.730469 265.761719 C 164.71875 265.761719 165.523438 264.957031 165.523438 263.964844 "/>
</svg>
