<?xml version="1.0" encoding="UTF-8"?>
<svg xmlns="http://www.w3.org/2000/svg" xmlns:xlink="http://www.w3.org/1999/xlink" width="139.56" height="139.64" viewBox="0 0 139.56 139.64">
<defs>
<clipPath id="clip-0">
<path clip-rule="nonzero" d="M 42 0.0390625 L 80 0.0390625 L 80 38 L 42 38 Z M 42 0.0390625 "/>
</clipPath>
<clipPath id="clip-1">
<path clip-rule="nonzero" d="M 42 0.0390625 L 80 0.0390625 L 80 39 L 42 39 Z M 42 0.0390625 "/>
</clipPath>
</defs>
<path fill-rule="nonzero" fill="rgb(71.299744%, 8.198547%, 60.699463%)" fill-opacity="1" stroke-width="0.4" stroke-linecap="butt" stroke-linejoin="round" stroke="rgb(0%, 0%, 0%)" stroke-opacity="1" stroke-miterlimit="10" d="M 51.079062 99.658453 C 51.079062 87.5109 41.227788 77.659627 29.080235 77.659627 C 16.928763 77.659627 7.081408 87.5109 7.081408 99.658453 C 7.081408 111.809925 16.928763 121.661199 29.080235 121.661199 C 41.227788 121.661199 51.079062 111.809925 51.079062 99.658453 " transform="matrix(0.996857, 0, 0, -0.996857, -0.219309, 143.587429)"/>
<path fill-rule="nonzero" fill="rgb(55.999756%, 66.598511%, 62.298584%)" fill-opacity="1" stroke-width="0.4" stroke-linecap="butt" stroke-linejoin="round" stroke="rgb(0%, 0%, 0%)" stroke-opacity="1" stroke-miterlimit="10" d="M 53.720175 99.658453 C 53.720175 97.899017 51.079062 97.899017 51.079062 99.658453 C 51.079062 101.421808 53.720175 101.421808 53.720175 99.658453 " transform="matrix(0.996857, 0, 0, -0.996857, -0.219309, 143.587429)"/>
<path fill-rule="nonzero" fill="rgb(27.398682%, 84.298706%, 51.699829%)" fill-opacity="1" stroke-width="0.4" stroke-linecap="butt" stroke-linejoin="round" stroke="rgb(0%, 0%, 0%)" stroke-opacity="1" stroke-miterlimit="10" d="M 57.239046 103.839563 C 57.239046 102.01743 55.761747 100.540131 53.939614 100.540131 C 52.117481 100.540131 50.640182 102.01743 50.640182 103.839563 C 50.640182 105.661696 52.117481 107.138995 53.939614 107.138995 C 55.761747 107.138995 57.239046 105.661696 57.239046 103.839563 " transform="matrix(0.996857, 0, 0, -0.996857, -0.219309, 143.587429)"/>
<path fill-rule="nonzero" fill="rgb(81.898499%, 15.19928%, 23.098755%)" fill-opacity="1" stroke-width="0.4" stroke-linecap="butt" stroke-linejoin="round" stroke="rgb(0%, 0%, 0%)" stroke-opacity="1" stroke-miterlimit="10" d="M 59.88016 104.72124 C 59.88016 102.961804 57.239046 102.961804 57.239046 104.72124 C 57.239046 106.480676 59.88016 106.480676 59.88016 104.72124 " transform="matrix(0.996857, 0, 0, -0.996857, -0.219309, 143.587429)"/>
<g clip-path="url(#clip-0)">
<path fill-rule="nonzero" fill="rgb(93.699646%, 30.099487%, 83.099365%)" fill-opacity="1" d="M 79.648438 19.238281 C 79.648438 29.535156 71.304688 37.878906 61.007812 37.878906 C 50.710938 37.878906 42.367188 29.535156 42.367188 19.238281 C 42.367188 8.945312 50.710938 0.597656 61.007812 0.597656 C 71.304688 0.597656 79.648438 8.945312 79.648438 19.238281 "/>
</g>
<g clip-path="url(#clip-1)">
<path fill="none" stroke-width="0.4" stroke-linecap="butt" stroke-linejoin="round" stroke="rgb(0%, 0%, 0%)" stroke-opacity="1" stroke-miterlimit="10" d="M 80.11955 124.741191 C 80.11955 114.411852 71.749494 106.041797 61.420156 106.041797 C 51.090817 106.041797 42.720761 114.411852 42.720761 124.741191 C 42.720761 135.066611 51.090817 143.440586 61.420156 143.440586 C 71.749494 143.440586 80.11955 135.066611 80.11955 124.741191 " transform="matrix(0.996857, 0, 0, -0.996857, -0.219309, 143.587429)"/>
</g>
<path fill-rule="nonzero" fill="rgb(44.299316%, 30.499268%, 95.599365%)" fill-opacity="1" stroke-width="0.4" stroke-linecap="butt" stroke-linejoin="round" stroke="rgb(0%, 0%, 0%)" stroke-opacity="1" stroke-miterlimit="10" d="M 79.680671 108.898431 C 79.680671 107.197773 78.301336 105.818438 76.600679 105.818438 C 74.900021 105.818438 73.520686 107.197773 73.520686 108.898431 C 73.520686 110.599088 74.900021 111.978423 76.600679 111.978423 C 78.301336 111.978423 79.680671 110.599088 79.680671 108.898431 " transform="matrix(0.996857, 0, 0, -0.996857, -0.219309, 143.587429)"/>
<path fill-rule="nonzero" fill="rgb(61.499023%, 74.099731%, 48.199463%)" fill-opacity="1" stroke-width="0.4" stroke-linecap="butt" stroke-linejoin="round" stroke="rgb(0%, 0%, 0%)" stroke-opacity="1" stroke-miterlimit="10" d="M 118.400017 115.058416 C 118.400017 104.247094 109.634186 95.481263 98.818945 95.481263 C 88.007623 95.481263 79.241792 104.247094 79.241792 115.058416 C 79.241792 125.873656 88.007623 134.639487 98.818945 134.639487 C 109.634186 134.639487 118.400017 125.873656 118.400017 115.058416 " transform="matrix(0.996857, 0, 0, -0.996857, -0.219309, 143.587429)"/>
<path fill-rule="nonzero" fill="rgb(40.699768%, 60.299683%, 44.999695%)" fill-opacity="1" stroke-width="0.4" stroke-linecap="butt" stroke-linejoin="round" stroke="rgb(0%, 0%, 0%)" stroke-opacity="1" stroke-miterlimit="10" d="M 139.078287 73.921315 C 139.078287 60.433613 128.145489 49.500815 114.661705 49.500815 C 101.174003 49.500815 90.241205 60.433613 90.241205 73.921315 C 90.241205 87.405099 101.174003 98.341815 114.661705 98.341815 C 128.145489 98.341815 139.078287 87.405099 139.078287 73.921315 " transform="matrix(0.996857, 0, 0, -0.996857, -0.219309, 143.587429)"/>
<path fill-rule="nonzero" fill="rgb(9.799194%, 43.499756%, 66.598511%)" fill-opacity="1" stroke-width="0.4" stroke-linecap="butt" stroke-linejoin="round" stroke="rgb(0%, 0%, 0%)" stroke-opacity="1" stroke-miterlimit="10" d="M 105.19837 49.939694 C 105.19837 48.360513 103.920917 47.079142 102.341735 47.079142 C 100.758635 47.079142 99.481182 48.360513 99.481182 49.939694 C 99.481182 51.518876 100.758635 52.800247 102.341735 52.800247 C 103.920917 52.800247 105.19837 51.518876 105.19837 49.939694 " transform="matrix(0.996857, 0, 0, -0.996857, -0.219309, 143.587429)"/>
<path fill-rule="nonzero" fill="rgb(34.098816%, 94.499207%, 86.199951%)" fill-opacity="1" stroke-width="0.4" stroke-linecap="butt" stroke-linejoin="round" stroke="rgb(0%, 0%, 0%)" stroke-opacity="1" stroke-miterlimit="10" d="M 101.679498 46.420823 C 101.679498 45.245253 99.920062 45.245253 99.920062 46.420823 C 99.920062 47.592474 101.679498 47.592474 101.679498 46.420823 " transform="matrix(0.996857, 0, 0, -0.996857, -0.219309, 143.587429)"/>
<path fill-rule="nonzero" fill="rgb(42.298889%, 54.899597%, 27.799988%)" fill-opacity="1" stroke-width="0.4" stroke-linecap="butt" stroke-linejoin="round" stroke="rgb(0%, 0%, 0%)" stroke-opacity="1" stroke-miterlimit="10" d="M 124.121122 36.738047 C 124.121122 29.449515 118.211926 23.540319 110.919475 23.540319 C 103.630943 23.540319 97.721747 29.449515 97.721747 36.738047 C 97.721747 44.030498 103.630943 49.939694 110.919475 49.939694 C 118.211926 49.939694 124.121122 44.030498 124.121122 36.738047 " transform="matrix(0.996857, 0, 0, -0.996857, -0.219309, 143.587429)"/>
<path fill-rule="nonzero" fill="rgb(8.599854%, 16.799927%, 99.198914%)" fill-opacity="1" stroke-width="0.4" stroke-linecap="butt" stroke-linejoin="round" stroke="rgb(0%, 0%, 0%)" stroke-opacity="1" stroke-miterlimit="10" d="M 103.881732 20.679766 C 103.881732 14.727465 99.054059 9.899792 93.101758 9.899792 C 87.145538 9.899792 82.321784 14.727465 82.321784 20.679766 C 82.321784 26.632067 87.145538 31.45974 93.101758 31.45974 C 99.054059 31.45974 103.881732 26.632067 103.881732 20.679766 " transform="matrix(0.996857, 0, 0, -0.996857, -0.219309, 143.587429)"/>
<path fill-rule="nonzero" fill="rgb(92.89856%, 68.998718%, 54.899597%)" fill-opacity="1" stroke-width="0.4" stroke-linecap="butt" stroke-linejoin="round" stroke="rgb(0%, 0%, 0%)" stroke-opacity="1" stroke-miterlimit="10" d="M 82.760664 18.258092 C 82.760664 10.969561 76.851467 5.060364 69.559016 5.060364 C 62.270485 5.060364 56.361288 10.969561 56.361288 18.258092 C 56.361288 25.550543 62.270485 31.45974 69.559016 31.45974 C 76.851467 31.45974 82.760664 25.550543 82.760664 18.258092 " transform="matrix(0.996857, 0, 0, -0.996857, -0.219309, 143.587429)"/>
<path fill-rule="nonzero" fill="rgb(8.198547%, 92.098999%, 82.299805%)" fill-opacity="1" stroke-width="0.4" stroke-linecap="butt" stroke-linejoin="round" stroke="rgb(0%, 0%, 0%)" stroke-opacity="1" stroke-miterlimit="10" d="M 66.479024 35.421409 C 66.479024 31.8947 63.62239 29.038066 60.099599 29.038066 C 56.576809 29.038066 53.720175 31.8947 53.720175 35.421409 C 53.720175 38.9442 56.576809 41.800834 60.099599 41.800834 C 63.62239 41.800834 66.479024 38.9442 66.479024 35.421409 " transform="matrix(0.996857, 0, 0, -0.996857, -0.219309, 143.587429)"/>
<path fill-rule="nonzero" fill="rgb(38.398743%, 74.899292%, 64.299011%)" fill-opacity="1" stroke-width="0.4" stroke-linecap="butt" stroke-linejoin="round" stroke="rgb(0%, 0%, 0%)" stroke-opacity="1" stroke-miterlimit="10" d="M 57.239046 24.641436 C 57.239046 17.22751 51.231886 11.220349 43.821878 11.220349 C 36.407952 11.220349 30.400791 17.22751 30.400791 24.641436 C 30.400791 32.051443 36.407952 38.058604 43.821878 38.058604 C 51.231886 38.058604 57.239046 32.051443 57.239046 24.641436 " transform="matrix(0.996857, 0, 0, -0.996857, -0.219309, 143.587429)"/>
<path fill-rule="nonzero" fill="rgb(68.998718%, 70.098877%, 57.598877%)" fill-opacity="1" stroke-width="0.4" stroke-linecap="butt" stroke-linejoin="round" stroke="rgb(0%, 0%, 0%)" stroke-opacity="1" stroke-miterlimit="10" d="M 34.80134 38.720841 C 34.80134 32.525589 29.77774 27.49807 23.578569 27.49807 C 17.383317 27.49807 12.359716 32.525589 12.359716 38.720841 C 12.359716 44.916093 17.383317 49.939694 23.578569 49.939694 C 29.77774 49.939694 34.80134 44.916093 34.80134 38.720841 " transform="matrix(0.996857, 0, 0, -0.996857, -0.219309, 143.587429)"/>
<path fill-rule="nonzero" fill="rgb(42.698669%, 18.399048%, 1.499939%)" fill-opacity="1" stroke-width="0.4" stroke-linecap="butt" stroke-linejoin="round" stroke="rgb(0%, 0%, 0%)" stroke-opacity="1" stroke-miterlimit="10" d="M 31.721348 64.461898 C 31.721348 55.954692 24.824673 49.061936 16.321386 49.061936 C 7.81418 49.061936 0.921423 55.954692 0.921423 64.461898 C 0.921423 72.965185 7.81418 79.86186 16.321386 79.86186 C 24.824673 79.86186 31.721348 72.965185 31.721348 64.461898 " transform="matrix(0.996857, 0, 0, -0.996857, -0.219309, 143.587429)"/>
<path fill-rule="nonzero" fill="rgb(3.09906%, 63.499451%, 63.09967%)" fill-opacity="1" stroke-width="0.4" stroke-linecap="butt" stroke-linejoin="round" stroke="rgb(0%, 0%, 0%)" stroke-opacity="1" stroke-miterlimit="10" d="M 40.079648 73.039638 C 40.079648 70.245701 37.814717 67.98077 35.02078 67.98077 C 32.226843 67.98077 29.961912 70.245701 29.961912 73.039638 C 29.961912 75.833575 32.226843 78.098506 35.02078 78.098506 C 37.814717 78.098506 40.079648 75.833575 40.079648 73.039638 " transform="matrix(0.996857, 0, 0, -0.996857, -0.219309, 143.587429)"/>
<path fill-rule="nonzero" fill="rgb(46.598816%, 29.798889%, 3.49884%)" fill-opacity="1" stroke-width="0.4" stroke-linecap="butt" stroke-linejoin="round" stroke="rgb(0%, 0%, 0%)" stroke-opacity="1" stroke-miterlimit="10" d="M 50.201303 77.001308 C 50.201303 73.964419 47.736525 71.499642 44.699637 71.499642 C 41.662749 71.499642 39.20189 73.964419 39.20189 77.001308 C 39.20189 80.038196 41.662749 82.499055 44.699637 82.499055 C 47.736525 82.499055 50.201303 80.038196 50.201303 77.001308 " transform="matrix(0.996857, 0, 0, -0.996857, -0.219309, 143.587429)"/>
<path fill-rule="nonzero" fill="rgb(40.699768%, 15.99884%, 13.299561%)" fill-opacity="1" stroke-width="0.4" stroke-linecap="butt" stroke-linejoin="round" stroke="rgb(0%, 0%, 0%)" stroke-opacity="1" stroke-miterlimit="10" d="M 91.561762 85.359608 C 91.561762 73.576481 82.00438 64.0191 70.221254 64.0191 C 58.434209 64.0191 48.880746 73.576481 48.880746 85.359608 C 48.880746 97.146653 58.434209 106.700116 70.221254 106.700116 C 82.00438 106.700116 91.561762 97.146653 91.561762 85.359608 " transform="matrix(0.996857, 0, 0, -0.996857, -0.219309, 143.587429)"/>
<path fill-rule="nonzero" fill="rgb(95.599365%, 43.899536%, 47.399902%)" fill-opacity="1" stroke-width="0.4" stroke-linecap="butt" stroke-linejoin="round" stroke="rgb(0%, 0%, 0%)" stroke-opacity="1" stroke-miterlimit="10" d="M 64.280709 54.559683 C 64.280709 45.084592 56.596402 37.400285 47.12131 37.400285 C 37.6423 37.400285 29.961912 45.084592 29.961912 54.559683 C 29.961912 64.038693 37.6423 71.719081 47.12131 71.719081 C 56.596402 71.719081 64.280709 64.038693 64.280709 54.559683 " transform="matrix(0.996857, 0, 0, -0.996857, -0.219309, 143.587429)"/>
<path fill-rule="nonzero" fill="rgb(12.5%, 42.698669%, 89.7995%)" fill-opacity="1" stroke-width="0.4" stroke-linecap="butt" stroke-linejoin="round" stroke="rgb(0%, 0%, 0%)" stroke-opacity="1" stroke-miterlimit="10" d="M 99.920062 47.079142 C 99.920062 36.996673 91.742016 28.818626 81.659547 28.818626 C 71.577078 28.818626 63.399031 36.996673 63.399031 47.079142 C 63.399031 57.165529 71.577078 65.339657 81.659547 65.339657 C 91.742016 65.339657 99.920062 57.165529 99.920062 47.079142 " transform="matrix(0.996857, 0, 0, -0.996857, -0.219309, 143.587429)"/>
<path fill-rule="nonzero" fill="rgb(81.498718%, 97.599792%, 98.799133%)" fill-opacity="1" stroke-width="0.4" stroke-linecap="butt" stroke-linejoin="round" stroke="rgb(0%, 0%, 0%)" stroke-opacity="1" stroke-miterlimit="10" d="M 68.681258 61.381906 C 68.681258 59.798805 67.399887 58.521353 65.820705 58.521353 C 64.241523 58.521353 62.960152 59.798805 62.960152 61.381906 C 62.960152 62.961088 64.241523 64.23854 65.820705 64.23854 C 67.399887 64.23854 68.681258 62.961088 68.681258 61.381906 " transform="matrix(0.996857, 0, 0, -0.996857, -0.219309, 143.587429)"/>
</svg>
