<?xml version="1.0" encoding="UTF-8"?>
<svg xmlns="http://www.w3.org/2000/svg" xmlns:xlink="http://www.w3.org/1999/xlink" width="119.4" height="113.9182" viewBox="0 0 119.4 113.9182">
<defs>
<clipPath id="clip-0">
<path clip-rule="nonzero" d="M 73 0.242188 L 80 0.242188 L 80 7 L 73 7 Z M 73 0.242188 "/>
</clipPath>
<clipPath id="clip-1">
<path clip-rule="nonzero" d="M 39 0.242188 L 46 0.242188 L 46 7 L 39 7 Z M 39 0.242188 "/>
</clipPath>
<clipPath id="clip-2">
<path clip-rule="nonzero" d="M 112 53 L 118.804688 53 L 118.804688 60 L 112 60 Z M 112 53 "/>
</clipPath>
</defs>
<path fill-rule="evenodd" fill="rgb(67.799377%, 84.698486%, 90.19928%)" fill-opacity="1" d="M 79.109375 3.925781 C 79.109375 2.550781 77.992188 1.4375 76.621094 1.4375 C 75.246094 1.4375 74.132812 2.550781 74.132812 3.925781 C 74.132812 5.300781 75.246094 6.414062 76.621094 6.414062 C 77.992188 6.414062 79.109375 5.300781 79.109375 3.925781 "/>
<g clip-path="url(#clip-0)">
<path fill-rule="evenodd" fill="rgb(0%, 0%, 0%)" fill-opacity="1" d="M 79.605469 3.925781 C 79.605469 2.277344 78.269531 0.941406 76.621094 0.941406 C 74.972656 0.941406 73.636719 2.277344 73.636719 3.925781 C 73.636719 5.574219 74.972656 6.910156 76.621094 6.910156 C 78.269531 6.910156 79.605469 5.574219 79.605469 3.925781 M 78.609375 3.925781 C 78.609375 2.824219 77.71875 1.9375 76.621094 1.9375 C 75.519531 1.9375 74.628906 2.824219 74.628906 3.925781 C 74.628906 5.023438 75.519531 5.914062 76.621094 5.914062 C 77.71875 5.914062 78.609375 5.023438 78.609375 3.925781 "/>
</g>
<path fill-rule="evenodd" fill="rgb(67.799377%, 84.698486%, 90.19928%)" fill-opacity="1" d="M 44.671875 3.925781 C 44.671875 2.550781 43.558594 1.4375 42.183594 1.4375 C 40.808594 1.4375 39.695312 2.550781 39.695312 3.925781 C 39.695312 5.300781 40.808594 6.414062 42.183594 6.414062 C 43.558594 6.414062 44.671875 5.300781 44.671875 3.925781 "/>
<g clip-path="url(#clip-1)">
<path fill-rule="evenodd" fill="rgb(0%, 0%, 0%)" fill-opacity="1" d="M 45.167969 3.925781 C 45.167969 2.277344 43.832031 0.941406 42.183594 0.941406 C 40.535156 0.941406 39.199219 2.277344 39.199219 3.925781 C 39.199219 5.574219 40.535156 6.910156 42.183594 6.910156 C 43.832031 6.910156 45.167969 5.574219 45.167969 3.925781 M 44.171875 3.925781 C 44.171875 2.824219 43.28125 1.9375 42.183594 1.9375 C 41.082031 1.9375 40.191406 2.824219 40.191406 3.925781 C 40.191406 5.023438 41.082031 5.914062 42.183594 5.914062 C 43.28125 5.914062 44.171875 5.023438 44.171875 3.925781 "/>
</g>
<path fill-rule="evenodd" fill="rgb(67.799377%, 84.698486%, 90.19928%)" fill-opacity="1" d="M 16.808594 24.167969 C 16.808594 22.792969 15.695312 21.679688 14.324219 21.679688 C 12.949219 21.679688 11.835938 22.792969 11.835938 24.167969 C 11.835938 25.539062 12.949219 26.65625 14.324219 26.65625 C 15.695312 26.65625 16.808594 25.539062 16.808594 24.167969 "/>
<path fill-rule="evenodd" fill="rgb(0%, 0%, 0%)" fill-opacity="1" d="M 17.308594 24.167969 C 17.308594 22.519531 15.972656 21.183594 14.324219 21.183594 C 12.675781 21.183594 11.339844 22.519531 11.339844 24.167969 C 11.339844 25.816406 12.675781 27.152344 14.324219 27.152344 C 15.972656 27.152344 17.308594 25.816406 17.308594 24.167969 M 16.3125 24.167969 C 16.3125 23.066406 15.421875 22.175781 14.324219 22.175781 C 13.222656 22.175781 12.332031 23.066406 12.332031 24.167969 C 12.332031 25.265625 13.222656 26.15625 14.324219 26.15625 C 15.421875 26.15625 16.3125 25.265625 16.3125 24.167969 "/>
<path fill-rule="evenodd" fill="rgb(67.799377%, 84.698486%, 90.19928%)" fill-opacity="1" d="M 6.167969 56.917969 C 6.167969 55.542969 5.054688 54.429688 3.679688 54.429688 C 2.308594 54.429688 1.195312 55.542969 1.195312 56.917969 C 1.195312 58.292969 2.308594 59.40625 3.679688 59.40625 C 5.054688 59.40625 6.167969 58.292969 6.167969 56.917969 "/>
<path fill-rule="evenodd" fill="rgb(0%, 0%, 0%)" fill-opacity="1" d="M 6.667969 56.917969 C 6.667969 55.269531 5.328125 53.933594 3.679688 53.933594 C 2.03125 53.933594 0.695312 55.269531 0.695312 56.917969 C 0.695312 58.566406 2.03125 59.902344 3.679688 59.902344 C 5.328125 59.902344 6.667969 58.566406 6.667969 56.917969 M 5.671875 56.917969 C 5.671875 55.820312 4.78125 54.929688 3.679688 54.929688 C 2.582031 54.929688 1.691406 55.820312 1.691406 56.917969 C 1.691406 58.015625 2.582031 58.910156 3.679688 58.910156 C 4.78125 58.910156 5.671875 58.015625 5.671875 56.917969 "/>
<path fill-rule="evenodd" fill="rgb(67.799377%, 84.698486%, 90.19928%)" fill-opacity="1" d="M 16.808594 89.667969 C 16.808594 88.296875 15.695312 87.183594 14.324219 87.183594 C 12.949219 87.183594 11.835938 88.296875 11.835938 89.667969 C 11.835938 91.042969 12.949219 92.15625 14.324219 92.15625 C 15.695312 92.15625 16.808594 91.042969 16.808594 89.667969 "/>
<path fill-rule="evenodd" fill="rgb(0%, 0%, 0%)" fill-opacity="1" d="M 17.308594 89.667969 C 17.308594 88.019531 15.972656 86.683594 14.324219 86.683594 C 12.675781 86.683594 11.339844 88.019531 11.339844 89.667969 C 11.339844 91.316406 12.675781 92.65625 14.324219 92.65625 C 15.972656 92.65625 17.308594 91.316406 17.308594 89.667969 M 16.3125 89.667969 C 16.3125 88.570312 15.421875 87.679688 14.324219 87.679688 C 13.222656 87.679688 12.332031 88.570312 12.332031 89.667969 C 12.332031 90.769531 13.222656 91.660156 14.324219 91.660156 C 15.421875 91.660156 16.3125 90.769531 16.3125 89.667969 "/>
<path fill-rule="evenodd" fill="rgb(67.799377%, 84.698486%, 90.19928%)" fill-opacity="1" d="M 44.671875 109.910156 C 44.671875 108.539062 43.558594 107.421875 42.183594 107.421875 C 40.808594 107.421875 39.695312 108.539062 39.695312 109.910156 C 39.695312 111.285156 40.808594 112.398438 42.183594 112.398438 C 43.558594 112.398438 44.671875 111.285156 44.671875 109.910156 "/>
<path fill-rule="evenodd" fill="rgb(0%, 0%, 0%)" fill-opacity="1" d="M 45.167969 109.910156 C 45.167969 108.261719 43.832031 106.925781 42.183594 106.925781 C 40.535156 106.925781 39.199219 108.261719 39.199219 109.910156 C 39.199219 111.558594 40.535156 112.894531 42.183594 112.894531 C 43.832031 112.894531 45.167969 111.558594 45.167969 109.910156 M 44.171875 109.910156 C 44.171875 108.8125 43.28125 107.921875 42.183594 107.921875 C 41.082031 107.921875 40.191406 108.8125 40.191406 109.910156 C 40.191406 111.011719 41.082031 111.902344 42.183594 111.902344 C 43.28125 111.902344 44.171875 111.011719 44.171875 109.910156 "/>
<path fill-rule="evenodd" fill="rgb(67.799377%, 84.698486%, 90.19928%)" fill-opacity="1" d="M 79.109375 109.910156 C 79.109375 108.539062 77.992188 107.421875 76.621094 107.421875 C 75.246094 107.421875 74.132812 108.539062 74.132812 109.910156 C 74.132812 111.285156 75.246094 112.398438 76.621094 112.398438 C 77.992188 112.398438 79.109375 111.285156 79.109375 109.910156 "/>
<path fill-rule="evenodd" fill="rgb(0%, 0%, 0%)" fill-opacity="1" d="M 79.605469 109.910156 C 79.605469 108.261719 78.269531 106.925781 76.621094 106.925781 C 74.972656 106.925781 73.636719 108.261719 73.636719 109.910156 C 73.636719 111.558594 74.972656 112.894531 76.621094 112.894531 C 78.269531 112.894531 79.605469 111.558594 79.605469 109.910156 M 78.609375 109.910156 C 78.609375 108.8125 77.71875 107.921875 76.621094 107.921875 C 75.519531 107.921875 74.628906 108.8125 74.628906 109.910156 C 74.628906 111.011719 75.519531 111.902344 76.621094 111.902344 C 77.71875 111.902344 78.609375 111.011719 78.609375 109.910156 "/>
<path fill-rule="evenodd" fill="rgb(67.799377%, 84.698486%, 90.19928%)" fill-opacity="1" d="M 106.96875 89.667969 C 106.96875 88.296875 105.855469 87.183594 104.480469 87.183594 C 103.105469 87.183594 101.992188 88.296875 101.992188 89.667969 C 101.992188 91.042969 103.105469 92.15625 104.480469 92.15625 C 105.855469 92.15625 106.96875 91.042969 106.96875 89.667969 "/>
<path fill-rule="evenodd" fill="rgb(0%, 0%, 0%)" fill-opacity="1" d="M 107.464844 89.667969 C 107.464844 88.019531 106.128906 86.683594 104.480469 86.683594 C 102.832031 86.683594 101.496094 88.019531 101.496094 89.667969 C 101.496094 91.316406 102.832031 92.65625 104.480469 92.65625 C 106.128906 92.65625 107.464844 91.316406 107.464844 89.667969 M 106.46875 89.667969 C 106.46875 88.570312 105.578125 87.679688 104.480469 87.679688 C 103.378906 87.679688 102.488281 88.570312 102.488281 89.667969 C 102.488281 90.769531 103.378906 91.660156 104.480469 91.660156 C 105.578125 91.660156 106.46875 90.769531 106.46875 89.667969 "/>
<path fill-rule="evenodd" fill="rgb(67.799377%, 84.698486%, 90.19928%)" fill-opacity="1" d="M 117.609375 56.917969 C 117.609375 55.542969 116.496094 54.429688 115.121094 54.429688 C 113.746094 54.429688 112.632812 55.542969 112.632812 56.917969 C 112.632812 58.292969 113.746094 59.40625 115.121094 59.40625 C 116.496094 59.40625 117.609375 58.292969 117.609375 56.917969 "/>
<g clip-path="url(#clip-2)">
<path fill-rule="evenodd" fill="rgb(0%, 0%, 0%)" fill-opacity="1" d="M 118.105469 56.917969 C 118.105469 55.269531 116.769531 53.933594 115.121094 53.933594 C 113.472656 53.933594 112.136719 55.269531 112.136719 56.917969 C 112.136719 58.566406 113.472656 59.902344 115.121094 59.902344 C 116.769531 59.902344 118.105469 58.566406 118.105469 56.917969 M 117.113281 56.917969 C 117.113281 55.820312 116.222656 54.929688 115.121094 54.929688 C 114.023438 54.929688 113.132812 55.820312 113.132812 56.917969 C 113.132812 58.015625 114.023438 58.910156 115.121094 58.910156 C 116.222656 58.910156 117.113281 58.015625 117.113281 56.917969 "/>
</g>
<path fill-rule="evenodd" fill="rgb(67.799377%, 84.698486%, 90.19928%)" fill-opacity="1" d="M 106.96875 24.167969 C 106.96875 22.792969 105.855469 21.679688 104.480469 21.679688 C 103.105469 21.679688 101.992188 22.792969 101.992188 24.167969 C 101.992188 25.539062 103.105469 26.65625 104.480469 26.65625 C 105.855469 26.65625 106.96875 25.539062 106.96875 24.167969 "/>
<path fill-rule="evenodd" fill="rgb(0%, 0%, 0%)" fill-opacity="1" d="M 107.464844 24.167969 C 107.464844 22.519531 106.128906 21.183594 104.480469 21.183594 C 102.832031 21.183594 101.496094 22.519531 101.496094 24.167969 C 101.496094 25.816406 102.832031 27.152344 104.480469 27.152344 C 106.128906 27.152344 107.464844 25.816406 107.464844 24.167969 M 106.46875 24.167969 C 106.46875 23.066406 105.578125 22.175781 104.480469 22.175781 C 103.378906 22.175781 102.488281 23.066406 102.488281 24.167969 C 102.488281 25.265625 103.378906 26.15625 104.480469 26.15625 C 105.578125 26.15625 106.46875 25.265625 106.46875 24.167969 "/>
</svg>
