<?xml version="1.0" encoding="UTF-8"?>
<svg xmlns="http://www.w3.org/2000/svg" xmlns:xlink="http://www.w3.org/1999/xlink" width="119.4" height="113.9182" viewBox="0 0 119.4 113.9182">
<path fill="none" stroke-width="1.2" stroke-linecap="butt" stroke-linejoin="round" stroke="rgb(100%, 0%, 0%)" stroke-opacity="1" stroke-miterlimit="10" d="M 109.305496 96.914911 L 64.000848 64.000338 " transform="matrix(0.995, 0, 0, -0.995, -4.2785, 120.598305)"/>
<path fill="none" stroke-width="1.2" stroke-linecap="butt" stroke-linejoin="round" stroke="rgb(100%, 0%, 0%)" stroke-opacity="1" stroke-miterlimit="10" d="M 64.000848 64.000338 L 81.306124 117.258818 " transform="matrix(0.995, 0, 0, -0.995, -4.2785, 120.598305)"/>
<path fill="none" stroke-width="1.2" stroke-linecap="butt" stroke-linejoin="round" stroke="rgb(100%, 0%, 0%)" stroke-opacity="1" stroke-miterlimit="10" d="M 64.000848 64.000338 L 46.695572 117.258818 " transform="matrix(0.995, 0, 0, -0.995, -4.2785, 120.598305)"/>
<path fill="none" stroke-width="1.2" stroke-linecap="butt" stroke-linejoin="round" stroke="rgb(100%, 0%, 0%)" stroke-opacity="1" stroke-miterlimit="10" d="M 64.000848 64.000338 L 18.6962 96.914911 " transform="matrix(0.995, 0, 0, -0.995, -4.2785, 120.598305)"/>
<path fill="none" stroke-width="1.2" stroke-linecap="butt" stroke-linejoin="round" stroke="rgb(100%, 0%, 0%)" stroke-opacity="1" stroke-miterlimit="10" d="M 64.000848 64.000338 L 7.998178 64.000338 " transform="matrix(0.995, 0, 0, -0.995, -4.2785, 120.598305)"/>
<path fill="none" stroke-width="1.2" stroke-linecap="butt" stroke-linejoin="round" stroke="rgb(100%, 0%, 0%)" stroke-opacity="1" stroke-miterlimit="10" d="M 64.000848 64.000338 L 18.6962 31.085765 " transform="matrix(0.995, 0, 0, -0.995, -4.2785, 120.598305)"/>
<path fill="none" stroke-width="1.2" stroke-linecap="butt" stroke-linejoin="round" stroke="rgb(100%, 0%, 0%)" stroke-opacity="1" stroke-miterlimit="10" d="M 64.000848 64.000338 L 46.695572 10.741858 " transform="matrix(0.995, 0, 0, -0.995, -4.2785, 120.598305)"/>
<path fill="none" stroke-width="1.2" stroke-linecap="butt" stroke-linejoin="round" stroke="rgb(100%, 0%, 0%)" stroke-opacity="1" stroke-miterlimit="10" d="M 64.000848 64.000338 L 81.306124 10.741858 " transform="matrix(0.995, 0, 0, -0.995, -4.2785, 120.598305)"/>
<path fill="none" stroke-width="1.2" stroke-linecap="butt" stroke-linejoin="round" stroke="rgb(100%, 0%, 0%)" stroke-opacity="1" stroke-miterlimit="10" d="M 109.305496 31.085765 L 64.000848 64.000338 " transform="matrix(0.995, 0, 0, -0.995, -4.2785, 120.598305)"/>
<path fill="none" stroke-width="1.2" stroke-linecap="butt" stroke-linejoin="round" stroke="rgb(100%, 0%, 0%)" stroke-opacity="1" stroke-miterlimit="10" d="M 119.999592 64.000338 L 64.000848 64.000338 " transform="matrix(0.995, 0, 0, -0.995, -4.2785, 120.598305)"/>
</svg>
