<?xml version="1.0" encoding="UTF-8"?>
<svg xmlns="http://www.w3.org/2000/svg" xmlns:xlink="http://www.w3.org/1999/xlink" width="595" height="350.2" viewBox="0 0 595 350.2">
<defs>
<clipPath id="clip-0">
<path clip-rule="nonzero" d="M 0.679688 0 L 592 0 L 592 349.402344 L 0.679688 349.402344 Z M 0.679688 0 "/>
</clipPath>
</defs>
<g clip-path="url(#clip-0)">
<path fill-rule="evenodd" fill="rgb(100%, 100%, 100%)" fill-opacity="1" stroke-width="0.4" stroke-linecap="butt" stroke-linejoin="round" stroke="rgb(0%, 0%, 100%)" stroke-opacity="1" stroke-miterlimit="10" d="M -3.999679 844.000654 L -3.999679 491.999152 L 591.999349 496.00046 L 591.999349 839.999346 Z M -3.999679 844.000654 " transform="matrix(0.997721, 0, 0, -0.997721, 0.678063, 840.080912)"/>
</g>
<path fill-rule="evenodd" fill="rgb(56.498718%, 93.299866%, 56.498718%)" fill-opacity="1" d="M 371.832031 189.566406 L 379.8125 173.601562 L 391.785156 179.589844 L 391.785156 193.558594 L 399.988281 201.761719 L 401.398438 215.871094 L 407.75 219.5 L 407.75 241.449219 L 423.710938 241.449219 L 423.710938 219.5 L 430.0625 215.871094 L 432.441406 209.519531 L 431.472656 201.761719 L 439.675781 193.558594 L 439.675781 179.589844 L 451.648438 173.601562 L 455.640625 173.601562 L 459.628906 176.265625 L 459.628906 193.558594 L 462.289062 197.546875 L 458.300781 209.519531 L 461.625 219.5 L 447.65625 233.464844 L 431.695312 249.429688 L 431.695312 268.054688 L 403.757812 258.742188 L 403.757812 245.4375 L 382.472656 234.796875 L 373.824219 217.503906 L 377.816406 209.519531 L 371.832031 197.546875 L 373.160156 193.558594 Z M 371.832031 189.566406 "/>
<path fill-rule="evenodd" fill="rgb(56.498718%, 93.299866%, 56.498718%)" fill-opacity="1" d="M 290.015625 203.535156 L 294.007812 191.5625 L 305.980469 187.570312 L 309.304688 177.59375 L 330.589844 177.59375 L 333.917969 187.570312 L 345.890625 191.5625 L 349.878906 203.535156 L 355.867188 205.53125 L 361.851562 217.503906 L 358.527344 224.15625 L 347.886719 229.476562 L 347.886719 242.777344 L 336.710938 250.226562 L 334.582031 258.742188 L 331.921875 261.402344 L 311.96875 261.402344 L 303.984375 256.082031 L 303.984375 249.429688 L 288.023438 233.464844 L 280.039062 233.464844 L 274.195312 227.621094 L 272.628906 223.773438 L 276.050781 213.511719 L 284.03125 205.53125 L 290.015625 203.535156 L 296.003906 209.519531 L 296.003906 225.484375 L 311.96875 225.484375 L 311.96875 241.449219 L 327.929688 241.449219 L 327.929688 225.484375 L 343.894531 225.484375 L 343.894531 209.519531 L 327.929688 209.519531 L 327.929688 193.558594 L 311.96875 193.558594 L 311.96875 209.519531 L 296.003906 209.519531 Z M 290.015625 203.535156 "/>
<path fill-rule="evenodd" fill="rgb(56.498718%, 93.299866%, 56.498718%)" fill-opacity="1" d="M 180.269531 194.886719 L 180.269531 173.601562 L 206.207031 173.601562 L 208.203125 177.59375 L 208.203125 185.574219 L 216.1875 193.558594 L 216.1875 209.519531 L 232.148438 209.519531 L 232.148438 193.558594 L 240.132812 185.574219 L 240.132812 177.59375 L 260.085938 170.941406 L 265.785156 174.742188 L 269.398438 185.574219 L 254.097656 199.542969 L 250.109375 211.515625 L 238.136719 215.507812 L 234.808594 225.484375 L 240.132812 241.449219 L 244.164062 245.640625 L 245.453125 252.089844 L 245.121094 254.75 L 237.136719 265.394531 L 212.195312 265.394531 L 208.203125 257.410156 L 208.203125 241.449219 L 213.523438 225.484375 L 210.199219 215.507812 L 193.328125 209.882812 L 191.441406 202.335938 Z M 180.269531 194.886719 "/>
<path fill-rule="evenodd" fill="rgb(56.498718%, 93.299866%, 56.498718%)" fill-opacity="1" d="M 469.605469 105.757812 L 473.597656 97.777344 L 469.605469 89.792969 L 473.597656 81.8125 L 469.605469 73.832031 L 475.59375 61.859375 L 483.574219 61.859375 L 483.574219 81.8125 L 486.234375 83.144531 L 487.566406 85.804688 L 487.566406 97.777344 L 503.53125 97.777344 L 503.53125 85.804688 L 507.519531 77.820312 L 513.507812 75.828125 L 518.164062 61.859375 L 531.464844 61.859375 L 535.457031 65.847656 L 535.457031 79.816406 L 523.484375 85.804688 L 523.484375 97.777344 L 503.53125 97.777344 L 503.53125 113.738281 L 523.484375 113.738281 L 523.484375 125.710938 L 535.457031 131.699219 L 535.457031 145.667969 L 516.832031 145.667969 L 513.507812 135.691406 L 503.53125 132.363281 L 503.53125 113.738281 L 491.558594 113.738281 L 487.566406 111.746094 L 483.574219 113.738281 L 483.574219 129.703125 L 491.558594 133.695312 L 475.59375 149.65625 L 469.605469 137.683594 L 473.597656 129.703125 L 469.605469 121.722656 L 473.597656 113.738281 Z M 469.605469 105.757812 "/>
<path fill-rule="evenodd" fill="rgb(56.498718%, 93.299866%, 56.498718%)" fill-opacity="1" d="M 379.8125 149.65625 L 373.824219 137.683594 L 377.816406 129.703125 L 373.945312 121.960938 L 373.84375 117.808594 L 375.480469 113.738281 L 371.84375 104.695312 L 372.117188 100.902344 L 373.160156 97.777344 L 370.105469 88.609375 L 370.457031 84.542969 L 371.25 81.8125 L 367.859375 70.152344 L 369.113281 64.574219 L 371.832031 61.859375 L 391.785156 61.859375 L 391.785156 81.8125 L 407.75 81.8125 L 411.738281 85.804688 L 413.734375 91.789062 L 419.722656 93.785156 L 423.710938 101.765625 L 423.710938 113.738281 L 435.683594 113.738281 L 439.675781 115.734375 L 443.667969 113.738281 L 443.667969 97.777344 L 441.003906 96.445312 L 435.683594 85.804688 L 437.015625 81.8125 L 432.054688 66.9375 L 439.675781 61.859375 L 451.648438 61.859375 L 457.632812 73.832031 L 453.644531 81.8125 L 457.632812 89.792969 L 453.644531 97.777344 L 457.632812 105.757812 L 453.644531 113.738281 L 457.632812 121.722656 L 453.644531 129.703125 L 457.632812 137.683594 L 451.648438 149.65625 L 439.675781 149.65625 L 439.675781 129.703125 L 421.050781 129.703125 L 417.726562 119.726562 L 411.738281 117.730469 L 407.75 109.75 L 407.75 97.777344 L 395.777344 97.777344 L 391.785156 95.78125 L 387.792969 97.777344 L 387.792969 113.738281 L 390.453125 115.070312 L 395.777344 125.710938 L 394.445312 129.703125 L 399.765625 145.667969 L 396.914062 151.367188 L 390.074219 153.078125 Z M 379.8125 149.65625 "/>
<path fill-rule="evenodd" fill="rgb(56.498718%, 93.299866%, 56.498718%)" fill-opacity="1" d="M 288.820312 154.445312 L 280.039062 145.667969 L 280.039062 131.308594 L 285.828125 126.859375 L 285.867188 117.929688 L 287.980469 112.90625 L 291.628906 109.742188 L 292.09375 103.769531 L 304.816406 96.1875 L 303.152344 79.105469 L 305.386719 77.605469 L 318.125 83.046875 L 322.863281 82.867188 L 325.8125 94.066406 L 329.457031 99.425781 L 327.929688 101.730469 L 312.800781 99.945312 L 316.128906 94.609375 L 318.125 83.046875 L 305.386719 77.605469 L 309.972656 63.855469 L 327.929688 57.867188 L 334.160156 76.550781 L 341.164062 80.847656 L 343.15625 93.234375 L 346.160156 96.59375 L 347.597656 100.902344 L 348.25 109.9375 L 351.960938 113.074219 L 354.191406 118.132812 L 354.269531 127.015625 L 357.980469 129.941406 L 361.851562 137.683594 L 354.726562 151.9375 L 336.902344 145.996094 L 335.375 137.945312 L 335.703125 136.117188 L 334.617188 133.351562 L 336.859375 115.734375 L 327.929688 110.824219 L 320.035156 115.164062 L 311.96875 110.644531 L 303.179688 115.566406 L 305.394531 133.101562 L 304.222656 135.972656 L 304.539062 137.738281 L 303.183594 144.871094 Z M 288.820312 154.445312 "/>
<path fill-rule="evenodd" fill="rgb(56.498718%, 93.299866%, 56.498718%)" fill-opacity="1" d="M 216.1875 113.738281 L 200.222656 113.738281 L 200.222656 129.703125 L 203.8125 133.296875 L 208.203125 145.667969 L 208.203125 149.257812 L 176.277344 149.65625 L 173.582031 146.066406 L 176.90625 131.339844 L 175.277344 121.722656 L 177.273438 113.738281 L 176.847656 112.03125 L 181.597656 97.777344 L 180.269531 93.785156 L 186.253906 81.8125 L 182.261719 73.832031 L 188.25 61.859375 L 208.203125 61.859375 L 208.203125 65.847656 L 204.214844 77.820312 L 200.222656 81.8125 L 200.222656 97.777344 L 216.1875 97.777344 L 220.175781 93.785156 L 224.167969 92.457031 L 228.160156 93.785156 L 232.148438 97.777344 L 248.113281 97.777344 L 248.113281 81.8125 L 244.121094 77.820312 L 240.132812 65.847656 L 240.132812 61.859375 L 244.121094 56.539062 L 271.328125 65.605469 L 272.027344 71.742188 L 269.203125 81.8125 L 270.300781 87.082031 L 266.738281 97.777344 L 267.757812 100.835938 L 268.058594 104.730469 L 264.445312 113.738281 L 266.0625 117.769531 L 264.078125 129.703125 L 264.078125 145.667969 L 258.6875 151.054688 L 240.132812 145.667969 L 244.121094 133.695312 L 248.113281 129.703125 L 248.113281 113.738281 L 232.148438 113.738281 L 228.160156 117.730469 L 224.167969 119.0625 L 220.175781 117.730469 Z M 216.1875 113.738281 "/>
<path fill-rule="evenodd" fill="rgb(56.498718%, 93.299866%, 56.498718%)" fill-opacity="1" d="M 81.824219 77.820312 L 88.113281 58.957031 L 104.441406 54.875 L 113.125 48.363281 L 120.40625 49.527344 L 128.386719 48.25 L 134.929688 49.296875 L 152.332031 61.859375 L 164.304688 61.859375 L 170.289062 73.832031 L 164.304688 85.804688 L 152.332031 89.792969 L 147.011719 92.457031 L 144.351562 97.777344 L 143.351562 113.738281 L 145.347656 121.722656 L 143.351562 129.703125 L 147.34375 145.667969 L 136.367188 160.300781 L 101.589844 137.117188 L 106.039062 129.703125 L 108.433594 117.730469 L 112.421875 113.738281 L 117.742188 97.777344 L 116.414062 93.785156 L 128.386719 81.8125 L 120.40625 73.832031 L 108.433594 85.804688 L 104.441406 84.472656 L 89.566406 89.433594 Z M 81.824219 77.820312 "/>
</svg>
