<?xml version="1.0" encoding="UTF-8"?>
<svg xmlns="http://www.w3.org/2000/svg" xmlns:xlink="http://www.w3.org/1999/xlink" width="595" height="350.2" viewBox="0 0 595 350.2">
<path fill-rule="evenodd" fill="rgb(0%, 0%, 100%)" fill-opacity="1" d="M 74.308594 65.847656 C 74.308594 64.859375 73.503906 64.054688 72.515625 64.054688 C 71.523438 64.054688 70.71875 64.859375 70.71875 65.847656 C 70.71875 66.839844 71.523438 67.644531 72.515625 67.644531 C 73.503906 67.644531 74.308594 66.839844 74.308594 65.847656 "/>
<path fill-rule="evenodd" fill="rgb(0%, 0%, 100%)" fill-opacity="1" d="M 74.308594 89.792969 C 74.308594 88.804688 73.503906 88 72.515625 88 C 71.523438 88 70.71875 88.804688 70.71875 89.792969 C 70.71875 90.785156 71.523438 91.589844 72.515625 91.589844 C 73.503906 91.589844 74.308594 90.785156 74.308594 89.792969 "/>
<path fill-rule="evenodd" fill="rgb(0%, 0%, 100%)" fill-opacity="1" d="M 90.273438 41.902344 C 90.273438 40.914062 89.46875 40.109375 88.476562 40.109375 C 87.484375 40.109375 86.679688 40.914062 86.679688 41.902344 C 86.679688 42.894531 87.484375 43.699219 88.476562 43.699219 C 89.46875 43.699219 90.273438 42.894531 90.273438 41.902344 "/>
<path fill-rule="evenodd" fill="rgb(0%, 0%, 100%)" fill-opacity="1" d="M 178.074219 65.847656 C 178.074219 64.859375 177.269531 64.054688 176.277344 64.054688 C 175.285156 64.054688 174.480469 64.859375 174.480469 65.847656 C 174.480469 66.839844 175.285156 67.644531 176.277344 67.644531 C 177.269531 67.644531 178.074219 66.839844 178.074219 65.847656 "/>
<path fill-rule="evenodd" fill="rgb(0%, 0%, 100%)" fill-opacity="1" d="M 178.074219 49.886719 C 178.074219 48.894531 177.269531 48.089844 176.277344 48.089844 C 175.285156 48.089844 174.480469 48.894531 174.480469 49.886719 C 174.480469 50.878906 175.285156 51.683594 176.277344 51.683594 C 177.269531 51.683594 178.074219 50.878906 178.074219 49.886719 "/>
<path fill-rule="evenodd" fill="rgb(0%, 0%, 100%)" fill-opacity="1" d="M 162.109375 49.886719 C 162.109375 48.894531 161.304688 48.089844 160.3125 48.089844 C 159.320312 48.089844 158.515625 48.894531 158.515625 49.886719 C 158.515625 50.878906 159.320312 51.683594 160.3125 51.683594 C 161.304688 51.683594 162.109375 50.878906 162.109375 49.886719 "/>
<path fill-rule="evenodd" fill="rgb(0%, 0%, 100%)" fill-opacity="1" d="M 194.035156 49.886719 C 194.035156 48.894531 193.230469 48.089844 192.242188 48.089844 C 191.25 48.089844 190.445312 48.894531 190.445312 49.886719 C 190.445312 50.878906 191.25 51.683594 192.242188 51.683594 C 193.230469 51.683594 194.035156 50.878906 194.035156 49.886719 "/>
<path fill-rule="evenodd" fill="rgb(0%, 0%, 100%)" fill-opacity="1" d="M 265.871094 49.886719 C 265.871094 48.894531 265.066406 48.089844 264.078125 48.089844 C 263.085938 48.089844 262.28125 48.894531 262.28125 49.886719 C 262.28125 50.878906 263.085938 51.683594 264.078125 51.683594 C 265.066406 51.683594 265.871094 50.878906 265.871094 49.886719 "/>
<path fill-rule="evenodd" fill="rgb(0%, 0%, 100%)" fill-opacity="1" d="M 225.964844 49.886719 C 225.964844 48.894531 225.160156 48.089844 224.167969 48.089844 C 223.175781 48.089844 222.371094 48.894531 222.371094 49.886719 C 222.371094 50.878906 223.175781 51.683594 224.167969 51.683594 C 225.160156 51.683594 225.964844 50.878906 225.964844 49.886719 "/>
<path fill-rule="evenodd" fill="rgb(0%, 0%, 100%)" fill-opacity="1" d="M 313.761719 49.886719 C 313.761719 48.894531 312.957031 48.089844 311.96875 48.089844 C 310.976562 48.089844 310.171875 48.894531 310.171875 49.886719 C 310.171875 50.878906 310.976562 51.683594 311.96875 51.683594 C 312.957031 51.683594 313.761719 50.878906 313.761719 49.886719 "/>
<path fill-rule="evenodd" fill="rgb(0%, 0%, 100%)" fill-opacity="1" d="M 297.800781 65.847656 C 297.800781 64.859375 296.996094 64.054688 296.003906 64.054688 C 295.011719 64.054688 294.207031 64.859375 294.207031 65.847656 C 294.207031 66.839844 295.011719 67.644531 296.003906 67.644531 C 296.996094 67.644531 297.800781 66.839844 297.800781 65.847656 "/>
<path fill-rule="evenodd" fill="rgb(0%, 0%, 100%)" fill-opacity="1" d="M 345.691406 65.847656 C 345.691406 64.859375 344.886719 64.054688 343.894531 64.054688 C 342.902344 64.054688 342.097656 64.859375 342.097656 65.847656 C 342.097656 66.839844 342.902344 67.644531 343.894531 67.644531 C 344.886719 67.644531 345.691406 66.839844 345.691406 65.847656 "/>
<path fill-rule="evenodd" fill="rgb(0%, 0%, 100%)" fill-opacity="1" d="M 465.417969 145.667969 C 465.417969 144.675781 464.613281 143.871094 463.621094 143.871094 C 462.628906 143.871094 461.824219 144.675781 461.824219 145.667969 C 461.824219 146.660156 462.628906 147.464844 463.621094 147.464844 C 464.613281 147.464844 465.417969 146.660156 465.417969 145.667969 "/>
<path fill-rule="evenodd" fill="rgb(0%, 0%, 100%)" fill-opacity="1" d="M 465.417969 129.703125 C 465.417969 128.710938 464.613281 127.90625 463.621094 127.90625 C 462.628906 127.90625 461.824219 128.710938 461.824219 129.703125 C 461.824219 130.695312 462.628906 131.5 463.621094 131.5 C 464.613281 131.5 465.417969 130.695312 465.417969 129.703125 "/>
<path fill-rule="evenodd" fill="rgb(0%, 0%, 100%)" fill-opacity="1" d="M 465.417969 113.738281 C 465.417969 112.75 464.613281 111.945312 463.621094 111.945312 C 462.628906 111.945312 461.824219 112.75 461.824219 113.738281 C 461.824219 114.730469 462.628906 115.535156 463.621094 115.535156 C 464.613281 115.535156 465.417969 114.730469 465.417969 113.738281 "/>
<path fill-rule="evenodd" fill="rgb(0%, 0%, 100%)" fill-opacity="1" d="M 465.417969 97.777344 C 465.417969 96.785156 464.613281 95.980469 463.621094 95.980469 C 462.628906 95.980469 461.824219 96.785156 461.824219 97.777344 C 461.824219 98.769531 462.628906 99.574219 463.621094 99.574219 C 464.613281 99.574219 465.417969 98.769531 465.417969 97.777344 "/>
<path fill-rule="evenodd" fill="rgb(0%, 0%, 100%)" fill-opacity="1" d="M 465.417969 81.8125 C 465.417969 80.820312 464.613281 80.015625 463.621094 80.015625 C 462.628906 80.015625 461.824219 80.820312 461.824219 81.8125 C 461.824219 82.804688 462.628906 83.609375 463.621094 83.609375 C 464.613281 83.609375 465.417969 82.804688 465.417969 81.8125 "/>
<path fill-rule="evenodd" fill="rgb(0%, 0%, 100%)" fill-opacity="1" d="M 465.417969 65.847656 C 465.417969 64.859375 464.613281 64.054688 463.621094 64.054688 C 462.628906 64.054688 461.824219 64.859375 461.824219 65.847656 C 461.824219 66.839844 462.628906 67.644531 463.621094 67.644531 C 464.613281 67.644531 465.417969 66.839844 465.417969 65.847656 "/>
<path fill-rule="evenodd" fill="rgb(0%, 0%, 100%)" fill-opacity="1" d="M 465.417969 49.886719 C 465.417969 48.894531 464.613281 48.089844 463.621094 48.089844 C 462.628906 48.089844 461.824219 48.894531 461.824219 49.886719 C 461.824219 50.878906 462.628906 51.683594 463.621094 51.683594 C 464.613281 51.683594 465.417969 50.878906 465.417969 49.886719 "/>
<path fill-rule="evenodd" fill="rgb(0%, 0%, 100%)" fill-opacity="1" d="M 449.453125 49.886719 C 449.453125 48.894531 448.648438 48.089844 447.65625 48.089844 C 446.664062 48.089844 445.859375 48.894531 445.859375 49.886719 C 445.859375 50.878906 446.664062 51.683594 447.65625 51.683594 C 448.648438 51.683594 449.453125 50.878906 449.453125 49.886719 "/>
<path fill-rule="evenodd" fill="rgb(0%, 0%, 100%)" fill-opacity="1" d="M 433.488281 49.886719 C 433.488281 48.894531 432.683594 48.089844 431.695312 48.089844 C 430.703125 48.089844 429.898438 48.894531 429.898438 49.886719 C 429.898438 50.878906 430.703125 51.683594 431.695312 51.683594 C 432.683594 51.683594 433.488281 50.878906 433.488281 49.886719 "/>
<path fill-rule="evenodd" fill="rgb(0%, 0%, 100%)" fill-opacity="1" d="M 481.378906 49.886719 C 481.378906 48.894531 480.574219 48.089844 479.585938 48.089844 C 478.59375 48.089844 477.789062 48.894531 477.789062 49.886719 C 477.789062 50.878906 478.59375 51.683594 479.585938 51.683594 C 480.574219 51.683594 481.378906 50.878906 481.378906 49.886719 "/>
<path fill-rule="evenodd" fill="rgb(0%, 0%, 100%)" fill-opacity="1" d="M 529.269531 49.886719 C 529.269531 48.894531 528.464844 48.089844 527.476562 48.089844 C 526.484375 48.089844 525.679688 48.894531 525.679688 49.886719 C 525.679688 50.878906 526.484375 51.683594 527.476562 51.683594 C 528.464844 51.683594 529.269531 50.878906 529.269531 49.886719 "/>
<path fill-rule="evenodd" fill="rgb(0%, 0%, 100%)" fill-opacity="1" d="M 545.234375 73.832031 C 545.234375 72.839844 544.429688 72.035156 543.4375 72.035156 C 542.445312 72.035156 541.640625 72.839844 541.640625 73.832031 C 541.640625 74.824219 542.445312 75.628906 543.4375 75.628906 C 544.429688 75.628906 545.234375 74.824219 545.234375 73.832031 "/>
<path fill-rule="evenodd" fill="rgb(0%, 0%, 100%)" fill-opacity="1" d="M 545.234375 57.867188 C 545.234375 56.875 544.429688 56.070312 543.4375 56.070312 C 542.445312 56.070312 541.640625 56.875 541.640625 57.867188 C 541.640625 58.859375 542.445312 59.664062 543.4375 59.664062 C 544.429688 59.664062 545.234375 58.859375 545.234375 57.867188 "/>
<path fill-rule="evenodd" fill="rgb(0%, 0%, 100%)" fill-opacity="1" d="M 537.253906 89.792969 C 537.253906 88.804688 536.449219 88 535.457031 88 C 534.464844 88 533.660156 88.804688 533.660156 89.792969 C 533.660156 90.785156 534.464844 91.589844 535.457031 91.589844 C 536.449219 91.589844 537.253906 90.785156 537.253906 89.792969 "/>
<path fill-rule="evenodd" fill="rgb(0%, 0%, 100%)" fill-opacity="1" d="M 537.253906 121.722656 C 537.253906 120.730469 536.449219 119.925781 535.457031 119.925781 C 534.464844 119.925781 533.660156 120.730469 533.660156 121.722656 C 533.660156 122.714844 534.464844 123.519531 535.457031 123.519531 C 536.449219 123.519531 537.253906 122.714844 537.253906 121.722656 "/>
<path fill-rule="evenodd" fill="rgb(0%, 0%, 100%)" fill-opacity="1" d="M 489.363281 121.722656 C 489.363281 120.730469 488.558594 119.925781 487.566406 119.925781 C 486.574219 119.925781 485.769531 120.730469 485.769531 121.722656 C 485.769531 122.714844 486.574219 123.519531 487.566406 123.519531 C 488.558594 123.519531 489.363281 122.714844 489.363281 121.722656 "/>
<path fill-rule="evenodd" fill="rgb(0%, 0%, 100%)" fill-opacity="1" d="M 545.234375 137.683594 C 545.234375 136.695312 544.429688 135.890625 543.4375 135.890625 C 542.445312 135.890625 541.640625 136.695312 541.640625 137.683594 C 541.640625 138.675781 542.445312 139.480469 543.4375 139.480469 C 544.429688 139.480469 545.234375 138.675781 545.234375 137.683594 "/>
<path fill-rule="evenodd" fill="rgb(0%, 0%, 100%)" fill-opacity="1" d="M 529.269531 153.648438 C 529.269531 152.65625 528.464844 151.851562 527.476562 151.851562 C 526.484375 151.851562 525.679688 152.65625 525.679688 153.648438 C 525.679688 154.640625 526.484375 155.445312 527.476562 155.445312 C 528.464844 155.445312 529.269531 154.640625 529.269531 153.648438 "/>
<path fill-rule="evenodd" fill="rgb(0%, 0%, 100%)" fill-opacity="1" d="M 170.089844 217.503906 C 170.089844 216.511719 169.285156 215.707031 168.296875 215.707031 C 167.304688 215.707031 166.5 216.511719 166.5 217.503906 C 166.5 218.496094 167.304688 219.300781 168.296875 219.300781 C 169.285156 219.300781 170.089844 218.496094 170.089844 217.503906 "/>
<path fill-rule="evenodd" fill="rgb(0%, 0%, 100%)" fill-opacity="1" d="M 170.089844 185.574219 C 170.089844 184.585938 169.285156 183.78125 168.296875 183.78125 C 167.304688 183.78125 166.5 184.585938 166.5 185.574219 C 166.5 186.566406 167.304688 187.371094 168.296875 187.371094 C 169.285156 187.371094 170.089844 186.566406 170.089844 185.574219 "/>
<path fill-rule="evenodd" fill="rgb(0%, 0%, 100%)" fill-opacity="1" d="M 225.964844 185.574219 C 225.964844 184.585938 225.160156 183.78125 224.167969 183.78125 C 223.175781 183.78125 222.371094 184.585938 222.371094 185.574219 C 222.371094 186.566406 223.175781 187.371094 224.167969 187.371094 C 225.160156 187.371094 225.964844 186.566406 225.964844 185.574219 "/>
<path fill-rule="evenodd" fill="rgb(0%, 0%, 100%)" fill-opacity="1" d="M 265.871094 241.449219 C 265.871094 240.457031 265.066406 239.652344 264.078125 239.652344 C 263.085938 239.652344 262.28125 240.457031 262.28125 241.449219 C 262.28125 242.441406 263.085938 243.246094 264.078125 243.246094 C 265.066406 243.246094 265.871094 242.441406 265.871094 241.449219 "/>
<path fill-rule="evenodd" fill="rgb(0%, 0%, 100%)" fill-opacity="1" d="M 257.890625 273.375 C 257.890625 272.382812 257.085938 271.578125 256.09375 271.578125 C 255.101562 271.578125 254.296875 272.382812 254.296875 273.375 C 254.296875 274.367188 255.101562 275.171875 256.09375 275.171875 C 257.085938 275.171875 257.890625 274.367188 257.890625 273.375 "/>
<path fill-rule="evenodd" fill="rgb(0%, 0%, 100%)" fill-opacity="1" d="M 194.035156 265.394531 C 194.035156 264.402344 193.230469 263.597656 192.242188 263.597656 C 191.25 263.597656 190.445312 264.402344 190.445312 265.394531 C 190.445312 266.386719 191.25 267.191406 192.242188 267.191406 C 193.230469 267.191406 194.035156 266.386719 194.035156 265.394531 "/>
<path fill-rule="evenodd" fill="rgb(0%, 0%, 100%)" fill-opacity="1" d="M 289.816406 249.429688 C 289.816406 248.4375 289.011719 247.632812 288.023438 247.632812 C 287.03125 247.632812 286.226562 248.4375 286.226562 249.429688 C 286.226562 250.421875 287.03125 251.226562 288.023438 251.226562 C 289.011719 251.226562 289.816406 250.421875 289.816406 249.429688 "/>
<path fill-rule="evenodd" fill="rgb(0%, 0%, 100%)" fill-opacity="1" d="M 305.78125 273.375 C 305.78125 272.382812 304.976562 271.578125 303.984375 271.578125 C 302.992188 271.578125 302.1875 272.382812 302.1875 273.375 C 302.1875 274.367188 302.992188 275.171875 303.984375 275.171875 C 304.976562 275.171875 305.78125 274.367188 305.78125 273.375 "/>
<path fill-rule="evenodd" fill="rgb(0%, 0%, 100%)" fill-opacity="1" d="M 321.746094 273.375 C 321.746094 272.382812 320.941406 271.578125 319.949219 271.578125 C 318.957031 271.578125 318.152344 272.382812 318.152344 273.375 C 318.152344 274.367188 318.957031 275.171875 319.949219 275.171875 C 320.941406 275.171875 321.746094 274.367188 321.746094 273.375 "/>
<path fill-rule="evenodd" fill="rgb(0%, 0%, 100%)" fill-opacity="1" d="M 345.691406 273.375 C 345.691406 272.382812 344.886719 271.578125 343.894531 271.578125 C 342.902344 271.578125 342.097656 272.382812 342.097656 273.375 C 342.097656 274.367188 342.902344 275.171875 343.894531 275.171875 C 344.886719 275.171875 345.691406 274.367188 345.691406 273.375 "/>
<path fill-rule="evenodd" fill="rgb(0%, 0%, 100%)" fill-opacity="1" d="M 345.691406 177.59375 C 345.691406 176.601562 344.886719 175.796875 343.894531 175.796875 C 342.902344 175.796875 342.097656 176.601562 342.097656 177.59375 C 342.097656 178.585938 342.902344 179.390625 343.894531 179.390625 C 344.886719 179.390625 345.691406 178.585938 345.691406 177.59375 "/>
<path fill-rule="evenodd" fill="rgb(0%, 0%, 100%)" fill-opacity="1" d="M 297.800781 177.59375 C 297.800781 176.601562 296.996094 175.796875 296.003906 175.796875 C 295.011719 175.796875 294.207031 176.601562 294.207031 177.59375 C 294.207031 178.585938 295.011719 179.390625 296.003906 179.390625 C 296.996094 179.390625 297.800781 178.585938 297.800781 177.59375 "/>
<path fill-rule="evenodd" fill="rgb(0%, 0%, 100%)" fill-opacity="1" d="M 369.636719 177.59375 C 369.636719 176.601562 368.832031 175.796875 367.839844 175.796875 C 366.847656 175.796875 366.042969 176.601562 366.042969 177.59375 C 366.042969 178.585938 366.847656 179.390625 367.839844 179.390625 C 368.832031 179.390625 369.636719 178.585938 369.636719 177.59375 "/>
<path fill-rule="evenodd" fill="rgb(0%, 0%, 100%)" fill-opacity="1" d="M 417.527344 177.59375 C 417.527344 176.601562 416.722656 175.796875 415.730469 175.796875 C 414.738281 175.796875 413.933594 176.601562 413.933594 177.59375 C 413.933594 178.585938 414.738281 179.390625 415.730469 179.390625 C 416.722656 179.390625 417.527344 178.585938 417.527344 177.59375 "/>
<path fill-rule="evenodd" fill="rgb(0%, 0%, 100%)" fill-opacity="1" d="M 401.5625 185.574219 C 401.5625 184.585938 400.757812 183.78125 399.765625 183.78125 C 398.773438 183.78125 397.96875 184.585938 397.96875 185.574219 C 397.96875 186.566406 398.773438 187.371094 399.765625 187.371094 C 400.757812 187.371094 401.5625 186.566406 401.5625 185.574219 "/>
<path fill-rule="evenodd" fill="rgb(0%, 0%, 100%)" fill-opacity="1" d="M 433.488281 185.574219 C 433.488281 184.585938 432.683594 183.78125 431.695312 183.78125 C 430.703125 183.78125 429.898438 184.585938 429.898438 185.574219 C 429.898438 186.566406 430.703125 187.371094 431.695312 187.371094 C 432.683594 187.371094 433.488281 186.566406 433.488281 185.574219 "/>
<path fill-rule="evenodd" fill="rgb(0%, 0%, 100%)" fill-opacity="1" d="M 393.582031 249.429688 C 393.582031 248.4375 392.777344 247.632812 391.785156 247.632812 C 390.792969 247.632812 389.988281 248.4375 389.988281 249.429688 C 389.988281 250.421875 390.792969 251.226562 391.785156 251.226562 C 392.777344 251.226562 393.582031 250.421875 393.582031 249.429688 "/>
<path fill-rule="evenodd" fill="rgb(0%, 0%, 100%)" fill-opacity="1" d="M 449.453125 249.429688 C 449.453125 248.4375 448.648438 247.632812 447.65625 247.632812 C 446.664062 247.632812 445.859375 248.4375 445.859375 249.429688 C 445.859375 250.421875 446.664062 251.226562 447.65625 251.226562 C 448.648438 251.226562 449.453125 250.421875 449.453125 249.429688 "/>
<path fill-rule="evenodd" fill="rgb(0%, 0%, 100%)" fill-opacity="1" d="M 465.417969 233.464844 C 465.417969 232.476562 464.613281 231.671875 463.621094 231.671875 C 462.628906 231.671875 461.824219 232.476562 461.824219 233.464844 C 461.824219 234.457031 462.628906 235.261719 463.621094 235.261719 C 464.613281 235.261719 465.417969 234.457031 465.417969 233.464844 "/>
<path fill-rule="evenodd" fill="rgb(0%, 0%, 100%)" fill-opacity="1" d="M 473.398438 209.519531 C 473.398438 208.53125 472.59375 207.726562 471.601562 207.726562 C 470.609375 207.726562 469.804688 208.53125 469.804688 209.519531 C 469.804688 210.511719 470.609375 211.316406 471.601562 211.316406 C 472.59375 211.316406 473.398438 210.511719 473.398438 209.519531 "/>
<path fill-rule="evenodd" fill="rgb(0%, 0%, 100%)" fill-opacity="1" d="M 473.398438 185.574219 C 473.398438 184.585938 472.59375 183.78125 471.601562 183.78125 C 470.609375 183.78125 469.804688 184.585938 469.804688 185.574219 C 469.804688 186.566406 470.609375 187.371094 471.601562 187.371094 C 472.59375 187.371094 473.398438 186.566406 473.398438 185.574219 "/>
</svg>
