<?xml version="1.0" encoding="UTF-8"?>
<svg xmlns="http://www.w3.org/2000/svg" xmlns:xlink="http://www.w3.org/1999/xlink" width="595" height="350.2" viewBox="0 0 595 350.2">
<path fill-rule="evenodd" fill="rgb(0%, 0%, 100%)" fill-opacity="1" d="M 225.964844 73.832031 C 225.964844 72.839844 225.160156 72.035156 224.167969 72.035156 C 223.175781 72.035156 222.371094 72.839844 222.371094 73.832031 C 222.371094 74.824219 223.175781 75.628906 224.167969 75.628906 C 225.160156 75.628906 225.964844 74.824219 225.964844 73.832031 "/>
<path fill-rule="evenodd" fill="rgb(0%, 0%, 100%)" fill-opacity="1" d="M 217.980469 81.8125 C 217.980469 80.820312 217.175781 80.015625 216.1875 80.015625 C 215.195312 80.015625 214.390625 80.820312 214.390625 81.8125 C 214.390625 82.804688 215.195312 83.609375 216.1875 83.609375 C 217.175781 83.609375 217.980469 82.804688 217.980469 81.8125 "/>
<path fill-rule="evenodd" fill="rgb(0%, 0%, 100%)" fill-opacity="1" d="M 210 89.792969 C 210 88.804688 209.195312 88 208.203125 88 C 207.210938 88 206.40625 88.804688 206.40625 89.792969 C 206.40625 90.785156 207.210938 91.589844 208.203125 91.589844 C 209.195312 91.589844 210 90.785156 210 89.792969 "/>
<path fill-rule="evenodd" fill="rgb(0%, 0%, 100%)" fill-opacity="1" d="M 233.945312 81.8125 C 233.945312 80.820312 233.140625 80.015625 232.148438 80.015625 C 231.15625 80.015625 230.351562 80.820312 230.351562 81.8125 C 230.351562 82.804688 231.15625 83.609375 232.148438 83.609375 C 233.140625 83.609375 233.945312 82.804688 233.945312 81.8125 "/>
<path fill-rule="evenodd" fill="rgb(0%, 0%, 100%)" fill-opacity="1" d="M 241.925781 89.792969 C 241.925781 88.804688 241.121094 88 240.132812 88 C 239.140625 88 238.335938 88.804688 238.335938 89.792969 C 238.335938 90.785156 239.140625 91.589844 240.132812 91.589844 C 241.121094 91.589844 241.925781 90.785156 241.925781 89.792969 "/>
<path fill-rule="evenodd" fill="rgb(0%, 0%, 100%)" fill-opacity="1" d="M 281.835938 97.777344 C 281.835938 96.785156 281.03125 95.980469 280.039062 95.980469 C 279.046875 95.980469 278.242188 96.785156 278.242188 97.777344 C 278.242188 98.769531 279.046875 99.574219 280.039062 99.574219 C 281.03125 99.574219 281.835938 98.769531 281.835938 97.777344 "/>
<path fill-rule="evenodd" fill="rgb(0%, 0%, 100%)" fill-opacity="1" d="M 281.835938 103.894531 C 281.835938 102.902344 281.03125 102.101562 280.039062 102.101562 C 279.046875 102.101562 278.242188 102.902344 278.242188 103.894531 C 278.242188 104.886719 279.046875 105.691406 280.039062 105.691406 C 281.03125 105.691406 281.835938 104.886719 281.835938 103.894531 "/>
<path fill-rule="evenodd" fill="rgb(0%, 0%, 100%)" fill-opacity="1" d="M 286.304688 84.367188 C 286.304688 83.375 285.5 82.570312 284.507812 82.570312 C 283.519531 82.570312 282.714844 83.375 282.714844 84.367188 C 282.714844 85.359375 283.519531 86.164062 284.507812 86.164062 C 285.5 86.164062 286.304688 85.359375 286.304688 84.367188 "/>
<path fill-rule="evenodd" fill="rgb(0%, 0%, 100%)" fill-opacity="1" d="M 286.347656 81.8125 C 286.347656 80.820312 285.542969 80.015625 284.550781 80.015625 C 283.558594 80.015625 282.753906 80.820312 282.753906 81.8125 C 282.753906 82.804688 283.558594 83.609375 284.550781 83.609375 C 285.542969 83.609375 286.347656 82.804688 286.347656 81.8125 "/>
<path fill-rule="evenodd" fill="rgb(0%, 0%, 100%)" fill-opacity="1" d="M 289.816406 70.1875 C 289.816406 69.195312 289.011719 68.390625 288.023438 68.390625 C 287.03125 68.390625 286.226562 69.195312 286.226562 70.1875 C 286.226562 71.179688 287.03125 71.984375 288.023438 71.984375 C 289.011719 71.984375 289.816406 71.179688 289.816406 70.1875 "/>
<path fill-rule="evenodd" fill="rgb(0%, 0%, 100%)" fill-opacity="1" d="M 322.429688 92.097656 C 322.429688 91.105469 321.625 90.300781 320.632812 90.300781 C 319.640625 90.300781 318.835938 91.105469 318.835938 92.097656 C 318.835938 93.089844 319.640625 93.894531 320.632812 93.894531 C 321.625 93.894531 322.429688 93.089844 322.429688 92.097656 "/>
<path fill-rule="evenodd" fill="rgb(0%, 0%, 100%)" fill-opacity="1" d="M 322.902344 95.957031 C 322.902344 94.964844 322.097656 94.160156 321.105469 94.160156 C 320.113281 94.160156 319.308594 94.964844 319.308594 95.957031 C 319.308594 96.949219 320.113281 97.75 321.105469 97.75 C 322.097656 97.75 322.902344 96.949219 322.902344 95.957031 "/>
<path fill-rule="evenodd" fill="rgb(0%, 0%, 100%)" fill-opacity="1" d="M 297.800781 92.363281 C 297.800781 91.375 296.996094 90.570312 296.003906 90.570312 C 295.011719 90.570312 294.207031 91.375 294.207031 92.363281 C 294.207031 93.355469 295.011719 94.160156 296.003906 94.160156 C 296.996094 94.160156 297.800781 93.355469 297.800781 92.363281 "/>
<path fill-rule="evenodd" fill="rgb(0%, 0%, 100%)" fill-opacity="1" d="M 313.761719 120 C 313.761719 119.007812 312.957031 118.203125 311.96875 118.203125 C 310.976562 118.203125 310.171875 119.007812 310.171875 120 C 310.171875 120.992188 310.976562 121.796875 311.96875 121.796875 C 312.957031 121.796875 313.761719 120.992188 313.761719 120 "/>
<path fill-rule="evenodd" fill="rgb(0%, 0%, 100%)" fill-opacity="1" d="M 321.800781 131.929688 C 321.800781 130.9375 320.996094 130.132812 320.003906 130.132812 C 319.011719 130.132812 318.207031 130.9375 318.207031 131.929688 C 318.207031 132.921875 319.011719 133.726562 320.003906 133.726562 C 320.996094 133.726562 321.800781 132.921875 321.800781 131.929688 "/>
<path fill-rule="evenodd" fill="rgb(0%, 0%, 100%)" fill-opacity="1" d="M 329.726562 120.277344 C 329.726562 119.289062 328.921875 118.484375 327.929688 118.484375 C 326.9375 118.484375 326.132812 119.289062 326.132812 120.277344 C 326.132812 121.269531 326.9375 122.074219 327.929688 122.074219 C 328.921875 122.074219 329.726562 121.269531 329.726562 120.277344 "/>
<path fill-rule="evenodd" fill="rgb(0%, 0%, 100%)" fill-opacity="1" d="M 321.71875 143.75 C 321.71875 142.757812 320.914062 141.953125 319.921875 141.953125 C 318.933594 141.953125 318.128906 142.757812 318.128906 143.75 C 318.128906 144.742188 318.933594 145.546875 319.921875 145.546875 C 320.914062 145.546875 321.71875 144.742188 321.71875 143.75 "/>
<path fill-rule="evenodd" fill="rgb(0%, 0%, 100%)" fill-opacity="1" d="M 321.746094 150.988281 C 321.746094 149.996094 320.941406 149.191406 319.949219 149.191406 C 318.957031 149.191406 318.152344 149.996094 318.152344 150.988281 C 318.152344 151.980469 318.957031 152.785156 319.949219 152.785156 C 320.941406 152.785156 321.746094 151.980469 321.746094 150.988281 "/>
<path fill-rule="evenodd" fill="rgb(0%, 0%, 100%)" fill-opacity="1" d="M 277.726562 121.957031 C 277.726562 120.964844 276.921875 120.160156 275.929688 120.160156 C 274.941406 120.160156 274.136719 120.964844 274.136719 121.957031 C 274.136719 122.949219 274.941406 123.753906 275.929688 123.753906 C 276.921875 123.753906 277.726562 122.949219 277.726562 121.957031 "/>
<path fill-rule="evenodd" fill="rgb(0%, 0%, 100%)" fill-opacity="1" d="M 277.792969 113.738281 C 277.792969 112.75 276.988281 111.945312 276 111.945312 C 275.007812 111.945312 274.203125 112.75 274.203125 113.738281 C 274.203125 114.730469 275.007812 115.535156 276 115.535156 C 276.988281 115.535156 277.792969 114.730469 277.792969 113.738281 "/>
<path fill-rule="evenodd" fill="rgb(0%, 0%, 100%)" fill-opacity="1" d="M 241.925781 121.722656 C 241.925781 120.730469 241.121094 119.925781 240.132812 119.925781 C 239.140625 119.925781 238.335938 120.730469 238.335938 121.722656 C 238.335938 122.714844 239.140625 123.519531 240.132812 123.519531 C 241.121094 123.519531 241.925781 122.714844 241.925781 121.722656 "/>
<path fill-rule="evenodd" fill="rgb(0%, 0%, 100%)" fill-opacity="1" d="M 233.945312 129.703125 C 233.945312 128.710938 233.140625 127.90625 232.148438 127.90625 C 231.15625 127.90625 230.351562 128.710938 230.351562 129.703125 C 230.351562 130.695312 231.15625 131.5 232.148438 131.5 C 233.140625 131.5 233.945312 130.695312 233.945312 129.703125 "/>
<path fill-rule="evenodd" fill="rgb(0%, 0%, 100%)" fill-opacity="1" d="M 225.964844 137.683594 C 225.964844 136.695312 225.160156 135.890625 224.167969 135.890625 C 223.175781 135.890625 222.371094 136.695312 222.371094 137.683594 C 222.371094 138.675781 223.175781 139.480469 224.167969 139.480469 C 225.160156 139.480469 225.964844 138.675781 225.964844 137.683594 "/>
<path fill-rule="evenodd" fill="rgb(0%, 0%, 100%)" fill-opacity="1" d="M 217.980469 129.703125 C 217.980469 128.710938 217.175781 127.90625 216.1875 127.90625 C 215.195312 127.90625 214.390625 128.710938 214.390625 129.703125 C 214.390625 130.695312 215.195312 131.5 216.1875 131.5 C 217.175781 131.5 217.980469 130.695312 217.980469 129.703125 "/>
<path fill-rule="evenodd" fill="rgb(0%, 0%, 100%)" fill-opacity="1" d="M 210 121.722656 C 210 120.730469 209.195312 119.925781 208.203125 119.925781 C 207.210938 119.925781 206.40625 120.730469 206.40625 121.722656 C 206.40625 122.714844 207.210938 123.519531 208.203125 123.519531 C 209.195312 123.519531 210 122.714844 210 121.722656 "/>
<path fill-rule="evenodd" fill="rgb(0%, 0%, 100%)" fill-opacity="1" d="M 162.109375 129.703125 C 162.109375 128.710938 161.304688 127.90625 160.3125 127.90625 C 159.320312 127.90625 158.515625 128.710938 158.515625 129.703125 C 158.515625 130.695312 159.320312 131.5 160.3125 131.5 C 161.304688 131.5 162.109375 130.695312 162.109375 129.703125 "/>
<path fill-rule="evenodd" fill="rgb(0%, 0%, 100%)" fill-opacity="1" d="M 162.109375 113.738281 C 162.109375 112.75 161.304688 111.945312 160.3125 111.945312 C 159.320312 111.945312 158.515625 112.75 158.515625 113.738281 C 158.515625 114.730469 159.320312 115.535156 160.3125 115.535156 C 161.304688 115.535156 162.109375 114.730469 162.109375 113.738281 "/>
<path fill-rule="evenodd" fill="rgb(0%, 0%, 100%)" fill-opacity="1" d="M 162.109375 105.757812 C 162.109375 104.765625 161.304688 103.960938 160.3125 103.960938 C 159.320312 103.960938 158.515625 104.765625 158.515625 105.757812 C 158.515625 106.75 159.320312 107.554688 160.3125 107.554688 C 161.304688 107.554688 162.109375 106.75 162.109375 105.757812 "/>
<path fill-rule="evenodd" fill="rgb(0%, 0%, 100%)" fill-opacity="1" d="M 170.089844 97.777344 C 170.089844 96.785156 169.285156 95.980469 168.296875 95.980469 C 167.304688 95.980469 166.5 96.785156 166.5 97.777344 C 166.5 98.769531 167.304688 99.574219 168.296875 99.574219 C 169.285156 99.574219 170.089844 98.769531 170.089844 97.777344 "/>
<path fill-rule="evenodd" fill="rgb(0%, 0%, 100%)" fill-opacity="1" d="M 178.074219 81.8125 C 178.074219 80.820312 177.269531 80.015625 176.277344 80.015625 C 175.285156 80.015625 174.480469 80.820312 174.480469 81.8125 C 174.480469 82.804688 175.285156 83.609375 176.277344 83.609375 C 177.269531 83.609375 178.074219 82.804688 178.074219 81.8125 "/>
<path fill-rule="evenodd" fill="rgb(0%, 0%, 100%)" fill-opacity="1" d="M 289.09375 171.789062 C 289.09375 170.796875 288.289062 169.992188 287.296875 169.992188 C 286.304688 169.992188 285.5 170.796875 285.5 171.789062 C 285.5 172.78125 286.304688 173.585938 287.296875 173.585938 C 288.289062 173.585938 289.09375 172.78125 289.09375 171.789062 "/>
<path fill-rule="evenodd" fill="rgb(0%, 0%, 100%)" fill-opacity="1" d="M 321.746094 201.539062 C 321.746094 200.546875 320.941406 199.742188 319.949219 199.742188 C 318.957031 199.742188 318.152344 200.546875 318.152344 201.539062 C 318.152344 202.53125 318.957031 203.335938 319.949219 203.335938 C 320.941406 203.335938 321.746094 202.53125 321.746094 201.539062 "/>
<path fill-rule="evenodd" fill="rgb(0%, 0%, 100%)" fill-opacity="1" d="M 281.835938 193.558594 C 281.835938 192.566406 281.03125 191.761719 280.039062 191.761719 C 279.046875 191.761719 278.242188 192.566406 278.242188 193.558594 C 278.242188 194.550781 279.046875 195.355469 280.039062 195.355469 C 281.03125 195.355469 281.835938 194.550781 281.835938 193.558594 "/>
<path fill-rule="evenodd" fill="rgb(0%, 0%, 100%)" fill-opacity="1" d="M 291.414062 171.207031 C 291.414062 170.21875 290.609375 169.414062 289.617188 169.414062 C 288.625 169.414062 287.820312 170.21875 287.820312 171.207031 C 287.820312 172.199219 288.625 173.003906 289.617188 173.003906 C 290.609375 173.003906 291.414062 172.199219 291.414062 171.207031 "/>
<path fill-rule="evenodd" fill="rgb(0%, 0%, 100%)" fill-opacity="1" d="M 273.855469 161.628906 C 273.855469 160.640625 273.050781 159.835938 272.058594 159.835938 C 271.066406 159.835938 270.261719 160.640625 270.261719 161.628906 C 270.261719 162.621094 271.066406 163.425781 272.058594 163.425781 C 273.050781 163.425781 273.855469 162.621094 273.855469 161.628906 "/>
<path fill-rule="evenodd" fill="rgb(0%, 0%, 100%)" fill-opacity="1" d="M 352.074219 171.207031 C 352.074219 170.21875 351.269531 169.414062 350.28125 169.414062 C 349.289062 169.414062 348.484375 170.21875 348.484375 171.207031 C 348.484375 172.199219 349.289062 173.003906 350.28125 173.003906 C 351.269531 173.003906 352.074219 172.199219 352.074219 171.207031 "/>
<path fill-rule="evenodd" fill="rgb(0%, 0%, 100%)" fill-opacity="1" d="M 354.398438 171.789062 C 354.398438 170.796875 353.59375 169.992188 352.601562 169.992188 C 351.609375 169.992188 350.804688 170.796875 350.804688 171.789062 C 350.804688 172.78125 351.609375 173.585938 352.601562 173.585938 C 353.59375 173.585938 354.398438 172.78125 354.398438 171.789062 "/>
<path fill-rule="evenodd" fill="rgb(0%, 0%, 100%)" fill-opacity="1" d="M 361.652344 193.558594 C 361.652344 192.566406 360.847656 191.761719 359.859375 191.761719 C 358.867188 191.761719 358.0625 192.566406 358.0625 193.558594 C 358.0625 194.550781 358.867188 195.355469 359.859375 195.355469 C 360.847656 195.355469 361.652344 194.550781 361.652344 193.558594 "/>
<path fill-rule="evenodd" fill="rgb(0%, 0%, 100%)" fill-opacity="1" d="M 337.707031 217.503906 C 337.707031 216.511719 336.902344 215.707031 335.914062 215.707031 C 334.921875 215.707031 334.117188 216.511719 334.117188 217.503906 C 334.117188 218.496094 334.921875 219.300781 335.914062 219.300781 C 336.902344 219.300781 337.707031 218.496094 337.707031 217.503906 "/>
<path fill-rule="evenodd" fill="rgb(0%, 0%, 100%)" fill-opacity="1" d="M 321.746094 217.503906 C 321.746094 216.511719 320.941406 215.707031 319.949219 215.707031 C 318.957031 215.707031 318.152344 216.511719 318.152344 217.503906 C 318.152344 218.496094 318.957031 219.300781 319.949219 219.300781 C 320.941406 219.300781 321.746094 218.496094 321.746094 217.503906 "/>
<path fill-rule="evenodd" fill="rgb(0%, 0%, 100%)" fill-opacity="1" d="M 305.78125 217.503906 C 305.78125 216.511719 304.976562 215.707031 303.984375 215.707031 C 302.992188 215.707031 302.1875 216.511719 302.1875 217.503906 C 302.1875 218.496094 302.992188 219.300781 303.984375 219.300781 C 304.976562 219.300781 305.78125 218.496094 305.78125 217.503906 "/>
<path fill-rule="evenodd" fill="rgb(0%, 0%, 100%)" fill-opacity="1" d="M 321.746094 233.464844 C 321.746094 232.476562 320.941406 231.671875 319.949219 231.671875 C 318.957031 231.671875 318.152344 232.476562 318.152344 233.464844 C 318.152344 234.457031 318.957031 235.261719 319.949219 235.261719 C 320.941406 235.261719 321.746094 234.457031 321.746094 233.464844 "/>
<path fill-rule="evenodd" fill="rgb(0%, 0%, 100%)" fill-opacity="1" d="M 369.636719 281.355469 C 369.636719 280.367188 368.832031 279.5625 367.839844 279.5625 C 366.847656 279.5625 366.042969 280.367188 366.042969 281.355469 C 366.042969 282.347656 366.847656 283.152344 367.839844 283.152344 C 368.832031 283.152344 369.636719 282.347656 369.636719 281.355469 "/>
<path fill-rule="evenodd" fill="rgb(0%, 0%, 100%)" fill-opacity="1" d="M 369.636719 249.429688 C 369.636719 248.4375 368.832031 247.632812 367.839844 247.632812 C 366.847656 247.632812 366.042969 248.4375 366.042969 249.429688 C 366.042969 250.421875 366.847656 251.226562 367.839844 251.226562 C 368.832031 251.226562 369.636719 250.421875 369.636719 249.429688 "/>
<path fill-rule="evenodd" fill="rgb(0%, 0%, 100%)" fill-opacity="1" d="M 369.636719 209.519531 C 369.636719 208.53125 368.832031 207.726562 367.839844 207.726562 C 366.847656 207.726562 366.042969 208.53125 366.042969 209.519531 C 366.042969 210.511719 366.847656 211.316406 367.839844 211.316406 C 368.832031 211.316406 369.636719 210.511719 369.636719 209.519531 "/>
<path fill-rule="evenodd" fill="rgb(0%, 0%, 100%)" fill-opacity="1" d="M 417.527344 205.53125 C 417.527344 204.539062 416.722656 203.734375 415.730469 203.734375 C 414.738281 203.734375 413.933594 204.539062 413.933594 205.53125 C 413.933594 206.523438 414.738281 207.328125 415.730469 207.328125 C 416.722656 207.328125 417.527344 206.523438 417.527344 205.53125 "/>
<path fill-rule="evenodd" fill="rgb(0%, 0%, 100%)" fill-opacity="1" d="M 417.527344 233.464844 C 417.527344 232.476562 416.722656 231.671875 415.730469 231.671875 C 414.738281 231.671875 413.933594 232.476562 413.933594 233.464844 C 413.933594 234.457031 414.738281 235.261719 415.730469 235.261719 C 416.722656 235.261719 417.527344 234.457031 417.527344 233.464844 "/>
<path fill-rule="evenodd" fill="rgb(0%, 0%, 100%)" fill-opacity="1" d="M 508.519531 193.558594 C 508.519531 192.566406 507.714844 191.761719 506.722656 191.761719 C 505.730469 191.761719 504.925781 192.566406 504.925781 193.558594 C 504.925781 194.550781 505.730469 195.355469 506.722656 195.355469 C 507.714844 195.355469 508.519531 194.550781 508.519531 193.558594 "/>
<path fill-rule="evenodd" fill="rgb(0%, 0%, 100%)" fill-opacity="1" d="M 505.324219 188.238281 C 505.324219 187.246094 504.519531 186.441406 503.53125 186.441406 C 502.539062 186.441406 501.734375 187.246094 501.734375 188.238281 C 501.734375 189.230469 502.539062 190.03125 503.53125 190.03125 C 504.519531 190.03125 505.324219 189.230469 505.324219 188.238281 "/>
<path fill-rule="evenodd" fill="rgb(0%, 0%, 100%)" fill-opacity="1" d="M 465.417969 161.628906 C 465.417969 160.640625 464.613281 159.835938 463.621094 159.835938 C 462.628906 159.835938 461.824219 160.640625 461.824219 161.628906 C 461.824219 162.621094 462.628906 163.425781 463.621094 163.425781 C 464.613281 163.425781 465.417969 162.621094 465.417969 161.628906 "/>
<path fill-rule="evenodd" fill="rgb(0%, 0%, 100%)" fill-opacity="1" d="M 417.527344 161.628906 C 417.527344 160.640625 416.722656 159.835938 415.730469 159.835938 C 414.738281 159.835938 413.933594 160.640625 413.933594 161.628906 C 413.933594 162.621094 414.738281 163.425781 415.730469 163.425781 C 416.722656 163.425781 417.527344 162.621094 417.527344 161.628906 "/>
<path fill-rule="evenodd" fill="rgb(0%, 0%, 100%)" fill-opacity="1" d="M 417.527344 153.648438 C 417.527344 152.65625 416.722656 151.851562 415.730469 151.851562 C 414.738281 151.851562 413.933594 152.65625 413.933594 153.648438 C 413.933594 154.640625 414.738281 155.445312 415.730469 155.445312 C 416.722656 155.445312 417.527344 154.640625 417.527344 153.648438 "/>
<path fill-rule="evenodd" fill="rgb(0%, 0%, 100%)" fill-opacity="1" d="M 433.488281 137.683594 C 433.488281 136.695312 432.683594 135.890625 431.695312 135.890625 C 430.703125 135.890625 429.898438 136.695312 429.898438 137.683594 C 429.898438 138.675781 430.703125 139.480469 431.695312 139.480469 C 432.683594 139.480469 433.488281 138.675781 433.488281 137.683594 "/>
<path fill-rule="evenodd" fill="rgb(0%, 0%, 100%)" fill-opacity="1" d="M 441.472656 105.757812 C 441.472656 104.765625 440.667969 103.960938 439.675781 103.960938 C 438.683594 103.960938 437.878906 104.765625 437.878906 105.757812 C 437.878906 106.75 438.683594 107.554688 439.675781 107.554688 C 440.667969 107.554688 441.472656 106.75 441.472656 105.757812 "/>
<path fill-rule="evenodd" fill="rgb(0%, 0%, 100%)" fill-opacity="1" d="M 433.488281 105.757812 C 433.488281 104.765625 432.683594 103.960938 431.695312 103.960938 C 430.703125 103.960938 429.898438 104.765625 429.898438 105.757812 C 429.898438 106.75 430.703125 107.554688 431.695312 107.554688 C 432.683594 107.554688 433.488281 106.75 433.488281 105.757812 "/>
<path fill-rule="evenodd" fill="rgb(0%, 0%, 100%)" fill-opacity="1" d="M 433.488281 97.777344 C 433.488281 96.785156 432.683594 95.980469 431.695312 95.980469 C 430.703125 95.980469 429.898438 96.785156 429.898438 97.777344 C 429.898438 98.769531 430.703125 99.574219 431.695312 99.574219 C 432.683594 99.574219 433.488281 98.769531 433.488281 97.777344 "/>
<path fill-rule="evenodd" fill="rgb(0%, 0%, 100%)" fill-opacity="1" d="M 489.363281 73.832031 C 489.363281 72.839844 488.558594 72.035156 487.566406 72.035156 C 486.574219 72.035156 485.769531 72.839844 485.769531 73.832031 C 485.769531 74.824219 486.574219 75.628906 487.566406 75.628906 C 488.558594 75.628906 489.363281 74.824219 489.363281 73.832031 "/>
<path fill-rule="evenodd" fill="rgb(0%, 0%, 100%)" fill-opacity="1" d="M 489.363281 145.667969 C 489.363281 144.675781 488.558594 143.871094 487.566406 143.871094 C 486.574219 143.871094 485.769531 144.675781 485.769531 145.667969 C 485.769531 146.660156 486.574219 147.464844 487.566406 147.464844 C 488.558594 147.464844 489.363281 146.660156 489.363281 145.667969 "/>
<path fill-rule="evenodd" fill="rgb(0%, 0%, 100%)" fill-opacity="1" d="M 497.34375 121.722656 C 497.34375 120.730469 496.539062 119.925781 495.546875 119.925781 C 494.554688 119.925781 493.75 120.730469 493.75 121.722656 C 493.75 122.714844 494.554688 123.519531 495.546875 123.519531 C 496.539062 123.519531 497.34375 122.714844 497.34375 121.722656 "/>
<path fill-rule="evenodd" fill="rgb(0%, 0%, 100%)" fill-opacity="1" d="M 505.324219 145.667969 C 505.324219 144.675781 504.519531 143.871094 503.53125 143.871094 C 502.539062 143.871094 501.734375 144.675781 501.734375 145.667969 C 501.734375 146.660156 502.539062 147.464844 503.53125 147.464844 C 504.519531 147.464844 505.324219 146.660156 505.324219 145.667969 "/>
<path fill-rule="evenodd" fill="rgb(0%, 0%, 100%)" fill-opacity="1" d="M 545.234375 105.757812 C 545.234375 104.765625 544.429688 103.960938 543.4375 103.960938 C 542.445312 103.960938 541.640625 104.765625 541.640625 105.757812 C 541.640625 106.75 542.445312 107.554688 543.4375 107.554688 C 544.429688 107.554688 545.234375 106.75 545.234375 105.757812 "/>
<path fill-rule="evenodd" fill="rgb(0%, 0%, 100%)" fill-opacity="1" d="M 513.308594 105.757812 C 513.308594 104.765625 512.503906 103.960938 511.511719 103.960938 C 510.519531 103.960938 509.714844 104.765625 509.714844 105.757812 C 509.714844 106.75 510.519531 107.554688 511.511719 107.554688 C 512.503906 107.554688 513.308594 106.75 513.308594 105.757812 "/>
<path fill-rule="evenodd" fill="rgb(0%, 0%, 100%)" fill-opacity="1" d="M 497.34375 89.792969 C 497.34375 88.804688 496.539062 88 495.546875 88 C 494.554688 88 493.75 88.804688 493.75 89.792969 C 493.75 90.785156 494.554688 91.589844 495.546875 91.589844 C 496.539062 91.589844 497.34375 90.785156 497.34375 89.792969 "/>
<path fill-rule="evenodd" fill="rgb(0%, 0%, 100%)" fill-opacity="1" d="M 497.34375 81.8125 C 497.34375 80.820312 496.539062 80.015625 495.546875 80.015625 C 494.554688 80.015625 493.75 80.820312 493.75 81.8125 C 493.75 82.804688 494.554688 83.609375 495.546875 83.609375 C 496.539062 83.609375 497.34375 82.804688 497.34375 81.8125 "/>
<path fill-rule="evenodd" fill="rgb(0%, 0%, 100%)" fill-opacity="1" d="M 505.324219 65.847656 C 505.324219 64.859375 504.519531 64.054688 503.53125 64.054688 C 502.539062 64.054688 501.734375 64.859375 501.734375 65.847656 C 501.734375 66.839844 502.539062 67.644531 503.53125 67.644531 C 504.519531 67.644531 505.324219 66.839844 505.324219 65.847656 "/>
<path fill-rule="evenodd" fill="rgb(0%, 0%, 100%)" fill-opacity="1" d="M 425.507812 81.8125 C 425.507812 80.820312 424.703125 80.015625 423.710938 80.015625 C 422.71875 80.015625 421.914062 80.820312 421.914062 81.8125 C 421.914062 82.804688 422.71875 83.609375 423.710938 83.609375 C 424.703125 83.609375 425.507812 82.804688 425.507812 81.8125 "/>
<path fill-rule="evenodd" fill="rgb(0%, 0%, 100%)" fill-opacity="1" d="M 417.527344 57.867188 C 417.527344 56.875 416.722656 56.070312 415.730469 56.070312 C 414.738281 56.070312 413.933594 56.875 413.933594 57.867188 C 413.933594 58.859375 414.738281 59.664062 415.730469 59.664062 C 416.722656 59.664062 417.527344 58.859375 417.527344 57.867188 "/>
<path fill-rule="evenodd" fill="rgb(0%, 0%, 100%)" fill-opacity="1" d="M 401.5625 73.832031 C 401.5625 72.839844 400.757812 72.035156 399.765625 72.035156 C 398.773438 72.035156 397.96875 72.839844 397.96875 73.832031 C 397.96875 74.824219 398.773438 75.628906 399.765625 75.628906 C 400.757812 75.628906 401.5625 74.824219 401.5625 73.832031 "/>
<path fill-rule="evenodd" fill="rgb(0%, 0%, 100%)" fill-opacity="1" d="M 393.582031 105.757812 C 393.582031 104.765625 392.777344 103.960938 391.785156 103.960938 C 390.792969 103.960938 389.988281 104.765625 389.988281 105.757812 C 389.988281 106.75 390.792969 107.554688 391.785156 107.554688 C 392.777344 107.554688 393.582031 106.75 393.582031 105.757812 "/>
<path fill-rule="evenodd" fill="rgb(0%, 0%, 100%)" fill-opacity="1" d="M 401.5625 105.757812 C 401.5625 104.765625 400.757812 103.960938 399.765625 103.960938 C 398.773438 103.960938 397.96875 104.765625 397.96875 105.757812 C 397.96875 106.75 398.773438 107.554688 399.765625 107.554688 C 400.757812 107.554688 401.5625 106.75 401.5625 105.757812 "/>
<path fill-rule="evenodd" fill="rgb(0%, 0%, 100%)" fill-opacity="1" d="M 401.5625 113.738281 C 401.5625 112.75 400.757812 111.945312 399.765625 111.945312 C 398.773438 111.945312 397.96875 112.75 397.96875 113.738281 C 397.96875 114.730469 398.773438 115.535156 399.765625 115.535156 C 400.757812 115.535156 401.5625 114.730469 401.5625 113.738281 "/>
<path fill-rule="evenodd" fill="rgb(0%, 0%, 100%)" fill-opacity="1" d="M 409.542969 129.703125 C 409.542969 128.710938 408.738281 127.90625 407.75 127.90625 C 406.757812 127.90625 405.953125 128.710938 405.953125 129.703125 C 405.953125 130.695312 406.757812 131.5 407.75 131.5 C 408.738281 131.5 409.542969 130.695312 409.542969 129.703125 "/>
<path fill-rule="evenodd" fill="rgb(0%, 0%, 100%)" fill-opacity="1" d="M 369.636719 129.703125 C 369.636719 128.710938 368.832031 127.90625 367.839844 127.90625 C 366.847656 127.90625 366.042969 128.710938 366.042969 129.703125 C 366.042969 130.695312 366.847656 131.5 367.839844 131.5 C 368.832031 131.5 369.636719 130.695312 369.636719 129.703125 "/>
<path fill-rule="evenodd" fill="rgb(0%, 0%, 100%)" fill-opacity="1" d="M 365.882812 122.199219 C 365.882812 121.210938 365.078125 120.40625 364.085938 120.40625 C 363.097656 120.40625 362.292969 121.210938 362.292969 122.199219 C 362.292969 123.191406 363.097656 123.996094 364.085938 123.996094 C 365.078125 123.996094 365.882812 123.191406 365.882812 122.199219 "/>
<path fill-rule="evenodd" fill="rgb(0%, 0%, 100%)" fill-opacity="1" d="M 365.742188 113.738281 C 365.742188 112.75 364.941406 111.945312 363.949219 111.945312 C 362.957031 111.945312 362.152344 112.75 362.152344 113.738281 C 362.152344 114.730469 362.957031 115.535156 363.949219 115.535156 C 364.941406 115.535156 365.742188 114.730469 365.742188 113.738281 "/>
<path fill-rule="evenodd" fill="rgb(0%, 0%, 100%)" fill-opacity="1" d="M 361.652344 104.03125 C 361.652344 103.039062 360.847656 102.234375 359.859375 102.234375 C 358.867188 102.234375 358.0625 103.039062 358.0625 104.03125 C 358.0625 105.023438 358.867188 105.828125 359.859375 105.828125 C 360.847656 105.828125 361.652344 105.023438 361.652344 104.03125 "/>
<path fill-rule="evenodd" fill="rgb(0%, 0%, 100%)" fill-opacity="1" d="M 361.652344 97.777344 C 361.652344 96.785156 360.847656 95.980469 359.859375 95.980469 C 358.867188 95.980469 358.0625 96.785156 358.0625 97.777344 C 358.0625 98.769531 358.867188 99.574219 359.859375 99.574219 C 360.847656 99.574219 361.652344 98.769531 361.652344 97.777344 "/>
<path fill-rule="evenodd" fill="rgb(0%, 0%, 100%)" fill-opacity="1" d="M 358.203125 87.425781 C 358.203125 86.433594 357.398438 85.628906 356.40625 85.628906 C 355.414062 85.628906 354.613281 86.433594 354.613281 87.425781 C 354.613281 88.417969 355.414062 89.222656 356.40625 89.222656 C 357.398438 89.222656 358.203125 88.417969 358.203125 87.425781 "/>
<path fill-rule="evenodd" fill="rgb(0%, 0%, 100%)" fill-opacity="1" d="M 358.171875 81.8125 C 358.171875 80.820312 357.371094 80.015625 356.378906 80.015625 C 355.386719 80.015625 354.582031 80.820312 354.582031 81.8125 C 354.582031 82.804688 355.386719 83.609375 356.378906 83.609375 C 357.371094 83.609375 358.171875 82.804688 358.171875 81.8125 "/>
<path fill-rule="evenodd" fill="rgb(0%, 0%, 100%)" fill-opacity="1" d="M 353.671875 66.640625 C 353.671875 65.648438 352.867188 64.84375 351.875 64.84375 C 350.882812 64.84375 350.078125 65.648438 350.078125 66.640625 C 350.078125 67.632812 350.882812 68.4375 351.875 68.4375 C 352.867188 68.4375 353.671875 67.632812 353.671875 66.640625 "/>
<path fill-rule="evenodd" fill="rgb(0%, 0%, 100%)" fill-opacity="1" d="M 369.636719 161.628906 C 369.636719 160.640625 368.832031 159.835938 367.839844 159.835938 C 366.847656 159.835938 366.042969 160.640625 366.042969 161.628906 C 366.042969 162.621094 366.847656 163.425781 367.839844 163.425781 C 368.832031 163.425781 369.636719 162.621094 369.636719 161.628906 "/>
<path fill-rule="evenodd" fill="rgb(0%, 0%, 100%)" fill-opacity="1" d="M 521.289062 209.519531 C 521.289062 208.53125 520.484375 207.726562 519.492188 207.726562 C 518.5 207.726562 517.695312 208.53125 517.695312 209.519531 C 517.695312 210.511719 518.5 211.316406 519.492188 211.316406 C 520.484375 211.316406 521.289062 210.511719 521.289062 209.519531 "/>
<path fill-rule="evenodd" fill="rgb(0%, 0%, 100%)" fill-opacity="1" d="M 515.300781 299.316406 C 515.300781 298.324219 514.5 297.519531 513.507812 297.519531 C 512.515625 297.519531 511.710938 298.324219 511.710938 299.316406 C 511.710938 300.308594 512.515625 301.113281 513.507812 301.113281 C 514.5 301.113281 515.300781 300.308594 515.300781 299.316406 "/>
<path fill-rule="evenodd" fill="rgb(0%, 0%, 100%)" fill-opacity="1" d="M 579.15625 267.390625 C 579.15625 266.398438 578.351562 265.59375 577.359375 265.59375 C 576.367188 265.59375 575.566406 266.398438 575.566406 267.390625 C 575.566406 268.382812 576.367188 269.183594 577.359375 269.183594 C 578.351562 269.183594 579.15625 268.382812 579.15625 267.390625 "/>
<path fill-rule="evenodd" fill="rgb(0%, 0%, 100%)" fill-opacity="1" d="M 483.375 299.316406 C 483.375 298.324219 482.570312 297.519531 481.578125 297.519531 C 480.585938 297.519531 479.785156 298.324219 479.785156 299.316406 C 479.785156 300.308594 480.585938 301.113281 481.578125 301.113281 C 482.570312 301.113281 483.375 300.308594 483.375 299.316406 "/>
<path fill-rule="evenodd" fill="rgb(0%, 0%, 100%)" fill-opacity="1" d="M 369.636719 299.316406 C 369.636719 298.324219 368.832031 297.519531 367.839844 297.519531 C 366.847656 297.519531 366.042969 298.324219 366.042969 299.316406 C 366.042969 300.308594 366.847656 301.113281 367.839844 301.113281 C 368.832031 301.113281 369.636719 300.308594 369.636719 299.316406 "/>
<path fill-rule="evenodd" fill="rgb(0%, 0%, 100%)" fill-opacity="1" d="M 273.855469 299.316406 C 273.855469 298.324219 273.050781 297.519531 272.058594 297.519531 C 271.066406 297.519531 270.261719 298.324219 270.261719 299.316406 C 270.261719 300.308594 271.066406 301.113281 272.058594 301.113281 C 273.050781 301.113281 273.855469 300.308594 273.855469 299.316406 "/>
<path fill-rule="evenodd" fill="rgb(0%, 0%, 100%)" fill-opacity="1" d="M 202.019531 225.484375 C 202.019531 224.492188 201.214844 223.6875 200.222656 223.6875 C 199.230469 223.6875 198.425781 224.492188 198.425781 225.484375 C 198.425781 226.476562 199.230469 227.28125 200.222656 227.28125 C 201.214844 227.28125 202.019531 226.476562 202.019531 225.484375 "/>
<path fill-rule="evenodd" fill="rgb(0%, 0%, 100%)" fill-opacity="1" d="M 225.964844 201.539062 C 225.964844 200.546875 225.160156 199.742188 224.167969 199.742188 C 223.175781 199.742188 222.371094 200.546875 222.371094 201.539062 C 222.371094 202.53125 223.175781 203.335938 224.167969 203.335938 C 225.160156 203.335938 225.964844 202.53125 225.964844 201.539062 "/>
<path fill-rule="evenodd" fill="rgb(0%, 0%, 100%)" fill-opacity="1" d="M 225.964844 169.613281 C 225.964844 168.621094 225.160156 167.816406 224.167969 167.816406 C 223.175781 167.816406 222.371094 168.621094 222.371094 169.613281 C 222.371094 170.605469 223.175781 171.410156 224.167969 171.410156 C 225.160156 171.410156 225.964844 170.605469 225.964844 169.613281 "/>
<path fill-rule="evenodd" fill="rgb(0%, 0%, 100%)" fill-opacity="1" d="M 265.871094 209.519531 C 265.871094 208.53125 265.066406 207.726562 264.078125 207.726562 C 263.085938 207.726562 262.28125 208.53125 262.28125 209.519531 C 262.28125 210.511719 263.085938 211.316406 264.078125 211.316406 C 265.066406 211.316406 265.871094 210.511719 265.871094 209.519531 "/>
<path fill-rule="evenodd" fill="rgb(0%, 0%, 100%)" fill-opacity="1" d="M 259.03125 230.046875 C 259.03125 229.054688 258.226562 228.25 257.234375 228.25 C 256.242188 228.25 255.4375 229.054688 255.4375 230.046875 C 255.4375 231.039062 256.242188 231.839844 257.234375 231.839844 C 258.226562 231.839844 259.03125 231.039062 259.03125 230.046875 "/>
<path fill-rule="evenodd" fill="rgb(0%, 0%, 100%)" fill-opacity="1" d="M 249.910156 225.484375 C 249.910156 224.492188 249.105469 223.6875 248.113281 223.6875 C 247.121094 223.6875 246.316406 224.492188 246.316406 225.484375 C 246.316406 226.476562 247.121094 227.28125 248.113281 227.28125 C 249.105469 227.28125 249.910156 226.476562 249.910156 225.484375 "/>
<path fill-rule="evenodd" fill="rgb(0%, 0%, 100%)" fill-opacity="1" d="M 162.109375 161.628906 C 162.109375 160.640625 161.304688 159.835938 160.3125 159.835938 C 159.320312 159.835938 158.515625 160.640625 158.515625 161.628906 C 158.515625 162.621094 159.320312 163.425781 160.3125 163.425781 C 161.304688 163.425781 162.109375 162.621094 162.109375 161.628906 "/>
<path fill-rule="evenodd" fill="rgb(0%, 0%, 100%)" fill-opacity="1" d="M 225.964844 161.628906 C 225.964844 160.640625 225.160156 159.835938 224.167969 159.835938 C 223.175781 159.835938 222.371094 160.640625 222.371094 161.628906 C 222.371094 162.621094 223.175781 163.425781 224.167969 163.425781 C 225.160156 163.425781 225.964844 162.621094 225.964844 161.628906 "/>
<path fill-rule="evenodd" fill="rgb(0%, 0%, 100%)" fill-opacity="1" d="M 146.144531 249.429688 C 146.144531 248.4375 145.339844 247.632812 144.351562 247.632812 C 143.359375 247.632812 142.554688 248.4375 142.554688 249.429688 C 142.554688 250.421875 143.359375 251.226562 144.351562 251.226562 C 145.339844 251.226562 146.144531 250.421875 146.144531 249.429688 "/>
<path fill-rule="evenodd" fill="rgb(0%, 0%, 100%)" fill-opacity="1" d="M 106.238281 97.777344 C 106.238281 96.785156 105.433594 95.980469 104.441406 95.980469 C 103.449219 95.980469 102.644531 96.785156 102.644531 97.777344 C 102.644531 98.769531 103.449219 99.574219 104.441406 99.574219 C 105.433594 99.574219 106.238281 98.769531 106.238281 97.777344 "/>
<path fill-rule="evenodd" fill="rgb(0%, 0%, 100%)" fill-opacity="1" d="M 90.273438 113.738281 C 90.273438 112.75 89.46875 111.945312 88.476562 111.945312 C 87.484375 111.945312 86.679688 112.75 86.679688 113.738281 C 86.679688 114.730469 87.484375 115.535156 88.476562 115.535156 C 89.46875 115.535156 90.273438 114.730469 90.273438 113.738281 "/>
<path fill-rule="evenodd" fill="rgb(0%, 0%, 100%)" fill-opacity="1" d="M 66.328125 129.703125 C 66.328125 128.710938 65.523438 127.90625 64.53125 127.90625 C 63.539062 127.90625 62.734375 128.710938 62.734375 129.703125 C 62.734375 130.695312 63.539062 131.5 64.53125 131.5 C 65.523438 131.5 66.328125 130.695312 66.328125 129.703125 "/>
<path fill-rule="evenodd" fill="rgb(0%, 0%, 100%)" fill-opacity="1" d="M 48.367188 138.683594 C 48.367188 137.691406 47.566406 136.886719 46.574219 136.886719 C 45.582031 136.886719 44.777344 137.691406 44.777344 138.683594 C 44.777344 139.675781 45.582031 140.480469 46.574219 140.480469 C 47.566406 140.480469 48.367188 139.675781 48.367188 138.683594 "/>
<path fill-rule="evenodd" fill="rgb(0%, 0%, 100%)" fill-opacity="1" d="M 122.199219 81.8125 C 122.199219 80.820312 121.394531 80.015625 120.40625 80.015625 C 119.414062 80.015625 118.609375 80.820312 118.609375 81.8125 C 118.609375 82.804688 119.414062 83.609375 120.40625 83.609375 C 121.394531 83.609375 122.199219 82.804688 122.199219 81.8125 "/>
<path fill-rule="evenodd" fill="rgb(0%, 0%, 100%)" fill-opacity="1" d="M 106.238281 23.945312 C 106.238281 22.953125 105.433594 22.148438 104.441406 22.148438 C 103.449219 22.148438 102.644531 22.953125 102.644531 23.945312 C 102.644531 24.9375 103.449219 25.742188 104.441406 25.742188 C 105.433594 25.742188 106.238281 24.9375 106.238281 23.945312 "/>
<path fill-rule="evenodd" fill="rgb(0%, 0%, 100%)" fill-opacity="1" d="M 122.199219 23.945312 C 122.199219 22.953125 121.394531 22.148438 120.40625 22.148438 C 119.414062 22.148438 118.609375 22.953125 118.609375 23.945312 C 118.609375 24.9375 119.414062 25.742188 120.40625 25.742188 C 121.394531 25.742188 122.199219 24.9375 122.199219 23.945312 "/>
<path fill-rule="evenodd" fill="rgb(0%, 0%, 100%)" fill-opacity="1" d="M 138.164062 23.945312 C 138.164062 22.953125 137.359375 22.148438 136.367188 22.148438 C 135.375 22.148438 134.570312 22.953125 134.570312 23.945312 C 134.570312 24.9375 135.375 25.742188 136.367188 25.742188 C 137.359375 25.742188 138.164062 24.9375 138.164062 23.945312 "/>
<path fill-rule="evenodd" fill="rgb(0%, 0%, 100%)" fill-opacity="1" d="M 154.128906 23.945312 C 154.128906 22.953125 153.324219 22.148438 152.332031 22.148438 C 151.339844 22.148438 150.535156 22.953125 150.535156 23.945312 C 150.535156 24.9375 151.339844 25.742188 152.332031 25.742188 C 153.324219 25.742188 154.128906 24.9375 154.128906 23.945312 "/>
<path fill-rule="evenodd" fill="rgb(0%, 0%, 100%)" fill-opacity="1" d="M 178.074219 23.945312 C 178.074219 22.953125 177.269531 22.148438 176.277344 22.148438 C 175.285156 22.148438 174.480469 22.953125 174.480469 23.945312 C 174.480469 24.9375 175.285156 25.742188 176.277344 25.742188 C 177.269531 25.742188 178.074219 24.9375 178.074219 23.945312 "/>
<path fill-rule="evenodd" fill="rgb(0%, 0%, 100%)" fill-opacity="1" d="M 289.816406 23.945312 C 289.816406 22.953125 289.011719 22.148438 288.023438 22.148438 C 287.03125 22.148438 286.226562 22.953125 286.226562 23.945312 C 286.226562 24.9375 287.03125 25.742188 288.023438 25.742188 C 289.011719 25.742188 289.816406 24.9375 289.816406 23.945312 "/>
<path fill-rule="evenodd" fill="rgb(0%, 0%, 100%)" fill-opacity="1" d="M 225.964844 23.945312 C 225.964844 22.953125 225.160156 22.148438 224.167969 22.148438 C 223.175781 22.148438 222.371094 22.953125 222.371094 23.945312 C 222.371094 24.9375 223.175781 25.742188 224.167969 25.742188 C 225.160156 25.742188 225.964844 24.9375 225.964844 23.945312 "/>
<path fill-rule="evenodd" fill="rgb(0%, 0%, 100%)" fill-opacity="1" d="M 505.324219 23.945312 C 505.324219 22.953125 504.519531 22.148438 503.53125 22.148438 C 502.539062 22.148438 501.734375 22.953125 501.734375 23.945312 C 501.734375 24.9375 502.539062 25.742188 503.53125 25.742188 C 504.519531 25.742188 505.324219 24.9375 505.324219 23.945312 "/>
<path fill-rule="evenodd" fill="rgb(0%, 0%, 100%)" fill-opacity="1" d="M 465.417969 23.945312 C 465.417969 22.953125 464.613281 22.148438 463.621094 22.148438 C 462.628906 22.148438 461.824219 22.953125 461.824219 23.945312 C 461.824219 24.9375 462.628906 25.742188 463.621094 25.742188 C 464.613281 25.742188 465.417969 24.9375 465.417969 23.945312 "/>
<path fill-rule="evenodd" fill="rgb(0%, 0%, 100%)" fill-opacity="1" d="M 417.527344 23.945312 C 417.527344 22.953125 416.722656 22.148438 415.730469 22.148438 C 414.738281 22.148438 413.933594 22.953125 413.933594 23.945312 C 413.933594 24.9375 414.738281 25.742188 415.730469 25.742188 C 416.722656 25.742188 417.527344 24.9375 417.527344 23.945312 "/>
<path fill-rule="evenodd" fill="rgb(0%, 0%, 100%)" fill-opacity="1" d="M 353.671875 23.945312 C 353.671875 22.953125 352.867188 22.148438 351.875 22.148438 C 350.882812 22.148438 350.078125 22.953125 350.078125 23.945312 C 350.078125 24.9375 350.882812 25.742188 351.875 25.742188 C 352.867188 25.742188 353.671875 24.9375 353.671875 23.945312 "/>
<path fill-rule="evenodd" fill="rgb(0%, 0%, 100%)" fill-opacity="1" d="M 579.15625 105.757812 C 579.15625 104.765625 578.351562 103.960938 577.359375 103.960938 C 576.367188 103.960938 575.566406 104.765625 575.566406 105.757812 C 575.566406 106.75 576.367188 107.554688 577.359375 107.554688 C 578.351562 107.554688 579.15625 106.75 579.15625 105.757812 "/>
<path fill-rule="evenodd" fill="rgb(0%, 0%, 100%)" fill-opacity="1" d="M 577.160156 41.902344 C 577.160156 40.914062 576.355469 40.109375 575.367188 40.109375 C 574.375 40.109375 573.570312 40.914062 573.570312 41.902344 C 573.570312 42.894531 574.375 43.699219 575.367188 43.699219 C 576.355469 43.699219 577.160156 42.894531 577.160156 41.902344 "/>
<path fill-rule="evenodd" fill="rgb(0%, 0%, 100%)" fill-opacity="1" d="M 545.234375 25.941406 C 545.234375 24.949219 544.429688 24.144531 543.4375 24.144531 C 542.445312 24.144531 541.640625 24.949219 541.640625 25.941406 C 541.640625 26.933594 542.445312 27.738281 543.4375 27.738281 C 544.429688 27.738281 545.234375 26.933594 545.234375 25.941406 "/>
<path fill-rule="evenodd" fill="rgb(0%, 0%, 100%)" fill-opacity="1" d="M 577.160156 73.832031 C 577.160156 72.839844 576.355469 72.035156 575.367188 72.035156 C 574.375 72.035156 573.570312 72.839844 573.570312 73.832031 C 573.570312 74.824219 574.375 75.628906 575.367188 75.628906 C 576.355469 75.628906 577.160156 74.824219 577.160156 73.832031 "/>
<path fill-rule="evenodd" fill="rgb(0%, 0%, 100%)" fill-opacity="1" d="M 577.160156 137.683594 C 577.160156 136.695312 576.355469 135.890625 575.367188 135.890625 C 574.375 135.890625 573.570312 136.695312 573.570312 137.683594 C 573.570312 138.675781 574.375 139.480469 575.367188 139.480469 C 576.355469 139.480469 577.160156 138.675781 577.160156 137.683594 "/>
<path fill-rule="evenodd" fill="rgb(0%, 0%, 100%)" fill-opacity="1" d="M 577.160156 169.613281 C 577.160156 168.621094 576.355469 167.816406 575.367188 167.816406 C 574.375 167.816406 573.570312 168.621094 573.570312 169.613281 C 573.570312 170.605469 574.375 171.410156 575.367188 171.410156 C 576.355469 171.410156 577.160156 170.605469 577.160156 169.613281 "/>
<path fill-rule="evenodd" fill="rgb(0%, 0%, 100%)" fill-opacity="1" d="M 545.234375 169.613281 C 545.234375 168.621094 544.429688 167.816406 543.4375 167.816406 C 542.445312 167.816406 541.640625 168.621094 541.640625 169.613281 C 541.640625 170.605469 542.445312 171.410156 543.4375 171.410156 C 544.429688 171.410156 545.234375 170.605469 545.234375 169.613281 "/>
<path fill-rule="evenodd" fill="rgb(0%, 0%, 100%)" fill-opacity="1" d="M 505.324219 169.613281 C 505.324219 168.621094 504.519531 167.816406 503.53125 167.816406 C 502.539062 167.816406 501.734375 168.621094 501.734375 169.613281 C 501.734375 170.605469 502.539062 171.410156 503.53125 171.410156 C 504.519531 171.410156 505.324219 170.605469 505.324219 169.613281 "/>
<path fill-rule="evenodd" fill="rgb(0%, 0%, 100%)" fill-opacity="1" d="M 481.378906 169.613281 C 481.378906 168.621094 480.574219 167.816406 479.585938 167.816406 C 478.59375 167.816406 477.789062 168.621094 477.789062 169.613281 C 477.789062 170.605469 478.59375 171.410156 479.585938 171.410156 C 480.574219 171.410156 481.378906 170.605469 481.378906 169.613281 "/>
<path fill-rule="evenodd" fill="rgb(0%, 0%, 100%)" fill-opacity="1" d="M 441.472656 169.613281 C 441.472656 168.621094 440.667969 167.816406 439.675781 167.816406 C 438.683594 167.816406 437.878906 168.621094 437.878906 169.613281 C 437.878906 170.605469 438.683594 171.410156 439.675781 171.410156 C 440.667969 171.410156 441.472656 170.605469 441.472656 169.613281 "/>
<path fill-rule="evenodd" fill="rgb(0%, 0%, 100%)" fill-opacity="1" d="M 393.582031 169.613281 C 393.582031 168.621094 392.777344 167.816406 391.785156 167.816406 C 390.792969 167.816406 389.988281 168.621094 389.988281 169.613281 C 389.988281 170.605469 390.792969 171.410156 391.785156 171.410156 C 392.777344 171.410156 393.582031 170.605469 393.582031 169.613281 "/>
<path fill-rule="evenodd" fill="rgb(0%, 0%, 100%)" fill-opacity="1" d="M 321.746094 169.613281 C 321.746094 168.621094 320.941406 167.816406 319.949219 167.816406 C 318.957031 167.816406 318.152344 168.621094 318.152344 169.613281 C 318.152344 170.605469 318.957031 171.410156 319.949219 171.410156 C 320.941406 171.410156 321.746094 170.605469 321.746094 169.613281 "/>
<path fill-rule="evenodd" fill="rgb(0%, 0%, 100%)" fill-opacity="1" d="M 249.910156 161.628906 C 249.910156 160.640625 249.105469 159.835938 248.113281 159.835938 C 247.121094 159.835938 246.316406 160.640625 246.316406 161.628906 C 246.316406 162.621094 247.121094 163.425781 248.113281 163.425781 C 249.105469 163.425781 249.910156 162.621094 249.910156 161.628906 "/>
<path fill-rule="evenodd" fill="rgb(0%, 0%, 100%)" fill-opacity="1" d="M 194.035156 161.628906 C 194.035156 160.640625 193.230469 159.835938 192.242188 159.835938 C 191.25 159.835938 190.445312 160.640625 190.445312 161.628906 C 190.445312 162.621094 191.25 163.425781 192.242188 163.425781 C 193.230469 163.425781 194.035156 162.621094 194.035156 161.628906 "/>
<path fill-rule="evenodd" fill="rgb(0%, 0%, 100%)" fill-opacity="1" d="M 114.21875 161.628906 C 114.21875 160.640625 113.414062 159.835938 112.421875 159.835938 C 111.429688 159.835938 110.625 160.640625 110.625 161.628906 C 110.625 162.621094 111.429688 163.425781 112.421875 163.425781 C 113.414062 163.425781 114.21875 162.621094 114.21875 161.628906 "/>
<path fill-rule="evenodd" fill="rgb(0%, 0%, 100%)" fill-opacity="1" d="M 82.292969 161.628906 C 82.292969 160.640625 81.488281 159.835938 80.496094 159.835938 C 79.503906 159.835938 78.699219 160.640625 78.699219 161.628906 C 78.699219 162.621094 79.503906 163.425781 80.496094 163.425781 C 81.488281 163.425781 82.292969 162.621094 82.292969 161.628906 "/>
<path fill-rule="evenodd" fill="rgb(0%, 0%, 100%)" fill-opacity="1" d="M 66.328125 289.339844 C 66.328125 288.347656 65.523438 287.542969 64.53125 287.542969 C 63.539062 287.542969 62.734375 288.347656 62.734375 289.339844 C 62.734375 290.332031 63.539062 291.136719 64.53125 291.136719 C 65.523438 291.136719 66.328125 290.332031 66.328125 289.339844 "/>
<path fill-rule="evenodd" fill="rgb(0%, 0%, 100%)" fill-opacity="1" d="M 154.128906 201.539062 C 154.128906 200.546875 153.324219 199.742188 152.332031 199.742188 C 151.339844 199.742188 150.535156 200.546875 150.535156 201.539062 C 150.535156 202.53125 151.339844 203.335938 152.332031 203.335938 C 153.324219 203.335938 154.128906 202.53125 154.128906 201.539062 "/>
<path fill-rule="evenodd" fill="rgb(0%, 0%, 100%)" fill-opacity="1" d="M 225.964844 297.320312 C 225.964844 296.328125 225.160156 295.523438 224.167969 295.523438 C 223.175781 295.523438 222.371094 296.328125 222.371094 297.320312 C 222.371094 298.3125 223.175781 299.117188 224.167969 299.117188 C 225.160156 299.117188 225.964844 298.3125 225.964844 297.320312 "/>
<path fill-rule="evenodd" fill="rgb(0%, 0%, 100%)" fill-opacity="1" d="M 162.109375 297.320312 C 162.109375 296.328125 161.304688 295.523438 160.3125 295.523438 C 159.320312 295.523438 158.515625 296.328125 158.515625 297.320312 C 158.515625 298.3125 159.320312 299.117188 160.3125 299.117188 C 161.304688 299.117188 162.109375 298.3125 162.109375 297.320312 "/>
<path fill-rule="evenodd" fill="rgb(0%, 0%, 100%)" fill-opacity="1" d="M 194.035156 297.320312 C 194.035156 296.328125 193.230469 295.523438 192.242188 295.523438 C 191.25 295.523438 190.445312 296.328125 190.445312 297.320312 C 190.445312 298.3125 191.25 299.117188 192.242188 299.117188 C 193.230469 299.117188 194.035156 298.3125 194.035156 297.320312 "/>
<path fill-rule="evenodd" fill="rgb(0%, 0%, 100%)" fill-opacity="1" d="M 321.746094 297.320312 C 321.746094 296.328125 320.941406 295.523438 319.949219 295.523438 C 318.957031 295.523438 318.152344 296.328125 318.152344 297.320312 C 318.152344 298.3125 318.957031 299.117188 319.949219 299.117188 C 320.941406 299.117188 321.746094 298.3125 321.746094 297.320312 "/>
<path fill-rule="evenodd" fill="rgb(0%, 0%, 100%)" fill-opacity="1" d="M 289.816406 297.320312 C 289.816406 296.328125 289.011719 295.523438 288.023438 295.523438 C 287.03125 295.523438 286.226562 296.328125 286.226562 297.320312 C 286.226562 298.3125 287.03125 299.117188 288.023438 299.117188 C 289.011719 299.117188 289.816406 298.3125 289.816406 297.320312 "/>
<path fill-rule="evenodd" fill="rgb(0%, 0%, 100%)" fill-opacity="1" d="M 345.691406 297.320312 C 345.691406 296.328125 344.886719 295.523438 343.894531 295.523438 C 342.902344 295.523438 342.097656 296.328125 342.097656 297.320312 C 342.097656 298.3125 342.902344 299.117188 343.894531 299.117188 C 344.886719 299.117188 345.691406 298.3125 345.691406 297.320312 "/>
<path fill-rule="evenodd" fill="rgb(0%, 0%, 100%)" fill-opacity="1" d="M 417.527344 297.320312 C 417.527344 296.328125 416.722656 295.523438 415.730469 295.523438 C 414.738281 295.523438 413.933594 296.328125 413.933594 297.320312 C 413.933594 298.3125 414.738281 299.117188 415.730469 299.117188 C 416.722656 299.117188 417.527344 298.3125 417.527344 297.320312 "/>
<path fill-rule="evenodd" fill="rgb(0%, 0%, 100%)" fill-opacity="1" d="M 449.453125 297.320312 C 449.453125 296.328125 448.648438 295.523438 447.65625 295.523438 C 446.664062 295.523438 445.859375 296.328125 445.859375 297.320312 C 445.859375 298.3125 446.664062 299.117188 447.65625 299.117188 C 448.648438 299.117188 449.453125 298.3125 449.453125 297.320312 "/>
<path fill-rule="evenodd" fill="rgb(0%, 0%, 100%)" fill-opacity="1" d="M 513.308594 265.394531 C 513.308594 264.402344 512.503906 263.597656 511.511719 263.597656 C 510.519531 263.597656 509.714844 264.402344 509.714844 265.394531 C 509.714844 266.386719 510.519531 267.191406 511.511719 267.191406 C 512.503906 267.191406 513.308594 266.386719 513.308594 265.394531 "/>
<path fill-rule="evenodd" fill="rgb(0%, 0%, 100%)" fill-opacity="1" d="M 513.308594 233.464844 C 513.308594 232.476562 512.503906 231.671875 511.511719 231.671875 C 510.519531 231.671875 509.714844 232.476562 509.714844 233.464844 C 509.714844 234.457031 510.519531 235.261719 511.511719 235.261719 C 512.503906 235.261719 513.308594 234.457031 513.308594 233.464844 "/>
<path fill-rule="evenodd" fill="rgb(0%, 0%, 100%)" fill-opacity="1" d="M 273.855469 137.683594 C 273.855469 136.695312 273.050781 135.890625 272.058594 135.890625 C 271.066406 135.890625 270.261719 136.695312 270.261719 137.683594 C 270.261719 138.675781 271.066406 139.480469 272.058594 139.480469 C 273.050781 139.480469 273.855469 138.675781 273.855469 137.683594 "/>
<path fill-rule="evenodd" fill="rgb(0%, 0%, 100%)" fill-opacity="1" d="M 273.855469 153.648438 C 273.855469 152.65625 273.050781 151.851562 272.058594 151.851562 C 271.066406 151.851562 270.261719 152.65625 270.261719 153.648438 C 270.261719 154.640625 271.066406 155.445312 272.058594 155.445312 C 273.050781 155.445312 273.855469 154.640625 273.855469 153.648438 "/>
<path fill-rule="evenodd" fill="rgb(0%, 0%, 100%)" fill-opacity="1" d="M 369.636719 145.667969 C 369.636719 144.675781 368.832031 143.871094 367.839844 143.871094 C 366.847656 143.871094 366.042969 144.675781 366.042969 145.667969 C 366.042969 146.660156 366.847656 147.464844 367.839844 147.464844 C 368.832031 147.464844 369.636719 146.660156 369.636719 145.667969 "/>
<path fill-rule="evenodd" fill="rgb(0%, 0%, 100%)" fill-opacity="1" d="M 305.78125 161.628906 C 305.78125 160.640625 304.976562 159.835938 303.984375 159.835938 C 302.992188 159.835938 302.1875 160.640625 302.1875 161.628906 C 302.1875 162.621094 302.992188 163.425781 303.984375 163.425781 C 304.976562 163.425781 305.78125 162.621094 305.78125 161.628906 "/>
<path fill-rule="evenodd" fill="rgb(0%, 0%, 100%)" fill-opacity="1" d="M 345.691406 161.628906 C 345.691406 160.640625 344.886719 159.835938 343.894531 159.835938 C 342.902344 159.835938 342.097656 160.640625 342.097656 161.628906 C 342.097656 162.621094 342.902344 163.425781 343.894531 163.425781 C 344.886719 163.425781 345.691406 162.621094 345.691406 161.628906 "/>
<path fill-rule="evenodd" fill="rgb(0%, 0%, 100%)" fill-opacity="1" d="M 377.617188 161.628906 C 377.617188 160.640625 376.8125 159.835938 375.820312 159.835938 C 374.828125 159.835938 374.023438 160.640625 374.023438 161.628906 C 374.023438 162.621094 374.828125 163.425781 375.820312 163.425781 C 376.8125 163.425781 377.617188 162.621094 377.617188 161.628906 "/>
<path fill-rule="evenodd" fill="rgb(0%, 0%, 100%)" fill-opacity="1" d="M 449.453125 161.628906 C 449.453125 160.640625 448.648438 159.835938 447.65625 159.835938 C 446.664062 159.835938 445.859375 160.640625 445.859375 161.628906 C 445.859375 162.621094 446.664062 163.425781 447.65625 163.425781 C 448.648438 163.425781 449.453125 162.621094 449.453125 161.628906 "/>
<path fill-rule="evenodd" fill="rgb(0%, 0%, 100%)" fill-opacity="1" d="M 369.636719 225.484375 C 369.636719 224.492188 368.832031 223.6875 367.839844 223.6875 C 366.847656 223.6875 366.042969 224.492188 366.042969 225.484375 C 366.042969 226.476562 366.847656 227.28125 367.839844 227.28125 C 368.832031 227.28125 369.636719 226.476562 369.636719 225.484375 "/>
<path fill-rule="evenodd" fill="rgb(0%, 0%, 100%)" fill-opacity="1" d="M 273.855469 201.539062 C 273.855469 200.546875 273.050781 199.742188 272.058594 199.742188 C 271.066406 199.742188 270.261719 200.546875 270.261719 201.539062 C 270.261719 202.53125 271.066406 203.335938 272.058594 203.335938 C 273.050781 203.335938 273.855469 202.53125 273.855469 201.539062 "/>
<path fill-rule="evenodd" fill="rgb(0%, 0%, 100%)" fill-opacity="1" d="M 281.835938 177.59375 C 281.835938 176.601562 281.03125 175.796875 280.039062 175.796875 C 279.046875 175.796875 278.242188 176.601562 278.242188 177.59375 C 278.242188 178.585938 279.046875 179.390625 280.039062 179.390625 C 281.03125 179.390625 281.835938 178.585938 281.835938 177.59375 "/>
<path fill-rule="evenodd" fill="rgb(0%, 0%, 100%)" fill-opacity="1" d="M 268.53125 254.75 C 268.53125 253.757812 267.730469 252.957031 266.738281 252.957031 C 265.746094 252.957031 264.941406 253.757812 264.941406 254.75 C 264.941406 255.742188 265.746094 256.546875 266.738281 256.546875 C 267.730469 256.546875 268.53125 255.742188 268.53125 254.75 "/>
<path fill-rule="evenodd" fill="rgb(0%, 0%, 100%)" fill-opacity="1" d="M 225.964844 281.355469 C 225.964844 280.367188 225.160156 279.5625 224.167969 279.5625 C 223.175781 279.5625 222.371094 280.367188 222.371094 281.355469 C 222.371094 282.347656 223.175781 283.152344 224.167969 283.152344 C 225.160156 283.152344 225.964844 282.347656 225.964844 281.355469 "/>
<path fill-rule="evenodd" fill="rgb(0%, 0%, 100%)" fill-opacity="1" d="M 194.035156 249.429688 C 194.035156 248.4375 193.230469 247.632812 192.242188 247.632812 C 191.25 247.632812 190.445312 248.4375 190.445312 249.429688 C 190.445312 250.421875 191.25 251.226562 192.242188 251.226562 C 193.230469 251.226562 194.035156 250.421875 194.035156 249.429688 "/>
<path fill-rule="evenodd" fill="rgb(0%, 0%, 100%)" fill-opacity="1" d="M 178.074219 209.519531 C 178.074219 208.53125 177.269531 207.726562 176.277344 207.726562 C 175.285156 207.726562 174.480469 208.53125 174.480469 209.519531 C 174.480469 210.511719 175.285156 211.316406 176.277344 211.316406 C 177.269531 211.316406 178.074219 210.511719 178.074219 209.519531 "/>
<path fill-rule="evenodd" fill="rgb(0%, 0%, 100%)" fill-opacity="1" d="M 409.542969 273.375 C 409.542969 272.382812 408.738281 271.578125 407.75 271.578125 C 406.757812 271.578125 405.953125 272.382812 405.953125 273.375 C 405.953125 274.367188 406.757812 275.171875 407.75 275.171875 C 408.738281 275.171875 409.542969 274.367188 409.542969 273.375 "/>
<path fill-rule="evenodd" fill="rgb(0%, 0%, 100%)" fill-opacity="1" d="M 385.597656 49.886719 C 385.597656 48.894531 384.792969 48.089844 383.804688 48.089844 C 382.8125 48.089844 382.007812 48.894531 382.007812 49.886719 C 382.007812 50.878906 382.8125 51.683594 383.804688 51.683594 C 384.792969 51.683594 385.597656 50.878906 385.597656 49.886719 "/>
<path fill-rule="evenodd" fill="rgb(0%, 0%, 100%)" fill-opacity="1" d="M 417.527344 73.832031 C 417.527344 72.839844 416.722656 72.035156 415.730469 72.035156 C 414.738281 72.035156 413.933594 72.839844 413.933594 73.832031 C 413.933594 74.824219 414.738281 75.628906 415.730469 75.628906 C 416.722656 75.628906 417.527344 74.824219 417.527344 73.832031 "/>
<path fill-rule="evenodd" fill="rgb(0%, 0%, 100%)" fill-opacity="1" d="M 361.652344 49.886719 C 361.652344 48.894531 360.847656 48.089844 359.859375 48.089844 C 358.867188 48.089844 358.0625 48.894531 358.0625 49.886719 C 358.0625 50.878906 358.867188 51.683594 359.859375 51.683594 C 360.847656 51.683594 361.652344 50.878906 361.652344 49.886719 "/>
</svg>
