<?xml version="1.0" encoding="UTF-8"?>
<svg xmlns="http://www.w3.org/2000/svg" xmlns:xlink="http://www.w3.org/1999/xlink" width="595" height="350.2" viewBox="0 0 595 350.2">
<path fill-rule="evenodd" fill="rgb(0%, 100%, 0%)" fill-opacity="1" d="M 130.878906 73.832031 C 130.878906 72.453125 129.765625 71.335938 128.386719 71.335938 C 127.007812 71.335938 125.890625 72.453125 125.890625 73.832031 C 125.890625 75.210938 127.007812 76.324219 128.386719 76.324219 C 129.765625 76.324219 130.878906 75.210938 130.878906 73.832031 "/>
<path fill-rule="evenodd" fill="rgb(0%, 39.199829%, 0%)" fill-opacity="1" d="M 131.378906 73.832031 C 131.378906 72.179688 130.039062 70.839844 128.386719 70.839844 C 126.734375 70.839844 125.394531 72.179688 125.394531 73.832031 C 125.394531 75.484375 126.734375 76.824219 128.386719 76.824219 C 130.039062 76.824219 131.378906 75.484375 131.378906 73.832031 M 130.382812 73.832031 C 130.382812 72.730469 129.488281 71.835938 128.386719 71.835938 C 127.285156 71.835938 126.390625 72.730469 126.390625 73.832031 C 126.390625 74.933594 127.285156 75.828125 128.386719 75.828125 C 129.488281 75.828125 130.382812 74.933594 130.382812 73.832031 "/>
<path fill-rule="evenodd" fill="rgb(0%, 100%, 0%)" fill-opacity="1" d="M 130.878906 89.792969 C 130.878906 88.417969 129.765625 87.300781 128.386719 87.300781 C 127.007812 87.300781 125.890625 88.417969 125.890625 89.792969 C 125.890625 91.171875 127.007812 92.289062 128.386719 92.289062 C 129.765625 92.289062 130.878906 91.171875 130.878906 89.792969 "/>
<path fill-rule="evenodd" fill="rgb(0%, 39.199829%, 0%)" fill-opacity="1" d="M 131.378906 89.792969 C 131.378906 88.140625 130.039062 86.800781 128.386719 86.800781 C 126.734375 86.800781 125.394531 88.140625 125.394531 89.792969 C 125.394531 91.449219 126.734375 92.789062 128.386719 92.789062 C 130.039062 92.789062 131.378906 91.449219 131.378906 89.792969 M 130.382812 89.792969 C 130.382812 88.691406 129.488281 87.800781 128.386719 87.800781 C 127.285156 87.800781 126.390625 88.691406 126.390625 89.792969 C 126.390625 90.898438 127.285156 91.789062 128.386719 91.789062 C 129.488281 91.789062 130.382812 90.898438 130.382812 89.792969 "/>
<path fill-rule="evenodd" fill="rgb(0%, 100%, 0%)" fill-opacity="1" d="M 130.878906 105.757812 C 130.878906 104.378906 129.765625 103.265625 128.386719 103.265625 C 127.007812 103.265625 125.890625 104.378906 125.890625 105.757812 C 125.890625 107.136719 127.007812 108.253906 128.386719 108.253906 C 129.765625 108.253906 130.878906 107.136719 130.878906 105.757812 "/>
<path fill-rule="evenodd" fill="rgb(0%, 39.199829%, 0%)" fill-opacity="1" d="M 131.378906 105.757812 C 131.378906 104.105469 130.039062 102.765625 128.386719 102.765625 C 126.734375 102.765625 125.394531 104.105469 125.394531 105.757812 C 125.394531 107.410156 126.734375 108.75 128.386719 108.75 C 130.039062 108.75 131.378906 107.410156 131.378906 105.757812 M 130.382812 105.757812 C 130.382812 104.65625 129.488281 103.761719 128.386719 103.761719 C 127.285156 103.761719 126.390625 104.65625 126.390625 105.757812 C 126.390625 106.859375 127.285156 107.753906 128.386719 107.753906 C 129.488281 107.753906 130.382812 106.859375 130.382812 105.757812 "/>
<path fill-rule="evenodd" fill="rgb(0%, 100%, 0%)" fill-opacity="1" d="M 130.878906 121.722656 C 130.878906 120.34375 129.765625 119.226562 128.386719 119.226562 C 127.007812 119.226562 125.890625 120.34375 125.890625 121.722656 C 125.890625 123.101562 127.007812 124.214844 128.386719 124.214844 C 129.765625 124.214844 130.878906 123.101562 130.878906 121.722656 "/>
<path fill-rule="evenodd" fill="rgb(0%, 39.199829%, 0%)" fill-opacity="1" d="M 131.378906 121.722656 C 131.378906 120.070312 130.039062 118.730469 128.386719 118.730469 C 126.734375 118.730469 125.394531 120.070312 125.394531 121.722656 C 125.394531 123.375 126.734375 124.714844 128.386719 124.714844 C 130.039062 124.714844 131.378906 123.375 131.378906 121.722656 M 130.382812 121.722656 C 130.382812 120.621094 129.488281 119.726562 128.386719 119.726562 C 127.285156 119.726562 126.390625 120.621094 126.390625 121.722656 C 126.390625 122.824219 127.285156 123.71875 128.386719 123.71875 C 129.488281 123.71875 130.382812 122.824219 130.382812 121.722656 "/>
<path fill-rule="evenodd" fill="rgb(0%, 100%, 0%)" fill-opacity="1" d="M 130.878906 137.683594 C 130.878906 136.308594 129.765625 135.191406 128.386719 135.191406 C 127.007812 135.191406 125.890625 136.308594 125.890625 137.683594 C 125.890625 139.0625 127.007812 140.179688 128.386719 140.179688 C 129.765625 140.179688 130.878906 139.0625 130.878906 137.683594 "/>
<path fill-rule="evenodd" fill="rgb(0%, 39.199829%, 0%)" fill-opacity="1" d="M 131.378906 137.683594 C 131.378906 136.03125 130.039062 134.691406 128.386719 134.691406 C 126.734375 134.691406 125.394531 136.03125 125.394531 137.683594 C 125.394531 139.339844 126.734375 140.679688 128.386719 140.679688 C 130.039062 140.679688 131.378906 139.339844 131.378906 137.683594 M 130.382812 137.683594 C 130.382812 136.582031 129.488281 135.691406 128.386719 135.691406 C 127.285156 135.691406 126.390625 136.582031 126.390625 137.683594 C 126.390625 138.789062 127.285156 139.679688 128.386719 139.679688 C 129.488281 139.679688 130.382812 138.789062 130.382812 137.683594 "/>
<path fill-rule="evenodd" fill="rgb(0%, 100%, 0%)" fill-opacity="1" d="M 114.917969 73.832031 C 114.917969 72.453125 113.800781 71.335938 112.421875 71.335938 C 111.046875 71.335938 109.929688 72.453125 109.929688 73.832031 C 109.929688 75.210938 111.046875 76.324219 112.421875 76.324219 C 113.800781 76.324219 114.917969 75.210938 114.917969 73.832031 "/>
<path fill-rule="evenodd" fill="rgb(0%, 39.199829%, 0%)" fill-opacity="1" d="M 115.414062 73.832031 C 115.414062 72.179688 114.074219 70.839844 112.421875 70.839844 C 110.769531 70.839844 109.429688 72.179688 109.429688 73.832031 C 109.429688 75.484375 110.769531 76.824219 112.421875 76.824219 C 114.074219 76.824219 115.414062 75.484375 115.414062 73.832031 M 114.417969 73.832031 C 114.417969 72.730469 113.523438 71.835938 112.421875 71.835938 C 111.320312 71.835938 110.425781 72.730469 110.425781 73.832031 C 110.425781 74.933594 111.320312 75.828125 112.421875 75.828125 C 113.523438 75.828125 114.417969 74.933594 114.417969 73.832031 "/>
<path fill-rule="evenodd" fill="rgb(0%, 100%, 0%)" fill-opacity="1" d="M 98.953125 73.832031 C 98.953125 72.453125 97.835938 71.335938 96.460938 71.335938 C 95.082031 71.335938 93.964844 72.453125 93.964844 73.832031 C 93.964844 75.210938 95.082031 76.324219 96.460938 76.324219 C 97.835938 76.324219 98.953125 75.210938 98.953125 73.832031 "/>
<path fill-rule="evenodd" fill="rgb(0%, 39.199829%, 0%)" fill-opacity="1" d="M 99.453125 73.832031 C 99.453125 72.179688 98.113281 70.839844 96.460938 70.839844 C 94.804688 70.839844 93.464844 72.179688 93.464844 73.832031 C 93.464844 75.484375 94.804688 76.824219 96.460938 76.824219 C 98.113281 76.824219 99.453125 75.484375 99.453125 73.832031 M 98.453125 73.832031 C 98.453125 72.730469 97.5625 71.835938 96.460938 71.835938 C 95.355469 71.835938 94.464844 72.730469 94.464844 73.832031 C 94.464844 74.933594 95.355469 75.828125 96.460938 75.828125 C 97.5625 75.828125 98.453125 74.933594 98.453125 73.832031 "/>
<path fill-rule="evenodd" fill="rgb(0%, 100%, 0%)" fill-opacity="1" d="M 146.84375 73.832031 C 146.84375 72.453125 145.726562 71.335938 144.351562 71.335938 C 142.972656 71.335938 141.855469 72.453125 141.855469 73.832031 C 141.855469 75.210938 142.972656 76.324219 144.351562 76.324219 C 145.726562 76.324219 146.84375 75.210938 146.84375 73.832031 "/>
<path fill-rule="evenodd" fill="rgb(0%, 39.199829%, 0%)" fill-opacity="1" d="M 147.34375 73.832031 C 147.34375 72.179688 146.003906 70.839844 144.351562 70.839844 C 142.695312 70.839844 141.355469 72.179688 141.355469 73.832031 C 141.355469 75.484375 142.695312 76.824219 144.351562 76.824219 C 146.003906 76.824219 147.34375 75.484375 147.34375 73.832031 M 146.34375 73.832031 C 146.34375 72.730469 145.453125 71.835938 144.351562 71.835938 C 143.246094 71.835938 142.355469 72.730469 142.355469 73.832031 C 142.355469 74.933594 143.246094 75.828125 144.351562 75.828125 C 145.453125 75.828125 146.34375 74.933594 146.34375 73.832031 "/>
<path fill-rule="evenodd" fill="rgb(0%, 100%, 0%)" fill-opacity="1" d="M 162.808594 73.832031 C 162.808594 72.453125 161.691406 71.335938 160.3125 71.335938 C 158.933594 71.335938 157.820312 72.453125 157.820312 73.832031 C 157.820312 75.210938 158.933594 76.324219 160.3125 76.324219 C 161.691406 76.324219 162.808594 75.210938 162.808594 73.832031 "/>
<path fill-rule="evenodd" fill="rgb(0%, 39.199829%, 0%)" fill-opacity="1" d="M 163.304688 73.832031 C 163.304688 72.179688 161.964844 70.839844 160.3125 70.839844 C 158.660156 70.839844 157.320312 72.179688 157.320312 73.832031 C 157.320312 75.484375 158.660156 76.824219 160.3125 76.824219 C 161.964844 76.824219 163.304688 75.484375 163.304688 73.832031 M 162.308594 73.832031 C 162.308594 72.730469 161.414062 71.835938 160.3125 71.835938 C 159.210938 71.835938 158.316406 72.730469 158.316406 73.832031 C 158.316406 74.933594 159.210938 75.828125 160.3125 75.828125 C 161.414062 75.828125 162.308594 74.933594 162.308594 73.832031 "/>
<path fill-rule="evenodd" fill="rgb(0%, 100%, 0%)" fill-opacity="1" d="M 194.734375 73.832031 C 194.734375 72.453125 193.617188 71.335938 192.242188 71.335938 C 190.863281 71.335938 189.746094 72.453125 189.746094 73.832031 C 189.746094 75.210938 190.863281 76.324219 192.242188 76.324219 C 193.617188 76.324219 194.734375 75.210938 194.734375 73.832031 "/>
<path fill-rule="evenodd" fill="rgb(0%, 39.199829%, 0%)" fill-opacity="1" d="M 195.234375 73.832031 C 195.234375 72.179688 193.894531 70.839844 192.242188 70.839844 C 190.585938 70.839844 189.246094 72.179688 189.246094 73.832031 C 189.246094 75.484375 190.585938 76.824219 192.242188 76.824219 C 193.894531 76.824219 195.234375 75.484375 195.234375 73.832031 M 194.234375 73.832031 C 194.234375 72.730469 193.34375 71.835938 192.242188 71.835938 C 191.136719 71.835938 190.246094 72.730469 190.246094 73.832031 C 190.246094 74.933594 191.136719 75.828125 192.242188 75.828125 C 193.34375 75.828125 194.234375 74.933594 194.234375 73.832031 "/>
<path fill-rule="evenodd" fill="rgb(0%, 100%, 0%)" fill-opacity="1" d="M 194.734375 89.792969 C 194.734375 88.417969 193.617188 87.300781 192.242188 87.300781 C 190.863281 87.300781 189.746094 88.417969 189.746094 89.792969 C 189.746094 91.171875 190.863281 92.289062 192.242188 92.289062 C 193.617188 92.289062 194.734375 91.171875 194.734375 89.792969 "/>
<path fill-rule="evenodd" fill="rgb(0%, 39.199829%, 0%)" fill-opacity="1" d="M 195.234375 89.792969 C 195.234375 88.140625 193.894531 86.800781 192.242188 86.800781 C 190.585938 86.800781 189.246094 88.140625 189.246094 89.792969 C 189.246094 91.449219 190.585938 92.789062 192.242188 92.789062 C 193.894531 92.789062 195.234375 91.449219 195.234375 89.792969 M 194.234375 89.792969 C 194.234375 88.691406 193.34375 87.800781 192.242188 87.800781 C 191.136719 87.800781 190.246094 88.691406 190.246094 89.792969 C 190.246094 90.898438 191.136719 91.789062 192.242188 91.789062 C 193.34375 91.789062 194.234375 90.898438 194.234375 89.792969 "/>
<path fill-rule="evenodd" fill="rgb(0%, 100%, 0%)" fill-opacity="1" d="M 194.734375 105.757812 C 194.734375 104.378906 193.617188 103.265625 192.242188 103.265625 C 190.863281 103.265625 189.746094 104.378906 189.746094 105.757812 C 189.746094 107.136719 190.863281 108.253906 192.242188 108.253906 C 193.617188 108.253906 194.734375 107.136719 194.734375 105.757812 "/>
<path fill-rule="evenodd" fill="rgb(0%, 39.199829%, 0%)" fill-opacity="1" d="M 195.234375 105.757812 C 195.234375 104.105469 193.894531 102.765625 192.242188 102.765625 C 190.585938 102.765625 189.246094 104.105469 189.246094 105.757812 C 189.246094 107.410156 190.585938 108.75 192.242188 108.75 C 193.894531 108.75 195.234375 107.410156 195.234375 105.757812 M 194.234375 105.757812 C 194.234375 104.65625 193.34375 103.761719 192.242188 103.761719 C 191.136719 103.761719 190.246094 104.65625 190.246094 105.757812 C 190.246094 106.859375 191.136719 107.753906 192.242188 107.753906 C 193.34375 107.753906 194.234375 106.859375 194.234375 105.757812 "/>
<path fill-rule="evenodd" fill="rgb(0%, 100%, 0%)" fill-opacity="1" d="M 194.734375 121.722656 C 194.734375 120.34375 193.617188 119.226562 192.242188 119.226562 C 190.863281 119.226562 189.746094 120.34375 189.746094 121.722656 C 189.746094 123.101562 190.863281 124.214844 192.242188 124.214844 C 193.617188 124.214844 194.734375 123.101562 194.734375 121.722656 "/>
<path fill-rule="evenodd" fill="rgb(0%, 39.199829%, 0%)" fill-opacity="1" d="M 195.234375 121.722656 C 195.234375 120.070312 193.894531 118.730469 192.242188 118.730469 C 190.585938 118.730469 189.246094 120.070312 189.246094 121.722656 C 189.246094 123.375 190.585938 124.714844 192.242188 124.714844 C 193.894531 124.714844 195.234375 123.375 195.234375 121.722656 M 194.234375 121.722656 C 194.234375 120.621094 193.34375 119.726562 192.242188 119.726562 C 191.136719 119.726562 190.246094 120.621094 190.246094 121.722656 C 190.246094 122.824219 191.136719 123.71875 192.242188 123.71875 C 193.34375 123.71875 194.234375 122.824219 194.234375 121.722656 "/>
<path fill-rule="evenodd" fill="rgb(0%, 100%, 0%)" fill-opacity="1" d="M 194.734375 137.683594 C 194.734375 136.308594 193.617188 135.191406 192.242188 135.191406 C 190.863281 135.191406 189.746094 136.308594 189.746094 137.683594 C 189.746094 139.0625 190.863281 140.179688 192.242188 140.179688 C 193.617188 140.179688 194.734375 139.0625 194.734375 137.683594 "/>
<path fill-rule="evenodd" fill="rgb(0%, 39.199829%, 0%)" fill-opacity="1" d="M 195.234375 137.683594 C 195.234375 136.03125 193.894531 134.691406 192.242188 134.691406 C 190.585938 134.691406 189.246094 136.03125 189.246094 137.683594 C 189.246094 139.339844 190.585938 140.679688 192.242188 140.679688 C 193.894531 140.679688 195.234375 139.339844 195.234375 137.683594 M 194.234375 137.683594 C 194.234375 136.582031 193.34375 135.691406 192.242188 135.691406 C 191.136719 135.691406 190.246094 136.582031 190.246094 137.683594 C 190.246094 138.789062 191.136719 139.679688 192.242188 139.679688 C 193.34375 139.679688 194.234375 138.789062 194.234375 137.683594 "/>
<path fill-rule="evenodd" fill="rgb(0%, 100%, 0%)" fill-opacity="1" d="M 258.589844 73.832031 C 258.589844 72.453125 257.472656 71.335938 256.09375 71.335938 C 254.714844 71.335938 253.601562 72.453125 253.601562 73.832031 C 253.601562 75.210938 254.714844 76.324219 256.09375 76.324219 C 257.472656 76.324219 258.589844 75.210938 258.589844 73.832031 "/>
<path fill-rule="evenodd" fill="rgb(0%, 39.199829%, 0%)" fill-opacity="1" d="M 259.085938 73.832031 C 259.085938 72.179688 257.746094 70.839844 256.09375 70.839844 C 254.441406 70.839844 253.101562 72.179688 253.101562 73.832031 C 253.101562 75.484375 254.441406 76.824219 256.09375 76.824219 C 257.746094 76.824219 259.085938 75.484375 259.085938 73.832031 M 258.089844 73.832031 C 258.089844 72.730469 257.195312 71.835938 256.09375 71.835938 C 254.992188 71.835938 254.097656 72.730469 254.097656 73.832031 C 254.097656 74.933594 254.992188 75.828125 256.09375 75.828125 C 257.195312 75.828125 258.089844 74.933594 258.089844 73.832031 "/>
<path fill-rule="evenodd" fill="rgb(0%, 100%, 0%)" fill-opacity="1" d="M 258.589844 89.792969 C 258.589844 88.417969 257.472656 87.300781 256.09375 87.300781 C 254.714844 87.300781 253.601562 88.417969 253.601562 89.792969 C 253.601562 91.171875 254.714844 92.289062 256.09375 92.289062 C 257.472656 92.289062 258.589844 91.171875 258.589844 89.792969 "/>
<path fill-rule="evenodd" fill="rgb(0%, 39.199829%, 0%)" fill-opacity="1" d="M 259.085938 89.792969 C 259.085938 88.140625 257.746094 86.800781 256.09375 86.800781 C 254.441406 86.800781 253.101562 88.140625 253.101562 89.792969 C 253.101562 91.449219 254.441406 92.789062 256.09375 92.789062 C 257.746094 92.789062 259.085938 91.449219 259.085938 89.792969 M 258.089844 89.792969 C 258.089844 88.691406 257.195312 87.800781 256.09375 87.800781 C 254.992188 87.800781 254.097656 88.691406 254.097656 89.792969 C 254.097656 90.898438 254.992188 91.789062 256.09375 91.789062 C 257.195312 91.789062 258.089844 90.898438 258.089844 89.792969 "/>
<path fill-rule="evenodd" fill="rgb(0%, 100%, 0%)" fill-opacity="1" d="M 258.589844 105.757812 C 258.589844 104.378906 257.472656 103.265625 256.09375 103.265625 C 254.714844 103.265625 253.601562 104.378906 253.601562 105.757812 C 253.601562 107.136719 254.714844 108.253906 256.09375 108.253906 C 257.472656 108.253906 258.589844 107.136719 258.589844 105.757812 "/>
<path fill-rule="evenodd" fill="rgb(0%, 39.199829%, 0%)" fill-opacity="1" d="M 259.085938 105.757812 C 259.085938 104.105469 257.746094 102.765625 256.09375 102.765625 C 254.441406 102.765625 253.101562 104.105469 253.101562 105.757812 C 253.101562 107.410156 254.441406 108.75 256.09375 108.75 C 257.746094 108.75 259.085938 107.410156 259.085938 105.757812 M 258.089844 105.757812 C 258.089844 104.65625 257.195312 103.761719 256.09375 103.761719 C 254.992188 103.761719 254.097656 104.65625 254.097656 105.757812 C 254.097656 106.859375 254.992188 107.753906 256.09375 107.753906 C 257.195312 107.753906 258.089844 106.859375 258.089844 105.757812 "/>
<path fill-rule="evenodd" fill="rgb(0%, 100%, 0%)" fill-opacity="1" d="M 258.589844 121.722656 C 258.589844 120.34375 257.472656 119.226562 256.09375 119.226562 C 254.714844 119.226562 253.601562 120.34375 253.601562 121.722656 C 253.601562 123.101562 254.714844 124.214844 256.09375 124.214844 C 257.472656 124.214844 258.589844 123.101562 258.589844 121.722656 "/>
<path fill-rule="evenodd" fill="rgb(0%, 39.199829%, 0%)" fill-opacity="1" d="M 259.085938 121.722656 C 259.085938 120.070312 257.746094 118.730469 256.09375 118.730469 C 254.441406 118.730469 253.101562 120.070312 253.101562 121.722656 C 253.101562 123.375 254.441406 124.714844 256.09375 124.714844 C 257.746094 124.714844 259.085938 123.375 259.085938 121.722656 M 258.089844 121.722656 C 258.089844 120.621094 257.195312 119.726562 256.09375 119.726562 C 254.992188 119.726562 254.097656 120.621094 254.097656 121.722656 C 254.097656 122.824219 254.992188 123.71875 256.09375 123.71875 C 257.195312 123.71875 258.089844 122.824219 258.089844 121.722656 "/>
<path fill-rule="evenodd" fill="rgb(0%, 100%, 0%)" fill-opacity="1" d="M 258.589844 137.683594 C 258.589844 136.308594 257.472656 135.191406 256.09375 135.191406 C 254.714844 135.191406 253.601562 136.308594 253.601562 137.683594 C 253.601562 139.0625 254.714844 140.179688 256.09375 140.179688 C 257.472656 140.179688 258.589844 139.0625 258.589844 137.683594 "/>
<path fill-rule="evenodd" fill="rgb(0%, 39.199829%, 0%)" fill-opacity="1" d="M 259.085938 137.683594 C 259.085938 136.03125 257.746094 134.691406 256.09375 134.691406 C 254.441406 134.691406 253.101562 136.03125 253.101562 137.683594 C 253.101562 139.339844 254.441406 140.679688 256.09375 140.679688 C 257.746094 140.679688 259.085938 139.339844 259.085938 137.683594 M 258.089844 137.683594 C 258.089844 136.582031 257.195312 135.691406 256.09375 135.691406 C 254.992188 135.691406 254.097656 136.582031 254.097656 137.683594 C 254.097656 138.789062 254.992188 139.679688 256.09375 139.679688 C 257.195312 139.679688 258.089844 138.789062 258.089844 137.683594 "/>
<path fill-rule="evenodd" fill="rgb(0%, 100%, 0%)" fill-opacity="1" d="M 210.699219 105.757812 C 210.699219 104.378906 209.582031 103.265625 208.203125 103.265625 C 206.824219 103.265625 205.710938 104.378906 205.710938 105.757812 C 205.710938 107.136719 206.824219 108.253906 208.203125 108.253906 C 209.582031 108.253906 210.699219 107.136719 210.699219 105.757812 "/>
<path fill-rule="evenodd" fill="rgb(0%, 39.199829%, 0%)" fill-opacity="1" d="M 211.195312 105.757812 C 211.195312 104.105469 209.855469 102.765625 208.203125 102.765625 C 206.550781 102.765625 205.210938 104.105469 205.210938 105.757812 C 205.210938 107.410156 206.550781 108.75 208.203125 108.75 C 209.855469 108.75 211.195312 107.410156 211.195312 105.757812 M 210.199219 105.757812 C 210.199219 104.65625 209.304688 103.761719 208.203125 103.761719 C 207.101562 103.761719 206.207031 104.65625 206.207031 105.757812 C 206.207031 106.859375 207.101562 107.753906 208.203125 107.753906 C 209.304688 107.753906 210.199219 106.859375 210.199219 105.757812 "/>
<path fill-rule="evenodd" fill="rgb(0%, 100%, 0%)" fill-opacity="1" d="M 226.660156 105.757812 C 226.660156 104.378906 225.546875 103.265625 224.167969 103.265625 C 222.789062 103.265625 221.671875 104.378906 221.671875 105.757812 C 221.671875 107.136719 222.789062 108.253906 224.167969 108.253906 C 225.546875 108.253906 226.660156 107.136719 226.660156 105.757812 "/>
<path fill-rule="evenodd" fill="rgb(0%, 39.199829%, 0%)" fill-opacity="1" d="M 227.160156 105.757812 C 227.160156 104.105469 225.820312 102.765625 224.167969 102.765625 C 222.515625 102.765625 221.175781 104.105469 221.175781 105.757812 C 221.175781 107.410156 222.515625 108.75 224.167969 108.75 C 225.820312 108.75 227.160156 107.410156 227.160156 105.757812 M 226.164062 105.757812 C 226.164062 104.65625 225.269531 103.761719 224.167969 103.761719 C 223.066406 103.761719 222.171875 104.65625 222.171875 105.757812 C 222.171875 106.859375 223.066406 107.753906 224.167969 107.753906 C 225.269531 107.753906 226.164062 106.859375 226.164062 105.757812 "/>
<path fill-rule="evenodd" fill="rgb(0%, 100%, 0%)" fill-opacity="1" d="M 290.515625 137.683594 C 290.515625 136.308594 289.398438 135.191406 288.023438 135.191406 C 286.644531 135.191406 285.527344 136.308594 285.527344 137.683594 C 285.527344 139.0625 286.644531 140.179688 288.023438 140.179688 C 289.398438 140.179688 290.515625 139.0625 290.515625 137.683594 "/>
<path fill-rule="evenodd" fill="rgb(0%, 39.199829%, 0%)" fill-opacity="1" d="M 291.015625 137.683594 C 291.015625 136.03125 289.675781 134.691406 288.023438 134.691406 C 286.367188 134.691406 285.027344 136.03125 285.027344 137.683594 C 285.027344 139.339844 286.367188 140.679688 288.023438 140.679688 C 289.675781 140.679688 291.015625 139.339844 291.015625 137.683594 M 290.015625 137.683594 C 290.015625 136.582031 289.125 135.691406 288.023438 135.691406 C 286.917969 135.691406 286.027344 136.582031 286.027344 137.683594 C 286.027344 138.789062 286.917969 139.679688 288.023438 139.679688 C 289.125 139.679688 290.015625 138.789062 290.015625 137.683594 "/>
<path fill-rule="evenodd" fill="rgb(0%, 100%, 0%)" fill-opacity="1" d="M 354.371094 137.683594 C 354.371094 136.308594 353.253906 135.191406 351.875 135.191406 C 350.496094 135.191406 349.382812 136.308594 349.382812 137.683594 C 349.382812 139.0625 350.496094 140.179688 351.875 140.179688 C 353.253906 140.179688 354.371094 139.0625 354.371094 137.683594 "/>
<path fill-rule="evenodd" fill="rgb(0%, 39.199829%, 0%)" fill-opacity="1" d="M 354.867188 137.683594 C 354.867188 136.03125 353.527344 134.691406 351.875 134.691406 C 350.222656 134.691406 348.882812 136.03125 348.882812 137.683594 C 348.882812 139.339844 350.222656 140.679688 351.875 140.679688 C 353.527344 140.679688 354.867188 139.339844 354.867188 137.683594 M 353.871094 137.683594 C 353.871094 136.582031 352.976562 135.691406 351.875 135.691406 C 350.773438 135.691406 349.878906 136.582031 349.878906 137.683594 C 349.878906 138.789062 350.773438 139.679688 351.875 139.679688 C 352.976562 139.679688 353.871094 138.789062 353.871094 137.683594 "/>
<path fill-rule="evenodd" fill="rgb(0%, 100%, 0%)" fill-opacity="1" d="M 322.441406 73.832031 C 322.441406 72.453125 321.328125 71.335938 319.949219 71.335938 C 318.570312 71.335938 317.453125 72.453125 317.453125 73.832031 C 317.453125 75.210938 318.570312 76.324219 319.949219 76.324219 C 321.328125 76.324219 322.441406 75.210938 322.441406 73.832031 "/>
<path fill-rule="evenodd" fill="rgb(0%, 39.199829%, 0%)" fill-opacity="1" d="M 322.941406 73.832031 C 322.941406 72.179688 321.601562 70.839844 319.949219 70.839844 C 318.296875 70.839844 316.957031 72.179688 316.957031 73.832031 C 316.957031 75.484375 318.296875 76.824219 319.949219 76.824219 C 321.601562 76.824219 322.941406 75.484375 322.941406 73.832031 M 321.945312 73.832031 C 321.945312 72.730469 321.050781 71.835938 319.949219 71.835938 C 318.847656 71.835938 317.953125 72.730469 317.953125 73.832031 C 317.953125 74.933594 318.847656 75.828125 319.949219 75.828125 C 321.050781 75.828125 321.945312 74.933594 321.945312 73.832031 "/>
<path fill-rule="evenodd" fill="rgb(0%, 100%, 0%)" fill-opacity="1" d="M 386.296875 137.683594 C 386.296875 136.308594 385.179688 135.191406 383.804688 135.191406 C 382.425781 135.191406 381.308594 136.308594 381.308594 137.683594 C 381.308594 139.0625 382.425781 140.179688 383.804688 140.179688 C 385.179688 140.179688 386.296875 139.0625 386.296875 137.683594 "/>
<path fill-rule="evenodd" fill="rgb(0%, 39.199829%, 0%)" fill-opacity="1" d="M 386.796875 137.683594 C 386.796875 136.03125 385.457031 134.691406 383.804688 134.691406 C 382.148438 134.691406 380.808594 136.03125 380.808594 137.683594 C 380.808594 139.339844 382.148438 140.679688 383.804688 140.679688 C 385.457031 140.679688 386.796875 139.339844 386.796875 137.683594 M 385.796875 137.683594 C 385.796875 136.582031 384.90625 135.691406 383.804688 135.691406 C 382.699219 135.691406 381.808594 136.582031 381.808594 137.683594 C 381.808594 138.789062 382.699219 139.679688 383.804688 139.679688 C 384.90625 139.679688 385.796875 138.789062 385.796875 137.683594 "/>
<path fill-rule="evenodd" fill="rgb(0%, 100%, 0%)" fill-opacity="1" d="M 386.296875 121.722656 C 386.296875 120.34375 385.179688 119.226562 383.804688 119.226562 C 382.425781 119.226562 381.308594 120.34375 381.308594 121.722656 C 381.308594 123.101562 382.425781 124.214844 383.804688 124.214844 C 385.179688 124.214844 386.296875 123.101562 386.296875 121.722656 "/>
<path fill-rule="evenodd" fill="rgb(0%, 39.199829%, 0%)" fill-opacity="1" d="M 386.796875 121.722656 C 386.796875 120.070312 385.457031 118.730469 383.804688 118.730469 C 382.148438 118.730469 380.808594 120.070312 380.808594 121.722656 C 380.808594 123.375 382.148438 124.714844 383.804688 124.714844 C 385.457031 124.714844 386.796875 123.375 386.796875 121.722656 M 385.796875 121.722656 C 385.796875 120.621094 384.90625 119.726562 383.804688 119.726562 C 382.699219 119.726562 381.808594 120.621094 381.808594 121.722656 C 381.808594 122.824219 382.699219 123.71875 383.804688 123.71875 C 384.90625 123.71875 385.796875 122.824219 385.796875 121.722656 "/>
<path fill-rule="evenodd" fill="rgb(0%, 100%, 0%)" fill-opacity="1" d="M 386.296875 105.757812 C 386.296875 104.378906 385.179688 103.265625 383.804688 103.265625 C 382.425781 103.265625 381.308594 104.378906 381.308594 105.757812 C 381.308594 107.136719 382.425781 108.253906 383.804688 108.253906 C 385.179688 108.253906 386.296875 107.136719 386.296875 105.757812 "/>
<path fill-rule="evenodd" fill="rgb(0%, 39.199829%, 0%)" fill-opacity="1" d="M 386.796875 105.757812 C 386.796875 104.105469 385.457031 102.765625 383.804688 102.765625 C 382.148438 102.765625 380.808594 104.105469 380.808594 105.757812 C 380.808594 107.410156 382.148438 108.75 383.804688 108.75 C 385.457031 108.75 386.796875 107.410156 386.796875 105.757812 M 385.796875 105.757812 C 385.796875 104.65625 384.90625 103.761719 383.804688 103.761719 C 382.699219 103.761719 381.808594 104.65625 381.808594 105.757812 C 381.808594 106.859375 382.699219 107.753906 383.804688 107.753906 C 384.90625 107.753906 385.796875 106.859375 385.796875 105.757812 "/>
<path fill-rule="evenodd" fill="rgb(0%, 100%, 0%)" fill-opacity="1" d="M 386.296875 105.757812 C 386.296875 104.378906 385.179688 103.265625 383.804688 103.265625 C 382.425781 103.265625 381.308594 104.378906 381.308594 105.757812 C 381.308594 107.136719 382.425781 108.253906 383.804688 108.253906 C 385.179688 108.253906 386.296875 107.136719 386.296875 105.757812 "/>
<path fill-rule="evenodd" fill="rgb(0%, 39.199829%, 0%)" fill-opacity="1" d="M 386.796875 105.757812 C 386.796875 104.105469 385.457031 102.765625 383.804688 102.765625 C 382.148438 102.765625 380.808594 104.105469 380.808594 105.757812 C 380.808594 107.410156 382.148438 108.75 383.804688 108.75 C 385.457031 108.75 386.796875 107.410156 386.796875 105.757812 M 385.796875 105.757812 C 385.796875 104.65625 384.90625 103.761719 383.804688 103.761719 C 382.699219 103.761719 381.808594 104.65625 381.808594 105.757812 C 381.808594 106.859375 382.699219 107.753906 383.804688 107.753906 C 384.90625 107.753906 385.796875 106.859375 385.796875 105.757812 "/>
<path fill-rule="evenodd" fill="rgb(0%, 100%, 0%)" fill-opacity="1" d="M 386.296875 89.792969 C 386.296875 88.417969 385.179688 87.300781 383.804688 87.300781 C 382.425781 87.300781 381.308594 88.417969 381.308594 89.792969 C 381.308594 91.171875 382.425781 92.289062 383.804688 92.289062 C 385.179688 92.289062 386.296875 91.171875 386.296875 89.792969 "/>
<path fill-rule="evenodd" fill="rgb(0%, 39.199829%, 0%)" fill-opacity="1" d="M 386.796875 89.792969 C 386.796875 88.140625 385.457031 86.800781 383.804688 86.800781 C 382.148438 86.800781 380.808594 88.140625 380.808594 89.792969 C 380.808594 91.449219 382.148438 92.789062 383.804688 92.789062 C 385.457031 92.789062 386.796875 91.449219 386.796875 89.792969 M 385.796875 89.792969 C 385.796875 88.691406 384.90625 87.800781 383.804688 87.800781 C 382.699219 87.800781 381.808594 88.691406 381.808594 89.792969 C 381.808594 90.898438 382.699219 91.789062 383.804688 91.789062 C 384.90625 91.789062 385.796875 90.898438 385.796875 89.792969 "/>
<path fill-rule="evenodd" fill="rgb(0%, 100%, 0%)" fill-opacity="1" d="M 386.296875 73.832031 C 386.296875 72.453125 385.179688 71.335938 383.804688 71.335938 C 382.425781 71.335938 381.308594 72.453125 381.308594 73.832031 C 381.308594 75.210938 382.425781 76.324219 383.804688 76.324219 C 385.179688 76.324219 386.296875 75.210938 386.296875 73.832031 "/>
<path fill-rule="evenodd" fill="rgb(0%, 39.199829%, 0%)" fill-opacity="1" d="M 386.796875 73.832031 C 386.796875 72.179688 385.457031 70.839844 383.804688 70.839844 C 382.148438 70.839844 380.808594 72.179688 380.808594 73.832031 C 380.808594 75.484375 382.148438 76.824219 383.804688 76.824219 C 385.457031 76.824219 386.796875 75.484375 386.796875 73.832031 M 385.796875 73.832031 C 385.796875 72.730469 384.90625 71.835938 383.804688 71.835938 C 382.699219 71.835938 381.808594 72.730469 381.808594 73.832031 C 381.808594 74.933594 382.699219 75.828125 383.804688 75.828125 C 384.90625 75.828125 385.796875 74.933594 385.796875 73.832031 "/>
<path fill-rule="evenodd" fill="rgb(0%, 100%, 0%)" fill-opacity="1" d="M 450.152344 137.683594 C 450.152344 136.308594 449.035156 135.191406 447.65625 135.191406 C 446.277344 135.191406 445.164062 136.308594 445.164062 137.683594 C 445.164062 139.0625 446.277344 140.179688 447.65625 140.179688 C 449.035156 140.179688 450.152344 139.0625 450.152344 137.683594 "/>
<path fill-rule="evenodd" fill="rgb(0%, 39.199829%, 0%)" fill-opacity="1" d="M 450.648438 137.683594 C 450.648438 136.03125 449.308594 134.691406 447.65625 134.691406 C 446.003906 134.691406 444.664062 136.03125 444.664062 137.683594 C 444.664062 139.339844 446.003906 140.679688 447.65625 140.679688 C 449.308594 140.679688 450.648438 139.339844 450.648438 137.683594 M 449.652344 137.683594 C 449.652344 136.582031 448.757812 135.691406 447.65625 135.691406 C 446.554688 135.691406 445.660156 136.582031 445.660156 137.683594 C 445.660156 138.789062 446.554688 139.679688 447.65625 139.679688 C 448.757812 139.679688 449.652344 138.789062 449.652344 137.683594 "/>
<path fill-rule="evenodd" fill="rgb(0%, 100%, 0%)" fill-opacity="1" d="M 450.152344 121.722656 C 450.152344 120.34375 449.035156 119.226562 447.65625 119.226562 C 446.277344 119.226562 445.164062 120.34375 445.164062 121.722656 C 445.164062 123.101562 446.277344 124.214844 447.65625 124.214844 C 449.035156 124.214844 450.152344 123.101562 450.152344 121.722656 "/>
<path fill-rule="evenodd" fill="rgb(0%, 39.199829%, 0%)" fill-opacity="1" d="M 450.648438 121.722656 C 450.648438 120.070312 449.308594 118.730469 447.65625 118.730469 C 446.003906 118.730469 444.664062 120.070312 444.664062 121.722656 C 444.664062 123.375 446.003906 124.714844 447.65625 124.714844 C 449.308594 124.714844 450.648438 123.375 450.648438 121.722656 M 449.652344 121.722656 C 449.652344 120.621094 448.757812 119.726562 447.65625 119.726562 C 446.554688 119.726562 445.660156 120.621094 445.660156 121.722656 C 445.660156 122.824219 446.554688 123.71875 447.65625 123.71875 C 448.757812 123.71875 449.652344 122.824219 449.652344 121.722656 "/>
<path fill-rule="evenodd" fill="rgb(0%, 100%, 0%)" fill-opacity="1" d="M 450.152344 105.757812 C 450.152344 104.378906 449.035156 103.265625 447.65625 103.265625 C 446.277344 103.265625 445.164062 104.378906 445.164062 105.757812 C 445.164062 107.136719 446.277344 108.253906 447.65625 108.253906 C 449.035156 108.253906 450.152344 107.136719 450.152344 105.757812 "/>
<path fill-rule="evenodd" fill="rgb(0%, 39.199829%, 0%)" fill-opacity="1" d="M 450.648438 105.757812 C 450.648438 104.105469 449.308594 102.765625 447.65625 102.765625 C 446.003906 102.765625 444.664062 104.105469 444.664062 105.757812 C 444.664062 107.410156 446.003906 108.75 447.65625 108.75 C 449.308594 108.75 450.648438 107.410156 450.648438 105.757812 M 449.652344 105.757812 C 449.652344 104.65625 448.757812 103.761719 447.65625 103.761719 C 446.554688 103.761719 445.660156 104.65625 445.660156 105.757812 C 445.660156 106.859375 446.554688 107.753906 447.65625 107.753906 C 448.757812 107.753906 449.652344 106.859375 449.652344 105.757812 "/>
<path fill-rule="evenodd" fill="rgb(0%, 100%, 0%)" fill-opacity="1" d="M 450.152344 89.792969 C 450.152344 88.417969 449.035156 87.300781 447.65625 87.300781 C 446.277344 87.300781 445.164062 88.417969 445.164062 89.792969 C 445.164062 91.171875 446.277344 92.289062 447.65625 92.289062 C 449.035156 92.289062 450.152344 91.171875 450.152344 89.792969 "/>
<path fill-rule="evenodd" fill="rgb(0%, 39.199829%, 0%)" fill-opacity="1" d="M 450.648438 89.792969 C 450.648438 88.140625 449.308594 86.800781 447.65625 86.800781 C 446.003906 86.800781 444.664062 88.140625 444.664062 89.792969 C 444.664062 91.449219 446.003906 92.789062 447.65625 92.789062 C 449.308594 92.789062 450.648438 91.449219 450.648438 89.792969 M 449.652344 89.792969 C 449.652344 88.691406 448.757812 87.800781 447.65625 87.800781 C 446.554688 87.800781 445.660156 88.691406 445.660156 89.792969 C 445.660156 90.898438 446.554688 91.789062 447.65625 91.789062 C 448.757812 91.789062 449.652344 90.898438 449.652344 89.792969 "/>
<path fill-rule="evenodd" fill="rgb(0%, 100%, 0%)" fill-opacity="1" d="M 450.152344 73.832031 C 450.152344 72.453125 449.035156 71.335938 447.65625 71.335938 C 446.277344 71.335938 445.164062 72.453125 445.164062 73.832031 C 445.164062 75.210938 446.277344 76.324219 447.65625 76.324219 C 449.035156 76.324219 450.152344 75.210938 450.152344 73.832031 "/>
<path fill-rule="evenodd" fill="rgb(0%, 39.199829%, 0%)" fill-opacity="1" d="M 450.648438 73.832031 C 450.648438 72.179688 449.308594 70.839844 447.65625 70.839844 C 446.003906 70.839844 444.664062 72.179688 444.664062 73.832031 C 444.664062 75.484375 446.003906 76.824219 447.65625 76.824219 C 449.308594 76.824219 450.648438 75.484375 450.648438 73.832031 M 449.652344 73.832031 C 449.652344 72.730469 448.757812 71.835938 447.65625 71.835938 C 446.554688 71.835938 445.660156 72.730469 445.660156 73.832031 C 445.660156 74.933594 446.554688 75.828125 447.65625 75.828125 C 448.757812 75.828125 449.652344 74.933594 449.652344 73.832031 "/>
<path fill-rule="evenodd" fill="rgb(0%, 100%, 0%)" fill-opacity="1" d="M 482.078125 137.683594 C 482.078125 136.308594 480.960938 135.191406 479.585938 135.191406 C 478.207031 135.191406 477.089844 136.308594 477.089844 137.683594 C 477.089844 139.0625 478.207031 140.179688 479.585938 140.179688 C 480.960938 140.179688 482.078125 139.0625 482.078125 137.683594 "/>
<path fill-rule="evenodd" fill="rgb(0%, 39.199829%, 0%)" fill-opacity="1" d="M 482.578125 137.683594 C 482.578125 136.03125 481.238281 134.691406 479.585938 134.691406 C 477.929688 134.691406 476.589844 136.03125 476.589844 137.683594 C 476.589844 139.339844 477.929688 140.679688 479.585938 140.679688 C 481.238281 140.679688 482.578125 139.339844 482.578125 137.683594 M 481.578125 137.683594 C 481.578125 136.582031 480.6875 135.691406 479.585938 135.691406 C 478.480469 135.691406 477.589844 136.582031 477.589844 137.683594 C 477.589844 138.789062 478.480469 139.679688 479.585938 139.679688 C 480.6875 139.679688 481.578125 138.789062 481.578125 137.683594 "/>
<path fill-rule="evenodd" fill="rgb(0%, 100%, 0%)" fill-opacity="1" d="M 482.078125 121.722656 C 482.078125 120.34375 480.960938 119.226562 479.585938 119.226562 C 478.207031 119.226562 477.089844 120.34375 477.089844 121.722656 C 477.089844 123.101562 478.207031 124.214844 479.585938 124.214844 C 480.960938 124.214844 482.078125 123.101562 482.078125 121.722656 "/>
<path fill-rule="evenodd" fill="rgb(0%, 39.199829%, 0%)" fill-opacity="1" d="M 482.578125 121.722656 C 482.578125 120.070312 481.238281 118.730469 479.585938 118.730469 C 477.929688 118.730469 476.589844 120.070312 476.589844 121.722656 C 476.589844 123.375 477.929688 124.714844 479.585938 124.714844 C 481.238281 124.714844 482.578125 123.375 482.578125 121.722656 M 481.578125 121.722656 C 481.578125 120.621094 480.6875 119.726562 479.585938 119.726562 C 478.480469 119.726562 477.589844 120.621094 477.589844 121.722656 C 477.589844 122.824219 478.480469 123.71875 479.585938 123.71875 C 480.6875 123.71875 481.578125 122.824219 481.578125 121.722656 "/>
<path fill-rule="evenodd" fill="rgb(0%, 100%, 0%)" fill-opacity="1" d="M 482.078125 105.757812 C 482.078125 104.378906 480.960938 103.265625 479.585938 103.265625 C 478.207031 103.265625 477.089844 104.378906 477.089844 105.757812 C 477.089844 107.136719 478.207031 108.253906 479.585938 108.253906 C 480.960938 108.253906 482.078125 107.136719 482.078125 105.757812 "/>
<path fill-rule="evenodd" fill="rgb(0%, 39.199829%, 0%)" fill-opacity="1" d="M 482.578125 105.757812 C 482.578125 104.105469 481.238281 102.765625 479.585938 102.765625 C 477.929688 102.765625 476.589844 104.105469 476.589844 105.757812 C 476.589844 107.410156 477.929688 108.75 479.585938 108.75 C 481.238281 108.75 482.578125 107.410156 482.578125 105.757812 M 481.578125 105.757812 C 481.578125 104.65625 480.6875 103.761719 479.585938 103.761719 C 478.480469 103.761719 477.589844 104.65625 477.589844 105.757812 C 477.589844 106.859375 478.480469 107.753906 479.585938 107.753906 C 480.6875 107.753906 481.578125 106.859375 481.578125 105.757812 "/>
<path fill-rule="evenodd" fill="rgb(0%, 100%, 0%)" fill-opacity="1" d="M 482.078125 89.792969 C 482.078125 88.417969 480.960938 87.300781 479.585938 87.300781 C 478.207031 87.300781 477.089844 88.417969 477.089844 89.792969 C 477.089844 91.171875 478.207031 92.289062 479.585938 92.289062 C 480.960938 92.289062 482.078125 91.171875 482.078125 89.792969 "/>
<path fill-rule="evenodd" fill="rgb(0%, 39.199829%, 0%)" fill-opacity="1" d="M 482.578125 89.792969 C 482.578125 88.140625 481.238281 86.800781 479.585938 86.800781 C 477.929688 86.800781 476.589844 88.140625 476.589844 89.792969 C 476.589844 91.449219 477.929688 92.789062 479.585938 92.789062 C 481.238281 92.789062 482.578125 91.449219 482.578125 89.792969 M 481.578125 89.792969 C 481.578125 88.691406 480.6875 87.800781 479.585938 87.800781 C 478.480469 87.800781 477.589844 88.691406 477.589844 89.792969 C 477.589844 90.898438 478.480469 91.789062 479.585938 91.789062 C 480.6875 91.789062 481.578125 90.898438 481.578125 89.792969 "/>
<path fill-rule="evenodd" fill="rgb(0%, 100%, 0%)" fill-opacity="1" d="M 482.078125 73.832031 C 482.078125 72.453125 480.960938 71.335938 479.585938 71.335938 C 478.207031 71.335938 477.089844 72.453125 477.089844 73.832031 C 477.089844 75.210938 478.207031 76.324219 479.585938 76.324219 C 480.960938 76.324219 482.078125 75.210938 482.078125 73.832031 "/>
<path fill-rule="evenodd" fill="rgb(0%, 39.199829%, 0%)" fill-opacity="1" d="M 482.578125 73.832031 C 482.578125 72.179688 481.238281 70.839844 479.585938 70.839844 C 477.929688 70.839844 476.589844 72.179688 476.589844 73.832031 C 476.589844 75.484375 477.929688 76.824219 479.585938 76.824219 C 481.238281 76.824219 482.578125 75.484375 482.578125 73.832031 M 481.578125 73.832031 C 481.578125 72.730469 480.6875 71.835938 479.585938 71.835938 C 478.480469 71.835938 477.589844 72.730469 477.589844 73.832031 C 477.589844 74.933594 478.480469 75.828125 479.585938 75.828125 C 480.6875 75.828125 481.578125 74.933594 481.578125 73.832031 "/>
<path fill-rule="evenodd" fill="rgb(0%, 100%, 0%)" fill-opacity="1" d="M 498.042969 105.757812 C 498.042969 104.378906 496.925781 103.265625 495.546875 103.265625 C 494.167969 103.265625 493.054688 104.378906 493.054688 105.757812 C 493.054688 107.136719 494.167969 108.253906 495.546875 108.253906 C 496.925781 108.253906 498.042969 107.136719 498.042969 105.757812 "/>
<path fill-rule="evenodd" fill="rgb(0%, 39.199829%, 0%)" fill-opacity="1" d="M 498.539062 105.757812 C 498.539062 104.105469 497.199219 102.765625 495.546875 102.765625 C 493.894531 102.765625 492.554688 104.105469 492.554688 105.757812 C 492.554688 107.410156 493.894531 108.75 495.546875 108.75 C 497.199219 108.75 498.539062 107.410156 498.539062 105.757812 M 497.542969 105.757812 C 497.542969 104.65625 496.648438 103.761719 495.546875 103.761719 C 494.445312 103.761719 493.550781 104.65625 493.550781 105.757812 C 493.550781 106.859375 494.445312 107.753906 495.546875 107.753906 C 496.648438 107.753906 497.542969 106.859375 497.542969 105.757812 "/>
<path fill-rule="evenodd" fill="rgb(0%, 100%, 0%)" fill-opacity="1" d="M 514.003906 89.792969 C 514.003906 88.417969 512.890625 87.300781 511.511719 87.300781 C 510.132812 87.300781 509.015625 88.417969 509.015625 89.792969 C 509.015625 91.171875 510.132812 92.289062 511.511719 92.289062 C 512.890625 92.289062 514.003906 91.171875 514.003906 89.792969 "/>
<path fill-rule="evenodd" fill="rgb(0%, 39.199829%, 0%)" fill-opacity="1" d="M 514.503906 89.792969 C 514.503906 88.140625 513.164062 86.800781 511.511719 86.800781 C 509.859375 86.800781 508.519531 88.140625 508.519531 89.792969 C 508.519531 91.449219 509.859375 92.789062 511.511719 92.789062 C 513.164062 92.789062 514.503906 91.449219 514.503906 89.792969 M 513.507812 89.792969 C 513.507812 88.691406 512.613281 87.800781 511.511719 87.800781 C 510.410156 87.800781 509.515625 88.691406 509.515625 89.792969 C 509.515625 90.898438 510.410156 91.789062 511.511719 91.789062 C 512.613281 91.789062 513.507812 90.898438 513.507812 89.792969 "/>
<path fill-rule="evenodd" fill="rgb(0%, 100%, 0%)" fill-opacity="1" d="M 529.96875 73.832031 C 529.96875 72.453125 528.851562 71.335938 527.476562 71.335938 C 526.097656 71.335938 524.980469 72.453125 524.980469 73.832031 C 524.980469 75.210938 526.097656 76.324219 527.476562 76.324219 C 528.851562 76.324219 529.96875 75.210938 529.96875 73.832031 "/>
<path fill-rule="evenodd" fill="rgb(0%, 39.199829%, 0%)" fill-opacity="1" d="M 530.46875 73.832031 C 530.46875 72.179688 529.128906 70.839844 527.476562 70.839844 C 525.820312 70.839844 524.480469 72.179688 524.480469 73.832031 C 524.480469 75.484375 525.820312 76.824219 527.476562 76.824219 C 529.128906 76.824219 530.46875 75.484375 530.46875 73.832031 M 529.46875 73.832031 C 529.46875 72.730469 528.578125 71.835938 527.476562 71.835938 C 526.371094 71.835938 525.480469 72.730469 525.480469 73.832031 C 525.480469 74.933594 526.371094 75.828125 527.476562 75.828125 C 528.578125 75.828125 529.46875 74.933594 529.46875 73.832031 "/>
<path fill-rule="evenodd" fill="rgb(0%, 100%, 0%)" fill-opacity="1" d="M 514.003906 121.722656 C 514.003906 120.34375 512.890625 119.226562 511.511719 119.226562 C 510.132812 119.226562 509.015625 120.34375 509.015625 121.722656 C 509.015625 123.101562 510.132812 124.214844 511.511719 124.214844 C 512.890625 124.214844 514.003906 123.101562 514.003906 121.722656 "/>
<path fill-rule="evenodd" fill="rgb(0%, 39.199829%, 0%)" fill-opacity="1" d="M 514.503906 121.722656 C 514.503906 120.070312 513.164062 118.730469 511.511719 118.730469 C 509.859375 118.730469 508.519531 120.070312 508.519531 121.722656 C 508.519531 123.375 509.859375 124.714844 511.511719 124.714844 C 513.164062 124.714844 514.503906 123.375 514.503906 121.722656 M 513.507812 121.722656 C 513.507812 120.621094 512.613281 119.726562 511.511719 119.726562 C 510.410156 119.726562 509.515625 120.621094 509.515625 121.722656 C 509.515625 122.824219 510.410156 123.71875 511.511719 123.71875 C 512.613281 123.71875 513.507812 122.824219 513.507812 121.722656 "/>
<path fill-rule="evenodd" fill="rgb(0%, 100%, 0%)" fill-opacity="1" d="M 529.96875 137.683594 C 529.96875 136.308594 528.851562 135.191406 527.476562 135.191406 C 526.097656 135.191406 524.980469 136.308594 524.980469 137.683594 C 524.980469 139.0625 526.097656 140.179688 527.476562 140.179688 C 528.851562 140.179688 529.96875 139.0625 529.96875 137.683594 "/>
<path fill-rule="evenodd" fill="rgb(0%, 39.199829%, 0%)" fill-opacity="1" d="M 530.46875 137.683594 C 530.46875 136.03125 529.128906 134.691406 527.476562 134.691406 C 525.820312 134.691406 524.480469 136.03125 524.480469 137.683594 C 524.480469 139.339844 525.820312 140.679688 527.476562 140.679688 C 529.128906 140.679688 530.46875 139.339844 530.46875 137.683594 M 529.46875 137.683594 C 529.46875 136.582031 528.578125 135.691406 527.476562 135.691406 C 526.371094 135.691406 525.480469 136.582031 525.480469 137.683594 C 525.480469 138.789062 526.371094 139.679688 527.476562 139.679688 C 528.578125 139.679688 529.46875 138.789062 529.46875 137.683594 "/>
<path fill-rule="evenodd" fill="rgb(0%, 100%, 0%)" fill-opacity="1" d="M 402.261719 89.792969 C 402.261719 88.417969 401.144531 87.300781 399.765625 87.300781 C 398.386719 87.300781 397.273438 88.417969 397.273438 89.792969 C 397.273438 91.171875 398.386719 92.289062 399.765625 92.289062 C 401.144531 92.289062 402.261719 91.171875 402.261719 89.792969 "/>
<path fill-rule="evenodd" fill="rgb(0%, 39.199829%, 0%)" fill-opacity="1" d="M 402.757812 89.792969 C 402.757812 88.140625 401.417969 86.800781 399.765625 86.800781 C 398.113281 86.800781 396.773438 88.140625 396.773438 89.792969 C 396.773438 91.449219 398.113281 92.789062 399.765625 92.789062 C 401.417969 92.789062 402.757812 91.449219 402.757812 89.792969 M 401.761719 89.792969 C 401.761719 88.691406 400.867188 87.800781 399.765625 87.800781 C 398.664062 87.800781 397.769531 88.691406 397.769531 89.792969 C 397.769531 90.898438 398.664062 91.789062 399.765625 91.789062 C 400.867188 91.789062 401.761719 90.898438 401.761719 89.792969 "/>
<path fill-rule="evenodd" fill="rgb(0%, 100%, 0%)" fill-opacity="1" d="M 418.222656 105.757812 C 418.222656 104.378906 417.109375 103.265625 415.730469 103.265625 C 414.351562 103.265625 413.234375 104.378906 413.234375 105.757812 C 413.234375 107.136719 414.351562 108.253906 415.730469 108.253906 C 417.109375 108.253906 418.222656 107.136719 418.222656 105.757812 "/>
<path fill-rule="evenodd" fill="rgb(0%, 39.199829%, 0%)" fill-opacity="1" d="M 418.722656 105.757812 C 418.722656 104.105469 417.382812 102.765625 415.730469 102.765625 C 414.078125 102.765625 412.738281 104.105469 412.738281 105.757812 C 412.738281 107.410156 414.078125 108.75 415.730469 108.75 C 417.382812 108.75 418.722656 107.410156 418.722656 105.757812 M 417.726562 105.757812 C 417.726562 104.65625 416.832031 103.761719 415.730469 103.761719 C 414.628906 103.761719 413.734375 104.65625 413.734375 105.757812 C 413.734375 106.859375 414.628906 107.753906 415.730469 107.753906 C 416.832031 107.753906 417.726562 106.859375 417.726562 105.757812 "/>
<path fill-rule="evenodd" fill="rgb(0%, 100%, 0%)" fill-opacity="1" d="M 434.1875 121.722656 C 434.1875 120.34375 433.070312 119.226562 431.695312 119.226562 C 430.316406 119.226562 429.199219 120.34375 429.199219 121.722656 C 429.199219 123.101562 430.316406 124.214844 431.695312 124.214844 C 433.070312 124.214844 434.1875 123.101562 434.1875 121.722656 "/>
<path fill-rule="evenodd" fill="rgb(0%, 39.199829%, 0%)" fill-opacity="1" d="M 434.6875 121.722656 C 434.6875 120.070312 433.347656 118.730469 431.695312 118.730469 C 430.039062 118.730469 428.699219 120.070312 428.699219 121.722656 C 428.699219 123.375 430.039062 124.714844 431.695312 124.714844 C 433.347656 124.714844 434.6875 123.375 434.6875 121.722656 M 433.6875 121.722656 C 433.6875 120.621094 432.796875 119.726562 431.695312 119.726562 C 430.589844 119.726562 429.699219 120.621094 429.699219 121.722656 C 429.699219 122.824219 430.589844 123.71875 431.695312 123.71875 C 432.796875 123.71875 433.6875 122.824219 433.6875 121.722656 "/>
<path fill-rule="evenodd" fill="rgb(0%, 100%, 0%)" fill-opacity="1" d="M 306.480469 105.757812 C 306.480469 104.378906 305.363281 103.265625 303.984375 103.265625 C 302.605469 103.265625 301.492188 104.378906 301.492188 105.757812 C 301.492188 107.136719 302.605469 108.253906 303.984375 108.253906 C 305.363281 108.253906 306.480469 107.136719 306.480469 105.757812 "/>
<path fill-rule="evenodd" fill="rgb(0%, 39.199829%, 0%)" fill-opacity="1" d="M 306.976562 105.757812 C 306.976562 104.105469 305.636719 102.765625 303.984375 102.765625 C 302.332031 102.765625 300.992188 104.105469 300.992188 105.757812 C 300.992188 107.410156 302.332031 108.75 303.984375 108.75 C 305.636719 108.75 306.976562 107.410156 306.976562 105.757812 M 305.980469 105.757812 C 305.980469 104.65625 305.085938 103.761719 303.984375 103.761719 C 302.882812 103.761719 301.988281 104.65625 301.988281 105.757812 C 301.988281 106.859375 302.882812 107.753906 303.984375 107.753906 C 305.085938 107.753906 305.980469 106.859375 305.980469 105.757812 "/>
<path fill-rule="evenodd" fill="rgb(0%, 100%, 0%)" fill-opacity="1" d="M 338.40625 105.757812 C 338.40625 104.378906 337.289062 103.265625 335.914062 103.265625 C 334.535156 103.265625 333.417969 104.378906 333.417969 105.757812 C 333.417969 107.136719 334.535156 108.253906 335.914062 108.253906 C 337.289062 108.253906 338.40625 107.136719 338.40625 105.757812 "/>
<path fill-rule="evenodd" fill="rgb(0%, 39.199829%, 0%)" fill-opacity="1" d="M 338.90625 105.757812 C 338.90625 104.105469 337.566406 102.765625 335.914062 102.765625 C 334.257812 102.765625 332.917969 104.105469 332.917969 105.757812 C 332.917969 107.410156 334.257812 108.75 335.914062 108.75 C 337.566406 108.75 338.90625 107.410156 338.90625 105.757812 M 337.90625 105.757812 C 337.90625 104.65625 337.015625 103.761719 335.914062 103.761719 C 334.808594 103.761719 333.917969 104.65625 333.917969 105.757812 C 333.917969 106.859375 334.808594 107.753906 335.914062 107.753906 C 337.015625 107.753906 337.90625 106.859375 337.90625 105.757812 "/>
<path fill-rule="evenodd" fill="rgb(0%, 100%, 0%)" fill-opacity="1" d="M 298.261719 122.046875 C 298.261719 120.667969 297.148438 119.550781 295.769531 119.550781 C 294.390625 119.550781 293.273438 120.667969 293.273438 122.046875 C 293.273438 123.425781 294.390625 124.539062 295.769531 124.539062 C 297.148438 124.539062 298.261719 123.425781 298.261719 122.046875 "/>
<path fill-rule="evenodd" fill="rgb(0%, 39.199829%, 0%)" fill-opacity="1" d="M 298.761719 122.046875 C 298.761719 120.394531 297.421875 119.054688 295.769531 119.054688 C 294.117188 119.054688 292.777344 120.394531 292.777344 122.046875 C 292.777344 123.699219 294.117188 125.039062 295.769531 125.039062 C 297.421875 125.039062 298.761719 123.699219 298.761719 122.046875 M 297.765625 122.046875 C 297.765625 120.945312 296.871094 120.050781 295.769531 120.050781 C 294.667969 120.050781 293.773438 120.945312 293.773438 122.046875 C 293.773438 123.148438 294.667969 124.042969 295.769531 124.042969 C 296.871094 124.042969 297.765625 123.148438 297.765625 122.046875 "/>
<path fill-rule="evenodd" fill="rgb(0%, 100%, 0%)" fill-opacity="1" d="M 315.222656 90.734375 C 315.222656 89.355469 314.105469 88.238281 312.730469 88.238281 C 311.351562 88.238281 310.234375 89.355469 310.234375 90.734375 C 310.234375 92.113281 311.351562 93.226562 312.730469 93.226562 C 314.105469 93.226562 315.222656 92.113281 315.222656 90.734375 "/>
<path fill-rule="evenodd" fill="rgb(0%, 39.199829%, 0%)" fill-opacity="1" d="M 315.722656 90.734375 C 315.722656 89.082031 314.382812 87.742188 312.730469 87.742188 C 311.074219 87.742188 309.734375 89.082031 309.734375 90.734375 C 309.734375 92.386719 311.074219 93.726562 312.730469 93.726562 C 314.382812 93.726562 315.722656 92.386719 315.722656 90.734375 M 314.726562 90.734375 C 314.726562 89.632812 313.832031 88.738281 312.730469 88.738281 C 311.625 88.738281 310.734375 89.632812 310.734375 90.734375 C 310.734375 91.835938 311.625 92.730469 312.730469 92.730469 C 313.832031 92.730469 314.726562 91.835938 314.726562 90.734375 "/>
<path fill-rule="evenodd" fill="rgb(0%, 100%, 0%)" fill-opacity="1" d="M 331.53125 90.082031 C 331.53125 88.703125 330.414062 87.585938 329.039062 87.585938 C 327.660156 87.585938 326.542969 88.703125 326.542969 90.082031 C 326.542969 91.460938 327.660156 92.574219 329.039062 92.574219 C 330.414062 92.574219 331.53125 91.460938 331.53125 90.082031 "/>
<path fill-rule="evenodd" fill="rgb(0%, 39.199829%, 0%)" fill-opacity="1" d="M 332.03125 90.082031 C 332.03125 88.429688 330.691406 87.089844 329.039062 87.089844 C 327.382812 87.089844 326.042969 88.429688 326.042969 90.082031 C 326.042969 91.734375 327.382812 93.074219 329.039062 93.074219 C 330.691406 93.074219 332.03125 91.734375 332.03125 90.082031 M 331.035156 90.082031 C 331.035156 88.980469 330.140625 88.085938 329.039062 88.085938 C 327.933594 88.085938 327.042969 88.980469 327.042969 90.082031 C 327.042969 91.183594 327.933594 92.078125 329.039062 92.078125 C 330.140625 92.078125 331.035156 91.183594 331.035156 90.082031 "/>
<path fill-rule="evenodd" fill="rgb(0%, 100%, 0%)" fill-opacity="1" d="M 346.863281 122.371094 C 346.863281 120.996094 345.746094 119.878906 344.367188 119.878906 C 342.988281 119.878906 341.875 120.996094 341.875 122.371094 C 341.875 123.75 342.988281 124.867188 344.367188 124.867188 C 345.746094 124.867188 346.863281 123.75 346.863281 122.371094 "/>
<path fill-rule="evenodd" fill="rgb(0%, 39.199829%, 0%)" fill-opacity="1" d="M 347.359375 122.371094 C 347.359375 120.71875 346.019531 119.378906 344.367188 119.378906 C 342.714844 119.378906 341.375 120.71875 341.375 122.371094 C 341.375 124.027344 342.714844 125.367188 344.367188 125.367188 C 346.019531 125.367188 347.359375 124.027344 347.359375 122.371094 M 346.363281 122.371094 C 346.363281 121.269531 345.46875 120.378906 344.367188 120.378906 C 343.265625 120.378906 342.371094 121.269531 342.371094 122.371094 C 342.371094 123.476562 343.265625 124.367188 344.367188 124.367188 C 345.46875 124.367188 346.363281 123.476562 346.363281 122.371094 "/>
<path fill-rule="evenodd" fill="rgb(0%, 100%, 0%)" fill-opacity="1" d="M 322.441406 105.757812 C 322.441406 104.378906 321.328125 103.265625 319.949219 103.265625 C 318.570312 103.265625 317.453125 104.378906 317.453125 105.757812 C 317.453125 107.136719 318.570312 108.253906 319.949219 108.253906 C 321.328125 108.253906 322.441406 107.136719 322.441406 105.757812 "/>
<path fill-rule="evenodd" fill="rgb(0%, 39.199829%, 0%)" fill-opacity="1" d="M 322.941406 105.757812 C 322.941406 104.105469 321.601562 102.765625 319.949219 102.765625 C 318.296875 102.765625 316.957031 104.105469 316.957031 105.757812 C 316.957031 107.410156 318.296875 108.75 319.949219 108.75 C 321.601562 108.75 322.941406 107.410156 322.941406 105.757812 M 321.945312 105.757812 C 321.945312 104.65625 321.050781 103.761719 319.949219 103.761719 C 318.847656 103.761719 317.953125 104.65625 317.953125 105.757812 C 317.953125 106.859375 318.847656 107.753906 319.949219 107.753906 C 321.050781 107.753906 321.945312 106.859375 321.945312 105.757812 "/>
<path fill-rule="evenodd" fill="rgb(0%, 100%, 0%)" fill-opacity="1" d="M 194.734375 185.574219 C 194.734375 184.199219 193.617188 183.082031 192.242188 183.082031 C 190.863281 183.082031 189.746094 184.199219 189.746094 185.574219 C 189.746094 186.953125 190.863281 188.070312 192.242188 188.070312 C 193.617188 188.070312 194.734375 186.953125 194.734375 185.574219 "/>
<path fill-rule="evenodd" fill="rgb(0%, 39.199829%, 0%)" fill-opacity="1" d="M 195.234375 185.574219 C 195.234375 183.921875 193.894531 182.582031 192.242188 182.582031 C 190.585938 182.582031 189.246094 183.921875 189.246094 185.574219 C 189.246094 187.230469 190.585938 188.570312 192.242188 188.570312 C 193.894531 188.570312 195.234375 187.230469 195.234375 185.574219 M 194.234375 185.574219 C 194.234375 184.472656 193.34375 183.582031 192.242188 183.582031 C 191.136719 183.582031 190.246094 184.472656 190.246094 185.574219 C 190.246094 186.679688 191.136719 187.570312 192.242188 187.570312 C 193.34375 187.570312 194.234375 186.679688 194.234375 185.574219 "/>
<path fill-rule="evenodd" fill="rgb(0%, 100%, 0%)" fill-opacity="1" d="M 226.660156 217.503906 C 226.660156 216.125 225.546875 215.007812 224.167969 215.007812 C 222.789062 215.007812 221.671875 216.125 221.671875 217.503906 C 221.671875 218.882812 222.789062 219.996094 224.167969 219.996094 C 225.546875 219.996094 226.660156 218.882812 226.660156 217.503906 "/>
<path fill-rule="evenodd" fill="rgb(0%, 39.199829%, 0%)" fill-opacity="1" d="M 227.160156 217.503906 C 227.160156 215.851562 225.820312 214.511719 224.167969 214.511719 C 222.515625 214.511719 221.175781 215.851562 221.175781 217.503906 C 221.175781 219.15625 222.515625 220.496094 224.167969 220.496094 C 225.820312 220.496094 227.160156 219.15625 227.160156 217.503906 M 226.164062 217.503906 C 226.164062 216.402344 225.269531 215.507812 224.167969 215.507812 C 223.066406 215.507812 222.171875 216.402344 222.171875 217.503906 C 222.171875 218.605469 223.066406 219.5 224.167969 219.5 C 225.269531 219.5 226.164062 218.605469 226.164062 217.503906 "/>
<path fill-rule="evenodd" fill="rgb(0%, 100%, 0%)" fill-opacity="1" d="M 258.589844 185.574219 C 258.589844 184.199219 257.472656 183.082031 256.09375 183.082031 C 254.714844 183.082031 253.601562 184.199219 253.601562 185.574219 C 253.601562 186.953125 254.714844 188.070312 256.09375 188.070312 C 257.472656 188.070312 258.589844 186.953125 258.589844 185.574219 "/>
<path fill-rule="evenodd" fill="rgb(0%, 39.199829%, 0%)" fill-opacity="1" d="M 259.085938 185.574219 C 259.085938 183.921875 257.746094 182.582031 256.09375 182.582031 C 254.441406 182.582031 253.101562 183.921875 253.101562 185.574219 C 253.101562 187.230469 254.441406 188.570312 256.09375 188.570312 C 257.746094 188.570312 259.085938 187.230469 259.085938 185.574219 M 258.089844 185.574219 C 258.089844 184.472656 257.195312 183.582031 256.09375 183.582031 C 254.992188 183.582031 254.097656 184.472656 254.097656 185.574219 C 254.097656 186.679688 254.992188 187.570312 256.09375 187.570312 C 257.195312 187.570312 258.089844 186.679688 258.089844 185.574219 "/>
<path fill-rule="evenodd" fill="rgb(0%, 100%, 0%)" fill-opacity="1" d="M 226.660156 233.464844 C 226.660156 232.089844 225.546875 230.972656 224.167969 230.972656 C 222.789062 230.972656 221.671875 232.089844 221.671875 233.464844 C 221.671875 234.84375 222.789062 235.960938 224.167969 235.960938 C 225.546875 235.960938 226.660156 234.84375 226.660156 233.464844 "/>
<path fill-rule="evenodd" fill="rgb(0%, 39.199829%, 0%)" fill-opacity="1" d="M 227.160156 233.464844 C 227.160156 231.8125 225.820312 230.472656 224.167969 230.472656 C 222.515625 230.472656 221.175781 231.8125 221.175781 233.464844 C 221.175781 235.121094 222.515625 236.460938 224.167969 236.460938 C 225.820312 236.460938 227.160156 235.121094 227.160156 233.464844 M 226.164062 233.464844 C 226.164062 232.363281 225.269531 231.472656 224.167969 231.472656 C 223.066406 231.472656 222.171875 232.363281 222.171875 233.464844 C 222.171875 234.570312 223.066406 235.460938 224.167969 235.460938 C 225.269531 235.460938 226.164062 234.570312 226.164062 233.464844 "/>
<path fill-rule="evenodd" fill="rgb(0%, 100%, 0%)" fill-opacity="1" d="M 226.660156 249.429688 C 226.660156 248.050781 225.546875 246.9375 224.167969 246.9375 C 222.789062 246.9375 221.671875 248.050781 221.671875 249.429688 C 221.671875 250.808594 222.789062 251.925781 224.167969 251.925781 C 225.546875 251.925781 226.660156 250.808594 226.660156 249.429688 "/>
<path fill-rule="evenodd" fill="rgb(0%, 39.199829%, 0%)" fill-opacity="1" d="M 227.160156 249.429688 C 227.160156 247.777344 225.820312 246.4375 224.167969 246.4375 C 222.515625 246.4375 221.175781 247.777344 221.175781 249.429688 C 221.175781 251.082031 222.515625 252.421875 224.167969 252.421875 C 225.820312 252.421875 227.160156 251.082031 227.160156 249.429688 M 226.164062 249.429688 C 226.164062 248.328125 225.269531 247.433594 224.167969 247.433594 C 223.066406 247.433594 222.171875 248.328125 222.171875 249.429688 C 222.171875 250.53125 223.066406 251.425781 224.167969 251.425781 C 225.269531 251.425781 226.164062 250.53125 226.164062 249.429688 "/>
<path fill-rule="evenodd" fill="rgb(0%, 100%, 0%)" fill-opacity="1" d="M 290.515625 217.503906 C 290.515625 216.125 289.398438 215.007812 288.023438 215.007812 C 286.644531 215.007812 285.527344 216.125 285.527344 217.503906 C 285.527344 218.882812 286.644531 219.996094 288.023438 219.996094 C 289.398438 219.996094 290.515625 218.882812 290.515625 217.503906 "/>
<path fill-rule="evenodd" fill="rgb(0%, 39.199829%, 0%)" fill-opacity="1" d="M 291.015625 217.503906 C 291.015625 215.851562 289.675781 214.511719 288.023438 214.511719 C 286.367188 214.511719 285.027344 215.851562 285.027344 217.503906 C 285.027344 219.15625 286.367188 220.496094 288.023438 220.496094 C 289.675781 220.496094 291.015625 219.15625 291.015625 217.503906 M 290.015625 217.503906 C 290.015625 216.402344 289.125 215.507812 288.023438 215.507812 C 286.917969 215.507812 286.027344 216.402344 286.027344 217.503906 C 286.027344 218.605469 286.917969 219.5 288.023438 219.5 C 289.125 219.5 290.015625 218.605469 290.015625 217.503906 "/>
<path fill-rule="evenodd" fill="rgb(0%, 100%, 0%)" fill-opacity="1" d="M 322.441406 185.574219 C 322.441406 184.199219 321.328125 183.082031 319.949219 183.082031 C 318.570312 183.082031 317.453125 184.199219 317.453125 185.574219 C 317.453125 186.953125 318.570312 188.070312 319.949219 188.070312 C 321.328125 188.070312 322.441406 186.953125 322.441406 185.574219 "/>
<path fill-rule="evenodd" fill="rgb(0%, 39.199829%, 0%)" fill-opacity="1" d="M 322.941406 185.574219 C 322.941406 183.921875 321.601562 182.582031 319.949219 182.582031 C 318.296875 182.582031 316.957031 183.921875 316.957031 185.574219 C 316.957031 187.230469 318.296875 188.570312 319.949219 188.570312 C 321.601562 188.570312 322.941406 187.230469 322.941406 185.574219 M 321.945312 185.574219 C 321.945312 184.472656 321.050781 183.582031 319.949219 183.582031 C 318.847656 183.582031 317.953125 184.472656 317.953125 185.574219 C 317.953125 186.679688 318.847656 187.570312 319.949219 187.570312 C 321.050781 187.570312 321.945312 186.679688 321.945312 185.574219 "/>
<path fill-rule="evenodd" fill="rgb(0%, 100%, 0%)" fill-opacity="1" d="M 322.441406 249.429688 C 322.441406 248.050781 321.328125 246.9375 319.949219 246.9375 C 318.570312 246.9375 317.453125 248.050781 317.453125 249.429688 C 317.453125 250.808594 318.570312 251.925781 319.949219 251.925781 C 321.328125 251.925781 322.441406 250.808594 322.441406 249.429688 "/>
<path fill-rule="evenodd" fill="rgb(0%, 39.199829%, 0%)" fill-opacity="1" d="M 322.941406 249.429688 C 322.941406 247.777344 321.601562 246.4375 319.949219 246.4375 C 318.296875 246.4375 316.957031 247.777344 316.957031 249.429688 C 316.957031 251.082031 318.296875 252.421875 319.949219 252.421875 C 321.601562 252.421875 322.941406 251.082031 322.941406 249.429688 M 321.945312 249.429688 C 321.945312 248.328125 321.050781 247.433594 319.949219 247.433594 C 318.847656 247.433594 317.953125 248.328125 317.953125 249.429688 C 317.953125 250.53125 318.847656 251.425781 319.949219 251.425781 C 321.050781 251.425781 321.945312 250.53125 321.945312 249.429688 "/>
<path fill-rule="evenodd" fill="rgb(0%, 100%, 0%)" fill-opacity="1" d="M 354.371094 217.503906 C 354.371094 216.125 353.253906 215.007812 351.875 215.007812 C 350.496094 215.007812 349.382812 216.125 349.382812 217.503906 C 349.382812 218.882812 350.496094 219.996094 351.875 219.996094 C 353.253906 219.996094 354.371094 218.882812 354.371094 217.503906 "/>
<path fill-rule="evenodd" fill="rgb(0%, 39.199829%, 0%)" fill-opacity="1" d="M 354.867188 217.503906 C 354.867188 215.851562 353.527344 214.511719 351.875 214.511719 C 350.222656 214.511719 348.882812 215.851562 348.882812 217.503906 C 348.882812 219.15625 350.222656 220.496094 351.875 220.496094 C 353.527344 220.496094 354.867188 219.15625 354.867188 217.503906 M 353.871094 217.503906 C 353.871094 216.402344 352.976562 215.507812 351.875 215.507812 C 350.773438 215.507812 349.878906 216.402344 349.878906 217.503906 C 349.878906 218.605469 350.773438 219.5 351.875 219.5 C 352.976562 219.5 353.871094 218.605469 353.871094 217.503906 "/>
<path fill-rule="evenodd" fill="rgb(0%, 100%, 0%)" fill-opacity="1" d="M 386.296875 185.574219 C 386.296875 184.199219 385.179688 183.082031 383.804688 183.082031 C 382.425781 183.082031 381.308594 184.199219 381.308594 185.574219 C 381.308594 186.953125 382.425781 188.070312 383.804688 188.070312 C 385.179688 188.070312 386.296875 186.953125 386.296875 185.574219 "/>
<path fill-rule="evenodd" fill="rgb(0%, 39.199829%, 0%)" fill-opacity="1" d="M 386.796875 185.574219 C 386.796875 183.921875 385.457031 182.582031 383.804688 182.582031 C 382.148438 182.582031 380.808594 183.921875 380.808594 185.574219 C 380.808594 187.230469 382.148438 188.570312 383.804688 188.570312 C 385.457031 188.570312 386.796875 187.230469 386.796875 185.574219 M 385.796875 185.574219 C 385.796875 184.472656 384.90625 183.582031 383.804688 183.582031 C 382.699219 183.582031 381.808594 184.472656 381.808594 185.574219 C 381.808594 186.679688 382.699219 187.570312 383.804688 187.570312 C 384.90625 187.570312 385.796875 186.679688 385.796875 185.574219 "/>
<path fill-rule="evenodd" fill="rgb(0%, 100%, 0%)" fill-opacity="1" d="M 386.296875 201.539062 C 386.296875 200.160156 385.179688 199.046875 383.804688 199.046875 C 382.425781 199.046875 381.308594 200.160156 381.308594 201.539062 C 381.308594 202.917969 382.425781 204.035156 383.804688 204.035156 C 385.179688 204.035156 386.296875 202.917969 386.296875 201.539062 "/>
<path fill-rule="evenodd" fill="rgb(0%, 39.199829%, 0%)" fill-opacity="1" d="M 386.796875 201.539062 C 386.796875 199.886719 385.457031 198.546875 383.804688 198.546875 C 382.148438 198.546875 380.808594 199.886719 380.808594 201.539062 C 380.808594 203.191406 382.148438 204.53125 383.804688 204.53125 C 385.457031 204.53125 386.796875 203.191406 386.796875 201.539062 M 385.796875 201.539062 C 385.796875 200.4375 384.90625 199.542969 383.804688 199.542969 C 382.699219 199.542969 381.808594 200.4375 381.808594 201.539062 C 381.808594 202.640625 382.699219 203.535156 383.804688 203.535156 C 384.90625 203.535156 385.796875 202.640625 385.796875 201.539062 "/>
<path fill-rule="evenodd" fill="rgb(0%, 100%, 0%)" fill-opacity="1" d="M 418.222656 249.429688 C 418.222656 248.050781 417.109375 246.9375 415.730469 246.9375 C 414.351562 246.9375 413.234375 248.050781 413.234375 249.429688 C 413.234375 250.808594 414.351562 251.925781 415.730469 251.925781 C 417.109375 251.925781 418.222656 250.808594 418.222656 249.429688 "/>
<path fill-rule="evenodd" fill="rgb(0%, 39.199829%, 0%)" fill-opacity="1" d="M 418.722656 249.429688 C 418.722656 247.777344 417.382812 246.4375 415.730469 246.4375 C 414.078125 246.4375 412.738281 247.777344 412.738281 249.429688 C 412.738281 251.082031 414.078125 252.421875 415.730469 252.421875 C 417.382812 252.421875 418.722656 251.082031 418.722656 249.429688 M 417.726562 249.429688 C 417.726562 248.328125 416.832031 247.433594 415.730469 247.433594 C 414.628906 247.433594 413.734375 248.328125 413.734375 249.429688 C 413.734375 250.53125 414.628906 251.425781 415.730469 251.425781 C 416.832031 251.425781 417.726562 250.53125 417.726562 249.429688 "/>
<path fill-rule="evenodd" fill="rgb(0%, 100%, 0%)" fill-opacity="1" d="M 402.261719 233.464844 C 402.261719 232.089844 401.144531 230.972656 399.765625 230.972656 C 398.386719 230.972656 397.273438 232.089844 397.273438 233.464844 C 397.273438 234.84375 398.386719 235.960938 399.765625 235.960938 C 401.144531 235.960938 402.261719 234.84375 402.261719 233.464844 "/>
<path fill-rule="evenodd" fill="rgb(0%, 39.199829%, 0%)" fill-opacity="1" d="M 402.757812 233.464844 C 402.757812 231.8125 401.417969 230.472656 399.765625 230.472656 C 398.113281 230.472656 396.773438 231.8125 396.773438 233.464844 C 396.773438 235.121094 398.113281 236.460938 399.765625 236.460938 C 401.417969 236.460938 402.757812 235.121094 402.757812 233.464844 M 401.761719 233.464844 C 401.761719 232.363281 400.867188 231.472656 399.765625 231.472656 C 398.664062 231.472656 397.769531 232.363281 397.769531 233.464844 C 397.769531 234.570312 398.664062 235.460938 399.765625 235.460938 C 400.867188 235.460938 401.761719 234.570312 401.761719 233.464844 "/>
<path fill-rule="evenodd" fill="rgb(0%, 100%, 0%)" fill-opacity="1" d="M 386.296875 217.503906 C 386.296875 216.125 385.179688 215.007812 383.804688 215.007812 C 382.425781 215.007812 381.308594 216.125 381.308594 217.503906 C 381.308594 218.882812 382.425781 219.996094 383.804688 219.996094 C 385.179688 219.996094 386.296875 218.882812 386.296875 217.503906 "/>
<path fill-rule="evenodd" fill="rgb(0%, 39.199829%, 0%)" fill-opacity="1" d="M 386.796875 217.503906 C 386.796875 215.851562 385.457031 214.511719 383.804688 214.511719 C 382.148438 214.511719 380.808594 215.851562 380.808594 217.503906 C 380.808594 219.15625 382.148438 220.496094 383.804688 220.496094 C 385.457031 220.496094 386.796875 219.15625 386.796875 217.503906 M 385.796875 217.503906 C 385.796875 216.402344 384.90625 215.507812 383.804688 215.507812 C 382.699219 215.507812 381.808594 216.402344 381.808594 217.503906 C 381.808594 218.605469 382.699219 219.5 383.804688 219.5 C 384.90625 219.5 385.796875 218.605469 385.796875 217.503906 "/>
<path fill-rule="evenodd" fill="rgb(0%, 100%, 0%)" fill-opacity="1" d="M 434.1875 233.464844 C 434.1875 232.089844 433.070312 230.972656 431.695312 230.972656 C 430.316406 230.972656 429.199219 232.089844 429.199219 233.464844 C 429.199219 234.84375 430.316406 235.960938 431.695312 235.960938 C 433.070312 235.960938 434.1875 234.84375 434.1875 233.464844 "/>
<path fill-rule="evenodd" fill="rgb(0%, 39.199829%, 0%)" fill-opacity="1" d="M 434.6875 233.464844 C 434.6875 231.8125 433.347656 230.472656 431.695312 230.472656 C 430.039062 230.472656 428.699219 231.8125 428.699219 233.464844 C 428.699219 235.121094 430.039062 236.460938 431.695312 236.460938 C 433.347656 236.460938 434.6875 235.121094 434.6875 233.464844 M 433.6875 233.464844 C 433.6875 232.363281 432.796875 231.472656 431.695312 231.472656 C 430.589844 231.472656 429.699219 232.363281 429.699219 233.464844 C 429.699219 234.570312 430.589844 235.460938 431.695312 235.460938 C 432.796875 235.460938 433.6875 234.570312 433.6875 233.464844 "/>
<path fill-rule="evenodd" fill="rgb(0%, 100%, 0%)" fill-opacity="1" d="M 450.152344 217.503906 C 450.152344 216.125 449.035156 215.007812 447.65625 215.007812 C 446.277344 215.007812 445.164062 216.125 445.164062 217.503906 C 445.164062 218.882812 446.277344 219.996094 447.65625 219.996094 C 449.035156 219.996094 450.152344 218.882812 450.152344 217.503906 "/>
<path fill-rule="evenodd" fill="rgb(0%, 39.199829%, 0%)" fill-opacity="1" d="M 450.648438 217.503906 C 450.648438 215.851562 449.308594 214.511719 447.65625 214.511719 C 446.003906 214.511719 444.664062 215.851562 444.664062 217.503906 C 444.664062 219.15625 446.003906 220.496094 447.65625 220.496094 C 449.308594 220.496094 450.648438 219.15625 450.648438 217.503906 M 449.652344 217.503906 C 449.652344 216.402344 448.757812 215.507812 447.65625 215.507812 C 446.554688 215.507812 445.660156 216.402344 445.660156 217.503906 C 445.660156 218.605469 446.554688 219.5 447.65625 219.5 C 448.757812 219.5 449.652344 218.605469 449.652344 217.503906 "/>
<path fill-rule="evenodd" fill="rgb(0%, 100%, 0%)" fill-opacity="1" d="M 450.152344 201.539062 C 450.152344 200.160156 449.035156 199.046875 447.65625 199.046875 C 446.277344 199.046875 445.164062 200.160156 445.164062 201.539062 C 445.164062 202.917969 446.277344 204.035156 447.65625 204.035156 C 449.035156 204.035156 450.152344 202.917969 450.152344 201.539062 "/>
<path fill-rule="evenodd" fill="rgb(0%, 39.199829%, 0%)" fill-opacity="1" d="M 450.648438 201.539062 C 450.648438 199.886719 449.308594 198.546875 447.65625 198.546875 C 446.003906 198.546875 444.664062 199.886719 444.664062 201.539062 C 444.664062 203.191406 446.003906 204.53125 447.65625 204.53125 C 449.308594 204.53125 450.648438 203.191406 450.648438 201.539062 M 449.652344 201.539062 C 449.652344 200.4375 448.757812 199.542969 447.65625 199.542969 C 446.554688 199.542969 445.660156 200.4375 445.660156 201.539062 C 445.660156 202.640625 446.554688 203.535156 447.65625 203.535156 C 448.757812 203.535156 449.652344 202.640625 449.652344 201.539062 "/>
<path fill-rule="evenodd" fill="rgb(0%, 100%, 0%)" fill-opacity="1" d="M 450.152344 185.574219 C 450.152344 184.199219 449.035156 183.082031 447.65625 183.082031 C 446.277344 183.082031 445.164062 184.199219 445.164062 185.574219 C 445.164062 186.953125 446.277344 188.070312 447.65625 188.070312 C 449.035156 188.070312 450.152344 186.953125 450.152344 185.574219 "/>
<path fill-rule="evenodd" fill="rgb(0%, 39.199829%, 0%)" fill-opacity="1" d="M 450.648438 185.574219 C 450.648438 183.921875 449.308594 182.582031 447.65625 182.582031 C 446.003906 182.582031 444.664062 183.921875 444.664062 185.574219 C 444.664062 187.230469 446.003906 188.570312 447.65625 188.570312 C 449.308594 188.570312 450.648438 187.230469 450.648438 185.574219 M 449.652344 185.574219 C 449.652344 184.472656 448.757812 183.582031 447.65625 183.582031 C 446.554688 183.582031 445.660156 184.472656 445.660156 185.574219 C 445.660156 186.679688 446.554688 187.570312 447.65625 187.570312 C 448.757812 187.570312 449.652344 186.679688 449.652344 185.574219 "/>
<path fill-rule="evenodd" fill="rgb(0%, 100%, 0%)" fill-opacity="1" d="M 306.480469 201.539062 C 306.480469 200.160156 305.363281 199.046875 303.984375 199.046875 C 302.605469 199.046875 301.492188 200.160156 301.492188 201.539062 C 301.492188 202.917969 302.605469 204.035156 303.984375 204.035156 C 305.363281 204.035156 306.480469 202.917969 306.480469 201.539062 "/>
<path fill-rule="evenodd" fill="rgb(0%, 39.199829%, 0%)" fill-opacity="1" d="M 306.976562 201.539062 C 306.976562 199.886719 305.636719 198.546875 303.984375 198.546875 C 302.332031 198.546875 300.992188 199.886719 300.992188 201.539062 C 300.992188 203.191406 302.332031 204.53125 303.984375 204.53125 C 305.636719 204.53125 306.976562 203.191406 306.976562 201.539062 M 305.980469 201.539062 C 305.980469 200.4375 305.085938 199.542969 303.984375 199.542969 C 302.882812 199.542969 301.988281 200.4375 301.988281 201.539062 C 301.988281 202.640625 302.882812 203.535156 303.984375 203.535156 C 305.085938 203.535156 305.980469 202.640625 305.980469 201.539062 "/>
<path fill-rule="evenodd" fill="rgb(0%, 100%, 0%)" fill-opacity="1" d="M 338.40625 201.539062 C 338.40625 200.160156 337.289062 199.046875 335.914062 199.046875 C 334.535156 199.046875 333.417969 200.160156 333.417969 201.539062 C 333.417969 202.917969 334.535156 204.035156 335.914062 204.035156 C 337.289062 204.035156 338.40625 202.917969 338.40625 201.539062 "/>
<path fill-rule="evenodd" fill="rgb(0%, 39.199829%, 0%)" fill-opacity="1" d="M 338.90625 201.539062 C 338.90625 199.886719 337.566406 198.546875 335.914062 198.546875 C 334.257812 198.546875 332.917969 199.886719 332.917969 201.539062 C 332.917969 203.191406 334.257812 204.53125 335.914062 204.53125 C 337.566406 204.53125 338.90625 203.191406 338.90625 201.539062 M 337.90625 201.539062 C 337.90625 200.4375 337.015625 199.542969 335.914062 199.542969 C 334.808594 199.542969 333.917969 200.4375 333.917969 201.539062 C 333.917969 202.640625 334.808594 203.535156 335.914062 203.535156 C 337.015625 203.535156 337.90625 202.640625 337.90625 201.539062 "/>
<path fill-rule="evenodd" fill="rgb(0%, 100%, 0%)" fill-opacity="1" d="M 338.40625 233.464844 C 338.40625 232.089844 337.289062 230.972656 335.914062 230.972656 C 334.535156 230.972656 333.417969 232.089844 333.417969 233.464844 C 333.417969 234.84375 334.535156 235.960938 335.914062 235.960938 C 337.289062 235.960938 338.40625 234.84375 338.40625 233.464844 "/>
<path fill-rule="evenodd" fill="rgb(0%, 39.199829%, 0%)" fill-opacity="1" d="M 338.90625 233.464844 C 338.90625 231.8125 337.566406 230.472656 335.914062 230.472656 C 334.257812 230.472656 332.917969 231.8125 332.917969 233.464844 C 332.917969 235.121094 334.257812 236.460938 335.914062 236.460938 C 337.566406 236.460938 338.90625 235.121094 338.90625 233.464844 M 337.90625 233.464844 C 337.90625 232.363281 337.015625 231.472656 335.914062 231.472656 C 334.808594 231.472656 333.917969 232.363281 333.917969 233.464844 C 333.917969 234.570312 334.808594 235.460938 335.914062 235.460938 C 337.015625 235.460938 337.90625 234.570312 337.90625 233.464844 "/>
<path fill-rule="evenodd" fill="rgb(0%, 100%, 0%)" fill-opacity="1" d="M 306.480469 233.464844 C 306.480469 232.089844 305.363281 230.972656 303.984375 230.972656 C 302.605469 230.972656 301.492188 232.089844 301.492188 233.464844 C 301.492188 234.84375 302.605469 235.960938 303.984375 235.960938 C 305.363281 235.960938 306.480469 234.84375 306.480469 233.464844 "/>
<path fill-rule="evenodd" fill="rgb(0%, 39.199829%, 0%)" fill-opacity="1" d="M 306.976562 233.464844 C 306.976562 231.8125 305.636719 230.472656 303.984375 230.472656 C 302.332031 230.472656 300.992188 231.8125 300.992188 233.464844 C 300.992188 235.121094 302.332031 236.460938 303.984375 236.460938 C 305.636719 236.460938 306.976562 235.121094 306.976562 233.464844 M 305.980469 233.464844 C 305.980469 232.363281 305.085938 231.472656 303.984375 231.472656 C 302.882812 231.472656 301.988281 232.363281 301.988281 233.464844 C 301.988281 234.570312 302.882812 235.460938 303.984375 235.460938 C 305.085938 235.460938 305.980469 234.570312 305.980469 233.464844 "/>
<path fill-rule="evenodd" fill="rgb(0%, 100%, 0%)" fill-opacity="1" d="M 242.625 201.539062 C 242.625 200.160156 241.507812 199.046875 240.132812 199.046875 C 238.753906 199.046875 237.636719 200.160156 237.636719 201.539062 C 237.636719 202.917969 238.753906 204.035156 240.132812 204.035156 C 241.507812 204.035156 242.625 202.917969 242.625 201.539062 "/>
<path fill-rule="evenodd" fill="rgb(0%, 39.199829%, 0%)" fill-opacity="1" d="M 243.125 201.539062 C 243.125 199.886719 241.785156 198.546875 240.132812 198.546875 C 238.476562 198.546875 237.136719 199.886719 237.136719 201.539062 C 237.136719 203.191406 238.476562 204.53125 240.132812 204.53125 C 241.785156 204.53125 243.125 203.191406 243.125 201.539062 M 242.125 201.539062 C 242.125 200.4375 241.234375 199.542969 240.132812 199.542969 C 239.027344 199.542969 238.136719 200.4375 238.136719 201.539062 C 238.136719 202.640625 239.027344 203.535156 240.132812 203.535156 C 241.234375 203.535156 242.125 202.640625 242.125 201.539062 "/>
<path fill-rule="evenodd" fill="rgb(0%, 100%, 0%)" fill-opacity="1" d="M 210.699219 201.539062 C 210.699219 200.160156 209.582031 199.046875 208.203125 199.046875 C 206.824219 199.046875 205.710938 200.160156 205.710938 201.539062 C 205.710938 202.917969 206.824219 204.035156 208.203125 204.035156 C 209.582031 204.035156 210.699219 202.917969 210.699219 201.539062 "/>
<path fill-rule="evenodd" fill="rgb(0%, 39.199829%, 0%)" fill-opacity="1" d="M 211.195312 201.539062 C 211.195312 199.886719 209.855469 198.546875 208.203125 198.546875 C 206.550781 198.546875 205.210938 199.886719 205.210938 201.539062 C 205.210938 203.191406 206.550781 204.53125 208.203125 204.53125 C 209.855469 204.53125 211.195312 203.191406 211.195312 201.539062 M 210.199219 201.539062 C 210.199219 200.4375 209.304688 199.542969 208.203125 199.542969 C 207.101562 199.542969 206.207031 200.4375 206.207031 201.539062 C 206.207031 202.640625 207.101562 203.535156 208.203125 203.535156 C 209.304688 203.535156 210.199219 202.640625 210.199219 201.539062 "/>
<path fill-rule="evenodd" fill="rgb(0%, 100%, 0%)" fill-opacity="1" d="M 242.625 105.757812 C 242.625 104.378906 241.507812 103.265625 240.132812 103.265625 C 238.753906 103.265625 237.636719 104.378906 237.636719 105.757812 C 237.636719 107.136719 238.753906 108.253906 240.132812 108.253906 C 241.507812 108.253906 242.625 107.136719 242.625 105.757812 "/>
<path fill-rule="evenodd" fill="rgb(0%, 39.199829%, 0%)" fill-opacity="1" d="M 243.125 105.757812 C 243.125 104.105469 241.785156 102.765625 240.132812 102.765625 C 238.476562 102.765625 237.136719 104.105469 237.136719 105.757812 C 237.136719 107.410156 238.476562 108.75 240.132812 108.75 C 241.785156 108.75 243.125 107.410156 243.125 105.757812 M 242.125 105.757812 C 242.125 104.65625 241.234375 103.761719 240.132812 103.761719 C 239.027344 103.761719 238.136719 104.65625 238.136719 105.757812 C 238.136719 106.859375 239.027344 107.753906 240.132812 107.753906 C 241.234375 107.753906 242.125 106.859375 242.125 105.757812 "/>
<path fill-rule="evenodd" fill="rgb(0%, 100%, 0%)" fill-opacity="1" d="M 353.371094 257.410156 C 353.371094 256.585938 352.703125 255.914062 351.875 255.914062 C 351.050781 255.914062 350.378906 256.585938 350.378906 257.410156 C 350.378906 258.238281 351.050781 258.910156 351.875 258.910156 C 352.703125 258.910156 353.371094 258.238281 353.371094 257.410156 "/>
<path fill-rule="evenodd" fill="rgb(0%, 39.199829%, 0%)" fill-opacity="1" d="M 353.671875 257.410156 C 353.671875 256.421875 352.867188 255.617188 351.875 255.617188 C 350.882812 255.617188 350.078125 256.421875 350.078125 257.410156 C 350.078125 258.402344 350.882812 259.207031 351.875 259.207031 C 352.867188 259.207031 353.671875 258.402344 353.671875 257.410156 M 353.074219 257.410156 C 353.074219 256.75 352.539062 256.214844 351.875 256.214844 C 351.214844 256.214844 350.679688 256.75 350.679688 257.410156 C 350.679688 258.074219 351.214844 258.609375 351.875 258.609375 C 352.539062 258.609375 353.074219 258.074219 353.074219 257.410156 "/>
<path fill-rule="evenodd" fill="rgb(0%, 100%, 0%)" fill-opacity="1" d="M 361.355469 233.464844 C 361.355469 232.640625 360.683594 231.96875 359.859375 231.96875 C 359.03125 231.96875 358.359375 232.640625 358.359375 233.464844 C 358.359375 234.292969 359.03125 234.964844 359.859375 234.964844 C 360.683594 234.964844 361.355469 234.292969 361.355469 233.464844 "/>
<path fill-rule="evenodd" fill="rgb(0%, 39.199829%, 0%)" fill-opacity="1" d="M 361.652344 233.464844 C 361.652344 232.476562 360.847656 231.671875 359.859375 231.671875 C 358.867188 231.671875 358.0625 232.476562 358.0625 233.464844 C 358.0625 234.457031 358.867188 235.261719 359.859375 235.261719 C 360.847656 235.261719 361.652344 234.457031 361.652344 233.464844 M 361.054688 233.464844 C 361.054688 232.804688 360.519531 232.269531 359.859375 232.269531 C 359.195312 232.269531 358.660156 232.804688 358.660156 233.464844 C 358.660156 234.128906 359.195312 234.664062 359.859375 234.664062 C 360.519531 234.664062 361.054688 234.128906 361.054688 233.464844 "/>
</svg>
