<?xml version="1.0" encoding="UTF-8"?>
<svg xmlns="http://www.w3.org/2000/svg" xmlns:xlink="http://www.w3.org/1999/xlink" width="136.7" height="133.3" viewBox="0 0 136.7 133.3">
<defs>
<clipPath id="clip-0">
<path clip-rule="nonzero" d="M 80 126 L 86 126 L 86 132.605469 L 80 132.605469 Z M 80 126 "/>
</clipPath>
<clipPath id="clip-1">
<path clip-rule="nonzero" d="M 0.207031 88 L 7 88 L 7 95 L 0.207031 95 Z M 0.207031 88 "/>
</clipPath>
</defs>
<path fill="none" stroke-width="0.4" stroke-linecap="butt" stroke-linejoin="round" stroke="rgb(0%, 0%, 0%)" stroke-opacity="1" stroke-miterlimit="10" d="M 8.000068 135.999423 L 88.000009 135.999423 " transform="matrix(0.994776, 0, 0, -0.994776, -1.930933, 138.671791)"/>
<path fill="none" stroke-width="0.4" stroke-linecap="butt" stroke-linejoin="round" stroke="rgb(0%, 0%, 0%)" stroke-opacity="1" stroke-miterlimit="10" d="M 8.000068 135.999423 L 51.4497 131.299088 " transform="matrix(0.994776, 0, 0, -0.994776, -1.930933, 138.671791)"/>
<path fill="none" stroke-width="0.4" stroke-linecap="butt" stroke-linejoin="round" stroke="rgb(0%, 0%, 0%)" stroke-opacity="1" stroke-miterlimit="10" d="M 8.000068 135.999423 L 5.549768 47.600136 " transform="matrix(0.994776, 0, 0, -0.994776, -1.930933, 138.671791)"/>
<path fill="none" stroke-width="0.4" stroke-linecap="butt" stroke-linejoin="round" stroke="rgb(0%, 0%, 0%)" stroke-opacity="1" stroke-miterlimit="10" d="M 8.000068 135.999423 L 15.998884 79.999857 " transform="matrix(0.994776, 0, 0, -0.994776, -1.930933, 138.671791)"/>
<path fill="none" stroke-width="0.4" stroke-linecap="butt" stroke-linejoin="round" stroke="rgb(0%, 0%, 0%)" stroke-opacity="1" stroke-miterlimit="10" d="M 8.000068 135.999423 L 24.001627 111.999048 " transform="matrix(0.994776, 0, 0, -0.994776, -1.930933, 138.671791)"/>
<path fill="none" stroke-width="0.4" stroke-linecap="butt" stroke-linejoin="round" stroke="rgb(0%, 0%, 0%)" stroke-opacity="1" stroke-miterlimit="10" d="M 8.000068 135.999423 L 73.349257 103.399437 " transform="matrix(0.994776, 0, 0, -0.994776, -1.930933, 138.671791)"/>
<path fill="none" stroke-width="0.4" stroke-linecap="butt" stroke-linejoin="round" stroke="rgb(0%, 0%, 0%)" stroke-opacity="1" stroke-miterlimit="10" d="M 32.000443 128.000607 L 73.349257 103.399437 " transform="matrix(0.994776, 0, 0, -0.994776, -1.930933, 138.671791)"/>
<path fill="none" stroke-width="0.4" stroke-linecap="butt" stroke-linejoin="round" stroke="rgb(0%, 0%, 0%)" stroke-opacity="1" stroke-miterlimit="10" d="M 32.000443 128.000607 L 51.4497 131.299088 " transform="matrix(0.994776, 0, 0, -0.994776, -1.930933, 138.671791)"/>
<path fill="none" stroke-width="0.4" stroke-linecap="butt" stroke-linejoin="round" stroke="rgb(0%, 0%, 0%)" stroke-opacity="1" stroke-miterlimit="10" d="M 32.000443 128.000607 L 8.000068 135.999423 " transform="matrix(0.994776, 0, 0, -0.994776, -1.930933, 138.671791)"/>
<path fill="none" stroke-width="0.4" stroke-linecap="butt" stroke-linejoin="round" stroke="rgb(0%, 0%, 0%)" stroke-opacity="1" stroke-miterlimit="10" d="M 51.4497 131.299088 L 88.000009 135.999423 " transform="matrix(0.994776, 0, 0, -0.994776, -1.930933, 138.671791)"/>
<path fill="none" stroke-width="0.4" stroke-linecap="butt" stroke-linejoin="round" stroke="rgb(0%, 0%, 0%)" stroke-opacity="1" stroke-miterlimit="10" d="M 51.4497 131.299088 L 73.349257 103.399437 " transform="matrix(0.994776, 0, 0, -0.994776, -1.930933, 138.671791)"/>
<path fill="none" stroke-width="0.4" stroke-linecap="butt" stroke-linejoin="round" stroke="rgb(0%, 0%, 0%)" stroke-opacity="1" stroke-miterlimit="10" d="M 71.99845 120.001791 L 51.4497 131.299088 " transform="matrix(0.994776, 0, 0, -0.994776, -1.930933, 138.671791)"/>
<path fill="none" stroke-width="0.4" stroke-linecap="butt" stroke-linejoin="round" stroke="rgb(0%, 0%, 0%)" stroke-opacity="1" stroke-miterlimit="10" d="M 71.99845 120.001791 L 73.349257 103.399437 " transform="matrix(0.994776, 0, 0, -0.994776, -1.930933, 138.671791)"/>
<path fill="none" stroke-width="0.4" stroke-linecap="butt" stroke-linejoin="round" stroke="rgb(0%, 0%, 0%)" stroke-opacity="1" stroke-miterlimit="10" d="M 88.000009 135.999423 L 134.850218 126.799018 " transform="matrix(0.994776, 0, 0, -0.994776, -1.930933, 138.671791)"/>
<path fill="none" stroke-width="0.4" stroke-linecap="butt" stroke-linejoin="round" stroke="rgb(0%, 0%, 0%)" stroke-opacity="1" stroke-miterlimit="10" d="M 88.000009 135.999423 L 71.99845 120.001791 " transform="matrix(0.994776, 0, 0, -0.994776, -1.930933, 138.671791)"/>
<path fill="none" stroke-width="0.4" stroke-linecap="butt" stroke-linejoin="round" stroke="rgb(0%, 0%, 0%)" stroke-opacity="1" stroke-miterlimit="10" d="M 88.000009 135.999423 L 73.349257 103.399437 " transform="matrix(0.994776, 0, 0, -0.994776, -1.930933, 138.671791)"/>
<path fill="none" stroke-width="0.4" stroke-linecap="butt" stroke-linejoin="round" stroke="rgb(0%, 0%, 0%)" stroke-opacity="1" stroke-miterlimit="10" d="M 104.001568 120.001791 L 73.349257 103.399437 " transform="matrix(0.994776, 0, 0, -0.994776, -1.930933, 138.671791)"/>
<path fill="none" stroke-width="0.4" stroke-linecap="butt" stroke-linejoin="round" stroke="rgb(0%, 0%, 0%)" stroke-opacity="1" stroke-miterlimit="10" d="M 104.001568 120.001791 L 88.000009 135.999423 " transform="matrix(0.994776, 0, 0, -0.994776, -1.930933, 138.671791)"/>
<path fill="none" stroke-width="0.4" stroke-linecap="butt" stroke-linejoin="round" stroke="rgb(0%, 0%, 0%)" stroke-opacity="1" stroke-miterlimit="10" d="M 134.850218 126.799018 L 104.001568 120.001791 " transform="matrix(0.994776, 0, 0, -0.994776, -1.930933, 138.671791)"/>
<path fill="none" stroke-width="0.4" stroke-linecap="butt" stroke-linejoin="round" stroke="rgb(0%, 0%, 0%)" stroke-opacity="1" stroke-miterlimit="10" d="M 134.850218 126.799018 L 73.349257 103.399437 " transform="matrix(0.994776, 0, 0, -0.994776, -1.930933, 138.671791)"/>
<path fill="none" stroke-width="0.4" stroke-linecap="butt" stroke-linejoin="round" stroke="rgb(0%, 0%, 0%)" stroke-opacity="1" stroke-miterlimit="10" d="M 135.451013 108.201868 L 134.850218 126.799018 " transform="matrix(0.994776, 0, 0, -0.994776, -1.930933, 138.671791)"/>
<path fill="none" stroke-width="0.4" stroke-linecap="butt" stroke-linejoin="round" stroke="rgb(0%, 0%, 0%)" stroke-opacity="1" stroke-miterlimit="10" d="M 135.451013 108.201868 L 73.349257 103.399437 " transform="matrix(0.994776, 0, 0, -0.994776, -1.930933, 138.671791)"/>
<path fill="none" stroke-width="0.4" stroke-linecap="butt" stroke-linejoin="round" stroke="rgb(0%, 0%, 0%)" stroke-opacity="1" stroke-miterlimit="10" d="M 135.451013 108.201868 L 97.950427 49.398593 " transform="matrix(0.994776, 0, 0, -0.994776, -1.930933, 138.671791)"/>
<path fill="none" stroke-width="0.4" stroke-linecap="butt" stroke-linejoin="round" stroke="rgb(0%, 0%, 0%)" stroke-opacity="1" stroke-miterlimit="10" d="M 135.451013 108.201868 L 132.7494 22.998966 " transform="matrix(0.994776, 0, 0, -0.994776, -1.930933, 138.671791)"/>
<path fill="none" stroke-width="0.4" stroke-linecap="butt" stroke-linejoin="round" stroke="rgb(0%, 0%, 0%)" stroke-opacity="1" stroke-miterlimit="10" d="M 128.001943 79.999857 L 97.950427 49.398593 " transform="matrix(0.994776, 0, 0, -0.994776, -1.930933, 138.671791)"/>
<path fill="none" stroke-width="0.4" stroke-linecap="butt" stroke-linejoin="round" stroke="rgb(0%, 0%, 0%)" stroke-opacity="1" stroke-miterlimit="10" d="M 128.001943 79.999857 L 132.7494 22.998966 " transform="matrix(0.994776, 0, 0, -0.994776, -1.930933, 138.671791)"/>
<path fill="none" stroke-width="0.4" stroke-linecap="butt" stroke-linejoin="round" stroke="rgb(0%, 0%, 0%)" stroke-opacity="1" stroke-miterlimit="10" d="M 128.001943 79.999857 L 135.451013 108.201868 " transform="matrix(0.994776, 0, 0, -0.994776, -1.930933, 138.671791)"/>
<path fill="none" stroke-width="0.4" stroke-linecap="butt" stroke-linejoin="round" stroke="rgb(0%, 0%, 0%)" stroke-opacity="1" stroke-miterlimit="10" d="M 119.999201 48.000666 L 97.950427 49.398593 " transform="matrix(0.994776, 0, 0, -0.994776, -1.930933, 138.671791)"/>
<path fill="none" stroke-width="0.4" stroke-linecap="butt" stroke-linejoin="round" stroke="rgb(0%, 0%, 0%)" stroke-opacity="1" stroke-miterlimit="10" d="M 119.999201 48.000666 L 128.001943 79.999857 " transform="matrix(0.994776, 0, 0, -0.994776, -1.930933, 138.671791)"/>
<path fill="none" stroke-width="0.4" stroke-linecap="butt" stroke-linejoin="round" stroke="rgb(0%, 0%, 0%)" stroke-opacity="1" stroke-miterlimit="10" d="M 132.7494 22.998966 L 119.999201 48.000666 " transform="matrix(0.994776, 0, 0, -0.994776, -1.930933, 138.671791)"/>
<path fill="none" stroke-width="0.4" stroke-linecap="butt" stroke-linejoin="round" stroke="rgb(0%, 0%, 0%)" stroke-opacity="1" stroke-miterlimit="10" d="M 132.7494 22.998966 L 97.950427 49.398593 " transform="matrix(0.994776, 0, 0, -0.994776, -1.930933, 138.671791)"/>
<path fill="none" stroke-width="0.4" stroke-linecap="butt" stroke-linejoin="round" stroke="rgb(0%, 0%, 0%)" stroke-opacity="1" stroke-miterlimit="10" d="M 120.450778 11.901934 L 132.7494 22.998966 " transform="matrix(0.994776, 0, 0, -0.994776, -1.930933, 138.671791)"/>
<path fill="none" stroke-width="0.4" stroke-linecap="butt" stroke-linejoin="round" stroke="rgb(0%, 0%, 0%)" stroke-opacity="1" stroke-miterlimit="10" d="M 120.450778 11.901934 L 97.950427 49.398593 " transform="matrix(0.994776, 0, 0, -0.994776, -1.930933, 138.671791)"/>
<path fill="none" stroke-width="0.4" stroke-linecap="butt" stroke-linejoin="round" stroke="rgb(0%, 0%, 0%)" stroke-opacity="1" stroke-miterlimit="10" d="M 85.349444 9.498755 L 120.450778 11.901934 " transform="matrix(0.994776, 0, 0, -0.994776, -1.930933, 138.671791)"/>
<path fill="none" stroke-width="0.4" stroke-linecap="butt" stroke-linejoin="round" stroke="rgb(0%, 0%, 0%)" stroke-opacity="1" stroke-miterlimit="10" d="M 85.349444 9.498755 L 97.950427 49.398593 " transform="matrix(0.994776, 0, 0, -0.994776, -1.930933, 138.671791)"/>
<path fill="none" stroke-width="0.4" stroke-linecap="butt" stroke-linejoin="round" stroke="rgb(0%, 0%, 0%)" stroke-opacity="1" stroke-miterlimit="10" d="M 85.349444 9.498755 L 39.751873 10.998779 " transform="matrix(0.994776, 0, 0, -0.994776, -1.930933, 138.671791)"/>
<path fill="none" stroke-width="0.4" stroke-linecap="butt" stroke-linejoin="round" stroke="rgb(0%, 0%, 0%)" stroke-opacity="1" stroke-miterlimit="10" d="M 63.999634 31.999107 L 85.349444 9.498755 " transform="matrix(0.994776, 0, 0, -0.994776, -1.930933, 138.671791)"/>
<path fill="none" stroke-width="0.4" stroke-linecap="butt" stroke-linejoin="round" stroke="rgb(0%, 0%, 0%)" stroke-opacity="1" stroke-miterlimit="10" d="M 63.999634 31.999107 L 97.950427 49.398593 " transform="matrix(0.994776, 0, 0, -0.994776, -1.930933, 138.671791)"/>
<path fill="none" stroke-width="0.4" stroke-linecap="butt" stroke-linejoin="round" stroke="rgb(0%, 0%, 0%)" stroke-opacity="1" stroke-miterlimit="10" d="M 63.999634 31.999107 L 36.751826 60.499552 " transform="matrix(0.994776, 0, 0, -0.994776, -1.930933, 138.671791)"/>
<path fill="none" stroke-width="0.4" stroke-linecap="butt" stroke-linejoin="round" stroke="rgb(0%, 0%, 0%)" stroke-opacity="1" stroke-miterlimit="10" d="M 39.751873 10.998779 L 63.999634 31.999107 " transform="matrix(0.994776, 0, 0, -0.994776, -1.930933, 138.671791)"/>
<path fill="none" stroke-width="0.4" stroke-linecap="butt" stroke-linejoin="round" stroke="rgb(0%, 0%, 0%)" stroke-opacity="1" stroke-miterlimit="10" d="M 39.751873 10.998779 L 36.751826 60.499552 " transform="matrix(0.994776, 0, 0, -0.994776, -1.930933, 138.671791)"/>
<path fill="none" stroke-width="0.4" stroke-linecap="butt" stroke-linejoin="round" stroke="rgb(0%, 0%, 0%)" stroke-opacity="1" stroke-miterlimit="10" d="M 10.049838 12.801163 L 39.751873 10.998779 " transform="matrix(0.994776, 0, 0, -0.994776, -1.930933, 138.671791)"/>
<path fill="none" stroke-width="0.4" stroke-linecap="butt" stroke-linejoin="round" stroke="rgb(0%, 0%, 0%)" stroke-opacity="1" stroke-miterlimit="10" d="M 10.049838 12.801163 L 36.751826 60.499552 " transform="matrix(0.994776, 0, 0, -0.994776, -1.930933, 138.671791)"/>
<path fill="none" stroke-width="0.4" stroke-linecap="butt" stroke-linejoin="round" stroke="rgb(0%, 0%, 0%)" stroke-opacity="1" stroke-miterlimit="10" d="M 10.049838 12.801163 L 5.549768 47.600136 " transform="matrix(0.994776, 0, 0, -0.994776, -1.930933, 138.671791)"/>
<path fill="none" stroke-width="0.4" stroke-linecap="butt" stroke-linejoin="round" stroke="rgb(0%, 0%, 0%)" stroke-opacity="1" stroke-miterlimit="10" d="M 5.549768 47.600136 L 36.751826 60.499552 " transform="matrix(0.994776, 0, 0, -0.994776, -1.930933, 138.671791)"/>
<path fill="none" stroke-width="0.4" stroke-linecap="butt" stroke-linejoin="round" stroke="rgb(0%, 0%, 0%)" stroke-opacity="1" stroke-miterlimit="10" d="M 15.998884 79.999857 L 5.549768 47.600136 " transform="matrix(0.994776, 0, 0, -0.994776, -1.930933, 138.671791)"/>
<path fill="none" stroke-width="0.4" stroke-linecap="butt" stroke-linejoin="round" stroke="rgb(0%, 0%, 0%)" stroke-opacity="1" stroke-miterlimit="10" d="M 15.998884 79.999857 L 36.751826 60.499552 " transform="matrix(0.994776, 0, 0, -0.994776, -1.930933, 138.671791)"/>
<path fill="none" stroke-width="0.4" stroke-linecap="butt" stroke-linejoin="round" stroke="rgb(0%, 0%, 0%)" stroke-opacity="1" stroke-miterlimit="10" d="M 24.001627 111.999048 L 15.998884 79.999857 " transform="matrix(0.994776, 0, 0, -0.994776, -1.930933, 138.671791)"/>
<path fill="none" stroke-width="0.4" stroke-linecap="butt" stroke-linejoin="round" stroke="rgb(0%, 0%, 0%)" stroke-opacity="1" stroke-miterlimit="10" d="M 24.001627 111.999048 L 36.751826 60.499552 " transform="matrix(0.994776, 0, 0, -0.994776, -1.930933, 138.671791)"/>
<path fill="none" stroke-width="0.4" stroke-linecap="butt" stroke-linejoin="round" stroke="rgb(0%, 0%, 0%)" stroke-opacity="1" stroke-miterlimit="10" d="M 24.001627 111.999048 L 73.349257 103.399437 " transform="matrix(0.994776, 0, 0, -0.994776, -1.930933, 138.671791)"/>
<path fill="none" stroke-width="0.4" stroke-linecap="butt" stroke-linejoin="round" stroke="rgb(0%, 0%, 0%)" stroke-opacity="1" stroke-miterlimit="10" d="M 73.349257 103.399437 L 97.950427 49.398593 " transform="matrix(0.994776, 0, 0, -0.994776, -1.930933, 138.671791)"/>
<path fill="none" stroke-width="0.4" stroke-linecap="butt" stroke-linejoin="round" stroke="rgb(0%, 0%, 0%)" stroke-opacity="1" stroke-miterlimit="10" d="M 73.349257 103.399437 L 69.748415 73.999763 " transform="matrix(0.994776, 0, 0, -0.994776, -1.930933, 138.671791)"/>
<path fill="none" stroke-width="0.4" stroke-linecap="butt" stroke-linejoin="round" stroke="rgb(0%, 0%, 0%)" stroke-opacity="1" stroke-miterlimit="10" d="M 36.751826 60.499552 L 69.748415 73.999763 " transform="matrix(0.994776, 0, 0, -0.994776, -1.930933, 138.671791)"/>
<path fill="none" stroke-width="0.4" stroke-linecap="butt" stroke-linejoin="round" stroke="rgb(0%, 0%, 0%)" stroke-opacity="1" stroke-miterlimit="10" d="M 36.751826 60.499552 L 73.349257 103.399437 " transform="matrix(0.994776, 0, 0, -0.994776, -1.930933, 138.671791)"/>
<path fill="none" stroke-width="0.4" stroke-linecap="butt" stroke-linejoin="round" stroke="rgb(0%, 0%, 0%)" stroke-opacity="1" stroke-miterlimit="10" d="M 97.950427 49.398593 L 69.748415 73.999763 " transform="matrix(0.994776, 0, 0, -0.994776, -1.930933, 138.671791)"/>
<path fill="none" stroke-width="0.4" stroke-linecap="butt" stroke-linejoin="round" stroke="rgb(0%, 0%, 0%)" stroke-opacity="1" stroke-miterlimit="10" d="M 97.950427 49.398593 L 36.751826 60.499552 " transform="matrix(0.994776, 0, 0, -0.994776, -1.930933, 138.671791)"/>
<path fill-rule="nonzero" fill="rgb(71.299744%, 8.198547%, 60.699463%)" fill-opacity="1" stroke-width="0.4" stroke-linecap="butt" stroke-linejoin="round" stroke="rgb(0%, 0%, 0%)" stroke-opacity="1" stroke-miterlimit="10" d="M 10.701681 135.999423 C 10.701681 134.507253 9.492238 133.301737 8.000068 133.301737 C 6.507898 133.301737 5.298455 134.507253 5.298455 135.999423 C 5.298455 137.491593 6.507898 138.701036 8.000068 138.701036 C 9.492238 138.701036 10.701681 137.491593 10.701681 135.999423 " transform="matrix(0.994776, 0, 0, -0.994776, -1.930933, 138.671791)"/>
<path fill-rule="nonzero" fill="rgb(55.999756%, 66.598511%, 62.298584%)" fill-opacity="1" stroke-width="0.4" stroke-linecap="butt" stroke-linejoin="round" stroke="rgb(0%, 0%, 0%)" stroke-opacity="1" stroke-miterlimit="10" d="M 34.698129 128.000607 C 34.698129 126.508437 33.492613 125.298994 32.000443 125.298994 C 30.508273 125.298994 29.29883 126.508437 29.29883 128.000607 C 29.29883 129.492777 30.508273 130.698293 32.000443 130.698293 C 33.492613 130.698293 34.698129 129.492777 34.698129 128.000607 " transform="matrix(0.994776, 0, 0, -0.994776, -1.930933, 138.671791)"/>
<path fill-rule="nonzero" fill="rgb(27.398682%, 84.298706%, 51.699829%)" fill-opacity="1" stroke-width="0.4" stroke-linecap="butt" stroke-linejoin="round" stroke="rgb(0%, 0%, 0%)" stroke-opacity="1" stroke-miterlimit="10" d="M 54.151313 131.299088 C 54.151313 129.810845 52.94187 128.601402 51.4497 128.601402 C 49.95753 128.601402 48.748087 129.810845 48.748087 131.299088 C 48.748087 132.791258 49.95753 134.000701 51.4497 134.000701 C 52.94187 134.000701 54.151313 132.791258 54.151313 131.299088 " transform="matrix(0.994776, 0, 0, -0.994776, -1.930933, 138.671791)"/>
<path fill-rule="nonzero" fill="rgb(81.898499%, 15.19928%, 23.098755%)" fill-opacity="1" stroke-width="0.4" stroke-linecap="butt" stroke-linejoin="round" stroke="rgb(0%, 0%, 0%)" stroke-opacity="1" stroke-miterlimit="10" d="M 74.700063 120.001791 C 74.700063 118.509621 73.49062 117.300178 71.99845 117.300178 C 70.510207 117.300178 69.300764 118.509621 69.300764 120.001791 C 69.300764 121.490034 70.510207 122.699477 71.99845 122.699477 C 73.49062 122.699477 74.700063 121.490034 74.700063 120.001791 " transform="matrix(0.994776, 0, 0, -0.994776, -1.930933, 138.671791)"/>
<path fill-rule="nonzero" fill="rgb(93.699646%, 30.099487%, 83.099365%)" fill-opacity="1" stroke-width="0.4" stroke-linecap="butt" stroke-linejoin="round" stroke="rgb(0%, 0%, 0%)" stroke-opacity="1" stroke-miterlimit="10" d="M 90.701622 135.999423 C 90.701622 134.507253 89.492179 133.301737 88.000009 133.301737 C 86.507839 133.301737 85.298396 134.507253 85.298396 135.999423 C 85.298396 137.491593 86.507839 138.701036 88.000009 138.701036 C 89.492179 138.701036 90.701622 137.491593 90.701622 135.999423 " transform="matrix(0.994776, 0, 0, -0.994776, -1.930933, 138.671791)"/>
<path fill-rule="nonzero" fill="rgb(44.299316%, 30.499268%, 95.599365%)" fill-opacity="1" stroke-width="0.4" stroke-linecap="butt" stroke-linejoin="round" stroke="rgb(0%, 0%, 0%)" stroke-opacity="1" stroke-miterlimit="10" d="M 106.699255 120.001791 C 106.699255 118.509621 105.489812 117.300178 104.001568 117.300178 C 102.509398 117.300178 101.299955 118.509621 101.299955 120.001791 C 101.299955 121.490034 102.509398 122.699477 104.001568 122.699477 C 105.489812 122.699477 106.699255 121.490034 106.699255 120.001791 " transform="matrix(0.994776, 0, 0, -0.994776, -1.930933, 138.671791)"/>
<path fill-rule="nonzero" fill="rgb(61.499023%, 74.099731%, 48.199463%)" fill-opacity="1" stroke-width="0.4" stroke-linecap="butt" stroke-linejoin="round" stroke="rgb(0%, 0%, 0%)" stroke-opacity="1" stroke-miterlimit="10" d="M 137.551831 126.799018 C 137.551831 125.310775 136.342388 124.101332 134.850218 124.101332 C 133.358048 124.101332 132.148605 125.310775 132.148605 126.799018 C 132.148605 128.291188 133.358048 129.500631 134.850218 129.500631 C 136.342388 129.500631 137.551831 128.291188 137.551831 126.799018 " transform="matrix(0.994776, 0, 0, -0.994776, -1.930933, 138.671791)"/>
<path fill-rule="nonzero" fill="rgb(40.699768%, 60.299683%, 44.999695%)" fill-opacity="1" stroke-width="0.4" stroke-linecap="butt" stroke-linejoin="round" stroke="rgb(0%, 0%, 0%)" stroke-opacity="1" stroke-miterlimit="10" d="M 138.148699 108.201868 C 138.148699 106.709699 136.939256 105.500256 135.451013 105.500256 C 133.958843 105.500256 132.7494 106.709699 132.7494 108.201868 C 132.7494 109.690112 133.958843 110.899555 135.451013 110.899555 C 136.939256 110.899555 138.148699 109.690112 138.148699 108.201868 " transform="matrix(0.994776, 0, 0, -0.994776, -1.930933, 138.671791)"/>
<path fill-rule="nonzero" fill="rgb(9.799194%, 43.499756%, 66.598511%)" fill-opacity="1" stroke-width="0.4" stroke-linecap="butt" stroke-linejoin="round" stroke="rgb(0%, 0%, 0%)" stroke-opacity="1" stroke-miterlimit="10" d="M 130.69963 79.999857 C 130.69963 78.507687 129.490187 77.298244 128.001943 77.298244 C 126.509774 77.298244 125.300331 78.507687 125.300331 79.999857 C 125.300331 81.492027 126.509774 82.70147 128.001943 82.70147 C 129.490187 82.70147 130.69963 81.492027 130.69963 79.999857 " transform="matrix(0.994776, 0, 0, -0.994776, -1.930933, 138.671791)"/>
<path fill-rule="nonzero" fill="rgb(34.098816%, 94.499207%, 86.199951%)" fill-opacity="1" stroke-width="0.4" stroke-linecap="butt" stroke-linejoin="round" stroke="rgb(0%, 0%, 0%)" stroke-opacity="1" stroke-miterlimit="10" d="M 122.700813 48.000666 C 122.700813 46.508496 121.49137 45.299053 119.999201 45.299053 C 118.510957 45.299053 117.301514 46.508496 117.301514 48.000666 C 117.301514 49.488909 118.510957 50.698352 119.999201 50.698352 C 121.49137 50.698352 122.700813 49.488909 122.700813 48.000666 " transform="matrix(0.994776, 0, 0, -0.994776, -1.930933, 138.671791)"/>
<path fill-rule="nonzero" fill="rgb(42.298889%, 54.899597%, 27.799988%)" fill-opacity="1" stroke-width="0.4" stroke-linecap="butt" stroke-linejoin="round" stroke="rgb(0%, 0%, 0%)" stroke-opacity="1" stroke-miterlimit="10" d="M 135.451013 22.998966 C 135.451013 21.510723 134.24157 20.30128 132.7494 20.30128 C 131.25723 20.30128 130.051714 21.510723 130.051714 22.998966 C 130.051714 24.491136 131.25723 25.700579 132.7494 25.700579 C 134.24157 25.700579 135.451013 24.491136 135.451013 22.998966 " transform="matrix(0.994776, 0, 0, -0.994776, -1.930933, 138.671791)"/>
<path fill-rule="nonzero" fill="rgb(8.599854%, 16.799927%, 99.198914%)" fill-opacity="1" stroke-width="0.4" stroke-linecap="butt" stroke-linejoin="round" stroke="rgb(0%, 0%, 0%)" stroke-opacity="1" stroke-miterlimit="10" d="M 123.148464 11.901934 C 123.148464 10.409764 121.942948 9.200321 120.450778 9.200321 C 118.958608 9.200321 117.749165 10.409764 117.749165 11.901934 C 117.749165 13.390177 118.958608 14.59962 120.450778 14.59962 C 121.942948 14.59962 123.148464 13.390177 123.148464 11.901934 " transform="matrix(0.994776, 0, 0, -0.994776, -1.930933, 138.671791)"/>
<path fill-rule="nonzero" fill="rgb(92.89856%, 68.998718%, 54.899597%)" fill-opacity="1" d="M 85.660156 129.222656 C 85.660156 130.703125 84.457031 131.90625 82.972656 131.90625 C 81.492188 131.90625 80.289062 130.703125 80.289062 129.222656 C 80.289062 127.738281 81.492188 126.535156 82.972656 126.535156 C 84.457031 126.535156 85.660156 127.738281 85.660156 129.222656 "/>
<g clip-path="url(#clip-0)">
<path fill="none" stroke-width="0.4" stroke-linecap="butt" stroke-linejoin="round" stroke="rgb(0%, 0%, 0%)" stroke-opacity="1" stroke-miterlimit="10" d="M 88.051057 9.498755 C 88.051057 8.010512 86.841614 6.801069 85.349444 6.801069 C 83.861201 6.801069 82.651758 8.010512 82.651758 9.498755 C 82.651758 10.990925 83.861201 12.200368 85.349444 12.200368 C 86.841614 12.200368 88.051057 10.990925 88.051057 9.498755 " transform="matrix(0.994776, 0, 0, -0.994776, -1.930933, 138.671791)"/>
</g>
<path fill-rule="nonzero" fill="rgb(8.198547%, 92.098999%, 82.299805%)" fill-opacity="1" stroke-width="0.4" stroke-linecap="butt" stroke-linejoin="round" stroke="rgb(0%, 0%, 0%)" stroke-opacity="1" stroke-miterlimit="10" d="M 66.701247 31.999107 C 66.701247 30.510864 65.491804 29.301421 63.999634 29.301421 C 62.507464 29.301421 61.301948 30.510864 61.301948 31.999107 C 61.301948 33.491277 62.507464 34.70072 63.999634 34.70072 C 65.491804 34.70072 66.701247 33.491277 66.701247 31.999107 " transform="matrix(0.994776, 0, 0, -0.994776, -1.930933, 138.671791)"/>
<path fill-rule="nonzero" fill="rgb(38.398743%, 74.899292%, 64.299011%)" fill-opacity="1" stroke-width="0.4" stroke-linecap="butt" stroke-linejoin="round" stroke="rgb(0%, 0%, 0%)" stroke-opacity="1" stroke-miterlimit="10" d="M 42.449559 10.998779 C 42.449559 9.510535 41.240116 8.301092 39.751873 8.301092 C 38.259703 8.301092 37.05026 9.510535 37.05026 10.998779 C 37.05026 12.490949 38.259703 13.700392 39.751873 13.700392 C 41.240116 13.700392 42.449559 12.490949 42.449559 10.998779 " transform="matrix(0.994776, 0, 0, -0.994776, -1.930933, 138.671791)"/>
<path fill-rule="nonzero" fill="rgb(68.998718%, 70.098877%, 57.598877%)" fill-opacity="1" stroke-width="0.4" stroke-linecap="butt" stroke-linejoin="round" stroke="rgb(0%, 0%, 0%)" stroke-opacity="1" stroke-miterlimit="10" d="M 12.751451 12.801163 C 12.751451 11.308993 11.542008 10.09955 10.049838 10.09955 C 8.557668 10.09955 7.348225 11.308993 7.348225 12.801163 C 7.348225 14.289406 8.557668 15.498849 10.049838 15.498849 C 11.542008 15.498849 12.751451 14.289406 12.751451 12.801163 " transform="matrix(0.994776, 0, 0, -0.994776, -1.930933, 138.671791)"/>
<g clip-path="url(#clip-1)">
<path fill-rule="nonzero" fill="rgb(42.698669%, 18.399048%, 1.499939%)" fill-opacity="1" stroke-width="0.4" stroke-linecap="butt" stroke-linejoin="round" stroke="rgb(0%, 0%, 0%)" stroke-opacity="1" stroke-miterlimit="10" d="M 8.251381 47.600136 C 8.251381 46.107966 7.041938 44.898523 5.549768 44.898523 C 4.057598 44.898523 2.848155 46.107966 2.848155 47.600136 C 2.848155 49.092306 4.057598 50.301749 5.549768 50.301749 C 7.041938 50.301749 8.251381 49.092306 8.251381 47.600136 " transform="matrix(0.994776, 0, 0, -0.994776, -1.930933, 138.671791)"/>
</g>
<path fill-rule="nonzero" fill="rgb(3.09906%, 63.499451%, 63.09967%)" fill-opacity="1" stroke-width="0.4" stroke-linecap="butt" stroke-linejoin="round" stroke="rgb(0%, 0%, 0%)" stroke-opacity="1" stroke-miterlimit="10" d="M 18.700497 79.999857 C 18.700497 78.507687 17.491054 77.298244 15.998884 77.298244 C 14.510641 77.298244 13.301198 78.507687 13.301198 79.999857 C 13.301198 81.492027 14.510641 82.70147 15.998884 82.70147 C 17.491054 82.70147 18.700497 81.492027 18.700497 79.999857 " transform="matrix(0.994776, 0, 0, -0.994776, -1.930933, 138.671791)"/>
<path fill-rule="nonzero" fill="rgb(46.598816%, 29.798889%, 3.49884%)" fill-opacity="1" stroke-width="0.4" stroke-linecap="butt" stroke-linejoin="round" stroke="rgb(0%, 0%, 0%)" stroke-opacity="1" stroke-miterlimit="10" d="M 26.699313 111.999048 C 26.699313 110.510805 25.48987 109.301362 24.001627 109.301362 C 22.509457 109.301362 21.300014 110.510805 21.300014 111.999048 C 21.300014 113.491218 22.509457 114.700661 24.001627 114.700661 C 25.48987 114.700661 26.699313 113.491218 26.699313 111.999048 " transform="matrix(0.994776, 0, 0, -0.994776, -1.930933, 138.671791)"/>
<path fill-rule="nonzero" fill="rgb(40.699768%, 15.99884%, 13.299561%)" fill-opacity="1" stroke-width="0.4" stroke-linecap="butt" stroke-linejoin="round" stroke="rgb(0%, 0%, 0%)" stroke-opacity="1" stroke-miterlimit="10" d="M 76.05087 103.399437 C 76.05087 101.907267 74.841427 100.701751 73.349257 100.701751 C 71.861014 100.701751 70.651571 101.907267 70.651571 103.399437 C 70.651571 104.891607 71.861014 106.10105 73.349257 106.10105 C 74.841427 106.10105 76.05087 104.891607 76.05087 103.399437 " transform="matrix(0.994776, 0, 0, -0.994776, -1.930933, 138.671791)"/>
<path fill-rule="nonzero" fill="rgb(95.599365%, 43.899536%, 47.399902%)" fill-opacity="1" stroke-width="0.4" stroke-linecap="butt" stroke-linejoin="round" stroke="rgb(0%, 0%, 0%)" stroke-opacity="1" stroke-miterlimit="10" d="M 39.449512 60.499552 C 39.449512 59.007382 38.240069 57.801866 36.751826 57.801866 C 35.259656 57.801866 34.050213 59.007382 34.050213 60.499552 C 34.050213 61.991722 35.259656 63.201165 36.751826 63.201165 C 38.240069 63.201165 39.449512 61.991722 39.449512 60.499552 " transform="matrix(0.994776, 0, 0, -0.994776, -1.930933, 138.671791)"/>
<path fill-rule="nonzero" fill="rgb(12.5%, 42.698669%, 89.7995%)" fill-opacity="1" stroke-width="0.4" stroke-linecap="butt" stroke-linejoin="round" stroke="rgb(0%, 0%, 0%)" stroke-opacity="1" stroke-miterlimit="10" d="M 100.648113 49.398593 C 100.648113 47.91035 99.442597 46.700907 97.950427 46.700907 C 96.458257 46.700907 95.248814 47.91035 95.248814 49.398593 C 95.248814 50.890763 96.458257 52.100206 97.950427 52.100206 C 99.442597 52.100206 100.648113 50.890763 100.648113 49.398593 " transform="matrix(0.994776, 0, 0, -0.994776, -1.930933, 138.671791)"/>
<path fill-rule="nonzero" fill="rgb(81.498718%, 97.599792%, 98.799133%)" fill-opacity="1" stroke-width="0.4" stroke-linecap="butt" stroke-linejoin="round" stroke="rgb(0%, 0%, 0%)" stroke-opacity="1" stroke-miterlimit="10" d="M 72.450028 73.999763 C 72.450028 72.507593 71.240585 71.29815 69.748415 71.29815 C 68.260172 71.29815 67.050729 72.507593 67.050729 73.999763 C 67.050729 75.491933 68.260172 76.701376 69.748415 76.701376 C 71.240585 76.701376 72.450028 75.491933 72.450028 73.999763 " transform="matrix(0.994776, 0, 0, -0.994776, -1.930933, 138.671791)"/>
<path fill="none" stroke-width="0.4" stroke-linecap="butt" stroke-linejoin="round" stroke="rgb(0%, 0%, 0%)" stroke-opacity="1" stroke-miterlimit="10" d="M 85.349444 9.498755 L 39.751873 10.998779 " transform="matrix(0.994776, 0, 0, -0.994776, -1.930933, 138.671791)"/>
</svg>
