<?xml version="1.0" encoding="UTF-8"?>
<svg xmlns="http://www.w3.org/2000/svg" xmlns:xlink="http://www.w3.org/1999/xlink" width="212.4" height="152.4" viewBox="0 0 212.4 152.4">
<defs>
<clipPath id="clip-0">
<path clip-rule="nonzero" d="M 0.117188 0 L 211.683594 0 L 211.683594 151.800781 L 0.117188 151.800781 Z M 0.117188 0 "/>
</clipPath>
</defs>
<g clip-path="url(#clip-0)">
<path fill-rule="evenodd" fill="rgb(100%, 60.099792%, 60.099792%)" fill-opacity="0.2" stroke-width="0.4" stroke-linecap="butt" stroke-linejoin="round" stroke="rgb(62.69989%, 12.5%, 94.099426%)" stroke-opacity="0.2" stroke-miterlimit="10" d="M 59.999542 225.999997 L 59.999542 74.001581 L 271.99888 74.001581 L 271.99888 225.999997 Z M 59.999542 225.999997 " transform="matrix(0.996078, 0, 0, -0.996078, -59.447843, 225.312941)"/>
</g>
<path fill="none" stroke-width="0.4" stroke-linecap="butt" stroke-linejoin="round" stroke="rgb(0%, 0%, 54.499817%)" stroke-opacity="1" stroke-miterlimit="10" d="M 137.200729 119.598361 L 137.200729 151.598853 " transform="matrix(0.996078, 0, 0, -0.996078, -59.447843, 225.312941)"/>
<path fill="none" stroke-width="0.4" stroke-linecap="butt" stroke-linejoin="round" stroke="rgb(0%, 0%, 0%)" stroke-opacity="1" stroke-miterlimit="10" d="M 137.200729 151.598853 L 169.201221 151.598853 " transform="matrix(0.996078, 0, 0, -0.996078, -59.447843, 225.312941)"/>
<path fill="none" stroke-width="0.4" stroke-linecap="butt" stroke-linejoin="round" stroke="rgb(0%, 0%, 0%)" stroke-opacity="1" stroke-miterlimit="10" d="M 169.201221 151.598853 L 169.201221 183.599345 " transform="matrix(0.996078, 0, 0, -0.996078, -59.447843, 225.312941)"/>
<path fill="none" stroke-width="0.4" stroke-linecap="butt" stroke-linejoin="round" stroke="rgb(0%, 0%, 0%)" stroke-opacity="1" stroke-miterlimit="10" d="M 201.201713 183.599345 L 201.201713 151.598853 " transform="matrix(0.996078, 0, 0, -0.996078, -59.447843, 225.312941)"/>
<path fill="none" stroke-width="0.4" stroke-linecap="butt" stroke-linejoin="round" stroke="rgb(0%, 0%, 0%)" stroke-opacity="1" stroke-miterlimit="10" d="M 169.201221 119.598361 C 185.201467 135.598607 185.201467 119.598361 189.201529 111.598238 C 193.20159 103.598115 201.201713 103.598115 201.201713 119.598361 " transform="matrix(0.996078, 0, 0, -0.996078, -59.447843, 225.312941)"/>
<path fill="none" stroke-width="0.4" stroke-linecap="butt" stroke-linejoin="round" stroke="rgb(0%, 0%, 54.499817%)" stroke-opacity="1" stroke-miterlimit="10" d="M 169.201221 119.598361 C 169.201221 135.598607 185.201467 135.598607 169.201221 151.598853 " transform="matrix(0.996078, 0, 0, -0.996078, -59.447843, 225.312941)"/>
<path fill="none" stroke-width="0.4" stroke-linecap="butt" stroke-linejoin="round" stroke="rgb(0%, 0%, 0%)" stroke-opacity="1" stroke-miterlimit="10" d="M 169.201221 151.598853 C 177.201344 167.599099 181.201406 159.598976 185.201467 158.59896 C 189.201529 157.598945 193.20159 163.599037 201.201713 151.598853 " transform="matrix(0.996078, 0, 0, -0.996078, -59.447843, 225.312941)"/>
<path fill="none" stroke-width="0.4" stroke-linecap="butt" stroke-linejoin="round" stroke="rgb(0%, 0%, 0%)" stroke-opacity="1" stroke-miterlimit="10" d="M 137.200729 151.598853 C 142.534144 159.598976 142.534144 170.265806 137.200729 183.599345 " transform="matrix(0.996078, 0, 0, -0.996078, -59.447843, 225.312941)"/>
<path fill="none" stroke-width="0.4" stroke-linecap="butt" stroke-linejoin="round" stroke="rgb(0%, 0%, 54.499817%)" stroke-opacity="1" stroke-miterlimit="10" d="M 137.200729 183.599345 C 147.86756 175.599222 158.53439 175.599222 169.201221 183.599345 " transform="matrix(0.996078, 0, 0, -0.996078, -59.447843, 225.312941)"/>
<path fill="none" stroke-width="0.4" stroke-linecap="butt" stroke-linejoin="round" stroke="rgb(0%, 0%, 54.499817%)" stroke-opacity="1" stroke-miterlimit="10" d="M 137.200729 119.598361 C 150.534267 127.598484 161.201098 127.598484 169.201221 119.598361 " transform="matrix(0.996078, 0, 0, -0.996078, -59.447843, 225.312941)"/>
<path fill="none" stroke-width="0.4" stroke-linecap="butt" stroke-linejoin="round" stroke="rgb(0%, 0%, 54.499817%)" stroke-opacity="1" stroke-miterlimit="10" d="M 89.199991 151.598853 L 137.200729 119.598361 " transform="matrix(0.996078, 0, 0, -0.996078, -59.447843, 225.312941)"/>
<path fill="none" stroke-width="0.4" stroke-linecap="butt" stroke-linejoin="round" stroke="rgb(0%, 0%, 0%)" stroke-opacity="1" stroke-miterlimit="10" d="M 89.199991 151.598853 C 113.20036 148.932145 129.200606 148.932145 137.200729 151.598853 " transform="matrix(0.996078, 0, 0, -0.996078, -59.447843, 225.312941)"/>
<path fill="none" stroke-width="0.4" stroke-linecap="butt" stroke-linejoin="round" stroke="rgb(0%, 0%, 54.499817%)" stroke-opacity="1" stroke-miterlimit="10" d="M 89.199991 151.598853 L 137.200729 183.599345 " transform="matrix(0.996078, 0, 0, -0.996078, -59.447843, 225.312941)"/>
<path fill="none" stroke-width="0.4" stroke-linecap="butt" stroke-linejoin="round" stroke="rgb(0%, 0%, 54.499817%)" stroke-opacity="1" stroke-miterlimit="10" d="M 89.199991 151.598853 C 121.200483 203.599652 129.200606 235.600145 169.201221 183.599345 " transform="matrix(0.996078, 0, 0, -0.996078, -59.447843, 225.312941)"/>
<path fill="none" stroke-width="0.4" stroke-linecap="butt" stroke-linejoin="round" stroke="rgb(0%, 0%, 0%)" stroke-opacity="1" stroke-miterlimit="10" d="M 201.201713 183.599345 C 177.201344 219.599898 159.201067 223.59996 140.200775 221.599929 C 121.200483 219.599898 101.200175 211.599775 89.199991 151.598853 " transform="matrix(0.996078, 0, 0, -0.996078, -59.447843, 225.312941)"/>
<path fill="none" stroke-width="0.4" stroke-linecap="butt" stroke-linejoin="round" stroke="rgb(0%, 0%, 0%)" stroke-opacity="1" stroke-miterlimit="10" d="M 245.198468 147.598791 C 223.868728 123.598422 209.201836 114.268867 201.201713 119.598361 " transform="matrix(0.996078, 0, 0, -0.996078, -59.447843, 225.312941)"/>
<path fill="none" stroke-width="0.4" stroke-linecap="butt" stroke-linejoin="round" stroke="rgb(0%, 0%, 0%)" stroke-opacity="1" stroke-miterlimit="10" d="M 169.201221 119.598361 C 185.201467 95.601913 203.201744 89.601821 218.868652 91.268513 C 234.531638 92.935205 247.865176 102.268682 250.531884 108.93153 C 253.198591 115.598299 245.198468 119.598361 245.198468 147.598791 " transform="matrix(0.996078, 0, 0, -0.996078, -59.447843, 225.312941)"/>
<path fill="none" stroke-width="0.4" stroke-linecap="butt" stroke-linejoin="round" stroke="rgb(0%, 0%, 0%)" stroke-opacity="1" stroke-miterlimit="10" d="M 137.200729 119.598361 C 181.201406 83.601729 199.201682 83.601729 213.531315 84.935082 C 227.86879 86.268436 238.531699 88.935144 247.865176 95.268575 C 257.198653 101.598084 265.198776 111.598238 245.198468 147.598791 " transform="matrix(0.996078, 0, 0, -0.996078, -59.447843, 225.312941)"/>
<path fill="none" stroke-width="0.4" stroke-linecap="butt" stroke-linejoin="round" stroke="rgb(0%, 0%, 54.499817%)" stroke-opacity="1" stroke-miterlimit="10" d="M 201.201713 151.598853 C 233.198284 147.598791 237.198345 155.598914 245.198468 147.598791 " transform="matrix(0.996078, 0, 0, -0.996078, -59.447843, 225.312941)"/>
<path fill="none" stroke-width="0.4" stroke-linecap="butt" stroke-linejoin="round" stroke="rgb(0%, 0%, 54.499817%)" stroke-opacity="1" stroke-miterlimit="10" d="M 201.201713 183.599345 C 230.531576 172.932514 245.198468 160.93233 245.198468 147.598791 " transform="matrix(0.996078, 0, 0, -0.996078, -59.447843, 225.312941)"/>
<path fill="none" stroke-width="0.4" stroke-linecap="butt" stroke-linejoin="round" stroke="rgb(0%, 0%, 0%)" stroke-opacity="1" stroke-miterlimit="10" d="M 89.199991 151.598853 C 153.200975 79.601667 171.201252 77.601636 191.534898 77.268298 C 211.868544 76.934959 234.531638 78.268313 247.865176 84.268406 C 261.198714 90.268498 265.198776 100.931407 266.198791 108.268775 C 267.198807 115.598299 265.198776 119.598361 245.198468 147.598791 " transform="matrix(0.996078, 0, 0, -0.996078, -59.447843, 225.312941)"/>
<path fill="none" stroke-width="0.4" stroke-linecap="butt" stroke-linejoin="round" stroke="rgb(0%, 0%, 54.499817%)" stroke-opacity="1" stroke-miterlimit="10" d="M 137.200729 151.598853 C 149.200914 131.598545 161.201098 139.598668 169.201221 119.598361 " transform="matrix(0.996078, 0, 0, -0.996078, -59.447843, 225.312941)"/>
<path fill="none" stroke-width="0.4" stroke-linecap="butt" stroke-linejoin="round" stroke="rgb(0%, 0%, 54.499817%)" stroke-opacity="1" stroke-miterlimit="10" d="M 137.200729 151.598853 C 145.200852 159.598976 165.20116 159.598976 169.201221 183.599345 " transform="matrix(0.996078, 0, 0, -0.996078, -59.447843, 225.312941)"/>
<path fill="none" stroke-width="0.4" stroke-linecap="butt" stroke-linejoin="round" stroke="rgb(0%, 0%, 54.499817%)" stroke-opacity="1" stroke-miterlimit="10" d="M 169.201221 183.599345 C 177.201344 171.59916 193.20159 179.599283 201.201713 183.599345 " transform="matrix(0.996078, 0, 0, -0.996078, -59.447843, 225.312941)"/>
<path fill="none" stroke-width="0.4" stroke-linecap="butt" stroke-linejoin="round" stroke="rgb(0%, 0%, 54.499817%)" stroke-opacity="1" stroke-miterlimit="10" d="M 201.201713 183.599345 C 181.201406 167.599099 173.201283 171.59916 169.201221 151.598853 " transform="matrix(0.996078, 0, 0, -0.996078, -59.447843, 225.312941)"/>
<path fill="none" stroke-width="0.4" stroke-linecap="butt" stroke-linejoin="round" stroke="rgb(0%, 0%, 54.499817%)" stroke-opacity="1" stroke-miterlimit="10" d="M 201.201713 151.598853 C 217.201959 143.59873 215.201929 137.598637 211.201867 134.598591 C 207.201805 131.598545 201.201713 131.598545 201.201713 119.598361 " transform="matrix(0.996078, 0, 0, -0.996078, -59.447843, 225.312941)"/>
<path fill="none" stroke-width="0.4" stroke-linecap="butt" stroke-linejoin="round" stroke="rgb(0%, 0%, 54.499817%)" stroke-opacity="1" stroke-miterlimit="10" d="M 201.201713 151.598853 C 193.20159 135.598607 177.201344 131.598545 169.201221 119.598361 " transform="matrix(0.996078, 0, 0, -0.996078, -59.447843, 225.312941)"/>
<path fill="none" stroke-width="1.2" stroke-linecap="butt" stroke-linejoin="round" stroke="rgb(0%, 0%, 54.499817%)" stroke-opacity="1" stroke-miterlimit="10" d="M 137.200729 119.598361 L 137.200729 151.598853 " transform="matrix(0.996078, 0, 0, -0.996078, -59.447843, 225.312941)"/>
<path fill="none" stroke-width="1.2" stroke-linecap="butt" stroke-linejoin="round" stroke="rgb(0%, 0%, 54.499817%)" stroke-opacity="1" stroke-miterlimit="10" d="M 169.201221 119.598361 C 169.201221 135.598607 185.201467 135.598607 169.201221 151.598853 " transform="matrix(0.996078, 0, 0, -0.996078, -59.447843, 225.312941)"/>
<path fill="none" stroke-width="1.2" stroke-linecap="butt" stroke-linejoin="round" stroke="rgb(0%, 0%, 54.499817%)" stroke-opacity="1" stroke-miterlimit="10" d="M 137.200729 183.599345 C 147.86756 175.599222 158.53439 175.599222 169.201221 183.599345 " transform="matrix(0.996078, 0, 0, -0.996078, -59.447843, 225.312941)"/>
<path fill="none" stroke-width="1.2" stroke-linecap="butt" stroke-linejoin="round" stroke="rgb(0%, 0%, 54.499817%)" stroke-opacity="1" stroke-miterlimit="10" d="M 137.200729 119.598361 C 150.534267 127.598484 161.201098 127.598484 169.201221 119.598361 " transform="matrix(0.996078, 0, 0, -0.996078, -59.447843, 225.312941)"/>
<path fill="none" stroke-width="1.2" stroke-linecap="butt" stroke-linejoin="round" stroke="rgb(0%, 0%, 54.499817%)" stroke-opacity="1" stroke-miterlimit="10" d="M 89.199991 151.598853 L 137.200729 119.598361 " transform="matrix(0.996078, 0, 0, -0.996078, -59.447843, 225.312941)"/>
<path fill="none" stroke-width="1.2" stroke-linecap="butt" stroke-linejoin="round" stroke="rgb(0%, 0%, 54.499817%)" stroke-opacity="1" stroke-miterlimit="10" d="M 89.199991 151.598853 L 137.200729 183.599345 " transform="matrix(0.996078, 0, 0, -0.996078, -59.447843, 225.312941)"/>
<path fill="none" stroke-width="1.2" stroke-linecap="butt" stroke-linejoin="round" stroke="rgb(0%, 0%, 54.499817%)" stroke-opacity="1" stroke-miterlimit="10" d="M 89.199991 151.598853 C 121.200483 203.599652 129.200606 235.600145 169.201221 183.599345 " transform="matrix(0.996078, 0, 0, -0.996078, -59.447843, 225.312941)"/>
<path fill="none" stroke-width="1.2" stroke-linecap="butt" stroke-linejoin="round" stroke="rgb(0%, 0%, 54.499817%)" stroke-opacity="1" stroke-miterlimit="10" d="M 201.201713 151.598853 C 233.198284 147.598791 237.198345 155.598914 245.198468 147.598791 " transform="matrix(0.996078, 0, 0, -0.996078, -59.447843, 225.312941)"/>
<path fill="none" stroke-width="1.2" stroke-linecap="butt" stroke-linejoin="round" stroke="rgb(0%, 0%, 54.499817%)" stroke-opacity="1" stroke-miterlimit="10" d="M 201.201713 183.599345 C 230.531576 172.932514 245.198468 160.93233 245.198468 147.598791 " transform="matrix(0.996078, 0, 0, -0.996078, -59.447843, 225.312941)"/>
<path fill="none" stroke-width="1.2" stroke-linecap="butt" stroke-linejoin="round" stroke="rgb(0%, 0%, 54.499817%)" stroke-opacity="1" stroke-miterlimit="10" d="M 137.200729 151.598853 C 149.200914 131.598545 161.201098 139.598668 169.201221 119.598361 " transform="matrix(0.996078, 0, 0, -0.996078, -59.447843, 225.312941)"/>
<path fill="none" stroke-width="1.2" stroke-linecap="butt" stroke-linejoin="round" stroke="rgb(0%, 0%, 54.499817%)" stroke-opacity="1" stroke-miterlimit="10" d="M 137.200729 151.598853 C 145.200852 159.598976 165.20116 159.598976 169.201221 183.599345 " transform="matrix(0.996078, 0, 0, -0.996078, -59.447843, 225.312941)"/>
<path fill="none" stroke-width="1.2" stroke-linecap="butt" stroke-linejoin="round" stroke="rgb(0%, 0%, 54.499817%)" stroke-opacity="1" stroke-miterlimit="10" d="M 169.201221 183.599345 C 177.201344 171.59916 193.20159 179.599283 201.201713 183.599345 " transform="matrix(0.996078, 0, 0, -0.996078, -59.447843, 225.312941)"/>
<path fill="none" stroke-width="1.2" stroke-linecap="butt" stroke-linejoin="round" stroke="rgb(0%, 0%, 54.499817%)" stroke-opacity="1" stroke-miterlimit="10" d="M 201.201713 183.599345 C 181.201406 167.599099 173.201283 171.59916 169.201221 151.598853 " transform="matrix(0.996078, 0, 0, -0.996078, -59.447843, 225.312941)"/>
<path fill="none" stroke-width="1.2" stroke-linecap="butt" stroke-linejoin="round" stroke="rgb(0%, 0%, 54.499817%)" stroke-opacity="1" stroke-miterlimit="10" d="M 201.201713 151.598853 C 217.201959 143.59873 215.201929 137.598637 211.201867 134.598591 C 207.201805 131.598545 201.201713 131.598545 201.201713 119.598361 " transform="matrix(0.996078, 0, 0, -0.996078, -59.447843, 225.312941)"/>
<path fill="none" stroke-width="1.2" stroke-linecap="butt" stroke-linejoin="round" stroke="rgb(0%, 0%, 54.499817%)" stroke-opacity="1" stroke-miterlimit="10" d="M 201.201713 151.598853 C 193.20159 135.598607 177.201344 131.598545 169.201221 119.598361 " transform="matrix(0.996078, 0, 0, -0.996078, -59.447843, 225.312941)"/>
<path fill="none" stroke-width="1.2" stroke-linecap="butt" stroke-linejoin="round" stroke="rgb(0%, 39.199829%, 0%)" stroke-opacity="1" stroke-miterlimit="10" d="M 137.200729 151.598853 L 169.201221 151.598853 " transform="matrix(0.996078, 0, 0, -0.996078, -59.447843, 225.312941)"/>
<path fill="none" stroke-width="1.2" stroke-linecap="butt" stroke-linejoin="round" stroke="rgb(0%, 39.199829%, 0%)" stroke-opacity="1" stroke-miterlimit="10" d="M 169.201221 151.598853 L 169.201221 183.599345 " transform="matrix(0.996078, 0, 0, -0.996078, -59.447843, 225.312941)"/>
<path fill="none" stroke-width="1.2" stroke-linecap="butt" stroke-linejoin="round" stroke="rgb(0%, 39.199829%, 0%)" stroke-opacity="1" stroke-miterlimit="10" d="M 201.201713 183.599345 L 201.201713 151.598853 " transform="matrix(0.996078, 0, 0, -0.996078, -59.447843, 225.312941)"/>
<path fill="none" stroke-width="1.2" stroke-linecap="butt" stroke-linejoin="round" stroke="rgb(0%, 39.199829%, 0%)" stroke-opacity="1" stroke-miterlimit="10" d="M 169.201221 119.598361 C 185.201467 135.598607 185.201467 119.598361 189.201529 111.598238 C 193.20159 103.598115 201.201713 103.598115 201.201713 119.598361 " transform="matrix(0.996078, 0, 0, -0.996078, -59.447843, 225.312941)"/>
<path fill="none" stroke-width="1.2" stroke-linecap="butt" stroke-linejoin="round" stroke="rgb(0%, 39.199829%, 0%)" stroke-opacity="1" stroke-miterlimit="10" d="M 169.201221 151.598853 C 177.201344 167.599099 181.201406 159.598976 185.201467 158.59896 C 189.201529 157.598945 193.20159 163.599037 201.201713 151.598853 " transform="matrix(0.996078, 0, 0, -0.996078, -59.447843, 225.312941)"/>
<path fill="none" stroke-width="1.2" stroke-linecap="butt" stroke-linejoin="round" stroke="rgb(0%, 39.199829%, 0%)" stroke-opacity="1" stroke-miterlimit="10" d="M 137.200729 151.598853 C 142.534144 159.598976 142.534144 170.265806 137.200729 183.599345 " transform="matrix(0.996078, 0, 0, -0.996078, -59.447843, 225.312941)"/>
<path fill="none" stroke-width="1.2" stroke-linecap="butt" stroke-linejoin="round" stroke="rgb(0%, 39.199829%, 0%)" stroke-opacity="1" stroke-miterlimit="10" d="M 89.199991 151.598853 C 113.20036 148.932145 129.200606 148.932145 137.200729 151.598853 " transform="matrix(0.996078, 0, 0, -0.996078, -59.447843, 225.312941)"/>
<path fill="none" stroke-width="1.2" stroke-linecap="butt" stroke-linejoin="round" stroke="rgb(0%, 39.199829%, 0%)" stroke-opacity="1" stroke-miterlimit="10" d="M 201.201713 183.599345 C 177.201344 219.599898 159.201067 223.59996 140.200775 221.599929 C 121.200483 219.599898 101.200175 211.599775 89.199991 151.598853 " transform="matrix(0.996078, 0, 0, -0.996078, -59.447843, 225.312941)"/>
<path fill="none" stroke-width="1.2" stroke-linecap="butt" stroke-linejoin="round" stroke="rgb(0%, 39.199829%, 0%)" stroke-opacity="1" stroke-miterlimit="10" d="M 245.198468 147.598791 C 223.868728 123.598422 209.201836 114.268867 201.201713 119.598361 " transform="matrix(0.996078, 0, 0, -0.996078, -59.447843, 225.312941)"/>
<path fill="none" stroke-width="1.2" stroke-linecap="butt" stroke-linejoin="round" stroke="rgb(0%, 39.199829%, 0%)" stroke-opacity="1" stroke-miterlimit="10" d="M 169.201221 119.598361 C 185.201467 95.601913 203.201744 89.601821 218.868652 91.268513 C 234.531638 92.935205 247.865176 102.268682 250.531884 108.93153 C 253.198591 115.598299 245.198468 119.598361 245.198468 147.598791 " transform="matrix(0.996078, 0, 0, -0.996078, -59.447843, 225.312941)"/>
<path fill="none" stroke-width="1.2" stroke-linecap="butt" stroke-linejoin="round" stroke="rgb(0%, 39.199829%, 0%)" stroke-opacity="1" stroke-miterlimit="10" d="M 137.200729 119.598361 C 181.201406 83.601729 199.201682 83.601729 213.531315 84.935082 C 227.86879 86.268436 238.531699 88.935144 247.865176 95.268575 C 257.198653 101.598084 265.198776 111.598238 245.198468 147.598791 " transform="matrix(0.996078, 0, 0, -0.996078, -59.447843, 225.312941)"/>
<path fill="none" stroke-width="1.2" stroke-linecap="butt" stroke-linejoin="round" stroke="rgb(0%, 39.199829%, 0%)" stroke-opacity="1" stroke-miterlimit="10" d="M 89.199991 151.598853 C 153.200975 79.601667 171.201252 77.601636 191.534898 77.268298 C 211.868544 76.934959 234.531638 78.268313 247.865176 84.268406 C 261.198714 90.268498 265.198776 100.931407 266.198791 108.268775 C 267.198807 115.598299 265.198776 119.598361 245.198468 147.598791 " transform="matrix(0.996078, 0, 0, -0.996078, -59.447843, 225.312941)"/>
<path fill-rule="evenodd" fill="rgb(100%, 100%, 0%)" fill-opacity="1" d="M 79.703125 106.183594 C 79.703125 104.804688 78.589844 103.691406 77.214844 103.691406 C 75.839844 103.691406 74.722656 104.804688 74.722656 106.183594 C 74.722656 107.558594 75.839844 108.671875 77.214844 108.671875 C 78.589844 108.671875 79.703125 107.558594 79.703125 106.183594 "/>
<path fill-rule="evenodd" fill="rgb(0%, 0%, 0%)" fill-opacity="1" d="M 80.203125 106.183594 C 80.203125 104.53125 78.863281 103.195312 77.214844 103.195312 C 75.5625 103.195312 74.226562 104.53125 74.226562 106.183594 C 74.226562 107.832031 75.5625 109.171875 77.214844 109.171875 C 78.863281 109.171875 80.203125 107.832031 80.203125 106.183594 M 79.207031 106.183594 C 79.207031 105.082031 78.316406 104.191406 77.214844 104.191406 C 76.113281 104.191406 75.222656 105.082031 75.222656 106.183594 C 75.222656 107.28125 76.113281 108.175781 77.214844 108.175781 C 78.316406 108.175781 79.207031 107.28125 79.207031 106.183594 "/>
<path fill-rule="evenodd" fill="rgb(100%, 100%, 0%)" fill-opacity="1" d="M 79.703125 74.308594 C 79.703125 72.933594 78.589844 71.816406 77.214844 71.816406 C 75.839844 71.816406 74.722656 72.933594 74.722656 74.308594 C 74.722656 75.683594 75.839844 76.796875 77.214844 76.796875 C 78.589844 76.796875 79.703125 75.683594 79.703125 74.308594 "/>
<path fill-rule="evenodd" fill="rgb(0%, 0%, 0%)" fill-opacity="1" d="M 80.203125 74.308594 C 80.203125 72.65625 78.863281 71.320312 77.214844 71.320312 C 75.5625 71.320312 74.226562 72.65625 74.226562 74.308594 C 74.226562 75.957031 75.5625 77.296875 77.214844 77.296875 C 78.863281 77.296875 80.203125 75.957031 80.203125 74.308594 M 79.207031 74.308594 C 79.207031 73.207031 78.316406 72.316406 77.214844 72.316406 C 76.113281 72.316406 75.222656 73.207031 75.222656 74.308594 C 75.222656 75.40625 76.113281 76.300781 77.214844 76.300781 C 78.316406 76.300781 79.207031 75.40625 79.207031 74.308594 "/>
<path fill-rule="evenodd" fill="rgb(100%, 100%, 0%)" fill-opacity="1" d="M 79.703125 42.433594 C 79.703125 41.058594 78.589844 39.941406 77.214844 39.941406 C 75.839844 39.941406 74.722656 41.058594 74.722656 42.433594 C 74.722656 43.808594 75.839844 44.921875 77.214844 44.921875 C 78.589844 44.921875 79.703125 43.808594 79.703125 42.433594 "/>
<path fill-rule="evenodd" fill="rgb(0%, 0%, 0%)" fill-opacity="1" d="M 80.203125 42.433594 C 80.203125 40.78125 78.863281 39.445312 77.214844 39.445312 C 75.5625 39.445312 74.226562 40.78125 74.226562 42.433594 C 74.226562 44.082031 75.5625 45.421875 77.214844 45.421875 C 78.863281 45.421875 80.203125 44.082031 80.203125 42.433594 M 79.207031 42.433594 C 79.207031 41.332031 78.316406 40.441406 77.214844 40.441406 C 76.113281 40.441406 75.222656 41.332031 75.222656 42.433594 C 75.222656 43.535156 76.113281 44.425781 77.214844 44.425781 C 78.316406 44.425781 79.207031 43.535156 79.207031 42.433594 "/>
<path fill-rule="evenodd" fill="rgb(100%, 100%, 0%)" fill-opacity="1" d="M 111.578125 42.433594 C 111.578125 41.058594 110.464844 39.941406 109.089844 39.941406 C 107.714844 39.941406 106.597656 41.058594 106.597656 42.433594 C 106.597656 43.808594 107.714844 44.921875 109.089844 44.921875 C 110.464844 44.921875 111.578125 43.808594 111.578125 42.433594 "/>
<path fill-rule="evenodd" fill="rgb(0%, 0%, 0%)" fill-opacity="1" d="M 112.078125 42.433594 C 112.078125 40.78125 110.738281 39.445312 109.089844 39.445312 C 107.4375 39.445312 106.101562 40.78125 106.101562 42.433594 C 106.101562 44.082031 107.4375 45.421875 109.089844 45.421875 C 110.738281 45.421875 112.078125 44.082031 112.078125 42.433594 M 111.082031 42.433594 C 111.082031 41.332031 110.1875 40.441406 109.089844 40.441406 C 107.988281 40.441406 107.097656 41.332031 107.097656 42.433594 C 107.097656 43.535156 107.988281 44.425781 109.089844 44.425781 C 110.1875 44.425781 111.082031 43.535156 111.082031 42.433594 "/>
<path fill-rule="evenodd" fill="rgb(100%, 100%, 0%)" fill-opacity="1" d="M 143.453125 42.433594 C 143.453125 41.058594 142.339844 39.941406 140.964844 39.941406 C 139.585938 39.941406 138.472656 41.058594 138.472656 42.433594 C 138.472656 43.808594 139.585938 44.921875 140.964844 44.921875 C 142.339844 44.921875 143.453125 43.808594 143.453125 42.433594 "/>
<path fill-rule="evenodd" fill="rgb(0%, 0%, 0%)" fill-opacity="1" d="M 143.953125 42.433594 C 143.953125 40.78125 142.613281 39.445312 140.964844 39.445312 C 139.3125 39.445312 137.976562 40.78125 137.976562 42.433594 C 137.976562 44.082031 139.3125 45.421875 140.964844 45.421875 C 142.613281 45.421875 143.953125 44.082031 143.953125 42.433594 M 142.957031 42.433594 C 142.957031 41.332031 142.0625 40.441406 140.964844 40.441406 C 139.863281 40.441406 138.972656 41.332031 138.972656 42.433594 C 138.972656 43.535156 139.863281 44.425781 140.964844 44.425781 C 142.0625 44.425781 142.957031 43.535156 142.957031 42.433594 "/>
<path fill-rule="evenodd" fill="rgb(100%, 100%, 0%)" fill-opacity="1" d="M 143.453125 74.308594 C 143.453125 72.933594 142.339844 71.816406 140.964844 71.816406 C 139.585938 71.816406 138.472656 72.933594 138.472656 74.308594 C 138.472656 75.683594 139.585938 76.796875 140.964844 76.796875 C 142.339844 76.796875 143.453125 75.683594 143.453125 74.308594 "/>
<path fill-rule="evenodd" fill="rgb(0%, 0%, 0%)" fill-opacity="1" d="M 143.953125 74.308594 C 143.953125 72.65625 142.613281 71.320312 140.964844 71.320312 C 139.3125 71.320312 137.976562 72.65625 137.976562 74.308594 C 137.976562 75.957031 139.3125 77.296875 140.964844 77.296875 C 142.613281 77.296875 143.953125 75.957031 143.953125 74.308594 M 142.957031 74.308594 C 142.957031 73.207031 142.0625 72.316406 140.964844 72.316406 C 139.863281 72.316406 138.972656 73.207031 138.972656 74.308594 C 138.972656 75.40625 139.863281 76.300781 140.964844 76.300781 C 142.0625 76.300781 142.957031 75.40625 142.957031 74.308594 "/>
<path fill-rule="evenodd" fill="rgb(100%, 100%, 0%)" fill-opacity="1" d="M 111.578125 74.308594 C 111.578125 72.933594 110.464844 71.816406 109.089844 71.816406 C 107.714844 71.816406 106.597656 72.933594 106.597656 74.308594 C 106.597656 75.683594 107.714844 76.796875 109.089844 76.796875 C 110.464844 76.796875 111.578125 75.683594 111.578125 74.308594 "/>
<path fill-rule="evenodd" fill="rgb(0%, 0%, 0%)" fill-opacity="1" d="M 112.078125 74.308594 C 112.078125 72.65625 110.738281 71.320312 109.089844 71.320312 C 107.4375 71.320312 106.101562 72.65625 106.101562 74.308594 C 106.101562 75.957031 107.4375 77.296875 109.089844 77.296875 C 110.738281 77.296875 112.078125 75.957031 112.078125 74.308594 M 111.082031 74.308594 C 111.082031 73.207031 110.1875 72.316406 109.089844 72.316406 C 107.988281 72.316406 107.097656 73.207031 107.097656 74.308594 C 107.097656 75.40625 107.988281 76.300781 109.089844 76.300781 C 110.1875 76.300781 111.082031 75.40625 111.082031 74.308594 "/>
<path fill-rule="evenodd" fill="rgb(100%, 100%, 0%)" fill-opacity="1" d="M 111.578125 106.183594 C 111.578125 104.804688 110.464844 103.691406 109.089844 103.691406 C 107.714844 103.691406 106.597656 104.804688 106.597656 106.183594 C 106.597656 107.558594 107.714844 108.671875 109.089844 108.671875 C 110.464844 108.671875 111.578125 107.558594 111.578125 106.183594 "/>
<path fill-rule="evenodd" fill="rgb(0%, 0%, 0%)" fill-opacity="1" d="M 112.078125 106.183594 C 112.078125 104.53125 110.738281 103.195312 109.089844 103.195312 C 107.4375 103.195312 106.101562 104.53125 106.101562 106.183594 C 106.101562 107.832031 107.4375 109.171875 109.089844 109.171875 C 110.738281 109.171875 112.078125 107.832031 112.078125 106.183594 M 111.082031 106.183594 C 111.082031 105.082031 110.1875 104.191406 109.089844 104.191406 C 107.988281 104.191406 107.097656 105.082031 107.097656 106.183594 C 107.097656 107.28125 107.988281 108.175781 109.089844 108.175781 C 110.1875 108.175781 111.082031 107.28125 111.082031 106.183594 "/>
<path fill-rule="evenodd" fill="rgb(100%, 100%, 0%)" fill-opacity="1" d="M 143.453125 106.183594 C 143.453125 104.804688 142.339844 103.691406 140.964844 103.691406 C 139.585938 103.691406 138.472656 104.804688 138.472656 106.183594 C 138.472656 107.558594 139.585938 108.671875 140.964844 108.671875 C 142.339844 108.671875 143.453125 107.558594 143.453125 106.183594 "/>
<path fill-rule="evenodd" fill="rgb(0%, 0%, 0%)" fill-opacity="1" d="M 143.953125 106.183594 C 143.953125 104.53125 142.613281 103.195312 140.964844 103.195312 C 139.3125 103.195312 137.976562 104.53125 137.976562 106.183594 C 137.976562 107.832031 139.3125 109.171875 140.964844 109.171875 C 142.613281 109.171875 143.953125 107.832031 143.953125 106.183594 M 142.957031 106.183594 C 142.957031 105.082031 142.0625 104.191406 140.964844 104.191406 C 139.863281 104.191406 138.972656 105.082031 138.972656 106.183594 C 138.972656 107.28125 139.863281 108.175781 140.964844 108.175781 C 142.0625 108.175781 142.957031 107.28125 142.957031 106.183594 "/>
<path fill-rule="evenodd" fill="rgb(100%, 100%, 0%)" fill-opacity="1" d="M 31.890625 74.308594 C 31.890625 72.933594 30.777344 71.816406 29.402344 71.816406 C 28.027344 71.816406 26.914062 72.933594 26.914062 74.308594 C 26.914062 75.683594 28.027344 76.796875 29.402344 76.796875 C 30.777344 76.796875 31.890625 75.683594 31.890625 74.308594 "/>
<path fill-rule="evenodd" fill="rgb(0%, 0%, 0%)" fill-opacity="1" d="M 32.390625 74.308594 C 32.390625 72.65625 31.054688 71.320312 29.402344 71.320312 C 27.75 71.320312 26.414062 72.65625 26.414062 74.308594 C 26.414062 75.957031 27.75 77.296875 29.402344 77.296875 C 31.054688 77.296875 32.390625 75.957031 32.390625 74.308594 M 31.394531 74.308594 C 31.394531 73.207031 30.503906 72.316406 29.402344 72.316406 C 28.300781 72.316406 27.410156 73.207031 27.410156 74.308594 C 27.410156 75.40625 28.300781 76.300781 29.402344 76.300781 C 30.503906 76.300781 31.394531 75.40625 31.394531 74.308594 "/>
<path fill-rule="evenodd" fill="rgb(100%, 100%, 0%)" fill-opacity="1" d="M 187.28125 78.292969 C 187.28125 76.917969 186.167969 75.800781 184.789062 75.800781 C 183.414062 75.800781 182.300781 76.917969 182.300781 78.292969 C 182.300781 79.667969 183.414062 80.78125 184.789062 80.78125 C 186.167969 80.78125 187.28125 79.667969 187.28125 78.292969 "/>
<path fill-rule="evenodd" fill="rgb(0%, 0%, 0%)" fill-opacity="1" d="M 187.777344 78.292969 C 187.777344 76.640625 186.441406 75.304688 184.789062 75.304688 C 183.140625 75.304688 181.800781 76.640625 181.800781 78.292969 C 181.800781 79.941406 183.140625 81.28125 184.789062 81.28125 C 186.441406 81.28125 187.777344 79.941406 187.777344 78.292969 M 186.78125 78.292969 C 186.78125 77.191406 185.890625 76.300781 184.789062 76.300781 C 183.691406 76.300781 182.796875 77.191406 182.796875 78.292969 C 182.796875 79.390625 183.691406 80.285156 184.789062 80.285156 C 185.890625 80.285156 186.78125 79.390625 186.78125 78.292969 "/>
</svg>
