<?xml version="1.0" encoding="UTF-8"?>
<svg xmlns="http://www.w3.org/2000/svg" xmlns:xlink="http://www.w3.org/1999/xlink" width="205" height="146.1513" viewBox="0 0 205 146.1513">
<defs>
<clipPath id="clip-0">
<path clip-rule="nonzero" d="M 27 70 L 204.40625 70 L 204.40625 145 L 27 145 Z M 27 70 "/>
</clipPath>
</defs>
<path fill-rule="evenodd" fill="rgb(100%, 100%, 87.799072%)" fill-opacity="1" stroke-width="0.4" stroke-linecap="butt" stroke-linejoin="round" stroke="rgb(62.69989%, 12.5%, 94.099426%)" stroke-opacity="1" stroke-miterlimit="10" d="M 245.198519 165.599164 C 235.258317 165.599164 227.200074 157.540921 227.200074 147.600719 C 227.200074 137.660517 235.258317 129.598345 245.198519 129.598345 C 255.14265 129.598345 263.200893 137.660517 263.200893 147.600719 C 263.200893 157.540921 255.14265 165.599164 245.198519 165.599164 " transform="matrix(0.994227, 0, 0, -0.994227, -60.950842, 221.432144)"/>
<path fill-rule="evenodd" fill="rgb(100%, 100%, 87.799072%)" fill-opacity="1" stroke-width="0.4" stroke-linecap="butt" stroke-linejoin="round" stroke="rgb(62.69989%, 12.5%, 94.099426%)" stroke-opacity="1" stroke-miterlimit="10" d="M 201.198392 163.599336 C 194.57421 163.599336 189.199429 158.228484 189.199429 151.600373 C 189.199429 144.972262 194.57421 139.60141 201.198392 139.60141 C 207.826503 139.60141 213.201284 144.972262 213.201284 151.600373 C 213.201284 158.228484 207.826503 163.599336 201.198392 163.599336 " transform="matrix(0.994227, 0, 0, -0.994227, -60.950842, 221.432144)"/>
<path fill-rule="evenodd" fill="rgb(100%, 100%, 87.799072%)" fill-opacity="1" stroke-width="0.4" stroke-linecap="butt" stroke-linejoin="round" stroke="rgb(62.69989%, 12.5%, 94.099426%)" stroke-opacity="1" stroke-miterlimit="10" d="M 201.198392 127.598518 C 196.782271 127.598518 193.199083 124.01926 193.199083 119.599209 C 193.199083 115.183088 196.782271 111.599901 201.198392 111.599901 C 205.618442 111.599901 209.20163 115.183088 209.20163 119.599209 C 209.20163 124.01926 205.618442 127.598518 201.198392 127.598518 " transform="matrix(0.994227, 0, 0, -0.994227, -60.950842, 221.432144)"/>
<path fill-rule="evenodd" fill="rgb(100%, 100%, 87.799072%)" fill-opacity="1" stroke-width="0.4" stroke-linecap="butt" stroke-linejoin="round" stroke="rgb(62.69989%, 12.5%, 94.099426%)" stroke-opacity="1" stroke-miterlimit="10" d="M 169.201157 127.598518 C 164.781107 127.598518 161.201848 124.01926 161.201848 119.599209 C 161.201848 115.183088 164.781107 111.599901 169.201157 111.599901 C 173.617278 111.599901 177.200466 115.183088 177.200466 119.599209 C 177.200466 124.01926 173.617278 127.598518 169.201157 127.598518 " transform="matrix(0.994227, 0, 0, -0.994227, -60.950842, 221.432144)"/>
<path fill-rule="evenodd" fill="rgb(100%, 100%, 87.799072%)" fill-opacity="1" stroke-width="0.4" stroke-linecap="butt" stroke-linejoin="round" stroke="rgb(62.69989%, 12.5%, 94.099426%)" stroke-opacity="1" stroke-miterlimit="10" d="M 169.201157 167.598991 C 160.361056 167.598991 153.19861 160.436545 153.19861 151.600373 C 153.19861 142.764202 160.361056 135.601756 169.201157 135.601756 C 178.037328 135.601756 185.199774 142.764202 185.199774 151.600373 C 185.199774 160.436545 178.037328 167.598991 169.201157 167.598991 " transform="matrix(0.994227, 0, 0, -0.994227, -60.950842, 221.432144)"/>
<path fill-rule="evenodd" fill="rgb(100%, 100%, 87.799072%)" fill-opacity="1" stroke-width="0.4" stroke-linecap="butt" stroke-linejoin="round" stroke="rgb(62.69989%, 12.5%, 94.099426%)" stroke-opacity="1" stroke-miterlimit="10" d="M 201.198392 195.144744 C 194.825662 195.144744 189.655185 189.974268 189.655185 183.601537 C 189.655185 177.224878 194.825662 172.054402 201.198392 172.054402 C 207.575051 172.054402 212.745528 177.224878 212.745528 183.601537 C 212.745528 189.974268 207.575051 195.144744 201.198392 195.144744 " transform="matrix(0.994227, 0, 0, -0.994227, -60.950842, 221.432144)"/>
<path fill-rule="evenodd" fill="rgb(100%, 100%, 87.799072%)" fill-opacity="1" stroke-width="0.4" stroke-linecap="butt" stroke-linejoin="round" stroke="rgb(62.69989%, 12.5%, 94.099426%)" stroke-opacity="1" stroke-miterlimit="10" d="M 169.201157 196.123049 C 162.282305 196.123049 156.679646 190.51646 156.679646 183.601537 C 156.679646 176.682685 162.282305 171.076097 169.201157 171.076097 C 176.11608 171.076097 181.722668 176.682685 181.722668 183.601537 C 181.722668 190.51646 176.11608 196.123049 169.201157 196.123049 " transform="matrix(0.994227, 0, 0, -0.994227, -60.950842, 221.432144)"/>
<path fill-rule="evenodd" fill="rgb(100%, 100%, 87.799072%)" fill-opacity="1" stroke-width="0.4" stroke-linecap="butt" stroke-linejoin="round" stroke="rgb(62.69989%, 12.5%, 94.099426%)" stroke-opacity="1" stroke-miterlimit="10" d="M 137.199993 200.091272 C 128.092725 200.091272 120.70633 192.708805 120.70633 183.601537 C 120.70633 174.49034 128.092725 167.107874 137.199993 167.107874 C 146.307261 167.107874 153.693656 174.49034 153.693656 183.601537 C 153.693656 192.708805 146.307261 200.091272 137.199993 200.091272 " transform="matrix(0.994227, 0, 0, -0.994227, -60.950842, 221.432144)"/>
<path fill-rule="evenodd" fill="rgb(100%, 100%, 87.799072%)" fill-opacity="1" stroke-width="0.4" stroke-linecap="butt" stroke-linejoin="round" stroke="rgb(62.69989%, 12.5%, 94.099426%)" stroke-opacity="1" stroke-miterlimit="10" d="M 137.199993 156.998728 C 134.217932 156.998728 131.801638 154.582434 131.801638 151.600373 C 131.801638 148.618313 134.217932 146.19809 137.199993 146.19809 C 140.182053 146.19809 142.598348 148.618313 142.598348 151.600373 C 142.598348 154.582434 140.182053 156.998728 137.199993 156.998728 " transform="matrix(0.994227, 0, 0, -0.994227, -60.950842, 221.432144)"/>
<path fill-rule="evenodd" fill="rgb(100%, 100%, 87.799072%)" fill-opacity="1" stroke-width="0.4" stroke-linecap="butt" stroke-linejoin="round" stroke="rgb(62.69989%, 12.5%, 94.099426%)" stroke-opacity="1" stroke-miterlimit="10" d="M 137.199993 134.780609 C 128.815649 134.780609 122.022522 127.983554 122.022522 119.599209 C 122.022522 111.218794 128.815649 104.421739 137.199993 104.421739 C 145.584337 104.421739 152.377463 111.218794 152.377463 119.599209 C 152.377463 127.983554 145.584337 134.780609 137.199993 134.780609 " transform="matrix(0.994227, 0, 0, -0.994227, -60.950842, 221.432144)"/>
<path fill-rule="evenodd" fill="rgb(100%, 100%, 87.799072%)" fill-opacity="1" stroke-width="0.4" stroke-linecap="butt" stroke-linejoin="round" stroke="rgb(62.69989%, 12.5%, 94.099426%)" stroke-opacity="1" stroke-miterlimit="10" d="M 89.200211 177.998878 C 74.619939 177.998878 62.801707 166.180646 62.801707 151.600373 C 62.801707 137.020101 74.619939 125.201869 89.200211 125.201869 C 103.780484 125.201869 115.598716 137.020101 115.598716 151.600373 C 115.598716 166.180646 103.780484 177.998878 89.200211 177.998878 " transform="matrix(0.994227, 0, 0, -0.994227, -60.950842, 221.432144)"/>
<path fill-rule="evenodd" fill="rgb(100%, 100%, 87.799072%)" fill-opacity="1" stroke-width="0.8" stroke-linecap="butt" stroke-linejoin="round" stroke="rgb(54.499817%, 0%, 54.499817%)" stroke-opacity="1" stroke-miterlimit="10" d="M 245.198519 165.599164 C 235.258317 165.599164 227.200074 157.540921 227.200074 147.600719 C 227.200074 137.660517 235.258317 129.598345 245.198519 129.598345 C 255.14265 129.598345 263.200893 137.660517 263.200893 147.600719 C 263.200893 157.540921 255.14265 165.599164 245.198519 165.599164 " transform="matrix(0.994227, 0, 0, -0.994227, -60.950842, 221.432144)"/>
<path fill-rule="evenodd" fill="rgb(100%, 100%, 87.799072%)" fill-opacity="1" stroke-width="0.8" stroke-linecap="butt" stroke-linejoin="round" stroke="rgb(54.499817%, 0%, 54.499817%)" stroke-opacity="1" stroke-miterlimit="10" d="M 201.198392 163.599336 C 194.57421 163.599336 189.199429 158.228484 189.199429 151.600373 C 189.199429 144.972262 194.57421 139.60141 201.198392 139.60141 C 207.826503 139.60141 213.201284 144.972262 213.201284 151.600373 C 213.201284 158.228484 207.826503 163.599336 201.198392 163.599336 " transform="matrix(0.994227, 0, 0, -0.994227, -60.950842, 221.432144)"/>
<path fill-rule="evenodd" fill="rgb(56.498718%, 93.299866%, 56.498718%)" fill-opacity="1" stroke-width="0.4" stroke-linecap="butt" stroke-linejoin="round" stroke="rgb(54.499817%, 0%, 54.499817%)" stroke-opacity="1" stroke-miterlimit="10" d="M 201.198392 127.598518 C 196.782271 127.598518 193.199083 124.01926 193.199083 119.599209 C 193.199083 115.183088 196.782271 111.599901 201.198392 111.599901 C 205.618442 111.599901 209.20163 115.183088 209.20163 119.599209 C 209.20163 124.01926 205.618442 127.598518 201.198392 127.598518 " transform="matrix(0.994227, 0, 0, -0.994227, -60.950842, 221.432144)"/>
<path fill-rule="evenodd" fill="rgb(100%, 100%, 87.799072%)" fill-opacity="1" stroke-width="0.8" stroke-linecap="butt" stroke-linejoin="round" stroke="rgb(54.499817%, 0%, 54.499817%)" stroke-opacity="1" stroke-miterlimit="10" d="M 169.201157 127.598518 C 164.781107 127.598518 161.201848 124.01926 161.201848 119.599209 C 161.201848 115.183088 164.781107 111.599901 169.201157 111.599901 C 173.617278 111.599901 177.200466 115.183088 177.200466 119.599209 C 177.200466 124.01926 173.617278 127.598518 169.201157 127.598518 " transform="matrix(0.994227, 0, 0, -0.994227, -60.950842, 221.432144)"/>
<path fill-rule="evenodd" fill="rgb(100%, 100%, 87.799072%)" fill-opacity="1" stroke-width="0.8" stroke-linecap="butt" stroke-linejoin="round" stroke="rgb(54.499817%, 0%, 54.499817%)" stroke-opacity="1" stroke-miterlimit="10" d="M 169.201157 167.598991 C 160.361056 167.598991 153.19861 160.436545 153.19861 151.600373 C 153.19861 142.764202 160.361056 135.601756 169.201157 135.601756 C 178.037328 135.601756 185.199774 142.764202 185.199774 151.600373 C 185.199774 160.436545 178.037328 167.598991 169.201157 167.598991 " transform="matrix(0.994227, 0, 0, -0.994227, -60.950842, 221.432144)"/>
<path fill-rule="evenodd" fill="rgb(100%, 100%, 87.799072%)" fill-opacity="1" stroke-width="0.8" stroke-linecap="butt" stroke-linejoin="round" stroke="rgb(54.499817%, 0%, 54.499817%)" stroke-opacity="1" stroke-miterlimit="10" d="M 201.198392 195.144744 C 194.825662 195.144744 189.655185 189.974268 189.655185 183.601537 C 189.655185 177.224878 194.825662 172.054402 201.198392 172.054402 C 207.575051 172.054402 212.745528 177.224878 212.745528 183.601537 C 212.745528 189.974268 207.575051 195.144744 201.198392 195.144744 " transform="matrix(0.994227, 0, 0, -0.994227, -60.950842, 221.432144)"/>
<path fill-rule="evenodd" fill="rgb(100%, 100%, 87.799072%)" fill-opacity="1" stroke-width="0.8" stroke-linecap="butt" stroke-linejoin="round" stroke="rgb(54.499817%, 0%, 54.499817%)" stroke-opacity="1" stroke-miterlimit="10" d="M 169.201157 196.123049 C 162.282305 196.123049 156.679646 190.51646 156.679646 183.601537 C 156.679646 176.682685 162.282305 171.076097 169.201157 171.076097 C 176.11608 171.076097 181.722668 176.682685 181.722668 183.601537 C 181.722668 190.51646 176.11608 196.123049 169.201157 196.123049 " transform="matrix(0.994227, 0, 0, -0.994227, -60.950842, 221.432144)"/>
<path fill-rule="evenodd" fill="rgb(56.498718%, 93.299866%, 56.498718%)" fill-opacity="1" stroke-width="0.4" stroke-linecap="butt" stroke-linejoin="round" stroke="rgb(54.499817%, 0%, 54.499817%)" stroke-opacity="1" stroke-miterlimit="10" d="M 137.199993 200.091272 C 128.092725 200.091272 120.70633 192.708805 120.70633 183.601537 C 120.70633 174.49034 128.092725 167.107874 137.199993 167.107874 C 146.307261 167.107874 153.693656 174.49034 153.693656 183.601537 C 153.693656 192.708805 146.307261 200.091272 137.199993 200.091272 " transform="matrix(0.994227, 0, 0, -0.994227, -60.950842, 221.432144)"/>
<path fill-rule="evenodd" fill="rgb(100%, 100%, 87.799072%)" fill-opacity="1" stroke-width="0.8" stroke-linecap="butt" stroke-linejoin="round" stroke="rgb(54.499817%, 0%, 54.499817%)" stroke-opacity="1" stroke-miterlimit="10" d="M 137.199993 156.998728 C 134.217932 156.998728 131.801638 154.582434 131.801638 151.600373 C 131.801638 148.618313 134.217932 146.19809 137.199993 146.19809 C 140.182053 146.19809 142.598348 148.618313 142.598348 151.600373 C 142.598348 154.582434 140.182053 156.998728 137.199993 156.998728 " transform="matrix(0.994227, 0, 0, -0.994227, -60.950842, 221.432144)"/>
<path fill-rule="evenodd" fill="rgb(100%, 100%, 87.799072%)" fill-opacity="1" stroke-width="0.8" stroke-linecap="butt" stroke-linejoin="round" stroke="rgb(54.499817%, 0%, 54.499817%)" stroke-opacity="1" stroke-miterlimit="10" d="M 137.199993 134.780609 C 128.815649 134.780609 122.022522 127.983554 122.022522 119.599209 C 122.022522 111.218794 128.815649 104.421739 137.199993 104.421739 C 145.584337 104.421739 152.377463 111.218794 152.377463 119.599209 C 152.377463 127.983554 145.584337 134.780609 137.199993 134.780609 " transform="matrix(0.994227, 0, 0, -0.994227, -60.950842, 221.432144)"/>
<path fill-rule="evenodd" fill="rgb(100%, 100%, 87.799072%)" fill-opacity="1" stroke-width="0.8" stroke-linecap="butt" stroke-linejoin="round" stroke="rgb(54.499817%, 0%, 54.499817%)" stroke-opacity="1" stroke-miterlimit="10" d="M 89.200211 177.998878 C 74.619939 177.998878 62.801707 166.180646 62.801707 151.600373 C 62.801707 137.020101 74.619939 125.201869 89.200211 125.201869 C 103.780484 125.201869 115.598716 137.020101 115.598716 151.600373 C 115.598716 166.180646 103.780484 177.998878 89.200211 177.998878 " transform="matrix(0.994227, 0, 0, -0.994227, -60.950842, 221.432144)"/>
<path fill-rule="evenodd" fill="rgb(67.799377%, 84.698486%, 90.19928%)" fill-opacity="1" stroke-width="0.4" stroke-linecap="butt" stroke-linejoin="round" stroke="rgb(93.299866%, 50.999451%, 93.299866%)" stroke-opacity="1" stroke-miterlimit="10" d="M 245.198519 159.599682 C 238.574337 159.599682 233.199556 154.22883 233.199556 147.600719 C 233.199556 140.972608 238.574337 135.601756 245.198519 135.601756 C 251.82663 135.601756 257.201411 140.972608 257.201411 147.600719 C 257.201411 154.22883 251.82663 159.599682 245.198519 159.599682 " transform="matrix(0.994227, 0, 0, -0.994227, -60.950842, 221.432144)"/>
<path fill-rule="evenodd" fill="rgb(67.799377%, 84.698486%, 90.19928%)" fill-opacity="1" stroke-width="0.4" stroke-linecap="butt" stroke-linejoin="round" stroke="rgb(93.299866%, 50.999451%, 93.299866%)" stroke-opacity="1" stroke-miterlimit="10" d="M 201.198392 159.599682 C 196.782271 159.599682 193.199083 156.016495 193.199083 151.600373 C 193.199083 147.180323 196.782271 143.601065 201.198392 143.601065 C 205.618442 143.601065 209.20163 147.180323 209.20163 151.600373 C 209.20163 156.016495 205.618442 159.599682 201.198392 159.599682 " transform="matrix(0.994227, 0, 0, -0.994227, -60.950842, 221.432144)"/>
<path fill-rule="evenodd" fill="rgb(56.498718%, 93.299866%, 56.498718%)" fill-opacity="1" stroke-width="0.4" stroke-linecap="butt" stroke-linejoin="round" stroke="rgb(93.299866%, 50.999451%, 93.299866%)" stroke-opacity="1" stroke-miterlimit="10" d="M 201.198392 127.598518 C 196.782271 127.598518 193.199083 124.01926 193.199083 119.599209 C 193.199083 115.183088 196.782271 111.599901 201.198392 111.599901 C 205.618442 111.599901 209.20163 115.183088 209.20163 119.599209 C 209.20163 124.01926 205.618442 127.598518 201.198392 127.598518 " transform="matrix(0.994227, 0, 0, -0.994227, -60.950842, 221.432144)"/>
<path fill-rule="evenodd" fill="rgb(100%, 60.099792%, 60.099792%)" fill-opacity="1" stroke-width="0.4" stroke-linecap="butt" stroke-linejoin="round" stroke="rgb(93.299866%, 50.999451%, 93.299866%)" stroke-opacity="1" stroke-miterlimit="10" d="M 169.201157 135.601756 C 160.361056 135.601756 153.19861 128.435381 153.19861 119.599209 C 153.19861 110.763038 160.361056 103.600592 169.201157 103.600592 C 178.037328 103.600592 185.199774 110.763038 185.199774 119.599209 C 185.199774 128.435381 178.037328 135.601756 169.201157 135.601756 " transform="matrix(0.994227, 0, 0, -0.994227, -60.950842, 221.432144)"/>
<path fill-rule="evenodd" fill="rgb(67.799377%, 84.698486%, 90.19928%)" fill-opacity="1" stroke-width="0.4" stroke-linecap="butt" stroke-linejoin="round" stroke="rgb(93.299866%, 50.999451%, 93.299866%)" stroke-opacity="1" stroke-miterlimit="10" d="M 169.201157 159.599682 C 164.781107 159.599682 161.201848 156.016495 161.201848 151.600373 C 161.201848 147.180323 164.781107 143.601065 169.201157 143.601065 C 173.617278 143.601065 177.200466 147.180323 177.200466 151.600373 C 177.200466 156.016495 173.617278 159.599682 169.201157 159.599682 " transform="matrix(0.994227, 0, 0, -0.994227, -60.950842, 221.432144)"/>
<path fill-rule="evenodd" fill="rgb(100%, 60.099792%, 60.099792%)" fill-opacity="1" stroke-width="0.4" stroke-linecap="butt" stroke-linejoin="round" stroke="rgb(93.299866%, 50.999451%, 93.299866%)" stroke-opacity="1" stroke-miterlimit="10" d="M 201.198392 200.091272 C 192.091124 200.091272 184.708658 192.708805 184.708658 183.601537 C 184.708658 174.49034 192.091124 167.107874 201.198392 167.107874 C 210.309589 167.107874 217.692055 174.49034 217.692055 183.601537 C 217.692055 192.708805 210.309589 200.091272 201.198392 200.091272 " transform="matrix(0.994227, 0, 0, -0.994227, -60.950842, 221.432144)"/>
<path fill-rule="evenodd" fill="rgb(67.799377%, 84.698486%, 90.19928%)" fill-opacity="1" stroke-width="0.4" stroke-linecap="butt" stroke-linejoin="round" stroke="rgb(93.299866%, 50.999451%, 93.299866%)" stroke-opacity="1" stroke-miterlimit="10" d="M 169.201157 192.54379 C 164.258558 192.54379 160.254975 188.540207 160.254975 183.601537 C 160.254975 178.658939 164.258558 174.655356 169.201157 174.655356 C 174.139826 174.655356 178.14341 178.658939 178.14341 183.601537 C 178.14341 188.540207 174.139826 192.54379 169.201157 192.54379 " transform="matrix(0.994227, 0, 0, -0.994227, -60.950842, 221.432144)"/>
<path fill-rule="evenodd" fill="rgb(56.498718%, 93.299866%, 56.498718%)" fill-opacity="1" stroke-width="0.4" stroke-linecap="butt" stroke-linejoin="round" stroke="rgb(93.299866%, 50.999451%, 93.299866%)" stroke-opacity="1" stroke-miterlimit="10" d="M 137.199993 200.091272 C 128.092725 200.091272 120.70633 192.708805 120.70633 183.601537 C 120.70633 174.49034 128.092725 167.107874 137.199993 167.107874 C 146.307261 167.107874 153.693656 174.49034 153.693656 183.601537 C 153.693656 192.708805 146.307261 200.091272 137.199993 200.091272 " transform="matrix(0.994227, 0, 0, -0.994227, -60.950842, 221.432144)"/>
<path fill-rule="evenodd" fill="rgb(100%, 60.099792%, 60.099792%)" fill-opacity="1" stroke-width="0.4" stroke-linecap="butt" stroke-linejoin="round" stroke="rgb(93.299866%, 50.999451%, 93.299866%)" stroke-opacity="1" stroke-miterlimit="10" d="M 137.199993 163.599336 C 130.571882 163.599336 125.20103 158.228484 125.20103 151.600373 C 125.20103 144.972262 130.571882 139.60141 137.199993 139.60141 C 143.828104 139.60141 149.198956 144.972262 149.198956 151.600373 C 149.198956 158.228484 143.828104 163.599336 137.199993 163.599336 " transform="matrix(0.994227, 0, 0, -0.994227, -60.950842, 221.432144)"/>
<path fill-rule="evenodd" fill="rgb(67.799377%, 84.698486%, 90.19928%)" fill-opacity="1" stroke-width="0.4" stroke-linecap="butt" stroke-linejoin="round" stroke="rgb(93.299866%, 50.999451%, 93.299866%)" stroke-opacity="1" stroke-miterlimit="10" d="M 137.199993 132.250375 C 130.214349 132.250375 124.552756 126.584853 124.552756 119.599209 C 124.552756 112.613565 130.214349 106.951972 137.199993 106.951972 C 144.185637 106.951972 149.84723 112.613565 149.84723 119.599209 C 149.84723 126.584853 144.185637 132.250375 137.199993 132.250375 " transform="matrix(0.994227, 0, 0, -0.994227, -60.950842, 221.432144)"/>
<path fill-rule="evenodd" fill="rgb(67.799377%, 84.698486%, 90.19928%)" fill-opacity="1" stroke-width="0.4" stroke-linecap="butt" stroke-linejoin="round" stroke="rgb(93.299866%, 50.999451%, 93.299866%)" stroke-opacity="1" stroke-miterlimit="10" d="M 89.200211 167.598991 C 80.36404 167.598991 73.201594 160.436545 73.201594 151.600373 C 73.201594 142.764202 80.36404 135.601756 89.200211 135.601756 C 98.036383 135.601756 105.198829 142.764202 105.198829 151.600373 C 105.198829 160.436545 98.036383 167.598991 89.200211 167.598991 " transform="matrix(0.994227, 0, 0, -0.994227, -60.950842, 221.432144)"/>
<path fill-rule="evenodd" fill="rgb(74.499512%, 74.499512%, 74.499512%)" fill-opacity="1" stroke-width="0.4" stroke-linecap="butt" stroke-linejoin="round" stroke="rgb(93.299866%, 50.999451%, 93.299866%)" stroke-opacity="1" stroke-miterlimit="10" d="M 245.198519 159.599682 C 238.574337 159.599682 233.199556 154.22883 233.199556 147.600719 C 233.199556 140.972608 238.574337 135.601756 245.198519 135.601756 C 251.82663 135.601756 257.201411 140.972608 257.201411 147.600719 C 257.201411 154.22883 251.82663 159.599682 245.198519 159.599682 " transform="matrix(0.994227, 0, 0, -0.994227, -60.950842, 221.432144)"/>
<path fill-rule="evenodd" fill="rgb(74.499512%, 74.499512%, 74.499512%)" fill-opacity="1" stroke-width="0.4" stroke-linecap="butt" stroke-linejoin="round" stroke="rgb(93.299866%, 50.999451%, 93.299866%)" stroke-opacity="1" stroke-miterlimit="10" d="M 201.198392 159.599682 C 196.782271 159.599682 193.199083 156.016495 193.199083 151.600373 C 193.199083 147.180323 196.782271 143.601065 201.198392 143.601065 C 205.618442 143.601065 209.20163 147.180323 209.20163 151.600373 C 209.20163 156.016495 205.618442 159.599682 201.198392 159.599682 " transform="matrix(0.994227, 0, 0, -0.994227, -60.950842, 221.432144)"/>
<path fill-rule="evenodd" fill="rgb(74.499512%, 74.499512%, 74.499512%)" fill-opacity="1" stroke-width="0.4" stroke-linecap="butt" stroke-linejoin="round" stroke="rgb(93.299866%, 50.999451%, 93.299866%)" stroke-opacity="1" stroke-miterlimit="10" d="M 201.198392 127.598518 C 196.782271 127.598518 193.199083 124.01926 193.199083 119.599209 C 193.199083 115.183088 196.782271 111.599901 201.198392 111.599901 C 205.618442 111.599901 209.20163 115.183088 209.20163 119.599209 C 209.20163 124.01926 205.618442 127.598518 201.198392 127.598518 " transform="matrix(0.994227, 0, 0, -0.994227, -60.950842, 221.432144)"/>
<path fill-rule="evenodd" fill="rgb(74.499512%, 74.499512%, 74.499512%)" fill-opacity="1" stroke-width="0.4" stroke-linecap="butt" stroke-linejoin="round" stroke="rgb(93.299866%, 50.999451%, 93.299866%)" stroke-opacity="1" stroke-miterlimit="10" d="M 169.201157 135.601756 C 160.361056 135.601756 153.19861 128.435381 153.19861 119.599209 C 153.19861 110.763038 160.361056 103.600592 169.201157 103.600592 C 178.037328 103.600592 185.199774 110.763038 185.199774 119.599209 C 185.199774 128.435381 178.037328 135.601756 169.201157 135.601756 " transform="matrix(0.994227, 0, 0, -0.994227, -60.950842, 221.432144)"/>
<path fill-rule="evenodd" fill="rgb(74.499512%, 74.499512%, 74.499512%)" fill-opacity="1" stroke-width="0.4" stroke-linecap="butt" stroke-linejoin="round" stroke="rgb(93.299866%, 50.999451%, 93.299866%)" stroke-opacity="1" stroke-miterlimit="10" d="M 169.201157 159.599682 C 164.781107 159.599682 161.201848 156.016495 161.201848 151.600373 C 161.201848 147.180323 164.781107 143.601065 169.201157 143.601065 C 173.617278 143.601065 177.200466 147.180323 177.200466 151.600373 C 177.200466 156.016495 173.617278 159.599682 169.201157 159.599682 " transform="matrix(0.994227, 0, 0, -0.994227, -60.950842, 221.432144)"/>
<path fill-rule="evenodd" fill="rgb(74.499512%, 74.499512%, 74.499512%)" fill-opacity="1" stroke-width="0.4" stroke-linecap="butt" stroke-linejoin="round" stroke="rgb(93.299866%, 50.999451%, 93.299866%)" stroke-opacity="1" stroke-miterlimit="10" d="M 201.198392 200.091272 C 192.091124 200.091272 184.708658 192.708805 184.708658 183.601537 C 184.708658 174.49034 192.091124 167.107874 201.198392 167.107874 C 210.309589 167.107874 217.692055 174.49034 217.692055 183.601537 C 217.692055 192.708805 210.309589 200.091272 201.198392 200.091272 " transform="matrix(0.994227, 0, 0, -0.994227, -60.950842, 221.432144)"/>
<path fill-rule="evenodd" fill="rgb(74.499512%, 74.499512%, 74.499512%)" fill-opacity="1" stroke-width="0.4" stroke-linecap="butt" stroke-linejoin="round" stroke="rgb(93.299866%, 50.999451%, 93.299866%)" stroke-opacity="1" stroke-miterlimit="10" d="M 169.201157 192.54379 C 164.258558 192.54379 160.254975 188.540207 160.254975 183.601537 C 160.254975 178.658939 164.258558 174.655356 169.201157 174.655356 C 174.139826 174.655356 178.14341 178.658939 178.14341 183.601537 C 178.14341 188.540207 174.139826 192.54379 169.201157 192.54379 " transform="matrix(0.994227, 0, 0, -0.994227, -60.950842, 221.432144)"/>
<path fill-rule="evenodd" fill="rgb(74.499512%, 74.499512%, 74.499512%)" fill-opacity="1" stroke-width="0.4" stroke-linecap="butt" stroke-linejoin="round" stroke="rgb(93.299866%, 50.999451%, 93.299866%)" stroke-opacity="1" stroke-miterlimit="10" d="M 137.199993 200.091272 C 128.092725 200.091272 120.70633 192.708805 120.70633 183.601537 C 120.70633 174.49034 128.092725 167.107874 137.199993 167.107874 C 146.307261 167.107874 153.693656 174.49034 153.693656 183.601537 C 153.693656 192.708805 146.307261 200.091272 137.199993 200.091272 " transform="matrix(0.994227, 0, 0, -0.994227, -60.950842, 221.432144)"/>
<path fill-rule="evenodd" fill="rgb(74.499512%, 74.499512%, 74.499512%)" fill-opacity="1" stroke-width="0.4" stroke-linecap="butt" stroke-linejoin="round" stroke="rgb(93.299866%, 50.999451%, 93.299866%)" stroke-opacity="1" stroke-miterlimit="10" d="M 137.199993 163.599336 C 130.571882 163.599336 125.20103 158.228484 125.20103 151.600373 C 125.20103 144.972262 130.571882 139.60141 137.199993 139.60141 C 143.828104 139.60141 149.198956 144.972262 149.198956 151.600373 C 149.198956 158.228484 143.828104 163.599336 137.199993 163.599336 " transform="matrix(0.994227, 0, 0, -0.994227, -60.950842, 221.432144)"/>
<path fill-rule="evenodd" fill="rgb(74.499512%, 74.499512%, 74.499512%)" fill-opacity="1" stroke-width="0.4" stroke-linecap="butt" stroke-linejoin="round" stroke="rgb(93.299866%, 50.999451%, 93.299866%)" stroke-opacity="1" stroke-miterlimit="10" d="M 137.199993 132.250375 C 130.214349 132.250375 124.552756 126.584853 124.552756 119.599209 C 124.552756 112.613565 130.214349 106.951972 137.199993 106.951972 C 144.185637 106.951972 149.84723 112.613565 149.84723 119.599209 C 149.84723 126.584853 144.185637 132.250375 137.199993 132.250375 " transform="matrix(0.994227, 0, 0, -0.994227, -60.950842, 221.432144)"/>
<path fill-rule="evenodd" fill="rgb(74.499512%, 74.499512%, 74.499512%)" fill-opacity="1" stroke-width="0.4" stroke-linecap="butt" stroke-linejoin="round" stroke="rgb(93.299866%, 50.999451%, 93.299866%)" stroke-opacity="1" stroke-miterlimit="10" d="M 89.200211 167.598991 C 80.36404 167.598991 73.201594 160.436545 73.201594 151.600373 C 73.201594 142.764202 80.36404 135.601756 89.200211 135.601756 C 98.036383 135.601756 105.198829 142.764202 105.198829 151.600373 C 105.198829 160.436545 98.036383 167.598991 89.200211 167.598991 " transform="matrix(0.994227, 0, 0, -0.994227, -60.950842, 221.432144)"/>
<path fill="none" stroke-width="0.4" stroke-linecap="butt" stroke-linejoin="round" stroke="rgb(0%, 0%, 54.499817%)" stroke-opacity="1" stroke-miterlimit="10" d="M 137.199993 119.599209 L 137.199993 151.600373 " transform="matrix(0.994227, 0, 0, -0.994227, -60.950842, 221.432144)"/>
<path fill="none" stroke-width="0.4" stroke-linecap="butt" stroke-linejoin="round" stroke="rgb(0%, 0%, 0%)" stroke-opacity="1" stroke-miterlimit="10" d="M 137.199993 151.600373 L 169.201157 151.600373 " transform="matrix(0.994227, 0, 0, -0.994227, -60.950842, 221.432144)"/>
<path fill="none" stroke-width="0.4" stroke-linecap="butt" stroke-linejoin="round" stroke="rgb(0%, 0%, 0%)" stroke-opacity="1" stroke-miterlimit="10" d="M 169.201157 151.600373 L 169.201157 183.601537 " transform="matrix(0.994227, 0, 0, -0.994227, -60.950842, 221.432144)"/>
<path fill="none" stroke-width="0.4" stroke-linecap="butt" stroke-linejoin="round" stroke="rgb(0%, 0%, 0%)" stroke-opacity="1" stroke-miterlimit="10" d="M 201.198392 183.601537 L 201.198392 151.600373 " transform="matrix(0.994227, 0, 0, -0.994227, -60.950842, 221.432144)"/>
<path fill="none" stroke-width="0.4" stroke-linecap="butt" stroke-linejoin="round" stroke="rgb(0%, 0%, 0%)" stroke-opacity="1" stroke-miterlimit="10" d="M 169.201157 119.599209 C 185.199774 135.601756 185.199774 119.599209 189.199429 111.599901 C 193.199083 103.600592 201.198392 103.600592 201.198392 119.599209 " transform="matrix(0.994227, 0, 0, -0.994227, -60.950842, 221.432144)"/>
<path fill="none" stroke-width="0.4" stroke-linecap="butt" stroke-linejoin="round" stroke="rgb(0%, 0%, 54.499817%)" stroke-opacity="1" stroke-miterlimit="10" d="M 169.201157 119.599209 C 169.201157 135.601756 185.199774 135.601756 169.201157 151.600373 " transform="matrix(0.994227, 0, 0, -0.994227, -60.950842, 221.432144)"/>
<path fill="none" stroke-width="0.4" stroke-linecap="butt" stroke-linejoin="round" stroke="rgb(0%, 0%, 0%)" stroke-opacity="1" stroke-miterlimit="10" d="M 169.201157 151.600373 C 177.200466 167.598991 181.20012 159.599682 185.199774 158.601733 C 189.199429 157.599855 193.199083 163.599336 201.198392 151.600373 " transform="matrix(0.994227, 0, 0, -0.994227, -60.950842, 221.432144)"/>
<path fill="none" stroke-width="0.4" stroke-linecap="butt" stroke-linejoin="round" stroke="rgb(0%, 0%, 0%)" stroke-opacity="1" stroke-miterlimit="10" d="M 137.199993 151.600373 C 142.531556 159.599682 142.531556 170.266737 137.199993 183.601537 " transform="matrix(0.994227, 0, 0, -0.994227, -60.950842, 221.432144)"/>
<path fill="none" stroke-width="0.4" stroke-linecap="butt" stroke-linejoin="round" stroke="rgb(0%, 0%, 54.499817%)" stroke-opacity="1" stroke-miterlimit="10" d="M 137.199993 183.601537 C 147.867048 175.5983 158.534102 175.5983 169.201157 183.601537 " transform="matrix(0.994227, 0, 0, -0.994227, -60.950842, 221.432144)"/>
<path fill="none" stroke-width="0.4" stroke-linecap="butt" stroke-linejoin="round" stroke="rgb(0%, 0%, 54.499817%)" stroke-opacity="1" stroke-miterlimit="10" d="M 137.199993 119.599209 C 150.534793 127.598518 161.201848 127.598518 169.201157 119.599209 " transform="matrix(0.994227, 0, 0, -0.994227, -60.950842, 221.432144)"/>
<path fill="none" stroke-width="0.4" stroke-linecap="butt" stroke-linejoin="round" stroke="rgb(0%, 0%, 54.499817%)" stroke-opacity="1" stroke-miterlimit="10" d="M 89.200211 151.600373 L 137.199993 119.599209 " transform="matrix(0.994227, 0, 0, -0.994227, -60.950842, 221.432144)"/>
<path fill="none" stroke-width="0.4" stroke-linecap="butt" stroke-linejoin="round" stroke="rgb(0%, 0%, 0%)" stroke-opacity="1" stroke-miterlimit="10" d="M 89.200211 151.600373 C 113.198138 148.932627 129.200684 148.932627 137.199993 151.600373 " transform="matrix(0.994227, 0, 0, -0.994227, -60.950842, 221.432144)"/>
<path fill="none" stroke-width="0.4" stroke-linecap="butt" stroke-linejoin="round" stroke="rgb(0%, 0%, 54.499817%)" stroke-opacity="1" stroke-miterlimit="10" d="M 89.200211 151.600373 L 137.199993 183.601537 " transform="matrix(0.994227, 0, 0, -0.994227, -60.950842, 221.432144)"/>
<path fill="none" stroke-width="0.4" stroke-linecap="butt" stroke-linejoin="round" stroke="rgb(0%, 0%, 54.499817%)" stroke-opacity="1" stroke-miterlimit="10" d="M 89.200211 151.600373 C 121.201375 203.599809 129.200684 235.600973 169.201157 183.601537 " transform="matrix(0.994227, 0, 0, -0.994227, -60.950842, 221.432144)"/>
<path fill="none" stroke-width="0.4" stroke-linecap="butt" stroke-linejoin="round" stroke="rgb(0%, 0%, 0%)" stroke-opacity="1" stroke-miterlimit="10" d="M 201.198392 183.601537 C 177.200466 219.598427 159.198092 223.598081 140.201698 221.598254 C 121.201375 219.598427 101.199174 211.599118 89.200211 151.600373 " transform="matrix(0.994227, 0, 0, -0.994227, -60.950842, 221.432144)"/>
<path fill="none" stroke-width="0.4" stroke-linecap="butt" stroke-linejoin="round" stroke="rgb(0%, 0%, 0%)" stroke-opacity="1" stroke-miterlimit="10" d="M 245.198519 147.600719 C 223.868339 123.598864 209.20163 114.267646 201.198392 119.599209 " transform="matrix(0.994227, 0, 0, -0.994227, -60.950842, 221.432144)"/>
<path fill="none" stroke-width="0.4" stroke-linecap="butt" stroke-linejoin="round" stroke="rgb(0%, 0%, 0%)" stroke-opacity="1" stroke-miterlimit="10" d="M 169.201157 119.599209 C 185.199774 95.601283 203.198219 89.601801 218.866806 91.267669 C 234.531464 92.933537 247.866265 102.268683 250.534011 108.932155 C 253.201757 115.599555 245.198519 119.599209 245.198519 147.600719 " transform="matrix(0.994227, 0, 0, -0.994227, -60.950842, 221.432144)"/>
<path fill="none" stroke-width="0.4" stroke-linecap="butt" stroke-linejoin="round" stroke="rgb(0%, 0%, 0%)" stroke-opacity="1" stroke-miterlimit="10" d="M 137.199993 119.599209 C 181.20012 83.598391 199.198565 83.598391 213.531314 84.934228 C 227.867993 86.266137 238.531119 88.933883 247.866265 95.267324 C 257.201411 101.600765 265.20072 111.599901 245.198519 147.600719 " transform="matrix(0.994227, 0, 0, -0.994227, -60.950842, 221.432144)"/>
<path fill="none" stroke-width="0.4" stroke-linecap="butt" stroke-linejoin="round" stroke="rgb(0%, 0%, 54.499817%)" stroke-opacity="1" stroke-miterlimit="10" d="M 201.198392 151.600373 C 233.199556 147.600719 237.19921 155.600028 245.198519 147.600719 " transform="matrix(0.994227, 0, 0, -0.994227, -60.950842, 221.432144)"/>
<path fill="none" stroke-width="0.4" stroke-linecap="butt" stroke-linejoin="round" stroke="rgb(0%, 0%, 54.499817%)" stroke-opacity="1" stroke-miterlimit="10" d="M 201.198392 183.601537 C 230.53181 172.934483 245.198519 160.931591 245.198519 147.600719 " transform="matrix(0.994227, 0, 0, -0.994227, -60.950842, 221.432144)"/>
<g clip-path="url(#clip-0)">
<path fill="none" stroke-width="0.4" stroke-linecap="butt" stroke-linejoin="round" stroke="rgb(0%, 0%, 0%)" stroke-opacity="1" stroke-miterlimit="10" d="M 89.200211 151.600373 C 153.19861 79.598737 171.200984 77.598909 191.533215 77.26495 C 211.865447 76.93492 234.531464 78.266828 247.866265 84.26631 C 261.201065 90.265791 265.20072 100.932846 266.198669 108.268165 C 267.200547 115.599555 265.20072 119.599209 245.198519 147.600719 " transform="matrix(0.994227, 0, 0, -0.994227, -60.950842, 221.432144)"/>
</g>
<path fill="none" stroke-width="0.4" stroke-linecap="butt" stroke-linejoin="round" stroke="rgb(0%, 0%, 54.499817%)" stroke-opacity="1" stroke-miterlimit="10" d="M 137.199993 151.600373 C 149.198956 131.598172 161.201848 139.60141 169.201157 119.599209 " transform="matrix(0.994227, 0, 0, -0.994227, -60.950842, 221.432144)"/>
<path fill="none" stroke-width="0.4" stroke-linecap="butt" stroke-linejoin="round" stroke="rgb(0%, 0%, 54.499817%)" stroke-opacity="1" stroke-miterlimit="10" d="M 137.199993 151.600373 C 145.199302 159.599682 165.201502 159.599682 169.201157 183.601537 " transform="matrix(0.994227, 0, 0, -0.994227, -60.950842, 221.432144)"/>
<path fill="none" stroke-width="0.4" stroke-linecap="butt" stroke-linejoin="round" stroke="rgb(0%, 0%, 54.499817%)" stroke-opacity="1" stroke-miterlimit="10" d="M 169.201157 183.601537 C 177.200466 171.598645 193.199083 179.601883 201.198392 183.601537 " transform="matrix(0.994227, 0, 0, -0.994227, -60.950842, 221.432144)"/>
<path fill="none" stroke-width="0.4" stroke-linecap="butt" stroke-linejoin="round" stroke="rgb(0%, 0%, 54.499817%)" stroke-opacity="1" stroke-miterlimit="10" d="M 201.198392 183.601537 C 181.20012 167.598991 173.200811 171.598645 169.201157 151.600373 " transform="matrix(0.994227, 0, 0, -0.994227, -60.950842, 221.432144)"/>
<path fill="none" stroke-width="0.4" stroke-linecap="butt" stroke-linejoin="round" stroke="rgb(0%, 0%, 54.499817%)" stroke-opacity="1" stroke-miterlimit="10" d="M 201.198392 151.600373 C 217.200938 143.601065 215.201111 137.601583 211.201457 134.599878 C 207.201802 131.598172 201.198392 131.598172 201.198392 119.599209 " transform="matrix(0.994227, 0, 0, -0.994227, -60.950842, 221.432144)"/>
<path fill="none" stroke-width="0.4" stroke-linecap="butt" stroke-linejoin="round" stroke="rgb(0%, 0%, 54.499817%)" stroke-opacity="1" stroke-miterlimit="10" d="M 201.198392 151.600373 C 193.199083 135.601756 177.200466 131.598172 169.201157 119.599209 " transform="matrix(0.994227, 0, 0, -0.994227, -60.950842, 221.432144)"/>
<path fill="none" stroke-width="0.4" stroke-linecap="butt" stroke-linejoin="round" stroke="rgb(66.299438%, 66.299438%, 66.299438%)" stroke-opacity="1" stroke-miterlimit="10" d="M 245.198519 159.599682 C 238.574337 159.599682 233.199556 154.22883 233.199556 147.600719 C 233.199556 140.972608 238.574337 135.601756 245.198519 135.601756 C 251.82663 135.601756 257.201411 140.972608 257.201411 147.600719 C 257.201411 154.22883 251.82663 159.599682 245.198519 159.599682 " transform="matrix(0.994227, 0, 0, -0.994227, -60.950842, 221.432144)"/>
<path fill="none" stroke-width="0.4" stroke-linecap="butt" stroke-linejoin="round" stroke="rgb(66.299438%, 66.299438%, 66.299438%)" stroke-opacity="1" stroke-miterlimit="10" d="M 201.198392 159.599682 C 196.782271 159.599682 193.199083 156.016495 193.199083 151.600373 C 193.199083 147.180323 196.782271 143.601065 201.198392 143.601065 C 205.618442 143.601065 209.20163 147.180323 209.20163 151.600373 C 209.20163 156.016495 205.618442 159.599682 201.198392 159.599682 " transform="matrix(0.994227, 0, 0, -0.994227, -60.950842, 221.432144)"/>
<path fill="none" stroke-width="0.4" stroke-linecap="butt" stroke-linejoin="round" stroke="rgb(66.299438%, 66.299438%, 66.299438%)" stroke-opacity="1" stroke-miterlimit="10" d="M 169.201157 135.601756 C 160.361056 135.601756 153.19861 128.435381 153.19861 119.599209 C 153.19861 110.763038 160.361056 103.600592 169.201157 103.600592 C 178.037328 103.600592 185.199774 110.763038 185.199774 119.599209 C 185.199774 128.435381 178.037328 135.601756 169.201157 135.601756 " transform="matrix(0.994227, 0, 0, -0.994227, -60.950842, 221.432144)"/>
<path fill="none" stroke-width="0.4" stroke-linecap="butt" stroke-linejoin="round" stroke="rgb(66.299438%, 66.299438%, 66.299438%)" stroke-opacity="1" stroke-miterlimit="10" d="M 169.201157 159.599682 C 164.781107 159.599682 161.201848 156.016495 161.201848 151.600373 C 161.201848 147.180323 164.781107 143.601065 169.201157 143.601065 C 173.617278 143.601065 177.200466 147.180323 177.200466 151.600373 C 177.200466 156.016495 173.617278 159.599682 169.201157 159.599682 " transform="matrix(0.994227, 0, 0, -0.994227, -60.950842, 221.432144)"/>
<path fill="none" stroke-width="0.4" stroke-linecap="butt" stroke-linejoin="round" stroke="rgb(66.299438%, 66.299438%, 66.299438%)" stroke-opacity="1" stroke-miterlimit="10" d="M 201.198392 200.091272 C 192.091124 200.091272 184.708658 192.708805 184.708658 183.601537 C 184.708658 174.49034 192.091124 167.107874 201.198392 167.107874 C 210.309589 167.107874 217.692055 174.49034 217.692055 183.601537 C 217.692055 192.708805 210.309589 200.091272 201.198392 200.091272 " transform="matrix(0.994227, 0, 0, -0.994227, -60.950842, 221.432144)"/>
<path fill="none" stroke-width="0.4" stroke-linecap="butt" stroke-linejoin="round" stroke="rgb(66.299438%, 66.299438%, 66.299438%)" stroke-opacity="1" stroke-miterlimit="10" d="M 169.201157 192.54379 C 164.258558 192.54379 160.254975 188.540207 160.254975 183.601537 C 160.254975 178.658939 164.258558 174.655356 169.201157 174.655356 C 174.139826 174.655356 178.14341 178.658939 178.14341 183.601537 C 178.14341 188.540207 174.139826 192.54379 169.201157 192.54379 " transform="matrix(0.994227, 0, 0, -0.994227, -60.950842, 221.432144)"/>
<path fill="none" stroke-width="0.4" stroke-linecap="butt" stroke-linejoin="round" stroke="rgb(66.299438%, 66.299438%, 66.299438%)" stroke-opacity="1" stroke-miterlimit="10" d="M 137.199993 163.599336 C 130.571882 163.599336 125.20103 158.228484 125.20103 151.600373 C 125.20103 144.972262 130.571882 139.60141 137.199993 139.60141 C 143.828104 139.60141 149.198956 144.972262 149.198956 151.600373 C 149.198956 158.228484 143.828104 163.599336 137.199993 163.599336 " transform="matrix(0.994227, 0, 0, -0.994227, -60.950842, 221.432144)"/>
<path fill="none" stroke-width="0.4" stroke-linecap="butt" stroke-linejoin="round" stroke="rgb(66.299438%, 66.299438%, 66.299438%)" stroke-opacity="1" stroke-miterlimit="10" d="M 137.199993 132.250375 C 130.214349 132.250375 124.552756 126.584853 124.552756 119.599209 C 124.552756 112.613565 130.214349 106.951972 137.199993 106.951972 C 144.185637 106.951972 149.84723 112.613565 149.84723 119.599209 C 149.84723 126.584853 144.185637 132.250375 137.199993 132.250375 " transform="matrix(0.994227, 0, 0, -0.994227, -60.950842, 221.432144)"/>
<path fill="none" stroke-width="0.4" stroke-linecap="butt" stroke-linejoin="round" stroke="rgb(66.299438%, 66.299438%, 66.299438%)" stroke-opacity="1" stroke-miterlimit="10" d="M 89.200211 167.598991 C 80.36404 167.598991 73.201594 160.436545 73.201594 151.600373 C 73.201594 142.764202 80.36404 135.601756 89.200211 135.601756 C 98.036383 135.601756 105.198829 142.764202 105.198829 151.600373 C 105.198829 160.436545 98.036383 167.598991 89.200211 167.598991 " transform="matrix(0.994227, 0, 0, -0.994227, -60.950842, 221.432144)"/>
<path fill-rule="evenodd" fill="rgb(67.799377%, 84.698486%, 90.19928%)" fill-opacity="0.2" stroke-width="0.4" stroke-linecap="butt" stroke-linejoin="round" stroke="rgb(93.299866%, 50.999451%, 93.299866%)" stroke-opacity="0.2" stroke-miterlimit="10" d="M 245.198519 159.599682 C 238.574337 159.599682 233.199556 154.22883 233.199556 147.600719 C 233.199556 140.972608 238.574337 135.601756 245.198519 135.601756 C 251.82663 135.601756 257.201411 140.972608 257.201411 147.600719 C 257.201411 154.22883 251.82663 159.599682 245.198519 159.599682 " transform="matrix(0.994227, 0, 0, -0.994227, -60.950842, 221.432144)"/>
<path fill-rule="evenodd" fill="rgb(67.799377%, 84.698486%, 90.19928%)" fill-opacity="0.2" stroke-width="0.4" stroke-linecap="butt" stroke-linejoin="round" stroke="rgb(93.299866%, 50.999451%, 93.299866%)" stroke-opacity="0.2" stroke-miterlimit="10" d="M 201.198392 159.599682 C 196.782271 159.599682 193.199083 156.016495 193.199083 151.600373 C 193.199083 147.180323 196.782271 143.601065 201.198392 143.601065 C 205.618442 143.601065 209.20163 147.180323 209.20163 151.600373 C 209.20163 156.016495 205.618442 159.599682 201.198392 159.599682 " transform="matrix(0.994227, 0, 0, -0.994227, -60.950842, 221.432144)"/>
<path fill-rule="evenodd" fill="rgb(100%, 60.099792%, 60.099792%)" fill-opacity="0.2" stroke-width="0.4" stroke-linecap="butt" stroke-linejoin="round" stroke="rgb(93.299866%, 50.999451%, 93.299866%)" stroke-opacity="0.2" stroke-miterlimit="10" d="M 169.201157 135.601756 C 160.361056 135.601756 153.19861 128.435381 153.19861 119.599209 C 153.19861 110.763038 160.361056 103.600592 169.201157 103.600592 C 178.037328 103.600592 185.199774 110.763038 185.199774 119.599209 C 185.199774 128.435381 178.037328 135.601756 169.201157 135.601756 " transform="matrix(0.994227, 0, 0, -0.994227, -60.950842, 221.432144)"/>
<path fill-rule="evenodd" fill="rgb(67.799377%, 84.698486%, 90.19928%)" fill-opacity="0.2" stroke-width="0.4" stroke-linecap="butt" stroke-linejoin="round" stroke="rgb(93.299866%, 50.999451%, 93.299866%)" stroke-opacity="0.2" stroke-miterlimit="10" d="M 169.201157 159.599682 C 164.781107 159.599682 161.201848 156.016495 161.201848 151.600373 C 161.201848 147.180323 164.781107 143.601065 169.201157 143.601065 C 173.617278 143.601065 177.200466 147.180323 177.200466 151.600373 C 177.200466 156.016495 173.617278 159.599682 169.201157 159.599682 " transform="matrix(0.994227, 0, 0, -0.994227, -60.950842, 221.432144)"/>
<path fill-rule="evenodd" fill="rgb(100%, 60.099792%, 60.099792%)" fill-opacity="0.2" stroke-width="0.4" stroke-linecap="butt" stroke-linejoin="round" stroke="rgb(93.299866%, 50.999451%, 93.299866%)" stroke-opacity="0.2" stroke-miterlimit="10" d="M 201.198392 200.091272 C 192.091124 200.091272 184.708658 192.708805 184.708658 183.601537 C 184.708658 174.49034 192.091124 167.107874 201.198392 167.107874 C 210.309589 167.107874 217.692055 174.49034 217.692055 183.601537 C 217.692055 192.708805 210.309589 200.091272 201.198392 200.091272 " transform="matrix(0.994227, 0, 0, -0.994227, -60.950842, 221.432144)"/>
<path fill-rule="evenodd" fill="rgb(67.799377%, 84.698486%, 90.19928%)" fill-opacity="0.2" stroke-width="0.4" stroke-linecap="butt" stroke-linejoin="round" stroke="rgb(93.299866%, 50.999451%, 93.299866%)" stroke-opacity="0.2" stroke-miterlimit="10" d="M 169.201157 192.54379 C 164.258558 192.54379 160.254975 188.540207 160.254975 183.601537 C 160.254975 178.658939 164.258558 174.655356 169.201157 174.655356 C 174.139826 174.655356 178.14341 178.658939 178.14341 183.601537 C 178.14341 188.540207 174.139826 192.54379 169.201157 192.54379 " transform="matrix(0.994227, 0, 0, -0.994227, -60.950842, 221.432144)"/>
<path fill-rule="evenodd" fill="rgb(100%, 60.099792%, 60.099792%)" fill-opacity="0.2" stroke-width="0.4" stroke-linecap="butt" stroke-linejoin="round" stroke="rgb(93.299866%, 50.999451%, 93.299866%)" stroke-opacity="0.2" stroke-miterlimit="10" d="M 137.199993 163.599336 C 130.571882 163.599336 125.20103 158.228484 125.20103 151.600373 C 125.20103 144.972262 130.571882 139.60141 137.199993 139.60141 C 143.828104 139.60141 149.198956 144.972262 149.198956 151.600373 C 149.198956 158.228484 143.828104 163.599336 137.199993 163.599336 " transform="matrix(0.994227, 0, 0, -0.994227, -60.950842, 221.432144)"/>
<path fill-rule="evenodd" fill="rgb(67.799377%, 84.698486%, 90.19928%)" fill-opacity="0.2" stroke-width="0.4" stroke-linecap="butt" stroke-linejoin="round" stroke="rgb(93.299866%, 50.999451%, 93.299866%)" stroke-opacity="0.2" stroke-miterlimit="10" d="M 137.199993 132.250375 C 130.214349 132.250375 124.552756 126.584853 124.552756 119.599209 C 124.552756 112.613565 130.214349 106.951972 137.199993 106.951972 C 144.185637 106.951972 149.84723 112.613565 149.84723 119.599209 C 149.84723 126.584853 144.185637 132.250375 137.199993 132.250375 " transform="matrix(0.994227, 0, 0, -0.994227, -60.950842, 221.432144)"/>
<path fill-rule="evenodd" fill="rgb(67.799377%, 84.698486%, 90.19928%)" fill-opacity="0.2" stroke-width="0.4" stroke-linecap="butt" stroke-linejoin="round" stroke="rgb(93.299866%, 50.999451%, 93.299866%)" stroke-opacity="0.2" stroke-miterlimit="10" d="M 89.200211 167.598991 C 80.36404 167.598991 73.201594 160.436545 73.201594 151.600373 C 73.201594 142.764202 80.36404 135.601756 89.200211 135.601756 C 98.036383 135.601756 105.198829 142.764202 105.198829 151.600373 C 105.198829 160.436545 98.036383 167.598991 89.200211 167.598991 " transform="matrix(0.994227, 0, 0, -0.994227, -60.950842, 221.432144)"/>
<path fill-rule="evenodd" fill="rgb(100%, 100%, 0%)" fill-opacity="1" d="M 77.941406 102.523438 C 77.941406 101.148438 76.828125 100.035156 75.457031 100.035156 C 74.085938 100.035156 72.972656 101.148438 72.972656 102.523438 C 72.972656 103.894531 74.085938 105.007812 75.457031 105.007812 C 76.828125 105.007812 77.941406 103.894531 77.941406 102.523438 "/>
<path fill-rule="evenodd" fill="rgb(0%, 0%, 0%)" fill-opacity="1" d="M 78.441406 102.523438 C 78.441406 100.875 77.105469 99.539062 75.457031 99.539062 C 73.808594 99.539062 72.472656 100.875 72.472656 102.523438 C 72.472656 104.171875 73.808594 105.503906 75.457031 105.503906 C 77.105469 105.503906 78.441406 104.171875 78.441406 102.523438 M 77.445312 102.523438 C 77.445312 101.425781 76.554688 100.535156 75.457031 100.535156 C 74.359375 100.535156 73.46875 101.425781 73.46875 102.523438 C 73.46875 103.621094 74.359375 104.511719 75.457031 104.511719 C 76.554688 104.511719 77.445312 103.621094 77.445312 102.523438 "/>
<path fill-rule="evenodd" fill="rgb(100%, 100%, 0%)" fill-opacity="1" d="M 77.941406 70.707031 C 77.941406 69.335938 76.828125 68.222656 75.457031 68.222656 C 74.085938 68.222656 72.972656 69.335938 72.972656 70.707031 C 72.972656 72.082031 74.085938 73.191406 75.457031 73.191406 C 76.828125 73.191406 77.941406 72.082031 77.941406 70.707031 "/>
<path fill-rule="evenodd" fill="rgb(0%, 0%, 0%)" fill-opacity="1" d="M 78.441406 70.707031 C 78.441406 69.058594 77.105469 67.726562 75.457031 67.726562 C 73.808594 67.726562 72.472656 69.058594 72.472656 70.707031 C 72.472656 72.355469 73.808594 73.691406 75.457031 73.691406 C 77.105469 73.691406 78.441406 72.355469 78.441406 70.707031 M 77.445312 70.707031 C 77.445312 69.609375 76.554688 68.71875 75.457031 68.71875 C 74.359375 68.71875 73.46875 69.609375 73.46875 70.707031 C 73.46875 71.804688 74.359375 72.695312 75.457031 72.695312 C 76.554688 72.695312 77.445312 71.804688 77.445312 70.707031 "/>
<path fill-rule="evenodd" fill="rgb(100%, 100%, 0%)" fill-opacity="1" d="M 77.941406 38.890625 C 77.941406 37.519531 76.828125 36.40625 75.457031 36.40625 C 74.085938 36.40625 72.972656 37.519531 72.972656 38.890625 C 72.972656 40.265625 74.085938 41.378906 75.457031 41.378906 C 76.828125 41.378906 77.941406 40.265625 77.941406 38.890625 "/>
<path fill-rule="evenodd" fill="rgb(0%, 0%, 0%)" fill-opacity="1" d="M 78.441406 38.890625 C 78.441406 37.246094 77.105469 35.910156 75.457031 35.910156 C 73.808594 35.910156 72.472656 37.246094 72.472656 38.890625 C 72.472656 40.539062 73.808594 41.875 75.457031 41.875 C 77.105469 41.875 78.441406 40.539062 78.441406 38.890625 M 77.445312 38.890625 C 77.445312 37.792969 76.554688 36.902344 75.457031 36.902344 C 74.359375 36.902344 73.46875 37.792969 73.46875 38.890625 C 73.46875 39.992188 74.359375 40.878906 75.457031 40.878906 C 76.554688 40.878906 77.445312 39.992188 77.445312 38.890625 "/>
<path fill-rule="evenodd" fill="rgb(100%, 100%, 0%)" fill-opacity="1" d="M 109.757812 38.890625 C 109.757812 37.519531 108.644531 36.40625 107.273438 36.40625 C 105.898438 36.40625 104.785156 37.519531 104.785156 38.890625 C 104.785156 40.265625 105.898438 41.378906 107.273438 41.378906 C 108.644531 41.378906 109.757812 40.265625 109.757812 38.890625 "/>
<path fill-rule="evenodd" fill="rgb(0%, 0%, 0%)" fill-opacity="1" d="M 110.253906 38.890625 C 110.253906 37.246094 108.917969 35.910156 107.273438 35.910156 C 105.625 35.910156 104.289062 37.246094 104.289062 38.890625 C 104.289062 40.539062 105.625 41.875 107.273438 41.875 C 108.917969 41.875 110.253906 40.539062 110.253906 38.890625 M 109.261719 38.890625 C 109.261719 37.792969 108.371094 36.902344 107.273438 36.902344 C 106.171875 36.902344 105.285156 37.792969 105.285156 38.890625 C 105.285156 39.992188 106.171875 40.878906 107.273438 40.878906 C 108.371094 40.878906 109.261719 39.992188 109.261719 38.890625 "/>
<path fill-rule="evenodd" fill="rgb(100%, 100%, 0%)" fill-opacity="1" d="M 141.574219 38.890625 C 141.574219 37.519531 140.460938 36.40625 139.085938 36.40625 C 137.714844 36.40625 136.601562 37.519531 136.601562 38.890625 C 136.601562 40.265625 137.714844 41.378906 139.085938 41.378906 C 140.460938 41.378906 141.574219 40.265625 141.574219 38.890625 "/>
<path fill-rule="evenodd" fill="rgb(0%, 0%, 0%)" fill-opacity="1" d="M 142.070312 38.890625 C 142.070312 37.246094 140.734375 35.910156 139.085938 35.910156 C 137.441406 35.910156 136.105469 37.246094 136.105469 38.890625 C 136.105469 40.539062 137.441406 41.875 139.085938 41.875 C 140.734375 41.875 142.070312 40.539062 142.070312 38.890625 M 141.074219 38.890625 C 141.074219 37.792969 140.1875 36.902344 139.085938 36.902344 C 137.988281 36.902344 137.097656 37.792969 137.097656 38.890625 C 137.097656 39.992188 137.988281 40.878906 139.085938 40.878906 C 140.1875 40.878906 141.074219 39.992188 141.074219 38.890625 "/>
<path fill-rule="evenodd" fill="rgb(100%, 100%, 0%)" fill-opacity="1" d="M 141.574219 70.707031 C 141.574219 69.335938 140.460938 68.222656 139.085938 68.222656 C 137.714844 68.222656 136.601562 69.335938 136.601562 70.707031 C 136.601562 72.082031 137.714844 73.191406 139.085938 73.191406 C 140.460938 73.191406 141.574219 72.082031 141.574219 70.707031 "/>
<path fill-rule="evenodd" fill="rgb(0%, 0%, 0%)" fill-opacity="1" d="M 142.070312 70.707031 C 142.070312 69.058594 140.734375 67.726562 139.085938 67.726562 C 137.441406 67.726562 136.105469 69.058594 136.105469 70.707031 C 136.105469 72.355469 137.441406 73.691406 139.085938 73.691406 C 140.734375 73.691406 142.070312 72.355469 142.070312 70.707031 M 141.074219 70.707031 C 141.074219 69.609375 140.1875 68.71875 139.085938 68.71875 C 137.988281 68.71875 137.097656 69.609375 137.097656 70.707031 C 137.097656 71.804688 137.988281 72.695312 139.085938 72.695312 C 140.1875 72.695312 141.074219 71.804688 141.074219 70.707031 "/>
<path fill-rule="evenodd" fill="rgb(100%, 100%, 0%)" fill-opacity="1" d="M 109.757812 70.707031 C 109.757812 69.335938 108.644531 68.222656 107.273438 68.222656 C 105.898438 68.222656 104.785156 69.335938 104.785156 70.707031 C 104.785156 72.082031 105.898438 73.191406 107.273438 73.191406 C 108.644531 73.191406 109.757812 72.082031 109.757812 70.707031 "/>
<path fill-rule="evenodd" fill="rgb(0%, 0%, 0%)" fill-opacity="1" d="M 110.253906 70.707031 C 110.253906 69.058594 108.917969 67.726562 107.273438 67.726562 C 105.625 67.726562 104.289062 69.058594 104.289062 70.707031 C 104.289062 72.355469 105.625 73.691406 107.273438 73.691406 C 108.917969 73.691406 110.253906 72.355469 110.253906 70.707031 M 109.261719 70.707031 C 109.261719 69.609375 108.371094 68.71875 107.273438 68.71875 C 106.171875 68.71875 105.285156 69.609375 105.285156 70.707031 C 105.285156 71.804688 106.171875 72.695312 107.273438 72.695312 C 108.371094 72.695312 109.261719 71.804688 109.261719 70.707031 "/>
<path fill-rule="evenodd" fill="rgb(100%, 100%, 0%)" fill-opacity="1" d="M 109.757812 102.523438 C 109.757812 101.148438 108.644531 100.035156 107.273438 100.035156 C 105.898438 100.035156 104.785156 101.148438 104.785156 102.523438 C 104.785156 103.894531 105.898438 105.007812 107.273438 105.007812 C 108.644531 105.007812 109.757812 103.894531 109.757812 102.523438 "/>
<path fill-rule="evenodd" fill="rgb(0%, 0%, 0%)" fill-opacity="1" d="M 110.253906 102.523438 C 110.253906 100.875 108.917969 99.539062 107.273438 99.539062 C 105.625 99.539062 104.289062 100.875 104.289062 102.523438 C 104.289062 104.171875 105.625 105.503906 107.273438 105.503906 C 108.917969 105.503906 110.253906 104.171875 110.253906 102.523438 M 109.261719 102.523438 C 109.261719 101.425781 108.371094 100.535156 107.273438 100.535156 C 106.171875 100.535156 105.285156 101.425781 105.285156 102.523438 C 105.285156 103.621094 106.171875 104.511719 107.273438 104.511719 C 108.371094 104.511719 109.261719 103.621094 109.261719 102.523438 "/>
<path fill-rule="evenodd" fill="rgb(100%, 100%, 0%)" fill-opacity="1" d="M 141.574219 102.523438 C 141.574219 101.148438 140.460938 100.035156 139.085938 100.035156 C 137.714844 100.035156 136.601562 101.148438 136.601562 102.523438 C 136.601562 103.894531 137.714844 105.007812 139.085938 105.007812 C 140.460938 105.007812 141.574219 103.894531 141.574219 102.523438 "/>
<path fill-rule="evenodd" fill="rgb(0%, 0%, 0%)" fill-opacity="1" d="M 142.070312 102.523438 C 142.070312 100.875 140.734375 99.539062 139.085938 99.539062 C 137.441406 99.539062 136.105469 100.875 136.105469 102.523438 C 136.105469 104.171875 137.441406 105.503906 139.085938 105.503906 C 140.734375 105.503906 142.070312 104.171875 142.070312 102.523438 M 141.074219 102.523438 C 141.074219 101.425781 140.1875 100.535156 139.085938 100.535156 C 137.988281 100.535156 137.097656 101.425781 137.097656 102.523438 C 137.097656 103.621094 137.988281 104.511719 139.085938 104.511719 C 140.1875 104.511719 141.074219 103.621094 141.074219 102.523438 "/>
<path fill-rule="evenodd" fill="rgb(100%, 100%, 0%)" fill-opacity="1" d="M 30.21875 70.707031 C 30.21875 69.335938 29.105469 68.222656 27.734375 68.222656 C 26.363281 68.222656 25.25 69.335938 25.25 70.707031 C 25.25 72.082031 26.363281 73.191406 27.734375 73.191406 C 29.105469 73.191406 30.21875 72.082031 30.21875 70.707031 "/>
<path fill-rule="evenodd" fill="rgb(0%, 0%, 0%)" fill-opacity="1" d="M 30.71875 70.707031 C 30.71875 69.058594 29.382812 67.726562 27.734375 67.726562 C 26.085938 67.726562 24.75 69.058594 24.75 70.707031 C 24.75 72.355469 26.085938 73.691406 27.734375 73.691406 C 29.382812 73.691406 30.71875 72.355469 30.71875 70.707031 M 29.722656 70.707031 C 29.722656 69.609375 28.832031 68.71875 27.734375 68.71875 C 26.636719 68.71875 25.746094 69.609375 25.746094 70.707031 C 25.746094 71.804688 26.636719 72.695312 27.734375 72.695312 C 28.832031 72.695312 29.722656 71.804688 29.722656 70.707031 "/>
<path fill-rule="evenodd" fill="rgb(100%, 100%, 0%)" fill-opacity="1" d="M 185.320312 74.683594 C 185.320312 73.3125 184.207031 72.199219 182.832031 72.199219 C 181.460938 72.199219 180.347656 73.3125 180.347656 74.683594 C 180.347656 76.058594 181.460938 77.167969 182.832031 77.167969 C 184.207031 77.167969 185.320312 76.058594 185.320312 74.683594 "/>
<path fill-rule="evenodd" fill="rgb(0%, 0%, 0%)" fill-opacity="1" d="M 185.816406 74.683594 C 185.816406 73.035156 184.480469 71.703125 182.832031 71.703125 C 181.1875 71.703125 179.851562 73.035156 179.851562 74.683594 C 179.851562 76.332031 181.1875 77.667969 182.832031 77.667969 C 184.480469 77.667969 185.816406 76.332031 185.816406 74.683594 M 184.820312 74.683594 C 184.820312 73.585938 183.933594 72.695312 182.832031 72.695312 C 181.734375 72.695312 180.84375 73.585938 180.84375 74.683594 C 180.84375 75.78125 181.734375 76.671875 182.832031 76.671875 C 183.933594 76.671875 184.820312 75.78125 184.820312 74.683594 "/>
</svg>
