<?xml version="1.0" encoding="UTF-8"?>
<svg xmlns="http://www.w3.org/2000/svg" xmlns:xlink="http://www.w3.org/1999/xlink" width="163.4" height="71.4" viewBox="0 0 163.4 71.4">
<defs>
<clipPath id="clip-0">
<path clip-rule="nonzero" d="M 48 64 L 55 64 L 55 70.804688 L 48 70.804688 Z M 48 64 "/>
</clipPath>
<clipPath id="clip-1">
<path clip-rule="nonzero" d="M 80 64 L 87 64 L 87 70.804688 L 80 70.804688 Z M 80 64 "/>
</clipPath>
<clipPath id="clip-2">
<path clip-rule="nonzero" d="M 112 64 L 119 64 L 119 70.804688 L 112 70.804688 Z M 112 64 "/>
</clipPath>
</defs>
<path fill-rule="evenodd" fill="rgb(100%, 100%, 0%)" fill-opacity="1" d="M 54.132812 67.136719 C 54.132812 65.765625 53.023438 64.65625 51.652344 64.65625 C 50.28125 64.65625 49.171875 65.765625 49.171875 67.136719 C 49.171875 68.503906 50.28125 69.613281 51.652344 69.613281 C 53.023438 69.613281 54.132812 68.503906 54.132812 67.136719 "/>
<g clip-path="url(#clip-0)">
<path fill-rule="evenodd" fill="rgb(0%, 0%, 0%)" fill-opacity="1" d="M 54.628906 67.136719 C 54.628906 65.492188 53.296875 64.160156 51.652344 64.160156 C 50.007812 64.160156 48.675781 65.492188 48.675781 67.136719 C 48.675781 68.777344 50.007812 70.109375 51.652344 70.109375 C 53.296875 70.109375 54.628906 68.777344 54.628906 67.136719 M 53.636719 67.136719 C 53.636719 66.039062 52.75 65.152344 51.652344 65.152344 C 50.558594 65.152344 49.667969 66.039062 49.667969 67.136719 C 49.667969 68.230469 50.558594 69.121094 51.652344 69.121094 C 52.75 69.121094 53.636719 68.230469 53.636719 67.136719 "/>
</g>
<path fill-rule="evenodd" fill="rgb(100%, 100%, 0%)" fill-opacity="1" d="M 54.132812 35.402344 C 54.132812 34.03125 53.023438 32.921875 51.652344 32.921875 C 50.28125 32.921875 49.171875 34.03125 49.171875 35.402344 C 49.171875 36.773438 50.28125 37.882812 51.652344 37.882812 C 53.023438 37.882812 54.132812 36.773438 54.132812 35.402344 "/>
<path fill-rule="evenodd" fill="rgb(0%, 0%, 0%)" fill-opacity="1" d="M 54.628906 35.402344 C 54.628906 33.757812 53.296875 32.425781 51.652344 32.425781 C 50.007812 32.425781 48.675781 33.757812 48.675781 35.402344 C 48.675781 37.046875 50.007812 38.378906 51.652344 38.378906 C 53.296875 38.378906 54.628906 37.046875 54.628906 35.402344 M 53.636719 35.402344 C 53.636719 34.308594 52.75 33.417969 51.652344 33.417969 C 50.558594 33.417969 49.667969 34.308594 49.667969 35.402344 C 49.667969 36.5 50.558594 37.386719 51.652344 37.386719 C 52.75 37.386719 53.636719 36.5 53.636719 35.402344 "/>
<path fill-rule="evenodd" fill="rgb(100%, 100%, 0%)" fill-opacity="1" d="M 54.132812 3.667969 C 54.132812 2.300781 53.023438 1.191406 51.652344 1.191406 C 50.28125 1.191406 49.171875 2.300781 49.171875 3.667969 C 49.171875 5.039062 50.28125 6.148438 51.652344 6.148438 C 53.023438 6.148438 54.132812 5.039062 54.132812 3.667969 "/>
<path fill-rule="evenodd" fill="rgb(0%, 0%, 0%)" fill-opacity="1" d="M 54.628906 3.667969 C 54.628906 2.027344 53.296875 0.695312 51.652344 0.695312 C 50.007812 0.695312 48.675781 2.027344 48.675781 3.667969 C 48.675781 5.3125 50.007812 6.644531 51.652344 6.644531 C 53.296875 6.644531 54.628906 5.3125 54.628906 3.667969 M 53.636719 3.667969 C 53.636719 2.574219 52.75 1.6875 51.652344 1.6875 C 50.558594 1.6875 49.667969 2.574219 49.667969 3.667969 C 49.667969 4.765625 50.558594 5.652344 51.652344 5.652344 C 52.75 5.652344 53.636719 4.765625 53.636719 3.667969 "/>
<path fill-rule="evenodd" fill="rgb(100%, 100%, 0%)" fill-opacity="1" d="M 85.863281 3.667969 C 85.863281 2.300781 84.753906 1.191406 83.386719 1.191406 C 82.015625 1.191406 80.90625 2.300781 80.90625 3.667969 C 80.90625 5.039062 82.015625 6.148438 83.386719 6.148438 C 84.753906 6.148438 85.863281 5.039062 85.863281 3.667969 "/>
<path fill-rule="evenodd" fill="rgb(0%, 0%, 0%)" fill-opacity="1" d="M 86.359375 3.667969 C 86.359375 2.027344 85.027344 0.695312 83.386719 0.695312 C 81.742188 0.695312 80.410156 2.027344 80.410156 3.667969 C 80.410156 5.3125 81.742188 6.644531 83.386719 6.644531 C 85.027344 6.644531 86.359375 5.3125 86.359375 3.667969 M 85.371094 3.667969 C 85.371094 2.574219 84.480469 1.6875 83.386719 1.6875 C 82.289062 1.6875 81.402344 2.574219 81.402344 3.667969 C 81.402344 4.765625 82.289062 5.652344 83.386719 5.652344 C 84.480469 5.652344 85.371094 4.765625 85.371094 3.667969 "/>
<path fill-rule="evenodd" fill="rgb(100%, 100%, 0%)" fill-opacity="1" d="M 117.597656 3.667969 C 117.597656 2.300781 116.488281 1.191406 115.121094 1.191406 C 113.75 1.191406 112.640625 2.300781 112.640625 3.667969 C 112.640625 5.039062 113.75 6.148438 115.121094 6.148438 C 116.488281 6.148438 117.597656 5.039062 117.597656 3.667969 "/>
<path fill-rule="evenodd" fill="rgb(0%, 0%, 0%)" fill-opacity="1" d="M 118.09375 3.667969 C 118.09375 2.027344 116.761719 0.695312 115.121094 0.695312 C 113.476562 0.695312 112.144531 2.027344 112.144531 3.667969 C 112.144531 5.3125 113.476562 6.644531 115.121094 6.644531 C 116.761719 6.644531 118.09375 5.3125 118.09375 3.667969 M 117.101562 3.667969 C 117.101562 2.574219 116.214844 1.6875 115.121094 1.6875 C 114.023438 1.6875 113.136719 2.574219 113.136719 3.667969 C 113.136719 4.765625 114.023438 5.652344 115.121094 5.652344 C 116.214844 5.652344 117.101562 4.765625 117.101562 3.667969 "/>
<path fill-rule="evenodd" fill="rgb(100%, 100%, 0%)" fill-opacity="1" d="M 117.597656 35.402344 C 117.597656 34.03125 116.488281 32.921875 115.121094 32.921875 C 113.75 32.921875 112.640625 34.03125 112.640625 35.402344 C 112.640625 36.773438 113.75 37.882812 115.121094 37.882812 C 116.488281 37.882812 117.597656 36.773438 117.597656 35.402344 "/>
<path fill-rule="evenodd" fill="rgb(0%, 0%, 0%)" fill-opacity="1" d="M 118.09375 35.402344 C 118.09375 33.757812 116.761719 32.425781 115.121094 32.425781 C 113.476562 32.425781 112.144531 33.757812 112.144531 35.402344 C 112.144531 37.046875 113.476562 38.378906 115.121094 38.378906 C 116.761719 38.378906 118.09375 37.046875 118.09375 35.402344 M 117.101562 35.402344 C 117.101562 34.308594 116.214844 33.417969 115.121094 33.417969 C 114.023438 33.417969 113.136719 34.308594 113.136719 35.402344 C 113.136719 36.5 114.023438 37.386719 115.121094 37.386719 C 116.214844 37.386719 117.101562 36.5 117.101562 35.402344 "/>
<path fill-rule="evenodd" fill="rgb(100%, 100%, 0%)" fill-opacity="1" d="M 85.863281 35.402344 C 85.863281 34.03125 84.753906 32.921875 83.386719 32.921875 C 82.015625 32.921875 80.90625 34.03125 80.90625 35.402344 C 80.90625 36.773438 82.015625 37.882812 83.386719 37.882812 C 84.753906 37.882812 85.863281 36.773438 85.863281 35.402344 "/>
<path fill-rule="evenodd" fill="rgb(0%, 0%, 0%)" fill-opacity="1" d="M 86.359375 35.402344 C 86.359375 33.757812 85.027344 32.425781 83.386719 32.425781 C 81.742188 32.425781 80.410156 33.757812 80.410156 35.402344 C 80.410156 37.046875 81.742188 38.378906 83.386719 38.378906 C 85.027344 38.378906 86.359375 37.046875 86.359375 35.402344 M 85.371094 35.402344 C 85.371094 34.308594 84.480469 33.417969 83.386719 33.417969 C 82.289062 33.417969 81.402344 34.308594 81.402344 35.402344 C 81.402344 36.5 82.289062 37.386719 83.386719 37.386719 C 84.480469 37.386719 85.371094 36.5 85.371094 35.402344 "/>
<path fill-rule="evenodd" fill="rgb(100%, 100%, 0%)" fill-opacity="1" d="M 85.863281 67.136719 C 85.863281 65.765625 84.753906 64.65625 83.386719 64.65625 C 82.015625 64.65625 80.90625 65.765625 80.90625 67.136719 C 80.90625 68.503906 82.015625 69.613281 83.386719 69.613281 C 84.753906 69.613281 85.863281 68.503906 85.863281 67.136719 "/>
<g clip-path="url(#clip-1)">
<path fill-rule="evenodd" fill="rgb(0%, 0%, 0%)" fill-opacity="1" d="M 86.359375 67.136719 C 86.359375 65.492188 85.027344 64.160156 83.386719 64.160156 C 81.742188 64.160156 80.410156 65.492188 80.410156 67.136719 C 80.410156 68.777344 81.742188 70.109375 83.386719 70.109375 C 85.027344 70.109375 86.359375 68.777344 86.359375 67.136719 M 85.371094 67.136719 C 85.371094 66.039062 84.480469 65.152344 83.386719 65.152344 C 82.289062 65.152344 81.402344 66.039062 81.402344 67.136719 C 81.402344 68.230469 82.289062 69.121094 83.386719 69.121094 C 84.480469 69.121094 85.371094 68.230469 85.371094 67.136719 "/>
</g>
<path fill-rule="evenodd" fill="rgb(100%, 100%, 0%)" fill-opacity="1" d="M 117.597656 67.136719 C 117.597656 65.765625 116.488281 64.65625 115.121094 64.65625 C 113.75 64.65625 112.640625 65.765625 112.640625 67.136719 C 112.640625 68.503906 113.75 69.613281 115.121094 69.613281 C 116.488281 69.613281 117.597656 68.503906 117.597656 67.136719 "/>
<g clip-path="url(#clip-2)">
<path fill-rule="evenodd" fill="rgb(0%, 0%, 0%)" fill-opacity="1" d="M 118.09375 67.136719 C 118.09375 65.492188 116.761719 64.160156 115.121094 64.160156 C 113.476562 64.160156 112.144531 65.492188 112.144531 67.136719 C 112.144531 68.777344 113.476562 70.109375 115.121094 70.109375 C 116.761719 70.109375 118.09375 68.777344 118.09375 67.136719 M 117.101562 67.136719 C 117.101562 66.039062 116.214844 65.152344 115.121094 65.152344 C 114.023438 65.152344 113.136719 66.039062 113.136719 67.136719 C 113.136719 68.230469 114.023438 69.121094 115.121094 69.121094 C 116.214844 69.121094 117.101562 68.230469 117.101562 67.136719 "/>
</g>
<path fill-rule="evenodd" fill="rgb(100%, 100%, 0%)" fill-opacity="1" d="M 6.53125 35.402344 C 6.53125 34.03125 5.421875 32.921875 4.050781 32.921875 C 2.683594 32.921875 1.574219 34.03125 1.574219 35.402344 C 1.574219 36.773438 2.683594 37.882812 4.050781 37.882812 C 5.421875 37.882812 6.53125 36.773438 6.53125 35.402344 "/>
<path fill-rule="evenodd" fill="rgb(0%, 0%, 0%)" fill-opacity="1" d="M 7.027344 35.402344 C 7.027344 33.757812 5.695312 32.425781 4.050781 32.425781 C 2.410156 32.425781 1.078125 33.757812 1.078125 35.402344 C 1.078125 37.046875 2.410156 38.378906 4.050781 38.378906 C 5.695312 38.378906 7.027344 37.046875 7.027344 35.402344 M 6.035156 35.402344 C 6.035156 34.308594 5.148438 33.417969 4.050781 33.417969 C 2.957031 33.417969 2.070312 34.308594 2.070312 35.402344 C 2.070312 36.5 2.957031 37.386719 4.050781 37.386719 C 5.148438 37.386719 6.035156 36.5 6.035156 35.402344 "/>
<path fill-rule="evenodd" fill="rgb(100%, 100%, 0%)" fill-opacity="1" d="M 161.230469 39.371094 C 161.230469 38 160.121094 36.890625 158.753906 36.890625 C 157.382812 36.890625 156.273438 38 156.273438 39.371094 C 156.273438 40.738281 157.382812 41.847656 158.753906 41.847656 C 160.121094 41.847656 161.230469 40.738281 161.230469 39.371094 "/>
<path fill-rule="evenodd" fill="rgb(0%, 0%, 0%)" fill-opacity="1" d="M 161.726562 39.371094 C 161.726562 37.726562 160.394531 36.394531 158.753906 36.394531 C 157.109375 36.394531 155.777344 37.726562 155.777344 39.371094 C 155.777344 41.011719 157.109375 42.34375 158.753906 42.34375 C 160.394531 42.34375 161.726562 41.011719 161.726562 39.371094 M 160.734375 39.371094 C 160.734375 38.273438 159.847656 37.386719 158.753906 37.386719 C 157.65625 37.386719 156.769531 38.273438 156.769531 39.371094 C 156.769531 40.464844 157.65625 41.351562 158.753906 41.351562 C 159.847656 41.351562 160.734375 40.464844 160.734375 39.371094 "/>
</svg>
