<?xml version="1.0" encoding="UTF-8"?>
<svg xmlns="http://www.w3.org/2000/svg" xmlns:xlink="http://www.w3.org/1999/xlink" width="181.8" height="146.9513" viewBox="0 0 181.8 146.9513">
<defs>
<clipPath id="clip-0">
<path clip-rule="nonzero" d="M 3 0.0546875 L 116 0.0546875 L 116 72 L 3 72 Z M 3 0.0546875 "/>
</clipPath>
<clipPath id="clip-1">
<path clip-rule="nonzero" d="M 3 0.0546875 L 117 0.0546875 L 117 73 L 3 73 Z M 3 0.0546875 "/>
</clipPath>
<clipPath id="clip-2">
<path clip-rule="nonzero" d="M 3 70 L 181.601562 70 L 181.601562 146.847656 L 3 146.847656 Z M 3 70 "/>
</clipPath>
</defs>
<path fill="none" stroke-width="0.4" stroke-linecap="butt" stroke-linejoin="round" stroke="rgb(0%, 0%, 0%)" stroke-opacity="1" stroke-miterlimit="10" d="M 137.201346 151.599734 L 169.201355 151.599734 " transform="matrix(0.998901, 0, 0, -0.998901, -85.406044, 222.929235)"/>
<path fill="none" stroke-width="0.4" stroke-linecap="butt" stroke-linejoin="round" stroke="rgb(0%, 0%, 0%)" stroke-opacity="1" stroke-miterlimit="10" d="M 169.201355 151.599734 L 169.201355 183.599743 " transform="matrix(0.998901, 0, 0, -0.998901, -85.406044, 222.929235)"/>
<path fill="none" stroke-width="0.4" stroke-linecap="butt" stroke-linejoin="round" stroke="rgb(0%, 0%, 0%)" stroke-opacity="1" stroke-miterlimit="10" d="M 201.201363 183.599743 L 201.201363 151.599734 " transform="matrix(0.998901, 0, 0, -0.998901, -85.406044, 222.929235)"/>
<path fill="none" stroke-width="0.4" stroke-linecap="butt" stroke-linejoin="round" stroke="rgb(0%, 0%, 0%)" stroke-opacity="1" stroke-miterlimit="10" d="M 169.201355 119.599725 C 185.199404 135.601685 185.199404 119.599725 189.199893 111.598746 C 193.200383 103.601676 201.201363 103.601676 201.201363 119.599725 " transform="matrix(0.998901, 0, 0, -0.998901, -85.406044, 222.929235)"/>
<path fill="none" stroke-width="0.4" stroke-linecap="butt" stroke-linejoin="round" stroke="rgb(0%, 0%, 0%)" stroke-opacity="1" stroke-miterlimit="10" d="M 169.201355 151.599734 C 177.198424 167.601694 181.198914 159.600714 185.199404 158.599614 C 189.199893 157.598514 193.200383 163.601204 201.201363 151.599734 " transform="matrix(0.998901, 0, 0, -0.998901, -85.406044, 222.929235)"/>
<path fill="none" stroke-width="0.4" stroke-linecap="butt" stroke-linejoin="round" stroke="rgb(0%, 0%, 0%)" stroke-opacity="1" stroke-miterlimit="10" d="M 137.201346 151.599734 C 142.531422 159.600714 142.531422 170.268687 137.201346 183.599743 " transform="matrix(0.998901, 0, 0, -0.998901, -85.406044, 222.929235)"/>
<path fill="none" stroke-width="0.4" stroke-linecap="butt" stroke-linejoin="round" stroke="rgb(0%, 0%, 0%)" stroke-opacity="1" stroke-miterlimit="10" d="M 89.199378 151.599734 C 113.198407 148.932741 129.200366 148.932741 137.201346 151.599734 " transform="matrix(0.998901, 0, 0, -0.998901, -85.406044, 222.929235)"/>
<g clip-path="url(#clip-0)">
<path fill="none" stroke-width="0.4" stroke-linecap="butt" stroke-linejoin="round" stroke="rgb(0%, 0%, 0%)" stroke-opacity="1" stroke-miterlimit="10" d="M 201.201363 183.599743 C 177.198424 219.600241 159.198175 223.600731 140.200736 221.598531 C 121.199386 219.600241 101.200847 211.599261 89.199378 151.599734 " transform="matrix(0.998901, 0, 0, -0.998901, -85.406044, 222.929235)"/>
</g>
<path fill="none" stroke-width="0.4" stroke-linecap="butt" stroke-linejoin="round" stroke="rgb(0%, 0%, 0%)" stroke-opacity="1" stroke-miterlimit="10" d="M 245.198931 147.599244 C 223.866895 123.600215 209.198432 114.265739 201.201363 119.599725 " transform="matrix(0.998901, 0, 0, -0.998901, -85.406044, 222.929235)"/>
<path fill="none" stroke-width="0.4" stroke-linecap="butt" stroke-linejoin="round" stroke="rgb(0%, 0%, 0%)" stroke-opacity="1" stroke-miterlimit="10" d="M 169.201355 119.599725 C 185.199404 95.600697 203.199653 89.601917 218.865305 91.26781 C 234.534868 92.933703 247.865924 102.26818 250.532917 108.931752 C 253.199911 115.599235 245.198931 119.599725 245.198931 147.599244 " transform="matrix(0.998901, 0, 0, -0.998901, -85.406044, 222.929235)"/>
<path fill="none" stroke-width="0.4" stroke-linecap="butt" stroke-linejoin="round" stroke="rgb(0%, 0%, 0%)" stroke-opacity="1" stroke-miterlimit="10" d="M 137.201346 119.599725 C 181.198914 83.599227 199.199163 83.599227 213.531319 84.932724 C 227.867385 86.26622 238.531448 88.933213 247.865924 95.2683 C 257.200401 101.599476 265.20138 111.598746 245.198931 147.599244 " transform="matrix(0.998901, 0, 0, -0.998901, -85.406044, 222.929235)"/>
<path fill="none" stroke-width="0.4" stroke-linecap="butt" stroke-linejoin="round" stroke="rgb(0%, 0%, 0%)" stroke-opacity="1" stroke-miterlimit="10" d="M 89.199378 151.599734 C 153.199395 79.598737 171.199644 77.600447 191.53449 77.268051 C 211.865426 76.931744 234.534868 78.26524 247.865924 84.26793 C 261.20089 90.26671 265.20138 100.934683 266.19857 108.266959 C 267.19967 115.599235 265.20138 119.599725 245.198931 147.599244 " transform="matrix(0.998901, 0, 0, -0.998901, -85.406044, 222.929235)"/>
<path fill="none" stroke-width="1.2" stroke-linecap="butt" stroke-linejoin="round" stroke="rgb(0%, 0%, 54.499817%)" stroke-opacity="1" stroke-miterlimit="10" d="M 137.201346 119.599725 L 137.201346 151.599734 " transform="matrix(0.998901, 0, 0, -0.998901, -85.406044, 222.929235)"/>
<path fill="none" stroke-width="1.2" stroke-linecap="butt" stroke-linejoin="round" stroke="rgb(0%, 0%, 54.499817%)" stroke-opacity="1" stroke-miterlimit="10" d="M 169.201355 119.599725 C 169.201355 135.601685 185.199404 135.601685 169.201355 151.599734 " transform="matrix(0.998901, 0, 0, -0.998901, -85.406044, 222.929235)"/>
<path fill="none" stroke-width="1.2" stroke-linecap="butt" stroke-linejoin="round" stroke="rgb(0%, 0%, 54.499817%)" stroke-opacity="1" stroke-miterlimit="10" d="M 137.201346 183.599743 C 147.865408 175.598763 158.533381 175.598763 169.201355 183.599743 " transform="matrix(0.998901, 0, 0, -0.998901, -85.406044, 222.929235)"/>
<path fill="none" stroke-width="1.2" stroke-linecap="butt" stroke-linejoin="round" stroke="rgb(0%, 0%, 54.499817%)" stroke-opacity="1" stroke-miterlimit="10" d="M 137.201346 119.599725 C 150.532402 127.600705 161.200375 127.600705 169.201355 119.599725 " transform="matrix(0.998901, 0, 0, -0.998901, -85.406044, 222.929235)"/>
<path fill="none" stroke-width="1.2" stroke-linecap="butt" stroke-linejoin="round" stroke="rgb(0%, 0%, 54.499817%)" stroke-opacity="1" stroke-miterlimit="10" d="M 89.199378 151.599734 L 137.201346 119.599725 " transform="matrix(0.998901, 0, 0, -0.998901, -85.406044, 222.929235)"/>
<path fill="none" stroke-width="1.2" stroke-linecap="butt" stroke-linejoin="round" stroke="rgb(0%, 0%, 54.499817%)" stroke-opacity="1" stroke-miterlimit="10" d="M 89.199378 151.599734 L 137.201346 183.599743 " transform="matrix(0.998901, 0, 0, -0.998901, -85.406044, 222.929235)"/>
<path fill="none" stroke-width="1.2" stroke-linecap="butt" stroke-linejoin="round" stroke="rgb(0%, 0%, 54.499817%)" stroke-opacity="1" stroke-miterlimit="10" d="M 89.199378 151.599734 C 121.199386 203.598281 129.200366 235.59829 169.201355 183.599743 " transform="matrix(0.998901, 0, 0, -0.998901, -85.406044, 222.929235)"/>
<path fill="none" stroke-width="1.2" stroke-linecap="butt" stroke-linejoin="round" stroke="rgb(0%, 0%, 54.499817%)" stroke-opacity="1" stroke-miterlimit="10" d="M 201.201363 151.599734 C 233.201372 147.599244 237.201862 155.600224 245.198931 147.599244 " transform="matrix(0.998901, 0, 0, -0.998901, -85.406044, 222.929235)"/>
<path fill="none" stroke-width="1.2" stroke-linecap="butt" stroke-linejoin="round" stroke="rgb(0%, 0%, 54.499817%)" stroke-opacity="1" stroke-miterlimit="10" d="M 201.201363 183.599743 C 230.534378 172.93177 245.198931 160.93421 245.198931 147.599244 " transform="matrix(0.998901, 0, 0, -0.998901, -85.406044, 222.929235)"/>
<path fill="none" stroke-width="1.2" stroke-linecap="butt" stroke-linejoin="round" stroke="rgb(0%, 0%, 54.499817%)" stroke-opacity="1" stroke-miterlimit="10" d="M 137.201346 151.599734 C 149.198905 131.601195 161.200375 139.598264 169.201355 119.599725 " transform="matrix(0.998901, 0, 0, -0.998901, -85.406044, 222.929235)"/>
<path fill="none" stroke-width="1.2" stroke-linecap="butt" stroke-linejoin="round" stroke="rgb(0%, 0%, 54.499817%)" stroke-opacity="1" stroke-miterlimit="10" d="M 137.201346 151.599734 C 145.198415 159.600714 165.200865 159.600714 169.201355 183.599743 " transform="matrix(0.998901, 0, 0, -0.998901, -85.406044, 222.929235)"/>
<path fill="none" stroke-width="1.2" stroke-linecap="butt" stroke-linejoin="round" stroke="rgb(0%, 0%, 54.499817%)" stroke-opacity="1" stroke-miterlimit="10" d="M 169.201355 183.599743 C 177.198424 171.598273 193.200383 179.599253 201.201363 183.599743 " transform="matrix(0.998901, 0, 0, -0.998901, -85.406044, 222.929235)"/>
<path fill="none" stroke-width="1.2" stroke-linecap="butt" stroke-linejoin="round" stroke="rgb(0%, 0%, 54.499817%)" stroke-opacity="1" stroke-miterlimit="10" d="M 201.201363 183.599743 C 181.198914 167.601694 173.201844 171.598273 169.201355 151.599734 " transform="matrix(0.998901, 0, 0, -0.998901, -85.406044, 222.929235)"/>
<path fill="none" stroke-width="1.2" stroke-linecap="butt" stroke-linejoin="round" stroke="rgb(0%, 0%, 54.499817%)" stroke-opacity="1" stroke-miterlimit="10" d="M 201.201363 151.599734 C 217.199412 143.598754 215.201122 137.599975 211.200633 134.600585 C 207.200143 131.601195 201.201363 131.601195 201.201363 119.599725 " transform="matrix(0.998901, 0, 0, -0.998901, -85.406044, 222.929235)"/>
<path fill="none" stroke-width="1.2" stroke-linecap="butt" stroke-linejoin="round" stroke="rgb(0%, 0%, 54.499817%)" stroke-opacity="1" stroke-miterlimit="10" d="M 201.201363 151.599734 C 193.200383 135.601685 177.198424 131.601195 169.201355 119.599725 " transform="matrix(0.998901, 0, 0, -0.998901, -85.406044, 222.929235)"/>
<path fill="none" stroke-width="1.2" stroke-linecap="butt" stroke-linejoin="round" stroke="rgb(0%, 39.199829%, 0%)" stroke-opacity="1" stroke-miterlimit="10" d="M 137.201346 151.599734 L 169.201355 151.599734 " transform="matrix(0.998901, 0, 0, -0.998901, -85.406044, 222.929235)"/>
<path fill="none" stroke-width="1.2" stroke-linecap="butt" stroke-linejoin="round" stroke="rgb(0%, 39.199829%, 0%)" stroke-opacity="1" stroke-miterlimit="10" d="M 169.201355 151.599734 L 169.201355 183.599743 " transform="matrix(0.998901, 0, 0, -0.998901, -85.406044, 222.929235)"/>
<path fill="none" stroke-width="1.2" stroke-linecap="butt" stroke-linejoin="round" stroke="rgb(0%, 39.199829%, 0%)" stroke-opacity="1" stroke-miterlimit="10" d="M 201.201363 183.599743 L 201.201363 151.599734 " transform="matrix(0.998901, 0, 0, -0.998901, -85.406044, 222.929235)"/>
<path fill="none" stroke-width="1.2" stroke-linecap="butt" stroke-linejoin="round" stroke="rgb(0%, 39.199829%, 0%)" stroke-opacity="1" stroke-miterlimit="10" d="M 169.201355 119.599725 C 185.199404 135.601685 185.199404 119.599725 189.199893 111.598746 C 193.200383 103.601676 201.201363 103.601676 201.201363 119.599725 " transform="matrix(0.998901, 0, 0, -0.998901, -85.406044, 222.929235)"/>
<path fill="none" stroke-width="1.2" stroke-linecap="butt" stroke-linejoin="round" stroke="rgb(0%, 39.199829%, 0%)" stroke-opacity="1" stroke-miterlimit="10" d="M 169.201355 151.599734 C 177.198424 167.601694 181.198914 159.600714 185.199404 158.599614 C 189.199893 157.598514 193.200383 163.601204 201.201363 151.599734 " transform="matrix(0.998901, 0, 0, -0.998901, -85.406044, 222.929235)"/>
<path fill="none" stroke-width="1.2" stroke-linecap="butt" stroke-linejoin="round" stroke="rgb(0%, 39.199829%, 0%)" stroke-opacity="1" stroke-miterlimit="10" d="M 137.201346 151.599734 C 142.531422 159.600714 142.531422 170.268687 137.201346 183.599743 " transform="matrix(0.998901, 0, 0, -0.998901, -85.406044, 222.929235)"/>
<path fill="none" stroke-width="1.2" stroke-linecap="butt" stroke-linejoin="round" stroke="rgb(0%, 39.199829%, 0%)" stroke-opacity="1" stroke-miterlimit="10" d="M 89.199378 151.599734 C 113.198407 148.932741 129.200366 148.932741 137.201346 151.599734 " transform="matrix(0.998901, 0, 0, -0.998901, -85.406044, 222.929235)"/>
<g clip-path="url(#clip-1)">
<path fill="none" stroke-width="1.2" stroke-linecap="butt" stroke-linejoin="round" stroke="rgb(0%, 39.199829%, 0%)" stroke-opacity="1" stroke-miterlimit="10" d="M 201.201363 183.599743 C 177.198424 219.600241 159.198175 223.600731 140.200736 221.598531 C 121.199386 219.600241 101.200847 211.599261 89.199378 151.599734 " transform="matrix(0.998901, 0, 0, -0.998901, -85.406044, 222.929235)"/>
</g>
<path fill="none" stroke-width="1.2" stroke-linecap="butt" stroke-linejoin="round" stroke="rgb(0%, 39.199829%, 0%)" stroke-opacity="1" stroke-miterlimit="10" d="M 245.198931 147.599244 C 223.866895 123.600215 209.198432 114.265739 201.201363 119.599725 " transform="matrix(0.998901, 0, 0, -0.998901, -85.406044, 222.929235)"/>
<path fill="none" stroke-width="1.2" stroke-linecap="butt" stroke-linejoin="round" stroke="rgb(0%, 39.199829%, 0%)" stroke-opacity="1" stroke-miterlimit="10" d="M 169.201355 119.599725 C 185.199404 95.600697 203.199653 89.601917 218.865305 91.26781 C 234.534868 92.933703 247.865924 102.26818 250.532917 108.931752 C 253.199911 115.599235 245.198931 119.599725 245.198931 147.599244 " transform="matrix(0.998901, 0, 0, -0.998901, -85.406044, 222.929235)"/>
<path fill="none" stroke-width="1.2" stroke-linecap="butt" stroke-linejoin="round" stroke="rgb(0%, 39.199829%, 0%)" stroke-opacity="1" stroke-miterlimit="10" d="M 137.201346 119.599725 C 181.198914 83.599227 199.199163 83.599227 213.531319 84.932724 C 227.867385 86.26622 238.531448 88.933213 247.865924 95.2683 C 257.200401 101.599476 265.20138 111.598746 245.198931 147.599244 " transform="matrix(0.998901, 0, 0, -0.998901, -85.406044, 222.929235)"/>
<g clip-path="url(#clip-2)">
<path fill="none" stroke-width="1.2" stroke-linecap="butt" stroke-linejoin="round" stroke="rgb(0%, 39.199829%, 0%)" stroke-opacity="1" stroke-miterlimit="10" d="M 89.199378 151.599734 C 153.199395 79.598737 171.199644 77.600447 191.53449 77.268051 C 211.865426 76.931744 234.534868 78.26524 247.865924 84.26793 C 261.20089 90.26671 265.20138 100.934683 266.19857 108.266959 C 267.19967 115.599235 265.20138 119.599725 245.198931 147.599244 " transform="matrix(0.998901, 0, 0, -0.998901, -85.406044, 222.929235)"/>
</g>
<path fill-rule="evenodd" fill="rgb(100%, 100%, 0%)" fill-opacity="1" d="M 54.140625 103.460938 C 54.140625 102.082031 53.023438 100.964844 51.644531 100.964844 C 50.265625 100.964844 49.144531 102.082031 49.144531 103.460938 C 49.144531 104.839844 50.265625 105.957031 51.644531 105.957031 C 53.023438 105.957031 54.140625 104.839844 54.140625 103.460938 "/>
<path fill-rule="evenodd" fill="rgb(0%, 0%, 0%)" fill-opacity="1" d="M 54.640625 103.460938 C 54.640625 101.804688 53.296875 100.464844 51.644531 100.464844 C 49.988281 100.464844 48.644531 101.804688 48.644531 103.460938 C 48.644531 105.117188 49.988281 106.457031 51.644531 106.457031 C 53.296875 106.457031 54.640625 105.117188 54.640625 103.460938 M 53.640625 103.460938 C 53.640625 102.355469 52.746094 101.460938 51.644531 101.460938 C 50.539062 101.460938 49.644531 102.355469 49.644531 103.460938 C 49.644531 104.5625 50.539062 105.457031 51.644531 105.457031 C 52.746094 105.457031 53.640625 104.5625 53.640625 103.460938 "/>
<path fill-rule="evenodd" fill="rgb(100%, 100%, 0%)" fill-opacity="1" d="M 54.140625 71.496094 C 54.140625 70.117188 53.023438 69 51.644531 69 C 50.265625 69 49.144531 70.117188 49.144531 71.496094 C 49.144531 72.875 50.265625 73.992188 51.644531 73.992188 C 53.023438 73.992188 54.140625 72.875 54.140625 71.496094 "/>
<path fill-rule="evenodd" fill="rgb(0%, 0%, 0%)" fill-opacity="1" d="M 54.640625 71.496094 C 54.640625 69.839844 53.296875 68.5 51.644531 68.5 C 49.988281 68.5 48.644531 69.839844 48.644531 71.496094 C 48.644531 73.152344 49.988281 74.492188 51.644531 74.492188 C 53.296875 74.492188 54.640625 73.152344 54.640625 71.496094 M 53.640625 71.496094 C 53.640625 70.390625 52.746094 69.496094 51.644531 69.496094 C 50.539062 69.496094 49.644531 70.390625 49.644531 71.496094 C 49.644531 72.601562 50.539062 73.492188 51.644531 73.492188 C 52.746094 73.492188 53.640625 72.601562 53.640625 71.496094 "/>
<path fill-rule="evenodd" fill="rgb(100%, 100%, 0%)" fill-opacity="1" d="M 54.140625 39.53125 C 54.140625 38.152344 53.023438 37.035156 51.644531 37.035156 C 50.265625 37.035156 49.144531 38.152344 49.144531 39.53125 C 49.144531 40.910156 50.265625 42.027344 51.644531 42.027344 C 53.023438 42.027344 54.140625 40.910156 54.140625 39.53125 "/>
<path fill-rule="evenodd" fill="rgb(0%, 0%, 0%)" fill-opacity="1" d="M 54.640625 39.53125 C 54.640625 37.875 53.296875 36.535156 51.644531 36.535156 C 49.988281 36.535156 48.644531 37.875 48.644531 39.53125 C 48.644531 41.1875 49.988281 42.527344 51.644531 42.527344 C 53.296875 42.527344 54.640625 41.1875 54.640625 39.53125 M 53.640625 39.53125 C 53.640625 38.425781 52.746094 37.53125 51.644531 37.53125 C 50.539062 37.53125 49.644531 38.425781 49.644531 39.53125 C 49.644531 40.636719 50.539062 41.527344 51.644531 41.527344 C 52.746094 41.527344 53.640625 40.636719 53.640625 39.53125 "/>
<path fill-rule="evenodd" fill="rgb(100%, 100%, 0%)" fill-opacity="1" d="M 86.105469 39.53125 C 86.105469 38.152344 84.988281 37.035156 83.609375 37.035156 C 82.230469 37.035156 81.109375 38.152344 81.109375 39.53125 C 81.109375 40.910156 82.230469 42.027344 83.609375 42.027344 C 84.988281 42.027344 86.105469 40.910156 86.105469 39.53125 "/>
<path fill-rule="evenodd" fill="rgb(0%, 0%, 0%)" fill-opacity="1" d="M 86.605469 39.53125 C 86.605469 37.875 85.261719 36.535156 83.609375 36.535156 C 81.953125 36.535156 80.609375 37.875 80.609375 39.53125 C 80.609375 41.1875 81.953125 42.527344 83.609375 42.527344 C 85.261719 42.527344 86.605469 41.1875 86.605469 39.53125 M 85.605469 39.53125 C 85.605469 38.425781 84.710938 37.53125 83.609375 37.53125 C 82.503906 37.53125 81.609375 38.425781 81.609375 39.53125 C 81.609375 40.636719 82.503906 41.527344 83.609375 41.527344 C 84.710938 41.527344 85.605469 40.636719 85.605469 39.53125 "/>
<path fill-rule="evenodd" fill="rgb(100%, 100%, 0%)" fill-opacity="1" d="M 118.070312 39.53125 C 118.070312 38.152344 116.953125 37.035156 115.574219 37.035156 C 114.195312 37.035156 113.074219 38.152344 113.074219 39.53125 C 113.074219 40.910156 114.195312 42.027344 115.574219 42.027344 C 116.953125 42.027344 118.070312 40.910156 118.070312 39.53125 "/>
<path fill-rule="evenodd" fill="rgb(0%, 0%, 0%)" fill-opacity="1" d="M 118.570312 39.53125 C 118.570312 37.875 117.226562 36.535156 115.574219 36.535156 C 113.917969 36.535156 112.574219 37.875 112.574219 39.53125 C 112.574219 41.1875 113.917969 42.527344 115.574219 42.527344 C 117.226562 42.527344 118.570312 41.1875 118.570312 39.53125 M 117.570312 39.53125 C 117.570312 38.425781 116.675781 37.53125 115.574219 37.53125 C 114.46875 37.53125 113.574219 38.425781 113.574219 39.53125 C 113.574219 40.636719 114.46875 41.527344 115.574219 41.527344 C 116.675781 41.527344 117.570312 40.636719 117.570312 39.53125 "/>
<path fill-rule="evenodd" fill="rgb(100%, 100%, 0%)" fill-opacity="1" d="M 118.070312 71.496094 C 118.070312 70.117188 116.953125 69 115.574219 69 C 114.195312 69 113.074219 70.117188 113.074219 71.496094 C 113.074219 72.875 114.195312 73.992188 115.574219 73.992188 C 116.953125 73.992188 118.070312 72.875 118.070312 71.496094 "/>
<path fill-rule="evenodd" fill="rgb(0%, 0%, 0%)" fill-opacity="1" d="M 118.570312 71.496094 C 118.570312 69.839844 117.226562 68.5 115.574219 68.5 C 113.917969 68.5 112.574219 69.839844 112.574219 71.496094 C 112.574219 73.152344 113.917969 74.492188 115.574219 74.492188 C 117.226562 74.492188 118.570312 73.152344 118.570312 71.496094 M 117.570312 71.496094 C 117.570312 70.390625 116.675781 69.496094 115.574219 69.496094 C 114.46875 69.496094 113.574219 70.390625 113.574219 71.496094 C 113.574219 72.601562 114.46875 73.492188 115.574219 73.492188 C 116.675781 73.492188 117.570312 72.601562 117.570312 71.496094 "/>
<path fill-rule="evenodd" fill="rgb(100%, 100%, 0%)" fill-opacity="1" d="M 86.105469 71.496094 C 86.105469 70.117188 84.988281 69 83.609375 69 C 82.230469 69 81.109375 70.117188 81.109375 71.496094 C 81.109375 72.875 82.230469 73.992188 83.609375 73.992188 C 84.988281 73.992188 86.105469 72.875 86.105469 71.496094 "/>
<path fill-rule="evenodd" fill="rgb(0%, 0%, 0%)" fill-opacity="1" d="M 86.605469 71.496094 C 86.605469 69.839844 85.261719 68.5 83.609375 68.5 C 81.953125 68.5 80.609375 69.839844 80.609375 71.496094 C 80.609375 73.152344 81.953125 74.492188 83.609375 74.492188 C 85.261719 74.492188 86.605469 73.152344 86.605469 71.496094 M 85.605469 71.496094 C 85.605469 70.390625 84.710938 69.496094 83.609375 69.496094 C 82.503906 69.496094 81.609375 70.390625 81.609375 71.496094 C 81.609375 72.601562 82.503906 73.492188 83.609375 73.492188 C 84.710938 73.492188 85.605469 72.601562 85.605469 71.496094 "/>
<path fill-rule="evenodd" fill="rgb(100%, 100%, 0%)" fill-opacity="1" d="M 86.105469 103.460938 C 86.105469 102.082031 84.988281 100.964844 83.609375 100.964844 C 82.230469 100.964844 81.109375 102.082031 81.109375 103.460938 C 81.109375 104.839844 82.230469 105.957031 83.609375 105.957031 C 84.988281 105.957031 86.105469 104.839844 86.105469 103.460938 "/>
<path fill-rule="evenodd" fill="rgb(0%, 0%, 0%)" fill-opacity="1" d="M 86.605469 103.460938 C 86.605469 101.804688 85.261719 100.464844 83.609375 100.464844 C 81.953125 100.464844 80.609375 101.804688 80.609375 103.460938 C 80.609375 105.117188 81.953125 106.457031 83.609375 106.457031 C 85.261719 106.457031 86.605469 105.117188 86.605469 103.460938 M 85.605469 103.460938 C 85.605469 102.355469 84.710938 101.460938 83.609375 101.460938 C 82.503906 101.460938 81.609375 102.355469 81.609375 103.460938 C 81.609375 104.5625 82.503906 105.457031 83.609375 105.457031 C 84.710938 105.457031 85.605469 104.5625 85.605469 103.460938 "/>
<path fill-rule="evenodd" fill="rgb(100%, 100%, 0%)" fill-opacity="1" d="M 118.070312 103.460938 C 118.070312 102.082031 116.953125 100.964844 115.574219 100.964844 C 114.195312 100.964844 113.074219 102.082031 113.074219 103.460938 C 113.074219 104.839844 114.195312 105.957031 115.574219 105.957031 C 116.953125 105.957031 118.070312 104.839844 118.070312 103.460938 "/>
<path fill-rule="evenodd" fill="rgb(0%, 0%, 0%)" fill-opacity="1" d="M 118.570312 103.460938 C 118.570312 101.804688 117.226562 100.464844 115.574219 100.464844 C 113.917969 100.464844 112.574219 101.804688 112.574219 103.460938 C 112.574219 105.117188 113.917969 106.457031 115.574219 106.457031 C 117.226562 106.457031 118.570312 105.117188 118.570312 103.460938 M 117.570312 103.460938 C 117.570312 102.355469 116.675781 101.460938 115.574219 101.460938 C 114.46875 101.460938 113.574219 102.355469 113.574219 103.460938 C 113.574219 104.5625 114.46875 105.457031 115.574219 105.457031 C 116.675781 105.457031 117.570312 104.5625 117.570312 103.460938 "/>
<path fill-rule="evenodd" fill="rgb(100%, 100%, 0%)" fill-opacity="1" d="M 6.191406 71.496094 C 6.191406 70.117188 5.074219 69 3.695312 69 C 2.316406 69 1.199219 70.117188 1.199219 71.496094 C 1.199219 72.875 2.316406 73.992188 3.695312 73.992188 C 5.074219 73.992188 6.191406 72.875 6.191406 71.496094 "/>
<path fill-rule="evenodd" fill="rgb(0%, 0%, 0%)" fill-opacity="1" d="M 6.691406 71.496094 C 6.691406 69.839844 5.351562 68.5 3.695312 68.5 C 2.039062 68.5 0.699219 69.839844 0.699219 71.496094 C 0.699219 73.152344 2.039062 74.492188 3.695312 74.492188 C 5.351562 74.492188 6.691406 73.152344 6.691406 71.496094 M 5.695312 71.496094 C 5.695312 70.390625 4.800781 69.496094 3.695312 69.496094 C 2.59375 69.496094 1.699219 70.390625 1.699219 71.496094 C 1.699219 72.601562 2.59375 73.492188 3.695312 73.492188 C 4.800781 73.492188 5.695312 72.601562 5.695312 71.496094 "/>
<path fill-rule="evenodd" fill="rgb(100%, 100%, 0%)" fill-opacity="1" d="M 162.023438 75.492188 C 162.023438 74.113281 160.902344 72.996094 159.523438 72.996094 C 158.144531 72.996094 157.027344 74.113281 157.027344 75.492188 C 157.027344 76.871094 158.144531 77.988281 159.523438 77.988281 C 160.902344 77.988281 162.023438 76.871094 162.023438 75.492188 "/>
<path fill-rule="evenodd" fill="rgb(0%, 0%, 0%)" fill-opacity="1" d="M 162.519531 75.492188 C 162.519531 73.835938 161.179688 72.496094 159.523438 72.496094 C 157.871094 72.496094 156.527344 73.835938 156.527344 75.492188 C 156.527344 77.148438 157.871094 78.488281 159.523438 78.488281 C 161.179688 78.488281 162.519531 77.148438 162.519531 75.492188 M 161.523438 75.492188 C 161.523438 74.386719 160.628906 73.492188 159.523438 73.492188 C 158.421875 73.492188 157.527344 74.386719 157.527344 75.492188 C 157.527344 76.59375 158.421875 77.488281 159.523438 77.488281 C 160.628906 77.488281 161.523438 76.59375 161.523438 75.492188 "/>
</svg>
