<?xml version="1.0" encoding="UTF-8"?>
<svg xmlns="http://www.w3.org/2000/svg" xmlns:xlink="http://www.w3.org/1999/xlink" width="184.8" height="146.9513" viewBox="0 0 184.8 146.9513">
<defs>
<clipPath id="clip-0">
<path clip-rule="nonzero" d="M 6 0.0546875 L 119 0.0546875 L 119 72 L 6 72 Z M 6 0.0546875 "/>
</clipPath>
<clipPath id="clip-1">
<path clip-rule="nonzero" d="M 6 0.0546875 L 120 0.0546875 L 120 73 L 6 73 Z M 6 0.0546875 "/>
</clipPath>
<clipPath id="clip-2">
<path clip-rule="nonzero" d="M 6 70 L 184.601562 70 L 184.601562 146.847656 L 6 146.847656 Z M 6 70 "/>
</clipPath>
</defs>
<path fill="none" stroke-width="0.4" stroke-linecap="butt" stroke-linejoin="round" stroke="rgb(0%, 0%, 0%)" stroke-opacity="1" stroke-miterlimit="10" d="M 137.19976 151.599699 L 169.199198 151.599699 " transform="matrix(0.998919, 0, 0, -0.998919, -82.410811, 222.931901)"/>
<path fill="none" stroke-width="0.4" stroke-linecap="butt" stroke-linejoin="round" stroke="rgb(0%, 0%, 0%)" stroke-opacity="1" stroke-miterlimit="10" d="M 169.199198 151.599699 L 169.199198 183.599136 " transform="matrix(0.998919, 0, 0, -0.998919, -82.410811, 222.931901)"/>
<path fill="none" stroke-width="0.4" stroke-linecap="butt" stroke-linejoin="round" stroke="rgb(0%, 0%, 0%)" stroke-opacity="1" stroke-miterlimit="10" d="M 201.198635 183.599136 L 201.198635 151.599699 " transform="matrix(0.998919, 0, 0, -0.998919, -82.410811, 222.931901)"/>
<path fill="none" stroke-width="0.4" stroke-linecap="butt" stroke-linejoin="round" stroke="rgb(0%, 0%, 0%)" stroke-opacity="1" stroke-miterlimit="10" d="M 169.199198 119.600261 C 185.200872 135.601935 185.200872 119.600261 189.20129 111.599424 C 193.201709 103.598587 201.198635 103.598587 201.198635 119.600261 " transform="matrix(0.998919, 0, 0, -0.998919, -82.410811, 222.931901)"/>
<path fill="none" stroke-width="0.4" stroke-linecap="butt" stroke-linejoin="round" stroke="rgb(0%, 0%, 0%)" stroke-opacity="1" stroke-miterlimit="10" d="M 169.199198 151.599699 C 177.200035 167.601373 181.200453 159.600536 185.200872 158.599453 C 189.20129 157.598371 193.201709 163.600954 201.198635 151.599699 " transform="matrix(0.998919, 0, 0, -0.998919, -82.410811, 222.931901)"/>
<path fill="none" stroke-width="0.4" stroke-linecap="butt" stroke-linejoin="round" stroke="rgb(0%, 0%, 0%)" stroke-opacity="1" stroke-miterlimit="10" d="M 137.19976 151.599699 C 142.533651 159.600536 142.533651 170.268318 137.19976 183.599136 " transform="matrix(0.998919, 0, 0, -0.998919, -82.410811, 222.931901)"/>
<path fill="none" stroke-width="0.4" stroke-linecap="butt" stroke-linejoin="round" stroke="rgb(0%, 0%, 0%)" stroke-opacity="1" stroke-miterlimit="10" d="M 89.198648 151.599699 C 113.201159 148.932753 129.198923 148.932753 137.19976 151.599699 " transform="matrix(0.998919, 0, 0, -0.998919, -82.410811, 222.931901)"/>
<g clip-path="url(#clip-0)">
<path fill="none" stroke-width="0.4" stroke-linecap="butt" stroke-linejoin="round" stroke="rgb(0%, 0%, 0%)" stroke-opacity="1" stroke-miterlimit="10" d="M 201.198635 183.599136 C 177.200035 219.598993 159.200107 223.599411 140.199096 221.601157 C 121.198086 219.598993 101.199904 211.598156 89.198648 151.599699 " transform="matrix(0.998919, 0, 0, -0.998919, -82.410811, 222.931901)"/>
</g>
<path fill="none" stroke-width="0.4" stroke-linecap="butt" stroke-linejoin="round" stroke="rgb(0%, 0%, 0%)" stroke-opacity="1" stroke-miterlimit="10" d="M 245.199329 147.59928 C 223.867674 123.600679 209.199472 114.26637 201.198635 119.600261 " transform="matrix(0.998919, 0, 0, -0.998919, -82.410811, 222.931901)"/>
<path fill="none" stroke-width="0.4" stroke-linecap="butt" stroke-linejoin="round" stroke="rgb(0%, 0%, 0%)" stroke-opacity="1" stroke-miterlimit="10" d="M 169.199198 119.600261 C 185.200872 95.60166 203.2008 89.599077 218.866173 91.264941 C 234.531546 92.934715 247.866274 102.265114 250.53322 108.932478 C 253.200166 115.599842 245.199329 119.600261 245.199329 147.59928 " transform="matrix(0.998919, 0, 0, -0.998919, -82.410811, 222.931901)"/>
<path fill="none" stroke-width="0.4" stroke-linecap="butt" stroke-linejoin="round" stroke="rgb(0%, 0%, 0%)" stroke-opacity="1" stroke-miterlimit="10" d="M 137.19976 119.600261 C 181.200453 83.600405 199.200381 83.600405 213.532282 84.933877 C 227.868092 86.26735 238.531964 88.934296 247.866274 95.265359 C 257.200584 101.600333 265.201421 111.599424 245.199329 147.59928 " transform="matrix(0.998919, 0, 0, -0.998919, -82.410811, 222.931901)"/>
<path fill="none" stroke-width="0.4" stroke-linecap="butt" stroke-linejoin="round" stroke="rgb(0%, 0%, 0%)" stroke-opacity="1" stroke-miterlimit="10" d="M 89.198648 151.599699 C 153.201434 79.599986 171.201362 77.601732 191.531935 77.265431 C 211.866418 76.93304 234.531546 78.266513 247.866274 84.265186 C 261.201003 90.267769 265.201421 100.931641 266.198593 108.267697 C 267.199675 115.599842 265.201421 119.600261 245.199329 147.59928 " transform="matrix(0.998919, 0, 0, -0.998919, -82.410811, 222.931901)"/>
<path fill="none" stroke-width="1.2" stroke-linecap="butt" stroke-linejoin="round" stroke="rgb(0%, 0%, 54.499817%)" stroke-opacity="1" stroke-miterlimit="10" d="M 137.19976 119.600261 L 137.19976 151.599699 " transform="matrix(0.998919, 0, 0, -0.998919, -82.410811, 222.931901)"/>
<path fill="none" stroke-width="1.2" stroke-linecap="butt" stroke-linejoin="round" stroke="rgb(0%, 0%, 54.499817%)" stroke-opacity="1" stroke-miterlimit="10" d="M 169.199198 119.600261 C 169.199198 135.601935 185.200872 135.601935 169.199198 151.599699 " transform="matrix(0.998919, 0, 0, -0.998919, -82.410811, 222.931901)"/>
<path fill="none" stroke-width="1.2" stroke-linecap="butt" stroke-linejoin="round" stroke="rgb(0%, 0%, 54.499817%)" stroke-opacity="1" stroke-miterlimit="10" d="M 137.19976 183.599136 C 147.867543 175.598299 158.531415 175.598299 169.199198 183.599136 " transform="matrix(0.998919, 0, 0, -0.998919, -82.410811, 222.931901)"/>
<path fill="none" stroke-width="1.2" stroke-linecap="butt" stroke-linejoin="round" stroke="rgb(0%, 0%, 54.499817%)" stroke-opacity="1" stroke-miterlimit="10" d="M 137.19976 119.600261 C 150.534488 127.601098 161.198361 127.601098 169.199198 119.600261 " transform="matrix(0.998919, 0, 0, -0.998919, -82.410811, 222.931901)"/>
<path fill="none" stroke-width="1.2" stroke-linecap="butt" stroke-linejoin="round" stroke="rgb(0%, 0%, 54.499817%)" stroke-opacity="1" stroke-miterlimit="10" d="M 89.198648 151.599699 L 137.19976 119.600261 " transform="matrix(0.998919, 0, 0, -0.998919, -82.410811, 222.931901)"/>
<path fill="none" stroke-width="1.2" stroke-linecap="butt" stroke-linejoin="round" stroke="rgb(0%, 0%, 54.499817%)" stroke-opacity="1" stroke-miterlimit="10" d="M 89.198648 151.599699 L 137.19976 183.599136 " transform="matrix(0.998919, 0, 0, -0.998919, -82.410811, 222.931901)"/>
<path fill="none" stroke-width="1.2" stroke-linecap="butt" stroke-linejoin="round" stroke="rgb(0%, 0%, 54.499817%)" stroke-opacity="1" stroke-miterlimit="10" d="M 89.198648 151.599699 C 121.198086 203.601229 129.198923 235.600667 169.199198 183.599136 " transform="matrix(0.998919, 0, 0, -0.998919, -82.410811, 222.931901)"/>
<path fill="none" stroke-width="1.2" stroke-linecap="butt" stroke-linejoin="round" stroke="rgb(0%, 0%, 54.499817%)" stroke-opacity="1" stroke-miterlimit="10" d="M 201.198635 151.599699 C 233.198073 147.59928 237.198492 155.600117 245.199329 147.59928 " transform="matrix(0.998919, 0, 0, -0.998919, -82.410811, 222.931901)"/>
<path fill="none" stroke-width="1.2" stroke-linecap="butt" stroke-linejoin="round" stroke="rgb(0%, 0%, 54.499817%)" stroke-opacity="1" stroke-miterlimit="10" d="M 201.198635 183.599136 C 230.531127 172.931354 245.199329 160.934009 245.199329 147.59928 " transform="matrix(0.998919, 0, 0, -0.998919, -82.410811, 222.931901)"/>
<path fill="none" stroke-width="1.2" stroke-linecap="butt" stroke-linejoin="round" stroke="rgb(0%, 0%, 54.499817%)" stroke-opacity="1" stroke-miterlimit="10" d="M 137.19976 151.599699 C 149.201015 131.601516 161.198361 139.598443 169.199198 119.600261 " transform="matrix(0.998919, 0, 0, -0.998919, -82.410811, 222.931901)"/>
<path fill="none" stroke-width="1.2" stroke-linecap="butt" stroke-linejoin="round" stroke="rgb(0%, 0%, 54.499817%)" stroke-opacity="1" stroke-miterlimit="10" d="M 137.19976 151.599699 C 145.200597 159.600536 165.198779 159.600536 169.199198 183.599136 " transform="matrix(0.998919, 0, 0, -0.998919, -82.410811, 222.931901)"/>
<path fill="none" stroke-width="1.2" stroke-linecap="butt" stroke-linejoin="round" stroke="rgb(0%, 0%, 54.499817%)" stroke-opacity="1" stroke-miterlimit="10" d="M 169.199198 183.599136 C 177.200035 171.601791 193.201709 179.598718 201.198635 183.599136 " transform="matrix(0.998919, 0, 0, -0.998919, -82.410811, 222.931901)"/>
<path fill="none" stroke-width="1.2" stroke-linecap="butt" stroke-linejoin="round" stroke="rgb(0%, 0%, 54.499817%)" stroke-opacity="1" stroke-miterlimit="10" d="M 201.198635 183.599136 C 181.200453 167.601373 173.199616 171.601791 169.199198 151.599699 " transform="matrix(0.998919, 0, 0, -0.998919, -82.410811, 222.931901)"/>
<path fill="none" stroke-width="1.2" stroke-linecap="butt" stroke-linejoin="round" stroke="rgb(0%, 0%, 54.499817%)" stroke-opacity="1" stroke-miterlimit="10" d="M 201.198635 151.599699 C 217.200309 143.598862 215.198145 137.600189 211.201637 134.600853 C 207.201218 131.601516 201.198635 131.601516 201.198635 119.600261 " transform="matrix(0.998919, 0, 0, -0.998919, -82.410811, 222.931901)"/>
<path fill="none" stroke-width="1.2" stroke-linecap="butt" stroke-linejoin="round" stroke="rgb(0%, 0%, 54.499817%)" stroke-opacity="1" stroke-miterlimit="10" d="M 201.198635 151.599699 C 193.201709 135.601935 177.200035 131.601516 169.199198 119.600261 " transform="matrix(0.998919, 0, 0, -0.998919, -82.410811, 222.931901)"/>
<path fill="none" stroke-width="1.2" stroke-linecap="butt" stroke-linejoin="round" stroke="rgb(0%, 39.199829%, 0%)" stroke-opacity="1" stroke-miterlimit="10" d="M 137.19976 151.599699 L 169.199198 151.599699 " transform="matrix(0.998919, 0, 0, -0.998919, -82.410811, 222.931901)"/>
<path fill="none" stroke-width="1.2" stroke-linecap="butt" stroke-linejoin="round" stroke="rgb(0%, 39.199829%, 0%)" stroke-opacity="1" stroke-miterlimit="10" d="M 169.199198 151.599699 L 169.199198 183.599136 " transform="matrix(0.998919, 0, 0, -0.998919, -82.410811, 222.931901)"/>
<path fill="none" stroke-width="1.2" stroke-linecap="butt" stroke-linejoin="round" stroke="rgb(0%, 39.199829%, 0%)" stroke-opacity="1" stroke-miterlimit="10" d="M 201.198635 183.599136 L 201.198635 151.599699 " transform="matrix(0.998919, 0, 0, -0.998919, -82.410811, 222.931901)"/>
<path fill="none" stroke-width="1.2" stroke-linecap="butt" stroke-linejoin="round" stroke="rgb(0%, 39.199829%, 0%)" stroke-opacity="1" stroke-miterlimit="10" d="M 169.199198 119.600261 C 185.200872 135.601935 185.200872 119.600261 189.20129 111.599424 C 193.201709 103.598587 201.198635 103.598587 201.198635 119.600261 " transform="matrix(0.998919, 0, 0, -0.998919, -82.410811, 222.931901)"/>
<path fill="none" stroke-width="1.2" stroke-linecap="butt" stroke-linejoin="round" stroke="rgb(0%, 39.199829%, 0%)" stroke-opacity="1" stroke-miterlimit="10" d="M 169.199198 151.599699 C 177.200035 167.601373 181.200453 159.600536 185.200872 158.599453 C 189.20129 157.598371 193.201709 163.600954 201.198635 151.599699 " transform="matrix(0.998919, 0, 0, -0.998919, -82.410811, 222.931901)"/>
<path fill="none" stroke-width="1.2" stroke-linecap="butt" stroke-linejoin="round" stroke="rgb(0%, 39.199829%, 0%)" stroke-opacity="1" stroke-miterlimit="10" d="M 137.19976 151.599699 C 142.533651 159.600536 142.533651 170.268318 137.19976 183.599136 " transform="matrix(0.998919, 0, 0, -0.998919, -82.410811, 222.931901)"/>
<path fill="none" stroke-width="1.2" stroke-linecap="butt" stroke-linejoin="round" stroke="rgb(0%, 39.199829%, 0%)" stroke-opacity="1" stroke-miterlimit="10" d="M 89.198648 151.599699 C 113.201159 148.932753 129.198923 148.932753 137.19976 151.599699 " transform="matrix(0.998919, 0, 0, -0.998919, -82.410811, 222.931901)"/>
<g clip-path="url(#clip-1)">
<path fill="none" stroke-width="1.2" stroke-linecap="butt" stroke-linejoin="round" stroke="rgb(0%, 39.199829%, 0%)" stroke-opacity="1" stroke-miterlimit="10" d="M 201.198635 183.599136 C 177.200035 219.598993 159.200107 223.599411 140.199096 221.601157 C 121.198086 219.598993 101.199904 211.598156 89.198648 151.599699 " transform="matrix(0.998919, 0, 0, -0.998919, -82.410811, 222.931901)"/>
</g>
<path fill="none" stroke-width="1.2" stroke-linecap="butt" stroke-linejoin="round" stroke="rgb(0%, 39.199829%, 0%)" stroke-opacity="1" stroke-miterlimit="10" d="M 245.199329 147.59928 C 223.867674 123.600679 209.199472 114.26637 201.198635 119.600261 " transform="matrix(0.998919, 0, 0, -0.998919, -82.410811, 222.931901)"/>
<path fill="none" stroke-width="1.2" stroke-linecap="butt" stroke-linejoin="round" stroke="rgb(0%, 39.199829%, 0%)" stroke-opacity="1" stroke-miterlimit="10" d="M 169.199198 119.600261 C 185.200872 95.60166 203.2008 89.599077 218.866173 91.264941 C 234.531546 92.934715 247.866274 102.265114 250.53322 108.932478 C 253.200166 115.599842 245.199329 119.600261 245.199329 147.59928 " transform="matrix(0.998919, 0, 0, -0.998919, -82.410811, 222.931901)"/>
<path fill="none" stroke-width="1.2" stroke-linecap="butt" stroke-linejoin="round" stroke="rgb(0%, 39.199829%, 0%)" stroke-opacity="1" stroke-miterlimit="10" d="M 137.19976 119.600261 C 181.200453 83.600405 199.200381 83.600405 213.532282 84.933877 C 227.868092 86.26735 238.531964 88.934296 247.866274 95.265359 C 257.200584 101.600333 265.201421 111.599424 245.199329 147.59928 " transform="matrix(0.998919, 0, 0, -0.998919, -82.410811, 222.931901)"/>
<g clip-path="url(#clip-2)">
<path fill="none" stroke-width="1.2" stroke-linecap="butt" stroke-linejoin="round" stroke="rgb(0%, 39.199829%, 0%)" stroke-opacity="1" stroke-miterlimit="10" d="M 89.198648 151.599699 C 153.201434 79.599986 171.201362 77.601732 191.531935 77.265431 C 211.866418 76.93304 234.531546 78.266513 247.866274 84.265186 C 261.201003 90.267769 265.201421 100.931641 266.198593 108.267697 C 267.199675 115.599842 265.201421 119.600261 245.199329 147.59928 " transform="matrix(0.998919, 0, 0, -0.998919, -82.410811, 222.931901)"/>
</g>
<path fill-rule="evenodd" fill="rgb(100%, 75.299072%, 79.598999%)" fill-opacity="1" d="M 59.636719 103.460938 C 59.636719 100.703125 57.398438 98.464844 54.640625 98.464844 C 51.882812 98.464844 49.644531 100.703125 49.644531 103.460938 C 49.644531 106.21875 51.882812 108.457031 54.640625 108.457031 C 57.398438 108.457031 59.636719 106.21875 59.636719 103.460938 "/>
<path fill-rule="evenodd" fill="rgb(0%, 0%, 0%)" fill-opacity="1" d="M 60.632812 103.460938 C 60.632812 100.152344 57.953125 97.46875 54.640625 97.46875 C 51.332031 97.46875 48.648438 100.152344 48.648438 103.460938 C 48.648438 106.773438 51.332031 109.453125 54.640625 109.453125 C 57.953125 109.453125 60.632812 106.773438 60.632812 103.460938 M 58.636719 103.460938 C 58.636719 101.253906 56.847656 99.464844 54.640625 99.464844 C 52.433594 99.464844 50.644531 101.253906 50.644531 103.460938 C 50.644531 105.667969 52.433594 107.457031 54.640625 107.457031 C 56.847656 107.457031 58.636719 105.667969 58.636719 103.460938 "/>
<path fill-rule="evenodd" fill="rgb(62.69989%, 12.5%, 94.099426%)" fill-opacity="1" d="M 59.636719 71.496094 C 59.636719 68.738281 57.398438 66.5 54.640625 66.5 C 51.882812 66.5 49.644531 68.738281 49.644531 71.496094 C 49.644531 74.253906 51.882812 76.492188 54.640625 76.492188 C 57.398438 76.492188 59.636719 74.253906 59.636719 71.496094 "/>
<path fill-rule="evenodd" fill="rgb(0%, 0%, 0%)" fill-opacity="1" d="M 60.632812 71.496094 C 60.632812 68.183594 57.953125 65.503906 54.640625 65.503906 C 51.332031 65.503906 48.648438 68.183594 48.648438 71.496094 C 48.648438 74.804688 51.332031 77.488281 54.640625 77.488281 C 57.953125 77.488281 60.632812 74.804688 60.632812 71.496094 M 58.636719 71.496094 C 58.636719 69.289062 56.847656 67.5 54.640625 67.5 C 52.433594 67.5 50.644531 69.289062 50.644531 71.496094 C 50.644531 73.703125 52.433594 75.492188 54.640625 75.492188 C 56.847656 75.492188 58.636719 73.703125 58.636719 71.496094 "/>
<path fill-rule="evenodd" fill="rgb(0%, 100%, 0%)" fill-opacity="1" d="M 59.636719 39.53125 C 59.636719 36.773438 57.398438 34.535156 54.640625 34.535156 C 51.882812 34.535156 49.644531 36.773438 49.644531 39.53125 C 49.644531 42.289062 51.882812 44.523438 54.640625 44.523438 C 57.398438 44.523438 59.636719 42.289062 59.636719 39.53125 "/>
<path fill-rule="evenodd" fill="rgb(0%, 0%, 0%)" fill-opacity="1" d="M 60.632812 39.53125 C 60.632812 36.21875 57.953125 33.535156 54.640625 33.535156 C 51.332031 33.535156 48.648438 36.21875 48.648438 39.53125 C 48.648438 42.839844 51.332031 45.523438 54.640625 45.523438 C 57.953125 45.523438 60.632812 42.839844 60.632812 39.53125 M 58.636719 39.53125 C 58.636719 37.324219 56.847656 35.535156 54.640625 35.535156 C 52.433594 35.535156 50.644531 37.324219 50.644531 39.53125 C 50.644531 41.738281 52.433594 43.527344 54.640625 43.527344 C 56.847656 43.527344 58.636719 41.738281 58.636719 39.53125 "/>
<path fill-rule="evenodd" fill="rgb(56.498718%, 93.299866%, 56.498718%)" fill-opacity="1" d="M 91.601562 39.53125 C 91.601562 36.773438 89.363281 34.535156 86.605469 34.535156 C 83.847656 34.535156 81.613281 36.773438 81.613281 39.53125 C 81.613281 42.289062 83.847656 44.523438 86.605469 44.523438 C 89.363281 44.523438 91.601562 42.289062 91.601562 39.53125 "/>
<path fill-rule="evenodd" fill="rgb(0%, 0%, 0%)" fill-opacity="1" d="M 92.601562 39.53125 C 92.601562 36.21875 89.917969 33.535156 86.605469 33.535156 C 83.296875 33.535156 80.613281 36.21875 80.613281 39.53125 C 80.613281 42.839844 83.296875 45.523438 86.605469 45.523438 C 89.917969 45.523438 92.601562 42.839844 92.601562 39.53125 M 90.601562 39.53125 C 90.601562 37.324219 88.8125 35.535156 86.605469 35.535156 C 84.398438 35.535156 82.609375 37.324219 82.609375 39.53125 C 82.609375 41.738281 84.398438 43.527344 86.605469 43.527344 C 88.8125 43.527344 90.601562 41.738281 90.601562 39.53125 "/>
<path fill-rule="evenodd" fill="rgb(25%, 25%, 25%)" fill-opacity="1" d="M 123.566406 39.53125 C 123.566406 36.773438 121.328125 34.535156 118.570312 34.535156 C 115.8125 34.535156 113.578125 36.773438 113.578125 39.53125 C 113.578125 42.289062 115.8125 44.523438 118.570312 44.523438 C 121.328125 44.523438 123.566406 42.289062 123.566406 39.53125 "/>
<path fill-rule="evenodd" fill="rgb(0%, 0%, 0%)" fill-opacity="1" d="M 124.566406 39.53125 C 124.566406 36.21875 121.882812 33.535156 118.570312 33.535156 C 115.261719 33.535156 112.578125 36.21875 112.578125 39.53125 C 112.578125 42.839844 115.261719 45.523438 118.570312 45.523438 C 121.882812 45.523438 124.566406 42.839844 124.566406 39.53125 M 122.566406 39.53125 C 122.566406 37.324219 120.777344 35.535156 118.570312 35.535156 C 116.363281 35.535156 114.574219 37.324219 114.574219 39.53125 C 114.574219 41.738281 116.363281 43.527344 118.570312 43.527344 C 120.777344 43.527344 122.566406 41.738281 122.566406 39.53125 "/>
<path fill-rule="evenodd" fill="rgb(100%, 64.698792%, 30.999756%)" fill-opacity="1" d="M 123.566406 71.496094 C 123.566406 68.738281 121.328125 66.5 118.570312 66.5 C 115.8125 66.5 113.578125 68.738281 113.578125 71.496094 C 113.578125 74.253906 115.8125 76.492188 118.570312 76.492188 C 121.328125 76.492188 123.566406 74.253906 123.566406 71.496094 "/>
<path fill-rule="evenodd" fill="rgb(0%, 0%, 0%)" fill-opacity="1" d="M 124.566406 71.496094 C 124.566406 68.183594 121.882812 65.503906 118.570312 65.503906 C 115.261719 65.503906 112.578125 68.183594 112.578125 71.496094 C 112.578125 74.804688 115.261719 77.488281 118.570312 77.488281 C 121.882812 77.488281 124.566406 74.804688 124.566406 71.496094 M 122.566406 71.496094 C 122.566406 69.289062 120.777344 67.5 118.570312 67.5 C 116.363281 67.5 114.574219 69.289062 114.574219 71.496094 C 114.574219 73.703125 116.363281 75.492188 118.570312 75.492188 C 120.777344 75.492188 122.566406 73.703125 122.566406 71.496094 "/>
<path fill-rule="evenodd" fill="rgb(56.098938%, 73.699951%, 56.098938%)" fill-opacity="1" d="M 91.601562 71.496094 C 91.601562 68.738281 89.363281 66.5 86.605469 66.5 C 83.847656 66.5 81.613281 68.738281 81.613281 71.496094 C 81.613281 74.253906 83.847656 76.492188 86.605469 76.492188 C 89.363281 76.492188 91.601562 74.253906 91.601562 71.496094 "/>
<path fill-rule="evenodd" fill="rgb(0%, 0%, 0%)" fill-opacity="1" d="M 92.601562 71.496094 C 92.601562 68.183594 89.917969 65.503906 86.605469 65.503906 C 83.296875 65.503906 80.613281 68.183594 80.613281 71.496094 C 80.613281 74.804688 83.296875 77.488281 86.605469 77.488281 C 89.917969 77.488281 92.601562 74.804688 92.601562 71.496094 M 90.601562 71.496094 C 90.601562 69.289062 88.8125 67.5 86.605469 67.5 C 84.398438 67.5 82.609375 69.289062 82.609375 71.496094 C 82.609375 73.703125 84.398438 75.492188 86.605469 75.492188 C 88.8125 75.492188 90.601562 73.703125 90.601562 71.496094 "/>
<path fill-rule="evenodd" fill="rgb(100%, 72.499084%, 5.899048%)" fill-opacity="1" d="M 91.601562 103.460938 C 91.601562 100.703125 89.363281 98.464844 86.605469 98.464844 C 83.847656 98.464844 81.613281 100.703125 81.613281 103.460938 C 81.613281 106.21875 83.847656 108.457031 86.605469 108.457031 C 89.363281 108.457031 91.601562 106.21875 91.601562 103.460938 "/>
<path fill-rule="evenodd" fill="rgb(0%, 0%, 0%)" fill-opacity="1" d="M 92.601562 103.460938 C 92.601562 100.152344 89.917969 97.46875 86.605469 97.46875 C 83.296875 97.46875 80.613281 100.152344 80.613281 103.460938 C 80.613281 106.773438 83.296875 109.453125 86.605469 109.453125 C 89.917969 109.453125 92.601562 106.773438 92.601562 103.460938 M 90.601562 103.460938 C 90.601562 101.253906 88.8125 99.464844 86.605469 99.464844 C 84.398438 99.464844 82.609375 101.253906 82.609375 103.460938 C 82.609375 105.667969 84.398438 107.457031 86.605469 107.457031 C 88.8125 107.457031 90.601562 105.667969 90.601562 103.460938 "/>
<path fill-rule="evenodd" fill="rgb(27.099609%, 54.499817%, 0%)" fill-opacity="1" d="M 123.566406 103.460938 C 123.566406 100.703125 121.328125 98.464844 118.570312 98.464844 C 115.8125 98.464844 113.578125 100.703125 113.578125 103.460938 C 113.578125 106.21875 115.8125 108.457031 118.570312 108.457031 C 121.328125 108.457031 123.566406 106.21875 123.566406 103.460938 "/>
<path fill-rule="evenodd" fill="rgb(0%, 0%, 0%)" fill-opacity="1" d="M 124.566406 103.460938 C 124.566406 100.152344 121.882812 97.46875 118.570312 97.46875 C 115.261719 97.46875 112.578125 100.152344 112.578125 103.460938 C 112.578125 106.773438 115.261719 109.453125 118.570312 109.453125 C 121.882812 109.453125 124.566406 106.773438 124.566406 103.460938 M 122.566406 103.460938 C 122.566406 101.253906 120.777344 99.464844 118.570312 99.464844 C 116.363281 99.464844 114.574219 101.253906 114.574219 103.460938 C 114.574219 105.667969 116.363281 107.457031 118.570312 107.457031 C 120.777344 107.457031 122.566406 105.667969 122.566406 103.460938 "/>
<path fill-rule="evenodd" fill="rgb(100%, 100%, 0%)" fill-opacity="1" d="M 11.6875 71.496094 C 11.6875 68.738281 9.449219 66.5 6.691406 66.5 C 3.933594 66.5 1.699219 68.738281 1.699219 71.496094 C 1.699219 74.253906 3.933594 76.492188 6.691406 76.492188 C 9.449219 76.492188 11.6875 74.253906 11.6875 71.496094 "/>
<path fill-rule="evenodd" fill="rgb(0%, 0%, 0%)" fill-opacity="1" d="M 12.6875 71.496094 C 12.6875 68.183594 10.003906 65.503906 6.691406 65.503906 C 3.382812 65.503906 0.699219 68.183594 0.699219 71.496094 C 0.699219 74.804688 3.382812 77.488281 6.691406 77.488281 C 10.003906 77.488281 12.6875 74.804688 12.6875 71.496094 M 10.6875 71.496094 C 10.6875 69.289062 8.898438 67.5 6.691406 67.5 C 4.484375 67.5 2.695312 69.289062 2.695312 71.496094 C 2.695312 73.703125 4.484375 75.492188 6.691406 75.492188 C 8.898438 75.492188 10.6875 73.703125 10.6875 71.496094 "/>
<path fill-rule="evenodd" fill="rgb(0%, 69.799805%, 93.299866%)" fill-opacity="1" d="M 167.519531 75.492188 C 167.519531 72.734375 165.28125 70.496094 162.523438 70.496094 C 159.765625 70.496094 157.53125 72.734375 157.53125 75.492188 C 157.53125 78.25 159.765625 80.484375 162.523438 80.484375 C 165.28125 80.484375 167.519531 78.25 167.519531 75.492188 "/>
<path fill-rule="evenodd" fill="rgb(0%, 0%, 0%)" fill-opacity="1" d="M 168.519531 75.492188 C 168.519531 72.179688 165.835938 69.496094 162.523438 69.496094 C 159.214844 69.496094 156.53125 72.179688 156.53125 75.492188 C 156.53125 78.800781 159.214844 81.484375 162.523438 81.484375 C 165.835938 81.484375 168.519531 78.800781 168.519531 75.492188 M 166.519531 75.492188 C 166.519531 73.285156 164.730469 71.496094 162.523438 71.496094 C 160.316406 71.496094 158.527344 73.285156 158.527344 75.492188 C 158.527344 77.699219 160.316406 79.488281 162.523438 79.488281 C 164.730469 79.488281 166.519531 77.699219 166.519531 75.492188 "/>
</svg>
