<?xml version="1.0" encoding="UTF-8"?>
<svg xmlns="http://www.w3.org/2000/svg" xmlns:xlink="http://www.w3.org/1999/xlink" width="233.4" height="265.4" viewBox="0 0 233.4 265.4">
<defs>
<clipPath id="clip-0">
<path clip-rule="nonzero" d="M 160 0.0429688 L 185 0.0429688 L 185 25 L 160 25 Z M 160 0.0429688 "/>
</clipPath>
<clipPath id="clip-1">
<path clip-rule="nonzero" d="M 208 240 L 232.800781 240 L 232.800781 264.761719 L 208 264.761719 Z M 208 240 "/>
</clipPath>
</defs>
<path fill="none" stroke-width="1.2" stroke-linecap="butt" stroke-linejoin="round" stroke="rgb(0%, 0%, 0%)" stroke-opacity="1" stroke-miterlimit="10" d="M 32.000534 128.001334 L 192.000635 288.001434 " transform="matrix(0.997436, 0, 0, -0.997436, -19.250513, 299.97)"/>
<path fill="none" stroke-width="1.2" stroke-linecap="butt" stroke-linejoin="round" stroke="rgb(0%, 0%, 0%)" stroke-opacity="1" stroke-miterlimit="10" d="M 192.000635 288.001434 L 239.998707 47.999325 " transform="matrix(0.997436, 0, 0, -0.997436, -19.250513, 299.97)"/>
<path fill="none" stroke-width="1.2" stroke-linecap="butt" stroke-linejoin="round" stroke="rgb(0%, 0%, 0%)" stroke-opacity="1" stroke-miterlimit="10" d="M 239.998707 47.999325 L 32.000534 128.001334 " transform="matrix(0.997436, 0, 0, -0.997436, -19.250513, 299.97)"/>
<path fill="none" stroke-width="1.2" stroke-linecap="butt" stroke-linejoin="round" stroke="rgb(0%, 0%, 0%)" stroke-opacity="1" stroke-miterlimit="10" d="M 201.200004 151.600908 L 169.199984 119.600888 " transform="matrix(0.997436, 0, 0, -0.997436, -19.250513, 299.97)"/>
<path fill="none" stroke-width="1.2" stroke-linecap="butt" stroke-linejoin="round" stroke="rgb(0%, 0%, 0%)" stroke-opacity="1" stroke-miterlimit="10" d="M 169.199984 119.600888 L 201.200004 119.600888 " transform="matrix(0.997436, 0, 0, -0.997436, -19.250513, 299.97)"/>
<path fill="none" stroke-width="1.2" stroke-linecap="butt" stroke-linejoin="round" stroke="rgb(0%, 0%, 0%)" stroke-opacity="1" stroke-miterlimit="10" d="M 201.200004 119.600888 L 201.200004 151.600908 " transform="matrix(0.997436, 0, 0, -0.997436, -19.250513, 299.97)"/>
<path fill="none" stroke-width="1.2" stroke-linecap="butt" stroke-linejoin="round" stroke="rgb(0%, 0%, 0%)" stroke-opacity="1" stroke-miterlimit="10" d="M 201.200004 151.600908 L 239.998707 47.999325 " transform="matrix(0.997436, 0, 0, -0.997436, -19.250513, 299.97)"/>
<path fill="none" stroke-width="1.2" stroke-linecap="butt" stroke-linejoin="round" stroke="rgb(0%, 0%, 0%)" stroke-opacity="1" stroke-miterlimit="10" d="M 169.199984 119.600888 L 239.998707 47.999325 " transform="matrix(0.997436, 0, 0, -0.997436, -19.250513, 299.97)"/>
<path fill="none" stroke-width="1.2" stroke-linecap="butt" stroke-linejoin="round" stroke="rgb(0%, 0%, 0%)" stroke-opacity="1" stroke-miterlimit="10" d="M 137.199964 119.600888 L 239.998707 47.999325 " transform="matrix(0.997436, 0, 0, -0.997436, -19.250513, 299.97)"/>
<path fill="none" stroke-width="1.2" stroke-linecap="butt" stroke-linejoin="round" stroke="rgb(0%, 0%, 0%)" stroke-opacity="1" stroke-miterlimit="10" d="M 137.199964 119.600888 L 169.199984 119.600888 " transform="matrix(0.997436, 0, 0, -0.997436, -19.250513, 299.97)"/>
<path fill="none" stroke-width="1.2" stroke-linecap="butt" stroke-linejoin="round" stroke="rgb(0%, 0%, 0%)" stroke-opacity="1" stroke-miterlimit="10" d="M 32.000534 128.001334 L 137.199964 119.600888 " transform="matrix(0.997436, 0, 0, -0.997436, -19.250513, 299.97)"/>
<path fill="none" stroke-width="1.2" stroke-linecap="butt" stroke-linejoin="round" stroke="rgb(0%, 0%, 0%)" stroke-opacity="1" stroke-miterlimit="10" d="M 32.000534 128.001334 L 137.199964 151.600908 " transform="matrix(0.997436, 0, 0, -0.997436, -19.250513, 299.97)"/>
<path fill="none" stroke-width="1.2" stroke-linecap="butt" stroke-linejoin="round" stroke="rgb(0%, 0%, 0%)" stroke-opacity="1" stroke-miterlimit="10" d="M 32.000534 128.001334 L 137.199964 183.600928 " transform="matrix(0.997436, 0, 0, -0.997436, -19.250513, 299.97)"/>
<path fill="none" stroke-width="1.2" stroke-linecap="butt" stroke-linejoin="round" stroke="rgb(0%, 0%, 0%)" stroke-opacity="1" stroke-miterlimit="10" d="M 32.000534 128.001334 L 171.765155 223.151558 " transform="matrix(0.997436, 0, 0, -0.997436, -19.250513, 299.97)"/>
<path fill="none" stroke-width="1.2" stroke-linecap="butt" stroke-linejoin="round" stroke="rgb(0%, 0%, 0%)" stroke-opacity="1" stroke-miterlimit="10" d="M 137.199964 183.600928 L 137.199964 151.600908 " transform="matrix(0.997436, 0, 0, -0.997436, -19.250513, 299.97)"/>
<path fill="none" stroke-width="1.2" stroke-linecap="butt" stroke-linejoin="round" stroke="rgb(0%, 0%, 0%)" stroke-opacity="1" stroke-miterlimit="10" d="M 137.199964 151.600908 L 137.199964 119.600888 " transform="matrix(0.997436, 0, 0, -0.997436, -19.250513, 299.97)"/>
<path fill="none" stroke-width="1.2" stroke-linecap="butt" stroke-linejoin="round" stroke="rgb(0%, 0%, 0%)" stroke-opacity="1" stroke-miterlimit="10" d="M 171.765155 223.151558 L 137.199964 183.600928 " transform="matrix(0.997436, 0, 0, -0.997436, -19.250513, 299.97)"/>
<path fill="none" stroke-width="1.2" stroke-linecap="butt" stroke-linejoin="round" stroke="rgb(0%, 0%, 0%)" stroke-opacity="1" stroke-miterlimit="10" d="M 201.200004 151.600908 L 192.000635 288.001434 " transform="matrix(0.997436, 0, 0, -0.997436, -19.250513, 299.97)"/>
<path fill="none" stroke-width="1.2" stroke-linecap="butt" stroke-linejoin="round" stroke="rgb(0%, 0%, 0%)" stroke-opacity="1" stroke-miterlimit="10" d="M 171.765155 223.151558 L 169.199984 151.600908 " transform="matrix(0.997436, 0, 0, -0.997436, -19.250513, 299.97)"/>
<path fill="none" stroke-width="1.2" stroke-linecap="butt" stroke-linejoin="round" stroke="rgb(0%, 0%, 0%)" stroke-opacity="1" stroke-miterlimit="10" d="M 171.765155 223.151558 L 137.199964 151.600908 " transform="matrix(0.997436, 0, 0, -0.997436, -19.250513, 299.97)"/>
<path fill="none" stroke-width="1.2" stroke-linecap="butt" stroke-linejoin="round" stroke="rgb(0%, 0%, 0%)" stroke-opacity="1" stroke-miterlimit="10" d="M 192.000635 288.001434 L 169.199984 151.600908 " transform="matrix(0.997436, 0, 0, -0.997436, -19.250513, 299.97)"/>
<path fill="none" stroke-width="1.2" stroke-linecap="butt" stroke-linejoin="round" stroke="rgb(0%, 0%, 0%)" stroke-opacity="1" stroke-miterlimit="10" d="M 137.199964 151.600908 L 169.199984 119.600888 " transform="matrix(0.997436, 0, 0, -0.997436, -19.250513, 299.97)"/>
<path fill="none" stroke-width="1.2" stroke-linecap="butt" stroke-linejoin="round" stroke="rgb(0%, 0%, 0%)" stroke-opacity="1" stroke-miterlimit="10" d="M 169.199984 151.600908 L 169.199984 119.600888 " transform="matrix(0.997436, 0, 0, -0.997436, -19.250513, 299.97)"/>
<path fill="none" stroke-width="1.2" stroke-linecap="butt" stroke-linejoin="round" stroke="rgb(0%, 0%, 0%)" stroke-opacity="1" stroke-miterlimit="10" d="M 171.765155 223.151558 L 192.000635 288.001434 " transform="matrix(0.997436, 0, 0, -0.997436, -19.250513, 299.97)"/>
<path fill-rule="evenodd" fill="rgb(25%, 25%, 25%)" fill-opacity="1" d="M 182.230469 12.707031 C 182.230469 7.199219 177.765625 2.734375 172.257812 2.734375 C 166.75 2.734375 162.28125 7.199219 162.28125 12.707031 C 162.28125 18.21875 166.75 22.683594 172.257812 22.683594 C 177.765625 22.683594 182.230469 18.21875 182.230469 12.707031 "/>
<g clip-path="url(#clip-0)">
<path fill-rule="evenodd" fill="rgb(0%, 0%, 0%)" fill-opacity="1" d="M 184.226562 12.707031 C 184.226562 6.097656 178.867188 0.738281 172.257812 0.738281 C 165.648438 0.738281 160.289062 6.097656 160.289062 12.707031 C 160.289062 19.320312 165.648438 24.675781 172.257812 24.675781 C 178.867188 24.675781 184.226562 19.320312 184.226562 12.707031 M 180.238281 12.707031 C 180.238281 8.300781 176.664062 4.730469 172.257812 4.730469 C 167.851562 4.730469 164.277344 8.300781 164.277344 12.707031 C 164.277344 17.113281 167.851562 20.6875 172.257812 20.6875 C 176.664062 20.6875 180.238281 17.113281 180.238281 12.707031 "/>
</g>
<path fill-rule="evenodd" fill="rgb(56.498718%, 93.299866%, 56.498718%)" fill-opacity="1" d="M 162.050781 77.390625 C 162.050781 71.882812 157.585938 67.417969 152.074219 67.417969 C 146.566406 67.417969 142.101562 71.882812 142.101562 77.390625 C 142.101562 82.898438 146.566406 87.367188 152.074219 87.367188 C 157.585938 87.367188 162.050781 82.898438 162.050781 77.390625 "/>
<path fill-rule="evenodd" fill="rgb(0%, 0%, 0%)" fill-opacity="1" d="M 164.046875 77.390625 C 164.046875 70.78125 158.6875 65.421875 152.074219 65.421875 C 145.464844 65.421875 140.105469 70.78125 140.105469 77.390625 C 140.105469 84.003906 145.464844 89.359375 152.074219 89.359375 C 158.6875 89.359375 164.046875 84.003906 164.046875 77.390625 M 160.054688 77.390625 C 160.054688 72.984375 156.484375 69.410156 152.074219 69.410156 C 147.667969 69.410156 144.097656 72.984375 144.097656 77.390625 C 144.097656 81.796875 147.667969 85.371094 152.074219 85.371094 C 156.484375 85.371094 160.054688 81.796875 160.054688 77.390625 "/>
<path fill-rule="evenodd" fill="rgb(0%, 100%, 0%)" fill-opacity="1" d="M 127.570312 116.839844 C 127.570312 111.332031 123.105469 106.867188 117.597656 106.867188 C 112.089844 106.867188 107.625 111.332031 107.625 116.839844 C 107.625 122.347656 112.089844 126.816406 117.597656 126.816406 C 123.105469 126.816406 127.570312 122.347656 127.570312 116.839844 "/>
<path fill-rule="evenodd" fill="rgb(0%, 0%, 0%)" fill-opacity="1" d="M 129.566406 116.839844 C 129.566406 110.230469 124.207031 104.871094 117.597656 104.871094 C 110.988281 104.871094 105.628906 110.230469 105.628906 116.839844 C 105.628906 123.449219 110.988281 128.808594 117.597656 128.808594 C 124.207031 128.808594 129.566406 123.449219 129.566406 116.839844 M 125.578125 116.839844 C 125.578125 112.433594 122.003906 108.859375 117.597656 108.859375 C 113.191406 108.859375 109.617188 112.433594 109.617188 116.839844 C 109.617188 121.246094 113.191406 124.820312 117.597656 124.820312 C 122.003906 124.820312 125.578125 121.246094 125.578125 116.839844 "/>
<path fill="none" stroke-width="1.2" stroke-linecap="butt" stroke-linejoin="round" stroke="rgb(0%, 0%, 0%)" stroke-opacity="1" stroke-miterlimit="10" d="M 169.199984 151.600908 L 201.200004 151.600908 " transform="matrix(0.997436, 0, 0, -0.997436, -19.250513, 299.97)"/>
<path fill="none" stroke-width="1.2" stroke-linecap="butt" stroke-linejoin="round" stroke="rgb(0%, 0%, 0%)" stroke-opacity="1" stroke-miterlimit="10" d="M 169.199984 151.600908 L 137.199964 151.600908 " transform="matrix(0.997436, 0, 0, -0.997436, -19.250513, 299.97)"/>
<path fill-rule="evenodd" fill="rgb(62.69989%, 12.5%, 94.099426%)" fill-opacity="1" d="M 127.570312 148.757812 C 127.570312 143.25 123.105469 138.785156 117.597656 138.785156 C 112.089844 138.785156 107.625 143.25 107.625 148.757812 C 107.625 154.265625 112.089844 158.734375 117.597656 158.734375 C 123.105469 158.734375 127.570312 154.265625 127.570312 148.757812 "/>
<path fill-rule="evenodd" fill="rgb(0%, 0%, 0%)" fill-opacity="1" d="M 129.566406 148.757812 C 129.566406 142.148438 124.207031 136.789062 117.597656 136.789062 C 110.988281 136.789062 105.628906 142.148438 105.628906 148.757812 C 105.628906 155.367188 110.988281 160.726562 117.597656 160.726562 C 124.207031 160.726562 129.566406 155.367188 129.566406 148.757812 M 125.578125 148.757812 C 125.578125 144.351562 122.003906 140.777344 117.597656 140.777344 C 113.191406 140.777344 109.617188 144.351562 109.617188 148.757812 C 109.617188 153.164062 113.191406 156.738281 117.597656 156.738281 C 122.003906 156.738281 125.578125 153.164062 125.578125 148.757812 "/>
<path fill-rule="evenodd" fill="rgb(56.098938%, 73.699951%, 56.098938%)" fill-opacity="1" d="M 159.488281 148.757812 C 159.488281 143.25 155.023438 138.785156 149.515625 138.785156 C 144.007812 138.785156 139.542969 143.25 139.542969 148.757812 C 139.542969 154.265625 144.007812 158.734375 149.515625 158.734375 C 155.023438 158.734375 159.488281 154.265625 159.488281 148.757812 "/>
<path fill-rule="evenodd" fill="rgb(0%, 0%, 0%)" fill-opacity="1" d="M 161.484375 148.757812 C 161.484375 142.148438 156.125 136.789062 149.515625 136.789062 C 142.90625 136.789062 137.546875 142.148438 137.546875 148.757812 C 137.546875 155.367188 142.90625 160.726562 149.515625 160.726562 C 156.125 160.726562 161.484375 155.367188 161.484375 148.757812 M 157.496094 148.757812 C 157.496094 144.351562 153.921875 140.777344 149.515625 140.777344 C 145.109375 140.777344 141.535156 144.351562 141.535156 148.757812 C 141.535156 153.164062 145.109375 156.738281 149.515625 156.738281 C 153.921875 156.738281 157.496094 153.164062 157.496094 148.757812 "/>
<path fill-rule="evenodd" fill="rgb(100%, 64.698792%, 30.999756%)" fill-opacity="1" d="M 191.40625 148.757812 C 191.40625 143.25 186.941406 138.785156 181.433594 138.785156 C 175.925781 138.785156 171.460938 143.25 171.460938 148.757812 C 171.460938 154.265625 175.925781 158.734375 181.433594 158.734375 C 186.941406 158.734375 191.40625 154.265625 191.40625 148.757812 "/>
<path fill-rule="evenodd" fill="rgb(0%, 0%, 0%)" fill-opacity="1" d="M 193.402344 148.757812 C 193.402344 142.148438 188.042969 136.789062 181.433594 136.789062 C 174.824219 136.789062 169.464844 142.148438 169.464844 148.757812 C 169.464844 155.367188 174.824219 160.726562 181.433594 160.726562 C 188.042969 160.726562 193.402344 155.367188 193.402344 148.757812 M 189.414062 148.757812 C 189.414062 144.351562 185.839844 140.777344 181.433594 140.777344 C 177.027344 140.777344 173.453125 144.351562 173.453125 148.757812 C 173.453125 153.164062 177.027344 156.738281 181.433594 156.738281 C 185.839844 156.738281 189.414062 153.164062 189.414062 148.757812 "/>
<path fill-rule="evenodd" fill="rgb(100%, 72.499084%, 5.899048%)" fill-opacity="1" d="M 159.488281 180.675781 C 159.488281 175.167969 155.023438 170.703125 149.515625 170.703125 C 144.007812 170.703125 139.542969 175.167969 139.542969 180.675781 C 139.542969 186.183594 144.007812 190.652344 149.515625 190.652344 C 155.023438 190.652344 159.488281 186.183594 159.488281 180.675781 "/>
<path fill-rule="evenodd" fill="rgb(0%, 0%, 0%)" fill-opacity="1" d="M 161.484375 180.675781 C 161.484375 174.066406 156.125 168.707031 149.515625 168.707031 C 142.90625 168.707031 137.546875 174.066406 137.546875 180.675781 C 137.546875 187.285156 142.90625 192.644531 149.515625 192.644531 C 156.125 192.644531 161.484375 187.285156 161.484375 180.675781 M 157.496094 180.675781 C 157.496094 176.269531 153.921875 172.695312 149.515625 172.695312 C 145.109375 172.695312 141.535156 176.269531 141.535156 180.675781 C 141.535156 185.082031 145.109375 188.65625 149.515625 188.65625 C 153.921875 188.65625 157.496094 185.082031 157.496094 180.675781 "/>
<path fill-rule="evenodd" fill="rgb(100%, 75.299072%, 79.598999%)" fill-opacity="1" d="M 127.570312 180.675781 C 127.570312 175.167969 123.105469 170.703125 117.597656 170.703125 C 112.089844 170.703125 107.625 175.167969 107.625 180.675781 C 107.625 186.183594 112.089844 190.652344 117.597656 190.652344 C 123.105469 190.652344 127.570312 186.183594 127.570312 180.675781 "/>
<path fill-rule="evenodd" fill="rgb(0%, 0%, 0%)" fill-opacity="1" d="M 129.566406 180.675781 C 129.566406 174.066406 124.207031 168.707031 117.597656 168.707031 C 110.988281 168.707031 105.628906 174.066406 105.628906 180.675781 C 105.628906 187.285156 110.988281 192.644531 117.597656 192.644531 C 124.207031 192.644531 129.566406 187.285156 129.566406 180.675781 M 125.578125 180.675781 C 125.578125 176.269531 122.003906 172.695312 117.597656 172.695312 C 113.191406 172.695312 109.617188 176.269531 109.617188 180.675781 C 109.617188 185.082031 113.191406 188.65625 117.597656 188.65625 C 122.003906 188.65625 125.578125 185.082031 125.578125 180.675781 "/>
<path fill-rule="evenodd" fill="rgb(100%, 100%, 0%)" fill-opacity="1" d="M 22.640625 172.296875 C 22.640625 166.789062 18.175781 162.324219 12.667969 162.324219 C 7.160156 162.324219 2.691406 166.789062 2.691406 172.296875 C 2.691406 177.808594 7.160156 182.273438 12.667969 182.273438 C 18.175781 182.273438 22.640625 177.808594 22.640625 172.296875 "/>
<path fill-rule="evenodd" fill="rgb(0%, 0%, 0%)" fill-opacity="1" d="M 24.636719 172.296875 C 24.636719 165.6875 19.277344 160.328125 12.667969 160.328125 C 6.058594 160.328125 0.699219 165.6875 0.699219 172.296875 C 0.699219 178.910156 6.058594 184.265625 12.667969 184.265625 C 19.277344 184.265625 24.636719 178.910156 24.636719 172.296875 M 20.648438 172.296875 C 20.648438 167.890625 17.074219 164.320312 12.667969 164.320312 C 8.261719 164.320312 4.6875 167.890625 4.6875 172.296875 C 4.6875 176.703125 8.261719 180.277344 12.667969 180.277344 C 17.074219 180.277344 20.648438 176.703125 20.648438 172.296875 "/>
<path fill-rule="evenodd" fill="rgb(100%, 100%, 0%)" fill-opacity="1" d="M 22.640625 172.296875 C 22.640625 166.789062 18.175781 162.324219 12.667969 162.324219 C 7.160156 162.324219 2.691406 166.789062 2.691406 172.296875 C 2.691406 177.808594 7.160156 182.273438 12.667969 182.273438 C 18.175781 182.273438 22.640625 177.808594 22.640625 172.296875 "/>
<path fill-rule="evenodd" fill="rgb(0%, 0%, 0%)" fill-opacity="1" d="M 24.636719 172.296875 C 24.636719 165.6875 19.277344 160.328125 12.667969 160.328125 C 6.058594 160.328125 0.699219 165.6875 0.699219 172.296875 C 0.699219 178.910156 6.058594 184.265625 12.667969 184.265625 C 19.277344 184.265625 24.636719 178.910156 24.636719 172.296875 M 20.648438 172.296875 C 20.648438 167.890625 17.074219 164.320312 12.667969 164.320312 C 8.261719 164.320312 4.6875 167.890625 4.6875 172.296875 C 4.6875 176.703125 8.261719 180.277344 12.667969 180.277344 C 17.074219 180.277344 20.648438 176.703125 20.648438 172.296875 "/>
<path fill="none" stroke-width="1.2" stroke-linecap="butt" stroke-linejoin="round" stroke="rgb(0%, 0%, 0%)" stroke-opacity="1" stroke-miterlimit="10" d="M 201.200004 119.600888 L 239.998707 47.999325 " transform="matrix(0.997436, 0, 0, -0.997436, -19.250513, 299.97)"/>
<path fill-rule="evenodd" fill="rgb(0%, 69.799805%, 93.299866%)" fill-opacity="1" d="M 230.109375 252.09375 C 230.109375 246.585938 225.644531 242.117188 220.132812 242.117188 C 214.625 242.117188 210.160156 246.585938 210.160156 252.09375 C 210.160156 257.601562 214.625 262.066406 220.132812 262.066406 C 225.644531 262.066406 230.109375 257.601562 230.109375 252.09375 "/>
<g clip-path="url(#clip-1)">
<path fill-rule="evenodd" fill="rgb(0%, 0%, 0%)" fill-opacity="1" d="M 232.101562 252.09375 C 232.101562 245.484375 226.742188 240.125 220.132812 240.125 C 213.523438 240.125 208.164062 245.484375 208.164062 252.09375 C 208.164062 258.703125 213.523438 264.0625 220.132812 264.0625 C 226.742188 264.0625 232.101562 258.703125 232.101562 252.09375 M 228.113281 252.09375 C 228.113281 247.6875 224.539062 244.113281 220.132812 244.113281 C 215.726562 244.113281 212.15625 247.6875 212.15625 252.09375 C 212.15625 256.5 215.726562 260.074219 220.132812 260.074219 C 224.539062 260.074219 228.113281 256.5 228.113281 252.09375 "/>
</g>
<path fill-rule="evenodd" fill="rgb(27.099609%, 54.499817%, 0%)" fill-opacity="1" d="M 191.40625 180.675781 C 191.40625 175.167969 186.941406 170.703125 181.433594 170.703125 C 175.925781 170.703125 171.460938 175.167969 171.460938 180.675781 C 171.460938 186.183594 175.925781 190.652344 181.433594 190.652344 C 186.941406 190.652344 191.40625 186.183594 191.40625 180.675781 "/>
<path fill-rule="evenodd" fill="rgb(0%, 0%, 0%)" fill-opacity="1" d="M 193.402344 180.675781 C 193.402344 174.066406 188.042969 168.707031 181.433594 168.707031 C 174.824219 168.707031 169.464844 174.066406 169.464844 180.675781 C 169.464844 187.285156 174.824219 192.644531 181.433594 192.644531 C 188.042969 192.644531 193.402344 187.285156 193.402344 180.675781 M 189.414062 180.675781 C 189.414062 176.269531 185.839844 172.695312 181.433594 172.695312 C 177.027344 172.695312 173.453125 176.269531 173.453125 180.675781 C 173.453125 185.082031 177.027344 188.65625 181.433594 188.65625 C 185.839844 188.65625 189.414062 185.082031 189.414062 180.675781 "/>
</svg>
