<?xml version="1.0" encoding="UTF-8"?>
<svg xmlns="http://www.w3.org/2000/svg" xmlns:xlink="http://www.w3.org/1999/xlink" width="1000" height="1000" viewBox="0 0 1000 1000">
<rect x="-100" y="-100" width="1200" height="1200" fill="rgb(100%, 100%, 100%)" fill-opacity="1"/>
<path fill="none" stroke-width="2.5" stroke-linecap="butt" stroke-linejoin="miter" stroke="rgb(19.999695%, 19.999695%, 19.999695%)" stroke-opacity="0.6" stroke-miterlimit="10" d="M 900 500 L 880.421875 623.605469 "/>
<path fill="none" stroke-width="2.5" stroke-linecap="butt" stroke-linejoin="miter" stroke="rgb(19.999695%, 19.999695%, 19.999695%)" stroke-opacity="0.6" stroke-miterlimit="10" d="M 900 500 L 623.605469 880.421875 "/>
<path fill="none" stroke-width="2.5" stroke-linecap="butt" stroke-linejoin="miter" stroke="rgb(19.999695%, 19.999695%, 19.999695%)" stroke-opacity="0.6" stroke-miterlimit="10" d="M 900 500 L 264.886719 176.394531 "/>
<path fill="none" stroke-width="2.5" stroke-linecap="butt" stroke-linejoin="miter" stroke="rgb(19.999695%, 19.999695%, 19.999695%)" stroke-opacity="0.6" stroke-miterlimit="10" d="M 900 500 L 735.113281 176.394531 "/>
<path fill="none" stroke-width="2.5" stroke-linecap="butt" stroke-linejoin="miter" stroke="rgb(19.999695%, 19.999695%, 19.999695%)" stroke-opacity="0.6" stroke-miterlimit="10" d="M 880.421875 623.605469 L 735.113281 823.605469 "/>
<path fill="none" stroke-width="2.5" stroke-linecap="butt" stroke-linejoin="miter" stroke="rgb(19.999695%, 19.999695%, 19.999695%)" stroke-opacity="0.6" stroke-miterlimit="10" d="M 880.421875 623.605469 L 623.605469 880.421875 "/>
<path fill="none" stroke-width="2.5" stroke-linecap="butt" stroke-linejoin="miter" stroke="rgb(19.999695%, 19.999695%, 19.999695%)" stroke-opacity="0.6" stroke-miterlimit="10" d="M 880.421875 623.605469 L 500 900 "/>
<path fill="none" stroke-width="2.5" stroke-linecap="butt" stroke-linejoin="miter" stroke="rgb(19.999695%, 19.999695%, 19.999695%)" stroke-opacity="0.6" stroke-miterlimit="10" d="M 880.421875 623.605469 L 264.886719 823.605469 "/>
<path fill="none" stroke-width="2.5" stroke-linecap="butt" stroke-linejoin="miter" stroke="rgb(19.999695%, 19.999695%, 19.999695%)" stroke-opacity="0.6" stroke-miterlimit="10" d="M 880.421875 623.605469 L 176.394531 735.113281 "/>
<path fill="none" stroke-width="2.5" stroke-linecap="butt" stroke-linejoin="miter" stroke="rgb(19.999695%, 19.999695%, 19.999695%)" stroke-opacity="0.6" stroke-miterlimit="10" d="M 880.421875 623.605469 L 119.578125 376.394531 "/>
<path fill="none" stroke-width="2.5" stroke-linecap="butt" stroke-linejoin="miter" stroke="rgb(19.999695%, 19.999695%, 19.999695%)" stroke-opacity="0.6" stroke-miterlimit="10" d="M 823.605469 735.113281 L 264.886719 823.605469 "/>
<path fill="none" stroke-width="2.5" stroke-linecap="butt" stroke-linejoin="miter" stroke="rgb(19.999695%, 19.999695%, 19.999695%)" stroke-opacity="0.6" stroke-miterlimit="10" d="M 823.605469 735.113281 L 176.394531 735.113281 "/>
<path fill="none" stroke-width="2.5" stroke-linecap="butt" stroke-linejoin="miter" stroke="rgb(19.999695%, 19.999695%, 19.999695%)" stroke-opacity="0.6" stroke-miterlimit="10" d="M 735.113281 823.605469 L 623.605469 880.421875 "/>
<path fill="none" stroke-width="2.5" stroke-linecap="butt" stroke-linejoin="miter" stroke="rgb(19.999695%, 19.999695%, 19.999695%)" stroke-opacity="0.6" stroke-miterlimit="10" d="M 735.113281 823.605469 L 264.886719 823.605469 "/>
<path fill="none" stroke-width="2.5" stroke-linecap="butt" stroke-linejoin="miter" stroke="rgb(19.999695%, 19.999695%, 19.999695%)" stroke-opacity="0.6" stroke-miterlimit="10" d="M 735.113281 823.605469 L 176.394531 735.113281 "/>
<path fill="none" stroke-width="2.5" stroke-linecap="butt" stroke-linejoin="miter" stroke="rgb(19.999695%, 19.999695%, 19.999695%)" stroke-opacity="0.6" stroke-miterlimit="10" d="M 623.605469 880.421875 L 264.886719 823.605469 "/>
<path fill="none" stroke-width="2.5" stroke-linecap="butt" stroke-linejoin="miter" stroke="rgb(19.999695%, 19.999695%, 19.999695%)" stroke-opacity="0.6" stroke-miterlimit="10" d="M 500 900 L 264.886719 176.394531 "/>
<path fill="none" stroke-width="2.5" stroke-linecap="butt" stroke-linejoin="miter" stroke="rgb(19.999695%, 19.999695%, 19.999695%)" stroke-opacity="0.6" stroke-miterlimit="10" d="M 500 900 L 735.113281 176.394531 "/>
<path fill="none" stroke-width="2.5" stroke-linecap="butt" stroke-linejoin="miter" stroke="rgb(19.999695%, 19.999695%, 19.999695%)" stroke-opacity="0.6" stroke-miterlimit="10" d="M 376.394531 880.421875 L 119.578125 376.394531 "/>
<path fill="none" stroke-width="2.5" stroke-linecap="butt" stroke-linejoin="miter" stroke="rgb(19.999695%, 19.999695%, 19.999695%)" stroke-opacity="0.6" stroke-miterlimit="10" d="M 376.394531 880.421875 L 823.605469 264.886719 "/>
<path fill="none" stroke-width="2.5" stroke-linecap="butt" stroke-linejoin="miter" stroke="rgb(19.999695%, 19.999695%, 19.999695%)" stroke-opacity="0.6" stroke-miterlimit="10" d="M 264.886719 823.605469 L 176.394531 735.113281 "/>
<path fill="none" stroke-width="2.5" stroke-linecap="butt" stroke-linejoin="miter" stroke="rgb(19.999695%, 19.999695%, 19.999695%)" stroke-opacity="0.6" stroke-miterlimit="10" d="M 176.394531 735.113281 L 119.578125 623.605469 "/>
<path fill="none" stroke-width="2.5" stroke-linecap="butt" stroke-linejoin="miter" stroke="rgb(19.999695%, 19.999695%, 19.999695%)" stroke-opacity="0.6" stroke-miterlimit="10" d="M 176.394531 735.113281 L 100 500 "/>
<path fill="none" stroke-width="2.5" stroke-linecap="butt" stroke-linejoin="miter" stroke="rgb(19.999695%, 19.999695%, 19.999695%)" stroke-opacity="0.6" stroke-miterlimit="10" d="M 176.394531 735.113281 L 376.394531 119.578125 "/>
<path fill="none" stroke-width="2.5" stroke-linecap="butt" stroke-linejoin="miter" stroke="rgb(19.999695%, 19.999695%, 19.999695%)" stroke-opacity="0.6" stroke-miterlimit="10" d="M 176.394531 735.113281 L 500 100 "/>
<path fill="none" stroke-width="2.5" stroke-linecap="butt" stroke-linejoin="miter" stroke="rgb(19.999695%, 19.999695%, 19.999695%)" stroke-opacity="0.6" stroke-miterlimit="10" d="M 176.394531 735.113281 L 880.421875 376.394531 "/>
<path fill="none" stroke-width="2.5" stroke-linecap="butt" stroke-linejoin="miter" stroke="rgb(19.999695%, 19.999695%, 19.999695%)" stroke-opacity="0.6" stroke-miterlimit="10" d="M 119.578125 623.605469 L 119.578125 376.394531 "/>
<path fill="none" stroke-width="2.5" stroke-linecap="butt" stroke-linejoin="miter" stroke="rgb(19.999695%, 19.999695%, 19.999695%)" stroke-opacity="0.6" stroke-miterlimit="10" d="M 119.578125 623.605469 L 176.394531 264.886719 "/>
<path fill="none" stroke-width="2.5" stroke-linecap="butt" stroke-linejoin="miter" stroke="rgb(19.999695%, 19.999695%, 19.999695%)" stroke-opacity="0.6" stroke-miterlimit="10" d="M 119.578125 623.605469 L 376.394531 119.578125 "/>
<path fill="none" stroke-width="2.5" stroke-linecap="butt" stroke-linejoin="miter" stroke="rgb(19.999695%, 19.999695%, 19.999695%)" stroke-opacity="0.6" stroke-miterlimit="10" d="M 119.578125 623.605469 L 500 100 "/>
<path fill="none" stroke-width="2.5" stroke-linecap="butt" stroke-linejoin="miter" stroke="rgb(19.999695%, 19.999695%, 19.999695%)" stroke-opacity="0.6" stroke-miterlimit="10" d="M 119.578125 623.605469 L 880.421875 376.394531 "/>
<path fill="none" stroke-width="2.5" stroke-linecap="butt" stroke-linejoin="miter" stroke="rgb(19.999695%, 19.999695%, 19.999695%)" stroke-opacity="0.6" stroke-miterlimit="10" d="M 119.578125 376.394531 L 176.394531 264.886719 "/>
<path fill="none" stroke-width="2.5" stroke-linecap="butt" stroke-linejoin="miter" stroke="rgb(19.999695%, 19.999695%, 19.999695%)" stroke-opacity="0.6" stroke-miterlimit="10" d="M 119.578125 376.394531 L 376.394531 119.578125 "/>
<path fill="none" stroke-width="2.5" stroke-linecap="butt" stroke-linejoin="miter" stroke="rgb(19.999695%, 19.999695%, 19.999695%)" stroke-opacity="0.6" stroke-miterlimit="10" d="M 119.578125 376.394531 L 880.421875 376.394531 "/>
<path fill="none" stroke-width="2.5" stroke-linecap="butt" stroke-linejoin="miter" stroke="rgb(19.999695%, 19.999695%, 19.999695%)" stroke-opacity="0.6" stroke-miterlimit="10" d="M 176.394531 264.886719 L 376.394531 119.578125 "/>
<path fill="none" stroke-width="2.5" stroke-linecap="butt" stroke-linejoin="miter" stroke="rgb(19.999695%, 19.999695%, 19.999695%)" stroke-opacity="0.6" stroke-miterlimit="10" d="M 176.394531 264.886719 L 623.605469 119.578125 "/>
<path fill="none" stroke-width="2.5" stroke-linecap="butt" stroke-linejoin="miter" stroke="rgb(19.999695%, 19.999695%, 19.999695%)" stroke-opacity="0.6" stroke-miterlimit="10" d="M 176.394531 264.886719 L 880.421875 376.394531 "/>
<path fill="none" stroke-width="2.5" stroke-linecap="butt" stroke-linejoin="miter" stroke="rgb(19.999695%, 19.999695%, 19.999695%)" stroke-opacity="0.6" stroke-miterlimit="10" d="M 264.886719 176.394531 L 735.113281 176.394531 "/>
<path fill="none" stroke-width="2.5" stroke-linecap="butt" stroke-linejoin="miter" stroke="rgb(19.999695%, 19.999695%, 19.999695%)" stroke-opacity="0.6" stroke-miterlimit="10" d="M 376.394531 119.578125 L 500 100 "/>
<path fill="none" stroke-width="2.5" stroke-linecap="butt" stroke-linejoin="miter" stroke="rgb(19.999695%, 19.999695%, 19.999695%)" stroke-opacity="0.6" stroke-miterlimit="10" d="M 376.394531 119.578125 L 880.421875 376.394531 "/>
<path fill="none" stroke-width="2.5" stroke-linecap="butt" stroke-linejoin="miter" stroke="rgb(19.999695%, 19.999695%, 19.999695%)" stroke-opacity="0.6" stroke-miterlimit="10" d="M 500 100 L 880.421875 376.394531 "/>
<path fill-rule="nonzero" fill="rgb(83.418274%, 17.999268%, 89.99939%)" fill-opacity="1" d="M 912 500 C 912 506.628906 906.628906 512 900 512 C 893.371094 512 888 506.628906 888 500 C 888 493.371094 893.371094 488 900 488 C 906.628906 488 912 493.371094 912 500 "/>
<path fill-rule="nonzero" fill="rgb(89.99939%, 17.999268%, 45.111084%)" fill-opacity="1" d="M 892.421875 623.605469 C 892.421875 630.234375 887.050781 635.605469 880.421875 635.605469 C 873.796875 635.605469 868.421875 630.234375 868.421875 623.605469 C 868.421875 616.980469 873.796875 611.605469 880.421875 611.605469 C 887.050781 611.605469 892.421875 616.980469 892.421875 623.605469 "/>
<path fill-rule="nonzero" fill="rgb(57.266235%, 89.99939%, 17.999268%)" fill-opacity="1" d="M 835.605469 735.113281 C 835.605469 741.742188 830.234375 747.113281 823.605469 747.113281 C 816.980469 747.113281 811.605469 741.742188 811.605469 735.113281 C 811.605469 728.488281 816.980469 723.113281 823.605469 723.113281 C 830.234375 723.113281 835.605469 728.488281 835.605469 735.113281 "/>
<path fill-rule="nonzero" fill="rgb(17.999268%, 77.171326%, 89.99939%)" fill-opacity="1" d="M 747.113281 823.605469 C 747.113281 830.234375 741.742188 835.605469 735.113281 835.605469 C 728.488281 835.605469 723.113281 830.234375 723.113281 823.605469 C 723.113281 816.980469 728.488281 811.605469 735.113281 811.605469 C 741.742188 811.605469 747.113281 816.980469 747.113281 823.605469 "/>
<path fill-rule="nonzero" fill="rgb(17.999268%, 89.99939%, 53.898621%)" fill-opacity="1" d="M 635.605469 880.421875 C 635.605469 887.050781 630.234375 892.421875 623.605469 892.421875 C 616.980469 892.421875 611.605469 887.050781 611.605469 880.421875 C 611.605469 873.796875 616.980469 868.421875 623.605469 868.421875 C 630.234375 868.421875 635.605469 873.796875 635.605469 880.421875 "/>
<path fill-rule="nonzero" fill="rgb(17.999268%, 55.021667%, 89.99939%)" fill-opacity="1" d="M 512 900 C 512 906.628906 506.628906 912 500 912 C 493.371094 912 488 906.628906 488 900 C 488 893.371094 493.371094 888 500 888 C 506.628906 888 512 893.371094 512 900 "/>
<path fill-rule="nonzero" fill="rgb(17.999268%, 59.332275%, 89.99939%)" fill-opacity="1" d="M 388.394531 880.421875 C 388.394531 887.050781 383.019531 892.421875 376.394531 892.421875 C 369.765625 892.421875 364.394531 887.050781 364.394531 880.421875 C 364.394531 873.796875 369.765625 868.421875 376.394531 868.421875 C 383.019531 868.421875 388.394531 873.796875 388.394531 880.421875 "/>
<path fill-rule="nonzero" fill="rgb(88.641357%, 17.999268%, 89.99939%)" fill-opacity="1" d="M 276.886719 823.605469 C 276.886719 830.234375 271.511719 835.605469 264.886719 835.605469 C 258.257812 835.605469 252.886719 830.234375 252.886719 823.605469 C 252.886719 816.980469 258.257812 811.605469 264.886719 811.605469 C 271.511719 811.605469 276.886719 816.980469 276.886719 823.605469 "/>
<path fill-rule="nonzero" fill="rgb(89.99939%, 73.796082%, 17.999268%)" fill-opacity="1" d="M 188.394531 735.113281 C 188.394531 741.742188 183.019531 747.113281 176.394531 747.113281 C 169.765625 747.113281 164.394531 741.742188 164.394531 735.113281 C 164.394531 728.488281 169.765625 723.113281 176.394531 723.113281 C 183.019531 723.113281 188.394531 728.488281 188.394531 735.113281 "/>
<path fill-rule="nonzero" fill="rgb(17.999268%, 89.99939%, 30.206299%)" fill-opacity="1" d="M 131.578125 623.605469 C 131.578125 630.234375 126.203125 635.605469 119.578125 635.605469 C 112.949219 635.605469 107.578125 630.234375 107.578125 623.605469 C 107.578125 616.980469 112.949219 611.605469 119.578125 611.605469 C 126.203125 611.605469 131.578125 616.980469 131.578125 623.605469 "/>
<path fill-rule="nonzero" fill="rgb(17.999268%, 61.590576%, 89.99939%)" fill-opacity="1" d="M 112 500 C 112 506.628906 106.628906 512 100 512 C 93.371094 512 88 506.628906 88 500 C 88 493.371094 93.371094 488 100 488 C 106.628906 488 112 493.371094 112 500 "/>
<path fill-rule="nonzero" fill="rgb(71.650696%, 89.99939%, 17.999268%)" fill-opacity="1" d="M 131.578125 376.394531 C 131.578125 383.019531 126.203125 388.394531 119.578125 388.394531 C 112.949219 388.394531 107.578125 383.019531 107.578125 376.394531 C 107.578125 369.765625 112.949219 364.394531 119.578125 364.394531 C 126.203125 364.394531 131.578125 369.765625 131.578125 376.394531 "/>
<path fill-rule="nonzero" fill="rgb(17.999268%, 89.99939%, 75.556946%)" fill-opacity="1" d="M 188.394531 264.886719 C 188.394531 271.511719 183.019531 276.886719 176.394531 276.886719 C 169.765625 276.886719 164.394531 271.511719 164.394531 264.886719 C 164.394531 258.257812 169.765625 252.886719 176.394531 252.886719 C 183.019531 252.886719 188.394531 258.257812 188.394531 264.886719 "/>
<path fill-rule="nonzero" fill="rgb(17.999268%, 89.99939%, 36.778259%)" fill-opacity="1" d="M 276.886719 176.394531 C 276.886719 183.019531 271.511719 188.394531 264.886719 188.394531 C 258.257812 188.394531 252.886719 183.019531 252.886719 176.394531 C 252.886719 169.765625 258.257812 164.394531 264.886719 164.394531 C 271.511719 164.394531 276.886719 169.765625 276.886719 176.394531 "/>
<path fill-rule="nonzero" fill="rgb(89.99939%, 17.999268%, 42.092896%)" fill-opacity="1" d="M 388.394531 119.578125 C 388.394531 126.203125 383.019531 131.578125 376.394531 131.578125 C 369.765625 131.578125 364.394531 126.203125 364.394531 119.578125 C 364.394531 112.949219 369.765625 107.578125 376.394531 107.578125 C 383.019531 107.578125 388.394531 112.949219 388.394531 119.578125 "/>
<path fill-rule="nonzero" fill="rgb(41.366577%, 17.999268%, 89.99939%)" fill-opacity="1" d="M 512 100 C 512 106.628906 506.628906 112 500 112 C 493.371094 112 488 106.628906 488 100 C 488 93.371094 493.371094 88 500 88 C 506.628906 88 512 93.371094 512 100 "/>
<path fill-rule="nonzero" fill="rgb(17.999268%, 89.99939%, 20.181274%)" fill-opacity="1" d="M 635.605469 119.578125 C 635.605469 126.203125 630.234375 131.578125 623.605469 131.578125 C 616.980469 131.578125 611.605469 126.203125 611.605469 119.578125 C 611.605469 112.949219 616.980469 107.578125 623.605469 107.578125 C 630.234375 107.578125 635.605469 112.949219 635.605469 119.578125 "/>
<path fill-rule="nonzero" fill="rgb(17.999268%, 89.99939%, 24.32251%)" fill-opacity="1" d="M 747.113281 176.394531 C 747.113281 183.019531 741.742188 188.394531 735.113281 188.394531 C 728.488281 188.394531 723.113281 183.019531 723.113281 176.394531 C 723.113281 169.765625 728.488281 164.394531 735.113281 164.394531 C 741.742188 164.394531 747.113281 169.765625 747.113281 176.394531 "/>
<path fill-rule="nonzero" fill="rgb(69.345093%, 17.999268%, 89.99939%)" fill-opacity="1" d="M 835.605469 264.886719 C 835.605469 271.511719 830.234375 276.886719 823.605469 276.886719 C 816.980469 276.886719 811.605469 271.511719 811.605469 264.886719 C 811.605469 258.257812 816.980469 252.886719 823.605469 252.886719 C 830.234375 252.886719 835.605469 258.257812 835.605469 264.886719 "/>
<path fill-rule="nonzero" fill="rgb(89.99939%, 17.999268%, 73.603821%)" fill-opacity="1" d="M 892.421875 376.394531 C 892.421875 383.019531 887.050781 388.394531 880.421875 388.394531 C 873.796875 388.394531 868.421875 383.019531 868.421875 376.394531 C 868.421875 369.765625 873.796875 364.394531 880.421875 364.394531 C 887.050781 364.394531 892.421875 369.765625 892.421875 376.394531 "/>
</svg>
