<?xml version="1.0" encoding="UTF-8"?>
<svg xmlns="http://www.w3.org/2000/svg" xmlns:xlink="http://www.w3.org/1999/xlink" width="800" height="700" viewBox="0 0 800 700">
<path fill="none" stroke-width="4" stroke-linecap="butt" stroke-linejoin="miter" stroke="rgb(0%, 0%, 0%)" stroke-opacity="1" stroke-miterlimit="10" d="M 430 350 C 430 305.816406 394.183594 270 350 270 C 305.816406 270 270 305.816406 270 350 C 270 394.183594 305.816406 430 350 430 C 394.183594 430 430 394.183594 430 350 " transform="matrix(1, 0, 0, -1, 0, 700)"/>
<path fill-rule="nonzero" fill="rgb(0%, 0%, 0%)" fill-opacity="0.3" d="M 430 350 C 430 394.183594 394.183594 430 350 430 C 305.816406 430 270 394.183594 270 350 C 270 305.816406 305.816406 270 350 270 C 394.183594 270 430 305.816406 430 350 "/>
<path fill="none" stroke-width="2" stroke-linecap="butt" stroke-linejoin="miter" stroke="rgb(100%, 0%, 0%)" stroke-opacity="1" stroke-miterlimit="10" d="M 510 350 C 510 327.910156 492.089844 310 470 310 C 447.910156 310 430 327.910156 430 350 C 430 372.089844 447.910156 390 470 390 C 492.089844 390 510 372.089844 510 350 " transform="matrix(1, 0, 0, -1, 0, 700)"/>
<path fill-rule="nonzero" fill="rgb(100%, 0%, 0%)" fill-opacity="0.3" d="M 510 350 C 510 372.089844 492.089844 390 470 390 C 447.910156 390 430 372.089844 430 350 C 430 327.910156 447.910156 310 470 310 C 492.089844 310 510 327.910156 510 350 "/>
<path fill="none" stroke-width="2" stroke-linecap="butt" stroke-linejoin="miter" stroke="rgb(0%, 0%, 29.998779%)" stroke-opacity="1" stroke-miterlimit="10" d="M 515.332031 247.6875 C 515.332031 212.34375 486.679688 183.6875 451.332031 183.6875 C 415.988281 183.6875 387.332031 212.34375 387.332031 247.6875 C 387.332031 283.035156 415.988281 311.6875 451.332031 311.6875 C 486.679688 311.6875 515.332031 283.035156 515.332031 247.6875 " transform="matrix(1, 0, 0, -1, 0, 700)"/>
<path fill-rule="nonzero" fill="rgb(0%, 0%, 29.998779%)" fill-opacity="0.3" d="M 515.332031 452.3125 C 515.332031 487.65625 486.679688 516.3125 451.332031 516.3125 C 415.988281 516.3125 387.332031 487.65625 387.332031 452.3125 C 387.332031 416.964844 415.988281 388.3125 451.332031 388.3125 C 486.679688 388.3125 515.332031 416.964844 515.332031 452.3125 "/>
<path fill="none" stroke-width="3" stroke-linecap="butt" stroke-linejoin="miter" stroke="rgb(0%, 50%, 0%)" stroke-opacity="1" stroke-miterlimit="10" d="M 350 350 L 470 350 Z M 350 350 " transform="matrix(1, 0, 0, -1, 0, 700)"/>
<path fill="none" stroke-width="3" stroke-linecap="butt" stroke-linejoin="miter" stroke="rgb(0%, 50%, 0%)" stroke-opacity="1" stroke-miterlimit="10" d="M 350 350 L 470 350 L 451.332031 247.6875 Z M 350 350 " transform="matrix(1, 0, 0, -1, 0, 700)"/>
<path fill-rule="nonzero" fill="rgb(0%, 50%, 0%)" fill-opacity="0.3" d="M 350 350 L 470 350 L 451.332031 452.3125 Z M 350 350 "/>
</svg>
