<?xml version="1.0" encoding="UTF-8"?>
<svg xmlns="http://www.w3.org/2000/svg" xmlns:xlink="http://www.w3.org/1999/xlink" width="800" height="700" viewBox="0 0 800 700">
<path fill="none" stroke-width="4" stroke-linecap="butt" stroke-linejoin="miter" stroke="rgb(0%, 0%, 0%)" stroke-opacity="1" stroke-miterlimit="10" d="M 431.601562 350 C 431.601562 304.933594 395.066406 268.398438 350 268.398438 C 304.933594 268.398438 268.398438 304.933594 268.398438 350 C 268.398438 395.066406 304.933594 431.601562 350 431.601562 C 395.066406 431.601562 431.601562 395.066406 431.601562 350 " transform="matrix(1, 0, 0, -1, 0, 700)"/>
<path fill-rule="nonzero" fill="rgb(0%, 0%, 0%)" fill-opacity="0.3" d="M 431.601562 350 C 431.601562 395.066406 395.066406 431.601562 350 431.601562 C 304.933594 431.601562 268.398438 395.066406 268.398438 350 C 268.398438 304.933594 304.933594 268.398438 350 268.398438 C 395.066406 268.398438 431.601562 304.933594 431.601562 350 "/>
<path fill="none" stroke-width="2" stroke-linecap="butt" stroke-linejoin="miter" stroke="rgb(100%, 0%, 0%)" stroke-opacity="1" stroke-miterlimit="10" d="M 511.601562 350 C 511.601562 327.910156 493.691406 310 471.601562 310 C 449.507812 310 431.601562 327.910156 431.601562 350 C 431.601562 372.089844 449.507812 390 471.601562 390 C 493.691406 390 511.601562 372.089844 511.601562 350 " transform="matrix(1, 0, 0, -1, 0, 700)"/>
<path fill-rule="nonzero" fill="rgb(100%, 0%, 0%)" fill-opacity="0.3" d="M 511.601562 350 C 511.601562 372.089844 493.691406 390 471.601562 390 C 449.507812 390 431.601562 372.089844 431.601562 350 C 431.601562 327.910156 449.507812 310 471.601562 310 C 493.691406 310 511.601562 327.910156 511.601562 350 "/>
<path fill="none" stroke-width="2" stroke-linecap="butt" stroke-linejoin="miter" stroke="rgb(0%, 0%, 29.998779%)" stroke-opacity="1" stroke-miterlimit="10" d="M 517.496094 247.589844 C 517.496094 212.242188 488.839844 183.589844 453.496094 183.589844 C 418.148438 183.589844 389.496094 212.242188 389.496094 247.589844 C 389.496094 282.933594 418.148438 311.589844 453.496094 311.589844 C 488.839844 311.589844 517.496094 282.933594 517.496094 247.589844 " transform="matrix(1, 0, 0, -1, 0, 700)"/>
<path fill-rule="nonzero" fill="rgb(0%, 0%, 29.998779%)" fill-opacity="0.3" d="M 517.496094 452.410156 C 517.496094 487.757812 488.839844 516.410156 453.496094 516.410156 C 418.148438 516.410156 389.496094 487.757812 389.496094 452.410156 C 389.496094 417.066406 418.148438 388.410156 453.496094 388.410156 C 488.839844 388.410156 517.496094 417.066406 517.496094 452.410156 "/>
<path fill="none" stroke-width="3" stroke-linecap="butt" stroke-linejoin="miter" stroke="rgb(0%, 50%, 0%)" stroke-opacity="1" stroke-miterlimit="10" d="M 350 350 L 471.601562 350 Z M 350 350 " transform="matrix(1, 0, 0, -1, 0, 700)"/>
<path fill="none" stroke-width="3" stroke-linecap="butt" stroke-linejoin="miter" stroke="rgb(0%, 50%, 0%)" stroke-opacity="1" stroke-miterlimit="10" d="M 350 350 L 471.601562 350 L 453.496094 247.589844 Z M 350 350 " transform="matrix(1, 0, 0, -1, 0, 700)"/>
<path fill-rule="nonzero" fill="rgb(0%, 50%, 0%)" fill-opacity="0.3" d="M 350 350 L 471.601562 350 L 453.496094 452.410156 Z M 350 350 "/>
</svg>
