<?xml version="1.0" encoding="UTF-8"?>
<svg xmlns="http://www.w3.org/2000/svg" xmlns:xlink="http://www.w3.org/1999/xlink" width="800" height="700" viewBox="0 0 800 700">
<path fill="none" stroke-width="4" stroke-linecap="butt" stroke-linejoin="miter" stroke="rgb(0%, 0%, 0%)" stroke-opacity="1" stroke-miterlimit="10" d="M 433.230469 350 C 433.230469 304.03125 395.96875 266.769531 350 266.769531 C 304.03125 266.769531 266.769531 304.03125 266.769531 350 C 266.769531 395.96875 304.03125 433.230469 350 433.230469 C 395.96875 433.230469 433.230469 395.96875 433.230469 350 " transform="matrix(1, 0, 0, -1, 0, 700)"/>
<path fill-rule="nonzero" fill="rgb(0%, 0%, 0%)" fill-opacity="0.3" d="M 433.230469 350 C 433.230469 395.96875 395.96875 433.230469 350 433.230469 C 304.03125 433.230469 266.769531 395.96875 266.769531 350 C 266.769531 304.03125 304.03125 266.769531 350 266.769531 C 395.96875 266.769531 433.230469 304.03125 433.230469 350 "/>
<path fill="none" stroke-width="2" stroke-linecap="butt" stroke-linejoin="miter" stroke="rgb(100%, 0%, 0%)" stroke-opacity="1" stroke-miterlimit="10" d="M 513.230469 350 C 513.230469 327.910156 495.324219 310 473.230469 310 C 451.140625 310 433.230469 327.910156 433.230469 350 C 433.230469 372.089844 451.140625 390 473.230469 390 C 495.324219 390 513.230469 372.089844 513.230469 350 " transform="matrix(1, 0, 0, -1, 0, 700)"/>
<path fill-rule="nonzero" fill="rgb(100%, 0%, 0%)" fill-opacity="0.3" d="M 513.230469 350 C 513.230469 372.089844 495.324219 390 473.230469 390 C 451.140625 390 433.230469 372.089844 433.230469 350 C 433.230469 327.910156 451.140625 310 473.230469 310 C 495.324219 310 513.230469 327.910156 513.230469 350 "/>
<path fill="none" stroke-width="2" stroke-linecap="butt" stroke-linejoin="miter" stroke="rgb(0%, 0%, 29.998779%)" stroke-opacity="1" stroke-miterlimit="10" d="M 519.683594 247.492188 C 519.683594 212.144531 491.03125 183.492188 455.683594 183.492188 C 420.339844 183.492188 391.683594 212.144531 391.683594 247.492188 C 391.683594 282.835938 420.339844 311.492188 455.683594 311.492188 C 491.03125 311.492188 519.683594 282.835938 519.683594 247.492188 " transform="matrix(1, 0, 0, -1, 0, 700)"/>
<path fill-rule="nonzero" fill="rgb(0%, 0%, 29.998779%)" fill-opacity="0.3" d="M 519.683594 452.507812 C 519.683594 487.855469 491.03125 516.507812 455.683594 516.507812 C 420.339844 516.507812 391.683594 487.855469 391.683594 452.507812 C 391.683594 417.164062 420.339844 388.507812 455.683594 388.507812 C 491.03125 388.507812 519.683594 417.164062 519.683594 452.507812 "/>
<path fill="none" stroke-width="3" stroke-linecap="butt" stroke-linejoin="miter" stroke="rgb(0%, 50%, 0%)" stroke-opacity="1" stroke-miterlimit="10" d="M 350 350 L 473.230469 350 Z M 350 350 " transform="matrix(1, 0, 0, -1, 0, 700)"/>
<path fill="none" stroke-width="3" stroke-linecap="butt" stroke-linejoin="miter" stroke="rgb(0%, 50%, 0%)" stroke-opacity="1" stroke-miterlimit="10" d="M 350 350 L 473.230469 350 L 455.683594 247.492188 Z M 350 350 " transform="matrix(1, 0, 0, -1, 0, 700)"/>
<path fill-rule="nonzero" fill="rgb(0%, 50%, 0%)" fill-opacity="0.3" d="M 350 350 L 473.230469 350 L 455.683594 452.507812 Z M 350 350 "/>
</svg>
