<?xml version="1.0" encoding="UTF-8"?>
<svg xmlns="http://www.w3.org/2000/svg" xmlns:xlink="http://www.w3.org/1999/xlink" width="800" height="700" viewBox="0 0 800 700">
<path fill="none" stroke-width="4" stroke-linecap="butt" stroke-linejoin="miter" stroke="rgb(0%, 0%, 0%)" stroke-opacity="1" stroke-miterlimit="10" d="M 434.898438 350 C 434.898438 303.113281 396.886719 265.101562 350 265.101562 C 303.113281 265.101562 265.101562 303.113281 265.101562 350 C 265.101562 396.886719 303.113281 434.898438 350 434.898438 C 396.886719 434.898438 434.898438 396.886719 434.898438 350 " transform="matrix(1, 0, 0, -1, 0, 700)"/>
<path fill-rule="nonzero" fill="rgb(0%, 0%, 0%)" fill-opacity="0.3" d="M 434.898438 350 C 434.898438 396.886719 396.886719 434.898438 350 434.898438 C 303.113281 434.898438 265.101562 396.886719 265.101562 350 C 265.101562 303.113281 303.113281 265.101562 350 265.101562 C 396.886719 265.101562 434.898438 303.113281 434.898438 350 "/>
<path fill="none" stroke-width="2" stroke-linecap="butt" stroke-linejoin="miter" stroke="rgb(100%, 0%, 0%)" stroke-opacity="1" stroke-miterlimit="10" d="M 514.898438 350 C 514.898438 327.910156 496.988281 310 474.898438 310 C 452.804688 310 434.898438 327.910156 434.898438 350 C 434.898438 372.089844 452.804688 390 474.898438 390 C 496.988281 390 514.898438 372.089844 514.898438 350 " transform="matrix(1, 0, 0, -1, 0, 700)"/>
<path fill-rule="nonzero" fill="rgb(100%, 0%, 0%)" fill-opacity="0.3" d="M 514.898438 350 C 514.898438 372.089844 496.988281 390 474.898438 390 C 452.804688 390 434.898438 372.089844 434.898438 350 C 434.898438 327.910156 452.804688 310 474.898438 310 C 496.988281 310 514.898438 327.910156 514.898438 350 "/>
<path fill="none" stroke-width="2" stroke-linecap="butt" stroke-linejoin="miter" stroke="rgb(0%, 0%, 29.998779%)" stroke-opacity="1" stroke-miterlimit="10" d="M 521.902344 247.398438 C 521.902344 212.050781 493.25 183.398438 457.902344 183.398438 C 422.554688 183.398438 393.902344 212.050781 393.902344 247.398438 C 393.902344 282.742188 422.554688 311.398438 457.902344 311.398438 C 493.25 311.398438 521.902344 282.742188 521.902344 247.398438 " transform="matrix(1, 0, 0, -1, 0, 700)"/>
<path fill-rule="nonzero" fill="rgb(0%, 0%, 29.998779%)" fill-opacity="0.3" d="M 521.902344 452.601562 C 521.902344 487.949219 493.25 516.601562 457.902344 516.601562 C 422.554688 516.601562 393.902344 487.949219 393.902344 452.601562 C 393.902344 417.257812 422.554688 388.601562 457.902344 388.601562 C 493.25 388.601562 521.902344 417.257812 521.902344 452.601562 "/>
<path fill="none" stroke-width="3" stroke-linecap="butt" stroke-linejoin="miter" stroke="rgb(0%, 50%, 0%)" stroke-opacity="1" stroke-miterlimit="10" d="M 350 350 L 474.898438 350 Z M 350 350 " transform="matrix(1, 0, 0, -1, 0, 700)"/>
<path fill="none" stroke-width="3" stroke-linecap="butt" stroke-linejoin="miter" stroke="rgb(0%, 50%, 0%)" stroke-opacity="1" stroke-miterlimit="10" d="M 350 350 L 474.898438 350 L 457.902344 247.398438 Z M 350 350 " transform="matrix(1, 0, 0, -1, 0, 700)"/>
<path fill-rule="nonzero" fill="rgb(0%, 50%, 0%)" fill-opacity="0.3" d="M 350 350 L 474.898438 350 L 457.902344 452.601562 Z M 350 350 "/>
</svg>
