<?xml version="1.0" encoding="UTF-8"?>
<svg xmlns="http://www.w3.org/2000/svg" xmlns:xlink="http://www.w3.org/1999/xlink" width="800" height="700" viewBox="0 0 800 700">
<path fill="none" stroke-width="4" stroke-linecap="butt" stroke-linejoin="miter" stroke="rgb(0%, 0%, 0%)" stroke-opacity="1" stroke-miterlimit="10" d="M 436.59375 350 C 436.59375 302.175781 397.824219 263.40625 350 263.40625 C 302.175781 263.40625 263.40625 302.175781 263.40625 350 C 263.40625 397.824219 302.175781 436.59375 350 436.59375 C 397.824219 436.59375 436.59375 397.824219 436.59375 350 " transform="matrix(1, 0, 0, -1, 0, 700)"/>
<path fill-rule="nonzero" fill="rgb(0%, 0%, 0%)" fill-opacity="0.3" d="M 436.59375 350 C 436.59375 397.824219 397.824219 436.59375 350 436.59375 C 302.175781 436.59375 263.40625 397.824219 263.40625 350 C 263.40625 302.175781 302.175781 263.40625 350 263.40625 C 397.824219 263.40625 436.59375 302.175781 436.59375 350 "/>
<path fill="none" stroke-width="2" stroke-linecap="butt" stroke-linejoin="miter" stroke="rgb(100%, 0%, 0%)" stroke-opacity="1" stroke-miterlimit="10" d="M 516.59375 350 C 516.59375 327.910156 498.6875 310 476.59375 310 C 454.503906 310 436.59375 327.910156 436.59375 350 C 436.59375 372.089844 454.503906 390 476.59375 390 C 498.6875 390 516.59375 372.089844 516.59375 350 " transform="matrix(1, 0, 0, -1, 0, 700)"/>
<path fill-rule="nonzero" fill="rgb(100%, 0%, 0%)" fill-opacity="0.3" d="M 516.59375 350 C 516.59375 372.089844 498.6875 390 476.59375 390 C 454.503906 390 436.59375 372.089844 436.59375 350 C 436.59375 327.910156 454.503906 310 476.59375 310 C 498.6875 310 516.59375 327.910156 516.59375 350 "/>
<path fill="none" stroke-width="2" stroke-linecap="butt" stroke-linejoin="miter" stroke="rgb(0%, 0%, 29.998779%)" stroke-opacity="1" stroke-miterlimit="10" d="M 524.152344 247.308594 C 524.152344 211.960938 495.496094 183.308594 460.152344 183.308594 C 424.804688 183.308594 396.152344 211.960938 396.152344 247.308594 C 396.152344 282.65625 424.804688 311.308594 460.152344 311.308594 C 495.496094 311.308594 524.152344 282.65625 524.152344 247.308594 " transform="matrix(1, 0, 0, -1, 0, 700)"/>
<path fill-rule="nonzero" fill="rgb(0%, 0%, 29.998779%)" fill-opacity="0.3" d="M 524.152344 452.691406 C 524.152344 488.039062 495.496094 516.691406 460.152344 516.691406 C 424.804688 516.691406 396.152344 488.039062 396.152344 452.691406 C 396.152344 417.34375 424.804688 388.691406 460.152344 388.691406 C 495.496094 388.691406 524.152344 417.34375 524.152344 452.691406 "/>
<path fill="none" stroke-width="3" stroke-linecap="butt" stroke-linejoin="miter" stroke="rgb(0%, 50%, 0%)" stroke-opacity="1" stroke-miterlimit="10" d="M 350 350 L 476.59375 350 Z M 350 350 " transform="matrix(1, 0, 0, -1, 0, 700)"/>
<path fill="none" stroke-width="3" stroke-linecap="butt" stroke-linejoin="miter" stroke="rgb(0%, 50%, 0%)" stroke-opacity="1" stroke-miterlimit="10" d="M 350 350 L 476.59375 350 L 460.152344 247.308594 Z M 350 350 " transform="matrix(1, 0, 0, -1, 0, 700)"/>
<path fill-rule="nonzero" fill="rgb(0%, 50%, 0%)" fill-opacity="0.3" d="M 350 350 L 476.59375 350 L 460.152344 452.691406 Z M 350 350 "/>
</svg>
