<?xml version="1.0" encoding="UTF-8"?>
<svg xmlns="http://www.w3.org/2000/svg" xmlns:xlink="http://www.w3.org/1999/xlink" width="800" height="700" viewBox="0 0 800 700">
<path fill="none" stroke-width="4" stroke-linecap="butt" stroke-linejoin="miter" stroke="rgb(0%, 0%, 0%)" stroke-opacity="1" stroke-miterlimit="10" d="M 438.328125 350 C 438.328125 301.21875 398.78125 261.671875 350 261.671875 C 301.21875 261.671875 261.671875 301.21875 261.671875 350 C 261.671875 398.78125 301.21875 438.328125 350 438.328125 C 398.78125 438.328125 438.328125 398.78125 438.328125 350 " transform="matrix(1, 0, 0, -1, 0, 700)"/>
<path fill-rule="nonzero" fill="rgb(0%, 0%, 0%)" fill-opacity="0.3" d="M 438.328125 350 C 438.328125 398.78125 398.78125 438.328125 350 438.328125 C 301.21875 438.328125 261.671875 398.78125 261.671875 350 C 261.671875 301.21875 301.21875 261.671875 350 261.671875 C 398.78125 261.671875 438.328125 301.21875 438.328125 350 "/>
<path fill="none" stroke-width="2" stroke-linecap="butt" stroke-linejoin="miter" stroke="rgb(100%, 0%, 0%)" stroke-opacity="1" stroke-miterlimit="10" d="M 518.328125 350 C 518.328125 327.910156 500.417969 310 478.328125 310 C 456.234375 310 438.328125 327.910156 438.328125 350 C 438.328125 372.089844 456.234375 390 478.328125 390 C 500.417969 390 518.328125 372.089844 518.328125 350 " transform="matrix(1, 0, 0, -1, 0, 700)"/>
<path fill-rule="nonzero" fill="rgb(100%, 0%, 0%)" fill-opacity="0.3" d="M 518.328125 350 C 518.328125 372.089844 500.417969 390 478.328125 390 C 456.234375 390 438.328125 372.089844 438.328125 350 C 438.328125 327.910156 456.234375 310 478.328125 310 C 500.417969 310 518.328125 327.910156 518.328125 350 "/>
<path fill="none" stroke-width="2" stroke-linecap="butt" stroke-linejoin="miter" stroke="rgb(0%, 0%, 29.998779%)" stroke-opacity="1" stroke-miterlimit="10" d="M 526.429688 247.222656 C 526.429688 211.875 497.773438 183.222656 462.429688 183.222656 C 427.082031 183.222656 398.429688 211.875 398.429688 247.222656 C 398.429688 282.570312 427.082031 311.222656 462.429688 311.222656 C 497.773438 311.222656 526.429688 282.570312 526.429688 247.222656 " transform="matrix(1, 0, 0, -1, 0, 700)"/>
<path fill-rule="nonzero" fill="rgb(0%, 0%, 29.998779%)" fill-opacity="0.3" d="M 526.429688 452.777344 C 526.429688 488.125 497.773438 516.777344 462.429688 516.777344 C 427.082031 516.777344 398.429688 488.125 398.429688 452.777344 C 398.429688 417.429688 427.082031 388.777344 462.429688 388.777344 C 497.773438 388.777344 526.429688 417.429688 526.429688 452.777344 "/>
<path fill="none" stroke-width="3" stroke-linecap="butt" stroke-linejoin="miter" stroke="rgb(0%, 50%, 0%)" stroke-opacity="1" stroke-miterlimit="10" d="M 350 350 L 478.328125 350 Z M 350 350 " transform="matrix(1, 0, 0, -1, 0, 700)"/>
<path fill="none" stroke-width="3" stroke-linecap="butt" stroke-linejoin="miter" stroke="rgb(0%, 50%, 0%)" stroke-opacity="1" stroke-miterlimit="10" d="M 350 350 L 478.328125 350 L 462.429688 247.222656 Z M 350 350 " transform="matrix(1, 0, 0, -1, 0, 700)"/>
<path fill-rule="nonzero" fill="rgb(0%, 50%, 0%)" fill-opacity="0.3" d="M 350 350 L 478.328125 350 L 462.429688 452.777344 Z M 350 350 "/>
</svg>
