<?xml version="1.0" encoding="UTF-8"?>
<svg xmlns="http://www.w3.org/2000/svg" xmlns:xlink="http://www.w3.org/1999/xlink" width="800" height="700" viewBox="0 0 800 700">
<path fill="none" stroke-width="4" stroke-linecap="butt" stroke-linejoin="miter" stroke="rgb(0%, 0%, 0%)" stroke-opacity="1" stroke-miterlimit="10" d="M 440.09375 350 C 440.09375 300.242188 399.757812 259.90625 350 259.90625 C 300.242188 259.90625 259.90625 300.242188 259.90625 350 C 259.90625 399.757812 300.242188 440.09375 350 440.09375 C 399.757812 440.09375 440.09375 399.757812 440.09375 350 " transform="matrix(1, 0, 0, -1, 0, 700)"/>
<path fill-rule="nonzero" fill="rgb(0%, 0%, 0%)" fill-opacity="0.3" d="M 440.09375 350 C 440.09375 399.757812 399.757812 440.09375 350 440.09375 C 300.242188 440.09375 259.90625 399.757812 259.90625 350 C 259.90625 300.242188 300.242188 259.90625 350 259.90625 C 399.757812 259.90625 440.09375 300.242188 440.09375 350 "/>
<path fill="none" stroke-width="2" stroke-linecap="butt" stroke-linejoin="miter" stroke="rgb(100%, 0%, 0%)" stroke-opacity="1" stroke-miterlimit="10" d="M 520.09375 350 C 520.09375 327.910156 502.183594 310 480.09375 310 C 458 310 440.09375 327.910156 440.09375 350 C 440.09375 372.089844 458 390 480.09375 390 C 502.183594 390 520.09375 372.089844 520.09375 350 " transform="matrix(1, 0, 0, -1, 0, 700)"/>
<path fill-rule="nonzero" fill="rgb(100%, 0%, 0%)" fill-opacity="0.3" d="M 520.09375 350 C 520.09375 372.089844 502.183594 390 480.09375 390 C 458 390 440.09375 372.089844 440.09375 350 C 440.09375 327.910156 458 310 480.09375 310 C 502.183594 310 520.09375 327.910156 520.09375 350 "/>
<path fill="none" stroke-width="2" stroke-linecap="butt" stroke-linejoin="miter" stroke="rgb(0%, 0%, 29.998779%)" stroke-opacity="1" stroke-miterlimit="10" d="M 528.738281 247.140625 C 528.738281 211.792969 500.082031 183.140625 464.738281 183.140625 C 429.390625 183.140625 400.738281 211.792969 400.738281 247.140625 C 400.738281 282.484375 429.390625 311.140625 464.738281 311.140625 C 500.082031 311.140625 528.738281 282.484375 528.738281 247.140625 " transform="matrix(1, 0, 0, -1, 0, 700)"/>
<path fill-rule="nonzero" fill="rgb(0%, 0%, 29.998779%)" fill-opacity="0.3" d="M 528.738281 452.859375 C 528.738281 488.207031 500.082031 516.859375 464.738281 516.859375 C 429.390625 516.859375 400.738281 488.207031 400.738281 452.859375 C 400.738281 417.515625 429.390625 388.859375 464.738281 388.859375 C 500.082031 388.859375 528.738281 417.515625 528.738281 452.859375 "/>
<path fill="none" stroke-width="3" stroke-linecap="butt" stroke-linejoin="miter" stroke="rgb(0%, 50%, 0%)" stroke-opacity="1" stroke-miterlimit="10" d="M 350 350 L 480.09375 350 Z M 350 350 " transform="matrix(1, 0, 0, -1, 0, 700)"/>
<path fill="none" stroke-width="3" stroke-linecap="butt" stroke-linejoin="miter" stroke="rgb(0%, 50%, 0%)" stroke-opacity="1" stroke-miterlimit="10" d="M 350 350 L 480.09375 350 L 464.738281 247.140625 Z M 350 350 " transform="matrix(1, 0, 0, -1, 0, 700)"/>
<path fill-rule="nonzero" fill="rgb(0%, 50%, 0%)" fill-opacity="0.3" d="M 350 350 L 480.09375 350 L 464.738281 452.859375 Z M 350 350 "/>
</svg>
