<?xml version="1.0" encoding="UTF-8"?>
<svg xmlns="http://www.w3.org/2000/svg" xmlns:xlink="http://www.w3.org/1999/xlink" width="800" height="700" viewBox="0 0 800 700">
<path fill="none" stroke-width="4" stroke-linecap="butt" stroke-linejoin="miter" stroke="rgb(0%, 0%, 0%)" stroke-opacity="1" stroke-miterlimit="10" d="M 441.894531 350 C 441.894531 299.246094 400.753906 258.105469 350 258.105469 C 299.246094 258.105469 258.105469 299.246094 258.105469 350 C 258.105469 400.753906 299.246094 441.894531 350 441.894531 C 400.753906 441.894531 441.894531 400.753906 441.894531 350 " transform="matrix(1, 0, 0, -1, 0, 700)"/>
<path fill-rule="nonzero" fill="rgb(0%, 0%, 0%)" fill-opacity="0.3" d="M 441.894531 350 C 441.894531 400.753906 400.753906 441.894531 350 441.894531 C 299.246094 441.894531 258.105469 400.753906 258.105469 350 C 258.105469 299.246094 299.246094 258.105469 350 258.105469 C 400.753906 258.105469 441.894531 299.246094 441.894531 350 "/>
<path fill="none" stroke-width="2" stroke-linecap="butt" stroke-linejoin="miter" stroke="rgb(100%, 0%, 0%)" stroke-opacity="1" stroke-miterlimit="10" d="M 521.894531 350 C 521.894531 327.910156 503.984375 310 481.894531 310 C 459.804688 310 441.894531 327.910156 441.894531 350 C 441.894531 372.089844 459.804688 390 481.894531 390 C 503.984375 390 521.894531 372.089844 521.894531 350 " transform="matrix(1, 0, 0, -1, 0, 700)"/>
<path fill-rule="nonzero" fill="rgb(100%, 0%, 0%)" fill-opacity="0.3" d="M 521.894531 350 C 521.894531 372.089844 503.984375 390 481.894531 390 C 459.804688 390 441.894531 372.089844 441.894531 350 C 441.894531 327.910156 459.804688 310 481.894531 310 C 503.984375 310 521.894531 327.910156 521.894531 350 "/>
<path fill="none" stroke-width="2" stroke-linecap="butt" stroke-linejoin="miter" stroke="rgb(0%, 0%, 29.998779%)" stroke-opacity="1" stroke-miterlimit="10" d="M 531.074219 247.0625 C 531.074219 211.714844 502.421875 183.0625 467.074219 183.0625 C 431.730469 183.0625 403.074219 211.714844 403.074219 247.0625 C 403.074219 282.40625 431.730469 311.0625 467.074219 311.0625 C 502.421875 311.0625 531.074219 282.40625 531.074219 247.0625 " transform="matrix(1, 0, 0, -1, 0, 700)"/>
<path fill-rule="nonzero" fill="rgb(0%, 0%, 29.998779%)" fill-opacity="0.3" d="M 531.074219 452.9375 C 531.074219 488.285156 502.421875 516.9375 467.074219 516.9375 C 431.730469 516.9375 403.074219 488.285156 403.074219 452.9375 C 403.074219 417.59375 431.730469 388.9375 467.074219 388.9375 C 502.421875 388.9375 531.074219 417.59375 531.074219 452.9375 "/>
<path fill="none" stroke-width="3" stroke-linecap="butt" stroke-linejoin="miter" stroke="rgb(0%, 50%, 0%)" stroke-opacity="1" stroke-miterlimit="10" d="M 350 350 L 481.894531 350 Z M 350 350 " transform="matrix(1, 0, 0, -1, 0, 700)"/>
<path fill="none" stroke-width="3" stroke-linecap="butt" stroke-linejoin="miter" stroke="rgb(0%, 50%, 0%)" stroke-opacity="1" stroke-miterlimit="10" d="M 350 350 L 481.894531 350 L 467.074219 247.0625 Z M 350 350 " transform="matrix(1, 0, 0, -1, 0, 700)"/>
<path fill-rule="nonzero" fill="rgb(0%, 50%, 0%)" fill-opacity="0.3" d="M 350 350 L 481.894531 350 L 467.074219 452.9375 Z M 350 350 "/>
</svg>
