<?xml version="1.0" encoding="UTF-8"?>
<svg xmlns="http://www.w3.org/2000/svg" xmlns:xlink="http://www.w3.org/1999/xlink" width="800" height="700" viewBox="0 0 800 700">
<path fill="none" stroke-width="4" stroke-linecap="butt" stroke-linejoin="miter" stroke="rgb(0%, 0%, 0%)" stroke-opacity="1" stroke-miterlimit="10" d="M 443.734375 350 C 443.734375 298.234375 401.765625 256.265625 350 256.265625 C 298.234375 256.265625 256.265625 298.234375 256.265625 350 C 256.265625 401.765625 298.234375 443.734375 350 443.734375 C 401.765625 443.734375 443.734375 401.765625 443.734375 350 " transform="matrix(1, 0, 0, -1, 0, 700)"/>
<path fill-rule="nonzero" fill="rgb(0%, 0%, 0%)" fill-opacity="0.3" d="M 443.734375 350 C 443.734375 401.765625 401.765625 443.734375 350 443.734375 C 298.234375 443.734375 256.265625 401.765625 256.265625 350 C 256.265625 298.234375 298.234375 256.265625 350 256.265625 C 401.765625 256.265625 443.734375 298.234375 443.734375 350 "/>
<path fill="none" stroke-width="2" stroke-linecap="butt" stroke-linejoin="miter" stroke="rgb(100%, 0%, 0%)" stroke-opacity="1" stroke-miterlimit="10" d="M 523.734375 350 C 523.734375 327.910156 505.824219 310 483.734375 310 C 461.640625 310 443.734375 327.910156 443.734375 350 C 443.734375 372.089844 461.640625 390 483.734375 390 C 505.824219 390 523.734375 372.089844 523.734375 350 " transform="matrix(1, 0, 0, -1, 0, 700)"/>
<path fill-rule="nonzero" fill="rgb(100%, 0%, 0%)" fill-opacity="0.3" d="M 523.734375 350 C 523.734375 372.089844 505.824219 390 483.734375 390 C 461.640625 390 443.734375 372.089844 443.734375 350 C 443.734375 327.910156 461.640625 310 483.734375 310 C 505.824219 310 523.734375 327.910156 523.734375 350 "/>
<path fill="none" stroke-width="2" stroke-linecap="butt" stroke-linejoin="miter" stroke="rgb(0%, 0%, 29.998779%)" stroke-opacity="1" stroke-miterlimit="10" d="M 533.449219 246.984375 C 533.449219 211.640625 504.792969 182.984375 469.449219 182.984375 C 434.101562 182.984375 405.449219 211.640625 405.449219 246.984375 C 405.449219 282.332031 434.101562 310.984375 469.449219 310.984375 C 504.792969 310.984375 533.449219 282.332031 533.449219 246.984375 " transform="matrix(1, 0, 0, -1, 0, 700)"/>
<path fill-rule="nonzero" fill="rgb(0%, 0%, 29.998779%)" fill-opacity="0.3" d="M 533.449219 453.015625 C 533.449219 488.359375 504.792969 517.015625 469.449219 517.015625 C 434.101562 517.015625 405.449219 488.359375 405.449219 453.015625 C 405.449219 417.667969 434.101562 389.015625 469.449219 389.015625 C 504.792969 389.015625 533.449219 417.667969 533.449219 453.015625 "/>
<path fill="none" stroke-width="3" stroke-linecap="butt" stroke-linejoin="miter" stroke="rgb(0%, 50%, 0%)" stroke-opacity="1" stroke-miterlimit="10" d="M 350 350 L 483.734375 350 Z M 350 350 " transform="matrix(1, 0, 0, -1, 0, 700)"/>
<path fill="none" stroke-width="3" stroke-linecap="butt" stroke-linejoin="miter" stroke="rgb(0%, 50%, 0%)" stroke-opacity="1" stroke-miterlimit="10" d="M 350 350 L 483.734375 350 L 469.449219 246.984375 Z M 350 350 " transform="matrix(1, 0, 0, -1, 0, 700)"/>
<path fill-rule="nonzero" fill="rgb(0%, 50%, 0%)" fill-opacity="0.3" d="M 350 350 L 483.734375 350 L 469.449219 453.015625 Z M 350 350 "/>
</svg>
