<?xml version="1.0" encoding="UTF-8"?>
<svg xmlns="http://www.w3.org/2000/svg" xmlns:xlink="http://www.w3.org/1999/xlink" width="800" height="700" viewBox="0 0 800 700">
<path fill="none" stroke-width="4" stroke-linecap="butt" stroke-linejoin="miter" stroke="rgb(0%, 0%, 0%)" stroke-opacity="1" stroke-miterlimit="10" d="M 445.605469 350 C 445.605469 297.199219 402.800781 254.394531 350 254.394531 C 297.199219 254.394531 254.394531 297.199219 254.394531 350 C 254.394531 402.800781 297.199219 445.605469 350 445.605469 C 402.800781 445.605469 445.605469 402.800781 445.605469 350 " transform="matrix(1, 0, 0, -1, 0, 700)"/>
<path fill-rule="nonzero" fill="rgb(0%, 0%, 0%)" fill-opacity="0.3" d="M 445.605469 350 C 445.605469 402.800781 402.800781 445.605469 350 445.605469 C 297.199219 445.605469 254.394531 402.800781 254.394531 350 C 254.394531 297.199219 297.199219 254.394531 350 254.394531 C 402.800781 254.394531 445.605469 297.199219 445.605469 350 "/>
<path fill="none" stroke-width="2" stroke-linecap="butt" stroke-linejoin="miter" stroke="rgb(100%, 0%, 0%)" stroke-opacity="1" stroke-miterlimit="10" d="M 525.605469 350 C 525.605469 327.910156 507.699219 310 485.605469 310 C 463.515625 310 445.605469 327.910156 445.605469 350 C 445.605469 372.089844 463.515625 390 485.605469 390 C 507.699219 390 525.605469 372.089844 525.605469 350 " transform="matrix(1, 0, 0, -1, 0, 700)"/>
<path fill-rule="nonzero" fill="rgb(100%, 0%, 0%)" fill-opacity="0.3" d="M 525.605469 350 C 525.605469 372.089844 507.699219 390 485.605469 390 C 463.515625 390 445.605469 372.089844 445.605469 350 C 445.605469 327.910156 463.515625 310 485.605469 310 C 507.699219 310 525.605469 327.910156 525.605469 350 "/>
<path fill="none" stroke-width="2" stroke-linecap="butt" stroke-linejoin="miter" stroke="rgb(0%, 0%, 29.998779%)" stroke-opacity="1" stroke-miterlimit="10" d="M 535.851562 246.914062 C 535.851562 211.566406 507.199219 182.914062 471.851562 182.914062 C 436.503906 182.914062 407.851562 211.566406 407.851562 246.914062 C 407.851562 282.261719 436.503906 310.914062 471.851562 310.914062 C 507.199219 310.914062 535.851562 282.261719 535.851562 246.914062 " transform="matrix(1, 0, 0, -1, 0, 700)"/>
<path fill-rule="nonzero" fill="rgb(0%, 0%, 29.998779%)" fill-opacity="0.3" d="M 535.851562 453.085938 C 535.851562 488.433594 507.199219 517.085938 471.851562 517.085938 C 436.503906 517.085938 407.851562 488.433594 407.851562 453.085938 C 407.851562 417.738281 436.503906 389.085938 471.851562 389.085938 C 507.199219 389.085938 535.851562 417.738281 535.851562 453.085938 "/>
<path fill="none" stroke-width="3" stroke-linecap="butt" stroke-linejoin="miter" stroke="rgb(0%, 50%, 0%)" stroke-opacity="1" stroke-miterlimit="10" d="M 350 350 L 485.605469 350 Z M 350 350 " transform="matrix(1, 0, 0, -1, 0, 700)"/>
<path fill="none" stroke-width="3" stroke-linecap="butt" stroke-linejoin="miter" stroke="rgb(0%, 50%, 0%)" stroke-opacity="1" stroke-miterlimit="10" d="M 350 350 L 485.605469 350 L 471.851562 246.914062 Z M 350 350 " transform="matrix(1, 0, 0, -1, 0, 700)"/>
<path fill-rule="nonzero" fill="rgb(0%, 50%, 0%)" fill-opacity="0.3" d="M 350 350 L 485.605469 350 L 471.851562 453.085938 Z M 350 350 "/>
</svg>
