<?xml version="1.0" encoding="UTF-8"?>
<svg xmlns="http://www.w3.org/2000/svg" xmlns:xlink="http://www.w3.org/1999/xlink" width="800" height="700" viewBox="0 0 800 700">
<path fill="none" stroke-width="4" stroke-linecap="butt" stroke-linejoin="miter" stroke="rgb(0%, 0%, 0%)" stroke-opacity="1" stroke-miterlimit="10" d="M 447.519531 350 C 447.519531 296.140625 403.859375 252.480469 350 252.480469 C 296.140625 252.480469 252.480469 296.140625 252.480469 350 C 252.480469 403.859375 296.140625 447.519531 350 447.519531 C 403.859375 447.519531 447.519531 403.859375 447.519531 350 " transform="matrix(1, 0, 0, -1, 0, 700)"/>
<path fill-rule="nonzero" fill="rgb(0%, 0%, 0%)" fill-opacity="0.3" d="M 447.519531 350 C 447.519531 403.859375 403.859375 447.519531 350 447.519531 C 296.140625 447.519531 252.480469 403.859375 252.480469 350 C 252.480469 296.140625 296.140625 252.480469 350 252.480469 C 403.859375 252.480469 447.519531 296.140625 447.519531 350 "/>
<path fill="none" stroke-width="2" stroke-linecap="butt" stroke-linejoin="miter" stroke="rgb(100%, 0%, 0%)" stroke-opacity="1" stroke-miterlimit="10" d="M 527.519531 350 C 527.519531 327.910156 509.609375 310 487.519531 310 C 465.429688 310 447.519531 327.910156 447.519531 350 C 447.519531 372.089844 465.429688 390 487.519531 390 C 509.609375 390 527.519531 372.089844 527.519531 350 " transform="matrix(1, 0, 0, -1, 0, 700)"/>
<path fill-rule="nonzero" fill="rgb(100%, 0%, 0%)" fill-opacity="0.3" d="M 527.519531 350 C 527.519531 372.089844 509.609375 390 487.519531 390 C 465.429688 390 447.519531 372.089844 447.519531 350 C 447.519531 327.910156 465.429688 310 487.519531 310 C 509.609375 310 527.519531 327.910156 527.519531 350 "/>
<path fill="none" stroke-width="2" stroke-linecap="butt" stroke-linejoin="miter" stroke="rgb(0%, 0%, 29.998779%)" stroke-opacity="1" stroke-miterlimit="10" d="M 538.289062 246.84375 C 538.289062 211.5 509.632812 182.84375 474.289062 182.84375 C 438.941406 182.84375 410.289062 211.5 410.289062 246.84375 C 410.289062 282.191406 438.941406 310.84375 474.289062 310.84375 C 509.632812 310.84375 538.289062 282.191406 538.289062 246.84375 " transform="matrix(1, 0, 0, -1, 0, 700)"/>
<path fill-rule="nonzero" fill="rgb(0%, 0%, 29.998779%)" fill-opacity="0.3" d="M 538.289062 453.15625 C 538.289062 488.5 509.632812 517.15625 474.289062 517.15625 C 438.941406 517.15625 410.289062 488.5 410.289062 453.15625 C 410.289062 417.808594 438.941406 389.15625 474.289062 389.15625 C 509.632812 389.15625 538.289062 417.808594 538.289062 453.15625 "/>
<path fill="none" stroke-width="3" stroke-linecap="butt" stroke-linejoin="miter" stroke="rgb(0%, 50%, 0%)" stroke-opacity="1" stroke-miterlimit="10" d="M 350 350 L 487.519531 350 Z M 350 350 " transform="matrix(1, 0, 0, -1, 0, 700)"/>
<path fill="none" stroke-width="3" stroke-linecap="butt" stroke-linejoin="miter" stroke="rgb(0%, 50%, 0%)" stroke-opacity="1" stroke-miterlimit="10" d="M 350 350 L 487.519531 350 L 474.289062 246.84375 Z M 350 350 " transform="matrix(1, 0, 0, -1, 0, 700)"/>
<path fill-rule="nonzero" fill="rgb(0%, 50%, 0%)" fill-opacity="0.3" d="M 350 350 L 487.519531 350 L 474.289062 453.15625 Z M 350 350 "/>
</svg>
