<?xml version="1.0" encoding="UTF-8"?>
<svg xmlns="http://www.w3.org/2000/svg" xmlns:xlink="http://www.w3.org/1999/xlink" width="800" height="700" viewBox="0 0 800 700">
<path fill="none" stroke-width="4" stroke-linecap="butt" stroke-linejoin="miter" stroke="rgb(0%, 0%, 0%)" stroke-opacity="1" stroke-miterlimit="10" d="M 449.46875 350 C 449.46875 295.0625 404.9375 250.53125 350 250.53125 C 295.0625 250.53125 250.53125 295.0625 250.53125 350 C 250.53125 404.9375 295.0625 449.46875 350 449.46875 C 404.9375 449.46875 449.46875 404.9375 449.46875 350 " transform="matrix(1, 0, 0, -1, 0, 700)"/>
<path fill-rule="nonzero" fill="rgb(0%, 0%, 0%)" fill-opacity="0.3" d="M 449.46875 350 C 449.46875 404.9375 404.9375 449.46875 350 449.46875 C 295.0625 449.46875 250.53125 404.9375 250.53125 350 C 250.53125 295.0625 295.0625 250.53125 350 250.53125 C 404.9375 250.53125 449.46875 295.0625 449.46875 350 "/>
<path fill="none" stroke-width="2" stroke-linecap="butt" stroke-linejoin="miter" stroke="rgb(100%, 0%, 0%)" stroke-opacity="1" stroke-miterlimit="10" d="M 529.46875 350 C 529.46875 327.910156 511.5625 310 489.46875 310 C 467.378906 310 449.46875 327.910156 449.46875 350 C 449.46875 372.089844 467.378906 390 489.46875 390 C 511.5625 390 529.46875 372.089844 529.46875 350 " transform="matrix(1, 0, 0, -1, 0, 700)"/>
<path fill-rule="nonzero" fill="rgb(100%, 0%, 0%)" fill-opacity="0.3" d="M 529.46875 350 C 529.46875 372.089844 511.5625 390 489.46875 390 C 467.378906 390 449.46875 372.089844 449.46875 350 C 449.46875 327.910156 467.378906 310 489.46875 310 C 511.5625 310 529.46875 327.910156 529.46875 350 "/>
<path fill="none" stroke-width="2" stroke-linecap="butt" stroke-linejoin="miter" stroke="rgb(0%, 0%, 29.998779%)" stroke-opacity="1" stroke-miterlimit="10" d="M 540.757812 246.78125 C 540.757812 211.433594 512.105469 182.78125 476.757812 182.78125 C 441.414062 182.78125 412.757812 211.433594 412.757812 246.78125 C 412.757812 282.125 441.414062 310.78125 476.757812 310.78125 C 512.105469 310.78125 540.757812 282.125 540.757812 246.78125 " transform="matrix(1, 0, 0, -1, 0, 700)"/>
<path fill-rule="nonzero" fill="rgb(0%, 0%, 29.998779%)" fill-opacity="0.3" d="M 540.757812 453.21875 C 540.757812 488.566406 512.105469 517.21875 476.757812 517.21875 C 441.414062 517.21875 412.757812 488.566406 412.757812 453.21875 C 412.757812 417.875 441.414062 389.21875 476.757812 389.21875 C 512.105469 389.21875 540.757812 417.875 540.757812 453.21875 "/>
<path fill="none" stroke-width="3" stroke-linecap="butt" stroke-linejoin="miter" stroke="rgb(0%, 50%, 0%)" stroke-opacity="1" stroke-miterlimit="10" d="M 350 350 L 489.46875 350 Z M 350 350 " transform="matrix(1, 0, 0, -1, 0, 700)"/>
<path fill="none" stroke-width="3" stroke-linecap="butt" stroke-linejoin="miter" stroke="rgb(0%, 50%, 0%)" stroke-opacity="1" stroke-miterlimit="10" d="M 350 350 L 489.46875 350 L 476.757812 246.78125 Z M 350 350 " transform="matrix(1, 0, 0, -1, 0, 700)"/>
<path fill-rule="nonzero" fill="rgb(0%, 50%, 0%)" fill-opacity="0.3" d="M 350 350 L 489.46875 350 L 476.757812 453.21875 Z M 350 350 "/>
</svg>
