<?xml version="1.0" encoding="UTF-8"?>
<svg xmlns="http://www.w3.org/2000/svg" xmlns:xlink="http://www.w3.org/1999/xlink" width="800" height="700" viewBox="0 0 800 700">
<path fill="none" stroke-width="4" stroke-linecap="butt" stroke-linejoin="miter" stroke="rgb(0%, 0%, 0%)" stroke-opacity="1" stroke-miterlimit="10" d="M 451.460938 350 C 451.460938 293.964844 406.035156 248.539062 350 248.539062 C 293.964844 248.539062 248.539062 293.964844 248.539062 350 C 248.539062 406.035156 293.964844 451.460938 350 451.460938 C 406.035156 451.460938 451.460938 406.035156 451.460938 350 " transform="matrix(1, 0, 0, -1, 0, 700)"/>
<path fill-rule="nonzero" fill="rgb(0%, 0%, 0%)" fill-opacity="0.3" d="M 451.460938 350 C 451.460938 406.035156 406.035156 451.460938 350 451.460938 C 293.964844 451.460938 248.539062 406.035156 248.539062 350 C 248.539062 293.964844 293.964844 248.539062 350 248.539062 C 406.035156 248.539062 451.460938 293.964844 451.460938 350 "/>
<path fill="none" stroke-width="2" stroke-linecap="butt" stroke-linejoin="miter" stroke="rgb(100%, 0%, 0%)" stroke-opacity="1" stroke-miterlimit="10" d="M 531.460938 350 C 531.460938 327.910156 513.550781 310 491.460938 310 C 469.367188 310 451.460938 327.910156 451.460938 350 C 451.460938 372.089844 469.367188 390 491.460938 390 C 513.550781 390 531.460938 372.089844 531.460938 350 " transform="matrix(1, 0, 0, -1, 0, 700)"/>
<path fill-rule="nonzero" fill="rgb(100%, 0%, 0%)" fill-opacity="0.3" d="M 531.460938 350 C 531.460938 372.089844 513.550781 390 491.460938 390 C 469.367188 390 451.460938 372.089844 451.460938 350 C 451.460938 327.910156 469.367188 310 491.460938 310 C 513.550781 310 531.460938 327.910156 531.460938 350 "/>
<path fill="none" stroke-width="2" stroke-linecap="butt" stroke-linejoin="miter" stroke="rgb(0%, 0%, 29.998779%)" stroke-opacity="1" stroke-miterlimit="10" d="M 543.265625 246.71875 C 543.265625 211.371094 514.613281 182.71875 479.265625 182.71875 C 443.917969 182.71875 415.265625 211.371094 415.265625 246.71875 C 415.265625 282.0625 443.917969 310.71875 479.265625 310.71875 C 514.613281 310.71875 543.265625 282.0625 543.265625 246.71875 " transform="matrix(1, 0, 0, -1, 0, 700)"/>
<path fill-rule="nonzero" fill="rgb(0%, 0%, 29.998779%)" fill-opacity="0.3" d="M 543.265625 453.28125 C 543.265625 488.628906 514.613281 517.28125 479.265625 517.28125 C 443.917969 517.28125 415.265625 488.628906 415.265625 453.28125 C 415.265625 417.9375 443.917969 389.28125 479.265625 389.28125 C 514.613281 389.28125 543.265625 417.9375 543.265625 453.28125 "/>
<path fill="none" stroke-width="3" stroke-linecap="butt" stroke-linejoin="miter" stroke="rgb(0%, 50%, 0%)" stroke-opacity="1" stroke-miterlimit="10" d="M 350 350 L 491.460938 350 Z M 350 350 " transform="matrix(1, 0, 0, -1, 0, 700)"/>
<path fill="none" stroke-width="3" stroke-linecap="butt" stroke-linejoin="miter" stroke="rgb(0%, 50%, 0%)" stroke-opacity="1" stroke-miterlimit="10" d="M 350 350 L 491.460938 350 L 479.265625 246.71875 Z M 350 350 " transform="matrix(1, 0, 0, -1, 0, 700)"/>
<path fill-rule="nonzero" fill="rgb(0%, 50%, 0%)" fill-opacity="0.3" d="M 350 350 L 491.460938 350 L 479.265625 453.28125 Z M 350 350 "/>
</svg>
