<?xml version="1.0" encoding="UTF-8"?>
<svg xmlns="http://www.w3.org/2000/svg" xmlns:xlink="http://www.w3.org/1999/xlink" width="800" height="700" viewBox="0 0 800 700">
<path fill="none" stroke-width="4" stroke-linecap="butt" stroke-linejoin="miter" stroke="rgb(0%, 0%, 0%)" stroke-opacity="1" stroke-miterlimit="10" d="M 453.488281 350 C 453.488281 292.84375 407.15625 246.511719 350 246.511719 C 292.84375 246.511719 246.511719 292.84375 246.511719 350 C 246.511719 407.15625 292.84375 453.488281 350 453.488281 C 407.15625 453.488281 453.488281 407.15625 453.488281 350 " transform="matrix(1, 0, 0, -1, 0, 700)"/>
<path fill-rule="nonzero" fill="rgb(0%, 0%, 0%)" fill-opacity="0.3" d="M 453.488281 350 C 453.488281 407.15625 407.15625 453.488281 350 453.488281 C 292.84375 453.488281 246.511719 407.15625 246.511719 350 C 246.511719 292.84375 292.84375 246.511719 350 246.511719 C 407.15625 246.511719 453.488281 292.84375 453.488281 350 "/>
<path fill="none" stroke-width="2" stroke-linecap="butt" stroke-linejoin="miter" stroke="rgb(100%, 0%, 0%)" stroke-opacity="1" stroke-miterlimit="10" d="M 533.488281 350 C 533.488281 327.910156 515.578125 310 493.488281 310 C 471.398438 310 453.488281 327.910156 453.488281 350 C 453.488281 372.089844 471.398438 390 493.488281 390 C 515.578125 390 533.488281 372.089844 533.488281 350 " transform="matrix(1, 0, 0, -1, 0, 700)"/>
<path fill-rule="nonzero" fill="rgb(100%, 0%, 0%)" fill-opacity="0.3" d="M 533.488281 350 C 533.488281 372.089844 515.578125 390 493.488281 390 C 471.398438 390 453.488281 372.089844 453.488281 350 C 453.488281 327.910156 471.398438 310 493.488281 310 C 515.578125 310 533.488281 327.910156 533.488281 350 "/>
<path fill="none" stroke-width="2" stroke-linecap="butt" stroke-linejoin="miter" stroke="rgb(0%, 0%, 29.998779%)" stroke-opacity="1" stroke-miterlimit="10" d="M 545.804688 246.660156 C 545.804688 211.3125 517.152344 182.660156 481.804688 182.660156 C 446.460938 182.660156 417.804688 211.3125 417.804688 246.660156 C 417.804688 282.003906 446.460938 310.660156 481.804688 310.660156 C 517.152344 310.660156 545.804688 282.003906 545.804688 246.660156 " transform="matrix(1, 0, 0, -1, 0, 700)"/>
<path fill-rule="nonzero" fill="rgb(0%, 0%, 29.998779%)" fill-opacity="0.3" d="M 545.804688 453.339844 C 545.804688 488.6875 517.152344 517.339844 481.804688 517.339844 C 446.460938 517.339844 417.804688 488.6875 417.804688 453.339844 C 417.804688 417.996094 446.460938 389.339844 481.804688 389.339844 C 517.152344 389.339844 545.804688 417.996094 545.804688 453.339844 "/>
<path fill="none" stroke-width="3" stroke-linecap="butt" stroke-linejoin="miter" stroke="rgb(0%, 50%, 0%)" stroke-opacity="1" stroke-miterlimit="10" d="M 350 350 L 493.488281 350 Z M 350 350 " transform="matrix(1, 0, 0, -1, 0, 700)"/>
<path fill="none" stroke-width="3" stroke-linecap="butt" stroke-linejoin="miter" stroke="rgb(0%, 50%, 0%)" stroke-opacity="1" stroke-miterlimit="10" d="M 350 350 L 493.488281 350 L 481.804688 246.660156 Z M 350 350 " transform="matrix(1, 0, 0, -1, 0, 700)"/>
<path fill-rule="nonzero" fill="rgb(0%, 50%, 0%)" fill-opacity="0.3" d="M 350 350 L 493.488281 350 L 481.804688 453.339844 Z M 350 350 "/>
</svg>
