<?xml version="1.0" encoding="UTF-8"?>
<svg xmlns="http://www.w3.org/2000/svg" xmlns:xlink="http://www.w3.org/1999/xlink" width="800" height="700" viewBox="0 0 800 700">
<path fill="none" stroke-width="4" stroke-linecap="butt" stroke-linejoin="miter" stroke="rgb(0%, 0%, 0%)" stroke-opacity="1" stroke-miterlimit="10" d="M 455.558594 350 C 455.558594 291.703125 408.296875 244.441406 350 244.441406 C 291.703125 244.441406 244.441406 291.703125 244.441406 350 C 244.441406 408.296875 291.703125 455.558594 350 455.558594 C 408.296875 455.558594 455.558594 408.296875 455.558594 350 " transform="matrix(1, 0, 0, -1, 0, 700)"/>
<path fill-rule="nonzero" fill="rgb(0%, 0%, 0%)" fill-opacity="0.3" d="M 455.558594 350 C 455.558594 408.296875 408.296875 455.558594 350 455.558594 C 291.703125 455.558594 244.441406 408.296875 244.441406 350 C 244.441406 291.703125 291.703125 244.441406 350 244.441406 C 408.296875 244.441406 455.558594 291.703125 455.558594 350 "/>
<path fill="none" stroke-width="2" stroke-linecap="butt" stroke-linejoin="miter" stroke="rgb(100%, 0%, 0%)" stroke-opacity="1" stroke-miterlimit="10" d="M 535.558594 350 C 535.558594 327.910156 517.648438 310 495.558594 310 C 473.46875 310 455.558594 327.910156 455.558594 350 C 455.558594 372.089844 473.46875 390 495.558594 390 C 517.648438 390 535.558594 372.089844 535.558594 350 " transform="matrix(1, 0, 0, -1, 0, 700)"/>
<path fill-rule="nonzero" fill="rgb(100%, 0%, 0%)" fill-opacity="0.3" d="M 535.558594 350 C 535.558594 372.089844 517.648438 390 495.558594 390 C 473.46875 390 455.558594 372.089844 455.558594 350 C 455.558594 327.910156 473.46875 310 495.558594 310 C 517.648438 310 535.558594 327.910156 535.558594 350 "/>
<path fill="none" stroke-width="2" stroke-linecap="butt" stroke-linejoin="miter" stroke="rgb(0%, 0%, 29.998779%)" stroke-opacity="1" stroke-miterlimit="10" d="M 548.382812 246.601562 C 548.382812 211.257812 519.730469 182.601562 484.382812 182.601562 C 449.039062 182.601562 420.382812 211.257812 420.382812 246.601562 C 420.382812 281.949219 449.039062 310.601562 484.382812 310.601562 C 519.730469 310.601562 548.382812 281.949219 548.382812 246.601562 " transform="matrix(1, 0, 0, -1, 0, 700)"/>
<path fill-rule="nonzero" fill="rgb(0%, 0%, 29.998779%)" fill-opacity="0.3" d="M 548.382812 453.398438 C 548.382812 488.742188 519.730469 517.398438 484.382812 517.398438 C 449.039062 517.398438 420.382812 488.742188 420.382812 453.398438 C 420.382812 418.050781 449.039062 389.398438 484.382812 389.398438 C 519.730469 389.398438 548.382812 418.050781 548.382812 453.398438 "/>
<path fill="none" stroke-width="3" stroke-linecap="butt" stroke-linejoin="miter" stroke="rgb(0%, 50%, 0%)" stroke-opacity="1" stroke-miterlimit="10" d="M 350 350 L 495.558594 350 Z M 350 350 " transform="matrix(1, 0, 0, -1, 0, 700)"/>
<path fill="none" stroke-width="3" stroke-linecap="butt" stroke-linejoin="miter" stroke="rgb(0%, 50%, 0%)" stroke-opacity="1" stroke-miterlimit="10" d="M 350 350 L 495.558594 350 L 484.382812 246.601562 Z M 350 350 " transform="matrix(1, 0, 0, -1, 0, 700)"/>
<path fill-rule="nonzero" fill="rgb(0%, 50%, 0%)" fill-opacity="0.3" d="M 350 350 L 495.558594 350 L 484.382812 453.398438 Z M 350 350 "/>
</svg>
