<?xml version="1.0" encoding="UTF-8"?>
<svg xmlns="http://www.w3.org/2000/svg" xmlns:xlink="http://www.w3.org/1999/xlink" width="800" height="700" viewBox="0 0 800 700">
<path fill="none" stroke-width="4" stroke-linecap="butt" stroke-linejoin="miter" stroke="rgb(0%, 0%, 0%)" stroke-opacity="1" stroke-miterlimit="10" d="M 457.667969 350 C 457.667969 290.535156 409.464844 242.332031 350 242.332031 C 290.535156 242.332031 242.332031 290.535156 242.332031 350 C 242.332031 409.464844 290.535156 457.667969 350 457.667969 C 409.464844 457.667969 457.667969 409.464844 457.667969 350 " transform="matrix(1, 0, 0, -1, 0, 700)"/>
<path fill-rule="nonzero" fill="rgb(0%, 0%, 0%)" fill-opacity="0.3" d="M 457.667969 350 C 457.667969 409.464844 409.464844 457.667969 350 457.667969 C 290.535156 457.667969 242.332031 409.464844 242.332031 350 C 242.332031 290.535156 290.535156 242.332031 350 242.332031 C 409.464844 242.332031 457.667969 290.535156 457.667969 350 "/>
<path fill="none" stroke-width="2" stroke-linecap="butt" stroke-linejoin="miter" stroke="rgb(100%, 0%, 0%)" stroke-opacity="1" stroke-miterlimit="10" d="M 537.667969 350 C 537.667969 327.910156 519.761719 310 497.667969 310 C 475.578125 310 457.667969 327.910156 457.667969 350 C 457.667969 372.089844 475.578125 390 497.667969 390 C 519.761719 390 537.667969 372.089844 537.667969 350 " transform="matrix(1, 0, 0, -1, 0, 700)"/>
<path fill-rule="nonzero" fill="rgb(100%, 0%, 0%)" fill-opacity="0.3" d="M 537.667969 350 C 537.667969 372.089844 519.761719 390 497.667969 390 C 475.578125 390 457.667969 372.089844 457.667969 350 C 457.667969 327.910156 475.578125 310 497.667969 310 C 519.761719 310 537.667969 327.910156 537.667969 350 "/>
<path fill="none" stroke-width="2" stroke-linecap="butt" stroke-linejoin="miter" stroke="rgb(0%, 0%, 29.998779%)" stroke-opacity="1" stroke-miterlimit="10" d="M 550.996094 246.550781 C 550.996094 211.203125 522.34375 182.550781 486.996094 182.550781 C 451.652344 182.550781 422.996094 211.203125 422.996094 246.550781 C 422.996094 281.894531 451.652344 310.550781 486.996094 310.550781 C 522.34375 310.550781 550.996094 281.894531 550.996094 246.550781 " transform="matrix(1, 0, 0, -1, 0, 700)"/>
<path fill-rule="nonzero" fill="rgb(0%, 0%, 29.998779%)" fill-opacity="0.3" d="M 550.996094 453.449219 C 550.996094 488.796875 522.34375 517.449219 486.996094 517.449219 C 451.652344 517.449219 422.996094 488.796875 422.996094 453.449219 C 422.996094 418.105469 451.652344 389.449219 486.996094 389.449219 C 522.34375 389.449219 550.996094 418.105469 550.996094 453.449219 "/>
<path fill="none" stroke-width="3" stroke-linecap="butt" stroke-linejoin="miter" stroke="rgb(0%, 50%, 0%)" stroke-opacity="1" stroke-miterlimit="10" d="M 350 350 L 497.667969 350 Z M 350 350 " transform="matrix(1, 0, 0, -1, 0, 700)"/>
<path fill="none" stroke-width="3" stroke-linecap="butt" stroke-linejoin="miter" stroke="rgb(0%, 50%, 0%)" stroke-opacity="1" stroke-miterlimit="10" d="M 350 350 L 497.667969 350 L 486.996094 246.550781 Z M 350 350 " transform="matrix(1, 0, 0, -1, 0, 700)"/>
<path fill-rule="nonzero" fill="rgb(0%, 50%, 0%)" fill-opacity="0.3" d="M 350 350 L 497.667969 350 L 486.996094 453.449219 Z M 350 350 "/>
</svg>
