<?xml version="1.0" encoding="UTF-8"?>
<svg xmlns="http://www.w3.org/2000/svg" xmlns:xlink="http://www.w3.org/1999/xlink" width="800" height="700" viewBox="0 0 800 700">
<path fill="none" stroke-width="4" stroke-linecap="butt" stroke-linejoin="miter" stroke="rgb(0%, 0%, 0%)" stroke-opacity="1" stroke-miterlimit="10" d="M 459.824219 350 C 459.824219 289.347656 410.652344 240.175781 350 240.175781 C 289.347656 240.175781 240.175781 289.347656 240.175781 350 C 240.175781 410.652344 289.347656 459.824219 350 459.824219 C 410.652344 459.824219 459.824219 410.652344 459.824219 350 " transform="matrix(1, 0, 0, -1, 0, 700)"/>
<path fill-rule="nonzero" fill="rgb(0%, 0%, 0%)" fill-opacity="0.3" d="M 459.824219 350 C 459.824219 410.652344 410.652344 459.824219 350 459.824219 C 289.347656 459.824219 240.175781 410.652344 240.175781 350 C 240.175781 289.347656 289.347656 240.175781 350 240.175781 C 410.652344 240.175781 459.824219 289.347656 459.824219 350 "/>
<path fill="none" stroke-width="2" stroke-linecap="butt" stroke-linejoin="miter" stroke="rgb(100%, 0%, 0%)" stroke-opacity="1" stroke-miterlimit="10" d="M 539.824219 350 C 539.824219 327.910156 521.914062 310 499.824219 310 C 477.730469 310 459.824219 327.910156 459.824219 350 C 459.824219 372.089844 477.730469 390 499.824219 390 C 521.914062 390 539.824219 372.089844 539.824219 350 " transform="matrix(1, 0, 0, -1, 0, 700)"/>
<path fill-rule="nonzero" fill="rgb(100%, 0%, 0%)" fill-opacity="0.3" d="M 539.824219 350 C 539.824219 372.089844 521.914062 390 499.824219 390 C 477.730469 390 459.824219 372.089844 459.824219 350 C 459.824219 327.910156 477.730469 310 499.824219 310 C 521.914062 310 539.824219 327.910156 539.824219 350 "/>
<path fill="none" stroke-width="2" stroke-linecap="butt" stroke-linejoin="miter" stroke="rgb(0%, 0%, 29.998779%)" stroke-opacity="1" stroke-miterlimit="10" d="M 553.648438 246.5 C 553.648438 211.152344 524.996094 182.5 489.648438 182.5 C 454.304688 182.5 425.648438 211.152344 425.648438 246.5 C 425.648438 281.84375 454.304688 310.5 489.648438 310.5 C 524.996094 310.5 553.648438 281.84375 553.648438 246.5 " transform="matrix(1, 0, 0, -1, 0, 700)"/>
<path fill-rule="nonzero" fill="rgb(0%, 0%, 29.998779%)" fill-opacity="0.3" d="M 553.648438 453.5 C 553.648438 488.847656 524.996094 517.5 489.648438 517.5 C 454.304688 517.5 425.648438 488.847656 425.648438 453.5 C 425.648438 418.15625 454.304688 389.5 489.648438 389.5 C 524.996094 389.5 553.648438 418.15625 553.648438 453.5 "/>
<path fill="none" stroke-width="3" stroke-linecap="butt" stroke-linejoin="miter" stroke="rgb(0%, 50%, 0%)" stroke-opacity="1" stroke-miterlimit="10" d="M 350 350 L 499.824219 350 Z M 350 350 " transform="matrix(1, 0, 0, -1, 0, 700)"/>
<path fill="none" stroke-width="3" stroke-linecap="butt" stroke-linejoin="miter" stroke="rgb(0%, 50%, 0%)" stroke-opacity="1" stroke-miterlimit="10" d="M 350 350 L 499.824219 350 L 489.648438 246.5 Z M 350 350 " transform="matrix(1, 0, 0, -1, 0, 700)"/>
<path fill-rule="nonzero" fill="rgb(0%, 50%, 0%)" fill-opacity="0.3" d="M 350 350 L 499.824219 350 L 489.648438 453.5 Z M 350 350 "/>
</svg>
