<?xml version="1.0" encoding="UTF-8"?>
<svg xmlns="http://www.w3.org/2000/svg" xmlns:xlink="http://www.w3.org/1999/xlink" width="800" height="700" viewBox="0 0 800 700">
<path fill="none" stroke-width="4" stroke-linecap="butt" stroke-linejoin="miter" stroke="rgb(0%, 0%, 0%)" stroke-opacity="1" stroke-miterlimit="10" d="M 462.019531 350 C 462.019531 288.132812 411.867188 237.980469 350 237.980469 C 288.132812 237.980469 237.980469 288.132812 237.980469 350 C 237.980469 411.867188 288.132812 462.019531 350 462.019531 C 411.867188 462.019531 462.019531 411.867188 462.019531 350 " transform="matrix(1, 0, 0, -1, 0, 700)"/>
<path fill-rule="nonzero" fill="rgb(0%, 0%, 0%)" fill-opacity="0.3" d="M 462.019531 350 C 462.019531 411.867188 411.867188 462.019531 350 462.019531 C 288.132812 462.019531 237.980469 411.867188 237.980469 350 C 237.980469 288.132812 288.132812 237.980469 350 237.980469 C 411.867188 237.980469 462.019531 288.132812 462.019531 350 "/>
<path fill="none" stroke-width="2" stroke-linecap="butt" stroke-linejoin="miter" stroke="rgb(100%, 0%, 0%)" stroke-opacity="1" stroke-miterlimit="10" d="M 542.019531 350 C 542.019531 327.910156 524.109375 310 502.019531 310 C 479.929688 310 462.019531 327.910156 462.019531 350 C 462.019531 372.089844 479.929688 390 502.019531 390 C 524.109375 390 542.019531 372.089844 542.019531 350 " transform="matrix(1, 0, 0, -1, 0, 700)"/>
<path fill-rule="nonzero" fill="rgb(100%, 0%, 0%)" fill-opacity="0.3" d="M 542.019531 350 C 542.019531 372.089844 524.109375 390 502.019531 390 C 479.929688 390 462.019531 372.089844 462.019531 350 C 462.019531 327.910156 479.929688 310 502.019531 310 C 524.109375 310 542.019531 327.910156 542.019531 350 "/>
<path fill="none" stroke-width="2" stroke-linecap="butt" stroke-linejoin="miter" stroke="rgb(0%, 0%, 29.998779%)" stroke-opacity="1" stroke-miterlimit="10" d="M 556.339844 246.453125 C 556.339844 211.105469 527.6875 182.453125 492.339844 182.453125 C 456.992188 182.453125 428.339844 211.105469 428.339844 246.453125 C 428.339844 281.796875 456.992188 310.453125 492.339844 310.453125 C 527.6875 310.453125 556.339844 281.796875 556.339844 246.453125 " transform="matrix(1, 0, 0, -1, 0, 700)"/>
<path fill-rule="nonzero" fill="rgb(0%, 0%, 29.998779%)" fill-opacity="0.3" d="M 556.339844 453.546875 C 556.339844 488.894531 527.6875 517.546875 492.339844 517.546875 C 456.992188 517.546875 428.339844 488.894531 428.339844 453.546875 C 428.339844 418.203125 456.992188 389.546875 492.339844 389.546875 C 527.6875 389.546875 556.339844 418.203125 556.339844 453.546875 "/>
<path fill="none" stroke-width="3" stroke-linecap="butt" stroke-linejoin="miter" stroke="rgb(0%, 50%, 0%)" stroke-opacity="1" stroke-miterlimit="10" d="M 350 350 L 502.019531 350 Z M 350 350 " transform="matrix(1, 0, 0, -1, 0, 700)"/>
<path fill="none" stroke-width="3" stroke-linecap="butt" stroke-linejoin="miter" stroke="rgb(0%, 50%, 0%)" stroke-opacity="1" stroke-miterlimit="10" d="M 350 350 L 502.019531 350 L 492.339844 246.453125 Z M 350 350 " transform="matrix(1, 0, 0, -1, 0, 700)"/>
<path fill-rule="nonzero" fill="rgb(0%, 50%, 0%)" fill-opacity="0.3" d="M 350 350 L 502.019531 350 L 492.339844 453.546875 Z M 350 350 "/>
</svg>
