<?xml version="1.0" encoding="UTF-8"?>
<svg xmlns="http://www.w3.org/2000/svg" xmlns:xlink="http://www.w3.org/1999/xlink" width="800" height="700" viewBox="0 0 800 700">
<path fill="none" stroke-width="4" stroke-linecap="butt" stroke-linejoin="miter" stroke="rgb(0%, 0%, 0%)" stroke-opacity="1" stroke-miterlimit="10" d="M 464.257812 350 C 464.257812 286.894531 413.105469 235.742188 350 235.742188 C 286.894531 235.742188 235.742188 286.894531 235.742188 350 C 235.742188 413.105469 286.894531 464.257812 350 464.257812 C 413.105469 464.257812 464.257812 413.105469 464.257812 350 " transform="matrix(1, 0, 0, -1, 0, 700)"/>
<path fill-rule="nonzero" fill="rgb(0%, 0%, 0%)" fill-opacity="0.3" d="M 464.257812 350 C 464.257812 413.105469 413.105469 464.257812 350 464.257812 C 286.894531 464.257812 235.742188 413.105469 235.742188 350 C 235.742188 286.894531 286.894531 235.742188 350 235.742188 C 413.105469 235.742188 464.257812 286.894531 464.257812 350 "/>
<path fill="none" stroke-width="2" stroke-linecap="butt" stroke-linejoin="miter" stroke="rgb(100%, 0%, 0%)" stroke-opacity="1" stroke-miterlimit="10" d="M 544.257812 350 C 544.257812 327.910156 526.351562 310 504.257812 310 C 482.167969 310 464.257812 327.910156 464.257812 350 C 464.257812 372.089844 482.167969 390 504.257812 390 C 526.351562 390 544.257812 372.089844 544.257812 350 " transform="matrix(1, 0, 0, -1, 0, 700)"/>
<path fill-rule="nonzero" fill="rgb(100%, 0%, 0%)" fill-opacity="0.3" d="M 544.257812 350 C 544.257812 372.089844 526.351562 390 504.257812 390 C 482.167969 390 464.257812 372.089844 464.257812 350 C 464.257812 327.910156 482.167969 310 504.257812 310 C 526.351562 310 544.257812 327.910156 544.257812 350 "/>
<path fill="none" stroke-width="2" stroke-linecap="butt" stroke-linejoin="miter" stroke="rgb(0%, 0%, 29.998779%)" stroke-opacity="1" stroke-miterlimit="10" d="M 559.070312 246.40625 C 559.070312 211.0625 530.414062 182.40625 495.070312 182.40625 C 459.722656 182.40625 431.070312 211.0625 431.070312 246.40625 C 431.070312 281.753906 459.722656 310.40625 495.070312 310.40625 C 530.414062 310.40625 559.070312 281.753906 559.070312 246.40625 " transform="matrix(1, 0, 0, -1, 0, 700)"/>
<path fill-rule="nonzero" fill="rgb(0%, 0%, 29.998779%)" fill-opacity="0.3" d="M 559.070312 453.59375 C 559.070312 488.9375 530.414062 517.59375 495.070312 517.59375 C 459.722656 517.59375 431.070312 488.9375 431.070312 453.59375 C 431.070312 418.246094 459.722656 389.59375 495.070312 389.59375 C 530.414062 389.59375 559.070312 418.246094 559.070312 453.59375 "/>
<path fill="none" stroke-width="3" stroke-linecap="butt" stroke-linejoin="miter" stroke="rgb(0%, 50%, 0%)" stroke-opacity="1" stroke-miterlimit="10" d="M 350 350 L 504.257812 350 Z M 350 350 " transform="matrix(1, 0, 0, -1, 0, 700)"/>
<path fill="none" stroke-width="3" stroke-linecap="butt" stroke-linejoin="miter" stroke="rgb(0%, 50%, 0%)" stroke-opacity="1" stroke-miterlimit="10" d="M 350 350 L 504.257812 350 L 495.070312 246.40625 Z M 350 350 " transform="matrix(1, 0, 0, -1, 0, 700)"/>
<path fill-rule="nonzero" fill="rgb(0%, 50%, 0%)" fill-opacity="0.3" d="M 350 350 L 504.257812 350 L 495.070312 453.59375 Z M 350 350 "/>
</svg>
