<?xml version="1.0" encoding="UTF-8"?>
<svg xmlns="http://www.w3.org/2000/svg" xmlns:xlink="http://www.w3.org/1999/xlink" width="800" height="700" viewBox="0 0 800 700">
<path fill="none" stroke-width="4" stroke-linecap="butt" stroke-linejoin="miter" stroke="rgb(0%, 0%, 0%)" stroke-opacity="1" stroke-miterlimit="10" d="M 466.542969 350 C 466.542969 285.632812 414.367188 233.457031 350 233.457031 C 285.632812 233.457031 233.457031 285.632812 233.457031 350 C 233.457031 414.367188 285.632812 466.542969 350 466.542969 C 414.367188 466.542969 466.542969 414.367188 466.542969 350 " transform="matrix(1, 0, 0, -1, 0, 700)"/>
<path fill-rule="nonzero" fill="rgb(0%, 0%, 0%)" fill-opacity="0.3" d="M 466.542969 350 C 466.542969 414.367188 414.367188 466.542969 350 466.542969 C 285.632812 466.542969 233.457031 414.367188 233.457031 350 C 233.457031 285.632812 285.632812 233.457031 350 233.457031 C 414.367188 233.457031 466.542969 285.632812 466.542969 350 "/>
<path fill="none" stroke-width="2" stroke-linecap="butt" stroke-linejoin="miter" stroke="rgb(100%, 0%, 0%)" stroke-opacity="1" stroke-miterlimit="10" d="M 546.542969 350 C 546.542969 327.910156 528.636719 310 506.542969 310 C 484.453125 310 466.542969 327.910156 466.542969 350 C 466.542969 372.089844 484.453125 390 506.542969 390 C 528.636719 390 546.542969 372.089844 546.542969 350 " transform="matrix(1, 0, 0, -1, 0, 700)"/>
<path fill-rule="nonzero" fill="rgb(100%, 0%, 0%)" fill-opacity="0.3" d="M 546.542969 350 C 546.542969 372.089844 528.636719 390 506.542969 390 C 484.453125 390 466.542969 372.089844 466.542969 350 C 466.542969 327.910156 484.453125 310 506.542969 310 C 528.636719 310 546.542969 327.910156 546.542969 350 "/>
<path fill="none" stroke-width="2" stroke-linecap="butt" stroke-linejoin="miter" stroke="rgb(0%, 0%, 29.998779%)" stroke-opacity="1" stroke-miterlimit="10" d="M 561.839844 246.363281 C 561.839844 211.019531 533.183594 182.363281 497.839844 182.363281 C 462.492188 182.363281 433.839844 211.019531 433.839844 246.363281 C 433.839844 281.710938 462.492188 310.363281 497.839844 310.363281 C 533.183594 310.363281 561.839844 281.710938 561.839844 246.363281 " transform="matrix(1, 0, 0, -1, 0, 700)"/>
<path fill-rule="nonzero" fill="rgb(0%, 0%, 29.998779%)" fill-opacity="0.3" d="M 561.839844 453.636719 C 561.839844 488.980469 533.183594 517.636719 497.839844 517.636719 C 462.492188 517.636719 433.839844 488.980469 433.839844 453.636719 C 433.839844 418.289062 462.492188 389.636719 497.839844 389.636719 C 533.183594 389.636719 561.839844 418.289062 561.839844 453.636719 "/>
<path fill="none" stroke-width="3" stroke-linecap="butt" stroke-linejoin="miter" stroke="rgb(0%, 50%, 0%)" stroke-opacity="1" stroke-miterlimit="10" d="M 350 350 L 506.542969 350 Z M 350 350 " transform="matrix(1, 0, 0, -1, 0, 700)"/>
<path fill="none" stroke-width="3" stroke-linecap="butt" stroke-linejoin="miter" stroke="rgb(0%, 50%, 0%)" stroke-opacity="1" stroke-miterlimit="10" d="M 350 350 L 506.542969 350 L 497.839844 246.363281 Z M 350 350 " transform="matrix(1, 0, 0, -1, 0, 700)"/>
<path fill-rule="nonzero" fill="rgb(0%, 50%, 0%)" fill-opacity="0.3" d="M 350 350 L 506.542969 350 L 497.839844 453.636719 Z M 350 350 "/>
</svg>
