<?xml version="1.0" encoding="UTF-8"?>
<svg xmlns="http://www.w3.org/2000/svg" xmlns:xlink="http://www.w3.org/1999/xlink" width="800" height="700" viewBox="0 0 800 700">
<path fill="none" stroke-width="4" stroke-linecap="butt" stroke-linejoin="miter" stroke="rgb(0%, 0%, 0%)" stroke-opacity="1" stroke-miterlimit="10" d="M 468.875 350 C 468.875 284.347656 415.652344 231.125 350 231.125 C 284.347656 231.125 231.125 284.347656 231.125 350 C 231.125 415.652344 284.347656 468.875 350 468.875 C 415.652344 468.875 468.875 415.652344 468.875 350 " transform="matrix(1, 0, 0, -1, 0, 700)"/>
<path fill-rule="nonzero" fill="rgb(0%, 0%, 0%)" fill-opacity="0.3" d="M 468.875 350 C 468.875 415.652344 415.652344 468.875 350 468.875 C 284.347656 468.875 231.125 415.652344 231.125 350 C 231.125 284.347656 284.347656 231.125 350 231.125 C 415.652344 231.125 468.875 284.347656 468.875 350 "/>
<path fill="none" stroke-width="2" stroke-linecap="butt" stroke-linejoin="miter" stroke="rgb(100%, 0%, 0%)" stroke-opacity="1" stroke-miterlimit="10" d="M 548.875 350 C 548.875 327.910156 530.96875 310 508.875 310 C 486.785156 310 468.875 327.910156 468.875 350 C 468.875 372.089844 486.785156 390 508.875 390 C 530.96875 390 548.875 372.089844 548.875 350 " transform="matrix(1, 0, 0, -1, 0, 700)"/>
<path fill-rule="nonzero" fill="rgb(100%, 0%, 0%)" fill-opacity="0.3" d="M 548.875 350 C 548.875 372.089844 530.96875 390 508.875 390 C 486.785156 390 468.875 372.089844 468.875 350 C 468.875 327.910156 486.785156 310 508.875 310 C 530.96875 310 548.875 327.910156 548.875 350 "/>
<path fill="none" stroke-width="2" stroke-linecap="butt" stroke-linejoin="miter" stroke="rgb(0%, 0%, 29.998779%)" stroke-opacity="1" stroke-miterlimit="10" d="M 564.648438 246.324219 C 564.648438 210.980469 535.996094 182.324219 500.648438 182.324219 C 465.304688 182.324219 436.648438 210.980469 436.648438 246.324219 C 436.648438 281.671875 465.304688 310.324219 500.648438 310.324219 C 535.996094 310.324219 564.648438 281.671875 564.648438 246.324219 " transform="matrix(1, 0, 0, -1, 0, 700)"/>
<path fill-rule="nonzero" fill="rgb(0%, 0%, 29.998779%)" fill-opacity="0.3" d="M 564.648438 453.675781 C 564.648438 489.019531 535.996094 517.675781 500.648438 517.675781 C 465.304688 517.675781 436.648438 489.019531 436.648438 453.675781 C 436.648438 418.328125 465.304688 389.675781 500.648438 389.675781 C 535.996094 389.675781 564.648438 418.328125 564.648438 453.675781 "/>
<path fill="none" stroke-width="3" stroke-linecap="butt" stroke-linejoin="miter" stroke="rgb(0%, 50%, 0%)" stroke-opacity="1" stroke-miterlimit="10" d="M 350 350 L 508.875 350 Z M 350 350 " transform="matrix(1, 0, 0, -1, 0, 700)"/>
<path fill="none" stroke-width="3" stroke-linecap="butt" stroke-linejoin="miter" stroke="rgb(0%, 50%, 0%)" stroke-opacity="1" stroke-miterlimit="10" d="M 350 350 L 508.875 350 L 500.648438 246.324219 Z M 350 350 " transform="matrix(1, 0, 0, -1, 0, 700)"/>
<path fill-rule="nonzero" fill="rgb(0%, 50%, 0%)" fill-opacity="0.3" d="M 350 350 L 508.875 350 L 500.648438 453.675781 Z M 350 350 "/>
</svg>
