<?xml version="1.0" encoding="UTF-8"?>
<svg xmlns="http://www.w3.org/2000/svg" xmlns:xlink="http://www.w3.org/1999/xlink" width="800" height="700" viewBox="0 0 800 700">
<path fill="none" stroke-width="4" stroke-linecap="butt" stroke-linejoin="miter" stroke="rgb(0%, 0%, 0%)" stroke-opacity="1" stroke-miterlimit="10" d="M 471.253906 350 C 471.253906 283.035156 416.964844 228.746094 350 228.746094 C 283.035156 228.746094 228.746094 283.035156 228.746094 350 C 228.746094 416.964844 283.035156 471.253906 350 471.253906 C 416.964844 471.253906 471.253906 416.964844 471.253906 350 " transform="matrix(1, 0, 0, -1, 0, 700)"/>
<path fill-rule="nonzero" fill="rgb(0%, 0%, 0%)" fill-opacity="0.3" d="M 471.253906 350 C 471.253906 416.964844 416.964844 471.253906 350 471.253906 C 283.035156 471.253906 228.746094 416.964844 228.746094 350 C 228.746094 283.035156 283.035156 228.746094 350 228.746094 C 416.964844 228.746094 471.253906 283.035156 471.253906 350 "/>
<path fill="none" stroke-width="2" stroke-linecap="butt" stroke-linejoin="miter" stroke="rgb(100%, 0%, 0%)" stroke-opacity="1" stroke-miterlimit="10" d="M 551.253906 350 C 551.253906 327.910156 533.34375 310 511.253906 310 C 489.160156 310 471.253906 327.910156 471.253906 350 C 471.253906 372.089844 489.160156 390 511.253906 390 C 533.34375 390 551.253906 372.089844 551.253906 350 " transform="matrix(1, 0, 0, -1, 0, 700)"/>
<path fill-rule="nonzero" fill="rgb(100%, 0%, 0%)" fill-opacity="0.3" d="M 551.253906 350 C 551.253906 372.089844 533.34375 390 511.253906 390 C 489.160156 390 471.253906 372.089844 471.253906 350 C 471.253906 327.910156 489.160156 310 511.253906 310 C 533.34375 310 551.253906 327.910156 551.253906 350 "/>
<path fill="none" stroke-width="2" stroke-linecap="butt" stroke-linejoin="miter" stroke="rgb(0%, 0%, 29.998779%)" stroke-opacity="1" stroke-miterlimit="10" d="M 567.503906 246.289062 C 567.503906 210.941406 538.847656 182.289062 503.503906 182.289062 C 468.15625 182.289062 439.503906 210.941406 439.503906 246.289062 C 439.503906 281.636719 468.15625 310.289062 503.503906 310.289062 C 538.847656 310.289062 567.503906 281.636719 567.503906 246.289062 " transform="matrix(1, 0, 0, -1, 0, 700)"/>
<path fill-rule="nonzero" fill="rgb(0%, 0%, 29.998779%)" fill-opacity="0.3" d="M 567.503906 453.710938 C 567.503906 489.058594 538.847656 517.710938 503.503906 517.710938 C 468.15625 517.710938 439.503906 489.058594 439.503906 453.710938 C 439.503906 418.363281 468.15625 389.710938 503.503906 389.710938 C 538.847656 389.710938 567.503906 418.363281 567.503906 453.710938 "/>
<path fill="none" stroke-width="3" stroke-linecap="butt" stroke-linejoin="miter" stroke="rgb(0%, 50%, 0%)" stroke-opacity="1" stroke-miterlimit="10" d="M 350 350 L 511.253906 350 Z M 350 350 " transform="matrix(1, 0, 0, -1, 0, 700)"/>
<path fill="none" stroke-width="3" stroke-linecap="butt" stroke-linejoin="miter" stroke="rgb(0%, 50%, 0%)" stroke-opacity="1" stroke-miterlimit="10" d="M 350 350 L 511.253906 350 L 503.503906 246.289062 Z M 350 350 " transform="matrix(1, 0, 0, -1, 0, 700)"/>
<path fill-rule="nonzero" fill="rgb(0%, 50%, 0%)" fill-opacity="0.3" d="M 350 350 L 511.253906 350 L 503.503906 453.710938 Z M 350 350 "/>
</svg>
