<?xml version="1.0" encoding="UTF-8"?>
<svg xmlns="http://www.w3.org/2000/svg" xmlns:xlink="http://www.w3.org/1999/xlink" width="800" height="700" viewBox="0 0 800 700">
<path fill="none" stroke-width="4" stroke-linecap="butt" stroke-linejoin="miter" stroke="rgb(0%, 0%, 0%)" stroke-opacity="1" stroke-miterlimit="10" d="M 473.679688 350 C 473.679688 281.695312 418.304688 226.320312 350 226.320312 C 281.695312 226.320312 226.320312 281.695312 226.320312 350 C 226.320312 418.304688 281.695312 473.679688 350 473.679688 C 418.304688 473.679688 473.679688 418.304688 473.679688 350 " transform="matrix(1, 0, 0, -1, 0, 700)"/>
<path fill-rule="nonzero" fill="rgb(0%, 0%, 0%)" fill-opacity="0.3" d="M 473.679688 350 C 473.679688 418.304688 418.304688 473.679688 350 473.679688 C 281.695312 473.679688 226.320312 418.304688 226.320312 350 C 226.320312 281.695312 281.695312 226.320312 350 226.320312 C 418.304688 226.320312 473.679688 281.695312 473.679688 350 "/>
<path fill="none" stroke-width="2" stroke-linecap="butt" stroke-linejoin="miter" stroke="rgb(100%, 0%, 0%)" stroke-opacity="1" stroke-miterlimit="10" d="M 553.679688 350 C 553.679688 327.910156 535.769531 310 513.679688 310 C 491.585938 310 473.679688 327.910156 473.679688 350 C 473.679688 372.089844 491.585938 390 513.679688 390 C 535.769531 390 553.679688 372.089844 553.679688 350 " transform="matrix(1, 0, 0, -1, 0, 700)"/>
<path fill-rule="nonzero" fill="rgb(100%, 0%, 0%)" fill-opacity="0.3" d="M 553.679688 350 C 553.679688 372.089844 535.769531 390 513.679688 390 C 491.585938 390 473.679688 372.089844 473.679688 350 C 473.679688 327.910156 491.585938 310 513.679688 310 C 535.769531 310 553.679688 327.910156 553.679688 350 "/>
<path fill="none" stroke-width="2" stroke-linecap="butt" stroke-linejoin="miter" stroke="rgb(0%, 0%, 29.998779%)" stroke-opacity="1" stroke-miterlimit="10" d="M 570.398438 246.253906 C 570.398438 210.910156 541.742188 182.253906 506.398438 182.253906 C 471.050781 182.253906 442.398438 210.910156 442.398438 246.253906 C 442.398438 281.601562 471.050781 310.253906 506.398438 310.253906 C 541.742188 310.253906 570.398438 281.601562 570.398438 246.253906 " transform="matrix(1, 0, 0, -1, 0, 700)"/>
<path fill-rule="nonzero" fill="rgb(0%, 0%, 29.998779%)" fill-opacity="0.3" d="M 570.398438 453.746094 C 570.398438 489.089844 541.742188 517.746094 506.398438 517.746094 C 471.050781 517.746094 442.398438 489.089844 442.398438 453.746094 C 442.398438 418.398438 471.050781 389.746094 506.398438 389.746094 C 541.742188 389.746094 570.398438 418.398438 570.398438 453.746094 "/>
<path fill="none" stroke-width="3" stroke-linecap="butt" stroke-linejoin="miter" stroke="rgb(0%, 50%, 0%)" stroke-opacity="1" stroke-miterlimit="10" d="M 350 350 L 513.679688 350 Z M 350 350 " transform="matrix(1, 0, 0, -1, 0, 700)"/>
<path fill="none" stroke-width="3" stroke-linecap="butt" stroke-linejoin="miter" stroke="rgb(0%, 50%, 0%)" stroke-opacity="1" stroke-miterlimit="10" d="M 350 350 L 513.679688 350 L 506.398438 246.253906 Z M 350 350 " transform="matrix(1, 0, 0, -1, 0, 700)"/>
<path fill-rule="nonzero" fill="rgb(0%, 50%, 0%)" fill-opacity="0.3" d="M 350 350 L 513.679688 350 L 506.398438 453.746094 Z M 350 350 "/>
</svg>
