<?xml version="1.0" encoding="UTF-8"?>
<svg xmlns="http://www.w3.org/2000/svg" xmlns:xlink="http://www.w3.org/1999/xlink" width="800" height="700" viewBox="0 0 800 700">
<path fill="none" stroke-width="4" stroke-linecap="butt" stroke-linejoin="miter" stroke="rgb(0%, 0%, 0%)" stroke-opacity="1" stroke-miterlimit="10" d="M 476.152344 350 C 476.152344 280.328125 419.671875 223.847656 350 223.847656 C 280.328125 223.847656 223.847656 280.328125 223.847656 350 C 223.847656 419.671875 280.328125 476.152344 350 476.152344 C 419.671875 476.152344 476.152344 419.671875 476.152344 350 " transform="matrix(1, 0, 0, -1, 0, 700)"/>
<path fill-rule="nonzero" fill="rgb(0%, 0%, 0%)" fill-opacity="0.3" d="M 476.152344 350 C 476.152344 419.671875 419.671875 476.152344 350 476.152344 C 280.328125 476.152344 223.847656 419.671875 223.847656 350 C 223.847656 280.328125 280.328125 223.847656 350 223.847656 C 419.671875 223.847656 476.152344 280.328125 476.152344 350 "/>
<path fill="none" stroke-width="2" stroke-linecap="butt" stroke-linejoin="miter" stroke="rgb(100%, 0%, 0%)" stroke-opacity="1" stroke-miterlimit="10" d="M 556.152344 350 C 556.152344 327.910156 538.242188 310 516.152344 310 C 494.0625 310 476.152344 327.910156 476.152344 350 C 476.152344 372.089844 494.0625 390 516.152344 390 C 538.242188 390 556.152344 372.089844 556.152344 350 " transform="matrix(1, 0, 0, -1, 0, 700)"/>
<path fill-rule="nonzero" fill="rgb(100%, 0%, 0%)" fill-opacity="0.3" d="M 556.152344 350 C 556.152344 372.089844 538.242188 390 516.152344 390 C 494.0625 390 476.152344 372.089844 476.152344 350 C 476.152344 327.910156 494.0625 310 516.152344 310 C 538.242188 310 556.152344 327.910156 556.152344 350 "/>
<path fill="none" stroke-width="2" stroke-linecap="butt" stroke-linejoin="miter" stroke="rgb(0%, 0%, 29.998779%)" stroke-opacity="1" stroke-miterlimit="10" d="M 573.335938 246.222656 C 573.335938 210.878906 544.683594 182.222656 509.335938 182.222656 C 473.992188 182.222656 445.335938 210.878906 445.335938 246.222656 C 445.335938 281.570312 473.992188 310.222656 509.335938 310.222656 C 544.683594 310.222656 573.335938 281.570312 573.335938 246.222656 " transform="matrix(1, 0, 0, -1, 0, 700)"/>
<path fill-rule="nonzero" fill="rgb(0%, 0%, 29.998779%)" fill-opacity="0.3" d="M 573.335938 453.777344 C 573.335938 489.121094 544.683594 517.777344 509.335938 517.777344 C 473.992188 517.777344 445.335938 489.121094 445.335938 453.777344 C 445.335938 418.429688 473.992188 389.777344 509.335938 389.777344 C 544.683594 389.777344 573.335938 418.429688 573.335938 453.777344 "/>
<path fill="none" stroke-width="3" stroke-linecap="butt" stroke-linejoin="miter" stroke="rgb(0%, 50%, 0%)" stroke-opacity="1" stroke-miterlimit="10" d="M 350 350 L 516.152344 350 Z M 350 350 " transform="matrix(1, 0, 0, -1, 0, 700)"/>
<path fill="none" stroke-width="3" stroke-linecap="butt" stroke-linejoin="miter" stroke="rgb(0%, 50%, 0%)" stroke-opacity="1" stroke-miterlimit="10" d="M 350 350 L 516.152344 350 L 509.335938 246.222656 Z M 350 350 " transform="matrix(1, 0, 0, -1, 0, 700)"/>
<path fill-rule="nonzero" fill="rgb(0%, 50%, 0%)" fill-opacity="0.3" d="M 350 350 L 516.152344 350 L 509.335938 453.777344 Z M 350 350 "/>
</svg>
