<?xml version="1.0" encoding="UTF-8"?>
<svg xmlns="http://www.w3.org/2000/svg" xmlns:xlink="http://www.w3.org/1999/xlink" width="800" height="700" viewBox="0 0 800 700">
<path fill="none" stroke-width="4" stroke-linecap="butt" stroke-linejoin="miter" stroke="rgb(0%, 0%, 0%)" stroke-opacity="1" stroke-miterlimit="10" d="M 478.675781 350 C 478.675781 278.933594 421.066406 221.324219 350 221.324219 C 278.933594 221.324219 221.324219 278.933594 221.324219 350 C 221.324219 421.066406 278.933594 478.675781 350 478.675781 C 421.066406 478.675781 478.675781 421.066406 478.675781 350 " transform="matrix(1, 0, 0, -1, 0, 700)"/>
<path fill-rule="nonzero" fill="rgb(0%, 0%, 0%)" fill-opacity="0.3" d="M 478.675781 350 C 478.675781 421.066406 421.066406 478.675781 350 478.675781 C 278.933594 478.675781 221.324219 421.066406 221.324219 350 C 221.324219 278.933594 278.933594 221.324219 350 221.324219 C 421.066406 221.324219 478.675781 278.933594 478.675781 350 "/>
<path fill="none" stroke-width="2" stroke-linecap="butt" stroke-linejoin="miter" stroke="rgb(100%, 0%, 0%)" stroke-opacity="1" stroke-miterlimit="10" d="M 558.675781 350 C 558.675781 327.910156 540.765625 310 518.675781 310 C 496.582031 310 478.675781 327.910156 478.675781 350 C 478.675781 372.089844 496.582031 390 518.675781 390 C 540.765625 390 558.675781 372.089844 558.675781 350 " transform="matrix(1, 0, 0, -1, 0, 700)"/>
<path fill-rule="nonzero" fill="rgb(100%, 0%, 0%)" fill-opacity="0.3" d="M 558.675781 350 C 558.675781 372.089844 540.765625 390 518.675781 390 C 496.582031 390 478.675781 372.089844 478.675781 350 C 478.675781 327.910156 496.582031 310 518.675781 310 C 540.765625 310 558.675781 327.910156 558.675781 350 "/>
<path fill="none" stroke-width="2" stroke-linecap="butt" stroke-linejoin="miter" stroke="rgb(0%, 0%, 29.998779%)" stroke-opacity="1" stroke-miterlimit="10" d="M 576.320312 246.195312 C 576.320312 210.847656 547.667969 182.195312 512.320312 182.195312 C 476.972656 182.195312 448.320312 210.847656 448.320312 246.195312 C 448.320312 281.539062 476.972656 310.195312 512.320312 310.195312 C 547.667969 310.195312 576.320312 281.539062 576.320312 246.195312 " transform="matrix(1, 0, 0, -1, 0, 700)"/>
<path fill-rule="nonzero" fill="rgb(0%, 0%, 29.998779%)" fill-opacity="0.3" d="M 576.320312 453.804688 C 576.320312 489.152344 547.667969 517.804688 512.320312 517.804688 C 476.972656 517.804688 448.320312 489.152344 448.320312 453.804688 C 448.320312 418.460938 476.972656 389.804688 512.320312 389.804688 C 547.667969 389.804688 576.320312 418.460938 576.320312 453.804688 "/>
<path fill="none" stroke-width="3" stroke-linecap="butt" stroke-linejoin="miter" stroke="rgb(0%, 50%, 0%)" stroke-opacity="1" stroke-miterlimit="10" d="M 350 350 L 518.675781 350 Z M 350 350 " transform="matrix(1, 0, 0, -1, 0, 700)"/>
<path fill="none" stroke-width="3" stroke-linecap="butt" stroke-linejoin="miter" stroke="rgb(0%, 50%, 0%)" stroke-opacity="1" stroke-miterlimit="10" d="M 350 350 L 518.675781 350 L 512.320312 246.195312 Z M 350 350 " transform="matrix(1, 0, 0, -1, 0, 700)"/>
<path fill-rule="nonzero" fill="rgb(0%, 50%, 0%)" fill-opacity="0.3" d="M 350 350 L 518.675781 350 L 512.320312 453.804688 Z M 350 350 "/>
</svg>
