<?xml version="1.0" encoding="UTF-8"?>
<svg xmlns="http://www.w3.org/2000/svg" xmlns:xlink="http://www.w3.org/1999/xlink" width="253.137" height="145.011" viewBox="0 0 253.137 145.011">
<defs>
<clipPath id="clip-0">
<path clip-rule="nonzero" d="M 0.429688 75 L 86 75 L 86 122 L 0.429688 122 Z M 0.429688 75 "/>
</clipPath>
<clipPath id="clip-1">
<path clip-rule="nonzero" d="M 164 0 L 251.851562 0 L 251.851562 46 L 164 46 Z M 164 0 "/>
</clipPath>
<clipPath id="clip-2">
<path clip-rule="nonzero" d="M 0.429688 75 L 86 75 L 86 122 L 0.429688 122 Z M 0.429688 75 "/>
</clipPath>
<clipPath id="clip-3">
<path clip-rule="nonzero" d="M 164 0 L 251.851562 0 L 251.851562 46 L 164 46 Z M 164 0 "/>
</clipPath>
</defs>
<path fill-rule="evenodd" fill="rgb(100%, 100%, 100%)" fill-opacity="1" d="M 160.136719 71.035156 C 180.265625 67.59375 218.9375 76.070312 218.140625 83.75 C 217.347656 91.429688 177.089844 98.316406 157.753906 94.078125 C 138.417969 89.839844 140.007812 74.480469 160.136719 71.035156 Z M 160.136719 71.035156 "/>
<path fill-rule="evenodd" fill="rgb(100%, 100%, 100%)" fill-opacity="1" d="M 144.246094 108.117188 C 135.242188 125.332031 95.511719 140.695312 80.414062 137.78125 C 65.316406 134.867188 74.851562 113.679688 83.859375 96.464844 C 92.863281 79.246094 101.339844 66.003906 116.4375 68.917969 C 131.53125 71.832031 153.25 90.902344 144.246094 108.117188 Z M 144.246094 108.117188 "/>
<path fill-rule="evenodd" fill="rgb(100%, 100%, 100%)" fill-opacity="1" d="M 179.472656 66.003906 C 175.5 50.644531 136.300781 24.6875 121.203125 20.976562 C 106.105469 17.269531 115.109375 35.808594 119.082031 51.171875 C 123.054688 66.535156 121.996094 78.71875 137.09375 82.425781 C 152.191406 86.132812 183.445312 81.367188 179.472656 66.003906 Z M 179.472656 66.003906 "/>
<path fill-rule="evenodd" fill="rgb(100%, 100%, 100%)" fill-opacity="1" d="M 149.277344 61.238281 C 172.320312 58.058594 215.757812 98.316406 214.433594 121.625 C 213.109375 144.933594 167.023438 151.289062 145.304688 131.160156 C 123.585938 111.03125 126.234375 64.414062 149.277344 61.238281 Z M 149.277344 61.238281 "/>
<path fill-rule="evenodd" fill="rgb(100%, 100%, 100%)" fill-opacity="1" d="M 216.023438 28.128906 C 230.0625 38.457031 248.601562 70.242188 244.363281 92.488281 C 240.125 114.738281 213.109375 127.453125 199.070312 117.121094 C 185.035156 106.792969 183.976562 73.421875 188.210938 51.171875 C 192.449219 28.921875 201.984375 17.800781 216.023438 28.128906 Z M 216.023438 28.128906 "/>
<path fill-rule="evenodd" fill="rgb(100%, 100%, 100%)" fill-opacity="1" d="M 92.066406 15.414062 C 105.046875 22.566406 109.8125 43.226562 101.601562 57.261719 C 93.394531 71.300781 72.203125 78.71875 59.226562 71.566406 C 46.246094 64.414062 41.480469 42.695312 49.691406 28.660156 C 57.902344 14.621094 79.089844 8.265625 92.066406 15.414062 Z M 92.066406 15.414062 "/>
<path fill-rule="evenodd" fill="rgb(100%, 100%, 100%)" fill-opacity="1" d="M 84.121094 90.105469 C 80.679688 81.894531 61.078125 71.300781 40.421875 78.1875 C 19.761719 85.074219 -1.957031 109.441406 1.484375 117.652344 C 4.929688 125.863281 33.535156 117.917969 54.191406 111.03125 C 74.851562 104.144531 87.566406 98.316406 84.121094 90.105469 Z M 84.121094 90.105469 "/>
<path fill-rule="evenodd" fill="rgb(100%, 100%, 100%)" fill-opacity="1" d="M 183.976562 3.230469 C 201.984375 -1.800781 230.589844 0.847656 243.304688 10.914062 C 256.015625 20.976562 252.839844 38.457031 234.828125 43.492188 C 216.816406 48.523438 183.976562 41.109375 171.261719 31.042969 C 158.546875 20.976562 165.964844 8.265625 183.976562 3.230469 Z M 183.976562 3.230469 "/>
<path fill-rule="evenodd" fill="rgb(100%, 100%, 100%)" fill-opacity="1" d="M 221.375 62.972656 C 230.988281 81.894531 246.878906 111.03125 223.042969 126.921875 C 199.203125 142.8125 135.636719 145.460938 100.644531 125.625 C 65.65625 105.785156 59.238281 63.460938 52.78125 42.273438 C 46.328125 21.085938 39.832031 21.03125 37.246094 33.585938 C 34.660156 46.140625 35.984375 71.300781 33.84375 77.132812 C 31.707031 82.964844 26.101562 69.464844 21.925781 55.609375 C 17.75 41.753906 15 27.539062 21.222656 17.8125 C 27.449219 8.085938 42.648438 2.851562 74.789062 5.070312 C 106.933594 7.289062 156.015625 16.960938 180.558594 21.796875 C 205.101562 26.632812 205.101562 26.632812 206.765625 30.988281 C 208.433594 35.34375 211.765625 44.050781 221.375 62.972656 Z M 221.375 62.972656 "/>
<path fill="none" stroke-width="0.8" stroke-linecap="butt" stroke-linejoin="round" stroke="rgb(0%, 39.199829%, 0%)" stroke-opacity="1" stroke-miterlimit="10" d="M 304.66616 237.601372 C 324.932349 241.066249 363.867972 232.531875 363.065663 224.799811 C 362.267286 217.067746 321.734908 210.134059 302.267096 214.401246 C 282.799284 218.668433 284.399971 234.132562 304.66616 237.601372 Z M 304.66616 237.601372 " transform="matrix(0.993226, 0, 0, -0.993226, -142.465641, 307.027023)"/>
<path fill="none" stroke-width="0.8" stroke-linecap="butt" stroke-linejoin="round" stroke="rgb(12.5%, 12.5%, 12.5%)" stroke-opacity="1" stroke-miterlimit="10" d="M 288.667158 200.266435 C 279.601844 182.934183 239.600406 167.466121 224.399781 170.400058 C 209.199156 173.333995 218.799344 194.665997 227.868591 211.998249 C 236.933906 229.334434 245.46828 242.666936 260.668905 239.732999 C 275.865597 236.799062 297.732472 217.598687 288.667158 200.266435 Z M 288.667158 200.266435 " transform="matrix(0.993226, 0, 0, -0.993226, -142.465641, 307.027023)"/>
<path fill="none" stroke-width="0.8" stroke-linecap="butt" stroke-linejoin="round" stroke="rgb(0%, 0%, 54.499817%)" stroke-opacity="1" stroke-miterlimit="10" d="M 324.133972 242.666936 C 320.134221 258.131064 280.667657 284.265127 265.467032 288.001374 C 250.266407 291.733688 259.331722 273.068185 263.331472 257.600124 C 267.331223 242.132063 266.265409 229.865375 281.466034 226.133061 C 296.666659 222.400747 328.133722 227.198874 324.133972 242.666936 Z M 324.133972 242.666936 " transform="matrix(0.993226, 0, 0, -0.993226, -142.465641, 307.027023)"/>
<path fill="none" stroke-width="0.8" stroke-linecap="butt" stroke-linejoin="round" stroke="rgb(54.499817%, 0%, 54.499817%)" stroke-opacity="1" stroke-miterlimit="10" d="M 293.732722 247.465063 C 316.932848 250.666437 360.666599 210.134059 359.333349 186.666497 C 358.000099 163.198934 311.599847 156.80012 289.732972 177.066309 C 267.866096 197.332498 270.532596 244.267622 293.732722 247.465063 Z M 293.732722 247.465063 " transform="matrix(0.993226, 0, 0, -0.993226, -142.465641, 307.027023)"/>
<path fill="none" stroke-width="0.8" stroke-linecap="butt" stroke-linejoin="round" stroke="rgb(80.39856%, 6.298828%, 46.299744%)" stroke-opacity="1" stroke-miterlimit="10" d="M 360.934036 280.80025 C 375.068847 270.401685 393.734349 238.399749 389.467162 216.001933 C 385.199975 193.600184 358.000099 180.798623 343.865287 191.20112 C 329.734409 201.599685 328.668595 235.198375 332.93185 257.600124 C 337.199037 280.001873 346.799224 291.198814 360.934036 280.80025 Z M 360.934036 280.80025 " transform="matrix(0.993226, 0, 0, -0.993226, -142.465641, 307.027023)"/>
<path fill="none" stroke-width="0.8" stroke-linecap="butt" stroke-linejoin="round" stroke="rgb(54.499817%, 49.398804%, 39.99939%)" stroke-opacity="1" stroke-miterlimit="10" d="M 236.131596 293.601811 C 249.200594 286.400687 253.998721 265.599625 245.731784 251.468746 C 237.468779 237.333935 216.132844 229.865375 203.067779 237.066499 C 189.998781 244.267622 185.200654 266.134498 193.467591 280.265377 C 201.734529 294.400188 223.066531 300.799002 236.131596 293.601811 Z M 236.131596 293.601811 " transform="matrix(0.993226, 0, 0, -0.993226, -142.465641, 307.027023)"/>
<g clip-path="url(#clip-0)">
<path fill="none" stroke-width="0.8" stroke-linecap="butt" stroke-linejoin="round" stroke="rgb(0%, 39.199829%, 0%)" stroke-opacity="1" stroke-miterlimit="10" d="M 228.132095 218.400996 C 224.667218 226.667934 204.931969 237.333935 184.13484 230.400248 C 163.333778 223.46656 141.466902 198.933185 144.93178 190.666247 C 148.40059 182.399309 177.201153 190.39881 197.998282 197.332498 C 218.799344 204.266185 231.600905 210.134059 228.132095 218.400996 Z M 228.132095 218.400996 " transform="matrix(0.993226, 0, 0, -0.993226, -142.465641, 307.027023)"/>
</g>
<g clip-path="url(#clip-1)">
<path fill="none" stroke-width="0.8" stroke-linecap="butt" stroke-linejoin="round" stroke="rgb(54.499817%, 21.199036%, 14.898682%)" stroke-opacity="1" stroke-miterlimit="10" d="M 328.668595 305.868499 C 346.799224 310.934063 375.599787 308.267563 388.401348 298.132502 C 401.198977 288.001374 398.001536 270.401685 379.866974 265.332188 C 361.732413 260.266624 328.668595 267.731252 315.867034 277.866313 C 303.065473 288.001374 310.534034 300.799002 328.668595 305.868499 Z M 328.668595 305.868499 " transform="matrix(0.993226, 0, 0, -0.993226, -142.465641, 307.027023)"/>
</g>
<path fill="none" stroke-width="0.8" stroke-linecap="butt" stroke-linejoin="round" stroke="rgb(0%, 0%, 100%)" stroke-opacity="1" stroke-miterlimit="10" d="M 366.322097 245.718859 C 376.000942 226.667934 391.999944 197.332498 368.001441 181.333496 C 343.999006 165.334494 279.999066 162.667994 244.768225 182.639216 C 209.541318 202.614371 203.079578 245.227248 196.578508 266.55925 C 190.081372 287.891253 183.540974 287.946313 180.9374 275.306001 C 178.333826 262.665688 179.667076 237.333935 177.511851 231.462128 C 175.36056 225.590322 169.716861 239.182394 165.5126 253.132359 C 161.308339 267.082325 158.539584 281.394116 164.804679 291.187016 C 171.073708 300.979915 186.376588 306.249989 218.736418 304.016107 C 251.10018 301.782225 300.516959 292.044386 325.227315 287.175467 C 349.937672 282.306547 349.937672 282.306547 351.613083 277.921373 C 353.292428 273.5362 356.647184 264.769785 366.322097 245.718859 Z M 366.322097 245.718859 " transform="matrix(0.993226, 0, 0, -0.993226, -142.465641, 307.027023)"/>
<path fill-rule="evenodd" fill="rgb(54.499817%, 0%, 0%)" fill-opacity="0.1" stroke-width="0.8" stroke-linecap="butt" stroke-linejoin="round" stroke="rgb(0%, 39.199829%, 0%)" stroke-opacity="0.1" stroke-miterlimit="10" d="M 304.66616 237.601372 C 324.932349 241.066249 363.867972 232.531875 363.065663 224.799811 C 362.267286 217.067746 321.734908 210.134059 302.267096 214.401246 C 282.799284 218.668433 284.399971 234.132562 304.66616 237.601372 Z M 304.66616 237.601372 " transform="matrix(0.993226, 0, 0, -0.993226, -142.465641, 307.027023)"/>
<path fill-rule="evenodd" fill="rgb(54.499817%, 0%, 0%)" fill-opacity="0.1" stroke-width="0.8" stroke-linecap="butt" stroke-linejoin="round" stroke="rgb(12.5%, 12.5%, 12.5%)" stroke-opacity="0.1" stroke-miterlimit="10" d="M 288.667158 200.266435 C 279.601844 182.934183 239.600406 167.466121 224.399781 170.400058 C 209.199156 173.333995 218.799344 194.665997 227.868591 211.998249 C 236.933906 229.334434 245.46828 242.666936 260.668905 239.732999 C 275.865597 236.799062 297.732472 217.598687 288.667158 200.266435 Z M 288.667158 200.266435 " transform="matrix(0.993226, 0, 0, -0.993226, -142.465641, 307.027023)"/>
<path fill-rule="evenodd" fill="rgb(0%, 39.199829%, 0%)" fill-opacity="0.1" stroke-width="0.8" stroke-linecap="butt" stroke-linejoin="round" stroke="rgb(0%, 0%, 54.499817%)" stroke-opacity="0.1" stroke-miterlimit="10" d="M 324.133972 242.666936 C 320.134221 258.131064 280.667657 284.265127 265.467032 288.001374 C 250.266407 291.733688 259.331722 273.068185 263.331472 257.600124 C 267.331223 242.132063 266.265409 229.865375 281.466034 226.133061 C 296.666659 222.400747 328.133722 227.198874 324.133972 242.666936 Z M 324.133972 242.666936 " transform="matrix(0.993226, 0, 0, -0.993226, -142.465641, 307.027023)"/>
<path fill-rule="evenodd" fill="rgb(54.499817%, 0%, 0%)" fill-opacity="0.1" stroke-width="0.8" stroke-linecap="butt" stroke-linejoin="round" stroke="rgb(54.499817%, 0%, 54.499817%)" stroke-opacity="0.1" stroke-miterlimit="10" d="M 293.732722 247.465063 C 316.932848 250.666437 360.666599 210.134059 359.333349 186.666497 C 358.000099 163.198934 311.599847 156.80012 289.732972 177.066309 C 267.866096 197.332498 270.532596 244.267622 293.732722 247.465063 Z M 293.732722 247.465063 " transform="matrix(0.993226, 0, 0, -0.993226, -142.465641, 307.027023)"/>
<path fill-rule="evenodd" fill="rgb(59.999084%, 19.599915%, 79.998779%)" fill-opacity="0.1" stroke-width="0.8" stroke-linecap="butt" stroke-linejoin="round" stroke="rgb(80.39856%, 6.298828%, 46.299744%)" stroke-opacity="0.1" stroke-miterlimit="10" d="M 360.934036 280.80025 C 375.068847 270.401685 393.734349 238.399749 389.467162 216.001933 C 385.199975 193.600184 358.000099 180.798623 343.865287 191.20112 C 329.734409 201.599685 328.668595 235.198375 332.93185 257.600124 C 337.199037 280.001873 346.799224 291.198814 360.934036 280.80025 Z M 360.934036 280.80025 " transform="matrix(0.993226, 0, 0, -0.993226, -142.465641, 307.027023)"/>
<path fill-rule="evenodd" fill="rgb(54.499817%, 0%, 0%)" fill-opacity="0.1" stroke-width="0.8" stroke-linecap="butt" stroke-linejoin="round" stroke="rgb(54.499817%, 49.398804%, 39.99939%)" stroke-opacity="0.1" stroke-miterlimit="10" d="M 236.131596 293.601811 C 249.200594 286.400687 253.998721 265.599625 245.731784 251.468746 C 237.468779 237.333935 216.132844 229.865375 203.067779 237.066499 C 189.998781 244.267622 185.200654 266.134498 193.467591 280.265377 C 201.734529 294.400188 223.066531 300.799002 236.131596 293.601811 Z M 236.131596 293.601811 " transform="matrix(0.993226, 0, 0, -0.993226, -142.465641, 307.027023)"/>
<path fill-rule="evenodd" fill="rgb(54.499817%, 0%, 0%)" fill-opacity="0.1" d="M 84.121094 90.105469 C 80.679688 81.894531 61.078125 71.300781 40.421875 78.1875 C 19.761719 85.074219 -1.957031 109.441406 1.484375 117.652344 C 4.929688 125.863281 33.535156 117.917969 54.191406 111.03125 C 74.851562 104.144531 87.566406 98.316406 84.121094 90.105469 Z M 84.121094 90.105469 "/>
<g clip-path="url(#clip-2)">
<path fill="none" stroke-width="0.8" stroke-linecap="butt" stroke-linejoin="round" stroke="rgb(0%, 39.199829%, 0%)" stroke-opacity="0.1" stroke-miterlimit="10" d="M 228.132095 218.400996 C 224.667218 226.667934 204.931969 237.333935 184.13484 230.400248 C 163.333778 223.46656 141.466902 198.933185 144.93178 190.666247 C 148.40059 182.399309 177.201153 190.39881 197.998282 197.332498 C 218.799344 204.266185 231.600905 210.134059 228.132095 218.400996 Z M 228.132095 218.400996 " transform="matrix(0.993226, 0, 0, -0.993226, -142.465641, 307.027023)"/>
</g>
<path fill-rule="evenodd" fill="rgb(100%, 54.899597%, 0%)" fill-opacity="0.1" d="M 183.976562 3.230469 C 201.984375 -1.800781 230.589844 0.847656 243.304688 10.914062 C 256.015625 20.976562 252.839844 38.457031 234.828125 43.492188 C 216.816406 48.523438 183.976562 41.109375 171.261719 31.042969 C 158.546875 20.976562 165.964844 8.265625 183.976562 3.230469 Z M 183.976562 3.230469 "/>
<g clip-path="url(#clip-3)">
<path fill="none" stroke-width="0.8" stroke-linecap="butt" stroke-linejoin="round" stroke="rgb(54.499817%, 21.199036%, 14.898682%)" stroke-opacity="0.1" stroke-miterlimit="10" d="M 328.668595 305.868499 C 346.799224 310.934063 375.599787 308.267563 388.401348 298.132502 C 401.198977 288.001374 398.001536 270.401685 379.866974 265.332188 C 361.732413 260.266624 328.668595 267.731252 315.867034 277.866313 C 303.065473 288.001374 310.534034 300.799002 328.668595 305.868499 Z M 328.668595 305.868499 " transform="matrix(0.993226, 0, 0, -0.993226, -142.465641, 307.027023)"/>
</g>
<path fill-rule="evenodd" fill="rgb(0%, 0%, 100%)" fill-opacity="0.1" stroke-width="0.8" stroke-linecap="butt" stroke-linejoin="round" stroke="rgb(69.799805%, 13.299561%, 13.299561%)" stroke-opacity="0.1" stroke-miterlimit="10" d="M 366.322097 245.718859 C 376.000942 226.667934 391.999944 197.332498 368.001441 181.333496 C 343.999006 165.334494 279.999066 162.667994 244.768225 182.639216 C 209.541318 202.614371 203.079578 245.227248 196.578508 266.55925 C 190.081372 287.891253 183.540974 287.946313 180.9374 275.306001 C 178.333826 262.665688 179.667076 237.333935 177.511851 231.462128 C 175.36056 225.590322 169.716861 239.182394 165.5126 253.132359 C 161.308339 267.082325 158.539584 281.394116 164.804679 291.187016 C 171.073708 300.979915 186.376588 306.249989 218.736418 304.016107 C 251.10018 301.782225 300.516959 292.044386 325.227315 287.175467 C 349.937672 282.306547 349.937672 282.306547 351.613083 277.921373 C 353.292428 273.5362 356.647184 264.769785 366.322097 245.718859 Z M 366.322097 245.718859 " transform="matrix(0.993226, 0, 0, -0.993226, -142.465641, 307.027023)"/>
</svg>
