<?xml version="1.0" encoding="UTF-8"?>
<svg xmlns="http://www.w3.org/2000/svg" xmlns:xlink="http://www.w3.org/1999/xlink" width="253.137" height="145.011" viewBox="0 0 253.137 145.011">
<defs>
<clipPath id="clip-0">
<path clip-rule="nonzero" d="M 0.429688 75 L 86 75 L 86 122 L 0.429688 122 Z M 0.429688 75 "/>
</clipPath>
<clipPath id="clip-1">
<path clip-rule="nonzero" d="M 164 0 L 251.851562 0 L 251.851562 46 L 164 46 Z M 164 0 "/>
</clipPath>
<clipPath id="clip-2">
<path clip-rule="nonzero" d="M 0.429688 75 L 86 75 L 86 122 L 0.429688 122 Z M 0.429688 75 "/>
</clipPath>
<clipPath id="clip-3">
<path clip-rule="nonzero" d="M 164 0 L 251.851562 0 L 251.851562 46 L 164 46 Z M 164 0 "/>
</clipPath>
</defs>
<path fill-rule="evenodd" fill="rgb(100%, 100%, 100%)" fill-opacity="1" d="M 160.136719 71.035156 C 180.265625 67.59375 218.9375 76.070312 218.140625 83.75 C 217.347656 91.429688 177.089844 98.316406 157.753906 94.078125 C 138.417969 89.839844 140.007812 74.480469 160.136719 71.035156 Z M 160.136719 71.035156 "/>
<path fill-rule="evenodd" fill="rgb(100%, 100%, 100%)" fill-opacity="1" d="M 144.246094 108.117188 C 135.242188 125.332031 95.511719 140.695312 80.414062 137.78125 C 65.316406 134.867188 74.851562 113.679688 83.859375 96.464844 C 92.863281 79.246094 101.339844 66.003906 116.4375 68.917969 C 131.53125 71.832031 153.25 90.902344 144.246094 108.117188 Z M 144.246094 108.117188 "/>
<path fill-rule="evenodd" fill="rgb(100%, 100%, 100%)" fill-opacity="1" d="M 179.472656 66.003906 C 175.5 50.644531 136.300781 24.6875 121.203125 20.976562 C 106.105469 17.269531 115.109375 35.808594 119.082031 51.171875 C 123.054688 66.535156 121.996094 78.71875 137.09375 82.425781 C 152.191406 86.132812 183.445312 81.367188 179.472656 66.003906 Z M 179.472656 66.003906 "/>
<path fill-rule="evenodd" fill="rgb(100%, 100%, 100%)" fill-opacity="1" d="M 149.277344 61.238281 C 172.320312 58.058594 215.757812 98.316406 214.433594 121.625 C 213.109375 144.933594 167.023438 151.289062 145.304688 131.160156 C 123.585938 111.03125 126.234375 64.414062 149.277344 61.238281 Z M 149.277344 61.238281 "/>
<path fill-rule="evenodd" fill="rgb(100%, 100%, 100%)" fill-opacity="1" d="M 216.023438 28.128906 C 230.0625 38.457031 248.601562 70.242188 244.363281 92.488281 C 240.125 114.738281 213.109375 127.453125 199.070312 117.121094 C 185.035156 106.792969 183.976562 73.421875 188.210938 51.171875 C 192.449219 28.921875 201.984375 17.800781 216.023438 28.128906 Z M 216.023438 28.128906 "/>
<path fill-rule="evenodd" fill="rgb(100%, 100%, 100%)" fill-opacity="1" d="M 92.066406 15.414062 C 105.046875 22.566406 109.8125 43.226562 101.601562 57.261719 C 93.394531 71.300781 72.203125 78.71875 59.226562 71.566406 C 46.246094 64.414062 41.480469 42.695312 49.691406 28.660156 C 57.902344 14.621094 79.089844 8.265625 92.066406 15.414062 Z M 92.066406 15.414062 "/>
<path fill-rule="evenodd" fill="rgb(100%, 100%, 100%)" fill-opacity="1" d="M 84.121094 90.105469 C 80.679688 81.894531 61.078125 71.300781 40.421875 78.1875 C 19.761719 85.074219 -1.957031 109.441406 1.484375 117.652344 C 4.929688 125.863281 33.535156 117.917969 54.191406 111.03125 C 74.851562 104.144531 87.566406 98.316406 84.121094 90.105469 Z M 84.121094 90.105469 "/>
<path fill-rule="evenodd" fill="rgb(100%, 100%, 100%)" fill-opacity="1" d="M 183.976562 3.230469 C 201.984375 -1.800781 230.589844 0.847656 243.304688 10.914062 C 256.015625 20.976562 252.839844 38.457031 234.828125 43.492188 C 216.816406 48.523438 183.976562 41.109375 171.261719 31.042969 C 158.546875 20.976562 165.964844 8.265625 183.976562 3.230469 Z M 183.976562 3.230469 "/>
<path fill-rule="evenodd" fill="rgb(100%, 100%, 100%)" fill-opacity="1" d="M 221.375 62.972656 C 230.988281 81.894531 246.878906 111.03125 223.042969 126.921875 C 199.203125 142.8125 135.636719 145.460938 100.644531 125.625 C 65.65625 105.785156 59.238281 63.460938 52.78125 42.273438 C 46.328125 21.085938 39.832031 21.03125 37.246094 33.585938 C 34.660156 46.140625 35.984375 71.300781 33.84375 77.132812 C 31.707031 82.964844 26.101562 69.464844 21.925781 55.609375 C 17.75 41.753906 15 27.539062 21.222656 17.8125 C 27.449219 8.085938 42.648438 2.851562 74.789062 5.070312 C 106.933594 7.289062 156.015625 16.960938 180.558594 21.796875 C 205.101562 26.632812 205.101562 26.632812 206.765625 30.988281 C 208.433594 35.34375 211.765625 44.050781 221.375 62.972656 Z M 221.375 62.972656 "/>
<path fill="none" stroke-width="0.8" stroke-linecap="butt" stroke-linejoin="round" stroke="rgb(0%, 39.199829%, 0%)" stroke-opacity="1" stroke-miterlimit="10" d="M 304.66616 237.601372 C 324.932349 241.066249 363.867972 232.531875 363.065663 224.799811 C 362.267286 217.067746 321.734908 210.134059 302.267096 214.401246 C 282.799284 218.668433 284.399971 234.132562 304.66616 237.601372 Z M 304.66616 237.601372 " transform="matrix(0.993226, 0, 0, -0.993226, -142.465641, 307.027023)"/>
<path fill="none" stroke-width="0.8" stroke-linecap="butt" stroke-linejoin="round" stroke="rgb(12.5%, 12.5%, 12.5%)" stroke-opacity="1" stroke-miterlimit="10" d="M 288.667158 200.266435 C 279.601844 182.934183 239.600406 167.466121 224.399781 170.400058 C 209.199156 173.333995 218.799344 194.665997 227.868591 211.998249 C 236.933906 229.334434 245.46828 242.666936 260.668905 239.732999 C 275.865597 236.799062 297.732472 217.598687 288.667158 200.266435 Z M 288.667158 200.266435 " transform="matrix(0.993226, 0, 0, -0.993226, -142.465641, 307.027023)"/>
<path fill="none" stroke-width="0.8" stroke-linecap="butt" stroke-linejoin="round" stroke="rgb(0%, 0%, 54.499817%)" stroke-opacity="1" stroke-miterlimit="10" d="M 324.133972 242.666936 C 320.134221 258.131064 280.667657 284.265127 265.467032 288.001374 C 250.266407 291.733688 259.331722 273.068185 263.331472 257.600124 C 267.331223 242.132063 266.265409 229.865375 281.466034 226.133061 C 296.666659 222.400747 328.133722 227.198874 324.133972 242.666936 Z M 324.133972 242.666936 " transform="matrix(0.993226, 0, 0, -0.993226, -142.465641, 307.027023)"/>
<path fill="none" stroke-width="0.8" stroke-linecap="butt" stroke-linejoin="round" stroke="rgb(54.499817%, 0%, 54.499817%)" stroke-opacity="1" stroke-miterlimit="10" d="M 293.732722 247.465063 C 316.932848 250.666437 360.666599 210.134059 359.333349 186.666497 C 358.000099 163.198934 311.599847 156.80012 289.732972 177.066309 C 267.866096 197.332498 270.532596 244.267622 293.732722 247.465063 Z M 293.732722 247.465063 " transform="matrix(0.993226, 0, 0, -0.993226, -142.465641, 307.027023)"/>
<path fill="none" stroke-width="0.8" stroke-linecap="butt" stroke-linejoin="round" stroke="rgb(80.39856%, 6.298828%, 46.299744%)" stroke-opacity="1" stroke-miterlimit="10" d="M 360.934036 280.80025 C 375.068847 270.401685 393.734349 238.399749 389.467162 216.001933 C 385.199975 193.600184 358.000099 180.798623 343.865287 191.20112 C 329.734409 201.599685 328.668595 235.198375 332.93185 257.600124 C 337.199037 280.001873 346.799224 291.198814 360.934036 280.80025 Z M 360.934036 280.80025 " transform="matrix(0.993226, 0, 0, -0.993226, -142.465641, 307.027023)"/>
<path fill="none" stroke-width="0.8" stroke-linecap="butt" stroke-linejoin="round" stroke="rgb(54.499817%, 49.398804%, 39.99939%)" stroke-opacity="1" stroke-miterlimit="10" d="M 236.131596 293.601811 C 249.200594 286.400687 253.998721 265.599625 245.731784 251.468746 C 237.468779 237.333935 216.132844 229.865375 203.067779 237.066499 C 189.998781 244.267622 185.200654 266.134498 193.467591 280.265377 C 201.734529 294.400188 223.066531 300.799002 236.131596 293.601811 Z M 236.131596 293.601811 " transform="matrix(0.993226, 0, 0, -0.993226, -142.465641, 307.027023)"/>
<g clip-path="url(#clip-0)">
<path fill="none" stroke-width="0.8" stroke-linecap="butt" stroke-linejoin="round" stroke="rgb(0%, 39.199829%, 0%)" stroke-opacity="1" stroke-miterlimit="10" d="M 228.132095 218.400996 C 224.667218 226.667934 204.931969 237.333935 184.13484 230.400248 C 163.333778 223.46656 141.466902 198.933185 144.93178 190.666247 C 148.40059 182.399309 177.201153 190.39881 197.998282 197.332498 C 218.799344 204.266185 231.600905 210.134059 228.132095 218.400996 Z M 228.132095 218.400996 " transform="matrix(0.993226, 0, 0, -0.993226, -142.465641, 307.027023)"/>
</g>
<g clip-path="url(#clip-1)">
<path fill="none" stroke-width="0.8" stroke-linecap="butt" stroke-linejoin="round" stroke="rgb(54.499817%, 21.199036%, 14.898682%)" stroke-opacity="1" stroke-miterlimit="10" d="M 328.668595 305.868499 C 346.799224 310.934063 375.599787 308.267563 388.401348 298.132502 C 401.198977 288.001374 398.001536 270.401685 379.866974 265.332188 C 361.732413 260.266624 328.668595 267.731252 315.867034 277.866313 C 303.065473 288.001374 310.534034 300.799002 328.668595 305.868499 Z M 328.668595 305.868499 " transform="matrix(0.993226, 0, 0, -0.993226, -142.465641, 307.027023)"/>
</g>
<path fill="none" stroke-width="0.8" stroke-linecap="butt" stroke-linejoin="round" stroke="rgb(0%, 0%, 100%)" stroke-opacity="1" stroke-miterlimit="10" d="M 366.322097 245.718859 C 376.000942 226.667934 391.999944 197.332498 368.001441 181.333496 C 343.999006 165.334494 279.999066 162.667994 244.768225 182.639216 C 209.541318 202.614371 203.079578 245.227248 196.578508 266.55925 C 190.081372 287.891253 183.540974 287.946313 180.9374 275.306001 C 178.333826 262.665688 179.667076 237.333935 177.511851 231.462128 C 175.36056 225.590322 169.716861 239.182394 165.5126 253.132359 C 161.308339 267.082325 158.539584 281.394116 164.804679 291.187016 C 171.073708 300.979915 186.376588 306.249989 218.736418 304.016107 C 251.10018 301.782225 300.516959 292.044386 325.227315 287.175467 C 349.937672 282.306547 349.937672 282.306547 351.613083 277.921373 C 353.292428 273.5362 356.647184 264.769785 366.322097 245.718859 Z M 366.322097 245.718859 " transform="matrix(0.993226, 0, 0, -0.993226, -142.465641, 307.027023)"/>
<path fill-rule="evenodd" fill="rgb(54.499817%, 0%, 0%)" fill-opacity="0.1" stroke-width="0.8" stroke-linecap="butt" stroke-linejoin="round" stroke="rgb(0%, 39.199829%, 0%)" stroke-opacity="0.1" stroke-miterlimit="10" d="M 304.66616 237.601372 C 324.932349 241.066249 363.867972 232.531875 363.065663 224.799811 C 362.267286 217.067746 321.734908 210.134059 302.267096 214.401246 C 282.799284 218.668433 284.399971 234.132562 304.66616 237.601372 Z M 304.66616 237.601372 " transform="matrix(0.993226, 0, 0, -0.993226, -142.465641, 307.027023)"/>
<path fill-rule="evenodd" fill="rgb(54.499817%, 0%, 0%)" fill-opacity="0.1" stroke-width="0.8" stroke-linecap="butt" stroke-linejoin="round" stroke="rgb(12.5%, 12.5%, 12.5%)" stroke-opacity="0.1" stroke-miterlimit="10" d="M 288.667158 200.266435 C 279.601844 182.934183 239.600406 167.466121 224.399781 170.400058 C 209.199156 173.333995 218.799344 194.665997 227.868591 211.998249 C 236.933906 229.334434 245.46828 242.666936 260.668905 239.732999 C 275.865597 236.799062 297.732472 217.598687 288.667158 200.266435 Z M 288.667158 200.266435 " transform="matrix(0.993226, 0, 0, -0.993226, -142.465641, 307.027023)"/>
<path fill-rule="evenodd" fill="rgb(0%, 39.199829%, 0%)" fill-opacity="0.1" stroke-width="0.8" stroke-linecap="butt" stroke-linejoin="round" stroke="rgb(0%, 0%, 54.499817%)" stroke-opacity="0.1" stroke-miterlimit="10" d="M 324.133972 242.666936 C 320.134221 258.131064 280.667657 284.265127 265.467032 288.001374 C 250.266407 291.733688 259.331722 273.068185 263.331472 257.600124 C 267.331223 242.132063 266.265409 229.865375 281.466034 226.133061 C 296.666659 222.400747 328.133722 227.198874 324.133972 242.666936 Z M 324.133972 242.666936 " transform="matrix(0.993226, 0, 0, -0.993226, -142.465641, 307.027023)"/>
<path fill-rule="evenodd" fill="rgb(54.499817%, 0%, 0%)" fill-opacity="0.1" stroke-width="0.8" stroke-linecap="butt" stroke-linejoin="round" stroke="rgb(54.499817%, 0%, 54.499817%)" stroke-opacity="0.1" stroke-miterlimit="10" d="M 293.732722 247.465063 C 316.932848 250.666437 360.666599 210.134059 359.333349 186.666497 C 358.000099 163.198934 311.599847 156.80012 289.732972 177.066309 C 267.866096 197.332498 270.532596 244.267622 293.732722 247.465063 Z M 293.732722 247.465063 " transform="matrix(0.993226, 0, 0, -0.993226, -142.465641, 307.027023)"/>
<path fill-rule="evenodd" fill="rgb(59.999084%, 19.599915%, 79.998779%)" fill-opacity="0.1" stroke-width="0.8" stroke-linecap="butt" stroke-linejoin="round" stroke="rgb(80.39856%, 6.298828%, 46.299744%)" stroke-opacity="0.1" stroke-miterlimit="10" d="M 360.934036 280.80025 C 375.068847 270.401685 393.734349 238.399749 389.467162 216.001933 C 385.199975 193.600184 358.000099 180.798623 343.865287 191.20112 C 329.734409 201.599685 328.668595 235.198375 332.93185 257.600124 C 337.199037 280.001873 346.799224 291.198814 360.934036 280.80025 Z M 360.934036 280.80025 " transform="matrix(0.993226, 0, 0, -0.993226, -142.465641, 307.027023)"/>
<path fill-rule="evenodd" fill="rgb(54.499817%, 0%, 0%)" fill-opacity="0.1" stroke-width="0.8" stroke-linecap="butt" stroke-linejoin="round" stroke="rgb(54.499817%, 49.398804%, 39.99939%)" stroke-opacity="0.1" stroke-miterlimit="10" d="M 236.131596 293.601811 C 249.200594 286.400687 253.998721 265.599625 245.731784 251.468746 C 237.468779 237.333935 216.132844 229.865375 203.067779 237.066499 C 189.998781 244.267622 185.200654 266.134498 193.467591 280.265377 C 201.734529 294.400188 223.066531 300.799002 236.131596 293.601811 Z M 236.131596 293.601811 " transform="matrix(0.993226, 0, 0, -0.993226, -142.465641, 307.027023)"/>
<path fill-rule="evenodd" fill="rgb(54.499817%, 0%, 0%)" fill-opacity="0.1" d="M 84.121094 90.105469 C 80.679688 81.894531 61.078125 71.300781 40.421875 78.1875 C 19.761719 85.074219 -1.957031 109.441406 1.484375 117.652344 C 4.929688 125.863281 33.535156 117.917969 54.191406 111.03125 C 74.851562 104.144531 87.566406 98.316406 84.121094 90.105469 Z M 84.121094 90.105469 "/>
<g clip-path="url(#clip-2)">
<path fill="none" stroke-width="0.8" stroke-linecap="butt" stroke-linejoin="round" stroke="rgb(0%, 39.199829%, 0%)" stroke-opacity="0.1" stroke-miterlimit="10" d="M 228.132095 218.400996 C 224.667218 226.667934 204.931969 237.333935 184.13484 230.400248 C 163.333778 223.46656 141.466902 198.933185 144.93178 190.666247 C 148.40059 182.399309 177.201153 190.39881 197.998282 197.332498 C 218.799344 204.266185 231.600905 210.134059 228.132095 218.400996 Z M 228.132095 218.400996 " transform="matrix(0.993226, 0, 0, -0.993226, -142.465641, 307.027023)"/>
</g>
<path fill-rule="evenodd" fill="rgb(100%, 54.899597%, 0%)" fill-opacity="0.1" d="M 183.976562 3.230469 C 201.984375 -1.800781 230.589844 0.847656 243.304688 10.914062 C 256.015625 20.976562 252.839844 38.457031 234.828125 43.492188 C 216.816406 48.523438 183.976562 41.109375 171.261719 31.042969 C 158.546875 20.976562 165.964844 8.265625 183.976562 3.230469 Z M 183.976562 3.230469 "/>
<g clip-path="url(#clip-3)">
<path fill="none" stroke-width="0.8" stroke-linecap="butt" stroke-linejoin="round" stroke="rgb(54.499817%, 21.199036%, 14.898682%)" stroke-opacity="0.1" stroke-miterlimit="10" d="M 328.668595 305.868499 C 346.799224 310.934063 375.599787 308.267563 388.401348 298.132502 C 401.198977 288.001374 398.001536 270.401685 379.866974 265.332188 C 361.732413 260.266624 328.668595 267.731252 315.867034 277.866313 C 303.065473 288.001374 310.534034 300.799002 328.668595 305.868499 Z M 328.668595 305.868499 " transform="matrix(0.993226, 0, 0, -0.993226, -142.465641, 307.027023)"/>
</g>
<path fill-rule="evenodd" fill="rgb(0%, 0%, 100%)" fill-opacity="0.1" stroke-width="0.8" stroke-linecap="butt" stroke-linejoin="round" stroke="rgb(69.799805%, 13.299561%, 13.299561%)" stroke-opacity="0.1" stroke-miterlimit="10" d="M 366.322097 245.718859 C 376.000942 226.667934 391.999944 197.332498 368.001441 181.333496 C 343.999006 165.334494 279.999066 162.667994 244.768225 182.639216 C 209.541318 202.614371 203.079578 245.227248 196.578508 266.55925 C 190.081372 287.891253 183.540974 287.946313 180.9374 275.306001 C 178.333826 262.665688 179.667076 237.333935 177.511851 231.462128 C 175.36056 225.590322 169.716861 239.182394 165.5126 253.132359 C 161.308339 267.082325 158.539584 281.394116 164.804679 291.187016 C 171.073708 300.979915 186.376588 306.249989 218.736418 304.016107 C 251.10018 301.782225 300.516959 292.044386 325.227315 287.175467 C 349.937672 282.306547 349.937672 282.306547 351.613083 277.921373 C 353.292428 273.5362 356.647184 264.769785 366.322097 245.718859 Z M 366.322097 245.718859 " transform="matrix(0.993226, 0, 0, -0.993226, -142.465641, 307.027023)"/>
<path fill-rule="evenodd" fill="rgb(100%, 100%, 0%)" fill-opacity="1" d="M 117.648438 104.394531 C 117.648438 103.023438 116.535156 101.910156 115.164062 101.910156 C 113.792969 101.910156 112.683594 103.023438 112.683594 104.394531 C 112.683594 105.765625 113.792969 106.878906 115.164062 106.878906 C 116.535156 106.878906 117.648438 105.765625 117.648438 104.394531 "/>
<path fill-rule="evenodd" fill="rgb(0%, 0%, 0%)" fill-opacity="1" d="M 118.144531 104.394531 C 118.144531 102.75 116.8125 101.414062 115.164062 101.414062 C 113.519531 101.414062 112.1875 102.75 112.1875 104.394531 C 112.1875 106.039062 113.519531 107.375 115.164062 107.375 C 116.8125 107.375 118.144531 106.039062 118.144531 104.394531 M 117.152344 104.394531 C 117.152344 103.296875 116.261719 102.410156 115.164062 102.410156 C 114.070312 102.410156 113.179688 103.296875 113.179688 104.394531 C 113.179688 105.492188 114.070312 106.382812 115.164062 106.382812 C 116.261719 106.382812 117.152344 105.492188 117.152344 104.394531 "/>
<path fill-rule="evenodd" fill="rgb(100%, 100%, 0%)" fill-opacity="1" d="M 198.585938 82.527344 C 198.585938 81.15625 197.472656 80.042969 196.101562 80.042969 C 194.730469 80.042969 193.621094 81.15625 193.621094 82.527344 C 193.621094 83.898438 194.730469 85.011719 196.101562 85.011719 C 197.472656 85.011719 198.585938 83.898438 198.585938 82.527344 "/>
<path fill-rule="evenodd" fill="rgb(0%, 39.199829%, 0%)" fill-opacity="1" d="M 199.082031 82.527344 C 199.082031 80.882812 197.746094 79.546875 196.101562 79.546875 C 194.457031 79.546875 193.121094 80.882812 193.121094 82.527344 C 193.121094 84.171875 194.457031 85.507812 196.101562 85.507812 C 197.746094 85.507812 199.082031 84.171875 199.082031 82.527344 M 198.089844 82.527344 C 198.089844 81.429688 197.199219 80.539062 196.101562 80.539062 C 195.003906 80.539062 194.117188 81.429688 194.117188 82.527344 C 194.117188 83.625 195.003906 84.511719 196.101562 84.511719 C 197.199219 84.511719 198.089844 83.625 198.089844 82.527344 "/>
<path fill-rule="evenodd" fill="rgb(100%, 100%, 0%)" fill-opacity="1" d="M 227.171875 73.683594 C 227.171875 72.3125 226.0625 71.199219 224.691406 71.199219 C 223.320312 71.199219 222.207031 72.3125 222.207031 73.683594 C 222.207031 75.054688 223.320312 76.167969 224.691406 76.167969 C 226.0625 76.167969 227.171875 75.054688 227.171875 73.683594 "/>
<path fill-rule="evenodd" fill="rgb(40.79895%, 13.299561%, 54.499817%)" fill-opacity="1" d="M 227.671875 73.683594 C 227.671875 72.039062 226.335938 70.703125 224.691406 70.703125 C 223.046875 70.703125 221.710938 72.039062 221.710938 73.683594 C 221.710938 75.328125 223.046875 76.664062 224.691406 76.664062 C 226.335938 76.664062 227.671875 75.328125 227.671875 73.683594 M 226.675781 73.683594 C 226.675781 72.585938 225.789062 71.695312 224.691406 71.695312 C 223.59375 71.695312 222.703125 72.585938 222.703125 73.683594 C 222.703125 74.78125 223.59375 75.667969 224.691406 75.667969 C 225.789062 75.667969 226.675781 74.78125 226.675781 73.683594 "/>
<path fill-rule="evenodd" fill="rgb(100%, 100%, 0%)" fill-opacity="1" d="M 78.113281 44.191406 C 78.113281 42.820312 77 41.707031 75.628906 41.707031 C 74.257812 41.707031 73.148438 42.820312 73.148438 44.191406 C 73.148438 45.5625 74.257812 46.675781 75.628906 46.675781 C 77 46.675781 78.113281 45.5625 78.113281 44.191406 "/>
<path fill-rule="evenodd" fill="rgb(54.499817%, 49.398804%, 39.99939%)" fill-opacity="1" d="M 78.609375 44.191406 C 78.609375 42.546875 77.277344 41.210938 75.628906 41.210938 C 73.984375 41.210938 72.648438 42.546875 72.648438 44.191406 C 72.648438 45.835938 73.984375 47.171875 75.628906 47.171875 C 77.277344 47.171875 78.609375 45.835938 78.609375 44.191406 M 77.617188 44.191406 C 77.617188 43.09375 76.726562 42.207031 75.628906 42.207031 C 74.535156 42.207031 73.644531 43.09375 73.644531 44.191406 C 73.644531 45.289062 74.535156 46.179688 75.628906 46.179688 C 76.726562 46.179688 77.617188 45.289062 77.617188 44.191406 "/>
<path fill-rule="evenodd" fill="rgb(100%, 100%, 0%)" fill-opacity="1" d="M 207.582031 26.632812 C 207.582031 25.261719 206.472656 24.148438 205.101562 24.148438 C 203.730469 24.148438 202.617188 25.261719 202.617188 26.632812 C 202.617188 28.003906 203.730469 29.117188 205.101562 29.117188 C 206.472656 29.117188 207.582031 28.003906 207.582031 26.632812 "/>
<path fill-rule="evenodd" fill="rgb(54.499817%, 21.199036%, 14.898682%)" fill-opacity="1" d="M 208.082031 26.632812 C 208.082031 24.988281 206.746094 23.652344 205.101562 23.652344 C 203.457031 23.652344 202.121094 24.988281 202.121094 26.632812 C 202.121094 28.277344 203.457031 29.613281 205.101562 29.613281 C 206.746094 29.613281 208.082031 28.277344 208.082031 26.632812 M 207.085938 26.632812 C 207.085938 25.535156 206.199219 24.644531 205.101562 24.644531 C 204.003906 24.644531 203.113281 25.535156 203.113281 26.632812 C 203.113281 27.730469 204.003906 28.617188 205.101562 28.617188 C 206.199219 28.617188 207.085938 27.730469 207.085938 26.632812 "/>
<path fill-rule="evenodd" fill="rgb(100%, 100%, 0%)" fill-opacity="1" d="M 40.960938 98.140625 C 40.960938 96.769531 39.851562 95.660156 38.480469 95.660156 C 37.109375 95.660156 35.996094 96.769531 35.996094 98.140625 C 35.996094 99.511719 37.109375 100.625 38.480469 100.625 C 39.851562 100.625 40.960938 99.511719 40.960938 98.140625 "/>
<path fill-rule="evenodd" fill="rgb(0%, 39.199829%, 0%)" fill-opacity="1" d="M 41.457031 98.140625 C 41.457031 96.496094 40.125 95.160156 38.480469 95.160156 C 36.832031 95.160156 35.5 96.496094 35.5 98.140625 C 35.5 99.789062 36.832031 101.121094 38.480469 101.121094 C 40.125 101.121094 41.457031 99.789062 41.457031 98.140625 M 40.464844 98.140625 C 40.464844 97.042969 39.578125 96.15625 38.480469 96.15625 C 37.382812 96.15625 36.492188 97.042969 36.492188 98.140625 C 36.492188 99.238281 37.382812 100.128906 38.480469 100.128906 C 39.578125 100.128906 40.464844 99.238281 40.464844 98.140625 "/>
<path fill-rule="evenodd" fill="rgb(100%, 100%, 0%)" fill-opacity="1" d="M 140.238281 72.617188 C 140.238281 71.246094 139.125 70.132812 137.753906 70.132812 C 136.382812 70.132812 135.269531 71.246094 135.269531 72.617188 C 135.269531 73.988281 136.382812 75.101562 137.753906 75.101562 C 139.125 75.101562 140.238281 73.988281 140.238281 72.617188 "/>
<path fill-rule="evenodd" fill="rgb(0%, 0%, 100%)" fill-opacity="1" d="M 140.734375 72.617188 C 140.734375 70.972656 139.398438 69.636719 137.753906 69.636719 C 136.109375 69.636719 134.773438 70.972656 134.773438 72.617188 C 134.773438 74.261719 136.109375 75.597656 137.753906 75.597656 C 139.398438 75.597656 140.734375 74.261719 140.734375 72.617188 M 139.742188 72.617188 C 139.742188 71.519531 138.851562 70.628906 137.753906 70.628906 C 136.65625 70.628906 135.769531 71.519531 135.769531 72.617188 C 135.769531 73.714844 136.65625 74.601562 137.753906 74.601562 C 138.851562 74.601562 139.742188 73.714844 139.742188 72.617188 "/>
<path fill-rule="evenodd" fill="rgb(100%, 100%, 0%)" fill-opacity="1" d="M 158.023438 45.210938 C 158.023438 43.84375 156.910156 42.730469 155.539062 42.730469 C 154.167969 42.730469 153.054688 43.84375 153.054688 45.210938 C 153.054688 46.585938 154.167969 47.695312 155.539062 47.695312 C 156.910156 47.695312 158.023438 46.585938 158.023438 45.210938 "/>
<path fill-rule="evenodd" fill="rgb(0%, 0%, 54.499817%)" fill-opacity="1" d="M 158.519531 45.210938 C 158.519531 43.566406 157.183594 42.234375 155.539062 42.234375 C 153.894531 42.234375 152.558594 43.566406 152.558594 45.210938 C 152.558594 46.859375 153.894531 48.191406 155.539062 48.191406 C 157.183594 48.191406 158.519531 46.859375 158.519531 45.210938 M 157.523438 45.210938 C 157.523438 44.117188 156.636719 43.226562 155.539062 43.226562 C 154.441406 43.226562 153.550781 44.117188 153.550781 45.210938 C 153.550781 46.308594 154.441406 47.199219 155.539062 47.199219 C 156.636719 47.199219 157.523438 46.308594 157.523438 45.210938 "/>
<path fill-rule="evenodd" fill="rgb(100%, 100%, 0%)" fill-opacity="1" d="M 192.167969 88.371094 C 192.167969 87 191.054688 85.890625 189.683594 85.890625 C 188.3125 85.890625 187.199219 87 187.199219 88.371094 C 187.199219 89.742188 188.3125 90.855469 189.683594 90.855469 C 191.054688 90.855469 192.167969 89.742188 192.167969 88.371094 "/>
<path fill-rule="evenodd" fill="rgb(54.499817%, 0%, 54.499817%)" fill-opacity="1" d="M 192.664062 88.371094 C 192.664062 86.726562 191.328125 85.394531 189.683594 85.394531 C 188.039062 85.394531 186.703125 86.726562 186.703125 88.371094 C 186.703125 90.015625 188.039062 91.351562 189.683594 91.351562 C 191.328125 91.351562 192.664062 90.015625 192.664062 88.371094 M 191.667969 88.371094 C 191.667969 87.273438 190.78125 86.386719 189.683594 86.386719 C 188.585938 86.386719 187.695312 87.273438 187.695312 88.371094 C 187.695312 89.46875 188.585938 90.359375 189.683594 90.359375 C 190.78125 90.359375 191.667969 89.46875 191.667969 88.371094 "/>
</svg>
