<?xml version="1.0" encoding="UTF-8"?>
<svg xmlns="http://www.w3.org/2000/svg" xmlns:xlink="http://www.w3.org/1999/xlink" width="253.137" height="145.011" viewBox="0 0 253.137 145.011">
<path fill="none" stroke-width="0.8" stroke-linecap="butt" stroke-linejoin="round" stroke="rgb(0%, 0%, 0%)" stroke-opacity="1" stroke-miterlimit="10" d="M 300.037147 263.601716 L 282.130693 236.008551 " transform="matrix(0.993226, 0, 0, -0.993226, -142.465641, 307.027023)"/>
<path fill="none" stroke-width="0.8" stroke-linecap="butt" stroke-linejoin="round" stroke="rgb(0%, 0%, 0%)" stroke-opacity="1" stroke-miterlimit="10" d="M 219.581989 264.628201 L 282.130693 236.008551 " transform="matrix(0.993226, 0, 0, -0.993226, -142.465641, 307.027023)"/>
<path fill="none" stroke-width="0.8" stroke-linecap="butt" stroke-linejoin="round" stroke="rgb(0%, 0%, 0%)" stroke-opacity="1" stroke-miterlimit="10" d="M 182.180193 210.311039 L 282.130693 236.008551 " transform="matrix(0.993226, 0, 0, -0.993226, -142.465641, 307.027023)"/>
<path fill="none" stroke-width="0.8" stroke-linecap="butt" stroke-linejoin="round" stroke="rgb(0%, 0%, 0%)" stroke-opacity="1" stroke-miterlimit="10" d="M 282.130693 236.008551 L 259.386782 204.01448 " transform="matrix(0.993226, 0, 0, -0.993226, -142.465641, 307.027023)"/>
<path fill="none" stroke-width="0.8" stroke-linecap="butt" stroke-linejoin="round" stroke="rgb(0%, 0%, 0%)" stroke-opacity="1" stroke-miterlimit="10" d="M 282.130693 236.008551 L 334.41455 220.1472 " transform="matrix(0.993226, 0, 0, -0.993226, -142.465641, 307.027023)"/>
<path fill="none" stroke-width="0.8" stroke-linecap="butt" stroke-linejoin="round" stroke="rgb(0%, 0%, 0%)" stroke-opacity="1" stroke-miterlimit="10" d="M 282.130693 236.008551 L 340.87629 226.030806 " transform="matrix(0.993226, 0, 0, -0.993226, -142.465641, 307.027023)"/>
<path fill="none" stroke-width="0.8" stroke-linecap="butt" stroke-linejoin="round" stroke="rgb(0%, 0%, 0%)" stroke-opacity="1" stroke-miterlimit="10" d="M 282.130693 236.008551 L 369.661121 234.934871 " transform="matrix(0.993226, 0, 0, -0.993226, -142.465641, 307.027023)"/>
<path fill="none" stroke-width="0.8" stroke-linecap="butt" stroke-linejoin="round" stroke="rgb(0%, 0%, 0%)" stroke-opacity="1" stroke-miterlimit="10" d="M 282.130693 236.008551 L 349.937672 282.306547 " transform="matrix(0.993226, 0, 0, -0.993226, -142.465641, 307.027023)"/>
<path fill="none" stroke-width="0.8" stroke-linecap="butt" stroke-linejoin="round" stroke="rgb(0%, 0%, 0%)" stroke-opacity="1" stroke-miterlimit="10" d="M 349.937672 282.306547 L 369.661121 234.934871 " transform="matrix(0.993226, 0, 0, -0.993226, -142.465641, 307.027023)"/>
<path fill="none" stroke-width="0.8" stroke-linecap="butt" stroke-linejoin="round" stroke="rgb(0%, 0%, 0%)" stroke-opacity="1" stroke-miterlimit="10" d="M 340.87629 226.030806 L 334.41455 220.1472 " transform="matrix(0.993226, 0, 0, -0.993226, -142.465641, 307.027023)"/>
<path fill="none" stroke-width="0.8" stroke-linecap="butt" stroke-linejoin="round" stroke="rgb(0%, 0%, 0%)" stroke-opacity="1" stroke-miterlimit="10" d="M 259.386782 204.01448 L 334.41455 220.1472 " transform="matrix(0.993226, 0, 0, -0.993226, -142.465641, 307.027023)"/>
<path fill="none" stroke-width="0.8" stroke-linecap="butt" stroke-linejoin="round" stroke="rgb(0%, 0%, 0%)" stroke-opacity="1" stroke-miterlimit="10" d="M 300.037147 263.601716 C 279.3934 268.686945 258.537278 256.074162 253.452049 235.430416 C 250.781616 224.5953 252.948639 213.130922 259.390715 204.01448 " transform="matrix(0.993226, 0, 0, -0.993226, -142.465641, 307.027023)"/>
<path fill="none" stroke-width="0.8" stroke-linecap="butt" stroke-linejoin="round" stroke="rgb(0%, 0%, 0%)" stroke-opacity="1" stroke-miterlimit="10" d="M 369.661121 234.934871 L 340.87629 226.030806 " transform="matrix(0.993226, 0, 0, -0.993226, -142.465641, 307.027023)"/>
<path fill="none" stroke-width="0.8" stroke-linecap="butt" stroke-linejoin="round" stroke="rgb(0%, 0%, 0%)" stroke-opacity="1" stroke-miterlimit="10" d="M 340.87629 226.030806 L 300.037147 263.601716 " transform="matrix(0.993226, 0, 0, -0.993226, -142.465641, 307.027023)"/>
<path fill="none" stroke-width="0.8" stroke-linecap="butt" stroke-linejoin="round" stroke="rgb(0%, 0%, 0%)" stroke-opacity="1" stroke-miterlimit="10" d="M 369.661121 234.934871 C 371.501715 224.261004 364.343852 214.114145 353.673918 212.273552 C 346.27615 210.995362 338.799723 214.051219 334.41455 220.1472 " transform="matrix(0.993226, 0, 0, -0.993226, -142.465641, 307.027023)"/>
<path fill-rule="evenodd" fill="rgb(100%, 100%, 100%)" fill-opacity="1" d="M 163.394531 72.398438 C 181.5625 69.292969 216.460938 76.941406 215.746094 83.871094 C 215.027344 90.804688 178.691406 97.019531 161.242188 93.195312 C 143.792969 89.371094 145.226562 75.507812 163.394531 72.398438 Z M 163.394531 72.398438 "/>
<path fill-rule="evenodd" fill="rgb(100%, 100%, 100%)" fill-opacity="1" d="M 142.800781 107.933594 C 134.246094 124.285156 96.503906 138.878906 82.164062 136.113281 C 67.820312 133.34375 76.878906 113.214844 85.433594 96.859375 C 93.988281 80.503906 102.039062 67.925781 116.382812 70.691406 C 130.722656 73.460938 151.359375 91.578125 142.800781 107.933594 Z M 142.800781 107.933594 "/>
<path fill-rule="evenodd" fill="rgb(100%, 100%, 100%)" fill-opacity="1" d="M 178.292969 64.945312 C 174.519531 50.351562 137.28125 25.691406 122.9375 22.167969 C 108.59375 18.648438 117.152344 36.261719 120.925781 50.855469 C 124.699219 65.449219 123.691406 77.023438 138.035156 80.542969 C 152.375 84.066406 182.066406 79.539062 178.292969 64.945312 Z M 178.292969 64.945312 "/>
<path fill-rule="evenodd" fill="rgb(100%, 100%, 100%)" fill-opacity="1" d="M 151.316406 62.5625 C 173.207031 59.542969 214.472656 97.785156 213.214844 119.929688 C 211.957031 142.070312 168.175781 148.109375 147.542969 128.988281 C 126.910156 109.863281 129.425781 65.582031 151.316406 62.5625 Z M 151.316406 62.5625 "/>
<path fill-rule="evenodd" fill="rgb(100%, 100%, 100%)" fill-opacity="1" d="M 216.472656 30.394531 C 229.808594 40.207031 247.421875 70.402344 243.394531 91.535156 C 239.371094 112.671875 213.707031 124.75 200.371094 114.9375 C 187.035156 105.125 186.027344 73.421875 190.054688 52.285156 C 194.078125 31.148438 203.136719 20.582031 216.472656 30.394531 Z M 216.472656 30.394531 "/>
<path fill-rule="evenodd" fill="rgb(100%, 100%, 100%)" fill-opacity="1" d="M 91.246094 16.847656 C 103.578125 23.640625 108.105469 43.265625 100.304688 56.601562 C 92.503906 69.9375 72.375 76.984375 60.046875 70.1875 C 47.71875 63.394531 43.1875 42.761719 50.988281 29.425781 C 58.789062 16.089844 78.917969 10.050781 91.246094 16.847656 Z M 91.246094 16.847656 "/>
<path fill-rule="evenodd" fill="rgb(100%, 100%, 100%)" fill-opacity="1" d="M 81.832031 90.464844 C 78.558594 82.664062 59.941406 72.597656 40.316406 79.140625 C 20.6875 85.683594 0.0546875 108.832031 3.328125 116.632812 C 6.597656 124.433594 33.773438 116.882812 53.398438 110.339844 C 73.023438 103.800781 85.101562 98.265625 81.832031 90.464844 Z M 81.832031 90.464844 "/>
<path fill-rule="evenodd" fill="rgb(100%, 100%, 100%)" fill-opacity="1" d="M 185.035156 4.359375 C 202.144531 -0.421875 229.320312 2.09375 241.394531 11.65625 C 253.472656 21.214844 250.453125 37.824219 233.34375 42.601562 C 216.234375 47.386719 185.035156 40.339844 172.957031 30.777344 C 160.878906 21.214844 167.925781 9.140625 185.035156 4.359375 Z M 185.035156 4.359375 "/>
<path fill-rule="evenodd" fill="rgb(100%, 100%, 100%)" fill-opacity="1" d="M 217.183594 63.46875 C 226.3125 81.445312 241.410156 109.121094 218.765625 124.21875 C 196.121094 139.316406 135.730469 141.832031 102.488281 122.984375 C 69.246094 104.140625 63.152344 63.933594 57.019531 43.800781 C 50.886719 23.671875 44.714844 23.621094 42.257812 35.550781 C 39.800781 47.476562 41.0625 71.378906 39.027344 76.917969 C 36.996094 82.460938 31.671875 69.636719 27.703125 56.472656 C 23.738281 43.308594 21.125 29.804688 27.039062 20.566406 C 32.949219 11.324219 47.390625 6.351562 77.925781 8.460938 C 108.460938 10.566406 155.089844 19.757812 178.40625 24.351562 C 201.722656 28.945312 201.722656 28.945312 203.304688 33.082031 C 204.886719 37.21875 208.050781 45.492188 217.183594 63.46875 Z M 217.183594 63.46875 "/>
<path fill="none" stroke-width="0.8" stroke-linecap="butt" stroke-linejoin="round" stroke="rgb(0%, 39.199829%, 0%)" stroke-opacity="1" stroke-miterlimit="10" d="M 307.946191 236.228793 C 326.238069 239.355441 361.374519 231.65484 360.6548 224.677891 C 359.931148 217.697009 323.347393 211.439779 305.779168 215.290079 C 288.210943 219.14038 289.654314 233.098211 307.946191 236.228793 Z M 307.946191 236.228793 " transform="matrix(0.993226, 0, 0, -0.993226, -142.465641, 307.027023)"/>
<path fill="none" stroke-width="0.8" stroke-linecap="butt" stroke-linejoin="round" stroke="rgb(12.5%, 12.5%, 12.5%)" stroke-opacity="1" stroke-miterlimit="10" d="M 287.211988 200.451281 C 278.598956 183.988198 240.599361 169.294916 226.161717 172.079403 C 211.72014 174.867823 220.840515 195.134012 229.453547 211.601027 C 238.066579 228.068043 246.172268 240.731953 260.613844 237.947466 C 275.051488 235.159046 295.828953 216.918296 287.211988 200.451281 Z M 287.211988 200.451281 " transform="matrix(0.993226, 0, 0, -0.993226, -142.465641, 307.027023)"/>
<path fill="none" stroke-width="0.8" stroke-linecap="butt" stroke-linejoin="round" stroke="rgb(0%, 0%, 54.499817%)" stroke-opacity="1" stroke-miterlimit="10" d="M 322.946239 243.732749 C 319.147066 258.426031 281.654813 283.254374 267.213236 286.801842 C 252.771659 290.345377 261.388624 272.61197 265.187797 257.918688 C 268.98697 243.225406 267.972284 231.572249 282.413861 228.028714 C 296.851505 224.481246 326.745412 229.039467 322.946239 243.732749 Z M 322.946239 243.732749 " transform="matrix(0.993226, 0, 0, -0.993226, -142.465641, 307.027023)"/>
<path fill="none" stroke-width="0.8" stroke-linecap="butt" stroke-linejoin="round" stroke="rgb(54.499817%, 0%, 54.499817%)" stroke-opacity="1" stroke-miterlimit="10" d="M 295.785691 246.131813 C 317.825614 249.171938 359.372678 210.668932 358.106287 188.373371 C 356.839896 166.081743 312.76005 160.001494 291.986518 179.252996 C 271.212986 198.508432 273.745768 243.091688 295.785691 246.131813 Z M 295.785691 246.131813 " transform="matrix(0.993226, 0, 0, -0.993226, -142.465641, 307.027023)"/>
<path fill="none" stroke-width="0.8" stroke-linecap="butt" stroke-linejoin="round" stroke="rgb(80.39856%, 6.298828%, 46.299744%)" stroke-opacity="1" stroke-miterlimit="10" d="M 361.386318 278.519173 C 374.813209 268.63975 392.546616 238.2385 388.491805 216.961558 C 384.440927 195.680683 358.601831 183.520184 345.17494 193.399606 C 331.748049 203.279029 330.733363 235.198375 334.788174 256.47925 C 338.839052 277.760125 347.959427 288.398596 361.386318 278.519173 Z M 361.386318 278.519173 " transform="matrix(0.993226, 0, 0, -0.993226, -142.465641, 307.027023)"/>
<path fill="none" stroke-width="0.8" stroke-linecap="butt" stroke-linejoin="round" stroke="rgb(54.499817%, 49.398804%, 39.99939%)" stroke-opacity="1" stroke-miterlimit="10" d="M 235.305689 292.15844 C 247.721827 285.319142 252.280048 265.560296 244.426064 252.133405 C 236.57208 238.706514 216.305891 231.611578 203.893686 238.454809 C 191.481481 245.294107 186.919327 266.067639 194.773311 279.49453 C 202.627295 292.921421 222.893484 299.001671 235.305689 292.15844 Z M 235.305689 292.15844 " transform="matrix(0.993226, 0, 0, -0.993226, -142.465641, 307.027023)"/>
<path fill="none" stroke-width="0.8" stroke-linecap="butt" stroke-linejoin="round" stroke="rgb(0%, 39.199829%, 0%)" stroke-opacity="1" stroke-miterlimit="10" d="M 225.827421 218.03917 C 222.531658 225.893154 203.787498 236.028215 184.028652 229.440622 C 164.265873 222.853029 143.492342 199.546716 146.788104 191.692732 C 150.079934 183.838748 177.441059 191.441027 197.199905 198.02862 C 216.958751 204.61228 229.119251 210.185187 225.827421 218.03917 Z M 225.827421 218.03917 " transform="matrix(0.993226, 0, 0, -0.993226, -142.465641, 307.027023)"/>
<path fill="none" stroke-width="0.8" stroke-linecap="butt" stroke-linejoin="round" stroke="rgb(54.499817%, 21.199036%, 14.898682%)" stroke-opacity="1" stroke-miterlimit="10" d="M 329.734409 304.731893 C 346.960473 309.545752 374.321598 307.01297 386.478165 297.385252 C 398.638664 287.761467 395.598539 271.038814 378.372476 266.228888 C 361.146412 261.411096 329.734409 268.506032 317.573909 278.133749 C 305.413409 287.761467 312.508345 299.918034 329.734409 304.731893 Z M 329.734409 304.731893 " transform="matrix(0.993226, 0, 0, -0.993226, -142.465641, 307.027023)"/>
<path fill="none" stroke-width="0.8" stroke-linecap="butt" stroke-linejoin="round" stroke="rgb(0%, 0%, 100%)" stroke-opacity="1" stroke-miterlimit="10" d="M 362.102104 245.219382 C 371.293271 227.120216 386.493896 199.255682 363.694925 184.055057 C 340.895954 168.854432 280.093455 166.32165 246.62455 185.29785 C 213.155645 204.270118 207.020335 244.751368 200.845695 265.02149 C 194.671056 285.287679 188.457088 285.338806 185.983299 273.327756 C 183.50951 261.320639 184.779834 237.255277 182.730798 231.678437 C 180.685695 226.097665 175.325164 239.009347 171.329346 252.263191 C 167.337461 265.517034 164.706357 279.113039 170.660755 288.414327 C 176.611219 297.719548 191.151118 302.726119 221.89453 300.602357 C 252.637941 298.482529 299.584864 289.228436 323.060292 284.603356 C 346.535721 279.978275 346.535721 279.978275 348.128542 275.813344 C 349.721362 271.648412 352.907004 263.318548 362.102104 245.219382 Z M 362.102104 245.219382 " transform="matrix(0.993226, 0, 0, -0.993226, -142.465641, 307.027023)"/>
<path fill-rule="evenodd" fill="rgb(54.499817%, 0%, 0%)" fill-opacity="0.1" stroke-width="0.8" stroke-linecap="butt" stroke-linejoin="round" stroke="rgb(0%, 39.199829%, 0%)" stroke-opacity="0.1" stroke-miterlimit="10" d="M 307.946191 236.228793 C 326.238069 239.355441 361.374519 231.65484 360.6548 224.677891 C 359.931148 217.697009 323.347393 211.439779 305.779168 215.290079 C 288.210943 219.14038 289.654314 233.098211 307.946191 236.228793 Z M 307.946191 236.228793 " transform="matrix(0.993226, 0, 0, -0.993226, -142.465641, 307.027023)"/>
<path fill-rule="evenodd" fill="rgb(54.499817%, 0%, 0%)" fill-opacity="0.1" stroke-width="0.8" stroke-linecap="butt" stroke-linejoin="round" stroke="rgb(12.5%, 12.5%, 12.5%)" stroke-opacity="0.1" stroke-miterlimit="10" d="M 287.211988 200.451281 C 278.598956 183.988198 240.599361 169.294916 226.161717 172.079403 C 211.72014 174.867823 220.840515 195.134012 229.453547 211.601027 C 238.066579 228.068043 246.172268 240.731953 260.613844 237.947466 C 275.051488 235.159046 295.828953 216.918296 287.211988 200.451281 Z M 287.211988 200.451281 " transform="matrix(0.993226, 0, 0, -0.993226, -142.465641, 307.027023)"/>
<path fill-rule="evenodd" fill="rgb(0%, 39.199829%, 0%)" fill-opacity="0.1" stroke-width="0.8" stroke-linecap="butt" stroke-linejoin="round" stroke="rgb(0%, 0%, 54.499817%)" stroke-opacity="0.1" stroke-miterlimit="10" d="M 322.946239 243.732749 C 319.147066 258.426031 281.654813 283.254374 267.213236 286.801842 C 252.771659 290.345377 261.388624 272.61197 265.187797 257.918688 C 268.98697 243.225406 267.972284 231.572249 282.413861 228.028714 C 296.851505 224.481246 326.745412 229.039467 322.946239 243.732749 Z M 322.946239 243.732749 " transform="matrix(0.993226, 0, 0, -0.993226, -142.465641, 307.027023)"/>
<path fill-rule="evenodd" fill="rgb(54.499817%, 0%, 0%)" fill-opacity="0.1" stroke-width="0.8" stroke-linecap="butt" stroke-linejoin="round" stroke="rgb(54.499817%, 0%, 54.499817%)" stroke-opacity="0.1" stroke-miterlimit="10" d="M 295.785691 246.131813 C 317.825614 249.171938 359.372678 210.668932 358.106287 188.373371 C 356.839896 166.081743 312.76005 160.001494 291.986518 179.252996 C 271.212986 198.508432 273.745768 243.091688 295.785691 246.131813 Z M 295.785691 246.131813 " transform="matrix(0.993226, 0, 0, -0.993226, -142.465641, 307.027023)"/>
<path fill-rule="evenodd" fill="rgb(59.999084%, 19.599915%, 79.998779%)" fill-opacity="0.1" stroke-width="0.8" stroke-linecap="butt" stroke-linejoin="round" stroke="rgb(80.39856%, 6.298828%, 46.299744%)" stroke-opacity="0.1" stroke-miterlimit="10" d="M 361.386318 278.519173 C 374.813209 268.63975 392.546616 238.2385 388.491805 216.961558 C 384.440927 195.680683 358.601831 183.520184 345.17494 193.399606 C 331.748049 203.279029 330.733363 235.198375 334.788174 256.47925 C 338.839052 277.760125 347.959427 288.398596 361.386318 278.519173 Z M 361.386318 278.519173 " transform="matrix(0.993226, 0, 0, -0.993226, -142.465641, 307.027023)"/>
<path fill-rule="evenodd" fill="rgb(54.499817%, 0%, 0%)" fill-opacity="0.1" stroke-width="0.8" stroke-linecap="butt" stroke-linejoin="round" stroke="rgb(54.499817%, 49.398804%, 39.99939%)" stroke-opacity="0.1" stroke-miterlimit="10" d="M 235.305689 292.15844 C 247.721827 285.319142 252.280048 265.560296 244.426064 252.133405 C 236.57208 238.706514 216.305891 231.611578 203.893686 238.454809 C 191.481481 245.294107 186.919327 266.067639 194.773311 279.49453 C 202.627295 292.921421 222.893484 299.001671 235.305689 292.15844 Z M 235.305689 292.15844 " transform="matrix(0.993226, 0, 0, -0.993226, -142.465641, 307.027023)"/>
<path fill-rule="evenodd" fill="rgb(54.499817%, 0%, 0%)" fill-opacity="0.1" stroke-width="0.8" stroke-linecap="butt" stroke-linejoin="round" stroke="rgb(0%, 39.199829%, 0%)" stroke-opacity="0.1" stroke-miterlimit="10" d="M 225.827421 218.03917 C 222.531658 225.893154 203.787498 236.028215 184.028652 229.440622 C 164.265873 222.853029 143.492342 199.546716 146.788104 191.692732 C 150.079934 183.838748 177.441059 191.441027 197.199905 198.02862 C 216.958751 204.61228 229.119251 210.185187 225.827421 218.03917 Z M 225.827421 218.03917 " transform="matrix(0.993226, 0, 0, -0.993226, -142.465641, 307.027023)"/>
<path fill-rule="evenodd" fill="rgb(100%, 54.899597%, 0%)" fill-opacity="0.1" stroke-width="0.8" stroke-linecap="butt" stroke-linejoin="round" stroke="rgb(54.499817%, 21.199036%, 14.898682%)" stroke-opacity="0.1" stroke-miterlimit="10" d="M 329.734409 304.731893 C 346.960473 309.545752 374.321598 307.01297 386.478165 297.385252 C 398.638664 287.761467 395.598539 271.038814 378.372476 266.228888 C 361.146412 261.411096 329.734409 268.506032 317.573909 278.133749 C 305.413409 287.761467 312.508345 299.918034 329.734409 304.731893 Z M 329.734409 304.731893 " transform="matrix(0.993226, 0, 0, -0.993226, -142.465641, 307.027023)"/>
<path fill-rule="evenodd" fill="rgb(0%, 0%, 100%)" fill-opacity="0.1" stroke-width="0.8" stroke-linecap="butt" stroke-linejoin="round" stroke="rgb(69.799805%, 13.299561%, 13.299561%)" stroke-opacity="0.1" stroke-miterlimit="10" d="M 362.102104 245.219382 C 371.293271 227.120216 386.493896 199.255682 363.694925 184.055057 C 340.895954 168.854432 280.093455 166.32165 246.62455 185.29785 C 213.155645 204.270118 207.020335 244.751368 200.845695 265.02149 C 194.671056 285.287679 188.457088 285.338806 185.983299 273.327756 C 183.50951 261.320639 184.779834 237.255277 182.730798 231.678437 C 180.685695 226.097665 175.325164 239.009347 171.329346 252.263191 C 167.337461 265.517034 164.706357 279.113039 170.660755 288.414327 C 176.611219 297.719548 191.151118 302.726119 221.89453 300.602357 C 252.637941 298.482529 299.584864 289.228436 323.060292 284.603356 C 346.535721 279.978275 346.535721 279.978275 348.128542 275.813344 C 349.721362 271.648412 352.907004 263.318548 362.102104 245.219382 Z M 362.102104 245.219382 " transform="matrix(0.993226, 0, 0, -0.993226, -142.465641, 307.027023)"/>
<path fill="none" stroke-width="0.8" stroke-linecap="butt" stroke-linejoin="round" stroke="rgb(0%, 0%, 0%)" stroke-opacity="0.3" stroke-miterlimit="10" d="M 300.037147 263.601716 L 282.130693 236.008551 " transform="matrix(0.993226, 0, 0, -0.993226, -142.465641, 307.027023)"/>
<path fill="none" stroke-width="0.8" stroke-linecap="butt" stroke-linejoin="round" stroke="rgb(0%, 0%, 0%)" stroke-opacity="0.3" stroke-miterlimit="10" d="M 219.581989 264.628201 L 282.130693 236.008551 " transform="matrix(0.993226, 0, 0, -0.993226, -142.465641, 307.027023)"/>
<path fill="none" stroke-width="0.8" stroke-linecap="butt" stroke-linejoin="round" stroke="rgb(0%, 0%, 0%)" stroke-opacity="0.3" stroke-miterlimit="10" d="M 182.180193 210.311039 L 282.130693 236.008551 " transform="matrix(0.993226, 0, 0, -0.993226, -142.465641, 307.027023)"/>
<path fill="none" stroke-width="0.8" stroke-linecap="butt" stroke-linejoin="round" stroke="rgb(0%, 0%, 0%)" stroke-opacity="0.3" stroke-miterlimit="10" d="M 282.130693 236.008551 L 259.386782 204.01448 " transform="matrix(0.993226, 0, 0, -0.993226, -142.465641, 307.027023)"/>
<path fill="none" stroke-width="0.8" stroke-linecap="butt" stroke-linejoin="round" stroke="rgb(0%, 0%, 0%)" stroke-opacity="0.3" stroke-miterlimit="10" d="M 282.130693 236.008551 L 334.41455 220.1472 " transform="matrix(0.993226, 0, 0, -0.993226, -142.465641, 307.027023)"/>
<path fill="none" stroke-width="0.8" stroke-linecap="butt" stroke-linejoin="round" stroke="rgb(0%, 0%, 0%)" stroke-opacity="0.3" stroke-miterlimit="10" d="M 282.130693 236.008551 L 340.87629 226.030806 " transform="matrix(0.993226, 0, 0, -0.993226, -142.465641, 307.027023)"/>
<path fill="none" stroke-width="0.8" stroke-linecap="butt" stroke-linejoin="round" stroke="rgb(0%, 0%, 0%)" stroke-opacity="0.3" stroke-miterlimit="10" d="M 282.130693 236.008551 L 369.661121 234.934871 " transform="matrix(0.993226, 0, 0, -0.993226, -142.465641, 307.027023)"/>
<path fill="none" stroke-width="0.8" stroke-linecap="butt" stroke-linejoin="round" stroke="rgb(0%, 0%, 0%)" stroke-opacity="0.3" stroke-miterlimit="10" d="M 282.130693 236.008551 L 349.937672 282.306547 " transform="matrix(0.993226, 0, 0, -0.993226, -142.465641, 307.027023)"/>
<path fill="none" stroke-width="0.8" stroke-linecap="butt" stroke-linejoin="round" stroke="rgb(0%, 0%, 0%)" stroke-opacity="0.3" stroke-miterlimit="10" d="M 349.937672 282.306547 L 369.661121 234.934871 " transform="matrix(0.993226, 0, 0, -0.993226, -142.465641, 307.027023)"/>
<path fill="none" stroke-width="0.8" stroke-linecap="butt" stroke-linejoin="round" stroke="rgb(0%, 0%, 0%)" stroke-opacity="0.3" stroke-miterlimit="10" d="M 340.87629 226.030806 L 334.41455 220.1472 " transform="matrix(0.993226, 0, 0, -0.993226, -142.465641, 307.027023)"/>
<path fill="none" stroke-width="0.8" stroke-linecap="butt" stroke-linejoin="round" stroke="rgb(0%, 0%, 0%)" stroke-opacity="0.3" stroke-miterlimit="10" d="M 259.386782 204.01448 L 334.41455 220.1472 " transform="matrix(0.993226, 0, 0, -0.993226, -142.465641, 307.027023)"/>
<path fill="none" stroke-width="0.8" stroke-linecap="butt" stroke-linejoin="round" stroke="rgb(0%, 0%, 0%)" stroke-opacity="0.3" stroke-miterlimit="10" d="M 300.037147 263.601716 C 279.3934 268.686945 258.537278 256.074162 253.452049 235.430416 C 250.781616 224.5953 252.948639 213.130922 259.390715 204.01448 " transform="matrix(0.993226, 0, 0, -0.993226, -142.465641, 307.027023)"/>
<path fill="none" stroke-width="0.8" stroke-linecap="butt" stroke-linejoin="round" stroke="rgb(0%, 0%, 0%)" stroke-opacity="0.3" stroke-miterlimit="10" d="M 369.661121 234.934871 L 340.87629 226.030806 " transform="matrix(0.993226, 0, 0, -0.993226, -142.465641, 307.027023)"/>
<path fill="none" stroke-width="0.8" stroke-linecap="butt" stroke-linejoin="round" stroke="rgb(0%, 0%, 0%)" stroke-opacity="0.3" stroke-miterlimit="10" d="M 340.87629 226.030806 L 300.037147 263.601716 " transform="matrix(0.993226, 0, 0, -0.993226, -142.465641, 307.027023)"/>
<path fill="none" stroke-width="0.8" stroke-linecap="butt" stroke-linejoin="round" stroke="rgb(0%, 0%, 0%)" stroke-opacity="0.3" stroke-miterlimit="10" d="M 369.661121 234.934871 C 371.501715 224.261004 364.343852 214.114145 353.673918 212.273552 C 346.27615 210.995362 338.799723 214.051219 334.41455 220.1472 " transform="matrix(0.993226, 0, 0, -0.993226, -142.465641, 307.027023)"/>
<path fill-rule="evenodd" fill="rgb(100%, 100%, 0%)" fill-opacity="1" d="M 117.648438 104.394531 C 117.648438 103.023438 116.535156 101.910156 115.164062 101.910156 C 113.792969 101.910156 112.683594 103.023438 112.683594 104.394531 C 112.683594 105.765625 113.792969 106.878906 115.164062 106.878906 C 116.535156 106.878906 117.648438 105.765625 117.648438 104.394531 "/>
<path fill-rule="evenodd" fill="rgb(0%, 0%, 0%)" fill-opacity="1" d="M 118.144531 104.394531 C 118.144531 102.75 116.8125 101.414062 115.164062 101.414062 C 113.519531 101.414062 112.1875 102.75 112.1875 104.394531 C 112.1875 106.039062 113.519531 107.375 115.164062 107.375 C 116.8125 107.375 118.144531 106.039062 118.144531 104.394531 M 117.152344 104.394531 C 117.152344 103.296875 116.261719 102.410156 115.164062 102.410156 C 114.070312 102.410156 113.179688 103.296875 113.179688 104.394531 C 113.179688 105.492188 114.070312 106.382812 115.164062 106.382812 C 116.261719 106.382812 117.152344 105.492188 117.152344 104.394531 "/>
<path fill-rule="evenodd" fill="rgb(100%, 100%, 0%)" fill-opacity="1" d="M 198.585938 82.527344 C 198.585938 81.15625 197.472656 80.042969 196.101562 80.042969 C 194.730469 80.042969 193.621094 81.15625 193.621094 82.527344 C 193.621094 83.898438 194.730469 85.011719 196.101562 85.011719 C 197.472656 85.011719 198.585938 83.898438 198.585938 82.527344 "/>
<path fill-rule="evenodd" fill="rgb(0%, 39.199829%, 0%)" fill-opacity="1" d="M 199.082031 82.527344 C 199.082031 80.882812 197.746094 79.546875 196.101562 79.546875 C 194.457031 79.546875 193.121094 80.882812 193.121094 82.527344 C 193.121094 84.171875 194.457031 85.507812 196.101562 85.507812 C 197.746094 85.507812 199.082031 84.171875 199.082031 82.527344 M 198.089844 82.527344 C 198.089844 81.429688 197.199219 80.539062 196.101562 80.539062 C 195.003906 80.539062 194.117188 81.429688 194.117188 82.527344 C 194.117188 83.625 195.003906 84.511719 196.101562 84.511719 C 197.199219 84.511719 198.089844 83.625 198.089844 82.527344 "/>
<path fill-rule="evenodd" fill="rgb(100%, 100%, 0%)" fill-opacity="1" d="M 227.171875 73.683594 C 227.171875 72.3125 226.0625 71.199219 224.691406 71.199219 C 223.320312 71.199219 222.207031 72.3125 222.207031 73.683594 C 222.207031 75.054688 223.320312 76.167969 224.691406 76.167969 C 226.0625 76.167969 227.171875 75.054688 227.171875 73.683594 "/>
<path fill-rule="evenodd" fill="rgb(40.79895%, 13.299561%, 54.499817%)" fill-opacity="1" d="M 227.671875 73.683594 C 227.671875 72.039062 226.335938 70.703125 224.691406 70.703125 C 223.046875 70.703125 221.710938 72.039062 221.710938 73.683594 C 221.710938 75.328125 223.046875 76.664062 224.691406 76.664062 C 226.335938 76.664062 227.671875 75.328125 227.671875 73.683594 M 226.675781 73.683594 C 226.675781 72.585938 225.789062 71.695312 224.691406 71.695312 C 223.59375 71.695312 222.703125 72.585938 222.703125 73.683594 C 222.703125 74.78125 223.59375 75.667969 224.691406 75.667969 C 225.789062 75.667969 226.675781 74.78125 226.675781 73.683594 "/>
<path fill-rule="evenodd" fill="rgb(100%, 100%, 0%)" fill-opacity="1" d="M 78.113281 44.191406 C 78.113281 42.820312 77 41.707031 75.628906 41.707031 C 74.257812 41.707031 73.148438 42.820312 73.148438 44.191406 C 73.148438 45.5625 74.257812 46.675781 75.628906 46.675781 C 77 46.675781 78.113281 45.5625 78.113281 44.191406 "/>
<path fill-rule="evenodd" fill="rgb(54.499817%, 49.398804%, 39.99939%)" fill-opacity="1" d="M 78.609375 44.191406 C 78.609375 42.546875 77.277344 41.210938 75.628906 41.210938 C 73.984375 41.210938 72.648438 42.546875 72.648438 44.191406 C 72.648438 45.835938 73.984375 47.171875 75.628906 47.171875 C 77.277344 47.171875 78.609375 45.835938 78.609375 44.191406 M 77.617188 44.191406 C 77.617188 43.09375 76.726562 42.207031 75.628906 42.207031 C 74.535156 42.207031 73.644531 43.09375 73.644531 44.191406 C 73.644531 45.289062 74.535156 46.179688 75.628906 46.179688 C 76.726562 46.179688 77.617188 45.289062 77.617188 44.191406 "/>
<path fill-rule="evenodd" fill="rgb(100%, 100%, 0%)" fill-opacity="1" d="M 207.582031 26.632812 C 207.582031 25.261719 206.472656 24.148438 205.101562 24.148438 C 203.730469 24.148438 202.617188 25.261719 202.617188 26.632812 C 202.617188 28.003906 203.730469 29.117188 205.101562 29.117188 C 206.472656 29.117188 207.582031 28.003906 207.582031 26.632812 "/>
<path fill-rule="evenodd" fill="rgb(54.499817%, 21.199036%, 14.898682%)" fill-opacity="1" d="M 208.082031 26.632812 C 208.082031 24.988281 206.746094 23.652344 205.101562 23.652344 C 203.457031 23.652344 202.121094 24.988281 202.121094 26.632812 C 202.121094 28.277344 203.457031 29.613281 205.101562 29.613281 C 206.746094 29.613281 208.082031 28.277344 208.082031 26.632812 M 207.085938 26.632812 C 207.085938 25.535156 206.199219 24.644531 205.101562 24.644531 C 204.003906 24.644531 203.113281 25.535156 203.113281 26.632812 C 203.113281 27.730469 204.003906 28.617188 205.101562 28.617188 C 206.199219 28.617188 207.085938 27.730469 207.085938 26.632812 "/>
<path fill-rule="evenodd" fill="rgb(100%, 100%, 0%)" fill-opacity="1" d="M 40.960938 98.140625 C 40.960938 96.769531 39.851562 95.660156 38.480469 95.660156 C 37.109375 95.660156 35.996094 96.769531 35.996094 98.140625 C 35.996094 99.511719 37.109375 100.625 38.480469 100.625 C 39.851562 100.625 40.960938 99.511719 40.960938 98.140625 "/>
<path fill-rule="evenodd" fill="rgb(0%, 39.199829%, 0%)" fill-opacity="1" d="M 41.457031 98.140625 C 41.457031 96.496094 40.125 95.160156 38.480469 95.160156 C 36.832031 95.160156 35.5 96.496094 35.5 98.140625 C 35.5 99.789062 36.832031 101.121094 38.480469 101.121094 C 40.125 101.121094 41.457031 99.789062 41.457031 98.140625 M 40.464844 98.140625 C 40.464844 97.042969 39.578125 96.15625 38.480469 96.15625 C 37.382812 96.15625 36.492188 97.042969 36.492188 98.140625 C 36.492188 99.238281 37.382812 100.128906 38.480469 100.128906 C 39.578125 100.128906 40.464844 99.238281 40.464844 98.140625 "/>
<path fill-rule="evenodd" fill="rgb(100%, 100%, 0%)" fill-opacity="1" d="M 140.238281 72.617188 C 140.238281 71.246094 139.125 70.132812 137.753906 70.132812 C 136.382812 70.132812 135.269531 71.246094 135.269531 72.617188 C 135.269531 73.988281 136.382812 75.101562 137.753906 75.101562 C 139.125 75.101562 140.238281 73.988281 140.238281 72.617188 "/>
<path fill-rule="evenodd" fill="rgb(0%, 0%, 100%)" fill-opacity="1" d="M 140.734375 72.617188 C 140.734375 70.972656 139.398438 69.636719 137.753906 69.636719 C 136.109375 69.636719 134.773438 70.972656 134.773438 72.617188 C 134.773438 74.261719 136.109375 75.597656 137.753906 75.597656 C 139.398438 75.597656 140.734375 74.261719 140.734375 72.617188 M 139.742188 72.617188 C 139.742188 71.519531 138.851562 70.628906 137.753906 70.628906 C 136.65625 70.628906 135.769531 71.519531 135.769531 72.617188 C 135.769531 73.714844 136.65625 74.601562 137.753906 74.601562 C 138.851562 74.601562 139.742188 73.714844 139.742188 72.617188 "/>
<path fill-rule="evenodd" fill="rgb(100%, 100%, 0%)" fill-opacity="1" d="M 158.023438 45.210938 C 158.023438 43.84375 156.910156 42.730469 155.539062 42.730469 C 154.167969 42.730469 153.054688 43.84375 153.054688 45.210938 C 153.054688 46.585938 154.167969 47.695312 155.539062 47.695312 C 156.910156 47.695312 158.023438 46.585938 158.023438 45.210938 "/>
<path fill-rule="evenodd" fill="rgb(0%, 0%, 54.499817%)" fill-opacity="1" d="M 158.519531 45.210938 C 158.519531 43.566406 157.183594 42.234375 155.539062 42.234375 C 153.894531 42.234375 152.558594 43.566406 152.558594 45.210938 C 152.558594 46.859375 153.894531 48.191406 155.539062 48.191406 C 157.183594 48.191406 158.519531 46.859375 158.519531 45.210938 M 157.523438 45.210938 C 157.523438 44.117188 156.636719 43.226562 155.539062 43.226562 C 154.441406 43.226562 153.550781 44.117188 153.550781 45.210938 C 153.550781 46.308594 154.441406 47.199219 155.539062 47.199219 C 156.636719 47.199219 157.523438 46.308594 157.523438 45.210938 "/>
<path fill-rule="evenodd" fill="rgb(100%, 100%, 0%)" fill-opacity="1" d="M 192.167969 88.371094 C 192.167969 87 191.054688 85.890625 189.683594 85.890625 C 188.3125 85.890625 187.199219 87 187.199219 88.371094 C 187.199219 89.742188 188.3125 90.855469 189.683594 90.855469 C 191.054688 90.855469 192.167969 89.742188 192.167969 88.371094 "/>
<path fill-rule="evenodd" fill="rgb(54.499817%, 0%, 54.499817%)" fill-opacity="1" d="M 192.664062 88.371094 C 192.664062 86.726562 191.328125 85.394531 189.683594 85.394531 C 188.039062 85.394531 186.703125 86.726562 186.703125 88.371094 C 186.703125 90.015625 188.039062 91.351562 189.683594 91.351562 C 191.328125 91.351562 192.664062 90.015625 192.664062 88.371094 M 191.667969 88.371094 C 191.667969 87.273438 190.78125 86.386719 189.683594 86.386719 C 188.585938 86.386719 187.695312 87.273438 187.695312 88.371094 C 187.695312 89.46875 188.585938 90.359375 189.683594 90.359375 C 190.78125 90.359375 191.667969 89.46875 191.667969 88.371094 "/>
</svg>
