<?xml version="1.0" encoding="UTF-8"?>
<svg xmlns="http://www.w3.org/2000/svg" xmlns:xlink="http://www.w3.org/1999/xlink" width="253.137" height="145.011" viewBox="0 0 253.137 145.011">
<path fill="none" stroke-width="0.8" stroke-linecap="butt" stroke-linejoin="round" stroke="rgb(0%, 0%, 0%)" stroke-opacity="1" stroke-miterlimit="10" d="M 300.037147 263.601716 L 282.130693 236.008551 " transform="matrix(0.993226, 0, 0, -0.993226, -142.465641, 307.027023)"/>
<path fill="none" stroke-width="0.8" stroke-linecap="butt" stroke-linejoin="round" stroke="rgb(0%, 0%, 0%)" stroke-opacity="1" stroke-miterlimit="10" d="M 219.581989 264.628201 L 282.130693 236.008551 " transform="matrix(0.993226, 0, 0, -0.993226, -142.465641, 307.027023)"/>
<path fill="none" stroke-width="0.8" stroke-linecap="butt" stroke-linejoin="round" stroke="rgb(0%, 0%, 0%)" stroke-opacity="1" stroke-miterlimit="10" d="M 182.180193 210.311039 L 282.130693 236.008551 " transform="matrix(0.993226, 0, 0, -0.993226, -142.465641, 307.027023)"/>
<path fill="none" stroke-width="0.8" stroke-linecap="butt" stroke-linejoin="round" stroke="rgb(0%, 0%, 0%)" stroke-opacity="1" stroke-miterlimit="10" d="M 282.130693 236.008551 L 259.386782 204.01448 " transform="matrix(0.993226, 0, 0, -0.993226, -142.465641, 307.027023)"/>
<path fill="none" stroke-width="0.8" stroke-linecap="butt" stroke-linejoin="round" stroke="rgb(0%, 0%, 0%)" stroke-opacity="1" stroke-miterlimit="10" d="M 282.130693 236.008551 L 334.41455 220.1472 " transform="matrix(0.993226, 0, 0, -0.993226, -142.465641, 307.027023)"/>
<path fill="none" stroke-width="0.8" stroke-linecap="butt" stroke-linejoin="round" stroke="rgb(0%, 0%, 0%)" stroke-opacity="1" stroke-miterlimit="10" d="M 282.130693 236.008551 L 340.87629 226.030806 " transform="matrix(0.993226, 0, 0, -0.993226, -142.465641, 307.027023)"/>
<path fill="none" stroke-width="0.8" stroke-linecap="butt" stroke-linejoin="round" stroke="rgb(0%, 0%, 0%)" stroke-opacity="1" stroke-miterlimit="10" d="M 282.130693 236.008551 L 369.661121 234.934871 " transform="matrix(0.993226, 0, 0, -0.993226, -142.465641, 307.027023)"/>
<path fill="none" stroke-width="0.8" stroke-linecap="butt" stroke-linejoin="round" stroke="rgb(0%, 0%, 0%)" stroke-opacity="1" stroke-miterlimit="10" d="M 282.130693 236.008551 L 349.937672 282.306547 " transform="matrix(0.993226, 0, 0, -0.993226, -142.465641, 307.027023)"/>
<path fill="none" stroke-width="0.8" stroke-linecap="butt" stroke-linejoin="round" stroke="rgb(0%, 0%, 0%)" stroke-opacity="1" stroke-miterlimit="10" d="M 349.937672 282.306547 L 369.661121 234.934871 " transform="matrix(0.993226, 0, 0, -0.993226, -142.465641, 307.027023)"/>
<path fill="none" stroke-width="0.8" stroke-linecap="butt" stroke-linejoin="round" stroke="rgb(0%, 0%, 0%)" stroke-opacity="1" stroke-miterlimit="10" d="M 340.87629 226.030806 L 334.41455 220.1472 " transform="matrix(0.993226, 0, 0, -0.993226, -142.465641, 307.027023)"/>
<path fill="none" stroke-width="0.8" stroke-linecap="butt" stroke-linejoin="round" stroke="rgb(0%, 0%, 0%)" stroke-opacity="1" stroke-miterlimit="10" d="M 259.386782 204.01448 L 334.41455 220.1472 " transform="matrix(0.993226, 0, 0, -0.993226, -142.465641, 307.027023)"/>
<path fill="none" stroke-width="0.8" stroke-linecap="butt" stroke-linejoin="round" stroke="rgb(0%, 0%, 0%)" stroke-opacity="1" stroke-miterlimit="10" d="M 300.037147 263.601716 C 279.3934 268.686945 258.537278 256.074162 253.452049 235.430416 C 250.781616 224.5953 252.948639 213.130922 259.390715 204.01448 " transform="matrix(0.993226, 0, 0, -0.993226, -142.465641, 307.027023)"/>
<path fill="none" stroke-width="0.8" stroke-linecap="butt" stroke-linejoin="round" stroke="rgb(0%, 0%, 0%)" stroke-opacity="1" stroke-miterlimit="10" d="M 369.661121 234.934871 L 340.87629 226.030806 " transform="matrix(0.993226, 0, 0, -0.993226, -142.465641, 307.027023)"/>
<path fill="none" stroke-width="0.8" stroke-linecap="butt" stroke-linejoin="round" stroke="rgb(0%, 0%, 0%)" stroke-opacity="1" stroke-miterlimit="10" d="M 340.87629 226.030806 L 300.037147 263.601716 " transform="matrix(0.993226, 0, 0, -0.993226, -142.465641, 307.027023)"/>
<path fill="none" stroke-width="0.8" stroke-linecap="butt" stroke-linejoin="round" stroke="rgb(0%, 0%, 0%)" stroke-opacity="1" stroke-miterlimit="10" d="M 369.661121 234.934871 C 371.501715 224.261004 364.343852 214.114145 353.673918 212.273552 C 346.27615 210.995362 338.799723 214.051219 334.41455 220.1472 " transform="matrix(0.993226, 0, 0, -0.993226, -142.465641, 307.027023)"/>
<path fill-rule="evenodd" fill="rgb(100%, 100%, 100%)" fill-opacity="1" d="M 166.65625 73.378906 C 183.054688 70.574219 214.550781 77.476562 213.902344 83.734375 C 213.253906 89.988281 180.464844 95.597656 164.714844 92.148438 C 148.96875 88.695312 150.261719 76.183594 166.65625 73.378906 Z M 166.65625 73.378906 "/>
<path fill-rule="evenodd" fill="rgb(100%, 100%, 100%)" fill-opacity="1" d="M 140.128906 107.589844 C 132.40625 122.347656 98.34375 135.519531 85.398438 133.023438 C 72.457031 130.523438 80.632812 112.355469 88.351562 97.597656 C 96.074219 82.835938 103.339844 71.480469 116.285156 73.980469 C 129.226562 76.476562 147.847656 92.828125 140.128906 107.589844 Z M 140.128906 107.589844 "/>
<path fill-rule="evenodd" fill="rgb(100%, 100%, 100%)" fill-opacity="1" d="M 176.109375 62.984375 C 172.703125 49.8125 139.09375 27.558594 126.152344 24.378906 C 113.207031 21.199219 120.929688 37.09375 124.335938 50.265625 C 127.742188 63.4375 126.832031 73.882812 139.777344 77.0625 C 152.71875 80.242188 179.515625 76.152344 176.109375 62.984375 Z M 176.109375 62.984375 "/>
<path fill-rule="evenodd" fill="rgb(100%, 100%, 100%)" fill-opacity="1" d="M 155.09375 65.015625 C 174.851562 62.289062 212.09375 96.804688 210.957031 116.789062 C 209.824219 136.773438 170.308594 142.222656 151.6875 124.964844 C 133.066406 107.707031 135.339844 67.738281 155.09375 65.015625 Z M 155.09375 65.015625 "/>
<path fill-rule="evenodd" fill="rgb(100%, 100%, 100%)" fill-opacity="1" d="M 217.308594 34.589844 C 229.34375 43.445312 245.238281 70.695312 241.605469 89.769531 C 237.972656 108.84375 214.808594 119.746094 202.773438 110.890625 C 190.738281 102.03125 189.828125 73.421875 193.464844 54.34375 C 197.097656 35.269531 205.273438 25.734375 217.308594 34.589844 Z M 217.308594 34.589844 "/>
<path fill-rule="evenodd" fill="rgb(100%, 100%, 100%)" fill-opacity="1" d="M 89.726562 19.496094 C 100.851562 25.628906 104.941406 43.339844 97.902344 55.375 C 90.863281 67.410156 72.695312 73.769531 61.566406 67.636719 C 50.441406 61.507812 46.351562 42.886719 53.390625 30.847656 C 60.433594 18.816406 78.597656 13.363281 89.726562 19.496094 Z M 89.726562 19.496094 "/>
<path fill-rule="evenodd" fill="rgb(100%, 100%, 100%)" fill-opacity="1" d="M 77.585938 91.125 C 74.632812 84.085938 57.832031 75.003906 40.117188 80.90625 C 22.40625 86.8125 3.785156 107.703125 6.738281 114.742188 C 9.6875 121.78125 34.214844 114.96875 51.925781 109.066406 C 69.640625 103.160156 80.539062 98.167969 77.585938 91.125 Z M 77.585938 91.125 "/>
<path fill-rule="evenodd" fill="rgb(100%, 100%, 100%)" fill-opacity="1" d="M 186.996094 6.441406 C 202.4375 2.128906 226.964844 4.398438 237.863281 13.027344 C 248.761719 21.660156 246.039062 36.644531 230.597656 40.960938 C 215.15625 45.273438 186.996094 38.917969 176.097656 30.289062 C 165.195312 21.660156 171.554688 10.757812 186.996094 6.441406 Z M 186.996094 6.441406 "/>
<path fill-rule="evenodd" fill="rgb(100%, 100%, 100%)" fill-opacity="1" d="M 209.414062 64.382812 C 217.65625 80.605469 231.28125 105.585938 210.84375 119.210938 C 190.40625 132.835938 135.90625 135.109375 105.902344 118.097656 C 75.902344 101.089844 70.402344 64.800781 64.867188 46.636719 C 59.332031 28.46875 53.761719 28.421875 51.546875 39.1875 C 49.328125 49.953125 50.464844 71.523438 48.628906 76.523438 C 46.796875 81.523438 41.992188 69.949219 38.410156 58.070312 C 34.832031 46.191406 32.472656 34.003906 37.808594 25.664062 C 43.144531 17.324219 56.175781 12.835938 83.734375 14.738281 C 111.292969 16.640625 153.375 24.933594 174.417969 29.078125 C 195.460938 33.226562 195.460938 33.226562 196.890625 36.960938 C 198.316406 40.695312 201.171875 48.160156 209.414062 64.382812 Z M 209.414062 64.382812 "/>
<path fill="none" stroke-width="0.8" stroke-linecap="butt" stroke-linejoin="round" stroke="rgb(0%, 39.199829%, 0%)" stroke-opacity="1" stroke-miterlimit="10" d="M 311.230155 235.241637 C 327.740433 238.065453 359.451336 231.116034 358.798476 224.815542 C 358.145616 218.518983 325.132926 212.871351 309.275508 216.344094 C 293.422024 219.82077 294.723811 232.417821 311.230155 235.241637 Z M 311.230155 235.241637 " transform="matrix(0.993226, 0, 0, -0.993226, -142.465641, 307.027023)"/>
<path fill="none" stroke-width="0.8" stroke-linecap="butt" stroke-linejoin="round" stroke="rgb(12.5%, 12.5%, 12.5%)" stroke-opacity="1" stroke-miterlimit="10" d="M 284.521891 200.797375 C 276.746564 185.938912 242.451752 172.677202 229.418151 175.19032 C 216.388482 177.70737 224.620023 195.999248 232.391416 210.857711 C 240.166742 225.720107 247.48192 237.153022 260.515522 234.635972 C 273.545191 232.122854 292.293284 215.659771 284.521891 200.797375 Z M 284.521891 200.797375 " transform="matrix(0.993226, 0, 0, -0.993226, -142.465641, 307.027023)"/>
<path fill="none" stroke-width="0.8" stroke-linecap="butt" stroke-linejoin="round" stroke="rgb(0%, 0%, 54.499817%)" stroke-opacity="1" stroke-miterlimit="10" d="M 320.747752 245.707061 C 317.318271 258.96877 283.479674 281.374452 270.450005 284.575825 C 257.416404 287.777199 265.19173 271.774264 268.621211 258.512555 C 272.050692 245.250845 271.134329 234.734294 284.16793 231.53292 C 297.197599 228.331547 324.177234 232.449284 320.747752 245.707061 Z M 320.747752 245.707061 " transform="matrix(0.993226, 0, 0, -0.993226, -142.465641, 307.027023)"/>
<path fill="none" stroke-width="0.8" stroke-linecap="butt" stroke-linejoin="round" stroke="rgb(54.499817%, 0%, 54.499817%)" stroke-opacity="1" stroke-miterlimit="10" d="M 299.588797 243.661957 C 319.481361 246.407115 356.977547 211.656088 355.833076 191.535416 C 354.692537 171.414744 314.907409 165.928361 296.159316 183.303874 C 277.411223 200.679388 279.700166 240.920732 299.588797 243.661957 Z M 299.588797 243.661957 " transform="matrix(0.993226, 0, 0, -0.993226, -142.465641, 307.027023)"/>
<path fill="none" stroke-width="0.8" stroke-linecap="butt" stroke-linejoin="round" stroke="rgb(80.39856%, 6.298828%, 46.299744%)" stroke-opacity="1" stroke-miterlimit="10" d="M 362.227957 274.295248 C 374.345195 265.379383 390.34813 237.943533 386.690541 218.739225 C 383.032952 199.534917 359.710906 188.558217 347.593668 197.474082 C 335.47643 206.393879 334.560067 235.198375 338.221588 254.406616 C 341.879177 273.610924 350.110719 283.211112 362.227957 274.295248 Z M 362.227957 274.295248 " transform="matrix(0.993226, 0, 0, -0.993226, -142.465641, 307.027023)"/>
<path fill="none" stroke-width="0.8" stroke-linecap="butt" stroke-linejoin="round" stroke="rgb(54.499817%, 49.398804%, 39.99939%)" stroke-opacity="1" stroke-miterlimit="10" d="M 233.775794 289.49194 C 244.976669 283.3173 249.094406 265.485571 242.007336 253.368333 C 234.920266 241.251095 216.628388 234.848348 205.423581 241.022987 C 194.222706 247.193694 190.104969 265.941786 197.192039 278.062957 C 204.283042 290.176263 222.570987 295.666579 233.775794 289.49194 Z M 233.775794 289.49194 " transform="matrix(0.993226, 0, 0, -0.993226, -142.465641, 307.027023)"/>
<path fill="none" stroke-width="0.8" stroke-linecap="butt" stroke-linejoin="round" stroke="rgb(0%, 39.199829%, 0%)" stroke-opacity="1" stroke-miterlimit="10" d="M 221.552368 217.374512 C 218.579102 224.461582 201.663737 233.605554 183.828075 227.662955 C 165.996346 221.716424 147.248253 200.683321 150.221519 193.596251 C 153.190851 186.509181 177.885476 193.368143 195.717205 199.310742 C 213.552867 205.257274 224.525634 210.283509 221.552368 217.374512 Z M 221.552368 217.374512 " transform="matrix(0.993226, 0, 0, -0.993226, -142.465641, 307.027023)"/>
<path fill="none" stroke-width="0.8" stroke-linecap="butt" stroke-linejoin="round" stroke="rgb(54.499817%, 21.199036%, 14.898682%)" stroke-opacity="1" stroke-miterlimit="10" d="M 331.70872 302.635662 C 347.25544 306.977574 371.950064 304.692564 382.922831 296.004808 C 393.895598 287.313118 391.154372 272.226547 375.607653 267.880702 C 360.060934 263.53879 331.70872 269.937604 320.735954 278.625361 C 309.759254 287.313118 316.162001 298.289817 331.70872 302.635662 Z M 331.70872 302.635662 " transform="matrix(0.993226, 0, 0, -0.993226, -142.465641, 307.027023)"/>
<path fill="none" stroke-width="0.8" stroke-linecap="butt" stroke-linejoin="round" stroke="rgb(0%, 0%, 100%)" stroke-opacity="1" stroke-miterlimit="10" d="M 354.279584 244.299086 C 362.577984 227.965788 376.295909 202.814948 355.719022 189.097023 C 335.142134 175.379099 280.270435 173.090156 250.061897 190.217897 C 219.857292 207.341706 214.319781 243.878266 208.746874 262.166211 C 203.173967 280.458088 197.565664 280.505283 195.335715 269.666234 C 193.101832 258.827186 194.246304 237.10976 192.397845 232.075659 C 190.553319 227.041559 185.715862 238.694716 182.109401 250.654638 C 178.506873 262.61456 176.131406 274.885181 181.503736 283.281904 C 186.876065 291.678627 199.996191 296.197519 227.742739 294.282201 C 255.489287 292.366883 297.858325 284.017355 319.04481 279.844557 C 340.231296 275.667827 340.231296 275.667827 341.670734 271.907983 C 343.106239 268.148138 345.981183 260.632383 354.279584 244.299086 Z M 354.279584 244.299086 " transform="matrix(0.993226, 0, 0, -0.993226, -142.465641, 307.027023)"/>
<path fill-rule="evenodd" fill="rgb(54.499817%, 0%, 0%)" fill-opacity="0.1" stroke-width="0.8" stroke-linecap="butt" stroke-linejoin="round" stroke="rgb(0%, 39.199829%, 0%)" stroke-opacity="0.1" stroke-miterlimit="10" d="M 311.230155 235.241637 C 327.740433 238.065453 359.451336 231.116034 358.798476 224.815542 C 358.145616 218.518983 325.132926 212.871351 309.275508 216.344094 C 293.422024 219.82077 294.723811 232.417821 311.230155 235.241637 Z M 311.230155 235.241637 " transform="matrix(0.993226, 0, 0, -0.993226, -142.465641, 307.027023)"/>
<path fill-rule="evenodd" fill="rgb(54.499817%, 0%, 0%)" fill-opacity="0.1" stroke-width="0.8" stroke-linecap="butt" stroke-linejoin="round" stroke="rgb(12.5%, 12.5%, 12.5%)" stroke-opacity="0.1" stroke-miterlimit="10" d="M 284.521891 200.797375 C 276.746564 185.938912 242.451752 172.677202 229.418151 175.19032 C 216.388482 177.70737 224.620023 195.999248 232.391416 210.857711 C 240.166742 225.720107 247.48192 237.153022 260.515522 234.635972 C 273.545191 232.122854 292.293284 215.659771 284.521891 200.797375 Z M 284.521891 200.797375 " transform="matrix(0.993226, 0, 0, -0.993226, -142.465641, 307.027023)"/>
<path fill-rule="evenodd" fill="rgb(0%, 39.199829%, 0%)" fill-opacity="0.1" stroke-width="0.8" stroke-linecap="butt" stroke-linejoin="round" stroke="rgb(0%, 0%, 54.499817%)" stroke-opacity="0.1" stroke-miterlimit="10" d="M 320.747752 245.707061 C 317.318271 258.96877 283.479674 281.374452 270.450005 284.575825 C 257.416404 287.777199 265.19173 271.774264 268.621211 258.512555 C 272.050692 245.250845 271.134329 234.734294 284.16793 231.53292 C 297.197599 228.331547 324.177234 232.449284 320.747752 245.707061 Z M 320.747752 245.707061 " transform="matrix(0.993226, 0, 0, -0.993226, -142.465641, 307.027023)"/>
<path fill-rule="evenodd" fill="rgb(54.499817%, 0%, 0%)" fill-opacity="0.1" stroke-width="0.8" stroke-linecap="butt" stroke-linejoin="round" stroke="rgb(54.499817%, 0%, 54.499817%)" stroke-opacity="0.1" stroke-miterlimit="10" d="M 299.588797 243.661957 C 319.481361 246.407115 356.977547 211.656088 355.833076 191.535416 C 354.692537 171.414744 314.907409 165.928361 296.159316 183.303874 C 277.411223 200.679388 279.700166 240.920732 299.588797 243.661957 Z M 299.588797 243.661957 " transform="matrix(0.993226, 0, 0, -0.993226, -142.465641, 307.027023)"/>
<path fill-rule="evenodd" fill="rgb(59.999084%, 19.599915%, 79.998779%)" fill-opacity="0.1" stroke-width="0.8" stroke-linecap="butt" stroke-linejoin="round" stroke="rgb(80.39856%, 6.298828%, 46.299744%)" stroke-opacity="0.1" stroke-miterlimit="10" d="M 362.227957 274.295248 C 374.345195 265.379383 390.34813 237.943533 386.690541 218.739225 C 383.032952 199.534917 359.710906 188.558217 347.593668 197.474082 C 335.47643 206.393879 334.560067 235.198375 338.221588 254.406616 C 341.879177 273.610924 350.110719 283.211112 362.227957 274.295248 Z M 362.227957 274.295248 " transform="matrix(0.993226, 0, 0, -0.993226, -142.465641, 307.027023)"/>
<path fill-rule="evenodd" fill="rgb(54.499817%, 0%, 0%)" fill-opacity="0.1" stroke-width="0.8" stroke-linecap="butt" stroke-linejoin="round" stroke="rgb(54.499817%, 49.398804%, 39.99939%)" stroke-opacity="0.1" stroke-miterlimit="10" d="M 233.775794 289.49194 C 244.976669 283.3173 249.094406 265.485571 242.007336 253.368333 C 234.920266 241.251095 216.628388 234.848348 205.423581 241.022987 C 194.222706 247.193694 190.104969 265.941786 197.192039 278.062957 C 204.283042 290.176263 222.570987 295.666579 233.775794 289.49194 Z M 233.775794 289.49194 " transform="matrix(0.993226, 0, 0, -0.993226, -142.465641, 307.027023)"/>
<path fill-rule="evenodd" fill="rgb(54.499817%, 0%, 0%)" fill-opacity="0.1" stroke-width="0.8" stroke-linecap="butt" stroke-linejoin="round" stroke="rgb(0%, 39.199829%, 0%)" stroke-opacity="0.1" stroke-miterlimit="10" d="M 221.552368 217.374512 C 218.579102 224.461582 201.663737 233.605554 183.828075 227.662955 C 165.996346 221.716424 147.248253 200.683321 150.221519 193.596251 C 153.190851 186.509181 177.885476 193.368143 195.717205 199.310742 C 213.552867 205.257274 224.525634 210.283509 221.552368 217.374512 Z M 221.552368 217.374512 " transform="matrix(0.993226, 0, 0, -0.993226, -142.465641, 307.027023)"/>
<path fill-rule="evenodd" fill="rgb(100%, 54.899597%, 0%)" fill-opacity="0.1" stroke-width="0.8" stroke-linecap="butt" stroke-linejoin="round" stroke="rgb(54.499817%, 21.199036%, 14.898682%)" stroke-opacity="0.1" stroke-miterlimit="10" d="M 331.70872 302.635662 C 347.25544 306.977574 371.950064 304.692564 382.922831 296.004808 C 393.895598 287.313118 391.154372 272.226547 375.607653 267.880702 C 360.060934 263.53879 331.70872 269.937604 320.735954 278.625361 C 309.759254 287.313118 316.162001 298.289817 331.70872 302.635662 Z M 331.70872 302.635662 " transform="matrix(0.993226, 0, 0, -0.993226, -142.465641, 307.027023)"/>
<path fill-rule="evenodd" fill="rgb(0%, 0%, 100%)" fill-opacity="0.1" stroke-width="0.8" stroke-linecap="butt" stroke-linejoin="round" stroke="rgb(69.799805%, 13.299561%, 13.299561%)" stroke-opacity="0.1" stroke-miterlimit="10" d="M 354.279584 244.299086 C 362.577984 227.965788 376.295909 202.814948 355.719022 189.097023 C 335.142134 175.379099 280.270435 173.090156 250.061897 190.217897 C 219.857292 207.341706 214.319781 243.878266 208.746874 262.166211 C 203.173967 280.458088 197.565664 280.505283 195.335715 269.666234 C 193.101832 258.827186 194.246304 237.10976 192.397845 232.075659 C 190.553319 227.041559 185.715862 238.694716 182.109401 250.654638 C 178.506873 262.61456 176.131406 274.885181 181.503736 283.281904 C 186.876065 291.678627 199.996191 296.197519 227.742739 294.282201 C 255.489287 292.366883 297.858325 284.017355 319.04481 279.844557 C 340.231296 275.667827 340.231296 275.667827 341.670734 271.907983 C 343.106239 268.148138 345.981183 260.632383 354.279584 244.299086 Z M 354.279584 244.299086 " transform="matrix(0.993226, 0, 0, -0.993226, -142.465641, 307.027023)"/>
<path fill="none" stroke-width="0.8" stroke-linecap="butt" stroke-linejoin="round" stroke="rgb(0%, 0%, 0%)" stroke-opacity="0.3" stroke-miterlimit="10" d="M 300.037147 263.601716 L 282.130693 236.008551 " transform="matrix(0.993226, 0, 0, -0.993226, -142.465641, 307.027023)"/>
<path fill="none" stroke-width="0.8" stroke-linecap="butt" stroke-linejoin="round" stroke="rgb(0%, 0%, 0%)" stroke-opacity="0.3" stroke-miterlimit="10" d="M 219.581989 264.628201 L 282.130693 236.008551 " transform="matrix(0.993226, 0, 0, -0.993226, -142.465641, 307.027023)"/>
<path fill="none" stroke-width="0.8" stroke-linecap="butt" stroke-linejoin="round" stroke="rgb(0%, 0%, 0%)" stroke-opacity="0.3" stroke-miterlimit="10" d="M 182.180193 210.311039 L 282.130693 236.008551 " transform="matrix(0.993226, 0, 0, -0.993226, -142.465641, 307.027023)"/>
<path fill="none" stroke-width="0.8" stroke-linecap="butt" stroke-linejoin="round" stroke="rgb(0%, 0%, 0%)" stroke-opacity="0.3" stroke-miterlimit="10" d="M 282.130693 236.008551 L 259.386782 204.01448 " transform="matrix(0.993226, 0, 0, -0.993226, -142.465641, 307.027023)"/>
<path fill="none" stroke-width="0.8" stroke-linecap="butt" stroke-linejoin="round" stroke="rgb(0%, 0%, 0%)" stroke-opacity="0.3" stroke-miterlimit="10" d="M 282.130693 236.008551 L 334.41455 220.1472 " transform="matrix(0.993226, 0, 0, -0.993226, -142.465641, 307.027023)"/>
<path fill="none" stroke-width="0.8" stroke-linecap="butt" stroke-linejoin="round" stroke="rgb(0%, 0%, 0%)" stroke-opacity="0.3" stroke-miterlimit="10" d="M 282.130693 236.008551 L 340.87629 226.030806 " transform="matrix(0.993226, 0, 0, -0.993226, -142.465641, 307.027023)"/>
<path fill="none" stroke-width="0.8" stroke-linecap="butt" stroke-linejoin="round" stroke="rgb(0%, 0%, 0%)" stroke-opacity="0.3" stroke-miterlimit="10" d="M 282.130693 236.008551 L 369.661121 234.934871 " transform="matrix(0.993226, 0, 0, -0.993226, -142.465641, 307.027023)"/>
<path fill="none" stroke-width="0.8" stroke-linecap="butt" stroke-linejoin="round" stroke="rgb(0%, 0%, 0%)" stroke-opacity="0.3" stroke-miterlimit="10" d="M 282.130693 236.008551 L 349.937672 282.306547 " transform="matrix(0.993226, 0, 0, -0.993226, -142.465641, 307.027023)"/>
<path fill="none" stroke-width="0.8" stroke-linecap="butt" stroke-linejoin="round" stroke="rgb(0%, 0%, 0%)" stroke-opacity="0.3" stroke-miterlimit="10" d="M 349.937672 282.306547 L 369.661121 234.934871 " transform="matrix(0.993226, 0, 0, -0.993226, -142.465641, 307.027023)"/>
<path fill="none" stroke-width="0.8" stroke-linecap="butt" stroke-linejoin="round" stroke="rgb(0%, 0%, 0%)" stroke-opacity="0.3" stroke-miterlimit="10" d="M 340.87629 226.030806 L 334.41455 220.1472 " transform="matrix(0.993226, 0, 0, -0.993226, -142.465641, 307.027023)"/>
<path fill="none" stroke-width="0.8" stroke-linecap="butt" stroke-linejoin="round" stroke="rgb(0%, 0%, 0%)" stroke-opacity="0.3" stroke-miterlimit="10" d="M 259.386782 204.01448 L 334.41455 220.1472 " transform="matrix(0.993226, 0, 0, -0.993226, -142.465641, 307.027023)"/>
<path fill="none" stroke-width="0.8" stroke-linecap="butt" stroke-linejoin="round" stroke="rgb(0%, 0%, 0%)" stroke-opacity="0.3" stroke-miterlimit="10" d="M 300.037147 263.601716 C 279.3934 268.686945 258.537278 256.074162 253.452049 235.430416 C 250.781616 224.5953 252.948639 213.130922 259.390715 204.01448 " transform="matrix(0.993226, 0, 0, -0.993226, -142.465641, 307.027023)"/>
<path fill="none" stroke-width="0.8" stroke-linecap="butt" stroke-linejoin="round" stroke="rgb(0%, 0%, 0%)" stroke-opacity="0.3" stroke-miterlimit="10" d="M 369.661121 234.934871 L 340.87629 226.030806 " transform="matrix(0.993226, 0, 0, -0.993226, -142.465641, 307.027023)"/>
<path fill="none" stroke-width="0.8" stroke-linecap="butt" stroke-linejoin="round" stroke="rgb(0%, 0%, 0%)" stroke-opacity="0.3" stroke-miterlimit="10" d="M 340.87629 226.030806 L 300.037147 263.601716 " transform="matrix(0.993226, 0, 0, -0.993226, -142.465641, 307.027023)"/>
<path fill="none" stroke-width="0.8" stroke-linecap="butt" stroke-linejoin="round" stroke="rgb(0%, 0%, 0%)" stroke-opacity="0.3" stroke-miterlimit="10" d="M 369.661121 234.934871 C 371.501715 224.261004 364.343852 214.114145 353.673918 212.273552 C 346.27615 210.995362 338.799723 214.051219 334.41455 220.1472 " transform="matrix(0.993226, 0, 0, -0.993226, -142.465641, 307.027023)"/>
<path fill-rule="evenodd" fill="rgb(100%, 100%, 0%)" fill-opacity="1" d="M 117.648438 104.394531 C 117.648438 103.023438 116.535156 101.910156 115.164062 101.910156 C 113.792969 101.910156 112.683594 103.023438 112.683594 104.394531 C 112.683594 105.765625 113.792969 106.878906 115.164062 106.878906 C 116.535156 106.878906 117.648438 105.765625 117.648438 104.394531 "/>
<path fill-rule="evenodd" fill="rgb(0%, 0%, 0%)" fill-opacity="1" d="M 118.144531 104.394531 C 118.144531 102.75 116.8125 101.414062 115.164062 101.414062 C 113.519531 101.414062 112.1875 102.75 112.1875 104.394531 C 112.1875 106.039062 113.519531 107.375 115.164062 107.375 C 116.8125 107.375 118.144531 106.039062 118.144531 104.394531 M 117.152344 104.394531 C 117.152344 103.296875 116.261719 102.410156 115.164062 102.410156 C 114.070312 102.410156 113.179688 103.296875 113.179688 104.394531 C 113.179688 105.492188 114.070312 106.382812 115.164062 106.382812 C 116.261719 106.382812 117.152344 105.492188 117.152344 104.394531 "/>
<path fill-rule="evenodd" fill="rgb(100%, 100%, 0%)" fill-opacity="1" d="M 198.585938 82.527344 C 198.585938 81.15625 197.472656 80.042969 196.101562 80.042969 C 194.730469 80.042969 193.621094 81.15625 193.621094 82.527344 C 193.621094 83.898438 194.730469 85.011719 196.101562 85.011719 C 197.472656 85.011719 198.585938 83.898438 198.585938 82.527344 "/>
<path fill-rule="evenodd" fill="rgb(0%, 39.199829%, 0%)" fill-opacity="1" d="M 199.082031 82.527344 C 199.082031 80.882812 197.746094 79.546875 196.101562 79.546875 C 194.457031 79.546875 193.121094 80.882812 193.121094 82.527344 C 193.121094 84.171875 194.457031 85.507812 196.101562 85.507812 C 197.746094 85.507812 199.082031 84.171875 199.082031 82.527344 M 198.089844 82.527344 C 198.089844 81.429688 197.199219 80.539062 196.101562 80.539062 C 195.003906 80.539062 194.117188 81.429688 194.117188 82.527344 C 194.117188 83.625 195.003906 84.511719 196.101562 84.511719 C 197.199219 84.511719 198.089844 83.625 198.089844 82.527344 "/>
<path fill-rule="evenodd" fill="rgb(100%, 100%, 0%)" fill-opacity="1" d="M 227.171875 73.683594 C 227.171875 72.3125 226.0625 71.199219 224.691406 71.199219 C 223.320312 71.199219 222.207031 72.3125 222.207031 73.683594 C 222.207031 75.054688 223.320312 76.167969 224.691406 76.167969 C 226.0625 76.167969 227.171875 75.054688 227.171875 73.683594 "/>
<path fill-rule="evenodd" fill="rgb(40.79895%, 13.299561%, 54.499817%)" fill-opacity="1" d="M 227.671875 73.683594 C 227.671875 72.039062 226.335938 70.703125 224.691406 70.703125 C 223.046875 70.703125 221.710938 72.039062 221.710938 73.683594 C 221.710938 75.328125 223.046875 76.664062 224.691406 76.664062 C 226.335938 76.664062 227.671875 75.328125 227.671875 73.683594 M 226.675781 73.683594 C 226.675781 72.585938 225.789062 71.695312 224.691406 71.695312 C 223.59375 71.695312 222.703125 72.585938 222.703125 73.683594 C 222.703125 74.78125 223.59375 75.667969 224.691406 75.667969 C 225.789062 75.667969 226.675781 74.78125 226.675781 73.683594 "/>
<path fill-rule="evenodd" fill="rgb(100%, 100%, 0%)" fill-opacity="1" d="M 78.113281 44.191406 C 78.113281 42.820312 77 41.707031 75.628906 41.707031 C 74.257812 41.707031 73.148438 42.820312 73.148438 44.191406 C 73.148438 45.5625 74.257812 46.675781 75.628906 46.675781 C 77 46.675781 78.113281 45.5625 78.113281 44.191406 "/>
<path fill-rule="evenodd" fill="rgb(54.499817%, 49.398804%, 39.99939%)" fill-opacity="1" d="M 78.609375 44.191406 C 78.609375 42.546875 77.277344 41.210938 75.628906 41.210938 C 73.984375 41.210938 72.648438 42.546875 72.648438 44.191406 C 72.648438 45.835938 73.984375 47.171875 75.628906 47.171875 C 77.277344 47.171875 78.609375 45.835938 78.609375 44.191406 M 77.617188 44.191406 C 77.617188 43.09375 76.726562 42.207031 75.628906 42.207031 C 74.535156 42.207031 73.644531 43.09375 73.644531 44.191406 C 73.644531 45.289062 74.535156 46.179688 75.628906 46.179688 C 76.726562 46.179688 77.617188 45.289062 77.617188 44.191406 "/>
<path fill-rule="evenodd" fill="rgb(100%, 100%, 0%)" fill-opacity="1" d="M 207.582031 26.632812 C 207.582031 25.261719 206.472656 24.148438 205.101562 24.148438 C 203.730469 24.148438 202.617188 25.261719 202.617188 26.632812 C 202.617188 28.003906 203.730469 29.117188 205.101562 29.117188 C 206.472656 29.117188 207.582031 28.003906 207.582031 26.632812 "/>
<path fill-rule="evenodd" fill="rgb(54.499817%, 21.199036%, 14.898682%)" fill-opacity="1" d="M 208.082031 26.632812 C 208.082031 24.988281 206.746094 23.652344 205.101562 23.652344 C 203.457031 23.652344 202.121094 24.988281 202.121094 26.632812 C 202.121094 28.277344 203.457031 29.613281 205.101562 29.613281 C 206.746094 29.613281 208.082031 28.277344 208.082031 26.632812 M 207.085938 26.632812 C 207.085938 25.535156 206.199219 24.644531 205.101562 24.644531 C 204.003906 24.644531 203.113281 25.535156 203.113281 26.632812 C 203.113281 27.730469 204.003906 28.617188 205.101562 28.617188 C 206.199219 28.617188 207.085938 27.730469 207.085938 26.632812 "/>
<path fill-rule="evenodd" fill="rgb(100%, 100%, 0%)" fill-opacity="1" d="M 40.960938 98.140625 C 40.960938 96.769531 39.851562 95.660156 38.480469 95.660156 C 37.109375 95.660156 35.996094 96.769531 35.996094 98.140625 C 35.996094 99.511719 37.109375 100.625 38.480469 100.625 C 39.851562 100.625 40.960938 99.511719 40.960938 98.140625 "/>
<path fill-rule="evenodd" fill="rgb(0%, 39.199829%, 0%)" fill-opacity="1" d="M 41.457031 98.140625 C 41.457031 96.496094 40.125 95.160156 38.480469 95.160156 C 36.832031 95.160156 35.5 96.496094 35.5 98.140625 C 35.5 99.789062 36.832031 101.121094 38.480469 101.121094 C 40.125 101.121094 41.457031 99.789062 41.457031 98.140625 M 40.464844 98.140625 C 40.464844 97.042969 39.578125 96.15625 38.480469 96.15625 C 37.382812 96.15625 36.492188 97.042969 36.492188 98.140625 C 36.492188 99.238281 37.382812 100.128906 38.480469 100.128906 C 39.578125 100.128906 40.464844 99.238281 40.464844 98.140625 "/>
<path fill-rule="evenodd" fill="rgb(100%, 100%, 0%)" fill-opacity="1" d="M 140.238281 72.617188 C 140.238281 71.246094 139.125 70.132812 137.753906 70.132812 C 136.382812 70.132812 135.269531 71.246094 135.269531 72.617188 C 135.269531 73.988281 136.382812 75.101562 137.753906 75.101562 C 139.125 75.101562 140.238281 73.988281 140.238281 72.617188 "/>
<path fill-rule="evenodd" fill="rgb(0%, 0%, 100%)" fill-opacity="1" d="M 140.734375 72.617188 C 140.734375 70.972656 139.398438 69.636719 137.753906 69.636719 C 136.109375 69.636719 134.773438 70.972656 134.773438 72.617188 C 134.773438 74.261719 136.109375 75.597656 137.753906 75.597656 C 139.398438 75.597656 140.734375 74.261719 140.734375 72.617188 M 139.742188 72.617188 C 139.742188 71.519531 138.851562 70.628906 137.753906 70.628906 C 136.65625 70.628906 135.769531 71.519531 135.769531 72.617188 C 135.769531 73.714844 136.65625 74.601562 137.753906 74.601562 C 138.851562 74.601562 139.742188 73.714844 139.742188 72.617188 "/>
<path fill-rule="evenodd" fill="rgb(100%, 100%, 0%)" fill-opacity="1" d="M 158.023438 45.210938 C 158.023438 43.84375 156.910156 42.730469 155.539062 42.730469 C 154.167969 42.730469 153.054688 43.84375 153.054688 45.210938 C 153.054688 46.585938 154.167969 47.695312 155.539062 47.695312 C 156.910156 47.695312 158.023438 46.585938 158.023438 45.210938 "/>
<path fill-rule="evenodd" fill="rgb(0%, 0%, 54.499817%)" fill-opacity="1" d="M 158.519531 45.210938 C 158.519531 43.566406 157.183594 42.234375 155.539062 42.234375 C 153.894531 42.234375 152.558594 43.566406 152.558594 45.210938 C 152.558594 46.859375 153.894531 48.191406 155.539062 48.191406 C 157.183594 48.191406 158.519531 46.859375 158.519531 45.210938 M 157.523438 45.210938 C 157.523438 44.117188 156.636719 43.226562 155.539062 43.226562 C 154.441406 43.226562 153.550781 44.117188 153.550781 45.210938 C 153.550781 46.308594 154.441406 47.199219 155.539062 47.199219 C 156.636719 47.199219 157.523438 46.308594 157.523438 45.210938 "/>
<path fill-rule="evenodd" fill="rgb(100%, 100%, 0%)" fill-opacity="1" d="M 192.167969 88.371094 C 192.167969 87 191.054688 85.890625 189.683594 85.890625 C 188.3125 85.890625 187.199219 87 187.199219 88.371094 C 187.199219 89.742188 188.3125 90.855469 189.683594 90.855469 C 191.054688 90.855469 192.167969 89.742188 192.167969 88.371094 "/>
<path fill-rule="evenodd" fill="rgb(54.499817%, 0%, 54.499817%)" fill-opacity="1" d="M 192.664062 88.371094 C 192.664062 86.726562 191.328125 85.394531 189.683594 85.394531 C 188.039062 85.394531 186.703125 86.726562 186.703125 88.371094 C 186.703125 90.015625 188.039062 91.351562 189.683594 91.351562 C 191.328125 91.351562 192.664062 90.015625 192.664062 88.371094 M 191.667969 88.371094 C 191.667969 87.273438 190.78125 86.386719 189.683594 86.386719 C 188.585938 86.386719 187.695312 87.273438 187.695312 88.371094 C 187.695312 89.46875 188.585938 90.359375 189.683594 90.359375 C 190.78125 90.359375 191.667969 89.46875 191.667969 88.371094 "/>
</svg>
