<?xml version="1.0" encoding="UTF-8"?>
<svg xmlns="http://www.w3.org/2000/svg" xmlns:xlink="http://www.w3.org/1999/xlink" width="253.137" height="145.011" viewBox="0 0 253.137 145.011">
<path fill="none" stroke-width="0.8" stroke-linecap="butt" stroke-linejoin="round" stroke="rgb(0%, 0%, 0%)" stroke-opacity="1" stroke-miterlimit="10" d="M 300.037147 263.601716 L 282.130693 236.008551 " transform="matrix(0.993226, 0, 0, -0.993226, -142.465641, 307.027023)"/>
<path fill="none" stroke-width="0.8" stroke-linecap="butt" stroke-linejoin="round" stroke="rgb(0%, 0%, 0%)" stroke-opacity="1" stroke-miterlimit="10" d="M 219.581989 264.628201 L 282.130693 236.008551 " transform="matrix(0.993226, 0, 0, -0.993226, -142.465641, 307.027023)"/>
<path fill="none" stroke-width="0.8" stroke-linecap="butt" stroke-linejoin="round" stroke="rgb(0%, 0%, 0%)" stroke-opacity="1" stroke-miterlimit="10" d="M 182.180193 210.311039 L 282.130693 236.008551 " transform="matrix(0.993226, 0, 0, -0.993226, -142.465641, 307.027023)"/>
<path fill="none" stroke-width="0.8" stroke-linecap="butt" stroke-linejoin="round" stroke="rgb(0%, 0%, 0%)" stroke-opacity="1" stroke-miterlimit="10" d="M 282.130693 236.008551 L 259.386782 204.01448 " transform="matrix(0.993226, 0, 0, -0.993226, -142.465641, 307.027023)"/>
<path fill="none" stroke-width="0.8" stroke-linecap="butt" stroke-linejoin="round" stroke="rgb(0%, 0%, 0%)" stroke-opacity="1" stroke-miterlimit="10" d="M 282.130693 236.008551 L 334.41455 220.1472 " transform="matrix(0.993226, 0, 0, -0.993226, -142.465641, 307.027023)"/>
<path fill="none" stroke-width="0.8" stroke-linecap="butt" stroke-linejoin="round" stroke="rgb(0%, 0%, 0%)" stroke-opacity="1" stroke-miterlimit="10" d="M 282.130693 236.008551 L 340.87629 226.030806 " transform="matrix(0.993226, 0, 0, -0.993226, -142.465641, 307.027023)"/>
<path fill="none" stroke-width="0.8" stroke-linecap="butt" stroke-linejoin="round" stroke="rgb(0%, 0%, 0%)" stroke-opacity="1" stroke-miterlimit="10" d="M 282.130693 236.008551 L 369.661121 234.934871 " transform="matrix(0.993226, 0, 0, -0.993226, -142.465641, 307.027023)"/>
<path fill="none" stroke-width="0.8" stroke-linecap="butt" stroke-linejoin="round" stroke="rgb(0%, 0%, 0%)" stroke-opacity="1" stroke-miterlimit="10" d="M 282.130693 236.008551 L 349.937672 282.306547 " transform="matrix(0.993226, 0, 0, -0.993226, -142.465641, 307.027023)"/>
<path fill="none" stroke-width="0.8" stroke-linecap="butt" stroke-linejoin="round" stroke="rgb(0%, 0%, 0%)" stroke-opacity="1" stroke-miterlimit="10" d="M 349.937672 282.306547 L 369.661121 234.934871 " transform="matrix(0.993226, 0, 0, -0.993226, -142.465641, 307.027023)"/>
<path fill="none" stroke-width="0.8" stroke-linecap="butt" stroke-linejoin="round" stroke="rgb(0%, 0%, 0%)" stroke-opacity="1" stroke-miterlimit="10" d="M 340.87629 226.030806 L 334.41455 220.1472 " transform="matrix(0.993226, 0, 0, -0.993226, -142.465641, 307.027023)"/>
<path fill="none" stroke-width="0.8" stroke-linecap="butt" stroke-linejoin="round" stroke="rgb(0%, 0%, 0%)" stroke-opacity="1" stroke-miterlimit="10" d="M 259.386782 204.01448 L 334.41455 220.1472 " transform="matrix(0.993226, 0, 0, -0.993226, -142.465641, 307.027023)"/>
<path fill="none" stroke-width="0.8" stroke-linecap="butt" stroke-linejoin="round" stroke="rgb(0%, 0%, 0%)" stroke-opacity="1" stroke-miterlimit="10" d="M 300.037147 263.601716 C 279.3934 268.686945 258.537278 256.074162 253.452049 235.430416 C 250.781616 224.5953 252.948639 213.130922 259.390715 204.01448 " transform="matrix(0.993226, 0, 0, -0.993226, -142.465641, 307.027023)"/>
<path fill="none" stroke-width="0.8" stroke-linecap="butt" stroke-linejoin="round" stroke="rgb(0%, 0%, 0%)" stroke-opacity="1" stroke-miterlimit="10" d="M 369.661121 234.934871 L 340.87629 226.030806 " transform="matrix(0.993226, 0, 0, -0.993226, -142.465641, 307.027023)"/>
<path fill="none" stroke-width="0.8" stroke-linecap="butt" stroke-linejoin="round" stroke="rgb(0%, 0%, 0%)" stroke-opacity="1" stroke-miterlimit="10" d="M 340.87629 226.030806 L 300.037147 263.601716 " transform="matrix(0.993226, 0, 0, -0.993226, -142.465641, 307.027023)"/>
<path fill="none" stroke-width="0.8" stroke-linecap="butt" stroke-linejoin="round" stroke="rgb(0%, 0%, 0%)" stroke-opacity="1" stroke-miterlimit="10" d="M 369.661121 234.934871 C 371.501715 224.261004 364.343852 214.114145 353.673918 212.273552 C 346.27615 210.995362 338.799723 214.051219 334.41455 220.1472 " transform="matrix(0.993226, 0, 0, -0.993226, -142.465641, 307.027023)"/>
<path fill-rule="evenodd" fill="rgb(100%, 100%, 100%)" fill-opacity="1" d="M 168.167969 73.832031 C 183.742188 71.167969 213.664062 77.726562 213.050781 83.667969 C 212.4375 89.613281 181.285156 94.941406 166.324219 91.660156 C 151.363281 88.382812 152.59375 76.496094 168.167969 73.832031 Z M 168.167969 73.832031 "/>
<path fill-rule="evenodd" fill="rgb(100%, 100%, 100%)" fill-opacity="1" d="M 138.890625 107.429688 C 131.554688 121.453125 99.195312 133.964844 86.898438 131.589844 C 74.601562 129.21875 82.367188 111.960938 89.703125 97.9375 C 97.039062 83.914062 103.941406 73.128906 116.238281 75.5 C 128.535156 77.875 146.226562 93.40625 138.890625 107.429688 Z M 138.890625 107.429688 "/>
<path fill-rule="evenodd" fill="rgb(100%, 100%, 100%)" fill-opacity="1" d="M 175.097656 62.074219 C 171.863281 49.5625 139.933594 28.421875 127.636719 25.398438 C 115.34375 22.378906 122.675781 37.480469 125.914062 49.992188 C 129.148438 62.503906 128.285156 72.429688 140.582031 75.449219 C 152.878906 78.46875 178.335938 74.585938 175.097656 62.074219 Z M 175.097656 62.074219 "/>
<path fill-rule="evenodd" fill="rgb(100%, 100%, 100%)" fill-opacity="1" d="M 156.84375 66.148438 C 175.613281 63.5625 210.992188 96.351562 209.914062 115.335938 C 208.835938 134.320312 171.296875 139.5 153.609375 123.101562 C 135.917969 106.707031 138.074219 68.738281 156.84375 66.148438 Z M 156.84375 66.148438 "/>
<path fill-rule="evenodd" fill="rgb(100%, 100%, 100%)" fill-opacity="1" d="M 217.691406 36.53125 C 229.128906 44.945312 244.226562 70.832031 240.777344 88.953125 C 237.324219 107.074219 215.320312 117.429688 203.886719 109.015625 C 192.453125 100.601562 191.589844 73.421875 195.042969 55.300781 C 198.492188 37.175781 206.261719 28.117188 217.691406 36.53125 Z M 217.691406 36.53125 "/>
<path fill-rule="evenodd" fill="rgb(100%, 100%, 100%)" fill-opacity="1" d="M 89.023438 20.722656 C 99.59375 26.546875 103.476562 43.375 96.789062 54.808594 C 90.101562 66.242188 72.84375 72.28125 62.269531 66.457031 C 51.699219 60.632812 47.816406 42.941406 54.503906 31.507812 C 61.191406 20.074219 78.449219 14.898438 89.023438 20.722656 Z M 89.023438 20.722656 "/>
<path fill-rule="evenodd" fill="rgb(100%, 100%, 100%)" fill-opacity="1" d="M 75.621094 91.433594 C 72.816406 84.746094 56.855469 76.117188 40.027344 81.726562 C 23.199219 87.335938 5.511719 107.183594 8.316406 113.871094 C 11.121094 120.558594 34.417969 114.085938 51.246094 108.476562 C 68.074219 102.867188 78.429688 98.121094 75.621094 91.433594 Z M 75.621094 91.433594 "/>
<path fill-rule="evenodd" fill="rgb(100%, 100%, 100%)" fill-opacity="1" d="M 187.90625 7.410156 C 202.574219 3.308594 225.875 5.464844 236.230469 13.664062 C 246.582031 21.863281 243.996094 36.101562 229.324219 40.199219 C 214.65625 44.300781 187.90625 38.257812 177.550781 30.058594 C 167.195312 21.863281 173.234375 11.507812 187.90625 7.410156 Z M 187.90625 7.410156 "/>
<path fill-rule="evenodd" fill="rgb(100%, 100%, 100%)" fill-opacity="1" d="M 205.820312 64.808594 C 213.648438 80.222656 226.589844 103.949219 207.175781 116.894531 C 187.761719 129.839844 135.984375 131.996094 107.484375 115.839844 C 78.984375 99.679688 73.757812 65.207031 68.5 47.945312 C 63.242188 30.6875 57.949219 30.644531 55.84375 40.871094 C 53.738281 51.097656 54.816406 71.589844 53.074219 76.339844 C 51.332031 81.089844 46.769531 70.097656 43.367188 58.808594 C 39.964844 47.523438 37.722656 35.945312 42.792969 28.023438 C 47.863281 20.101562 60.242188 15.839844 86.425781 17.644531 C 112.605469 19.453125 152.585938 27.332031 172.574219 31.269531 C 192.5625 35.207031 192.5625 35.207031 193.921875 38.753906 C 195.277344 42.300781 197.992188 49.394531 205.820312 64.808594 Z M 205.820312 64.808594 "/>
<path fill="none" stroke-width="0.8" stroke-linecap="butt" stroke-linejoin="round" stroke="rgb(0%, 39.199829%, 0%)" stroke-opacity="1" stroke-miterlimit="10" d="M 312.752184 234.785422 C 328.432622 237.467653 358.558569 230.864329 357.941105 224.882401 C 357.323641 218.896541 325.958833 213.532077 310.89586 216.835706 C 295.832886 220.135401 297.071747 232.10319 312.752184 234.785422 Z M 312.752184 234.785422 " transform="matrix(0.993226, 0, 0, -0.993226, -142.465641, 307.027023)"/>
<path fill="none" stroke-width="0.8" stroke-linecap="butt" stroke-linejoin="round" stroke="rgb(12.5%, 12.5%, 12.5%)" stroke-opacity="1" stroke-miterlimit="10" d="M 283.275164 200.958624 C 275.889194 186.839544 243.309123 174.242493 230.928381 176.633691 C 218.547639 179.020956 226.366227 196.39647 233.752197 210.515549 C 241.138167 224.634629 248.087586 235.493342 260.468327 233.106077 C 272.849069 230.714879 290.661134 215.077703 283.275164 200.958624 Z M 283.275164 200.958624 " transform="matrix(0.993226, 0, 0, -0.993226, -142.465641, 307.027023)"/>
<path fill="none" stroke-width="0.8" stroke-linecap="butt" stroke-linejoin="round" stroke="rgb(0%, 0%, 54.499817%)" stroke-opacity="1" stroke-miterlimit="10" d="M 319.729133 246.623424 C 316.472699 259.220475 284.325246 280.505283 271.944504 283.549341 C 259.567695 286.589466 266.949732 271.384908 270.210099 258.787857 C 273.466533 246.190806 272.597364 236.19733 284.978106 233.157205 C 297.358848 230.11708 322.9895 234.026374 319.729133 246.623424 Z M 319.729133 246.623424 " transform="matrix(0.993226, 0, 0, -0.993226, -142.465641, 307.027023)"/>
<path fill="none" stroke-width="0.8" stroke-linecap="butt" stroke-linejoin="round" stroke="rgb(54.499817%, 0%, 54.499817%)" stroke-opacity="1" stroke-miterlimit="10" d="M 301.350732 242.521419 C 320.248275 245.124993 355.868472 212.112303 354.782994 192.998452 C 353.697516 173.8846 315.90243 168.669586 298.094298 185.179864 C 280.282234 201.686208 282.45319 239.913912 301.350732 242.521419 Z M 301.350732 242.521419 " transform="matrix(0.993226, 0, 0, -0.993226, -142.465641, 307.027023)"/>
<path fill="none" stroke-width="0.8" stroke-linecap="butt" stroke-linejoin="round" stroke="rgb(80.39856%, 6.298828%, 46.299744%)" stroke-opacity="1" stroke-miterlimit="10" d="M 362.61338 272.340601 C 374.128886 263.869153 389.329511 237.805882 385.856768 219.561199 C 382.380092 201.316517 360.226115 190.890422 348.714542 199.36187 C 337.202969 207.833318 336.333801 235.198375 339.810476 253.443058 C 343.283219 271.691674 351.10574 280.812048 362.61338 272.340601 Z M 362.61338 272.340601 " transform="matrix(0.993226, 0, 0, -0.993226, -142.465641, 307.027023)"/>
<path fill="none" stroke-width="0.8" stroke-linecap="butt" stroke-linejoin="round" stroke="rgb(54.499817%, 49.398804%, 39.99939%)" stroke-opacity="1" stroke-miterlimit="10" d="M 233.067874 288.257012 C 243.710278 282.393071 247.619572 265.450175 240.886462 253.938602 C 234.153352 242.427029 216.777838 236.346779 206.131501 242.21072 C 195.489097 248.074661 191.579803 265.886726 198.312913 277.398299 C 205.046023 288.909872 222.421537 294.120953 233.067874 288.257012 Z M 233.067874 288.257012 " transform="matrix(0.993226, 0, 0, -0.993226, -142.465641, 307.027023)"/>
<path fill="none" stroke-width="0.8" stroke-linecap="butt" stroke-linejoin="round" stroke="rgb(0%, 39.199829%, 0%)" stroke-opacity="1" stroke-miterlimit="10" d="M 219.574124 217.063813 C 216.750308 223.796923 200.680514 232.48468 183.737618 226.837048 C 166.794722 221.189416 148.986591 201.206396 151.810407 194.473286 C 154.634223 187.740176 178.089986 194.256977 195.032882 199.904609 C 211.975778 205.552241 222.401873 210.330703 219.574124 217.063813 Z M 219.574124 217.063813 " transform="matrix(0.993226, 0, 0, -0.993226, -142.465641, 307.027023)"/>
<path fill="none" stroke-width="0.8" stroke-linecap="butt" stroke-linejoin="round" stroke="rgb(54.499817%, 21.199036%, 14.898682%)" stroke-opacity="1" stroke-miterlimit="10" d="M 332.625084 301.660305 C 347.393091 305.789841 370.852787 303.618885 381.278882 295.363746 C 391.701044 287.108607 389.09747 272.773219 374.32553 268.647616 C 359.557524 264.51808 332.625084 270.602263 322.198989 278.857401 C 311.772894 287.108607 317.853144 297.534702 332.625084 301.660305 Z M 332.625084 301.660305 " transform="matrix(0.993226, 0, 0, -0.993226, -142.465641, 307.027023)"/>
<path fill="none" stroke-width="0.8" stroke-linecap="butt" stroke-linejoin="round" stroke="rgb(0%, 0%, 100%)" stroke-opacity="1" stroke-miterlimit="10" d="M 350.661324 243.8704 C 358.542838 228.351211 371.572507 204.46283 352.026037 191.429228 C 332.479567 178.395626 280.349093 176.22467 251.654718 192.491109 C 222.960343 208.76148 217.698135 243.469246 212.404463 260.848692 C 207.110791 278.224206 201.781723 278.267468 199.661895 267.971158 C 197.542067 257.674849 198.627545 237.042901 196.873475 232.260505 C 195.119406 227.47811 190.525789 238.545266 187.10024 249.911322 C 183.674692 261.273444 181.417212 272.930534 186.522105 280.906438 C 191.626998 288.882341 204.090331 293.173126 230.452501 291.35613 C 256.810738 289.535201 297.063881 281.60256 317.188486 277.638205 C 337.31309 273.673851 337.31309 273.673851 338.681737 270.102785 C 340.04645 266.53172 342.779809 259.38959 350.661324 243.8704 Z M 350.661324 243.8704 " transform="matrix(0.993226, 0, 0, -0.993226, -142.465641, 307.027023)"/>
<path fill-rule="evenodd" fill="rgb(54.499817%, 0%, 0%)" fill-opacity="0.1" stroke-width="0.8" stroke-linecap="butt" stroke-linejoin="round" stroke="rgb(0%, 39.199829%, 0%)" stroke-opacity="0.1" stroke-miterlimit="10" d="M 312.752184 234.785422 C 328.432622 237.467653 358.558569 230.864329 357.941105 224.882401 C 357.323641 218.896541 325.958833 213.532077 310.89586 216.835706 C 295.832886 220.135401 297.071747 232.10319 312.752184 234.785422 Z M 312.752184 234.785422 " transform="matrix(0.993226, 0, 0, -0.993226, -142.465641, 307.027023)"/>
<path fill-rule="evenodd" fill="rgb(54.499817%, 0%, 0%)" fill-opacity="0.1" stroke-width="0.8" stroke-linecap="butt" stroke-linejoin="round" stroke="rgb(12.5%, 12.5%, 12.5%)" stroke-opacity="0.1" stroke-miterlimit="10" d="M 283.275164 200.958624 C 275.889194 186.839544 243.309123 174.242493 230.928381 176.633691 C 218.547639 179.020956 226.366227 196.39647 233.752197 210.515549 C 241.138167 224.634629 248.087586 235.493342 260.468327 233.106077 C 272.849069 230.714879 290.661134 215.077703 283.275164 200.958624 Z M 283.275164 200.958624 " transform="matrix(0.993226, 0, 0, -0.993226, -142.465641, 307.027023)"/>
<path fill-rule="evenodd" fill="rgb(0%, 39.199829%, 0%)" fill-opacity="0.1" stroke-width="0.8" stroke-linecap="butt" stroke-linejoin="round" stroke="rgb(0%, 0%, 54.499817%)" stroke-opacity="0.1" stroke-miterlimit="10" d="M 319.729133 246.623424 C 316.472699 259.220475 284.325246 280.505283 271.944504 283.549341 C 259.567695 286.589466 266.949732 271.384908 270.210099 258.787857 C 273.466533 246.190806 272.597364 236.19733 284.978106 233.157205 C 297.358848 230.11708 322.9895 234.026374 319.729133 246.623424 Z M 319.729133 246.623424 " transform="matrix(0.993226, 0, 0, -0.993226, -142.465641, 307.027023)"/>
<path fill-rule="evenodd" fill="rgb(54.499817%, 0%, 0%)" fill-opacity="0.1" stroke-width="0.8" stroke-linecap="butt" stroke-linejoin="round" stroke="rgb(54.499817%, 0%, 54.499817%)" stroke-opacity="0.1" stroke-miterlimit="10" d="M 301.350732 242.521419 C 320.248275 245.124993 355.868472 212.112303 354.782994 192.998452 C 353.697516 173.8846 315.90243 168.669586 298.094298 185.179864 C 280.282234 201.686208 282.45319 239.913912 301.350732 242.521419 Z M 301.350732 242.521419 " transform="matrix(0.993226, 0, 0, -0.993226, -142.465641, 307.027023)"/>
<path fill-rule="evenodd" fill="rgb(59.999084%, 19.599915%, 79.998779%)" fill-opacity="0.1" stroke-width="0.8" stroke-linecap="butt" stroke-linejoin="round" stroke="rgb(80.39856%, 6.298828%, 46.299744%)" stroke-opacity="0.1" stroke-miterlimit="10" d="M 362.61338 272.340601 C 374.128886 263.869153 389.329511 237.805882 385.856768 219.561199 C 382.380092 201.316517 360.226115 190.890422 348.714542 199.36187 C 337.202969 207.833318 336.333801 235.198375 339.810476 253.443058 C 343.283219 271.691674 351.10574 280.812048 362.61338 272.340601 Z M 362.61338 272.340601 " transform="matrix(0.993226, 0, 0, -0.993226, -142.465641, 307.027023)"/>
<path fill-rule="evenodd" fill="rgb(54.499817%, 0%, 0%)" fill-opacity="0.1" stroke-width="0.8" stroke-linecap="butt" stroke-linejoin="round" stroke="rgb(54.499817%, 49.398804%, 39.99939%)" stroke-opacity="0.1" stroke-miterlimit="10" d="M 233.067874 288.257012 C 243.710278 282.393071 247.619572 265.450175 240.886462 253.938602 C 234.153352 242.427029 216.777838 236.346779 206.131501 242.21072 C 195.489097 248.074661 191.579803 265.886726 198.312913 277.398299 C 205.046023 288.909872 222.421537 294.120953 233.067874 288.257012 Z M 233.067874 288.257012 " transform="matrix(0.993226, 0, 0, -0.993226, -142.465641, 307.027023)"/>
<path fill-rule="evenodd" fill="rgb(54.499817%, 0%, 0%)" fill-opacity="0.1" stroke-width="0.8" stroke-linecap="butt" stroke-linejoin="round" stroke="rgb(0%, 39.199829%, 0%)" stroke-opacity="0.1" stroke-miterlimit="10" d="M 219.574124 217.063813 C 216.750308 223.796923 200.680514 232.48468 183.737618 226.837048 C 166.794722 221.189416 148.986591 201.206396 151.810407 194.473286 C 154.634223 187.740176 178.089986 194.256977 195.032882 199.904609 C 211.975778 205.552241 222.401873 210.330703 219.574124 217.063813 Z M 219.574124 217.063813 " transform="matrix(0.993226, 0, 0, -0.993226, -142.465641, 307.027023)"/>
<path fill-rule="evenodd" fill="rgb(100%, 54.899597%, 0%)" fill-opacity="0.1" stroke-width="0.8" stroke-linecap="butt" stroke-linejoin="round" stroke="rgb(54.499817%, 21.199036%, 14.898682%)" stroke-opacity="0.1" stroke-miterlimit="10" d="M 332.625084 301.660305 C 347.393091 305.789841 370.852787 303.618885 381.278882 295.363746 C 391.701044 287.108607 389.09747 272.773219 374.32553 268.647616 C 359.557524 264.51808 332.625084 270.602263 322.198989 278.857401 C 311.772894 287.108607 317.853144 297.534702 332.625084 301.660305 Z M 332.625084 301.660305 " transform="matrix(0.993226, 0, 0, -0.993226, -142.465641, 307.027023)"/>
<path fill-rule="evenodd" fill="rgb(0%, 0%, 100%)" fill-opacity="0.1" stroke-width="0.8" stroke-linecap="butt" stroke-linejoin="round" stroke="rgb(69.799805%, 13.299561%, 13.299561%)" stroke-opacity="0.1" stroke-miterlimit="10" d="M 350.661324 243.8704 C 358.542838 228.351211 371.572507 204.46283 352.026037 191.429228 C 332.479567 178.395626 280.349093 176.22467 251.654718 192.491109 C 222.960343 208.76148 217.698135 243.469246 212.404463 260.848692 C 207.110791 278.224206 201.781723 278.267468 199.661895 267.971158 C 197.542067 257.674849 198.627545 237.042901 196.873475 232.260505 C 195.119406 227.47811 190.525789 238.545266 187.10024 249.911322 C 183.674692 261.273444 181.417212 272.930534 186.522105 280.906438 C 191.626998 288.882341 204.090331 293.173126 230.452501 291.35613 C 256.810738 289.535201 297.063881 281.60256 317.188486 277.638205 C 337.31309 273.673851 337.31309 273.673851 338.681737 270.102785 C 340.04645 266.53172 342.779809 259.38959 350.661324 243.8704 Z M 350.661324 243.8704 " transform="matrix(0.993226, 0, 0, -0.993226, -142.465641, 307.027023)"/>
<path fill="none" stroke-width="0.8" stroke-linecap="butt" stroke-linejoin="round" stroke="rgb(0%, 0%, 0%)" stroke-opacity="0.3" stroke-miterlimit="10" d="M 300.037147 263.601716 L 282.130693 236.008551 " transform="matrix(0.993226, 0, 0, -0.993226, -142.465641, 307.027023)"/>
<path fill="none" stroke-width="0.8" stroke-linecap="butt" stroke-linejoin="round" stroke="rgb(0%, 0%, 0%)" stroke-opacity="0.3" stroke-miterlimit="10" d="M 219.581989 264.628201 L 282.130693 236.008551 " transform="matrix(0.993226, 0, 0, -0.993226, -142.465641, 307.027023)"/>
<path fill="none" stroke-width="0.8" stroke-linecap="butt" stroke-linejoin="round" stroke="rgb(0%, 0%, 0%)" stroke-opacity="0.3" stroke-miterlimit="10" d="M 182.180193 210.311039 L 282.130693 236.008551 " transform="matrix(0.993226, 0, 0, -0.993226, -142.465641, 307.027023)"/>
<path fill="none" stroke-width="0.8" stroke-linecap="butt" stroke-linejoin="round" stroke="rgb(0%, 0%, 0%)" stroke-opacity="0.3" stroke-miterlimit="10" d="M 282.130693 236.008551 L 259.386782 204.01448 " transform="matrix(0.993226, 0, 0, -0.993226, -142.465641, 307.027023)"/>
<path fill="none" stroke-width="0.8" stroke-linecap="butt" stroke-linejoin="round" stroke="rgb(0%, 0%, 0%)" stroke-opacity="0.3" stroke-miterlimit="10" d="M 282.130693 236.008551 L 334.41455 220.1472 " transform="matrix(0.993226, 0, 0, -0.993226, -142.465641, 307.027023)"/>
<path fill="none" stroke-width="0.8" stroke-linecap="butt" stroke-linejoin="round" stroke="rgb(0%, 0%, 0%)" stroke-opacity="0.3" stroke-miterlimit="10" d="M 282.130693 236.008551 L 340.87629 226.030806 " transform="matrix(0.993226, 0, 0, -0.993226, -142.465641, 307.027023)"/>
<path fill="none" stroke-width="0.8" stroke-linecap="butt" stroke-linejoin="round" stroke="rgb(0%, 0%, 0%)" stroke-opacity="0.3" stroke-miterlimit="10" d="M 282.130693 236.008551 L 369.661121 234.934871 " transform="matrix(0.993226, 0, 0, -0.993226, -142.465641, 307.027023)"/>
<path fill="none" stroke-width="0.8" stroke-linecap="butt" stroke-linejoin="round" stroke="rgb(0%, 0%, 0%)" stroke-opacity="0.3" stroke-miterlimit="10" d="M 282.130693 236.008551 L 349.937672 282.306547 " transform="matrix(0.993226, 0, 0, -0.993226, -142.465641, 307.027023)"/>
<path fill="none" stroke-width="0.8" stroke-linecap="butt" stroke-linejoin="round" stroke="rgb(0%, 0%, 0%)" stroke-opacity="0.3" stroke-miterlimit="10" d="M 349.937672 282.306547 L 369.661121 234.934871 " transform="matrix(0.993226, 0, 0, -0.993226, -142.465641, 307.027023)"/>
<path fill="none" stroke-width="0.8" stroke-linecap="butt" stroke-linejoin="round" stroke="rgb(0%, 0%, 0%)" stroke-opacity="0.3" stroke-miterlimit="10" d="M 340.87629 226.030806 L 334.41455 220.1472 " transform="matrix(0.993226, 0, 0, -0.993226, -142.465641, 307.027023)"/>
<path fill="none" stroke-width="0.8" stroke-linecap="butt" stroke-linejoin="round" stroke="rgb(0%, 0%, 0%)" stroke-opacity="0.3" stroke-miterlimit="10" d="M 259.386782 204.01448 L 334.41455 220.1472 " transform="matrix(0.993226, 0, 0, -0.993226, -142.465641, 307.027023)"/>
<path fill="none" stroke-width="0.8" stroke-linecap="butt" stroke-linejoin="round" stroke="rgb(0%, 0%, 0%)" stroke-opacity="0.3" stroke-miterlimit="10" d="M 300.037147 263.601716 C 279.3934 268.686945 258.537278 256.074162 253.452049 235.430416 C 250.781616 224.5953 252.948639 213.130922 259.390715 204.01448 " transform="matrix(0.993226, 0, 0, -0.993226, -142.465641, 307.027023)"/>
<path fill="none" stroke-width="0.8" stroke-linecap="butt" stroke-linejoin="round" stroke="rgb(0%, 0%, 0%)" stroke-opacity="0.3" stroke-miterlimit="10" d="M 369.661121 234.934871 L 340.87629 226.030806 " transform="matrix(0.993226, 0, 0, -0.993226, -142.465641, 307.027023)"/>
<path fill="none" stroke-width="0.8" stroke-linecap="butt" stroke-linejoin="round" stroke="rgb(0%, 0%, 0%)" stroke-opacity="0.3" stroke-miterlimit="10" d="M 340.87629 226.030806 L 300.037147 263.601716 " transform="matrix(0.993226, 0, 0, -0.993226, -142.465641, 307.027023)"/>
<path fill="none" stroke-width="0.8" stroke-linecap="butt" stroke-linejoin="round" stroke="rgb(0%, 0%, 0%)" stroke-opacity="0.3" stroke-miterlimit="10" d="M 369.661121 234.934871 C 371.501715 224.261004 364.343852 214.114145 353.673918 212.273552 C 346.27615 210.995362 338.799723 214.051219 334.41455 220.1472 " transform="matrix(0.993226, 0, 0, -0.993226, -142.465641, 307.027023)"/>
<path fill-rule="evenodd" fill="rgb(100%, 100%, 0%)" fill-opacity="1" d="M 117.648438 104.394531 C 117.648438 103.023438 116.535156 101.910156 115.164062 101.910156 C 113.792969 101.910156 112.683594 103.023438 112.683594 104.394531 C 112.683594 105.765625 113.792969 106.878906 115.164062 106.878906 C 116.535156 106.878906 117.648438 105.765625 117.648438 104.394531 "/>
<path fill-rule="evenodd" fill="rgb(0%, 0%, 0%)" fill-opacity="1" d="M 118.144531 104.394531 C 118.144531 102.75 116.8125 101.414062 115.164062 101.414062 C 113.519531 101.414062 112.1875 102.75 112.1875 104.394531 C 112.1875 106.039062 113.519531 107.375 115.164062 107.375 C 116.8125 107.375 118.144531 106.039062 118.144531 104.394531 M 117.152344 104.394531 C 117.152344 103.296875 116.261719 102.410156 115.164062 102.410156 C 114.070312 102.410156 113.179688 103.296875 113.179688 104.394531 C 113.179688 105.492188 114.070312 106.382812 115.164062 106.382812 C 116.261719 106.382812 117.152344 105.492188 117.152344 104.394531 "/>
<path fill-rule="evenodd" fill="rgb(100%, 100%, 0%)" fill-opacity="1" d="M 198.585938 82.527344 C 198.585938 81.15625 197.472656 80.042969 196.101562 80.042969 C 194.730469 80.042969 193.621094 81.15625 193.621094 82.527344 C 193.621094 83.898438 194.730469 85.011719 196.101562 85.011719 C 197.472656 85.011719 198.585938 83.898438 198.585938 82.527344 "/>
<path fill-rule="evenodd" fill="rgb(0%, 39.199829%, 0%)" fill-opacity="1" d="M 199.082031 82.527344 C 199.082031 80.882812 197.746094 79.546875 196.101562 79.546875 C 194.457031 79.546875 193.121094 80.882812 193.121094 82.527344 C 193.121094 84.171875 194.457031 85.507812 196.101562 85.507812 C 197.746094 85.507812 199.082031 84.171875 199.082031 82.527344 M 198.089844 82.527344 C 198.089844 81.429688 197.199219 80.539062 196.101562 80.539062 C 195.003906 80.539062 194.117188 81.429688 194.117188 82.527344 C 194.117188 83.625 195.003906 84.511719 196.101562 84.511719 C 197.199219 84.511719 198.089844 83.625 198.089844 82.527344 "/>
<path fill-rule="evenodd" fill="rgb(100%, 100%, 0%)" fill-opacity="1" d="M 227.171875 73.683594 C 227.171875 72.3125 226.0625 71.199219 224.691406 71.199219 C 223.320312 71.199219 222.207031 72.3125 222.207031 73.683594 C 222.207031 75.054688 223.320312 76.167969 224.691406 76.167969 C 226.0625 76.167969 227.171875 75.054688 227.171875 73.683594 "/>
<path fill-rule="evenodd" fill="rgb(40.79895%, 13.299561%, 54.499817%)" fill-opacity="1" d="M 227.671875 73.683594 C 227.671875 72.039062 226.335938 70.703125 224.691406 70.703125 C 223.046875 70.703125 221.710938 72.039062 221.710938 73.683594 C 221.710938 75.328125 223.046875 76.664062 224.691406 76.664062 C 226.335938 76.664062 227.671875 75.328125 227.671875 73.683594 M 226.675781 73.683594 C 226.675781 72.585938 225.789062 71.695312 224.691406 71.695312 C 223.59375 71.695312 222.703125 72.585938 222.703125 73.683594 C 222.703125 74.78125 223.59375 75.667969 224.691406 75.667969 C 225.789062 75.667969 226.675781 74.78125 226.675781 73.683594 "/>
<path fill-rule="evenodd" fill="rgb(100%, 100%, 0%)" fill-opacity="1" d="M 78.113281 44.191406 C 78.113281 42.820312 77 41.707031 75.628906 41.707031 C 74.257812 41.707031 73.148438 42.820312 73.148438 44.191406 C 73.148438 45.5625 74.257812 46.675781 75.628906 46.675781 C 77 46.675781 78.113281 45.5625 78.113281 44.191406 "/>
<path fill-rule="evenodd" fill="rgb(54.499817%, 49.398804%, 39.99939%)" fill-opacity="1" d="M 78.609375 44.191406 C 78.609375 42.546875 77.277344 41.210938 75.628906 41.210938 C 73.984375 41.210938 72.648438 42.546875 72.648438 44.191406 C 72.648438 45.835938 73.984375 47.171875 75.628906 47.171875 C 77.277344 47.171875 78.609375 45.835938 78.609375 44.191406 M 77.617188 44.191406 C 77.617188 43.09375 76.726562 42.207031 75.628906 42.207031 C 74.535156 42.207031 73.644531 43.09375 73.644531 44.191406 C 73.644531 45.289062 74.535156 46.179688 75.628906 46.179688 C 76.726562 46.179688 77.617188 45.289062 77.617188 44.191406 "/>
<path fill-rule="evenodd" fill="rgb(100%, 100%, 0%)" fill-opacity="1" d="M 207.582031 26.632812 C 207.582031 25.261719 206.472656 24.148438 205.101562 24.148438 C 203.730469 24.148438 202.617188 25.261719 202.617188 26.632812 C 202.617188 28.003906 203.730469 29.117188 205.101562 29.117188 C 206.472656 29.117188 207.582031 28.003906 207.582031 26.632812 "/>
<path fill-rule="evenodd" fill="rgb(54.499817%, 21.199036%, 14.898682%)" fill-opacity="1" d="M 208.082031 26.632812 C 208.082031 24.988281 206.746094 23.652344 205.101562 23.652344 C 203.457031 23.652344 202.121094 24.988281 202.121094 26.632812 C 202.121094 28.277344 203.457031 29.613281 205.101562 29.613281 C 206.746094 29.613281 208.082031 28.277344 208.082031 26.632812 M 207.085938 26.632812 C 207.085938 25.535156 206.199219 24.644531 205.101562 24.644531 C 204.003906 24.644531 203.113281 25.535156 203.113281 26.632812 C 203.113281 27.730469 204.003906 28.617188 205.101562 28.617188 C 206.199219 28.617188 207.085938 27.730469 207.085938 26.632812 "/>
<path fill-rule="evenodd" fill="rgb(100%, 100%, 0%)" fill-opacity="1" d="M 40.960938 98.140625 C 40.960938 96.769531 39.851562 95.660156 38.480469 95.660156 C 37.109375 95.660156 35.996094 96.769531 35.996094 98.140625 C 35.996094 99.511719 37.109375 100.625 38.480469 100.625 C 39.851562 100.625 40.960938 99.511719 40.960938 98.140625 "/>
<path fill-rule="evenodd" fill="rgb(0%, 39.199829%, 0%)" fill-opacity="1" d="M 41.457031 98.140625 C 41.457031 96.496094 40.125 95.160156 38.480469 95.160156 C 36.832031 95.160156 35.5 96.496094 35.5 98.140625 C 35.5 99.789062 36.832031 101.121094 38.480469 101.121094 C 40.125 101.121094 41.457031 99.789062 41.457031 98.140625 M 40.464844 98.140625 C 40.464844 97.042969 39.578125 96.15625 38.480469 96.15625 C 37.382812 96.15625 36.492188 97.042969 36.492188 98.140625 C 36.492188 99.238281 37.382812 100.128906 38.480469 100.128906 C 39.578125 100.128906 40.464844 99.238281 40.464844 98.140625 "/>
<path fill-rule="evenodd" fill="rgb(100%, 100%, 0%)" fill-opacity="1" d="M 140.238281 72.617188 C 140.238281 71.246094 139.125 70.132812 137.753906 70.132812 C 136.382812 70.132812 135.269531 71.246094 135.269531 72.617188 C 135.269531 73.988281 136.382812 75.101562 137.753906 75.101562 C 139.125 75.101562 140.238281 73.988281 140.238281 72.617188 "/>
<path fill-rule="evenodd" fill="rgb(0%, 0%, 100%)" fill-opacity="1" d="M 140.734375 72.617188 C 140.734375 70.972656 139.398438 69.636719 137.753906 69.636719 C 136.109375 69.636719 134.773438 70.972656 134.773438 72.617188 C 134.773438 74.261719 136.109375 75.597656 137.753906 75.597656 C 139.398438 75.597656 140.734375 74.261719 140.734375 72.617188 M 139.742188 72.617188 C 139.742188 71.519531 138.851562 70.628906 137.753906 70.628906 C 136.65625 70.628906 135.769531 71.519531 135.769531 72.617188 C 135.769531 73.714844 136.65625 74.601562 137.753906 74.601562 C 138.851562 74.601562 139.742188 73.714844 139.742188 72.617188 "/>
<path fill-rule="evenodd" fill="rgb(100%, 100%, 0%)" fill-opacity="1" d="M 158.023438 45.210938 C 158.023438 43.84375 156.910156 42.730469 155.539062 42.730469 C 154.167969 42.730469 153.054688 43.84375 153.054688 45.210938 C 153.054688 46.585938 154.167969 47.695312 155.539062 47.695312 C 156.910156 47.695312 158.023438 46.585938 158.023438 45.210938 "/>
<path fill-rule="evenodd" fill="rgb(0%, 0%, 54.499817%)" fill-opacity="1" d="M 158.519531 45.210938 C 158.519531 43.566406 157.183594 42.234375 155.539062 42.234375 C 153.894531 42.234375 152.558594 43.566406 152.558594 45.210938 C 152.558594 46.859375 153.894531 48.191406 155.539062 48.191406 C 157.183594 48.191406 158.519531 46.859375 158.519531 45.210938 M 157.523438 45.210938 C 157.523438 44.117188 156.636719 43.226562 155.539062 43.226562 C 154.441406 43.226562 153.550781 44.117188 153.550781 45.210938 C 153.550781 46.308594 154.441406 47.199219 155.539062 47.199219 C 156.636719 47.199219 157.523438 46.308594 157.523438 45.210938 "/>
<path fill-rule="evenodd" fill="rgb(100%, 100%, 0%)" fill-opacity="1" d="M 192.167969 88.371094 C 192.167969 87 191.054688 85.890625 189.683594 85.890625 C 188.3125 85.890625 187.199219 87 187.199219 88.371094 C 187.199219 89.742188 188.3125 90.855469 189.683594 90.855469 C 191.054688 90.855469 192.167969 89.742188 192.167969 88.371094 "/>
<path fill-rule="evenodd" fill="rgb(54.499817%, 0%, 54.499817%)" fill-opacity="1" d="M 192.664062 88.371094 C 192.664062 86.726562 191.328125 85.394531 189.683594 85.394531 C 188.039062 85.394531 186.703125 86.726562 186.703125 88.371094 C 186.703125 90.015625 188.039062 91.351562 189.683594 91.351562 C 191.328125 91.351562 192.664062 90.015625 192.664062 88.371094 M 191.667969 88.371094 C 191.667969 87.273438 190.78125 86.386719 189.683594 86.386719 C 188.585938 86.386719 187.695312 87.273438 187.695312 88.371094 C 187.695312 89.46875 188.585938 90.359375 189.683594 90.359375 C 190.78125 90.359375 191.667969 89.46875 191.667969 88.371094 "/>
</svg>
