<?xml version="1.0" encoding="UTF-8"?>
<svg xmlns="http://www.w3.org/2000/svg" xmlns:xlink="http://www.w3.org/1999/xlink" width="253.137" height="145.011" viewBox="0 0 253.137 145.011">
<path fill="none" stroke-width="0.8" stroke-linecap="butt" stroke-linejoin="round" stroke="rgb(0%, 0%, 0%)" stroke-opacity="1" stroke-miterlimit="10" d="M 300.037147 263.601716 L 282.130693 236.008551 " transform="matrix(0.993226, 0, 0, -0.993226, -142.465641, 307.027023)"/>
<path fill="none" stroke-width="0.8" stroke-linecap="butt" stroke-linejoin="round" stroke="rgb(0%, 0%, 0%)" stroke-opacity="1" stroke-miterlimit="10" d="M 219.581989 264.628201 L 282.130693 236.008551 " transform="matrix(0.993226, 0, 0, -0.993226, -142.465641, 307.027023)"/>
<path fill="none" stroke-width="0.8" stroke-linecap="butt" stroke-linejoin="round" stroke="rgb(0%, 0%, 0%)" stroke-opacity="1" stroke-miterlimit="10" d="M 182.180193 210.311039 L 282.130693 236.008551 " transform="matrix(0.993226, 0, 0, -0.993226, -142.465641, 307.027023)"/>
<path fill="none" stroke-width="0.8" stroke-linecap="butt" stroke-linejoin="round" stroke="rgb(0%, 0%, 0%)" stroke-opacity="1" stroke-miterlimit="10" d="M 282.130693 236.008551 L 259.386782 204.01448 " transform="matrix(0.993226, 0, 0, -0.993226, -142.465641, 307.027023)"/>
<path fill="none" stroke-width="0.8" stroke-linecap="butt" stroke-linejoin="round" stroke="rgb(0%, 0%, 0%)" stroke-opacity="1" stroke-miterlimit="10" d="M 282.130693 236.008551 L 334.41455 220.1472 " transform="matrix(0.993226, 0, 0, -0.993226, -142.465641, 307.027023)"/>
<path fill="none" stroke-width="0.8" stroke-linecap="butt" stroke-linejoin="round" stroke="rgb(0%, 0%, 0%)" stroke-opacity="1" stroke-miterlimit="10" d="M 282.130693 236.008551 L 340.87629 226.030806 " transform="matrix(0.993226, 0, 0, -0.993226, -142.465641, 307.027023)"/>
<path fill="none" stroke-width="0.8" stroke-linecap="butt" stroke-linejoin="round" stroke="rgb(0%, 0%, 0%)" stroke-opacity="1" stroke-miterlimit="10" d="M 282.130693 236.008551 L 369.661121 234.934871 " transform="matrix(0.993226, 0, 0, -0.993226, -142.465641, 307.027023)"/>
<path fill="none" stroke-width="0.8" stroke-linecap="butt" stroke-linejoin="round" stroke="rgb(0%, 0%, 0%)" stroke-opacity="1" stroke-miterlimit="10" d="M 282.130693 236.008551 L 349.937672 282.306547 " transform="matrix(0.993226, 0, 0, -0.993226, -142.465641, 307.027023)"/>
<path fill="none" stroke-width="0.8" stroke-linecap="butt" stroke-linejoin="round" stroke="rgb(0%, 0%, 0%)" stroke-opacity="1" stroke-miterlimit="10" d="M 349.937672 282.306547 L 369.661121 234.934871 " transform="matrix(0.993226, 0, 0, -0.993226, -142.465641, 307.027023)"/>
<path fill="none" stroke-width="0.8" stroke-linecap="butt" stroke-linejoin="round" stroke="rgb(0%, 0%, 0%)" stroke-opacity="1" stroke-miterlimit="10" d="M 340.87629 226.030806 L 334.41455 220.1472 " transform="matrix(0.993226, 0, 0, -0.993226, -142.465641, 307.027023)"/>
<path fill="none" stroke-width="0.8" stroke-linecap="butt" stroke-linejoin="round" stroke="rgb(0%, 0%, 0%)" stroke-opacity="1" stroke-miterlimit="10" d="M 259.386782 204.01448 L 334.41455 220.1472 " transform="matrix(0.993226, 0, 0, -0.993226, -142.465641, 307.027023)"/>
<path fill="none" stroke-width="0.8" stroke-linecap="butt" stroke-linejoin="round" stroke="rgb(0%, 0%, 0%)" stroke-opacity="1" stroke-miterlimit="10" d="M 300.037147 263.601716 C 279.3934 268.686945 258.537278 256.074162 253.452049 235.430416 C 250.781616 224.5953 252.948639 213.130922 259.390715 204.01448 " transform="matrix(0.993226, 0, 0, -0.993226, -142.465641, 307.027023)"/>
<path fill="none" stroke-width="0.8" stroke-linecap="butt" stroke-linejoin="round" stroke="rgb(0%, 0%, 0%)" stroke-opacity="1" stroke-miterlimit="10" d="M 369.661121 234.934871 L 340.87629 226.030806 " transform="matrix(0.993226, 0, 0, -0.993226, -142.465641, 307.027023)"/>
<path fill="none" stroke-width="0.8" stroke-linecap="butt" stroke-linejoin="round" stroke="rgb(0%, 0%, 0%)" stroke-opacity="1" stroke-miterlimit="10" d="M 340.87629 226.030806 L 300.037147 263.601716 " transform="matrix(0.993226, 0, 0, -0.993226, -142.465641, 307.027023)"/>
<path fill="none" stroke-width="0.8" stroke-linecap="butt" stroke-linejoin="round" stroke="rgb(0%, 0%, 0%)" stroke-opacity="1" stroke-miterlimit="10" d="M 369.661121 234.934871 C 371.501715 224.261004 364.343852 214.114145 353.673918 212.273552 C 346.27615 210.995362 338.799723 214.051219 334.41455 220.1472 " transform="matrix(0.993226, 0, 0, -0.993226, -142.465641, 307.027023)"/>
<path fill-rule="evenodd" fill="rgb(100%, 100%, 100%)" fill-opacity="1" d="M 169.601562 74.261719 C 184.398438 71.730469 212.824219 77.960938 212.242188 83.605469 C 211.65625 89.253906 182.0625 94.316406 167.851562 91.199219 C 153.636719 88.085938 154.804688 76.792969 169.601562 74.261719 Z M 169.601562 74.261719 "/>
<path fill-rule="evenodd" fill="rgb(100%, 100%, 100%)" fill-opacity="1" d="M 137.714844 107.277344 C 130.746094 120.597656 100.003906 132.488281 88.324219 130.230469 C 76.640625 127.976562 84.019531 111.582031 90.988281 98.261719 C 97.957031 84.941406 104.515625 74.691406 116.195312 76.945312 C 127.875 79.199219 144.683594 93.957031 137.714844 107.277344 Z M 137.714844 107.277344 "/>
<path fill-rule="evenodd" fill="rgb(100%, 100%, 100%)" fill-opacity="1" d="M 174.140625 61.210938 C 171.066406 49.324219 140.734375 29.238281 129.050781 26.371094 C 117.371094 23.5 124.335938 37.847656 127.410156 49.734375 C 130.488281 61.621094 129.667969 71.046875 141.347656 73.917969 C 153.03125 76.785156 177.214844 73.097656 174.140625 61.210938 Z M 174.140625 61.210938 "/>
<path fill-rule="evenodd" fill="rgb(100%, 100%, 100%)" fill-opacity="1" d="M 158.503906 67.226562 C 176.335938 64.769531 209.945312 95.921875 208.921875 113.957031 C 207.898438 131.992188 172.234375 136.910156 155.429688 121.332031 C 138.625 105.757812 140.675781 69.6875 158.503906 67.226562 Z M 158.503906 67.226562 "/>
<path fill-rule="evenodd" fill="rgb(100%, 100%, 100%)" fill-opacity="1" d="M 218.058594 38.375 C 228.921875 46.367188 243.269531 70.960938 239.988281 88.175781 C 236.710938 105.390625 215.804688 115.230469 204.941406 107.238281 C 194.082031 99.242188 193.261719 73.421875 196.539062 56.207031 C 199.820312 38.988281 207.199219 30.382812 218.058594 38.375 Z M 218.058594 38.375 "/>
<path fill-rule="evenodd" fill="rgb(100%, 100%, 100%)" fill-opacity="1" d="M 88.355469 21.886719 C 98.394531 27.421875 102.085938 43.40625 95.730469 54.269531 C 89.378906 65.128906 72.984375 70.867188 62.941406 65.335938 C 52.898438 59.800781 49.210938 42.996094 55.5625 32.132812 C 61.917969 21.273438 78.3125 16.351562 88.355469 21.886719 Z M 88.355469 21.886719 "/>
<path fill-rule="evenodd" fill="rgb(100%, 100%, 100%)" fill-opacity="1" d="M 73.757812 91.722656 C 71.09375 85.371094 55.925781 77.171875 39.941406 82.503906 C 23.957031 87.832031 7.148438 106.683594 9.816406 113.039062 C 12.480469 119.390625 34.613281 113.242188 50.597656 107.914062 C 66.582031 102.585938 76.421875 98.078125 73.757812 91.722656 Z M 73.757812 91.722656 "/>
<path fill-rule="evenodd" fill="rgb(100%, 100%, 100%)" fill-opacity="1" d="M 188.769531 8.324219 C 202.703125 4.433594 224.839844 6.480469 234.675781 14.269531 C 244.511719 22.054688 242.054688 35.582031 228.117188 39.476562 C 214.179688 43.371094 188.769531 37.632812 178.929688 29.84375 C 169.09375 22.054688 174.832031 12.21875 188.769531 8.324219 Z M 188.769531 8.324219 "/>
<path fill-rule="evenodd" fill="rgb(100%, 100%, 100%)" fill-opacity="1" d="M 202.402344 65.210938 C 209.839844 79.851562 222.136719 102.398438 203.691406 114.691406 C 185.246094 126.988281 136.0625 129.039062 108.984375 113.6875 C 81.910156 98.339844 76.945312 65.589844 71.949219 49.195312 C 66.953125 32.796875 61.925781 32.757812 59.925781 42.472656 C 57.925781 52.183594 58.949219 71.65625 57.296875 76.167969 C 55.640625 80.679688 51.304688 70.234375 48.074219 59.511719 C 44.84375 48.789062 42.714844 37.789062 47.53125 30.265625 C 52.347656 22.742188 64.109375 18.691406 88.980469 20.40625 C 113.847656 22.125 151.832031 29.605469 170.820312 33.347656 C 189.808594 37.089844 189.808594 37.089844 191.097656 40.460938 C 192.386719 43.828125 194.964844 50.570312 202.402344 65.210938 Z M 202.402344 65.210938 "/>
<path fill="none" stroke-width="0.8" stroke-linecap="butt" stroke-linejoin="round" stroke="rgb(0%, 39.199829%, 0%)" stroke-opacity="1" stroke-miterlimit="10" d="M 314.195555 234.352804 C 329.093348 236.901317 357.712998 230.628355 357.126997 224.945328 C 356.537063 219.258367 326.741479 214.16134 312.43362 217.299787 C 298.121829 220.434301 299.297763 231.80429 314.195555 234.352804 Z M 314.195555 234.352804 " transform="matrix(0.993226, 0, 0, -0.993226, -142.465641, 307.027023)"/>
<path fill="none" stroke-width="0.8" stroke-linecap="butt" stroke-linejoin="round" stroke="rgb(12.5%, 12.5%, 12.5%)" stroke-opacity="1" stroke-miterlimit="10" d="M 282.091364 201.112006 C 275.075086 187.700847 244.123231 175.729126 232.363886 178.002337 C 220.600608 180.271615 228.02984 196.77796 235.046118 210.189119 C 242.062396 223.600279 248.665721 233.920185 260.425066 231.650907 C 272.184411 229.381629 289.107642 214.523166 282.091364 201.112006 Z M 282.091364 201.112006 " transform="matrix(0.993226, 0, 0, -0.993226, -142.465641, 307.027023)"/>
<path fill="none" stroke-width="0.8" stroke-linecap="butt" stroke-linejoin="round" stroke="rgb(0%, 0%, 54.499817%)" stroke-opacity="1" stroke-miterlimit="10" d="M 318.765575 247.492593 C 315.67039 259.460382 285.131489 279.683309 273.368211 282.570051 C 261.608866 285.460726 268.621211 271.015216 271.716396 259.047428 C 274.815515 247.07964 273.989608 237.589573 285.748953 234.698898 C 297.512231 231.812156 321.860761 235.524805 318.765575 247.492593 Z M 318.765575 247.492593 " transform="matrix(0.993226, 0, 0, -0.993226, -142.465641, 307.027023)"/>
<path fill="none" stroke-width="0.8" stroke-linecap="butt" stroke-linejoin="round" stroke="rgb(54.499817%, 0%, 54.499817%)" stroke-opacity="1" stroke-miterlimit="10" d="M 303.022211 241.435941 C 320.97586 243.909729 354.814457 212.544921 353.784039 194.386762 C 352.753622 176.228603 316.846324 171.277093 299.927026 186.961463 C 283.007727 202.641901 285.072495 238.958219 303.022211 241.435941 Z M 303.022211 241.435941 " transform="matrix(0.993226, 0, 0, -0.993226, -142.465641, 307.027023)"/>
<path fill="none" stroke-width="0.8" stroke-linecap="butt" stroke-linejoin="round" stroke="rgb(80.39856%, 6.298828%, 46.299744%)" stroke-opacity="1" stroke-miterlimit="10" d="M 362.983072 270.484276 C 373.920443 262.43758 388.365952 237.676097 385.062324 220.343845 C 381.762628 203.011593 360.713794 193.10464 349.776423 201.151335 C 338.842985 209.201964 338.017078 235.198375 341.316774 252.530627 C 344.620402 269.866812 352.049634 278.530971 362.983072 270.484276 Z M 362.983072 270.484276 " transform="matrix(0.993226, 0, 0, -0.993226, -142.465641, 307.027023)"/>
<path fill="none" stroke-width="0.8" stroke-linecap="butt" stroke-linejoin="round" stroke="rgb(54.499817%, 49.398804%, 39.99939%)" stroke-opacity="1" stroke-miterlimit="10" d="M 232.395349 287.08501 C 242.50288 281.512103 246.219462 265.418712 239.820648 254.481341 C 233.425767 243.547903 216.919422 237.770486 206.807959 243.33946 C 196.696495 248.912367 192.983846 265.831665 199.378727 276.769036 C 205.777541 287.702474 222.283886 292.657917 232.395349 287.08501 Z M 232.395349 287.08501 " transform="matrix(0.993226, 0, 0, -0.993226, -142.465641, 307.027023)"/>
<path fill="none" stroke-width="0.8" stroke-linecap="butt" stroke-linejoin="round" stroke="rgb(0%, 39.199829%, 0%)" stroke-opacity="1" stroke-miterlimit="10" d="M 217.698135 216.772779 C 215.015903 223.167661 199.744486 231.4228 183.651095 226.054403 C 167.557703 220.689939 150.634472 201.709806 153.320637 195.310992 C 156.002869 188.91611 178.286631 195.106481 194.380022 200.470945 C 210.473413 205.835409 220.380366 210.373965 217.698135 216.772779 Z M 217.698135 216.772779 " transform="matrix(0.993226, 0, 0, -0.993226, -142.465641, 307.027023)"/>
<path fill="none" stroke-width="0.8" stroke-linecap="butt" stroke-linejoin="round" stroke="rgb(54.499817%, 21.199036%, 14.898682%)" stroke-opacity="1" stroke-miterlimit="10" d="M 333.494253 300.740009 C 347.522876 304.657168 369.810571 302.596333 379.713592 294.754148 C 389.616612 286.915896 387.142823 273.296293 373.110267 269.375201 C 359.077711 265.454108 333.494253 271.231525 323.5873 279.07371 C 313.68428 286.915896 319.461697 296.818916 333.494253 300.740009 Z M 333.494253 300.740009 " transform="matrix(0.993226, 0, 0, -0.993226, -142.465641, 307.027023)"/>
<path fill="none" stroke-width="0.8" stroke-linecap="butt" stroke-linejoin="round" stroke="rgb(0%, 0%, 100%)" stroke-opacity="1" stroke-miterlimit="10" d="M 347.220044 243.465313 C 354.708269 228.724836 367.08901 206.024188 348.517898 193.647379 C 329.946785 181.266637 280.427751 179.201869 253.164948 194.658132 C 225.906079 210.110462 220.907374 243.083822 215.877206 259.590167 C 210.847038 276.100445 205.785407 276.139774 203.771766 266.358673 C 201.758126 256.581505 202.788544 236.976042 201.124931 232.433553 C 199.457385 227.891063 195.091875 238.407614 191.839374 249.203401 C 188.586873 259.999188 186.443447 271.07421 191.292702 278.648958 C 196.141957 286.223707 207.983893 290.302115 233.024612 288.575576 C 258.061398 286.845104 296.304833 279.313617 315.422617 275.545907 C 334.540402 271.778197 334.540402 271.778197 335.838256 268.384112 C 337.13611 264.99396 339.731819 258.205789 347.220044 243.465313 Z M 347.220044 243.465313 " transform="matrix(0.993226, 0, 0, -0.993226, -142.465641, 307.027023)"/>
<path fill-rule="evenodd" fill="rgb(54.499817%, 0%, 0%)" fill-opacity="0.1" stroke-width="0.8" stroke-linecap="butt" stroke-linejoin="round" stroke="rgb(0%, 39.199829%, 0%)" stroke-opacity="0.1" stroke-miterlimit="10" d="M 314.195555 234.352804 C 329.093348 236.901317 357.712998 230.628355 357.126997 224.945328 C 356.537063 219.258367 326.741479 214.16134 312.43362 217.299787 C 298.121829 220.434301 299.297763 231.80429 314.195555 234.352804 Z M 314.195555 234.352804 " transform="matrix(0.993226, 0, 0, -0.993226, -142.465641, 307.027023)"/>
<path fill-rule="evenodd" fill="rgb(54.499817%, 0%, 0%)" fill-opacity="0.1" stroke-width="0.8" stroke-linecap="butt" stroke-linejoin="round" stroke="rgb(12.5%, 12.5%, 12.5%)" stroke-opacity="0.1" stroke-miterlimit="10" d="M 282.091364 201.112006 C 275.075086 187.700847 244.123231 175.729126 232.363886 178.002337 C 220.600608 180.271615 228.02984 196.77796 235.046118 210.189119 C 242.062396 223.600279 248.665721 233.920185 260.425066 231.650907 C 272.184411 229.381629 289.107642 214.523166 282.091364 201.112006 Z M 282.091364 201.112006 " transform="matrix(0.993226, 0, 0, -0.993226, -142.465641, 307.027023)"/>
<path fill-rule="evenodd" fill="rgb(0%, 39.199829%, 0%)" fill-opacity="0.1" stroke-width="0.8" stroke-linecap="butt" stroke-linejoin="round" stroke="rgb(0%, 0%, 54.499817%)" stroke-opacity="0.1" stroke-miterlimit="10" d="M 318.765575 247.492593 C 315.67039 259.460382 285.131489 279.683309 273.368211 282.570051 C 261.608866 285.460726 268.621211 271.015216 271.716396 259.047428 C 274.815515 247.07964 273.989608 237.589573 285.748953 234.698898 C 297.512231 231.812156 321.860761 235.524805 318.765575 247.492593 Z M 318.765575 247.492593 " transform="matrix(0.993226, 0, 0, -0.993226, -142.465641, 307.027023)"/>
<path fill-rule="evenodd" fill="rgb(54.499817%, 0%, 0%)" fill-opacity="0.1" stroke-width="0.8" stroke-linecap="butt" stroke-linejoin="round" stroke="rgb(54.499817%, 0%, 54.499817%)" stroke-opacity="0.1" stroke-miterlimit="10" d="M 303.022211 241.435941 C 320.97586 243.909729 354.814457 212.544921 353.784039 194.386762 C 352.753622 176.228603 316.846324 171.277093 299.927026 186.961463 C 283.007727 202.641901 285.072495 238.958219 303.022211 241.435941 Z M 303.022211 241.435941 " transform="matrix(0.993226, 0, 0, -0.993226, -142.465641, 307.027023)"/>
<path fill-rule="evenodd" fill="rgb(59.999084%, 19.599915%, 79.998779%)" fill-opacity="0.1" stroke-width="0.8" stroke-linecap="butt" stroke-linejoin="round" stroke="rgb(80.39856%, 6.298828%, 46.299744%)" stroke-opacity="0.1" stroke-miterlimit="10" d="M 362.983072 270.484276 C 373.920443 262.43758 388.365952 237.676097 385.062324 220.343845 C 381.762628 203.011593 360.713794 193.10464 349.776423 201.151335 C 338.842985 209.201964 338.017078 235.198375 341.316774 252.530627 C 344.620402 269.866812 352.049634 278.530971 362.983072 270.484276 Z M 362.983072 270.484276 " transform="matrix(0.993226, 0, 0, -0.993226, -142.465641, 307.027023)"/>
<path fill-rule="evenodd" fill="rgb(54.499817%, 0%, 0%)" fill-opacity="0.1" stroke-width="0.8" stroke-linecap="butt" stroke-linejoin="round" stroke="rgb(54.499817%, 49.398804%, 39.99939%)" stroke-opacity="0.1" stroke-miterlimit="10" d="M 232.395349 287.08501 C 242.50288 281.512103 246.219462 265.418712 239.820648 254.481341 C 233.425767 243.547903 216.919422 237.770486 206.807959 243.33946 C 196.696495 248.912367 192.983846 265.831665 199.378727 276.769036 C 205.777541 287.702474 222.283886 292.657917 232.395349 287.08501 Z M 232.395349 287.08501 " transform="matrix(0.993226, 0, 0, -0.993226, -142.465641, 307.027023)"/>
<path fill-rule="evenodd" fill="rgb(54.499817%, 0%, 0%)" fill-opacity="0.1" stroke-width="0.8" stroke-linecap="butt" stroke-linejoin="round" stroke="rgb(0%, 39.199829%, 0%)" stroke-opacity="0.1" stroke-miterlimit="10" d="M 217.698135 216.772779 C 215.015903 223.167661 199.744486 231.4228 183.651095 226.054403 C 167.557703 220.689939 150.634472 201.709806 153.320637 195.310992 C 156.002869 188.91611 178.286631 195.106481 194.380022 200.470945 C 210.473413 205.835409 220.380366 210.373965 217.698135 216.772779 Z M 217.698135 216.772779 " transform="matrix(0.993226, 0, 0, -0.993226, -142.465641, 307.027023)"/>
<path fill-rule="evenodd" fill="rgb(100%, 54.899597%, 0%)" fill-opacity="0.1" stroke-width="0.8" stroke-linecap="butt" stroke-linejoin="round" stroke="rgb(54.499817%, 21.199036%, 14.898682%)" stroke-opacity="0.1" stroke-miterlimit="10" d="M 333.494253 300.740009 C 347.522876 304.657168 369.810571 302.596333 379.713592 294.754148 C 389.616612 286.915896 387.142823 273.296293 373.110267 269.375201 C 359.077711 265.454108 333.494253 271.231525 323.5873 279.07371 C 313.68428 286.915896 319.461697 296.818916 333.494253 300.740009 Z M 333.494253 300.740009 " transform="matrix(0.993226, 0, 0, -0.993226, -142.465641, 307.027023)"/>
<path fill-rule="evenodd" fill="rgb(0%, 0%, 100%)" fill-opacity="0.1" stroke-width="0.8" stroke-linecap="butt" stroke-linejoin="round" stroke="rgb(69.799805%, 13.299561%, 13.299561%)" stroke-opacity="0.1" stroke-miterlimit="10" d="M 347.220044 243.465313 C 354.708269 228.724836 367.08901 206.024188 348.517898 193.647379 C 329.946785 181.266637 280.427751 179.201869 253.164948 194.658132 C 225.906079 210.110462 220.907374 243.083822 215.877206 259.590167 C 210.847038 276.100445 205.785407 276.139774 203.771766 266.358673 C 201.758126 256.581505 202.788544 236.976042 201.124931 232.433553 C 199.457385 227.891063 195.091875 238.407614 191.839374 249.203401 C 188.586873 259.999188 186.443447 271.07421 191.292702 278.648958 C 196.141957 286.223707 207.983893 290.302115 233.024612 288.575576 C 258.061398 286.845104 296.304833 279.313617 315.422617 275.545907 C 334.540402 271.778197 334.540402 271.778197 335.838256 268.384112 C 337.13611 264.99396 339.731819 258.205789 347.220044 243.465313 Z M 347.220044 243.465313 " transform="matrix(0.993226, 0, 0, -0.993226, -142.465641, 307.027023)"/>
<path fill="none" stroke-width="0.8" stroke-linecap="butt" stroke-linejoin="round" stroke="rgb(0%, 0%, 0%)" stroke-opacity="0.3" stroke-miterlimit="10" d="M 300.037147 263.601716 L 282.130693 236.008551 " transform="matrix(0.993226, 0, 0, -0.993226, -142.465641, 307.027023)"/>
<path fill="none" stroke-width="0.8" stroke-linecap="butt" stroke-linejoin="round" stroke="rgb(0%, 0%, 0%)" stroke-opacity="0.3" stroke-miterlimit="10" d="M 219.581989 264.628201 L 282.130693 236.008551 " transform="matrix(0.993226, 0, 0, -0.993226, -142.465641, 307.027023)"/>
<path fill="none" stroke-width="0.8" stroke-linecap="butt" stroke-linejoin="round" stroke="rgb(0%, 0%, 0%)" stroke-opacity="0.3" stroke-miterlimit="10" d="M 182.180193 210.311039 L 282.130693 236.008551 " transform="matrix(0.993226, 0, 0, -0.993226, -142.465641, 307.027023)"/>
<path fill="none" stroke-width="0.8" stroke-linecap="butt" stroke-linejoin="round" stroke="rgb(0%, 0%, 0%)" stroke-opacity="0.3" stroke-miterlimit="10" d="M 282.130693 236.008551 L 259.386782 204.01448 " transform="matrix(0.993226, 0, 0, -0.993226, -142.465641, 307.027023)"/>
<path fill="none" stroke-width="0.8" stroke-linecap="butt" stroke-linejoin="round" stroke="rgb(0%, 0%, 0%)" stroke-opacity="0.3" stroke-miterlimit="10" d="M 282.130693 236.008551 L 334.41455 220.1472 " transform="matrix(0.993226, 0, 0, -0.993226, -142.465641, 307.027023)"/>
<path fill="none" stroke-width="0.8" stroke-linecap="butt" stroke-linejoin="round" stroke="rgb(0%, 0%, 0%)" stroke-opacity="0.3" stroke-miterlimit="10" d="M 282.130693 236.008551 L 340.87629 226.030806 " transform="matrix(0.993226, 0, 0, -0.993226, -142.465641, 307.027023)"/>
<path fill="none" stroke-width="0.8" stroke-linecap="butt" stroke-linejoin="round" stroke="rgb(0%, 0%, 0%)" stroke-opacity="0.3" stroke-miterlimit="10" d="M 282.130693 236.008551 L 369.661121 234.934871 " transform="matrix(0.993226, 0, 0, -0.993226, -142.465641, 307.027023)"/>
<path fill="none" stroke-width="0.8" stroke-linecap="butt" stroke-linejoin="round" stroke="rgb(0%, 0%, 0%)" stroke-opacity="0.3" stroke-miterlimit="10" d="M 282.130693 236.008551 L 349.937672 282.306547 " transform="matrix(0.993226, 0, 0, -0.993226, -142.465641, 307.027023)"/>
<path fill="none" stroke-width="0.8" stroke-linecap="butt" stroke-linejoin="round" stroke="rgb(0%, 0%, 0%)" stroke-opacity="0.3" stroke-miterlimit="10" d="M 349.937672 282.306547 L 369.661121 234.934871 " transform="matrix(0.993226, 0, 0, -0.993226, -142.465641, 307.027023)"/>
<path fill="none" stroke-width="0.8" stroke-linecap="butt" stroke-linejoin="round" stroke="rgb(0%, 0%, 0%)" stroke-opacity="0.3" stroke-miterlimit="10" d="M 340.87629 226.030806 L 334.41455 220.1472 " transform="matrix(0.993226, 0, 0, -0.993226, -142.465641, 307.027023)"/>
<path fill="none" stroke-width="0.8" stroke-linecap="butt" stroke-linejoin="round" stroke="rgb(0%, 0%, 0%)" stroke-opacity="0.3" stroke-miterlimit="10" d="M 259.386782 204.01448 L 334.41455 220.1472 " transform="matrix(0.993226, 0, 0, -0.993226, -142.465641, 307.027023)"/>
<path fill="none" stroke-width="0.8" stroke-linecap="butt" stroke-linejoin="round" stroke="rgb(0%, 0%, 0%)" stroke-opacity="0.3" stroke-miterlimit="10" d="M 300.037147 263.601716 C 279.3934 268.686945 258.537278 256.074162 253.452049 235.430416 C 250.781616 224.5953 252.948639 213.130922 259.390715 204.01448 " transform="matrix(0.993226, 0, 0, -0.993226, -142.465641, 307.027023)"/>
<path fill="none" stroke-width="0.8" stroke-linecap="butt" stroke-linejoin="round" stroke="rgb(0%, 0%, 0%)" stroke-opacity="0.3" stroke-miterlimit="10" d="M 369.661121 234.934871 L 340.87629 226.030806 " transform="matrix(0.993226, 0, 0, -0.993226, -142.465641, 307.027023)"/>
<path fill="none" stroke-width="0.8" stroke-linecap="butt" stroke-linejoin="round" stroke="rgb(0%, 0%, 0%)" stroke-opacity="0.3" stroke-miterlimit="10" d="M 340.87629 226.030806 L 300.037147 263.601716 " transform="matrix(0.993226, 0, 0, -0.993226, -142.465641, 307.027023)"/>
<path fill="none" stroke-width="0.8" stroke-linecap="butt" stroke-linejoin="round" stroke="rgb(0%, 0%, 0%)" stroke-opacity="0.3" stroke-miterlimit="10" d="M 369.661121 234.934871 C 371.501715 224.261004 364.343852 214.114145 353.673918 212.273552 C 346.27615 210.995362 338.799723 214.051219 334.41455 220.1472 " transform="matrix(0.993226, 0, 0, -0.993226, -142.465641, 307.027023)"/>
<path fill-rule="evenodd" fill="rgb(100%, 100%, 0%)" fill-opacity="1" d="M 117.648438 104.394531 C 117.648438 103.023438 116.535156 101.910156 115.164062 101.910156 C 113.792969 101.910156 112.683594 103.023438 112.683594 104.394531 C 112.683594 105.765625 113.792969 106.878906 115.164062 106.878906 C 116.535156 106.878906 117.648438 105.765625 117.648438 104.394531 "/>
<path fill-rule="evenodd" fill="rgb(0%, 0%, 0%)" fill-opacity="1" d="M 118.144531 104.394531 C 118.144531 102.75 116.8125 101.414062 115.164062 101.414062 C 113.519531 101.414062 112.1875 102.75 112.1875 104.394531 C 112.1875 106.039062 113.519531 107.375 115.164062 107.375 C 116.8125 107.375 118.144531 106.039062 118.144531 104.394531 M 117.152344 104.394531 C 117.152344 103.296875 116.261719 102.410156 115.164062 102.410156 C 114.070312 102.410156 113.179688 103.296875 113.179688 104.394531 C 113.179688 105.492188 114.070312 106.382812 115.164062 106.382812 C 116.261719 106.382812 117.152344 105.492188 117.152344 104.394531 "/>
<path fill-rule="evenodd" fill="rgb(100%, 100%, 0%)" fill-opacity="1" d="M 198.585938 82.527344 C 198.585938 81.15625 197.472656 80.042969 196.101562 80.042969 C 194.730469 80.042969 193.621094 81.15625 193.621094 82.527344 C 193.621094 83.898438 194.730469 85.011719 196.101562 85.011719 C 197.472656 85.011719 198.585938 83.898438 198.585938 82.527344 "/>
<path fill-rule="evenodd" fill="rgb(0%, 39.199829%, 0%)" fill-opacity="1" d="M 199.082031 82.527344 C 199.082031 80.882812 197.746094 79.546875 196.101562 79.546875 C 194.457031 79.546875 193.121094 80.882812 193.121094 82.527344 C 193.121094 84.171875 194.457031 85.507812 196.101562 85.507812 C 197.746094 85.507812 199.082031 84.171875 199.082031 82.527344 M 198.089844 82.527344 C 198.089844 81.429688 197.199219 80.539062 196.101562 80.539062 C 195.003906 80.539062 194.117188 81.429688 194.117188 82.527344 C 194.117188 83.625 195.003906 84.511719 196.101562 84.511719 C 197.199219 84.511719 198.089844 83.625 198.089844 82.527344 "/>
<path fill-rule="evenodd" fill="rgb(100%, 100%, 0%)" fill-opacity="1" d="M 227.171875 73.683594 C 227.171875 72.3125 226.0625 71.199219 224.691406 71.199219 C 223.320312 71.199219 222.207031 72.3125 222.207031 73.683594 C 222.207031 75.054688 223.320312 76.167969 224.691406 76.167969 C 226.0625 76.167969 227.171875 75.054688 227.171875 73.683594 "/>
<path fill-rule="evenodd" fill="rgb(40.79895%, 13.299561%, 54.499817%)" fill-opacity="1" d="M 227.671875 73.683594 C 227.671875 72.039062 226.335938 70.703125 224.691406 70.703125 C 223.046875 70.703125 221.710938 72.039062 221.710938 73.683594 C 221.710938 75.328125 223.046875 76.664062 224.691406 76.664062 C 226.335938 76.664062 227.671875 75.328125 227.671875 73.683594 M 226.675781 73.683594 C 226.675781 72.585938 225.789062 71.695312 224.691406 71.695312 C 223.59375 71.695312 222.703125 72.585938 222.703125 73.683594 C 222.703125 74.78125 223.59375 75.667969 224.691406 75.667969 C 225.789062 75.667969 226.675781 74.78125 226.675781 73.683594 "/>
<path fill-rule="evenodd" fill="rgb(100%, 100%, 0%)" fill-opacity="1" d="M 78.113281 44.191406 C 78.113281 42.820312 77 41.707031 75.628906 41.707031 C 74.257812 41.707031 73.148438 42.820312 73.148438 44.191406 C 73.148438 45.5625 74.257812 46.675781 75.628906 46.675781 C 77 46.675781 78.113281 45.5625 78.113281 44.191406 "/>
<path fill-rule="evenodd" fill="rgb(54.499817%, 49.398804%, 39.99939%)" fill-opacity="1" d="M 78.609375 44.191406 C 78.609375 42.546875 77.277344 41.210938 75.628906 41.210938 C 73.984375 41.210938 72.648438 42.546875 72.648438 44.191406 C 72.648438 45.835938 73.984375 47.171875 75.628906 47.171875 C 77.277344 47.171875 78.609375 45.835938 78.609375 44.191406 M 77.617188 44.191406 C 77.617188 43.09375 76.726562 42.207031 75.628906 42.207031 C 74.535156 42.207031 73.644531 43.09375 73.644531 44.191406 C 73.644531 45.289062 74.535156 46.179688 75.628906 46.179688 C 76.726562 46.179688 77.617188 45.289062 77.617188 44.191406 "/>
<path fill-rule="evenodd" fill="rgb(100%, 100%, 0%)" fill-opacity="1" d="M 207.582031 26.632812 C 207.582031 25.261719 206.472656 24.148438 205.101562 24.148438 C 203.730469 24.148438 202.617188 25.261719 202.617188 26.632812 C 202.617188 28.003906 203.730469 29.117188 205.101562 29.117188 C 206.472656 29.117188 207.582031 28.003906 207.582031 26.632812 "/>
<path fill-rule="evenodd" fill="rgb(54.499817%, 21.199036%, 14.898682%)" fill-opacity="1" d="M 208.082031 26.632812 C 208.082031 24.988281 206.746094 23.652344 205.101562 23.652344 C 203.457031 23.652344 202.121094 24.988281 202.121094 26.632812 C 202.121094 28.277344 203.457031 29.613281 205.101562 29.613281 C 206.746094 29.613281 208.082031 28.277344 208.082031 26.632812 M 207.085938 26.632812 C 207.085938 25.535156 206.199219 24.644531 205.101562 24.644531 C 204.003906 24.644531 203.113281 25.535156 203.113281 26.632812 C 203.113281 27.730469 204.003906 28.617188 205.101562 28.617188 C 206.199219 28.617188 207.085938 27.730469 207.085938 26.632812 "/>
<path fill-rule="evenodd" fill="rgb(100%, 100%, 0%)" fill-opacity="1" d="M 40.960938 98.140625 C 40.960938 96.769531 39.851562 95.660156 38.480469 95.660156 C 37.109375 95.660156 35.996094 96.769531 35.996094 98.140625 C 35.996094 99.511719 37.109375 100.625 38.480469 100.625 C 39.851562 100.625 40.960938 99.511719 40.960938 98.140625 "/>
<path fill-rule="evenodd" fill="rgb(0%, 39.199829%, 0%)" fill-opacity="1" d="M 41.457031 98.140625 C 41.457031 96.496094 40.125 95.160156 38.480469 95.160156 C 36.832031 95.160156 35.5 96.496094 35.5 98.140625 C 35.5 99.789062 36.832031 101.121094 38.480469 101.121094 C 40.125 101.121094 41.457031 99.789062 41.457031 98.140625 M 40.464844 98.140625 C 40.464844 97.042969 39.578125 96.15625 38.480469 96.15625 C 37.382812 96.15625 36.492188 97.042969 36.492188 98.140625 C 36.492188 99.238281 37.382812 100.128906 38.480469 100.128906 C 39.578125 100.128906 40.464844 99.238281 40.464844 98.140625 "/>
<path fill-rule="evenodd" fill="rgb(100%, 100%, 0%)" fill-opacity="1" d="M 140.238281 72.617188 C 140.238281 71.246094 139.125 70.132812 137.753906 70.132812 C 136.382812 70.132812 135.269531 71.246094 135.269531 72.617188 C 135.269531 73.988281 136.382812 75.101562 137.753906 75.101562 C 139.125 75.101562 140.238281 73.988281 140.238281 72.617188 "/>
<path fill-rule="evenodd" fill="rgb(0%, 0%, 100%)" fill-opacity="1" d="M 140.734375 72.617188 C 140.734375 70.972656 139.398438 69.636719 137.753906 69.636719 C 136.109375 69.636719 134.773438 70.972656 134.773438 72.617188 C 134.773438 74.261719 136.109375 75.597656 137.753906 75.597656 C 139.398438 75.597656 140.734375 74.261719 140.734375 72.617188 M 139.742188 72.617188 C 139.742188 71.519531 138.851562 70.628906 137.753906 70.628906 C 136.65625 70.628906 135.769531 71.519531 135.769531 72.617188 C 135.769531 73.714844 136.65625 74.601562 137.753906 74.601562 C 138.851562 74.601562 139.742188 73.714844 139.742188 72.617188 "/>
<path fill-rule="evenodd" fill="rgb(100%, 100%, 0%)" fill-opacity="1" d="M 158.023438 45.210938 C 158.023438 43.84375 156.910156 42.730469 155.539062 42.730469 C 154.167969 42.730469 153.054688 43.84375 153.054688 45.210938 C 153.054688 46.585938 154.167969 47.695312 155.539062 47.695312 C 156.910156 47.695312 158.023438 46.585938 158.023438 45.210938 "/>
<path fill-rule="evenodd" fill="rgb(0%, 0%, 54.499817%)" fill-opacity="1" d="M 158.519531 45.210938 C 158.519531 43.566406 157.183594 42.234375 155.539062 42.234375 C 153.894531 42.234375 152.558594 43.566406 152.558594 45.210938 C 152.558594 46.859375 153.894531 48.191406 155.539062 48.191406 C 157.183594 48.191406 158.519531 46.859375 158.519531 45.210938 M 157.523438 45.210938 C 157.523438 44.117188 156.636719 43.226562 155.539062 43.226562 C 154.441406 43.226562 153.550781 44.117188 153.550781 45.210938 C 153.550781 46.308594 154.441406 47.199219 155.539062 47.199219 C 156.636719 47.199219 157.523438 46.308594 157.523438 45.210938 "/>
<path fill-rule="evenodd" fill="rgb(100%, 100%, 0%)" fill-opacity="1" d="M 192.167969 88.371094 C 192.167969 87 191.054688 85.890625 189.683594 85.890625 C 188.3125 85.890625 187.199219 87 187.199219 88.371094 C 187.199219 89.742188 188.3125 90.855469 189.683594 90.855469 C 191.054688 90.855469 192.167969 89.742188 192.167969 88.371094 "/>
<path fill-rule="evenodd" fill="rgb(54.499817%, 0%, 54.499817%)" fill-opacity="1" d="M 192.664062 88.371094 C 192.664062 86.726562 191.328125 85.394531 189.683594 85.394531 C 188.039062 85.394531 186.703125 86.726562 186.703125 88.371094 C 186.703125 90.015625 188.039062 91.351562 189.683594 91.351562 C 191.328125 91.351562 192.664062 90.015625 192.664062 88.371094 M 191.667969 88.371094 C 191.667969 87.273438 190.78125 86.386719 189.683594 86.386719 C 188.585938 86.386719 187.695312 87.273438 187.695312 88.371094 C 187.695312 89.46875 188.585938 90.359375 189.683594 90.359375 C 190.78125 90.359375 191.667969 89.46875 191.667969 88.371094 "/>
</svg>
