<?xml version="1.0" encoding="UTF-8"?>
<svg xmlns="http://www.w3.org/2000/svg" xmlns:xlink="http://www.w3.org/1999/xlink" width="253.137" height="145.011" viewBox="0 0 253.137 145.011">
<path fill="none" stroke-width="0.8" stroke-linecap="butt" stroke-linejoin="round" stroke="rgb(0%, 0%, 0%)" stroke-opacity="1" stroke-miterlimit="10" d="M 300.037147 263.601716 L 282.130693 236.008551 " transform="matrix(0.993226, 0, 0, -0.993226, -142.465641, 307.027023)"/>
<path fill="none" stroke-width="0.8" stroke-linecap="butt" stroke-linejoin="round" stroke="rgb(0%, 0%, 0%)" stroke-opacity="1" stroke-miterlimit="10" d="M 219.581989 264.628201 L 282.130693 236.008551 " transform="matrix(0.993226, 0, 0, -0.993226, -142.465641, 307.027023)"/>
<path fill="none" stroke-width="0.8" stroke-linecap="butt" stroke-linejoin="round" stroke="rgb(0%, 0%, 0%)" stroke-opacity="1" stroke-miterlimit="10" d="M 182.180193 210.311039 L 282.130693 236.008551 " transform="matrix(0.993226, 0, 0, -0.993226, -142.465641, 307.027023)"/>
<path fill="none" stroke-width="0.8" stroke-linecap="butt" stroke-linejoin="round" stroke="rgb(0%, 0%, 0%)" stroke-opacity="1" stroke-miterlimit="10" d="M 282.130693 236.008551 L 259.386782 204.01448 " transform="matrix(0.993226, 0, 0, -0.993226, -142.465641, 307.027023)"/>
<path fill="none" stroke-width="0.8" stroke-linecap="butt" stroke-linejoin="round" stroke="rgb(0%, 0%, 0%)" stroke-opacity="1" stroke-miterlimit="10" d="M 282.130693 236.008551 L 334.41455 220.1472 " transform="matrix(0.993226, 0, 0, -0.993226, -142.465641, 307.027023)"/>
<path fill="none" stroke-width="0.8" stroke-linecap="butt" stroke-linejoin="round" stroke="rgb(0%, 0%, 0%)" stroke-opacity="1" stroke-miterlimit="10" d="M 282.130693 236.008551 L 340.87629 226.030806 " transform="matrix(0.993226, 0, 0, -0.993226, -142.465641, 307.027023)"/>
<path fill="none" stroke-width="0.8" stroke-linecap="butt" stroke-linejoin="round" stroke="rgb(0%, 0%, 0%)" stroke-opacity="1" stroke-miterlimit="10" d="M 282.130693 236.008551 L 369.661121 234.934871 " transform="matrix(0.993226, 0, 0, -0.993226, -142.465641, 307.027023)"/>
<path fill="none" stroke-width="0.8" stroke-linecap="butt" stroke-linejoin="round" stroke="rgb(0%, 0%, 0%)" stroke-opacity="1" stroke-miterlimit="10" d="M 282.130693 236.008551 L 349.937672 282.306547 " transform="matrix(0.993226, 0, 0, -0.993226, -142.465641, 307.027023)"/>
<path fill="none" stroke-width="0.8" stroke-linecap="butt" stroke-linejoin="round" stroke="rgb(0%, 0%, 0%)" stroke-opacity="1" stroke-miterlimit="10" d="M 349.937672 282.306547 L 369.661121 234.934871 " transform="matrix(0.993226, 0, 0, -0.993226, -142.465641, 307.027023)"/>
<path fill="none" stroke-width="0.8" stroke-linecap="butt" stroke-linejoin="round" stroke="rgb(0%, 0%, 0%)" stroke-opacity="1" stroke-miterlimit="10" d="M 340.87629 226.030806 L 334.41455 220.1472 " transform="matrix(0.993226, 0, 0, -0.993226, -142.465641, 307.027023)"/>
<path fill="none" stroke-width="0.8" stroke-linecap="butt" stroke-linejoin="round" stroke="rgb(0%, 0%, 0%)" stroke-opacity="1" stroke-miterlimit="10" d="M 259.386782 204.01448 L 334.41455 220.1472 " transform="matrix(0.993226, 0, 0, -0.993226, -142.465641, 307.027023)"/>
<path fill="none" stroke-width="0.8" stroke-linecap="butt" stroke-linejoin="round" stroke="rgb(0%, 0%, 0%)" stroke-opacity="1" stroke-miterlimit="10" d="M 300.037147 263.601716 C 279.3934 268.686945 258.537278 256.074162 253.452049 235.430416 C 250.781616 224.5953 252.948639 213.130922 259.390715 204.01448 " transform="matrix(0.993226, 0, 0, -0.993226, -142.465641, 307.027023)"/>
<path fill="none" stroke-width="0.8" stroke-linecap="butt" stroke-linejoin="round" stroke="rgb(0%, 0%, 0%)" stroke-opacity="1" stroke-miterlimit="10" d="M 369.661121 234.934871 L 340.87629 226.030806 " transform="matrix(0.993226, 0, 0, -0.993226, -142.465641, 307.027023)"/>
<path fill="none" stroke-width="0.8" stroke-linecap="butt" stroke-linejoin="round" stroke="rgb(0%, 0%, 0%)" stroke-opacity="1" stroke-miterlimit="10" d="M 340.87629 226.030806 L 300.037147 263.601716 " transform="matrix(0.993226, 0, 0, -0.993226, -142.465641, 307.027023)"/>
<path fill="none" stroke-width="0.8" stroke-linecap="butt" stroke-linejoin="round" stroke="rgb(0%, 0%, 0%)" stroke-opacity="1" stroke-miterlimit="10" d="M 369.661121 234.934871 C 371.501715 224.261004 364.343852 214.114145 353.673918 212.273552 C 346.27615 210.995362 338.799723 214.051219 334.41455 220.1472 " transform="matrix(0.993226, 0, 0, -0.993226, -142.465641, 307.027023)"/>
<path fill-rule="evenodd" fill="rgb(100%, 100%, 100%)" fill-opacity="1" d="M 170.964844 74.671875 C 185.023438 72.265625 212.027344 78.183594 211.472656 83.546875 C 210.917969 88.914062 182.804688 93.722656 169.300781 90.761719 C 155.796875 87.800781 156.910156 77.074219 170.964844 74.671875 Z M 170.964844 74.671875 "/>
<path fill-rule="evenodd" fill="rgb(100%, 100%, 100%)" fill-opacity="1" d="M 136.597656 107.132812 C 129.976562 119.789062 100.773438 131.082031 89.675781 128.941406 C 78.578125 126.800781 85.585938 111.222656 92.207031 98.566406 C 98.828125 85.914062 105.058594 76.175781 116.15625 78.320312 C 127.253906 80.460938 143.21875 94.480469 136.597656 107.132812 Z M 136.597656 107.132812 "/>
<path fill-rule="evenodd" fill="rgb(100%, 100%, 100%)" fill-opacity="1" d="M 173.226562 60.390625 C 170.308594 49.097656 141.492188 30.019531 130.394531 27.292969 C 119.296875 24.566406 125.914062 38.195312 128.835938 49.488281 C 131.757812 60.78125 130.976562 69.738281 142.074219 72.460938 C 153.171875 75.1875 176.148438 71.683594 173.226562 60.390625 Z M 173.226562 60.390625 "/>
<path fill-rule="evenodd" fill="rgb(100%, 100%, 100%)" fill-opacity="1" d="M 160.082031 68.253906 C 177.019531 65.917969 208.953125 95.511719 207.976562 112.644531 C 207.003906 129.777344 173.128906 134.449219 157.164062 119.652344 C 141.199219 104.855469 143.144531 70.589844 160.082031 68.253906 Z M 160.082031 68.253906 "/>
<path fill-rule="evenodd" fill="rgb(100%, 100%, 100%)" fill-opacity="1" d="M 218.40625 40.128906 C 228.726562 47.71875 242.355469 71.085938 239.242188 87.4375 C 236.125 103.792969 216.265625 113.136719 205.949219 105.546875 C 195.628906 97.953125 194.851562 73.421875 197.964844 57.066406 C 201.082031 40.710938 208.089844 32.535156 218.40625 40.128906 Z M 218.40625 40.128906 "/>
<path fill-rule="evenodd" fill="rgb(100%, 100%, 100%)" fill-opacity="1" d="M 87.71875 22.992188 C 97.257812 28.25 100.761719 43.4375 94.726562 53.753906 C 88.691406 64.074219 73.117188 69.527344 63.574219 64.269531 C 54.035156 59.011719 50.53125 43.046875 56.566406 32.726562 C 62.601562 22.410156 78.179688 17.738281 87.71875 22.992188 Z M 87.71875 22.992188 "/>
<path fill-rule="evenodd" fill="rgb(100%, 100%, 100%)" fill-opacity="1" d="M 71.984375 92 C 69.453125 85.964844 55.046875 78.175781 39.859375 83.238281 C 24.671875 88.300781 8.707031 106.214844 11.238281 112.25 C 13.769531 118.285156 34.796875 112.445312 49.984375 107.382812 C 65.167969 102.320312 74.515625 98.035156 71.984375 92 Z M 71.984375 92 "/>
<path fill-rule="evenodd" fill="rgb(100%, 100%, 100%)" fill-opacity="1" d="M 189.585938 9.195312 C 202.828125 5.496094 223.855469 7.445312 233.199219 14.839844 C 242.546875 22.242188 240.210938 35.089844 226.96875 38.789062 C 213.730469 42.488281 189.585938 37.039062 180.242188 29.640625 C 170.898438 22.242188 176.347656 12.894531 189.585938 9.195312 Z M 189.585938 9.195312 "/>
<path fill-rule="evenodd" fill="rgb(100%, 100%, 100%)" fill-opacity="1" d="M 199.160156 65.59375 C 206.222656 79.503906 217.90625 100.917969 200.382812 112.601562 C 182.859375 124.285156 136.132812 126.230469 110.410156 111.648438 C 84.691406 97.066406 79.972656 65.953125 75.226562 50.375 C 70.480469 34.800781 65.707031 34.761719 63.804688 43.992188 C 61.90625 53.21875 62.878906 71.714844 61.304688 76.003906 C 59.734375 80.289062 55.617188 70.367188 52.546875 60.179688 C 49.472656 49.992188 47.453125 39.542969 52.027344 32.394531 C 56.605469 25.246094 67.777344 21.398438 91.40625 23.03125 C 115.03125 24.660156 151.113281 31.769531 169.15625 35.324219 C 187.195312 38.878906 187.195312 38.878906 188.417969 42.082031 C 189.644531 45.28125 192.09375 51.683594 199.160156 65.59375 Z M 199.160156 65.59375 "/>
<path fill="none" stroke-width="0.8" stroke-linecap="butt" stroke-linejoin="round" stroke="rgb(0%, 39.199829%, 0%)" stroke-opacity="1" stroke-miterlimit="10" d="M 315.568134 233.93985 C 329.72261 236.362511 356.910688 230.404181 356.352217 225.004321 C 355.793747 219.600528 327.488728 214.759139 313.892723 217.740271 C 300.296718 220.721402 301.417592 231.521122 315.568134 233.93985 Z M 315.568134 233.93985 " transform="matrix(0.993226, 0, 0, -0.993226, -142.465641, 307.027023)"/>
<path fill="none" stroke-width="0.8" stroke-linecap="butt" stroke-linejoin="round" stroke="rgb(12.5%, 12.5%, 12.5%)" stroke-opacity="1" stroke-miterlimit="10" d="M 280.966557 201.257523 C 274.300306 188.514955 244.898011 177.144967 233.724667 179.300191 C 222.551322 181.455416 229.606929 197.139786 236.27318 209.882354 C 242.939431 222.620989 249.212392 232.425687 260.385737 230.266529 C 271.559081 228.111305 287.632808 213.996158 280.966557 201.257523 Z M 280.966557 201.257523 " transform="matrix(0.993226, 0, 0, -0.993226, -142.465641, 307.027023)"/>
<path fill="none" stroke-width="0.8" stroke-linecap="butt" stroke-linejoin="round" stroke="rgb(0%, 0%, 54.499817%)" stroke-opacity="1" stroke-miterlimit="10" d="M 317.845279 248.318501 C 314.907409 259.688489 285.89447 278.89673 274.721125 281.641889 C 263.547781 284.387047 270.210099 270.665189 273.151902 259.2952 C 276.093705 247.925211 275.307126 238.907092 286.48047 236.165866 C 297.653815 233.420708 320.787081 236.948512 317.845279 248.318501 Z M 317.845279 248.318501 " transform="matrix(0.993226, 0, 0, -0.993226, -142.465641, 307.027023)"/>
<path fill="none" stroke-width="0.8" stroke-linecap="butt" stroke-linejoin="round" stroke="rgb(54.499817%, 0%, 54.499817%)" stroke-opacity="1" stroke-miterlimit="10" d="M 304.611099 240.40159 C 321.664116 242.753459 353.815502 212.957875 352.83228 195.708214 C 351.85299 178.458552 317.746956 173.754814 301.67323 188.652607 C 285.599503 203.550399 287.558083 238.049721 304.611099 240.40159 Z M 304.611099 240.40159 " transform="matrix(0.993226, 0, 0, -0.993226, -142.465641, 307.027023)"/>
<path fill="none" stroke-width="0.8" stroke-linecap="butt" stroke-linejoin="round" stroke="rgb(80.39856%, 6.298828%, 46.299744%)" stroke-opacity="1" stroke-miterlimit="10" d="M 363.333099 268.718408 C 373.723798 261.0768 387.445656 237.550244 384.311141 221.087161 C 381.172694 204.620145 361.177875 195.212669 350.791109 202.854277 C 340.40041 210.499818 339.617765 235.198375 342.752279 251.665391 C 345.890726 268.132407 352.946333 276.363948 363.333099 268.718408 Z M 363.333099 268.718408 " transform="matrix(0.993226, 0, 0, -0.993226, -142.465641, 307.027023)"/>
<path fill="none" stroke-width="0.8" stroke-linecap="butt" stroke-linejoin="round" stroke="rgb(54.499817%, 49.398804%, 39.99939%)" stroke-opacity="1" stroke-miterlimit="10" d="M 231.754288 285.972002 C 241.358409 280.67833 244.886212 265.387249 238.809895 255.000483 C 232.733578 244.609784 217.05314 239.119468 207.445087 244.413139 C 197.840966 249.706811 194.313163 265.780538 200.38948 276.171237 C 206.465797 286.558003 222.150167 291.261741 231.754288 285.972002 Z M 231.754288 285.972002 " transform="matrix(0.993226, 0, 0, -0.993226, -142.465641, 307.027023)"/>
<path fill="none" stroke-width="0.8" stroke-linecap="butt" stroke-linejoin="round" stroke="rgb(0%, 39.199829%, 0%)" stroke-opacity="1" stroke-miterlimit="10" d="M 215.912602 216.493544 C 213.364088 222.569861 198.859585 230.412046 183.568504 225.315019 C 168.277422 220.217992 152.203696 202.181753 154.752209 196.105436 C 157.300723 190.029119 178.471477 195.908791 193.762558 201.005818 C 209.049707 206.102845 218.461115 210.417227 215.912602 216.493544 Z M 215.912602 216.493544 " transform="matrix(0.993226, 0, 0, -0.993226, -142.465641, 307.027023)"/>
<path fill="none" stroke-width="0.8" stroke-linecap="butt" stroke-linejoin="round" stroke="rgb(54.499817%, 21.199036%, 14.898682%)" stroke-opacity="1" stroke-miterlimit="10" d="M 334.316227 299.862974 C 347.648729 303.587422 368.819483 301.624909 378.226959 294.179946 C 387.638367 286.727117 385.286499 273.791837 371.953997 270.067389 C 358.625428 266.342941 334.316227 271.829325 324.908751 279.278221 C 315.501275 286.727117 320.987659 296.138526 334.316227 299.862974 Z M 334.316227 299.862974 " transform="matrix(0.993226, 0, 0, -0.993226, -142.465641, 307.027023)"/>
<path fill="none" stroke-width="0.8" stroke-linecap="butt" stroke-linejoin="round" stroke="rgb(0%, 0%, 100%)" stroke-opacity="1" stroke-miterlimit="10" d="M 343.955744 243.079889 C 351.066411 229.074863 362.829689 207.514753 345.186739 195.751475 C 327.543788 183.988198 280.498543 182.029618 254.600454 196.711101 C 228.706297 211.392584 223.955365 242.718063 219.176902 258.402434 C 214.398439 274.082871 209.592446 274.1222 207.677127 264.828778 C 205.765742 255.539289 206.745032 236.917049 205.160077 232.598734 C 203.579055 228.284352 199.433787 238.273896 196.342535 248.530877 C 193.247349 258.787857 191.214045 269.308341 195.81946 276.505532 C 200.428809 283.702724 211.676878 287.576621 235.466937 285.932673 C 259.253064 284.292657 295.581181 277.134795 313.747206 273.555864 C 331.909298 269.976933 331.909298 269.976933 333.140293 266.751962 C 334.375221 263.530924 336.841143 257.084915 343.955744 243.079889 Z M 343.955744 243.079889 " transform="matrix(0.993226, 0, 0, -0.993226, -142.465641, 307.027023)"/>
<path fill-rule="evenodd" fill="rgb(54.499817%, 0%, 0%)" fill-opacity="0.1" stroke-width="0.8" stroke-linecap="butt" stroke-linejoin="round" stroke="rgb(0%, 39.199829%, 0%)" stroke-opacity="0.1" stroke-miterlimit="10" d="M 315.568134 233.93985 C 329.72261 236.362511 356.910688 230.404181 356.352217 225.004321 C 355.793747 219.600528 327.488728 214.759139 313.892723 217.740271 C 300.296718 220.721402 301.417592 231.521122 315.568134 233.93985 Z M 315.568134 233.93985 " transform="matrix(0.993226, 0, 0, -0.993226, -142.465641, 307.027023)"/>
<path fill-rule="evenodd" fill="rgb(54.499817%, 0%, 0%)" fill-opacity="0.1" stroke-width="0.8" stroke-linecap="butt" stroke-linejoin="round" stroke="rgb(12.5%, 12.5%, 12.5%)" stroke-opacity="0.1" stroke-miterlimit="10" d="M 280.966557 201.257523 C 274.300306 188.514955 244.898011 177.144967 233.724667 179.300191 C 222.551322 181.455416 229.606929 197.139786 236.27318 209.882354 C 242.939431 222.620989 249.212392 232.425687 260.385737 230.266529 C 271.559081 228.111305 287.632808 213.996158 280.966557 201.257523 Z M 280.966557 201.257523 " transform="matrix(0.993226, 0, 0, -0.993226, -142.465641, 307.027023)"/>
<path fill-rule="evenodd" fill="rgb(0%, 39.199829%, 0%)" fill-opacity="0.1" stroke-width="0.8" stroke-linecap="butt" stroke-linejoin="round" stroke="rgb(0%, 0%, 54.499817%)" stroke-opacity="0.1" stroke-miterlimit="10" d="M 317.845279 248.318501 C 314.907409 259.688489 285.89447 278.89673 274.721125 281.641889 C 263.547781 284.387047 270.210099 270.665189 273.151902 259.2952 C 276.093705 247.925211 275.307126 238.907092 286.48047 236.165866 C 297.653815 233.420708 320.787081 236.948512 317.845279 248.318501 Z M 317.845279 248.318501 " transform="matrix(0.993226, 0, 0, -0.993226, -142.465641, 307.027023)"/>
<path fill-rule="evenodd" fill="rgb(54.499817%, 0%, 0%)" fill-opacity="0.1" stroke-width="0.8" stroke-linecap="butt" stroke-linejoin="round" stroke="rgb(54.499817%, 0%, 54.499817%)" stroke-opacity="0.1" stroke-miterlimit="10" d="M 304.611099 240.40159 C 321.664116 242.753459 353.815502 212.957875 352.83228 195.708214 C 351.85299 178.458552 317.746956 173.754814 301.67323 188.652607 C 285.599503 203.550399 287.558083 238.049721 304.611099 240.40159 Z M 304.611099 240.40159 " transform="matrix(0.993226, 0, 0, -0.993226, -142.465641, 307.027023)"/>
<path fill-rule="evenodd" fill="rgb(59.999084%, 19.599915%, 79.998779%)" fill-opacity="0.1" stroke-width="0.8" stroke-linecap="butt" stroke-linejoin="round" stroke="rgb(80.39856%, 6.298828%, 46.299744%)" stroke-opacity="0.1" stroke-miterlimit="10" d="M 363.333099 268.718408 C 373.723798 261.0768 387.445656 237.550244 384.311141 221.087161 C 381.172694 204.620145 361.177875 195.212669 350.791109 202.854277 C 340.40041 210.499818 339.617765 235.198375 342.752279 251.665391 C 345.890726 268.132407 352.946333 276.363948 363.333099 268.718408 Z M 363.333099 268.718408 " transform="matrix(0.993226, 0, 0, -0.993226, -142.465641, 307.027023)"/>
<path fill-rule="evenodd" fill="rgb(54.499817%, 0%, 0%)" fill-opacity="0.1" stroke-width="0.8" stroke-linecap="butt" stroke-linejoin="round" stroke="rgb(54.499817%, 49.398804%, 39.99939%)" stroke-opacity="0.1" stroke-miterlimit="10" d="M 231.754288 285.972002 C 241.358409 280.67833 244.886212 265.387249 238.809895 255.000483 C 232.733578 244.609784 217.05314 239.119468 207.445087 244.413139 C 197.840966 249.706811 194.313163 265.780538 200.38948 276.171237 C 206.465797 286.558003 222.150167 291.261741 231.754288 285.972002 Z M 231.754288 285.972002 " transform="matrix(0.993226, 0, 0, -0.993226, -142.465641, 307.027023)"/>
<path fill-rule="evenodd" fill="rgb(54.499817%, 0%, 0%)" fill-opacity="0.1" stroke-width="0.8" stroke-linecap="butt" stroke-linejoin="round" stroke="rgb(0%, 39.199829%, 0%)" stroke-opacity="0.1" stroke-miterlimit="10" d="M 215.912602 216.493544 C 213.364088 222.569861 198.859585 230.412046 183.568504 225.315019 C 168.277422 220.217992 152.203696 202.181753 154.752209 196.105436 C 157.300723 190.029119 178.471477 195.908791 193.762558 201.005818 C 209.049707 206.102845 218.461115 210.417227 215.912602 216.493544 Z M 215.912602 216.493544 " transform="matrix(0.993226, 0, 0, -0.993226, -142.465641, 307.027023)"/>
<path fill-rule="evenodd" fill="rgb(100%, 54.899597%, 0%)" fill-opacity="0.1" stroke-width="0.8" stroke-linecap="butt" stroke-linejoin="round" stroke="rgb(54.499817%, 21.199036%, 14.898682%)" stroke-opacity="0.1" stroke-miterlimit="10" d="M 334.316227 299.862974 C 347.648729 303.587422 368.819483 301.624909 378.226959 294.179946 C 387.638367 286.727117 385.286499 273.791837 371.953997 270.067389 C 358.625428 266.342941 334.316227 271.829325 324.908751 279.278221 C 315.501275 286.727117 320.987659 296.138526 334.316227 299.862974 Z M 334.316227 299.862974 " transform="matrix(0.993226, 0, 0, -0.993226, -142.465641, 307.027023)"/>
<path fill-rule="evenodd" fill="rgb(0%, 0%, 100%)" fill-opacity="0.1" stroke-width="0.8" stroke-linecap="butt" stroke-linejoin="round" stroke="rgb(69.799805%, 13.299561%, 13.299561%)" stroke-opacity="0.1" stroke-miterlimit="10" d="M 343.955744 243.079889 C 351.066411 229.074863 362.829689 207.514753 345.186739 195.751475 C 327.543788 183.988198 280.498543 182.029618 254.600454 196.711101 C 228.706297 211.392584 223.955365 242.718063 219.176902 258.402434 C 214.398439 274.082871 209.592446 274.1222 207.677127 264.828778 C 205.765742 255.539289 206.745032 236.917049 205.160077 232.598734 C 203.579055 228.284352 199.433787 238.273896 196.342535 248.530877 C 193.247349 258.787857 191.214045 269.308341 195.81946 276.505532 C 200.428809 283.702724 211.676878 287.576621 235.466937 285.932673 C 259.253064 284.292657 295.581181 277.134795 313.747206 273.555864 C 331.909298 269.976933 331.909298 269.976933 333.140293 266.751962 C 334.375221 263.530924 336.841143 257.084915 343.955744 243.079889 Z M 343.955744 243.079889 " transform="matrix(0.993226, 0, 0, -0.993226, -142.465641, 307.027023)"/>
<path fill="none" stroke-width="0.8" stroke-linecap="butt" stroke-linejoin="round" stroke="rgb(0%, 0%, 0%)" stroke-opacity="0.3" stroke-miterlimit="10" d="M 300.037147 263.601716 L 282.130693 236.008551 " transform="matrix(0.993226, 0, 0, -0.993226, -142.465641, 307.027023)"/>
<path fill="none" stroke-width="0.8" stroke-linecap="butt" stroke-linejoin="round" stroke="rgb(0%, 0%, 0%)" stroke-opacity="0.3" stroke-miterlimit="10" d="M 219.581989 264.628201 L 282.130693 236.008551 " transform="matrix(0.993226, 0, 0, -0.993226, -142.465641, 307.027023)"/>
<path fill="none" stroke-width="0.8" stroke-linecap="butt" stroke-linejoin="round" stroke="rgb(0%, 0%, 0%)" stroke-opacity="0.3" stroke-miterlimit="10" d="M 182.180193 210.311039 L 282.130693 236.008551 " transform="matrix(0.993226, 0, 0, -0.993226, -142.465641, 307.027023)"/>
<path fill="none" stroke-width="0.8" stroke-linecap="butt" stroke-linejoin="round" stroke="rgb(0%, 0%, 0%)" stroke-opacity="0.3" stroke-miterlimit="10" d="M 282.130693 236.008551 L 259.386782 204.01448 " transform="matrix(0.993226, 0, 0, -0.993226, -142.465641, 307.027023)"/>
<path fill="none" stroke-width="0.8" stroke-linecap="butt" stroke-linejoin="round" stroke="rgb(0%, 0%, 0%)" stroke-opacity="0.3" stroke-miterlimit="10" d="M 282.130693 236.008551 L 334.41455 220.1472 " transform="matrix(0.993226, 0, 0, -0.993226, -142.465641, 307.027023)"/>
<path fill="none" stroke-width="0.8" stroke-linecap="butt" stroke-linejoin="round" stroke="rgb(0%, 0%, 0%)" stroke-opacity="0.3" stroke-miterlimit="10" d="M 282.130693 236.008551 L 340.87629 226.030806 " transform="matrix(0.993226, 0, 0, -0.993226, -142.465641, 307.027023)"/>
<path fill="none" stroke-width="0.8" stroke-linecap="butt" stroke-linejoin="round" stroke="rgb(0%, 0%, 0%)" stroke-opacity="0.3" stroke-miterlimit="10" d="M 282.130693 236.008551 L 369.661121 234.934871 " transform="matrix(0.993226, 0, 0, -0.993226, -142.465641, 307.027023)"/>
<path fill="none" stroke-width="0.8" stroke-linecap="butt" stroke-linejoin="round" stroke="rgb(0%, 0%, 0%)" stroke-opacity="0.3" stroke-miterlimit="10" d="M 282.130693 236.008551 L 349.937672 282.306547 " transform="matrix(0.993226, 0, 0, -0.993226, -142.465641, 307.027023)"/>
<path fill="none" stroke-width="0.8" stroke-linecap="butt" stroke-linejoin="round" stroke="rgb(0%, 0%, 0%)" stroke-opacity="0.3" stroke-miterlimit="10" d="M 349.937672 282.306547 L 369.661121 234.934871 " transform="matrix(0.993226, 0, 0, -0.993226, -142.465641, 307.027023)"/>
<path fill="none" stroke-width="0.8" stroke-linecap="butt" stroke-linejoin="round" stroke="rgb(0%, 0%, 0%)" stroke-opacity="0.3" stroke-miterlimit="10" d="M 340.87629 226.030806 L 334.41455 220.1472 " transform="matrix(0.993226, 0, 0, -0.993226, -142.465641, 307.027023)"/>
<path fill="none" stroke-width="0.8" stroke-linecap="butt" stroke-linejoin="round" stroke="rgb(0%, 0%, 0%)" stroke-opacity="0.3" stroke-miterlimit="10" d="M 259.386782 204.01448 L 334.41455 220.1472 " transform="matrix(0.993226, 0, 0, -0.993226, -142.465641, 307.027023)"/>
<path fill="none" stroke-width="0.8" stroke-linecap="butt" stroke-linejoin="round" stroke="rgb(0%, 0%, 0%)" stroke-opacity="0.3" stroke-miterlimit="10" d="M 300.037147 263.601716 C 279.3934 268.686945 258.537278 256.074162 253.452049 235.430416 C 250.781616 224.5953 252.948639 213.130922 259.390715 204.01448 " transform="matrix(0.993226, 0, 0, -0.993226, -142.465641, 307.027023)"/>
<path fill="none" stroke-width="0.8" stroke-linecap="butt" stroke-linejoin="round" stroke="rgb(0%, 0%, 0%)" stroke-opacity="0.3" stroke-miterlimit="10" d="M 369.661121 234.934871 L 340.87629 226.030806 " transform="matrix(0.993226, 0, 0, -0.993226, -142.465641, 307.027023)"/>
<path fill="none" stroke-width="0.8" stroke-linecap="butt" stroke-linejoin="round" stroke="rgb(0%, 0%, 0%)" stroke-opacity="0.3" stroke-miterlimit="10" d="M 340.87629 226.030806 L 300.037147 263.601716 " transform="matrix(0.993226, 0, 0, -0.993226, -142.465641, 307.027023)"/>
<path fill="none" stroke-width="0.8" stroke-linecap="butt" stroke-linejoin="round" stroke="rgb(0%, 0%, 0%)" stroke-opacity="0.3" stroke-miterlimit="10" d="M 369.661121 234.934871 C 371.501715 224.261004 364.343852 214.114145 353.673918 212.273552 C 346.27615 210.995362 338.799723 214.051219 334.41455 220.1472 " transform="matrix(0.993226, 0, 0, -0.993226, -142.465641, 307.027023)"/>
<path fill-rule="evenodd" fill="rgb(100%, 100%, 0%)" fill-opacity="1" d="M 117.648438 104.394531 C 117.648438 103.023438 116.535156 101.910156 115.164062 101.910156 C 113.792969 101.910156 112.683594 103.023438 112.683594 104.394531 C 112.683594 105.765625 113.792969 106.878906 115.164062 106.878906 C 116.535156 106.878906 117.648438 105.765625 117.648438 104.394531 "/>
<path fill-rule="evenodd" fill="rgb(0%, 0%, 0%)" fill-opacity="1" d="M 118.144531 104.394531 C 118.144531 102.75 116.8125 101.414062 115.164062 101.414062 C 113.519531 101.414062 112.1875 102.75 112.1875 104.394531 C 112.1875 106.039062 113.519531 107.375 115.164062 107.375 C 116.8125 107.375 118.144531 106.039062 118.144531 104.394531 M 117.152344 104.394531 C 117.152344 103.296875 116.261719 102.410156 115.164062 102.410156 C 114.070312 102.410156 113.179688 103.296875 113.179688 104.394531 C 113.179688 105.492188 114.070312 106.382812 115.164062 106.382812 C 116.261719 106.382812 117.152344 105.492188 117.152344 104.394531 "/>
<path fill-rule="evenodd" fill="rgb(100%, 100%, 0%)" fill-opacity="1" d="M 198.585938 82.527344 C 198.585938 81.15625 197.472656 80.042969 196.101562 80.042969 C 194.730469 80.042969 193.621094 81.15625 193.621094 82.527344 C 193.621094 83.898438 194.730469 85.011719 196.101562 85.011719 C 197.472656 85.011719 198.585938 83.898438 198.585938 82.527344 "/>
<path fill-rule="evenodd" fill="rgb(0%, 39.199829%, 0%)" fill-opacity="1" d="M 199.082031 82.527344 C 199.082031 80.882812 197.746094 79.546875 196.101562 79.546875 C 194.457031 79.546875 193.121094 80.882812 193.121094 82.527344 C 193.121094 84.171875 194.457031 85.507812 196.101562 85.507812 C 197.746094 85.507812 199.082031 84.171875 199.082031 82.527344 M 198.089844 82.527344 C 198.089844 81.429688 197.199219 80.539062 196.101562 80.539062 C 195.003906 80.539062 194.117188 81.429688 194.117188 82.527344 C 194.117188 83.625 195.003906 84.511719 196.101562 84.511719 C 197.199219 84.511719 198.089844 83.625 198.089844 82.527344 "/>
<path fill-rule="evenodd" fill="rgb(100%, 100%, 0%)" fill-opacity="1" d="M 227.171875 73.683594 C 227.171875 72.3125 226.0625 71.199219 224.691406 71.199219 C 223.320312 71.199219 222.207031 72.3125 222.207031 73.683594 C 222.207031 75.054688 223.320312 76.167969 224.691406 76.167969 C 226.0625 76.167969 227.171875 75.054688 227.171875 73.683594 "/>
<path fill-rule="evenodd" fill="rgb(40.79895%, 13.299561%, 54.499817%)" fill-opacity="1" d="M 227.671875 73.683594 C 227.671875 72.039062 226.335938 70.703125 224.691406 70.703125 C 223.046875 70.703125 221.710938 72.039062 221.710938 73.683594 C 221.710938 75.328125 223.046875 76.664062 224.691406 76.664062 C 226.335938 76.664062 227.671875 75.328125 227.671875 73.683594 M 226.675781 73.683594 C 226.675781 72.585938 225.789062 71.695312 224.691406 71.695312 C 223.59375 71.695312 222.703125 72.585938 222.703125 73.683594 C 222.703125 74.78125 223.59375 75.667969 224.691406 75.667969 C 225.789062 75.667969 226.675781 74.78125 226.675781 73.683594 "/>
<path fill-rule="evenodd" fill="rgb(100%, 100%, 0%)" fill-opacity="1" d="M 78.113281 44.191406 C 78.113281 42.820312 77 41.707031 75.628906 41.707031 C 74.257812 41.707031 73.148438 42.820312 73.148438 44.191406 C 73.148438 45.5625 74.257812 46.675781 75.628906 46.675781 C 77 46.675781 78.113281 45.5625 78.113281 44.191406 "/>
<path fill-rule="evenodd" fill="rgb(54.499817%, 49.398804%, 39.99939%)" fill-opacity="1" d="M 78.609375 44.191406 C 78.609375 42.546875 77.277344 41.210938 75.628906 41.210938 C 73.984375 41.210938 72.648438 42.546875 72.648438 44.191406 C 72.648438 45.835938 73.984375 47.171875 75.628906 47.171875 C 77.277344 47.171875 78.609375 45.835938 78.609375 44.191406 M 77.617188 44.191406 C 77.617188 43.09375 76.726562 42.207031 75.628906 42.207031 C 74.535156 42.207031 73.644531 43.09375 73.644531 44.191406 C 73.644531 45.289062 74.535156 46.179688 75.628906 46.179688 C 76.726562 46.179688 77.617188 45.289062 77.617188 44.191406 "/>
<path fill-rule="evenodd" fill="rgb(100%, 100%, 0%)" fill-opacity="1" d="M 207.582031 26.632812 C 207.582031 25.261719 206.472656 24.148438 205.101562 24.148438 C 203.730469 24.148438 202.617188 25.261719 202.617188 26.632812 C 202.617188 28.003906 203.730469 29.117188 205.101562 29.117188 C 206.472656 29.117188 207.582031 28.003906 207.582031 26.632812 "/>
<path fill-rule="evenodd" fill="rgb(54.499817%, 21.199036%, 14.898682%)" fill-opacity="1" d="M 208.082031 26.632812 C 208.082031 24.988281 206.746094 23.652344 205.101562 23.652344 C 203.457031 23.652344 202.121094 24.988281 202.121094 26.632812 C 202.121094 28.277344 203.457031 29.613281 205.101562 29.613281 C 206.746094 29.613281 208.082031 28.277344 208.082031 26.632812 M 207.085938 26.632812 C 207.085938 25.535156 206.199219 24.644531 205.101562 24.644531 C 204.003906 24.644531 203.113281 25.535156 203.113281 26.632812 C 203.113281 27.730469 204.003906 28.617188 205.101562 28.617188 C 206.199219 28.617188 207.085938 27.730469 207.085938 26.632812 "/>
<path fill-rule="evenodd" fill="rgb(100%, 100%, 0%)" fill-opacity="1" d="M 40.960938 98.140625 C 40.960938 96.769531 39.851562 95.660156 38.480469 95.660156 C 37.109375 95.660156 35.996094 96.769531 35.996094 98.140625 C 35.996094 99.511719 37.109375 100.625 38.480469 100.625 C 39.851562 100.625 40.960938 99.511719 40.960938 98.140625 "/>
<path fill-rule="evenodd" fill="rgb(0%, 39.199829%, 0%)" fill-opacity="1" d="M 41.457031 98.140625 C 41.457031 96.496094 40.125 95.160156 38.480469 95.160156 C 36.832031 95.160156 35.5 96.496094 35.5 98.140625 C 35.5 99.789062 36.832031 101.121094 38.480469 101.121094 C 40.125 101.121094 41.457031 99.789062 41.457031 98.140625 M 40.464844 98.140625 C 40.464844 97.042969 39.578125 96.15625 38.480469 96.15625 C 37.382812 96.15625 36.492188 97.042969 36.492188 98.140625 C 36.492188 99.238281 37.382812 100.128906 38.480469 100.128906 C 39.578125 100.128906 40.464844 99.238281 40.464844 98.140625 "/>
<path fill-rule="evenodd" fill="rgb(100%, 100%, 0%)" fill-opacity="1" d="M 140.238281 72.617188 C 140.238281 71.246094 139.125 70.132812 137.753906 70.132812 C 136.382812 70.132812 135.269531 71.246094 135.269531 72.617188 C 135.269531 73.988281 136.382812 75.101562 137.753906 75.101562 C 139.125 75.101562 140.238281 73.988281 140.238281 72.617188 "/>
<path fill-rule="evenodd" fill="rgb(0%, 0%, 100%)" fill-opacity="1" d="M 140.734375 72.617188 C 140.734375 70.972656 139.398438 69.636719 137.753906 69.636719 C 136.109375 69.636719 134.773438 70.972656 134.773438 72.617188 C 134.773438 74.261719 136.109375 75.597656 137.753906 75.597656 C 139.398438 75.597656 140.734375 74.261719 140.734375 72.617188 M 139.742188 72.617188 C 139.742188 71.519531 138.851562 70.628906 137.753906 70.628906 C 136.65625 70.628906 135.769531 71.519531 135.769531 72.617188 C 135.769531 73.714844 136.65625 74.601562 137.753906 74.601562 C 138.851562 74.601562 139.742188 73.714844 139.742188 72.617188 "/>
<path fill-rule="evenodd" fill="rgb(100%, 100%, 0%)" fill-opacity="1" d="M 158.023438 45.210938 C 158.023438 43.84375 156.910156 42.730469 155.539062 42.730469 C 154.167969 42.730469 153.054688 43.84375 153.054688 45.210938 C 153.054688 46.585938 154.167969 47.695312 155.539062 47.695312 C 156.910156 47.695312 158.023438 46.585938 158.023438 45.210938 "/>
<path fill-rule="evenodd" fill="rgb(0%, 0%, 54.499817%)" fill-opacity="1" d="M 158.519531 45.210938 C 158.519531 43.566406 157.183594 42.234375 155.539062 42.234375 C 153.894531 42.234375 152.558594 43.566406 152.558594 45.210938 C 152.558594 46.859375 153.894531 48.191406 155.539062 48.191406 C 157.183594 48.191406 158.519531 46.859375 158.519531 45.210938 M 157.523438 45.210938 C 157.523438 44.117188 156.636719 43.226562 155.539062 43.226562 C 154.441406 43.226562 153.550781 44.117188 153.550781 45.210938 C 153.550781 46.308594 154.441406 47.199219 155.539062 47.199219 C 156.636719 47.199219 157.523438 46.308594 157.523438 45.210938 "/>
<path fill-rule="evenodd" fill="rgb(100%, 100%, 0%)" fill-opacity="1" d="M 192.167969 88.371094 C 192.167969 87 191.054688 85.890625 189.683594 85.890625 C 188.3125 85.890625 187.199219 87 187.199219 88.371094 C 187.199219 89.742188 188.3125 90.855469 189.683594 90.855469 C 191.054688 90.855469 192.167969 89.742188 192.167969 88.371094 "/>
<path fill-rule="evenodd" fill="rgb(54.499817%, 0%, 54.499817%)" fill-opacity="1" d="M 192.664062 88.371094 C 192.664062 86.726562 191.328125 85.394531 189.683594 85.394531 C 188.039062 85.394531 186.703125 86.726562 186.703125 88.371094 C 186.703125 90.015625 188.039062 91.351562 189.683594 91.351562 C 191.328125 91.351562 192.664062 90.015625 192.664062 88.371094 M 191.667969 88.371094 C 191.667969 87.273438 190.78125 86.386719 189.683594 86.386719 C 188.585938 86.386719 187.695312 87.273438 187.695312 88.371094 C 187.695312 89.46875 188.585938 90.359375 189.683594 90.359375 C 190.78125 90.359375 191.667969 89.46875 191.667969 88.371094 "/>
</svg>
