<?xml version="1.0" encoding="UTF-8"?>
<svg xmlns="http://www.w3.org/2000/svg" xmlns:xlink="http://www.w3.org/1999/xlink" width="120.1793" height="103.7042" viewBox="0 0 120.1793 103.7042">
<defs>
<clipPath id="clip-0">
<path clip-rule="nonzero" d="M 7 0.203125 L 104 0.203125 L 104 97 L 7 97 Z M 7 0.203125 "/>
</clipPath>
</defs>
<g clip-path="url(#clip-0)">
<path fill-rule="evenodd" fill="rgb(87.5%, 87.5%, 87.5%)" fill-opacity="1" stroke-width="0.4" stroke-linecap="butt" stroke-linejoin="round" stroke="rgb(0%, 39.199829%, 0%)" stroke-opacity="1" stroke-miterlimit="10" d="M 182.000449 124.000266 C 182.000449 150.508185 160.510943 172.001623 133.999092 172.001623 C 107.491173 172.001623 86.001667 150.508185 86.001667 124.000266 C 86.001667 97.488414 107.491173 75.998908 133.999092 75.998908 C 160.510943 75.998908 182.000449 97.488414 182.000449 124.000266 " transform="matrix(0.993217, 0, 0, -0.993217, -77.43788, 171.733435)"/>
</g>
<path fill-rule="evenodd" fill="rgb(87.799072%, 100%, 100%)" fill-opacity="1" stroke-width="0.4" stroke-linecap="butt" stroke-linejoin="round" stroke="rgb(100%, 0%, 0%)" stroke-opacity="1" stroke-miterlimit="10" d="M 159.921004 124.000266 C 159.921004 138.316115 148.314941 149.918246 133.999092 149.918246 C 119.683242 149.918246 108.081112 138.316115 108.081112 124.000266 C 108.081112 109.684416 119.683242 98.078353 133.999092 98.078353 C 148.314941 98.078353 159.921004 109.684416 159.921004 124.000266 " transform="matrix(0.993217, 0, 0, -0.993217, -77.43788, 171.733435)"/>
<path fill-rule="evenodd" fill="rgb(100%, 0%, 0%)" fill-opacity="1" d="M 60.621094 40.628906 C 60.621094 40.082031 60.175781 39.636719 59.625 39.636719 C 59.078125 39.636719 58.632812 40.082031 58.632812 40.628906 C 58.632812 41.175781 59.078125 41.621094 59.625 41.621094 C 60.175781 41.621094 60.621094 41.175781 60.621094 40.628906 "/>
<path fill-rule="evenodd" fill="rgb(0%, 0%, 0%)" fill-opacity="1" d="M 60.816406 40.628906 C 60.816406 39.96875 60.285156 39.4375 59.625 39.4375 C 58.96875 39.4375 58.433594 39.96875 58.433594 40.628906 C 58.433594 41.289062 58.96875 41.820312 59.625 41.820312 C 60.285156 41.820312 60.816406 41.289062 60.816406 40.628906 M 60.421875 40.628906 C 60.421875 40.191406 60.066406 39.835938 59.625 39.835938 C 59.1875 39.835938 58.832031 40.191406 58.832031 40.628906 C 58.832031 41.066406 59.1875 41.421875 59.625 41.421875 C 60.066406 41.421875 60.421875 41.066406 60.421875 40.628906 "/>
<path fill-rule="evenodd" fill="rgb(100%, 0%, 0%)" fill-opacity="1" d="M 44.726562 40.628906 C 44.726562 40.082031 44.28125 39.636719 43.734375 39.636719 C 43.1875 39.636719 42.742188 40.082031 42.742188 40.628906 C 42.742188 41.175781 43.1875 41.621094 43.734375 41.621094 C 44.28125 41.621094 44.726562 41.175781 44.726562 40.628906 "/>
<path fill-rule="evenodd" fill="rgb(0%, 0%, 0%)" fill-opacity="1" d="M 44.925781 40.628906 C 44.925781 39.96875 44.394531 39.4375 43.734375 39.4375 C 43.074219 39.4375 42.542969 39.96875 42.542969 40.628906 C 42.542969 41.289062 43.074219 41.820312 43.734375 41.820312 C 44.394531 41.820312 44.925781 41.289062 44.925781 40.628906 M 44.527344 40.628906 C 44.527344 40.191406 44.171875 39.835938 43.734375 39.835938 C 43.296875 39.835938 42.941406 40.191406 42.941406 40.628906 C 42.941406 41.066406 43.296875 41.421875 43.734375 41.421875 C 44.171875 41.421875 44.527344 41.066406 44.527344 40.628906 "/>
<path fill-rule="evenodd" fill="rgb(100%, 0%, 0%)" fill-opacity="1" d="M 48.699219 52.546875 C 48.699219 52 48.253906 51.554688 47.707031 51.554688 C 47.160156 51.554688 46.714844 52 46.714844 52.546875 C 46.714844 53.09375 47.160156 53.539062 47.707031 53.539062 C 48.253906 53.539062 48.699219 53.09375 48.699219 52.546875 "/>
<path fill-rule="evenodd" fill="rgb(0%, 0%, 0%)" fill-opacity="1" d="M 48.898438 52.546875 C 48.898438 51.890625 48.367188 51.355469 47.707031 51.355469 C 47.050781 51.355469 46.515625 51.890625 46.515625 52.546875 C 46.515625 53.207031 47.050781 53.738281 47.707031 53.738281 C 48.367188 53.738281 48.898438 53.207031 48.898438 52.546875 M 48.503906 52.546875 C 48.503906 52.109375 48.148438 51.753906 47.707031 51.753906 C 47.269531 51.753906 46.914062 52.109375 46.914062 52.546875 C 46.914062 52.988281 47.269531 53.34375 47.707031 53.34375 C 48.148438 53.34375 48.503906 52.988281 48.503906 52.546875 "/>
<path fill-rule="evenodd" fill="rgb(100%, 0%, 0%)" fill-opacity="1" d="M 64.59375 60.492188 C 64.59375 59.945312 64.148438 59.5 63.597656 59.5 C 63.050781 59.5 62.605469 59.945312 62.605469 60.492188 C 62.605469 61.042969 63.050781 61.484375 63.597656 61.484375 C 64.148438 61.484375 64.59375 61.042969 64.59375 60.492188 "/>
<path fill-rule="evenodd" fill="rgb(0%, 0%, 0%)" fill-opacity="1" d="M 64.789062 60.492188 C 64.789062 59.835938 64.257812 59.300781 63.597656 59.300781 C 62.941406 59.300781 62.40625 59.835938 62.40625 60.492188 C 62.40625 61.152344 62.941406 61.683594 63.597656 61.683594 C 64.257812 61.683594 64.789062 61.152344 64.789062 60.492188 M 64.394531 60.492188 C 64.394531 60.054688 64.039062 59.699219 63.597656 59.699219 C 63.160156 59.699219 62.804688 60.054688 62.804688 60.492188 C 62.804688 60.933594 63.160156 61.289062 63.597656 61.289062 C 64.039062 61.289062 64.394531 60.933594 64.394531 60.492188 "/>
<path fill-rule="evenodd" fill="rgb(100%, 0%, 0%)" fill-opacity="1" d="M 68.566406 44.601562 C 68.566406 44.054688 68.121094 43.609375 67.570312 43.609375 C 67.023438 43.609375 66.578125 44.054688 66.578125 44.601562 C 66.578125 45.148438 67.023438 45.59375 67.570312 45.59375 C 68.121094 45.59375 68.566406 45.148438 68.566406 44.601562 "/>
<path fill-rule="evenodd" fill="rgb(0%, 0%, 0%)" fill-opacity="1" d="M 68.765625 44.601562 C 68.765625 43.941406 68.230469 43.410156 67.570312 43.410156 C 66.914062 43.410156 66.378906 43.941406 66.378906 44.601562 C 66.378906 45.261719 66.914062 45.792969 67.570312 45.792969 C 68.230469 45.792969 68.765625 45.261719 68.765625 44.601562 M 68.367188 44.601562 C 68.367188 44.164062 68.011719 43.808594 67.570312 43.808594 C 67.132812 43.808594 66.777344 44.164062 66.777344 44.601562 C 66.777344 45.039062 67.132812 45.394531 67.570312 45.394531 C 68.011719 45.394531 68.367188 45.039062 68.367188 44.601562 "/>
<path fill-rule="evenodd" fill="rgb(100%, 0%, 0%)" fill-opacity="1" d="M 52.671875 60.492188 C 52.671875 59.945312 52.230469 59.5 51.679688 59.5 C 51.132812 59.5 50.6875 59.945312 50.6875 60.492188 C 50.6875 61.042969 51.132812 61.484375 51.679688 61.484375 C 52.230469 61.484375 52.671875 61.042969 52.671875 60.492188 "/>
<path fill-rule="evenodd" fill="rgb(0%, 0%, 0%)" fill-opacity="1" d="M 52.871094 60.492188 C 52.871094 59.835938 52.339844 59.300781 51.679688 59.300781 C 51.023438 59.300781 50.488281 59.835938 50.488281 60.492188 C 50.488281 61.152344 51.023438 61.683594 51.679688 61.683594 C 52.339844 61.683594 52.871094 61.152344 52.871094 60.492188 M 52.476562 60.492188 C 52.476562 60.054688 52.121094 59.699219 51.679688 59.699219 C 51.242188 59.699219 50.886719 60.054688 50.886719 60.492188 C 50.886719 60.933594 51.242188 61.289062 51.679688 61.289062 C 52.121094 61.289062 52.476562 60.933594 52.476562 60.492188 "/>
<path fill-rule="evenodd" fill="rgb(100%, 0%, 0%)" fill-opacity="1" d="M 28.835938 20.765625 C 28.835938 20.214844 28.390625 19.769531 27.84375 19.769531 C 27.292969 19.769531 26.851562 20.214844 26.851562 20.765625 C 26.851562 21.3125 27.292969 21.757812 27.84375 21.757812 C 28.390625 21.757812 28.835938 21.3125 28.835938 20.765625 "/>
<path fill-rule="evenodd" fill="rgb(0%, 0%, 0%)" fill-opacity="1" d="M 29.035156 20.765625 C 29.035156 20.105469 28.5 19.574219 27.84375 19.574219 C 27.183594 19.574219 26.652344 20.105469 26.652344 20.765625 C 26.652344 21.421875 27.183594 21.957031 27.84375 21.957031 C 28.5 21.957031 29.035156 21.421875 29.035156 20.765625 M 28.636719 20.765625 C 28.636719 20.324219 28.28125 19.96875 27.84375 19.96875 C 27.402344 19.96875 27.046875 20.324219 27.046875 20.765625 C 27.046875 21.203125 27.402344 21.558594 27.84375 21.558594 C 28.28125 21.558594 28.636719 21.203125 28.636719 20.765625 "/>
<path fill-rule="evenodd" fill="rgb(100%, 0%, 0%)" fill-opacity="1" d="M 52.671875 16.792969 C 52.671875 16.242188 52.230469 15.796875 51.679688 15.796875 C 51.132812 15.796875 50.6875 16.242188 50.6875 16.792969 C 50.6875 17.339844 51.132812 17.785156 51.679688 17.785156 C 52.230469 17.785156 52.671875 17.339844 52.671875 16.792969 "/>
<path fill-rule="evenodd" fill="rgb(0%, 0%, 0%)" fill-opacity="1" d="M 52.871094 16.792969 C 52.871094 16.132812 52.339844 15.601562 51.679688 15.601562 C 51.023438 15.601562 50.488281 16.132812 50.488281 16.792969 C 50.488281 17.449219 51.023438 17.984375 51.679688 17.984375 C 52.339844 17.984375 52.871094 17.449219 52.871094 16.792969 M 52.476562 16.792969 C 52.476562 16.351562 52.121094 15.996094 51.679688 15.996094 C 51.242188 15.996094 50.886719 16.351562 50.886719 16.792969 C 50.886719 17.230469 51.242188 17.585938 51.679688 17.585938 C 52.121094 17.585938 52.476562 17.230469 52.476562 16.792969 "/>
<path fill-rule="evenodd" fill="rgb(100%, 0%, 0%)" fill-opacity="1" d="M 88.429688 60.492188 C 88.429688 59.945312 87.984375 59.5 87.4375 59.5 C 86.886719 59.5 86.441406 59.945312 86.441406 60.492188 C 86.441406 61.042969 86.886719 61.484375 87.4375 61.484375 C 87.984375 61.484375 88.429688 61.042969 88.429688 60.492188 "/>
<path fill-rule="evenodd" fill="rgb(0%, 0%, 0%)" fill-opacity="1" d="M 88.628906 60.492188 C 88.628906 59.835938 88.09375 59.300781 87.4375 59.300781 C 86.777344 59.300781 86.246094 59.835938 86.246094 60.492188 C 86.246094 61.152344 86.777344 61.683594 87.4375 61.683594 C 88.09375 61.683594 88.628906 61.152344 88.628906 60.492188 M 88.230469 60.492188 C 88.230469 60.054688 87.875 59.699219 87.4375 59.699219 C 86.996094 59.699219 86.640625 60.054688 86.640625 60.492188 C 86.640625 60.933594 86.996094 61.289062 87.4375 61.289062 C 87.875 61.289062 88.230469 60.933594 88.230469 60.492188 "/>
<path fill-rule="evenodd" fill="rgb(100%, 0%, 0%)" fill-opacity="1" d="M 68.566406 84.332031 C 68.566406 83.78125 68.121094 83.335938 67.570312 83.335938 C 67.023438 83.335938 66.578125 83.78125 66.578125 84.332031 C 66.578125 84.878906 67.023438 85.324219 67.570312 85.324219 C 68.121094 85.324219 68.566406 84.878906 68.566406 84.332031 "/>
<path fill-rule="evenodd" fill="rgb(0%, 0%, 0%)" fill-opacity="1" d="M 68.765625 84.332031 C 68.765625 83.671875 68.230469 83.136719 67.570312 83.136719 C 66.914062 83.136719 66.378906 83.671875 66.378906 84.332031 C 66.378906 84.988281 66.914062 85.523438 67.570312 85.523438 C 68.230469 85.523438 68.765625 84.988281 68.765625 84.332031 M 68.367188 84.332031 C 68.367188 83.890625 68.011719 83.535156 67.570312 83.535156 C 67.132812 83.535156 66.777344 83.890625 66.777344 84.332031 C 66.777344 84.769531 67.132812 85.125 67.570312 85.125 C 68.011719 85.125 68.367188 84.769531 68.367188 84.332031 "/>
<path fill-rule="evenodd" fill="rgb(100%, 0%, 0%)" fill-opacity="1" d="M 32.808594 84.332031 C 32.808594 83.78125 32.363281 83.335938 31.816406 83.335938 C 31.269531 83.335938 30.824219 83.78125 30.824219 84.332031 C 30.824219 84.878906 31.269531 85.324219 31.816406 85.324219 C 32.363281 85.324219 32.808594 84.878906 32.808594 84.332031 "/>
<path fill-rule="evenodd" fill="rgb(0%, 0%, 0%)" fill-opacity="1" d="M 33.007812 84.332031 C 33.007812 83.671875 32.472656 83.136719 31.816406 83.136719 C 31.15625 83.136719 30.625 83.671875 30.625 84.332031 C 30.625 84.988281 31.15625 85.523438 31.816406 85.523438 C 32.472656 85.523438 33.007812 84.988281 33.007812 84.332031 M 32.609375 84.332031 C 32.609375 83.890625 32.253906 83.535156 31.816406 83.535156 C 31.378906 83.535156 31.019531 83.890625 31.019531 84.332031 C 31.019531 84.769531 31.378906 85.125 31.816406 85.125 C 32.253906 85.125 32.609375 84.769531 32.609375 84.332031 "/>
<path fill-rule="evenodd" fill="rgb(100%, 0%, 0%)" fill-opacity="1" d="M 20.890625 60.492188 C 20.890625 59.945312 20.445312 59.5 19.898438 59.5 C 19.347656 59.5 18.902344 59.945312 18.902344 60.492188 C 18.902344 61.042969 19.347656 61.484375 19.898438 61.484375 C 20.445312 61.484375 20.890625 61.042969 20.890625 60.492188 "/>
<path fill-rule="evenodd" fill="rgb(0%, 0%, 0%)" fill-opacity="1" d="M 21.089844 60.492188 C 21.089844 59.835938 20.554688 59.300781 19.898438 59.300781 C 19.238281 59.300781 18.707031 59.835938 18.707031 60.492188 C 18.707031 61.152344 19.238281 61.683594 19.898438 61.683594 C 20.554688 61.683594 21.089844 61.152344 21.089844 60.492188 M 20.691406 60.492188 C 20.691406 60.054688 20.335938 59.699219 19.898438 59.699219 C 19.457031 59.699219 19.101562 60.054688 19.101562 60.492188 C 19.101562 60.933594 19.457031 61.289062 19.898438 61.289062 C 20.335938 61.289062 20.691406 60.933594 20.691406 60.492188 "/>
<path fill-rule="evenodd" fill="rgb(100%, 0%, 0%)" fill-opacity="1" d="M 84.457031 28.710938 C 84.457031 28.160156 84.011719 27.71875 83.464844 27.71875 C 82.914062 27.71875 82.46875 28.160156 82.46875 28.710938 C 82.46875 29.257812 82.914062 29.703125 83.464844 29.703125 C 84.011719 29.703125 84.457031 29.257812 84.457031 28.710938 "/>
<path fill-rule="evenodd" fill="rgb(0%, 0%, 0%)" fill-opacity="1" d="M 84.65625 28.710938 C 84.65625 28.050781 84.121094 27.519531 83.464844 27.519531 C 82.804688 27.519531 82.269531 28.050781 82.269531 28.710938 C 82.269531 29.367188 82.804688 29.902344 83.464844 29.902344 C 84.121094 29.902344 84.65625 29.367188 84.65625 28.710938 M 84.257812 28.710938 C 84.257812 28.269531 83.902344 27.914062 83.464844 27.914062 C 83.023438 27.914062 82.667969 28.269531 82.667969 28.710938 C 82.667969 29.148438 83.023438 29.503906 83.464844 29.503906 C 83.902344 29.503906 84.257812 29.148438 84.257812 28.710938 "/>
<path fill-rule="evenodd" fill="rgb(100%, 0%, 0%)" fill-opacity="1" d="M 64.59375 24.738281 C 64.59375 24.1875 64.148438 23.742188 63.597656 23.742188 C 63.050781 23.742188 62.605469 24.1875 62.605469 24.738281 C 62.605469 25.285156 63.050781 25.730469 63.597656 25.730469 C 64.148438 25.730469 64.59375 25.285156 64.59375 24.738281 "/>
<path fill-rule="evenodd" fill="rgb(0%, 0%, 0%)" fill-opacity="1" d="M 64.789062 24.738281 C 64.789062 24.078125 64.257812 23.546875 63.597656 23.546875 C 62.941406 23.546875 62.40625 24.078125 62.40625 24.738281 C 62.40625 25.394531 62.941406 25.929688 63.597656 25.929688 C 64.257812 25.929688 64.789062 25.394531 64.789062 24.738281 M 64.394531 24.738281 C 64.394531 24.296875 64.039062 23.941406 63.597656 23.941406 C 63.160156 23.941406 62.804688 24.296875 62.804688 24.738281 C 62.804688 25.175781 63.160156 25.53125 63.597656 25.53125 C 64.039062 25.53125 64.394531 25.175781 64.394531 24.738281 "/>
<path fill-rule="evenodd" fill="rgb(100%, 0%, 0%)" fill-opacity="1" d="M 80.484375 72.410156 C 80.484375 71.863281 80.039062 71.417969 79.492188 71.417969 C 78.941406 71.417969 78.496094 71.863281 78.496094 72.410156 C 78.496094 72.960938 78.941406 73.40625 79.492188 73.40625 C 80.039062 73.40625 80.484375 72.960938 80.484375 72.410156 "/>
<path fill-rule="evenodd" fill="rgb(0%, 0%, 0%)" fill-opacity="1" d="M 80.683594 72.410156 C 80.683594 71.753906 80.148438 71.21875 79.492188 71.21875 C 78.832031 71.21875 78.296875 71.753906 78.296875 72.410156 C 78.296875 73.070312 78.832031 73.605469 79.492188 73.605469 C 80.148438 73.605469 80.683594 73.070312 80.683594 72.410156 M 80.285156 72.410156 C 80.285156 71.972656 79.929688 71.617188 79.492188 71.617188 C 79.050781 71.617188 78.695312 71.972656 78.695312 72.410156 C 78.695312 72.851562 79.050781 73.207031 79.492188 73.207031 C 79.929688 73.207031 80.285156 72.851562 80.285156 72.410156 "/>
<path fill-rule="evenodd" fill="rgb(0%, 0%, 100%)" fill-opacity="0.1" stroke-width="0.4" stroke-linecap="butt" stroke-linejoin="round" stroke="rgb(0%, 0%, 0%)" stroke-opacity="0.1" stroke-miterlimit="10" d="M 124.001595 135.334957 C 125.999521 134.66636 125.999521 133.333098 125.334856 131.999837 C 124.666259 130.666575 123.332997 129.333313 120.666474 128.668649 C 117.99995 128.000051 114.000165 128.000051 110.000379 127.331454 C 106.000594 126.666789 102.000809 125.333528 100.667547 125.998192 C 99.334285 126.666789 100.667547 129.333313 100.667547 131.999837 C 100.667547 134.66636 99.334285 137.332884 99.334285 138.001481 C 99.334285 138.666145 100.667547 137.332884 103.33407 136.668219 C 106.000594 135.999622 110.000379 135.999622 114.000165 135.999622 C 117.99995 135.999622 121.999735 135.999622 124.001595 135.334957 Z M 124.001595 135.334957 " transform="matrix(0.993217, 0, 0, -0.993217, -77.43788, 171.733435)"/>
<path fill-rule="evenodd" fill="rgb(0%, 0%, 100%)" fill-opacity="0.1" stroke-width="0.4" stroke-linecap="butt" stroke-linejoin="round" stroke="rgb(0%, 0%, 0%)" stroke-opacity="0.1" stroke-miterlimit="10" d="M 132.66583 120.665145 C 132.66583 122.667004 131.332568 125.333528 131.332568 128.000051 C 131.332568 130.666575 132.66583 133.333098 130.667904 131.999837 C 128.666044 130.666575 123.332997 125.333528 122.668333 121.998407 C 121.999735 118.667219 125.999521 117.333957 128.666044 117.333957 C 131.332568 117.333957 132.66583 118.667219 132.66583 120.665145 Z M 132.66583 120.665145 " transform="matrix(0.993217, 0, 0, -0.993217, -77.43788, 171.733435)"/>
<path fill-rule="evenodd" fill="rgb(0%, 0%, 100%)" fill-opacity="0.1" stroke-width="0.4" stroke-linecap="butt" stroke-linejoin="round" stroke="rgb(0%, 0%, 0%)" stroke-opacity="0.1" stroke-miterlimit="10" d="M 132.001165 113.998836 C 133.999092 112.00091 133.999092 108.001124 132.66583 104.666003 C 131.332568 101.334815 128.666044 98.668292 124.666259 96.666433 C 120.666474 94.668506 115.333426 93.335245 108.667118 91.99805 C 102.000809 90.664788 94.001238 89.331526 90.001452 90.000124 C 86.001667 90.664788 86.001667 93.335245 86.001667 94.668506 C 86.001667 96.001768 86.001667 96.001768 91.999379 99.332956 C 98.001023 102.668077 110.000379 109.334386 117.99995 112.665574 C 125.999521 116.000695 129.999306 116.000695 132.001165 113.998836 Z M 132.001165 113.998836 " transform="matrix(0.993217, 0, 0, -0.993217, -77.43788, 171.733435)"/>
<path fill-rule="evenodd" fill="rgb(0%, 0%, 100%)" fill-opacity="0.1" stroke-width="0.4" stroke-linecap="butt" stroke-linejoin="round" stroke="rgb(0%, 0%, 0%)" stroke-opacity="0.1" stroke-miterlimit="10" d="M 141.333998 117.333957 C 140.665401 116.000695 139.332139 112.00091 140.000736 108.665789 C 140.665401 105.334601 143.331924 102.668077 145.998448 102.668077 C 148.668904 102.668077 151.331495 105.334601 154.001951 107.332527 C 156.668475 109.334386 159.331066 110.667648 161.332925 112.665574 C 163.334784 114.667433 164.668046 117.333957 161.332925 117.998621 C 158.001737 118.667219 149.998233 117.333957 145.998448 117.333957 C 141.998662 117.333957 141.998662 118.667219 141.333998 117.333957 Z M 141.333998 117.333957 " transform="matrix(0.993217, 0, 0, -0.993217, -77.43788, 171.733435)"/>
<path fill-rule="evenodd" fill="rgb(0%, 0%, 100%)" fill-opacity="0.1" stroke-width="0.4" stroke-linecap="butt" stroke-linejoin="round" stroke="rgb(0%, 0%, 0%)" stroke-opacity="0.1" stroke-miterlimit="10" d="M 130.667904 135.334957 C 133.999092 137.332884 137.998877 138.666145 142.66726 138.001481 C 147.331709 137.332884 152.66869 134.66636 155.33128 131.331239 C 158.001737 128.000051 158.001737 124.000266 155.999878 121.998407 C 154.001951 120.00048 149.998233 120.00048 147.331709 121.998407 C 144.665186 124.000266 143.331924 128.000051 137.334212 128.000051 C 131.332568 128.000051 120.666474 124.000266 117.331353 123.331668 C 114.000165 122.667004 117.99995 125.333528 121.331138 128.000051 C 124.666259 130.666575 127.332783 133.333098 130.667904 135.334957 Z M 130.667904 135.334957 " transform="matrix(0.993217, 0, 0, -0.993217, -77.43788, 171.733435)"/>
<path fill-rule="evenodd" fill="rgb(0%, 0%, 100%)" fill-opacity="0.1" stroke-width="0.4" stroke-linecap="butt" stroke-linejoin="round" stroke="rgb(0%, 0%, 0%)" stroke-opacity="0.1" stroke-miterlimit="10" d="M 152.000092 137.332884 C 156.668475 138.666145 163.334784 137.332884 162.001522 134.66636 C 160.66826 131.999837 151.331495 128.000051 146.667045 126.666789 C 141.998662 125.333528 141.998662 126.666789 143.331924 129.333313 C 144.665186 131.999837 147.331709 135.999622 152.000092 137.332884 Z M 152.000092 137.332884 " transform="matrix(0.993217, 0, 0, -0.993217, -77.43788, 171.733435)"/>
<path fill-rule="evenodd" fill="rgb(0%, 0%, 100%)" fill-opacity="0.1" stroke-width="0.4" stroke-linecap="butt" stroke-linejoin="round" stroke="rgb(0%, 0%, 0%)" stroke-opacity="0.1" stroke-miterlimit="10" d="M 140.000736 142.304102 C 142.66726 143.637363 145.333783 148.970411 144.000521 150.303672 C 142.66726 151.636934 137.33028 148.970411 136.000951 146.303887 C 134.667689 143.637363 137.33028 140.97084 140.000736 142.304102 Z M 140.000736 142.304102 " transform="matrix(0.993217, 0, 0, -0.993217, -77.43788, 171.733435)"/>
<path fill-rule="evenodd" fill="rgb(0%, 0%, 100%)" fill-opacity="0.1" stroke-width="0.4" stroke-linecap="butt" stroke-linejoin="round" stroke="rgb(0%, 0%, 0%)" stroke-opacity="0.1" stroke-miterlimit="10" d="M 185.331637 161.331596 C 192.666543 162.668791 199.332852 161.331596 196.666329 158.000408 C 193.999805 154.665287 182.000449 149.33224 174.000878 146.001052 C 166.001307 142.665931 162.001522 141.332669 158.001737 140.668005 C 154.001951 139.999407 149.998233 139.999407 145.998448 139.999407 C 141.998662 139.999407 137.998877 139.999407 136.000951 139.334743 C 133.999092 138.666145 133.999092 137.332884 133.999092 135.999622 C 133.999092 134.66636 133.999092 133.333098 133.999092 131.331239 C 133.999092 129.333313 133.999092 126.666789 134.667689 123.331668 C 135.332353 120.00048 136.665615 116.000695 137.334212 111.332312 C 137.998877 106.667862 137.998877 101.334815 137.998877 95.333171 C 137.998877 89.331526 137.998877 82.665217 137.998877 78.000768 C 137.998877 73.332385 137.998877 70.665861 136.665615 70.001197 C 135.332353 69.332599 132.66583 70.665861 131.332568 75.334244 C 129.999306 79.998694 129.999306 87.998264 130.667904 94.668506 C 131.332568 101.334815 132.66583 106.667862 133.334427 110.667648 C 133.999092 114.667433 133.999092 117.333957 133.334427 119.331883 C 132.66583 121.333742 131.332568 122.667004 129.999306 124.668863 C 128.666044 126.666789 127.332783 129.333313 127.332783 131.999837 C 127.332783 134.66636 128.666044 137.332884 129.334642 139.334743 C 129.999306 141.332669 129.999306 142.665931 132.001165 142.665931 C 133.999092 142.665931 137.998877 141.332669 143.331924 142.665931 C 148.668904 143.999193 155.33128 147.998978 162.666187 151.998763 C 170.001093 155.998549 178.000664 159.998334 185.331637 161.331596 Z M 185.331637 161.331596 " transform="matrix(0.993217, 0, 0, -0.993217, -77.43788, 171.733435)"/>
<path fill-rule="evenodd" fill="rgb(0%, 0%, 100%)" fill-opacity="0.1" stroke-width="0.4" stroke-linecap="butt" stroke-linejoin="round" stroke="rgb(0%, 0%, 0%)" stroke-opacity="0.1" stroke-miterlimit="10" d="M 111.998306 151.334099 C 111.333641 149.33224 104.667332 146.665716 102.000809 147.334314 C 99.334285 147.998978 100.667547 151.998763 103.998735 153.332025 C 107.333856 154.665287 112.666903 153.332025 111.998306 151.334099 Z M 111.998306 151.334099 " transform="matrix(0.993217, 0, 0, -0.993217, -77.43788, 171.733435)"/>
<path fill-rule="evenodd" fill="rgb(0%, 0%, 100%)" fill-opacity="0.1" stroke-width="0.4" stroke-linecap="butt" stroke-linejoin="round" stroke="rgb(0%, 0%, 0%)" stroke-opacity="0.1" stroke-miterlimit="10" d="M 129.334642 153.332025 C 124.666259 150.665502 111.333641 149.33224 109.331782 151.334099 C 107.333856 153.332025 116.666688 158.665072 123.332997 159.33367 C 129.999306 159.998334 133.999092 155.998549 129.334642 153.332025 Z M 129.334642 153.332025 " transform="matrix(0.993217, 0, 0, -0.993217, -77.43788, 171.733435)"/>
<path fill-rule="evenodd" fill="rgb(0%, 0%, 100%)" fill-opacity="0.1" stroke-width="0.4" stroke-linecap="butt" stroke-linejoin="round" stroke="rgb(0%, 0%, 0%)" stroke-opacity="0.1" stroke-miterlimit="10" d="M 104.667332 113.998836 C 107.333856 112.00091 108.667118 108.001124 106.000594 105.334601 C 103.33407 102.668077 96.667761 101.334815 90.666117 105.999265 C 84.668405 110.667648 79.331425 121.333742 78.666761 130.00191 C 77.998163 138.666145 82.001882 145.332454 86.001667 148.667575 C 90.001452 151.998763 94.001238 151.998763 97.332426 151.334099 C 100.667547 150.665502 103.33407 149.33224 101.332211 146.665716 C 99.334285 143.999193 92.667976 139.999407 93.33264 137.332884 C 94.001238 134.66636 102.000809 133.333098 103.33407 130.00191 C 104.667332 126.666789 99.334285 121.333742 98.665688 118.667219 C 98.001023 116.000695 102.000809 116.000695 104.667332 113.998836 Z M 104.667332 113.998836 " transform="matrix(0.993217, 0, 0, -0.993217, -77.43788, 171.733435)"/>
<path fill-rule="evenodd" fill="rgb(0%, 0%, 100%)" fill-opacity="0.1" stroke-width="0.4" stroke-linecap="butt" stroke-linejoin="round" stroke="rgb(0%, 0%, 0%)" stroke-opacity="0.1" stroke-miterlimit="10" d="M 124.001595 91.333385 C 129.999306 90.664788 133.999092 89.331526 135.332353 86.000338 C 136.665615 82.665217 135.332353 77.33217 128.666044 76.667506 C 121.999735 75.998908 110.000379 79.998694 104.667332 83.333815 C 99.334285 86.665003 100.667547 89.331526 105.331997 90.664788 C 110.000379 91.99805 117.99995 91.99805 124.001595 91.333385 Z M 124.001595 91.333385 " transform="matrix(0.993217, 0, 0, -0.993217, -77.43788, 171.733435)"/>
<path fill-rule="evenodd" fill="rgb(0%, 0%, 100%)" fill-opacity="0.1" stroke-width="0.4" stroke-linecap="butt" stroke-linejoin="round" stroke="rgb(0%, 0%, 0%)" stroke-opacity="0.1" stroke-miterlimit="10" d="M 148.027837 90.011922 C 149.361099 88.013996 148.027837 84.014211 145.361314 82.680949 C 142.69479 81.347687 138.695005 82.680949 137.361743 84.678875 C 136.028481 86.680734 137.361743 89.347258 140.028267 90.68052 C 142.69479 92.013782 146.694576 92.013782 148.027837 90.011922 Z M 148.027837 90.011922 " transform="matrix(0.993217, 0, 0, -0.993217, -77.43788, 171.733435)"/>
<path fill-rule="evenodd" fill="rgb(0%, 0%, 100%)" fill-opacity="0.1" stroke-width="0.4" stroke-linecap="butt" stroke-linejoin="round" stroke="rgb(0%, 0%, 0%)" stroke-opacity="0.1" stroke-miterlimit="10" d="M 165.33271 101.99948 C 171.334355 98.668292 180.667187 93.335245 182.000449 89.331526 C 183.333711 85.331741 176.667402 82.665217 168.667831 85.331741 C 160.66826 87.998264 151.331495 96.001768 148.668904 100.666218 C 145.998448 105.334601 149.998233 106.667862 153.333354 106.667862 C 156.668475 106.667862 159.331066 105.334601 165.33271 101.99948 Z M 165.33271 101.99948 " transform="matrix(0.993217, 0, 0, -0.993217, -77.43788, 171.733435)"/>
<path fill-rule="evenodd" fill="rgb(0%, 0%, 100%)" fill-opacity="0.1" stroke-width="0.4" stroke-linecap="butt" stroke-linejoin="round" stroke="rgb(0%, 0%, 0%)" stroke-opacity="0.1" stroke-miterlimit="10" d="M 186.668832 120.665145 C 192.666543 118.667219 191.333281 113.334171 184.666973 110.667648 C 178.000664 108.001124 166.001307 108.001124 159.999663 109.999051 C 154.001951 112.00091 154.001951 116.000695 160.66826 118.667219 C 167.334569 121.333742 180.667187 122.667004 186.668832 120.665145 Z M 186.668832 120.665145 " transform="matrix(0.993217, 0, 0, -0.993217, -77.43788, 171.733435)"/>
<path fill="none" stroke-width="0.4" stroke-linecap="butt" stroke-linejoin="round" stroke="rgb(0%, 0%, 100%)" stroke-opacity="1" stroke-miterlimit="10" d="M 124.001595 135.334957 C 125.999521 134.66636 125.999521 133.333098 125.334856 131.999837 C 124.666259 130.666575 123.332997 129.333313 120.666474 128.668649 C 117.99995 128.000051 114.000165 128.000051 110.000379 127.331454 C 106.000594 126.666789 102.000809 125.333528 100.667547 125.998192 C 99.334285 126.666789 100.667547 129.333313 100.667547 131.999837 C 100.667547 134.66636 99.334285 137.332884 99.334285 138.001481 C 99.334285 138.666145 100.667547 137.332884 103.33407 136.668219 C 106.000594 135.999622 110.000379 135.999622 114.000165 135.999622 C 117.99995 135.999622 121.999735 135.999622 124.001595 135.334957 Z M 124.001595 135.334957 " transform="matrix(0.993217, 0, 0, -0.993217, -77.43788, 171.733435)"/>
<path fill="none" stroke-width="0.4" stroke-linecap="butt" stroke-linejoin="round" stroke="rgb(0%, 0%, 100%)" stroke-opacity="1" stroke-miterlimit="10" d="M 132.66583 120.665145 C 132.66583 122.667004 131.332568 125.333528 131.332568 128.000051 C 131.332568 130.666575 132.66583 133.333098 130.667904 131.999837 C 128.666044 130.666575 123.332997 125.333528 122.668333 121.998407 C 121.999735 118.667219 125.999521 117.333957 128.666044 117.333957 C 131.332568 117.333957 132.66583 118.667219 132.66583 120.665145 Z M 132.66583 120.665145 " transform="matrix(0.993217, 0, 0, -0.993217, -77.43788, 171.733435)"/>
<path fill="none" stroke-width="0.4" stroke-linecap="butt" stroke-linejoin="round" stroke="rgb(0%, 0%, 100%)" stroke-opacity="1" stroke-miterlimit="10" d="M 132.001165 113.998836 C 133.999092 112.00091 133.999092 108.001124 132.66583 104.666003 C 131.332568 101.334815 128.666044 98.668292 124.666259 96.666433 C 120.666474 94.668506 115.333426 93.335245 108.667118 91.99805 C 102.000809 90.664788 94.001238 89.331526 90.001452 90.000124 C 86.001667 90.664788 86.001667 93.335245 86.001667 94.668506 C 86.001667 96.001768 86.001667 96.001768 91.999379 99.332956 C 98.001023 102.668077 110.000379 109.334386 117.99995 112.665574 C 125.999521 116.000695 129.999306 116.000695 132.001165 113.998836 Z M 132.001165 113.998836 " transform="matrix(0.993217, 0, 0, -0.993217, -77.43788, 171.733435)"/>
<path fill="none" stroke-width="0.4" stroke-linecap="butt" stroke-linejoin="round" stroke="rgb(0%, 0%, 100%)" stroke-opacity="1" stroke-miterlimit="10" d="M 141.333998 117.333957 C 140.665401 116.000695 139.332139 112.00091 140.000736 108.665789 C 140.665401 105.334601 143.331924 102.668077 145.998448 102.668077 C 148.668904 102.668077 151.331495 105.334601 154.001951 107.332527 C 156.668475 109.334386 159.331066 110.667648 161.332925 112.665574 C 163.334784 114.667433 164.668046 117.333957 161.332925 117.998621 C 158.001737 118.667219 149.998233 117.333957 145.998448 117.333957 C 141.998662 117.333957 141.998662 118.667219 141.333998 117.333957 Z M 141.333998 117.333957 " transform="matrix(0.993217, 0, 0, -0.993217, -77.43788, 171.733435)"/>
<path fill="none" stroke-width="0.4" stroke-linecap="butt" stroke-linejoin="round" stroke="rgb(0%, 0%, 100%)" stroke-opacity="1" stroke-miterlimit="10" d="M 130.667904 135.334957 C 133.999092 137.332884 137.998877 138.666145 142.66726 138.001481 C 147.331709 137.332884 152.66869 134.66636 155.33128 131.331239 C 158.001737 128.000051 158.001737 124.000266 155.999878 121.998407 C 154.001951 120.00048 149.998233 120.00048 147.331709 121.998407 C 144.665186 124.000266 143.331924 128.000051 137.334212 128.000051 C 131.332568 128.000051 120.666474 124.000266 117.331353 123.331668 C 114.000165 122.667004 117.99995 125.333528 121.331138 128.000051 C 124.666259 130.666575 127.332783 133.333098 130.667904 135.334957 Z M 130.667904 135.334957 " transform="matrix(0.993217, 0, 0, -0.993217, -77.43788, 171.733435)"/>
<path fill="none" stroke-width="0.4" stroke-linecap="butt" stroke-linejoin="round" stroke="rgb(0%, 0%, 100%)" stroke-opacity="1" stroke-miterlimit="10" d="M 152.000092 137.332884 C 156.668475 138.666145 163.334784 137.332884 162.001522 134.66636 C 160.66826 131.999837 151.331495 128.000051 146.667045 126.666789 C 141.998662 125.333528 141.998662 126.666789 143.331924 129.333313 C 144.665186 131.999837 147.331709 135.999622 152.000092 137.332884 Z M 152.000092 137.332884 " transform="matrix(0.993217, 0, 0, -0.993217, -77.43788, 171.733435)"/>
<path fill="none" stroke-width="0.4" stroke-linecap="butt" stroke-linejoin="round" stroke="rgb(0%, 0%, 100%)" stroke-opacity="1" stroke-miterlimit="10" d="M 140.000736 142.304102 C 142.66726 143.637363 145.333783 148.970411 144.000521 150.303672 C 142.66726 151.636934 137.33028 148.970411 136.000951 146.303887 C 134.667689 143.637363 137.33028 140.97084 140.000736 142.304102 Z M 140.000736 142.304102 " transform="matrix(0.993217, 0, 0, -0.993217, -77.43788, 171.733435)"/>
<path fill="none" stroke-width="0.4" stroke-linecap="butt" stroke-linejoin="round" stroke="rgb(0%, 0%, 100%)" stroke-opacity="1" stroke-miterlimit="10" d="M 111.998306 151.334099 C 111.333641 149.33224 104.667332 146.665716 102.000809 147.334314 C 99.334285 147.998978 100.667547 151.998763 103.998735 153.332025 C 107.333856 154.665287 112.666903 153.332025 111.998306 151.334099 Z M 111.998306 151.334099 " transform="matrix(0.993217, 0, 0, -0.993217, -77.43788, 171.733435)"/>
<path fill="none" stroke-width="0.4" stroke-linecap="butt" stroke-linejoin="round" stroke="rgb(0%, 0%, 100%)" stroke-opacity="1" stroke-miterlimit="10" d="M 129.334642 153.332025 C 124.666259 150.665502 111.333641 149.33224 109.331782 151.334099 C 107.333856 153.332025 116.666688 158.665072 123.332997 159.33367 C 129.999306 159.998334 133.999092 155.998549 129.334642 153.332025 Z M 129.334642 153.332025 " transform="matrix(0.993217, 0, 0, -0.993217, -77.43788, 171.733435)"/>
<path fill="none" stroke-width="0.4" stroke-linecap="butt" stroke-linejoin="round" stroke="rgb(0%, 0%, 100%)" stroke-opacity="1" stroke-miterlimit="10" d="M 104.667332 113.998836 C 107.333856 112.00091 108.667118 108.001124 106.000594 105.334601 C 103.33407 102.668077 96.667761 101.334815 90.666117 105.999265 C 84.668405 110.667648 79.331425 121.333742 78.666761 130.00191 C 77.998163 138.666145 82.001882 145.332454 86.001667 148.667575 C 90.001452 151.998763 94.001238 151.998763 97.332426 151.334099 C 100.667547 150.665502 103.33407 149.33224 101.332211 146.665716 C 99.334285 143.999193 92.667976 139.999407 93.33264 137.332884 C 94.001238 134.66636 102.000809 133.333098 103.33407 130.00191 C 104.667332 126.666789 99.334285 121.333742 98.665688 118.667219 C 98.001023 116.000695 102.000809 116.000695 104.667332 113.998836 Z M 104.667332 113.998836 " transform="matrix(0.993217, 0, 0, -0.993217, -77.43788, 171.733435)"/>
<path fill="none" stroke-width="0.4" stroke-linecap="butt" stroke-linejoin="round" stroke="rgb(0%, 0%, 100%)" stroke-opacity="1" stroke-miterlimit="10" d="M 124.001595 91.333385 C 129.999306 90.664788 133.999092 89.331526 135.332353 86.000338 C 136.665615 82.665217 135.332353 77.33217 128.666044 76.667506 C 121.999735 75.998908 110.000379 79.998694 104.667332 83.333815 C 99.334285 86.665003 100.667547 89.331526 105.331997 90.664788 C 110.000379 91.99805 117.99995 91.99805 124.001595 91.333385 Z M 124.001595 91.333385 " transform="matrix(0.993217, 0, 0, -0.993217, -77.43788, 171.733435)"/>
<path fill="none" stroke-width="0.4" stroke-linecap="butt" stroke-linejoin="round" stroke="rgb(0%, 0%, 100%)" stroke-opacity="1" stroke-miterlimit="10" d="M 148.027837 90.011922 C 149.361099 88.013996 148.027837 84.014211 145.361314 82.680949 C 142.69479 81.347687 138.695005 82.680949 137.361743 84.678875 C 136.028481 86.680734 137.361743 89.347258 140.028267 90.68052 C 142.69479 92.013782 146.694576 92.013782 148.027837 90.011922 Z M 148.027837 90.011922 " transform="matrix(0.993217, 0, 0, -0.993217, -77.43788, 171.733435)"/>
<path fill="none" stroke-width="0.4" stroke-linecap="butt" stroke-linejoin="round" stroke="rgb(0%, 0%, 100%)" stroke-opacity="1" stroke-miterlimit="10" d="M 165.33271 101.99948 C 171.334355 98.668292 180.667187 93.335245 182.000449 89.331526 C 183.333711 85.331741 176.667402 82.665217 168.667831 85.331741 C 160.66826 87.998264 151.331495 96.001768 148.668904 100.666218 C 145.998448 105.334601 149.998233 106.667862 153.333354 106.667862 C 156.668475 106.667862 159.331066 105.334601 165.33271 101.99948 Z M 165.33271 101.99948 " transform="matrix(0.993217, 0, 0, -0.993217, -77.43788, 171.733435)"/>
<path fill="none" stroke-width="0.4" stroke-linecap="butt" stroke-linejoin="round" stroke="rgb(0%, 0%, 100%)" stroke-opacity="1" stroke-miterlimit="10" d="M 186.668832 120.665145 C 192.666543 118.667219 191.333281 113.334171 184.666973 110.667648 C 178.000664 108.001124 166.001307 108.001124 159.999663 109.999051 C 154.001951 112.00091 154.001951 116.000695 160.66826 118.667219 C 167.334569 121.333742 180.667187 122.667004 186.668832 120.665145 Z M 186.668832 120.665145 " transform="matrix(0.993217, 0, 0, -0.993217, -77.43788, 171.733435)"/>
<path fill="none" stroke-width="0.8" stroke-linecap="butt" stroke-linejoin="round" stroke="rgb(100%, 0%, 0%)" stroke-opacity="1" stroke-miterlimit="10" d="M 124.001595 135.334957 C 125.999521 134.66636 125.999521 133.333098 125.334856 131.999837 C 124.666259 130.666575 123.332997 129.333313 120.666474 128.668649 C 117.99995 128.000051 114.000165 128.000051 110.000379 127.331454 C 106.000594 126.666789 102.000809 125.333528 100.667547 125.998192 C 99.334285 126.666789 100.667547 129.333313 100.667547 131.999837 C 100.667547 134.66636 99.334285 137.332884 99.334285 138.001481 C 99.334285 138.666145 100.667547 137.332884 103.33407 136.668219 C 106.000594 135.999622 110.000379 135.999622 114.000165 135.999622 C 117.99995 135.999622 121.999735 135.999622 124.001595 135.334957 Z M 124.001595 135.334957 " transform="matrix(0.993217, 0, 0, -0.993217, -77.43788, 171.733435)"/>
<path fill="none" stroke-width="0.8" stroke-linecap="butt" stroke-linejoin="round" stroke="rgb(100%, 0%, 0%)" stroke-opacity="1" stroke-miterlimit="10" d="M 132.001165 113.998836 C 133.999092 112.00091 133.999092 108.001124 132.66583 104.666003 C 131.332568 101.334815 128.666044 98.668292 124.666259 96.666433 C 120.666474 94.668506 115.333426 93.335245 108.667118 91.99805 C 102.000809 90.664788 94.001238 89.331526 90.001452 90.000124 C 86.001667 90.664788 86.001667 93.335245 86.001667 94.668506 C 86.001667 96.001768 86.001667 96.001768 91.999379 99.332956 C 98.001023 102.668077 110.000379 109.334386 117.99995 112.665574 C 125.999521 116.000695 129.999306 116.000695 132.001165 113.998836 Z M 132.001165 113.998836 " transform="matrix(0.993217, 0, 0, -0.993217, -77.43788, 171.733435)"/>
<path fill="none" stroke-width="0.8" stroke-linecap="butt" stroke-linejoin="round" stroke="rgb(100%, 0%, 0%)" stroke-opacity="1" stroke-miterlimit="10" d="M 141.333998 117.333957 C 140.665401 116.000695 139.332139 112.00091 140.000736 108.665789 C 140.665401 105.334601 143.331924 102.668077 145.998448 102.668077 C 148.668904 102.668077 151.331495 105.334601 154.001951 107.332527 C 156.668475 109.334386 159.331066 110.667648 161.332925 112.665574 C 163.334784 114.667433 164.668046 117.333957 161.332925 117.998621 C 158.001737 118.667219 149.998233 117.333957 145.998448 117.333957 C 141.998662 117.333957 141.998662 118.667219 141.333998 117.333957 Z M 141.333998 117.333957 " transform="matrix(0.993217, 0, 0, -0.993217, -77.43788, 171.733435)"/>
<path fill="none" stroke-width="0.8" stroke-linecap="butt" stroke-linejoin="round" stroke="rgb(100%, 0%, 0%)" stroke-opacity="1" stroke-miterlimit="10" d="M 152.000092 137.332884 C 156.668475 138.666145 163.334784 137.332884 162.001522 134.66636 C 160.66826 131.999837 151.331495 128.000051 146.667045 126.666789 C 141.998662 125.333528 141.998662 126.666789 143.331924 129.333313 C 144.665186 131.999837 147.331709 135.999622 152.000092 137.332884 Z M 152.000092 137.332884 " transform="matrix(0.993217, 0, 0, -0.993217, -77.43788, 171.733435)"/>
<path fill="none" stroke-width="0.8" stroke-linecap="butt" stroke-linejoin="round" stroke="rgb(100%, 0%, 0%)" stroke-opacity="1" stroke-miterlimit="10" d="M 140.000736 142.304102 C 142.66726 143.637363 145.333783 148.970411 144.000521 150.303672 C 142.66726 151.636934 137.33028 148.970411 136.000951 146.303887 C 134.667689 143.637363 137.33028 140.97084 140.000736 142.304102 Z M 140.000736 142.304102 " transform="matrix(0.993217, 0, 0, -0.993217, -77.43788, 171.733435)"/>
<path fill="none" stroke-width="0.8" stroke-linecap="butt" stroke-linejoin="round" stroke="rgb(100%, 0%, 0%)" stroke-opacity="1" stroke-miterlimit="10" d="M 185.331637 161.331596 C 192.666543 162.668791 199.332852 161.331596 196.666329 158.000408 C 193.999805 154.665287 182.000449 149.33224 174.000878 146.001052 C 166.001307 142.665931 162.001522 141.332669 158.001737 140.668005 C 154.001951 139.999407 149.998233 139.999407 145.998448 139.999407 C 141.998662 139.999407 137.998877 139.999407 136.000951 139.334743 C 133.999092 138.666145 133.999092 137.332884 133.999092 135.999622 C 133.999092 134.66636 133.999092 133.333098 133.999092 131.331239 C 133.999092 129.333313 133.999092 126.666789 134.667689 123.331668 C 135.332353 120.00048 136.665615 116.000695 137.334212 111.332312 C 137.998877 106.667862 137.998877 101.334815 137.998877 95.333171 C 137.998877 89.331526 137.998877 82.665217 137.998877 78.000768 C 137.998877 73.332385 137.998877 70.665861 136.665615 70.001197 C 135.332353 69.332599 132.66583 70.665861 131.332568 75.334244 C 129.999306 79.998694 129.999306 87.998264 130.667904 94.668506 C 131.332568 101.334815 132.66583 106.667862 133.334427 110.667648 C 133.999092 114.667433 133.999092 117.333957 133.334427 119.331883 C 132.66583 121.333742 131.332568 122.667004 129.999306 124.668863 C 128.666044 126.666789 127.332783 129.333313 127.332783 131.999837 C 127.332783 134.66636 128.666044 137.332884 129.334642 139.334743 C 129.999306 141.332669 129.999306 142.665931 132.001165 142.665931 C 133.999092 142.665931 137.998877 141.332669 143.331924 142.665931 C 148.668904 143.999193 155.33128 147.998978 162.666187 151.998763 C 170.001093 155.998549 178.000664 159.998334 185.331637 161.331596 Z M 185.331637 161.331596 " transform="matrix(0.993217, 0, 0, -0.993217, -77.43788, 171.733435)"/>
<path fill="none" stroke-width="0.8" stroke-linecap="butt" stroke-linejoin="round" stroke="rgb(100%, 0%, 0%)" stroke-opacity="1" stroke-miterlimit="10" d="M 165.33271 101.99948 C 171.334355 98.668292 180.667187 93.335245 182.000449 89.331526 C 183.333711 85.331741 176.667402 82.665217 168.667831 85.331741 C 160.66826 87.998264 151.331495 96.001768 148.668904 100.666218 C 145.998448 105.334601 149.998233 106.667862 153.333354 106.667862 C 156.668475 106.667862 159.331066 105.334601 165.33271 101.99948 Z M 165.33271 101.99948 " transform="matrix(0.993217, 0, 0, -0.993217, -77.43788, 171.733435)"/>
<path fill="none" stroke-width="0.8" stroke-linecap="butt" stroke-linejoin="round" stroke="rgb(100%, 0%, 0%)" stroke-opacity="1" stroke-miterlimit="10" d="M 186.668832 120.665145 C 192.666543 118.667219 191.333281 113.334171 184.666973 110.667648 C 178.000664 108.001124 166.001307 108.001124 159.999663 109.999051 C 154.001951 112.00091 154.001951 116.000695 160.66826 118.667219 C 167.334569 121.333742 180.667187 122.667004 186.668832 120.665145 Z M 186.668832 120.665145 " transform="matrix(0.993217, 0, 0, -0.993217, -77.43788, 171.733435)"/>
<path fill="none" stroke-width="0.4" stroke-linecap="butt" stroke-linejoin="round" stroke="rgb(0%, 0%, 100%)" stroke-opacity="1" stroke-miterlimit="10" d="M 185.331637 161.331596 C 192.666543 162.668791 199.332852 161.331596 196.666329 158.000408 C 193.999805 154.665287 182.000449 149.33224 174.000878 146.001052 C 166.001307 142.665931 162.001522 141.332669 158.001737 140.668005 C 154.001951 139.999407 149.998233 139.999407 145.998448 139.999407 C 141.998662 139.999407 137.998877 139.999407 136.000951 139.334743 C 133.999092 138.666145 133.999092 137.332884 133.999092 135.999622 C 133.999092 134.66636 133.999092 133.333098 133.999092 131.331239 C 133.999092 129.333313 133.999092 126.666789 134.667689 123.331668 C 135.332353 120.00048 136.665615 116.000695 137.334212 111.332312 C 137.998877 106.667862 137.998877 101.334815 137.998877 95.333171 C 137.998877 89.331526 137.998877 82.665217 137.998877 78.000768 C 137.998877 73.332385 137.998877 70.665861 136.665615 70.001197 C 135.332353 69.332599 132.66583 70.665861 131.332568 75.334244 C 129.999306 79.998694 129.999306 87.998264 130.667904 94.668506 C 131.332568 101.334815 132.66583 106.667862 133.334427 110.667648 C 133.999092 114.667433 133.999092 117.333957 133.334427 119.331883 C 132.66583 121.333742 131.332568 122.667004 129.999306 124.668863 C 128.666044 126.666789 127.332783 129.333313 127.332783 131.999837 C 127.332783 134.66636 128.666044 137.332884 129.334642 139.334743 C 129.999306 141.332669 129.999306 142.665931 132.001165 142.665931 C 133.999092 142.665931 137.998877 141.332669 143.331924 142.665931 C 148.668904 143.999193 155.33128 147.998978 162.666187 151.998763 C 170.001093 155.998549 178.000664 159.998334 185.331637 161.331596 Z M 185.331637 161.331596 " transform="matrix(0.993217, 0, 0, -0.993217, -77.43788, 171.733435)"/>
</svg>
