<?xml version="1.0" encoding="UTF-8"?>
<svg xmlns="http://www.w3.org/2000/svg" xmlns:xlink="http://www.w3.org/1999/xlink" width="120.1793" height="103.7042" viewBox="0 0 120.1793 103.7042">
<path fill-rule="evenodd" fill="rgb(0%, 0%, 100%)" fill-opacity="0.1" stroke-width="0.4" stroke-linecap="butt" stroke-linejoin="round" stroke="rgb(0%, 0%, 0%)" stroke-opacity="0.1" stroke-miterlimit="10" d="M 124.001595 135.334957 C 125.999521 134.66636 125.999521 133.333098 125.334856 131.999837 C 124.666259 130.666575 123.332997 129.333313 120.666474 128.668649 C 117.99995 128.000051 114.000165 128.000051 110.000379 127.331454 C 106.000594 126.666789 102.000809 125.333528 100.667547 125.998192 C 99.334285 126.666789 100.667547 129.333313 100.667547 131.999837 C 100.667547 134.66636 99.334285 137.332884 99.334285 138.001481 C 99.334285 138.666145 100.667547 137.332884 103.33407 136.668219 C 106.000594 135.999622 110.000379 135.999622 114.000165 135.999622 C 117.99995 135.999622 121.999735 135.999622 124.001595 135.334957 Z M 124.001595 135.334957 " transform="matrix(0.993217, 0, 0, -0.993217, -77.43788, 171.733435)"/>
<path fill-rule="evenodd" fill="rgb(0%, 0%, 100%)" fill-opacity="0.1" stroke-width="0.4" stroke-linecap="butt" stroke-linejoin="round" stroke="rgb(0%, 0%, 0%)" stroke-opacity="0.1" stroke-miterlimit="10" d="M 132.66583 120.665145 C 132.66583 122.667004 131.332568 125.333528 131.332568 128.000051 C 131.332568 130.666575 132.66583 133.333098 130.667904 131.999837 C 128.666044 130.666575 123.332997 125.333528 122.668333 121.998407 C 121.999735 118.667219 125.999521 117.333957 128.666044 117.333957 C 131.332568 117.333957 132.66583 118.667219 132.66583 120.665145 Z M 132.66583 120.665145 " transform="matrix(0.993217, 0, 0, -0.993217, -77.43788, 171.733435)"/>
<path fill-rule="evenodd" fill="rgb(0%, 0%, 100%)" fill-opacity="0.1" stroke-width="0.4" stroke-linecap="butt" stroke-linejoin="round" stroke="rgb(0%, 0%, 0%)" stroke-opacity="0.1" stroke-miterlimit="10" d="M 132.001165 113.998836 C 133.999092 112.00091 133.999092 108.001124 132.66583 104.666003 C 131.332568 101.334815 128.666044 98.668292 124.666259 96.666433 C 120.666474 94.668506 115.333426 93.335245 108.667118 91.99805 C 102.000809 90.664788 94.001238 89.331526 90.001452 90.000124 C 86.001667 90.664788 86.001667 93.335245 86.001667 94.668506 C 86.001667 96.001768 86.001667 96.001768 91.999379 99.332956 C 98.001023 102.668077 110.000379 109.334386 117.99995 112.665574 C 125.999521 116.000695 129.999306 116.000695 132.001165 113.998836 Z M 132.001165 113.998836 " transform="matrix(0.993217, 0, 0, -0.993217, -77.43788, 171.733435)"/>
<path fill-rule="evenodd" fill="rgb(0%, 0%, 100%)" fill-opacity="0.1" stroke-width="0.4" stroke-linecap="butt" stroke-linejoin="round" stroke="rgb(0%, 0%, 0%)" stroke-opacity="0.1" stroke-miterlimit="10" d="M 141.333998 117.333957 C 140.665401 116.000695 139.332139 112.00091 140.000736 108.665789 C 140.665401 105.334601 143.331924 102.668077 145.998448 102.668077 C 148.668904 102.668077 151.331495 105.334601 154.001951 107.332527 C 156.668475 109.334386 159.331066 110.667648 161.332925 112.665574 C 163.334784 114.667433 164.668046 117.333957 161.332925 117.998621 C 158.001737 118.667219 149.998233 117.333957 145.998448 117.333957 C 141.998662 117.333957 141.998662 118.667219 141.333998 117.333957 Z M 141.333998 117.333957 " transform="matrix(0.993217, 0, 0, -0.993217, -77.43788, 171.733435)"/>
<path fill-rule="evenodd" fill="rgb(0%, 0%, 100%)" fill-opacity="0.1" stroke-width="0.4" stroke-linecap="butt" stroke-linejoin="round" stroke="rgb(0%, 0%, 0%)" stroke-opacity="0.1" stroke-miterlimit="10" d="M 130.667904 135.334957 C 133.999092 137.332884 137.998877 138.666145 142.66726 138.001481 C 147.331709 137.332884 152.66869 134.66636 155.33128 131.331239 C 158.001737 128.000051 158.001737 124.000266 155.999878 121.998407 C 154.001951 120.00048 149.998233 120.00048 147.331709 121.998407 C 144.665186 124.000266 143.331924 128.000051 137.334212 128.000051 C 131.332568 128.000051 120.666474 124.000266 117.331353 123.331668 C 114.000165 122.667004 117.99995 125.333528 121.331138 128.000051 C 124.666259 130.666575 127.332783 133.333098 130.667904 135.334957 Z M 130.667904 135.334957 " transform="matrix(0.993217, 0, 0, -0.993217, -77.43788, 171.733435)"/>
<path fill-rule="evenodd" fill="rgb(0%, 0%, 100%)" fill-opacity="0.1" stroke-width="0.4" stroke-linecap="butt" stroke-linejoin="round" stroke="rgb(0%, 0%, 0%)" stroke-opacity="0.1" stroke-miterlimit="10" d="M 152.000092 137.332884 C 156.668475 138.666145 163.334784 137.332884 162.001522 134.66636 C 160.66826 131.999837 151.331495 128.000051 146.667045 126.666789 C 141.998662 125.333528 141.998662 126.666789 143.331924 129.333313 C 144.665186 131.999837 147.331709 135.999622 152.000092 137.332884 Z M 152.000092 137.332884 " transform="matrix(0.993217, 0, 0, -0.993217, -77.43788, 171.733435)"/>
<path fill-rule="evenodd" fill="rgb(0%, 0%, 100%)" fill-opacity="0.1" stroke-width="0.4" stroke-linecap="butt" stroke-linejoin="round" stroke="rgb(0%, 0%, 0%)" stroke-opacity="0.1" stroke-miterlimit="10" d="M 140.000736 142.304102 C 142.66726 143.637363 145.333783 148.970411 144.000521 150.303672 C 142.66726 151.636934 137.33028 148.970411 136.000951 146.303887 C 134.667689 143.637363 137.33028 140.97084 140.000736 142.304102 Z M 140.000736 142.304102 " transform="matrix(0.993217, 0, 0, -0.993217, -77.43788, 171.733435)"/>
<path fill-rule="evenodd" fill="rgb(0%, 0%, 100%)" fill-opacity="0.1" stroke-width="0.4" stroke-linecap="butt" stroke-linejoin="round" stroke="rgb(0%, 0%, 0%)" stroke-opacity="0.1" stroke-miterlimit="10" d="M 185.331637 161.331596 C 192.666543 162.668791 199.332852 161.331596 196.666329 158.000408 C 193.999805 154.665287 182.000449 149.33224 174.000878 146.001052 C 166.001307 142.665931 162.001522 141.332669 158.001737 140.668005 C 154.001951 139.999407 149.998233 139.999407 145.998448 139.999407 C 141.998662 139.999407 137.998877 139.999407 136.000951 139.334743 C 133.999092 138.666145 133.999092 137.332884 133.999092 135.999622 C 133.999092 134.66636 133.999092 133.333098 133.999092 131.331239 C 133.999092 129.333313 133.999092 126.666789 134.667689 123.331668 C 135.332353 120.00048 136.665615 116.000695 137.334212 111.332312 C 137.998877 106.667862 137.998877 101.334815 137.998877 95.333171 C 137.998877 89.331526 137.998877 82.665217 137.998877 78.000768 C 137.998877 73.332385 137.998877 70.665861 136.665615 70.001197 C 135.332353 69.332599 132.66583 70.665861 131.332568 75.334244 C 129.999306 79.998694 129.999306 87.998264 130.667904 94.668506 C 131.332568 101.334815 132.66583 106.667862 133.334427 110.667648 C 133.999092 114.667433 133.999092 117.333957 133.334427 119.331883 C 132.66583 121.333742 131.332568 122.667004 129.999306 124.668863 C 128.666044 126.666789 127.332783 129.333313 127.332783 131.999837 C 127.332783 134.66636 128.666044 137.332884 129.334642 139.334743 C 129.999306 141.332669 129.999306 142.665931 132.001165 142.665931 C 133.999092 142.665931 137.998877 141.332669 143.331924 142.665931 C 148.668904 143.999193 155.33128 147.998978 162.666187 151.998763 C 170.001093 155.998549 178.000664 159.998334 185.331637 161.331596 Z M 185.331637 161.331596 " transform="matrix(0.993217, 0, 0, -0.993217, -77.43788, 171.733435)"/>
<path fill-rule="evenodd" fill="rgb(0%, 0%, 100%)" fill-opacity="0.1" stroke-width="0.4" stroke-linecap="butt" stroke-linejoin="round" stroke="rgb(0%, 0%, 0%)" stroke-opacity="0.1" stroke-miterlimit="10" d="M 111.998306 151.334099 C 111.333641 149.33224 104.667332 146.665716 102.000809 147.334314 C 99.334285 147.998978 100.667547 151.998763 103.998735 153.332025 C 107.333856 154.665287 112.666903 153.332025 111.998306 151.334099 Z M 111.998306 151.334099 " transform="matrix(0.993217, 0, 0, -0.993217, -77.43788, 171.733435)"/>
<path fill-rule="evenodd" fill="rgb(0%, 0%, 100%)" fill-opacity="0.1" stroke-width="0.4" stroke-linecap="butt" stroke-linejoin="round" stroke="rgb(0%, 0%, 0%)" stroke-opacity="0.1" stroke-miterlimit="10" d="M 129.334642 153.332025 C 124.666259 150.665502 111.333641 149.33224 109.331782 151.334099 C 107.333856 153.332025 116.666688 158.665072 123.332997 159.33367 C 129.999306 159.998334 133.999092 155.998549 129.334642 153.332025 Z M 129.334642 153.332025 " transform="matrix(0.993217, 0, 0, -0.993217, -77.43788, 171.733435)"/>
<path fill-rule="evenodd" fill="rgb(0%, 0%, 100%)" fill-opacity="0.1" stroke-width="0.4" stroke-linecap="butt" stroke-linejoin="round" stroke="rgb(0%, 0%, 0%)" stroke-opacity="0.1" stroke-miterlimit="10" d="M 104.667332 113.998836 C 107.333856 112.00091 108.667118 108.001124 106.000594 105.334601 C 103.33407 102.668077 96.667761 101.334815 90.666117 105.999265 C 84.668405 110.667648 79.331425 121.333742 78.666761 130.00191 C 77.998163 138.666145 82.001882 145.332454 86.001667 148.667575 C 90.001452 151.998763 94.001238 151.998763 97.332426 151.334099 C 100.667547 150.665502 103.33407 149.33224 101.332211 146.665716 C 99.334285 143.999193 92.667976 139.999407 93.33264 137.332884 C 94.001238 134.66636 102.000809 133.333098 103.33407 130.00191 C 104.667332 126.666789 99.334285 121.333742 98.665688 118.667219 C 98.001023 116.000695 102.000809 116.000695 104.667332 113.998836 Z M 104.667332 113.998836 " transform="matrix(0.993217, 0, 0, -0.993217, -77.43788, 171.733435)"/>
<path fill-rule="evenodd" fill="rgb(0%, 0%, 100%)" fill-opacity="0.1" stroke-width="0.4" stroke-linecap="butt" stroke-linejoin="round" stroke="rgb(0%, 0%, 0%)" stroke-opacity="0.1" stroke-miterlimit="10" d="M 124.001595 91.333385 C 129.999306 90.664788 133.999092 89.331526 135.332353 86.000338 C 136.665615 82.665217 135.332353 77.33217 128.666044 76.667506 C 121.999735 75.998908 110.000379 79.998694 104.667332 83.333815 C 99.334285 86.665003 100.667547 89.331526 105.331997 90.664788 C 110.000379 91.99805 117.99995 91.99805 124.001595 91.333385 Z M 124.001595 91.333385 " transform="matrix(0.993217, 0, 0, -0.993217, -77.43788, 171.733435)"/>
<path fill-rule="evenodd" fill="rgb(0%, 0%, 100%)" fill-opacity="0.1" stroke-width="0.4" stroke-linecap="butt" stroke-linejoin="round" stroke="rgb(0%, 0%, 0%)" stroke-opacity="0.1" stroke-miterlimit="10" d="M 148.027837 90.011922 C 149.361099 88.013996 148.027837 84.014211 145.361314 82.680949 C 142.69479 81.347687 138.695005 82.680949 137.361743 84.678875 C 136.028481 86.680734 137.361743 89.347258 140.028267 90.68052 C 142.69479 92.013782 146.694576 92.013782 148.027837 90.011922 Z M 148.027837 90.011922 " transform="matrix(0.993217, 0, 0, -0.993217, -77.43788, 171.733435)"/>
<path fill-rule="evenodd" fill="rgb(0%, 0%, 100%)" fill-opacity="0.1" stroke-width="0.4" stroke-linecap="butt" stroke-linejoin="round" stroke="rgb(0%, 0%, 0%)" stroke-opacity="0.1" stroke-miterlimit="10" d="M 165.33271 101.99948 C 171.334355 98.668292 180.667187 93.335245 182.000449 89.331526 C 183.333711 85.331741 176.667402 82.665217 168.667831 85.331741 C 160.66826 87.998264 151.331495 96.001768 148.668904 100.666218 C 145.998448 105.334601 149.998233 106.667862 153.333354 106.667862 C 156.668475 106.667862 159.331066 105.334601 165.33271 101.99948 Z M 165.33271 101.99948 " transform="matrix(0.993217, 0, 0, -0.993217, -77.43788, 171.733435)"/>
<path fill-rule="evenodd" fill="rgb(0%, 0%, 100%)" fill-opacity="0.1" stroke-width="0.4" stroke-linecap="butt" stroke-linejoin="round" stroke="rgb(0%, 0%, 0%)" stroke-opacity="0.1" stroke-miterlimit="10" d="M 186.668832 120.665145 C 192.666543 118.667219 191.333281 113.334171 184.666973 110.667648 C 178.000664 108.001124 166.001307 108.001124 159.999663 109.999051 C 154.001951 112.00091 154.001951 116.000695 160.66826 118.667219 C 167.334569 121.333742 180.667187 122.667004 186.668832 120.665145 Z M 186.668832 120.665145 " transform="matrix(0.993217, 0, 0, -0.993217, -77.43788, 171.733435)"/>
</svg>
