<?xml version="1.0" encoding="UTF-8"?>
<svg xmlns="http://www.w3.org/2000/svg" xmlns:xlink="http://www.w3.org/1999/xlink" width="145.007" height="142.66659" viewBox="0 0 145.007 142.66659">
<path fill="none" stroke-width="0.8" stroke-linecap="butt" stroke-linejoin="round" stroke="rgb(54.499817%, 0%, 0%)" stroke-opacity="1" stroke-miterlimit="10" d="M 39.998608 128.00181 L 31.998886 141.857768 L 15.999443 141.857768 L 7.999722 128.00181 L 15.999443 114.145852 L 31.998886 114.145852 Z M 39.998608 128.00181 " transform="matrix(0.993199, 0, 0, -0.993199, 0.000000000000003886, 150.103878)"/>
<path fill="none" stroke-width="0.8" stroke-linecap="butt" stroke-linejoin="round" stroke="rgb(54.499817%, 0%, 0%)" stroke-opacity="1" stroke-miterlimit="10" d="M 39.998608 100.28596 L 31.998886 114.141919 L 15.999443 114.141919 L 7.999722 100.28596 L 15.999443 86.430002 L 31.998886 86.430002 Z M 39.998608 100.28596 " transform="matrix(0.993199, 0, 0, -0.993199, 0.000000000000003886, 150.103878)"/>
<path fill="none" stroke-width="0.8" stroke-linecap="butt" stroke-linejoin="round" stroke="rgb(54.499817%, 0%, 0%)" stroke-opacity="1" stroke-miterlimit="10" d="M 39.998608 72.574044 L 31.998886 86.430002 L 15.999443 86.430002 L 7.999722 72.574044 L 15.999443 58.718086 L 31.998886 58.718086 Z M 39.998608 72.574044 " transform="matrix(0.993199, 0, 0, -0.993199, 0.000000000000003886, 150.103878)"/>
<path fill="none" stroke-width="0.8" stroke-linecap="butt" stroke-linejoin="round" stroke="rgb(54.499817%, 0%, 0%)" stroke-opacity="1" stroke-miterlimit="10" d="M 39.998608 44.862127 L 31.998886 58.718086 L 15.999443 58.718086 L 7.999722 44.862127 L 15.999443 31.006169 L 31.998886 31.006169 Z M 39.998608 44.862127 " transform="matrix(0.993199, 0, 0, -0.993199, 0.000000000000003886, 150.103878)"/>
<path fill="none" stroke-width="0.8" stroke-linecap="butt" stroke-linejoin="round" stroke="rgb(54.499817%, 0%, 0%)" stroke-opacity="1" stroke-miterlimit="10" d="M 64.001706 114.145852 L 55.998051 128.00181 L 39.998608 128.00181 L 31.998886 114.145852 L 39.998608 100.289893 L 55.998051 100.289893 Z M 64.001706 114.145852 " transform="matrix(0.993199, 0, 0, -0.993199, 0.000000000000003886, 150.103878)"/>
<path fill="none" stroke-width="0.8" stroke-linecap="butt" stroke-linejoin="round" stroke="rgb(54.499817%, 0%, 0%)" stroke-opacity="1" stroke-miterlimit="10" d="M 64.001706 86.430002 L 55.998051 100.28596 L 39.998608 100.28596 L 31.998886 86.430002 L 39.998608 72.574044 L 55.998051 72.574044 Z M 64.001706 86.430002 " transform="matrix(0.993199, 0, 0, -0.993199, 0.000000000000003886, 150.103878)"/>
<path fill="none" stroke-width="0.8" stroke-linecap="butt" stroke-linejoin="round" stroke="rgb(54.499817%, 0%, 0%)" stroke-opacity="1" stroke-miterlimit="10" d="M 64.001706 58.718086 L 55.998051 72.574044 L 39.998608 72.574044 L 31.998886 58.718086 L 39.998608 44.862127 L 55.998051 44.862127 Z M 64.001706 58.718086 " transform="matrix(0.993199, 0, 0, -0.993199, 0.000000000000003886, 150.103878)"/>
<path fill="none" stroke-width="0.8" stroke-linecap="butt" stroke-linejoin="round" stroke="rgb(54.499817%, 0%, 0%)" stroke-opacity="1" stroke-miterlimit="10" d="M 64.001706 31.006169 L 55.998051 44.862127 L 39.998608 44.862127 L 31.998886 31.006169 L 39.998608 17.150211 L 55.998051 17.150211 Z M 64.001706 31.006169 " transform="matrix(0.993199, 0, 0, -0.993199, 0.000000000000003886, 150.103878)"/>
<path fill="none" stroke-width="0.8" stroke-linecap="butt" stroke-linejoin="round" stroke="rgb(54.499817%, 0%, 0%)" stroke-opacity="1" stroke-miterlimit="10" d="M 88.00087 128.00181 L 80.001149 141.857768 L 64.001706 141.857768 L 55.998051 128.00181 L 64.001706 114.145852 L 80.001149 114.145852 Z M 88.00087 128.00181 " transform="matrix(0.993199, 0, 0, -0.993199, 0.000000000000003886, 150.103878)"/>
<path fill="none" stroke-width="0.8" stroke-linecap="butt" stroke-linejoin="round" stroke="rgb(54.499817%, 0%, 0%)" stroke-opacity="1" stroke-miterlimit="10" d="M 88.00087 100.28596 L 80.001149 114.141919 L 64.001706 114.141919 L 55.998051 100.28596 L 64.001706 86.430002 L 80.001149 86.430002 Z M 88.00087 100.28596 " transform="matrix(0.993199, 0, 0, -0.993199, 0.000000000000003886, 150.103878)"/>
<path fill="none" stroke-width="0.8" stroke-linecap="butt" stroke-linejoin="round" stroke="rgb(54.499817%, 0%, 0%)" stroke-opacity="1" stroke-miterlimit="10" d="M 88.00087 72.574044 L 80.001149 86.430002 L 64.001706 86.430002 L 55.998051 72.574044 L 64.001706 58.718086 L 80.001149 58.718086 Z M 88.00087 72.574044 " transform="matrix(0.993199, 0, 0, -0.993199, 0.000000000000003886, 150.103878)"/>
<path fill="none" stroke-width="0.8" stroke-linecap="butt" stroke-linejoin="round" stroke="rgb(54.499817%, 0%, 0%)" stroke-opacity="1" stroke-miterlimit="10" d="M 88.00087 44.862127 L 80.001149 58.718086 L 64.001706 58.718086 L 55.998051 44.862127 L 64.001706 31.006169 L 80.001149 31.006169 Z M 88.00087 44.862127 " transform="matrix(0.993199, 0, 0, -0.993199, 0.000000000000003886, 150.103878)"/>
<path fill="none" stroke-width="0.8" stroke-linecap="butt" stroke-linejoin="round" stroke="rgb(54.499817%, 0%, 0%)" stroke-opacity="1" stroke-miterlimit="10" d="M 112.000035 114.145852 L 104.000313 128.00181 L 88.00087 128.00181 L 80.001149 114.145852 L 88.00087 100.289893 L 104.000313 100.289893 Z M 112.000035 114.145852 " transform="matrix(0.993199, 0, 0, -0.993199, 0.000000000000003886, 150.103878)"/>
<path fill="none" stroke-width="0.8" stroke-linecap="butt" stroke-linejoin="round" stroke="rgb(54.499817%, 0%, 0%)" stroke-opacity="1" stroke-miterlimit="10" d="M 112.000035 86.430002 L 104.000313 100.28596 L 88.00087 100.28596 L 80.001149 86.430002 L 88.00087 72.574044 L 104.000313 72.574044 Z M 112.000035 86.430002 " transform="matrix(0.993199, 0, 0, -0.993199, 0.000000000000003886, 150.103878)"/>
<path fill="none" stroke-width="0.8" stroke-linecap="butt" stroke-linejoin="round" stroke="rgb(54.499817%, 0%, 0%)" stroke-opacity="1" stroke-miterlimit="10" d="M 112.000035 58.718086 L 104.000313 72.574044 L 88.00087 72.574044 L 80.001149 58.718086 L 88.00087 44.862127 L 104.000313 44.862127 Z M 112.000035 58.718086 " transform="matrix(0.993199, 0, 0, -0.993199, 0.000000000000003886, 150.103878)"/>
<path fill="none" stroke-width="0.8" stroke-linecap="butt" stroke-linejoin="round" stroke="rgb(54.499817%, 0%, 0%)" stroke-opacity="1" stroke-miterlimit="10" d="M 112.000035 31.006169 L 104.000313 44.862127 L 88.00087 44.862127 L 80.001149 31.006169 L 88.00087 17.150211 L 104.000313 17.150211 Z M 112.000035 31.006169 " transform="matrix(0.993199, 0, 0, -0.993199, 0.000000000000003886, 150.103878)"/>
<path fill="none" stroke-width="0.8" stroke-linecap="butt" stroke-linejoin="round" stroke="rgb(54.499817%, 0%, 0%)" stroke-opacity="1" stroke-miterlimit="10" d="M 135.9992 128.00181 L 127.999478 141.857768 L 112.000035 141.857768 L 104.000313 128.00181 L 112.000035 114.145852 L 127.999478 114.145852 Z M 135.9992 128.00181 " transform="matrix(0.993199, 0, 0, -0.993199, 0.000000000000003886, 150.103878)"/>
<path fill="none" stroke-width="0.8" stroke-linecap="butt" stroke-linejoin="round" stroke="rgb(54.499817%, 0%, 0%)" stroke-opacity="1" stroke-miterlimit="10" d="M 135.9992 100.28596 L 127.999478 114.141919 L 112.000035 114.141919 L 104.000313 100.28596 L 112.000035 86.430002 L 127.999478 86.430002 Z M 135.9992 100.28596 " transform="matrix(0.993199, 0, 0, -0.993199, 0.000000000000003886, 150.103878)"/>
<path fill="none" stroke-width="0.8" stroke-linecap="butt" stroke-linejoin="round" stroke="rgb(54.499817%, 0%, 0%)" stroke-opacity="1" stroke-miterlimit="10" d="M 135.9992 72.574044 L 127.999478 86.430002 L 112.000035 86.430002 L 104.000313 72.574044 L 112.000035 58.718086 L 127.999478 58.718086 Z M 135.9992 72.574044 " transform="matrix(0.993199, 0, 0, -0.993199, 0.000000000000003886, 150.103878)"/>
<path fill="none" stroke-width="0.8" stroke-linecap="butt" stroke-linejoin="round" stroke="rgb(54.499817%, 0%, 0%)" stroke-opacity="1" stroke-miterlimit="10" d="M 135.9992 44.862127 L 127.999478 58.718086 L 112.000035 58.718086 L 104.000313 44.862127 L 112.000035 31.006169 L 127.999478 31.006169 Z M 135.9992 44.862127 " transform="matrix(0.993199, 0, 0, -0.993199, 0.000000000000003886, 150.103878)"/>
<path fill-rule="evenodd" fill="rgb(100%, 0%, 0%)" fill-opacity="1" d="M 128.621094 9.210938 C 128.621094 8.390625 127.953125 7.722656 127.128906 7.722656 C 126.308594 7.722656 125.640625 8.390625 125.640625 9.210938 C 125.640625 10.035156 126.308594 10.703125 127.128906 10.703125 C 127.953125 10.703125 128.621094 10.035156 128.621094 9.210938 "/>
<path fill-rule="evenodd" fill="rgb(0%, 0%, 0%)" fill-opacity="1" d="M 128.917969 9.210938 C 128.917969 8.226562 128.117188 7.425781 127.128906 7.425781 C 126.140625 7.425781 125.339844 8.226562 125.339844 9.210938 C 125.339844 10.199219 126.140625 11 127.128906 11 C 128.117188 11 128.917969 10.199219 128.917969 9.210938 M 128.320312 9.210938 C 128.320312 8.554688 127.789062 8.019531 127.128906 8.019531 C 126.472656 8.019531 125.9375 8.554688 125.9375 9.210938 C 125.9375 9.871094 126.472656 10.40625 127.128906 10.40625 C 127.789062 10.40625 128.320312 9.871094 128.320312 9.210938 "/>
<path fill-rule="evenodd" fill="rgb(100%, 0%, 0%)" fill-opacity="1" d="M 136.566406 22.972656 C 136.566406 22.152344 135.898438 21.484375 135.074219 21.484375 C 134.253906 21.484375 133.585938 22.152344 133.585938 22.972656 C 133.585938 23.796875 134.253906 24.464844 135.074219 24.464844 C 135.898438 24.464844 136.566406 23.796875 136.566406 22.972656 "/>
<path fill-rule="evenodd" fill="rgb(0%, 0%, 0%)" fill-opacity="1" d="M 136.863281 22.972656 C 136.863281 21.988281 136.0625 21.1875 135.074219 21.1875 C 134.085938 21.1875 133.289062 21.988281 133.289062 22.972656 C 133.289062 23.960938 134.085938 24.761719 135.074219 24.761719 C 136.0625 24.761719 136.863281 23.960938 136.863281 22.972656 M 136.265625 22.972656 C 136.265625 22.316406 135.734375 21.78125 135.074219 21.78125 C 134.417969 21.78125 133.882812 22.316406 133.882812 22.972656 C 133.882812 23.632812 134.417969 24.167969 135.074219 24.167969 C 135.734375 24.167969 136.265625 23.632812 136.265625 22.972656 "/>
<path fill-rule="evenodd" fill="rgb(100%, 0%, 0%)" fill-opacity="1" d="M 128.621094 36.734375 C 128.621094 35.914062 127.953125 35.246094 127.128906 35.246094 C 126.308594 35.246094 125.640625 35.914062 125.640625 36.734375 C 125.640625 37.558594 126.308594 38.226562 127.128906 38.226562 C 127.953125 38.226562 128.621094 37.558594 128.621094 36.734375 "/>
<path fill-rule="evenodd" fill="rgb(0%, 0%, 0%)" fill-opacity="1" d="M 128.917969 36.734375 C 128.917969 35.75 128.117188 34.949219 127.128906 34.949219 C 126.140625 34.949219 125.339844 35.75 125.339844 36.734375 C 125.339844 37.722656 126.140625 38.523438 127.128906 38.523438 C 128.117188 38.523438 128.917969 37.722656 128.917969 36.734375 M 128.320312 36.734375 C 128.320312 36.078125 127.789062 35.542969 127.128906 35.542969 C 126.472656 35.542969 125.9375 36.078125 125.9375 36.734375 C 125.9375 37.394531 126.472656 37.929688 127.128906 37.929688 C 127.789062 37.929688 128.320312 37.394531 128.320312 36.734375 "/>
<path fill-rule="evenodd" fill="rgb(100%, 0%, 0%)" fill-opacity="1" d="M 136.566406 50.5 C 136.566406 49.675781 135.898438 49.007812 135.074219 49.007812 C 134.253906 49.007812 133.585938 49.675781 133.585938 50.5 C 133.585938 51.320312 134.253906 51.988281 135.074219 51.988281 C 135.898438 51.988281 136.566406 51.320312 136.566406 50.5 "/>
<path fill-rule="evenodd" fill="rgb(0%, 0%, 0%)" fill-opacity="1" d="M 136.863281 50.5 C 136.863281 49.511719 136.0625 48.710938 135.074219 48.710938 C 134.085938 48.710938 133.289062 49.511719 133.289062 50.5 C 133.289062 51.484375 134.085938 52.285156 135.074219 52.285156 C 136.0625 52.285156 136.863281 51.484375 136.863281 50.5 M 136.265625 50.5 C 136.265625 49.839844 135.734375 49.308594 135.074219 49.308594 C 134.417969 49.308594 133.882812 49.839844 133.882812 50.5 C 133.882812 51.15625 134.417969 51.691406 135.074219 51.691406 C 135.734375 51.691406 136.265625 51.15625 136.265625 50.5 "/>
<path fill-rule="evenodd" fill="rgb(100%, 0%, 0%)" fill-opacity="1" d="M 128.621094 64.261719 C 128.621094 63.4375 127.953125 62.769531 127.128906 62.769531 C 126.308594 62.769531 125.640625 63.4375 125.640625 64.261719 C 125.640625 65.082031 126.308594 65.75 127.128906 65.75 C 127.953125 65.75 128.621094 65.082031 128.621094 64.261719 "/>
<path fill-rule="evenodd" fill="rgb(0%, 0%, 0%)" fill-opacity="1" d="M 128.917969 64.261719 C 128.917969 63.273438 128.117188 62.472656 127.128906 62.472656 C 126.140625 62.472656 125.339844 63.273438 125.339844 64.261719 C 125.339844 65.25 126.140625 66.046875 127.128906 66.046875 C 128.117188 66.046875 128.917969 65.25 128.917969 64.261719 M 128.320312 64.261719 C 128.320312 63.601562 127.789062 63.070312 127.128906 63.070312 C 126.472656 63.070312 125.9375 63.601562 125.9375 64.261719 C 125.9375 64.917969 126.472656 65.453125 127.128906 65.453125 C 127.789062 65.453125 128.320312 64.917969 128.320312 64.261719 "/>
<path fill-rule="evenodd" fill="rgb(100%, 0%, 0%)" fill-opacity="1" d="M 136.566406 78.023438 C 136.566406 77.199219 135.898438 76.535156 135.074219 76.535156 C 134.253906 76.535156 133.585938 77.199219 133.585938 78.023438 C 133.585938 78.847656 134.253906 79.511719 135.074219 79.511719 C 135.898438 79.511719 136.566406 78.847656 136.566406 78.023438 "/>
<path fill-rule="evenodd" fill="rgb(0%, 0%, 0%)" fill-opacity="1" d="M 136.863281 78.023438 C 136.863281 77.035156 136.0625 76.234375 135.074219 76.234375 C 134.085938 76.234375 133.289062 77.035156 133.289062 78.023438 C 133.289062 79.011719 134.085938 79.8125 135.074219 79.8125 C 136.0625 79.8125 136.863281 79.011719 136.863281 78.023438 M 136.265625 78.023438 C 136.265625 77.363281 135.734375 76.832031 135.074219 76.832031 C 134.417969 76.832031 133.882812 77.363281 133.882812 78.023438 C 133.882812 78.679688 134.417969 79.214844 135.074219 79.214844 C 135.734375 79.214844 136.265625 78.679688 136.265625 78.023438 "/>
<path fill-rule="evenodd" fill="rgb(100%, 0%, 0%)" fill-opacity="1" d="M 128.621094 91.785156 C 128.621094 90.960938 127.953125 90.296875 127.128906 90.296875 C 126.308594 90.296875 125.640625 90.960938 125.640625 91.785156 C 125.640625 92.609375 126.308594 93.273438 127.128906 93.273438 C 127.953125 93.273438 128.621094 92.609375 128.621094 91.785156 "/>
<path fill-rule="evenodd" fill="rgb(0%, 0%, 0%)" fill-opacity="1" d="M 128.917969 91.785156 C 128.917969 90.796875 128.117188 89.996094 127.128906 89.996094 C 126.140625 89.996094 125.339844 90.796875 125.339844 91.785156 C 125.339844 92.773438 126.140625 93.574219 127.128906 93.574219 C 128.117188 93.574219 128.917969 92.773438 128.917969 91.785156 M 128.320312 91.785156 C 128.320312 91.128906 127.789062 90.59375 127.128906 90.59375 C 126.472656 90.59375 125.9375 91.128906 125.9375 91.785156 C 125.9375 92.445312 126.472656 92.976562 127.128906 92.976562 C 127.789062 92.976562 128.320312 92.445312 128.320312 91.785156 "/>
<path fill-rule="evenodd" fill="rgb(100%, 0%, 0%)" fill-opacity="1" d="M 136.566406 105.546875 C 136.566406 104.722656 135.898438 104.058594 135.074219 104.058594 C 134.253906 104.058594 133.585938 104.722656 133.585938 105.546875 C 133.585938 106.371094 134.253906 107.035156 135.074219 107.035156 C 135.898438 107.035156 136.566406 106.371094 136.566406 105.546875 "/>
<path fill-rule="evenodd" fill="rgb(0%, 0%, 0%)" fill-opacity="1" d="M 136.863281 105.546875 C 136.863281 104.558594 136.0625 103.757812 135.074219 103.757812 C 134.085938 103.757812 133.289062 104.558594 133.289062 105.546875 C 133.289062 106.535156 134.085938 107.335938 135.074219 107.335938 C 136.0625 107.335938 136.863281 106.535156 136.863281 105.546875 M 136.265625 105.546875 C 136.265625 104.890625 135.734375 104.355469 135.074219 104.355469 C 134.417969 104.355469 133.882812 104.890625 133.882812 105.546875 C 133.882812 106.207031 134.417969 106.738281 135.074219 106.738281 C 135.734375 106.738281 136.265625 106.207031 136.265625 105.546875 "/>
<path fill-rule="evenodd" fill="rgb(100%, 0%, 0%)" fill-opacity="1" d="M 128.621094 119.308594 C 128.621094 118.488281 127.953125 117.820312 127.128906 117.820312 C 126.308594 117.820312 125.640625 118.488281 125.640625 119.308594 C 125.640625 120.132812 126.308594 120.800781 127.128906 120.800781 C 127.953125 120.800781 128.621094 120.132812 128.621094 119.308594 "/>
<path fill-rule="evenodd" fill="rgb(0%, 0%, 0%)" fill-opacity="1" d="M 128.917969 119.308594 C 128.917969 118.320312 128.117188 117.523438 127.128906 117.523438 C 126.140625 117.523438 125.339844 118.320312 125.339844 119.308594 C 125.339844 120.296875 126.140625 121.097656 127.128906 121.097656 C 128.117188 121.097656 128.917969 120.296875 128.917969 119.308594 M 128.320312 119.308594 C 128.320312 118.652344 127.789062 118.117188 127.128906 118.117188 C 126.472656 118.117188 125.9375 118.652344 125.9375 119.308594 C 125.9375 119.96875 126.472656 120.5 127.128906 120.5 C 127.789062 120.5 128.320312 119.96875 128.320312 119.308594 "/>
<path fill-rule="evenodd" fill="rgb(100%, 0%, 0%)" fill-opacity="1" d="M 112.726562 119.308594 C 112.726562 118.488281 112.0625 117.820312 111.238281 117.820312 C 110.414062 117.820312 109.75 118.488281 109.75 119.308594 C 109.75 120.132812 110.414062 120.800781 111.238281 120.800781 C 112.0625 120.800781 112.726562 120.132812 112.726562 119.308594 "/>
<path fill-rule="evenodd" fill="rgb(0%, 0%, 0%)" fill-opacity="1" d="M 113.027344 119.308594 C 113.027344 118.320312 112.226562 117.519531 111.238281 117.519531 C 110.25 117.519531 109.449219 118.320312 109.449219 119.308594 C 109.449219 120.296875 110.25 121.097656 111.238281 121.097656 C 112.226562 121.097656 113.027344 120.296875 113.027344 119.308594 M 112.429688 119.308594 C 112.429688 118.652344 111.898438 118.117188 111.238281 118.117188 C 110.578125 118.117188 110.046875 118.652344 110.046875 119.308594 C 110.046875 119.96875 110.578125 120.5 111.238281 120.5 C 111.898438 120.5 112.429688 119.96875 112.429688 119.308594 "/>
<path fill-rule="evenodd" fill="rgb(100%, 0%, 0%)" fill-opacity="1" d="M 104.78125 105.546875 C 104.78125 104.722656 104.113281 104.058594 103.292969 104.058594 C 102.46875 104.058594 101.804688 104.722656 101.804688 105.546875 C 101.804688 106.371094 102.46875 107.035156 103.292969 107.035156 C 104.113281 107.035156 104.78125 106.371094 104.78125 105.546875 "/>
<path fill-rule="evenodd" fill="rgb(0%, 0%, 0%)" fill-opacity="1" d="M 105.082031 105.546875 C 105.082031 104.558594 104.28125 103.757812 103.292969 103.757812 C 102.304688 103.757812 101.503906 104.558594 101.503906 105.546875 C 101.503906 106.535156 102.304688 107.335938 103.292969 107.335938 C 104.28125 107.335938 105.082031 106.535156 105.082031 105.546875 M 104.484375 105.546875 C 104.484375 104.886719 103.949219 104.355469 103.292969 104.355469 C 102.632812 104.355469 102.101562 104.886719 102.101562 105.546875 C 102.101562 106.203125 102.632812 106.738281 103.292969 106.738281 C 103.949219 106.738281 104.484375 106.203125 104.484375 105.546875 "/>
<path fill-rule="evenodd" fill="rgb(100%, 0%, 0%)" fill-opacity="1" d="M 112.726562 91.785156 C 112.726562 90.960938 112.0625 90.296875 111.238281 90.296875 C 110.414062 90.296875 109.75 90.960938 109.75 91.785156 C 109.75 92.609375 110.414062 93.273438 111.238281 93.273438 C 112.0625 93.273438 112.726562 92.609375 112.726562 91.785156 "/>
<path fill-rule="evenodd" fill="rgb(0%, 0%, 0%)" fill-opacity="1" d="M 113.027344 91.785156 C 113.027344 90.796875 112.226562 89.996094 111.238281 89.996094 C 110.25 89.996094 109.449219 90.796875 109.449219 91.785156 C 109.449219 92.773438 110.25 93.574219 111.238281 93.574219 C 112.226562 93.574219 113.027344 92.773438 113.027344 91.785156 M 112.429688 91.785156 C 112.429688 91.125 111.898438 90.59375 111.238281 90.59375 C 110.578125 90.59375 110.046875 91.125 110.046875 91.785156 C 110.046875 92.441406 110.578125 92.976562 111.238281 92.976562 C 111.898438 92.976562 112.429688 92.441406 112.429688 91.785156 "/>
<path fill-rule="evenodd" fill="rgb(100%, 0%, 0%)" fill-opacity="1" d="M 104.78125 78.023438 C 104.78125 77.199219 104.113281 76.535156 103.292969 76.535156 C 102.46875 76.535156 101.804688 77.199219 101.804688 78.023438 C 101.804688 78.847656 102.46875 79.511719 103.292969 79.511719 C 104.113281 79.511719 104.78125 78.847656 104.78125 78.023438 "/>
<path fill-rule="evenodd" fill="rgb(0%, 0%, 0%)" fill-opacity="1" d="M 105.082031 78.023438 C 105.082031 77.035156 104.28125 76.234375 103.292969 76.234375 C 102.304688 76.234375 101.503906 77.035156 101.503906 78.023438 C 101.503906 79.011719 102.304688 79.8125 103.292969 79.8125 C 104.28125 79.8125 105.082031 79.011719 105.082031 78.023438 M 104.484375 78.023438 C 104.484375 77.363281 103.949219 76.832031 103.292969 76.832031 C 102.632812 76.832031 102.101562 77.363281 102.101562 78.023438 C 102.101562 78.679688 102.632812 79.214844 103.292969 79.214844 C 103.949219 79.214844 104.484375 78.679688 104.484375 78.023438 "/>
<path fill-rule="evenodd" fill="rgb(100%, 0%, 0%)" fill-opacity="1" d="M 112.726562 64.261719 C 112.726562 63.4375 112.0625 62.769531 111.238281 62.769531 C 110.414062 62.769531 109.75 63.4375 109.75 64.261719 C 109.75 65.082031 110.414062 65.75 111.238281 65.75 C 112.0625 65.75 112.726562 65.082031 112.726562 64.261719 "/>
<path fill-rule="evenodd" fill="rgb(0%, 0%, 0%)" fill-opacity="1" d="M 113.027344 64.261719 C 113.027344 63.273438 112.226562 62.472656 111.238281 62.472656 C 110.25 62.472656 109.449219 63.273438 109.449219 64.261719 C 109.449219 65.25 110.25 66.046875 111.238281 66.046875 C 112.226562 66.046875 113.027344 65.25 113.027344 64.261719 M 112.429688 64.261719 C 112.429688 63.601562 111.898438 63.070312 111.238281 63.070312 C 110.578125 63.070312 110.046875 63.601562 110.046875 64.261719 C 110.046875 64.917969 110.578125 65.453125 111.238281 65.453125 C 111.898438 65.453125 112.429688 64.917969 112.429688 64.261719 "/>
<path fill-rule="evenodd" fill="rgb(100%, 0%, 0%)" fill-opacity="1" d="M 104.78125 50.5 C 104.78125 49.675781 104.113281 49.007812 103.292969 49.007812 C 102.46875 49.007812 101.804688 49.675781 101.804688 50.5 C 101.804688 51.320312 102.46875 51.988281 103.292969 51.988281 C 104.113281 51.988281 104.78125 51.320312 104.78125 50.5 "/>
<path fill-rule="evenodd" fill="rgb(0%, 0%, 0%)" fill-opacity="1" d="M 105.082031 50.5 C 105.082031 49.511719 104.28125 48.710938 103.292969 48.710938 C 102.304688 48.710938 101.503906 49.511719 101.503906 50.5 C 101.503906 51.484375 102.304688 52.285156 103.292969 52.285156 C 104.28125 52.285156 105.082031 51.484375 105.082031 50.5 M 104.484375 50.5 C 104.484375 49.839844 103.949219 49.308594 103.292969 49.308594 C 102.632812 49.308594 102.101562 49.839844 102.101562 50.5 C 102.101562 51.15625 102.632812 51.691406 103.292969 51.691406 C 103.949219 51.691406 104.484375 51.15625 104.484375 50.5 "/>
<path fill-rule="evenodd" fill="rgb(100%, 0%, 0%)" fill-opacity="1" d="M 112.726562 36.734375 C 112.726562 35.914062 112.0625 35.246094 111.238281 35.246094 C 110.414062 35.246094 109.75 35.914062 109.75 36.734375 C 109.75 37.558594 110.414062 38.226562 111.238281 38.226562 C 112.0625 38.226562 112.726562 37.558594 112.726562 36.734375 "/>
<path fill-rule="evenodd" fill="rgb(0%, 0%, 0%)" fill-opacity="1" d="M 113.027344 36.734375 C 113.027344 35.75 112.226562 34.949219 111.238281 34.949219 C 110.25 34.949219 109.449219 35.75 109.449219 36.734375 C 109.449219 37.722656 110.25 38.523438 111.238281 38.523438 C 112.226562 38.523438 113.027344 37.722656 113.027344 36.734375 M 112.429688 36.734375 C 112.429688 36.078125 111.898438 35.542969 111.238281 35.542969 C 110.578125 35.542969 110.046875 36.078125 110.046875 36.734375 C 110.046875 37.394531 110.578125 37.929688 111.238281 37.929688 C 111.898438 37.929688 112.429688 37.394531 112.429688 36.734375 "/>
<path fill-rule="evenodd" fill="rgb(100%, 0%, 0%)" fill-opacity="1" d="M 104.78125 22.972656 C 104.78125 22.152344 104.113281 21.484375 103.292969 21.484375 C 102.46875 21.484375 101.804688 22.152344 101.804688 22.972656 C 101.804688 23.796875 102.46875 24.464844 103.292969 24.464844 C 104.113281 24.464844 104.78125 23.796875 104.78125 22.972656 "/>
<path fill-rule="evenodd" fill="rgb(0%, 0%, 0%)" fill-opacity="1" d="M 105.082031 22.972656 C 105.082031 21.988281 104.28125 21.1875 103.292969 21.1875 C 102.304688 21.1875 101.503906 21.988281 101.503906 22.972656 C 101.503906 23.960938 102.304688 24.761719 103.292969 24.761719 C 104.28125 24.761719 105.082031 23.960938 105.082031 22.972656 M 104.484375 22.972656 C 104.484375 22.316406 103.949219 21.78125 103.292969 21.78125 C 102.632812 21.78125 102.101562 22.316406 102.101562 22.972656 C 102.101562 23.632812 102.632812 24.167969 103.292969 24.167969 C 103.949219 24.167969 104.484375 23.632812 104.484375 22.972656 "/>
<path fill-rule="evenodd" fill="rgb(100%, 0%, 0%)" fill-opacity="1" d="M 112.726562 9.210938 C 112.726562 8.390625 112.0625 7.722656 111.238281 7.722656 C 110.414062 7.722656 109.75 8.390625 109.75 9.210938 C 109.75 10.035156 110.414062 10.703125 111.238281 10.703125 C 112.0625 10.703125 112.726562 10.035156 112.726562 9.210938 "/>
<path fill-rule="evenodd" fill="rgb(0%, 0%, 0%)" fill-opacity="1" d="M 113.027344 9.210938 C 113.027344 8.226562 112.226562 7.425781 111.238281 7.425781 C 110.25 7.425781 109.449219 8.226562 109.449219 9.210938 C 109.449219 10.199219 110.25 11 111.238281 11 C 112.226562 11 113.027344 10.199219 113.027344 9.210938 M 112.429688 9.210938 C 112.429688 8.554688 111.898438 8.019531 111.238281 8.019531 C 110.578125 8.019531 110.046875 8.554688 110.046875 9.210938 C 110.046875 9.871094 110.578125 10.40625 111.238281 10.40625 C 111.898438 10.40625 112.429688 9.871094 112.429688 9.210938 "/>
<path fill-rule="evenodd" fill="rgb(100%, 0%, 0%)" fill-opacity="1" d="M 104.78125 133.070312 C 104.78125 132.25 104.113281 131.582031 103.292969 131.582031 C 102.46875 131.582031 101.804688 132.25 101.804688 133.070312 C 101.804688 133.894531 102.46875 134.5625 103.292969 134.5625 C 104.113281 134.5625 104.78125 133.894531 104.78125 133.070312 "/>
<path fill-rule="evenodd" fill="rgb(0%, 0%, 0%)" fill-opacity="1" d="M 105.082031 133.070312 C 105.082031 132.082031 104.28125 131.285156 103.292969 131.285156 C 102.304688 131.285156 101.503906 132.082031 101.503906 133.070312 C 101.503906 134.058594 102.304688 134.859375 103.292969 134.859375 C 104.28125 134.859375 105.082031 134.058594 105.082031 133.070312 M 104.484375 133.070312 C 104.484375 132.414062 103.949219 131.878906 103.292969 131.878906 C 102.632812 131.878906 102.101562 132.414062 102.101562 133.070312 C 102.101562 133.730469 102.632812 134.261719 103.292969 134.261719 C 103.949219 134.261719 104.484375 133.730469 104.484375 133.070312 "/>
<path fill-rule="evenodd" fill="rgb(100%, 0%, 0%)" fill-opacity="1" d="M 88.890625 133.070312 C 88.890625 132.25 88.222656 131.582031 87.402344 131.582031 C 86.578125 131.582031 85.910156 132.25 85.910156 133.070312 C 85.910156 133.894531 86.578125 134.5625 87.402344 134.5625 C 88.222656 134.5625 88.890625 133.894531 88.890625 133.070312 "/>
<path fill-rule="evenodd" fill="rgb(0%, 0%, 0%)" fill-opacity="1" d="M 89.1875 133.070312 C 89.1875 132.085938 88.390625 131.285156 87.402344 131.285156 C 86.414062 131.285156 85.613281 132.085938 85.613281 133.070312 C 85.613281 134.058594 86.414062 134.859375 87.402344 134.859375 C 88.390625 134.859375 89.1875 134.058594 89.1875 133.070312 M 88.59375 133.070312 C 88.59375 132.414062 88.058594 131.878906 87.402344 131.878906 C 86.742188 131.878906 86.210938 132.414062 86.210938 133.070312 C 86.210938 133.730469 86.742188 134.261719 87.402344 134.261719 C 88.058594 134.261719 88.59375 133.730469 88.59375 133.070312 "/>
<path fill-rule="evenodd" fill="rgb(100%, 0%, 0%)" fill-opacity="1" d="M 80.945312 119.308594 C 80.945312 118.488281 80.277344 117.820312 79.457031 117.820312 C 78.632812 117.820312 77.964844 118.488281 77.964844 119.308594 C 77.964844 120.132812 78.632812 120.800781 79.457031 120.800781 C 80.277344 120.800781 80.945312 120.132812 80.945312 119.308594 "/>
<path fill-rule="evenodd" fill="rgb(0%, 0%, 0%)" fill-opacity="1" d="M 81.242188 119.308594 C 81.242188 118.320312 80.441406 117.523438 79.457031 117.523438 C 78.46875 117.523438 77.667969 118.320312 77.667969 119.308594 C 77.667969 120.296875 78.46875 121.097656 79.457031 121.097656 C 80.441406 121.097656 81.242188 120.296875 81.242188 119.308594 M 80.648438 119.308594 C 80.648438 118.652344 80.113281 118.117188 79.457031 118.117188 C 78.796875 118.117188 78.265625 118.652344 78.265625 119.308594 C 78.265625 119.96875 78.796875 120.5 79.457031 120.5 C 80.113281 120.5 80.648438 119.96875 80.648438 119.308594 "/>
<path fill-rule="evenodd" fill="rgb(100%, 0%, 0%)" fill-opacity="1" d="M 65.054688 119.308594 C 65.054688 118.488281 64.386719 117.820312 63.566406 117.820312 C 62.742188 117.820312 62.074219 118.488281 62.074219 119.308594 C 62.074219 120.132812 62.742188 120.800781 63.566406 120.800781 C 64.386719 120.800781 65.054688 120.132812 65.054688 119.308594 "/>
<path fill-rule="evenodd" fill="rgb(0%, 0%, 0%)" fill-opacity="1" d="M 65.351562 119.308594 C 65.351562 118.320312 64.550781 117.519531 63.566406 117.519531 C 62.578125 117.519531 61.777344 118.320312 61.777344 119.308594 C 61.777344 120.296875 62.578125 121.097656 63.566406 121.097656 C 64.550781 121.097656 65.351562 120.296875 65.351562 119.308594 M 64.757812 119.308594 C 64.757812 118.652344 64.222656 118.117188 63.566406 118.117188 C 62.90625 118.117188 62.371094 118.652344 62.371094 119.308594 C 62.371094 119.96875 62.90625 120.5 63.566406 120.5 C 64.222656 120.5 64.757812 119.96875 64.757812 119.308594 "/>
<path fill-rule="evenodd" fill="rgb(100%, 0%, 0%)" fill-opacity="1" d="M 57.109375 133.070312 C 57.109375 132.25 56.441406 131.582031 55.617188 131.582031 C 54.796875 131.582031 54.128906 132.25 54.128906 133.070312 C 54.128906 133.894531 54.796875 134.5625 55.617188 134.5625 C 56.441406 134.5625 57.109375 133.894531 57.109375 133.070312 "/>
<path fill-rule="evenodd" fill="rgb(0%, 0%, 0%)" fill-opacity="1" d="M 57.40625 133.070312 C 57.40625 132.082031 56.605469 131.28125 55.617188 131.28125 C 54.632812 131.28125 53.832031 132.082031 53.832031 133.070312 C 53.832031 134.058594 54.632812 134.859375 55.617188 134.859375 C 56.605469 134.859375 57.40625 134.058594 57.40625 133.070312 M 56.8125 133.070312 C 56.8125 132.414062 56.277344 131.878906 55.617188 131.878906 C 54.960938 131.878906 54.425781 132.414062 54.425781 133.070312 C 54.425781 133.730469 54.960938 134.261719 55.617188 134.261719 C 56.277344 134.261719 56.8125 133.730469 56.8125 133.070312 "/>
<path fill-rule="evenodd" fill="rgb(100%, 0%, 0%)" fill-opacity="1" d="M 41.21875 133.070312 C 41.21875 132.25 40.550781 131.582031 39.726562 131.582031 C 38.90625 131.582031 38.238281 132.25 38.238281 133.070312 C 38.238281 133.894531 38.90625 134.5625 39.726562 134.5625 C 40.550781 134.5625 41.21875 133.894531 41.21875 133.070312 "/>
<path fill-rule="evenodd" fill="rgb(0%, 0%, 0%)" fill-opacity="1" d="M 41.515625 133.070312 C 41.515625 132.082031 40.714844 131.28125 39.726562 131.28125 C 38.742188 131.28125 37.941406 132.082031 37.941406 133.070312 C 37.941406 134.058594 38.742188 134.859375 39.726562 134.859375 C 40.714844 134.859375 41.515625 134.058594 41.515625 133.070312 M 40.917969 133.070312 C 40.917969 132.414062 40.386719 131.878906 39.726562 131.878906 C 39.070312 131.878906 38.535156 132.414062 38.535156 133.070312 C 38.535156 133.730469 39.070312 134.261719 39.726562 134.261719 C 40.386719 134.261719 40.917969 133.730469 40.917969 133.070312 "/>
<path fill-rule="evenodd" fill="rgb(100%, 0%, 0%)" fill-opacity="1" d="M 33.273438 119.308594 C 33.273438 118.484375 32.605469 117.820312 31.78125 117.820312 C 30.960938 117.820312 30.292969 118.484375 30.292969 119.308594 C 30.292969 120.132812 30.960938 120.796875 31.78125 120.796875 C 32.605469 120.796875 33.273438 120.132812 33.273438 119.308594 "/>
<path fill-rule="evenodd" fill="rgb(0%, 0%, 0%)" fill-opacity="1" d="M 33.570312 119.308594 C 33.570312 118.320312 32.769531 117.519531 31.78125 117.519531 C 30.796875 117.519531 29.996094 118.320312 29.996094 119.308594 C 29.996094 120.296875 30.796875 121.097656 31.78125 121.097656 C 32.769531 121.097656 33.570312 120.296875 33.570312 119.308594 M 32.972656 119.308594 C 32.972656 118.652344 32.441406 118.117188 31.78125 118.117188 C 31.125 118.117188 30.589844 118.652344 30.589844 119.308594 C 30.589844 119.96875 31.125 120.5 31.78125 120.5 C 32.441406 120.5 32.972656 119.96875 32.972656 119.308594 "/>
<path fill-rule="evenodd" fill="rgb(100%, 0%, 0%)" fill-opacity="1" d="M 17.382812 119.308594 C 17.382812 118.488281 16.714844 117.820312 15.890625 117.820312 C 15.070312 117.820312 14.402344 118.488281 14.402344 119.308594 C 14.402344 120.132812 15.070312 120.800781 15.890625 120.800781 C 16.714844 120.800781 17.382812 120.132812 17.382812 119.308594 "/>
<path fill-rule="evenodd" fill="rgb(0%, 0%, 0%)" fill-opacity="1" d="M 17.679688 119.308594 C 17.679688 118.320312 16.878906 117.519531 15.890625 117.519531 C 14.902344 117.519531 14.101562 118.320312 14.101562 119.308594 C 14.101562 120.296875 14.902344 121.097656 15.890625 121.097656 C 16.878906 121.097656 17.679688 120.296875 17.679688 119.308594 M 17.082031 119.308594 C 17.082031 118.652344 16.550781 118.117188 15.890625 118.117188 C 15.234375 118.117188 14.699219 118.652344 14.699219 119.308594 C 14.699219 119.96875 15.234375 120.5 15.890625 120.5 C 16.550781 120.5 17.082031 119.96875 17.082031 119.308594 "/>
<path fill-rule="evenodd" fill="rgb(100%, 0%, 0%)" fill-opacity="1" d="M 9.433594 105.546875 C 9.433594 104.722656 8.769531 104.058594 7.945312 104.058594 C 7.121094 104.058594 6.457031 104.722656 6.457031 105.546875 C 6.457031 106.371094 7.121094 107.035156 7.945312 107.035156 C 8.769531 107.035156 9.433594 106.371094 9.433594 105.546875 "/>
<path fill-rule="evenodd" fill="rgb(0%, 0%, 0%)" fill-opacity="1" d="M 9.734375 105.546875 C 9.734375 104.558594 8.933594 103.757812 7.945312 103.757812 C 6.957031 103.757812 6.15625 104.558594 6.15625 105.546875 C 6.15625 106.535156 6.957031 107.335938 7.945312 107.335938 C 8.933594 107.335938 9.734375 106.535156 9.734375 105.546875 M 9.136719 105.546875 C 9.136719 104.890625 8.605469 104.355469 7.945312 104.355469 C 7.289062 104.355469 6.753906 104.890625 6.753906 105.546875 C 6.753906 106.207031 7.289062 106.738281 7.945312 106.738281 C 8.605469 106.738281 9.136719 106.207031 9.136719 105.546875 "/>
<path fill-rule="evenodd" fill="rgb(100%, 0%, 0%)" fill-opacity="1" d="M 17.382812 91.785156 C 17.382812 90.960938 16.714844 90.292969 15.890625 90.292969 C 15.070312 90.292969 14.402344 90.960938 14.402344 91.785156 C 14.402344 92.605469 15.070312 93.273438 15.890625 93.273438 C 16.714844 93.273438 17.382812 92.605469 17.382812 91.785156 "/>
<path fill-rule="evenodd" fill="rgb(0%, 0%, 0%)" fill-opacity="1" d="M 17.679688 91.785156 C 17.679688 90.796875 16.878906 89.996094 15.890625 89.996094 C 14.902344 89.996094 14.101562 90.796875 14.101562 91.785156 C 14.101562 92.773438 14.902344 93.570312 15.890625 93.570312 C 16.878906 93.570312 17.679688 92.773438 17.679688 91.785156 M 17.082031 91.785156 C 17.082031 91.125 16.550781 90.59375 15.890625 90.59375 C 15.234375 90.59375 14.699219 91.125 14.699219 91.785156 C 14.699219 92.441406 15.234375 92.976562 15.890625 92.976562 C 16.550781 92.976562 17.082031 92.441406 17.082031 91.785156 "/>
<path fill-rule="evenodd" fill="rgb(100%, 0%, 0%)" fill-opacity="1" d="M 33.273438 91.785156 C 33.273438 90.960938 32.605469 90.292969 31.78125 90.292969 C 30.960938 90.292969 30.292969 90.960938 30.292969 91.785156 C 30.292969 92.605469 30.960938 93.273438 31.78125 93.273438 C 32.605469 93.273438 33.273438 92.605469 33.273438 91.785156 "/>
<path fill-rule="evenodd" fill="rgb(0%, 0%, 0%)" fill-opacity="1" d="M 33.570312 91.785156 C 33.570312 90.796875 32.769531 89.996094 31.78125 89.996094 C 30.796875 89.996094 29.996094 90.796875 29.996094 91.785156 C 29.996094 92.773438 30.796875 93.570312 31.78125 93.570312 C 32.769531 93.570312 33.570312 92.773438 33.570312 91.785156 M 32.972656 91.785156 C 32.972656 91.125 32.441406 90.59375 31.78125 90.59375 C 31.125 90.59375 30.589844 91.125 30.589844 91.785156 C 30.589844 92.441406 31.125 92.976562 31.78125 92.976562 C 32.441406 92.976562 32.972656 92.441406 32.972656 91.785156 "/>
<path fill-rule="evenodd" fill="rgb(100%, 0%, 0%)" fill-opacity="1" d="M 41.21875 105.546875 C 41.21875 104.722656 40.550781 104.058594 39.726562 104.058594 C 38.90625 104.058594 38.238281 104.722656 38.238281 105.546875 C 38.238281 106.371094 38.90625 107.035156 39.726562 107.035156 C 40.550781 107.035156 41.21875 106.371094 41.21875 105.546875 "/>
<path fill-rule="evenodd" fill="rgb(0%, 0%, 0%)" fill-opacity="1" d="M 41.515625 105.546875 C 41.515625 104.558594 40.714844 103.757812 39.726562 103.757812 C 38.742188 103.757812 37.941406 104.558594 37.941406 105.546875 C 37.941406 106.535156 38.742188 107.335938 39.726562 107.335938 C 40.714844 107.335938 41.515625 106.535156 41.515625 105.546875 M 40.917969 105.546875 C 40.917969 104.886719 40.386719 104.355469 39.726562 104.355469 C 39.070312 104.355469 38.535156 104.886719 38.535156 105.546875 C 38.535156 106.203125 39.070312 106.738281 39.726562 106.738281 C 40.386719 106.738281 40.917969 106.203125 40.917969 105.546875 "/>
<path fill-rule="evenodd" fill="rgb(100%, 0%, 0%)" fill-opacity="1" d="M 57.109375 105.546875 C 57.109375 104.726562 56.441406 104.058594 55.617188 104.058594 C 54.796875 104.058594 54.128906 104.726562 54.128906 105.546875 C 54.128906 106.371094 54.796875 107.039062 55.617188 107.039062 C 56.441406 107.039062 57.109375 106.371094 57.109375 105.546875 "/>
<path fill-rule="evenodd" fill="rgb(0%, 0%, 0%)" fill-opacity="1" d="M 57.40625 105.546875 C 57.40625 104.558594 56.605469 103.757812 55.617188 103.757812 C 54.632812 103.757812 53.832031 104.558594 53.832031 105.546875 C 53.832031 106.535156 54.632812 107.335938 55.617188 107.335938 C 56.605469 107.335938 57.40625 106.535156 57.40625 105.546875 M 56.8125 105.546875 C 56.8125 104.890625 56.277344 104.355469 55.617188 104.355469 C 54.960938 104.355469 54.425781 104.890625 54.425781 105.546875 C 54.425781 106.207031 54.960938 106.738281 55.617188 106.738281 C 56.277344 106.738281 56.8125 106.207031 56.8125 105.546875 "/>
<path fill-rule="evenodd" fill="rgb(100%, 0%, 0%)" fill-opacity="1" d="M 65.054688 91.785156 C 65.054688 90.960938 64.386719 90.296875 63.566406 90.296875 C 62.742188 90.296875 62.074219 90.960938 62.074219 91.785156 C 62.074219 92.609375 62.742188 93.273438 63.566406 93.273438 C 64.386719 93.273438 65.054688 92.609375 65.054688 91.785156 "/>
<path fill-rule="evenodd" fill="rgb(0%, 0%, 0%)" fill-opacity="1" d="M 65.351562 91.785156 C 65.351562 90.796875 64.550781 89.996094 63.566406 89.996094 C 62.578125 89.996094 61.777344 90.796875 61.777344 91.785156 C 61.777344 92.773438 62.578125 93.574219 63.566406 93.574219 C 64.550781 93.574219 65.351562 92.773438 65.351562 91.785156 M 64.757812 91.785156 C 64.757812 91.125 64.222656 90.59375 63.566406 90.59375 C 62.90625 90.59375 62.371094 91.125 62.371094 91.785156 C 62.371094 92.441406 62.90625 92.976562 63.566406 92.976562 C 64.222656 92.976562 64.757812 92.441406 64.757812 91.785156 "/>
<path fill-rule="evenodd" fill="rgb(100%, 0%, 0%)" fill-opacity="1" d="M 80.945312 91.785156 C 80.945312 90.960938 80.277344 90.296875 79.457031 90.296875 C 78.632812 90.296875 77.964844 90.960938 77.964844 91.785156 C 77.964844 92.609375 78.632812 93.273438 79.457031 93.273438 C 80.277344 93.273438 80.945312 92.609375 80.945312 91.785156 "/>
<path fill-rule="evenodd" fill="rgb(0%, 0%, 0%)" fill-opacity="1" d="M 81.242188 91.785156 C 81.242188 90.796875 80.441406 89.996094 79.457031 89.996094 C 78.46875 89.996094 77.667969 90.796875 77.667969 91.785156 C 77.667969 92.773438 78.46875 93.574219 79.457031 93.574219 C 80.441406 93.574219 81.242188 92.773438 81.242188 91.785156 M 80.648438 91.785156 C 80.648438 91.125 80.113281 90.59375 79.457031 90.59375 C 78.796875 90.59375 78.265625 91.125 78.265625 91.785156 C 78.265625 92.441406 78.796875 92.976562 79.457031 92.976562 C 80.113281 92.976562 80.648438 92.441406 80.648438 91.785156 "/>
<path fill-rule="evenodd" fill="rgb(100%, 0%, 0%)" fill-opacity="1" d="M 88.890625 105.546875 C 88.890625 104.722656 88.222656 104.058594 87.402344 104.058594 C 86.578125 104.058594 85.910156 104.722656 85.910156 105.546875 C 85.910156 106.371094 86.578125 107.035156 87.402344 107.035156 C 88.222656 107.035156 88.890625 106.371094 88.890625 105.546875 "/>
<path fill-rule="evenodd" fill="rgb(0%, 0%, 0%)" fill-opacity="1" d="M 89.1875 105.546875 C 89.1875 104.558594 88.390625 103.757812 87.402344 103.757812 C 86.414062 103.757812 85.613281 104.558594 85.613281 105.546875 C 85.613281 106.535156 86.414062 107.335938 87.402344 107.335938 C 88.390625 107.335938 89.1875 106.535156 89.1875 105.546875 M 88.59375 105.546875 C 88.59375 104.886719 88.058594 104.355469 87.402344 104.355469 C 86.742188 104.355469 86.210938 104.886719 86.210938 105.546875 C 86.210938 106.203125 86.742188 106.738281 87.402344 106.738281 C 88.058594 106.738281 88.59375 106.203125 88.59375 105.546875 "/>
<path fill-rule="evenodd" fill="rgb(100%, 0%, 0%)" fill-opacity="1" d="M 88.890625 78.023438 C 88.890625 77.199219 88.222656 76.535156 87.402344 76.535156 C 86.578125 76.535156 85.910156 77.199219 85.910156 78.023438 C 85.910156 78.847656 86.578125 79.511719 87.402344 79.511719 C 88.222656 79.511719 88.890625 78.847656 88.890625 78.023438 "/>
<path fill-rule="evenodd" fill="rgb(0%, 0%, 0%)" fill-opacity="1" d="M 89.1875 78.023438 C 89.1875 77.035156 88.390625 76.234375 87.402344 76.234375 C 86.414062 76.234375 85.613281 77.035156 85.613281 78.023438 C 85.613281 79.011719 86.414062 79.8125 87.402344 79.8125 C 88.390625 79.8125 89.1875 79.011719 89.1875 78.023438 M 88.59375 78.023438 C 88.59375 77.363281 88.058594 76.832031 87.402344 76.832031 C 86.742188 76.832031 86.210938 77.363281 86.210938 78.023438 C 86.210938 78.679688 86.742188 79.214844 87.402344 79.214844 C 88.058594 79.214844 88.59375 78.679688 88.59375 78.023438 "/>
<path fill-rule="evenodd" fill="rgb(100%, 0%, 0%)" fill-opacity="1" d="M 80.945312 64.261719 C 80.945312 63.4375 80.277344 62.769531 79.457031 62.769531 C 78.632812 62.769531 77.964844 63.4375 77.964844 64.261719 C 77.964844 65.082031 78.632812 65.75 79.457031 65.75 C 80.277344 65.75 80.945312 65.082031 80.945312 64.261719 "/>
<path fill-rule="evenodd" fill="rgb(0%, 0%, 0%)" fill-opacity="1" d="M 81.242188 64.261719 C 81.242188 63.273438 80.441406 62.472656 79.457031 62.472656 C 78.46875 62.472656 77.667969 63.273438 77.667969 64.261719 C 77.667969 65.246094 78.46875 66.046875 79.457031 66.046875 C 80.441406 66.046875 81.242188 65.246094 81.242188 64.261719 M 80.648438 64.261719 C 80.648438 63.601562 80.113281 63.066406 79.457031 63.066406 C 78.796875 63.066406 78.265625 63.601562 78.265625 64.261719 C 78.265625 64.917969 78.796875 65.453125 79.457031 65.453125 C 80.113281 65.453125 80.648438 64.917969 80.648438 64.261719 "/>
<path fill-rule="evenodd" fill="rgb(100%, 0%, 0%)" fill-opacity="1" d="M 88.890625 50.496094 C 88.890625 49.675781 88.222656 49.007812 87.402344 49.007812 C 86.578125 49.007812 85.910156 49.675781 85.910156 50.496094 C 85.910156 51.320312 86.578125 51.988281 87.402344 51.988281 C 88.222656 51.988281 88.890625 51.320312 88.890625 50.496094 "/>
<path fill-rule="evenodd" fill="rgb(0%, 0%, 0%)" fill-opacity="1" d="M 89.1875 50.496094 C 89.1875 49.511719 88.390625 48.710938 87.402344 48.710938 C 86.414062 48.710938 85.613281 49.511719 85.613281 50.496094 C 85.613281 51.484375 86.414062 52.285156 87.402344 52.285156 C 88.390625 52.285156 89.1875 51.484375 89.1875 50.496094 M 88.59375 50.496094 C 88.59375 49.839844 88.058594 49.304688 87.402344 49.304688 C 86.742188 49.304688 86.210938 49.839844 86.210938 50.496094 C 86.210938 51.15625 86.742188 51.691406 87.402344 51.691406 C 88.058594 51.691406 88.59375 51.15625 88.59375 50.496094 "/>
<path fill-rule="evenodd" fill="rgb(100%, 0%, 0%)" fill-opacity="1" d="M 80.945312 36.734375 C 80.945312 35.914062 80.277344 35.246094 79.457031 35.246094 C 78.632812 35.246094 77.964844 35.914062 77.964844 36.734375 C 77.964844 37.558594 78.632812 38.226562 79.457031 38.226562 C 80.277344 38.226562 80.945312 37.558594 80.945312 36.734375 "/>
<path fill-rule="evenodd" fill="rgb(0%, 0%, 0%)" fill-opacity="1" d="M 81.242188 36.734375 C 81.242188 35.75 80.441406 34.949219 79.457031 34.949219 C 78.46875 34.949219 77.667969 35.75 77.667969 36.734375 C 77.667969 37.722656 78.46875 38.523438 79.457031 38.523438 C 80.441406 38.523438 81.242188 37.722656 81.242188 36.734375 M 80.648438 36.734375 C 80.648438 36.078125 80.113281 35.542969 79.457031 35.542969 C 78.796875 35.542969 78.265625 36.078125 78.265625 36.734375 C 78.265625 37.394531 78.796875 37.929688 79.457031 37.929688 C 80.113281 37.929688 80.648438 37.394531 80.648438 36.734375 "/>
<path fill-rule="evenodd" fill="rgb(100%, 0%, 0%)" fill-opacity="1" d="M 88.890625 22.972656 C 88.890625 22.152344 88.222656 21.484375 87.402344 21.484375 C 86.578125 21.484375 85.910156 22.152344 85.910156 22.972656 C 85.910156 23.796875 86.578125 24.464844 87.402344 24.464844 C 88.222656 24.464844 88.890625 23.796875 88.890625 22.972656 "/>
<path fill-rule="evenodd" fill="rgb(0%, 0%, 0%)" fill-opacity="1" d="M 89.1875 22.972656 C 89.1875 21.988281 88.390625 21.1875 87.402344 21.1875 C 86.414062 21.1875 85.613281 21.988281 85.613281 22.972656 C 85.613281 23.960938 86.414062 24.761719 87.402344 24.761719 C 88.390625 24.761719 89.1875 23.960938 89.1875 22.972656 M 88.59375 22.972656 C 88.59375 22.316406 88.058594 21.78125 87.402344 21.78125 C 86.742188 21.78125 86.210938 22.316406 86.210938 22.972656 C 86.210938 23.632812 86.742188 24.167969 87.402344 24.167969 C 88.058594 24.167969 88.59375 23.632812 88.59375 22.972656 "/>
<path fill-rule="evenodd" fill="rgb(100%, 0%, 0%)" fill-opacity="1" d="M 80.945312 9.210938 C 80.945312 8.390625 80.277344 7.722656 79.457031 7.722656 C 78.632812 7.722656 77.964844 8.390625 77.964844 9.210938 C 77.964844 10.035156 78.632812 10.703125 79.457031 10.703125 C 80.277344 10.703125 80.945312 10.035156 80.945312 9.210938 "/>
<path fill-rule="evenodd" fill="rgb(0%, 0%, 0%)" fill-opacity="1" d="M 81.242188 9.210938 C 81.242188 8.226562 80.441406 7.425781 79.457031 7.425781 C 78.46875 7.425781 77.667969 8.226562 77.667969 9.210938 C 77.667969 10.199219 78.46875 11 79.457031 11 C 80.441406 11 81.242188 10.199219 81.242188 9.210938 M 80.648438 9.210938 C 80.648438 8.554688 80.113281 8.019531 79.457031 8.019531 C 78.796875 8.019531 78.265625 8.554688 78.265625 9.210938 C 78.265625 9.871094 78.796875 10.40625 79.457031 10.40625 C 80.113281 10.40625 80.648438 9.871094 80.648438 9.210938 "/>
<path fill-rule="evenodd" fill="rgb(100%, 0%, 0%)" fill-opacity="1" d="M 65.054688 9.210938 C 65.054688 8.390625 64.386719 7.722656 63.566406 7.722656 C 62.742188 7.722656 62.074219 8.390625 62.074219 9.210938 C 62.074219 10.035156 62.742188 10.703125 63.566406 10.703125 C 64.386719 10.703125 65.054688 10.035156 65.054688 9.210938 "/>
<path fill-rule="evenodd" fill="rgb(0%, 0%, 0%)" fill-opacity="1" d="M 65.351562 9.210938 C 65.351562 8.226562 64.550781 7.425781 63.566406 7.425781 C 62.578125 7.425781 61.777344 8.226562 61.777344 9.210938 C 61.777344 10.199219 62.578125 11 63.566406 11 C 64.550781 11 65.351562 10.199219 65.351562 9.210938 M 64.757812 9.210938 C 64.757812 8.554688 64.222656 8.019531 63.566406 8.019531 C 62.90625 8.019531 62.371094 8.554688 62.371094 9.210938 C 62.371094 9.871094 62.90625 10.40625 63.566406 10.40625 C 64.222656 10.40625 64.757812 9.871094 64.757812 9.210938 "/>
<path fill-rule="evenodd" fill="rgb(100%, 0%, 0%)" fill-opacity="1" d="M 57.109375 22.972656 C 57.109375 22.152344 56.441406 21.484375 55.617188 21.484375 C 54.796875 21.484375 54.128906 22.152344 54.128906 22.972656 C 54.128906 23.796875 54.796875 24.464844 55.617188 24.464844 C 56.441406 24.464844 57.109375 23.796875 57.109375 22.972656 "/>
<path fill-rule="evenodd" fill="rgb(0%, 0%, 0%)" fill-opacity="1" d="M 57.40625 22.972656 C 57.40625 21.988281 56.605469 21.1875 55.617188 21.1875 C 54.632812 21.1875 53.832031 21.988281 53.832031 22.972656 C 53.832031 23.960938 54.632812 24.761719 55.617188 24.761719 C 56.605469 24.761719 57.40625 23.960938 57.40625 22.972656 M 56.8125 22.972656 C 56.8125 22.316406 56.277344 21.78125 55.617188 21.78125 C 54.960938 21.78125 54.425781 22.316406 54.425781 22.972656 C 54.425781 23.632812 54.960938 24.167969 55.617188 24.167969 C 56.277344 24.167969 56.8125 23.632812 56.8125 22.972656 "/>
<path fill-rule="evenodd" fill="rgb(100%, 0%, 0%)" fill-opacity="1" d="M 65.054688 36.734375 C 65.054688 35.914062 64.386719 35.246094 63.566406 35.246094 C 62.742188 35.246094 62.074219 35.914062 62.074219 36.734375 C 62.074219 37.558594 62.742188 38.226562 63.566406 38.226562 C 64.386719 38.226562 65.054688 37.558594 65.054688 36.734375 "/>
<path fill-rule="evenodd" fill="rgb(0%, 0%, 0%)" fill-opacity="1" d="M 65.351562 36.734375 C 65.351562 35.75 64.550781 34.949219 63.566406 34.949219 C 62.578125 34.949219 61.777344 35.75 61.777344 36.734375 C 61.777344 37.722656 62.578125 38.523438 63.566406 38.523438 C 64.550781 38.523438 65.351562 37.722656 65.351562 36.734375 M 64.757812 36.734375 C 64.757812 36.078125 64.222656 35.542969 63.566406 35.542969 C 62.90625 35.542969 62.371094 36.078125 62.371094 36.734375 C 62.371094 37.394531 62.90625 37.929688 63.566406 37.929688 C 64.222656 37.929688 64.757812 37.394531 64.757812 36.734375 "/>
<path fill-rule="evenodd" fill="rgb(100%, 0%, 0%)" fill-opacity="1" d="M 57.109375 50.496094 C 57.109375 49.675781 56.441406 49.007812 55.617188 49.007812 C 54.796875 49.007812 54.128906 49.675781 54.128906 50.496094 C 54.128906 51.320312 54.796875 51.988281 55.617188 51.988281 C 56.441406 51.988281 57.109375 51.320312 57.109375 50.496094 "/>
<path fill-rule="evenodd" fill="rgb(0%, 0%, 0%)" fill-opacity="1" d="M 57.40625 50.496094 C 57.40625 49.511719 56.605469 48.710938 55.617188 48.710938 C 54.632812 48.710938 53.832031 49.511719 53.832031 50.496094 C 53.832031 51.484375 54.632812 52.285156 55.617188 52.285156 C 56.605469 52.285156 57.40625 51.484375 57.40625 50.496094 M 56.8125 50.496094 C 56.8125 49.839844 56.277344 49.304688 55.617188 49.304688 C 54.960938 49.304688 54.425781 49.839844 54.425781 50.496094 C 54.425781 51.15625 54.960938 51.691406 55.617188 51.691406 C 56.277344 51.691406 56.8125 51.15625 56.8125 50.496094 "/>
<path fill-rule="evenodd" fill="rgb(100%, 0%, 0%)" fill-opacity="1" d="M 65.054688 64.261719 C 65.054688 63.4375 64.386719 62.769531 63.566406 62.769531 C 62.742188 62.769531 62.074219 63.4375 62.074219 64.261719 C 62.074219 65.082031 62.742188 65.75 63.566406 65.75 C 64.386719 65.75 65.054688 65.082031 65.054688 64.261719 "/>
<path fill-rule="evenodd" fill="rgb(0%, 0%, 0%)" fill-opacity="1" d="M 65.351562 64.261719 C 65.351562 63.273438 64.550781 62.472656 63.566406 62.472656 C 62.578125 62.472656 61.777344 63.273438 61.777344 64.261719 C 61.777344 65.25 62.578125 66.046875 63.566406 66.046875 C 64.550781 66.046875 65.351562 65.25 65.351562 64.261719 M 64.757812 64.261719 C 64.757812 63.601562 64.222656 63.070312 63.566406 63.070312 C 62.90625 63.070312 62.371094 63.601562 62.371094 64.261719 C 62.371094 64.917969 62.90625 65.453125 63.566406 65.453125 C 64.222656 65.453125 64.757812 64.917969 64.757812 64.261719 "/>
<path fill-rule="evenodd" fill="rgb(100%, 0%, 0%)" fill-opacity="1" d="M 57.109375 78.023438 C 57.109375 77.199219 56.441406 76.535156 55.617188 76.535156 C 54.796875 76.535156 54.128906 77.199219 54.128906 78.023438 C 54.128906 78.847656 54.796875 79.511719 55.617188 79.511719 C 56.441406 79.511719 57.109375 78.847656 57.109375 78.023438 "/>
<path fill-rule="evenodd" fill="rgb(0%, 0%, 0%)" fill-opacity="1" d="M 57.40625 78.023438 C 57.40625 77.035156 56.605469 76.234375 55.617188 76.234375 C 54.632812 76.234375 53.832031 77.035156 53.832031 78.023438 C 53.832031 79.011719 54.632812 79.8125 55.617188 79.8125 C 56.605469 79.8125 57.40625 79.011719 57.40625 78.023438 M 56.8125 78.023438 C 56.8125 77.363281 56.277344 76.832031 55.617188 76.832031 C 54.960938 76.832031 54.425781 77.363281 54.425781 78.023438 C 54.425781 78.679688 54.960938 79.214844 55.617188 79.214844 C 56.277344 79.214844 56.8125 78.679688 56.8125 78.023438 "/>
<path fill-rule="evenodd" fill="rgb(100%, 0%, 0%)" fill-opacity="1" d="M 41.21875 78.023438 C 41.21875 77.199219 40.550781 76.535156 39.726562 76.535156 C 38.90625 76.535156 38.238281 77.199219 38.238281 78.023438 C 38.238281 78.847656 38.90625 79.511719 39.726562 79.511719 C 40.550781 79.511719 41.21875 78.847656 41.21875 78.023438 "/>
<path fill-rule="evenodd" fill="rgb(0%, 0%, 0%)" fill-opacity="1" d="M 41.515625 78.023438 C 41.515625 77.035156 40.714844 76.234375 39.726562 76.234375 C 38.742188 76.234375 37.941406 77.035156 37.941406 78.023438 C 37.941406 79.011719 38.742188 79.8125 39.726562 79.8125 C 40.714844 79.8125 41.515625 79.011719 41.515625 78.023438 M 40.917969 78.023438 C 40.917969 77.363281 40.386719 76.832031 39.726562 76.832031 C 39.070312 76.832031 38.535156 77.363281 38.535156 78.023438 C 38.535156 78.679688 39.070312 79.214844 39.726562 79.214844 C 40.386719 79.214844 40.917969 78.679688 40.917969 78.023438 "/>
<path fill-rule="evenodd" fill="rgb(100%, 0%, 0%)" fill-opacity="1" d="M 33.273438 64.261719 C 33.273438 63.4375 32.605469 62.769531 31.78125 62.769531 C 30.960938 62.769531 30.292969 63.4375 30.292969 64.261719 C 30.292969 65.082031 30.960938 65.75 31.78125 65.75 C 32.605469 65.75 33.273438 65.082031 33.273438 64.261719 "/>
<path fill-rule="evenodd" fill="rgb(0%, 0%, 0%)" fill-opacity="1" d="M 33.570312 64.261719 C 33.570312 63.273438 32.769531 62.472656 31.78125 62.472656 C 30.796875 62.472656 29.996094 63.273438 29.996094 64.261719 C 29.996094 65.246094 30.796875 66.046875 31.78125 66.046875 C 32.769531 66.046875 33.570312 65.246094 33.570312 64.261719 M 32.972656 64.261719 C 32.972656 63.601562 32.441406 63.066406 31.78125 63.066406 C 31.125 63.066406 30.589844 63.601562 30.589844 64.261719 C 30.589844 64.917969 31.125 65.453125 31.78125 65.453125 C 32.441406 65.453125 32.972656 64.917969 32.972656 64.261719 "/>
<path fill-rule="evenodd" fill="rgb(100%, 0%, 0%)" fill-opacity="1" d="M 17.382812 64.261719 C 17.382812 63.4375 16.714844 62.769531 15.890625 62.769531 C 15.070312 62.769531 14.402344 63.4375 14.402344 64.261719 C 14.402344 65.082031 15.070312 65.75 15.890625 65.75 C 16.714844 65.75 17.382812 65.082031 17.382812 64.261719 "/>
<path fill-rule="evenodd" fill="rgb(0%, 0%, 0%)" fill-opacity="1" d="M 17.679688 64.261719 C 17.679688 63.273438 16.878906 62.472656 15.890625 62.472656 C 14.902344 62.472656 14.101562 63.273438 14.101562 64.261719 C 14.101562 65.246094 14.902344 66.046875 15.890625 66.046875 C 16.878906 66.046875 17.679688 65.246094 17.679688 64.261719 M 17.082031 64.261719 C 17.082031 63.601562 16.550781 63.066406 15.890625 63.066406 C 15.234375 63.066406 14.699219 63.601562 14.699219 64.261719 C 14.699219 64.917969 15.234375 65.453125 15.890625 65.453125 C 16.550781 65.453125 17.082031 64.917969 17.082031 64.261719 "/>
<path fill-rule="evenodd" fill="rgb(100%, 0%, 0%)" fill-opacity="1" d="M 9.4375 78.023438 C 9.4375 77.199219 8.769531 76.53125 7.945312 76.53125 C 7.121094 76.53125 6.457031 77.199219 6.457031 78.023438 C 6.457031 78.84375 7.121094 79.511719 7.945312 79.511719 C 8.769531 79.511719 9.4375 78.84375 9.4375 78.023438 "/>
<path fill-rule="evenodd" fill="rgb(0%, 0%, 0%)" fill-opacity="1" d="M 9.734375 78.023438 C 9.734375 77.035156 8.933594 76.234375 7.945312 76.234375 C 6.957031 76.234375 6.15625 77.035156 6.15625 78.023438 C 6.15625 79.011719 6.957031 79.808594 7.945312 79.808594 C 8.933594 79.808594 9.734375 79.011719 9.734375 78.023438 M 9.136719 78.023438 C 9.136719 77.363281 8.605469 76.832031 7.945312 76.832031 C 7.289062 76.832031 6.753906 77.363281 6.753906 78.023438 C 6.753906 78.679688 7.289062 79.214844 7.945312 79.214844 C 8.605469 79.214844 9.136719 78.679688 9.136719 78.023438 "/>
<path fill-rule="evenodd" fill="rgb(100%, 0%, 0%)" fill-opacity="1" d="M 9.433594 50.496094 C 9.433594 49.675781 8.769531 49.007812 7.945312 49.007812 C 7.121094 49.007812 6.457031 49.675781 6.457031 50.496094 C 6.457031 51.320312 7.121094 51.988281 7.945312 51.988281 C 8.769531 51.988281 9.433594 51.320312 9.433594 50.496094 "/>
<path fill-rule="evenodd" fill="rgb(0%, 0%, 0%)" fill-opacity="1" d="M 9.734375 50.496094 C 9.734375 49.511719 8.933594 48.710938 7.945312 48.710938 C 6.957031 48.710938 6.15625 49.511719 6.15625 50.496094 C 6.15625 51.484375 6.957031 52.285156 7.945312 52.285156 C 8.933594 52.285156 9.734375 51.484375 9.734375 50.496094 M 9.136719 50.496094 C 9.136719 49.839844 8.605469 49.304688 7.945312 49.304688 C 7.289062 49.304688 6.753906 49.839844 6.753906 50.496094 C 6.753906 51.15625 7.289062 51.691406 7.945312 51.691406 C 8.605469 51.691406 9.136719 51.15625 9.136719 50.496094 "/>
<path fill-rule="evenodd" fill="rgb(100%, 0%, 0%)" fill-opacity="1" d="M 17.382812 36.734375 C 17.382812 35.914062 16.714844 35.246094 15.890625 35.246094 C 15.070312 35.246094 14.402344 35.914062 14.402344 36.734375 C 14.402344 37.558594 15.070312 38.226562 15.890625 38.226562 C 16.714844 38.226562 17.382812 37.558594 17.382812 36.734375 "/>
<path fill-rule="evenodd" fill="rgb(0%, 0%, 0%)" fill-opacity="1" d="M 17.679688 36.734375 C 17.679688 35.75 16.878906 34.949219 15.890625 34.949219 C 14.902344 34.949219 14.101562 35.75 14.101562 36.734375 C 14.101562 37.722656 14.902344 38.523438 15.890625 38.523438 C 16.878906 38.523438 17.679688 37.722656 17.679688 36.734375 M 17.082031 36.734375 C 17.082031 36.078125 16.550781 35.542969 15.890625 35.542969 C 15.234375 35.542969 14.699219 36.078125 14.699219 36.734375 C 14.699219 37.394531 15.234375 37.929688 15.890625 37.929688 C 16.550781 37.929688 17.082031 37.394531 17.082031 36.734375 "/>
<path fill-rule="evenodd" fill="rgb(100%, 0%, 0%)" fill-opacity="1" d="M 41.21875 50.496094 C 41.21875 49.675781 40.550781 49.007812 39.726562 49.007812 C 38.90625 49.007812 38.238281 49.675781 38.238281 50.496094 C 38.238281 51.320312 38.90625 51.988281 39.726562 51.988281 C 40.550781 51.988281 41.21875 51.320312 41.21875 50.496094 "/>
<path fill-rule="evenodd" fill="rgb(0%, 0%, 0%)" fill-opacity="1" d="M 41.515625 50.496094 C 41.515625 49.511719 40.714844 48.710938 39.726562 48.710938 C 38.742188 48.710938 37.941406 49.511719 37.941406 50.496094 C 37.941406 51.484375 38.742188 52.285156 39.726562 52.285156 C 40.714844 52.285156 41.515625 51.484375 41.515625 50.496094 M 40.917969 50.496094 C 40.917969 49.839844 40.386719 49.304688 39.726562 49.304688 C 39.070312 49.304688 38.535156 49.839844 38.535156 50.496094 C 38.535156 51.15625 39.070312 51.691406 39.726562 51.691406 C 40.386719 51.691406 40.917969 51.15625 40.917969 50.496094 "/>
<path fill-rule="evenodd" fill="rgb(100%, 0%, 0%)" fill-opacity="1" d="M 33.273438 36.734375 C 33.273438 35.914062 32.605469 35.246094 31.78125 35.246094 C 30.960938 35.246094 30.292969 35.914062 30.292969 36.734375 C 30.292969 37.558594 30.960938 38.226562 31.78125 38.226562 C 32.605469 38.226562 33.273438 37.558594 33.273438 36.734375 "/>
<path fill-rule="evenodd" fill="rgb(0%, 0%, 0%)" fill-opacity="1" d="M 33.570312 36.734375 C 33.570312 35.75 32.769531 34.949219 31.78125 34.949219 C 30.796875 34.949219 29.996094 35.75 29.996094 36.734375 C 29.996094 37.722656 30.796875 38.523438 31.78125 38.523438 C 32.769531 38.523438 33.570312 37.722656 33.570312 36.734375 M 32.972656 36.734375 C 32.972656 36.078125 32.441406 35.542969 31.78125 35.542969 C 31.125 35.542969 30.589844 36.078125 30.589844 36.734375 C 30.589844 37.394531 31.125 37.929688 31.78125 37.929688 C 32.441406 37.929688 32.972656 37.394531 32.972656 36.734375 "/>
<path fill-rule="evenodd" fill="rgb(100%, 0%, 0%)" fill-opacity="1" d="M 41.21875 22.972656 C 41.21875 22.152344 40.550781 21.484375 39.726562 21.484375 C 38.90625 21.484375 38.238281 22.152344 38.238281 22.972656 C 38.238281 23.796875 38.90625 24.464844 39.726562 24.464844 C 40.550781 24.464844 41.21875 23.796875 41.21875 22.972656 "/>
<path fill-rule="evenodd" fill="rgb(0%, 0%, 0%)" fill-opacity="1" d="M 41.515625 22.972656 C 41.515625 21.988281 40.714844 21.1875 39.726562 21.1875 C 38.742188 21.1875 37.941406 21.988281 37.941406 22.972656 C 37.941406 23.960938 38.742188 24.761719 39.726562 24.761719 C 40.714844 24.761719 41.515625 23.960938 41.515625 22.972656 M 40.917969 22.972656 C 40.917969 22.316406 40.386719 21.78125 39.726562 21.78125 C 39.070312 21.78125 38.535156 22.316406 38.535156 22.972656 C 38.535156 23.632812 39.070312 24.167969 39.726562 24.167969 C 40.386719 24.167969 40.917969 23.632812 40.917969 22.972656 "/>
<path fill-rule="evenodd" fill="rgb(100%, 0%, 0%)" fill-opacity="1" d="M 33.273438 9.210938 C 33.273438 8.390625 32.605469 7.722656 31.78125 7.722656 C 30.960938 7.722656 30.292969 8.390625 30.292969 9.210938 C 30.292969 10.035156 30.960938 10.703125 31.78125 10.703125 C 32.605469 10.703125 33.273438 10.035156 33.273438 9.210938 "/>
<path fill-rule="evenodd" fill="rgb(0%, 0%, 0%)" fill-opacity="1" d="M 33.570312 9.210938 C 33.570312 8.226562 32.769531 7.425781 31.78125 7.425781 C 30.796875 7.425781 29.996094 8.226562 29.996094 9.210938 C 29.996094 10.199219 30.796875 11 31.78125 11 C 32.769531 11 33.570312 10.199219 33.570312 9.210938 M 32.972656 9.210938 C 32.972656 8.554688 32.441406 8.019531 31.78125 8.019531 C 31.125 8.019531 30.589844 8.554688 30.589844 9.210938 C 30.589844 9.871094 31.125 10.40625 31.78125 10.40625 C 32.441406 10.40625 32.972656 9.871094 32.972656 9.210938 "/>
<path fill-rule="evenodd" fill="rgb(100%, 0%, 0%)" fill-opacity="1" d="M 17.382812 9.210938 C 17.382812 8.390625 16.714844 7.722656 15.890625 7.722656 C 15.070312 7.722656 14.402344 8.390625 14.402344 9.210938 C 14.402344 10.035156 15.070312 10.703125 15.890625 10.703125 C 16.714844 10.703125 17.382812 10.035156 17.382812 9.210938 "/>
<path fill-rule="evenodd" fill="rgb(0%, 0%, 0%)" fill-opacity="1" d="M 17.679688 9.210938 C 17.679688 8.226562 16.878906 7.425781 15.890625 7.425781 C 14.902344 7.425781 14.101562 8.226562 14.101562 9.210938 C 14.101562 10.199219 14.902344 11 15.890625 11 C 16.878906 11 17.679688 10.199219 17.679688 9.210938 M 17.082031 9.210938 C 17.082031 8.554688 16.550781 8.019531 15.890625 8.019531 C 15.234375 8.019531 14.699219 8.554688 14.699219 9.210938 C 14.699219 9.871094 15.234375 10.40625 15.890625 10.40625 C 16.550781 10.40625 17.082031 9.871094 17.082031 9.210938 "/>
<path fill-rule="evenodd" fill="rgb(100%, 0%, 0%)" fill-opacity="1" d="M 9.433594 22.972656 C 9.433594 22.152344 8.769531 21.484375 7.945312 21.484375 C 7.121094 21.484375 6.457031 22.152344 6.457031 22.972656 C 6.457031 23.796875 7.121094 24.464844 7.945312 24.464844 C 8.769531 24.464844 9.433594 23.796875 9.433594 22.972656 "/>
<path fill-rule="evenodd" fill="rgb(0%, 0%, 0%)" fill-opacity="1" d="M 9.734375 22.972656 C 9.734375 21.988281 8.933594 21.1875 7.945312 21.1875 C 6.957031 21.1875 6.15625 21.988281 6.15625 22.972656 C 6.15625 23.960938 6.957031 24.761719 7.945312 24.761719 C 8.933594 24.761719 9.734375 23.960938 9.734375 22.972656 M 9.136719 22.972656 C 9.136719 22.316406 8.605469 21.78125 7.945312 21.78125 C 7.289062 21.78125 6.753906 22.316406 6.753906 22.972656 C 6.753906 23.632812 7.289062 24.167969 7.945312 24.167969 C 8.605469 24.167969 9.136719 23.632812 9.136719 22.972656 "/>
</svg>
