<?xml version="1.0" encoding="UTF-8"?>
<svg xmlns="http://www.w3.org/2000/svg" xmlns:xlink="http://www.w3.org/1999/xlink" width="145.007" height="142.66659" viewBox="0 0 145.007 142.66659">
<defs>
<clipPath id="clip-0">
<path clip-rule="nonzero" d="M 55 0.320312 L 72 0.320312 L 72 18 L 55 18 Z M 55 0.320312 "/>
</clipPath>
<clipPath id="clip-1">
<path clip-rule="nonzero" d="M 71 0.320312 L 88 0.320312 L 88 18 L 71 18 Z M 71 0.320312 "/>
</clipPath>
<clipPath id="clip-2">
<path clip-rule="nonzero" d="M 102 0.320312 L 120 0.320312 L 120 18 L 102 18 Z M 102 0.320312 "/>
</clipPath>
<clipPath id="clip-3">
<path clip-rule="nonzero" d="M 118 0.320312 L 136 0.320312 L 136 18 L 118 18 Z M 118 0.320312 "/>
</clipPath>
<clipPath id="clip-4">
<path clip-rule="nonzero" d="M 7 0.320312 L 25 0.320312 L 25 18 L 7 18 Z M 7 0.320312 "/>
</clipPath>
<clipPath id="clip-5">
<path clip-rule="nonzero" d="M 23 0.320312 L 41 0.320312 L 41 18 L 23 18 Z M 23 0.320312 "/>
</clipPath>
</defs>
<path fill-rule="evenodd" fill="rgb(100%, 0%, 0%)" fill-opacity="0.2" d="M 39.777344 36.734375 C 39.777344 32.320312 36.199219 28.738281 31.78125 28.738281 C 27.367188 28.738281 23.785156 32.320312 23.785156 36.734375 C 23.785156 41.152344 27.367188 44.734375 31.78125 44.734375 C 36.199219 44.734375 39.777344 41.152344 39.777344 36.734375 "/>
<path fill-rule="evenodd" fill="rgb(100%, 0%, 0%)" fill-opacity="0.2" d="M 71.460938 36.734375 C 71.460938 32.375 67.925781 28.839844 63.566406 28.839844 C 59.203125 28.839844 55.671875 32.375 55.671875 36.734375 C 55.671875 41.097656 59.203125 44.632812 63.566406 44.632812 C 67.925781 44.632812 71.460938 41.097656 71.460938 36.734375 "/>
<path fill-rule="evenodd" fill="rgb(100%, 0%, 0%)" fill-opacity="0.2" d="M 63.472656 50.5 C 63.472656 46.160156 59.957031 42.644531 55.617188 42.644531 C 51.28125 42.644531 47.765625 46.160156 47.765625 50.5 C 47.765625 54.835938 51.28125 58.355469 55.617188 58.355469 C 59.957031 58.355469 63.472656 54.835938 63.472656 50.5 "/>
<path fill-rule="evenodd" fill="rgb(100%, 0%, 0%)" fill-opacity="0.2" d="M 47.671875 50.5 C 47.671875 46.109375 44.117188 42.554688 39.726562 42.554688 C 35.339844 42.554688 31.78125 46.109375 31.78125 50.5 C 31.78125 54.886719 35.339844 58.445312 39.726562 58.445312 C 44.117188 58.445312 47.671875 54.886719 47.671875 50.5 "/>
<path fill-rule="evenodd" fill="rgb(100%, 0%, 0%)" fill-opacity="0.2" d="M 39.636719 64.261719 C 39.636719 59.921875 36.121094 56.40625 31.78125 56.40625 C 27.445312 56.40625 23.929688 59.921875 23.929688 64.261719 C 23.929688 68.597656 27.445312 72.113281 31.78125 72.113281 C 36.121094 72.113281 39.636719 68.597656 39.636719 64.261719 "/>
<path fill-rule="evenodd" fill="rgb(100%, 0%, 0%)" fill-opacity="0.2" d="M 23.6875 64.261719 C 23.6875 59.953125 20.199219 56.464844 15.890625 56.464844 C 11.585938 56.464844 8.09375 59.953125 8.09375 64.261719 C 8.09375 68.566406 11.585938 72.058594 15.890625 72.058594 C 20.199219 72.058594 23.6875 68.566406 23.6875 64.261719 "/>
<path fill-rule="evenodd" fill="rgb(100%, 0%, 0%)" fill-opacity="0.2" d="M 47.570312 78.023438 C 47.570312 73.691406 44.058594 70.183594 39.726562 70.183594 C 35.398438 70.183594 31.886719 73.691406 31.886719 78.023438 C 31.886719 82.355469 35.398438 85.863281 39.726562 85.863281 C 44.058594 85.863281 47.570312 82.355469 47.570312 78.023438 "/>
<path fill-rule="evenodd" fill="rgb(100%, 0%, 0%)" fill-opacity="0.2" d="M 63.667969 78.023438 C 63.667969 73.578125 60.066406 69.972656 55.617188 69.972656 C 51.171875 69.972656 47.570312 73.578125 47.570312 78.023438 C 47.570312 82.46875 51.171875 86.074219 55.617188 86.074219 C 60.066406 86.074219 63.667969 82.46875 63.667969 78.023438 "/>
<path fill-rule="evenodd" fill="rgb(100%, 0%, 0%)" fill-opacity="0.2" d="M 71.417969 64.261719 C 71.417969 59.921875 67.902344 56.40625 63.566406 56.40625 C 59.226562 56.40625 55.710938 59.921875 55.710938 64.261719 C 55.710938 68.597656 59.226562 72.117188 63.566406 72.117188 C 67.902344 72.117188 71.417969 68.597656 71.417969 64.261719 "/>
<path fill-rule="evenodd" fill="rgb(100%, 0%, 0%)" fill-opacity="0.2" d="M 87.550781 64.261719 C 87.550781 59.789062 83.925781 56.167969 79.457031 56.167969 C 74.984375 56.167969 71.363281 59.789062 71.363281 64.261719 C 71.363281 68.730469 74.984375 72.355469 79.457031 72.355469 C 83.925781 72.355469 87.550781 68.730469 87.550781 64.261719 "/>
<path fill-rule="evenodd" fill="rgb(100%, 0%, 0%)" fill-opacity="0.2" d="M 87.402344 36.734375 C 87.402344 32.347656 83.84375 28.789062 79.457031 28.789062 C 75.066406 28.789062 71.511719 32.347656 71.511719 36.734375 C 71.511719 41.125 75.066406 44.683594 79.457031 44.683594 C 83.84375 44.683594 87.402344 41.125 87.402344 36.734375 "/>
<path fill-rule="evenodd" fill="rgb(100%, 0%, 0%)" fill-opacity="0.2" d="M 95.199219 50.5 C 95.199219 46.195312 91.707031 42.703125 87.402344 42.703125 C 83.09375 42.703125 79.605469 46.195312 79.605469 50.5 C 79.605469 54.804688 83.09375 58.296875 87.402344 58.296875 C 91.707031 58.296875 95.199219 54.804688 95.199219 50.5 "/>
<path fill-rule="evenodd" fill="rgb(100%, 0%, 0%)" fill-opacity="0.2" d="M 111.238281 50.5 C 111.238281 46.109375 107.679688 42.554688 103.292969 42.554688 C 98.90625 42.554688 95.347656 46.109375 95.347656 50.5 C 95.347656 54.886719 98.90625 58.445312 103.292969 58.445312 C 107.679688 58.445312 111.238281 54.886719 111.238281 50.5 "/>
<path fill-rule="evenodd" fill="rgb(100%, 0%, 0%)" fill-opacity="0.2" d="M 119.183594 36.734375 C 119.183594 32.347656 115.625 28.789062 111.238281 28.789062 C 106.851562 28.789062 103.292969 32.347656 103.292969 36.734375 C 103.292969 41.125 106.851562 44.683594 111.238281 44.683594 C 115.625 44.683594 119.183594 41.125 119.183594 36.734375 "/>
<path fill-rule="evenodd" fill="rgb(100%, 0%, 0%)" fill-opacity="0.2" d="M 119.183594 64.261719 C 119.183594 59.871094 115.625 56.316406 111.238281 56.316406 C 106.851562 56.316406 103.292969 59.871094 103.292969 64.261719 C 103.292969 68.648438 106.851562 72.207031 111.238281 72.207031 C 115.625 72.207031 119.183594 68.648438 119.183594 64.261719 "/>
<path fill-rule="evenodd" fill="rgb(100%, 0%, 0%)" fill-opacity="0.2" d="M 111.238281 78.023438 C 111.238281 73.632812 107.679688 70.074219 103.292969 70.074219 C 98.902344 70.074219 95.34375 73.632812 95.34375 78.023438 C 95.34375 82.414062 98.902344 85.972656 103.292969 85.972656 C 107.679688 85.972656 111.238281 82.414062 111.238281 78.023438 "/>
<path fill-rule="evenodd" fill="rgb(100%, 0%, 0%)" fill-opacity="0.2" d="M 95.347656 78.023438 C 95.347656 73.636719 91.789062 70.078125 87.402344 70.078125 C 83.011719 70.078125 79.457031 73.636719 79.457031 78.023438 C 79.457031 82.410156 83.011719 85.96875 87.402344 85.96875 C 91.789062 85.96875 95.347656 82.410156 95.347656 78.023438 "/>
<path fill-rule="evenodd" fill="rgb(100%, 0%, 0%)" fill-opacity="0.2" d="M 87.351562 91.785156 C 87.351562 87.425781 83.816406 83.890625 79.457031 83.890625 C 75.097656 83.890625 71.5625 87.425781 71.5625 91.785156 C 71.5625 96.144531 75.097656 99.679688 79.457031 99.679688 C 83.816406 99.679688 87.351562 96.144531 87.351562 91.785156 "/>
<path fill-rule="evenodd" fill="rgb(100%, 0%, 0%)" fill-opacity="0.2" d="M 71.613281 91.785156 C 71.613281 87.339844 68.011719 83.734375 63.566406 83.734375 C 59.117188 83.734375 55.515625 87.339844 55.515625 91.785156 C 55.515625 96.230469 59.117188 99.835938 63.566406 99.835938 C 68.011719 99.835938 71.613281 96.230469 71.613281 91.785156 "/>
<path fill-rule="evenodd" fill="rgb(100%, 0%, 0%)" fill-opacity="0.2" d="M 63.460938 105.546875 C 63.460938 101.214844 59.949219 97.703125 55.617188 97.703125 C 51.289062 97.703125 47.777344 101.214844 47.777344 105.546875 C 47.777344 109.878906 51.289062 113.390625 55.617188 113.390625 C 59.949219 113.390625 63.460938 109.878906 63.460938 105.546875 "/>
<path fill-rule="evenodd" fill="rgb(100%, 0%, 0%)" fill-opacity="0.2" d="M 47.761719 105.546875 C 47.761719 101.109375 44.164062 97.511719 39.726562 97.511719 C 35.289062 97.511719 31.691406 101.109375 31.691406 105.546875 C 31.691406 109.984375 35.289062 113.582031 39.726562 113.582031 C 44.164062 113.582031 47.761719 109.984375 47.761719 105.546875 "/>
<path fill-rule="evenodd" fill="rgb(100%, 0%, 0%)" fill-opacity="0.2" d="M 39.621094 91.785156 C 39.621094 87.453125 36.113281 83.945312 31.78125 83.945312 C 27.453125 83.945312 23.941406 87.453125 23.941406 91.785156 C 23.941406 96.113281 27.453125 99.625 31.78125 99.625 C 36.113281 99.625 39.621094 96.113281 39.621094 91.785156 "/>
<path fill-rule="evenodd" fill="rgb(100%, 0%, 0%)" fill-opacity="0.2" d="M 119.1875 91.785156 C 119.1875 87.394531 115.628906 83.835938 111.238281 83.835938 C 106.847656 83.835938 103.289062 87.394531 103.289062 91.785156 C 103.289062 96.175781 106.847656 99.734375 111.238281 99.734375 C 115.628906 99.734375 119.1875 96.175781 119.1875 91.785156 "/>
<path fill-rule="evenodd" fill="rgb(100%, 0%, 0%)" fill-opacity="0.2" d="M 111.089844 105.546875 C 111.089844 101.242188 107.597656 97.75 103.292969 97.75 C 98.988281 97.75 95.496094 101.242188 95.496094 105.546875 C 95.496094 109.851562 98.988281 113.34375 103.292969 113.34375 C 107.597656 113.34375 111.089844 109.851562 111.089844 105.546875 "/>
<path fill-rule="evenodd" fill="rgb(100%, 0%, 0%)" fill-opacity="0.2" d="M 95.4375 105.546875 C 95.4375 101.109375 91.839844 97.511719 87.402344 97.511719 C 82.964844 97.511719 79.367188 101.109375 79.367188 105.546875 C 79.367188 109.984375 82.964844 113.582031 87.402344 113.582031 C 91.839844 113.582031 95.4375 109.984375 95.4375 105.546875 "/>
<path fill-rule="evenodd" fill="rgb(100%, 0%, 0%)" fill-opacity="0.2" d="M 47.621094 22.972656 C 47.621094 18.613281 44.085938 15.082031 39.726562 15.082031 C 35.367188 15.082031 31.832031 18.613281 31.832031 22.972656 C 31.832031 27.335938 35.367188 30.867188 39.726562 30.867188 C 44.085938 30.867188 47.621094 27.335938 47.621094 22.972656 "/>
<path fill-rule="evenodd" fill="rgb(100%, 0%, 0%)" fill-opacity="0.2" d="M 63.566406 22.972656 C 63.566406 18.585938 60.007812 15.027344 55.617188 15.027344 C 51.230469 15.027344 47.671875 18.585938 47.671875 22.972656 C 47.671875 27.363281 51.230469 30.921875 55.617188 30.921875 C 60.007812 30.921875 63.566406 27.363281 63.566406 22.972656 "/>
<path fill-rule="evenodd" fill="rgb(100%, 0%, 0%)" fill-opacity="0.2" d="M 71.511719 9.210938 C 71.511719 4.824219 67.953125 1.265625 63.566406 1.265625 C 59.175781 1.265625 55.617188 4.824219 55.617188 9.210938 C 55.617188 13.601562 59.175781 17.160156 63.566406 17.160156 C 67.953125 17.160156 71.511719 13.601562 71.511719 9.210938 "/>
<path fill-rule="evenodd" fill="rgb(100%, 0%, 0%)" fill-opacity="0.2" d="M 87.402344 9.210938 C 87.402344 4.824219 83.84375 1.265625 79.457031 1.265625 C 75.066406 1.265625 71.511719 4.824219 71.511719 9.210938 C 71.511719 13.601562 75.066406 17.160156 79.457031 17.160156 C 83.84375 17.160156 87.402344 13.601562 87.402344 9.210938 "/>
<path fill-rule="evenodd" fill="rgb(100%, 0%, 0%)" fill-opacity="0.2" d="M 95.347656 22.972656 C 95.347656 18.585938 91.789062 15.027344 87.402344 15.027344 C 83.011719 15.027344 79.457031 18.585938 79.457031 22.972656 C 79.457031 27.363281 83.011719 30.921875 87.402344 30.921875 C 91.789062 30.921875 95.347656 27.363281 95.347656 22.972656 "/>
<path fill-rule="evenodd" fill="rgb(100%, 0%, 0%)" fill-opacity="0.2" d="M 111.238281 22.972656 C 111.238281 18.585938 107.679688 15.027344 103.292969 15.027344 C 98.902344 15.027344 95.34375 18.585938 95.34375 22.972656 C 95.34375 27.363281 98.902344 30.921875 103.292969 30.921875 C 107.679688 30.921875 111.238281 27.363281 111.238281 22.972656 "/>
<path fill-rule="evenodd" fill="rgb(100%, 0%, 0%)" fill-opacity="0.2" d="M 119.183594 9.210938 C 119.183594 4.824219 115.625 1.269531 111.238281 1.269531 C 106.851562 1.269531 103.292969 4.824219 103.292969 9.210938 C 103.292969 13.601562 106.851562 17.15625 111.238281 17.15625 C 115.625 17.15625 119.183594 13.601562 119.183594 9.210938 "/>
<path fill-rule="evenodd" fill="rgb(100%, 0%, 0%)" fill-opacity="0.2" d="M 135.078125 9.210938 C 135.078125 4.824219 131.519531 1.265625 127.128906 1.265625 C 122.742188 1.265625 119.183594 4.824219 119.183594 9.210938 C 119.183594 13.601562 122.742188 17.160156 127.128906 17.160156 C 131.519531 17.160156 135.078125 13.601562 135.078125 9.210938 "/>
<path fill-rule="evenodd" fill="rgb(100%, 0%, 0%)" fill-opacity="0.2" d="M 135.074219 36.734375 C 135.074219 32.347656 131.515625 28.789062 127.128906 28.789062 C 122.742188 28.789062 119.183594 32.347656 119.183594 36.734375 C 119.183594 41.125 122.742188 44.683594 127.128906 44.683594 C 131.515625 44.683594 135.074219 41.125 135.074219 36.734375 "/>
<path fill-rule="evenodd" fill="rgb(100%, 0%, 0%)" fill-opacity="0.2" d="M 143.023438 22.972656 C 143.023438 18.585938 139.464844 15.027344 135.074219 15.027344 C 130.6875 15.027344 127.128906 18.585938 127.128906 22.972656 C 127.128906 27.363281 130.6875 30.921875 135.074219 30.921875 C 139.464844 30.921875 143.023438 27.363281 143.023438 22.972656 "/>
<path fill-rule="evenodd" fill="rgb(100%, 0%, 0%)" fill-opacity="0.2" d="M 143.019531 50.5 C 143.019531 46.109375 139.464844 42.554688 135.074219 42.554688 C 130.6875 42.554688 127.128906 46.109375 127.128906 50.5 C 127.128906 54.886719 130.6875 58.445312 135.074219 58.445312 C 139.464844 58.445312 143.019531 54.886719 143.019531 50.5 "/>
<path fill-rule="evenodd" fill="rgb(100%, 0%, 0%)" fill-opacity="0.2" d="M 135.074219 64.261719 C 135.074219 59.871094 131.515625 56.316406 127.128906 56.316406 C 122.742188 56.316406 119.183594 59.871094 119.183594 64.261719 C 119.183594 68.648438 122.742188 72.207031 127.128906 72.207031 C 131.515625 72.207031 135.074219 68.648438 135.074219 64.261719 "/>
<path fill-rule="evenodd" fill="rgb(100%, 0%, 0%)" fill-opacity="0.2" d="M 143.023438 78.023438 C 143.023438 73.632812 139.464844 70.074219 135.074219 70.074219 C 130.6875 70.074219 127.128906 73.632812 127.128906 78.023438 C 127.128906 82.414062 130.6875 85.972656 135.074219 85.972656 C 139.464844 85.972656 143.023438 82.414062 143.023438 78.023438 "/>
<path fill-rule="evenodd" fill="rgb(100%, 0%, 0%)" fill-opacity="0.2" d="M 134.972656 91.785156 C 134.972656 87.453125 131.460938 83.945312 127.128906 83.945312 C 122.800781 83.945312 119.289062 87.453125 119.289062 91.785156 C 119.289062 96.117188 122.800781 99.625 127.128906 99.625 C 131.460938 99.625 134.972656 96.117188 134.972656 91.785156 "/>
<path fill-rule="evenodd" fill="rgb(100%, 0%, 0%)" fill-opacity="0.2" d="M 143.125 105.546875 C 143.125 101.101562 139.523438 97.496094 135.074219 97.496094 C 130.628906 97.496094 127.023438 101.101562 127.023438 105.546875 C 127.023438 109.992188 130.628906 113.597656 135.074219 113.597656 C 139.523438 113.597656 143.125 109.992188 143.125 105.546875 "/>
<path fill-rule="evenodd" fill="rgb(100%, 0%, 0%)" fill-opacity="0.2" d="M 134.96875 119.308594 C 134.96875 114.980469 131.457031 111.46875 127.128906 111.46875 C 122.800781 111.46875 119.289062 114.980469 119.289062 119.308594 C 119.289062 123.640625 122.800781 127.148438 127.128906 127.148438 C 131.457031 127.148438 134.96875 123.640625 134.96875 119.308594 "/>
<path fill-rule="evenodd" fill="rgb(100%, 0%, 0%)" fill-opacity="0.2" d="M 119.078125 119.308594 C 119.078125 114.980469 115.570312 111.46875 111.238281 111.46875 C 106.90625 111.46875 103.398438 114.980469 103.398438 119.308594 C 103.398438 123.640625 106.90625 127.152344 111.238281 127.152344 C 115.570312 127.152344 119.078125 123.640625 119.078125 119.308594 "/>
<path fill-rule="evenodd" fill="rgb(100%, 0%, 0%)" fill-opacity="0.2" d="M 111.164062 133.070312 C 111.164062 128.722656 107.640625 125.199219 103.292969 125.199219 C 98.945312 125.199219 95.421875 128.722656 95.421875 133.070312 C 95.421875 137.417969 98.945312 140.941406 103.292969 140.941406 C 107.640625 140.941406 111.164062 137.417969 111.164062 133.070312 "/>
<path fill-rule="evenodd" fill="rgb(100%, 0%, 0%)" fill-opacity="0.2" d="M 95.453125 133.070312 C 95.453125 128.625 91.847656 125.023438 87.402344 125.023438 C 82.957031 125.023438 79.351562 128.625 79.351562 133.070312 C 79.351562 137.519531 82.957031 141.121094 87.402344 141.121094 C 91.847656 141.121094 95.453125 137.519531 95.453125 133.070312 "/>
<path fill-rule="evenodd" fill="rgb(100%, 0%, 0%)" fill-opacity="0.2" d="M 87.3125 119.308594 C 87.3125 114.96875 83.796875 111.453125 79.457031 111.453125 C 75.117188 111.453125 71.597656 114.96875 71.597656 119.308594 C 71.597656 123.648438 75.117188 127.164062 79.457031 127.164062 C 83.796875 127.164062 87.3125 123.648438 87.3125 119.308594 "/>
<path fill-rule="evenodd" fill="rgb(100%, 0%, 0%)" fill-opacity="0.2" d="M 71.40625 119.308594 C 71.40625 114.980469 67.894531 111.46875 63.566406 111.46875 C 59.234375 111.46875 55.722656 114.980469 55.722656 119.308594 C 55.722656 123.640625 59.234375 127.152344 63.566406 127.152344 C 67.894531 127.152344 71.40625 123.640625 71.40625 119.308594 "/>
<path fill-rule="evenodd" fill="rgb(100%, 0%, 0%)" fill-opacity="0.2" d="M 63.460938 133.070312 C 63.460938 128.742188 59.949219 125.230469 55.617188 125.230469 C 51.289062 125.230469 47.777344 128.742188 47.777344 133.070312 C 47.777344 137.402344 51.289062 140.914062 55.617188 140.914062 C 59.949219 140.914062 63.460938 137.402344 63.460938 133.070312 "/>
<path fill-rule="evenodd" fill="rgb(100%, 0%, 0%)" fill-opacity="0.2" d="M 47.523438 133.070312 C 47.523438 128.765625 44.035156 125.273438 39.726562 125.273438 C 35.421875 125.273438 31.929688 128.765625 31.929688 133.070312 C 31.929688 137.378906 35.421875 140.867188 39.726562 140.867188 C 44.035156 140.867188 47.523438 137.378906 47.523438 133.070312 "/>
<path fill-rule="evenodd" fill="rgb(100%, 0%, 0%)" fill-opacity="0.2" d="M 39.621094 119.308594 C 39.621094 114.980469 36.113281 111.46875 31.78125 111.46875 C 27.453125 111.46875 23.941406 114.980469 23.941406 119.308594 C 23.941406 123.640625 27.453125 127.148438 31.78125 127.148438 C 36.113281 127.148438 39.621094 123.640625 39.621094 119.308594 "/>
<path fill-rule="evenodd" fill="rgb(100%, 0%, 0%)" fill-opacity="0.2" d="M 23.941406 119.308594 C 23.941406 114.863281 20.335938 111.257812 15.890625 111.257812 C 11.445312 111.257812 7.839844 114.863281 7.839844 119.308594 C 7.839844 123.757812 11.445312 127.359375 15.890625 127.359375 C 20.335938 127.359375 23.941406 123.757812 23.941406 119.308594 "/>
<path fill-rule="evenodd" fill="rgb(100%, 0%, 0%)" fill-opacity="0.2" d="M 15.785156 105.546875 C 15.785156 101.21875 12.277344 97.707031 7.945312 97.707031 C 3.617188 97.707031 0.105469 101.21875 0.105469 105.546875 C 0.105469 109.878906 3.617188 113.386719 7.945312 113.386719 C 12.277344 113.386719 15.785156 109.878906 15.785156 105.546875 "/>
<path fill-rule="evenodd" fill="rgb(100%, 0%, 0%)" fill-opacity="0.2" d="M 23.6875 91.785156 C 23.6875 87.480469 20.199219 83.988281 15.890625 83.988281 C 11.585938 83.988281 8.09375 87.480469 8.09375 91.785156 C 8.09375 96.089844 11.585938 99.582031 15.890625 99.582031 C 20.199219 99.582031 23.6875 96.089844 23.6875 91.785156 "/>
<path fill-rule="evenodd" fill="rgb(100%, 0%, 0%)" fill-opacity="0.2" d="M 16.042969 78.023438 C 16.042969 73.550781 12.417969 69.925781 7.945312 69.925781 C 3.476562 69.925781 -0.148438 73.550781 -0.148438 78.023438 C -0.148438 82.492188 3.476562 86.117188 7.945312 86.117188 C 12.417969 86.117188 16.042969 82.492188 16.042969 78.023438 "/>
<path fill-rule="evenodd" fill="rgb(100%, 0%, 0%)" fill-opacity="0.2" d="M 16.042969 50.496094 C 16.042969 46.027344 12.417969 42.402344 7.945312 42.402344 C 3.472656 42.402344 -0.152344 46.027344 -0.152344 50.496094 C -0.152344 54.96875 3.472656 58.59375 7.945312 58.59375 C 12.417969 58.59375 16.042969 54.96875 16.042969 50.496094 "/>
<path fill-rule="evenodd" fill="rgb(100%, 0%, 0%)" fill-opacity="0.2" d="M 23.886719 36.734375 C 23.886719 32.320312 20.308594 28.738281 15.890625 28.738281 C 11.476562 28.738281 7.894531 32.320312 7.894531 36.734375 C 7.894531 41.152344 11.476562 44.734375 15.890625 44.734375 C 20.308594 44.734375 23.886719 41.152344 23.886719 36.734375 "/>
<path fill-rule="evenodd" fill="rgb(100%, 0%, 0%)" fill-opacity="0.2" d="M 15.839844 22.972656 C 15.839844 18.613281 12.304688 15.082031 7.945312 15.082031 C 3.585938 15.082031 0.0507812 18.613281 0.0507812 22.972656 C 0.0507812 27.335938 3.585938 30.867188 7.945312 30.867188 C 12.304688 30.867188 15.839844 27.335938 15.839844 22.972656 "/>
<path fill-rule="evenodd" fill="rgb(100%, 0%, 0%)" fill-opacity="0.2" d="M 23.890625 9.210938 C 23.890625 4.796875 20.308594 1.214844 15.890625 1.214844 C 11.472656 1.214844 7.890625 4.796875 7.890625 9.210938 C 7.890625 13.628906 11.472656 17.210938 15.890625 17.210938 C 20.308594 17.210938 23.890625 13.628906 23.890625 9.210938 "/>
<path fill-rule="evenodd" fill="rgb(100%, 0%, 0%)" fill-opacity="0.2" d="M 39.78125 9.210938 C 39.78125 4.796875 36.199219 1.214844 31.78125 1.214844 C 27.363281 1.214844 23.785156 4.796875 23.785156 9.210938 C 23.785156 13.628906 27.363281 17.210938 31.78125 17.210938 C 36.199219 17.210938 39.78125 13.628906 39.78125 9.210938 "/>
<path fill="none" stroke-width="0.8" stroke-linecap="butt" stroke-linejoin="round" stroke="rgb(100%, 0%, 0%)" stroke-opacity="1" stroke-miterlimit="10" d="M 40.049737 114.145852 C 40.049737 118.590141 36.447109 122.196702 31.998886 122.196702 C 27.554597 122.196702 23.948036 118.590141 23.948036 114.145852 C 23.948036 109.697629 27.554597 106.091068 31.998886 106.091068 C 36.447109 106.091068 40.049737 109.697629 40.049737 114.145852 " transform="matrix(0.993199, 0, 0, -0.993199, 0.000000000000003886, 150.103878)"/>
<path fill="none" stroke-width="0.8" stroke-linecap="butt" stroke-linejoin="round" stroke="rgb(100%, 0%, 0%)" stroke-opacity="1" stroke-miterlimit="10" d="M 71.950298 114.145852 C 71.950298 118.535079 68.390933 122.094444 64.001706 122.094444 C 59.608545 122.094444 56.053113 118.535079 56.053113 114.145852 C 56.053113 109.752691 59.608545 106.193326 64.001706 106.193326 C 68.390933 106.193326 71.950298 109.752691 71.950298 114.145852 " transform="matrix(0.993199, 0, 0, -0.993199, 0.000000000000003886, 150.103878)"/>
<path fill="none" stroke-width="0.8" stroke-linecap="butt" stroke-linejoin="round" stroke="rgb(100%, 0%, 0%)" stroke-opacity="1" stroke-miterlimit="10" d="M 63.907314 100.28596 C 63.907314 104.655523 60.367614 108.195223 55.998051 108.195223 C 51.632421 108.195223 48.092721 104.655523 48.092721 100.28596 C 48.092721 95.920331 51.632421 92.376698 55.998051 92.376698 C 60.367614 92.376698 63.907314 95.920331 63.907314 100.28596 " transform="matrix(0.993199, 0, 0, -0.993199, 0.000000000000003886, 150.103878)"/>
<path fill="none" stroke-width="0.8" stroke-linecap="butt" stroke-linejoin="round" stroke="rgb(100%, 0%, 0%)" stroke-opacity="1" stroke-miterlimit="10" d="M 47.998329 100.28596 C 47.998329 104.706652 44.4193 108.285682 39.998608 108.285682 C 35.581849 108.285682 31.998886 104.706652 31.998886 100.28596 C 31.998886 95.869202 35.581849 92.286239 39.998608 92.286239 C 44.4193 92.286239 47.998329 95.869202 47.998329 100.28596 " transform="matrix(0.993199, 0, 0, -0.993199, 0.000000000000003886, 150.103878)"/>
<path fill="none" stroke-width="0.8" stroke-linecap="butt" stroke-linejoin="round" stroke="rgb(100%, 0%, 0%)" stroke-opacity="1" stroke-miterlimit="10" d="M 39.908149 86.430002 C 39.908149 90.799565 36.368449 94.339265 31.998886 94.339265 C 27.633256 94.339265 24.093557 90.799565 24.093557 86.430002 C 24.093557 82.064372 27.633256 78.524672 31.998886 78.524672 C 36.368449 78.524672 39.908149 82.064372 39.908149 86.430002 " transform="matrix(0.993199, 0, 0, -0.993199, 0.000000000000003886, 150.103878)"/>
<path fill="none" stroke-width="0.8" stroke-linecap="butt" stroke-linejoin="round" stroke="rgb(100%, 0%, 0%)" stroke-opacity="1" stroke-miterlimit="10" d="M 23.849711 86.430002 C 23.849711 90.768101 20.337542 94.28027 15.999443 94.28027 C 11.665277 94.28027 8.149176 90.768101 8.149176 86.430002 C 8.149176 82.095836 11.665277 78.579734 15.999443 78.579734 C 20.337542 78.579734 23.849711 82.095836 23.849711 86.430002 " transform="matrix(0.993199, 0, 0, -0.993199, 0.000000000000003886, 150.103878)"/>
<path fill="none" stroke-width="0.8" stroke-linecap="butt" stroke-linejoin="round" stroke="rgb(100%, 0%, 0%)" stroke-opacity="1" stroke-miterlimit="10" d="M 47.896071 72.574044 C 47.896071 76.935741 44.360305 80.467574 39.998608 80.467574 C 35.640844 80.467574 32.105077 76.935741 32.105077 72.574044 C 32.105077 68.212347 35.640844 64.680513 39.998608 64.680513 C 44.360305 64.680513 47.896071 68.212347 47.896071 72.574044 " transform="matrix(0.993199, 0, 0, -0.993199, 0.000000000000003886, 150.103878)"/>
<path fill="none" stroke-width="0.8" stroke-linecap="butt" stroke-linejoin="round" stroke="rgb(100%, 0%, 0%)" stroke-opacity="1" stroke-miterlimit="10" d="M 64.103964 72.574044 C 64.103964 77.049798 60.477738 80.679956 55.998051 80.679956 C 51.522297 80.679956 47.896071 77.049798 47.896071 72.574044 C 47.896071 68.09829 51.522297 64.468131 55.998051 64.468131 C 60.477738 64.468131 64.103964 68.09829 64.103964 72.574044 " transform="matrix(0.993199, 0, 0, -0.993199, 0.000000000000003886, 150.103878)"/>
<path fill="none" stroke-width="0.8" stroke-linecap="butt" stroke-linejoin="round" stroke="rgb(100%, 0%, 0%)" stroke-opacity="1" stroke-miterlimit="10" d="M 71.907035 86.430002 C 71.907035 90.799565 68.367335 94.339265 64.001706 94.339265 C 59.632143 94.339265 56.092443 90.799565 56.092443 86.430002 C 56.092443 82.064372 59.632143 78.520739 64.001706 78.520739 C 68.367335 78.520739 71.907035 82.064372 71.907035 86.430002 " transform="matrix(0.993199, 0, 0, -0.993199, 0.000000000000003886, 150.103878)"/>
<path fill="none" stroke-width="0.8" stroke-linecap="butt" stroke-linejoin="round" stroke="rgb(100%, 0%, 0%)" stroke-opacity="1" stroke-miterlimit="10" d="M 88.150324 86.430002 C 88.150324 90.933287 84.5005 94.579178 80.001149 94.579178 C 75.497864 94.579178 71.851973 90.933287 71.851973 86.430002 C 71.851973 81.93065 75.497864 78.280826 80.001149 78.280826 C 84.5005 78.280826 88.150324 81.93065 88.150324 86.430002 " transform="matrix(0.993199, 0, 0, -0.993199, 0.000000000000003886, 150.103878)"/>
<path fill="none" stroke-width="0.8" stroke-linecap="butt" stroke-linejoin="round" stroke="rgb(100%, 0%, 0%)" stroke-opacity="1" stroke-miterlimit="10" d="M 88.00087 114.145852 C 88.00087 118.56261 84.417907 122.145573 80.001149 122.145573 C 75.580457 122.145573 72.001427 118.56261 72.001427 114.145852 C 72.001427 109.72516 75.580457 106.142197 80.001149 106.142197 C 84.417907 106.142197 88.00087 109.72516 88.00087 114.145852 " transform="matrix(0.993199, 0, 0, -0.993199, 0.000000000000003886, 150.103878)"/>
<path fill="none" stroke-width="0.8" stroke-linecap="butt" stroke-linejoin="round" stroke="rgb(100%, 0%, 0%)" stroke-opacity="1" stroke-miterlimit="10" d="M 95.851138 100.28596 C 95.851138 104.620126 92.335036 108.136228 88.00087 108.136228 C 83.662771 108.136228 80.150603 104.620126 80.150603 100.28596 C 80.150603 95.951794 83.662771 92.435693 88.00087 92.435693 C 92.335036 92.435693 95.851138 95.951794 95.851138 100.28596 " transform="matrix(0.993199, 0, 0, -0.993199, 0.000000000000003886, 150.103878)"/>
<path fill="none" stroke-width="0.8" stroke-linecap="butt" stroke-linejoin="round" stroke="rgb(100%, 0%, 0%)" stroke-opacity="1" stroke-miterlimit="10" d="M 112.000035 100.28596 C 112.000035 104.706652 108.417072 108.285682 104.000313 108.285682 C 99.583555 108.285682 96.000592 104.706652 96.000592 100.28596 C 96.000592 95.869202 99.583555 92.286239 104.000313 92.286239 C 108.417072 92.286239 112.000035 95.869202 112.000035 100.28596 " transform="matrix(0.993199, 0, 0, -0.993199, 0.000000000000003886, 150.103878)"/>
<path fill="none" stroke-width="0.8" stroke-linecap="butt" stroke-linejoin="round" stroke="rgb(100%, 0%, 0%)" stroke-opacity="1" stroke-miterlimit="10" d="M 119.999756 114.145852 C 119.999756 118.56261 116.416794 122.145573 112.000035 122.145573 C 107.583276 122.145573 104.000313 118.56261 104.000313 114.145852 C 104.000313 109.72516 107.583276 106.142197 112.000035 106.142197 C 116.416794 106.142197 119.999756 109.72516 119.999756 114.145852 " transform="matrix(0.993199, 0, 0, -0.993199, 0.000000000000003886, 150.103878)"/>
<path fill="none" stroke-width="0.8" stroke-linecap="butt" stroke-linejoin="round" stroke="rgb(100%, 0%, 0%)" stroke-opacity="1" stroke-miterlimit="10" d="M 119.999756 86.430002 C 119.999756 90.850694 116.416794 94.429724 112.000035 94.429724 C 107.583276 94.429724 104.000313 90.850694 104.000313 86.430002 C 104.000313 82.013243 107.583276 78.43028 112.000035 78.43028 C 116.416794 78.43028 119.999756 82.013243 119.999756 86.430002 " transform="matrix(0.993199, 0, 0, -0.993199, 0.000000000000003886, 150.103878)"/>
<path fill="none" stroke-width="0.8" stroke-linecap="butt" stroke-linejoin="round" stroke="rgb(100%, 0%, 0%)" stroke-opacity="1" stroke-miterlimit="10" d="M 112.000035 72.574044 C 112.000035 76.994736 108.417072 80.577698 104.000313 80.577698 C 99.579622 80.577698 95.996659 76.994736 95.996659 72.574044 C 95.996659 68.153352 99.579622 64.570389 104.000313 64.570389 C 108.417072 64.570389 112.000035 68.153352 112.000035 72.574044 " transform="matrix(0.993199, 0, 0, -0.993199, 0.000000000000003886, 150.103878)"/>
<path fill="none" stroke-width="0.8" stroke-linecap="butt" stroke-linejoin="round" stroke="rgb(100%, 0%, 0%)" stroke-opacity="1" stroke-miterlimit="10" d="M 96.000592 72.574044 C 96.000592 76.990803 92.417629 80.573765 88.00087 80.573765 C 83.580178 80.573765 80.001149 76.990803 80.001149 72.574044 C 80.001149 68.157285 83.580178 64.574322 88.00087 64.574322 C 92.417629 64.574322 96.000592 68.157285 96.000592 72.574044 " transform="matrix(0.993199, 0, 0, -0.993199, 0.000000000000003886, 150.103878)"/>
<path fill="none" stroke-width="0.8" stroke-linecap="butt" stroke-linejoin="round" stroke="rgb(100%, 0%, 0%)" stroke-opacity="1" stroke-miterlimit="10" d="M 87.949741 58.718086 C 87.949741 63.107313 84.390376 66.666678 80.001149 66.666678 C 75.611921 66.666678 72.052556 63.107313 72.052556 58.718086 C 72.052556 54.328858 75.611921 50.769493 80.001149 50.769493 C 84.390376 50.769493 87.949741 54.328858 87.949741 58.718086 " transform="matrix(0.993199, 0, 0, -0.993199, 0.000000000000003886, 150.103878)"/>
<path fill="none" stroke-width="0.8" stroke-linecap="butt" stroke-linejoin="round" stroke="rgb(100%, 0%, 0%)" stroke-opacity="1" stroke-miterlimit="10" d="M 72.103685 58.718086 C 72.103685 63.193839 68.477459 66.823998 64.001706 66.823998 C 59.522019 66.823998 55.895793 63.193839 55.895793 58.718086 C 55.895793 54.242332 59.522019 50.612173 64.001706 50.612173 C 68.477459 50.612173 72.103685 54.242332 72.103685 58.718086 " transform="matrix(0.993199, 0, 0, -0.993199, 0.000000000000003886, 150.103878)"/>
<path fill="none" stroke-width="0.8" stroke-linecap="butt" stroke-linejoin="round" stroke="rgb(100%, 0%, 0%)" stroke-opacity="1" stroke-miterlimit="10" d="M 63.895515 44.862127 C 63.895515 49.223824 60.359748 52.759591 55.998051 52.759591 C 51.640287 52.759591 48.10452 49.223824 48.10452 44.862127 C 48.10452 40.500431 51.640287 36.964664 55.998051 36.964664 C 60.359748 36.964664 63.895515 40.500431 63.895515 44.862127 " transform="matrix(0.993199, 0, 0, -0.993199, 0.000000000000003886, 150.103878)"/>
<path fill="none" stroke-width="0.8" stroke-linecap="butt" stroke-linejoin="round" stroke="rgb(100%, 0%, 0%)" stroke-opacity="1" stroke-miterlimit="10" d="M 48.088788 44.862127 C 48.088788 49.330015 44.466496 52.952308 39.998608 52.952308 C 35.53072 52.952308 31.908427 49.330015 31.908427 44.862127 C 31.908427 40.39424 35.53072 36.771947 39.998608 36.771947 C 44.466496 36.771947 48.088788 40.39424 48.088788 44.862127 " transform="matrix(0.993199, 0, 0, -0.993199, 0.000000000000003886, 150.103878)"/>
<path fill="none" stroke-width="0.8" stroke-linecap="butt" stroke-linejoin="round" stroke="rgb(100%, 0%, 0%)" stroke-opacity="1" stroke-miterlimit="10" d="M 39.892417 58.718086 C 39.892417 63.079782 36.360583 66.611616 31.998886 66.611616 C 27.641122 66.611616 24.105356 63.079782 24.105356 58.718086 C 24.105356 54.360322 27.641122 50.824555 31.998886 50.824555 C 36.360583 50.824555 39.892417 54.360322 39.892417 58.718086 " transform="matrix(0.993199, 0, 0, -0.993199, 0.000000000000003886, 150.103878)"/>
<path fill="none" stroke-width="0.8" stroke-linecap="butt" stroke-linejoin="round" stroke="rgb(100%, 0%, 0%)" stroke-opacity="1" stroke-miterlimit="10" d="M 120.003689 58.718086 C 120.003689 63.138777 116.420727 66.72174 112.000035 66.72174 C 107.579343 66.72174 103.99638 63.138777 103.99638 58.718086 C 103.99638 54.297394 107.579343 50.714431 112.000035 50.714431 C 116.420727 50.714431 120.003689 54.297394 120.003689 58.718086 " transform="matrix(0.993199, 0, 0, -0.993199, 0.000000000000003886, 150.103878)"/>
<path fill="none" stroke-width="0.8" stroke-linecap="butt" stroke-linejoin="round" stroke="rgb(100%, 0%, 0%)" stroke-opacity="1" stroke-miterlimit="10" d="M 111.850581 44.862127 C 111.850581 49.196293 108.334479 52.712395 104.000313 52.712395 C 99.666148 52.712395 96.150046 49.196293 96.150046 44.862127 C 96.150046 40.527962 99.666148 37.01186 104.000313 37.01186 C 108.334479 37.01186 111.850581 40.527962 111.850581 44.862127 " transform="matrix(0.993199, 0, 0, -0.993199, 0.000000000000003886, 150.103878)"/>
<path fill="none" stroke-width="0.8" stroke-linecap="butt" stroke-linejoin="round" stroke="rgb(100%, 0%, 0%)" stroke-opacity="1" stroke-miterlimit="10" d="M 96.091051 44.862127 C 96.091051 49.330015 92.468758 52.952308 88.00087 52.952308 C 83.532982 52.952308 79.91069 49.330015 79.91069 44.862127 C 79.91069 40.39424 83.532982 36.771947 88.00087 36.771947 C 92.468758 36.771947 96.091051 40.39424 96.091051 44.862127 " transform="matrix(0.993199, 0, 0, -0.993199, 0.000000000000003886, 150.103878)"/>
<path fill="none" stroke-width="0.8" stroke-linecap="butt" stroke-linejoin="round" stroke="rgb(100%, 0%, 0%)" stroke-opacity="1" stroke-miterlimit="10" d="M 47.9472 128.00181 C 47.9472 132.391038 44.387836 135.946469 39.998608 135.946469 C 35.60938 135.946469 32.050015 132.391038 32.050015 128.00181 C 32.050015 123.608649 35.60938 120.053217 39.998608 120.053217 C 44.387836 120.053217 47.9472 123.608649 47.9472 128.00181 " transform="matrix(0.993199, 0, 0, -0.993199, 0.000000000000003886, 150.103878)"/>
<path fill="none" stroke-width="0.8" stroke-linecap="butt" stroke-linejoin="round" stroke="rgb(100%, 0%, 0%)" stroke-opacity="1" stroke-miterlimit="10" d="M 64.001706 128.00181 C 64.001706 132.418569 60.418743 136.001531 55.998051 136.001531 C 51.581292 136.001531 47.998329 132.418569 47.998329 128.00181 C 47.998329 123.581118 51.581292 119.998155 55.998051 119.998155 C 60.418743 119.998155 64.001706 123.581118 64.001706 128.00181 " transform="matrix(0.993199, 0, 0, -0.993199, 0.000000000000003886, 150.103878)"/>
<g clip-path="url(#clip-0)">
<path fill="none" stroke-width="0.8" stroke-linecap="butt" stroke-linejoin="round" stroke="rgb(100%, 0%, 0%)" stroke-opacity="1" stroke-miterlimit="10" d="M 72.001427 141.857768 C 72.001427 146.274527 68.418464 149.85749 64.001706 149.85749 C 59.581014 149.85749 55.998051 146.274527 55.998051 141.857768 C 55.998051 137.437076 59.581014 133.854113 64.001706 133.854113 C 68.418464 133.854113 72.001427 137.437076 72.001427 141.857768 " transform="matrix(0.993199, 0, 0, -0.993199, 0.000000000000003886, 150.103878)"/>
</g>
<g clip-path="url(#clip-1)">
<path fill="none" stroke-width="0.8" stroke-linecap="butt" stroke-linejoin="round" stroke="rgb(100%, 0%, 0%)" stroke-opacity="1" stroke-miterlimit="10" d="M 88.00087 141.857768 C 88.00087 146.274527 84.417907 149.85749 80.001149 149.85749 C 75.580457 149.85749 72.001427 146.274527 72.001427 141.857768 C 72.001427 137.437076 75.580457 133.854113 80.001149 133.854113 C 84.417907 133.854113 88.00087 137.437076 88.00087 141.857768 " transform="matrix(0.993199, 0, 0, -0.993199, 0.000000000000003886, 150.103878)"/>
</g>
<path fill="none" stroke-width="0.8" stroke-linecap="butt" stroke-linejoin="round" stroke="rgb(100%, 0%, 0%)" stroke-opacity="1" stroke-miterlimit="10" d="M 96.000592 128.00181 C 96.000592 132.418569 92.417629 136.001531 88.00087 136.001531 C 83.580178 136.001531 80.001149 132.418569 80.001149 128.00181 C 80.001149 123.581118 83.580178 119.998155 88.00087 119.998155 C 92.417629 119.998155 96.000592 123.581118 96.000592 128.00181 " transform="matrix(0.993199, 0, 0, -0.993199, 0.000000000000003886, 150.103878)"/>
<path fill="none" stroke-width="0.8" stroke-linecap="butt" stroke-linejoin="round" stroke="rgb(100%, 0%, 0%)" stroke-opacity="1" stroke-miterlimit="10" d="M 112.000035 128.00181 C 112.000035 132.418569 108.417072 136.001531 104.000313 136.001531 C 99.579622 136.001531 95.996659 132.418569 95.996659 128.00181 C 95.996659 123.581118 99.579622 119.998155 104.000313 119.998155 C 108.417072 119.998155 112.000035 123.581118 112.000035 128.00181 " transform="matrix(0.993199, 0, 0, -0.993199, 0.000000000000003886, 150.103878)"/>
<g clip-path="url(#clip-2)">
<path fill="none" stroke-width="0.8" stroke-linecap="butt" stroke-linejoin="round" stroke="rgb(100%, 0%, 0%)" stroke-opacity="1" stroke-miterlimit="10" d="M 119.999756 141.857768 C 119.999756 146.274527 116.416794 149.853557 112.000035 149.853557 C 107.583276 149.853557 104.000313 146.274527 104.000313 141.857768 C 104.000313 137.437076 107.583276 133.858046 112.000035 133.858046 C 116.416794 133.858046 119.999756 137.437076 119.999756 141.857768 " transform="matrix(0.993199, 0, 0, -0.993199, 0.000000000000003886, 150.103878)"/>
</g>
<g clip-path="url(#clip-3)">
<path fill="none" stroke-width="0.8" stroke-linecap="butt" stroke-linejoin="round" stroke="rgb(100%, 0%, 0%)" stroke-opacity="1" stroke-miterlimit="10" d="M 136.003133 141.857768 C 136.003133 146.274527 132.42017 149.85749 127.999478 149.85749 C 123.582719 149.85749 119.999756 146.274527 119.999756 141.857768 C 119.999756 137.437076 123.582719 133.854113 127.999478 133.854113 C 132.42017 133.854113 136.003133 137.437076 136.003133 141.857768 " transform="matrix(0.993199, 0, 0, -0.993199, 0.000000000000003886, 150.103878)"/>
</g>
<path fill="none" stroke-width="0.8" stroke-linecap="butt" stroke-linejoin="round" stroke="rgb(100%, 0%, 0%)" stroke-opacity="1" stroke-miterlimit="10" d="M 135.9992 114.145852 C 135.9992 118.56261 132.416237 122.145573 127.999478 122.145573 C 123.582719 122.145573 119.999756 118.56261 119.999756 114.145852 C 119.999756 109.72516 123.582719 106.142197 127.999478 106.142197 C 132.416237 106.142197 135.9992 109.72516 135.9992 114.145852 " transform="matrix(0.993199, 0, 0, -0.993199, 0.000000000000003886, 150.103878)"/>
<path fill="none" stroke-width="0.8" stroke-linecap="butt" stroke-linejoin="round" stroke="rgb(100%, 0%, 0%)" stroke-opacity="1" stroke-miterlimit="10" d="M 144.002854 128.00181 C 144.002854 132.418569 140.419891 136.001531 135.9992 136.001531 C 131.582441 136.001531 127.999478 132.418569 127.999478 128.00181 C 127.999478 123.581118 131.582441 119.998155 135.9992 119.998155 C 140.419891 119.998155 144.002854 123.581118 144.002854 128.00181 " transform="matrix(0.993199, 0, 0, -0.993199, 0.000000000000003886, 150.103878)"/>
<path fill="none" stroke-width="0.8" stroke-linecap="butt" stroke-linejoin="round" stroke="rgb(100%, 0%, 0%)" stroke-opacity="1" stroke-miterlimit="10" d="M 143.998921 100.28596 C 143.998921 104.706652 140.419891 108.285682 135.9992 108.285682 C 131.582441 108.285682 127.999478 104.706652 127.999478 100.28596 C 127.999478 95.869202 131.582441 92.286239 135.9992 92.286239 C 140.419891 92.286239 143.998921 95.869202 143.998921 100.28596 " transform="matrix(0.993199, 0, 0, -0.993199, 0.000000000000003886, 150.103878)"/>
<path fill="none" stroke-width="0.8" stroke-linecap="butt" stroke-linejoin="round" stroke="rgb(100%, 0%, 0%)" stroke-opacity="1" stroke-miterlimit="10" d="M 135.9992 86.430002 C 135.9992 90.850694 132.416237 94.429724 127.999478 94.429724 C 123.582719 94.429724 119.999756 90.850694 119.999756 86.430002 C 119.999756 82.013243 123.582719 78.43028 127.999478 78.43028 C 132.416237 78.43028 135.9992 82.013243 135.9992 86.430002 " transform="matrix(0.993199, 0, 0, -0.993199, 0.000000000000003886, 150.103878)"/>
<path fill="none" stroke-width="0.8" stroke-linecap="butt" stroke-linejoin="round" stroke="rgb(100%, 0%, 0%)" stroke-opacity="1" stroke-miterlimit="10" d="M 144.002854 72.574044 C 144.002854 76.994736 140.419891 80.577698 135.9992 80.577698 C 131.582441 80.577698 127.999478 76.994736 127.999478 72.574044 C 127.999478 68.153352 131.582441 64.570389 135.9992 64.570389 C 140.419891 64.570389 144.002854 68.153352 144.002854 72.574044 " transform="matrix(0.993199, 0, 0, -0.993199, 0.000000000000003886, 150.103878)"/>
<path fill="none" stroke-width="0.8" stroke-linecap="butt" stroke-linejoin="round" stroke="rgb(100%, 0%, 0%)" stroke-opacity="1" stroke-miterlimit="10" d="M 135.896942 58.718086 C 135.896942 63.079782 132.361175 66.611616 127.999478 66.611616 C 123.641714 66.611616 120.105947 63.079782 120.105947 58.718086 C 120.105947 54.356389 123.641714 50.824555 127.999478 50.824555 C 132.361175 50.824555 135.896942 54.356389 135.896942 58.718086 " transform="matrix(0.993199, 0, 0, -0.993199, 0.000000000000003886, 150.103878)"/>
<path fill="none" stroke-width="0.8" stroke-linecap="butt" stroke-linejoin="round" stroke="rgb(100%, 0%, 0%)" stroke-opacity="1" stroke-miterlimit="10" d="M 144.105112 44.862127 C 144.105112 49.337881 140.478886 52.96804 135.9992 52.96804 C 131.523446 52.96804 127.893287 49.337881 127.893287 44.862127 C 127.893287 40.386374 131.523446 36.756215 135.9992 36.756215 C 140.478886 36.756215 144.105112 40.386374 144.105112 44.862127 " transform="matrix(0.993199, 0, 0, -0.993199, 0.000000000000003886, 150.103878)"/>
<path fill="none" stroke-width="0.8" stroke-linecap="butt" stroke-linejoin="round" stroke="rgb(100%, 0%, 0%)" stroke-opacity="1" stroke-miterlimit="10" d="M 135.893009 31.006169 C 135.893009 35.363933 132.357242 38.8997 127.999478 38.8997 C 123.641714 38.8997 120.105947 35.363933 120.105947 31.006169 C 120.105947 26.644472 123.641714 23.112638 127.999478 23.112638 C 132.357242 23.112638 135.893009 26.644472 135.893009 31.006169 " transform="matrix(0.993199, 0, 0, -0.993199, 0.000000000000003886, 150.103878)"/>
<path fill="none" stroke-width="0.8" stroke-linecap="butt" stroke-linejoin="round" stroke="rgb(100%, 0%, 0%)" stroke-opacity="1" stroke-miterlimit="10" d="M 119.893565 31.006169 C 119.893565 35.363933 116.361732 38.8997 112.000035 38.8997 C 107.638338 38.8997 104.106504 35.363933 104.106504 31.006169 C 104.106504 26.644472 107.638338 23.108705 112.000035 23.108705 C 116.361732 23.108705 119.893565 26.644472 119.893565 31.006169 " transform="matrix(0.993199, 0, 0, -0.993199, 0.000000000000003886, 150.103878)"/>
<path fill="none" stroke-width="0.8" stroke-linecap="butt" stroke-linejoin="round" stroke="rgb(100%, 0%, 0%)" stroke-opacity="1" stroke-miterlimit="10" d="M 111.925308 17.150211 C 111.925308 21.52764 108.377742 25.075205 104.000313 25.075205 C 99.622885 25.075205 96.075319 21.52764 96.075319 17.150211 C 96.075319 12.772782 99.622885 9.225216 104.000313 9.225216 C 108.377742 9.225216 111.925308 12.772782 111.925308 17.150211 " transform="matrix(0.993199, 0, 0, -0.993199, 0.000000000000003886, 150.103878)"/>
<path fill="none" stroke-width="0.8" stroke-linecap="butt" stroke-linejoin="round" stroke="rgb(100%, 0%, 0%)" stroke-opacity="1" stroke-miterlimit="10" d="M 96.106783 17.150211 C 96.106783 21.625965 92.476624 25.25219 88.00087 25.25219 C 83.525116 25.25219 79.894958 21.625965 79.894958 17.150211 C 79.894958 12.670524 83.525116 9.044298 88.00087 9.044298 C 92.476624 9.044298 96.106783 12.670524 96.106783 17.150211 " transform="matrix(0.993199, 0, 0, -0.993199, 0.000000000000003886, 150.103878)"/>
<path fill="none" stroke-width="0.8" stroke-linecap="butt" stroke-linejoin="round" stroke="rgb(100%, 0%, 0%)" stroke-opacity="1" stroke-miterlimit="10" d="M 87.910411 31.006169 C 87.910411 35.375732 84.370711 38.915432 80.001149 38.915432 C 75.631586 38.915432 72.087953 35.375732 72.087953 31.006169 C 72.087953 26.636606 75.631586 23.096906 80.001149 23.096906 C 84.370711 23.096906 87.910411 26.636606 87.910411 31.006169 " transform="matrix(0.993199, 0, 0, -0.993199, 0.000000000000003886, 150.103878)"/>
<path fill="none" stroke-width="0.8" stroke-linecap="butt" stroke-linejoin="round" stroke="rgb(100%, 0%, 0%)" stroke-opacity="1" stroke-miterlimit="10" d="M 71.895236 31.006169 C 71.895236 35.363933 68.359469 38.8997 64.001706 38.8997 C 59.640009 38.8997 56.104242 35.363933 56.104242 31.006169 C 56.104242 26.644472 59.640009 23.108705 64.001706 23.108705 C 68.359469 23.108705 71.895236 26.644472 71.895236 31.006169 " transform="matrix(0.993199, 0, 0, -0.993199, 0.000000000000003886, 150.103878)"/>
<path fill="none" stroke-width="0.8" stroke-linecap="butt" stroke-linejoin="round" stroke="rgb(100%, 0%, 0%)" stroke-opacity="1" stroke-miterlimit="10" d="M 63.895515 17.150211 C 63.895515 21.507975 60.359748 25.043741 55.998051 25.043741 C 51.640287 25.043741 48.10452 21.507975 48.10452 17.150211 C 48.10452 12.788514 51.640287 9.252747 55.998051 9.252747 C 60.359748 9.252747 63.895515 12.788514 63.895515 17.150211 " transform="matrix(0.993199, 0, 0, -0.993199, 0.000000000000003886, 150.103878)"/>
<path fill="none" stroke-width="0.8" stroke-linecap="butt" stroke-linejoin="round" stroke="rgb(100%, 0%, 0%)" stroke-opacity="1" stroke-miterlimit="10" d="M 47.848875 17.150211 C 47.848875 21.484377 44.336707 25.000478 39.998608 25.000478 C 35.664442 25.000478 32.14834 21.484377 32.14834 17.150211 C 32.14834 12.812112 35.664442 9.299943 39.998608 9.299943 C 44.336707 9.299943 47.848875 12.812112 47.848875 17.150211 " transform="matrix(0.993199, 0, 0, -0.993199, 0.000000000000003886, 150.103878)"/>
<path fill="none" stroke-width="0.8" stroke-linecap="butt" stroke-linejoin="round" stroke="rgb(100%, 0%, 0%)" stroke-opacity="1" stroke-miterlimit="10" d="M 39.892417 31.006169 C 39.892417 35.363933 36.360583 38.8997 31.998886 38.8997 C 27.641122 38.8997 24.105356 35.363933 24.105356 31.006169 C 24.105356 26.644472 27.641122 23.112638 31.998886 23.112638 C 36.360583 23.112638 39.892417 26.644472 39.892417 31.006169 " transform="matrix(0.993199, 0, 0, -0.993199, 0.000000000000003886, 150.103878)"/>
<path fill="none" stroke-width="0.8" stroke-linecap="butt" stroke-linejoin="round" stroke="rgb(100%, 0%, 0%)" stroke-opacity="1" stroke-miterlimit="10" d="M 24.105356 31.006169 C 24.105356 35.481923 20.475197 39.112082 15.999443 39.112082 C 11.523689 39.112082 7.893531 35.481923 7.893531 31.006169 C 7.893531 26.526482 11.523689 22.900256 15.999443 22.900256 C 20.475197 22.900256 24.105356 26.526482 24.105356 31.006169 " transform="matrix(0.993199, 0, 0, -0.993199, 0.000000000000003886, 150.103878)"/>
<path fill="none" stroke-width="0.8" stroke-linecap="butt" stroke-linejoin="round" stroke="rgb(100%, 0%, 0%)" stroke-opacity="1" stroke-miterlimit="10" d="M 15.893252 44.862127 C 15.893252 49.219891 12.361418 52.755658 7.999722 52.755658 C 3.641958 52.755658 0.106191 49.219891 0.106191 44.862127 C 0.106191 40.500431 3.641958 36.968597 7.999722 36.968597 C 12.361418 36.968597 15.893252 40.500431 15.893252 44.862127 " transform="matrix(0.993199, 0, 0, -0.993199, 0.000000000000003886, 150.103878)"/>
<path fill="none" stroke-width="0.8" stroke-linecap="butt" stroke-linejoin="round" stroke="rgb(100%, 0%, 0%)" stroke-opacity="1" stroke-miterlimit="10" d="M 23.849711 58.718086 C 23.849711 63.052251 20.337542 66.568353 15.999443 66.568353 C 11.665277 66.568353 8.149176 63.052251 8.149176 58.718086 C 8.149176 54.38392 11.665277 50.867818 15.999443 50.867818 C 20.337542 50.867818 23.849711 54.38392 23.849711 58.718086 " transform="matrix(0.993199, 0, 0, -0.993199, 0.000000000000003886, 150.103878)"/>
<path fill="none" stroke-width="0.8" stroke-linecap="butt" stroke-linejoin="round" stroke="rgb(100%, 0%, 0%)" stroke-opacity="1" stroke-miterlimit="10" d="M 16.15283 72.574044 C 16.15283 77.077329 12.503006 80.727152 7.999722 80.727152 C 3.50037 80.727152 -0.149454 77.077329 -0.149454 72.574044 C -0.149454 68.074692 3.50037 64.424868 7.999722 64.424868 C 12.503006 64.424868 16.15283 68.074692 16.15283 72.574044 " transform="matrix(0.993199, 0, 0, -0.993199, 0.000000000000003886, 150.103878)"/>
<path fill="none" stroke-width="0.8" stroke-linecap="butt" stroke-linejoin="round" stroke="rgb(100%, 0%, 0%)" stroke-opacity="1" stroke-miterlimit="10" d="M 16.15283 100.289893 C 16.15283 104.789245 12.503006 108.439069 7.999722 108.439069 C 3.496437 108.439069 -0.153387 104.789245 -0.153387 100.289893 C -0.153387 95.786609 3.496437 92.136785 7.999722 92.136785 C 12.503006 92.136785 16.15283 95.786609 16.15283 100.289893 " transform="matrix(0.993199, 0, 0, -0.993199, 0.000000000000003886, 150.103878)"/>
<path fill="none" stroke-width="0.8" stroke-linecap="butt" stroke-linejoin="round" stroke="rgb(100%, 0%, 0%)" stroke-opacity="1" stroke-miterlimit="10" d="M 24.050294 114.145852 C 24.050294 118.590141 20.447666 122.196702 15.999443 122.196702 C 11.555153 122.196702 7.948593 118.590141 7.948593 114.145852 C 7.948593 109.697629 11.555153 106.091068 15.999443 106.091068 C 20.447666 106.091068 24.050294 109.697629 24.050294 114.145852 " transform="matrix(0.993199, 0, 0, -0.993199, 0.000000000000003886, 150.103878)"/>
<path fill="none" stroke-width="0.8" stroke-linecap="butt" stroke-linejoin="round" stroke="rgb(100%, 0%, 0%)" stroke-opacity="1" stroke-miterlimit="10" d="M 15.948314 128.00181 C 15.948314 132.391038 12.388949 135.946469 7.999722 135.946469 C 3.610494 135.946469 0.051129 132.391038 0.051129 128.00181 C 0.051129 123.608649 3.610494 120.053217 7.999722 120.053217 C 12.388949 120.053217 15.948314 123.608649 15.948314 128.00181 " transform="matrix(0.993199, 0, 0, -0.993199, 0.000000000000003886, 150.103878)"/>
<g clip-path="url(#clip-4)">
<path fill="none" stroke-width="0.8" stroke-linecap="butt" stroke-linejoin="round" stroke="rgb(100%, 0%, 0%)" stroke-opacity="1" stroke-miterlimit="10" d="M 24.054227 141.857768 C 24.054227 146.302058 20.447666 149.908619 15.999443 149.908619 C 11.55122 149.908619 7.94466 146.302058 7.94466 141.857768 C 7.94466 137.409545 11.55122 133.802984 15.999443 133.802984 C 20.447666 133.802984 24.054227 137.409545 24.054227 141.857768 " transform="matrix(0.993199, 0, 0, -0.993199, 0.000000000000003886, 150.103878)"/>
</g>
<g clip-path="url(#clip-5)">
<path fill="none" stroke-width="0.8" stroke-linecap="butt" stroke-linejoin="round" stroke="rgb(100%, 0%, 0%)" stroke-opacity="1" stroke-miterlimit="10" d="M 40.05367 141.857768 C 40.05367 146.302058 36.447109 149.908619 31.998886 149.908619 C 27.550664 149.908619 23.948036 146.302058 23.948036 141.857768 C 23.948036 137.409545 27.550664 133.802984 31.998886 133.802984 C 36.447109 133.802984 40.05367 137.409545 40.05367 141.857768 " transform="matrix(0.993199, 0, 0, -0.993199, 0.000000000000003886, 150.103878)"/>
</g>
</svg>
