<?xml version="1.0" encoding="UTF-8"?>
<svg xmlns="http://www.w3.org/2000/svg" xmlns:xlink="http://www.w3.org/1999/xlink" width="145.007" height="142.66659" viewBox="0 0 145.007 142.66659">
<path fill="none" stroke-width="0.8" stroke-linecap="butt" stroke-linejoin="round" stroke="rgb(0%, 0%, 54.499817%)" stroke-opacity="1" stroke-miterlimit="10" d="M 23.999165 128.00181 L 47.998329 114.145852 " transform="matrix(0.993199, 0, 0, -0.993199, 0.000000000000003886, 150.103878)"/>
<path fill="none" stroke-width="0.8" stroke-linecap="butt" stroke-linejoin="round" stroke="rgb(0%, 0%, 54.499817%)" stroke-opacity="1" stroke-miterlimit="10" d="M 47.998329 114.145852 L 72.001427 128.00181 " transform="matrix(0.993199, 0, 0, -0.993199, 0.000000000000003886, 150.103878)"/>
<path fill="none" stroke-width="0.8" stroke-linecap="butt" stroke-linejoin="round" stroke="rgb(0%, 0%, 54.499817%)" stroke-opacity="1" stroke-miterlimit="10" d="M 23.999165 128.00181 L 23.999165 100.28596 " transform="matrix(0.993199, 0, 0, -0.993199, 0.000000000000003886, 150.103878)"/>
<path fill="none" stroke-width="0.8" stroke-linecap="butt" stroke-linejoin="round" stroke="rgb(0%, 0%, 54.499817%)" stroke-opacity="1" stroke-miterlimit="10" d="M 23.999165 100.28596 L 47.998329 114.145852 " transform="matrix(0.993199, 0, 0, -0.993199, 0.000000000000003886, 150.103878)"/>
<path fill="none" stroke-width="0.8" stroke-linecap="butt" stroke-linejoin="round" stroke="rgb(0%, 0%, 54.499817%)" stroke-opacity="1" stroke-miterlimit="10" d="M 47.998329 114.145852 L 47.998329 86.430002 " transform="matrix(0.993199, 0, 0, -0.993199, 0.000000000000003886, 150.103878)"/>
<path fill="none" stroke-width="0.8" stroke-linecap="butt" stroke-linejoin="round" stroke="rgb(0%, 0%, 54.499817%)" stroke-opacity="1" stroke-miterlimit="10" d="M 47.998329 86.430002 L 23.999165 100.28596 " transform="matrix(0.993199, 0, 0, -0.993199, 0.000000000000003886, 150.103878)"/>
<path fill="none" stroke-width="0.8" stroke-linecap="butt" stroke-linejoin="round" stroke="rgb(0%, 0%, 54.499817%)" stroke-opacity="1" stroke-miterlimit="10" d="M 23.999165 100.28596 L 23.999165 72.574044 " transform="matrix(0.993199, 0, 0, -0.993199, 0.000000000000003886, 150.103878)"/>
<path fill="none" stroke-width="0.8" stroke-linecap="butt" stroke-linejoin="round" stroke="rgb(0%, 0%, 54.499817%)" stroke-opacity="1" stroke-miterlimit="10" d="M 47.998329 86.430002 L 47.998329 58.718086 L 23.999165 72.574044 " transform="matrix(0.993199, 0, 0, -0.993199, 0.000000000000003886, 150.103878)"/>
<path fill="none" stroke-width="0.8" stroke-linecap="butt" stroke-linejoin="round" stroke="rgb(0%, 0%, 54.499817%)" stroke-opacity="1" stroke-miterlimit="10" d="M 23.999165 72.574044 L 23.999165 44.862127 " transform="matrix(0.993199, 0, 0, -0.993199, 0.000000000000003886, 150.103878)"/>
<path fill="none" stroke-width="0.8" stroke-linecap="butt" stroke-linejoin="round" stroke="rgb(0%, 0%, 54.499817%)" stroke-opacity="1" stroke-miterlimit="10" d="M 47.998329 31.006169 L 23.999165 44.862127 " transform="matrix(0.993199, 0, 0, -0.993199, 0.000000000000003886, 150.103878)"/>
<path fill="none" stroke-width="0.8" stroke-linecap="butt" stroke-linejoin="round" stroke="rgb(0%, 0%, 54.499817%)" stroke-opacity="1" stroke-miterlimit="10" d="M 23.999165 44.862127 L 47.998329 58.718086 " transform="matrix(0.993199, 0, 0, -0.993199, 0.000000000000003886, 150.103878)"/>
<path fill="none" stroke-width="0.8" stroke-linecap="butt" stroke-linejoin="round" stroke="rgb(0%, 0%, 54.499817%)" stroke-opacity="1" stroke-miterlimit="10" d="M 47.998329 58.718086 L 72.001427 44.862127 " transform="matrix(0.993199, 0, 0, -0.993199, 0.000000000000003886, 150.103878)"/>
<path fill="none" stroke-width="0.8" stroke-linecap="butt" stroke-linejoin="round" stroke="rgb(0%, 0%, 54.499817%)" stroke-opacity="1" stroke-miterlimit="10" d="M 72.001427 44.862127 L 47.998329 31.006169 " transform="matrix(0.993199, 0, 0, -0.993199, 0.000000000000003886, 150.103878)"/>
<path fill="none" stroke-width="0.8" stroke-linecap="butt" stroke-linejoin="round" stroke="rgb(0%, 0%, 54.499817%)" stroke-opacity="1" stroke-miterlimit="10" d="M 47.998329 31.006169 L 47.998329 58.718086 " transform="matrix(0.993199, 0, 0, -0.993199, 0.000000000000003886, 150.103878)"/>
<path fill="none" stroke-width="0.8" stroke-linecap="butt" stroke-linejoin="round" stroke="rgb(0%, 0%, 54.499817%)" stroke-opacity="1" stroke-miterlimit="10" d="M 23.999165 72.574044 L 47.998329 86.430002 " transform="matrix(0.993199, 0, 0, -0.993199, 0.000000000000003886, 150.103878)"/>
<path fill="none" stroke-width="0.8" stroke-linecap="butt" stroke-linejoin="round" stroke="rgb(0%, 0%, 54.499817%)" stroke-opacity="1" stroke-miterlimit="10" d="M 47.998329 114.145852 L 72.001427 100.28596 L 47.998329 86.430002 " transform="matrix(0.993199, 0, 0, -0.993199, 0.000000000000003886, 150.103878)"/>
<path fill="none" stroke-width="0.8" stroke-linecap="butt" stroke-linejoin="round" stroke="rgb(0%, 0%, 54.499817%)" stroke-opacity="1" stroke-miterlimit="10" d="M 47.998329 86.430002 L 72.001427 72.574044 L 47.998329 58.718086 " transform="matrix(0.993199, 0, 0, -0.993199, 0.000000000000003886, 150.103878)"/>
<path fill="none" stroke-width="0.8" stroke-linecap="butt" stroke-linejoin="round" stroke="rgb(0%, 0%, 54.499817%)" stroke-opacity="1" stroke-miterlimit="10" d="M 72.001427 72.574044 L 72.001427 44.862127 " transform="matrix(0.993199, 0, 0, -0.993199, 0.000000000000003886, 150.103878)"/>
<path fill="none" stroke-width="0.8" stroke-linecap="butt" stroke-linejoin="round" stroke="rgb(0%, 0%, 54.499817%)" stroke-opacity="1" stroke-miterlimit="10" d="M 72.001427 44.862127 L 96.000592 31.006169 " transform="matrix(0.993199, 0, 0, -0.993199, 0.000000000000003886, 150.103878)"/>
<path fill="none" stroke-width="0.8" stroke-linecap="butt" stroke-linejoin="round" stroke="rgb(0%, 0%, 54.499817%)" stroke-opacity="1" stroke-miterlimit="10" d="M 96.000592 31.006169 L 96.000592 58.718086 L 72.001427 44.862127 " transform="matrix(0.993199, 0, 0, -0.993199, 0.000000000000003886, 150.103878)"/>
<path fill="none" stroke-width="0.8" stroke-linecap="butt" stroke-linejoin="round" stroke="rgb(0%, 0%, 54.499817%)" stroke-opacity="1" stroke-miterlimit="10" d="M 72.001427 72.574044 L 96.000592 58.718086 " transform="matrix(0.993199, 0, 0, -0.993199, 0.000000000000003886, 150.103878)"/>
<path fill="none" stroke-width="0.8" stroke-linecap="butt" stroke-linejoin="round" stroke="rgb(0%, 0%, 54.499817%)" stroke-opacity="1" stroke-miterlimit="10" d="M 96.000592 58.718086 L 96.000592 86.430002 " transform="matrix(0.993199, 0, 0, -0.993199, 0.000000000000003886, 150.103878)"/>
<path fill="none" stroke-width="0.8" stroke-linecap="butt" stroke-linejoin="round" stroke="rgb(0%, 0%, 54.499817%)" stroke-opacity="1" stroke-miterlimit="10" d="M 72.001427 100.28596 L 96.000592 86.430002 " transform="matrix(0.993199, 0, 0, -0.993199, 0.000000000000003886, 150.103878)"/>
<path fill="none" stroke-width="0.8" stroke-linecap="butt" stroke-linejoin="round" stroke="rgb(0%, 0%, 54.499817%)" stroke-opacity="1" stroke-miterlimit="10" d="M 96.000592 86.430002 L 72.001427 72.574044 " transform="matrix(0.993199, 0, 0, -0.993199, 0.000000000000003886, 150.103878)"/>
<path fill="none" stroke-width="0.8" stroke-linecap="butt" stroke-linejoin="round" stroke="rgb(0%, 0%, 54.499817%)" stroke-opacity="1" stroke-miterlimit="10" d="M 72.001427 72.574044 L 72.001427 100.28596 " transform="matrix(0.993199, 0, 0, -0.993199, 0.000000000000003886, 150.103878)"/>
<path fill="none" stroke-width="0.8" stroke-linecap="butt" stroke-linejoin="round" stroke="rgb(0%, 0%, 54.499817%)" stroke-opacity="1" stroke-miterlimit="10" d="M 72.001427 100.28596 L 72.001427 128.00181 " transform="matrix(0.993199, 0, 0, -0.993199, 0.000000000000003886, 150.103878)"/>
<path fill="none" stroke-width="0.8" stroke-linecap="butt" stroke-linejoin="round" stroke="rgb(0%, 0%, 54.499817%)" stroke-opacity="1" stroke-miterlimit="10" d="M 72.001427 128.00181 L 96.000592 114.145852 " transform="matrix(0.993199, 0, 0, -0.993199, 0.000000000000003886, 150.103878)"/>
<path fill="none" stroke-width="0.8" stroke-linecap="butt" stroke-linejoin="round" stroke="rgb(0%, 0%, 54.499817%)" stroke-opacity="1" stroke-miterlimit="10" d="M 96.000592 114.145852 L 96.000592 86.430002 " transform="matrix(0.993199, 0, 0, -0.993199, 0.000000000000003886, 150.103878)"/>
<path fill="none" stroke-width="0.8" stroke-linecap="butt" stroke-linejoin="round" stroke="rgb(0%, 0%, 54.499817%)" stroke-opacity="1" stroke-miterlimit="10" d="M 96.000592 86.430002 L 119.999756 100.28596 " transform="matrix(0.993199, 0, 0, -0.993199, 0.000000000000003886, 150.103878)"/>
<path fill="none" stroke-width="0.8" stroke-linecap="butt" stroke-linejoin="round" stroke="rgb(0%, 0%, 54.499817%)" stroke-opacity="1" stroke-miterlimit="10" d="M 119.999756 100.28596 L 96.000592 114.145852 " transform="matrix(0.993199, 0, 0, -0.993199, 0.000000000000003886, 150.103878)"/>
<path fill="none" stroke-width="0.8" stroke-linecap="butt" stroke-linejoin="round" stroke="rgb(0%, 0%, 54.499817%)" stroke-opacity="1" stroke-miterlimit="10" d="M 96.000592 114.145852 L 119.999756 128.00181 L 119.999756 100.28596 " transform="matrix(0.993199, 0, 0, -0.993199, 0.000000000000003886, 150.103878)"/>
<path fill="none" stroke-width="0.8" stroke-linecap="butt" stroke-linejoin="round" stroke="rgb(0%, 0%, 54.499817%)" stroke-opacity="1" stroke-miterlimit="10" d="M 119.999756 100.28596 L 119.999756 72.574044 " transform="matrix(0.993199, 0, 0, -0.993199, 0.000000000000003886, 150.103878)"/>
<path fill="none" stroke-width="0.8" stroke-linecap="butt" stroke-linejoin="round" stroke="rgb(0%, 0%, 54.499817%)" stroke-opacity="1" stroke-miterlimit="10" d="M 119.999756 72.574044 L 96.000592 86.430002 " transform="matrix(0.993199, 0, 0, -0.993199, 0.000000000000003886, 150.103878)"/>
<path fill="none" stroke-width="0.8" stroke-linecap="round" stroke-linejoin="round" stroke="rgb(0%, 0%, 54.499817%)" stroke-opacity="1" stroke-miterlimit="10" d="M 96.000592 86.430002 L 96.000592 86.430002 " transform="matrix(0.993199, 0, 0, -0.993199, 0.000000000000003886, 150.103878)"/>
<path fill="none" stroke-width="0.8" stroke-linecap="butt" stroke-linejoin="round" stroke="rgb(0%, 0%, 54.499817%)" stroke-opacity="1" stroke-miterlimit="10" d="M 96.000592 58.718086 L 119.999756 72.574044 " transform="matrix(0.993199, 0, 0, -0.993199, 0.000000000000003886, 150.103878)"/>
<path fill="none" stroke-width="0.8" stroke-linecap="butt" stroke-linejoin="round" stroke="rgb(0%, 0%, 54.499817%)" stroke-opacity="1" stroke-miterlimit="10" d="M 119.999756 72.574044 L 119.999756 44.862127 L 96.000592 58.718086 " transform="matrix(0.993199, 0, 0, -0.993199, 0.000000000000003886, 150.103878)"/>
<path fill="none" stroke-width="0.8" stroke-linecap="butt" stroke-linejoin="round" stroke="rgb(0%, 0%, 54.499817%)" stroke-opacity="1" stroke-miterlimit="10" d="M 119.999756 44.862127 L 96.000592 31.006169 " transform="matrix(0.993199, 0, 0, -0.993199, 0.000000000000003886, 150.103878)"/>
<path fill-rule="evenodd" fill="rgb(100%, 100%, 0%)" fill-opacity="1" stroke-width="0.8" stroke-linecap="butt" stroke-linejoin="round" stroke="rgb(0%, 0%, 54.499817%)" stroke-opacity="1" stroke-miterlimit="10" d="M 72.001427 100.28596 L 96.000592 114.145852 " transform="matrix(0.993199, 0, 0, -0.993199, 0.000000000000003886, 150.103878)"/>
<path fill-rule="evenodd" fill="rgb(67.799377%, 84.698486%, 90.19928%)" fill-opacity="1" d="M 22.347656 24.464844 L 25.328125 24.464844 L 25.328125 21.484375 L 22.347656 21.484375 Z M 22.347656 24.464844 "/>
<path fill-rule="evenodd" fill="rgb(0%, 0%, 0%)" fill-opacity="1" d="M 22.050781 24.761719 L 25.625 24.761719 L 25.625 21.1875 L 22.050781 21.1875 Z M 22.644531 24.167969 L 25.027344 24.167969 L 25.027344 21.78125 L 22.644531 21.78125 Z M 22.644531 24.167969 "/>
<path fill-rule="evenodd" fill="rgb(67.799377%, 84.698486%, 90.19928%)" fill-opacity="1" d="M 22.347656 51.988281 L 25.328125 51.988281 L 25.328125 49.007812 L 22.347656 49.007812 Z M 22.347656 51.988281 "/>
<path fill-rule="evenodd" fill="rgb(0%, 0%, 0%)" fill-opacity="1" d="M 22.050781 52.285156 L 25.625 52.285156 L 25.625 48.710938 L 22.050781 48.710938 Z M 22.644531 51.691406 L 25.027344 51.691406 L 25.027344 49.308594 L 22.644531 49.308594 Z M 22.644531 51.691406 "/>
<path fill-rule="evenodd" fill="rgb(67.799377%, 84.698486%, 90.19928%)" fill-opacity="1" d="M 22.347656 79.511719 L 25.328125 79.511719 L 25.328125 76.535156 L 22.347656 76.535156 Z M 22.347656 79.511719 "/>
<path fill-rule="evenodd" fill="rgb(0%, 0%, 0%)" fill-opacity="1" d="M 22.050781 79.8125 L 25.625 79.8125 L 25.625 76.234375 L 22.050781 76.234375 Z M 22.644531 79.214844 L 25.027344 79.214844 L 25.027344 76.832031 L 22.644531 76.832031 Z M 22.644531 79.214844 "/>
<path fill-rule="evenodd" fill="rgb(67.799377%, 84.698486%, 90.19928%)" fill-opacity="1" d="M 22.347656 107.039062 L 25.328125 107.039062 L 25.328125 104.058594 L 22.347656 104.058594 Z M 22.347656 107.039062 "/>
<path fill-rule="evenodd" fill="rgb(0%, 0%, 0%)" fill-opacity="1" d="M 22.050781 107.335938 L 25.625 107.335938 L 25.625 103.757812 L 22.050781 103.757812 Z M 22.644531 106.738281 L 25.027344 106.738281 L 25.027344 104.355469 L 22.644531 104.355469 Z M 22.644531 106.738281 "/>
<path fill-rule="evenodd" fill="rgb(67.799377%, 84.698486%, 90.19928%)" fill-opacity="1" d="M 46.183594 38.226562 L 49.164062 38.226562 L 49.164062 35.246094 L 46.183594 35.246094 Z M 46.183594 38.226562 "/>
<path fill-rule="evenodd" fill="rgb(0%, 0%, 0%)" fill-opacity="1" d="M 45.886719 38.523438 L 49.460938 38.523438 L 49.460938 34.949219 L 45.886719 34.949219 Z M 46.480469 37.929688 L 48.867188 37.929688 L 48.867188 35.542969 L 46.480469 35.542969 Z M 46.480469 37.929688 "/>
<path fill-rule="evenodd" fill="rgb(67.799377%, 84.698486%, 90.19928%)" fill-opacity="1" d="M 46.183594 65.75 L 49.164062 65.75 L 49.164062 62.769531 L 46.183594 62.769531 Z M 46.183594 65.75 "/>
<path fill-rule="evenodd" fill="rgb(0%, 0%, 0%)" fill-opacity="1" d="M 45.886719 66.046875 L 49.460938 66.046875 L 49.460938 62.472656 L 45.886719 62.472656 Z M 46.480469 65.453125 L 48.867188 65.453125 L 48.867188 63.070312 L 46.480469 63.070312 Z M 46.480469 65.453125 "/>
<path fill-rule="evenodd" fill="rgb(67.799377%, 84.698486%, 90.19928%)" fill-opacity="1" d="M 46.183594 93.273438 L 49.164062 93.273438 L 49.164062 90.296875 L 46.183594 90.296875 Z M 46.183594 93.273438 "/>
<path fill-rule="evenodd" fill="rgb(0%, 0%, 0%)" fill-opacity="1" d="M 45.886719 93.574219 L 49.460938 93.574219 L 49.460938 89.996094 L 45.886719 89.996094 Z M 46.480469 92.976562 L 48.867188 92.976562 L 48.867188 90.59375 L 46.480469 90.59375 Z M 46.480469 92.976562 "/>
<path fill-rule="evenodd" fill="rgb(67.799377%, 84.698486%, 90.19928%)" fill-opacity="1" d="M 46.183594 120.800781 L 49.164062 120.800781 L 49.164062 117.820312 L 46.183594 117.820312 Z M 46.183594 120.800781 "/>
<path fill-rule="evenodd" fill="rgb(0%, 0%, 0%)" fill-opacity="1" d="M 45.886719 121.097656 L 49.460938 121.097656 L 49.460938 117.523438 L 45.886719 117.523438 Z M 46.480469 120.5 L 48.867188 120.5 L 48.867188 118.117188 L 46.480469 118.117188 Z M 46.480469 120.5 "/>
<path fill-rule="evenodd" fill="rgb(67.799377%, 84.698486%, 90.19928%)" fill-opacity="1" d="M 70.019531 24.464844 L 73 24.464844 L 73 21.484375 L 70.019531 21.484375 Z M 70.019531 24.464844 "/>
<path fill-rule="evenodd" fill="rgb(0%, 0%, 0%)" fill-opacity="1" d="M 69.722656 24.761719 L 73.296875 24.761719 L 73.296875 21.1875 L 69.722656 21.1875 Z M 70.320312 24.167969 L 72.703125 24.167969 L 72.703125 21.78125 L 70.320312 21.78125 Z M 70.320312 24.167969 "/>
<path fill-rule="evenodd" fill="rgb(67.799377%, 84.698486%, 90.19928%)" fill-opacity="1" d="M 70.019531 51.988281 L 73 51.988281 L 73 49.007812 L 70.019531 49.007812 Z M 70.019531 51.988281 "/>
<path fill-rule="evenodd" fill="rgb(0%, 0%, 0%)" fill-opacity="1" d="M 69.722656 52.285156 L 73.296875 52.285156 L 73.296875 48.710938 L 69.722656 48.710938 Z M 70.320312 51.691406 L 72.703125 51.691406 L 72.703125 49.308594 L 70.320312 49.308594 Z M 70.320312 51.691406 "/>
<path fill-rule="evenodd" fill="rgb(67.799377%, 84.698486%, 90.19928%)" fill-opacity="1" d="M 70.019531 79.511719 L 73 79.511719 L 73 76.535156 L 70.019531 76.535156 Z M 70.019531 79.511719 "/>
<path fill-rule="evenodd" fill="rgb(0%, 0%, 0%)" fill-opacity="1" d="M 69.722656 79.8125 L 73.296875 79.8125 L 73.296875 76.234375 L 69.722656 76.234375 Z M 70.320312 79.214844 L 72.703125 79.214844 L 72.703125 76.832031 L 70.320312 76.832031 Z M 70.320312 79.214844 "/>
<path fill-rule="evenodd" fill="rgb(67.799377%, 84.698486%, 90.19928%)" fill-opacity="1" d="M 70.019531 107.039062 L 73 107.039062 L 73 104.058594 L 70.019531 104.058594 Z M 70.019531 107.039062 "/>
<path fill-rule="evenodd" fill="rgb(0%, 0%, 0%)" fill-opacity="1" d="M 69.722656 107.335938 L 73.296875 107.335938 L 73.296875 103.757812 L 69.722656 103.757812 Z M 70.320312 106.738281 L 72.703125 106.738281 L 72.703125 104.355469 L 70.320312 104.355469 Z M 70.320312 106.738281 "/>
<path fill-rule="evenodd" fill="rgb(67.799377%, 84.698486%, 90.19928%)" fill-opacity="1" d="M 93.855469 38.226562 L 96.835938 38.226562 L 96.835938 35.246094 L 93.855469 35.246094 Z M 93.855469 38.226562 "/>
<path fill-rule="evenodd" fill="rgb(0%, 0%, 0%)" fill-opacity="1" d="M 93.558594 38.523438 L 97.136719 38.523438 L 97.136719 34.949219 L 93.558594 34.949219 Z M 94.15625 37.929688 L 96.539062 37.929688 L 96.539062 35.542969 L 94.15625 35.542969 Z M 94.15625 37.929688 "/>
<path fill-rule="evenodd" fill="rgb(67.799377%, 84.698486%, 90.19928%)" fill-opacity="1" d="M 93.855469 65.75 L 96.835938 65.75 L 96.835938 62.769531 L 93.855469 62.769531 Z M 93.855469 65.75 "/>
<path fill-rule="evenodd" fill="rgb(0%, 0%, 0%)" fill-opacity="1" d="M 93.558594 66.046875 L 97.136719 66.046875 L 97.136719 62.472656 L 93.558594 62.472656 Z M 94.15625 65.453125 L 96.539062 65.453125 L 96.539062 63.070312 L 94.15625 63.070312 Z M 94.15625 65.453125 "/>
<path fill-rule="evenodd" fill="rgb(67.799377%, 84.698486%, 90.19928%)" fill-opacity="1" d="M 93.855469 93.273438 L 96.835938 93.273438 L 96.835938 90.296875 L 93.855469 90.296875 Z M 93.855469 93.273438 "/>
<path fill-rule="evenodd" fill="rgb(0%, 0%, 0%)" fill-opacity="1" d="M 93.558594 93.574219 L 97.136719 93.574219 L 97.136719 89.996094 L 93.558594 89.996094 Z M 94.15625 92.976562 L 96.539062 92.976562 L 96.539062 90.59375 L 94.15625 90.59375 Z M 94.15625 92.976562 "/>
<path fill-rule="evenodd" fill="rgb(67.799377%, 84.698486%, 90.19928%)" fill-opacity="1" d="M 93.855469 120.800781 L 96.835938 120.800781 L 96.835938 117.820312 L 93.855469 117.820312 Z M 93.855469 120.800781 "/>
<path fill-rule="evenodd" fill="rgb(0%, 0%, 0%)" fill-opacity="1" d="M 93.558594 121.097656 L 97.136719 121.097656 L 97.136719 117.523438 L 93.558594 117.523438 Z M 94.15625 120.5 L 96.539062 120.5 L 96.539062 118.117188 L 94.15625 118.117188 Z M 94.15625 120.5 "/>
<path fill-rule="evenodd" fill="rgb(67.799377%, 84.698486%, 90.19928%)" fill-opacity="1" d="M 117.695312 24.464844 L 120.671875 24.464844 L 120.671875 21.484375 L 117.695312 21.484375 Z M 117.695312 24.464844 "/>
<path fill-rule="evenodd" fill="rgb(0%, 0%, 0%)" fill-opacity="1" d="M 117.394531 24.761719 L 120.972656 24.761719 L 120.972656 21.1875 L 117.394531 21.1875 Z M 117.992188 24.167969 L 120.375 24.167969 L 120.375 21.78125 L 117.992188 21.78125 Z M 117.992188 24.167969 "/>
<path fill-rule="evenodd" fill="rgb(67.799377%, 84.698486%, 90.19928%)" fill-opacity="1" d="M 117.695312 51.988281 L 120.671875 51.988281 L 120.671875 49.007812 L 117.695312 49.007812 Z M 117.695312 51.988281 "/>
<path fill-rule="evenodd" fill="rgb(0%, 0%, 0%)" fill-opacity="1" d="M 117.394531 52.285156 L 120.972656 52.285156 L 120.972656 48.710938 L 117.394531 48.710938 Z M 117.992188 51.691406 L 120.375 51.691406 L 120.375 49.308594 L 117.992188 49.308594 Z M 117.992188 51.691406 "/>
<path fill-rule="evenodd" fill="rgb(67.799377%, 84.698486%, 90.19928%)" fill-opacity="1" d="M 117.695312 79.511719 L 120.671875 79.511719 L 120.671875 76.535156 L 117.695312 76.535156 Z M 117.695312 79.511719 "/>
<path fill-rule="evenodd" fill="rgb(0%, 0%, 0%)" fill-opacity="1" d="M 117.394531 79.8125 L 120.972656 79.8125 L 120.972656 76.234375 L 117.394531 76.234375 Z M 117.992188 79.214844 L 120.375 79.214844 L 120.375 76.832031 L 117.992188 76.832031 Z M 117.992188 79.214844 "/>
<path fill-rule="evenodd" fill="rgb(67.799377%, 84.698486%, 90.19928%)" fill-opacity="1" d="M 117.695312 107.039062 L 120.671875 107.039062 L 120.671875 104.058594 L 117.695312 104.058594 Z M 117.695312 107.039062 "/>
<path fill-rule="evenodd" fill="rgb(0%, 0%, 0%)" fill-opacity="1" d="M 117.394531 107.335938 L 120.972656 107.335938 L 120.972656 103.757812 L 117.394531 103.757812 Z M 117.992188 106.738281 L 120.375 106.738281 L 120.375 104.355469 L 117.992188 104.355469 Z M 117.992188 106.738281 "/>
</svg>
