<?xml version="1.0" encoding="UTF-8"?>
<svg xmlns="http://www.w3.org/2000/svg" xmlns:xlink="http://www.w3.org/1999/xlink" width="145.007" height="142.66659" viewBox="0 0 145.007 142.66659">
<path fill="none" stroke-width="0.8" stroke-linecap="butt" stroke-linejoin="round" stroke="rgb(0%, 0%, 100%)" stroke-opacity="1" stroke-miterlimit="10" d="M 37.855123 128.00181 C 37.855123 135.651494 31.652782 141.857768 23.999165 141.857768 C 16.345547 141.857768 10.143206 135.651494 10.143206 128.00181 C 10.143206 120.348192 16.345547 114.145852 23.999165 114.145852 C 31.652782 114.145852 37.855123 120.348192 37.855123 128.00181 " transform="matrix(0.993199, 0, 0, -0.993199, 0.000000000000003886, 150.103878)"/>
<path fill="none" stroke-width="0.8" stroke-linecap="butt" stroke-linejoin="round" stroke="rgb(0%, 0%, 100%)" stroke-opacity="1" stroke-miterlimit="10" d="M 37.855123 100.28596 C 37.855123 107.939578 31.652782 114.145852 23.999165 114.145852 C 16.345547 114.145852 10.143206 107.939578 10.143206 100.28596 C 10.143206 92.636276 16.345547 86.430002 23.999165 86.430002 C 31.652782 86.430002 37.855123 92.636276 37.855123 100.28596 " transform="matrix(0.993199, 0, 0, -0.993199, 0.000000000000003886, 150.103878)"/>
<path fill="none" stroke-width="0.8" stroke-linecap="butt" stroke-linejoin="round" stroke="rgb(0%, 0%, 100%)" stroke-opacity="1" stroke-miterlimit="10" d="M 37.855123 72.574044 C 37.855123 80.227661 31.652782 86.430002 23.999165 86.430002 C 16.345547 86.430002 10.143206 80.227661 10.143206 72.574044 C 10.143206 64.920426 16.345547 58.718086 23.999165 58.718086 C 31.652782 58.718086 37.855123 64.920426 37.855123 72.574044 " transform="matrix(0.993199, 0, 0, -0.993199, 0.000000000000003886, 150.103878)"/>
<path fill="none" stroke-width="0.8" stroke-linecap="butt" stroke-linejoin="round" stroke="rgb(0%, 0%, 100%)" stroke-opacity="1" stroke-miterlimit="10" d="M 37.855123 44.862127 C 37.855123 52.515745 31.652782 58.718086 23.999165 58.718086 C 16.345547 58.718086 10.143206 52.515745 10.143206 44.862127 C 10.143206 37.20851 16.345547 31.006169 23.999165 31.006169 C 31.652782 31.006169 37.855123 37.20851 37.855123 44.862127 " transform="matrix(0.993199, 0, 0, -0.993199, 0.000000000000003886, 150.103878)"/>
<path fill="none" stroke-width="0.8" stroke-linecap="butt" stroke-linejoin="round" stroke="rgb(0%, 0%, 100%)" stroke-opacity="1" stroke-miterlimit="10" d="M 61.858221 114.145852 C 61.858221 121.795536 55.651947 128.00181 47.998329 128.00181 C 40.348645 128.00181 34.142371 121.795536 34.142371 114.145852 C 34.142371 106.492234 40.348645 100.28596 47.998329 100.28596 C 55.651947 100.28596 61.858221 106.492234 61.858221 114.145852 " transform="matrix(0.993199, 0, 0, -0.993199, 0.000000000000003886, 150.103878)"/>
<path fill="none" stroke-width="0.8" stroke-linecap="butt" stroke-linejoin="round" stroke="rgb(0%, 0%, 100%)" stroke-opacity="1" stroke-miterlimit="10" d="M 61.858221 86.430002 C 61.858221 94.08362 55.651947 100.28596 47.998329 100.28596 C 40.348645 100.28596 34.142371 94.08362 34.142371 86.430002 C 34.142371 78.776384 40.348645 72.574044 47.998329 72.574044 C 55.651947 72.574044 61.858221 78.776384 61.858221 86.430002 " transform="matrix(0.993199, 0, 0, -0.993199, 0.000000000000003886, 150.103878)"/>
<path fill="none" stroke-width="0.8" stroke-linecap="butt" stroke-linejoin="round" stroke="rgb(0%, 0%, 100%)" stroke-opacity="1" stroke-miterlimit="10" d="M 61.858221 58.718086 C 61.858221 66.371703 55.651947 72.574044 47.998329 72.574044 C 40.348645 72.574044 34.142371 66.371703 34.142371 58.718086 C 34.142371 51.064468 40.348645 44.862127 47.998329 44.862127 C 55.651947 44.862127 61.858221 51.064468 61.858221 58.718086 " transform="matrix(0.993199, 0, 0, -0.993199, 0.000000000000003886, 150.103878)"/>
<path fill="none" stroke-width="0.8" stroke-linecap="butt" stroke-linejoin="round" stroke="rgb(0%, 0%, 100%)" stroke-opacity="1" stroke-miterlimit="10" d="M 61.858221 31.006169 C 61.858221 38.659787 55.651947 44.862127 47.998329 44.862127 C 40.348645 44.862127 34.142371 38.659787 34.142371 31.006169 C 34.142371 23.352551 40.348645 17.150211 47.998329 17.150211 C 55.651947 17.150211 61.858221 23.352551 61.858221 31.006169 " transform="matrix(0.993199, 0, 0, -0.993199, 0.000000000000003886, 150.103878)"/>
<path fill="none" stroke-width="0.8" stroke-linecap="butt" stroke-linejoin="round" stroke="rgb(0%, 0%, 100%)" stroke-opacity="1" stroke-miterlimit="10" d="M 85.857385 128.00181 C 85.857385 135.651494 79.651112 141.857768 72.001427 141.857768 C 64.34781 141.857768 58.145469 135.651494 58.145469 128.00181 C 58.145469 120.348192 64.34781 114.145852 72.001427 114.145852 C 79.651112 114.145852 85.857385 120.348192 85.857385 128.00181 " transform="matrix(0.993199, 0, 0, -0.993199, 0.000000000000003886, 150.103878)"/>
<path fill="none" stroke-width="0.8" stroke-linecap="butt" stroke-linejoin="round" stroke="rgb(0%, 0%, 100%)" stroke-opacity="1" stroke-miterlimit="10" d="M 85.857385 100.28596 C 85.857385 107.939578 79.651112 114.145852 72.001427 114.145852 C 64.34781 114.145852 58.145469 107.939578 58.145469 100.28596 C 58.145469 92.636276 64.34781 86.430002 72.001427 86.430002 C 79.651112 86.430002 85.857385 92.636276 85.857385 100.28596 " transform="matrix(0.993199, 0, 0, -0.993199, 0.000000000000003886, 150.103878)"/>
<path fill="none" stroke-width="0.8" stroke-linecap="butt" stroke-linejoin="round" stroke="rgb(0%, 0%, 100%)" stroke-opacity="1" stroke-miterlimit="10" d="M 85.857385 72.574044 C 85.857385 80.227661 79.651112 86.430002 72.001427 86.430002 C 64.34781 86.430002 58.145469 80.227661 58.145469 72.574044 C 58.145469 64.920426 64.34781 58.718086 72.001427 58.718086 C 79.651112 58.718086 85.857385 64.920426 85.857385 72.574044 " transform="matrix(0.993199, 0, 0, -0.993199, 0.000000000000003886, 150.103878)"/>
<path fill="none" stroke-width="0.8" stroke-linecap="butt" stroke-linejoin="round" stroke="rgb(0%, 0%, 100%)" stroke-opacity="1" stroke-miterlimit="10" d="M 85.857385 44.862127 C 85.857385 52.515745 79.651112 58.718086 72.001427 58.718086 C 64.34781 58.718086 58.145469 52.515745 58.145469 44.862127 C 58.145469 37.20851 64.34781 31.006169 72.001427 31.006169 C 79.651112 31.006169 85.857385 37.20851 85.857385 44.862127 " transform="matrix(0.993199, 0, 0, -0.993199, 0.000000000000003886, 150.103878)"/>
<path fill="none" stroke-width="0.8" stroke-linecap="butt" stroke-linejoin="round" stroke="rgb(0%, 0%, 100%)" stroke-opacity="1" stroke-miterlimit="10" d="M 109.85655 114.145852 C 109.85655 121.795536 103.654209 128.00181 96.000592 128.00181 C 88.346974 128.00181 82.144634 121.795536 82.144634 114.145852 C 82.144634 106.492234 88.346974 100.28596 96.000592 100.28596 C 103.654209 100.28596 109.85655 106.492234 109.85655 114.145852 " transform="matrix(0.993199, 0, 0, -0.993199, 0.000000000000003886, 150.103878)"/>
<path fill="none" stroke-width="0.8" stroke-linecap="butt" stroke-linejoin="round" stroke="rgb(0%, 0%, 100%)" stroke-opacity="1" stroke-miterlimit="10" d="M 109.85655 86.430002 C 109.85655 94.08362 103.654209 100.28596 96.000592 100.28596 C 88.346974 100.28596 82.144634 94.08362 82.144634 86.430002 C 82.144634 78.776384 88.346974 72.574044 96.000592 72.574044 C 103.654209 72.574044 109.85655 78.776384 109.85655 86.430002 " transform="matrix(0.993199, 0, 0, -0.993199, 0.000000000000003886, 150.103878)"/>
<path fill="none" stroke-width="0.8" stroke-linecap="butt" stroke-linejoin="round" stroke="rgb(0%, 0%, 100%)" stroke-opacity="1" stroke-miterlimit="10" d="M 109.85655 58.718086 C 109.85655 66.371703 103.654209 72.574044 96.000592 72.574044 C 88.346974 72.574044 82.144634 66.371703 82.144634 58.718086 C 82.144634 51.064468 88.346974 44.862127 96.000592 44.862127 C 103.654209 44.862127 109.85655 51.064468 109.85655 58.718086 " transform="matrix(0.993199, 0, 0, -0.993199, 0.000000000000003886, 150.103878)"/>
<path fill="none" stroke-width="0.8" stroke-linecap="butt" stroke-linejoin="round" stroke="rgb(0%, 0%, 100%)" stroke-opacity="1" stroke-miterlimit="10" d="M 109.85655 31.006169 C 109.85655 38.659787 103.654209 44.862127 96.000592 44.862127 C 88.346974 44.862127 82.144634 38.659787 82.144634 31.006169 C 82.144634 23.352551 88.346974 17.150211 96.000592 17.150211 C 103.654209 17.150211 109.85655 23.352551 109.85655 31.006169 " transform="matrix(0.993199, 0, 0, -0.993199, 0.000000000000003886, 150.103878)"/>
<path fill="none" stroke-width="0.8" stroke-linecap="butt" stroke-linejoin="round" stroke="rgb(0%, 0%, 100%)" stroke-opacity="1" stroke-miterlimit="10" d="M 133.855715 128.00181 C 133.855715 135.651494 127.653374 141.857768 119.999756 141.857768 C 112.346139 141.857768 106.143798 135.651494 106.143798 128.00181 C 106.143798 120.348192 112.346139 114.145852 119.999756 114.145852 C 127.653374 114.145852 133.855715 120.348192 133.855715 128.00181 " transform="matrix(0.993199, 0, 0, -0.993199, 0.000000000000003886, 150.103878)"/>
<path fill="none" stroke-width="0.8" stroke-linecap="butt" stroke-linejoin="round" stroke="rgb(0%, 0%, 100%)" stroke-opacity="1" stroke-miterlimit="10" d="M 133.855715 100.28596 C 133.855715 107.939578 127.653374 114.145852 119.999756 114.145852 C 112.346139 114.145852 106.143798 107.939578 106.143798 100.28596 C 106.143798 92.636276 112.346139 86.430002 119.999756 86.430002 C 127.653374 86.430002 133.855715 92.636276 133.855715 100.28596 " transform="matrix(0.993199, 0, 0, -0.993199, 0.000000000000003886, 150.103878)"/>
<path fill="none" stroke-width="0.8" stroke-linecap="butt" stroke-linejoin="round" stroke="rgb(0%, 0%, 100%)" stroke-opacity="1" stroke-miterlimit="10" d="M 133.855715 72.574044 C 133.855715 80.227661 127.653374 86.430002 119.999756 86.430002 C 112.346139 86.430002 106.143798 80.227661 106.143798 72.574044 C 106.143798 64.920426 112.346139 58.718086 119.999756 58.718086 C 127.653374 58.718086 133.855715 64.920426 133.855715 72.574044 " transform="matrix(0.993199, 0, 0, -0.993199, 0.000000000000003886, 150.103878)"/>
<path fill="none" stroke-width="0.8" stroke-linecap="butt" stroke-linejoin="round" stroke="rgb(0%, 0%, 100%)" stroke-opacity="1" stroke-miterlimit="10" d="M 133.855715 44.862127 C 133.855715 52.515745 127.653374 58.718086 119.999756 58.718086 C 112.346139 58.718086 106.143798 52.515745 106.143798 44.862127 C 106.143798 37.20851 112.346139 31.006169 119.999756 31.006169 C 127.653374 31.006169 133.855715 37.20851 133.855715 44.862127 " transform="matrix(0.993199, 0, 0, -0.993199, 0.000000000000003886, 150.103878)"/>
<path fill="none" stroke-width="0.8" stroke-linecap="butt" stroke-linejoin="round" stroke="rgb(0%, 0%, 54.499817%)" stroke-opacity="1" stroke-miterlimit="10" d="M 23.999165 128.00181 L 47.998329 114.145852 " transform="matrix(0.993199, 0, 0, -0.993199, 0.000000000000003886, 150.103878)"/>
<path fill="none" stroke-width="0.8" stroke-linecap="butt" stroke-linejoin="round" stroke="rgb(0%, 0%, 54.499817%)" stroke-opacity="1" stroke-miterlimit="10" d="M 47.998329 114.145852 L 72.001427 128.00181 " transform="matrix(0.993199, 0, 0, -0.993199, 0.000000000000003886, 150.103878)"/>
<path fill="none" stroke-width="0.8" stroke-linecap="butt" stroke-linejoin="round" stroke="rgb(0%, 0%, 54.499817%)" stroke-opacity="1" stroke-miterlimit="10" d="M 23.999165 128.00181 L 23.999165 100.28596 " transform="matrix(0.993199, 0, 0, -0.993199, 0.000000000000003886, 150.103878)"/>
<path fill="none" stroke-width="0.8" stroke-linecap="butt" stroke-linejoin="round" stroke="rgb(0%, 0%, 54.499817%)" stroke-opacity="1" stroke-miterlimit="10" d="M 23.999165 100.28596 L 47.998329 114.145852 " transform="matrix(0.993199, 0, 0, -0.993199, 0.000000000000003886, 150.103878)"/>
<path fill="none" stroke-width="0.8" stroke-linecap="butt" stroke-linejoin="round" stroke="rgb(0%, 0%, 54.499817%)" stroke-opacity="1" stroke-miterlimit="10" d="M 47.998329 114.145852 L 47.998329 86.430002 " transform="matrix(0.993199, 0, 0, -0.993199, 0.000000000000003886, 150.103878)"/>
<path fill="none" stroke-width="0.8" stroke-linecap="butt" stroke-linejoin="round" stroke="rgb(0%, 0%, 54.499817%)" stroke-opacity="1" stroke-miterlimit="10" d="M 47.998329 86.430002 L 23.999165 100.28596 " transform="matrix(0.993199, 0, 0, -0.993199, 0.000000000000003886, 150.103878)"/>
<path fill="none" stroke-width="0.8" stroke-linecap="butt" stroke-linejoin="round" stroke="rgb(0%, 0%, 54.499817%)" stroke-opacity="1" stroke-miterlimit="10" d="M 23.999165 100.28596 L 23.999165 72.574044 " transform="matrix(0.993199, 0, 0, -0.993199, 0.000000000000003886, 150.103878)"/>
<path fill="none" stroke-width="0.8" stroke-linecap="butt" stroke-linejoin="round" stroke="rgb(0%, 0%, 54.499817%)" stroke-opacity="1" stroke-miterlimit="10" d="M 47.998329 86.430002 L 47.998329 58.718086 L 23.999165 72.574044 " transform="matrix(0.993199, 0, 0, -0.993199, 0.000000000000003886, 150.103878)"/>
<path fill="none" stroke-width="0.8" stroke-linecap="butt" stroke-linejoin="round" stroke="rgb(0%, 0%, 54.499817%)" stroke-opacity="1" stroke-miterlimit="10" d="M 23.999165 72.574044 L 23.999165 44.862127 " transform="matrix(0.993199, 0, 0, -0.993199, 0.000000000000003886, 150.103878)"/>
<path fill="none" stroke-width="0.8" stroke-linecap="butt" stroke-linejoin="round" stroke="rgb(0%, 0%, 54.499817%)" stroke-opacity="1" stroke-miterlimit="10" d="M 47.998329 31.006169 L 23.999165 44.862127 " transform="matrix(0.993199, 0, 0, -0.993199, 0.000000000000003886, 150.103878)"/>
<path fill="none" stroke-width="0.8" stroke-linecap="butt" stroke-linejoin="round" stroke="rgb(0%, 0%, 54.499817%)" stroke-opacity="1" stroke-miterlimit="10" d="M 23.999165 44.862127 L 47.998329 58.718086 " transform="matrix(0.993199, 0, 0, -0.993199, 0.000000000000003886, 150.103878)"/>
<path fill="none" stroke-width="0.8" stroke-linecap="butt" stroke-linejoin="round" stroke="rgb(0%, 0%, 54.499817%)" stroke-opacity="1" stroke-miterlimit="10" d="M 47.998329 58.718086 L 72.001427 44.862127 " transform="matrix(0.993199, 0, 0, -0.993199, 0.000000000000003886, 150.103878)"/>
<path fill="none" stroke-width="0.8" stroke-linecap="butt" stroke-linejoin="round" stroke="rgb(0%, 0%, 54.499817%)" stroke-opacity="1" stroke-miterlimit="10" d="M 72.001427 44.862127 L 47.998329 31.006169 " transform="matrix(0.993199, 0, 0, -0.993199, 0.000000000000003886, 150.103878)"/>
<path fill="none" stroke-width="0.8" stroke-linecap="butt" stroke-linejoin="round" stroke="rgb(0%, 0%, 54.499817%)" stroke-opacity="1" stroke-miterlimit="10" d="M 47.998329 31.006169 L 47.998329 58.718086 " transform="matrix(0.993199, 0, 0, -0.993199, 0.000000000000003886, 150.103878)"/>
<path fill="none" stroke-width="0.8" stroke-linecap="butt" stroke-linejoin="round" stroke="rgb(0%, 0%, 54.499817%)" stroke-opacity="1" stroke-miterlimit="10" d="M 23.999165 72.574044 L 47.998329 86.430002 " transform="matrix(0.993199, 0, 0, -0.993199, 0.000000000000003886, 150.103878)"/>
<path fill="none" stroke-width="0.8" stroke-linecap="butt" stroke-linejoin="round" stroke="rgb(0%, 0%, 54.499817%)" stroke-opacity="1" stroke-miterlimit="10" d="M 47.998329 114.145852 L 72.001427 100.28596 L 47.998329 86.430002 " transform="matrix(0.993199, 0, 0, -0.993199, 0.000000000000003886, 150.103878)"/>
<path fill="none" stroke-width="0.8" stroke-linecap="butt" stroke-linejoin="round" stroke="rgb(0%, 0%, 54.499817%)" stroke-opacity="1" stroke-miterlimit="10" d="M 47.998329 86.430002 L 72.001427 72.574044 L 47.998329 58.718086 " transform="matrix(0.993199, 0, 0, -0.993199, 0.000000000000003886, 150.103878)"/>
<path fill="none" stroke-width="0.8" stroke-linecap="butt" stroke-linejoin="round" stroke="rgb(0%, 0%, 54.499817%)" stroke-opacity="1" stroke-miterlimit="10" d="M 72.001427 72.574044 L 72.001427 44.862127 " transform="matrix(0.993199, 0, 0, -0.993199, 0.000000000000003886, 150.103878)"/>
<path fill="none" stroke-width="0.8" stroke-linecap="butt" stroke-linejoin="round" stroke="rgb(0%, 0%, 54.499817%)" stroke-opacity="1" stroke-miterlimit="10" d="M 72.001427 44.862127 L 96.000592 31.006169 " transform="matrix(0.993199, 0, 0, -0.993199, 0.000000000000003886, 150.103878)"/>
<path fill="none" stroke-width="0.8" stroke-linecap="butt" stroke-linejoin="round" stroke="rgb(0%, 0%, 54.499817%)" stroke-opacity="1" stroke-miterlimit="10" d="M 96.000592 31.006169 L 96.000592 58.718086 L 72.001427 44.862127 " transform="matrix(0.993199, 0, 0, -0.993199, 0.000000000000003886, 150.103878)"/>
<path fill="none" stroke-width="0.8" stroke-linecap="butt" stroke-linejoin="round" stroke="rgb(0%, 0%, 54.499817%)" stroke-opacity="1" stroke-miterlimit="10" d="M 72.001427 72.574044 L 96.000592 58.718086 " transform="matrix(0.993199, 0, 0, -0.993199, 0.000000000000003886, 150.103878)"/>
<path fill="none" stroke-width="0.8" stroke-linecap="butt" stroke-linejoin="round" stroke="rgb(0%, 0%, 54.499817%)" stroke-opacity="1" stroke-miterlimit="10" d="M 96.000592 58.718086 L 96.000592 86.430002 " transform="matrix(0.993199, 0, 0, -0.993199, 0.000000000000003886, 150.103878)"/>
<path fill="none" stroke-width="0.8" stroke-linecap="butt" stroke-linejoin="round" stroke="rgb(0%, 0%, 54.499817%)" stroke-opacity="1" stroke-miterlimit="10" d="M 72.001427 100.28596 L 96.000592 86.430002 " transform="matrix(0.993199, 0, 0, -0.993199, 0.000000000000003886, 150.103878)"/>
<path fill="none" stroke-width="0.8" stroke-linecap="butt" stroke-linejoin="round" stroke="rgb(0%, 0%, 54.499817%)" stroke-opacity="1" stroke-miterlimit="10" d="M 96.000592 86.430002 L 72.001427 72.574044 " transform="matrix(0.993199, 0, 0, -0.993199, 0.000000000000003886, 150.103878)"/>
<path fill="none" stroke-width="0.8" stroke-linecap="butt" stroke-linejoin="round" stroke="rgb(0%, 0%, 54.499817%)" stroke-opacity="1" stroke-miterlimit="10" d="M 72.001427 72.574044 L 72.001427 100.28596 " transform="matrix(0.993199, 0, 0, -0.993199, 0.000000000000003886, 150.103878)"/>
<path fill="none" stroke-width="0.8" stroke-linecap="butt" stroke-linejoin="round" stroke="rgb(0%, 0%, 54.499817%)" stroke-opacity="1" stroke-miterlimit="10" d="M 72.001427 100.28596 L 72.001427 128.00181 " transform="matrix(0.993199, 0, 0, -0.993199, 0.000000000000003886, 150.103878)"/>
<path fill="none" stroke-width="0.8" stroke-linecap="butt" stroke-linejoin="round" stroke="rgb(0%, 0%, 54.499817%)" stroke-opacity="1" stroke-miterlimit="10" d="M 72.001427 128.00181 L 96.000592 114.145852 " transform="matrix(0.993199, 0, 0, -0.993199, 0.000000000000003886, 150.103878)"/>
<path fill="none" stroke-width="0.8" stroke-linecap="butt" stroke-linejoin="round" stroke="rgb(0%, 0%, 54.499817%)" stroke-opacity="1" stroke-miterlimit="10" d="M 96.000592 114.145852 L 96.000592 86.430002 " transform="matrix(0.993199, 0, 0, -0.993199, 0.000000000000003886, 150.103878)"/>
<path fill="none" stroke-width="0.8" stroke-linecap="butt" stroke-linejoin="round" stroke="rgb(0%, 0%, 54.499817%)" stroke-opacity="1" stroke-miterlimit="10" d="M 96.000592 86.430002 L 119.999756 100.28596 " transform="matrix(0.993199, 0, 0, -0.993199, 0.000000000000003886, 150.103878)"/>
<path fill="none" stroke-width="0.8" stroke-linecap="butt" stroke-linejoin="round" stroke="rgb(0%, 0%, 54.499817%)" stroke-opacity="1" stroke-miterlimit="10" d="M 119.999756 100.28596 L 96.000592 114.145852 " transform="matrix(0.993199, 0, 0, -0.993199, 0.000000000000003886, 150.103878)"/>
<path fill="none" stroke-width="0.8" stroke-linecap="butt" stroke-linejoin="round" stroke="rgb(0%, 0%, 54.499817%)" stroke-opacity="1" stroke-miterlimit="10" d="M 96.000592 114.145852 L 119.999756 128.00181 L 119.999756 100.28596 " transform="matrix(0.993199, 0, 0, -0.993199, 0.000000000000003886, 150.103878)"/>
<path fill="none" stroke-width="0.8" stroke-linecap="butt" stroke-linejoin="round" stroke="rgb(0%, 0%, 54.499817%)" stroke-opacity="1" stroke-miterlimit="10" d="M 119.999756 100.28596 L 119.999756 72.574044 " transform="matrix(0.993199, 0, 0, -0.993199, 0.000000000000003886, 150.103878)"/>
<path fill="none" stroke-width="0.8" stroke-linecap="butt" stroke-linejoin="round" stroke="rgb(0%, 0%, 54.499817%)" stroke-opacity="1" stroke-miterlimit="10" d="M 119.999756 72.574044 L 96.000592 86.430002 " transform="matrix(0.993199, 0, 0, -0.993199, 0.000000000000003886, 150.103878)"/>
<path fill="none" stroke-width="0.8" stroke-linecap="round" stroke-linejoin="round" stroke="rgb(0%, 0%, 54.499817%)" stroke-opacity="1" stroke-miterlimit="10" d="M 96.000592 86.430002 L 96.000592 86.430002 " transform="matrix(0.993199, 0, 0, -0.993199, 0.000000000000003886, 150.103878)"/>
<path fill="none" stroke-width="0.8" stroke-linecap="butt" stroke-linejoin="round" stroke="rgb(0%, 0%, 54.499817%)" stroke-opacity="1" stroke-miterlimit="10" d="M 96.000592 58.718086 L 119.999756 72.574044 " transform="matrix(0.993199, 0, 0, -0.993199, 0.000000000000003886, 150.103878)"/>
<path fill="none" stroke-width="0.8" stroke-linecap="butt" stroke-linejoin="round" stroke="rgb(0%, 0%, 54.499817%)" stroke-opacity="1" stroke-miterlimit="10" d="M 119.999756 72.574044 L 119.999756 44.862127 L 96.000592 58.718086 " transform="matrix(0.993199, 0, 0, -0.993199, 0.000000000000003886, 150.103878)"/>
<path fill="none" stroke-width="0.8" stroke-linecap="butt" stroke-linejoin="round" stroke="rgb(0%, 0%, 54.499817%)" stroke-opacity="1" stroke-miterlimit="10" d="M 119.999756 44.862127 L 96.000592 31.006169 " transform="matrix(0.993199, 0, 0, -0.993199, 0.000000000000003886, 150.103878)"/>
<path fill-rule="evenodd" fill="rgb(100%, 100%, 0%)" fill-opacity="1" stroke-width="0.8" stroke-linecap="butt" stroke-linejoin="round" stroke="rgb(0%, 0%, 54.499817%)" stroke-opacity="1" stroke-miterlimit="10" d="M 72.001427 100.28596 L 96.000592 114.145852 " transform="matrix(0.993199, 0, 0, -0.993199, 0.000000000000003886, 150.103878)"/>
<path fill-rule="evenodd" fill="rgb(0%, 0%, 100%)" fill-opacity="0.2" d="M 37.597656 22.972656 C 37.597656 15.375 31.4375 9.210938 23.835938 9.210938 C 16.234375 9.210938 10.074219 15.375 10.074219 22.972656 C 10.074219 30.574219 16.234375 36.734375 23.835938 36.734375 C 31.4375 36.734375 37.597656 30.574219 37.597656 22.972656 "/>
<path fill-rule="evenodd" fill="rgb(0%, 0%, 100%)" fill-opacity="0.2" d="M 37.597656 50.5 C 37.597656 42.898438 31.4375 36.734375 23.835938 36.734375 C 16.234375 36.734375 10.074219 42.898438 10.074219 50.5 C 10.074219 58.097656 16.234375 64.261719 23.835938 64.261719 C 31.4375 64.261719 37.597656 58.097656 37.597656 50.5 "/>
<path fill-rule="evenodd" fill="rgb(0%, 0%, 100%)" fill-opacity="0.2" d="M 37.597656 78.023438 C 37.597656 70.421875 31.4375 64.261719 23.835938 64.261719 C 16.234375 64.261719 10.074219 70.421875 10.074219 78.023438 C 10.074219 85.625 16.234375 91.785156 23.835938 91.785156 C 31.4375 91.785156 37.597656 85.625 37.597656 78.023438 "/>
<path fill-rule="evenodd" fill="rgb(0%, 0%, 100%)" fill-opacity="0.2" d="M 37.597656 105.546875 C 37.597656 97.945312 31.4375 91.785156 23.835938 91.785156 C 16.234375 91.785156 10.074219 97.945312 10.074219 105.546875 C 10.074219 113.148438 16.234375 119.308594 23.835938 119.308594 C 31.4375 119.308594 37.597656 113.148438 37.597656 105.546875 "/>
<path fill-rule="evenodd" fill="rgb(0%, 0%, 100%)" fill-opacity="0.2" d="M 61.4375 36.734375 C 61.4375 29.136719 55.273438 22.972656 47.671875 22.972656 C 40.074219 22.972656 33.910156 29.136719 33.910156 36.734375 C 33.910156 44.335938 40.074219 50.5 47.671875 50.5 C 55.273438 50.5 61.4375 44.335938 61.4375 36.734375 "/>
<path fill-rule="evenodd" fill="rgb(0%, 0%, 100%)" fill-opacity="0.2" d="M 61.4375 64.261719 C 61.4375 56.660156 55.273438 50.5 47.671875 50.5 C 40.074219 50.5 33.910156 56.660156 33.910156 64.261719 C 33.910156 71.863281 40.074219 78.023438 47.671875 78.023438 C 55.273438 78.023438 61.4375 71.863281 61.4375 64.261719 "/>
<path fill-rule="evenodd" fill="rgb(0%, 0%, 100%)" fill-opacity="0.2" d="M 61.4375 91.785156 C 61.4375 84.183594 55.273438 78.023438 47.671875 78.023438 C 40.074219 78.023438 33.910156 84.183594 33.910156 91.785156 C 33.910156 99.386719 40.074219 105.546875 47.671875 105.546875 C 55.273438 105.546875 61.4375 99.386719 61.4375 91.785156 "/>
<path fill-rule="evenodd" fill="rgb(0%, 0%, 100%)" fill-opacity="0.2" d="M 61.4375 119.308594 C 61.4375 111.707031 55.273438 105.546875 47.671875 105.546875 C 40.074219 105.546875 33.910156 111.707031 33.910156 119.308594 C 33.910156 126.910156 40.074219 133.070312 47.671875 133.070312 C 55.273438 133.070312 61.4375 126.910156 61.4375 119.308594 "/>
<path fill-rule="evenodd" fill="rgb(0%, 0%, 100%)" fill-opacity="0.2" d="M 85.273438 22.972656 C 85.273438 15.375 79.109375 9.210938 71.511719 9.210938 C 63.910156 9.210938 57.75 15.375 57.75 22.972656 C 57.75 30.574219 63.910156 36.734375 71.511719 36.734375 C 79.109375 36.734375 85.273438 30.574219 85.273438 22.972656 "/>
<path fill-rule="evenodd" fill="rgb(0%, 0%, 100%)" fill-opacity="0.2" d="M 85.273438 50.5 C 85.273438 42.898438 79.109375 36.734375 71.511719 36.734375 C 63.910156 36.734375 57.75 42.898438 57.75 50.5 C 57.75 58.097656 63.910156 64.261719 71.511719 64.261719 C 79.109375 64.261719 85.273438 58.097656 85.273438 50.5 "/>
<path fill-rule="evenodd" fill="rgb(0%, 0%, 100%)" fill-opacity="0.2" d="M 85.273438 78.023438 C 85.273438 70.421875 79.109375 64.261719 71.511719 64.261719 C 63.910156 64.261719 57.75 70.421875 57.75 78.023438 C 57.75 85.625 63.910156 91.785156 71.511719 91.785156 C 79.109375 91.785156 85.273438 85.625 85.273438 78.023438 "/>
<path fill-rule="evenodd" fill="rgb(0%, 0%, 100%)" fill-opacity="0.2" d="M 85.273438 105.546875 C 85.273438 97.945312 79.109375 91.785156 71.511719 91.785156 C 63.910156 91.785156 57.75 97.945312 57.75 105.546875 C 57.75 113.148438 63.910156 119.308594 71.511719 119.308594 C 79.109375 119.308594 85.273438 113.148438 85.273438 105.546875 "/>
<path fill-rule="evenodd" fill="rgb(0%, 0%, 100%)" fill-opacity="0.2" d="M 109.109375 36.734375 C 109.109375 29.136719 102.949219 22.972656 95.347656 22.972656 C 87.746094 22.972656 81.585938 29.136719 81.585938 36.734375 C 81.585938 44.335938 87.746094 50.5 95.347656 50.5 C 102.949219 50.5 109.109375 44.335938 109.109375 36.734375 "/>
<path fill-rule="evenodd" fill="rgb(0%, 0%, 100%)" fill-opacity="0.2" d="M 109.109375 64.261719 C 109.109375 56.660156 102.949219 50.5 95.347656 50.5 C 87.746094 50.5 81.585938 56.660156 81.585938 64.261719 C 81.585938 71.863281 87.746094 78.023438 95.347656 78.023438 C 102.949219 78.023438 109.109375 71.863281 109.109375 64.261719 "/>
<path fill-rule="evenodd" fill="rgb(0%, 0%, 100%)" fill-opacity="0.2" d="M 109.109375 91.785156 C 109.109375 84.183594 102.949219 78.023438 95.347656 78.023438 C 87.746094 78.023438 81.585938 84.183594 81.585938 91.785156 C 81.585938 99.386719 87.746094 105.546875 95.347656 105.546875 C 102.949219 105.546875 109.109375 99.386719 109.109375 91.785156 "/>
<path fill-rule="evenodd" fill="rgb(0%, 0%, 100%)" fill-opacity="0.2" d="M 109.109375 119.308594 C 109.109375 111.707031 102.949219 105.546875 95.347656 105.546875 C 87.746094 105.546875 81.585938 111.707031 81.585938 119.308594 C 81.585938 126.910156 87.746094 133.070312 95.347656 133.070312 C 102.949219 133.070312 109.109375 126.910156 109.109375 119.308594 "/>
<path fill-rule="evenodd" fill="rgb(0%, 0%, 100%)" fill-opacity="0.2" d="M 132.945312 22.972656 C 132.945312 15.375 126.785156 9.210938 119.183594 9.210938 C 111.582031 9.210938 105.421875 15.375 105.421875 22.972656 C 105.421875 30.574219 111.582031 36.734375 119.183594 36.734375 C 126.785156 36.734375 132.945312 30.574219 132.945312 22.972656 "/>
<path fill-rule="evenodd" fill="rgb(0%, 0%, 100%)" fill-opacity="0.2" d="M 132.945312 50.5 C 132.945312 42.898438 126.785156 36.734375 119.183594 36.734375 C 111.582031 36.734375 105.421875 42.898438 105.421875 50.5 C 105.421875 58.097656 111.582031 64.261719 119.183594 64.261719 C 126.785156 64.261719 132.945312 58.097656 132.945312 50.5 "/>
<path fill-rule="evenodd" fill="rgb(0%, 0%, 100%)" fill-opacity="0.2" d="M 132.945312 78.023438 C 132.945312 70.421875 126.785156 64.261719 119.183594 64.261719 C 111.582031 64.261719 105.421875 70.421875 105.421875 78.023438 C 105.421875 85.625 111.582031 91.785156 119.183594 91.785156 C 126.785156 91.785156 132.945312 85.625 132.945312 78.023438 "/>
<path fill-rule="evenodd" fill="rgb(0%, 0%, 100%)" fill-opacity="0.2" d="M 132.945312 105.546875 C 132.945312 97.945312 126.785156 91.785156 119.183594 91.785156 C 111.582031 91.785156 105.421875 97.945312 105.421875 105.546875 C 105.421875 113.148438 111.582031 119.308594 119.183594 119.308594 C 126.785156 119.308594 132.945312 113.148438 132.945312 105.546875 "/>
<path fill-rule="evenodd" fill="rgb(67.799377%, 84.698486%, 90.19928%)" fill-opacity="1" d="M 22.347656 24.464844 L 25.328125 24.464844 L 25.328125 21.484375 L 22.347656 21.484375 Z M 22.347656 24.464844 "/>
<path fill-rule="evenodd" fill="rgb(0%, 0%, 0%)" fill-opacity="1" d="M 22.050781 24.761719 L 25.625 24.761719 L 25.625 21.1875 L 22.050781 21.1875 Z M 22.644531 24.167969 L 25.027344 24.167969 L 25.027344 21.78125 L 22.644531 21.78125 Z M 22.644531 24.167969 "/>
<path fill-rule="evenodd" fill="rgb(67.799377%, 84.698486%, 90.19928%)" fill-opacity="1" d="M 22.347656 51.988281 L 25.328125 51.988281 L 25.328125 49.007812 L 22.347656 49.007812 Z M 22.347656 51.988281 "/>
<path fill-rule="evenodd" fill="rgb(0%, 0%, 0%)" fill-opacity="1" d="M 22.050781 52.285156 L 25.625 52.285156 L 25.625 48.710938 L 22.050781 48.710938 Z M 22.644531 51.691406 L 25.027344 51.691406 L 25.027344 49.308594 L 22.644531 49.308594 Z M 22.644531 51.691406 "/>
<path fill-rule="evenodd" fill="rgb(67.799377%, 84.698486%, 90.19928%)" fill-opacity="1" d="M 22.347656 79.511719 L 25.328125 79.511719 L 25.328125 76.535156 L 22.347656 76.535156 Z M 22.347656 79.511719 "/>
<path fill-rule="evenodd" fill="rgb(0%, 0%, 0%)" fill-opacity="1" d="M 22.050781 79.8125 L 25.625 79.8125 L 25.625 76.234375 L 22.050781 76.234375 Z M 22.644531 79.214844 L 25.027344 79.214844 L 25.027344 76.832031 L 22.644531 76.832031 Z M 22.644531 79.214844 "/>
<path fill-rule="evenodd" fill="rgb(67.799377%, 84.698486%, 90.19928%)" fill-opacity="1" d="M 22.347656 107.039062 L 25.328125 107.039062 L 25.328125 104.058594 L 22.347656 104.058594 Z M 22.347656 107.039062 "/>
<path fill-rule="evenodd" fill="rgb(0%, 0%, 0%)" fill-opacity="1" d="M 22.050781 107.335938 L 25.625 107.335938 L 25.625 103.757812 L 22.050781 103.757812 Z M 22.644531 106.738281 L 25.027344 106.738281 L 25.027344 104.355469 L 22.644531 104.355469 Z M 22.644531 106.738281 "/>
<path fill-rule="evenodd" fill="rgb(67.799377%, 84.698486%, 90.19928%)" fill-opacity="1" d="M 46.183594 38.226562 L 49.164062 38.226562 L 49.164062 35.246094 L 46.183594 35.246094 Z M 46.183594 38.226562 "/>
<path fill-rule="evenodd" fill="rgb(0%, 0%, 0%)" fill-opacity="1" d="M 45.886719 38.523438 L 49.460938 38.523438 L 49.460938 34.949219 L 45.886719 34.949219 Z M 46.480469 37.929688 L 48.867188 37.929688 L 48.867188 35.542969 L 46.480469 35.542969 Z M 46.480469 37.929688 "/>
<path fill-rule="evenodd" fill="rgb(67.799377%, 84.698486%, 90.19928%)" fill-opacity="1" d="M 46.183594 65.75 L 49.164062 65.75 L 49.164062 62.769531 L 46.183594 62.769531 Z M 46.183594 65.75 "/>
<path fill-rule="evenodd" fill="rgb(0%, 0%, 0%)" fill-opacity="1" d="M 45.886719 66.046875 L 49.460938 66.046875 L 49.460938 62.472656 L 45.886719 62.472656 Z M 46.480469 65.453125 L 48.867188 65.453125 L 48.867188 63.070312 L 46.480469 63.070312 Z M 46.480469 65.453125 "/>
<path fill-rule="evenodd" fill="rgb(67.799377%, 84.698486%, 90.19928%)" fill-opacity="1" d="M 46.183594 93.273438 L 49.164062 93.273438 L 49.164062 90.296875 L 46.183594 90.296875 Z M 46.183594 93.273438 "/>
<path fill-rule="evenodd" fill="rgb(0%, 0%, 0%)" fill-opacity="1" d="M 45.886719 93.574219 L 49.460938 93.574219 L 49.460938 89.996094 L 45.886719 89.996094 Z M 46.480469 92.976562 L 48.867188 92.976562 L 48.867188 90.59375 L 46.480469 90.59375 Z M 46.480469 92.976562 "/>
<path fill-rule="evenodd" fill="rgb(67.799377%, 84.698486%, 90.19928%)" fill-opacity="1" d="M 46.183594 120.800781 L 49.164062 120.800781 L 49.164062 117.820312 L 46.183594 117.820312 Z M 46.183594 120.800781 "/>
<path fill-rule="evenodd" fill="rgb(0%, 0%, 0%)" fill-opacity="1" d="M 45.886719 121.097656 L 49.460938 121.097656 L 49.460938 117.523438 L 45.886719 117.523438 Z M 46.480469 120.5 L 48.867188 120.5 L 48.867188 118.117188 L 46.480469 118.117188 Z M 46.480469 120.5 "/>
<path fill-rule="evenodd" fill="rgb(67.799377%, 84.698486%, 90.19928%)" fill-opacity="1" d="M 70.019531 24.464844 L 73 24.464844 L 73 21.484375 L 70.019531 21.484375 Z M 70.019531 24.464844 "/>
<path fill-rule="evenodd" fill="rgb(0%, 0%, 0%)" fill-opacity="1" d="M 69.722656 24.761719 L 73.296875 24.761719 L 73.296875 21.1875 L 69.722656 21.1875 Z M 70.320312 24.167969 L 72.703125 24.167969 L 72.703125 21.78125 L 70.320312 21.78125 Z M 70.320312 24.167969 "/>
<path fill-rule="evenodd" fill="rgb(67.799377%, 84.698486%, 90.19928%)" fill-opacity="1" d="M 70.019531 51.988281 L 73 51.988281 L 73 49.007812 L 70.019531 49.007812 Z M 70.019531 51.988281 "/>
<path fill-rule="evenodd" fill="rgb(0%, 0%, 0%)" fill-opacity="1" d="M 69.722656 52.285156 L 73.296875 52.285156 L 73.296875 48.710938 L 69.722656 48.710938 Z M 70.320312 51.691406 L 72.703125 51.691406 L 72.703125 49.308594 L 70.320312 49.308594 Z M 70.320312 51.691406 "/>
<path fill-rule="evenodd" fill="rgb(67.799377%, 84.698486%, 90.19928%)" fill-opacity="1" d="M 70.019531 79.511719 L 73 79.511719 L 73 76.535156 L 70.019531 76.535156 Z M 70.019531 79.511719 "/>
<path fill-rule="evenodd" fill="rgb(0%, 0%, 0%)" fill-opacity="1" d="M 69.722656 79.8125 L 73.296875 79.8125 L 73.296875 76.234375 L 69.722656 76.234375 Z M 70.320312 79.214844 L 72.703125 79.214844 L 72.703125 76.832031 L 70.320312 76.832031 Z M 70.320312 79.214844 "/>
<path fill-rule="evenodd" fill="rgb(67.799377%, 84.698486%, 90.19928%)" fill-opacity="1" d="M 70.019531 107.039062 L 73 107.039062 L 73 104.058594 L 70.019531 104.058594 Z M 70.019531 107.039062 "/>
<path fill-rule="evenodd" fill="rgb(0%, 0%, 0%)" fill-opacity="1" d="M 69.722656 107.335938 L 73.296875 107.335938 L 73.296875 103.757812 L 69.722656 103.757812 Z M 70.320312 106.738281 L 72.703125 106.738281 L 72.703125 104.355469 L 70.320312 104.355469 Z M 70.320312 106.738281 "/>
<path fill-rule="evenodd" fill="rgb(67.799377%, 84.698486%, 90.19928%)" fill-opacity="1" d="M 93.855469 38.226562 L 96.835938 38.226562 L 96.835938 35.246094 L 93.855469 35.246094 Z M 93.855469 38.226562 "/>
<path fill-rule="evenodd" fill="rgb(0%, 0%, 0%)" fill-opacity="1" d="M 93.558594 38.523438 L 97.136719 38.523438 L 97.136719 34.949219 L 93.558594 34.949219 Z M 94.15625 37.929688 L 96.539062 37.929688 L 96.539062 35.542969 L 94.15625 35.542969 Z M 94.15625 37.929688 "/>
<path fill-rule="evenodd" fill="rgb(67.799377%, 84.698486%, 90.19928%)" fill-opacity="1" d="M 93.855469 65.75 L 96.835938 65.75 L 96.835938 62.769531 L 93.855469 62.769531 Z M 93.855469 65.75 "/>
<path fill-rule="evenodd" fill="rgb(0%, 0%, 0%)" fill-opacity="1" d="M 93.558594 66.046875 L 97.136719 66.046875 L 97.136719 62.472656 L 93.558594 62.472656 Z M 94.15625 65.453125 L 96.539062 65.453125 L 96.539062 63.070312 L 94.15625 63.070312 Z M 94.15625 65.453125 "/>
<path fill-rule="evenodd" fill="rgb(67.799377%, 84.698486%, 90.19928%)" fill-opacity="1" d="M 93.855469 93.273438 L 96.835938 93.273438 L 96.835938 90.296875 L 93.855469 90.296875 Z M 93.855469 93.273438 "/>
<path fill-rule="evenodd" fill="rgb(0%, 0%, 0%)" fill-opacity="1" d="M 93.558594 93.574219 L 97.136719 93.574219 L 97.136719 89.996094 L 93.558594 89.996094 Z M 94.15625 92.976562 L 96.539062 92.976562 L 96.539062 90.59375 L 94.15625 90.59375 Z M 94.15625 92.976562 "/>
<path fill-rule="evenodd" fill="rgb(67.799377%, 84.698486%, 90.19928%)" fill-opacity="1" d="M 93.855469 120.800781 L 96.835938 120.800781 L 96.835938 117.820312 L 93.855469 117.820312 Z M 93.855469 120.800781 "/>
<path fill-rule="evenodd" fill="rgb(0%, 0%, 0%)" fill-opacity="1" d="M 93.558594 121.097656 L 97.136719 121.097656 L 97.136719 117.523438 L 93.558594 117.523438 Z M 94.15625 120.5 L 96.539062 120.5 L 96.539062 118.117188 L 94.15625 118.117188 Z M 94.15625 120.5 "/>
<path fill-rule="evenodd" fill="rgb(67.799377%, 84.698486%, 90.19928%)" fill-opacity="1" d="M 117.695312 24.464844 L 120.671875 24.464844 L 120.671875 21.484375 L 117.695312 21.484375 Z M 117.695312 24.464844 "/>
<path fill-rule="evenodd" fill="rgb(0%, 0%, 0%)" fill-opacity="1" d="M 117.394531 24.761719 L 120.972656 24.761719 L 120.972656 21.1875 L 117.394531 21.1875 Z M 117.992188 24.167969 L 120.375 24.167969 L 120.375 21.78125 L 117.992188 21.78125 Z M 117.992188 24.167969 "/>
<path fill-rule="evenodd" fill="rgb(67.799377%, 84.698486%, 90.19928%)" fill-opacity="1" d="M 117.695312 51.988281 L 120.671875 51.988281 L 120.671875 49.007812 L 117.695312 49.007812 Z M 117.695312 51.988281 "/>
<path fill-rule="evenodd" fill="rgb(0%, 0%, 0%)" fill-opacity="1" d="M 117.394531 52.285156 L 120.972656 52.285156 L 120.972656 48.710938 L 117.394531 48.710938 Z M 117.992188 51.691406 L 120.375 51.691406 L 120.375 49.308594 L 117.992188 49.308594 Z M 117.992188 51.691406 "/>
<path fill-rule="evenodd" fill="rgb(67.799377%, 84.698486%, 90.19928%)" fill-opacity="1" d="M 117.695312 79.511719 L 120.671875 79.511719 L 120.671875 76.535156 L 117.695312 76.535156 Z M 117.695312 79.511719 "/>
<path fill-rule="evenodd" fill="rgb(0%, 0%, 0%)" fill-opacity="1" d="M 117.394531 79.8125 L 120.972656 79.8125 L 120.972656 76.234375 L 117.394531 76.234375 Z M 117.992188 79.214844 L 120.375 79.214844 L 120.375 76.832031 L 117.992188 76.832031 Z M 117.992188 79.214844 "/>
<path fill-rule="evenodd" fill="rgb(67.799377%, 84.698486%, 90.19928%)" fill-opacity="1" d="M 117.695312 107.039062 L 120.671875 107.039062 L 120.671875 104.058594 L 117.695312 104.058594 Z M 117.695312 107.039062 "/>
<path fill-rule="evenodd" fill="rgb(0%, 0%, 0%)" fill-opacity="1" d="M 117.394531 107.335938 L 120.972656 107.335938 L 120.972656 103.757812 L 117.394531 103.757812 Z M 117.992188 106.738281 L 120.375 106.738281 L 120.375 104.355469 L 117.992188 104.355469 Z M 117.992188 106.738281 "/>
</svg>
