<?xml version="1.0" encoding="UTF-8"?>
<svg xmlns="http://www.w3.org/2000/svg" xmlns:xlink="http://www.w3.org/1999/xlink" width="145.007" height="142.66659" viewBox="0 0 145.007 142.66659">
<path fill="none" stroke-width="0.8" stroke-linecap="butt" stroke-linejoin="round" stroke="rgb(0%, 0%, 100%)" stroke-opacity="1" stroke-miterlimit="10" d="M 37.855123 128.00181 C 37.855123 135.651494 31.652782 141.857768 23.999165 141.857768 C 16.345547 141.857768 10.143206 135.651494 10.143206 128.00181 C 10.143206 120.348192 16.345547 114.145852 23.999165 114.145852 C 31.652782 114.145852 37.855123 120.348192 37.855123 128.00181 " transform="matrix(0.993199, 0, 0, -0.993199, 0.000000000000003886, 150.103878)"/>
<path fill="none" stroke-width="0.8" stroke-linecap="butt" stroke-linejoin="round" stroke="rgb(0%, 0%, 100%)" stroke-opacity="1" stroke-miterlimit="10" d="M 37.855123 100.28596 C 37.855123 107.939578 31.652782 114.145852 23.999165 114.145852 C 16.345547 114.145852 10.143206 107.939578 10.143206 100.28596 C 10.143206 92.636276 16.345547 86.430002 23.999165 86.430002 C 31.652782 86.430002 37.855123 92.636276 37.855123 100.28596 " transform="matrix(0.993199, 0, 0, -0.993199, 0.000000000000003886, 150.103878)"/>
<path fill="none" stroke-width="0.8" stroke-linecap="butt" stroke-linejoin="round" stroke="rgb(0%, 0%, 100%)" stroke-opacity="1" stroke-miterlimit="10" d="M 37.855123 72.574044 C 37.855123 80.227661 31.652782 86.430002 23.999165 86.430002 C 16.345547 86.430002 10.143206 80.227661 10.143206 72.574044 C 10.143206 64.920426 16.345547 58.718086 23.999165 58.718086 C 31.652782 58.718086 37.855123 64.920426 37.855123 72.574044 " transform="matrix(0.993199, 0, 0, -0.993199, 0.000000000000003886, 150.103878)"/>
<path fill="none" stroke-width="0.8" stroke-linecap="butt" stroke-linejoin="round" stroke="rgb(0%, 0%, 100%)" stroke-opacity="1" stroke-miterlimit="10" d="M 37.855123 44.862127 C 37.855123 52.515745 31.652782 58.718086 23.999165 58.718086 C 16.345547 58.718086 10.143206 52.515745 10.143206 44.862127 C 10.143206 37.20851 16.345547 31.006169 23.999165 31.006169 C 31.652782 31.006169 37.855123 37.20851 37.855123 44.862127 " transform="matrix(0.993199, 0, 0, -0.993199, 0.000000000000003886, 150.103878)"/>
<path fill="none" stroke-width="0.8" stroke-linecap="butt" stroke-linejoin="round" stroke="rgb(0%, 0%, 100%)" stroke-opacity="1" stroke-miterlimit="10" d="M 61.858221 114.145852 C 61.858221 121.795536 55.651947 128.00181 47.998329 128.00181 C 40.348645 128.00181 34.142371 121.795536 34.142371 114.145852 C 34.142371 106.492234 40.348645 100.28596 47.998329 100.28596 C 55.651947 100.28596 61.858221 106.492234 61.858221 114.145852 " transform="matrix(0.993199, 0, 0, -0.993199, 0.000000000000003886, 150.103878)"/>
<path fill="none" stroke-width="0.8" stroke-linecap="butt" stroke-linejoin="round" stroke="rgb(0%, 0%, 100%)" stroke-opacity="1" stroke-miterlimit="10" d="M 61.858221 86.430002 C 61.858221 94.08362 55.651947 100.28596 47.998329 100.28596 C 40.348645 100.28596 34.142371 94.08362 34.142371 86.430002 C 34.142371 78.776384 40.348645 72.574044 47.998329 72.574044 C 55.651947 72.574044 61.858221 78.776384 61.858221 86.430002 " transform="matrix(0.993199, 0, 0, -0.993199, 0.000000000000003886, 150.103878)"/>
<path fill="none" stroke-width="0.8" stroke-linecap="butt" stroke-linejoin="round" stroke="rgb(0%, 0%, 100%)" stroke-opacity="1" stroke-miterlimit="10" d="M 61.858221 58.718086 C 61.858221 66.371703 55.651947 72.574044 47.998329 72.574044 C 40.348645 72.574044 34.142371 66.371703 34.142371 58.718086 C 34.142371 51.064468 40.348645 44.862127 47.998329 44.862127 C 55.651947 44.862127 61.858221 51.064468 61.858221 58.718086 " transform="matrix(0.993199, 0, 0, -0.993199, 0.000000000000003886, 150.103878)"/>
<path fill="none" stroke-width="0.8" stroke-linecap="butt" stroke-linejoin="round" stroke="rgb(0%, 0%, 100%)" stroke-opacity="1" stroke-miterlimit="10" d="M 61.858221 31.006169 C 61.858221 38.659787 55.651947 44.862127 47.998329 44.862127 C 40.348645 44.862127 34.142371 38.659787 34.142371 31.006169 C 34.142371 23.352551 40.348645 17.150211 47.998329 17.150211 C 55.651947 17.150211 61.858221 23.352551 61.858221 31.006169 " transform="matrix(0.993199, 0, 0, -0.993199, 0.000000000000003886, 150.103878)"/>
<path fill="none" stroke-width="0.8" stroke-linecap="butt" stroke-linejoin="round" stroke="rgb(0%, 0%, 100%)" stroke-opacity="1" stroke-miterlimit="10" d="M 85.857385 128.00181 C 85.857385 135.651494 79.651112 141.857768 72.001427 141.857768 C 64.34781 141.857768 58.145469 135.651494 58.145469 128.00181 C 58.145469 120.348192 64.34781 114.145852 72.001427 114.145852 C 79.651112 114.145852 85.857385 120.348192 85.857385 128.00181 " transform="matrix(0.993199, 0, 0, -0.993199, 0.000000000000003886, 150.103878)"/>
<path fill="none" stroke-width="0.8" stroke-linecap="butt" stroke-linejoin="round" stroke="rgb(0%, 0%, 100%)" stroke-opacity="1" stroke-miterlimit="10" d="M 85.857385 100.28596 C 85.857385 107.939578 79.651112 114.145852 72.001427 114.145852 C 64.34781 114.145852 58.145469 107.939578 58.145469 100.28596 C 58.145469 92.636276 64.34781 86.430002 72.001427 86.430002 C 79.651112 86.430002 85.857385 92.636276 85.857385 100.28596 " transform="matrix(0.993199, 0, 0, -0.993199, 0.000000000000003886, 150.103878)"/>
<path fill="none" stroke-width="0.8" stroke-linecap="butt" stroke-linejoin="round" stroke="rgb(0%, 0%, 100%)" stroke-opacity="1" stroke-miterlimit="10" d="M 85.857385 72.574044 C 85.857385 80.227661 79.651112 86.430002 72.001427 86.430002 C 64.34781 86.430002 58.145469 80.227661 58.145469 72.574044 C 58.145469 64.920426 64.34781 58.718086 72.001427 58.718086 C 79.651112 58.718086 85.857385 64.920426 85.857385 72.574044 " transform="matrix(0.993199, 0, 0, -0.993199, 0.000000000000003886, 150.103878)"/>
<path fill="none" stroke-width="0.8" stroke-linecap="butt" stroke-linejoin="round" stroke="rgb(0%, 0%, 100%)" stroke-opacity="1" stroke-miterlimit="10" d="M 85.857385 44.862127 C 85.857385 52.515745 79.651112 58.718086 72.001427 58.718086 C 64.34781 58.718086 58.145469 52.515745 58.145469 44.862127 C 58.145469 37.20851 64.34781 31.006169 72.001427 31.006169 C 79.651112 31.006169 85.857385 37.20851 85.857385 44.862127 " transform="matrix(0.993199, 0, 0, -0.993199, 0.000000000000003886, 150.103878)"/>
<path fill="none" stroke-width="0.8" stroke-linecap="butt" stroke-linejoin="round" stroke="rgb(0%, 0%, 100%)" stroke-opacity="1" stroke-miterlimit="10" d="M 109.85655 114.145852 C 109.85655 121.795536 103.654209 128.00181 96.000592 128.00181 C 88.346974 128.00181 82.144634 121.795536 82.144634 114.145852 C 82.144634 106.492234 88.346974 100.28596 96.000592 100.28596 C 103.654209 100.28596 109.85655 106.492234 109.85655 114.145852 " transform="matrix(0.993199, 0, 0, -0.993199, 0.000000000000003886, 150.103878)"/>
<path fill="none" stroke-width="0.8" stroke-linecap="butt" stroke-linejoin="round" stroke="rgb(0%, 0%, 100%)" stroke-opacity="1" stroke-miterlimit="10" d="M 109.85655 86.430002 C 109.85655 94.08362 103.654209 100.28596 96.000592 100.28596 C 88.346974 100.28596 82.144634 94.08362 82.144634 86.430002 C 82.144634 78.776384 88.346974 72.574044 96.000592 72.574044 C 103.654209 72.574044 109.85655 78.776384 109.85655 86.430002 " transform="matrix(0.993199, 0, 0, -0.993199, 0.000000000000003886, 150.103878)"/>
<path fill="none" stroke-width="0.8" stroke-linecap="butt" stroke-linejoin="round" stroke="rgb(0%, 0%, 100%)" stroke-opacity="1" stroke-miterlimit="10" d="M 109.85655 58.718086 C 109.85655 66.371703 103.654209 72.574044 96.000592 72.574044 C 88.346974 72.574044 82.144634 66.371703 82.144634 58.718086 C 82.144634 51.064468 88.346974 44.862127 96.000592 44.862127 C 103.654209 44.862127 109.85655 51.064468 109.85655 58.718086 " transform="matrix(0.993199, 0, 0, -0.993199, 0.000000000000003886, 150.103878)"/>
<path fill="none" stroke-width="0.8" stroke-linecap="butt" stroke-linejoin="round" stroke="rgb(0%, 0%, 100%)" stroke-opacity="1" stroke-miterlimit="10" d="M 109.85655 31.006169 C 109.85655 38.659787 103.654209 44.862127 96.000592 44.862127 C 88.346974 44.862127 82.144634 38.659787 82.144634 31.006169 C 82.144634 23.352551 88.346974 17.150211 96.000592 17.150211 C 103.654209 17.150211 109.85655 23.352551 109.85655 31.006169 " transform="matrix(0.993199, 0, 0, -0.993199, 0.000000000000003886, 150.103878)"/>
<path fill="none" stroke-width="0.8" stroke-linecap="butt" stroke-linejoin="round" stroke="rgb(0%, 0%, 100%)" stroke-opacity="1" stroke-miterlimit="10" d="M 133.855715 128.00181 C 133.855715 135.651494 127.653374 141.857768 119.999756 141.857768 C 112.346139 141.857768 106.143798 135.651494 106.143798 128.00181 C 106.143798 120.348192 112.346139 114.145852 119.999756 114.145852 C 127.653374 114.145852 133.855715 120.348192 133.855715 128.00181 " transform="matrix(0.993199, 0, 0, -0.993199, 0.000000000000003886, 150.103878)"/>
<path fill="none" stroke-width="0.8" stroke-linecap="butt" stroke-linejoin="round" stroke="rgb(0%, 0%, 100%)" stroke-opacity="1" stroke-miterlimit="10" d="M 133.855715 100.28596 C 133.855715 107.939578 127.653374 114.145852 119.999756 114.145852 C 112.346139 114.145852 106.143798 107.939578 106.143798 100.28596 C 106.143798 92.636276 112.346139 86.430002 119.999756 86.430002 C 127.653374 86.430002 133.855715 92.636276 133.855715 100.28596 " transform="matrix(0.993199, 0, 0, -0.993199, 0.000000000000003886, 150.103878)"/>
<path fill="none" stroke-width="0.8" stroke-linecap="butt" stroke-linejoin="round" stroke="rgb(0%, 0%, 100%)" stroke-opacity="1" stroke-miterlimit="10" d="M 133.855715 72.574044 C 133.855715 80.227661 127.653374 86.430002 119.999756 86.430002 C 112.346139 86.430002 106.143798 80.227661 106.143798 72.574044 C 106.143798 64.920426 112.346139 58.718086 119.999756 58.718086 C 127.653374 58.718086 133.855715 64.920426 133.855715 72.574044 " transform="matrix(0.993199, 0, 0, -0.993199, 0.000000000000003886, 150.103878)"/>
<path fill="none" stroke-width="0.8" stroke-linecap="butt" stroke-linejoin="round" stroke="rgb(0%, 0%, 100%)" stroke-opacity="1" stroke-miterlimit="10" d="M 133.855715 44.862127 C 133.855715 52.515745 127.653374 58.718086 119.999756 58.718086 C 112.346139 58.718086 106.143798 52.515745 106.143798 44.862127 C 106.143798 37.20851 112.346139 31.006169 119.999756 31.006169 C 127.653374 31.006169 133.855715 37.20851 133.855715 44.862127 " transform="matrix(0.993199, 0, 0, -0.993199, 0.000000000000003886, 150.103878)"/>
</svg>
