<?xml version="1.0" encoding="UTF-8"?>
<svg xmlns="http://www.w3.org/2000/svg" xmlns:xlink="http://www.w3.org/1999/xlink" width="145.007" height="142.66659" viewBox="0 0 145.007 142.66659">
<path fill="none" stroke-width="0.8" stroke-linecap="butt" stroke-linejoin="round" stroke="rgb(0%, 0%, 54.499817%)" stroke-opacity="1" stroke-miterlimit="10" d="M 23.999165 128.00181 L 47.998329 114.145852 " transform="matrix(0.993199, 0, 0, -0.993199, 0.000000000000003886, 150.103878)"/>
<path fill="none" stroke-width="0.8" stroke-linecap="butt" stroke-linejoin="round" stroke="rgb(0%, 0%, 54.499817%)" stroke-opacity="1" stroke-miterlimit="10" d="M 47.998329 114.145852 L 72.001427 128.00181 " transform="matrix(0.993199, 0, 0, -0.993199, 0.000000000000003886, 150.103878)"/>
<path fill="none" stroke-width="0.8" stroke-linecap="butt" stroke-linejoin="round" stroke="rgb(0%, 0%, 54.499817%)" stroke-opacity="1" stroke-miterlimit="10" d="M 23.999165 128.00181 L 23.999165 100.28596 " transform="matrix(0.993199, 0, 0, -0.993199, 0.000000000000003886, 150.103878)"/>
<path fill="none" stroke-width="0.8" stroke-linecap="butt" stroke-linejoin="round" stroke="rgb(0%, 0%, 54.499817%)" stroke-opacity="1" stroke-miterlimit="10" d="M 23.999165 100.28596 L 47.998329 114.145852 " transform="matrix(0.993199, 0, 0, -0.993199, 0.000000000000003886, 150.103878)"/>
<path fill="none" stroke-width="0.8" stroke-linecap="butt" stroke-linejoin="round" stroke="rgb(0%, 0%, 54.499817%)" stroke-opacity="1" stroke-miterlimit="10" d="M 47.998329 114.145852 L 47.998329 86.430002 " transform="matrix(0.993199, 0, 0, -0.993199, 0.000000000000003886, 150.103878)"/>
<path fill="none" stroke-width="0.8" stroke-linecap="butt" stroke-linejoin="round" stroke="rgb(0%, 0%, 54.499817%)" stroke-opacity="1" stroke-miterlimit="10" d="M 47.998329 86.430002 L 23.999165 100.28596 " transform="matrix(0.993199, 0, 0, -0.993199, 0.000000000000003886, 150.103878)"/>
<path fill="none" stroke-width="0.8" stroke-linecap="butt" stroke-linejoin="round" stroke="rgb(0%, 0%, 54.499817%)" stroke-opacity="1" stroke-miterlimit="10" d="M 23.999165 100.28596 L 23.999165 72.574044 " transform="matrix(0.993199, 0, 0, -0.993199, 0.000000000000003886, 150.103878)"/>
<path fill="none" stroke-width="0.8" stroke-linecap="butt" stroke-linejoin="round" stroke="rgb(0%, 0%, 54.499817%)" stroke-opacity="1" stroke-miterlimit="10" d="M 47.998329 86.430002 L 47.998329 58.718086 L 23.999165 72.574044 " transform="matrix(0.993199, 0, 0, -0.993199, 0.000000000000003886, 150.103878)"/>
<path fill="none" stroke-width="0.8" stroke-linecap="butt" stroke-linejoin="round" stroke="rgb(0%, 0%, 54.499817%)" stroke-opacity="1" stroke-miterlimit="10" d="M 23.999165 72.574044 L 23.999165 44.862127 " transform="matrix(0.993199, 0, 0, -0.993199, 0.000000000000003886, 150.103878)"/>
<path fill="none" stroke-width="0.8" stroke-linecap="butt" stroke-linejoin="round" stroke="rgb(0%, 0%, 54.499817%)" stroke-opacity="1" stroke-miterlimit="10" d="M 47.998329 31.006169 L 23.999165 44.862127 " transform="matrix(0.993199, 0, 0, -0.993199, 0.000000000000003886, 150.103878)"/>
<path fill="none" stroke-width="0.8" stroke-linecap="butt" stroke-linejoin="round" stroke="rgb(0%, 0%, 54.499817%)" stroke-opacity="1" stroke-miterlimit="10" d="M 23.999165 44.862127 L 47.998329 58.718086 " transform="matrix(0.993199, 0, 0, -0.993199, 0.000000000000003886, 150.103878)"/>
<path fill="none" stroke-width="0.8" stroke-linecap="butt" stroke-linejoin="round" stroke="rgb(0%, 0%, 54.499817%)" stroke-opacity="1" stroke-miterlimit="10" d="M 47.998329 58.718086 L 72.001427 44.862127 " transform="matrix(0.993199, 0, 0, -0.993199, 0.000000000000003886, 150.103878)"/>
<path fill="none" stroke-width="0.8" stroke-linecap="butt" stroke-linejoin="round" stroke="rgb(0%, 0%, 54.499817%)" stroke-opacity="1" stroke-miterlimit="10" d="M 72.001427 44.862127 L 47.998329 31.006169 " transform="matrix(0.993199, 0, 0, -0.993199, 0.000000000000003886, 150.103878)"/>
<path fill="none" stroke-width="0.8" stroke-linecap="butt" stroke-linejoin="round" stroke="rgb(0%, 0%, 54.499817%)" stroke-opacity="1" stroke-miterlimit="10" d="M 47.998329 31.006169 L 47.998329 58.718086 " transform="matrix(0.993199, 0, 0, -0.993199, 0.000000000000003886, 150.103878)"/>
<path fill="none" stroke-width="0.8" stroke-linecap="butt" stroke-linejoin="round" stroke="rgb(0%, 0%, 54.499817%)" stroke-opacity="1" stroke-miterlimit="10" d="M 23.999165 72.574044 L 47.998329 86.430002 " transform="matrix(0.993199, 0, 0, -0.993199, 0.000000000000003886, 150.103878)"/>
<path fill="none" stroke-width="0.8" stroke-linecap="butt" stroke-linejoin="round" stroke="rgb(0%, 0%, 54.499817%)" stroke-opacity="1" stroke-miterlimit="10" d="M 47.998329 114.145852 L 72.001427 100.28596 L 47.998329 86.430002 " transform="matrix(0.993199, 0, 0, -0.993199, 0.000000000000003886, 150.103878)"/>
<path fill="none" stroke-width="0.8" stroke-linecap="butt" stroke-linejoin="round" stroke="rgb(0%, 0%, 54.499817%)" stroke-opacity="1" stroke-miterlimit="10" d="M 47.998329 86.430002 L 72.001427 72.574044 L 47.998329 58.718086 " transform="matrix(0.993199, 0, 0, -0.993199, 0.000000000000003886, 150.103878)"/>
<path fill="none" stroke-width="0.8" stroke-linecap="butt" stroke-linejoin="round" stroke="rgb(0%, 0%, 54.499817%)" stroke-opacity="1" stroke-miterlimit="10" d="M 72.001427 72.574044 L 72.001427 44.862127 " transform="matrix(0.993199, 0, 0, -0.993199, 0.000000000000003886, 150.103878)"/>
<path fill="none" stroke-width="0.8" stroke-linecap="butt" stroke-linejoin="round" stroke="rgb(0%, 0%, 54.499817%)" stroke-opacity="1" stroke-miterlimit="10" d="M 72.001427 44.862127 L 96.000592 31.006169 " transform="matrix(0.993199, 0, 0, -0.993199, 0.000000000000003886, 150.103878)"/>
<path fill="none" stroke-width="0.8" stroke-linecap="butt" stroke-linejoin="round" stroke="rgb(0%, 0%, 54.499817%)" stroke-opacity="1" stroke-miterlimit="10" d="M 96.000592 31.006169 L 96.000592 58.718086 L 72.001427 44.862127 " transform="matrix(0.993199, 0, 0, -0.993199, 0.000000000000003886, 150.103878)"/>
<path fill="none" stroke-width="0.8" stroke-linecap="butt" stroke-linejoin="round" stroke="rgb(0%, 0%, 54.499817%)" stroke-opacity="1" stroke-miterlimit="10" d="M 72.001427 72.574044 L 96.000592 58.718086 " transform="matrix(0.993199, 0, 0, -0.993199, 0.000000000000003886, 150.103878)"/>
<path fill="none" stroke-width="0.8" stroke-linecap="butt" stroke-linejoin="round" stroke="rgb(0%, 0%, 54.499817%)" stroke-opacity="1" stroke-miterlimit="10" d="M 96.000592 58.718086 L 96.000592 86.430002 " transform="matrix(0.993199, 0, 0, -0.993199, 0.000000000000003886, 150.103878)"/>
<path fill="none" stroke-width="0.8" stroke-linecap="butt" stroke-linejoin="round" stroke="rgb(0%, 0%, 54.499817%)" stroke-opacity="1" stroke-miterlimit="10" d="M 72.001427 100.28596 L 96.000592 86.430002 " transform="matrix(0.993199, 0, 0, -0.993199, 0.000000000000003886, 150.103878)"/>
<path fill="none" stroke-width="0.8" stroke-linecap="butt" stroke-linejoin="round" stroke="rgb(0%, 0%, 54.499817%)" stroke-opacity="1" stroke-miterlimit="10" d="M 96.000592 86.430002 L 72.001427 72.574044 " transform="matrix(0.993199, 0, 0, -0.993199, 0.000000000000003886, 150.103878)"/>
<path fill="none" stroke-width="0.8" stroke-linecap="butt" stroke-linejoin="round" stroke="rgb(0%, 0%, 54.499817%)" stroke-opacity="1" stroke-miterlimit="10" d="M 72.001427 72.574044 L 72.001427 100.28596 " transform="matrix(0.993199, 0, 0, -0.993199, 0.000000000000003886, 150.103878)"/>
<path fill="none" stroke-width="0.8" stroke-linecap="butt" stroke-linejoin="round" stroke="rgb(0%, 0%, 54.499817%)" stroke-opacity="1" stroke-miterlimit="10" d="M 72.001427 100.28596 L 72.001427 128.00181 " transform="matrix(0.993199, 0, 0, -0.993199, 0.000000000000003886, 150.103878)"/>
<path fill="none" stroke-width="0.8" stroke-linecap="butt" stroke-linejoin="round" stroke="rgb(0%, 0%, 54.499817%)" stroke-opacity="1" stroke-miterlimit="10" d="M 72.001427 128.00181 L 96.000592 114.145852 " transform="matrix(0.993199, 0, 0, -0.993199, 0.000000000000003886, 150.103878)"/>
<path fill="none" stroke-width="0.8" stroke-linecap="butt" stroke-linejoin="round" stroke="rgb(0%, 0%, 54.499817%)" stroke-opacity="1" stroke-miterlimit="10" d="M 96.000592 114.145852 L 96.000592 86.430002 " transform="matrix(0.993199, 0, 0, -0.993199, 0.000000000000003886, 150.103878)"/>
<path fill="none" stroke-width="0.8" stroke-linecap="butt" stroke-linejoin="round" stroke="rgb(0%, 0%, 54.499817%)" stroke-opacity="1" stroke-miterlimit="10" d="M 96.000592 86.430002 L 119.999756 100.28596 " transform="matrix(0.993199, 0, 0, -0.993199, 0.000000000000003886, 150.103878)"/>
<path fill="none" stroke-width="0.8" stroke-linecap="butt" stroke-linejoin="round" stroke="rgb(0%, 0%, 54.499817%)" stroke-opacity="1" stroke-miterlimit="10" d="M 119.999756 100.28596 L 96.000592 114.145852 " transform="matrix(0.993199, 0, 0, -0.993199, 0.000000000000003886, 150.103878)"/>
<path fill="none" stroke-width="0.8" stroke-linecap="butt" stroke-linejoin="round" stroke="rgb(0%, 0%, 54.499817%)" stroke-opacity="1" stroke-miterlimit="10" d="M 96.000592 114.145852 L 119.999756 128.00181 L 119.999756 100.28596 " transform="matrix(0.993199, 0, 0, -0.993199, 0.000000000000003886, 150.103878)"/>
<path fill="none" stroke-width="0.8" stroke-linecap="butt" stroke-linejoin="round" stroke="rgb(0%, 0%, 54.499817%)" stroke-opacity="1" stroke-miterlimit="10" d="M 119.999756 100.28596 L 119.999756 72.574044 " transform="matrix(0.993199, 0, 0, -0.993199, 0.000000000000003886, 150.103878)"/>
<path fill="none" stroke-width="0.8" stroke-linecap="butt" stroke-linejoin="round" stroke="rgb(0%, 0%, 54.499817%)" stroke-opacity="1" stroke-miterlimit="10" d="M 119.999756 72.574044 L 96.000592 86.430002 " transform="matrix(0.993199, 0, 0, -0.993199, 0.000000000000003886, 150.103878)"/>
<path fill="none" stroke-width="0.8" stroke-linecap="round" stroke-linejoin="round" stroke="rgb(0%, 0%, 54.499817%)" stroke-opacity="1" stroke-miterlimit="10" d="M 96.000592 86.430002 L 96.000592 86.430002 " transform="matrix(0.993199, 0, 0, -0.993199, 0.000000000000003886, 150.103878)"/>
<path fill="none" stroke-width="0.8" stroke-linecap="butt" stroke-linejoin="round" stroke="rgb(0%, 0%, 54.499817%)" stroke-opacity="1" stroke-miterlimit="10" d="M 96.000592 58.718086 L 119.999756 72.574044 " transform="matrix(0.993199, 0, 0, -0.993199, 0.000000000000003886, 150.103878)"/>
<path fill="none" stroke-width="0.8" stroke-linecap="butt" stroke-linejoin="round" stroke="rgb(0%, 0%, 54.499817%)" stroke-opacity="1" stroke-miterlimit="10" d="M 119.999756 72.574044 L 119.999756 44.862127 L 96.000592 58.718086 " transform="matrix(0.993199, 0, 0, -0.993199, 0.000000000000003886, 150.103878)"/>
<path fill="none" stroke-width="0.8" stroke-linecap="butt" stroke-linejoin="round" stroke="rgb(0%, 0%, 54.499817%)" stroke-opacity="1" stroke-miterlimit="10" d="M 119.999756 44.862127 L 96.000592 31.006169 " transform="matrix(0.993199, 0, 0, -0.993199, 0.000000000000003886, 150.103878)"/>
<path fill-rule="evenodd" fill="rgb(100%, 100%, 0%)" fill-opacity="1" stroke-width="0.8" stroke-linecap="butt" stroke-linejoin="round" stroke="rgb(0%, 0%, 54.499817%)" stroke-opacity="1" stroke-miterlimit="10" d="M 72.001427 100.28596 L 96.000592 114.145852 " transform="matrix(0.993199, 0, 0, -0.993199, 0.000000000000003886, 150.103878)"/>
</svg>
