<?xml version="1.0" encoding="UTF-8"?>
<svg xmlns="http://www.w3.org/2000/svg" xmlns:xlink="http://www.w3.org/1999/xlink" width="338.2" height="338.5216" viewBox="0 0 338.2 338.5216">
<path fill-rule="evenodd" fill="rgb(0%, 0%, 100%)" fill-opacity="0.2" d="M 292.808594 180.992188 L 312.761719 200.945312 L 292.808594 220.898438 L 272.855469 200.945312 Z M 292.808594 180.992188 "/>
<path fill-rule="evenodd" fill="rgb(0%, 0%, 100%)" fill-opacity="0.2" d="M 292.808594 212.917969 L 312.761719 232.871094 L 292.808594 252.824219 L 272.855469 232.871094 Z M 292.808594 212.917969 "/>
<path fill-rule="evenodd" fill="rgb(0%, 0%, 100%)" fill-opacity="0.2" d="M 292.808594 244.84375 L 312.761719 264.796875 L 292.808594 284.75 L 272.855469 264.796875 Z M 292.808594 244.84375 "/>
<path fill-rule="evenodd" fill="rgb(0%, 0%, 100%)" fill-opacity="0.2" d="M 292.808594 85.21875 L 312.761719 105.171875 L 292.808594 125.125 L 272.855469 105.171875 Z M 292.808594 85.21875 "/>
<path fill-rule="evenodd" fill="rgb(0%, 0%, 100%)" fill-opacity="0.2" d="M 292.808594 117.144531 L 312.761719 137.097656 L 292.808594 157.050781 L 272.855469 137.097656 Z M 292.808594 117.144531 "/>
<path fill-rule="evenodd" fill="rgb(0%, 0%, 100%)" fill-opacity="0.2" d="M 292.808594 149.070312 L 312.761719 169.023438 L 292.808594 188.976562 L 272.855469 169.023438 Z M 292.808594 149.070312 "/>
<path fill-rule="evenodd" fill="rgb(0%, 0%, 100%)" fill-opacity="0.2" d="M 292.808594 21.371094 L 312.761719 41.324219 L 292.808594 61.277344 L 272.855469 41.324219 Z M 292.808594 21.371094 "/>
<path fill-rule="evenodd" fill="rgb(0%, 0%, 100%)" fill-opacity="0.2" d="M 292.808594 53.296875 L 312.761719 73.25 L 292.808594 93.203125 L 272.855469 73.25 Z M 292.808594 53.296875 "/>
<path fill-rule="evenodd" fill="rgb(0%, 0%, 100%)" fill-opacity="0.2" d="M 165.109375 180.992188 L 185.0625 200.945312 L 165.109375 220.898438 L 145.15625 200.945312 Z M 165.109375 180.992188 "/>
<path fill-rule="evenodd" fill="rgb(0%, 0%, 100%)" fill-opacity="0.2" d="M 165.109375 212.917969 L 185.0625 232.871094 L 165.109375 252.824219 L 145.15625 232.871094 Z M 165.109375 212.917969 "/>
<path fill-rule="evenodd" fill="rgb(0%, 0%, 100%)" fill-opacity="0.2" d="M 165.109375 244.84375 L 185.0625 264.796875 L 165.109375 284.75 L 145.15625 264.796875 Z M 165.109375 244.84375 "/>
<path fill-rule="evenodd" fill="rgb(0%, 0%, 100%)" fill-opacity="0.2" d="M 165.109375 85.21875 L 185.0625 105.171875 L 165.109375 125.125 L 145.15625 105.171875 Z M 165.109375 85.21875 "/>
<path fill-rule="evenodd" fill="rgb(0%, 0%, 100%)" fill-opacity="0.2" d="M 165.109375 117.144531 L 185.0625 137.097656 L 165.109375 157.050781 L 145.15625 137.097656 Z M 165.109375 117.144531 "/>
<path fill-rule="evenodd" fill="rgb(0%, 0%, 100%)" fill-opacity="0.2" d="M 165.109375 149.070312 L 185.0625 169.023438 L 165.109375 188.976562 L 145.15625 169.023438 Z M 165.109375 149.070312 "/>
<path fill-rule="evenodd" fill="rgb(0%, 0%, 100%)" fill-opacity="0.2" d="M 165.109375 21.371094 L 185.0625 41.324219 L 165.109375 61.277344 L 145.15625 41.324219 Z M 165.109375 21.371094 "/>
<path fill-rule="evenodd" fill="rgb(0%, 0%, 100%)" fill-opacity="0.2" d="M 165.109375 53.296875 L 185.0625 73.25 L 165.109375 93.203125 L 145.15625 73.25 Z M 165.109375 53.296875 "/>
<path fill-rule="evenodd" fill="rgb(0%, 0%, 100%)" fill-opacity="0.2" d="M 228.957031 180.992188 L 248.910156 200.945312 L 228.957031 220.898438 L 209.003906 200.945312 Z M 228.957031 180.992188 "/>
<path fill-rule="evenodd" fill="rgb(0%, 0%, 100%)" fill-opacity="0.2" d="M 228.957031 212.917969 L 248.910156 232.871094 L 228.957031 252.824219 L 209.003906 232.871094 Z M 228.957031 212.917969 "/>
<path fill-rule="evenodd" fill="rgb(0%, 0%, 100%)" fill-opacity="0.2" d="M 228.957031 244.84375 L 248.910156 264.796875 L 228.957031 284.75 L 209.003906 264.796875 Z M 228.957031 244.84375 "/>
<path fill-rule="evenodd" fill="rgb(0%, 0%, 100%)" fill-opacity="0.2" d="M 228.957031 85.21875 L 248.910156 105.171875 L 228.957031 125.125 L 209.003906 105.171875 Z M 228.957031 85.21875 "/>
<path fill-rule="evenodd" fill="rgb(0%, 0%, 100%)" fill-opacity="0.2" d="M 228.957031 117.144531 L 248.910156 137.097656 L 228.957031 157.050781 L 209.003906 137.097656 Z M 228.957031 117.144531 "/>
<path fill-rule="evenodd" fill="rgb(0%, 0%, 100%)" fill-opacity="0.2" d="M 228.957031 149.070312 L 248.910156 169.023438 L 228.957031 188.976562 L 209.003906 169.023438 Z M 228.957031 149.070312 "/>
<path fill-rule="evenodd" fill="rgb(0%, 0%, 100%)" fill-opacity="0.2" d="M 228.957031 21.371094 L 248.910156 41.324219 L 228.957031 61.277344 L 209.003906 41.324219 Z M 228.957031 21.371094 "/>
<path fill-rule="evenodd" fill="rgb(0%, 0%, 100%)" fill-opacity="0.2" d="M 228.957031 53.296875 L 248.910156 73.25 L 228.957031 93.203125 L 209.003906 73.25 Z M 228.957031 53.296875 "/>
<path fill="none" stroke-width="1.2" stroke-linecap="butt" stroke-linejoin="round" stroke="rgb(0%, 0%, 100%)" stroke-opacity="1" stroke-miterlimit="10" d="M 296.001222 164.001862 L 316.001545 144.001539 L 296.001222 124.001216 L 276.000899 144.001539 Z M 296.001222 164.001862 " transform="matrix(0.99764, 0, 0, -0.99764, -2.4941, 344.607025)"/>
<path fill="none" stroke-width="1.2" stroke-linecap="butt" stroke-linejoin="round" stroke="rgb(0%, 0%, 100%)" stroke-opacity="1" stroke-miterlimit="10" d="M 296.001222 132.000562 L 316.001545 112.000238 L 296.001222 91.999915 L 276.000899 112.000238 Z M 296.001222 132.000562 " transform="matrix(0.99764, 0, 0, -0.99764, -2.4941, 344.607025)"/>
<path fill="none" stroke-width="1.2" stroke-linecap="butt" stroke-linejoin="round" stroke="rgb(0%, 0%, 100%)" stroke-opacity="1" stroke-miterlimit="10" d="M 296.001222 99.999261 L 316.001545 79.998938 L 296.001222 59.998614 L 276.000899 79.998938 Z M 296.001222 99.999261 " transform="matrix(0.99764, 0, 0, -0.99764, -2.4941, 344.607025)"/>
<path fill="none" stroke-width="1.2" stroke-linecap="butt" stroke-linejoin="round" stroke="rgb(0%, 0%, 100%)" stroke-opacity="1" stroke-miterlimit="10" d="M 296.001222 260.001848 L 316.001545 240.001525 L 296.001222 220.001202 L 276.000899 240.001525 Z M 296.001222 260.001848 " transform="matrix(0.99764, 0, 0, -0.99764, -2.4941, 344.607025)"/>
<path fill="none" stroke-width="1.2" stroke-linecap="butt" stroke-linejoin="round" stroke="rgb(0%, 0%, 100%)" stroke-opacity="1" stroke-miterlimit="10" d="M 296.001222 228.000548 L 316.001545 208.000225 L 296.001222 187.999901 L 276.000899 208.000225 Z M 296.001222 228.000548 " transform="matrix(0.99764, 0, 0, -0.99764, -2.4941, 344.607025)"/>
<path fill="none" stroke-width="1.2" stroke-linecap="butt" stroke-linejoin="round" stroke="rgb(0%, 0%, 100%)" stroke-opacity="1" stroke-miterlimit="10" d="M 296.001222 195.999247 L 316.001545 175.998924 L 296.001222 155.998601 L 276.000899 175.998924 Z M 296.001222 195.999247 " transform="matrix(0.99764, 0, 0, -0.99764, -2.4941, 344.607025)"/>
<path fill="none" stroke-width="1.2" stroke-linecap="butt" stroke-linejoin="round" stroke="rgb(0%, 0%, 100%)" stroke-opacity="1" stroke-miterlimit="10" d="M 296.001222 324.000534 L 316.001545 304.000211 L 296.001222 283.999887 L 276.000899 304.000211 Z M 296.001222 324.000534 " transform="matrix(0.99764, 0, 0, -0.99764, -2.4941, 344.607025)"/>
<path fill="none" stroke-width="1.2" stroke-linecap="butt" stroke-linejoin="round" stroke="rgb(0%, 0%, 100%)" stroke-opacity="1" stroke-miterlimit="10" d="M 296.001222 291.999234 L 316.001545 271.99891 L 296.001222 251.998587 L 276.000899 271.99891 Z M 296.001222 291.999234 " transform="matrix(0.99764, 0, 0, -0.99764, -2.4941, 344.607025)"/>
<path fill="none" stroke-width="1.2" stroke-linecap="butt" stroke-linejoin="round" stroke="rgb(0%, 0%, 100%)" stroke-opacity="1" stroke-miterlimit="10" d="M 231.998621 164.001862 L 251.998944 144.001539 L 231.998621 124.001216 L 211.998298 144.001539 Z M 231.998621 164.001862 " transform="matrix(0.99764, 0, 0, -0.99764, -2.4941, 344.607025)"/>
<path fill="none" stroke-width="1.2" stroke-linecap="butt" stroke-linejoin="round" stroke="rgb(0%, 0%, 100%)" stroke-opacity="1" stroke-miterlimit="10" d="M 231.998621 132.000562 L 251.998944 112.000238 L 231.998621 91.999915 L 211.998298 112.000238 Z M 231.998621 132.000562 " transform="matrix(0.99764, 0, 0, -0.99764, -2.4941, 344.607025)"/>
<path fill="none" stroke-width="1.2" stroke-linecap="butt" stroke-linejoin="round" stroke="rgb(0%, 0%, 100%)" stroke-opacity="1" stroke-miterlimit="10" d="M 231.998621 99.999261 L 251.998944 79.998938 L 231.998621 59.998614 L 211.998298 79.998938 Z M 231.998621 99.999261 " transform="matrix(0.99764, 0, 0, -0.99764, -2.4941, 344.607025)"/>
<path fill="none" stroke-width="1.2" stroke-linecap="butt" stroke-linejoin="round" stroke="rgb(0%, 0%, 100%)" stroke-opacity="1" stroke-miterlimit="10" d="M 231.998621 260.001848 L 251.998944 240.001525 L 231.998621 220.001202 L 211.998298 240.001525 Z M 231.998621 260.001848 " transform="matrix(0.99764, 0, 0, -0.99764, -2.4941, 344.607025)"/>
<path fill="none" stroke-width="1.2" stroke-linecap="butt" stroke-linejoin="round" stroke="rgb(0%, 0%, 100%)" stroke-opacity="1" stroke-miterlimit="10" d="M 231.998621 228.000548 L 251.998944 208.000225 L 231.998621 187.999901 L 211.998298 208.000225 Z M 231.998621 228.000548 " transform="matrix(0.99764, 0, 0, -0.99764, -2.4941, 344.607025)"/>
<path fill="none" stroke-width="1.2" stroke-linecap="butt" stroke-linejoin="round" stroke="rgb(0%, 0%, 100%)" stroke-opacity="1" stroke-miterlimit="10" d="M 231.998621 195.999247 L 251.998944 175.998924 L 231.998621 155.998601 L 211.998298 175.998924 Z M 231.998621 195.999247 " transform="matrix(0.99764, 0, 0, -0.99764, -2.4941, 344.607025)"/>
<path fill="none" stroke-width="1.2" stroke-linecap="butt" stroke-linejoin="round" stroke="rgb(0%, 0%, 100%)" stroke-opacity="1" stroke-miterlimit="10" d="M 231.998621 324.000534 L 251.998944 304.000211 L 231.998621 283.999887 L 211.998298 304.000211 Z M 231.998621 324.000534 " transform="matrix(0.99764, 0, 0, -0.99764, -2.4941, 344.607025)"/>
<path fill="none" stroke-width="1.2" stroke-linecap="butt" stroke-linejoin="round" stroke="rgb(0%, 0%, 100%)" stroke-opacity="1" stroke-miterlimit="10" d="M 231.998621 291.999234 L 251.998944 271.99891 L 231.998621 251.998587 L 211.998298 271.99891 Z M 231.998621 291.999234 " transform="matrix(0.99764, 0, 0, -0.99764, -2.4941, 344.607025)"/>
<path fill="none" stroke-width="1.2" stroke-linecap="butt" stroke-linejoin="round" stroke="rgb(0%, 0%, 100%)" stroke-opacity="1" stroke-miterlimit="10" d="M 167.999935 164.001862 L 188.000259 144.001539 L 167.999935 124.001216 L 147.999612 144.001539 Z M 167.999935 164.001862 " transform="matrix(0.99764, 0, 0, -0.99764, -2.4941, 344.607025)"/>
<path fill="none" stroke-width="1.2" stroke-linecap="butt" stroke-linejoin="round" stroke="rgb(0%, 0%, 100%)" stroke-opacity="1" stroke-miterlimit="10" d="M 167.999935 132.000562 L 188.000259 112.000238 L 167.999935 91.999915 L 147.999612 112.000238 Z M 167.999935 132.000562 " transform="matrix(0.99764, 0, 0, -0.99764, -2.4941, 344.607025)"/>
<path fill="none" stroke-width="1.2" stroke-linecap="butt" stroke-linejoin="round" stroke="rgb(0%, 0%, 100%)" stroke-opacity="1" stroke-miterlimit="10" d="M 167.999935 99.999261 L 188.000259 79.998938 L 167.999935 59.998614 L 147.999612 79.998938 Z M 167.999935 99.999261 " transform="matrix(0.99764, 0, 0, -0.99764, -2.4941, 344.607025)"/>
<path fill="none" stroke-width="1.2" stroke-linecap="butt" stroke-linejoin="round" stroke="rgb(0%, 0%, 100%)" stroke-opacity="1" stroke-miterlimit="10" d="M 167.999935 260.001848 L 188.000259 240.001525 L 167.999935 220.001202 L 147.999612 240.001525 Z M 167.999935 260.001848 " transform="matrix(0.99764, 0, 0, -0.99764, -2.4941, 344.607025)"/>
<path fill="none" stroke-width="1.2" stroke-linecap="butt" stroke-linejoin="round" stroke="rgb(0%, 0%, 100%)" stroke-opacity="1" stroke-miterlimit="10" d="M 167.999935 228.000548 L 188.000259 208.000225 L 167.999935 187.999901 L 147.999612 208.000225 Z M 167.999935 228.000548 " transform="matrix(0.99764, 0, 0, -0.99764, -2.4941, 344.607025)"/>
<path fill="none" stroke-width="1.2" stroke-linecap="butt" stroke-linejoin="round" stroke="rgb(0%, 0%, 100%)" stroke-opacity="1" stroke-miterlimit="10" d="M 167.999935 195.999247 L 188.000259 175.998924 L 167.999935 155.998601 L 147.999612 175.998924 Z M 167.999935 195.999247 " transform="matrix(0.99764, 0, 0, -0.99764, -2.4941, 344.607025)"/>
<path fill="none" stroke-width="1.2" stroke-linecap="butt" stroke-linejoin="round" stroke="rgb(0%, 0%, 100%)" stroke-opacity="1" stroke-miterlimit="10" d="M 167.999935 324.000534 L 188.000259 304.000211 L 167.999935 283.999887 L 147.999612 304.000211 Z M 167.999935 324.000534 " transform="matrix(0.99764, 0, 0, -0.99764, -2.4941, 344.607025)"/>
<path fill="none" stroke-width="1.2" stroke-linecap="butt" stroke-linejoin="round" stroke="rgb(0%, 0%, 100%)" stroke-opacity="1" stroke-miterlimit="10" d="M 167.999935 291.999234 L 188.000259 271.99891 L 167.999935 251.998587 L 147.999612 271.99891 Z M 167.999935 291.999234 " transform="matrix(0.99764, 0, 0, -0.99764, -2.4941, 344.607025)"/>
<path fill="none" stroke-width="1.2" stroke-linecap="butt" stroke-linejoin="round" stroke="rgb(0%, 0%, 100%)" stroke-opacity="1" stroke-miterlimit="10" d="M 39.998649 164.001862 L 59.998972 144.001539 L 39.998649 124.001216 L 19.998325 144.001539 Z M 39.998649 164.001862 " transform="matrix(0.99764, 0, 0, -0.99764, -2.4941, 344.607025)"/>
<path fill="none" stroke-width="1.2" stroke-linecap="butt" stroke-linejoin="round" stroke="rgb(0%, 0%, 100%)" stroke-opacity="1" stroke-miterlimit="10" d="M 39.998649 132.000562 L 59.998972 112.000238 L 39.998649 91.999915 L 19.998325 112.000238 Z M 39.998649 132.000562 " transform="matrix(0.99764, 0, 0, -0.99764, -2.4941, 344.607025)"/>
<path fill="none" stroke-width="1.2" stroke-linecap="butt" stroke-linejoin="round" stroke="rgb(0%, 0%, 100%)" stroke-opacity="1" stroke-miterlimit="10" d="M 39.998649 99.999261 L 59.998972 79.998938 L 39.998649 59.998614 L 19.998325 79.998938 Z M 39.998649 99.999261 " transform="matrix(0.99764, 0, 0, -0.99764, -2.4941, 344.607025)"/>
<path fill="none" stroke-width="1.2" stroke-linecap="butt" stroke-linejoin="round" stroke="rgb(0%, 0%, 100%)" stroke-opacity="1" stroke-miterlimit="10" d="M 39.998649 260.001848 L 59.998972 240.001525 L 39.998649 220.001202 L 19.998325 240.001525 Z M 39.998649 260.001848 " transform="matrix(0.99764, 0, 0, -0.99764, -2.4941, 344.607025)"/>
<path fill="none" stroke-width="1.2" stroke-linecap="butt" stroke-linejoin="round" stroke="rgb(0%, 0%, 100%)" stroke-opacity="1" stroke-miterlimit="10" d="M 39.998649 228.000548 L 59.998972 208.000225 L 39.998649 187.999901 L 19.998325 208.000225 Z M 39.998649 228.000548 " transform="matrix(0.99764, 0, 0, -0.99764, -2.4941, 344.607025)"/>
<path fill="none" stroke-width="1.2" stroke-linecap="butt" stroke-linejoin="round" stroke="rgb(0%, 0%, 100%)" stroke-opacity="1" stroke-miterlimit="10" d="M 39.998649 195.999247 L 59.998972 175.998924 L 39.998649 155.998601 L 19.998325 175.998924 Z M 39.998649 195.999247 " transform="matrix(0.99764, 0, 0, -0.99764, -2.4941, 344.607025)"/>
<path fill="none" stroke-width="1.2" stroke-linecap="butt" stroke-linejoin="round" stroke="rgb(0%, 0%, 100%)" stroke-opacity="1" stroke-miterlimit="10" d="M 39.998649 324.000534 L 59.998972 304.000211 L 39.998649 283.999887 L 19.998325 304.000211 Z M 39.998649 324.000534 " transform="matrix(0.99764, 0, 0, -0.99764, -2.4941, 344.607025)"/>
<path fill="none" stroke-width="1.2" stroke-linecap="butt" stroke-linejoin="round" stroke="rgb(0%, 0%, 100%)" stroke-opacity="1" stroke-miterlimit="10" d="M 39.998649 291.999234 L 59.998972 271.99891 L 39.998649 251.998587 L 19.998325 271.99891 Z M 39.998649 291.999234 " transform="matrix(0.99764, 0, 0, -0.99764, -2.4941, 344.607025)"/>
<path fill="none" stroke-width="1.2" stroke-linecap="butt" stroke-linejoin="round" stroke="rgb(0%, 0%, 100%)" stroke-opacity="1" stroke-miterlimit="10" d="M 104.00125 164.001862 L 124.001573 144.001539 L 104.00125 124.001216 L 84.000926 144.001539 Z M 104.00125 164.001862 " transform="matrix(0.99764, 0, 0, -0.99764, -2.4941, 344.607025)"/>
<path fill="none" stroke-width="1.2" stroke-linecap="butt" stroke-linejoin="round" stroke="rgb(0%, 0%, 100%)" stroke-opacity="1" stroke-miterlimit="10" d="M 104.00125 132.000562 L 124.001573 112.000238 L 104.00125 91.999915 L 84.000926 112.000238 Z M 104.00125 132.000562 " transform="matrix(0.99764, 0, 0, -0.99764, -2.4941, 344.607025)"/>
<path fill="none" stroke-width="1.2" stroke-linecap="butt" stroke-linejoin="round" stroke="rgb(0%, 0%, 100%)" stroke-opacity="1" stroke-miterlimit="10" d="M 104.00125 99.999261 L 124.001573 79.998938 L 104.00125 59.998614 L 84.000926 79.998938 Z M 104.00125 99.999261 " transform="matrix(0.99764, 0, 0, -0.99764, -2.4941, 344.607025)"/>
<path fill="none" stroke-width="1.2" stroke-linecap="butt" stroke-linejoin="round" stroke="rgb(0%, 0%, 100%)" stroke-opacity="1" stroke-miterlimit="10" d="M 104.00125 260.001848 L 124.001573 240.001525 L 104.00125 220.001202 L 84.000926 240.001525 Z M 104.00125 260.001848 " transform="matrix(0.99764, 0, 0, -0.99764, -2.4941, 344.607025)"/>
<path fill="none" stroke-width="1.2" stroke-linecap="butt" stroke-linejoin="round" stroke="rgb(0%, 0%, 100%)" stroke-opacity="1" stroke-miterlimit="10" d="M 104.00125 228.000548 L 124.001573 208.000225 L 104.00125 187.999901 L 84.000926 208.000225 Z M 104.00125 228.000548 " transform="matrix(0.99764, 0, 0, -0.99764, -2.4941, 344.607025)"/>
<path fill="none" stroke-width="1.2" stroke-linecap="butt" stroke-linejoin="round" stroke="rgb(0%, 0%, 100%)" stroke-opacity="1" stroke-miterlimit="10" d="M 104.00125 195.999247 L 124.001573 175.998924 L 104.00125 155.998601 L 84.000926 175.998924 Z M 104.00125 195.999247 " transform="matrix(0.99764, 0, 0, -0.99764, -2.4941, 344.607025)"/>
<path fill="none" stroke-width="1.2" stroke-linecap="butt" stroke-linejoin="round" stroke="rgb(0%, 0%, 100%)" stroke-opacity="1" stroke-miterlimit="10" d="M 104.00125 324.000534 L 124.001573 304.000211 L 104.00125 283.999887 L 84.000926 304.000211 Z M 104.00125 324.000534 " transform="matrix(0.99764, 0, 0, -0.99764, -2.4941, 344.607025)"/>
<path fill="none" stroke-width="1.2" stroke-linecap="butt" stroke-linejoin="round" stroke="rgb(0%, 0%, 100%)" stroke-opacity="1" stroke-miterlimit="10" d="M 104.00125 291.999234 L 124.001573 271.99891 L 104.00125 251.998587 L 84.000926 271.99891 Z M 104.00125 291.999234 " transform="matrix(0.99764, 0, 0, -0.99764, -2.4941, 344.607025)"/>
<path fill-rule="evenodd" fill="rgb(0%, 0%, 100%)" fill-opacity="0.2" d="M 101.261719 180.992188 L 121.214844 200.945312 L 101.261719 220.898438 L 81.308594 200.945312 Z M 101.261719 180.992188 "/>
<path fill-rule="evenodd" fill="rgb(0%, 0%, 100%)" fill-opacity="0.2" d="M 101.261719 212.917969 L 121.214844 232.871094 L 101.261719 252.824219 L 81.308594 232.871094 Z M 101.261719 212.917969 "/>
<path fill-rule="evenodd" fill="rgb(0%, 0%, 100%)" fill-opacity="0.2" d="M 101.261719 244.84375 L 121.214844 264.796875 L 101.261719 284.75 L 81.308594 264.796875 Z M 101.261719 244.84375 "/>
<path fill-rule="evenodd" fill="rgb(0%, 0%, 100%)" fill-opacity="0.2" d="M 101.261719 85.21875 L 121.214844 105.171875 L 101.261719 125.125 L 81.308594 105.171875 Z M 101.261719 85.21875 "/>
<path fill-rule="evenodd" fill="rgb(0%, 0%, 100%)" fill-opacity="0.2" d="M 101.261719 117.144531 L 121.214844 137.097656 L 101.261719 157.050781 L 81.308594 137.097656 Z M 101.261719 117.144531 "/>
<path fill-rule="evenodd" fill="rgb(0%, 0%, 100%)" fill-opacity="0.2" d="M 101.261719 149.070312 L 121.214844 169.023438 L 101.261719 188.976562 L 81.308594 169.023438 Z M 101.261719 149.070312 "/>
<path fill-rule="evenodd" fill="rgb(0%, 0%, 100%)" fill-opacity="0.2" d="M 101.261719 21.371094 L 121.214844 41.324219 L 101.261719 61.277344 L 81.308594 41.324219 Z M 101.261719 21.371094 "/>
<path fill-rule="evenodd" fill="rgb(0%, 0%, 100%)" fill-opacity="0.2" d="M 101.261719 53.296875 L 121.214844 73.25 L 101.261719 93.203125 L 81.308594 73.25 Z M 101.261719 53.296875 "/>
<path fill-rule="evenodd" fill="rgb(0%, 0%, 100%)" fill-opacity="0.2" d="M 37.410156 180.992188 L 57.363281 200.945312 L 37.410156 220.898438 L 17.457031 200.945312 Z M 37.410156 180.992188 "/>
<path fill-rule="evenodd" fill="rgb(0%, 0%, 100%)" fill-opacity="0.2" d="M 37.410156 212.917969 L 57.363281 232.871094 L 37.410156 252.824219 L 17.457031 232.871094 Z M 37.410156 212.917969 "/>
<path fill-rule="evenodd" fill="rgb(0%, 0%, 100%)" fill-opacity="0.2" d="M 37.410156 244.84375 L 57.363281 264.796875 L 37.410156 284.75 L 17.457031 264.796875 Z M 37.410156 244.84375 "/>
<path fill-rule="evenodd" fill="rgb(0%, 0%, 100%)" fill-opacity="0.2" d="M 37.410156 85.21875 L 57.363281 105.171875 L 37.410156 125.125 L 17.457031 105.171875 Z M 37.410156 85.21875 "/>
<path fill-rule="evenodd" fill="rgb(0%, 0%, 100%)" fill-opacity="0.2" d="M 37.410156 117.144531 L 57.363281 137.097656 L 37.410156 157.050781 L 17.457031 137.097656 Z M 37.410156 117.144531 "/>
<path fill-rule="evenodd" fill="rgb(0%, 0%, 100%)" fill-opacity="0.2" d="M 37.410156 149.070312 L 57.363281 169.023438 L 37.410156 188.976562 L 17.457031 169.023438 Z M 37.410156 149.070312 "/>
<path fill-rule="evenodd" fill="rgb(0%, 0%, 100%)" fill-opacity="0.2" d="M 37.410156 21.371094 L 57.363281 41.324219 L 37.410156 61.277344 L 17.457031 41.324219 Z M 37.410156 21.371094 "/>
<path fill-rule="evenodd" fill="rgb(0%, 0%, 100%)" fill-opacity="0.2" d="M 37.410156 53.296875 L 57.363281 73.25 L 37.410156 93.203125 L 17.457031 73.25 Z M 37.410156 53.296875 "/>
<path fill="none" stroke-width="1.2" stroke-linecap="butt" stroke-linejoin="round" stroke="rgb(0%, 0%, 100%)" stroke-opacity="1" stroke-miterlimit="10" d="M 296.001222 68.001876 L 316.001545 48.001553 L 296.001222 28.001229 L 276.000899 48.001553 Z M 296.001222 68.001876 " transform="matrix(0.99764, 0, 0, -0.99764, -2.4941, 344.607025)"/>
<path fill="none" stroke-width="1.2" stroke-linecap="butt" stroke-linejoin="round" stroke="rgb(0%, 0%, 100%)" stroke-opacity="1" stroke-miterlimit="10" d="M 231.998621 68.001876 L 251.998944 48.001553 L 231.998621 28.001229 L 211.998298 48.001553 Z M 231.998621 68.001876 " transform="matrix(0.99764, 0, 0, -0.99764, -2.4941, 344.607025)"/>
<path fill="none" stroke-width="1.2" stroke-linecap="butt" stroke-linejoin="round" stroke="rgb(0%, 0%, 100%)" stroke-opacity="1" stroke-miterlimit="10" d="M 167.999935 68.001876 L 188.000259 48.001553 L 167.999935 28.001229 L 147.999612 48.001553 Z M 167.999935 68.001876 " transform="matrix(0.99764, 0, 0, -0.99764, -2.4941, 344.607025)"/>
<path fill="none" stroke-width="1.2" stroke-linecap="butt" stroke-linejoin="round" stroke="rgb(0%, 0%, 100%)" stroke-opacity="1" stroke-miterlimit="10" d="M 39.998649 68.001876 L 59.998972 48.001553 L 39.998649 28.001229 L 19.998325 48.001553 Z M 39.998649 68.001876 " transform="matrix(0.99764, 0, 0, -0.99764, -2.4941, 344.607025)"/>
<path fill="none" stroke-width="1.2" stroke-linecap="butt" stroke-linejoin="round" stroke="rgb(0%, 0%, 100%)" stroke-opacity="1" stroke-miterlimit="10" d="M 104.00125 68.001876 L 124.001573 48.001553 L 104.00125 28.001229 L 84.000926 48.001553 Z M 104.00125 68.001876 " transform="matrix(0.99764, 0, 0, -0.99764, -2.4941, 344.607025)"/>
<path fill-rule="evenodd" fill="rgb(0%, 0%, 100%)" fill-opacity="0.2" d="M 292.808594 276.765625 L 312.761719 296.71875 L 292.808594 316.671875 L 272.855469 296.71875 Z M 292.808594 276.765625 "/>
<path fill-rule="evenodd" fill="rgb(0%, 0%, 100%)" fill-opacity="0.2" d="M 165.109375 276.765625 L 185.0625 296.71875 L 165.109375 316.671875 L 145.15625 296.71875 Z M 165.109375 276.765625 "/>
<path fill-rule="evenodd" fill="rgb(0%, 0%, 100%)" fill-opacity="0.2" d="M 228.957031 276.765625 L 248.910156 296.71875 L 228.957031 316.671875 L 209.003906 296.71875 Z M 228.957031 276.765625 "/>
<path fill-rule="evenodd" fill="rgb(0%, 0%, 100%)" fill-opacity="0.2" d="M 101.261719 276.765625 L 121.214844 296.71875 L 101.261719 316.671875 L 81.308594 296.71875 Z M 101.261719 276.765625 "/>
<path fill-rule="evenodd" fill="rgb(0%, 0%, 100%)" fill-opacity="0.2" d="M 37.410156 276.765625 L 57.363281 296.71875 L 37.410156 316.671875 L 17.457031 296.71875 Z M 37.410156 276.765625 "/>
</svg>
