<?xml version="1.0" encoding="UTF-8"?>
<svg xmlns="http://www.w3.org/2000/svg" xmlns:xlink="http://www.w3.org/1999/xlink" width="338.2" height="338.5216" viewBox="0 0 338.2 338.5216">
<path fill-rule="evenodd" fill="rgb(0%, 0%, 100%)" fill-opacity="0.2" d="M 292.808594 180.992188 L 312.761719 200.945312 L 292.808594 220.898438 L 272.855469 200.945312 Z M 292.808594 180.992188 "/>
<path fill-rule="evenodd" fill="rgb(0%, 0%, 100%)" fill-opacity="0.2" d="M 292.808594 212.917969 L 312.761719 232.871094 L 292.808594 252.824219 L 272.855469 232.871094 Z M 292.808594 212.917969 "/>
<path fill-rule="evenodd" fill="rgb(0%, 0%, 100%)" fill-opacity="0.2" d="M 292.808594 244.84375 L 312.761719 264.796875 L 292.808594 284.75 L 272.855469 264.796875 Z M 292.808594 244.84375 "/>
<path fill-rule="evenodd" fill="rgb(0%, 0%, 100%)" fill-opacity="0.2" d="M 292.808594 85.21875 L 312.761719 105.171875 L 292.808594 125.125 L 272.855469 105.171875 Z M 292.808594 85.21875 "/>
<path fill-rule="evenodd" fill="rgb(0%, 0%, 100%)" fill-opacity="0.2" d="M 292.808594 117.144531 L 312.761719 137.097656 L 292.808594 157.050781 L 272.855469 137.097656 Z M 292.808594 117.144531 "/>
<path fill-rule="evenodd" fill="rgb(0%, 0%, 100%)" fill-opacity="0.2" d="M 292.808594 149.070312 L 312.761719 169.023438 L 292.808594 188.976562 L 272.855469 169.023438 Z M 292.808594 149.070312 "/>
<path fill-rule="evenodd" fill="rgb(0%, 0%, 100%)" fill-opacity="0.2" d="M 292.808594 21.371094 L 312.761719 41.324219 L 292.808594 61.277344 L 272.855469 41.324219 Z M 292.808594 21.371094 "/>
<path fill-rule="evenodd" fill="rgb(0%, 0%, 100%)" fill-opacity="0.2" d="M 292.808594 53.296875 L 312.761719 73.25 L 292.808594 93.203125 L 272.855469 73.25 Z M 292.808594 53.296875 "/>
<path fill-rule="evenodd" fill="rgb(0%, 0%, 100%)" fill-opacity="0.2" d="M 165.109375 180.992188 L 185.0625 200.945312 L 165.109375 220.898438 L 145.15625 200.945312 Z M 165.109375 180.992188 "/>
<path fill-rule="evenodd" fill="rgb(0%, 0%, 100%)" fill-opacity="0.2" d="M 165.109375 212.917969 L 185.0625 232.871094 L 165.109375 252.824219 L 145.15625 232.871094 Z M 165.109375 212.917969 "/>
<path fill-rule="evenodd" fill="rgb(0%, 0%, 100%)" fill-opacity="0.2" d="M 165.109375 244.84375 L 185.0625 264.796875 L 165.109375 284.75 L 145.15625 264.796875 Z M 165.109375 244.84375 "/>
<path fill-rule="evenodd" fill="rgb(0%, 0%, 100%)" fill-opacity="0.2" d="M 165.109375 85.21875 L 185.0625 105.171875 L 165.109375 125.125 L 145.15625 105.171875 Z M 165.109375 85.21875 "/>
<path fill-rule="evenodd" fill="rgb(0%, 0%, 100%)" fill-opacity="0.2" d="M 165.109375 117.144531 L 185.0625 137.097656 L 165.109375 157.050781 L 145.15625 137.097656 Z M 165.109375 117.144531 "/>
<path fill-rule="evenodd" fill="rgb(0%, 0%, 100%)" fill-opacity="0.2" d="M 165.109375 149.070312 L 185.0625 169.023438 L 165.109375 188.976562 L 145.15625 169.023438 Z M 165.109375 149.070312 "/>
<path fill-rule="evenodd" fill="rgb(0%, 0%, 100%)" fill-opacity="0.2" d="M 165.109375 21.371094 L 185.0625 41.324219 L 165.109375 61.277344 L 145.15625 41.324219 Z M 165.109375 21.371094 "/>
<path fill-rule="evenodd" fill="rgb(0%, 0%, 100%)" fill-opacity="0.2" d="M 165.109375 53.296875 L 185.0625 73.25 L 165.109375 93.203125 L 145.15625 73.25 Z M 165.109375 53.296875 "/>
<path fill-rule="evenodd" fill="rgb(0%, 0%, 100%)" fill-opacity="0.2" d="M 228.957031 180.992188 L 248.910156 200.945312 L 228.957031 220.898438 L 209.003906 200.945312 Z M 228.957031 180.992188 "/>
<path fill-rule="evenodd" fill="rgb(0%, 0%, 100%)" fill-opacity="0.2" d="M 228.957031 212.917969 L 248.910156 232.871094 L 228.957031 252.824219 L 209.003906 232.871094 Z M 228.957031 212.917969 "/>
<path fill-rule="evenodd" fill="rgb(0%, 0%, 100%)" fill-opacity="0.2" d="M 228.957031 244.84375 L 248.910156 264.796875 L 228.957031 284.75 L 209.003906 264.796875 Z M 228.957031 244.84375 "/>
<path fill-rule="evenodd" fill="rgb(0%, 0%, 100%)" fill-opacity="0.2" d="M 228.957031 85.21875 L 248.910156 105.171875 L 228.957031 125.125 L 209.003906 105.171875 Z M 228.957031 85.21875 "/>
<path fill-rule="evenodd" fill="rgb(0%, 0%, 100%)" fill-opacity="0.2" d="M 228.957031 117.144531 L 248.910156 137.097656 L 228.957031 157.050781 L 209.003906 137.097656 Z M 228.957031 117.144531 "/>
<path fill-rule="evenodd" fill="rgb(0%, 0%, 100%)" fill-opacity="0.2" d="M 228.957031 149.070312 L 248.910156 169.023438 L 228.957031 188.976562 L 209.003906 169.023438 Z M 228.957031 149.070312 "/>
<path fill-rule="evenodd" fill="rgb(0%, 0%, 100%)" fill-opacity="0.2" d="M 228.957031 21.371094 L 248.910156 41.324219 L 228.957031 61.277344 L 209.003906 41.324219 Z M 228.957031 21.371094 "/>
<path fill-rule="evenodd" fill="rgb(0%, 0%, 100%)" fill-opacity="0.2" d="M 228.957031 53.296875 L 248.910156 73.25 L 228.957031 93.203125 L 209.003906 73.25 Z M 228.957031 53.296875 "/>
<path fill="none" stroke-width="1.2" stroke-linecap="butt" stroke-linejoin="round" stroke="rgb(0%, 0%, 100%)" stroke-opacity="1" stroke-miterlimit="10" d="M 296.001222 164.001862 L 316.001545 144.001539 L 296.001222 124.001216 L 276.000899 144.001539 Z M 296.001222 164.001862 " transform="matrix(0.99764, 0, 0, -0.99764, -2.4941, 344.607025)"/>
<path fill="none" stroke-width="1.2" stroke-linecap="butt" stroke-linejoin="round" stroke="rgb(0%, 0%, 100%)" stroke-opacity="1" stroke-miterlimit="10" d="M 296.001222 132.000562 L 316.001545 112.000238 L 296.001222 91.999915 L 276.000899 112.000238 Z M 296.001222 132.000562 " transform="matrix(0.99764, 0, 0, -0.99764, -2.4941, 344.607025)"/>
<path fill="none" stroke-width="1.2" stroke-linecap="butt" stroke-linejoin="round" stroke="rgb(0%, 0%, 100%)" stroke-opacity="1" stroke-miterlimit="10" d="M 296.001222 99.999261 L 316.001545 79.998938 L 296.001222 59.998614 L 276.000899 79.998938 Z M 296.001222 99.999261 " transform="matrix(0.99764, 0, 0, -0.99764, -2.4941, 344.607025)"/>
<path fill="none" stroke-width="1.2" stroke-linecap="butt" stroke-linejoin="round" stroke="rgb(0%, 0%, 100%)" stroke-opacity="1" stroke-miterlimit="10" d="M 296.001222 260.001848 L 316.001545 240.001525 L 296.001222 220.001202 L 276.000899 240.001525 Z M 296.001222 260.001848 " transform="matrix(0.99764, 0, 0, -0.99764, -2.4941, 344.607025)"/>
<path fill="none" stroke-width="1.2" stroke-linecap="butt" stroke-linejoin="round" stroke="rgb(0%, 0%, 100%)" stroke-opacity="1" stroke-miterlimit="10" d="M 296.001222 228.000548 L 316.001545 208.000225 L 296.001222 187.999901 L 276.000899 208.000225 Z M 296.001222 228.000548 " transform="matrix(0.99764, 0, 0, -0.99764, -2.4941, 344.607025)"/>
<path fill="none" stroke-width="1.2" stroke-linecap="butt" stroke-linejoin="round" stroke="rgb(0%, 0%, 100%)" stroke-opacity="1" stroke-miterlimit="10" d="M 296.001222 195.999247 L 316.001545 175.998924 L 296.001222 155.998601 L 276.000899 175.998924 Z M 296.001222 195.999247 " transform="matrix(0.99764, 0, 0, -0.99764, -2.4941, 344.607025)"/>
<path fill="none" stroke-width="1.2" stroke-linecap="butt" stroke-linejoin="round" stroke="rgb(0%, 0%, 100%)" stroke-opacity="1" stroke-miterlimit="10" d="M 296.001222 324.000534 L 316.001545 304.000211 L 296.001222 283.999887 L 276.000899 304.000211 Z M 296.001222 324.000534 " transform="matrix(0.99764, 0, 0, -0.99764, -2.4941, 344.607025)"/>
<path fill="none" stroke-width="1.2" stroke-linecap="butt" stroke-linejoin="round" stroke="rgb(0%, 0%, 100%)" stroke-opacity="1" stroke-miterlimit="10" d="M 296.001222 291.999234 L 316.001545 271.99891 L 296.001222 251.998587 L 276.000899 271.99891 Z M 296.001222 291.999234 " transform="matrix(0.99764, 0, 0, -0.99764, -2.4941, 344.607025)"/>
<path fill="none" stroke-width="1.2" stroke-linecap="butt" stroke-linejoin="round" stroke="rgb(0%, 0%, 100%)" stroke-opacity="1" stroke-miterlimit="10" d="M 231.998621 164.001862 L 251.998944 144.001539 L 231.998621 124.001216 L 211.998298 144.001539 Z M 231.998621 164.001862 " transform="matrix(0.99764, 0, 0, -0.99764, -2.4941, 344.607025)"/>
<path fill="none" stroke-width="1.2" stroke-linecap="butt" stroke-linejoin="round" stroke="rgb(0%, 0%, 100%)" stroke-opacity="1" stroke-miterlimit="10" d="M 231.998621 132.000562 L 251.998944 112.000238 L 231.998621 91.999915 L 211.998298 112.000238 Z M 231.998621 132.000562 " transform="matrix(0.99764, 0, 0, -0.99764, -2.4941, 344.607025)"/>
<path fill="none" stroke-width="1.2" stroke-linecap="butt" stroke-linejoin="round" stroke="rgb(0%, 0%, 100%)" stroke-opacity="1" stroke-miterlimit="10" d="M 231.998621 99.999261 L 251.998944 79.998938 L 231.998621 59.998614 L 211.998298 79.998938 Z M 231.998621 99.999261 " transform="matrix(0.99764, 0, 0, -0.99764, -2.4941, 344.607025)"/>
<path fill="none" stroke-width="1.2" stroke-linecap="butt" stroke-linejoin="round" stroke="rgb(0%, 0%, 100%)" stroke-opacity="1" stroke-miterlimit="10" d="M 231.998621 260.001848 L 251.998944 240.001525 L 231.998621 220.001202 L 211.998298 240.001525 Z M 231.998621 260.001848 " transform="matrix(0.99764, 0, 0, -0.99764, -2.4941, 344.607025)"/>
<path fill="none" stroke-width="1.2" stroke-linecap="butt" stroke-linejoin="round" stroke="rgb(0%, 0%, 100%)" stroke-opacity="1" stroke-miterlimit="10" d="M 231.998621 228.000548 L 251.998944 208.000225 L 231.998621 187.999901 L 211.998298 208.000225 Z M 231.998621 228.000548 " transform="matrix(0.99764, 0, 0, -0.99764, -2.4941, 344.607025)"/>
<path fill="none" stroke-width="1.2" stroke-linecap="butt" stroke-linejoin="round" stroke="rgb(0%, 0%, 100%)" stroke-opacity="1" stroke-miterlimit="10" d="M 231.998621 195.999247 L 251.998944 175.998924 L 231.998621 155.998601 L 211.998298 175.998924 Z M 231.998621 195.999247 " transform="matrix(0.99764, 0, 0, -0.99764, -2.4941, 344.607025)"/>
<path fill="none" stroke-width="1.2" stroke-linecap="butt" stroke-linejoin="round" stroke="rgb(0%, 0%, 100%)" stroke-opacity="1" stroke-miterlimit="10" d="M 231.998621 324.000534 L 251.998944 304.000211 L 231.998621 283.999887 L 211.998298 304.000211 Z M 231.998621 324.000534 " transform="matrix(0.99764, 0, 0, -0.99764, -2.4941, 344.607025)"/>
<path fill="none" stroke-width="1.2" stroke-linecap="butt" stroke-linejoin="round" stroke="rgb(0%, 0%, 100%)" stroke-opacity="1" stroke-miterlimit="10" d="M 231.998621 291.999234 L 251.998944 271.99891 L 231.998621 251.998587 L 211.998298 271.99891 Z M 231.998621 291.999234 " transform="matrix(0.99764, 0, 0, -0.99764, -2.4941, 344.607025)"/>
<path fill="none" stroke-width="1.2" stroke-linecap="butt" stroke-linejoin="round" stroke="rgb(0%, 0%, 100%)" stroke-opacity="1" stroke-miterlimit="10" d="M 167.999935 164.001862 L 188.000259 144.001539 L 167.999935 124.001216 L 147.999612 144.001539 Z M 167.999935 164.001862 " transform="matrix(0.99764, 0, 0, -0.99764, -2.4941, 344.607025)"/>
<path fill="none" stroke-width="1.2" stroke-linecap="butt" stroke-linejoin="round" stroke="rgb(0%, 0%, 100%)" stroke-opacity="1" stroke-miterlimit="10" d="M 167.999935 132.000562 L 188.000259 112.000238 L 167.999935 91.999915 L 147.999612 112.000238 Z M 167.999935 132.000562 " transform="matrix(0.99764, 0, 0, -0.99764, -2.4941, 344.607025)"/>
<path fill="none" stroke-width="1.2" stroke-linecap="butt" stroke-linejoin="round" stroke="rgb(0%, 0%, 100%)" stroke-opacity="1" stroke-miterlimit="10" d="M 167.999935 99.999261 L 188.000259 79.998938 L 167.999935 59.998614 L 147.999612 79.998938 Z M 167.999935 99.999261 " transform="matrix(0.99764, 0, 0, -0.99764, -2.4941, 344.607025)"/>
<path fill="none" stroke-width="1.2" stroke-linecap="butt" stroke-linejoin="round" stroke="rgb(0%, 0%, 100%)" stroke-opacity="1" stroke-miterlimit="10" d="M 167.999935 260.001848 L 188.000259 240.001525 L 167.999935 220.001202 L 147.999612 240.001525 Z M 167.999935 260.001848 " transform="matrix(0.99764, 0, 0, -0.99764, -2.4941, 344.607025)"/>
<path fill="none" stroke-width="1.2" stroke-linecap="butt" stroke-linejoin="round" stroke="rgb(0%, 0%, 100%)" stroke-opacity="1" stroke-miterlimit="10" d="M 167.999935 228.000548 L 188.000259 208.000225 L 167.999935 187.999901 L 147.999612 208.000225 Z M 167.999935 228.000548 " transform="matrix(0.99764, 0, 0, -0.99764, -2.4941, 344.607025)"/>
<path fill="none" stroke-width="1.2" stroke-linecap="butt" stroke-linejoin="round" stroke="rgb(0%, 0%, 100%)" stroke-opacity="1" stroke-miterlimit="10" d="M 167.999935 195.999247 L 188.000259 175.998924 L 167.999935 155.998601 L 147.999612 175.998924 Z M 167.999935 195.999247 " transform="matrix(0.99764, 0, 0, -0.99764, -2.4941, 344.607025)"/>
<path fill="none" stroke-width="1.2" stroke-linecap="butt" stroke-linejoin="round" stroke="rgb(0%, 0%, 100%)" stroke-opacity="1" stroke-miterlimit="10" d="M 167.999935 324.000534 L 188.000259 304.000211 L 167.999935 283.999887 L 147.999612 304.000211 Z M 167.999935 324.000534 " transform="matrix(0.99764, 0, 0, -0.99764, -2.4941, 344.607025)"/>
<path fill="none" stroke-width="1.2" stroke-linecap="butt" stroke-linejoin="round" stroke="rgb(0%, 0%, 100%)" stroke-opacity="1" stroke-miterlimit="10" d="M 167.999935 291.999234 L 188.000259 271.99891 L 167.999935 251.998587 L 147.999612 271.99891 Z M 167.999935 291.999234 " transform="matrix(0.99764, 0, 0, -0.99764, -2.4941, 344.607025)"/>
<path fill="none" stroke-width="1.2" stroke-linecap="butt" stroke-linejoin="round" stroke="rgb(0%, 0%, 100%)" stroke-opacity="1" stroke-miterlimit="10" d="M 39.998649 164.001862 L 59.998972 144.001539 L 39.998649 124.001216 L 19.998325 144.001539 Z M 39.998649 164.001862 " transform="matrix(0.99764, 0, 0, -0.99764, -2.4941, 344.607025)"/>
<path fill="none" stroke-width="1.2" stroke-linecap="butt" stroke-linejoin="round" stroke="rgb(0%, 0%, 100%)" stroke-opacity="1" stroke-miterlimit="10" d="M 39.998649 132.000562 L 59.998972 112.000238 L 39.998649 91.999915 L 19.998325 112.000238 Z M 39.998649 132.000562 " transform="matrix(0.99764, 0, 0, -0.99764, -2.4941, 344.607025)"/>
<path fill="none" stroke-width="1.2" stroke-linecap="butt" stroke-linejoin="round" stroke="rgb(0%, 0%, 100%)" stroke-opacity="1" stroke-miterlimit="10" d="M 39.998649 99.999261 L 59.998972 79.998938 L 39.998649 59.998614 L 19.998325 79.998938 Z M 39.998649 99.999261 " transform="matrix(0.99764, 0, 0, -0.99764, -2.4941, 344.607025)"/>
<path fill="none" stroke-width="1.2" stroke-linecap="butt" stroke-linejoin="round" stroke="rgb(0%, 0%, 100%)" stroke-opacity="1" stroke-miterlimit="10" d="M 39.998649 260.001848 L 59.998972 240.001525 L 39.998649 220.001202 L 19.998325 240.001525 Z M 39.998649 260.001848 " transform="matrix(0.99764, 0, 0, -0.99764, -2.4941, 344.607025)"/>
<path fill="none" stroke-width="1.2" stroke-linecap="butt" stroke-linejoin="round" stroke="rgb(0%, 0%, 100%)" stroke-opacity="1" stroke-miterlimit="10" d="M 39.998649 228.000548 L 59.998972 208.000225 L 39.998649 187.999901 L 19.998325 208.000225 Z M 39.998649 228.000548 " transform="matrix(0.99764, 0, 0, -0.99764, -2.4941, 344.607025)"/>
<path fill="none" stroke-width="1.2" stroke-linecap="butt" stroke-linejoin="round" stroke="rgb(0%, 0%, 100%)" stroke-opacity="1" stroke-miterlimit="10" d="M 39.998649 195.999247 L 59.998972 175.998924 L 39.998649 155.998601 L 19.998325 175.998924 Z M 39.998649 195.999247 " transform="matrix(0.99764, 0, 0, -0.99764, -2.4941, 344.607025)"/>
<path fill="none" stroke-width="1.2" stroke-linecap="butt" stroke-linejoin="round" stroke="rgb(0%, 0%, 100%)" stroke-opacity="1" stroke-miterlimit="10" d="M 39.998649 324.000534 L 59.998972 304.000211 L 39.998649 283.999887 L 19.998325 304.000211 Z M 39.998649 324.000534 " transform="matrix(0.99764, 0, 0, -0.99764, -2.4941, 344.607025)"/>
<path fill="none" stroke-width="1.2" stroke-linecap="butt" stroke-linejoin="round" stroke="rgb(0%, 0%, 100%)" stroke-opacity="1" stroke-miterlimit="10" d="M 39.998649 291.999234 L 59.998972 271.99891 L 39.998649 251.998587 L 19.998325 271.99891 Z M 39.998649 291.999234 " transform="matrix(0.99764, 0, 0, -0.99764, -2.4941, 344.607025)"/>
<path fill="none" stroke-width="1.2" stroke-linecap="butt" stroke-linejoin="round" stroke="rgb(0%, 0%, 100%)" stroke-opacity="1" stroke-miterlimit="10" d="M 104.00125 164.001862 L 124.001573 144.001539 L 104.00125 124.001216 L 84.000926 144.001539 Z M 104.00125 164.001862 " transform="matrix(0.99764, 0, 0, -0.99764, -2.4941, 344.607025)"/>
<path fill="none" stroke-width="1.2" stroke-linecap="butt" stroke-linejoin="round" stroke="rgb(0%, 0%, 100%)" stroke-opacity="1" stroke-miterlimit="10" d="M 104.00125 132.000562 L 124.001573 112.000238 L 104.00125 91.999915 L 84.000926 112.000238 Z M 104.00125 132.000562 " transform="matrix(0.99764, 0, 0, -0.99764, -2.4941, 344.607025)"/>
<path fill="none" stroke-width="1.2" stroke-linecap="butt" stroke-linejoin="round" stroke="rgb(0%, 0%, 100%)" stroke-opacity="1" stroke-miterlimit="10" d="M 104.00125 99.999261 L 124.001573 79.998938 L 104.00125 59.998614 L 84.000926 79.998938 Z M 104.00125 99.999261 " transform="matrix(0.99764, 0, 0, -0.99764, -2.4941, 344.607025)"/>
<path fill="none" stroke-width="1.2" stroke-linecap="butt" stroke-linejoin="round" stroke="rgb(0%, 0%, 100%)" stroke-opacity="1" stroke-miterlimit="10" d="M 104.00125 260.001848 L 124.001573 240.001525 L 104.00125 220.001202 L 84.000926 240.001525 Z M 104.00125 260.001848 " transform="matrix(0.99764, 0, 0, -0.99764, -2.4941, 344.607025)"/>
<path fill="none" stroke-width="1.2" stroke-linecap="butt" stroke-linejoin="round" stroke="rgb(0%, 0%, 100%)" stroke-opacity="1" stroke-miterlimit="10" d="M 104.00125 228.000548 L 124.001573 208.000225 L 104.00125 187.999901 L 84.000926 208.000225 Z M 104.00125 228.000548 " transform="matrix(0.99764, 0, 0, -0.99764, -2.4941, 344.607025)"/>
<path fill="none" stroke-width="1.2" stroke-linecap="butt" stroke-linejoin="round" stroke="rgb(0%, 0%, 100%)" stroke-opacity="1" stroke-miterlimit="10" d="M 104.00125 195.999247 L 124.001573 175.998924 L 104.00125 155.998601 L 84.000926 175.998924 Z M 104.00125 195.999247 " transform="matrix(0.99764, 0, 0, -0.99764, -2.4941, 344.607025)"/>
<path fill="none" stroke-width="1.2" stroke-linecap="butt" stroke-linejoin="round" stroke="rgb(0%, 0%, 100%)" stroke-opacity="1" stroke-miterlimit="10" d="M 104.00125 324.000534 L 124.001573 304.000211 L 104.00125 283.999887 L 84.000926 304.000211 Z M 104.00125 324.000534 " transform="matrix(0.99764, 0, 0, -0.99764, -2.4941, 344.607025)"/>
<path fill="none" stroke-width="1.2" stroke-linecap="butt" stroke-linejoin="round" stroke="rgb(0%, 0%, 100%)" stroke-opacity="1" stroke-miterlimit="10" d="M 104.00125 291.999234 L 124.001573 271.99891 L 104.00125 251.998587 L 84.000926 271.99891 Z M 104.00125 291.999234 " transform="matrix(0.99764, 0, 0, -0.99764, -2.4941, 344.607025)"/>
<path fill-rule="evenodd" fill="rgb(0%, 0%, 100%)" fill-opacity="0.2" d="M 101.261719 180.992188 L 121.214844 200.945312 L 101.261719 220.898438 L 81.308594 200.945312 Z M 101.261719 180.992188 "/>
<path fill-rule="evenodd" fill="rgb(0%, 0%, 100%)" fill-opacity="0.2" d="M 101.261719 212.917969 L 121.214844 232.871094 L 101.261719 252.824219 L 81.308594 232.871094 Z M 101.261719 212.917969 "/>
<path fill-rule="evenodd" fill="rgb(0%, 0%, 100%)" fill-opacity="0.2" d="M 101.261719 244.84375 L 121.214844 264.796875 L 101.261719 284.75 L 81.308594 264.796875 Z M 101.261719 244.84375 "/>
<path fill-rule="evenodd" fill="rgb(0%, 0%, 100%)" fill-opacity="0.2" d="M 101.261719 85.21875 L 121.214844 105.171875 L 101.261719 125.125 L 81.308594 105.171875 Z M 101.261719 85.21875 "/>
<path fill-rule="evenodd" fill="rgb(0%, 0%, 100%)" fill-opacity="0.2" d="M 101.261719 117.144531 L 121.214844 137.097656 L 101.261719 157.050781 L 81.308594 137.097656 Z M 101.261719 117.144531 "/>
<path fill-rule="evenodd" fill="rgb(0%, 0%, 100%)" fill-opacity="0.2" d="M 101.261719 149.070312 L 121.214844 169.023438 L 101.261719 188.976562 L 81.308594 169.023438 Z M 101.261719 149.070312 "/>
<path fill-rule="evenodd" fill="rgb(0%, 0%, 100%)" fill-opacity="0.2" d="M 101.261719 21.371094 L 121.214844 41.324219 L 101.261719 61.277344 L 81.308594 41.324219 Z M 101.261719 21.371094 "/>
<path fill-rule="evenodd" fill="rgb(0%, 0%, 100%)" fill-opacity="0.2" d="M 101.261719 53.296875 L 121.214844 73.25 L 101.261719 93.203125 L 81.308594 73.25 Z M 101.261719 53.296875 "/>
<path fill-rule="evenodd" fill="rgb(0%, 0%, 100%)" fill-opacity="0.2" d="M 37.410156 180.992188 L 57.363281 200.945312 L 37.410156 220.898438 L 17.457031 200.945312 Z M 37.410156 180.992188 "/>
<path fill-rule="evenodd" fill="rgb(0%, 0%, 100%)" fill-opacity="0.2" d="M 37.410156 212.917969 L 57.363281 232.871094 L 37.410156 252.824219 L 17.457031 232.871094 Z M 37.410156 212.917969 "/>
<path fill-rule="evenodd" fill="rgb(0%, 0%, 100%)" fill-opacity="0.2" d="M 37.410156 244.84375 L 57.363281 264.796875 L 37.410156 284.75 L 17.457031 264.796875 Z M 37.410156 244.84375 "/>
<path fill-rule="evenodd" fill="rgb(0%, 0%, 100%)" fill-opacity="0.2" d="M 37.410156 85.21875 L 57.363281 105.171875 L 37.410156 125.125 L 17.457031 105.171875 Z M 37.410156 85.21875 "/>
<path fill-rule="evenodd" fill="rgb(0%, 0%, 100%)" fill-opacity="0.2" d="M 37.410156 117.144531 L 57.363281 137.097656 L 37.410156 157.050781 L 17.457031 137.097656 Z M 37.410156 117.144531 "/>
<path fill-rule="evenodd" fill="rgb(0%, 0%, 100%)" fill-opacity="0.2" d="M 37.410156 149.070312 L 57.363281 169.023438 L 37.410156 188.976562 L 17.457031 169.023438 Z M 37.410156 149.070312 "/>
<path fill-rule="evenodd" fill="rgb(0%, 0%, 100%)" fill-opacity="0.2" d="M 37.410156 21.371094 L 57.363281 41.324219 L 37.410156 61.277344 L 17.457031 41.324219 Z M 37.410156 21.371094 "/>
<path fill-rule="evenodd" fill="rgb(0%, 0%, 100%)" fill-opacity="0.2" d="M 37.410156 53.296875 L 57.363281 73.25 L 37.410156 93.203125 L 17.457031 73.25 Z M 37.410156 53.296875 "/>
<path fill="none" stroke-width="2" stroke-linecap="butt" stroke-linejoin="round" stroke="rgb(54.499817%, 0%, 0%)" stroke-opacity="1" stroke-miterlimit="10" d="M 44.00028 304.000211 C 44.00028 315.045808 35.045554 324.000534 23.999956 324.000534 C 12.954359 324.000534 3.999633 315.045808 3.999633 304.000211 C 3.999633 292.954613 12.954359 283.999887 23.999956 283.999887 C 35.045554 283.999887 44.00028 292.954613 44.00028 304.000211 " transform="matrix(0.99764, 0, 0, -0.99764, -2.4941, 344.607025)"/>
<path fill="none" stroke-width="2" stroke-linecap="butt" stroke-linejoin="round" stroke="rgb(54.499817%, 0%, 0%)" stroke-opacity="1" stroke-miterlimit="10" d="M 76.00158 304.000211 C 76.00158 315.045808 67.046854 324.000534 56.001257 324.000534 C 44.955659 324.000534 36.000933 315.045808 36.000933 304.000211 C 36.000933 292.954613 44.955659 283.999887 56.001257 283.999887 C 67.046854 283.999887 76.00158 292.954613 76.00158 304.000211 " transform="matrix(0.99764, 0, 0, -0.99764, -2.4941, 344.607025)"/>
<path fill="none" stroke-width="2" stroke-linecap="butt" stroke-linejoin="round" stroke="rgb(54.499817%, 0%, 0%)" stroke-opacity="1" stroke-miterlimit="10" d="M 107.998965 304.000211 C 107.998965 315.045808 99.044239 324.000534 87.998642 324.000534 C 76.953044 324.000534 67.998318 315.045808 67.998318 304.000211 C 67.998318 292.954613 76.953044 283.999887 87.998642 283.999887 C 99.044239 283.999887 107.998965 292.954613 107.998965 304.000211 " transform="matrix(0.99764, 0, 0, -0.99764, -2.4941, 344.607025)"/>
<path fill="none" stroke-width="2" stroke-linecap="butt" stroke-linejoin="round" stroke="rgb(54.499817%, 0%, 0%)" stroke-opacity="1" stroke-miterlimit="10" d="M 140.000266 304.000211 C 140.000266 315.045808 131.04554 324.000534 119.999942 324.000534 C 108.954345 324.000534 99.999619 315.045808 99.999619 304.000211 C 99.999619 292.954613 108.954345 283.999887 119.999942 283.999887 C 131.04554 283.999887 140.000266 292.954613 140.000266 304.000211 " transform="matrix(0.99764, 0, 0, -0.99764, -2.4941, 344.607025)"/>
<path fill="none" stroke-width="2" stroke-linecap="butt" stroke-linejoin="round" stroke="rgb(54.499817%, 0%, 0%)" stroke-opacity="1" stroke-miterlimit="10" d="M 172.001566 304.000211 C 172.001566 315.045808 163.04684 324.000534 152.001243 324.000534 C 140.955645 324.000534 132.000919 315.045808 132.000919 304.000211 C 132.000919 292.954613 140.955645 283.999887 152.001243 283.999887 C 163.04684 283.999887 172.001566 292.954613 172.001566 304.000211 " transform="matrix(0.99764, 0, 0, -0.99764, -2.4941, 344.607025)"/>
<path fill="none" stroke-width="2" stroke-linecap="butt" stroke-linejoin="round" stroke="rgb(54.499817%, 0%, 0%)" stroke-opacity="1" stroke-miterlimit="10" d="M 203.998951 304.000211 C 203.998951 315.045808 195.044225 324.000534 183.998628 324.000534 C 172.95303 324.000534 163.998304 315.045808 163.998304 304.000211 C 163.998304 292.954613 172.95303 283.999887 183.998628 283.999887 C 195.044225 283.999887 203.998951 292.954613 203.998951 304.000211 " transform="matrix(0.99764, 0, 0, -0.99764, -2.4941, 344.607025)"/>
<path fill="none" stroke-width="2" stroke-linecap="butt" stroke-linejoin="round" stroke="rgb(54.499817%, 0%, 0%)" stroke-opacity="1" stroke-miterlimit="10" d="M 236.395716 304.000211 C 236.395716 315.265076 227.264793 324.395999 215.999928 324.395999 C 204.735063 324.395999 195.60414 315.265076 195.60414 304.000211 C 195.60414 292.735346 204.735063 283.604423 215.999928 283.604423 C 227.264793 283.604423 236.395716 292.735346 236.395716 304.000211 " transform="matrix(0.99764, 0, 0, -0.99764, -2.4941, 344.607025)"/>
<path fill="none" stroke-width="2" stroke-linecap="butt" stroke-linejoin="round" stroke="rgb(54.499817%, 0%, 0%)" stroke-opacity="1" stroke-miterlimit="10" d="M 268.001552 304.000211 C 268.001552 315.045808 259.046826 324.000534 248.001229 324.000534 C 236.955631 324.000534 228.000906 315.045808 228.000906 304.000211 C 228.000906 292.954613 236.955631 283.999887 248.001229 283.999887 C 259.046826 283.999887 268.001552 292.954613 268.001552 304.000211 " transform="matrix(0.99764, 0, 0, -0.99764, -2.4941, 344.607025)"/>
<path fill="none" stroke-width="2" stroke-linecap="butt" stroke-linejoin="round" stroke="rgb(54.499817%, 0%, 0%)" stroke-opacity="1" stroke-miterlimit="10" d="M 299.998937 304.000211 C 299.998937 315.045808 291.044212 324.000534 279.998614 324.000534 C 268.953016 324.000534 259.998291 315.045808 259.998291 304.000211 C 259.998291 292.954613 268.953016 283.999887 279.998614 283.999887 C 291.044212 283.999887 299.998937 292.954613 299.998937 304.000211 " transform="matrix(0.99764, 0, 0, -0.99764, -2.4941, 344.607025)"/>
<path fill="none" stroke-width="2" stroke-linecap="butt" stroke-linejoin="round" stroke="rgb(54.499817%, 0%, 0%)" stroke-opacity="1" stroke-miterlimit="10" d="M 332.000238 304.000211 C 332.000238 315.045808 323.045512 324.000534 311.999915 324.000534 C 300.954317 324.000534 291.999591 315.045808 291.999591 304.000211 C 291.999591 292.954613 300.954317 283.999887 311.999915 283.999887 C 323.045512 283.999887 332.000238 292.954613 332.000238 304.000211 " transform="matrix(0.99764, 0, 0, -0.99764, -2.4941, 344.607025)"/>
<path fill="none" stroke-width="2" stroke-linecap="butt" stroke-linejoin="round" stroke="rgb(54.499817%, 0%, 0%)" stroke-opacity="1" stroke-miterlimit="10" d="M 44.00028 240.001525 C 44.00028 251.047123 35.045554 260.001848 23.999956 260.001848 C 12.954359 260.001848 3.999633 251.047123 3.999633 240.001525 C 3.999633 228.955928 12.954359 220.001202 23.999956 220.001202 C 35.045554 220.001202 44.00028 228.955928 44.00028 240.001525 " transform="matrix(0.99764, 0, 0, -0.99764, -2.4941, 344.607025)"/>
<path fill="none" stroke-width="2" stroke-linecap="butt" stroke-linejoin="round" stroke="rgb(54.499817%, 0%, 0%)" stroke-opacity="1" stroke-miterlimit="10" d="M 76.00158 240.001525 C 76.00158 251.047123 67.046854 260.001848 56.001257 260.001848 C 44.955659 260.001848 36.000933 251.047123 36.000933 240.001525 C 36.000933 228.955928 44.955659 220.001202 56.001257 220.001202 C 67.046854 220.001202 76.00158 228.955928 76.00158 240.001525 " transform="matrix(0.99764, 0, 0, -0.99764, -2.4941, 344.607025)"/>
<path fill="none" stroke-width="2" stroke-linecap="butt" stroke-linejoin="round" stroke="rgb(54.499817%, 0%, 0%)" stroke-opacity="1" stroke-miterlimit="10" d="M 107.998965 240.001525 C 107.998965 251.047123 99.044239 260.001848 87.998642 260.001848 C 76.953044 260.001848 67.998318 251.047123 67.998318 240.001525 C 67.998318 228.955928 76.953044 220.001202 87.998642 220.001202 C 99.044239 220.001202 107.998965 228.955928 107.998965 240.001525 " transform="matrix(0.99764, 0, 0, -0.99764, -2.4941, 344.607025)"/>
<path fill="none" stroke-width="2" stroke-linecap="butt" stroke-linejoin="round" stroke="rgb(54.499817%, 0%, 0%)" stroke-opacity="1" stroke-miterlimit="10" d="M 140.000266 240.001525 C 140.000266 251.047123 131.04554 260.001848 119.999942 260.001848 C 108.954345 260.001848 99.999619 251.047123 99.999619 240.001525 C 99.999619 228.955928 108.954345 220.001202 119.999942 220.001202 C 131.04554 220.001202 140.000266 228.955928 140.000266 240.001525 " transform="matrix(0.99764, 0, 0, -0.99764, -2.4941, 344.607025)"/>
<path fill="none" stroke-width="2" stroke-linecap="butt" stroke-linejoin="round" stroke="rgb(54.499817%, 0%, 0%)" stroke-opacity="1" stroke-miterlimit="10" d="M 172.001566 240.001525 C 172.001566 251.047123 163.04684 260.001848 152.001243 260.001848 C 140.955645 260.001848 132.000919 251.047123 132.000919 240.001525 C 132.000919 228.955928 140.955645 220.001202 152.001243 220.001202 C 163.04684 220.001202 172.001566 228.955928 172.001566 240.001525 " transform="matrix(0.99764, 0, 0, -0.99764, -2.4941, 344.607025)"/>
<path fill="none" stroke-width="2" stroke-linecap="butt" stroke-linejoin="round" stroke="rgb(54.499817%, 0%, 0%)" stroke-opacity="1" stroke-miterlimit="10" d="M 203.998951 240.001525 C 203.998951 251.047123 195.044225 260.001848 183.998628 260.001848 C 172.95303 260.001848 163.998304 251.047123 163.998304 240.001525 C 163.998304 228.955928 172.95303 220.001202 183.998628 220.001202 C 195.044225 220.001202 203.998951 228.955928 203.998951 240.001525 " transform="matrix(0.99764, 0, 0, -0.99764, -2.4941, 344.607025)"/>
<path fill="none" stroke-width="2" stroke-linecap="butt" stroke-linejoin="round" stroke="rgb(54.499817%, 0%, 0%)" stroke-opacity="1" stroke-miterlimit="10" d="M 236.395716 240.001525 C 236.395716 251.262475 227.264793 260.397313 215.999928 260.397313 C 204.735063 260.397313 195.60414 251.262475 195.60414 240.001525 C 195.60414 228.73666 204.735063 219.605737 215.999928 219.605737 C 227.264793 219.605737 236.395716 228.73666 236.395716 240.001525 " transform="matrix(0.99764, 0, 0, -0.99764, -2.4941, 344.607025)"/>
<path fill="none" stroke-width="2" stroke-linecap="butt" stroke-linejoin="round" stroke="rgb(54.499817%, 0%, 0%)" stroke-opacity="1" stroke-miterlimit="10" d="M 268.001552 240.001525 C 268.001552 251.047123 259.046826 260.001848 248.001229 260.001848 C 236.955631 260.001848 228.000906 251.047123 228.000906 240.001525 C 228.000906 228.955928 236.955631 220.001202 248.001229 220.001202 C 259.046826 220.001202 268.001552 228.955928 268.001552 240.001525 " transform="matrix(0.99764, 0, 0, -0.99764, -2.4941, 344.607025)"/>
<path fill="none" stroke-width="2" stroke-linecap="butt" stroke-linejoin="round" stroke="rgb(54.499817%, 0%, 0%)" stroke-opacity="1" stroke-miterlimit="10" d="M 299.998937 240.001525 C 299.998937 251.047123 291.044212 260.001848 279.998614 260.001848 C 268.953016 260.001848 259.998291 251.047123 259.998291 240.001525 C 259.998291 228.955928 268.953016 220.001202 279.998614 220.001202 C 291.044212 220.001202 299.998937 228.955928 299.998937 240.001525 " transform="matrix(0.99764, 0, 0, -0.99764, -2.4941, 344.607025)"/>
<path fill="none" stroke-width="2" stroke-linecap="butt" stroke-linejoin="round" stroke="rgb(54.499817%, 0%, 0%)" stroke-opacity="1" stroke-miterlimit="10" d="M 332.000238 240.001525 C 332.000238 251.047123 323.045512 260.001848 311.999915 260.001848 C 300.954317 260.001848 291.999591 251.047123 291.999591 240.001525 C 291.999591 228.955928 300.954317 220.001202 311.999915 220.001202 C 323.045512 220.001202 332.000238 228.955928 332.000238 240.001525 " transform="matrix(0.99764, 0, 0, -0.99764, -2.4941, 344.607025)"/>
<path fill="none" stroke-width="2" stroke-linecap="butt" stroke-linejoin="round" stroke="rgb(54.499817%, 0%, 0%)" stroke-opacity="1" stroke-miterlimit="10" d="M 44.00028 175.998924 C 44.00028 187.044522 35.045554 195.999247 23.999956 195.999247 C 12.954359 195.999247 3.999633 187.044522 3.999633 175.998924 C 3.999633 164.953326 12.954359 155.998601 23.999956 155.998601 C 35.045554 155.998601 44.00028 164.953326 44.00028 175.998924 " transform="matrix(0.99764, 0, 0, -0.99764, -2.4941, 344.607025)"/>
<path fill="none" stroke-width="2" stroke-linecap="butt" stroke-linejoin="round" stroke="rgb(54.499817%, 0%, 0%)" stroke-opacity="1" stroke-miterlimit="10" d="M 76.00158 175.998924 C 76.00158 187.044522 67.046854 195.999247 56.001257 195.999247 C 44.955659 195.999247 36.000933 187.044522 36.000933 175.998924 C 36.000933 164.953326 44.955659 155.998601 56.001257 155.998601 C 67.046854 155.998601 76.00158 164.953326 76.00158 175.998924 " transform="matrix(0.99764, 0, 0, -0.99764, -2.4941, 344.607025)"/>
<path fill="none" stroke-width="2" stroke-linecap="butt" stroke-linejoin="round" stroke="rgb(54.499817%, 0%, 0%)" stroke-opacity="1" stroke-miterlimit="10" d="M 107.998965 175.998924 C 107.998965 187.044522 99.044239 195.999247 87.998642 195.999247 C 76.953044 195.999247 67.998318 187.044522 67.998318 175.998924 C 67.998318 164.953326 76.953044 155.998601 87.998642 155.998601 C 99.044239 155.998601 107.998965 164.953326 107.998965 175.998924 " transform="matrix(0.99764, 0, 0, -0.99764, -2.4941, 344.607025)"/>
<path fill="none" stroke-width="2" stroke-linecap="butt" stroke-linejoin="round" stroke="rgb(54.499817%, 0%, 0%)" stroke-opacity="1" stroke-miterlimit="10" d="M 140.000266 175.998924 C 140.000266 187.044522 131.04554 195.999247 119.999942 195.999247 C 108.954345 195.999247 99.999619 187.044522 99.999619 175.998924 C 99.999619 164.953326 108.954345 155.998601 119.999942 155.998601 C 131.04554 155.998601 140.000266 164.953326 140.000266 175.998924 " transform="matrix(0.99764, 0, 0, -0.99764, -2.4941, 344.607025)"/>
<path fill="none" stroke-width="2" stroke-linecap="butt" stroke-linejoin="round" stroke="rgb(54.499817%, 0%, 0%)" stroke-opacity="1" stroke-miterlimit="10" d="M 172.001566 175.998924 C 172.001566 187.044522 163.04684 195.999247 152.001243 195.999247 C 140.955645 195.999247 132.000919 187.044522 132.000919 175.998924 C 132.000919 164.953326 140.955645 155.998601 152.001243 155.998601 C 163.04684 155.998601 172.001566 164.953326 172.001566 175.998924 " transform="matrix(0.99764, 0, 0, -0.99764, -2.4941, 344.607025)"/>
<path fill="none" stroke-width="2" stroke-linecap="butt" stroke-linejoin="round" stroke="rgb(54.499817%, 0%, 0%)" stroke-opacity="1" stroke-miterlimit="10" d="M 203.998951 175.998924 C 203.998951 187.044522 195.044225 195.999247 183.998628 195.999247 C 172.95303 195.999247 163.998304 187.044522 163.998304 175.998924 C 163.998304 164.953326 172.95303 155.998601 183.998628 155.998601 C 195.044225 155.998601 203.998951 164.953326 203.998951 175.998924 " transform="matrix(0.99764, 0, 0, -0.99764, -2.4941, 344.607025)"/>
<path fill="none" stroke-width="2" stroke-linecap="butt" stroke-linejoin="round" stroke="rgb(54.499817%, 0%, 0%)" stroke-opacity="1" stroke-miterlimit="10" d="M 236.395716 175.998924 C 236.395716 187.263789 227.264793 196.394712 215.999928 196.394712 C 204.735063 196.394712 195.60414 187.263789 195.60414 175.998924 C 195.60414 164.734059 204.735063 155.603136 215.999928 155.603136 C 227.264793 155.603136 236.395716 164.734059 236.395716 175.998924 " transform="matrix(0.99764, 0, 0, -0.99764, -2.4941, 344.607025)"/>
<path fill="none" stroke-width="2" stroke-linecap="butt" stroke-linejoin="round" stroke="rgb(54.499817%, 0%, 0%)" stroke-opacity="1" stroke-miterlimit="10" d="M 268.001552 175.998924 C 268.001552 187.044522 259.046826 195.999247 248.001229 195.999247 C 236.955631 195.999247 228.000906 187.044522 228.000906 175.998924 C 228.000906 164.953326 236.955631 155.998601 248.001229 155.998601 C 259.046826 155.998601 268.001552 164.953326 268.001552 175.998924 " transform="matrix(0.99764, 0, 0, -0.99764, -2.4941, 344.607025)"/>
<path fill="none" stroke-width="2" stroke-linecap="butt" stroke-linejoin="round" stroke="rgb(54.499817%, 0%, 0%)" stroke-opacity="1" stroke-miterlimit="10" d="M 299.998937 175.998924 C 299.998937 187.044522 291.044212 195.999247 279.998614 195.999247 C 268.953016 195.999247 259.998291 187.044522 259.998291 175.998924 C 259.998291 164.953326 268.953016 155.998601 279.998614 155.998601 C 291.044212 155.998601 299.998937 164.953326 299.998937 175.998924 " transform="matrix(0.99764, 0, 0, -0.99764, -2.4941, 344.607025)"/>
<path fill="none" stroke-width="2" stroke-linecap="butt" stroke-linejoin="round" stroke="rgb(54.499817%, 0%, 0%)" stroke-opacity="1" stroke-miterlimit="10" d="M 332.000238 175.998924 C 332.000238 187.044522 323.045512 195.999247 311.999915 195.999247 C 300.954317 195.999247 291.999591 187.044522 291.999591 175.998924 C 291.999591 164.953326 300.954317 155.998601 311.999915 155.998601 C 323.045512 155.998601 332.000238 164.953326 332.000238 175.998924 " transform="matrix(0.99764, 0, 0, -0.99764, -2.4941, 344.607025)"/>
<path fill="none" stroke-width="2" stroke-linecap="butt" stroke-linejoin="round" stroke="rgb(54.499817%, 0%, 0%)" stroke-opacity="1" stroke-miterlimit="10" d="M 44.00028 112.000238 C 44.00028 123.045836 35.045554 132.000562 23.999956 132.000562 C 12.954359 132.000562 3.999633 123.045836 3.999633 112.000238 C 3.999633 100.954641 12.954359 91.999915 23.999956 91.999915 C 35.045554 91.999915 44.00028 100.954641 44.00028 112.000238 " transform="matrix(0.99764, 0, 0, -0.99764, -2.4941, 344.607025)"/>
<path fill="none" stroke-width="2" stroke-linecap="butt" stroke-linejoin="round" stroke="rgb(54.499817%, 0%, 0%)" stroke-opacity="1" stroke-miterlimit="10" d="M 76.00158 112.000238 C 76.00158 123.045836 67.046854 132.000562 56.001257 132.000562 C 44.955659 132.000562 36.000933 123.045836 36.000933 112.000238 C 36.000933 100.954641 44.955659 91.999915 56.001257 91.999915 C 67.046854 91.999915 76.00158 100.954641 76.00158 112.000238 " transform="matrix(0.99764, 0, 0, -0.99764, -2.4941, 344.607025)"/>
<path fill="none" stroke-width="2" stroke-linecap="butt" stroke-linejoin="round" stroke="rgb(54.499817%, 0%, 0%)" stroke-opacity="1" stroke-miterlimit="10" d="M 107.998965 112.000238 C 107.998965 123.045836 99.044239 132.000562 87.998642 132.000562 C 76.953044 132.000562 67.998318 123.045836 67.998318 112.000238 C 67.998318 100.954641 76.953044 91.999915 87.998642 91.999915 C 99.044239 91.999915 107.998965 100.954641 107.998965 112.000238 " transform="matrix(0.99764, 0, 0, -0.99764, -2.4941, 344.607025)"/>
<path fill="none" stroke-width="2" stroke-linecap="butt" stroke-linejoin="round" stroke="rgb(54.499817%, 0%, 0%)" stroke-opacity="1" stroke-miterlimit="10" d="M 140.000266 112.000238 C 140.000266 123.045836 131.04554 132.000562 119.999942 132.000562 C 108.954345 132.000562 99.999619 123.045836 99.999619 112.000238 C 99.999619 100.954641 108.954345 91.999915 119.999942 91.999915 C 131.04554 91.999915 140.000266 100.954641 140.000266 112.000238 " transform="matrix(0.99764, 0, 0, -0.99764, -2.4941, 344.607025)"/>
<path fill="none" stroke-width="2" stroke-linecap="butt" stroke-linejoin="round" stroke="rgb(54.499817%, 0%, 0%)" stroke-opacity="1" stroke-miterlimit="10" d="M 172.001566 112.000238 C 172.001566 123.045836 163.04684 132.000562 152.001243 132.000562 C 140.955645 132.000562 132.000919 123.045836 132.000919 112.000238 C 132.000919 100.954641 140.955645 91.999915 152.001243 91.999915 C 163.04684 91.999915 172.001566 100.954641 172.001566 112.000238 " transform="matrix(0.99764, 0, 0, -0.99764, -2.4941, 344.607025)"/>
<path fill="none" stroke-width="2" stroke-linecap="butt" stroke-linejoin="round" stroke="rgb(54.499817%, 0%, 0%)" stroke-opacity="1" stroke-miterlimit="10" d="M 203.998951 112.000238 C 203.998951 123.045836 195.044225 132.000562 183.998628 132.000562 C 172.95303 132.000562 163.998304 123.045836 163.998304 112.000238 C 163.998304 100.954641 172.95303 91.999915 183.998628 91.999915 C 195.044225 91.999915 203.998951 100.954641 203.998951 112.000238 " transform="matrix(0.99764, 0, 0, -0.99764, -2.4941, 344.607025)"/>
<path fill="none" stroke-width="2" stroke-linecap="butt" stroke-linejoin="round" stroke="rgb(54.499817%, 0%, 0%)" stroke-opacity="1" stroke-miterlimit="10" d="M 236.395716 112.000238 C 236.395716 123.265103 227.264793 132.396026 215.999928 132.396026 C 204.735063 132.396026 195.60414 123.265103 195.60414 112.000238 C 195.60414 100.735373 204.735063 91.60445 215.999928 91.60445 C 227.264793 91.60445 236.395716 100.735373 236.395716 112.000238 " transform="matrix(0.99764, 0, 0, -0.99764, -2.4941, 344.607025)"/>
<path fill="none" stroke-width="2" stroke-linecap="butt" stroke-linejoin="round" stroke="rgb(54.499817%, 0%, 0%)" stroke-opacity="1" stroke-miterlimit="10" d="M 268.001552 112.000238 C 268.001552 123.045836 259.046826 132.000562 248.001229 132.000562 C 236.955631 132.000562 228.000906 123.045836 228.000906 112.000238 C 228.000906 100.954641 236.955631 91.999915 248.001229 91.999915 C 259.046826 91.999915 268.001552 100.954641 268.001552 112.000238 " transform="matrix(0.99764, 0, 0, -0.99764, -2.4941, 344.607025)"/>
<path fill="none" stroke-width="2" stroke-linecap="butt" stroke-linejoin="round" stroke="rgb(54.499817%, 0%, 0%)" stroke-opacity="1" stroke-miterlimit="10" d="M 299.998937 112.000238 C 299.998937 123.045836 291.044212 132.000562 279.998614 132.000562 C 268.953016 132.000562 259.998291 123.045836 259.998291 112.000238 C 259.998291 100.954641 268.953016 91.999915 279.998614 91.999915 C 291.044212 91.999915 299.998937 100.954641 299.998937 112.000238 " transform="matrix(0.99764, 0, 0, -0.99764, -2.4941, 344.607025)"/>
<path fill="none" stroke-width="2" stroke-linecap="butt" stroke-linejoin="round" stroke="rgb(54.499817%, 0%, 0%)" stroke-opacity="1" stroke-miterlimit="10" d="M 332.000238 112.000238 C 332.000238 123.045836 323.045512 132.000562 311.999915 132.000562 C 300.954317 132.000562 291.999591 123.045836 291.999591 112.000238 C 291.999591 100.954641 300.954317 91.999915 311.999915 91.999915 C 323.045512 91.999915 332.000238 100.954641 332.000238 112.000238 " transform="matrix(0.99764, 0, 0, -0.99764, -2.4941, 344.607025)"/>
<path fill="none" stroke-width="2" stroke-linecap="butt" stroke-linejoin="round" stroke="rgb(54.499817%, 0%, 0%)" stroke-opacity="1" stroke-miterlimit="10" d="M 44.00028 48.001553 C 44.00028 59.04715 35.045554 68.001876 23.999956 68.001876 C 12.954359 68.001876 3.999633 59.04715 3.999633 48.001553 C 3.999633 36.955955 12.954359 28.001229 23.999956 28.001229 C 35.045554 28.001229 44.00028 36.955955 44.00028 48.001553 " transform="matrix(0.99764, 0, 0, -0.99764, -2.4941, 344.607025)"/>
<path fill="none" stroke-width="2" stroke-linecap="butt" stroke-linejoin="round" stroke="rgb(54.499817%, 0%, 0%)" stroke-opacity="1" stroke-miterlimit="10" d="M 76.00158 48.001553 C 76.00158 59.04715 67.046854 68.001876 56.001257 68.001876 C 44.955659 68.001876 36.000933 59.04715 36.000933 48.001553 C 36.000933 36.955955 44.955659 28.001229 56.001257 28.001229 C 67.046854 28.001229 76.00158 36.955955 76.00158 48.001553 " transform="matrix(0.99764, 0, 0, -0.99764, -2.4941, 344.607025)"/>
<path fill="none" stroke-width="2" stroke-linecap="butt" stroke-linejoin="round" stroke="rgb(54.499817%, 0%, 0%)" stroke-opacity="1" stroke-miterlimit="10" d="M 107.998965 48.001553 C 107.998965 59.04715 99.044239 68.001876 87.998642 68.001876 C 76.953044 68.001876 67.998318 59.04715 67.998318 48.001553 C 67.998318 36.955955 76.953044 28.001229 87.998642 28.001229 C 99.044239 28.001229 107.998965 36.955955 107.998965 48.001553 " transform="matrix(0.99764, 0, 0, -0.99764, -2.4941, 344.607025)"/>
<path fill="none" stroke-width="2" stroke-linecap="butt" stroke-linejoin="round" stroke="rgb(54.499817%, 0%, 0%)" stroke-opacity="1" stroke-miterlimit="10" d="M 140.000266 48.001553 C 140.000266 59.04715 131.04554 68.001876 119.999942 68.001876 C 108.954345 68.001876 99.999619 59.04715 99.999619 48.001553 C 99.999619 36.955955 108.954345 28.001229 119.999942 28.001229 C 131.04554 28.001229 140.000266 36.955955 140.000266 48.001553 " transform="matrix(0.99764, 0, 0, -0.99764, -2.4941, 344.607025)"/>
<path fill="none" stroke-width="2" stroke-linecap="butt" stroke-linejoin="round" stroke="rgb(54.499817%, 0%, 0%)" stroke-opacity="1" stroke-miterlimit="10" d="M 172.001566 48.001553 C 172.001566 59.04715 163.04684 68.001876 152.001243 68.001876 C 140.955645 68.001876 132.000919 59.04715 132.000919 48.001553 C 132.000919 36.955955 140.955645 28.001229 152.001243 28.001229 C 163.04684 28.001229 172.001566 36.955955 172.001566 48.001553 " transform="matrix(0.99764, 0, 0, -0.99764, -2.4941, 344.607025)"/>
<path fill="none" stroke-width="2" stroke-linecap="butt" stroke-linejoin="round" stroke="rgb(54.499817%, 0%, 0%)" stroke-opacity="1" stroke-miterlimit="10" d="M 203.998951 48.001553 C 203.998951 59.04715 195.044225 68.001876 183.998628 68.001876 C 172.95303 68.001876 163.998304 59.04715 163.998304 48.001553 C 163.998304 36.955955 172.95303 28.001229 183.998628 28.001229 C 195.044225 28.001229 203.998951 36.955955 203.998951 48.001553 " transform="matrix(0.99764, 0, 0, -0.99764, -2.4941, 344.607025)"/>
<path fill="none" stroke-width="2" stroke-linecap="butt" stroke-linejoin="round" stroke="rgb(54.499817%, 0%, 0%)" stroke-opacity="1" stroke-miterlimit="10" d="M 236.395716 48.001553 C 236.395716 59.266418 227.264793 68.397341 215.999928 68.397341 C 204.735063 68.397341 195.60414 59.266418 195.60414 48.001553 C 195.60414 36.736688 204.735063 27.605765 215.999928 27.605765 C 227.264793 27.605765 236.395716 36.736688 236.395716 48.001553 " transform="matrix(0.99764, 0, 0, -0.99764, -2.4941, 344.607025)"/>
<path fill="none" stroke-width="2" stroke-linecap="butt" stroke-linejoin="round" stroke="rgb(54.499817%, 0%, 0%)" stroke-opacity="1" stroke-miterlimit="10" d="M 268.001552 48.001553 C 268.001552 59.04715 259.046826 68.001876 248.001229 68.001876 C 236.955631 68.001876 228.000906 59.04715 228.000906 48.001553 C 228.000906 36.955955 236.955631 28.001229 248.001229 28.001229 C 259.046826 28.001229 268.001552 36.955955 268.001552 48.001553 " transform="matrix(0.99764, 0, 0, -0.99764, -2.4941, 344.607025)"/>
<path fill="none" stroke-width="2" stroke-linecap="butt" stroke-linejoin="round" stroke="rgb(54.499817%, 0%, 0%)" stroke-opacity="1" stroke-miterlimit="10" d="M 299.998937 48.001553 C 299.998937 59.04715 291.044212 68.001876 279.998614 68.001876 C 268.953016 68.001876 259.998291 59.04715 259.998291 48.001553 C 259.998291 36.955955 268.953016 28.001229 279.998614 28.001229 C 291.044212 28.001229 299.998937 36.955955 299.998937 48.001553 " transform="matrix(0.99764, 0, 0, -0.99764, -2.4941, 344.607025)"/>
<path fill="none" stroke-width="2" stroke-linecap="butt" stroke-linejoin="round" stroke="rgb(54.499817%, 0%, 0%)" stroke-opacity="1" stroke-miterlimit="10" d="M 332.000238 48.001553 C 332.000238 59.04715 323.045512 68.001876 311.999915 68.001876 C 300.954317 68.001876 291.999591 59.04715 291.999591 48.001553 C 291.999591 36.955955 300.954317 28.001229 311.999915 28.001229 C 323.045512 28.001229 332.000238 36.955955 332.000238 48.001553 " transform="matrix(0.99764, 0, 0, -0.99764, -2.4941, 344.607025)"/>
<path fill="none" stroke-width="1.2" stroke-linecap="butt" stroke-linejoin="round" stroke="rgb(0%, 0%, 100%)" stroke-opacity="1" stroke-miterlimit="10" d="M 296.001222 68.001876 L 316.001545 48.001553 L 296.001222 28.001229 L 276.000899 48.001553 Z M 296.001222 68.001876 " transform="matrix(0.99764, 0, 0, -0.99764, -2.4941, 344.607025)"/>
<path fill="none" stroke-width="1.2" stroke-linecap="butt" stroke-linejoin="round" stroke="rgb(0%, 0%, 100%)" stroke-opacity="1" stroke-miterlimit="10" d="M 231.998621 68.001876 L 251.998944 48.001553 L 231.998621 28.001229 L 211.998298 48.001553 Z M 231.998621 68.001876 " transform="matrix(0.99764, 0, 0, -0.99764, -2.4941, 344.607025)"/>
<path fill="none" stroke-width="1.2" stroke-linecap="butt" stroke-linejoin="round" stroke="rgb(0%, 0%, 100%)" stroke-opacity="1" stroke-miterlimit="10" d="M 167.999935 68.001876 L 188.000259 48.001553 L 167.999935 28.001229 L 147.999612 48.001553 Z M 167.999935 68.001876 " transform="matrix(0.99764, 0, 0, -0.99764, -2.4941, 344.607025)"/>
<path fill="none" stroke-width="1.2" stroke-linecap="butt" stroke-linejoin="round" stroke="rgb(0%, 0%, 100%)" stroke-opacity="1" stroke-miterlimit="10" d="M 39.998649 68.001876 L 59.998972 48.001553 L 39.998649 28.001229 L 19.998325 48.001553 Z M 39.998649 68.001876 " transform="matrix(0.99764, 0, 0, -0.99764, -2.4941, 344.607025)"/>
<path fill="none" stroke-width="1.2" stroke-linecap="butt" stroke-linejoin="round" stroke="rgb(0%, 0%, 100%)" stroke-opacity="1" stroke-miterlimit="10" d="M 104.00125 68.001876 L 124.001573 48.001553 L 104.00125 28.001229 L 84.000926 48.001553 Z M 104.00125 68.001876 " transform="matrix(0.99764, 0, 0, -0.99764, -2.4941, 344.607025)"/>
<path fill-rule="evenodd" fill="rgb(0%, 0%, 100%)" fill-opacity="0.2" d="M 292.808594 276.765625 L 312.761719 296.71875 L 292.808594 316.671875 L 272.855469 296.71875 Z M 292.808594 276.765625 "/>
<path fill-rule="evenodd" fill="rgb(0%, 0%, 100%)" fill-opacity="0.2" d="M 165.109375 276.765625 L 185.0625 296.71875 L 165.109375 316.671875 L 145.15625 296.71875 Z M 165.109375 276.765625 "/>
<path fill-rule="evenodd" fill="rgb(0%, 0%, 100%)" fill-opacity="0.2" d="M 228.957031 276.765625 L 248.910156 296.71875 L 228.957031 316.671875 L 209.003906 296.71875 Z M 228.957031 276.765625 "/>
<path fill-rule="evenodd" fill="rgb(0%, 0%, 100%)" fill-opacity="0.2" d="M 101.261719 276.765625 L 121.214844 296.71875 L 101.261719 316.671875 L 81.308594 296.71875 Z M 101.261719 276.765625 "/>
<path fill-rule="evenodd" fill="rgb(0%, 0%, 100%)" fill-opacity="0.2" d="M 37.410156 276.765625 L 57.363281 296.71875 L 37.410156 316.671875 L 17.457031 296.71875 Z M 37.410156 276.765625 "/>
<path fill="none" stroke-width="1.2" stroke-linecap="butt" stroke-linejoin="round" stroke="rgb(62.69989%, 12.5%, 94.099426%)" stroke-opacity="1" stroke-miterlimit="10" d="M 39.998649 164.001862 L 59.998972 144.001539 L 39.998649 124.001216 L 19.998325 144.001539 Z M 39.998649 164.001862 " transform="matrix(0.99764, 0, 0, -0.99764, -2.4941, 344.607025)"/>
<path fill="none" stroke-width="1.2" stroke-linecap="butt" stroke-linejoin="round" stroke="rgb(62.69989%, 12.5%, 94.099426%)" stroke-opacity="1" stroke-miterlimit="10" d="M 39.998649 132.000562 L 59.998972 112.000238 L 39.998649 91.999915 L 19.998325 112.000238 Z M 39.998649 132.000562 " transform="matrix(0.99764, 0, 0, -0.99764, -2.4941, 344.607025)"/>
<path fill="none" stroke-width="1.2" stroke-linecap="butt" stroke-linejoin="round" stroke="rgb(62.69989%, 12.5%, 94.099426%)" stroke-opacity="1" stroke-miterlimit="10" d="M 39.998649 99.999261 L 59.998972 79.998938 L 39.998649 59.998614 L 19.998325 79.998938 Z M 39.998649 99.999261 " transform="matrix(0.99764, 0, 0, -0.99764, -2.4941, 344.607025)"/>
<path fill="none" stroke-width="1.2" stroke-linecap="butt" stroke-linejoin="round" stroke="rgb(62.69989%, 12.5%, 94.099426%)" stroke-opacity="1" stroke-miterlimit="10" d="M 39.998649 260.001848 L 59.998972 240.001525 L 39.998649 220.001202 L 19.998325 240.001525 Z M 39.998649 260.001848 " transform="matrix(0.99764, 0, 0, -0.99764, -2.4941, 344.607025)"/>
<path fill="none" stroke-width="1.2" stroke-linecap="butt" stroke-linejoin="round" stroke="rgb(62.69989%, 12.5%, 94.099426%)" stroke-opacity="1" stroke-miterlimit="10" d="M 39.998649 228.000548 L 59.998972 208.000225 L 39.998649 187.999901 L 19.998325 208.000225 Z M 39.998649 228.000548 " transform="matrix(0.99764, 0, 0, -0.99764, -2.4941, 344.607025)"/>
<path fill="none" stroke-width="1.2" stroke-linecap="butt" stroke-linejoin="round" stroke="rgb(62.69989%, 12.5%, 94.099426%)" stroke-opacity="1" stroke-miterlimit="10" d="M 39.998649 195.999247 L 59.998972 175.998924 L 39.998649 155.998601 L 19.998325 175.998924 Z M 39.998649 195.999247 " transform="matrix(0.99764, 0, 0, -0.99764, -2.4941, 344.607025)"/>
<path fill="none" stroke-width="1.2" stroke-linecap="butt" stroke-linejoin="round" stroke="rgb(62.69989%, 12.5%, 94.099426%)" stroke-opacity="1" stroke-miterlimit="10" d="M 39.998649 324.000534 L 59.998972 304.000211 L 39.998649 283.999887 L 19.998325 304.000211 Z M 39.998649 324.000534 " transform="matrix(0.99764, 0, 0, -0.99764, -2.4941, 344.607025)"/>
<path fill="none" stroke-width="1.2" stroke-linecap="butt" stroke-linejoin="round" stroke="rgb(62.69989%, 12.5%, 94.099426%)" stroke-opacity="1" stroke-miterlimit="10" d="M 39.998649 291.999234 L 59.998972 271.99891 L 39.998649 251.998587 L 19.998325 271.99891 Z M 39.998649 291.999234 " transform="matrix(0.99764, 0, 0, -0.99764, -2.4941, 344.607025)"/>
<path fill-rule="evenodd" fill="rgb(62.69989%, 12.5%, 94.099426%)" fill-opacity="0.2" d="M 37.410156 180.992188 L 57.363281 200.945312 L 37.410156 220.898438 L 17.457031 200.945312 Z M 37.410156 180.992188 "/>
<path fill-rule="evenodd" fill="rgb(62.69989%, 12.5%, 94.099426%)" fill-opacity="0.2" d="M 37.410156 212.917969 L 57.363281 232.871094 L 37.410156 252.824219 L 17.457031 232.871094 Z M 37.410156 212.917969 "/>
<path fill-rule="evenodd" fill="rgb(62.69989%, 12.5%, 94.099426%)" fill-opacity="0.2" d="M 37.410156 244.84375 L 57.363281 264.796875 L 37.410156 284.75 L 17.457031 264.796875 Z M 37.410156 244.84375 "/>
<path fill-rule="evenodd" fill="rgb(62.69989%, 12.5%, 94.099426%)" fill-opacity="0.2" d="M 37.410156 85.21875 L 57.363281 105.171875 L 37.410156 125.125 L 17.457031 105.171875 Z M 37.410156 85.21875 "/>
<path fill-rule="evenodd" fill="rgb(62.69989%, 12.5%, 94.099426%)" fill-opacity="0.2" d="M 37.410156 117.144531 L 57.363281 137.097656 L 37.410156 157.050781 L 17.457031 137.097656 Z M 37.410156 117.144531 "/>
<path fill-rule="evenodd" fill="rgb(62.69989%, 12.5%, 94.099426%)" fill-opacity="0.2" d="M 37.410156 149.070312 L 57.363281 169.023438 L 37.410156 188.976562 L 17.457031 169.023438 Z M 37.410156 149.070312 "/>
<path fill-rule="evenodd" fill="rgb(62.69989%, 12.5%, 94.099426%)" fill-opacity="0.2" d="M 37.410156 21.371094 L 57.363281 41.324219 L 37.410156 61.277344 L 17.457031 41.324219 Z M 37.410156 21.371094 "/>
<path fill-rule="evenodd" fill="rgb(62.69989%, 12.5%, 94.099426%)" fill-opacity="0.2" d="M 37.410156 53.296875 L 57.363281 73.25 L 37.410156 93.203125 L 17.457031 73.25 Z M 37.410156 53.296875 "/>
<path fill="none" stroke-width="1.2" stroke-linecap="butt" stroke-linejoin="round" stroke="rgb(62.69989%, 12.5%, 94.099426%)" stroke-opacity="1" stroke-miterlimit="10" d="M 39.998649 68.001876 L 59.998972 48.001553 L 39.998649 28.001229 L 19.998325 48.001553 Z M 39.998649 68.001876 " transform="matrix(0.99764, 0, 0, -0.99764, -2.4941, 344.607025)"/>
<path fill-rule="evenodd" fill="rgb(62.69989%, 12.5%, 94.099426%)" fill-opacity="0.2" d="M 37.410156 276.765625 L 57.363281 296.71875 L 37.410156 316.671875 L 17.457031 296.71875 Z M 37.410156 276.765625 "/>
<path fill-rule="evenodd" fill="rgb(100%, 0%, 0%)" fill-opacity="0.1" d="M 41.402344 41.324219 C 41.402344 30.304688 32.46875 21.371094 21.449219 21.371094 C 10.429688 21.371094 1.496094 30.304688 1.496094 41.324219 C 1.496094 52.34375 10.429688 61.277344 21.449219 61.277344 C 32.46875 61.277344 41.402344 52.34375 41.402344 41.324219 "/>
<path fill-rule="evenodd" fill="rgb(100%, 0%, 0%)" fill-opacity="0.1" d="M 73.328125 41.324219 C 73.328125 30.304688 64.394531 21.371094 53.375 21.371094 C 42.355469 21.371094 33.421875 30.304688 33.421875 41.324219 C 33.421875 52.34375 42.355469 61.277344 53.375 61.277344 C 64.394531 61.277344 73.328125 52.34375 73.328125 41.324219 "/>
<path fill-rule="evenodd" fill="rgb(100%, 0%, 0%)" fill-opacity="0.1" d="M 105.25 41.324219 C 105.25 30.304688 96.316406 21.371094 85.296875 21.371094 C 74.277344 21.371094 65.34375 30.304688 65.34375 41.324219 C 65.34375 52.34375 74.277344 61.277344 85.296875 61.277344 C 96.316406 61.277344 105.25 52.34375 105.25 41.324219 "/>
<path fill-rule="evenodd" fill="rgb(100%, 0%, 0%)" fill-opacity="0.1" d="M 137.175781 41.324219 C 137.175781 30.304688 128.242188 21.371094 117.222656 21.371094 C 106.203125 21.371094 97.269531 30.304688 97.269531 41.324219 C 97.269531 52.34375 106.203125 61.277344 117.222656 61.277344 C 128.242188 61.277344 137.175781 52.34375 137.175781 41.324219 "/>
<path fill-rule="evenodd" fill="rgb(100%, 0%, 0%)" fill-opacity="0.1" d="M 169.101562 41.324219 C 169.101562 30.304688 160.167969 21.371094 149.148438 21.371094 C 138.128906 21.371094 129.195312 30.304688 129.195312 41.324219 C 129.195312 52.34375 138.128906 61.277344 149.148438 61.277344 C 160.167969 61.277344 169.101562 52.34375 169.101562 41.324219 "/>
<path fill-rule="evenodd" fill="rgb(100%, 0%, 0%)" fill-opacity="0.1" d="M 201.023438 41.324219 C 201.023438 30.304688 192.089844 21.371094 181.070312 21.371094 C 170.050781 21.371094 161.117188 30.304688 161.117188 41.324219 C 161.117188 52.34375 170.050781 61.277344 181.070312 61.277344 C 192.089844 61.277344 201.023438 52.34375 201.023438 41.324219 "/>
<path fill-rule="evenodd" fill="rgb(100%, 0%, 0%)" fill-opacity="0.1" d="M 233.34375 41.324219 C 233.34375 30.085938 224.234375 20.976562 212.996094 20.976562 C 201.757812 20.976562 192.648438 30.085938 192.648438 41.324219 C 192.648438 52.5625 201.757812 61.671875 212.996094 61.671875 C 224.234375 61.671875 233.34375 52.5625 233.34375 41.324219 "/>
<path fill-rule="evenodd" fill="rgb(100%, 0%, 0%)" fill-opacity="0.1" d="M 264.875 41.324219 C 264.875 30.304688 255.941406 21.371094 244.921875 21.371094 C 233.902344 21.371094 224.96875 30.304688 224.96875 41.324219 C 224.96875 52.34375 233.902344 61.277344 244.921875 61.277344 C 255.941406 61.277344 264.875 52.34375 264.875 41.324219 "/>
<path fill-rule="evenodd" fill="rgb(100%, 0%, 0%)" fill-opacity="0.1" d="M 296.796875 41.324219 C 296.796875 30.304688 287.863281 21.371094 276.84375 21.371094 C 265.824219 21.371094 256.890625 30.304688 256.890625 41.324219 C 256.890625 52.34375 265.824219 61.277344 276.84375 61.277344 C 287.863281 61.277344 296.796875 52.34375 296.796875 41.324219 "/>
<path fill-rule="evenodd" fill="rgb(100%, 0%, 0%)" fill-opacity="0.1" d="M 328.722656 41.324219 C 328.722656 30.304688 319.789062 21.371094 308.769531 21.371094 C 297.75 21.371094 288.816406 30.304688 288.816406 41.324219 C 288.816406 52.34375 297.75 61.277344 308.769531 61.277344 C 319.789062 61.277344 328.722656 52.34375 328.722656 41.324219 "/>
<path fill-rule="evenodd" fill="rgb(100%, 0%, 0%)" fill-opacity="0.1" d="M 41.402344 105.171875 C 41.402344 94.152344 32.46875 85.21875 21.449219 85.21875 C 10.429688 85.21875 1.496094 94.152344 1.496094 105.171875 C 1.496094 116.191406 10.429688 125.125 21.449219 125.125 C 32.46875 125.125 41.402344 116.191406 41.402344 105.171875 "/>
<path fill-rule="evenodd" fill="rgb(100%, 0%, 0%)" fill-opacity="0.1" d="M 73.328125 105.171875 C 73.328125 94.152344 64.394531 85.21875 53.375 85.21875 C 42.355469 85.21875 33.421875 94.152344 33.421875 105.171875 C 33.421875 116.191406 42.355469 125.125 53.375 125.125 C 64.394531 125.125 73.328125 116.191406 73.328125 105.171875 "/>
<path fill-rule="evenodd" fill="rgb(100%, 0%, 0%)" fill-opacity="0.1" d="M 105.25 105.171875 C 105.25 94.152344 96.316406 85.21875 85.296875 85.21875 C 74.277344 85.21875 65.34375 94.152344 65.34375 105.171875 C 65.34375 116.191406 74.277344 125.125 85.296875 125.125 C 96.316406 125.125 105.25 116.191406 105.25 105.171875 "/>
<path fill-rule="evenodd" fill="rgb(100%, 0%, 0%)" fill-opacity="0.1" d="M 137.175781 105.171875 C 137.175781 94.152344 128.242188 85.21875 117.222656 85.21875 C 106.203125 85.21875 97.269531 94.152344 97.269531 105.171875 C 97.269531 116.191406 106.203125 125.125 117.222656 125.125 C 128.242188 125.125 137.175781 116.191406 137.175781 105.171875 "/>
<path fill-rule="evenodd" fill="rgb(100%, 0%, 0%)" fill-opacity="0.1" d="M 169.101562 105.171875 C 169.101562 94.152344 160.167969 85.21875 149.148438 85.21875 C 138.128906 85.21875 129.195312 94.152344 129.195312 105.171875 C 129.195312 116.191406 138.128906 125.125 149.148438 125.125 C 160.167969 125.125 169.101562 116.191406 169.101562 105.171875 "/>
<path fill-rule="evenodd" fill="rgb(100%, 0%, 0%)" fill-opacity="0.1" d="M 201.023438 105.171875 C 201.023438 94.152344 192.089844 85.21875 181.070312 85.21875 C 170.050781 85.21875 161.117188 94.152344 161.117188 105.171875 C 161.117188 116.191406 170.050781 125.125 181.070312 125.125 C 192.089844 125.125 201.023438 116.191406 201.023438 105.171875 "/>
<path fill-rule="evenodd" fill="rgb(100%, 0%, 0%)" fill-opacity="0.1" d="M 233.34375 105.171875 C 233.34375 93.9375 224.234375 84.824219 212.996094 84.824219 C 201.757812 84.824219 192.648438 93.9375 192.648438 105.171875 C 192.648438 116.410156 201.757812 125.519531 212.996094 125.519531 C 224.234375 125.519531 233.34375 116.410156 233.34375 105.171875 "/>
<path fill-rule="evenodd" fill="rgb(100%, 0%, 0%)" fill-opacity="0.1" d="M 264.875 105.171875 C 264.875 94.152344 255.941406 85.21875 244.921875 85.21875 C 233.902344 85.21875 224.96875 94.152344 224.96875 105.171875 C 224.96875 116.191406 233.902344 125.125 244.921875 125.125 C 255.941406 125.125 264.875 116.191406 264.875 105.171875 "/>
<path fill-rule="evenodd" fill="rgb(100%, 0%, 0%)" fill-opacity="0.1" d="M 296.796875 105.171875 C 296.796875 94.152344 287.863281 85.21875 276.84375 85.21875 C 265.824219 85.21875 256.890625 94.152344 256.890625 105.171875 C 256.890625 116.191406 265.824219 125.125 276.84375 125.125 C 287.863281 125.125 296.796875 116.191406 296.796875 105.171875 "/>
<path fill-rule="evenodd" fill="rgb(100%, 0%, 0%)" fill-opacity="0.1" d="M 328.722656 105.171875 C 328.722656 94.152344 319.789062 85.21875 308.769531 85.21875 C 297.75 85.21875 288.816406 94.152344 288.816406 105.171875 C 288.816406 116.191406 297.75 125.125 308.769531 125.125 C 319.789062 125.125 328.722656 116.191406 328.722656 105.171875 "/>
<path fill-rule="evenodd" fill="rgb(100%, 0%, 0%)" fill-opacity="0.1" d="M 41.402344 169.023438 C 41.402344 158.003906 32.46875 149.070312 21.449219 149.070312 C 10.429688 149.070312 1.496094 158.003906 1.496094 169.023438 C 1.496094 180.042969 10.429688 188.976562 21.449219 188.976562 C 32.46875 188.976562 41.402344 180.042969 41.402344 169.023438 "/>
<path fill-rule="evenodd" fill="rgb(100%, 0%, 0%)" fill-opacity="0.1" d="M 73.328125 169.023438 C 73.328125 158.003906 64.394531 149.070312 53.375 149.070312 C 42.355469 149.070312 33.421875 158.003906 33.421875 169.023438 C 33.421875 180.042969 42.355469 188.976562 53.375 188.976562 C 64.394531 188.976562 73.328125 180.042969 73.328125 169.023438 "/>
<path fill-rule="evenodd" fill="rgb(100%, 0%, 0%)" fill-opacity="0.1" d="M 105.25 169.023438 C 105.25 158.003906 96.316406 149.070312 85.296875 149.070312 C 74.277344 149.070312 65.34375 158.003906 65.34375 169.023438 C 65.34375 180.042969 74.277344 188.976562 85.296875 188.976562 C 96.316406 188.976562 105.25 180.042969 105.25 169.023438 "/>
<path fill-rule="evenodd" fill="rgb(100%, 0%, 0%)" fill-opacity="0.1" d="M 137.175781 169.023438 C 137.175781 158.003906 128.242188 149.070312 117.222656 149.070312 C 106.203125 149.070312 97.269531 158.003906 97.269531 169.023438 C 97.269531 180.042969 106.203125 188.976562 117.222656 188.976562 C 128.242188 188.976562 137.175781 180.042969 137.175781 169.023438 "/>
<path fill-rule="evenodd" fill="rgb(100%, 0%, 0%)" fill-opacity="0.1" d="M 169.101562 169.023438 C 169.101562 158.003906 160.167969 149.070312 149.148438 149.070312 C 138.128906 149.070312 129.195312 158.003906 129.195312 169.023438 C 129.195312 180.042969 138.128906 188.976562 149.148438 188.976562 C 160.167969 188.976562 169.101562 180.042969 169.101562 169.023438 "/>
<path fill-rule="evenodd" fill="rgb(100%, 0%, 0%)" fill-opacity="0.1" d="M 201.023438 169.023438 C 201.023438 158.003906 192.089844 149.070312 181.070312 149.070312 C 170.050781 149.070312 161.117188 158.003906 161.117188 169.023438 C 161.117188 180.042969 170.050781 188.976562 181.070312 188.976562 C 192.089844 188.976562 201.023438 180.042969 201.023438 169.023438 "/>
<path fill-rule="evenodd" fill="rgb(100%, 0%, 0%)" fill-opacity="0.1" d="M 233.34375 169.023438 C 233.34375 157.785156 224.234375 148.675781 212.996094 148.675781 C 201.757812 148.675781 192.648438 157.785156 192.648438 169.023438 C 192.648438 180.261719 201.757812 189.371094 212.996094 189.371094 C 224.234375 189.371094 233.34375 180.261719 233.34375 169.023438 "/>
<path fill-rule="evenodd" fill="rgb(100%, 0%, 0%)" fill-opacity="0.1" d="M 264.875 169.023438 C 264.875 158.003906 255.941406 149.070312 244.921875 149.070312 C 233.902344 149.070312 224.96875 158.003906 224.96875 169.023438 C 224.96875 180.042969 233.902344 188.976562 244.921875 188.976562 C 255.941406 188.976562 264.875 180.042969 264.875 169.023438 "/>
<path fill-rule="evenodd" fill="rgb(100%, 0%, 0%)" fill-opacity="0.1" d="M 296.796875 169.023438 C 296.796875 158.003906 287.863281 149.070312 276.84375 149.070312 C 265.824219 149.070312 256.890625 158.003906 256.890625 169.023438 C 256.890625 180.042969 265.824219 188.976562 276.84375 188.976562 C 287.863281 188.976562 296.796875 180.042969 296.796875 169.023438 "/>
<path fill-rule="evenodd" fill="rgb(100%, 0%, 0%)" fill-opacity="0.1" d="M 328.722656 169.023438 C 328.722656 158.003906 319.789062 149.070312 308.769531 149.070312 C 297.75 149.070312 288.816406 158.003906 288.816406 169.023438 C 288.816406 180.042969 297.75 188.976562 308.769531 188.976562 C 319.789062 188.976562 328.722656 180.042969 328.722656 169.023438 "/>
<path fill-rule="evenodd" fill="rgb(100%, 0%, 0%)" fill-opacity="0.1" d="M 41.402344 232.871094 C 41.402344 221.851562 32.46875 212.917969 21.449219 212.917969 C 10.429688 212.917969 1.496094 221.851562 1.496094 232.871094 C 1.496094 243.890625 10.429688 252.824219 21.449219 252.824219 C 32.46875 252.824219 41.402344 243.890625 41.402344 232.871094 "/>
<path fill-rule="evenodd" fill="rgb(100%, 0%, 0%)" fill-opacity="0.1" d="M 73.328125 232.871094 C 73.328125 221.851562 64.394531 212.917969 53.375 212.917969 C 42.355469 212.917969 33.421875 221.851562 33.421875 232.871094 C 33.421875 243.890625 42.355469 252.824219 53.375 252.824219 C 64.394531 252.824219 73.328125 243.890625 73.328125 232.871094 "/>
<path fill-rule="evenodd" fill="rgb(100%, 0%, 0%)" fill-opacity="0.1" d="M 105.25 232.871094 C 105.25 221.851562 96.316406 212.917969 85.296875 212.917969 C 74.277344 212.917969 65.34375 221.851562 65.34375 232.871094 C 65.34375 243.890625 74.277344 252.824219 85.296875 252.824219 C 96.316406 252.824219 105.25 243.890625 105.25 232.871094 "/>
<path fill-rule="evenodd" fill="rgb(100%, 0%, 0%)" fill-opacity="0.1" d="M 137.175781 232.871094 C 137.175781 221.851562 128.242188 212.917969 117.222656 212.917969 C 106.203125 212.917969 97.269531 221.851562 97.269531 232.871094 C 97.269531 243.890625 106.203125 252.824219 117.222656 252.824219 C 128.242188 252.824219 137.175781 243.890625 137.175781 232.871094 "/>
<path fill-rule="evenodd" fill="rgb(100%, 0%, 0%)" fill-opacity="0.1" d="M 169.101562 232.871094 C 169.101562 221.851562 160.167969 212.917969 149.148438 212.917969 C 138.128906 212.917969 129.195312 221.851562 129.195312 232.871094 C 129.195312 243.890625 138.128906 252.824219 149.148438 252.824219 C 160.167969 252.824219 169.101562 243.890625 169.101562 232.871094 "/>
<path fill-rule="evenodd" fill="rgb(100%, 0%, 0%)" fill-opacity="0.1" d="M 201.023438 232.871094 C 201.023438 221.851562 192.089844 212.917969 181.070312 212.917969 C 170.050781 212.917969 161.117188 221.851562 161.117188 232.871094 C 161.117188 243.890625 170.050781 252.824219 181.070312 252.824219 C 192.089844 252.824219 201.023438 243.890625 201.023438 232.871094 "/>
<path fill-rule="evenodd" fill="rgb(100%, 0%, 0%)" fill-opacity="0.1" d="M 233.34375 232.871094 C 233.34375 221.632812 224.234375 212.523438 212.996094 212.523438 C 201.757812 212.523438 192.648438 221.632812 192.648438 232.871094 C 192.648438 244.109375 201.757812 253.21875 212.996094 253.21875 C 224.234375 253.21875 233.34375 244.109375 233.34375 232.871094 "/>
<path fill-rule="evenodd" fill="rgb(100%, 0%, 0%)" fill-opacity="0.1" d="M 264.875 232.871094 C 264.875 221.851562 255.941406 212.917969 244.921875 212.917969 C 233.902344 212.917969 224.96875 221.851562 224.96875 232.871094 C 224.96875 243.890625 233.902344 252.824219 244.921875 252.824219 C 255.941406 252.824219 264.875 243.890625 264.875 232.871094 "/>
<path fill-rule="evenodd" fill="rgb(100%, 0%, 0%)" fill-opacity="0.1" d="M 296.796875 232.871094 C 296.796875 221.851562 287.863281 212.917969 276.84375 212.917969 C 265.824219 212.917969 256.890625 221.851562 256.890625 232.871094 C 256.890625 243.890625 265.824219 252.824219 276.84375 252.824219 C 287.863281 252.824219 296.796875 243.890625 296.796875 232.871094 "/>
<path fill-rule="evenodd" fill="rgb(100%, 0%, 0%)" fill-opacity="0.1" d="M 328.722656 232.871094 C 328.722656 221.851562 319.789062 212.917969 308.769531 212.917969 C 297.75 212.917969 288.816406 221.851562 288.816406 232.871094 C 288.816406 243.890625 297.75 252.824219 308.769531 252.824219 C 319.789062 252.824219 328.722656 243.890625 328.722656 232.871094 "/>
<path fill-rule="evenodd" fill="rgb(100%, 0%, 0%)" fill-opacity="0.1" d="M 41.402344 296.71875 C 41.402344 285.699219 32.46875 276.765625 21.449219 276.765625 C 10.429688 276.765625 1.496094 285.699219 1.496094 296.71875 C 1.496094 307.738281 10.429688 316.671875 21.449219 316.671875 C 32.46875 316.671875 41.402344 307.738281 41.402344 296.71875 "/>
<path fill-rule="evenodd" fill="rgb(100%, 0%, 0%)" fill-opacity="0.1" d="M 73.328125 296.71875 C 73.328125 285.699219 64.394531 276.765625 53.375 276.765625 C 42.355469 276.765625 33.421875 285.699219 33.421875 296.71875 C 33.421875 307.738281 42.355469 316.671875 53.375 316.671875 C 64.394531 316.671875 73.328125 307.738281 73.328125 296.71875 "/>
<path fill-rule="evenodd" fill="rgb(100%, 0%, 0%)" fill-opacity="0.1" d="M 105.25 296.71875 C 105.25 285.699219 96.316406 276.765625 85.296875 276.765625 C 74.277344 276.765625 65.34375 285.699219 65.34375 296.71875 C 65.34375 307.738281 74.277344 316.671875 85.296875 316.671875 C 96.316406 316.671875 105.25 307.738281 105.25 296.71875 "/>
<path fill-rule="evenodd" fill="rgb(100%, 0%, 0%)" fill-opacity="0.1" d="M 137.175781 296.71875 C 137.175781 285.699219 128.242188 276.765625 117.222656 276.765625 C 106.203125 276.765625 97.269531 285.699219 97.269531 296.71875 C 97.269531 307.738281 106.203125 316.671875 117.222656 316.671875 C 128.242188 316.671875 137.175781 307.738281 137.175781 296.71875 "/>
<path fill-rule="evenodd" fill="rgb(100%, 0%, 0%)" fill-opacity="0.1" d="M 169.101562 296.71875 C 169.101562 285.699219 160.167969 276.765625 149.148438 276.765625 C 138.128906 276.765625 129.195312 285.699219 129.195312 296.71875 C 129.195312 307.738281 138.128906 316.671875 149.148438 316.671875 C 160.167969 316.671875 169.101562 307.738281 169.101562 296.71875 "/>
<path fill-rule="evenodd" fill="rgb(100%, 0%, 0%)" fill-opacity="0.1" d="M 201.023438 296.71875 C 201.023438 285.699219 192.089844 276.765625 181.070312 276.765625 C 170.050781 276.765625 161.117188 285.699219 161.117188 296.71875 C 161.117188 307.738281 170.050781 316.671875 181.070312 316.671875 C 192.089844 316.671875 201.023438 307.738281 201.023438 296.71875 "/>
<path fill-rule="evenodd" fill="rgb(100%, 0%, 0%)" fill-opacity="0.1" d="M 233.34375 296.71875 C 233.34375 285.480469 224.234375 276.371094 212.996094 276.371094 C 201.757812 276.371094 192.648438 285.480469 192.648438 296.71875 C 192.648438 307.957031 201.757812 317.066406 212.996094 317.066406 C 224.234375 317.066406 233.34375 307.957031 233.34375 296.71875 "/>
<path fill-rule="evenodd" fill="rgb(100%, 0%, 0%)" fill-opacity="0.1" d="M 264.875 296.71875 C 264.875 285.699219 255.941406 276.765625 244.921875 276.765625 C 233.902344 276.765625 224.96875 285.699219 224.96875 296.71875 C 224.96875 307.738281 233.902344 316.671875 244.921875 316.671875 C 255.941406 316.671875 264.875 307.738281 264.875 296.71875 "/>
<path fill-rule="evenodd" fill="rgb(100%, 0%, 0%)" fill-opacity="0.1" d="M 296.796875 296.71875 C 296.796875 285.699219 287.863281 276.765625 276.84375 276.765625 C 265.824219 276.765625 256.890625 285.699219 256.890625 296.71875 C 256.890625 307.738281 265.824219 316.671875 276.84375 316.671875 C 287.863281 316.671875 296.796875 307.738281 296.796875 296.71875 "/>
<path fill-rule="evenodd" fill="rgb(100%, 0%, 0%)" fill-opacity="0.1" d="M 328.722656 296.71875 C 328.722656 285.699219 319.789062 276.765625 308.769531 276.765625 C 297.75 276.765625 288.816406 285.699219 288.816406 296.71875 C 288.816406 307.738281 297.75 316.671875 308.769531 316.671875 C 319.789062 316.671875 328.722656 307.738281 328.722656 296.71875 "/>
<path fill="none" stroke-width="2" stroke-linecap="butt" stroke-linejoin="round" stroke="rgb(62.69989%, 12.5%, 94.099426%)" stroke-opacity="1" stroke-miterlimit="10" d="M 44.00028 304.000211 C 44.00028 315.045808 35.045554 324.000534 23.999956 324.000534 C 12.954359 324.000534 3.999633 315.045808 3.999633 304.000211 C 3.999633 292.954613 12.954359 283.999887 23.999956 283.999887 C 35.045554 283.999887 44.00028 292.954613 44.00028 304.000211 " transform="matrix(0.99764, 0, 0, -0.99764, -2.4941, 344.607025)"/>
<path fill="none" stroke-width="2" stroke-linecap="butt" stroke-linejoin="round" stroke="rgb(62.69989%, 12.5%, 94.099426%)" stroke-opacity="1" stroke-miterlimit="10" d="M 76.00158 304.000211 C 76.00158 315.045808 67.046854 324.000534 56.001257 324.000534 C 44.955659 324.000534 36.000933 315.045808 36.000933 304.000211 C 36.000933 292.954613 44.955659 283.999887 56.001257 283.999887 C 67.046854 283.999887 76.00158 292.954613 76.00158 304.000211 " transform="matrix(0.99764, 0, 0, -0.99764, -2.4941, 344.607025)"/>
<path fill="none" stroke-width="2" stroke-linecap="butt" stroke-linejoin="round" stroke="rgb(62.69989%, 12.5%, 94.099426%)" stroke-opacity="1" stroke-miterlimit="10" d="M 107.998965 304.000211 C 107.998965 315.045808 99.044239 324.000534 87.998642 324.000534 C 76.953044 324.000534 67.998318 315.045808 67.998318 304.000211 C 67.998318 292.954613 76.953044 283.999887 87.998642 283.999887 C 99.044239 283.999887 107.998965 292.954613 107.998965 304.000211 " transform="matrix(0.99764, 0, 0, -0.99764, -2.4941, 344.607025)"/>
<path fill="none" stroke-width="2" stroke-linecap="butt" stroke-linejoin="round" stroke="rgb(62.69989%, 12.5%, 94.099426%)" stroke-opacity="1" stroke-miterlimit="10" d="M 140.000266 304.000211 C 140.000266 315.045808 131.04554 324.000534 119.999942 324.000534 C 108.954345 324.000534 99.999619 315.045808 99.999619 304.000211 C 99.999619 292.954613 108.954345 283.999887 119.999942 283.999887 C 131.04554 283.999887 140.000266 292.954613 140.000266 304.000211 " transform="matrix(0.99764, 0, 0, -0.99764, -2.4941, 344.607025)"/>
<path fill="none" stroke-width="2" stroke-linecap="butt" stroke-linejoin="round" stroke="rgb(62.69989%, 12.5%, 94.099426%)" stroke-opacity="1" stroke-miterlimit="10" d="M 172.001566 304.000211 C 172.001566 315.045808 163.04684 324.000534 152.001243 324.000534 C 140.955645 324.000534 132.000919 315.045808 132.000919 304.000211 C 132.000919 292.954613 140.955645 283.999887 152.001243 283.999887 C 163.04684 283.999887 172.001566 292.954613 172.001566 304.000211 " transform="matrix(0.99764, 0, 0, -0.99764, -2.4941, 344.607025)"/>
<path fill="none" stroke-width="2" stroke-linecap="butt" stroke-linejoin="round" stroke="rgb(62.69989%, 12.5%, 94.099426%)" stroke-opacity="1" stroke-miterlimit="10" d="M 203.998951 304.000211 C 203.998951 315.045808 195.044225 324.000534 183.998628 324.000534 C 172.95303 324.000534 163.998304 315.045808 163.998304 304.000211 C 163.998304 292.954613 172.95303 283.999887 183.998628 283.999887 C 195.044225 283.999887 203.998951 292.954613 203.998951 304.000211 " transform="matrix(0.99764, 0, 0, -0.99764, -2.4941, 344.607025)"/>
<path fill="none" stroke-width="2" stroke-linecap="butt" stroke-linejoin="round" stroke="rgb(62.69989%, 12.5%, 94.099426%)" stroke-opacity="1" stroke-miterlimit="10" d="M 236.395716 304.000211 C 236.395716 315.265076 227.264793 324.395999 215.999928 324.395999 C 204.735063 324.395999 195.60414 315.265076 195.60414 304.000211 C 195.60414 292.735346 204.735063 283.604423 215.999928 283.604423 C 227.264793 283.604423 236.395716 292.735346 236.395716 304.000211 " transform="matrix(0.99764, 0, 0, -0.99764, -2.4941, 344.607025)"/>
<path fill="none" stroke-width="2" stroke-linecap="butt" stroke-linejoin="round" stroke="rgb(62.69989%, 12.5%, 94.099426%)" stroke-opacity="1" stroke-miterlimit="10" d="M 268.001552 304.000211 C 268.001552 315.045808 259.046826 324.000534 248.001229 324.000534 C 236.955631 324.000534 228.000906 315.045808 228.000906 304.000211 C 228.000906 292.954613 236.955631 283.999887 248.001229 283.999887 C 259.046826 283.999887 268.001552 292.954613 268.001552 304.000211 " transform="matrix(0.99764, 0, 0, -0.99764, -2.4941, 344.607025)"/>
<path fill="none" stroke-width="2" stroke-linecap="butt" stroke-linejoin="round" stroke="rgb(62.69989%, 12.5%, 94.099426%)" stroke-opacity="1" stroke-miterlimit="10" d="M 299.998937 304.000211 C 299.998937 315.045808 291.044212 324.000534 279.998614 324.000534 C 268.953016 324.000534 259.998291 315.045808 259.998291 304.000211 C 259.998291 292.954613 268.953016 283.999887 279.998614 283.999887 C 291.044212 283.999887 299.998937 292.954613 299.998937 304.000211 " transform="matrix(0.99764, 0, 0, -0.99764, -2.4941, 344.607025)"/>
<path fill="none" stroke-width="2" stroke-linecap="butt" stroke-linejoin="round" stroke="rgb(62.69989%, 12.5%, 94.099426%)" stroke-opacity="1" stroke-miterlimit="10" d="M 332.000238 304.000211 C 332.000238 315.045808 323.045512 324.000534 311.999915 324.000534 C 300.954317 324.000534 291.999591 315.045808 291.999591 304.000211 C 291.999591 292.954613 300.954317 283.999887 311.999915 283.999887 C 323.045512 283.999887 332.000238 292.954613 332.000238 304.000211 " transform="matrix(0.99764, 0, 0, -0.99764, -2.4941, 344.607025)"/>
<path fill-rule="evenodd" fill="rgb(62.69989%, 12.5%, 94.099426%)" fill-opacity="0.1" d="M 41.402344 41.324219 C 41.402344 30.304688 32.46875 21.371094 21.449219 21.371094 C 10.429688 21.371094 1.496094 30.304688 1.496094 41.324219 C 1.496094 52.34375 10.429688 61.277344 21.449219 61.277344 C 32.46875 61.277344 41.402344 52.34375 41.402344 41.324219 "/>
<path fill-rule="evenodd" fill="rgb(62.69989%, 12.5%, 94.099426%)" fill-opacity="0.1" d="M 73.328125 41.324219 C 73.328125 30.304688 64.394531 21.371094 53.375 21.371094 C 42.355469 21.371094 33.421875 30.304688 33.421875 41.324219 C 33.421875 52.34375 42.355469 61.277344 53.375 61.277344 C 64.394531 61.277344 73.328125 52.34375 73.328125 41.324219 "/>
<path fill-rule="evenodd" fill="rgb(62.69989%, 12.5%, 94.099426%)" fill-opacity="0.1" d="M 105.25 41.324219 C 105.25 30.304688 96.316406 21.371094 85.296875 21.371094 C 74.277344 21.371094 65.34375 30.304688 65.34375 41.324219 C 65.34375 52.34375 74.277344 61.277344 85.296875 61.277344 C 96.316406 61.277344 105.25 52.34375 105.25 41.324219 "/>
<path fill-rule="evenodd" fill="rgb(62.69989%, 12.5%, 94.099426%)" fill-opacity="0.1" d="M 137.175781 41.324219 C 137.175781 30.304688 128.242188 21.371094 117.222656 21.371094 C 106.203125 21.371094 97.269531 30.304688 97.269531 41.324219 C 97.269531 52.34375 106.203125 61.277344 117.222656 61.277344 C 128.242188 61.277344 137.175781 52.34375 137.175781 41.324219 "/>
<path fill-rule="evenodd" fill="rgb(62.69989%, 12.5%, 94.099426%)" fill-opacity="0.1" d="M 169.101562 41.324219 C 169.101562 30.304688 160.167969 21.371094 149.148438 21.371094 C 138.128906 21.371094 129.195312 30.304688 129.195312 41.324219 C 129.195312 52.34375 138.128906 61.277344 149.148438 61.277344 C 160.167969 61.277344 169.101562 52.34375 169.101562 41.324219 "/>
<path fill-rule="evenodd" fill="rgb(62.69989%, 12.5%, 94.099426%)" fill-opacity="0.1" d="M 201.023438 41.324219 C 201.023438 30.304688 192.089844 21.371094 181.070312 21.371094 C 170.050781 21.371094 161.117188 30.304688 161.117188 41.324219 C 161.117188 52.34375 170.050781 61.277344 181.070312 61.277344 C 192.089844 61.277344 201.023438 52.34375 201.023438 41.324219 "/>
<path fill-rule="evenodd" fill="rgb(62.69989%, 12.5%, 94.099426%)" fill-opacity="0.1" d="M 233.34375 41.324219 C 233.34375 30.085938 224.234375 20.976562 212.996094 20.976562 C 201.757812 20.976562 192.648438 30.085938 192.648438 41.324219 C 192.648438 52.5625 201.757812 61.671875 212.996094 61.671875 C 224.234375 61.671875 233.34375 52.5625 233.34375 41.324219 "/>
<path fill-rule="evenodd" fill="rgb(62.69989%, 12.5%, 94.099426%)" fill-opacity="0.1" d="M 264.875 41.324219 C 264.875 30.304688 255.941406 21.371094 244.921875 21.371094 C 233.902344 21.371094 224.96875 30.304688 224.96875 41.324219 C 224.96875 52.34375 233.902344 61.277344 244.921875 61.277344 C 255.941406 61.277344 264.875 52.34375 264.875 41.324219 "/>
<path fill-rule="evenodd" fill="rgb(62.69989%, 12.5%, 94.099426%)" fill-opacity="0.1" d="M 296.796875 41.324219 C 296.796875 30.304688 287.863281 21.371094 276.84375 21.371094 C 265.824219 21.371094 256.890625 30.304688 256.890625 41.324219 C 256.890625 52.34375 265.824219 61.277344 276.84375 61.277344 C 287.863281 61.277344 296.796875 52.34375 296.796875 41.324219 "/>
<path fill-rule="evenodd" fill="rgb(62.69989%, 12.5%, 94.099426%)" fill-opacity="0.1" d="M 328.722656 41.324219 C 328.722656 30.304688 319.789062 21.371094 308.769531 21.371094 C 297.75 21.371094 288.816406 30.304688 288.816406 41.324219 C 288.816406 52.34375 297.75 61.277344 308.769531 61.277344 C 319.789062 61.277344 328.722656 52.34375 328.722656 41.324219 "/>
<path fill="none" stroke-width="1.2" stroke-linecap="butt" stroke-linejoin="round" stroke="rgb(62.69989%, 12.5%, 94.099426%)" stroke-opacity="1" stroke-miterlimit="10" d="M 39.998649 164.001862 L 59.998972 144.001539 L 39.998649 124.001216 L 19.998325 144.001539 Z M 39.998649 164.001862 " transform="matrix(0.99764, 0, 0, -0.99764, -2.4941, 344.607025)"/>
<path fill="none" stroke-width="1.2" stroke-linecap="butt" stroke-linejoin="round" stroke="rgb(62.69989%, 12.5%, 94.099426%)" stroke-opacity="1" stroke-miterlimit="10" d="M 39.998649 132.000562 L 59.998972 112.000238 L 39.998649 91.999915 L 19.998325 112.000238 Z M 39.998649 132.000562 " transform="matrix(0.99764, 0, 0, -0.99764, -2.4941, 344.607025)"/>
<path fill="none" stroke-width="1.2" stroke-linecap="butt" stroke-linejoin="round" stroke="rgb(62.69989%, 12.5%, 94.099426%)" stroke-opacity="1" stroke-miterlimit="10" d="M 39.998649 99.999261 L 59.998972 79.998938 L 39.998649 59.998614 L 19.998325 79.998938 Z M 39.998649 99.999261 " transform="matrix(0.99764, 0, 0, -0.99764, -2.4941, 344.607025)"/>
<path fill="none" stroke-width="1.2" stroke-linecap="butt" stroke-linejoin="round" stroke="rgb(62.69989%, 12.5%, 94.099426%)" stroke-opacity="1" stroke-miterlimit="10" d="M 39.998649 260.001848 L 59.998972 240.001525 L 39.998649 220.001202 L 19.998325 240.001525 Z M 39.998649 260.001848 " transform="matrix(0.99764, 0, 0, -0.99764, -2.4941, 344.607025)"/>
<path fill="none" stroke-width="1.2" stroke-linecap="butt" stroke-linejoin="round" stroke="rgb(62.69989%, 12.5%, 94.099426%)" stroke-opacity="1" stroke-miterlimit="10" d="M 39.998649 228.000548 L 59.998972 208.000225 L 39.998649 187.999901 L 19.998325 208.000225 Z M 39.998649 228.000548 " transform="matrix(0.99764, 0, 0, -0.99764, -2.4941, 344.607025)"/>
<path fill="none" stroke-width="1.2" stroke-linecap="butt" stroke-linejoin="round" stroke="rgb(62.69989%, 12.5%, 94.099426%)" stroke-opacity="1" stroke-miterlimit="10" d="M 39.998649 195.999247 L 59.998972 175.998924 L 39.998649 155.998601 L 19.998325 175.998924 Z M 39.998649 195.999247 " transform="matrix(0.99764, 0, 0, -0.99764, -2.4941, 344.607025)"/>
<path fill="none" stroke-width="1.2" stroke-linecap="butt" stroke-linejoin="round" stroke="rgb(62.69989%, 12.5%, 94.099426%)" stroke-opacity="1" stroke-miterlimit="10" d="M 39.998649 324.000534 L 59.998972 304.000211 L 39.998649 283.999887 L 19.998325 304.000211 Z M 39.998649 324.000534 " transform="matrix(0.99764, 0, 0, -0.99764, -2.4941, 344.607025)"/>
<path fill="none" stroke-width="1.2" stroke-linecap="butt" stroke-linejoin="round" stroke="rgb(62.69989%, 12.5%, 94.099426%)" stroke-opacity="1" stroke-miterlimit="10" d="M 39.998649 291.999234 L 59.998972 271.99891 L 39.998649 251.998587 L 19.998325 271.99891 Z M 39.998649 291.999234 " transform="matrix(0.99764, 0, 0, -0.99764, -2.4941, 344.607025)"/>
<path fill-rule="evenodd" fill="rgb(62.69989%, 12.5%, 94.099426%)" fill-opacity="1" d="M 37.410156 180.992188 L 57.363281 200.945312 L 37.410156 220.898438 L 17.457031 200.945312 Z M 37.410156 180.992188 "/>
<path fill-rule="evenodd" fill="rgb(62.69989%, 12.5%, 94.099426%)" fill-opacity="1" d="M 37.410156 212.917969 L 57.363281 232.871094 L 37.410156 252.824219 L 17.457031 232.871094 Z M 37.410156 212.917969 "/>
<path fill-rule="evenodd" fill="rgb(62.69989%, 12.5%, 94.099426%)" fill-opacity="1" d="M 37.410156 244.84375 L 57.363281 264.796875 L 37.410156 284.75 L 17.457031 264.796875 Z M 37.410156 244.84375 "/>
<path fill-rule="evenodd" fill="rgb(62.69989%, 12.5%, 94.099426%)" fill-opacity="1" d="M 37.410156 85.21875 L 57.363281 105.171875 L 37.410156 125.125 L 17.457031 105.171875 Z M 37.410156 85.21875 "/>
<path fill-rule="evenodd" fill="rgb(62.69989%, 12.5%, 94.099426%)" fill-opacity="1" d="M 37.410156 117.144531 L 57.363281 137.097656 L 37.410156 157.050781 L 17.457031 137.097656 Z M 37.410156 117.144531 "/>
<path fill-rule="evenodd" fill="rgb(62.69989%, 12.5%, 94.099426%)" fill-opacity="1" d="M 37.410156 149.070312 L 57.363281 169.023438 L 37.410156 188.976562 L 17.457031 169.023438 Z M 37.410156 149.070312 "/>
<path fill-rule="evenodd" fill="rgb(62.69989%, 12.5%, 94.099426%)" fill-opacity="1" d="M 37.410156 21.371094 L 57.363281 41.324219 L 37.410156 61.277344 L 17.457031 41.324219 Z M 37.410156 21.371094 "/>
<path fill-rule="evenodd" fill="rgb(62.69989%, 12.5%, 94.099426%)" fill-opacity="1" d="M 37.410156 53.296875 L 57.363281 73.25 L 37.410156 93.203125 L 17.457031 73.25 Z M 37.410156 53.296875 "/>
<path fill="none" stroke-width="1.2" stroke-linecap="butt" stroke-linejoin="round" stroke="rgb(62.69989%, 12.5%, 94.099426%)" stroke-opacity="1" stroke-miterlimit="10" d="M 39.998649 68.001876 L 59.998972 48.001553 L 39.998649 28.001229 L 19.998325 48.001553 Z M 39.998649 68.001876 " transform="matrix(0.99764, 0, 0, -0.99764, -2.4941, 344.607025)"/>
<path fill-rule="evenodd" fill="rgb(62.69989%, 12.5%, 94.099426%)" fill-opacity="1" d="M 37.410156 276.765625 L 57.363281 296.71875 L 37.410156 316.671875 L 17.457031 296.71875 Z M 37.410156 276.765625 "/>
<path fill="none" stroke-width="2" stroke-linecap="butt" stroke-linejoin="round" stroke="rgb(62.69989%, 12.5%, 94.099426%)" stroke-opacity="1" stroke-miterlimit="10" d="M 44.00028 304.000211 C 44.00028 315.045808 35.045554 324.000534 23.999956 324.000534 C 12.954359 324.000534 3.999633 315.045808 3.999633 304.000211 C 3.999633 292.954613 12.954359 283.999887 23.999956 283.999887 C 35.045554 283.999887 44.00028 292.954613 44.00028 304.000211 " transform="matrix(0.99764, 0, 0, -0.99764, -2.4941, 344.607025)"/>
<path fill="none" stroke-width="2" stroke-linecap="butt" stroke-linejoin="round" stroke="rgb(62.69989%, 12.5%, 94.099426%)" stroke-opacity="1" stroke-miterlimit="10" d="M 76.00158 304.000211 C 76.00158 315.045808 67.046854 324.000534 56.001257 324.000534 C 44.955659 324.000534 36.000933 315.045808 36.000933 304.000211 C 36.000933 292.954613 44.955659 283.999887 56.001257 283.999887 C 67.046854 283.999887 76.00158 292.954613 76.00158 304.000211 " transform="matrix(0.99764, 0, 0, -0.99764, -2.4941, 344.607025)"/>
<path fill="none" stroke-width="2" stroke-linecap="butt" stroke-linejoin="round" stroke="rgb(62.69989%, 12.5%, 94.099426%)" stroke-opacity="1" stroke-miterlimit="10" d="M 107.998965 304.000211 C 107.998965 315.045808 99.044239 324.000534 87.998642 324.000534 C 76.953044 324.000534 67.998318 315.045808 67.998318 304.000211 C 67.998318 292.954613 76.953044 283.999887 87.998642 283.999887 C 99.044239 283.999887 107.998965 292.954613 107.998965 304.000211 " transform="matrix(0.99764, 0, 0, -0.99764, -2.4941, 344.607025)"/>
<path fill="none" stroke-width="2" stroke-linecap="butt" stroke-linejoin="round" stroke="rgb(62.69989%, 12.5%, 94.099426%)" stroke-opacity="1" stroke-miterlimit="10" d="M 140.000266 304.000211 C 140.000266 315.045808 131.04554 324.000534 119.999942 324.000534 C 108.954345 324.000534 99.999619 315.045808 99.999619 304.000211 C 99.999619 292.954613 108.954345 283.999887 119.999942 283.999887 C 131.04554 283.999887 140.000266 292.954613 140.000266 304.000211 " transform="matrix(0.99764, 0, 0, -0.99764, -2.4941, 344.607025)"/>
<path fill="none" stroke-width="2" stroke-linecap="butt" stroke-linejoin="round" stroke="rgb(62.69989%, 12.5%, 94.099426%)" stroke-opacity="1" stroke-miterlimit="10" d="M 172.001566 304.000211 C 172.001566 315.045808 163.04684 324.000534 152.001243 324.000534 C 140.955645 324.000534 132.000919 315.045808 132.000919 304.000211 C 132.000919 292.954613 140.955645 283.999887 152.001243 283.999887 C 163.04684 283.999887 172.001566 292.954613 172.001566 304.000211 " transform="matrix(0.99764, 0, 0, -0.99764, -2.4941, 344.607025)"/>
<path fill="none" stroke-width="2" stroke-linecap="butt" stroke-linejoin="round" stroke="rgb(62.69989%, 12.5%, 94.099426%)" stroke-opacity="1" stroke-miterlimit="10" d="M 203.998951 304.000211 C 203.998951 315.045808 195.044225 324.000534 183.998628 324.000534 C 172.95303 324.000534 163.998304 315.045808 163.998304 304.000211 C 163.998304 292.954613 172.95303 283.999887 183.998628 283.999887 C 195.044225 283.999887 203.998951 292.954613 203.998951 304.000211 " transform="matrix(0.99764, 0, 0, -0.99764, -2.4941, 344.607025)"/>
<path fill="none" stroke-width="2" stroke-linecap="butt" stroke-linejoin="round" stroke="rgb(62.69989%, 12.5%, 94.099426%)" stroke-opacity="1" stroke-miterlimit="10" d="M 236.395716 304.000211 C 236.395716 315.265076 227.264793 324.395999 215.999928 324.395999 C 204.735063 324.395999 195.60414 315.265076 195.60414 304.000211 C 195.60414 292.735346 204.735063 283.604423 215.999928 283.604423 C 227.264793 283.604423 236.395716 292.735346 236.395716 304.000211 " transform="matrix(0.99764, 0, 0, -0.99764, -2.4941, 344.607025)"/>
<path fill="none" stroke-width="2" stroke-linecap="butt" stroke-linejoin="round" stroke="rgb(62.69989%, 12.5%, 94.099426%)" stroke-opacity="1" stroke-miterlimit="10" d="M 268.001552 304.000211 C 268.001552 315.045808 259.046826 324.000534 248.001229 324.000534 C 236.955631 324.000534 228.000906 315.045808 228.000906 304.000211 C 228.000906 292.954613 236.955631 283.999887 248.001229 283.999887 C 259.046826 283.999887 268.001552 292.954613 268.001552 304.000211 " transform="matrix(0.99764, 0, 0, -0.99764, -2.4941, 344.607025)"/>
<path fill="none" stroke-width="2" stroke-linecap="butt" stroke-linejoin="round" stroke="rgb(62.69989%, 12.5%, 94.099426%)" stroke-opacity="1" stroke-miterlimit="10" d="M 299.998937 304.000211 C 299.998937 315.045808 291.044212 324.000534 279.998614 324.000534 C 268.953016 324.000534 259.998291 315.045808 259.998291 304.000211 C 259.998291 292.954613 268.953016 283.999887 279.998614 283.999887 C 291.044212 283.999887 299.998937 292.954613 299.998937 304.000211 " transform="matrix(0.99764, 0, 0, -0.99764, -2.4941, 344.607025)"/>
<path fill="none" stroke-width="2" stroke-linecap="butt" stroke-linejoin="round" stroke="rgb(62.69989%, 12.5%, 94.099426%)" stroke-opacity="1" stroke-miterlimit="10" d="M 332.000238 304.000211 C 332.000238 315.045808 323.045512 324.000534 311.999915 324.000534 C 300.954317 324.000534 291.999591 315.045808 291.999591 304.000211 C 291.999591 292.954613 300.954317 283.999887 311.999915 283.999887 C 323.045512 283.999887 332.000238 292.954613 332.000238 304.000211 " transform="matrix(0.99764, 0, 0, -0.99764, -2.4941, 344.607025)"/>
<path fill-rule="evenodd" fill="rgb(62.69989%, 12.5%, 94.099426%)" fill-opacity="1" d="M 41.402344 41.324219 C 41.402344 30.304688 32.46875 21.371094 21.449219 21.371094 C 10.429688 21.371094 1.496094 30.304688 1.496094 41.324219 C 1.496094 52.34375 10.429688 61.277344 21.449219 61.277344 C 32.46875 61.277344 41.402344 52.34375 41.402344 41.324219 "/>
<path fill-rule="evenodd" fill="rgb(62.69989%, 12.5%, 94.099426%)" fill-opacity="1" d="M 73.328125 41.324219 C 73.328125 30.304688 64.394531 21.371094 53.375 21.371094 C 42.355469 21.371094 33.421875 30.304688 33.421875 41.324219 C 33.421875 52.34375 42.355469 61.277344 53.375 61.277344 C 64.394531 61.277344 73.328125 52.34375 73.328125 41.324219 "/>
<path fill-rule="evenodd" fill="rgb(62.69989%, 12.5%, 94.099426%)" fill-opacity="1" d="M 105.25 41.324219 C 105.25 30.304688 96.316406 21.371094 85.296875 21.371094 C 74.277344 21.371094 65.34375 30.304688 65.34375 41.324219 C 65.34375 52.34375 74.277344 61.277344 85.296875 61.277344 C 96.316406 61.277344 105.25 52.34375 105.25 41.324219 "/>
<path fill-rule="evenodd" fill="rgb(62.69989%, 12.5%, 94.099426%)" fill-opacity="1" d="M 137.175781 41.324219 C 137.175781 30.304688 128.242188 21.371094 117.222656 21.371094 C 106.203125 21.371094 97.269531 30.304688 97.269531 41.324219 C 97.269531 52.34375 106.203125 61.277344 117.222656 61.277344 C 128.242188 61.277344 137.175781 52.34375 137.175781 41.324219 "/>
<path fill-rule="evenodd" fill="rgb(62.69989%, 12.5%, 94.099426%)" fill-opacity="1" d="M 169.101562 41.324219 C 169.101562 30.304688 160.167969 21.371094 149.148438 21.371094 C 138.128906 21.371094 129.195312 30.304688 129.195312 41.324219 C 129.195312 52.34375 138.128906 61.277344 149.148438 61.277344 C 160.167969 61.277344 169.101562 52.34375 169.101562 41.324219 "/>
<path fill-rule="evenodd" fill="rgb(62.69989%, 12.5%, 94.099426%)" fill-opacity="1" d="M 201.023438 41.324219 C 201.023438 30.304688 192.089844 21.371094 181.070312 21.371094 C 170.050781 21.371094 161.117188 30.304688 161.117188 41.324219 C 161.117188 52.34375 170.050781 61.277344 181.070312 61.277344 C 192.089844 61.277344 201.023438 52.34375 201.023438 41.324219 "/>
<path fill-rule="evenodd" fill="rgb(62.69989%, 12.5%, 94.099426%)" fill-opacity="1" d="M 233.34375 41.324219 C 233.34375 30.085938 224.234375 20.976562 212.996094 20.976562 C 201.757812 20.976562 192.648438 30.085938 192.648438 41.324219 C 192.648438 52.5625 201.757812 61.671875 212.996094 61.671875 C 224.234375 61.671875 233.34375 52.5625 233.34375 41.324219 "/>
<path fill-rule="evenodd" fill="rgb(62.69989%, 12.5%, 94.099426%)" fill-opacity="1" d="M 264.875 41.324219 C 264.875 30.304688 255.941406 21.371094 244.921875 21.371094 C 233.902344 21.371094 224.96875 30.304688 224.96875 41.324219 C 224.96875 52.34375 233.902344 61.277344 244.921875 61.277344 C 255.941406 61.277344 264.875 52.34375 264.875 41.324219 "/>
<path fill-rule="evenodd" fill="rgb(62.69989%, 12.5%, 94.099426%)" fill-opacity="1" d="M 296.796875 41.324219 C 296.796875 30.304688 287.863281 21.371094 276.84375 21.371094 C 265.824219 21.371094 256.890625 30.304688 256.890625 41.324219 C 256.890625 52.34375 265.824219 61.277344 276.84375 61.277344 C 287.863281 61.277344 296.796875 52.34375 296.796875 41.324219 "/>
<path fill-rule="evenodd" fill="rgb(62.69989%, 12.5%, 94.099426%)" fill-opacity="1" d="M 328.722656 41.324219 C 328.722656 30.304688 319.789062 21.371094 308.769531 21.371094 C 297.75 21.371094 288.816406 30.304688 288.816406 41.324219 C 288.816406 52.34375 297.75 61.277344 308.769531 61.277344 C 319.789062 61.277344 328.722656 52.34375 328.722656 41.324219 "/>
</svg>
