<?xml version="1.0" encoding="UTF-8"?>
<svg xmlns="http://www.w3.org/2000/svg" xmlns:xlink="http://www.w3.org/1999/xlink" width="338.2" height="338.5216" viewBox="0 0 338.2 338.5216">
<path fill="none" stroke-width="2" stroke-linecap="butt" stroke-linejoin="round" stroke="rgb(100%, 0%, 0%)" stroke-opacity="1" stroke-miterlimit="10" d="M 44.00028 240.001525 C 44.00028 251.047123 35.045554 260.001848 23.999956 260.001848 C 12.954359 260.001848 3.999633 251.047123 3.999633 240.001525 C 3.999633 228.955928 12.954359 220.001202 23.999956 220.001202 C 35.045554 220.001202 44.00028 228.955928 44.00028 240.001525 " transform="matrix(0.99764, 0, 0, -0.99764, -2.4941, 344.607025)"/>
<path fill="none" stroke-width="2" stroke-linecap="butt" stroke-linejoin="round" stroke="rgb(100%, 0%, 0%)" stroke-opacity="1" stroke-miterlimit="10" d="M 76.00158 240.001525 C 76.00158 251.047123 67.046854 260.001848 56.001257 260.001848 C 44.955659 260.001848 36.000933 251.047123 36.000933 240.001525 C 36.000933 228.955928 44.955659 220.001202 56.001257 220.001202 C 67.046854 220.001202 76.00158 228.955928 76.00158 240.001525 " transform="matrix(0.99764, 0, 0, -0.99764, -2.4941, 344.607025)"/>
<path fill="none" stroke-width="2" stroke-linecap="butt" stroke-linejoin="round" stroke="rgb(100%, 0%, 0%)" stroke-opacity="1" stroke-miterlimit="10" d="M 107.998965 240.001525 C 107.998965 251.047123 99.044239 260.001848 87.998642 260.001848 C 76.953044 260.001848 67.998318 251.047123 67.998318 240.001525 C 67.998318 228.955928 76.953044 220.001202 87.998642 220.001202 C 99.044239 220.001202 107.998965 228.955928 107.998965 240.001525 " transform="matrix(0.99764, 0, 0, -0.99764, -2.4941, 344.607025)"/>
<path fill="none" stroke-width="2" stroke-linecap="butt" stroke-linejoin="round" stroke="rgb(100%, 0%, 0%)" stroke-opacity="1" stroke-miterlimit="10" d="M 140.000266 240.001525 C 140.000266 251.047123 131.04554 260.001848 119.999942 260.001848 C 108.954345 260.001848 99.999619 251.047123 99.999619 240.001525 C 99.999619 228.955928 108.954345 220.001202 119.999942 220.001202 C 131.04554 220.001202 140.000266 228.955928 140.000266 240.001525 " transform="matrix(0.99764, 0, 0, -0.99764, -2.4941, 344.607025)"/>
<path fill="none" stroke-width="2" stroke-linecap="butt" stroke-linejoin="round" stroke="rgb(100%, 0%, 0%)" stroke-opacity="1" stroke-miterlimit="10" d="M 172.001566 240.001525 C 172.001566 251.047123 163.04684 260.001848 152.001243 260.001848 C 140.955645 260.001848 132.000919 251.047123 132.000919 240.001525 C 132.000919 228.955928 140.955645 220.001202 152.001243 220.001202 C 163.04684 220.001202 172.001566 228.955928 172.001566 240.001525 " transform="matrix(0.99764, 0, 0, -0.99764, -2.4941, 344.607025)"/>
<path fill="none" stroke-width="2" stroke-linecap="butt" stroke-linejoin="round" stroke="rgb(100%, 0%, 0%)" stroke-opacity="1" stroke-miterlimit="10" d="M 203.998951 240.001525 C 203.998951 251.047123 195.044225 260.001848 183.998628 260.001848 C 172.95303 260.001848 163.998304 251.047123 163.998304 240.001525 C 163.998304 228.955928 172.95303 220.001202 183.998628 220.001202 C 195.044225 220.001202 203.998951 228.955928 203.998951 240.001525 " transform="matrix(0.99764, 0, 0, -0.99764, -2.4941, 344.607025)"/>
<path fill="none" stroke-width="2" stroke-linecap="butt" stroke-linejoin="round" stroke="rgb(100%, 0%, 0%)" stroke-opacity="1" stroke-miterlimit="10" d="M 236.395716 240.001525 C 236.395716 251.262475 227.264793 260.397313 215.999928 260.397313 C 204.735063 260.397313 195.60414 251.262475 195.60414 240.001525 C 195.60414 228.73666 204.735063 219.605737 215.999928 219.605737 C 227.264793 219.605737 236.395716 228.73666 236.395716 240.001525 " transform="matrix(0.99764, 0, 0, -0.99764, -2.4941, 344.607025)"/>
<path fill="none" stroke-width="2" stroke-linecap="butt" stroke-linejoin="round" stroke="rgb(100%, 0%, 0%)" stroke-opacity="1" stroke-miterlimit="10" d="M 268.001552 240.001525 C 268.001552 251.047123 259.046826 260.001848 248.001229 260.001848 C 236.955631 260.001848 228.000906 251.047123 228.000906 240.001525 C 228.000906 228.955928 236.955631 220.001202 248.001229 220.001202 C 259.046826 220.001202 268.001552 228.955928 268.001552 240.001525 " transform="matrix(0.99764, 0, 0, -0.99764, -2.4941, 344.607025)"/>
<path fill="none" stroke-width="2" stroke-linecap="butt" stroke-linejoin="round" stroke="rgb(100%, 0%, 0%)" stroke-opacity="1" stroke-miterlimit="10" d="M 299.998937 240.001525 C 299.998937 251.047123 291.044212 260.001848 279.998614 260.001848 C 268.953016 260.001848 259.998291 251.047123 259.998291 240.001525 C 259.998291 228.955928 268.953016 220.001202 279.998614 220.001202 C 291.044212 220.001202 299.998937 228.955928 299.998937 240.001525 " transform="matrix(0.99764, 0, 0, -0.99764, -2.4941, 344.607025)"/>
<path fill="none" stroke-width="2" stroke-linecap="butt" stroke-linejoin="round" stroke="rgb(100%, 0%, 0%)" stroke-opacity="1" stroke-miterlimit="10" d="M 332.000238 240.001525 C 332.000238 251.047123 323.045512 260.001848 311.999915 260.001848 C 300.954317 260.001848 291.999591 251.047123 291.999591 240.001525 C 291.999591 228.955928 300.954317 220.001202 311.999915 220.001202 C 323.045512 220.001202 332.000238 228.955928 332.000238 240.001525 " transform="matrix(0.99764, 0, 0, -0.99764, -2.4941, 344.607025)"/>
<path fill-rule="evenodd" fill="rgb(100%, 0%, 0%)" fill-opacity="0.1" d="M 41.402344 105.171875 C 41.402344 94.152344 32.46875 85.21875 21.449219 85.21875 C 10.429688 85.21875 1.496094 94.152344 1.496094 105.171875 C 1.496094 116.191406 10.429688 125.125 21.449219 125.125 C 32.46875 125.125 41.402344 116.191406 41.402344 105.171875 "/>
<path fill-rule="evenodd" fill="rgb(100%, 0%, 0%)" fill-opacity="0.1" d="M 73.328125 105.171875 C 73.328125 94.152344 64.394531 85.21875 53.375 85.21875 C 42.355469 85.21875 33.421875 94.152344 33.421875 105.171875 C 33.421875 116.191406 42.355469 125.125 53.375 125.125 C 64.394531 125.125 73.328125 116.191406 73.328125 105.171875 "/>
<path fill-rule="evenodd" fill="rgb(100%, 0%, 0%)" fill-opacity="0.1" d="M 105.25 105.171875 C 105.25 94.152344 96.316406 85.21875 85.296875 85.21875 C 74.277344 85.21875 65.34375 94.152344 65.34375 105.171875 C 65.34375 116.191406 74.277344 125.125 85.296875 125.125 C 96.316406 125.125 105.25 116.191406 105.25 105.171875 "/>
<path fill-rule="evenodd" fill="rgb(100%, 0%, 0%)" fill-opacity="0.1" d="M 137.175781 105.171875 C 137.175781 94.152344 128.242188 85.21875 117.222656 85.21875 C 106.203125 85.21875 97.269531 94.152344 97.269531 105.171875 C 97.269531 116.191406 106.203125 125.125 117.222656 125.125 C 128.242188 125.125 137.175781 116.191406 137.175781 105.171875 "/>
<path fill-rule="evenodd" fill="rgb(100%, 0%, 0%)" fill-opacity="0.1" d="M 169.101562 105.171875 C 169.101562 94.152344 160.167969 85.21875 149.148438 85.21875 C 138.128906 85.21875 129.195312 94.152344 129.195312 105.171875 C 129.195312 116.191406 138.128906 125.125 149.148438 125.125 C 160.167969 125.125 169.101562 116.191406 169.101562 105.171875 "/>
<path fill-rule="evenodd" fill="rgb(100%, 0%, 0%)" fill-opacity="0.1" d="M 201.023438 105.171875 C 201.023438 94.152344 192.089844 85.21875 181.070312 85.21875 C 170.050781 85.21875 161.117188 94.152344 161.117188 105.171875 C 161.117188 116.191406 170.050781 125.125 181.070312 125.125 C 192.089844 125.125 201.023438 116.191406 201.023438 105.171875 "/>
<path fill-rule="evenodd" fill="rgb(100%, 0%, 0%)" fill-opacity="0.1" d="M 233.34375 105.171875 C 233.34375 93.9375 224.234375 84.824219 212.996094 84.824219 C 201.757812 84.824219 192.648438 93.9375 192.648438 105.171875 C 192.648438 116.410156 201.757812 125.519531 212.996094 125.519531 C 224.234375 125.519531 233.34375 116.410156 233.34375 105.171875 "/>
<path fill-rule="evenodd" fill="rgb(100%, 0%, 0%)" fill-opacity="0.1" d="M 264.875 105.171875 C 264.875 94.152344 255.941406 85.21875 244.921875 85.21875 C 233.902344 85.21875 224.96875 94.152344 224.96875 105.171875 C 224.96875 116.191406 233.902344 125.125 244.921875 125.125 C 255.941406 125.125 264.875 116.191406 264.875 105.171875 "/>
<path fill-rule="evenodd" fill="rgb(100%, 0%, 0%)" fill-opacity="0.1" d="M 296.796875 105.171875 C 296.796875 94.152344 287.863281 85.21875 276.84375 85.21875 C 265.824219 85.21875 256.890625 94.152344 256.890625 105.171875 C 256.890625 116.191406 265.824219 125.125 276.84375 125.125 C 287.863281 125.125 296.796875 116.191406 296.796875 105.171875 "/>
<path fill-rule="evenodd" fill="rgb(100%, 0%, 0%)" fill-opacity="0.1" d="M 328.722656 105.171875 C 328.722656 94.152344 319.789062 85.21875 308.769531 85.21875 C 297.75 85.21875 288.816406 94.152344 288.816406 105.171875 C 288.816406 116.191406 297.75 125.125 308.769531 125.125 C 319.789062 125.125 328.722656 116.191406 328.722656 105.171875 "/>
<path fill="none" stroke-width="1.2" stroke-linecap="butt" stroke-linejoin="round" stroke="rgb(100%, 0%, 0%)" stroke-opacity="1" stroke-miterlimit="10" d="M 104.00125 164.001862 L 124.001573 144.001539 L 104.00125 124.001216 L 84.000926 144.001539 Z M 104.00125 164.001862 " transform="matrix(0.99764, 0, 0, -0.99764, -2.4941, 344.607025)"/>
<path fill="none" stroke-width="1.2" stroke-linecap="butt" stroke-linejoin="round" stroke="rgb(100%, 0%, 0%)" stroke-opacity="1" stroke-miterlimit="10" d="M 104.00125 132.000562 L 124.001573 112.000238 L 104.00125 91.999915 L 84.000926 112.000238 Z M 104.00125 132.000562 " transform="matrix(0.99764, 0, 0, -0.99764, -2.4941, 344.607025)"/>
<path fill="none" stroke-width="1.2" stroke-linecap="butt" stroke-linejoin="round" stroke="rgb(100%, 0%, 0%)" stroke-opacity="1" stroke-miterlimit="10" d="M 104.00125 99.999261 L 124.001573 79.998938 L 104.00125 59.998614 L 84.000926 79.998938 Z M 104.00125 99.999261 " transform="matrix(0.99764, 0, 0, -0.99764, -2.4941, 344.607025)"/>
<path fill="none" stroke-width="1.2" stroke-linecap="butt" stroke-linejoin="round" stroke="rgb(100%, 0%, 0%)" stroke-opacity="1" stroke-miterlimit="10" d="M 104.00125 260.001848 L 124.001573 240.001525 L 104.00125 220.001202 L 84.000926 240.001525 Z M 104.00125 260.001848 " transform="matrix(0.99764, 0, 0, -0.99764, -2.4941, 344.607025)"/>
<path fill="none" stroke-width="1.2" stroke-linecap="butt" stroke-linejoin="round" stroke="rgb(100%, 0%, 0%)" stroke-opacity="1" stroke-miterlimit="10" d="M 104.00125 228.000548 L 124.001573 208.000225 L 104.00125 187.999901 L 84.000926 208.000225 Z M 104.00125 228.000548 " transform="matrix(0.99764, 0, 0, -0.99764, -2.4941, 344.607025)"/>
<path fill="none" stroke-width="1.2" stroke-linecap="butt" stroke-linejoin="round" stroke="rgb(100%, 0%, 0%)" stroke-opacity="1" stroke-miterlimit="10" d="M 104.00125 195.999247 L 124.001573 175.998924 L 104.00125 155.998601 L 84.000926 175.998924 Z M 104.00125 195.999247 " transform="matrix(0.99764, 0, 0, -0.99764, -2.4941, 344.607025)"/>
<path fill="none" stroke-width="1.2" stroke-linecap="butt" stroke-linejoin="round" stroke="rgb(100%, 0%, 0%)" stroke-opacity="1" stroke-miterlimit="10" d="M 104.00125 324.000534 L 124.001573 304.000211 L 104.00125 283.999887 L 84.000926 304.000211 Z M 104.00125 324.000534 " transform="matrix(0.99764, 0, 0, -0.99764, -2.4941, 344.607025)"/>
<path fill="none" stroke-width="1.2" stroke-linecap="butt" stroke-linejoin="round" stroke="rgb(100%, 0%, 0%)" stroke-opacity="1" stroke-miterlimit="10" d="M 104.00125 291.999234 L 124.001573 271.99891 L 104.00125 251.998587 L 84.000926 271.99891 Z M 104.00125 291.999234 " transform="matrix(0.99764, 0, 0, -0.99764, -2.4941, 344.607025)"/>
<path fill-rule="evenodd" fill="rgb(100%, 0%, 0%)" fill-opacity="0.2" d="M 101.261719 180.992188 L 121.214844 200.945312 L 101.261719 220.898438 L 81.308594 200.945312 Z M 101.261719 180.992188 "/>
<path fill-rule="evenodd" fill="rgb(100%, 0%, 0%)" fill-opacity="0.2" d="M 101.261719 212.917969 L 121.214844 232.871094 L 101.261719 252.824219 L 81.308594 232.871094 Z M 101.261719 212.917969 "/>
<path fill-rule="evenodd" fill="rgb(100%, 0%, 0%)" fill-opacity="0.2" d="M 101.261719 244.84375 L 121.214844 264.796875 L 101.261719 284.75 L 81.308594 264.796875 Z M 101.261719 244.84375 "/>
<path fill-rule="evenodd" fill="rgb(100%, 0%, 0%)" fill-opacity="0.2" d="M 101.261719 85.21875 L 121.214844 105.171875 L 101.261719 125.125 L 81.308594 105.171875 Z M 101.261719 85.21875 "/>
<path fill-rule="evenodd" fill="rgb(100%, 0%, 0%)" fill-opacity="0.2" d="M 101.261719 117.144531 L 121.214844 137.097656 L 101.261719 157.050781 L 81.308594 137.097656 Z M 101.261719 117.144531 "/>
<path fill-rule="evenodd" fill="rgb(100%, 0%, 0%)" fill-opacity="0.2" d="M 101.261719 149.070312 L 121.214844 169.023438 L 101.261719 188.976562 L 81.308594 169.023438 Z M 101.261719 149.070312 "/>
<path fill-rule="evenodd" fill="rgb(100%, 0%, 0%)" fill-opacity="0.2" d="M 101.261719 21.371094 L 121.214844 41.324219 L 101.261719 61.277344 L 81.308594 41.324219 Z M 101.261719 21.371094 "/>
<path fill-rule="evenodd" fill="rgb(100%, 0%, 0%)" fill-opacity="0.2" d="M 101.261719 53.296875 L 121.214844 73.25 L 101.261719 93.203125 L 81.308594 73.25 Z M 101.261719 53.296875 "/>
<path fill="none" stroke-width="1.2" stroke-linecap="butt" stroke-linejoin="round" stroke="rgb(100%, 0%, 0%)" stroke-opacity="1" stroke-miterlimit="10" d="M 104.00125 68.001876 L 124.001573 48.001553 L 104.00125 28.001229 L 84.000926 48.001553 Z M 104.00125 68.001876 " transform="matrix(0.99764, 0, 0, -0.99764, -2.4941, 344.607025)"/>
<path fill-rule="evenodd" fill="rgb(100%, 0%, 0%)" fill-opacity="0.2" d="M 101.261719 276.765625 L 121.214844 296.71875 L 101.261719 316.671875 L 81.308594 296.71875 Z M 101.261719 276.765625 "/>
</svg>
