<?xml version="1.0" encoding="UTF-8"?>
<svg xmlns="http://www.w3.org/2000/svg" xmlns:xlink="http://www.w3.org/1999/xlink" width="338.2" height="338.5216" viewBox="0 0 338.2 338.5216">
<path fill="none" stroke-width="2" stroke-linecap="butt" stroke-linejoin="round" stroke="rgb(0%, 39.199829%, 0%)" stroke-opacity="1" stroke-miterlimit="10" d="M 44.00028 175.998924 C 44.00028 187.044522 35.045554 195.999247 23.999956 195.999247 C 12.954359 195.999247 3.999633 187.044522 3.999633 175.998924 C 3.999633 164.953326 12.954359 155.998601 23.999956 155.998601 C 35.045554 155.998601 44.00028 164.953326 44.00028 175.998924 " transform="matrix(0.99764, 0, 0, -0.99764, -2.4941, 344.607025)"/>
<path fill="none" stroke-width="2" stroke-linecap="butt" stroke-linejoin="round" stroke="rgb(0%, 39.199829%, 0%)" stroke-opacity="1" stroke-miterlimit="10" d="M 76.00158 175.998924 C 76.00158 187.044522 67.046854 195.999247 56.001257 195.999247 C 44.955659 195.999247 36.000933 187.044522 36.000933 175.998924 C 36.000933 164.953326 44.955659 155.998601 56.001257 155.998601 C 67.046854 155.998601 76.00158 164.953326 76.00158 175.998924 " transform="matrix(0.99764, 0, 0, -0.99764, -2.4941, 344.607025)"/>
<path fill="none" stroke-width="2" stroke-linecap="butt" stroke-linejoin="round" stroke="rgb(0%, 39.199829%, 0%)" stroke-opacity="1" stroke-miterlimit="10" d="M 107.998965 175.998924 C 107.998965 187.044522 99.044239 195.999247 87.998642 195.999247 C 76.953044 195.999247 67.998318 187.044522 67.998318 175.998924 C 67.998318 164.953326 76.953044 155.998601 87.998642 155.998601 C 99.044239 155.998601 107.998965 164.953326 107.998965 175.998924 " transform="matrix(0.99764, 0, 0, -0.99764, -2.4941, 344.607025)"/>
<path fill="none" stroke-width="2" stroke-linecap="butt" stroke-linejoin="round" stroke="rgb(0%, 39.199829%, 0%)" stroke-opacity="1" stroke-miterlimit="10" d="M 140.000266 175.998924 C 140.000266 187.044522 131.04554 195.999247 119.999942 195.999247 C 108.954345 195.999247 99.999619 187.044522 99.999619 175.998924 C 99.999619 164.953326 108.954345 155.998601 119.999942 155.998601 C 131.04554 155.998601 140.000266 164.953326 140.000266 175.998924 " transform="matrix(0.99764, 0, 0, -0.99764, -2.4941, 344.607025)"/>
<path fill="none" stroke-width="2" stroke-linecap="butt" stroke-linejoin="round" stroke="rgb(0%, 39.199829%, 0%)" stroke-opacity="1" stroke-miterlimit="10" d="M 172.001566 175.998924 C 172.001566 187.044522 163.04684 195.999247 152.001243 195.999247 C 140.955645 195.999247 132.000919 187.044522 132.000919 175.998924 C 132.000919 164.953326 140.955645 155.998601 152.001243 155.998601 C 163.04684 155.998601 172.001566 164.953326 172.001566 175.998924 " transform="matrix(0.99764, 0, 0, -0.99764, -2.4941, 344.607025)"/>
<path fill="none" stroke-width="2" stroke-linecap="butt" stroke-linejoin="round" stroke="rgb(0%, 39.199829%, 0%)" stroke-opacity="1" stroke-miterlimit="10" d="M 203.998951 175.998924 C 203.998951 187.044522 195.044225 195.999247 183.998628 195.999247 C 172.95303 195.999247 163.998304 187.044522 163.998304 175.998924 C 163.998304 164.953326 172.95303 155.998601 183.998628 155.998601 C 195.044225 155.998601 203.998951 164.953326 203.998951 175.998924 " transform="matrix(0.99764, 0, 0, -0.99764, -2.4941, 344.607025)"/>
<path fill="none" stroke-width="2" stroke-linecap="butt" stroke-linejoin="round" stroke="rgb(0%, 39.199829%, 0%)" stroke-opacity="1" stroke-miterlimit="10" d="M 236.395716 175.998924 C 236.395716 187.263789 227.264793 196.394712 215.999928 196.394712 C 204.735063 196.394712 195.60414 187.263789 195.60414 175.998924 C 195.60414 164.734059 204.735063 155.603136 215.999928 155.603136 C 227.264793 155.603136 236.395716 164.734059 236.395716 175.998924 " transform="matrix(0.99764, 0, 0, -0.99764, -2.4941, 344.607025)"/>
<path fill="none" stroke-width="2" stroke-linecap="butt" stroke-linejoin="round" stroke="rgb(0%, 39.199829%, 0%)" stroke-opacity="1" stroke-miterlimit="10" d="M 268.001552 175.998924 C 268.001552 187.044522 259.046826 195.999247 248.001229 195.999247 C 236.955631 195.999247 228.000906 187.044522 228.000906 175.998924 C 228.000906 164.953326 236.955631 155.998601 248.001229 155.998601 C 259.046826 155.998601 268.001552 164.953326 268.001552 175.998924 " transform="matrix(0.99764, 0, 0, -0.99764, -2.4941, 344.607025)"/>
<path fill="none" stroke-width="2" stroke-linecap="butt" stroke-linejoin="round" stroke="rgb(0%, 39.199829%, 0%)" stroke-opacity="1" stroke-miterlimit="10" d="M 299.998937 175.998924 C 299.998937 187.044522 291.044212 195.999247 279.998614 195.999247 C 268.953016 195.999247 259.998291 187.044522 259.998291 175.998924 C 259.998291 164.953326 268.953016 155.998601 279.998614 155.998601 C 291.044212 155.998601 299.998937 164.953326 299.998937 175.998924 " transform="matrix(0.99764, 0, 0, -0.99764, -2.4941, 344.607025)"/>
<path fill="none" stroke-width="2" stroke-linecap="butt" stroke-linejoin="round" stroke="rgb(0%, 39.199829%, 0%)" stroke-opacity="1" stroke-miterlimit="10" d="M 332.000238 175.998924 C 332.000238 187.044522 323.045512 195.999247 311.999915 195.999247 C 300.954317 195.999247 291.999591 187.044522 291.999591 175.998924 C 291.999591 164.953326 300.954317 155.998601 311.999915 155.998601 C 323.045512 155.998601 332.000238 164.953326 332.000238 175.998924 " transform="matrix(0.99764, 0, 0, -0.99764, -2.4941, 344.607025)"/>
<path fill-rule="evenodd" fill="rgb(0%, 39.199829%, 0%)" fill-opacity="0.1" d="M 41.402344 169.023438 C 41.402344 158.003906 32.46875 149.070312 21.449219 149.070312 C 10.429688 149.070312 1.496094 158.003906 1.496094 169.023438 C 1.496094 180.042969 10.429688 188.976562 21.449219 188.976562 C 32.46875 188.976562 41.402344 180.042969 41.402344 169.023438 "/>
<path fill-rule="evenodd" fill="rgb(0%, 39.199829%, 0%)" fill-opacity="0.1" d="M 73.328125 169.023438 C 73.328125 158.003906 64.394531 149.070312 53.375 149.070312 C 42.355469 149.070312 33.421875 158.003906 33.421875 169.023438 C 33.421875 180.042969 42.355469 188.976562 53.375 188.976562 C 64.394531 188.976562 73.328125 180.042969 73.328125 169.023438 "/>
<path fill-rule="evenodd" fill="rgb(0%, 39.199829%, 0%)" fill-opacity="0.1" d="M 105.25 169.023438 C 105.25 158.003906 96.316406 149.070312 85.296875 149.070312 C 74.277344 149.070312 65.34375 158.003906 65.34375 169.023438 C 65.34375 180.042969 74.277344 188.976562 85.296875 188.976562 C 96.316406 188.976562 105.25 180.042969 105.25 169.023438 "/>
<path fill-rule="evenodd" fill="rgb(0%, 39.199829%, 0%)" fill-opacity="0.1" d="M 137.175781 169.023438 C 137.175781 158.003906 128.242188 149.070312 117.222656 149.070312 C 106.203125 149.070312 97.269531 158.003906 97.269531 169.023438 C 97.269531 180.042969 106.203125 188.976562 117.222656 188.976562 C 128.242188 188.976562 137.175781 180.042969 137.175781 169.023438 "/>
<path fill-rule="evenodd" fill="rgb(0%, 39.199829%, 0%)" fill-opacity="0.1" d="M 169.101562 169.023438 C 169.101562 158.003906 160.167969 149.070312 149.148438 149.070312 C 138.128906 149.070312 129.195312 158.003906 129.195312 169.023438 C 129.195312 180.042969 138.128906 188.976562 149.148438 188.976562 C 160.167969 188.976562 169.101562 180.042969 169.101562 169.023438 "/>
<path fill-rule="evenodd" fill="rgb(0%, 39.199829%, 0%)" fill-opacity="0.1" d="M 201.023438 169.023438 C 201.023438 158.003906 192.089844 149.070312 181.070312 149.070312 C 170.050781 149.070312 161.117188 158.003906 161.117188 169.023438 C 161.117188 180.042969 170.050781 188.976562 181.070312 188.976562 C 192.089844 188.976562 201.023438 180.042969 201.023438 169.023438 "/>
<path fill-rule="evenodd" fill="rgb(0%, 39.199829%, 0%)" fill-opacity="0.1" d="M 233.34375 169.023438 C 233.34375 157.785156 224.234375 148.675781 212.996094 148.675781 C 201.757812 148.675781 192.648438 157.785156 192.648438 169.023438 C 192.648438 180.261719 201.757812 189.371094 212.996094 189.371094 C 224.234375 189.371094 233.34375 180.261719 233.34375 169.023438 "/>
<path fill-rule="evenodd" fill="rgb(0%, 39.199829%, 0%)" fill-opacity="0.1" d="M 264.875 169.023438 C 264.875 158.003906 255.941406 149.070312 244.921875 149.070312 C 233.902344 149.070312 224.96875 158.003906 224.96875 169.023438 C 224.96875 180.042969 233.902344 188.976562 244.921875 188.976562 C 255.941406 188.976562 264.875 180.042969 264.875 169.023438 "/>
<path fill-rule="evenodd" fill="rgb(0%, 39.199829%, 0%)" fill-opacity="0.1" d="M 296.796875 169.023438 C 296.796875 158.003906 287.863281 149.070312 276.84375 149.070312 C 265.824219 149.070312 256.890625 158.003906 256.890625 169.023438 C 256.890625 180.042969 265.824219 188.976562 276.84375 188.976562 C 287.863281 188.976562 296.796875 180.042969 296.796875 169.023438 "/>
<path fill-rule="evenodd" fill="rgb(0%, 39.199829%, 0%)" fill-opacity="0.1" d="M 328.722656 169.023438 C 328.722656 158.003906 319.789062 149.070312 308.769531 149.070312 C 297.75 149.070312 288.816406 158.003906 288.816406 169.023438 C 288.816406 180.042969 297.75 188.976562 308.769531 188.976562 C 319.789062 188.976562 328.722656 180.042969 328.722656 169.023438 "/>
<path fill-rule="evenodd" fill="rgb(0%, 39.199829%, 0%)" fill-opacity="0.2" d="M 165.109375 180.992188 L 185.0625 200.945312 L 165.109375 220.898438 L 145.15625 200.945312 Z M 165.109375 180.992188 "/>
<path fill-rule="evenodd" fill="rgb(0%, 39.199829%, 0%)" fill-opacity="0.2" d="M 165.109375 212.917969 L 185.0625 232.871094 L 165.109375 252.824219 L 145.15625 232.871094 Z M 165.109375 212.917969 "/>
<path fill-rule="evenodd" fill="rgb(0%, 39.199829%, 0%)" fill-opacity="0.2" d="M 165.109375 244.84375 L 185.0625 264.796875 L 165.109375 284.75 L 145.15625 264.796875 Z M 165.109375 244.84375 "/>
<path fill-rule="evenodd" fill="rgb(0%, 39.199829%, 0%)" fill-opacity="0.2" d="M 165.109375 85.21875 L 185.0625 105.171875 L 165.109375 125.125 L 145.15625 105.171875 Z M 165.109375 85.21875 "/>
<path fill-rule="evenodd" fill="rgb(0%, 39.199829%, 0%)" fill-opacity="0.2" d="M 165.109375 117.144531 L 185.0625 137.097656 L 165.109375 157.050781 L 145.15625 137.097656 Z M 165.109375 117.144531 "/>
<path fill-rule="evenodd" fill="rgb(0%, 39.199829%, 0%)" fill-opacity="0.2" d="M 165.109375 149.070312 L 185.0625 169.023438 L 165.109375 188.976562 L 145.15625 169.023438 Z M 165.109375 149.070312 "/>
<path fill-rule="evenodd" fill="rgb(0%, 39.199829%, 0%)" fill-opacity="0.2" d="M 165.109375 21.371094 L 185.0625 41.324219 L 165.109375 61.277344 L 145.15625 41.324219 Z M 165.109375 21.371094 "/>
<path fill-rule="evenodd" fill="rgb(0%, 39.199829%, 0%)" fill-opacity="0.2" d="M 165.109375 53.296875 L 185.0625 73.25 L 165.109375 93.203125 L 145.15625 73.25 Z M 165.109375 53.296875 "/>
<path fill="none" stroke-width="1.2" stroke-linecap="butt" stroke-linejoin="round" stroke="rgb(0%, 39.199829%, 0%)" stroke-opacity="1" stroke-miterlimit="10" d="M 167.999935 164.001862 L 188.000259 144.001539 L 167.999935 124.001216 L 147.999612 144.001539 Z M 167.999935 164.001862 " transform="matrix(0.99764, 0, 0, -0.99764, -2.4941, 344.607025)"/>
<path fill="none" stroke-width="1.2" stroke-linecap="butt" stroke-linejoin="round" stroke="rgb(0%, 39.199829%, 0%)" stroke-opacity="1" stroke-miterlimit="10" d="M 167.999935 132.000562 L 188.000259 112.000238 L 167.999935 91.999915 L 147.999612 112.000238 Z M 167.999935 132.000562 " transform="matrix(0.99764, 0, 0, -0.99764, -2.4941, 344.607025)"/>
<path fill="none" stroke-width="1.2" stroke-linecap="butt" stroke-linejoin="round" stroke="rgb(0%, 39.199829%, 0%)" stroke-opacity="1" stroke-miterlimit="10" d="M 167.999935 99.999261 L 188.000259 79.998938 L 167.999935 59.998614 L 147.999612 79.998938 Z M 167.999935 99.999261 " transform="matrix(0.99764, 0, 0, -0.99764, -2.4941, 344.607025)"/>
<path fill="none" stroke-width="1.2" stroke-linecap="butt" stroke-linejoin="round" stroke="rgb(0%, 39.199829%, 0%)" stroke-opacity="1" stroke-miterlimit="10" d="M 167.999935 260.001848 L 188.000259 240.001525 L 167.999935 220.001202 L 147.999612 240.001525 Z M 167.999935 260.001848 " transform="matrix(0.99764, 0, 0, -0.99764, -2.4941, 344.607025)"/>
<path fill="none" stroke-width="1.2" stroke-linecap="butt" stroke-linejoin="round" stroke="rgb(0%, 39.199829%, 0%)" stroke-opacity="1" stroke-miterlimit="10" d="M 167.999935 228.000548 L 188.000259 208.000225 L 167.999935 187.999901 L 147.999612 208.000225 Z M 167.999935 228.000548 " transform="matrix(0.99764, 0, 0, -0.99764, -2.4941, 344.607025)"/>
<path fill="none" stroke-width="1.2" stroke-linecap="butt" stroke-linejoin="round" stroke="rgb(0%, 39.199829%, 0%)" stroke-opacity="1" stroke-miterlimit="10" d="M 167.999935 195.999247 L 188.000259 175.998924 L 167.999935 155.998601 L 147.999612 175.998924 Z M 167.999935 195.999247 " transform="matrix(0.99764, 0, 0, -0.99764, -2.4941, 344.607025)"/>
<path fill="none" stroke-width="1.2" stroke-linecap="butt" stroke-linejoin="round" stroke="rgb(0%, 39.199829%, 0%)" stroke-opacity="1" stroke-miterlimit="10" d="M 167.999935 324.000534 L 188.000259 304.000211 L 167.999935 283.999887 L 147.999612 304.000211 Z M 167.999935 324.000534 " transform="matrix(0.99764, 0, 0, -0.99764, -2.4941, 344.607025)"/>
<path fill="none" stroke-width="1.2" stroke-linecap="butt" stroke-linejoin="round" stroke="rgb(0%, 39.199829%, 0%)" stroke-opacity="1" stroke-miterlimit="10" d="M 167.999935 291.999234 L 188.000259 271.99891 L 167.999935 251.998587 L 147.999612 271.99891 Z M 167.999935 291.999234 " transform="matrix(0.99764, 0, 0, -0.99764, -2.4941, 344.607025)"/>
<path fill="none" stroke-width="1.2" stroke-linecap="butt" stroke-linejoin="round" stroke="rgb(0%, 39.199829%, 0%)" stroke-opacity="1" stroke-miterlimit="10" d="M 167.999935 68.001876 L 188.000259 48.001553 L 167.999935 28.001229 L 147.999612 48.001553 Z M 167.999935 68.001876 " transform="matrix(0.99764, 0, 0, -0.99764, -2.4941, 344.607025)"/>
<path fill-rule="evenodd" fill="rgb(0%, 39.199829%, 0%)" fill-opacity="0.2" d="M 165.109375 276.765625 L 185.0625 296.71875 L 165.109375 316.671875 L 145.15625 296.71875 Z M 165.109375 276.765625 "/>
</svg>
