<?xml version="1.0" encoding="UTF-8"?>
<svg xmlns="http://www.w3.org/2000/svg" xmlns:xlink="http://www.w3.org/1999/xlink" width="338.2" height="338.5216" viewBox="0 0 338.2 338.5216">
<path fill="none" stroke-width="2" stroke-linecap="butt" stroke-linejoin="round" stroke="rgb(0%, 0%, 54.499817%)" stroke-opacity="1" stroke-miterlimit="10" d="M 44.00028 112.000238 C 44.00028 123.045836 35.045554 132.000562 23.999956 132.000562 C 12.954359 132.000562 3.999633 123.045836 3.999633 112.000238 C 3.999633 100.954641 12.954359 91.999915 23.999956 91.999915 C 35.045554 91.999915 44.00028 100.954641 44.00028 112.000238 " transform="matrix(0.99764, 0, 0, -0.99764, -2.4941, 344.607025)"/>
<path fill="none" stroke-width="2" stroke-linecap="butt" stroke-linejoin="round" stroke="rgb(0%, 0%, 54.499817%)" stroke-opacity="1" stroke-miterlimit="10" d="M 76.00158 112.000238 C 76.00158 123.045836 67.046854 132.000562 56.001257 132.000562 C 44.955659 132.000562 36.000933 123.045836 36.000933 112.000238 C 36.000933 100.954641 44.955659 91.999915 56.001257 91.999915 C 67.046854 91.999915 76.00158 100.954641 76.00158 112.000238 " transform="matrix(0.99764, 0, 0, -0.99764, -2.4941, 344.607025)"/>
<path fill="none" stroke-width="2" stroke-linecap="butt" stroke-linejoin="round" stroke="rgb(0%, 0%, 54.499817%)" stroke-opacity="1" stroke-miterlimit="10" d="M 107.998965 112.000238 C 107.998965 123.045836 99.044239 132.000562 87.998642 132.000562 C 76.953044 132.000562 67.998318 123.045836 67.998318 112.000238 C 67.998318 100.954641 76.953044 91.999915 87.998642 91.999915 C 99.044239 91.999915 107.998965 100.954641 107.998965 112.000238 " transform="matrix(0.99764, 0, 0, -0.99764, -2.4941, 344.607025)"/>
<path fill="none" stroke-width="2" stroke-linecap="butt" stroke-linejoin="round" stroke="rgb(0%, 0%, 54.499817%)" stroke-opacity="1" stroke-miterlimit="10" d="M 140.000266 112.000238 C 140.000266 123.045836 131.04554 132.000562 119.999942 132.000562 C 108.954345 132.000562 99.999619 123.045836 99.999619 112.000238 C 99.999619 100.954641 108.954345 91.999915 119.999942 91.999915 C 131.04554 91.999915 140.000266 100.954641 140.000266 112.000238 " transform="matrix(0.99764, 0, 0, -0.99764, -2.4941, 344.607025)"/>
<path fill="none" stroke-width="2" stroke-linecap="butt" stroke-linejoin="round" stroke="rgb(0%, 0%, 54.499817%)" stroke-opacity="1" stroke-miterlimit="10" d="M 172.001566 112.000238 C 172.001566 123.045836 163.04684 132.000562 152.001243 132.000562 C 140.955645 132.000562 132.000919 123.045836 132.000919 112.000238 C 132.000919 100.954641 140.955645 91.999915 152.001243 91.999915 C 163.04684 91.999915 172.001566 100.954641 172.001566 112.000238 " transform="matrix(0.99764, 0, 0, -0.99764, -2.4941, 344.607025)"/>
<path fill="none" stroke-width="2" stroke-linecap="butt" stroke-linejoin="round" stroke="rgb(0%, 0%, 54.499817%)" stroke-opacity="1" stroke-miterlimit="10" d="M 203.998951 112.000238 C 203.998951 123.045836 195.044225 132.000562 183.998628 132.000562 C 172.95303 132.000562 163.998304 123.045836 163.998304 112.000238 C 163.998304 100.954641 172.95303 91.999915 183.998628 91.999915 C 195.044225 91.999915 203.998951 100.954641 203.998951 112.000238 " transform="matrix(0.99764, 0, 0, -0.99764, -2.4941, 344.607025)"/>
<path fill="none" stroke-width="2" stroke-linecap="butt" stroke-linejoin="round" stroke="rgb(0%, 0%, 54.499817%)" stroke-opacity="1" stroke-miterlimit="10" d="M 236.395716 112.000238 C 236.395716 123.265103 227.264793 132.396026 215.999928 132.396026 C 204.735063 132.396026 195.60414 123.265103 195.60414 112.000238 C 195.60414 100.735373 204.735063 91.60445 215.999928 91.60445 C 227.264793 91.60445 236.395716 100.735373 236.395716 112.000238 " transform="matrix(0.99764, 0, 0, -0.99764, -2.4941, 344.607025)"/>
<path fill="none" stroke-width="2" stroke-linecap="butt" stroke-linejoin="round" stroke="rgb(0%, 0%, 54.499817%)" stroke-opacity="1" stroke-miterlimit="10" d="M 268.001552 112.000238 C 268.001552 123.045836 259.046826 132.000562 248.001229 132.000562 C 236.955631 132.000562 228.000906 123.045836 228.000906 112.000238 C 228.000906 100.954641 236.955631 91.999915 248.001229 91.999915 C 259.046826 91.999915 268.001552 100.954641 268.001552 112.000238 " transform="matrix(0.99764, 0, 0, -0.99764, -2.4941, 344.607025)"/>
<path fill="none" stroke-width="2" stroke-linecap="butt" stroke-linejoin="round" stroke="rgb(0%, 0%, 54.499817%)" stroke-opacity="1" stroke-miterlimit="10" d="M 299.998937 112.000238 C 299.998937 123.045836 291.044212 132.000562 279.998614 132.000562 C 268.953016 132.000562 259.998291 123.045836 259.998291 112.000238 C 259.998291 100.954641 268.953016 91.999915 279.998614 91.999915 C 291.044212 91.999915 299.998937 100.954641 299.998937 112.000238 " transform="matrix(0.99764, 0, 0, -0.99764, -2.4941, 344.607025)"/>
<path fill="none" stroke-width="2" stroke-linecap="butt" stroke-linejoin="round" stroke="rgb(0%, 0%, 54.499817%)" stroke-opacity="1" stroke-miterlimit="10" d="M 332.000238 112.000238 C 332.000238 123.045836 323.045512 132.000562 311.999915 132.000562 C 300.954317 132.000562 291.999591 123.045836 291.999591 112.000238 C 291.999591 100.954641 300.954317 91.999915 311.999915 91.999915 C 323.045512 91.999915 332.000238 100.954641 332.000238 112.000238 " transform="matrix(0.99764, 0, 0, -0.99764, -2.4941, 344.607025)"/>
<path fill-rule="evenodd" fill="rgb(0%, 0%, 54.499817%)" fill-opacity="0.1" d="M 41.402344 232.871094 C 41.402344 221.851562 32.46875 212.917969 21.449219 212.917969 C 10.429688 212.917969 1.496094 221.851562 1.496094 232.871094 C 1.496094 243.890625 10.429688 252.824219 21.449219 252.824219 C 32.46875 252.824219 41.402344 243.890625 41.402344 232.871094 "/>
<path fill-rule="evenodd" fill="rgb(0%, 0%, 54.499817%)" fill-opacity="0.1" d="M 73.328125 232.871094 C 73.328125 221.851562 64.394531 212.917969 53.375 212.917969 C 42.355469 212.917969 33.421875 221.851562 33.421875 232.871094 C 33.421875 243.890625 42.355469 252.824219 53.375 252.824219 C 64.394531 252.824219 73.328125 243.890625 73.328125 232.871094 "/>
<path fill-rule="evenodd" fill="rgb(0%, 0%, 54.499817%)" fill-opacity="0.1" d="M 105.25 232.871094 C 105.25 221.851562 96.316406 212.917969 85.296875 212.917969 C 74.277344 212.917969 65.34375 221.851562 65.34375 232.871094 C 65.34375 243.890625 74.277344 252.824219 85.296875 252.824219 C 96.316406 252.824219 105.25 243.890625 105.25 232.871094 "/>
<path fill-rule="evenodd" fill="rgb(0%, 0%, 54.499817%)" fill-opacity="0.1" d="M 137.175781 232.871094 C 137.175781 221.851562 128.242188 212.917969 117.222656 212.917969 C 106.203125 212.917969 97.269531 221.851562 97.269531 232.871094 C 97.269531 243.890625 106.203125 252.824219 117.222656 252.824219 C 128.242188 252.824219 137.175781 243.890625 137.175781 232.871094 "/>
<path fill-rule="evenodd" fill="rgb(0%, 0%, 54.499817%)" fill-opacity="0.1" d="M 169.101562 232.871094 C 169.101562 221.851562 160.167969 212.917969 149.148438 212.917969 C 138.128906 212.917969 129.195312 221.851562 129.195312 232.871094 C 129.195312 243.890625 138.128906 252.824219 149.148438 252.824219 C 160.167969 252.824219 169.101562 243.890625 169.101562 232.871094 "/>
<path fill-rule="evenodd" fill="rgb(0%, 0%, 54.499817%)" fill-opacity="0.1" d="M 201.023438 232.871094 C 201.023438 221.851562 192.089844 212.917969 181.070312 212.917969 C 170.050781 212.917969 161.117188 221.851562 161.117188 232.871094 C 161.117188 243.890625 170.050781 252.824219 181.070312 252.824219 C 192.089844 252.824219 201.023438 243.890625 201.023438 232.871094 "/>
<path fill-rule="evenodd" fill="rgb(0%, 0%, 54.499817%)" fill-opacity="0.1" d="M 233.34375 232.871094 C 233.34375 221.632812 224.234375 212.523438 212.996094 212.523438 C 201.757812 212.523438 192.648438 221.632812 192.648438 232.871094 C 192.648438 244.109375 201.757812 253.21875 212.996094 253.21875 C 224.234375 253.21875 233.34375 244.109375 233.34375 232.871094 "/>
<path fill-rule="evenodd" fill="rgb(0%, 0%, 54.499817%)" fill-opacity="0.1" d="M 264.875 232.871094 C 264.875 221.851562 255.941406 212.917969 244.921875 212.917969 C 233.902344 212.917969 224.96875 221.851562 224.96875 232.871094 C 224.96875 243.890625 233.902344 252.824219 244.921875 252.824219 C 255.941406 252.824219 264.875 243.890625 264.875 232.871094 "/>
<path fill-rule="evenodd" fill="rgb(0%, 0%, 54.499817%)" fill-opacity="0.1" d="M 296.796875 232.871094 C 296.796875 221.851562 287.863281 212.917969 276.84375 212.917969 C 265.824219 212.917969 256.890625 221.851562 256.890625 232.871094 C 256.890625 243.890625 265.824219 252.824219 276.84375 252.824219 C 287.863281 252.824219 296.796875 243.890625 296.796875 232.871094 "/>
<path fill-rule="evenodd" fill="rgb(0%, 0%, 54.499817%)" fill-opacity="0.1" d="M 328.722656 232.871094 C 328.722656 221.851562 319.789062 212.917969 308.769531 212.917969 C 297.75 212.917969 288.816406 221.851562 288.816406 232.871094 C 288.816406 243.890625 297.75 252.824219 308.769531 252.824219 C 319.789062 252.824219 328.722656 243.890625 328.722656 232.871094 "/>
<path fill-rule="evenodd" fill="rgb(0%, 0%, 54.499817%)" fill-opacity="0.2" d="M 228.957031 180.992188 L 248.910156 200.945312 L 228.957031 220.898438 L 209.003906 200.945312 Z M 228.957031 180.992188 "/>
<path fill-rule="evenodd" fill="rgb(0%, 0%, 54.499817%)" fill-opacity="0.2" d="M 228.957031 212.917969 L 248.910156 232.871094 L 228.957031 252.824219 L 209.003906 232.871094 Z M 228.957031 212.917969 "/>
<path fill-rule="evenodd" fill="rgb(0%, 0%, 54.499817%)" fill-opacity="0.2" d="M 228.957031 244.84375 L 248.910156 264.796875 L 228.957031 284.75 L 209.003906 264.796875 Z M 228.957031 244.84375 "/>
<path fill-rule="evenodd" fill="rgb(0%, 0%, 54.499817%)" fill-opacity="0.2" d="M 228.957031 85.21875 L 248.910156 105.171875 L 228.957031 125.125 L 209.003906 105.171875 Z M 228.957031 85.21875 "/>
<path fill-rule="evenodd" fill="rgb(0%, 0%, 54.499817%)" fill-opacity="0.2" d="M 228.957031 117.144531 L 248.910156 137.097656 L 228.957031 157.050781 L 209.003906 137.097656 Z M 228.957031 117.144531 "/>
<path fill-rule="evenodd" fill="rgb(0%, 0%, 54.499817%)" fill-opacity="0.2" d="M 228.957031 149.070312 L 248.910156 169.023438 L 228.957031 188.976562 L 209.003906 169.023438 Z M 228.957031 149.070312 "/>
<path fill-rule="evenodd" fill="rgb(0%, 0%, 54.499817%)" fill-opacity="0.2" d="M 228.957031 21.371094 L 248.910156 41.324219 L 228.957031 61.277344 L 209.003906 41.324219 Z M 228.957031 21.371094 "/>
<path fill-rule="evenodd" fill="rgb(0%, 0%, 54.499817%)" fill-opacity="0.2" d="M 228.957031 53.296875 L 248.910156 73.25 L 228.957031 93.203125 L 209.003906 73.25 Z M 228.957031 53.296875 "/>
<path fill="none" stroke-width="1.2" stroke-linecap="butt" stroke-linejoin="round" stroke="rgb(0%, 0%, 54.499817%)" stroke-opacity="1" stroke-miterlimit="10" d="M 231.998621 164.001862 L 251.998944 144.001539 L 231.998621 124.001216 L 211.998298 144.001539 Z M 231.998621 164.001862 " transform="matrix(0.99764, 0, 0, -0.99764, -2.4941, 344.607025)"/>
<path fill="none" stroke-width="1.2" stroke-linecap="butt" stroke-linejoin="round" stroke="rgb(0%, 0%, 54.499817%)" stroke-opacity="1" stroke-miterlimit="10" d="M 231.998621 132.000562 L 251.998944 112.000238 L 231.998621 91.999915 L 211.998298 112.000238 Z M 231.998621 132.000562 " transform="matrix(0.99764, 0, 0, -0.99764, -2.4941, 344.607025)"/>
<path fill="none" stroke-width="1.2" stroke-linecap="butt" stroke-linejoin="round" stroke="rgb(0%, 0%, 54.499817%)" stroke-opacity="1" stroke-miterlimit="10" d="M 231.998621 99.999261 L 251.998944 79.998938 L 231.998621 59.998614 L 211.998298 79.998938 Z M 231.998621 99.999261 " transform="matrix(0.99764, 0, 0, -0.99764, -2.4941, 344.607025)"/>
<path fill="none" stroke-width="1.2" stroke-linecap="butt" stroke-linejoin="round" stroke="rgb(0%, 0%, 54.499817%)" stroke-opacity="1" stroke-miterlimit="10" d="M 231.998621 260.001848 L 251.998944 240.001525 L 231.998621 220.001202 L 211.998298 240.001525 Z M 231.998621 260.001848 " transform="matrix(0.99764, 0, 0, -0.99764, -2.4941, 344.607025)"/>
<path fill="none" stroke-width="1.2" stroke-linecap="butt" stroke-linejoin="round" stroke="rgb(0%, 0%, 54.499817%)" stroke-opacity="1" stroke-miterlimit="10" d="M 231.998621 228.000548 L 251.998944 208.000225 L 231.998621 187.999901 L 211.998298 208.000225 Z M 231.998621 228.000548 " transform="matrix(0.99764, 0, 0, -0.99764, -2.4941, 344.607025)"/>
<path fill="none" stroke-width="1.2" stroke-linecap="butt" stroke-linejoin="round" stroke="rgb(0%, 0%, 54.499817%)" stroke-opacity="1" stroke-miterlimit="10" d="M 231.998621 195.999247 L 251.998944 175.998924 L 231.998621 155.998601 L 211.998298 175.998924 Z M 231.998621 195.999247 " transform="matrix(0.99764, 0, 0, -0.99764, -2.4941, 344.607025)"/>
<path fill="none" stroke-width="1.2" stroke-linecap="butt" stroke-linejoin="round" stroke="rgb(0%, 0%, 54.499817%)" stroke-opacity="1" stroke-miterlimit="10" d="M 231.998621 324.000534 L 251.998944 304.000211 L 231.998621 283.999887 L 211.998298 304.000211 Z M 231.998621 324.000534 " transform="matrix(0.99764, 0, 0, -0.99764, -2.4941, 344.607025)"/>
<path fill="none" stroke-width="1.2" stroke-linecap="butt" stroke-linejoin="round" stroke="rgb(0%, 0%, 54.499817%)" stroke-opacity="1" stroke-miterlimit="10" d="M 231.998621 291.999234 L 251.998944 271.99891 L 231.998621 251.998587 L 211.998298 271.99891 Z M 231.998621 291.999234 " transform="matrix(0.99764, 0, 0, -0.99764, -2.4941, 344.607025)"/>
<path fill="none" stroke-width="1.2" stroke-linecap="butt" stroke-linejoin="round" stroke="rgb(0%, 0%, 54.499817%)" stroke-opacity="1" stroke-miterlimit="10" d="M 231.998621 68.001876 L 251.998944 48.001553 L 231.998621 28.001229 L 211.998298 48.001553 Z M 231.998621 68.001876 " transform="matrix(0.99764, 0, 0, -0.99764, -2.4941, 344.607025)"/>
<path fill-rule="evenodd" fill="rgb(0%, 0%, 54.499817%)" fill-opacity="0.2" d="M 228.957031 276.765625 L 248.910156 296.71875 L 228.957031 316.671875 L 209.003906 296.71875 Z M 228.957031 276.765625 "/>
</svg>
