<?xml version="1.0" encoding="UTF-8"?>
<svg xmlns="http://www.w3.org/2000/svg" xmlns:xlink="http://www.w3.org/1999/xlink" width="338.2" height="338.5216" viewBox="0 0 338.2 338.5216">
<path fill="none" stroke-width="2" stroke-linecap="butt" stroke-linejoin="round" stroke="rgb(0%, 0%, 0%)" stroke-opacity="1" stroke-miterlimit="10" d="M 44.00028 48.001553 C 44.00028 59.04715 35.045554 68.001876 23.999956 68.001876 C 12.954359 68.001876 3.999633 59.04715 3.999633 48.001553 C 3.999633 36.955955 12.954359 28.001229 23.999956 28.001229 C 35.045554 28.001229 44.00028 36.955955 44.00028 48.001553 " transform="matrix(0.99764, 0, 0, -0.99764, -2.4941, 344.607025)"/>
<path fill="none" stroke-width="2" stroke-linecap="butt" stroke-linejoin="round" stroke="rgb(0%, 0%, 0%)" stroke-opacity="1" stroke-miterlimit="10" d="M 76.00158 48.001553 C 76.00158 59.04715 67.046854 68.001876 56.001257 68.001876 C 44.955659 68.001876 36.000933 59.04715 36.000933 48.001553 C 36.000933 36.955955 44.955659 28.001229 56.001257 28.001229 C 67.046854 28.001229 76.00158 36.955955 76.00158 48.001553 " transform="matrix(0.99764, 0, 0, -0.99764, -2.4941, 344.607025)"/>
<path fill="none" stroke-width="2" stroke-linecap="butt" stroke-linejoin="round" stroke="rgb(0%, 0%, 0%)" stroke-opacity="1" stroke-miterlimit="10" d="M 107.998965 48.001553 C 107.998965 59.04715 99.044239 68.001876 87.998642 68.001876 C 76.953044 68.001876 67.998318 59.04715 67.998318 48.001553 C 67.998318 36.955955 76.953044 28.001229 87.998642 28.001229 C 99.044239 28.001229 107.998965 36.955955 107.998965 48.001553 " transform="matrix(0.99764, 0, 0, -0.99764, -2.4941, 344.607025)"/>
<path fill="none" stroke-width="2" stroke-linecap="butt" stroke-linejoin="round" stroke="rgb(0%, 0%, 0%)" stroke-opacity="1" stroke-miterlimit="10" d="M 140.000266 48.001553 C 140.000266 59.04715 131.04554 68.001876 119.999942 68.001876 C 108.954345 68.001876 99.999619 59.04715 99.999619 48.001553 C 99.999619 36.955955 108.954345 28.001229 119.999942 28.001229 C 131.04554 28.001229 140.000266 36.955955 140.000266 48.001553 " transform="matrix(0.99764, 0, 0, -0.99764, -2.4941, 344.607025)"/>
<path fill="none" stroke-width="2" stroke-linecap="butt" stroke-linejoin="round" stroke="rgb(0%, 0%, 0%)" stroke-opacity="1" stroke-miterlimit="10" d="M 172.001566 48.001553 C 172.001566 59.04715 163.04684 68.001876 152.001243 68.001876 C 140.955645 68.001876 132.000919 59.04715 132.000919 48.001553 C 132.000919 36.955955 140.955645 28.001229 152.001243 28.001229 C 163.04684 28.001229 172.001566 36.955955 172.001566 48.001553 " transform="matrix(0.99764, 0, 0, -0.99764, -2.4941, 344.607025)"/>
<path fill="none" stroke-width="2" stroke-linecap="butt" stroke-linejoin="round" stroke="rgb(0%, 0%, 0%)" stroke-opacity="1" stroke-miterlimit="10" d="M 203.998951 48.001553 C 203.998951 59.04715 195.044225 68.001876 183.998628 68.001876 C 172.95303 68.001876 163.998304 59.04715 163.998304 48.001553 C 163.998304 36.955955 172.95303 28.001229 183.998628 28.001229 C 195.044225 28.001229 203.998951 36.955955 203.998951 48.001553 " transform="matrix(0.99764, 0, 0, -0.99764, -2.4941, 344.607025)"/>
<path fill="none" stroke-width="2" stroke-linecap="butt" stroke-linejoin="round" stroke="rgb(0%, 0%, 0%)" stroke-opacity="1" stroke-miterlimit="10" d="M 236.395716 48.001553 C 236.395716 59.266418 227.264793 68.397341 215.999928 68.397341 C 204.735063 68.397341 195.60414 59.266418 195.60414 48.001553 C 195.60414 36.736688 204.735063 27.605765 215.999928 27.605765 C 227.264793 27.605765 236.395716 36.736688 236.395716 48.001553 " transform="matrix(0.99764, 0, 0, -0.99764, -2.4941, 344.607025)"/>
<path fill="none" stroke-width="2" stroke-linecap="butt" stroke-linejoin="round" stroke="rgb(0%, 0%, 0%)" stroke-opacity="1" stroke-miterlimit="10" d="M 268.001552 48.001553 C 268.001552 59.04715 259.046826 68.001876 248.001229 68.001876 C 236.955631 68.001876 228.000906 59.04715 228.000906 48.001553 C 228.000906 36.955955 236.955631 28.001229 248.001229 28.001229 C 259.046826 28.001229 268.001552 36.955955 268.001552 48.001553 " transform="matrix(0.99764, 0, 0, -0.99764, -2.4941, 344.607025)"/>
<path fill="none" stroke-width="2" stroke-linecap="butt" stroke-linejoin="round" stroke="rgb(0%, 0%, 0%)" stroke-opacity="1" stroke-miterlimit="10" d="M 299.998937 48.001553 C 299.998937 59.04715 291.044212 68.001876 279.998614 68.001876 C 268.953016 68.001876 259.998291 59.04715 259.998291 48.001553 C 259.998291 36.955955 268.953016 28.001229 279.998614 28.001229 C 291.044212 28.001229 299.998937 36.955955 299.998937 48.001553 " transform="matrix(0.99764, 0, 0, -0.99764, -2.4941, 344.607025)"/>
<path fill="none" stroke-width="2" stroke-linecap="butt" stroke-linejoin="round" stroke="rgb(0%, 0%, 0%)" stroke-opacity="1" stroke-miterlimit="10" d="M 332.000238 48.001553 C 332.000238 59.04715 323.045512 68.001876 311.999915 68.001876 C 300.954317 68.001876 291.999591 59.04715 291.999591 48.001553 C 291.999591 36.955955 300.954317 28.001229 311.999915 28.001229 C 323.045512 28.001229 332.000238 36.955955 332.000238 48.001553 " transform="matrix(0.99764, 0, 0, -0.99764, -2.4941, 344.607025)"/>
<path fill-rule="evenodd" fill="rgb(0%, 0%, 0%)" fill-opacity="0.1" d="M 41.402344 296.71875 C 41.402344 285.699219 32.46875 276.765625 21.449219 276.765625 C 10.429688 276.765625 1.496094 285.699219 1.496094 296.71875 C 1.496094 307.738281 10.429688 316.671875 21.449219 316.671875 C 32.46875 316.671875 41.402344 307.738281 41.402344 296.71875 "/>
<path fill-rule="evenodd" fill="rgb(0%, 0%, 0%)" fill-opacity="0.1" d="M 73.328125 296.71875 C 73.328125 285.699219 64.394531 276.765625 53.375 276.765625 C 42.355469 276.765625 33.421875 285.699219 33.421875 296.71875 C 33.421875 307.738281 42.355469 316.671875 53.375 316.671875 C 64.394531 316.671875 73.328125 307.738281 73.328125 296.71875 "/>
<path fill-rule="evenodd" fill="rgb(0%, 0%, 0%)" fill-opacity="0.1" d="M 105.25 296.71875 C 105.25 285.699219 96.316406 276.765625 85.296875 276.765625 C 74.277344 276.765625 65.34375 285.699219 65.34375 296.71875 C 65.34375 307.738281 74.277344 316.671875 85.296875 316.671875 C 96.316406 316.671875 105.25 307.738281 105.25 296.71875 "/>
<path fill-rule="evenodd" fill="rgb(0%, 0%, 0%)" fill-opacity="0.1" d="M 137.175781 296.71875 C 137.175781 285.699219 128.242188 276.765625 117.222656 276.765625 C 106.203125 276.765625 97.269531 285.699219 97.269531 296.71875 C 97.269531 307.738281 106.203125 316.671875 117.222656 316.671875 C 128.242188 316.671875 137.175781 307.738281 137.175781 296.71875 "/>
<path fill-rule="evenodd" fill="rgb(0%, 0%, 0%)" fill-opacity="0.1" d="M 169.101562 296.71875 C 169.101562 285.699219 160.167969 276.765625 149.148438 276.765625 C 138.128906 276.765625 129.195312 285.699219 129.195312 296.71875 C 129.195312 307.738281 138.128906 316.671875 149.148438 316.671875 C 160.167969 316.671875 169.101562 307.738281 169.101562 296.71875 "/>
<path fill-rule="evenodd" fill="rgb(0%, 0%, 0%)" fill-opacity="0.1" d="M 201.023438 296.71875 C 201.023438 285.699219 192.089844 276.765625 181.070312 276.765625 C 170.050781 276.765625 161.117188 285.699219 161.117188 296.71875 C 161.117188 307.738281 170.050781 316.671875 181.070312 316.671875 C 192.089844 316.671875 201.023438 307.738281 201.023438 296.71875 "/>
<path fill-rule="evenodd" fill="rgb(0%, 0%, 0%)" fill-opacity="0.1" d="M 233.34375 296.71875 C 233.34375 285.480469 224.234375 276.371094 212.996094 276.371094 C 201.757812 276.371094 192.648438 285.480469 192.648438 296.71875 C 192.648438 307.957031 201.757812 317.066406 212.996094 317.066406 C 224.234375 317.066406 233.34375 307.957031 233.34375 296.71875 "/>
<path fill-rule="evenodd" fill="rgb(0%, 0%, 0%)" fill-opacity="0.1" d="M 264.875 296.71875 C 264.875 285.699219 255.941406 276.765625 244.921875 276.765625 C 233.902344 276.765625 224.96875 285.699219 224.96875 296.71875 C 224.96875 307.738281 233.902344 316.671875 244.921875 316.671875 C 255.941406 316.671875 264.875 307.738281 264.875 296.71875 "/>
<path fill-rule="evenodd" fill="rgb(0%, 0%, 0%)" fill-opacity="0.1" d="M 296.796875 296.71875 C 296.796875 285.699219 287.863281 276.765625 276.84375 276.765625 C 265.824219 276.765625 256.890625 285.699219 256.890625 296.71875 C 256.890625 307.738281 265.824219 316.671875 276.84375 316.671875 C 287.863281 316.671875 296.796875 307.738281 296.796875 296.71875 "/>
<path fill-rule="evenodd" fill="rgb(0%, 0%, 0%)" fill-opacity="0.1" d="M 328.722656 296.71875 C 328.722656 285.699219 319.789062 276.765625 308.769531 276.765625 C 297.75 276.765625 288.816406 285.699219 288.816406 296.71875 C 288.816406 307.738281 297.75 316.671875 308.769531 316.671875 C 319.789062 316.671875 328.722656 307.738281 328.722656 296.71875 "/>
<path fill-rule="evenodd" fill="rgb(0%, 0%, 0%)" fill-opacity="0.2" d="M 292.808594 180.992188 L 312.761719 200.945312 L 292.808594 220.898438 L 272.855469 200.945312 Z M 292.808594 180.992188 "/>
<path fill-rule="evenodd" fill="rgb(0%, 0%, 0%)" fill-opacity="0.2" d="M 292.808594 212.917969 L 312.761719 232.871094 L 292.808594 252.824219 L 272.855469 232.871094 Z M 292.808594 212.917969 "/>
<path fill-rule="evenodd" fill="rgb(0%, 0%, 0%)" fill-opacity="0.2" d="M 292.808594 244.84375 L 312.761719 264.796875 L 292.808594 284.75 L 272.855469 264.796875 Z M 292.808594 244.84375 "/>
<path fill-rule="evenodd" fill="rgb(0%, 0%, 0%)" fill-opacity="0.2" d="M 292.808594 85.21875 L 312.761719 105.171875 L 292.808594 125.125 L 272.855469 105.171875 Z M 292.808594 85.21875 "/>
<path fill-rule="evenodd" fill="rgb(0%, 0%, 0%)" fill-opacity="0.2" d="M 292.808594 117.144531 L 312.761719 137.097656 L 292.808594 157.050781 L 272.855469 137.097656 Z M 292.808594 117.144531 "/>
<path fill-rule="evenodd" fill="rgb(0%, 0%, 0%)" fill-opacity="0.2" d="M 292.808594 149.070312 L 312.761719 169.023438 L 292.808594 188.976562 L 272.855469 169.023438 Z M 292.808594 149.070312 "/>
<path fill-rule="evenodd" fill="rgb(0%, 0%, 0%)" fill-opacity="0.2" d="M 292.808594 21.371094 L 312.761719 41.324219 L 292.808594 61.277344 L 272.855469 41.324219 Z M 292.808594 21.371094 "/>
<path fill-rule="evenodd" fill="rgb(0%, 0%, 0%)" fill-opacity="0.2" d="M 292.808594 53.296875 L 312.761719 73.25 L 292.808594 93.203125 L 272.855469 73.25 Z M 292.808594 53.296875 "/>
<path fill="none" stroke-width="1.2" stroke-linecap="butt" stroke-linejoin="round" stroke="rgb(0%, 0%, 0%)" stroke-opacity="1" stroke-miterlimit="10" d="M 296.001222 164.001862 L 316.001545 144.001539 L 296.001222 124.001216 L 276.000899 144.001539 Z M 296.001222 164.001862 " transform="matrix(0.99764, 0, 0, -0.99764, -2.4941, 344.607025)"/>
<path fill="none" stroke-width="1.2" stroke-linecap="butt" stroke-linejoin="round" stroke="rgb(0%, 0%, 0%)" stroke-opacity="1" stroke-miterlimit="10" d="M 296.001222 132.000562 L 316.001545 112.000238 L 296.001222 91.999915 L 276.000899 112.000238 Z M 296.001222 132.000562 " transform="matrix(0.99764, 0, 0, -0.99764, -2.4941, 344.607025)"/>
<path fill="none" stroke-width="1.2" stroke-linecap="butt" stroke-linejoin="round" stroke="rgb(0%, 0%, 0%)" stroke-opacity="1" stroke-miterlimit="10" d="M 296.001222 99.999261 L 316.001545 79.998938 L 296.001222 59.998614 L 276.000899 79.998938 Z M 296.001222 99.999261 " transform="matrix(0.99764, 0, 0, -0.99764, -2.4941, 344.607025)"/>
<path fill="none" stroke-width="1.2" stroke-linecap="butt" stroke-linejoin="round" stroke="rgb(0%, 0%, 0%)" stroke-opacity="1" stroke-miterlimit="10" d="M 296.001222 260.001848 L 316.001545 240.001525 L 296.001222 220.001202 L 276.000899 240.001525 Z M 296.001222 260.001848 " transform="matrix(0.99764, 0, 0, -0.99764, -2.4941, 344.607025)"/>
<path fill="none" stroke-width="1.2" stroke-linecap="butt" stroke-linejoin="round" stroke="rgb(0%, 0%, 0%)" stroke-opacity="1" stroke-miterlimit="10" d="M 296.001222 228.000548 L 316.001545 208.000225 L 296.001222 187.999901 L 276.000899 208.000225 Z M 296.001222 228.000548 " transform="matrix(0.99764, 0, 0, -0.99764, -2.4941, 344.607025)"/>
<path fill="none" stroke-width="1.2" stroke-linecap="butt" stroke-linejoin="round" stroke="rgb(0%, 0%, 0%)" stroke-opacity="1" stroke-miterlimit="10" d="M 296.001222 195.999247 L 316.001545 175.998924 L 296.001222 155.998601 L 276.000899 175.998924 Z M 296.001222 195.999247 " transform="matrix(0.99764, 0, 0, -0.99764, -2.4941, 344.607025)"/>
<path fill="none" stroke-width="1.2" stroke-linecap="butt" stroke-linejoin="round" stroke="rgb(0%, 0%, 0%)" stroke-opacity="1" stroke-miterlimit="10" d="M 296.001222 324.000534 L 316.001545 304.000211 L 296.001222 283.999887 L 276.000899 304.000211 Z M 296.001222 324.000534 " transform="matrix(0.99764, 0, 0, -0.99764, -2.4941, 344.607025)"/>
<path fill="none" stroke-width="1.2" stroke-linecap="butt" stroke-linejoin="round" stroke="rgb(0%, 0%, 0%)" stroke-opacity="1" stroke-miterlimit="10" d="M 296.001222 291.999234 L 316.001545 271.99891 L 296.001222 251.998587 L 276.000899 271.99891 Z M 296.001222 291.999234 " transform="matrix(0.99764, 0, 0, -0.99764, -2.4941, 344.607025)"/>
<path fill="none" stroke-width="1.2" stroke-linecap="butt" stroke-linejoin="round" stroke="rgb(0%, 0%, 0%)" stroke-opacity="1" stroke-miterlimit="10" d="M 296.001222 68.001876 L 316.001545 48.001553 L 296.001222 28.001229 L 276.000899 48.001553 Z M 296.001222 68.001876 " transform="matrix(0.99764, 0, 0, -0.99764, -2.4941, 344.607025)"/>
<path fill-rule="evenodd" fill="rgb(0%, 0%, 0%)" fill-opacity="0.2" d="M 292.808594 276.765625 L 312.761719 296.71875 L 292.808594 316.671875 L 272.855469 296.71875 Z M 292.808594 276.765625 "/>
</svg>
