<?xml version="1.0" encoding="UTF-8"?>
<svg xmlns="http://www.w3.org/2000/svg" xmlns:xlink="http://www.w3.org/1999/xlink" width="338.2" height="338.5216" viewBox="0 0 338.2 338.5216">
<path fill="none" stroke-width="1.2" stroke-linecap="butt" stroke-linejoin="round" stroke="rgb(62.69989%, 12.5%, 94.099426%)" stroke-opacity="1" stroke-miterlimit="10" d="M 39.998649 164.001862 L 59.998972 144.001539 L 39.998649 124.001216 L 19.998325 144.001539 Z M 39.998649 164.001862 " transform="matrix(0.99764, 0, 0, -0.99764, -2.4941, 344.607025)"/>
<path fill="none" stroke-width="1.2" stroke-linecap="butt" stroke-linejoin="round" stroke="rgb(62.69989%, 12.5%, 94.099426%)" stroke-opacity="1" stroke-miterlimit="10" d="M 39.998649 132.000562 L 59.998972 112.000238 L 39.998649 91.999915 L 19.998325 112.000238 Z M 39.998649 132.000562 " transform="matrix(0.99764, 0, 0, -0.99764, -2.4941, 344.607025)"/>
<path fill="none" stroke-width="1.2" stroke-linecap="butt" stroke-linejoin="round" stroke="rgb(62.69989%, 12.5%, 94.099426%)" stroke-opacity="1" stroke-miterlimit="10" d="M 39.998649 99.999261 L 59.998972 79.998938 L 39.998649 59.998614 L 19.998325 79.998938 Z M 39.998649 99.999261 " transform="matrix(0.99764, 0, 0, -0.99764, -2.4941, 344.607025)"/>
<path fill="none" stroke-width="1.2" stroke-linecap="butt" stroke-linejoin="round" stroke="rgb(62.69989%, 12.5%, 94.099426%)" stroke-opacity="1" stroke-miterlimit="10" d="M 39.998649 260.001848 L 59.998972 240.001525 L 39.998649 220.001202 L 19.998325 240.001525 Z M 39.998649 260.001848 " transform="matrix(0.99764, 0, 0, -0.99764, -2.4941, 344.607025)"/>
<path fill="none" stroke-width="1.2" stroke-linecap="butt" stroke-linejoin="round" stroke="rgb(62.69989%, 12.5%, 94.099426%)" stroke-opacity="1" stroke-miterlimit="10" d="M 39.998649 228.000548 L 59.998972 208.000225 L 39.998649 187.999901 L 19.998325 208.000225 Z M 39.998649 228.000548 " transform="matrix(0.99764, 0, 0, -0.99764, -2.4941, 344.607025)"/>
<path fill="none" stroke-width="1.2" stroke-linecap="butt" stroke-linejoin="round" stroke="rgb(62.69989%, 12.5%, 94.099426%)" stroke-opacity="1" stroke-miterlimit="10" d="M 39.998649 195.999247 L 59.998972 175.998924 L 39.998649 155.998601 L 19.998325 175.998924 Z M 39.998649 195.999247 " transform="matrix(0.99764, 0, 0, -0.99764, -2.4941, 344.607025)"/>
<path fill="none" stroke-width="1.2" stroke-linecap="butt" stroke-linejoin="round" stroke="rgb(62.69989%, 12.5%, 94.099426%)" stroke-opacity="1" stroke-miterlimit="10" d="M 39.998649 324.000534 L 59.998972 304.000211 L 39.998649 283.999887 L 19.998325 304.000211 Z M 39.998649 324.000534 " transform="matrix(0.99764, 0, 0, -0.99764, -2.4941, 344.607025)"/>
<path fill="none" stroke-width="1.2" stroke-linecap="butt" stroke-linejoin="round" stroke="rgb(62.69989%, 12.5%, 94.099426%)" stroke-opacity="1" stroke-miterlimit="10" d="M 39.998649 291.999234 L 59.998972 271.99891 L 39.998649 251.998587 L 19.998325 271.99891 Z M 39.998649 291.999234 " transform="matrix(0.99764, 0, 0, -0.99764, -2.4941, 344.607025)"/>
<path fill-rule="evenodd" fill="rgb(62.69989%, 12.5%, 94.099426%)" fill-opacity="1" d="M 37.410156 180.992188 L 57.363281 200.945312 L 37.410156 220.898438 L 17.457031 200.945312 Z M 37.410156 180.992188 "/>
<path fill-rule="evenodd" fill="rgb(62.69989%, 12.5%, 94.099426%)" fill-opacity="1" d="M 37.410156 212.917969 L 57.363281 232.871094 L 37.410156 252.824219 L 17.457031 232.871094 Z M 37.410156 212.917969 "/>
<path fill-rule="evenodd" fill="rgb(62.69989%, 12.5%, 94.099426%)" fill-opacity="1" d="M 37.410156 244.84375 L 57.363281 264.796875 L 37.410156 284.75 L 17.457031 264.796875 Z M 37.410156 244.84375 "/>
<path fill-rule="evenodd" fill="rgb(62.69989%, 12.5%, 94.099426%)" fill-opacity="1" d="M 37.410156 85.21875 L 57.363281 105.171875 L 37.410156 125.125 L 17.457031 105.171875 Z M 37.410156 85.21875 "/>
<path fill-rule="evenodd" fill="rgb(62.69989%, 12.5%, 94.099426%)" fill-opacity="1" d="M 37.410156 117.144531 L 57.363281 137.097656 L 37.410156 157.050781 L 17.457031 137.097656 Z M 37.410156 117.144531 "/>
<path fill-rule="evenodd" fill="rgb(62.69989%, 12.5%, 94.099426%)" fill-opacity="1" d="M 37.410156 149.070312 L 57.363281 169.023438 L 37.410156 188.976562 L 17.457031 169.023438 Z M 37.410156 149.070312 "/>
<path fill-rule="evenodd" fill="rgb(62.69989%, 12.5%, 94.099426%)" fill-opacity="1" d="M 37.410156 21.371094 L 57.363281 41.324219 L 37.410156 61.277344 L 17.457031 41.324219 Z M 37.410156 21.371094 "/>
<path fill-rule="evenodd" fill="rgb(62.69989%, 12.5%, 94.099426%)" fill-opacity="1" d="M 37.410156 53.296875 L 57.363281 73.25 L 37.410156 93.203125 L 17.457031 73.25 Z M 37.410156 53.296875 "/>
<path fill="none" stroke-width="1.2" stroke-linecap="butt" stroke-linejoin="round" stroke="rgb(62.69989%, 12.5%, 94.099426%)" stroke-opacity="1" stroke-miterlimit="10" d="M 39.998649 68.001876 L 59.998972 48.001553 L 39.998649 28.001229 L 19.998325 48.001553 Z M 39.998649 68.001876 " transform="matrix(0.99764, 0, 0, -0.99764, -2.4941, 344.607025)"/>
<path fill-rule="evenodd" fill="rgb(62.69989%, 12.5%, 94.099426%)" fill-opacity="1" d="M 37.410156 276.765625 L 57.363281 296.71875 L 37.410156 316.671875 L 17.457031 296.71875 Z M 37.410156 276.765625 "/>
<path fill="none" stroke-width="2" stroke-linecap="butt" stroke-linejoin="round" stroke="rgb(62.69989%, 12.5%, 94.099426%)" stroke-opacity="1" stroke-miterlimit="10" d="M 44.00028 304.000211 C 44.00028 315.045808 35.045554 324.000534 23.999956 324.000534 C 12.954359 324.000534 3.999633 315.045808 3.999633 304.000211 C 3.999633 292.954613 12.954359 283.999887 23.999956 283.999887 C 35.045554 283.999887 44.00028 292.954613 44.00028 304.000211 " transform="matrix(0.99764, 0, 0, -0.99764, -2.4941, 344.607025)"/>
<path fill="none" stroke-width="2" stroke-linecap="butt" stroke-linejoin="round" stroke="rgb(62.69989%, 12.5%, 94.099426%)" stroke-opacity="1" stroke-miterlimit="10" d="M 76.00158 304.000211 C 76.00158 315.045808 67.046854 324.000534 56.001257 324.000534 C 44.955659 324.000534 36.000933 315.045808 36.000933 304.000211 C 36.000933 292.954613 44.955659 283.999887 56.001257 283.999887 C 67.046854 283.999887 76.00158 292.954613 76.00158 304.000211 " transform="matrix(0.99764, 0, 0, -0.99764, -2.4941, 344.607025)"/>
<path fill="none" stroke-width="2" stroke-linecap="butt" stroke-linejoin="round" stroke="rgb(62.69989%, 12.5%, 94.099426%)" stroke-opacity="1" stroke-miterlimit="10" d="M 107.998965 304.000211 C 107.998965 315.045808 99.044239 324.000534 87.998642 324.000534 C 76.953044 324.000534 67.998318 315.045808 67.998318 304.000211 C 67.998318 292.954613 76.953044 283.999887 87.998642 283.999887 C 99.044239 283.999887 107.998965 292.954613 107.998965 304.000211 " transform="matrix(0.99764, 0, 0, -0.99764, -2.4941, 344.607025)"/>
<path fill="none" stroke-width="2" stroke-linecap="butt" stroke-linejoin="round" stroke="rgb(62.69989%, 12.5%, 94.099426%)" stroke-opacity="1" stroke-miterlimit="10" d="M 140.000266 304.000211 C 140.000266 315.045808 131.04554 324.000534 119.999942 324.000534 C 108.954345 324.000534 99.999619 315.045808 99.999619 304.000211 C 99.999619 292.954613 108.954345 283.999887 119.999942 283.999887 C 131.04554 283.999887 140.000266 292.954613 140.000266 304.000211 " transform="matrix(0.99764, 0, 0, -0.99764, -2.4941, 344.607025)"/>
<path fill="none" stroke-width="2" stroke-linecap="butt" stroke-linejoin="round" stroke="rgb(62.69989%, 12.5%, 94.099426%)" stroke-opacity="1" stroke-miterlimit="10" d="M 172.001566 304.000211 C 172.001566 315.045808 163.04684 324.000534 152.001243 324.000534 C 140.955645 324.000534 132.000919 315.045808 132.000919 304.000211 C 132.000919 292.954613 140.955645 283.999887 152.001243 283.999887 C 163.04684 283.999887 172.001566 292.954613 172.001566 304.000211 " transform="matrix(0.99764, 0, 0, -0.99764, -2.4941, 344.607025)"/>
<path fill="none" stroke-width="2" stroke-linecap="butt" stroke-linejoin="round" stroke="rgb(62.69989%, 12.5%, 94.099426%)" stroke-opacity="1" stroke-miterlimit="10" d="M 203.998951 304.000211 C 203.998951 315.045808 195.044225 324.000534 183.998628 324.000534 C 172.95303 324.000534 163.998304 315.045808 163.998304 304.000211 C 163.998304 292.954613 172.95303 283.999887 183.998628 283.999887 C 195.044225 283.999887 203.998951 292.954613 203.998951 304.000211 " transform="matrix(0.99764, 0, 0, -0.99764, -2.4941, 344.607025)"/>
<path fill="none" stroke-width="2" stroke-linecap="butt" stroke-linejoin="round" stroke="rgb(62.69989%, 12.5%, 94.099426%)" stroke-opacity="1" stroke-miterlimit="10" d="M 236.395716 304.000211 C 236.395716 315.265076 227.264793 324.395999 215.999928 324.395999 C 204.735063 324.395999 195.60414 315.265076 195.60414 304.000211 C 195.60414 292.735346 204.735063 283.604423 215.999928 283.604423 C 227.264793 283.604423 236.395716 292.735346 236.395716 304.000211 " transform="matrix(0.99764, 0, 0, -0.99764, -2.4941, 344.607025)"/>
<path fill="none" stroke-width="2" stroke-linecap="butt" stroke-linejoin="round" stroke="rgb(62.69989%, 12.5%, 94.099426%)" stroke-opacity="1" stroke-miterlimit="10" d="M 268.001552 304.000211 C 268.001552 315.045808 259.046826 324.000534 248.001229 324.000534 C 236.955631 324.000534 228.000906 315.045808 228.000906 304.000211 C 228.000906 292.954613 236.955631 283.999887 248.001229 283.999887 C 259.046826 283.999887 268.001552 292.954613 268.001552 304.000211 " transform="matrix(0.99764, 0, 0, -0.99764, -2.4941, 344.607025)"/>
<path fill="none" stroke-width="2" stroke-linecap="butt" stroke-linejoin="round" stroke="rgb(62.69989%, 12.5%, 94.099426%)" stroke-opacity="1" stroke-miterlimit="10" d="M 299.998937 304.000211 C 299.998937 315.045808 291.044212 324.000534 279.998614 324.000534 C 268.953016 324.000534 259.998291 315.045808 259.998291 304.000211 C 259.998291 292.954613 268.953016 283.999887 279.998614 283.999887 C 291.044212 283.999887 299.998937 292.954613 299.998937 304.000211 " transform="matrix(0.99764, 0, 0, -0.99764, -2.4941, 344.607025)"/>
<path fill="none" stroke-width="2" stroke-linecap="butt" stroke-linejoin="round" stroke="rgb(62.69989%, 12.5%, 94.099426%)" stroke-opacity="1" stroke-miterlimit="10" d="M 332.000238 304.000211 C 332.000238 315.045808 323.045512 324.000534 311.999915 324.000534 C 300.954317 324.000534 291.999591 315.045808 291.999591 304.000211 C 291.999591 292.954613 300.954317 283.999887 311.999915 283.999887 C 323.045512 283.999887 332.000238 292.954613 332.000238 304.000211 " transform="matrix(0.99764, 0, 0, -0.99764, -2.4941, 344.607025)"/>
<path fill-rule="evenodd" fill="rgb(62.69989%, 12.5%, 94.099426%)" fill-opacity="1" d="M 41.402344 41.324219 C 41.402344 30.304688 32.46875 21.371094 21.449219 21.371094 C 10.429688 21.371094 1.496094 30.304688 1.496094 41.324219 C 1.496094 52.34375 10.429688 61.277344 21.449219 61.277344 C 32.46875 61.277344 41.402344 52.34375 41.402344 41.324219 "/>
<path fill-rule="evenodd" fill="rgb(62.69989%, 12.5%, 94.099426%)" fill-opacity="1" d="M 73.328125 41.324219 C 73.328125 30.304688 64.394531 21.371094 53.375 21.371094 C 42.355469 21.371094 33.421875 30.304688 33.421875 41.324219 C 33.421875 52.34375 42.355469 61.277344 53.375 61.277344 C 64.394531 61.277344 73.328125 52.34375 73.328125 41.324219 "/>
<path fill-rule="evenodd" fill="rgb(62.69989%, 12.5%, 94.099426%)" fill-opacity="1" d="M 105.25 41.324219 C 105.25 30.304688 96.316406 21.371094 85.296875 21.371094 C 74.277344 21.371094 65.34375 30.304688 65.34375 41.324219 C 65.34375 52.34375 74.277344 61.277344 85.296875 61.277344 C 96.316406 61.277344 105.25 52.34375 105.25 41.324219 "/>
<path fill-rule="evenodd" fill="rgb(62.69989%, 12.5%, 94.099426%)" fill-opacity="1" d="M 137.175781 41.324219 C 137.175781 30.304688 128.242188 21.371094 117.222656 21.371094 C 106.203125 21.371094 97.269531 30.304688 97.269531 41.324219 C 97.269531 52.34375 106.203125 61.277344 117.222656 61.277344 C 128.242188 61.277344 137.175781 52.34375 137.175781 41.324219 "/>
<path fill-rule="evenodd" fill="rgb(62.69989%, 12.5%, 94.099426%)" fill-opacity="1" d="M 169.101562 41.324219 C 169.101562 30.304688 160.167969 21.371094 149.148438 21.371094 C 138.128906 21.371094 129.195312 30.304688 129.195312 41.324219 C 129.195312 52.34375 138.128906 61.277344 149.148438 61.277344 C 160.167969 61.277344 169.101562 52.34375 169.101562 41.324219 "/>
<path fill-rule="evenodd" fill="rgb(62.69989%, 12.5%, 94.099426%)" fill-opacity="1" d="M 201.023438 41.324219 C 201.023438 30.304688 192.089844 21.371094 181.070312 21.371094 C 170.050781 21.371094 161.117188 30.304688 161.117188 41.324219 C 161.117188 52.34375 170.050781 61.277344 181.070312 61.277344 C 192.089844 61.277344 201.023438 52.34375 201.023438 41.324219 "/>
<path fill-rule="evenodd" fill="rgb(62.69989%, 12.5%, 94.099426%)" fill-opacity="1" d="M 233.34375 41.324219 C 233.34375 30.085938 224.234375 20.976562 212.996094 20.976562 C 201.757812 20.976562 192.648438 30.085938 192.648438 41.324219 C 192.648438 52.5625 201.757812 61.671875 212.996094 61.671875 C 224.234375 61.671875 233.34375 52.5625 233.34375 41.324219 "/>
<path fill-rule="evenodd" fill="rgb(62.69989%, 12.5%, 94.099426%)" fill-opacity="1" d="M 264.875 41.324219 C 264.875 30.304688 255.941406 21.371094 244.921875 21.371094 C 233.902344 21.371094 224.96875 30.304688 224.96875 41.324219 C 224.96875 52.34375 233.902344 61.277344 244.921875 61.277344 C 255.941406 61.277344 264.875 52.34375 264.875 41.324219 "/>
<path fill-rule="evenodd" fill="rgb(62.69989%, 12.5%, 94.099426%)" fill-opacity="1" d="M 296.796875 41.324219 C 296.796875 30.304688 287.863281 21.371094 276.84375 21.371094 C 265.824219 21.371094 256.890625 30.304688 256.890625 41.324219 C 256.890625 52.34375 265.824219 61.277344 276.84375 61.277344 C 287.863281 61.277344 296.796875 52.34375 296.796875 41.324219 "/>
<path fill-rule="evenodd" fill="rgb(62.69989%, 12.5%, 94.099426%)" fill-opacity="1" d="M 328.722656 41.324219 C 328.722656 30.304688 319.789062 21.371094 308.769531 21.371094 C 297.75 21.371094 288.816406 30.304688 288.816406 41.324219 C 288.816406 52.34375 297.75 61.277344 308.769531 61.277344 C 319.789062 61.277344 328.722656 52.34375 328.722656 41.324219 "/>
</svg>
