<?xml version="1.0" encoding="UTF-8"?>
<svg xmlns="http://www.w3.org/2000/svg" xmlns:xlink="http://www.w3.org/1999/xlink" width="338.2" height="338.5216" viewBox="0 0 338.2 338.5216">
<defs>
<clipPath id="clip-0">
<path clip-rule="nonzero" d="M 188 0.160156 L 236 0.160156 L 236 49 L 188 49 Z M 188 0.160156 "/>
</clipPath>
<clipPath id="clip-1">
<path clip-rule="nonzero" d="M 188 289 L 236 289 L 236 337.882812 L 188 337.882812 Z M 188 289 "/>
</clipPath>
</defs>
<path fill="none" stroke-width="0.4" stroke-linecap="butt" stroke-linejoin="round" stroke="rgb(66.299438%, 66.299438%, 66.299438%)" stroke-opacity="1" stroke-miterlimit="10" d="M 319.999261 175.998924 C 319.999261 259.947032 251.948043 327.998249 167.999935 327.998249 C 84.051828 327.998249 16.00061 259.947032 16.00061 175.998924 C 16.00061 92.050816 84.051828 23.999598 167.999935 23.999598 C 251.948043 23.999598 319.999261 92.050816 319.999261 175.998924 " transform="matrix(0.99764, 0, 0, -0.99764, -2.4941, 344.607025)"/>
<path fill="none" stroke-width="2" stroke-linecap="butt" stroke-linejoin="round" stroke="rgb(0%, 100%, 0%)" stroke-opacity="1" stroke-miterlimit="10" d="M 319.999261 175.998924 L 214.970154 320.562734 L 45.030053 265.342577 L 45.030053 86.655271 L 214.970154 31.43903 Z M 319.999261 175.998924 " transform="matrix(0.99764, 0, 0, -0.99764, -2.4941, 344.607025)"/>
<path fill-rule="evenodd" fill="rgb(62.69989%, 12.5%, 94.099426%)" fill-opacity="1" d="M 231.921875 24.800781 C 231.921875 13.78125 222.988281 4.851562 211.96875 4.851562 C 200.949219 4.851562 192.015625 13.78125 192.015625 24.800781 C 192.015625 35.824219 200.949219 44.753906 211.96875 44.753906 C 222.988281 44.753906 231.921875 35.824219 231.921875 24.800781 "/>
<g clip-path="url(#clip-0)">
<path fill-rule="evenodd" fill="rgb(66.299438%, 66.299438%, 66.299438%)" fill-opacity="1" d="M 235.914062 24.800781 C 235.914062 11.578125 225.191406 0.859375 211.96875 0.859375 C 198.746094 0.859375 188.027344 11.578125 188.027344 24.800781 C 188.027344 38.027344 198.746094 48.746094 211.96875 48.746094 C 225.191406 48.746094 235.914062 38.027344 235.914062 24.800781 M 227.933594 24.800781 C 227.933594 15.988281 220.785156 8.839844 211.96875 8.839844 C 203.152344 8.839844 196.007812 15.988281 196.007812 24.800781 C 196.007812 33.617188 203.152344 40.765625 211.96875 40.765625 C 220.785156 40.765625 227.933594 33.617188 227.933594 24.800781 "/>
</g>
<path fill-rule="evenodd" fill="rgb(100%, 0%, 0%)" fill-opacity="1" d="M 332.714844 169.023438 C 332.714844 158.003906 323.78125 149.070312 312.761719 149.070312 C 301.742188 149.070312 292.808594 158.003906 292.808594 169.023438 C 292.808594 180.042969 301.742188 188.976562 312.761719 188.976562 C 323.78125 188.976562 332.714844 180.042969 332.714844 169.023438 "/>
<path fill-rule="evenodd" fill="rgb(66.299438%, 66.299438%, 66.299438%)" fill-opacity="1" d="M 336.703125 169.023438 C 336.703125 155.796875 325.984375 145.078125 312.761719 145.078125 C 299.535156 145.078125 288.816406 155.796875 288.816406 169.023438 C 288.816406 182.246094 299.535156 192.964844 312.761719 192.964844 C 325.984375 192.964844 336.703125 182.246094 336.703125 169.023438 M 328.722656 169.023438 C 328.722656 160.207031 321.578125 153.058594 312.761719 153.058594 C 303.945312 153.058594 296.796875 160.207031 296.796875 169.023438 C 296.796875 177.839844 303.945312 184.984375 312.761719 184.984375 C 321.578125 184.984375 328.722656 177.839844 328.722656 169.023438 "/>
<path fill-rule="evenodd" fill="rgb(0%, 39.199829%, 0%)" fill-opacity="1" d="M 231.921875 313.242188 C 231.921875 302.222656 222.988281 293.289062 211.96875 293.289062 C 200.949219 293.289062 192.015625 302.222656 192.015625 313.242188 C 192.015625 324.261719 200.949219 333.195312 211.96875 333.195312 C 222.988281 333.195312 231.921875 324.261719 231.921875 313.242188 "/>
<g clip-path="url(#clip-1)">
<path fill-rule="evenodd" fill="rgb(66.299438%, 66.299438%, 66.299438%)" fill-opacity="1" d="M 235.914062 313.242188 C 235.914062 300.019531 225.191406 289.296875 211.96875 289.296875 C 198.746094 289.296875 188.027344 300.019531 188.027344 313.242188 C 188.027344 326.464844 198.746094 337.183594 211.96875 337.183594 C 225.191406 337.183594 235.914062 326.464844 235.914062 313.242188 M 227.933594 313.242188 C 227.933594 304.425781 220.785156 297.28125 211.96875 297.28125 C 203.152344 297.28125 196.007812 304.425781 196.007812 313.242188 C 196.007812 322.058594 203.152344 329.203125 211.96875 329.203125 C 220.785156 329.203125 227.933594 322.058594 227.933594 313.242188 "/>
</g>
<path fill-rule="evenodd" fill="rgb(0%, 0%, 54.499817%)" fill-opacity="1" d="M 57.363281 252.824219 C 57.363281 241.804688 48.429688 232.871094 37.410156 232.871094 C 26.390625 232.871094 17.457031 241.804688 17.457031 252.824219 C 17.457031 263.84375 26.390625 272.777344 37.410156 272.777344 C 48.429688 272.777344 57.363281 263.84375 57.363281 252.824219 "/>
<path fill-rule="evenodd" fill="rgb(66.299438%, 66.299438%, 66.299438%)" fill-opacity="1" d="M 61.355469 252.824219 C 61.355469 239.601562 50.636719 228.878906 37.410156 228.878906 C 24.1875 228.878906 13.46875 239.601562 13.46875 252.824219 C 13.46875 266.046875 24.1875 276.765625 37.410156 276.765625 C 50.636719 276.765625 61.355469 266.046875 61.355469 252.824219 M 53.375 252.824219 C 53.375 244.007812 46.226562 236.863281 37.410156 236.863281 C 28.597656 236.863281 21.449219 244.007812 21.449219 252.824219 C 21.449219 261.640625 28.597656 268.785156 37.410156 268.785156 C 46.226562 268.785156 53.375 261.640625 53.375 252.824219 "/>
<path fill-rule="evenodd" fill="rgb(0%, 0%, 0%)" fill-opacity="1" d="M 62.382812 79.890625 C 62.382812 68.871094 53.449219 59.9375 42.429688 59.9375 C 31.410156 59.9375 22.476562 68.871094 22.476562 79.890625 C 22.476562 90.910156 31.410156 99.84375 42.429688 99.84375 C 53.449219 99.84375 62.382812 90.910156 62.382812 79.890625 "/>
<path fill-rule="evenodd" fill="rgb(66.299438%, 66.299438%, 66.299438%)" fill-opacity="1" d="M 66.371094 79.890625 C 66.371094 66.667969 55.652344 55.945312 42.429688 55.945312 C 29.207031 55.945312 18.484375 66.667969 18.484375 79.890625 C 18.484375 93.113281 29.207031 103.832031 42.429688 103.832031 C 55.652344 103.832031 66.371094 93.113281 66.371094 79.890625 M 58.390625 79.890625 C 58.390625 71.074219 51.246094 63.929688 42.429688 63.929688 C 33.613281 63.929688 26.464844 71.074219 26.464844 79.890625 C 26.464844 88.707031 33.613281 95.851562 42.429688 95.851562 C 51.246094 95.851562 58.390625 88.707031 58.390625 79.890625 "/>
</svg>
