<?xml version="1.0" encoding="UTF-8"?>
<svg xmlns="http://www.w3.org/2000/svg" xmlns:xlink="http://www.w3.org/1999/xlink" width="114.4417" height="110.38" viewBox="0 0 114.4417 110.38">
<defs>
<clipPath id="clip-0">
<path clip-rule="nonzero" d="M 108 21 L 113.84375 21 L 113.84375 27 L 108 27 Z M 108 21 "/>
</clipPath>
<clipPath id="clip-1">
<path clip-rule="nonzero" d="M 108 34 L 113.84375 34 L 113.84375 40 L 108 40 Z M 108 34 "/>
</clipPath>
<clipPath id="clip-2">
<path clip-rule="nonzero" d="M 0.0429688 29 L 6 29 L 6 35 L 0.0429688 35 Z M 0.0429688 29 "/>
</clipPath>
<clipPath id="clip-3">
<path clip-rule="nonzero" d="M 19 104 L 24 104 L 24 109.761719 L 19 109.761719 Z M 19 104 "/>
</clipPath>
<clipPath id="clip-4">
<path clip-rule="nonzero" d="M 19 104 L 25 104 L 25 109.761719 L 19 109.761719 Z M 19 104 "/>
</clipPath>
</defs>
<path fill="none" stroke-width="0.4" stroke-linecap="butt" stroke-linejoin="round" stroke="rgb(0%, 0%, 0%)" stroke-opacity="1" stroke-miterlimit="10" d="M 82.248864 171.871142 L 101.288807 152.183047 " transform="matrix(0.994414, 0, 0, -0.994414, -74.8168, 181.907234)"/>
<path fill="none" stroke-width="0.4" stroke-linecap="butt" stroke-linejoin="round" stroke="rgb(0%, 0%, 0%)" stroke-opacity="1" stroke-miterlimit="10" d="M 82.248864 171.871142 L 120.379817 151.542752 " transform="matrix(0.994414, 0, 0, -0.994414, -74.8168, 181.907234)"/>
<path fill="none" stroke-width="0.4" stroke-linecap="butt" stroke-linejoin="round" stroke="rgb(0%, 0%, 0%)" stroke-opacity="1" stroke-miterlimit="10" d="M 82.248864 171.871142 L 170.248205 179.868939 " transform="matrix(0.994414, 0, 0, -0.994414, -74.8168, 181.907234)"/>
<path fill="none" stroke-width="0.4" stroke-linecap="butt" stroke-linejoin="round" stroke="rgb(0%, 0%, 0%)" stroke-opacity="1" stroke-miterlimit="10" d="M 82.248864 171.871142 L 78.340314 150.682478 " transform="matrix(0.994414, 0, 0, -0.994414, -74.8168, 181.907234)"/>
<path fill="none" stroke-width="0.4" stroke-linecap="butt" stroke-linejoin="round" stroke="rgb(0%, 0%, 0%)" stroke-opacity="1" stroke-miterlimit="10" d="M 87.775829 158.189252 L 82.248864 171.871142 " transform="matrix(0.994414, 0, 0, -0.994414, -74.8168, 181.907234)"/>
<path fill="none" stroke-width="0.4" stroke-linecap="butt" stroke-linejoin="round" stroke="rgb(0%, 0%, 0%)" stroke-opacity="1" stroke-miterlimit="10" d="M 87.775829 158.189252 L 78.340314 150.682478 " transform="matrix(0.994414, 0, 0, -0.994414, -74.8168, 181.907234)"/>
<path fill="none" stroke-width="0.4" stroke-linecap="butt" stroke-linejoin="round" stroke="rgb(0%, 0%, 0%)" stroke-opacity="1" stroke-miterlimit="10" d="M 87.775829 158.189252 L 101.288807 152.183047 " transform="matrix(0.994414, 0, 0, -0.994414, -74.8168, 181.907234)"/>
<path fill="none" stroke-width="0.4" stroke-linecap="butt" stroke-linejoin="round" stroke="rgb(0%, 0%, 0%)" stroke-opacity="1" stroke-miterlimit="10" d="M 101.288807 152.183047 L 120.379817 151.542752 " transform="matrix(0.994414, 0, 0, -0.994414, -74.8168, 181.907234)"/>
<path fill="none" stroke-width="0.4" stroke-linecap="butt" stroke-linejoin="round" stroke="rgb(0%, 0%, 0%)" stroke-opacity="1" stroke-miterlimit="10" d="M 101.288807 152.183047 L 87.775829 158.189252 " transform="matrix(0.994414, 0, 0, -0.994414, -74.8168, 181.907234)"/>
<path fill="none" stroke-width="0.4" stroke-linecap="butt" stroke-linejoin="round" stroke="rgb(0%, 0%, 0%)" stroke-opacity="1" stroke-miterlimit="10" d="M 101.288807 152.183047 L 78.340314 150.682478 " transform="matrix(0.994414, 0, 0, -0.994414, -74.8168, 181.907234)"/>
<path fill="none" stroke-width="0.4" stroke-linecap="butt" stroke-linejoin="round" stroke="rgb(0%, 0%, 0%)" stroke-opacity="1" stroke-miterlimit="10" d="M 101.288807 152.183047 L 92.709637 125.585264 " transform="matrix(0.994414, 0, 0, -0.994414, -74.8168, 181.907234)"/>
<path fill="none" stroke-width="0.4" stroke-linecap="butt" stroke-linejoin="round" stroke="rgb(0%, 0%, 0%)" stroke-opacity="1" stroke-miterlimit="10" d="M 101.288807 152.183047 L 109.871905 138.88612 " transform="matrix(0.994414, 0, 0, -0.994414, -74.8168, 181.907234)"/>
<path fill="none" stroke-width="0.4" stroke-linecap="butt" stroke-linejoin="round" stroke="rgb(0%, 0%, 0%)" stroke-opacity="1" stroke-miterlimit="10" d="M 120.379817 151.542752 L 101.288807 152.183047 " transform="matrix(0.994414, 0, 0, -0.994414, -74.8168, 181.907234)"/>
<path fill="none" stroke-width="0.4" stroke-linecap="butt" stroke-linejoin="round" stroke="rgb(0%, 0%, 0%)" stroke-opacity="1" stroke-miterlimit="10" d="M 120.379817 151.542752 L 109.871905 138.88612 " transform="matrix(0.994414, 0, 0, -0.994414, -74.8168, 181.907234)"/>
<path fill="none" stroke-width="0.4" stroke-linecap="butt" stroke-linejoin="round" stroke="rgb(0%, 0%, 0%)" stroke-opacity="1" stroke-miterlimit="10" d="M 120.379817 151.542752 L 122.524609 131.591469 " transform="matrix(0.994414, 0, 0, -0.994414, -74.8168, 181.907234)"/>
<path fill="none" stroke-width="0.4" stroke-linecap="butt" stroke-linejoin="round" stroke="rgb(0%, 0%, 0%)" stroke-opacity="1" stroke-miterlimit="10" d="M 120.379817 151.542752 L 142.248057 151.868792 " transform="matrix(0.994414, 0, 0, -0.994414, -74.8168, 181.907234)"/>
<path fill="none" stroke-width="0.4" stroke-linecap="butt" stroke-linejoin="round" stroke="rgb(0%, 0%, 0%)" stroke-opacity="1" stroke-miterlimit="10" d="M 120.379817 151.542752 L 161.995075 163.983334 " transform="matrix(0.994414, 0, 0, -0.994414, -74.8168, 181.907234)"/>
<path fill="none" stroke-width="0.4" stroke-linecap="butt" stroke-linejoin="round" stroke="rgb(0%, 0%, 0%)" stroke-opacity="1" stroke-miterlimit="10" d="M 120.379817 151.542752 L 170.248205 179.868939 " transform="matrix(0.994414, 0, 0, -0.994414, -74.8168, 181.907234)"/>
<path fill="none" stroke-width="0.4" stroke-linecap="butt" stroke-linejoin="round" stroke="rgb(0%, 0%, 0%)" stroke-opacity="1" stroke-miterlimit="10" d="M 142.248057 151.868792 L 157.489439 137.597673 " transform="matrix(0.994414, 0, 0, -0.994414, -74.8168, 181.907234)"/>
<path fill="none" stroke-width="0.4" stroke-linecap="butt" stroke-linejoin="round" stroke="rgb(0%, 0%, 0%)" stroke-opacity="1" stroke-miterlimit="10" d="M 142.248057 151.868792 L 156.417043 151.326701 " transform="matrix(0.994414, 0, 0, -0.994414, -74.8168, 181.907234)"/>
<path fill="none" stroke-width="0.4" stroke-linecap="butt" stroke-linejoin="round" stroke="rgb(0%, 0%, 0%)" stroke-opacity="1" stroke-miterlimit="10" d="M 142.248057 151.868792 L 122.524609 131.591469 " transform="matrix(0.994414, 0, 0, -0.994414, -74.8168, 181.907234)"/>
<path fill="none" stroke-width="0.4" stroke-linecap="butt" stroke-linejoin="round" stroke="rgb(0%, 0%, 0%)" stroke-opacity="1" stroke-miterlimit="10" d="M 161.995075 163.983334 L 142.248057 151.868792 " transform="matrix(0.994414, 0, 0, -0.994414, -74.8168, 181.907234)"/>
<path fill="none" stroke-width="0.4" stroke-linecap="butt" stroke-linejoin="round" stroke="rgb(0%, 0%, 0%)" stroke-opacity="1" stroke-miterlimit="10" d="M 161.995075 163.983334 L 156.417043 151.326701 " transform="matrix(0.994414, 0, 0, -0.994414, -74.8168, 181.907234)"/>
<path fill="none" stroke-width="0.4" stroke-linecap="butt" stroke-linejoin="round" stroke="rgb(0%, 0%, 0%)" stroke-opacity="1" stroke-miterlimit="10" d="M 161.995075 163.983334 L 175.936225 158.189252 " transform="matrix(0.994414, 0, 0, -0.994414, -74.8168, 181.907234)"/>
<path fill="none" stroke-width="0.4" stroke-linecap="butt" stroke-linejoin="round" stroke="rgb(0%, 0%, 0%)" stroke-opacity="1" stroke-miterlimit="10" d="M 170.248205 179.868939 L 175.936225 158.189252 " transform="matrix(0.994414, 0, 0, -0.994414, -74.8168, 181.907234)"/>
<path fill="none" stroke-width="0.4" stroke-linecap="butt" stroke-linejoin="round" stroke="rgb(0%, 0%, 0%)" stroke-opacity="1" stroke-miterlimit="10" d="M 170.248205 179.868939 L 161.995075 163.983334 " transform="matrix(0.994414, 0, 0, -0.994414, -74.8168, 181.907234)"/>
<path fill="none" stroke-width="0.4" stroke-linecap="butt" stroke-linejoin="round" stroke="rgb(0%, 0%, 0%)" stroke-opacity="1" stroke-miterlimit="10" d="M 186.660188 158.621353 L 170.248205 179.868939 " transform="matrix(0.994414, 0, 0, -0.994414, -74.8168, 181.907234)"/>
<path fill="none" stroke-width="0.4" stroke-linecap="butt" stroke-linejoin="round" stroke="rgb(0%, 0%, 0%)" stroke-opacity="1" stroke-miterlimit="10" d="M 186.660188 158.621353 L 175.936225 158.189252 " transform="matrix(0.994414, 0, 0, -0.994414, -74.8168, 181.907234)"/>
<path fill="none" stroke-width="0.4" stroke-linecap="butt" stroke-linejoin="round" stroke="rgb(0%, 0%, 0%)" stroke-opacity="1" stroke-miterlimit="10" d="M 186.660188 158.621353 L 186.660188 145.536548 " transform="matrix(0.994414, 0, 0, -0.994414, -74.8168, 181.907234)"/>
<path fill="none" stroke-width="0.4" stroke-linecap="butt" stroke-linejoin="round" stroke="rgb(0%, 0%, 0%)" stroke-opacity="1" stroke-miterlimit="10" d="M 186.660188 145.536548 L 186.660188 158.621353 " transform="matrix(0.994414, 0, 0, -0.994414, -74.8168, 181.907234)"/>
<path fill="none" stroke-width="0.4" stroke-linecap="butt" stroke-linejoin="round" stroke="rgb(0%, 0%, 0%)" stroke-opacity="1" stroke-miterlimit="10" d="M 186.660188 145.536548 L 175.936225 158.189252 " transform="matrix(0.994414, 0, 0, -0.994414, -74.8168, 181.907234)"/>
<path fill="none" stroke-width="0.4" stroke-linecap="butt" stroke-linejoin="round" stroke="rgb(0%, 0%, 0%)" stroke-opacity="1" stroke-miterlimit="10" d="M 186.660188 145.536548 L 174.647779 140.174566 " transform="matrix(0.994414, 0, 0, -0.994414, -74.8168, 181.907234)"/>
<path fill="none" stroke-width="0.4" stroke-linecap="butt" stroke-linejoin="round" stroke="rgb(0%, 0%, 0%)" stroke-opacity="1" stroke-miterlimit="10" d="M 186.660188 145.536548 L 183.014826 132.451742 " transform="matrix(0.994414, 0, 0, -0.994414, -74.8168, 181.907234)"/>
<path fill="none" stroke-width="0.4" stroke-linecap="butt" stroke-linejoin="round" stroke="rgb(0%, 0%, 0%)" stroke-opacity="1" stroke-miterlimit="10" d="M 78.340314 150.682478 L 96.999222 75.606887 " transform="matrix(0.994414, 0, 0, -0.994414, -74.8168, 181.907234)"/>
<path fill="none" stroke-width="0.4" stroke-linecap="butt" stroke-linejoin="round" stroke="rgb(0%, 0%, 0%)" stroke-opacity="1" stroke-miterlimit="10" d="M 78.340314 150.682478 L 92.709637 125.585264 " transform="matrix(0.994414, 0, 0, -0.994414, -74.8168, 181.907234)"/>
<path fill="none" stroke-width="0.4" stroke-linecap="butt" stroke-linejoin="round" stroke="rgb(0%, 0%, 0%)" stroke-opacity="1" stroke-miterlimit="10" d="M 109.871905 138.88612 L 92.709637 125.585264 " transform="matrix(0.994414, 0, 0, -0.994414, -74.8168, 181.907234)"/>
<path fill="none" stroke-width="0.4" stroke-linecap="butt" stroke-linejoin="round" stroke="rgb(0%, 0%, 0%)" stroke-opacity="1" stroke-miterlimit="10" d="M 109.871905 138.88612 L 122.524609 131.591469 " transform="matrix(0.994414, 0, 0, -0.994414, -74.8168, 181.907234)"/>
<path fill="none" stroke-width="0.4" stroke-linecap="butt" stroke-linejoin="round" stroke="rgb(0%, 0%, 0%)" stroke-opacity="1" stroke-miterlimit="10" d="M 156.417043 151.326701 L 157.489439 137.597673 " transform="matrix(0.994414, 0, 0, -0.994414, -74.8168, 181.907234)"/>
<path fill="none" stroke-width="0.4" stroke-linecap="butt" stroke-linejoin="round" stroke="rgb(0%, 0%, 0%)" stroke-opacity="1" stroke-miterlimit="10" d="M 156.417043 151.326701 L 175.936225 158.189252 " transform="matrix(0.994414, 0, 0, -0.994414, -74.8168, 181.907234)"/>
<path fill="none" stroke-width="0.4" stroke-linecap="butt" stroke-linejoin="round" stroke="rgb(0%, 0%, 0%)" stroke-opacity="1" stroke-miterlimit="10" d="M 175.936225 158.189252 L 156.417043 151.326701 " transform="matrix(0.994414, 0, 0, -0.994414, -74.8168, 181.907234)"/>
<path fill="none" stroke-width="0.4" stroke-linecap="butt" stroke-linejoin="round" stroke="rgb(0%, 0%, 0%)" stroke-opacity="1" stroke-miterlimit="10" d="M 175.936225 158.189252 L 157.489439 137.597673 " transform="matrix(0.994414, 0, 0, -0.994414, -74.8168, 181.907234)"/>
<path fill="none" stroke-width="0.4" stroke-linecap="butt" stroke-linejoin="round" stroke="rgb(0%, 0%, 0%)" stroke-opacity="1" stroke-miterlimit="10" d="M 175.936225 158.189252 L 174.647779 140.174566 " transform="matrix(0.994414, 0, 0, -0.994414, -74.8168, 181.907234)"/>
<path fill="none" stroke-width="0.4" stroke-linecap="butt" stroke-linejoin="round" stroke="rgb(0%, 0%, 0%)" stroke-opacity="1" stroke-miterlimit="10" d="M 183.014826 132.451742 L 174.647779 140.174566 " transform="matrix(0.994414, 0, 0, -0.994414, -74.8168, 181.907234)"/>
<path fill="none" stroke-width="0.4" stroke-linecap="butt" stroke-linejoin="round" stroke="rgb(0%, 0%, 0%)" stroke-opacity="1" stroke-miterlimit="10" d="M 183.014826 132.451742 L 157.489439 137.597673 " transform="matrix(0.994414, 0, 0, -0.994414, -74.8168, 181.907234)"/>
<path fill="none" stroke-width="0.4" stroke-linecap="butt" stroke-linejoin="round" stroke="rgb(0%, 0%, 0%)" stroke-opacity="1" stroke-miterlimit="10" d="M 183.014826 132.451742 L 157.273389 98.131136 " transform="matrix(0.994414, 0, 0, -0.994414, -74.8168, 181.907234)"/>
<path fill="none" stroke-width="0.4" stroke-linecap="butt" stroke-linejoin="round" stroke="rgb(0%, 0%, 0%)" stroke-opacity="1" stroke-miterlimit="10" d="M 174.647779 140.174566 L 157.489439 137.597673 " transform="matrix(0.994414, 0, 0, -0.994414, -74.8168, 181.907234)"/>
<path fill="none" stroke-width="0.4" stroke-linecap="butt" stroke-linejoin="round" stroke="rgb(0%, 0%, 0%)" stroke-opacity="1" stroke-miterlimit="10" d="M 174.647779 140.174566 L 183.014826 132.451742 " transform="matrix(0.994414, 0, 0, -0.994414, -74.8168, 181.907234)"/>
<path fill="none" stroke-width="0.4" stroke-linecap="butt" stroke-linejoin="round" stroke="rgb(0%, 0%, 0%)" stroke-opacity="1" stroke-miterlimit="10" d="M 157.489439 137.597673 L 122.524609 131.591469 " transform="matrix(0.994414, 0, 0, -0.994414, -74.8168, 181.907234)"/>
<path fill="none" stroke-width="0.4" stroke-linecap="butt" stroke-linejoin="round" stroke="rgb(0%, 0%, 0%)" stroke-opacity="1" stroke-miterlimit="10" d="M 157.489439 137.597673 L 157.273389 98.131136 " transform="matrix(0.994414, 0, 0, -0.994414, -74.8168, 181.907234)"/>
<path fill="none" stroke-width="0.4" stroke-linecap="butt" stroke-linejoin="round" stroke="rgb(0%, 0%, 0%)" stroke-opacity="1" stroke-miterlimit="10" d="M 157.489439 137.597673 L 174.647779 140.174566 " transform="matrix(0.994414, 0, 0, -0.994414, -74.8168, 181.907234)"/>
<path fill="none" stroke-width="0.4" stroke-linecap="butt" stroke-linejoin="round" stroke="rgb(0%, 0%, 0%)" stroke-opacity="1" stroke-miterlimit="10" d="M 122.524609 131.591469 L 122.249636 91.869599 " transform="matrix(0.994414, 0, 0, -0.994414, -74.8168, 181.907234)"/>
<path fill="none" stroke-width="0.4" stroke-linecap="butt" stroke-linejoin="round" stroke="rgb(0%, 0%, 0%)" stroke-opacity="1" stroke-miterlimit="10" d="M 122.524609 131.591469 L 157.273389 98.131136 " transform="matrix(0.994414, 0, 0, -0.994414, -74.8168, 181.907234)"/>
<path fill="none" stroke-width="0.4" stroke-linecap="butt" stroke-linejoin="round" stroke="rgb(0%, 0%, 0%)" stroke-opacity="1" stroke-miterlimit="10" d="M 122.524609 131.591469 L 157.489439 137.597673 " transform="matrix(0.994414, 0, 0, -0.994414, -74.8168, 181.907234)"/>
<path fill="none" stroke-width="0.4" stroke-linecap="butt" stroke-linejoin="round" stroke="rgb(0%, 0%, 0%)" stroke-opacity="1" stroke-miterlimit="10" d="M 122.524609 131.591469 L 92.709637 125.585264 " transform="matrix(0.994414, 0, 0, -0.994414, -74.8168, 181.907234)"/>
<path fill="none" stroke-width="0.4" stroke-linecap="butt" stroke-linejoin="round" stroke="rgb(0%, 0%, 0%)" stroke-opacity="1" stroke-miterlimit="10" d="M 92.709637 125.585264 L 122.524609 131.591469 " transform="matrix(0.994414, 0, 0, -0.994414, -74.8168, 181.907234)"/>
<path fill="none" stroke-width="0.4" stroke-linecap="butt" stroke-linejoin="round" stroke="rgb(0%, 0%, 0%)" stroke-opacity="1" stroke-miterlimit="10" d="M 92.709637 125.585264 L 96.999222 75.606887 " transform="matrix(0.994414, 0, 0, -0.994414, -74.8168, 181.907234)"/>
<path fill="none" stroke-width="0.4" stroke-linecap="butt" stroke-linejoin="round" stroke="rgb(0%, 0%, 0%)" stroke-opacity="1" stroke-miterlimit="10" d="M 92.709637 125.585264 L 122.249636 91.869599 " transform="matrix(0.994414, 0, 0, -0.994414, -74.8168, 181.907234)"/>
<path fill="none" stroke-width="0.4" stroke-linecap="butt" stroke-linejoin="round" stroke="rgb(0%, 0%, 0%)" stroke-opacity="1" stroke-miterlimit="10" d="M 157.273389 98.131136 L 96.999222 75.606887 " transform="matrix(0.994414, 0, 0, -0.994414, -74.8168, 181.907234)"/>
<path fill="none" stroke-width="0.4" stroke-linecap="butt" stroke-linejoin="round" stroke="rgb(0%, 0%, 0%)" stroke-opacity="1" stroke-miterlimit="10" d="M 122.249636 91.869599 L 157.273389 98.131136 " transform="matrix(0.994414, 0, 0, -0.994414, -74.8168, 181.907234)"/>
<path fill="none" stroke-width="0.4" stroke-linecap="butt" stroke-linejoin="round" stroke="rgb(0%, 0%, 0%)" stroke-opacity="1" stroke-miterlimit="10" d="M 96.999222 75.606887 L 122.249636 91.869599 " transform="matrix(0.994414, 0, 0, -0.994414, -74.8168, 181.907234)"/>
<path fill-rule="nonzero" fill="rgb(78.399658%, 48.599243%, 75.19989%)" fill-opacity="1" stroke-width="0.4" stroke-linecap="butt" stroke-linejoin="round" stroke="rgb(0%, 0%, 0%)" stroke-opacity="1" stroke-miterlimit="10" d="M 84.609707 171.871142 C 84.609707 170.566982 83.553024 169.510299 82.248864 169.510299 C 80.948633 169.510299 79.891949 170.566982 79.891949 171.871142 C 79.891949 173.171373 80.948633 174.228056 82.248864 174.228056 C 83.553024 174.228056 84.609707 173.171373 84.609707 171.871142 " transform="matrix(0.994414, 0, 0, -0.994414, -74.8168, 181.907234)"/>
<path fill-rule="nonzero" fill="rgb(86.199951%, 88.198853%, 17.199707%)" fill-opacity="1" stroke-width="0.4" stroke-linecap="butt" stroke-linejoin="round" stroke="rgb(0%, 0%, 0%)" stroke-opacity="1" stroke-miterlimit="10" d="M 90.136672 158.189252 C 90.136672 156.88902 89.079989 155.832337 87.775829 155.832337 C 86.475598 155.832337 85.418915 156.88902 85.418915 158.189252 C 85.418915 159.493411 86.475598 160.550094 87.775829 160.550094 C 89.079989 160.550094 90.136672 159.493411 90.136672 158.189252 " transform="matrix(0.994414, 0, 0, -0.994414, -74.8168, 181.907234)"/>
<path fill-rule="nonzero" fill="rgb(54.098511%, 22.299194%, 82.299805%)" fill-opacity="1" stroke-width="0.4" stroke-linecap="butt" stroke-linejoin="round" stroke="rgb(0%, 0%, 0%)" stroke-opacity="1" stroke-miterlimit="10" d="M 103.64965 152.183047 C 103.64965 150.882816 102.592967 149.826132 101.288807 149.826132 C 99.988576 149.826132 98.931892 150.882816 98.931892 152.183047 C 98.931892 153.487207 99.988576 154.54389 101.288807 154.54389 C 102.592967 154.54389 103.64965 153.487207 103.64965 152.183047 " transform="matrix(0.994414, 0, 0, -0.994414, -74.8168, 181.907234)"/>
<path fill-rule="nonzero" fill="rgb(19.898987%, 63.09967%, 75.999451%)" fill-opacity="1" stroke-width="0.4" stroke-linecap="butt" stroke-linejoin="round" stroke="rgb(0%, 0%, 0%)" stroke-opacity="1" stroke-miterlimit="10" d="M 122.74066 151.542752 C 122.74066 150.238592 121.683976 149.181909 120.379817 149.181909 C 119.079585 149.181909 118.022902 150.238592 118.022902 151.542752 C 118.022902 152.842983 119.079585 153.899667 120.379817 153.899667 C 121.683976 153.899667 122.74066 152.842983 122.74066 151.542752 " transform="matrix(0.994414, 0, 0, -0.994414, -74.8168, 181.907234)"/>
<path fill-rule="nonzero" fill="rgb(20.698547%, 92.89856%, 35.198975%)" fill-opacity="1" stroke-width="0.4" stroke-linecap="butt" stroke-linejoin="round" stroke="rgb(0%, 0%, 0%)" stroke-opacity="1" stroke-miterlimit="10" d="M 144.6089 151.868792 C 144.6089 150.56856 143.552217 149.511877 142.248057 149.511877 C 140.947826 149.511877 139.891143 150.56856 139.891143 151.868792 C 139.891143 153.172951 140.947826 154.229635 142.248057 154.229635 C 143.552217 154.229635 144.6089 153.172951 144.6089 151.868792 " transform="matrix(0.994414, 0, 0, -0.994414, -74.8168, 181.907234)"/>
<path fill-rule="nonzero" fill="rgb(41.499329%, 86.999512%, 49.398804%)" fill-opacity="1" stroke-width="0.4" stroke-linecap="butt" stroke-linejoin="round" stroke="rgb(0%, 0%, 0%)" stroke-opacity="1" stroke-miterlimit="10" d="M 164.351989 163.983334 C 164.351989 162.679174 163.295306 161.622491 161.995075 161.622491 C 160.690915 161.622491 159.634232 162.679174 159.634232 163.983334 C 159.634232 165.283565 160.690915 166.340248 161.995075 166.340248 C 163.295306 166.340248 164.351989 165.283565 164.351989 163.983334 " transform="matrix(0.994414, 0, 0, -0.994414, -74.8168, 181.907234)"/>
<path fill-rule="nonzero" fill="rgb(51.298523%, 10.499573%, 3.898621%)" fill-opacity="1" stroke-width="0.4" stroke-linecap="butt" stroke-linejoin="round" stroke="rgb(0%, 0%, 0%)" stroke-opacity="1" stroke-miterlimit="10" d="M 172.609047 179.868939 C 172.609047 178.568708 171.552364 177.508096 170.248205 177.508096 C 168.947973 177.508096 167.89129 178.568708 167.89129 179.868939 C 167.89129 181.173099 168.947973 182.229782 170.248205 182.229782 C 171.552364 182.229782 172.609047 181.173099 172.609047 179.868939 " transform="matrix(0.994414, 0, 0, -0.994414, -74.8168, 181.907234)"/>
<g clip-path="url(#clip-0)">
<path fill-rule="nonzero" fill="rgb(20.298767%, 25%, 26.599121%)" fill-opacity="1" stroke-width="0.4" stroke-linecap="butt" stroke-linejoin="round" stroke="rgb(0%, 0%, 0%)" stroke-opacity="1" stroke-miterlimit="10" d="M 189.02103 158.621353 C 189.02103 157.317193 187.964347 156.26051 186.660188 156.26051 C 185.359956 156.26051 184.303273 157.317193 184.303273 158.621353 C 184.303273 159.921584 185.359956 160.978267 186.660188 160.978267 C 187.964347 160.978267 189.02103 159.921584 189.02103 158.621353 " transform="matrix(0.994414, 0, 0, -0.994414, -74.8168, 181.907234)"/>
</g>
<g clip-path="url(#clip-1)">
<path fill-rule="nonzero" fill="rgb(100%, 100%, 0%)" fill-opacity="1" stroke-width="0.4" stroke-linecap="butt" stroke-linejoin="round" stroke="rgb(0%, 0%, 0%)" stroke-opacity="1" stroke-miterlimit="10" d="M 189.02103 145.536548 C 189.02103 144.232388 187.964347 143.175705 186.660188 143.175705 C 185.359956 143.175705 184.303273 144.232388 184.303273 145.536548 C 184.303273 146.836779 185.359956 147.893462 186.660188 147.893462 C 187.964347 147.893462 189.02103 146.836779 189.02103 145.536548 " transform="matrix(0.994414, 0, 0, -0.994414, -74.8168, 181.907234)"/>
</g>
<g clip-path="url(#clip-2)">
<path fill-rule="nonzero" fill="rgb(100%, 12.098694%, 23.498535%)" fill-opacity="1" stroke-width="0.4" stroke-linecap="butt" stroke-linejoin="round" stroke="rgb(0%, 0%, 0%)" stroke-opacity="1" stroke-miterlimit="10" d="M 80.697229 150.682478 C 80.697229 149.382247 79.640545 148.325563 78.340314 148.325563 C 77.036154 148.325563 75.979471 149.382247 75.979471 150.682478 C 75.979471 151.986638 77.036154 153.043321 78.340314 153.043321 C 79.640545 153.043321 80.697229 151.986638 80.697229 150.682478 " transform="matrix(0.994414, 0, 0, -0.994414, -74.8168, 181.907234)"/>
</g>
<path fill-rule="nonzero" fill="rgb(48.599243%, 87.799072%, 17.599487%)" fill-opacity="1" stroke-width="0.4" stroke-linecap="butt" stroke-linejoin="round" stroke="rgb(0%, 0%, 0%)" stroke-opacity="1" stroke-miterlimit="10" d="M 112.22882 138.88612 C 112.22882 137.58196 111.172136 136.525277 109.871905 136.525277 C 108.567746 136.525277 107.511062 137.58196 107.511062 138.88612 C 107.511062 140.190279 108.567746 141.246963 109.871905 141.246963 C 111.172136 141.246963 112.22882 140.190279 112.22882 138.88612 " transform="matrix(0.994414, 0, 0, -0.994414, -74.8168, 181.907234)"/>
<path fill-rule="nonzero" fill="rgb(36.399841%, 4.699707%, 96.398926%)" fill-opacity="1" stroke-width="0.4" stroke-linecap="butt" stroke-linejoin="round" stroke="rgb(0%, 0%, 0%)" stroke-opacity="1" stroke-miterlimit="10" d="M 158.777886 151.326701 C 158.777886 150.022542 157.721203 148.969787 156.417043 148.969787 C 155.112884 148.969787 154.0562 150.022542 154.0562 151.326701 C 154.0562 152.630861 155.112884 153.687544 156.417043 153.687544 C 157.721203 153.687544 158.777886 152.630861 158.777886 151.326701 " transform="matrix(0.994414, 0, 0, -0.994414, -74.8168, 181.907234)"/>
<path fill-rule="nonzero" fill="rgb(58.799744%, 86.999512%, 82.299805%)" fill-opacity="1" stroke-width="0.4" stroke-linecap="butt" stroke-linejoin="round" stroke="rgb(0%, 0%, 0%)" stroke-opacity="1" stroke-miterlimit="10" d="M 178.297068 158.189252 C 178.297068 156.88902 177.240385 155.832337 175.936225 155.832337 C 174.632066 155.832337 173.575383 156.88902 173.575383 158.189252 C 173.575383 159.493411 174.632066 160.550094 175.936225 160.550094 C 177.240385 160.550094 178.297068 159.493411 178.297068 158.189252 " transform="matrix(0.994414, 0, 0, -0.994414, -74.8168, 181.907234)"/>
<path fill-rule="nonzero" fill="rgb(21.499634%, 63.09967%, 35.998535%)" fill-opacity="1" stroke-width="0.4" stroke-linecap="butt" stroke-linejoin="round" stroke="rgb(0%, 0%, 0%)" stroke-opacity="1" stroke-miterlimit="10" d="M 185.375669 132.451742 C 185.375669 131.147583 184.318986 130.0909 183.014826 130.0909 C 181.710667 130.0909 180.653983 131.147583 180.653983 132.451742 C 180.653983 133.755902 181.710667 134.808657 183.014826 134.808657 C 184.318986 134.808657 185.375669 133.755902 185.375669 132.451742 " transform="matrix(0.994414, 0, 0, -0.994414, -74.8168, 181.907234)"/>
<path fill-rule="nonzero" fill="rgb(14.099121%, 98.399353%, 56.399536%)" fill-opacity="1" stroke-width="0.4" stroke-linecap="butt" stroke-linejoin="round" stroke="rgb(0%, 0%, 0%)" stroke-opacity="1" stroke-miterlimit="10" d="M 177.008622 140.174566 C 177.008622 138.870407 175.951938 137.813724 174.647779 137.813724 C 173.347547 137.813724 172.290864 138.870407 172.290864 140.174566 C 172.290864 141.474798 173.347547 142.531481 174.647779 142.531481 C 175.951938 142.531481 177.008622 141.474798 177.008622 140.174566 " transform="matrix(0.994414, 0, 0, -0.994414, -74.8168, 181.907234)"/>
<path fill-rule="nonzero" fill="rgb(1.098633%, 47.399902%, 77.198792%)" fill-opacity="1" stroke-width="0.4" stroke-linecap="butt" stroke-linejoin="round" stroke="rgb(0%, 0%, 0%)" stroke-opacity="1" stroke-miterlimit="10" d="M 159.850282 137.597673 C 159.850282 136.297442 158.793599 135.240758 157.489439 135.240758 C 156.18528 135.240758 155.128596 136.297442 155.128596 137.597673 C 155.128596 138.901832 156.18528 139.958516 157.489439 139.958516 C 158.793599 139.958516 159.850282 138.901832 159.850282 137.597673 " transform="matrix(0.994414, 0, 0, -0.994414, -74.8168, 181.907234)"/>
<path fill-rule="nonzero" fill="rgb(11.698914%, 51.298523%, 18.399048%)" fill-opacity="1" stroke-width="0.4" stroke-linecap="butt" stroke-linejoin="round" stroke="rgb(0%, 0%, 0%)" stroke-opacity="1" stroke-miterlimit="10" d="M 124.885452 131.591469 C 124.885452 130.291237 123.828769 129.234554 122.524609 129.234554 C 121.224378 129.234554 120.167694 130.291237 120.167694 131.591469 C 120.167694 132.895628 121.224378 133.952312 122.524609 133.952312 C 123.828769 133.952312 124.885452 132.895628 124.885452 131.591469 " transform="matrix(0.994414, 0, 0, -0.994414, -74.8168, 181.907234)"/>
<path fill-rule="nonzero" fill="rgb(36.799622%, 77.999878%, 69.799805%)" fill-opacity="1" stroke-width="0.4" stroke-linecap="butt" stroke-linejoin="round" stroke="rgb(0%, 0%, 0%)" stroke-opacity="1" stroke-miterlimit="10" d="M 95.07048 125.585264 C 95.07048 124.285033 94.013797 123.228349 92.709637 123.228349 C 91.405478 123.228349 90.352723 124.285033 90.352723 125.585264 C 90.352723 126.889424 91.405478 127.946107 92.709637 127.946107 C 94.013797 127.946107 95.07048 126.889424 95.07048 125.585264 " transform="matrix(0.994414, 0, 0, -0.994414, -74.8168, 181.907234)"/>
<path fill-rule="nonzero" fill="rgb(62.298584%, 97.198486%, 90.499878%)" fill-opacity="1" stroke-width="0.4" stroke-linecap="butt" stroke-linejoin="round" stroke="rgb(0%, 0%, 0%)" stroke-opacity="1" stroke-miterlimit="10" d="M 159.634232 98.131136 C 159.634232 96.826976 158.577548 95.770293 157.273389 95.770293 C 155.973158 95.770293 154.916474 96.826976 154.916474 98.131136 C 154.916474 99.435295 155.973158 100.48805 157.273389 100.48805 C 158.577548 100.48805 159.634232 99.435295 159.634232 98.131136 " transform="matrix(0.994414, 0, 0, -0.994414, -74.8168, 181.907234)"/>
<path fill-rule="nonzero" fill="rgb(74.499512%, 20.298767%, 99.198914%)" fill-opacity="1" stroke-width="0.4" stroke-linecap="butt" stroke-linejoin="round" stroke="rgb(0%, 0%, 0%)" stroke-opacity="1" stroke-miterlimit="10" d="M 124.610479 91.869599 C 124.610479 90.565439 123.553795 89.508756 122.249636 89.508756 C 120.945476 89.508756 119.892721 90.565439 119.892721 91.869599 C 119.892721 93.173758 120.945476 94.230442 122.249636 94.230442 C 123.553795 94.230442 124.610479 93.173758 124.610479 91.869599 " transform="matrix(0.994414, 0, 0, -0.994414, -74.8168, 181.907234)"/>
<g clip-path="url(#clip-3)">
<path fill-rule="nonzero" fill="rgb(0%, 0%, 100%)" fill-opacity="1" d="M 23.988281 106.722656 C 23.988281 108.015625 22.9375 109.066406 21.640625 109.066406 C 20.347656 109.066406 19.296875 108.015625 19.296875 106.722656 C 19.296875 105.425781 20.347656 104.375 21.640625 104.375 C 22.9375 104.375 23.988281 105.425781 23.988281 106.722656 "/>
</g>
<g clip-path="url(#clip-4)">
<path fill="none" stroke-width="0.4" stroke-linecap="butt" stroke-linejoin="round" stroke="rgb(0%, 0%, 0%)" stroke-opacity="1" stroke-miterlimit="10" d="M 99.360065 75.606887 C 99.360065 74.306656 98.303382 73.249972 96.999222 73.249972 C 95.698991 73.249972 94.642308 74.306656 94.642308 75.606887 C 94.642308 76.911046 95.698991 77.96773 96.999222 77.96773 C 98.303382 77.96773 99.360065 76.911046 99.360065 75.606887 " transform="matrix(0.994414, 0, 0, -0.994414, -74.8168, 181.907234)"/>
</g>
</svg>
