<?xml version="1.0" encoding="UTF-8"?>
<svg xmlns="http://www.w3.org/2000/svg" xmlns:xlink="http://www.w3.org/1999/xlink" width="108.7222" height="104.6615" viewBox="0 0 108.7222 104.6615">
<defs>
<clipPath id="clip-0">
<path clip-rule="nonzero" d="M 0.0351562 7 L 5 7 L 5 30 L 0.0351562 30 Z M 0.0351562 7 "/>
</clipPath>
<clipPath id="clip-1">
<path clip-rule="nonzero" d="M 0.0351562 21 L 10 21 L 10 30 L 0.0351562 30 Z M 0.0351562 21 "/>
</clipPath>
<clipPath id="clip-2">
<path clip-rule="nonzero" d="M 0.0351562 27 L 24 27 L 24 30 L 0.0351562 30 Z M 0.0351562 27 "/>
</clipPath>
<clipPath id="clip-3">
<path clip-rule="nonzero" d="M 91 0 L 108.410156 0 L 108.410156 22 L 91 22 Z M 91 0 "/>
</clipPath>
<clipPath id="clip-4">
<path clip-rule="nonzero" d="M 97 21 L 108.410156 21 L 108.410156 23 L 97 23 Z M 97 21 "/>
</clipPath>
<clipPath id="clip-5">
<path clip-rule="nonzero" d="M 108 21 L 108.410156 21 L 108.410156 35 L 108 35 Z M 108 21 "/>
</clipPath>
<clipPath id="clip-6">
<path clip-rule="nonzero" d="M 97 21 L 108.410156 21 L 108.410156 35 L 97 35 Z M 97 21 "/>
</clipPath>
<clipPath id="clip-7">
<path clip-rule="nonzero" d="M 96 34 L 108.410156 34 L 108.410156 40 L 96 40 Z M 96 34 "/>
</clipPath>
<clipPath id="clip-8">
<path clip-rule="nonzero" d="M 104 34 L 108.410156 34 L 108.410156 48 L 104 48 Z M 104 34 "/>
</clipPath>
<clipPath id="clip-9">
<path clip-rule="nonzero" d="M 0.0351562 29 L 20 29 L 20 104.324219 L 0.0351562 104.324219 Z M 0.0351562 29 "/>
</clipPath>
<clipPath id="clip-10">
<path clip-rule="nonzero" d="M 0.0351562 29 L 15 29 L 15 55 L 0.0351562 55 Z M 0.0351562 29 "/>
</clipPath>
<clipPath id="clip-11">
<path clip-rule="nonzero" d="M 14 54 L 20 54 L 20 104.324219 L 14 104.324219 Z M 14 54 "/>
</clipPath>
<clipPath id="clip-12">
<path clip-rule="nonzero" d="M 18 81 L 80 81 L 80 104.324219 L 18 104.324219 Z M 18 81 "/>
</clipPath>
<clipPath id="clip-13">
<path clip-rule="nonzero" d="M 18 87 L 45 87 L 45 104.324219 L 18 104.324219 Z M 18 87 "/>
</clipPath>
</defs>
<path fill="none" stroke-width="0.4" stroke-linecap="butt" stroke-linejoin="round" stroke="rgb(0%, 0%, 0%)" stroke-opacity="1" stroke-miterlimit="10" d="M 82.248062 171.871695 L 101.289918 152.183223 " transform="matrix(0.996776, 0, 0, -0.996776, -77.850098, 179.489489)"/>
<path fill="none" stroke-width="0.4" stroke-linecap="butt" stroke-linejoin="round" stroke="rgb(0%, 0%, 0%)" stroke-opacity="1" stroke-miterlimit="10" d="M 82.248062 171.871695 L 120.378801 151.540526 " transform="matrix(0.996776, 0, 0, -0.996776, -77.850098, 179.489489)"/>
<path fill="none" stroke-width="0.4" stroke-linecap="butt" stroke-linejoin="round" stroke="rgb(0%, 0%, 0%)" stroke-opacity="1" stroke-miterlimit="10" d="M 82.248062 171.871695 L 170.250516 179.870137 " transform="matrix(0.996776, 0, 0, -0.996776, -77.850098, 179.489489)"/>
<g clip-path="url(#clip-0)">
<path fill="none" stroke-width="0.4" stroke-linecap="butt" stroke-linejoin="round" stroke="rgb(0%, 0%, 0%)" stroke-opacity="1" stroke-miterlimit="10" d="M 82.248062 171.871695 L 78.337016 150.682291 " transform="matrix(0.996776, 0, 0, -0.996776, -77.850098, 179.489489)"/>
</g>
<path fill="none" stroke-width="0.4" stroke-linecap="butt" stroke-linejoin="round" stroke="rgb(0%, 0%, 0%)" stroke-opacity="1" stroke-miterlimit="10" d="M 87.777607 158.190872 L 82.248062 171.871695 " transform="matrix(0.996776, 0, 0, -0.996776, -77.850098, 179.489489)"/>
<g clip-path="url(#clip-1)">
<path fill="none" stroke-width="0.4" stroke-linecap="butt" stroke-linejoin="round" stroke="rgb(0%, 0%, 0%)" stroke-opacity="1" stroke-miterlimit="10" d="M 87.777607 158.190872 L 78.337016 150.682291 " transform="matrix(0.996776, 0, 0, -0.996776, -77.850098, 179.489489)"/>
</g>
<path fill="none" stroke-width="0.4" stroke-linecap="butt" stroke-linejoin="round" stroke="rgb(0%, 0%, 0%)" stroke-opacity="1" stroke-miterlimit="10" d="M 87.777607 158.190872 L 101.289918 152.183223 " transform="matrix(0.996776, 0, 0, -0.996776, -77.850098, 179.489489)"/>
<path fill="none" stroke-width="0.4" stroke-linecap="butt" stroke-linejoin="round" stroke="rgb(0%, 0%, 0%)" stroke-opacity="1" stroke-miterlimit="10" d="M 101.289918 152.183223 L 120.38272 151.540526 " transform="matrix(0.996776, 0, 0, -0.996776, -77.850098, 179.489489)"/>
<path fill="none" stroke-width="0.4" stroke-linecap="butt" stroke-linejoin="round" stroke="rgb(0%, 0%, 0%)" stroke-opacity="1" stroke-miterlimit="10" d="M 101.289918 152.183223 L 87.777607 158.190872 " transform="matrix(0.996776, 0, 0, -0.996776, -77.850098, 179.489489)"/>
<g clip-path="url(#clip-2)">
<path fill="none" stroke-width="0.4" stroke-linecap="butt" stroke-linejoin="round" stroke="rgb(0%, 0%, 0%)" stroke-opacity="1" stroke-miterlimit="10" d="M 101.289918 152.183223 L 78.337016 150.682291 " transform="matrix(0.996776, 0, 0, -0.996776, -77.850098, 179.489489)"/>
</g>
<path fill="none" stroke-width="0.4" stroke-linecap="butt" stroke-linejoin="round" stroke="rgb(0%, 0%, 0%)" stroke-opacity="1" stroke-miterlimit="10" d="M 101.289918 152.183223 L 92.711482 125.585759 " transform="matrix(0.996776, 0, 0, -0.996776, -77.850098, 179.489489)"/>
<path fill="none" stroke-width="0.4" stroke-linecap="butt" stroke-linejoin="round" stroke="rgb(0%, 0%, 0%)" stroke-opacity="1" stroke-miterlimit="10" d="M 101.289918 152.183223 L 109.868355 138.886451 " transform="matrix(0.996776, 0, 0, -0.996776, -77.850098, 179.489489)"/>
<path fill="none" stroke-width="0.4" stroke-linecap="butt" stroke-linejoin="round" stroke="rgb(0%, 0%, 0%)" stroke-opacity="1" stroke-miterlimit="10" d="M 120.38272 151.540526 L 101.289918 152.183223 " transform="matrix(0.996776, 0, 0, -0.996776, -77.850098, 179.489489)"/>
<path fill="none" stroke-width="0.4" stroke-linecap="butt" stroke-linejoin="round" stroke="rgb(0%, 0%, 0%)" stroke-opacity="1" stroke-miterlimit="10" d="M 120.38272 151.540526 L 109.868355 138.886451 " transform="matrix(0.996776, 0, 0, -0.996776, -77.850098, 179.489489)"/>
<path fill="none" stroke-width="0.4" stroke-linecap="butt" stroke-linejoin="round" stroke="rgb(0%, 0%, 0%)" stroke-opacity="1" stroke-miterlimit="10" d="M 120.38272 151.540526 L 122.526349 131.593408 " transform="matrix(0.996776, 0, 0, -0.996776, -77.850098, 179.489489)"/>
<path fill="none" stroke-width="0.4" stroke-linecap="butt" stroke-linejoin="round" stroke="rgb(0%, 0%, 0%)" stroke-opacity="1" stroke-miterlimit="10" d="M 120.378801 151.540526 L 142.250091 151.869713 " transform="matrix(0.996776, 0, 0, -0.996776, -77.850098, 179.489489)"/>
<path fill="none" stroke-width="0.4" stroke-linecap="butt" stroke-linejoin="round" stroke="rgb(0%, 0%, 0%)" stroke-opacity="1" stroke-miterlimit="10" d="M 120.38272 151.540526 L 161.993427 163.982982 " transform="matrix(0.996776, 0, 0, -0.996776, -77.850098, 179.489489)"/>
<path fill="none" stroke-width="0.4" stroke-linecap="butt" stroke-linejoin="round" stroke="rgb(0%, 0%, 0%)" stroke-opacity="1" stroke-miterlimit="10" d="M 120.378801 151.540526 L 170.250516 179.870137 " transform="matrix(0.996776, 0, 0, -0.996776, -77.850098, 179.489489)"/>
<path fill="none" stroke-width="0.4" stroke-linecap="butt" stroke-linejoin="round" stroke="rgb(0%, 0%, 0%)" stroke-opacity="1" stroke-miterlimit="10" d="M 142.250091 151.869713 L 157.49063 137.597138 " transform="matrix(0.996776, 0, 0, -0.996776, -77.850098, 179.489489)"/>
<path fill="none" stroke-width="0.4" stroke-linecap="butt" stroke-linejoin="round" stroke="rgb(0%, 0%, 0%)" stroke-opacity="1" stroke-miterlimit="10" d="M 142.250091 151.869713 L 156.416856 151.328907 " transform="matrix(0.996776, 0, 0, -0.996776, -77.850098, 179.489489)"/>
<path fill="none" stroke-width="0.4" stroke-linecap="butt" stroke-linejoin="round" stroke="rgb(0%, 0%, 0%)" stroke-opacity="1" stroke-miterlimit="10" d="M 142.250091 151.869713 L 122.526349 131.593408 " transform="matrix(0.996776, 0, 0, -0.996776, -77.850098, 179.489489)"/>
<path fill="none" stroke-width="0.4" stroke-linecap="butt" stroke-linejoin="round" stroke="rgb(0%, 0%, 0%)" stroke-opacity="1" stroke-miterlimit="10" d="M 161.993427 163.982982 L 142.250091 151.869713 " transform="matrix(0.996776, 0, 0, -0.996776, -77.850098, 179.489489)"/>
<path fill="none" stroke-width="0.4" stroke-linecap="butt" stroke-linejoin="round" stroke="rgb(0%, 0%, 0%)" stroke-opacity="1" stroke-miterlimit="10" d="M 161.993427 163.982982 L 156.416856 151.328907 " transform="matrix(0.996776, 0, 0, -0.996776, -77.850098, 179.489489)"/>
<path fill="none" stroke-width="0.4" stroke-linecap="butt" stroke-linejoin="round" stroke="rgb(0%, 0%, 0%)" stroke-opacity="1" stroke-miterlimit="10" d="M 161.993427 163.982982 L 175.936816 158.190872 " transform="matrix(0.996776, 0, 0, -0.996776, -77.850098, 179.489489)"/>
<path fill="none" stroke-width="0.4" stroke-linecap="butt" stroke-linejoin="round" stroke="rgb(0%, 0%, 0%)" stroke-opacity="1" stroke-miterlimit="10" d="M 170.250516 179.870137 L 175.936816 158.190872 " transform="matrix(0.996776, 0, 0, -0.996776, -77.850098, 179.489489)"/>
<path fill="none" stroke-width="0.4" stroke-linecap="butt" stroke-linejoin="round" stroke="rgb(0%, 0%, 0%)" stroke-opacity="1" stroke-miterlimit="10" d="M 170.250516 179.870137 L 161.993427 163.982982 " transform="matrix(0.996776, 0, 0, -0.996776, -77.850098, 179.489489)"/>
<g clip-path="url(#clip-3)">
<path fill="none" stroke-width="0.4" stroke-linecap="butt" stroke-linejoin="round" stroke="rgb(0%, 0%, 0%)" stroke-opacity="1" stroke-miterlimit="10" d="M 186.662801 158.621949 L 170.250516 179.870137 " transform="matrix(0.996776, 0, 0, -0.996776, -77.850098, 179.489489)"/>
</g>
<g clip-path="url(#clip-4)">
<path fill="none" stroke-width="0.4" stroke-linecap="butt" stroke-linejoin="round" stroke="rgb(0%, 0%, 0%)" stroke-opacity="1" stroke-miterlimit="10" d="M 186.662801 158.621949 L 175.936816 158.190872 " transform="matrix(0.996776, 0, 0, -0.996776, -77.850098, 179.489489)"/>
</g>
<g clip-path="url(#clip-5)">
<path fill="none" stroke-width="0.4" stroke-linecap="butt" stroke-linejoin="round" stroke="rgb(0%, 0%, 0%)" stroke-opacity="1" stroke-miterlimit="10" d="M 186.662801 158.621949 L 186.662801 145.536797 " transform="matrix(0.996776, 0, 0, -0.996776, -77.850098, 179.489489)"/>
<path fill="none" stroke-width="0.4" stroke-linecap="butt" stroke-linejoin="round" stroke="rgb(0%, 0%, 0%)" stroke-opacity="1" stroke-miterlimit="10" d="M 186.662801 145.536797 L 186.662801 158.621949 " transform="matrix(0.996776, 0, 0, -0.996776, -77.850098, 179.489489)"/>
</g>
<g clip-path="url(#clip-6)">
<path fill="none" stroke-width="0.4" stroke-linecap="butt" stroke-linejoin="round" stroke="rgb(0%, 0%, 0%)" stroke-opacity="1" stroke-miterlimit="10" d="M 186.662801 145.536797 L 175.936816 158.190872 " transform="matrix(0.996776, 0, 0, -0.996776, -77.850098, 179.489489)"/>
</g>
<g clip-path="url(#clip-7)">
<path fill="none" stroke-width="0.4" stroke-linecap="butt" stroke-linejoin="round" stroke="rgb(0%, 0%, 0%)" stroke-opacity="1" stroke-miterlimit="10" d="M 186.662801 145.536797 L 174.647503 140.171845 " transform="matrix(0.996776, 0, 0, -0.996776, -77.850098, 179.489489)"/>
</g>
<g clip-path="url(#clip-8)">
<path fill="none" stroke-width="0.4" stroke-linecap="butt" stroke-linejoin="round" stroke="rgb(0%, 0%, 0%)" stroke-opacity="1" stroke-miterlimit="10" d="M 186.662801 145.536797 L 183.01432 132.451644 " transform="matrix(0.996776, 0, 0, -0.996776, -77.850098, 179.489489)"/>
</g>
<g clip-path="url(#clip-9)">
<path fill="none" stroke-width="0.4" stroke-linecap="butt" stroke-linejoin="round" stroke="rgb(0%, 0%, 0%)" stroke-opacity="1" stroke-miterlimit="10" d="M 78.337016 150.682291 L 96.998741 75.608235 " transform="matrix(0.996776, 0, 0, -0.996776, -77.850098, 179.489489)"/>
</g>
<g clip-path="url(#clip-10)">
<path fill="none" stroke-width="0.4" stroke-linecap="butt" stroke-linejoin="round" stroke="rgb(0%, 0%, 0%)" stroke-opacity="1" stroke-miterlimit="10" d="M 78.337016 150.682291 L 92.711482 125.585759 " transform="matrix(0.996776, 0, 0, -0.996776, -77.850098, 179.489489)"/>
</g>
<path fill="none" stroke-width="0.4" stroke-linecap="butt" stroke-linejoin="round" stroke="rgb(0%, 0%, 0%)" stroke-opacity="1" stroke-miterlimit="10" d="M 109.868355 138.886451 L 92.711482 125.585759 " transform="matrix(0.996776, 0, 0, -0.996776, -77.850098, 179.489489)"/>
<path fill="none" stroke-width="0.4" stroke-linecap="butt" stroke-linejoin="round" stroke="rgb(0%, 0%, 0%)" stroke-opacity="1" stroke-miterlimit="10" d="M 109.868355 138.886451 L 122.526349 131.593408 " transform="matrix(0.996776, 0, 0, -0.996776, -77.850098, 179.489489)"/>
<path fill="none" stroke-width="0.4" stroke-linecap="butt" stroke-linejoin="round" stroke="rgb(0%, 0%, 0%)" stroke-opacity="1" stroke-miterlimit="10" d="M 156.416856 151.328907 L 157.49063 137.597138 " transform="matrix(0.996776, 0, 0, -0.996776, -77.850098, 179.489489)"/>
<path fill="none" stroke-width="0.4" stroke-linecap="butt" stroke-linejoin="round" stroke="rgb(0%, 0%, 0%)" stroke-opacity="1" stroke-miterlimit="10" d="M 156.416856 151.328907 L 175.936816 158.190872 " transform="matrix(0.996776, 0, 0, -0.996776, -77.850098, 179.489489)"/>
<path fill="none" stroke-width="0.4" stroke-linecap="butt" stroke-linejoin="round" stroke="rgb(0%, 0%, 0%)" stroke-opacity="1" stroke-miterlimit="10" d="M 175.936816 158.190872 L 156.416856 151.328907 " transform="matrix(0.996776, 0, 0, -0.996776, -77.850098, 179.489489)"/>
<path fill="none" stroke-width="0.4" stroke-linecap="butt" stroke-linejoin="round" stroke="rgb(0%, 0%, 0%)" stroke-opacity="1" stroke-miterlimit="10" d="M 175.936816 158.190872 L 157.49063 137.597138 " transform="matrix(0.996776, 0, 0, -0.996776, -77.850098, 179.489489)"/>
<path fill="none" stroke-width="0.4" stroke-linecap="butt" stroke-linejoin="round" stroke="rgb(0%, 0%, 0%)" stroke-opacity="1" stroke-miterlimit="10" d="M 175.936816 158.190872 L 174.647503 140.171845 " transform="matrix(0.996776, 0, 0, -0.996776, -77.850098, 179.489489)"/>
<path fill="none" stroke-width="0.4" stroke-linecap="butt" stroke-linejoin="round" stroke="rgb(0%, 0%, 0%)" stroke-opacity="1" stroke-miterlimit="10" d="M 183.01432 132.451644 L 174.647503 140.171845 " transform="matrix(0.996776, 0, 0, -0.996776, -77.850098, 179.489489)"/>
<path fill="none" stroke-width="0.4" stroke-linecap="butt" stroke-linejoin="round" stroke="rgb(0%, 0%, 0%)" stroke-opacity="1" stroke-miterlimit="10" d="M 183.01432 132.451644 L 157.49063 137.597138 " transform="matrix(0.996776, 0, 0, -0.996776, -77.850098, 179.489489)"/>
<path fill="none" stroke-width="0.4" stroke-linecap="butt" stroke-linejoin="round" stroke="rgb(0%, 0%, 0%)" stroke-opacity="1" stroke-miterlimit="10" d="M 183.01432 132.451644 L 157.275091 98.13006 " transform="matrix(0.996776, 0, 0, -0.996776, -77.850098, 179.489489)"/>
<path fill="none" stroke-width="0.4" stroke-linecap="butt" stroke-linejoin="round" stroke="rgb(0%, 0%, 0%)" stroke-opacity="1" stroke-miterlimit="10" d="M 174.647503 140.171845 L 157.49063 137.597138 " transform="matrix(0.996776, 0, 0, -0.996776, -77.850098, 179.489489)"/>
<path fill="none" stroke-width="0.4" stroke-linecap="butt" stroke-linejoin="round" stroke="rgb(0%, 0%, 0%)" stroke-opacity="1" stroke-miterlimit="10" d="M 174.647503 140.171845 L 183.01432 132.451644 " transform="matrix(0.996776, 0, 0, -0.996776, -77.850098, 179.489489)"/>
<path fill="none" stroke-width="0.4" stroke-linecap="butt" stroke-linejoin="round" stroke="rgb(0%, 0%, 0%)" stroke-opacity="1" stroke-miterlimit="10" d="M 157.49063 137.597138 L 122.526349 131.593408 " transform="matrix(0.996776, 0, 0, -0.996776, -77.850098, 179.489489)"/>
<path fill="none" stroke-width="0.4" stroke-linecap="butt" stroke-linejoin="round" stroke="rgb(0%, 0%, 0%)" stroke-opacity="1" stroke-miterlimit="10" d="M 157.49063 137.597138 L 157.275091 98.13006 " transform="matrix(0.996776, 0, 0, -0.996776, -77.850098, 179.489489)"/>
<path fill="none" stroke-width="0.4" stroke-linecap="butt" stroke-linejoin="round" stroke="rgb(0%, 0%, 0%)" stroke-opacity="1" stroke-miterlimit="10" d="M 157.49063 137.597138 L 174.647503 140.171845 " transform="matrix(0.996776, 0, 0, -0.996776, -77.850098, 179.489489)"/>
<path fill="none" stroke-width="0.4" stroke-linecap="butt" stroke-linejoin="round" stroke="rgb(0%, 0%, 0%)" stroke-opacity="1" stroke-miterlimit="10" d="M 122.526349 131.593408 L 122.248109 91.867684 " transform="matrix(0.996776, 0, 0, -0.996776, -77.850098, 179.489489)"/>
<path fill="none" stroke-width="0.4" stroke-linecap="butt" stroke-linejoin="round" stroke="rgb(0%, 0%, 0%)" stroke-opacity="1" stroke-miterlimit="10" d="M 122.526349 131.593408 L 157.275091 98.13006 " transform="matrix(0.996776, 0, 0, -0.996776, -77.850098, 179.489489)"/>
<path fill="none" stroke-width="0.4" stroke-linecap="butt" stroke-linejoin="round" stroke="rgb(0%, 0%, 0%)" stroke-opacity="1" stroke-miterlimit="10" d="M 122.526349 131.593408 L 157.49063 137.597138 " transform="matrix(0.996776, 0, 0, -0.996776, -77.850098, 179.489489)"/>
<path fill="none" stroke-width="0.4" stroke-linecap="butt" stroke-linejoin="round" stroke="rgb(0%, 0%, 0%)" stroke-opacity="1" stroke-miterlimit="10" d="M 122.526349 131.593408 L 92.711482 125.585759 " transform="matrix(0.996776, 0, 0, -0.996776, -77.850098, 179.489489)"/>
<path fill="none" stroke-width="0.4" stroke-linecap="butt" stroke-linejoin="round" stroke="rgb(0%, 0%, 0%)" stroke-opacity="1" stroke-miterlimit="10" d="M 92.711482 125.585759 L 122.526349 131.593408 " transform="matrix(0.996776, 0, 0, -0.996776, -77.850098, 179.489489)"/>
<g clip-path="url(#clip-11)">
<path fill="none" stroke-width="0.4" stroke-linecap="butt" stroke-linejoin="round" stroke="rgb(0%, 0%, 0%)" stroke-opacity="1" stroke-miterlimit="10" d="M 92.711482 125.585759 L 96.998741 75.608235 " transform="matrix(0.996776, 0, 0, -0.996776, -77.850098, 179.489489)"/>
</g>
<path fill="none" stroke-width="0.4" stroke-linecap="butt" stroke-linejoin="round" stroke="rgb(0%, 0%, 0%)" stroke-opacity="1" stroke-miterlimit="10" d="M 92.711482 125.585759 L 122.248109 91.867684 " transform="matrix(0.996776, 0, 0, -0.996776, -77.850098, 179.489489)"/>
<g clip-path="url(#clip-12)">
<path fill="none" stroke-width="0.4" stroke-linecap="butt" stroke-linejoin="round" stroke="rgb(0%, 0%, 0%)" stroke-opacity="1" stroke-miterlimit="10" d="M 157.275091 98.13006 L 96.998741 75.608235 " transform="matrix(0.996776, 0, 0, -0.996776, -77.850098, 179.489489)"/>
</g>
<path fill="none" stroke-width="0.4" stroke-linecap="butt" stroke-linejoin="round" stroke="rgb(0%, 0%, 0%)" stroke-opacity="1" stroke-miterlimit="10" d="M 122.248109 91.867684 L 157.275091 98.13006 " transform="matrix(0.996776, 0, 0, -0.996776, -77.850098, 179.489489)"/>
<g clip-path="url(#clip-13)">
<path fill="none" stroke-width="0.4" stroke-linecap="butt" stroke-linejoin="round" stroke="rgb(0%, 0%, 0%)" stroke-opacity="1" stroke-miterlimit="10" d="M 96.998741 75.608235 L 122.248109 91.867684 " transform="matrix(0.996776, 0, 0, -0.996776, -77.850098, 179.489489)"/>
</g>
</svg>
