<?xml version="1.0" encoding="UTF-8"?>
<svg xmlns="http://www.w3.org/2000/svg" xmlns:xlink="http://www.w3.org/1999/xlink" width="387.5" height="388.2" viewBox="0 0 387.5 388.2">
<defs>
<clipPath id="clip-0">
<path clip-rule="nonzero" d="M 0.148438 136 L 198 136 L 198 334 L 0.148438 334 Z M 0.148438 136 "/>
</clipPath>
<clipPath id="clip-1">
<path clip-rule="nonzero" d="M 189 189 L 386.851562 189 L 386.851562 387 L 189 387 Z M 189 189 "/>
</clipPath>
</defs>
<path fill-rule="nonzero" fill="rgb(14.099121%, 87.399292%, 68.199158%)" fill-opacity="1" d="M 197.34375 235.265625 C 197.34375 289.472656 153.402344 333.414062 99.195312 333.414062 C 44.988281 333.414062 1.046875 289.472656 1.046875 235.265625 C 1.046875 181.058594 44.988281 137.117188 99.195312 137.117188 C 153.402344 137.117188 197.34375 181.058594 197.34375 235.265625 "/>
<g clip-path="url(#clip-0)">
<path fill="none" stroke-width="0.8" stroke-linecap="butt" stroke-linejoin="round" stroke="rgb(0%, 0%, 0%)" stroke-opacity="1" stroke-miterlimit="10" d="M 276.351156 219.349541 C 276.351156 165.0308 232.319196 120.99884 178.000455 120.99884 C 123.681714 120.99884 79.649754 165.0308 79.649754 219.349541 C 79.649754 273.668282 123.681714 317.700242 178.000455 317.700242 C 232.319196 317.700242 276.351156 273.668282 276.351156 219.349541 " transform="matrix(0.997943, 0, 0, -0.997943, -78.439075, 454.164062)"/>
</g>
<path fill-rule="nonzero" fill="rgb(14.099121%, 87.399292%, 68.199158%)" fill-opacity="1" stroke-width="0.8" stroke-linecap="butt" stroke-linejoin="round" stroke="rgb(0%, 0%, 0%)" stroke-opacity="1" stroke-miterlimit="10" d="M 178.982944 219.349541 C 178.982944 218.038251 177.014051 218.038251 177.014051 219.349541 C 177.014051 220.660832 178.982944 220.660832 178.982944 219.349541 " transform="matrix(0.997943, 0, 0, -0.997943, -78.439075, 454.164062)"/>
<path fill-rule="nonzero" fill="rgb(90.098572%, 54.499817%, 44.699097%)" fill-opacity="1" stroke-width="0.8" stroke-linecap="butt" stroke-linejoin="round" stroke="rgb(0%, 0%, 0%)" stroke-opacity="1" stroke-miterlimit="10" d="M 416.350009 356.201297 C 416.350009 302.074357 372.47462 258.198968 318.351595 258.198968 C 264.224655 258.198968 220.349266 302.074357 220.349266 356.201297 C 220.349266 410.324323 264.224655 454.199711 318.351595 454.199711 C 372.47462 454.199711 416.350009 410.324323 416.350009 356.201297 " transform="matrix(0.997943, 0, 0, -0.997943, -78.439075, 454.164062)"/>
<path fill-rule="nonzero" fill="rgb(90.098572%, 54.499817%, 44.699097%)" fill-opacity="1" stroke-width="0.8" stroke-linecap="butt" stroke-linejoin="round" stroke="rgb(0%, 0%, 0%)" stroke-opacity="1" stroke-miterlimit="10" d="M 319.33017 356.201297 C 319.33017 354.893921 317.369105 354.893921 317.369105 356.201297 C 317.369105 357.508673 319.33017 357.508673 319.33017 356.201297 " transform="matrix(0.997943, 0, 0, -0.997943, -78.439075, 454.164062)"/>
<path fill-rule="nonzero" fill="rgb(72.499084%, 3.898621%, 23.899841%)" fill-opacity="1" d="M 385.953125 288.355469 C 385.953125 342.5625 342.011719 386.503906 287.804688 386.503906 C 233.597656 386.503906 189.660156 342.5625 189.660156 288.355469 C 189.660156 234.148438 233.597656 190.207031 287.804688 190.207031 C 342.011719 190.207031 385.953125 234.148438 385.953125 288.355469 "/>
<g clip-path="url(#clip-1)">
<path fill="none" stroke-width="0.8" stroke-linecap="butt" stroke-linejoin="round" stroke="rgb(0%, 0%, 0%)" stroke-opacity="1" stroke-miterlimit="10" d="M 465.349216 166.15029 C 465.349216 111.831549 421.317256 67.799589 366.998515 67.799589 C 312.679774 67.799589 268.651728 111.831549 268.651728 166.15029 C 268.651728 220.469031 312.679774 264.500991 366.998515 264.500991 C 421.317256 264.500991 465.349216 220.469031 465.349216 166.15029 " transform="matrix(0.997943, 0, 0, -0.997943, -78.439075, 454.164062)"/>
</g>
<path fill-rule="nonzero" fill="rgb(72.499084%, 3.898621%, 23.899841%)" fill-opacity="1" stroke-width="0.8" stroke-linecap="butt" stroke-linejoin="round" stroke="rgb(0%, 0%, 0%)" stroke-opacity="1" stroke-miterlimit="10" d="M 367.984918 166.15029 C 367.984918 164.839 366.016025 164.839 366.016025 166.15029 C 366.016025 167.461581 367.984918 167.461581 367.984918 166.15029 " transform="matrix(0.997943, 0, 0, -0.997943, -78.439075, 454.164062)"/>
<path fill-rule="nonzero" fill="rgb(0.698853%, 9.799194%, 66.999817%)" fill-opacity="1" stroke-width="0.8" stroke-linecap="butt" stroke-linejoin="round" stroke="rgb(0%, 0%, 0%)" stroke-opacity="1" stroke-miterlimit="10" d="M 274.249177 250.851827 C 274.249177 248.518905 270.749793 248.518905 270.749793 250.851827 C 270.749793 253.180836 274.249177 253.180836 274.249177 250.851827 " transform="matrix(0.997943, 0, 0, -0.997943, -78.439075, 454.164062)"/>
<path fill-rule="nonzero" fill="rgb(0.698853%, 9.799194%, 66.999817%)" fill-opacity="1" stroke-width="0.8" stroke-linecap="butt" stroke-linejoin="round" stroke="rgb(0%, 0%, 0%)" stroke-opacity="1" stroke-miterlimit="10" d="M 272.515142 250.851827 C 272.515142 250.824427 272.483828 250.824427 272.483828 250.851827 C 272.483828 250.875313 272.515142 250.875313 272.515142 250.851827 " transform="matrix(0.997943, 0, 0, -0.997943, -78.439075, 454.164062)"/>
<path fill-rule="nonzero" fill="rgb(84.999084%, 0.299072%, 73.298645%)" fill-opacity="1" stroke-width="0.8" stroke-linecap="butt" stroke-linejoin="round" stroke="rgb(0%, 0%, 0%)" stroke-opacity="1" stroke-miterlimit="10" d="M 283.349924 259.600288 C 283.349924 255.349358 279.901426 251.90086 275.650496 251.90086 C 271.399567 251.90086 267.951068 255.349358 267.951068 259.600288 C 267.951068 263.851218 271.399567 267.299716 275.650496 267.299716 C 279.901426 267.299716 283.349924 263.851218 283.349924 259.600288 " transform="matrix(0.997943, 0, 0, -0.997943, -78.439075, 454.164062)"/>
<path fill-rule="nonzero" fill="rgb(84.999084%, 0.299072%, 73.298645%)" fill-opacity="1" stroke-width="0.8" stroke-linecap="butt" stroke-linejoin="round" stroke="rgb(0%, 0%, 0%)" stroke-opacity="1" stroke-miterlimit="10" d="M 275.724868 259.600288 C 275.724868 259.494602 275.57221 259.494602 275.57221 259.600288 C 275.57221 259.70206 275.724868 259.70206 275.724868 259.600288 " transform="matrix(0.997943, 0, 0, -0.997943, -78.439075, 454.164062)"/>
<path fill-rule="nonzero" fill="rgb(76.799011%, 59.899902%, 64.299011%)" fill-opacity="1" stroke-width="0.8" stroke-linecap="butt" stroke-linejoin="round" stroke="rgb(0%, 0%, 0%)" stroke-opacity="1" stroke-miterlimit="10" d="M 286.849309 245.598837 C 286.849309 241.735423 283.717869 238.600068 279.85054 238.600068 C 275.983212 238.600068 272.851772 241.735423 272.851772 245.598837 C 272.851772 249.466165 275.983212 252.601519 279.85054 252.601519 C 283.717869 252.601519 286.849309 249.466165 286.849309 245.598837 " transform="matrix(0.997943, 0, 0, -0.997943, -78.439075, 454.164062)"/>
<path fill-rule="nonzero" fill="rgb(76.799011%, 59.899902%, 64.299011%)" fill-opacity="1" stroke-width="0.8" stroke-linecap="butt" stroke-linejoin="round" stroke="rgb(0%, 0%, 0%)" stroke-opacity="1" stroke-miterlimit="10" d="M 279.920998 245.598837 C 279.920998 245.508808 279.780083 245.508808 279.780083 245.598837 C 279.780083 245.69278 279.920998 245.69278 279.920998 245.598837 " transform="matrix(0.997943, 0, 0, -0.997943, -78.439075, 454.164062)"/>
<path fill-rule="nonzero" fill="rgb(75.59967%, 32.899475%, 54.098511%)" fill-opacity="1" stroke-width="0.8" stroke-linecap="butt" stroke-linejoin="round" stroke="rgb(0%, 0%, 0%)" stroke-opacity="1" stroke-miterlimit="10" d="M 291.049352 230.90064 C 291.049352 226.649711 287.600854 223.201212 283.349924 223.201212 C 279.098995 223.201212 275.650496 226.649711 275.650496 230.90064 C 275.650496 235.15157 279.098995 238.600068 283.349924 238.600068 C 287.600854 238.600068 291.049352 235.15157 291.049352 230.90064 " transform="matrix(0.997943, 0, 0, -0.997943, -78.439075, 454.164062)"/>
<path fill-rule="nonzero" fill="rgb(75.59967%, 32.899475%, 54.098511%)" fill-opacity="1" stroke-width="0.8" stroke-linecap="butt" stroke-linejoin="round" stroke="rgb(0%, 0%, 0%)" stroke-opacity="1" stroke-miterlimit="10" d="M 283.424296 230.90064 C 283.424296 230.794954 283.275553 230.794954 283.275553 230.90064 C 283.275553 231.002412 283.424296 231.002412 283.424296 230.90064 " transform="matrix(0.997943, 0, 0, -0.997943, -78.439075, 454.164062)"/>
<path fill-rule="nonzero" fill="rgb(70.498657%, 4.699707%, 54.899597%)" fill-opacity="1" stroke-width="0.8" stroke-linecap="butt" stroke-linejoin="round" stroke="rgb(0%, 0%, 0%)" stroke-opacity="1" stroke-miterlimit="10" d="M 300.1501 241.398793 C 300.1501 237.535379 297.014746 234.400025 293.151331 234.400025 C 289.284003 234.400025 286.148649 237.535379 286.148649 241.398793 C 286.148649 245.266121 289.284003 248.401476 293.151331 248.401476 C 297.014746 248.401476 300.1501 245.266121 300.1501 241.398793 " transform="matrix(0.997943, 0, 0, -0.997943, -78.439075, 454.164062)"/>
<path fill-rule="nonzero" fill="rgb(70.498657%, 4.699707%, 54.899597%)" fill-opacity="1" stroke-width="0.8" stroke-linecap="butt" stroke-linejoin="round" stroke="rgb(0%, 0%, 0%)" stroke-opacity="1" stroke-miterlimit="10" d="M 293.221789 241.398793 C 293.221789 241.308764 293.080874 241.308764 293.080874 241.398793 C 293.080874 241.492736 293.221789 241.492736 293.221789 241.398793 " transform="matrix(0.997943, 0, 0, -0.997943, -78.439075, 454.164062)"/>
<path fill-rule="nonzero" fill="rgb(94.099426%, 31.698608%, 62.69989%)" fill-opacity="1" stroke-width="0.8" stroke-linecap="butt" stroke-linejoin="round" stroke="rgb(0%, 0%, 0%)" stroke-opacity="1" stroke-miterlimit="10" d="M 296.650716 255.400244 C 296.650716 251.532916 293.515361 248.401476 289.651947 248.401476 C 285.784619 248.401476 282.649265 251.532916 282.649265 255.400244 C 282.649265 259.267572 285.784619 262.399012 289.651947 262.399012 C 293.515361 262.399012 296.650716 259.267572 296.650716 255.400244 " transform="matrix(0.997943, 0, 0, -0.997943, -78.439075, 454.164062)"/>
<path fill-rule="nonzero" fill="rgb(94.099426%, 31.698608%, 62.69989%)" fill-opacity="1" stroke-width="0.8" stroke-linecap="butt" stroke-linejoin="round" stroke="rgb(0%, 0%, 0%)" stroke-opacity="1" stroke-miterlimit="10" d="M 289.722405 255.400244 C 289.722405 255.306301 289.577576 255.306301 289.577576 255.400244 C 289.577576 255.494187 289.722405 255.494187 289.722405 255.400244 " transform="matrix(0.997943, 0, 0, -0.997943, -78.439075, 454.164062)"/>
<path fill-rule="nonzero" fill="rgb(86.199951%, 50.898743%, 97.999573%)" fill-opacity="1" stroke-width="0.8" stroke-linecap="butt" stroke-linejoin="round" stroke="rgb(0%, 0%, 0%)" stroke-opacity="1" stroke-miterlimit="10" d="M 312.049572 251.90086 C 312.049572 247.64993 308.601073 244.201432 304.350144 244.201432 C 300.099214 244.201432 296.650716 247.64993 296.650716 251.90086 C 296.650716 256.15179 300.099214 259.600288 304.350144 259.600288 C 308.601073 259.600288 312.049572 256.15179 312.049572 251.90086 " transform="matrix(0.997943, 0, 0, -0.997943, -78.439075, 454.164062)"/>
<path fill-rule="nonzero" fill="rgb(86.199951%, 50.898743%, 97.999573%)" fill-opacity="1" stroke-width="0.8" stroke-linecap="butt" stroke-linejoin="round" stroke="rgb(0%, 0%, 0%)" stroke-opacity="1" stroke-miterlimit="10" d="M 304.424515 251.90086 C 304.424515 251.795174 304.275772 251.795174 304.275772 251.90086 C 304.275772 252.002632 304.424515 252.002632 304.424515 251.90086 " transform="matrix(0.997943, 0, 0, -0.997943, -78.439075, 454.164062)"/>
<path fill-rule="nonzero" fill="rgb(73.699951%, 18.798828%, 55.999756%)" fill-opacity="1" stroke-width="0.8" stroke-linecap="butt" stroke-linejoin="round" stroke="rgb(0%, 0%, 0%)" stroke-opacity="1" stroke-miterlimit="10" d="M 303.649484 242.45174 C 303.649484 240.118817 300.1501 240.118817 300.1501 242.45174 C 300.1501 244.780748 303.649484 244.780748 303.649484 242.45174 " transform="matrix(0.997943, 0, 0, -0.997943, -78.439075, 454.164062)"/>
<path fill-rule="nonzero" fill="rgb(73.699951%, 18.798828%, 55.999756%)" fill-opacity="1" stroke-width="0.8" stroke-linecap="butt" stroke-linejoin="round" stroke="rgb(0%, 0%, 0%)" stroke-opacity="1" stroke-miterlimit="10" d="M 301.915449 242.45174 C 301.915449 242.424339 301.884135 242.424339 301.884135 242.45174 C 301.884135 242.475225 301.915449 242.475225 301.915449 242.45174 " transform="matrix(0.997943, 0, 0, -0.997943, -78.439075, 454.164062)"/>
</svg>
