<?xml version="1.0" encoding="utf-8"?>
<!DOCTYPE svg PUBLIC "-//W3C//DTD SVG 1.1//EN" "http://www.w3.org/Graphics/SVG/1.1/DTD/svg11.dtd">
<svg  version="1.1" id="Layer_1" xmlns="http://www.w3.org/2000/svg" xmlns:xlink="http://www.w3.org/1999/xlink" width="510" height="400.5" viewBox="0 0 510 400.5"
	 overflow="visible" enable-background="new 0 0 510 400.5" xml:space="preserve">
<g>
	<polyline fill="none" stroke="#B4DCFF" stroke-width="6" points="256.023,37.718 324.725,217.87 398.008,74.358 	"/>
	<polyline fill="none" stroke="#B4DCFF" stroke-width="6" points="184.268,217.87 324.725,217.87 345,363 	"/>
	<polyline fill="none" stroke="#B4DCFF" stroke-width="6" points="109.458,75.886 184.268,217.87 165,363 	"/>
	<polygon fill="none" stroke="#B4DCFF" stroke-width="6" points="39.229,236.189 165,363 345,363 471,237 398.008,74.358
		256.023,37.718 109.458,75.886 	"/>
	<circle fill="#FFFFFF" stroke="#B4DCFF" stroke-width="4" cx="184.268" cy="217.87" r="18"/>
	<circle fill="#FFFFFF" stroke="#B4DCFF" stroke-width="4" cx="327" cy="219" r="18"/>
	<circle fill="#FFFFFF" stroke="#B4DCFF" stroke-width="4" cx="345" cy="363" r="18"/>
	<circle fill="#FFFFFF" stroke="#B4DCFF" stroke-width="4" cx="165" cy="363" r="18"/>
	<circle fill="#FFFFFF" stroke="#B4DCFF" stroke-width="4" cx="39.229" cy="236.189" r="18"/>
	<circle fill="#FFFFFF" stroke="#B4DCFF" stroke-width="4" cx="109.458" cy="75.886" r="18"/>
	<circle fill="#FFFFFF" stroke="#B4DCFF" stroke-width="4" cx="256.023" cy="37.718" r="18"/>
	<circle fill="#FFFFFF" stroke="#B4DCFF" stroke-width="4" cx="471" cy="237" r="18"/>
	<circle fill="#FFFFFF" stroke="#B4DCFF" stroke-width="4" cx="398.008" cy="74.358" r="18"/>
	<g>
		<g>
			<defs>
				<rect id="XMLID_28_" x="151" y="14" width="212" height="150"/>
			</defs>
			<clipPath id="XMLID_46_">
				<use xlink:href="#XMLID_28_" />
			</clipPath>
			<g clip-path="url(#XMLID_46_)">
				<g>
					<path fill="none" stroke="#006600" stroke-width="3" d="M350.875,54.021l-59.882-14.747C290.994,39.183,291,39.092,291,39
						c0-13.29-7.201-24.898-17.916-31.135C267.77,4.771,261.592,3,255,3c-8.394,0-16.116,2.873-22.238,7.689
						C224.382,17.28,219,27.512,219,39c0,0.516,0.018,1.027,0.039,1.538l-46.146,11.227c-4.83,1.175-7.793,6.043-6.617,10.873
						c1.174,4.829,6.043,7.791,10.871,6.616l47.141-11.469C230.616,68.11,242.003,75,255,75c0.811,0,1.609-0.036,2.407-0.089
						l29.995,79.364c1.76,4.649,6.953,6.993,11.602,5.236c4.65-1.758,6.996-6.951,5.236-11.6l-29.73-78.664
						c4.897-3.166,8.977-7.484,11.852-12.577l60.214,14.828c6.416,1.58,10.489-4.97,10.889-6.587
						C358.65,60.086,355.703,55.21,350.875,54.021z"/>
				</g>
			</g>
		</g>
	</g>
	<g>
		<g>
			<defs>
					<rect id="XMLID_30_" x="275.006" y="47.61" transform="matrix(-0.9317 -0.3632 0.3632 -0.9317 691.4586 375.2281)" width="211.997" height="149.999"/>
			</defs>
			<clipPath id="XMLID_47_">
				<use xlink:href="#XMLID_30_" />
			</clipPath>
			<g clip-path="url(#XMLID_47_)">
				<g>
					<path fill="none" stroke="#660000" stroke-width="3" d="M448.021,155.77l-26.731-53.622c4.096-3.655,7.421-8.298,9.552-13.763
						c4.826-12.383,2.334-25.812-5.385-35.516c-3.826-4.812-8.938-8.707-15.08-11.102c-7.822-3.049-16.061-3.176-23.514-0.912
						c-7.068,2.146-13.428,6.447-18.059,12.447l-54.16-13.571c-4.82-1.209-9.707,1.721-10.914,6.543
						c-1.211,4.82,1.719,9.707,6.539,10.916l51.416,12.885c-1.834,12.417,2.998,24.878,12.506,32.836l-30.078,65.176
						c-2.082,4.514-0.109,9.859,4.402,11.941c4.516,2.084,9.86,0.113,11.942-4.4l29.989-64.984
						c5.009,0.978,10.058,0.862,14.848-0.234l26.618,53.392c2.947,5.912,10.578,4.779,12.068,4.035
						C448.43,165.621,450.24,160.219,448.021,155.77z"/>
				</g>
			</g>
		</g>
	</g>
	<g>
		<g>
			<defs>
				<rect id="XMLID_32_" x="388.334" y="122.333" width="104" height="216.001"/>
			</defs>
			<clipPath id="XMLID_48_">
				<use xlink:href="#XMLID_32_" />
			</clipPath>
			<g clip-path="url(#XMLID_48_)">
				<g>
					<path fill="none" stroke="#330066" stroke-width="3" d="M471,201c-2.062,0-4.08,0.184-6.048,0.516l-32.7-61.836
						c-2.322-4.393-7.77-6.072-12.16-3.748c-4.396,2.324-6.074,7.77-3.75,12.164l32.158,60.812C440.272,215.505,435,225.634,435,237
						c0,5.982,1.468,11.621,4.051,16.585l-41.865,43.084c-3.463,3.565-3.381,9.263,0.185,12.728
						c3.564,3.464,9.262,3.383,12.727-0.184l41.016-42.208C456.81,270.79,463.646,273,471,273c19.883,0,36-16.118,36-36
						S490.883,201,471,201z"/>
				</g>
			</g>
		</g>
	</g>
	<g>
		<g>
			<defs>
				<rect id="XMLID_34_" x="17.666" y="122.333" width="104" height="216.001"/>
			</defs>
			<clipPath id="XMLID_49_">
				<use xlink:href="#XMLID_34_" />
			</clipPath>
			<g clip-path="url(#XMLID_49_)">
				<g>
					<path fill="none" stroke="#006600" stroke-width="3" d="M112.814,296.669l-41.865-43.084C73.532,248.621,75,242.982,75,237
						c0-10.863-4.819-20.596-12.427-27.195l29.042-63.28c2.074-4.519,0.094-9.86-4.426-11.936
						c-4.516-2.073-9.859-0.091-11.932,4.425l-28.806,62.763C44.047,201.271,41.555,201,39,201c-19.883,0-36,16.118-36,36
						s16.117,36,36,36c7.354,0,14.19-2.21,19.89-5.995l41.015,42.208c3.465,3.565,9.162,3.646,12.727,0.184
						S116.277,300.234,112.814,296.669z"/>
				</g>
			</g>
		</g>
	</g>
	<g>
		<g>
			<defs>
				<polygon id="XMLID_36_" points="381,201 345,201 345,237 381,237 363,327 327,327 201,237 201,183 291,93 363,111 381,147
					"/>
			</defs>
			<clipPath id="XMLID_50_">
				<use xlink:href="#XMLID_36_" />
			</clipPath>
			<g clip-path="url(#XMLID_50_)">
				<g>
					<path fill="none" stroke="#330066" stroke-width="3" d="M361.707,137.545c-4.469-2.178-9.855-0.319-12.031,4.149l-20.17,41.402
						C328.677,183.04,327.844,183,327,183c-0.667,0-1.328,0.021-1.984,0.057l-26.547-63.75c-1.912-4.589-7.18-6.76-11.768-4.85
						c-4.59,1.911-6.76,7.18-4.85,11.769l25.951,62.324c-6.781,4.284-12.029,10.766-14.746,18.449H242c-4.971,0-9,4.028-9,9
						s4.029,9,9,9h49.507c2.679,15.951,15.839,28.341,32.158,29.841l8.872,58.105c0.75,4.913,5.34,8.288,10.254,7.538
						s8.289-5.342,7.539-10.255l-8.893-58.252C354.13,246.414,363,233.746,363,219c0-12.604-6.482-23.688-16.29-30.12l19.147-39.302
						C368.033,145.109,366.176,139.722,361.707,137.545z"/>
				</g>
			</g>
		</g>
	</g>
	<g>
		<g>
			<defs>
				<rect id="XMLID_38_" x="222" y="254.5" width="233" height="132.5"/>
			</defs>
			<clipPath id="XMLID_51_">
				<use xlink:href="#XMLID_38_" />
			</clipPath>
			<g clip-path="url(#XMLID_51_)">
				<g>
					<path fill="none" stroke="#006600" stroke-width="3" d="M432.441,280.839c-3.478-3.557-9.173-3.627-12.728-0.151
						l-54.088,52.815c-4.851-3.396-10.569-5.634-16.767-6.294l-10.825-56.261c-0.938-4.882-5.656-8.077-10.537-7.138
						c-4.881,0.938-8.078,5.657-7.14,10.539l10.674,55.461c-9.297,3.916-16.596,15.627-19.977,25.188H246c-4.971,0-9,4.029-9,9
						s4.029,9,9,9h63.507c2.858,17.025,17.655,26,35.493,26c19.883,0,36-16.117,36-36c0-5.669-1.312-11.028-3.646-15.799
						l54.935-53.638C435.844,290.096,435.912,284.396,432.441,280.839z"/>
				</g>
			</g>
		</g>
	</g>
	<g>
		<g>
			<defs>
					<rect id="XMLID_40_" x="24.337" y="47.617" transform="matrix(0.9317 -0.3632 0.3632 0.9317 -35.6341 55.7116)" width="211.997" height="149.999"/>
			</defs>
			<clipPath id="XMLID_52_">
				<use xlink:href="#XMLID_40_" />
			</clipPath>
			<g clip-path="url(#XMLID_52_)">
				<g>
					<path fill="none" stroke="#330066" stroke-width="3" d="M207.604,48.274c-1.207-4.822-6.094-7.752-10.914-6.543l-56.374,14.125
						c-4.702-7.335-11.813-12.563-19.845-15.001c-7.453-2.264-15.691-2.137-23.514,0.912c-6.143,2.395-11.254,6.289-15.08,11.102
						c-7.719,9.703-10.211,23.133-5.385,35.516c2.162,5.546,5.554,10.245,9.733,13.924l-21.944,48.316
						c-2.057,4.526-0.053,9.859,4.473,11.914c1.516,0.689,9.184,1.547,11.914-4.469l21.622-47.604
						c3.692,0.816,7.534,1.051,11.39,0.656l33.431,63.795c2.306,4.402,7.743,6.102,12.149,3.795
						c4.401-2.309,6.103-7.744,3.796-12.148l-32.37-61.77c10.312-7.211,16.082-19.346,15.278-31.797l55.101-13.808
						C205.885,57.981,208.814,53.095,207.604,48.274z"/>
				</g>
			</g>
		</g>
	</g>
	<g>
		<g>
			<defs>
				<rect id="XMLID_42_" x="56.334" y="254.5" width="233" height="132.5"/>
			</defs>
			<clipPath id="XMLID_53_">
				<use xlink:href="#XMLID_42_" />
			</clipPath>
			<g clip-path="url(#XMLID_53_)">
				<g>
					<path fill="none" stroke="#330066" stroke-width="3" d="M265.334,351h-65.057c-3.914-11.07-13.085-19.65-24.517-22.745
						l7.687-52.573c0.717-4.92-2.689-9.49-7.607-10.209c-4.918-0.718-9.486,2.688-10.205,7.604l-8.039,54.996
						c-5.035,1.256-9.646,3.574-13.59,6.698l-53.542-54.648c-3.477-3.553-9.172-3.609-12.727-0.131
						c-3.549,3.48-3.606,9.178-0.127,12.725l55.432,56.576c-1.742,4.226-2.708,8.853-2.708,13.707c0,19.883,16.117,36,36,36
						c17.837,0,32.635-12.975,35.493-30h63.507c4.971,0,9-4.029,9-9S270.305,351,265.334,351z"/>
				</g>
			</g>
		</g>
	</g>
	<g>
		<g>
			<defs>
				<polygon id="XMLID_44_" points="201,201 201,165 147,111 111,147 147,327 201,327 273,219 255,201 				"/>
			</defs>
			<clipPath id="XMLID_54_">
				<use xlink:href="#XMLID_44_" />
			</clipPath>
			<g clip-path="url(#XMLID_54_)">
				<g>
					<path fill="none" stroke="#660000" stroke-width="3" d="M246,211h-27.903c-3.64-16.03-17.966-28-35.097-28
						c-1.34,0-2.662,0.079-3.964,0.222l-30.724-55.043c-2.424-4.341-7.906-5.896-12.246-3.473s-5.895,7.905-3.473,12.246
						l29.461,52.778C152.943,196.262,147,206.934,147,219c0,16.415,10.991,30.254,26.012,34.585l-5.975,53.188
						c-0.553,4.938,3,9.393,7.941,9.947c4.941,0.558,9.395-3.001,9.949-7.938l6.143-54.701c12.749-2.922,22.91-12.604,26.511-25.08
						H246c4.971,0,9-4.028,9-9S250.971,211,246,211z"/>
				</g>
			</g>
		</g>
	</g>
</g>
<rect x="3.002" y="3" fill="none" width="504" height="396"/>
</svg>
