<?xml version="1.0" encoding="UTF-8"?>
<svg xmlns="http://www.w3.org/2000/svg" xmlns:xlink="http://www.w3.org/1999/xlink" width="423.4" height="403.4" viewBox="0 0 423.4 403.4">
<defs>
<clipPath id="clip-0">
<path clip-rule="nonzero" d="M 0.015625 187 L 28 187 L 28 215 L 0.015625 215 Z M 0.015625 187 "/>
</clipPath>
<clipPath id="clip-1">
<path clip-rule="nonzero" d="M 0.015625 187 L 28 187 L 28 216 L 0.015625 216 Z M 0.015625 187 "/>
</clipPath>
<clipPath id="clip-2">
<path clip-rule="nonzero" d="M 137 376 L 164 376 L 164 402.800781 L 137 402.800781 Z M 137 376 "/>
</clipPath>
<clipPath id="clip-3">
<path clip-rule="nonzero" d="M 137 375 L 164 375 L 164 402.800781 L 137 402.800781 Z M 137 375 "/>
</clipPath>
<clipPath id="clip-4">
<path clip-rule="nonzero" d="M 259 376 L 286 376 L 286 402.800781 L 259 402.800781 Z M 259 376 "/>
</clipPath>
<clipPath id="clip-5">
<path clip-rule="nonzero" d="M 259 375 L 286 375 L 286 402.800781 L 259 402.800781 Z M 259 375 "/>
</clipPath>
<clipPath id="clip-6">
<path clip-rule="nonzero" d="M 395 187 L 422.785156 187 L 422.785156 215 L 395 215 Z M 395 187 "/>
</clipPath>
<clipPath id="clip-7">
<path clip-rule="nonzero" d="M 394 187 L 422.785156 187 L 422.785156 216 L 394 216 Z M 394 187 "/>
</clipPath>
</defs>
<path fill-rule="evenodd" fill="rgb(100%, 100%, 100%)" fill-opacity="1" stroke-width="0.4" stroke-linecap="butt" stroke-linejoin="round" stroke="rgb(0%, 0%, 0%)" stroke-opacity="1" stroke-miterlimit="10" d="M 245.001901 250.998099 L 257.000189 213.00026 " transform="matrix(0.998515, 0, 0, -0.998515, -33.235693, 452.027673)"/>
<path fill-rule="evenodd" fill="rgb(100%, 100%, 100%)" fill-opacity="1" stroke-width="0.4" stroke-linecap="butt" stroke-linejoin="round" stroke="rgb(0%, 0%, 0%)" stroke-opacity="1" stroke-miterlimit="10" d="M 245.001901 250.998099 L 276.99864 227.999098 " transform="matrix(0.998515, 0, 0, -0.998515, -33.235693, 452.027673)"/>
<path fill="none" stroke-width="0.4" stroke-linecap="butt" stroke-linejoin="round" stroke="rgb(0%, 0%, 0%)" stroke-opacity="1" stroke-miterlimit="10" d="M 245.001901 250.998099 L 284.998802 250.998099 " transform="matrix(0.998515, 0, 0, -0.998515, -33.235693, 452.027673)"/>
<path fill-rule="evenodd" fill="rgb(100%, 100%, 100%)" fill-opacity="1" stroke-width="0.4" stroke-linecap="butt" stroke-linejoin="round" stroke="rgb(0%, 0%, 0%)" stroke-opacity="1" stroke-miterlimit="10" d="M 245.001901 250.998099 L 276.99864 274.001012 " transform="matrix(0.998515, 0, 0, -0.998515, -33.235693, 452.027673)"/>
<path fill-rule="evenodd" fill="rgb(100%, 100%, 100%)" fill-opacity="1" stroke-width="0.4" stroke-linecap="butt" stroke-linejoin="round" stroke="rgb(0%, 0%, 0%)" stroke-opacity="1" stroke-miterlimit="10" d="M 245.001901 250.998099 L 257.000189 288.99985 " transform="matrix(0.998515, 0, 0, -0.998515, -33.235693, 452.027673)"/>
<path fill-rule="evenodd" fill="rgb(100%, 100%, 100%)" fill-opacity="1" stroke-width="0.4" stroke-linecap="butt" stroke-linejoin="round" stroke="rgb(0%, 0%, 0%)" stroke-opacity="1" stroke-miterlimit="10" d="M 245.001901 250.998099 L 232.999701 288.99985 " transform="matrix(0.998515, 0, 0, -0.998515, -33.235693, 452.027673)"/>
<path fill-rule="evenodd" fill="rgb(100%, 100%, 100%)" fill-opacity="1" stroke-width="0.4" stroke-linecap="butt" stroke-linejoin="round" stroke="rgb(0%, 0%, 0%)" stroke-opacity="1" stroke-miterlimit="10" d="M 245.001901 250.998099 L 213.00125 274.001012 " transform="matrix(0.998515, 0, 0, -0.998515, -33.235693, 452.027673)"/>
<path fill="none" stroke-width="0.4" stroke-linecap="butt" stroke-linejoin="round" stroke="rgb(0%, 0%, 0%)" stroke-opacity="1" stroke-miterlimit="10" d="M 245.001901 250.998099 L 205.998663 250.998099 " transform="matrix(0.998515, 0, 0, -0.998515, -33.235693, 452.027673)"/>
<path fill-rule="evenodd" fill="rgb(100%, 100%, 100%)" fill-opacity="1" stroke-width="0.4" stroke-linecap="butt" stroke-linejoin="round" stroke="rgb(0%, 0%, 0%)" stroke-opacity="1" stroke-miterlimit="10" d="M 245.001901 250.998099 L 213.00125 227.999098 " transform="matrix(0.998515, 0, 0, -0.998515, -33.235693, 452.027673)"/>
<path fill-rule="evenodd" fill="rgb(100%, 100%, 100%)" fill-opacity="1" stroke-width="0.4" stroke-linecap="butt" stroke-linejoin="round" stroke="rgb(0%, 0%, 0%)" stroke-opacity="1" stroke-miterlimit="10" d="M 245.001901 250.998099 L 232.999701 213.00026 " transform="matrix(0.998515, 0, 0, -0.998515, -33.235693, 452.027673)"/>
<path fill-rule="evenodd" fill="rgb(100%, 100%, 100%)" fill-opacity="1" stroke-width="0.4" stroke-linecap="butt" stroke-linejoin="round" stroke="rgb(0%, 0%, 0%)" stroke-opacity="1" stroke-miterlimit="10" d="M 276.99864 274.001012 L 268.998477 326.000113 " transform="matrix(0.998515, 0, 0, -0.998515, -33.235693, 452.027673)"/>
<path fill-rule="evenodd" fill="rgb(100%, 100%, 100%)" fill-opacity="1" stroke-width="0.4" stroke-linecap="butt" stroke-linejoin="round" stroke="rgb(0%, 0%, 0%)" stroke-opacity="1" stroke-miterlimit="10" d="M 276.99864 274.001012 L 257.000189 288.99985 " transform="matrix(0.998515, 0, 0, -0.998515, -33.235693, 452.027673)"/>
<path fill-rule="evenodd" fill="rgb(100%, 100%, 100%)" fill-opacity="1" stroke-width="0.4" stroke-linecap="butt" stroke-linejoin="round" stroke="rgb(0%, 0%, 0%)" stroke-opacity="1" stroke-miterlimit="10" d="M 276.99864 274.001012 L 245.001901 250.998099 " transform="matrix(0.998515, 0, 0, -0.998515, -33.235693, 452.027673)"/>
<path fill-rule="evenodd" fill="rgb(100%, 100%, 100%)" fill-opacity="1" stroke-width="0.4" stroke-linecap="butt" stroke-linejoin="round" stroke="rgb(0%, 0%, 0%)" stroke-opacity="1" stroke-miterlimit="10" d="M 276.99864 274.001012 L 284.998802 250.998099 " transform="matrix(0.998515, 0, 0, -0.998515, -33.235693, 452.027673)"/>
<path fill-rule="evenodd" fill="rgb(100%, 100%, 100%)" fill-opacity="1" stroke-width="0.4" stroke-linecap="butt" stroke-linejoin="round" stroke="rgb(0%, 0%, 0%)" stroke-opacity="1" stroke-miterlimit="10" d="M 276.99864 274.001012 L 308.99929 297.000012 " transform="matrix(0.998515, 0, 0, -0.998515, -33.235693, 452.027673)"/>
<path fill-rule="evenodd" fill="rgb(100%, 100%, 100%)" fill-opacity="1" stroke-width="0.4" stroke-linecap="butt" stroke-linejoin="round" stroke="rgb(0%, 0%, 0%)" stroke-opacity="1" stroke-miterlimit="10" d="M 257.000189 288.99985 L 268.998477 326.000113 " transform="matrix(0.998515, 0, 0, -0.998515, -33.235693, 452.027673)"/>
<path fill-rule="evenodd" fill="rgb(100%, 100%, 100%)" fill-opacity="1" stroke-width="0.4" stroke-linecap="butt" stroke-linejoin="round" stroke="rgb(0%, 0%, 0%)" stroke-opacity="1" stroke-miterlimit="10" d="M 257.000189 288.99985 L 221.001413 326.000113 " transform="matrix(0.998515, 0, 0, -0.998515, -33.235693, 452.027673)"/>
<path fill="none" stroke-width="0.4" stroke-linecap="butt" stroke-linejoin="round" stroke="rgb(0%, 0%, 0%)" stroke-opacity="1" stroke-miterlimit="10" d="M 257.000189 288.99985 L 232.999701 288.99985 " transform="matrix(0.998515, 0, 0, -0.998515, -33.235693, 452.027673)"/>
<path fill-rule="evenodd" fill="rgb(100%, 100%, 100%)" fill-opacity="1" stroke-width="0.4" stroke-linecap="butt" stroke-linejoin="round" stroke="rgb(0%, 0%, 0%)" stroke-opacity="1" stroke-miterlimit="10" d="M 257.000189 288.99985 L 276.99864 274.001012 " transform="matrix(0.998515, 0, 0, -0.998515, -33.235693, 452.027673)"/>
<path fill-rule="evenodd" fill="rgb(100%, 100%, 100%)" fill-opacity="1" stroke-width="0.4" stroke-linecap="butt" stroke-linejoin="round" stroke="rgb(0%, 0%, 0%)" stroke-opacity="1" stroke-miterlimit="10" d="M 232.999701 288.99985 L 221.001413 326.000113 " transform="matrix(0.998515, 0, 0, -0.998515, -33.235693, 452.027673)"/>
<path fill-rule="evenodd" fill="rgb(100%, 100%, 100%)" fill-opacity="1" stroke-width="0.4" stroke-linecap="butt" stroke-linejoin="round" stroke="rgb(0%, 0%, 0%)" stroke-opacity="1" stroke-miterlimit="10" d="M 232.999701 288.99985 L 181.0006 297.000012 " transform="matrix(0.998515, 0, 0, -0.998515, -33.235693, 452.027673)"/>
<path fill-rule="evenodd" fill="rgb(100%, 100%, 100%)" fill-opacity="1" stroke-width="0.4" stroke-linecap="butt" stroke-linejoin="round" stroke="rgb(0%, 0%, 0%)" stroke-opacity="1" stroke-miterlimit="10" d="M 232.999701 288.99985 L 213.00125 274.001012 " transform="matrix(0.998515, 0, 0, -0.998515, -33.235693, 452.027673)"/>
<path fill="none" stroke-width="0.4" stroke-linecap="butt" stroke-linejoin="round" stroke="rgb(0%, 0%, 0%)" stroke-opacity="1" stroke-miterlimit="10" d="M 232.999701 288.99985 L 257.000189 288.99985 " transform="matrix(0.998515, 0, 0, -0.998515, -33.235693, 452.027673)"/>
<path fill-rule="evenodd" fill="rgb(100%, 100%, 100%)" fill-opacity="1" stroke-width="0.4" stroke-linecap="butt" stroke-linejoin="round" stroke="rgb(0%, 0%, 0%)" stroke-opacity="1" stroke-miterlimit="10" d="M 213.00125 274.001012 L 181.0006 297.000012 " transform="matrix(0.998515, 0, 0, -0.998515, -33.235693, 452.027673)"/>
<path fill-rule="evenodd" fill="rgb(100%, 100%, 100%)" fill-opacity="1" stroke-width="0.4" stroke-linecap="butt" stroke-linejoin="round" stroke="rgb(0%, 0%, 0%)" stroke-opacity="1" stroke-miterlimit="10" d="M 213.00125 274.001012 L 166.001762 250.998099 " transform="matrix(0.998515, 0, 0, -0.998515, -33.235693, 452.027673)"/>
<path fill-rule="evenodd" fill="rgb(100%, 100%, 100%)" fill-opacity="1" stroke-width="0.4" stroke-linecap="butt" stroke-linejoin="round" stroke="rgb(0%, 0%, 0%)" stroke-opacity="1" stroke-miterlimit="10" d="M 213.00125 274.001012 L 205.998663 250.998099 " transform="matrix(0.998515, 0, 0, -0.998515, -33.235693, 452.027673)"/>
<path fill-rule="evenodd" fill="rgb(100%, 100%, 100%)" fill-opacity="1" stroke-width="0.4" stroke-linecap="butt" stroke-linejoin="round" stroke="rgb(0%, 0%, 0%)" stroke-opacity="1" stroke-miterlimit="10" d="M 213.00125 274.001012 L 232.999701 288.99985 " transform="matrix(0.998515, 0, 0, -0.998515, -33.235693, 452.027673)"/>
<path fill="none" stroke-width="0.4" stroke-linecap="butt" stroke-linejoin="round" stroke="rgb(0%, 0%, 0%)" stroke-opacity="1" stroke-miterlimit="10" d="M 205.998663 250.998099 L 166.001762 250.998099 " transform="matrix(0.998515, 0, 0, -0.998515, -33.235693, 452.027673)"/>
<path fill-rule="evenodd" fill="rgb(100%, 100%, 100%)" fill-opacity="1" stroke-width="0.4" stroke-linecap="butt" stroke-linejoin="round" stroke="rgb(0%, 0%, 0%)" stroke-opacity="1" stroke-miterlimit="10" d="M 205.998663 250.998099 L 181.0006 205.000098 " transform="matrix(0.998515, 0, 0, -0.998515, -33.235693, 452.027673)"/>
<path fill-rule="evenodd" fill="rgb(100%, 100%, 100%)" fill-opacity="1" stroke-width="0.4" stroke-linecap="butt" stroke-linejoin="round" stroke="rgb(0%, 0%, 0%)" stroke-opacity="1" stroke-miterlimit="10" d="M 205.998663 250.998099 L 213.00125 227.999098 " transform="matrix(0.998515, 0, 0, -0.998515, -33.235693, 452.027673)"/>
<path fill-rule="evenodd" fill="rgb(100%, 100%, 100%)" fill-opacity="1" stroke-width="0.4" stroke-linecap="butt" stroke-linejoin="round" stroke="rgb(0%, 0%, 0%)" stroke-opacity="1" stroke-miterlimit="10" d="M 205.998663 250.998099 L 213.00125 274.001012 " transform="matrix(0.998515, 0, 0, -0.998515, -33.235693, 452.027673)"/>
<path fill-rule="evenodd" fill="rgb(100%, 100%, 100%)" fill-opacity="1" stroke-width="0.4" stroke-linecap="butt" stroke-linejoin="round" stroke="rgb(0%, 0%, 0%)" stroke-opacity="1" stroke-miterlimit="10" d="M 213.00125 227.999098 L 181.0006 205.000098 " transform="matrix(0.998515, 0, 0, -0.998515, -33.235693, 452.027673)"/>
<path fill-rule="evenodd" fill="rgb(100%, 100%, 100%)" fill-opacity="1" stroke-width="0.4" stroke-linecap="butt" stroke-linejoin="round" stroke="rgb(0%, 0%, 0%)" stroke-opacity="1" stroke-miterlimit="10" d="M 213.00125 227.999098 L 221.001413 175.999997 " transform="matrix(0.998515, 0, 0, -0.998515, -33.235693, 452.027673)"/>
<path fill-rule="evenodd" fill="rgb(100%, 100%, 100%)" fill-opacity="1" stroke-width="0.4" stroke-linecap="butt" stroke-linejoin="round" stroke="rgb(0%, 0%, 0%)" stroke-opacity="1" stroke-miterlimit="10" d="M 213.00125 227.999098 L 232.999701 213.00026 " transform="matrix(0.998515, 0, 0, -0.998515, -33.235693, 452.027673)"/>
<path fill-rule="evenodd" fill="rgb(100%, 100%, 100%)" fill-opacity="1" stroke-width="0.4" stroke-linecap="butt" stroke-linejoin="round" stroke="rgb(0%, 0%, 0%)" stroke-opacity="1" stroke-miterlimit="10" d="M 213.00125 227.999098 L 205.998663 250.998099 " transform="matrix(0.998515, 0, 0, -0.998515, -33.235693, 452.027673)"/>
<path fill-rule="evenodd" fill="rgb(100%, 100%, 100%)" fill-opacity="1" stroke-width="0.4" stroke-linecap="butt" stroke-linejoin="round" stroke="rgb(0%, 0%, 0%)" stroke-opacity="1" stroke-miterlimit="10" d="M 232.999701 213.00026 L 221.001413 175.999997 " transform="matrix(0.998515, 0, 0, -0.998515, -33.235693, 452.027673)"/>
<path fill-rule="evenodd" fill="rgb(100%, 100%, 100%)" fill-opacity="1" stroke-width="0.4" stroke-linecap="butt" stroke-linejoin="round" stroke="rgb(0%, 0%, 0%)" stroke-opacity="1" stroke-miterlimit="10" d="M 232.999701 213.00026 L 268.998477 175.999997 " transform="matrix(0.998515, 0, 0, -0.998515, -33.235693, 452.027673)"/>
<path fill="none" stroke-width="0.4" stroke-linecap="butt" stroke-linejoin="round" stroke="rgb(0%, 0%, 0%)" stroke-opacity="1" stroke-miterlimit="10" d="M 232.999701 213.00026 L 257.000189 213.00026 " transform="matrix(0.998515, 0, 0, -0.998515, -33.235693, 452.027673)"/>
<path fill-rule="evenodd" fill="rgb(100%, 100%, 100%)" fill-opacity="1" stroke-width="0.4" stroke-linecap="butt" stroke-linejoin="round" stroke="rgb(0%, 0%, 0%)" stroke-opacity="1" stroke-miterlimit="10" d="M 232.999701 213.00026 L 213.00125 227.999098 " transform="matrix(0.998515, 0, 0, -0.998515, -33.235693, 452.027673)"/>
<path fill-rule="evenodd" fill="rgb(100%, 100%, 100%)" fill-opacity="1" stroke-width="0.4" stroke-linecap="butt" stroke-linejoin="round" stroke="rgb(0%, 0%, 0%)" stroke-opacity="1" stroke-miterlimit="10" d="M 257.000189 213.00026 L 268.998477 175.999997 " transform="matrix(0.998515, 0, 0, -0.998515, -33.235693, 452.027673)"/>
<path fill-rule="evenodd" fill="rgb(100%, 100%, 100%)" fill-opacity="1" stroke-width="0.4" stroke-linecap="butt" stroke-linejoin="round" stroke="rgb(0%, 0%, 0%)" stroke-opacity="1" stroke-miterlimit="10" d="M 257.000189 213.00026 L 308.99929 205.000098 " transform="matrix(0.998515, 0, 0, -0.998515, -33.235693, 452.027673)"/>
<path fill-rule="evenodd" fill="rgb(100%, 100%, 100%)" fill-opacity="1" stroke-width="0.4" stroke-linecap="butt" stroke-linejoin="round" stroke="rgb(0%, 0%, 0%)" stroke-opacity="1" stroke-miterlimit="10" d="M 257.000189 213.00026 L 276.99864 227.999098 " transform="matrix(0.998515, 0, 0, -0.998515, -33.235693, 452.027673)"/>
<path fill="none" stroke-width="0.4" stroke-linecap="butt" stroke-linejoin="round" stroke="rgb(0%, 0%, 0%)" stroke-opacity="1" stroke-miterlimit="10" d="M 257.000189 213.00026 L 232.999701 213.00026 " transform="matrix(0.998515, 0, 0, -0.998515, -33.235693, 452.027673)"/>
<path fill-rule="evenodd" fill="rgb(100%, 100%, 100%)" fill-opacity="1" stroke-width="0.4" stroke-linecap="butt" stroke-linejoin="round" stroke="rgb(0%, 0%, 0%)" stroke-opacity="1" stroke-miterlimit="10" d="M 276.99864 227.999098 L 308.99929 205.000098 " transform="matrix(0.998515, 0, 0, -0.998515, -33.235693, 452.027673)"/>
<path fill-rule="evenodd" fill="rgb(100%, 100%, 100%)" fill-opacity="1" stroke-width="0.4" stroke-linecap="butt" stroke-linejoin="round" stroke="rgb(0%, 0%, 0%)" stroke-opacity="1" stroke-miterlimit="10" d="M 276.99864 227.999098 L 323.998128 250.998099 " transform="matrix(0.998515, 0, 0, -0.998515, -33.235693, 452.027673)"/>
<path fill-rule="evenodd" fill="rgb(100%, 100%, 100%)" fill-opacity="1" stroke-width="0.4" stroke-linecap="butt" stroke-linejoin="round" stroke="rgb(0%, 0%, 0%)" stroke-opacity="1" stroke-miterlimit="10" d="M 276.99864 227.999098 L 284.998802 250.998099 " transform="matrix(0.998515, 0, 0, -0.998515, -33.235693, 452.027673)"/>
<path fill-rule="evenodd" fill="rgb(100%, 100%, 100%)" fill-opacity="1" stroke-width="0.4" stroke-linecap="butt" stroke-linejoin="round" stroke="rgb(0%, 0%, 0%)" stroke-opacity="1" stroke-miterlimit="10" d="M 276.99864 227.999098 L 257.000189 213.00026 " transform="matrix(0.998515, 0, 0, -0.998515, -33.235693, 452.027673)"/>
<path fill="none" stroke-width="0.4" stroke-linecap="butt" stroke-linejoin="round" stroke="rgb(0%, 0%, 0%)" stroke-opacity="1" stroke-miterlimit="10" d="M 284.998802 250.998099 L 323.998128 250.998099 " transform="matrix(0.998515, 0, 0, -0.998515, -33.235693, 452.027673)"/>
<path fill-rule="evenodd" fill="rgb(100%, 100%, 100%)" fill-opacity="1" stroke-width="0.4" stroke-linecap="butt" stroke-linejoin="round" stroke="rgb(0%, 0%, 0%)" stroke-opacity="1" stroke-miterlimit="10" d="M 284.998802 250.998099 L 308.99929 297.000012 " transform="matrix(0.998515, 0, 0, -0.998515, -33.235693, 452.027673)"/>
<path fill-rule="evenodd" fill="rgb(100%, 100%, 100%)" fill-opacity="1" stroke-width="0.4" stroke-linecap="butt" stroke-linejoin="round" stroke="rgb(0%, 0%, 0%)" stroke-opacity="1" stroke-miterlimit="10" d="M 284.998802 250.998099 L 276.99864 227.999098 " transform="matrix(0.998515, 0, 0, -0.998515, -33.235693, 452.027673)"/>
<path fill-rule="evenodd" fill="rgb(100%, 100%, 100%)" fill-opacity="1" stroke-width="0.4" stroke-linecap="butt" stroke-linejoin="round" stroke="rgb(0%, 0%, 0%)" stroke-opacity="1" stroke-miterlimit="10" d="M 308.99929 297.000012 L 281.998252 364.001864 " transform="matrix(0.998515, 0, 0, -0.998515, -33.235693, 452.027673)"/>
<path fill-rule="evenodd" fill="rgb(100%, 100%, 100%)" fill-opacity="1" stroke-width="0.4" stroke-linecap="butt" stroke-linejoin="round" stroke="rgb(0%, 0%, 0%)" stroke-opacity="1" stroke-miterlimit="10" d="M 308.99929 297.000012 L 268.998477 326.000113 " transform="matrix(0.998515, 0, 0, -0.998515, -33.235693, 452.027673)"/>
<path fill-rule="evenodd" fill="rgb(100%, 100%, 100%)" fill-opacity="1" stroke-width="0.4" stroke-linecap="butt" stroke-linejoin="round" stroke="rgb(0%, 0%, 0%)" stroke-opacity="1" stroke-miterlimit="10" d="M 308.99929 297.000012 L 284.998802 250.998099 " transform="matrix(0.998515, 0, 0, -0.998515, -33.235693, 452.027673)"/>
<path fill-rule="evenodd" fill="rgb(100%, 100%, 100%)" fill-opacity="1" stroke-width="0.4" stroke-linecap="butt" stroke-linejoin="round" stroke="rgb(0%, 0%, 0%)" stroke-opacity="1" stroke-miterlimit="10" d="M 308.99929 297.000012 L 323.998128 250.998099 " transform="matrix(0.998515, 0, 0, -0.998515, -33.235693, 452.027673)"/>
<path fill-rule="evenodd" fill="rgb(100%, 100%, 100%)" fill-opacity="1" stroke-width="0.4" stroke-linecap="butt" stroke-linejoin="round" stroke="rgb(0%, 0%, 0%)" stroke-opacity="1" stroke-miterlimit="10" d="M 308.99929 297.000012 L 340.999941 321.0005 " transform="matrix(0.998515, 0, 0, -0.998515, -33.235693, 452.027673)"/>
<path fill-rule="evenodd" fill="rgb(100%, 100%, 100%)" fill-opacity="1" stroke-width="0.4" stroke-linecap="butt" stroke-linejoin="round" stroke="rgb(0%, 0%, 0%)" stroke-opacity="1" stroke-miterlimit="10" d="M 268.998477 326.000113 L 281.998252 364.001864 " transform="matrix(0.998515, 0, 0, -0.998515, -33.235693, 452.027673)"/>
<path fill-rule="evenodd" fill="rgb(100%, 100%, 100%)" fill-opacity="1" stroke-width="0.4" stroke-linecap="butt" stroke-linejoin="round" stroke="rgb(0%, 0%, 0%)" stroke-opacity="1" stroke-miterlimit="10" d="M 268.998477 326.000113 L 208.001638 364.001864 " transform="matrix(0.998515, 0, 0, -0.998515, -33.235693, 452.027673)"/>
<path fill="none" stroke-width="0.4" stroke-linecap="butt" stroke-linejoin="round" stroke="rgb(0%, 0%, 0%)" stroke-opacity="1" stroke-miterlimit="10" d="M 268.998477 326.000113 L 221.001413 326.000113 " transform="matrix(0.998515, 0, 0, -0.998515, -33.235693, 452.027673)"/>
<path fill-rule="evenodd" fill="rgb(100%, 100%, 100%)" fill-opacity="1" stroke-width="0.4" stroke-linecap="butt" stroke-linejoin="round" stroke="rgb(0%, 0%, 0%)" stroke-opacity="1" stroke-miterlimit="10" d="M 268.998477 326.000113 L 308.99929 297.000012 " transform="matrix(0.998515, 0, 0, -0.998515, -33.235693, 452.027673)"/>
<path fill-rule="evenodd" fill="rgb(100%, 100%, 100%)" fill-opacity="1" stroke-width="0.4" stroke-linecap="butt" stroke-linejoin="round" stroke="rgb(0%, 0%, 0%)" stroke-opacity="1" stroke-miterlimit="10" d="M 221.001413 326.000113 L 208.001638 364.001864 " transform="matrix(0.998515, 0, 0, -0.998515, -33.235693, 452.027673)"/>
<path fill-rule="evenodd" fill="rgb(100%, 100%, 100%)" fill-opacity="1" stroke-width="0.4" stroke-linecap="butt" stroke-linejoin="round" stroke="rgb(0%, 0%, 0%)" stroke-opacity="1" stroke-miterlimit="10" d="M 221.001413 326.000113 L 148.999949 321.0005 " transform="matrix(0.998515, 0, 0, -0.998515, -33.235693, 452.027673)"/>
<path fill-rule="evenodd" fill="rgb(100%, 100%, 100%)" fill-opacity="1" stroke-width="0.4" stroke-linecap="butt" stroke-linejoin="round" stroke="rgb(0%, 0%, 0%)" stroke-opacity="1" stroke-miterlimit="10" d="M 221.001413 326.000113 L 181.0006 297.000012 " transform="matrix(0.998515, 0, 0, -0.998515, -33.235693, 452.027673)"/>
<path fill="none" stroke-width="0.4" stroke-linecap="butt" stroke-linejoin="round" stroke="rgb(0%, 0%, 0%)" stroke-opacity="1" stroke-miterlimit="10" d="M 221.001413 326.000113 L 268.998477 326.000113 " transform="matrix(0.998515, 0, 0, -0.998515, -33.235693, 452.027673)"/>
<path fill-rule="evenodd" fill="rgb(100%, 100%, 100%)" fill-opacity="1" stroke-width="0.4" stroke-linecap="butt" stroke-linejoin="round" stroke="rgb(0%, 0%, 0%)" stroke-opacity="1" stroke-miterlimit="10" d="M 181.0006 297.000012 L 148.999949 321.0005 " transform="matrix(0.998515, 0, 0, -0.998515, -33.235693, 452.027673)"/>
<path fill-rule="evenodd" fill="rgb(100%, 100%, 100%)" fill-opacity="1" stroke-width="0.4" stroke-linecap="butt" stroke-linejoin="round" stroke="rgb(0%, 0%, 0%)" stroke-opacity="1" stroke-miterlimit="10" d="M 181.0006 297.000012 L 126.998523 250.998099 " transform="matrix(0.998515, 0, 0, -0.998515, -33.235693, 452.027673)"/>
<path fill-rule="evenodd" fill="rgb(100%, 100%, 100%)" fill-opacity="1" stroke-width="0.4" stroke-linecap="butt" stroke-linejoin="round" stroke="rgb(0%, 0%, 0%)" stroke-opacity="1" stroke-miterlimit="10" d="M 181.0006 297.000012 L 166.001762 250.998099 " transform="matrix(0.998515, 0, 0, -0.998515, -33.235693, 452.027673)"/>
<path fill-rule="evenodd" fill="rgb(100%, 100%, 100%)" fill-opacity="1" stroke-width="0.4" stroke-linecap="butt" stroke-linejoin="round" stroke="rgb(0%, 0%, 0%)" stroke-opacity="1" stroke-miterlimit="10" d="M 181.0006 297.000012 L 221.001413 326.000113 " transform="matrix(0.998515, 0, 0, -0.998515, -33.235693, 452.027673)"/>
<path fill="none" stroke-width="0.4" stroke-linecap="butt" stroke-linejoin="round" stroke="rgb(0%, 0%, 0%)" stroke-opacity="1" stroke-miterlimit="10" d="M 166.001762 250.998099 L 126.998523 250.998099 " transform="matrix(0.998515, 0, 0, -0.998515, -33.235693, 452.027673)"/>
<path fill-rule="evenodd" fill="rgb(100%, 100%, 100%)" fill-opacity="1" stroke-width="0.4" stroke-linecap="butt" stroke-linejoin="round" stroke="rgb(0%, 0%, 0%)" stroke-opacity="1" stroke-miterlimit="10" d="M 166.001762 250.998099 L 148.999949 180.99961 " transform="matrix(0.998515, 0, 0, -0.998515, -33.235693, 452.027673)"/>
<path fill-rule="evenodd" fill="rgb(100%, 100%, 100%)" fill-opacity="1" stroke-width="0.4" stroke-linecap="butt" stroke-linejoin="round" stroke="rgb(0%, 0%, 0%)" stroke-opacity="1" stroke-miterlimit="10" d="M 166.001762 250.998099 L 181.0006 205.000098 " transform="matrix(0.998515, 0, 0, -0.998515, -33.235693, 452.027673)"/>
<path fill-rule="evenodd" fill="rgb(100%, 100%, 100%)" fill-opacity="1" stroke-width="0.4" stroke-linecap="butt" stroke-linejoin="round" stroke="rgb(0%, 0%, 0%)" stroke-opacity="1" stroke-miterlimit="10" d="M 166.001762 250.998099 L 181.0006 297.000012 " transform="matrix(0.998515, 0, 0, -0.998515, -33.235693, 452.027673)"/>
<path fill-rule="evenodd" fill="rgb(100%, 100%, 100%)" fill-opacity="1" stroke-width="0.4" stroke-linecap="butt" stroke-linejoin="round" stroke="rgb(0%, 0%, 0%)" stroke-opacity="1" stroke-miterlimit="10" d="M 181.0006 205.000098 L 148.999949 180.99961 " transform="matrix(0.998515, 0, 0, -0.998515, -33.235693, 452.027673)"/>
<path fill-rule="evenodd" fill="rgb(100%, 100%, 100%)" fill-opacity="1" stroke-width="0.4" stroke-linecap="butt" stroke-linejoin="round" stroke="rgb(0%, 0%, 0%)" stroke-opacity="1" stroke-miterlimit="10" d="M 181.0006 205.000098 L 208.001638 137.998246 " transform="matrix(0.998515, 0, 0, -0.998515, -33.235693, 452.027673)"/>
<path fill-rule="evenodd" fill="rgb(100%, 100%, 100%)" fill-opacity="1" stroke-width="0.4" stroke-linecap="butt" stroke-linejoin="round" stroke="rgb(0%, 0%, 0%)" stroke-opacity="1" stroke-miterlimit="10" d="M 181.0006 205.000098 L 221.001413 175.999997 " transform="matrix(0.998515, 0, 0, -0.998515, -33.235693, 452.027673)"/>
<path fill-rule="evenodd" fill="rgb(100%, 100%, 100%)" fill-opacity="1" stroke-width="0.4" stroke-linecap="butt" stroke-linejoin="round" stroke="rgb(0%, 0%, 0%)" stroke-opacity="1" stroke-miterlimit="10" d="M 181.0006 205.000098 L 166.001762 250.998099 " transform="matrix(0.998515, 0, 0, -0.998515, -33.235693, 452.027673)"/>
<path fill-rule="evenodd" fill="rgb(100%, 100%, 100%)" fill-opacity="1" stroke-width="0.4" stroke-linecap="butt" stroke-linejoin="round" stroke="rgb(0%, 0%, 0%)" stroke-opacity="1" stroke-miterlimit="10" d="M 221.001413 175.999997 L 208.001638 137.998246 " transform="matrix(0.998515, 0, 0, -0.998515, -33.235693, 452.027673)"/>
<path fill-rule="evenodd" fill="rgb(100%, 100%, 100%)" fill-opacity="1" stroke-width="0.4" stroke-linecap="butt" stroke-linejoin="round" stroke="rgb(0%, 0%, 0%)" stroke-opacity="1" stroke-miterlimit="10" d="M 221.001413 175.999997 L 281.998252 137.998246 " transform="matrix(0.998515, 0, 0, -0.998515, -33.235693, 452.027673)"/>
<path fill="none" stroke-width="0.4" stroke-linecap="butt" stroke-linejoin="round" stroke="rgb(0%, 0%, 0%)" stroke-opacity="1" stroke-miterlimit="10" d="M 221.001413 175.999997 L 268.998477 175.999997 " transform="matrix(0.998515, 0, 0, -0.998515, -33.235693, 452.027673)"/>
<path fill-rule="evenodd" fill="rgb(100%, 100%, 100%)" fill-opacity="1" stroke-width="0.4" stroke-linecap="butt" stroke-linejoin="round" stroke="rgb(0%, 0%, 0%)" stroke-opacity="1" stroke-miterlimit="10" d="M 221.001413 175.999997 L 181.0006 205.000098 " transform="matrix(0.998515, 0, 0, -0.998515, -33.235693, 452.027673)"/>
<path fill-rule="evenodd" fill="rgb(100%, 100%, 100%)" fill-opacity="1" stroke-width="0.4" stroke-linecap="butt" stroke-linejoin="round" stroke="rgb(0%, 0%, 0%)" stroke-opacity="1" stroke-miterlimit="10" d="M 268.998477 175.999997 L 281.998252 137.998246 " transform="matrix(0.998515, 0, 0, -0.998515, -33.235693, 452.027673)"/>
<path fill-rule="evenodd" fill="rgb(100%, 100%, 100%)" fill-opacity="1" stroke-width="0.4" stroke-linecap="butt" stroke-linejoin="round" stroke="rgb(0%, 0%, 0%)" stroke-opacity="1" stroke-miterlimit="10" d="M 268.998477 175.999997 L 340.999941 180.99961 " transform="matrix(0.998515, 0, 0, -0.998515, -33.235693, 452.027673)"/>
<path fill-rule="evenodd" fill="rgb(100%, 100%, 100%)" fill-opacity="1" stroke-width="0.4" stroke-linecap="butt" stroke-linejoin="round" stroke="rgb(0%, 0%, 0%)" stroke-opacity="1" stroke-miterlimit="10" d="M 268.998477 175.999997 L 308.99929 205.000098 " transform="matrix(0.998515, 0, 0, -0.998515, -33.235693, 452.027673)"/>
<path fill="none" stroke-width="0.4" stroke-linecap="butt" stroke-linejoin="round" stroke="rgb(0%, 0%, 0%)" stroke-opacity="1" stroke-miterlimit="10" d="M 268.998477 175.999997 L 221.001413 175.999997 " transform="matrix(0.998515, 0, 0, -0.998515, -33.235693, 452.027673)"/>
<path fill-rule="evenodd" fill="rgb(100%, 100%, 100%)" fill-opacity="1" stroke-width="0.4" stroke-linecap="butt" stroke-linejoin="round" stroke="rgb(0%, 0%, 0%)" stroke-opacity="1" stroke-miterlimit="10" d="M 308.99929 205.000098 L 340.999941 180.99961 " transform="matrix(0.998515, 0, 0, -0.998515, -33.235693, 452.027673)"/>
<path fill-rule="evenodd" fill="rgb(100%, 100%, 100%)" fill-opacity="1" stroke-width="0.4" stroke-linecap="butt" stroke-linejoin="round" stroke="rgb(0%, 0%, 0%)" stroke-opacity="1" stroke-miterlimit="10" d="M 308.99929 205.000098 L 363.998942 250.998099 " transform="matrix(0.998515, 0, 0, -0.998515, -33.235693, 452.027673)"/>
<path fill-rule="evenodd" fill="rgb(100%, 100%, 100%)" fill-opacity="1" stroke-width="0.4" stroke-linecap="butt" stroke-linejoin="round" stroke="rgb(0%, 0%, 0%)" stroke-opacity="1" stroke-miterlimit="10" d="M 308.99929 205.000098 L 323.998128 250.998099 " transform="matrix(0.998515, 0, 0, -0.998515, -33.235693, 452.027673)"/>
<path fill-rule="evenodd" fill="rgb(100%, 100%, 100%)" fill-opacity="1" stroke-width="0.4" stroke-linecap="butt" stroke-linejoin="round" stroke="rgb(0%, 0%, 0%)" stroke-opacity="1" stroke-miterlimit="10" d="M 308.99929 205.000098 L 268.998477 175.999997 " transform="matrix(0.998515, 0, 0, -0.998515, -33.235693, 452.027673)"/>
<path fill="none" stroke-width="0.4" stroke-linecap="butt" stroke-linejoin="round" stroke="rgb(0%, 0%, 0%)" stroke-opacity="1" stroke-miterlimit="10" d="M 323.998128 250.998099 L 363.998942 250.998099 " transform="matrix(0.998515, 0, 0, -0.998515, -33.235693, 452.027673)"/>
<path fill-rule="evenodd" fill="rgb(100%, 100%, 100%)" fill-opacity="1" stroke-width="0.4" stroke-linecap="butt" stroke-linejoin="round" stroke="rgb(0%, 0%, 0%)" stroke-opacity="1" stroke-miterlimit="10" d="M 323.998128 250.998099 L 340.999941 321.0005 " transform="matrix(0.998515, 0, 0, -0.998515, -33.235693, 452.027673)"/>
<path fill-rule="evenodd" fill="rgb(100%, 100%, 100%)" fill-opacity="1" stroke-width="0.4" stroke-linecap="butt" stroke-linejoin="round" stroke="rgb(0%, 0%, 0%)" stroke-opacity="1" stroke-miterlimit="10" d="M 323.998128 250.998099 L 308.99929 205.000098 " transform="matrix(0.998515, 0, 0, -0.998515, -33.235693, 452.027673)"/>
<path fill-rule="evenodd" fill="rgb(100%, 100%, 100%)" fill-opacity="1" stroke-width="0.4" stroke-linecap="butt" stroke-linejoin="round" stroke="rgb(0%, 0%, 0%)" stroke-opacity="1" stroke-miterlimit="10" d="M 340.999941 321.0005 L 294.000452 400.998215 " transform="matrix(0.998515, 0, 0, -0.998515, -33.235693, 452.027673)"/>
<path fill-rule="evenodd" fill="rgb(100%, 100%, 100%)" fill-opacity="1" stroke-width="0.4" stroke-linecap="butt" stroke-linejoin="round" stroke="rgb(0%, 0%, 0%)" stroke-opacity="1" stroke-miterlimit="10" d="M 340.999941 321.0005 L 281.998252 364.001864 " transform="matrix(0.998515, 0, 0, -0.998515, -33.235693, 452.027673)"/>
<path fill-rule="evenodd" fill="rgb(100%, 100%, 100%)" fill-opacity="1" stroke-width="0.4" stroke-linecap="butt" stroke-linejoin="round" stroke="rgb(0%, 0%, 0%)" stroke-opacity="1" stroke-miterlimit="10" d="M 340.999941 321.0005 L 323.998128 250.998099 " transform="matrix(0.998515, 0, 0, -0.998515, -33.235693, 452.027673)"/>
<path fill-rule="evenodd" fill="rgb(100%, 100%, 100%)" fill-opacity="1" stroke-width="0.4" stroke-linecap="butt" stroke-linejoin="round" stroke="rgb(0%, 0%, 0%)" stroke-opacity="1" stroke-miterlimit="10" d="M 340.999941 321.0005 L 363.998942 250.998099 " transform="matrix(0.998515, 0, 0, -0.998515, -33.235693, 452.027673)"/>
<path fill-rule="evenodd" fill="rgb(100%, 100%, 100%)" fill-opacity="1" stroke-width="0.4" stroke-linecap="butt" stroke-linejoin="round" stroke="rgb(0%, 0%, 0%)" stroke-opacity="1" stroke-miterlimit="10" d="M 340.999941 321.0005 L 373.000592 343.999501 " transform="matrix(0.998515, 0, 0, -0.998515, -33.235693, 452.027673)"/>
<path fill-rule="evenodd" fill="rgb(100%, 100%, 100%)" fill-opacity="1" stroke-width="0.4" stroke-linecap="butt" stroke-linejoin="round" stroke="rgb(0%, 0%, 0%)" stroke-opacity="1" stroke-miterlimit="10" d="M 281.998252 364.001864 L 294.000452 400.998215 " transform="matrix(0.998515, 0, 0, -0.998515, -33.235693, 452.027673)"/>
<path fill-rule="evenodd" fill="rgb(100%, 100%, 100%)" fill-opacity="1" stroke-width="0.4" stroke-linecap="butt" stroke-linejoin="round" stroke="rgb(0%, 0%, 0%)" stroke-opacity="1" stroke-miterlimit="10" d="M 281.998252 364.001864 L 195.999438 400.998215 " transform="matrix(0.998515, 0, 0, -0.998515, -33.235693, 452.027673)"/>
<path fill="none" stroke-width="0.4" stroke-linecap="butt" stroke-linejoin="round" stroke="rgb(0%, 0%, 0%)" stroke-opacity="1" stroke-miterlimit="10" d="M 281.998252 364.001864 L 208.001638 364.001864 " transform="matrix(0.998515, 0, 0, -0.998515, -33.235693, 452.027673)"/>
<path fill-rule="evenodd" fill="rgb(100%, 100%, 100%)" fill-opacity="1" stroke-width="0.4" stroke-linecap="butt" stroke-linejoin="round" stroke="rgb(0%, 0%, 0%)" stroke-opacity="1" stroke-miterlimit="10" d="M 281.998252 364.001864 L 340.999941 321.0005 " transform="matrix(0.998515, 0, 0, -0.998515, -33.235693, 452.027673)"/>
<path fill-rule="evenodd" fill="rgb(100%, 100%, 100%)" fill-opacity="1" stroke-width="0.4" stroke-linecap="butt" stroke-linejoin="round" stroke="rgb(0%, 0%, 0%)" stroke-opacity="1" stroke-miterlimit="10" d="M 208.001638 364.001864 L 195.999438 400.998215 " transform="matrix(0.998515, 0, 0, -0.998515, -33.235693, 452.027673)"/>
<path fill-rule="evenodd" fill="rgb(100%, 100%, 100%)" fill-opacity="1" stroke-width="0.4" stroke-linecap="butt" stroke-linejoin="round" stroke="rgb(0%, 0%, 0%)" stroke-opacity="1" stroke-miterlimit="10" d="M 208.001638 364.001864 L 116.999298 343.999501 " transform="matrix(0.998515, 0, 0, -0.998515, -33.235693, 452.027673)"/>
<path fill-rule="evenodd" fill="rgb(100%, 100%, 100%)" fill-opacity="1" stroke-width="0.4" stroke-linecap="butt" stroke-linejoin="round" stroke="rgb(0%, 0%, 0%)" stroke-opacity="1" stroke-miterlimit="10" d="M 208.001638 364.001864 L 148.999949 321.0005 " transform="matrix(0.998515, 0, 0, -0.998515, -33.235693, 452.027673)"/>
<path fill="none" stroke-width="0.4" stroke-linecap="butt" stroke-linejoin="round" stroke="rgb(0%, 0%, 0%)" stroke-opacity="1" stroke-miterlimit="10" d="M 208.001638 364.001864 L 281.998252 364.001864 " transform="matrix(0.998515, 0, 0, -0.998515, -33.235693, 452.027673)"/>
<path fill-rule="evenodd" fill="rgb(100%, 100%, 100%)" fill-opacity="1" stroke-width="0.4" stroke-linecap="butt" stroke-linejoin="round" stroke="rgb(0%, 0%, 0%)" stroke-opacity="1" stroke-miterlimit="10" d="M 148.999949 321.0005 L 116.999298 343.999501 " transform="matrix(0.998515, 0, 0, -0.998515, -33.235693, 452.027673)"/>
<path fill-rule="evenodd" fill="rgb(100%, 100%, 100%)" fill-opacity="1" stroke-width="0.4" stroke-linecap="butt" stroke-linejoin="round" stroke="rgb(0%, 0%, 0%)" stroke-opacity="1" stroke-miterlimit="10" d="M 148.999949 321.0005 L 87.001622 250.998099 " transform="matrix(0.998515, 0, 0, -0.998515, -33.235693, 452.027673)"/>
<path fill-rule="evenodd" fill="rgb(100%, 100%, 100%)" fill-opacity="1" stroke-width="0.4" stroke-linecap="butt" stroke-linejoin="round" stroke="rgb(0%, 0%, 0%)" stroke-opacity="1" stroke-miterlimit="10" d="M 148.999949 321.0005 L 126.998523 250.998099 " transform="matrix(0.998515, 0, 0, -0.998515, -33.235693, 452.027673)"/>
<path fill-rule="evenodd" fill="rgb(100%, 100%, 100%)" fill-opacity="1" stroke-width="0.4" stroke-linecap="butt" stroke-linejoin="round" stroke="rgb(0%, 0%, 0%)" stroke-opacity="1" stroke-miterlimit="10" d="M 148.999949 321.0005 L 208.001638 364.001864 " transform="matrix(0.998515, 0, 0, -0.998515, -33.235693, 452.027673)"/>
<path fill="none" stroke-width="0.4" stroke-linecap="butt" stroke-linejoin="round" stroke="rgb(0%, 0%, 0%)" stroke-opacity="1" stroke-miterlimit="10" d="M 126.998523 250.998099 L 87.001622 250.998099 " transform="matrix(0.998515, 0, 0, -0.998515, -33.235693, 452.027673)"/>
<path fill-rule="evenodd" fill="rgb(100%, 100%, 100%)" fill-opacity="1" stroke-width="0.4" stroke-linecap="butt" stroke-linejoin="round" stroke="rgb(0%, 0%, 0%)" stroke-opacity="1" stroke-miterlimit="10" d="M 126.998523 250.998099 L 116.999298 158.000609 " transform="matrix(0.998515, 0, 0, -0.998515, -33.235693, 452.027673)"/>
<path fill-rule="evenodd" fill="rgb(100%, 100%, 100%)" fill-opacity="1" stroke-width="0.4" stroke-linecap="butt" stroke-linejoin="round" stroke="rgb(0%, 0%, 0%)" stroke-opacity="1" stroke-miterlimit="10" d="M 126.998523 250.998099 L 148.999949 180.99961 " transform="matrix(0.998515, 0, 0, -0.998515, -33.235693, 452.027673)"/>
<path fill-rule="evenodd" fill="rgb(100%, 100%, 100%)" fill-opacity="1" stroke-width="0.4" stroke-linecap="butt" stroke-linejoin="round" stroke="rgb(0%, 0%, 0%)" stroke-opacity="1" stroke-miterlimit="10" d="M 126.998523 250.998099 L 148.999949 321.0005 " transform="matrix(0.998515, 0, 0, -0.998515, -33.235693, 452.027673)"/>
<path fill-rule="evenodd" fill="rgb(100%, 100%, 100%)" fill-opacity="1" stroke-width="0.4" stroke-linecap="butt" stroke-linejoin="round" stroke="rgb(0%, 0%, 0%)" stroke-opacity="1" stroke-miterlimit="10" d="M 148.999949 180.99961 L 116.999298 158.000609 " transform="matrix(0.998515, 0, 0, -0.998515, -33.235693, 452.027673)"/>
<path fill-rule="evenodd" fill="rgb(100%, 100%, 100%)" fill-opacity="1" stroke-width="0.4" stroke-linecap="butt" stroke-linejoin="round" stroke="rgb(0%, 0%, 0%)" stroke-opacity="1" stroke-miterlimit="10" d="M 148.999949 180.99961 L 195.999438 101.001895 " transform="matrix(0.998515, 0, 0, -0.998515, -33.235693, 452.027673)"/>
<path fill-rule="evenodd" fill="rgb(100%, 100%, 100%)" fill-opacity="1" stroke-width="0.4" stroke-linecap="butt" stroke-linejoin="round" stroke="rgb(0%, 0%, 0%)" stroke-opacity="1" stroke-miterlimit="10" d="M 148.999949 180.99961 L 208.001638 137.998246 " transform="matrix(0.998515, 0, 0, -0.998515, -33.235693, 452.027673)"/>
<path fill-rule="evenodd" fill="rgb(100%, 100%, 100%)" fill-opacity="1" stroke-width="0.4" stroke-linecap="butt" stroke-linejoin="round" stroke="rgb(0%, 0%, 0%)" stroke-opacity="1" stroke-miterlimit="10" d="M 148.999949 180.99961 L 126.998523 250.998099 " transform="matrix(0.998515, 0, 0, -0.998515, -33.235693, 452.027673)"/>
<path fill-rule="evenodd" fill="rgb(100%, 100%, 100%)" fill-opacity="1" stroke-width="0.4" stroke-linecap="butt" stroke-linejoin="round" stroke="rgb(0%, 0%, 0%)" stroke-opacity="1" stroke-miterlimit="10" d="M 208.001638 137.998246 L 195.999438 101.001895 " transform="matrix(0.998515, 0, 0, -0.998515, -33.235693, 452.027673)"/>
<path fill-rule="evenodd" fill="rgb(100%, 100%, 100%)" fill-opacity="1" stroke-width="0.4" stroke-linecap="butt" stroke-linejoin="round" stroke="rgb(0%, 0%, 0%)" stroke-opacity="1" stroke-miterlimit="10" d="M 208.001638 137.998246 L 294.000452 101.001895 " transform="matrix(0.998515, 0, 0, -0.998515, -33.235693, 452.027673)"/>
<path fill="none" stroke-width="0.4" stroke-linecap="butt" stroke-linejoin="round" stroke="rgb(0%, 0%, 0%)" stroke-opacity="1" stroke-miterlimit="10" d="M 208.001638 137.998246 L 281.998252 137.998246 " transform="matrix(0.998515, 0, 0, -0.998515, -33.235693, 452.027673)"/>
<path fill-rule="evenodd" fill="rgb(100%, 100%, 100%)" fill-opacity="1" stroke-width="0.4" stroke-linecap="butt" stroke-linejoin="round" stroke="rgb(0%, 0%, 0%)" stroke-opacity="1" stroke-miterlimit="10" d="M 208.001638 137.998246 L 148.999949 180.99961 " transform="matrix(0.998515, 0, 0, -0.998515, -33.235693, 452.027673)"/>
<path fill-rule="evenodd" fill="rgb(100%, 100%, 100%)" fill-opacity="1" stroke-width="0.4" stroke-linecap="butt" stroke-linejoin="round" stroke="rgb(0%, 0%, 0%)" stroke-opacity="1" stroke-miterlimit="10" d="M 281.998252 137.998246 L 294.000452 101.001895 " transform="matrix(0.998515, 0, 0, -0.998515, -33.235693, 452.027673)"/>
<path fill-rule="evenodd" fill="rgb(100%, 100%, 100%)" fill-opacity="1" stroke-width="0.4" stroke-linecap="butt" stroke-linejoin="round" stroke="rgb(0%, 0%, 0%)" stroke-opacity="1" stroke-miterlimit="10" d="M 281.998252 137.998246 L 373.000592 158.000609 " transform="matrix(0.998515, 0, 0, -0.998515, -33.235693, 452.027673)"/>
<path fill-rule="evenodd" fill="rgb(100%, 100%, 100%)" fill-opacity="1" stroke-width="0.4" stroke-linecap="butt" stroke-linejoin="round" stroke="rgb(0%, 0%, 0%)" stroke-opacity="1" stroke-miterlimit="10" d="M 281.998252 137.998246 L 340.999941 180.99961 " transform="matrix(0.998515, 0, 0, -0.998515, -33.235693, 452.027673)"/>
<path fill="none" stroke-width="0.4" stroke-linecap="butt" stroke-linejoin="round" stroke="rgb(0%, 0%, 0%)" stroke-opacity="1" stroke-miterlimit="10" d="M 281.998252 137.998246 L 208.001638 137.998246 " transform="matrix(0.998515, 0, 0, -0.998515, -33.235693, 452.027673)"/>
<path fill-rule="evenodd" fill="rgb(100%, 100%, 100%)" fill-opacity="1" stroke-width="0.4" stroke-linecap="butt" stroke-linejoin="round" stroke="rgb(0%, 0%, 0%)" stroke-opacity="1" stroke-miterlimit="10" d="M 340.999941 180.99961 L 373.000592 158.000609 " transform="matrix(0.998515, 0, 0, -0.998515, -33.235693, 452.027673)"/>
<path fill-rule="evenodd" fill="rgb(100%, 100%, 100%)" fill-opacity="1" stroke-width="0.4" stroke-linecap="butt" stroke-linejoin="round" stroke="rgb(0%, 0%, 0%)" stroke-opacity="1" stroke-miterlimit="10" d="M 340.999941 180.99961 L 402.998268 250.998099 " transform="matrix(0.998515, 0, 0, -0.998515, -33.235693, 452.027673)"/>
<path fill-rule="evenodd" fill="rgb(100%, 100%, 100%)" fill-opacity="1" stroke-width="0.4" stroke-linecap="butt" stroke-linejoin="round" stroke="rgb(0%, 0%, 0%)" stroke-opacity="1" stroke-miterlimit="10" d="M 340.999941 180.99961 L 363.998942 250.998099 " transform="matrix(0.998515, 0, 0, -0.998515, -33.235693, 452.027673)"/>
<path fill-rule="evenodd" fill="rgb(100%, 100%, 100%)" fill-opacity="1" stroke-width="0.4" stroke-linecap="butt" stroke-linejoin="round" stroke="rgb(0%, 0%, 0%)" stroke-opacity="1" stroke-miterlimit="10" d="M 340.999941 180.99961 L 281.998252 137.998246 " transform="matrix(0.998515, 0, 0, -0.998515, -33.235693, 452.027673)"/>
<path fill="none" stroke-width="0.4" stroke-linecap="butt" stroke-linejoin="round" stroke="rgb(0%, 0%, 0%)" stroke-opacity="1" stroke-miterlimit="10" d="M 363.998942 250.998099 L 402.998268 250.998099 " transform="matrix(0.998515, 0, 0, -0.998515, -33.235693, 452.027673)"/>
<path fill-rule="evenodd" fill="rgb(100%, 100%, 100%)" fill-opacity="1" stroke-width="0.4" stroke-linecap="butt" stroke-linejoin="round" stroke="rgb(0%, 0%, 0%)" stroke-opacity="1" stroke-miterlimit="10" d="M 363.998942 250.998099 L 373.000592 343.999501 " transform="matrix(0.998515, 0, 0, -0.998515, -33.235693, 452.027673)"/>
<path fill-rule="evenodd" fill="rgb(100%, 100%, 100%)" fill-opacity="1" stroke-width="0.4" stroke-linecap="butt" stroke-linejoin="round" stroke="rgb(0%, 0%, 0%)" stroke-opacity="1" stroke-miterlimit="10" d="M 363.998942 250.998099 L 340.999941 180.99961 " transform="matrix(0.998515, 0, 0, -0.998515, -33.235693, 452.027673)"/>
<path fill-rule="evenodd" fill="rgb(100%, 100%, 100%)" fill-opacity="1" stroke-width="0.4" stroke-linecap="butt" stroke-linejoin="round" stroke="rgb(0%, 0%, 0%)" stroke-opacity="1" stroke-miterlimit="10" d="M 373.000592 343.999501 L 305.99874 438.999966 " transform="matrix(0.998515, 0, 0, -0.998515, -33.235693, 452.027673)"/>
<path fill-rule="evenodd" fill="rgb(100%, 100%, 100%)" fill-opacity="1" stroke-width="0.4" stroke-linecap="butt" stroke-linejoin="round" stroke="rgb(0%, 0%, 0%)" stroke-opacity="1" stroke-miterlimit="10" d="M 373.000592 343.999501 L 294.000452 400.998215 " transform="matrix(0.998515, 0, 0, -0.998515, -33.235693, 452.027673)"/>
<path fill-rule="evenodd" fill="rgb(100%, 100%, 100%)" fill-opacity="1" stroke-width="0.4" stroke-linecap="butt" stroke-linejoin="round" stroke="rgb(0%, 0%, 0%)" stroke-opacity="1" stroke-miterlimit="10" d="M 373.000592 343.999501 L 363.998942 250.998099 " transform="matrix(0.998515, 0, 0, -0.998515, -33.235693, 452.027673)"/>
<path fill-rule="evenodd" fill="rgb(100%, 100%, 100%)" fill-opacity="1" stroke-width="0.4" stroke-linecap="butt" stroke-linejoin="round" stroke="rgb(0%, 0%, 0%)" stroke-opacity="1" stroke-miterlimit="10" d="M 373.000592 343.999501 L 402.998268 250.998099 " transform="matrix(0.998515, 0, 0, -0.998515, -33.235693, 452.027673)"/>
<path fill-rule="evenodd" fill="rgb(100%, 100%, 100%)" fill-opacity="1" stroke-width="0.4" stroke-linecap="butt" stroke-linejoin="round" stroke="rgb(0%, 0%, 0%)" stroke-opacity="1" stroke-miterlimit="10" d="M 373.000592 343.999501 L 405.001243 366.998502 " transform="matrix(0.998515, 0, 0, -0.998515, -33.235693, 452.027673)"/>
<path fill-rule="evenodd" fill="rgb(100%, 100%, 100%)" fill-opacity="1" stroke-width="0.4" stroke-linecap="butt" stroke-linejoin="round" stroke="rgb(0%, 0%, 0%)" stroke-opacity="1" stroke-miterlimit="10" d="M 294.000452 400.998215 L 305.99874 438.999966 " transform="matrix(0.998515, 0, 0, -0.998515, -33.235693, 452.027673)"/>
<path fill-rule="evenodd" fill="rgb(100%, 100%, 100%)" fill-opacity="1" stroke-width="0.4" stroke-linecap="butt" stroke-linejoin="round" stroke="rgb(0%, 0%, 0%)" stroke-opacity="1" stroke-miterlimit="10" d="M 294.000452 400.998215 L 184.00115 438.999966 " transform="matrix(0.998515, 0, 0, -0.998515, -33.235693, 452.027673)"/>
<path fill="none" stroke-width="0.4" stroke-linecap="butt" stroke-linejoin="round" stroke="rgb(0%, 0%, 0%)" stroke-opacity="1" stroke-miterlimit="10" d="M 294.000452 400.998215 L 195.999438 400.998215 " transform="matrix(0.998515, 0, 0, -0.998515, -33.235693, 452.027673)"/>
<path fill-rule="evenodd" fill="rgb(100%, 100%, 100%)" fill-opacity="1" stroke-width="0.4" stroke-linecap="butt" stroke-linejoin="round" stroke="rgb(0%, 0%, 0%)" stroke-opacity="1" stroke-miterlimit="10" d="M 294.000452 400.998215 L 373.000592 343.999501 " transform="matrix(0.998515, 0, 0, -0.998515, -33.235693, 452.027673)"/>
<path fill-rule="evenodd" fill="rgb(100%, 100%, 100%)" fill-opacity="1" stroke-width="0.4" stroke-linecap="butt" stroke-linejoin="round" stroke="rgb(0%, 0%, 0%)" stroke-opacity="1" stroke-miterlimit="10" d="M 195.999438 400.998215 L 184.00115 438.999966 " transform="matrix(0.998515, 0, 0, -0.998515, -33.235693, 452.027673)"/>
<path fill-rule="evenodd" fill="rgb(100%, 100%, 100%)" fill-opacity="1" stroke-width="0.4" stroke-linecap="butt" stroke-linejoin="round" stroke="rgb(0%, 0%, 0%)" stroke-opacity="1" stroke-miterlimit="10" d="M 195.999438 400.998215 L 84.998647 366.998502 " transform="matrix(0.998515, 0, 0, -0.998515, -33.235693, 452.027673)"/>
<path fill-rule="evenodd" fill="rgb(100%, 100%, 100%)" fill-opacity="1" stroke-width="0.4" stroke-linecap="butt" stroke-linejoin="round" stroke="rgb(0%, 0%, 0%)" stroke-opacity="1" stroke-miterlimit="10" d="M 195.999438 400.998215 L 116.999298 343.999501 " transform="matrix(0.998515, 0, 0, -0.998515, -33.235693, 452.027673)"/>
<path fill="none" stroke-width="0.4" stroke-linecap="butt" stroke-linejoin="round" stroke="rgb(0%, 0%, 0%)" stroke-opacity="1" stroke-miterlimit="10" d="M 195.999438 400.998215 L 294.000452 400.998215 " transform="matrix(0.998515, 0, 0, -0.998515, -33.235693, 452.027673)"/>
<path fill-rule="evenodd" fill="rgb(100%, 100%, 100%)" fill-opacity="1" stroke-width="0.4" stroke-linecap="butt" stroke-linejoin="round" stroke="rgb(0%, 0%, 0%)" stroke-opacity="1" stroke-miterlimit="10" d="M 116.999298 343.999501 L 84.998647 366.998502 " transform="matrix(0.998515, 0, 0, -0.998515, -33.235693, 452.027673)"/>
<path fill-rule="evenodd" fill="rgb(100%, 100%, 100%)" fill-opacity="1" stroke-width="0.4" stroke-linecap="butt" stroke-linejoin="round" stroke="rgb(0%, 0%, 0%)" stroke-opacity="1" stroke-miterlimit="10" d="M 116.999298 343.999501 L 47.998384 250.998099 " transform="matrix(0.998515, 0, 0, -0.998515, -33.235693, 452.027673)"/>
<path fill-rule="evenodd" fill="rgb(100%, 100%, 100%)" fill-opacity="1" stroke-width="0.4" stroke-linecap="butt" stroke-linejoin="round" stroke="rgb(0%, 0%, 0%)" stroke-opacity="1" stroke-miterlimit="10" d="M 116.999298 343.999501 L 87.001622 250.998099 " transform="matrix(0.998515, 0, 0, -0.998515, -33.235693, 452.027673)"/>
<path fill-rule="evenodd" fill="rgb(100%, 100%, 100%)" fill-opacity="1" stroke-width="0.4" stroke-linecap="butt" stroke-linejoin="round" stroke="rgb(0%, 0%, 0%)" stroke-opacity="1" stroke-miterlimit="10" d="M 116.999298 343.999501 L 195.999438 400.998215 " transform="matrix(0.998515, 0, 0, -0.998515, -33.235693, 452.027673)"/>
<path fill="none" stroke-width="0.4" stroke-linecap="butt" stroke-linejoin="round" stroke="rgb(0%, 0%, 0%)" stroke-opacity="1" stroke-miterlimit="10" d="M 87.001622 250.998099 L 47.998384 250.998099 " transform="matrix(0.998515, 0, 0, -0.998515, -33.235693, 452.027673)"/>
<path fill-rule="evenodd" fill="rgb(100%, 100%, 100%)" fill-opacity="1" stroke-width="0.4" stroke-linecap="butt" stroke-linejoin="round" stroke="rgb(0%, 0%, 0%)" stroke-opacity="1" stroke-miterlimit="10" d="M 87.001622 250.998099 L 84.998647 135.001608 " transform="matrix(0.998515, 0, 0, -0.998515, -33.235693, 452.027673)"/>
<path fill-rule="evenodd" fill="rgb(100%, 100%, 100%)" fill-opacity="1" stroke-width="0.4" stroke-linecap="butt" stroke-linejoin="round" stroke="rgb(0%, 0%, 0%)" stroke-opacity="1" stroke-miterlimit="10" d="M 87.001622 250.998099 L 116.999298 158.000609 " transform="matrix(0.998515, 0, 0, -0.998515, -33.235693, 452.027673)"/>
<path fill-rule="evenodd" fill="rgb(100%, 100%, 100%)" fill-opacity="1" stroke-width="0.4" stroke-linecap="butt" stroke-linejoin="round" stroke="rgb(0%, 0%, 0%)" stroke-opacity="1" stroke-miterlimit="10" d="M 87.001622 250.998099 L 116.999298 343.999501 " transform="matrix(0.998515, 0, 0, -0.998515, -33.235693, 452.027673)"/>
<path fill-rule="evenodd" fill="rgb(100%, 100%, 100%)" fill-opacity="1" stroke-width="0.4" stroke-linecap="butt" stroke-linejoin="round" stroke="rgb(0%, 0%, 0%)" stroke-opacity="1" stroke-miterlimit="10" d="M 116.999298 158.000609 L 84.998647 135.001608 " transform="matrix(0.998515, 0, 0, -0.998515, -33.235693, 452.027673)"/>
<path fill-rule="evenodd" fill="rgb(100%, 100%, 100%)" fill-opacity="1" stroke-width="0.4" stroke-linecap="butt" stroke-linejoin="round" stroke="rgb(0%, 0%, 0%)" stroke-opacity="1" stroke-miterlimit="10" d="M 116.999298 158.000609 L 184.00115 63.000144 " transform="matrix(0.998515, 0, 0, -0.998515, -33.235693, 452.027673)"/>
<path fill-rule="evenodd" fill="rgb(100%, 100%, 100%)" fill-opacity="1" stroke-width="0.4" stroke-linecap="butt" stroke-linejoin="round" stroke="rgb(0%, 0%, 0%)" stroke-opacity="1" stroke-miterlimit="10" d="M 116.999298 158.000609 L 195.999438 101.001895 " transform="matrix(0.998515, 0, 0, -0.998515, -33.235693, 452.027673)"/>
<path fill-rule="evenodd" fill="rgb(100%, 100%, 100%)" fill-opacity="1" stroke-width="0.4" stroke-linecap="butt" stroke-linejoin="round" stroke="rgb(0%, 0%, 0%)" stroke-opacity="1" stroke-miterlimit="10" d="M 116.999298 158.000609 L 87.001622 250.998099 " transform="matrix(0.998515, 0, 0, -0.998515, -33.235693, 452.027673)"/>
<path fill-rule="evenodd" fill="rgb(100%, 100%, 100%)" fill-opacity="1" stroke-width="0.4" stroke-linecap="butt" stroke-linejoin="round" stroke="rgb(0%, 0%, 0%)" stroke-opacity="1" stroke-miterlimit="10" d="M 195.999438 101.001895 L 184.00115 63.000144 " transform="matrix(0.998515, 0, 0, -0.998515, -33.235693, 452.027673)"/>
<path fill-rule="evenodd" fill="rgb(100%, 100%, 100%)" fill-opacity="1" stroke-width="0.4" stroke-linecap="butt" stroke-linejoin="round" stroke="rgb(0%, 0%, 0%)" stroke-opacity="1" stroke-miterlimit="10" d="M 195.999438 101.001895 L 305.99874 63.000144 " transform="matrix(0.998515, 0, 0, -0.998515, -33.235693, 452.027673)"/>
<path fill="none" stroke-width="0.4" stroke-linecap="butt" stroke-linejoin="round" stroke="rgb(0%, 0%, 0%)" stroke-opacity="1" stroke-miterlimit="10" d="M 195.999438 101.001895 L 294.000452 101.001895 " transform="matrix(0.998515, 0, 0, -0.998515, -33.235693, 452.027673)"/>
<path fill-rule="evenodd" fill="rgb(100%, 100%, 100%)" fill-opacity="1" stroke-width="0.4" stroke-linecap="butt" stroke-linejoin="round" stroke="rgb(0%, 0%, 0%)" stroke-opacity="1" stroke-miterlimit="10" d="M 195.999438 101.001895 L 116.999298 158.000609 " transform="matrix(0.998515, 0, 0, -0.998515, -33.235693, 452.027673)"/>
<path fill-rule="evenodd" fill="rgb(100%, 100%, 100%)" fill-opacity="1" stroke-width="0.4" stroke-linecap="butt" stroke-linejoin="round" stroke="rgb(0%, 0%, 0%)" stroke-opacity="1" stroke-miterlimit="10" d="M 294.000452 101.001895 L 305.99874 63.000144 " transform="matrix(0.998515, 0, 0, -0.998515, -33.235693, 452.027673)"/>
<path fill-rule="evenodd" fill="rgb(100%, 100%, 100%)" fill-opacity="1" stroke-width="0.4" stroke-linecap="butt" stroke-linejoin="round" stroke="rgb(0%, 0%, 0%)" stroke-opacity="1" stroke-miterlimit="10" d="M 294.000452 101.001895 L 405.001243 135.001608 " transform="matrix(0.998515, 0, 0, -0.998515, -33.235693, 452.027673)"/>
<path fill-rule="evenodd" fill="rgb(100%, 100%, 100%)" fill-opacity="1" stroke-width="0.4" stroke-linecap="butt" stroke-linejoin="round" stroke="rgb(0%, 0%, 0%)" stroke-opacity="1" stroke-miterlimit="10" d="M 294.000452 101.001895 L 373.000592 158.000609 " transform="matrix(0.998515, 0, 0, -0.998515, -33.235693, 452.027673)"/>
<path fill="none" stroke-width="0.4" stroke-linecap="butt" stroke-linejoin="round" stroke="rgb(0%, 0%, 0%)" stroke-opacity="1" stroke-miterlimit="10" d="M 294.000452 101.001895 L 195.999438 101.001895 " transform="matrix(0.998515, 0, 0, -0.998515, -33.235693, 452.027673)"/>
<path fill-rule="evenodd" fill="rgb(100%, 100%, 100%)" fill-opacity="1" stroke-width="0.4" stroke-linecap="butt" stroke-linejoin="round" stroke="rgb(0%, 0%, 0%)" stroke-opacity="1" stroke-miterlimit="10" d="M 373.000592 158.000609 L 405.001243 135.001608 " transform="matrix(0.998515, 0, 0, -0.998515, -33.235693, 452.027673)"/>
<path fill-rule="evenodd" fill="rgb(100%, 100%, 100%)" fill-opacity="1" stroke-width="0.4" stroke-linecap="butt" stroke-linejoin="round" stroke="rgb(0%, 0%, 0%)" stroke-opacity="1" stroke-miterlimit="10" d="M 373.000592 158.000609 L 442.999081 250.998099 " transform="matrix(0.998515, 0, 0, -0.998515, -33.235693, 452.027673)"/>
<path fill-rule="evenodd" fill="rgb(100%, 100%, 100%)" fill-opacity="1" stroke-width="0.4" stroke-linecap="butt" stroke-linejoin="round" stroke="rgb(0%, 0%, 0%)" stroke-opacity="1" stroke-miterlimit="10" d="M 373.000592 158.000609 L 402.998268 250.998099 " transform="matrix(0.998515, 0, 0, -0.998515, -33.235693, 452.027673)"/>
<path fill-rule="evenodd" fill="rgb(100%, 100%, 100%)" fill-opacity="1" stroke-width="0.4" stroke-linecap="butt" stroke-linejoin="round" stroke="rgb(0%, 0%, 0%)" stroke-opacity="1" stroke-miterlimit="10" d="M 373.000592 158.000609 L 294.000452 101.001895 " transform="matrix(0.998515, 0, 0, -0.998515, -33.235693, 452.027673)"/>
<path fill="none" stroke-width="0.4" stroke-linecap="butt" stroke-linejoin="round" stroke="rgb(0%, 0%, 0%)" stroke-opacity="1" stroke-miterlimit="10" d="M 402.998268 250.998099 L 442.999081 250.998099 " transform="matrix(0.998515, 0, 0, -0.998515, -33.235693, 452.027673)"/>
<path fill-rule="evenodd" fill="rgb(100%, 100%, 100%)" fill-opacity="1" stroke-width="0.4" stroke-linecap="butt" stroke-linejoin="round" stroke="rgb(0%, 0%, 0%)" stroke-opacity="1" stroke-miterlimit="10" d="M 402.998268 250.998099 L 405.001243 366.998502 " transform="matrix(0.998515, 0, 0, -0.998515, -33.235693, 452.027673)"/>
<path fill-rule="evenodd" fill="rgb(100%, 100%, 100%)" fill-opacity="1" stroke-width="0.4" stroke-linecap="butt" stroke-linejoin="round" stroke="rgb(0%, 0%, 0%)" stroke-opacity="1" stroke-miterlimit="10" d="M 402.998268 250.998099 L 373.000592 158.000609 " transform="matrix(0.998515, 0, 0, -0.998515, -33.235693, 452.027673)"/>
<path fill-rule="evenodd" fill="rgb(100%, 100%, 100%)" fill-opacity="1" stroke-width="0.4" stroke-linecap="butt" stroke-linejoin="round" stroke="rgb(0%, 0%, 0%)" stroke-opacity="1" stroke-miterlimit="10" d="M 405.001243 366.998502 L 305.99874 438.999966 " transform="matrix(0.998515, 0, 0, -0.998515, -33.235693, 452.027673)"/>
<path fill-rule="evenodd" fill="rgb(100%, 100%, 100%)" fill-opacity="1" stroke-width="0.4" stroke-linecap="butt" stroke-linejoin="round" stroke="rgb(0%, 0%, 0%)" stroke-opacity="1" stroke-miterlimit="10" d="M 405.001243 366.998502 L 402.998268 250.998099 " transform="matrix(0.998515, 0, 0, -0.998515, -33.235693, 452.027673)"/>
<path fill-rule="evenodd" fill="rgb(100%, 100%, 100%)" fill-opacity="1" stroke-width="0.4" stroke-linecap="butt" stroke-linejoin="round" stroke="rgb(0%, 0%, 0%)" stroke-opacity="1" stroke-miterlimit="10" d="M 405.001243 366.998502 L 442.999081 250.998099 " transform="matrix(0.998515, 0, 0, -0.998515, -33.235693, 452.027673)"/>
<path fill="none" stroke-width="0.4" stroke-linecap="butt" stroke-linejoin="round" stroke="rgb(0%, 0%, 0%)" stroke-opacity="1" stroke-miterlimit="10" d="M 305.99874 438.999966 L 184.00115 438.999966 " transform="matrix(0.998515, 0, 0, -0.998515, -33.235693, 452.027673)"/>
<path fill-rule="evenodd" fill="rgb(100%, 100%, 100%)" fill-opacity="1" stroke-width="0.4" stroke-linecap="butt" stroke-linejoin="round" stroke="rgb(0%, 0%, 0%)" stroke-opacity="1" stroke-miterlimit="10" d="M 305.99874 438.999966 L 405.001243 366.998502 " transform="matrix(0.998515, 0, 0, -0.998515, -33.235693, 452.027673)"/>
<path fill-rule="evenodd" fill="rgb(100%, 100%, 100%)" fill-opacity="1" stroke-width="0.4" stroke-linecap="butt" stroke-linejoin="round" stroke="rgb(0%, 0%, 0%)" stroke-opacity="1" stroke-miterlimit="10" d="M 184.00115 438.999966 L 84.998647 366.998502 " transform="matrix(0.998515, 0, 0, -0.998515, -33.235693, 452.027673)"/>
<path fill="none" stroke-width="0.4" stroke-linecap="butt" stroke-linejoin="round" stroke="rgb(0%, 0%, 0%)" stroke-opacity="1" stroke-miterlimit="10" d="M 184.00115 438.999966 L 305.99874 438.999966 " transform="matrix(0.998515, 0, 0, -0.998515, -33.235693, 452.027673)"/>
<path fill-rule="evenodd" fill="rgb(100%, 100%, 100%)" fill-opacity="1" stroke-width="0.4" stroke-linecap="butt" stroke-linejoin="round" stroke="rgb(0%, 0%, 0%)" stroke-opacity="1" stroke-miterlimit="10" d="M 84.998647 366.998502 L 47.998384 250.998099 " transform="matrix(0.998515, 0, 0, -0.998515, -33.235693, 452.027673)"/>
<path fill-rule="evenodd" fill="rgb(100%, 100%, 100%)" fill-opacity="1" stroke-width="0.4" stroke-linecap="butt" stroke-linejoin="round" stroke="rgb(0%, 0%, 0%)" stroke-opacity="1" stroke-miterlimit="10" d="M 84.998647 366.998502 L 184.00115 438.999966 " transform="matrix(0.998515, 0, 0, -0.998515, -33.235693, 452.027673)"/>
<path fill-rule="evenodd" fill="rgb(100%, 100%, 100%)" fill-opacity="1" stroke-width="0.4" stroke-linecap="butt" stroke-linejoin="round" stroke="rgb(0%, 0%, 0%)" stroke-opacity="1" stroke-miterlimit="10" d="M 47.998384 250.998099 L 84.998647 135.001608 " transform="matrix(0.998515, 0, 0, -0.998515, -33.235693, 452.027673)"/>
<path fill-rule="evenodd" fill="rgb(100%, 100%, 100%)" fill-opacity="1" stroke-width="0.4" stroke-linecap="butt" stroke-linejoin="round" stroke="rgb(0%, 0%, 0%)" stroke-opacity="1" stroke-miterlimit="10" d="M 47.998384 250.998099 L 84.998647 366.998502 " transform="matrix(0.998515, 0, 0, -0.998515, -33.235693, 452.027673)"/>
<path fill-rule="evenodd" fill="rgb(100%, 100%, 100%)" fill-opacity="1" stroke-width="0.4" stroke-linecap="butt" stroke-linejoin="round" stroke="rgb(0%, 0%, 0%)" stroke-opacity="1" stroke-miterlimit="10" d="M 84.998647 135.001608 L 184.00115 63.000144 " transform="matrix(0.998515, 0, 0, -0.998515, -33.235693, 452.027673)"/>
<path fill-rule="evenodd" fill="rgb(100%, 100%, 100%)" fill-opacity="1" stroke-width="0.4" stroke-linecap="butt" stroke-linejoin="round" stroke="rgb(0%, 0%, 0%)" stroke-opacity="1" stroke-miterlimit="10" d="M 84.998647 135.001608 L 47.998384 250.998099 " transform="matrix(0.998515, 0, 0, -0.998515, -33.235693, 452.027673)"/>
<path fill="none" stroke-width="0.4" stroke-linecap="butt" stroke-linejoin="round" stroke="rgb(0%, 0%, 0%)" stroke-opacity="1" stroke-miterlimit="10" d="M 184.00115 63.000144 L 305.99874 63.000144 " transform="matrix(0.998515, 0, 0, -0.998515, -33.235693, 452.027673)"/>
<path fill-rule="evenodd" fill="rgb(100%, 100%, 100%)" fill-opacity="1" stroke-width="0.4" stroke-linecap="butt" stroke-linejoin="round" stroke="rgb(0%, 0%, 0%)" stroke-opacity="1" stroke-miterlimit="10" d="M 184.00115 63.000144 L 84.998647 135.001608 " transform="matrix(0.998515, 0, 0, -0.998515, -33.235693, 452.027673)"/>
<path fill-rule="evenodd" fill="rgb(100%, 100%, 100%)" fill-opacity="1" stroke-width="0.4" stroke-linecap="butt" stroke-linejoin="round" stroke="rgb(0%, 0%, 0%)" stroke-opacity="1" stroke-miterlimit="10" d="M 305.99874 63.000144 L 405.001243 135.001608 " transform="matrix(0.998515, 0, 0, -0.998515, -33.235693, 452.027673)"/>
<path fill="none" stroke-width="0.4" stroke-linecap="butt" stroke-linejoin="round" stroke="rgb(0%, 0%, 0%)" stroke-opacity="1" stroke-miterlimit="10" d="M 305.99874 63.000144 L 184.00115 63.000144 " transform="matrix(0.998515, 0, 0, -0.998515, -33.235693, 452.027673)"/>
<path fill-rule="evenodd" fill="rgb(100%, 100%, 100%)" fill-opacity="1" stroke-width="0.4" stroke-linecap="butt" stroke-linejoin="round" stroke="rgb(0%, 0%, 0%)" stroke-opacity="1" stroke-miterlimit="10" d="M 405.001243 135.001608 L 442.999081 250.998099 " transform="matrix(0.998515, 0, 0, -0.998515, -33.235693, 452.027673)"/>
<path fill-rule="evenodd" fill="rgb(100%, 100%, 100%)" fill-opacity="1" stroke-width="0.4" stroke-linecap="butt" stroke-linejoin="round" stroke="rgb(0%, 0%, 0%)" stroke-opacity="1" stroke-miterlimit="10" d="M 405.001243 135.001608 L 305.99874 63.000144 " transform="matrix(0.998515, 0, 0, -0.998515, -33.235693, 452.027673)"/>
<path fill-rule="evenodd" fill="rgb(100%, 100%, 100%)" fill-opacity="1" stroke-width="0.4" stroke-linecap="butt" stroke-linejoin="round" stroke="rgb(0%, 0%, 0%)" stroke-opacity="1" stroke-miterlimit="10" d="M 442.999081 250.998099 L 405.001243 135.001608 " transform="matrix(0.998515, 0, 0, -0.998515, -33.235693, 452.027673)"/>
<path fill-rule="nonzero" fill="rgb(21.899414%, 51.298523%, 66.598511%)" fill-opacity="1" stroke-width="0.4" stroke-linecap="butt" stroke-linejoin="round" stroke="rgb(0%, 0%, 0%)" stroke-opacity="1" stroke-miterlimit="10" d="M 258.001676 250.998099 C 258.001676 243.819469 252.180531 237.998324 245.001901 237.998324 C 237.819359 237.998324 231.998214 243.819469 231.998214 250.998099 C 231.998214 258.180641 237.819359 264.001786 245.001901 264.001786 C 252.180531 264.001786 258.001676 258.180641 258.001676 250.998099 " transform="matrix(0.998515, 0, 0, -0.998515, -33.235693, 452.027673)"/>
<path fill-rule="nonzero" fill="rgb(1.098633%, 50.099182%, 12.5%)" fill-opacity="1" stroke-width="0.4" stroke-linecap="butt" stroke-linejoin="round" stroke="rgb(0%, 0%, 0%)" stroke-opacity="1" stroke-miterlimit="10" d="M 289.998415 274.001012 C 289.998415 266.81847 284.181182 261.001236 276.99864 261.001236 C 269.82001 261.001236 263.998864 266.81847 263.998864 274.001012 C 263.998864 281.179642 269.82001 287.000787 276.99864 287.000787 C 284.181182 287.000787 289.998415 281.179642 289.998415 274.001012 " transform="matrix(0.998515, 0, 0, -0.998515, -33.235693, 452.027673)"/>
<path fill-rule="nonzero" fill="rgb(7.798767%, 8.198547%, 82.299805%)" fill-opacity="1" stroke-width="0.4" stroke-linecap="butt" stroke-linejoin="round" stroke="rgb(0%, 0%, 0%)" stroke-opacity="1" stroke-miterlimit="10" d="M 269.999964 288.499106 C 269.999964 281.320476 264.178819 275.499331 257.000189 275.499331 C 249.821559 275.499331 244.000414 281.320476 244.000414 288.499106 C 244.000414 295.681648 249.821559 301.498881 257.000189 301.498881 C 264.178819 301.498881 269.999964 295.681648 269.999964 288.499106 " transform="matrix(0.998515, 0, 0, -0.998515, -33.235693, 452.027673)"/>
<path fill-rule="nonzero" fill="rgb(27.799988%, 87.399292%, 23.899841%)" fill-opacity="1" stroke-width="0.4" stroke-linecap="butt" stroke-linejoin="round" stroke="rgb(0%, 0%, 0%)" stroke-opacity="1" stroke-miterlimit="10" d="M 245.999476 288.499106 C 245.999476 281.320476 240.178331 275.499331 232.999701 275.499331 C 225.821071 275.499331 219.999926 281.320476 219.999926 288.499106 C 219.999926 295.681648 225.821071 301.498881 232.999701 301.498881 C 240.178331 301.498881 245.999476 295.681648 245.999476 288.499106 " transform="matrix(0.998515, 0, 0, -0.998515, -33.235693, 452.027673)"/>
<path fill-rule="nonzero" fill="rgb(17.199707%, 84.698486%, 96.798706%)" fill-opacity="1" stroke-width="0.4" stroke-linecap="butt" stroke-linejoin="round" stroke="rgb(0%, 0%, 0%)" stroke-opacity="1" stroke-miterlimit="10" d="M 226.001026 274.001012 C 226.001026 266.81847 220.17988 261.001236 213.00125 261.001236 C 205.818708 261.001236 200.001475 266.81847 200.001475 274.001012 C 200.001475 281.179642 205.818708 287.000787 213.00125 287.000787 C 220.17988 287.000787 226.001026 281.179642 226.001026 274.001012 " transform="matrix(0.998515, 0, 0, -0.998515, -33.235693, 452.027673)"/>
<path fill-rule="nonzero" fill="rgb(29.798889%, 59.599304%, 37.199402%)" fill-opacity="1" stroke-width="0.4" stroke-linecap="butt" stroke-linejoin="round" stroke="rgb(0%, 0%, 0%)" stroke-opacity="1" stroke-miterlimit="10" d="M 218.998438 250.998099 C 218.998438 243.541713 212.958218 237.501492 205.501831 237.501492 C 198.041533 237.501492 192.001312 243.541713 192.001312 250.998099 C 192.001312 258.458397 198.041533 264.498618 205.501831 264.498618 C 212.958218 264.498618 218.998438 258.458397 218.998438 250.998099 " transform="matrix(0.998515, 0, 0, -0.998515, -33.235693, 452.027673)"/>
<path fill-rule="nonzero" fill="rgb(86.199951%, 46.199036%, 68.199158%)" fill-opacity="1" stroke-width="0.4" stroke-linecap="butt" stroke-linejoin="round" stroke="rgb(0%, 0%, 0%)" stroke-opacity="1" stroke-miterlimit="10" d="M 226.001026 227.999098 C 226.001026 220.820468 220.17988 214.999323 213.00125 214.999323 C 205.818708 214.999323 200.001475 220.820468 200.001475 227.999098 C 200.001475 235.18164 205.818708 240.998874 213.00125 240.998874 C 220.17988 240.998874 226.001026 235.18164 226.001026 227.999098 " transform="matrix(0.998515, 0, 0, -0.998515, -33.235693, 452.027673)"/>
<path fill-rule="nonzero" fill="rgb(8.599854%, 4.998779%, 100%)" fill-opacity="1" stroke-width="0.4" stroke-linecap="butt" stroke-linejoin="round" stroke="rgb(0%, 0%, 0%)" stroke-opacity="1" stroke-miterlimit="10" d="M 245.999476 213.501004 C 245.999476 206.318462 240.178331 200.501229 232.999701 200.501229 C 225.821071 200.501229 219.999926 206.318462 219.999926 213.501004 C 219.999926 220.679634 225.821071 226.500779 232.999701 226.500779 C 240.178331 226.500779 245.999476 220.679634 245.999476 213.501004 " transform="matrix(0.998515, 0, 0, -0.998515, -33.235693, 452.027673)"/>
<path fill-rule="nonzero" fill="rgb(72.099304%, 83.898926%, 62.298584%)" fill-opacity="1" stroke-width="0.4" stroke-linecap="butt" stroke-linejoin="round" stroke="rgb(0%, 0%, 0%)" stroke-opacity="1" stroke-miterlimit="10" d="M 269.999964 213.501004 C 269.999964 206.318462 264.178819 200.501229 257.000189 200.501229 C 249.821559 200.501229 244.000414 206.318462 244.000414 213.501004 C 244.000414 220.679634 249.821559 226.500779 257.000189 226.500779 C 264.178819 226.500779 269.999964 220.679634 269.999964 213.501004 " transform="matrix(0.998515, 0, 0, -0.998515, -33.235693, 452.027673)"/>
<path fill-rule="nonzero" fill="rgb(1.899719%, 23.899841%, 55.599976%)" fill-opacity="1" stroke-width="0.4" stroke-linecap="butt" stroke-linejoin="round" stroke="rgb(0%, 0%, 0%)" stroke-opacity="1" stroke-miterlimit="10" d="M 289.998415 227.999098 C 289.998415 220.820468 284.181182 214.999323 276.99864 214.999323 C 269.82001 214.999323 263.998864 220.820468 263.998864 227.999098 C 263.998864 235.18164 269.82001 240.998874 276.99864 240.998874 C 284.181182 240.998874 289.998415 235.18164 289.998415 227.999098 " transform="matrix(0.998515, 0, 0, -0.998515, -33.235693, 452.027673)"/>
<path fill-rule="nonzero" fill="rgb(53.29895%, 90.899658%, 97.999573%)" fill-opacity="1" stroke-width="0.4" stroke-linecap="butt" stroke-linejoin="round" stroke="rgb(0%, 0%, 0%)" stroke-opacity="1" stroke-miterlimit="10" d="M 297.998578 250.998099 C 297.998578 243.541713 291.958357 237.501492 284.498059 237.501492 C 277.041672 237.501492 271.001452 243.541713 271.001452 250.998099 C 271.001452 258.458397 277.041672 264.498618 284.498059 264.498618 C 291.958357 264.498618 297.998578 258.458397 297.998578 250.998099 " transform="matrix(0.998515, 0, 0, -0.998515, -33.235693, 452.027673)"/>
<path fill-rule="nonzero" fill="rgb(3.09906%, 3.09906%, 19.599915%)" fill-opacity="1" stroke-width="0.4" stroke-linecap="butt" stroke-linejoin="round" stroke="rgb(0%, 0%, 0%)" stroke-opacity="1" stroke-miterlimit="10" d="M 321.999066 297.500756 C 321.999066 290.318214 316.181833 284.500981 308.99929 284.500981 C 301.82066 284.500981 295.999515 290.318214 295.999515 297.500756 C 295.999515 304.679386 301.82066 310.500531 308.99929 310.500531 C 316.181833 310.500531 321.999066 304.679386 321.999066 297.500756 " transform="matrix(0.998515, 0, 0, -0.998515, -33.235693, 452.027673)"/>
<path fill-rule="nonzero" fill="rgb(11.299133%, 85.798645%, 20.698547%)" fill-opacity="1" stroke-width="0.4" stroke-linecap="butt" stroke-linejoin="round" stroke="rgb(0%, 0%, 0%)" stroke-opacity="1" stroke-miterlimit="10" d="M 282.99974 326.000113 C 282.99974 318.543727 276.955607 312.499594 269.499221 312.499594 C 262.042834 312.499594 255.998702 318.543727 255.998702 326.000113 C 255.998702 333.456499 262.042834 339.500632 269.499221 339.500632 C 276.955607 339.500632 282.99974 333.456499 282.99974 326.000113 " transform="matrix(0.998515, 0, 0, -0.998515, -33.235693, 452.027673)"/>
<path fill-rule="nonzero" fill="rgb(99.198914%, 9.399414%, 28.599548%)" fill-opacity="1" stroke-width="0.4" stroke-linecap="butt" stroke-linejoin="round" stroke="rgb(0%, 0%, 0%)" stroke-opacity="1" stroke-miterlimit="10" d="M 234.001188 326.000113 C 234.001188 318.543727 227.957056 312.499594 220.500669 312.499594 C 213.044283 312.499594 207.00015 318.543727 207.00015 326.000113 C 207.00015 333.456499 213.044283 339.500632 220.500669 339.500632 C 227.957056 339.500632 234.001188 333.456499 234.001188 326.000113 " transform="matrix(0.998515, 0, 0, -0.998515, -33.235693, 452.027673)"/>
<path fill-rule="nonzero" fill="rgb(83.499146%, 5.799866%, 56.399536%)" fill-opacity="1" stroke-width="0.4" stroke-linecap="butt" stroke-linejoin="round" stroke="rgb(0%, 0%, 0%)" stroke-opacity="1" stroke-miterlimit="10" d="M 194.000375 297.500756 C 194.000375 290.318214 188.17923 284.500981 181.0006 284.500981 C 173.818057 284.500981 168.000824 290.318214 168.000824 297.500756 C 168.000824 304.679386 173.818057 310.500531 181.0006 310.500531 C 188.17923 310.500531 194.000375 304.679386 194.000375 297.500756 " transform="matrix(0.998515, 0, 0, -0.998515, -33.235693, 452.027673)"/>
<path fill-rule="nonzero" fill="rgb(43.099976%, 43.099976%, 73.699951%)" fill-opacity="1" stroke-width="0.4" stroke-linecap="butt" stroke-linejoin="round" stroke="rgb(0%, 0%, 0%)" stroke-opacity="1" stroke-miterlimit="10" d="M 179.001537 250.998099 C 179.001537 243.819469 173.180392 237.998324 166.001762 237.998324 C 158.819219 237.998324 152.998074 243.819469 152.998074 250.998099 C 152.998074 258.180641 158.819219 264.001786 166.001762 264.001786 C 173.180392 264.001786 179.001537 258.180641 179.001537 250.998099 " transform="matrix(0.998515, 0, 0, -0.998515, -33.235693, 452.027673)"/>
<path fill-rule="nonzero" fill="rgb(89.399719%, 11.299133%, 3.09906%)" fill-opacity="1" stroke-width="0.4" stroke-linecap="butt" stroke-linejoin="round" stroke="rgb(0%, 0%, 0%)" stroke-opacity="1" stroke-miterlimit="10" d="M 194.000375 204.499354 C 194.000375 197.320724 188.17923 191.499579 181.0006 191.499579 C 173.818057 191.499579 168.000824 197.320724 168.000824 204.499354 C 168.000824 211.681896 173.818057 217.499129 181.0006 217.499129 C 188.17923 217.499129 194.000375 211.681896 194.000375 204.499354 " transform="matrix(0.998515, 0, 0, -0.998515, -33.235693, 452.027673)"/>
<path fill-rule="nonzero" fill="rgb(94.499207%, 10.899353%, 89.7995%)" fill-opacity="1" stroke-width="0.4" stroke-linecap="butt" stroke-linejoin="round" stroke="rgb(0%, 0%, 0%)" stroke-opacity="1" stroke-miterlimit="10" d="M 234.001188 175.999997 C 234.001188 168.543611 227.957056 162.499478 220.500669 162.499478 C 213.044283 162.499478 207.00015 168.543611 207.00015 175.999997 C 207.00015 183.456383 213.044283 189.500516 220.500669 189.500516 C 227.957056 189.500516 234.001188 183.456383 234.001188 175.999997 " transform="matrix(0.998515, 0, 0, -0.998515, -33.235693, 452.027673)"/>
<path fill-rule="nonzero" fill="rgb(77.999878%, 73.298645%, 98.399353%)" fill-opacity="1" stroke-width="0.4" stroke-linecap="butt" stroke-linejoin="round" stroke="rgb(0%, 0%, 0%)" stroke-opacity="1" stroke-miterlimit="10" d="M 282.99974 175.999997 C 282.99974 168.543611 276.955607 162.499478 269.499221 162.499478 C 262.042834 162.499478 255.998702 168.543611 255.998702 175.999997 C 255.998702 183.456383 262.042834 189.500516 269.499221 189.500516 C 276.955607 189.500516 282.99974 183.456383 282.99974 175.999997 " transform="matrix(0.998515, 0, 0, -0.998515, -33.235693, 452.027673)"/>
<path fill-rule="nonzero" fill="rgb(1.899719%, 28.599548%, 70.098877%)" fill-opacity="1" stroke-width="0.4" stroke-linecap="butt" stroke-linejoin="round" stroke="rgb(0%, 0%, 0%)" stroke-opacity="1" stroke-miterlimit="10" d="M 321.999066 204.499354 C 321.999066 197.320724 316.181833 191.499579 308.99929 191.499579 C 301.82066 191.499579 295.999515 197.320724 295.999515 204.499354 C 295.999515 211.681896 301.82066 217.499129 308.99929 217.499129 C 316.181833 217.499129 321.999066 211.681896 321.999066 204.499354 " transform="matrix(0.998515, 0, 0, -0.998515, -33.235693, 452.027673)"/>
<path fill-rule="nonzero" fill="rgb(92.89856%, 26.199341%, 72.099304%)" fill-opacity="1" stroke-width="0.4" stroke-linecap="butt" stroke-linejoin="round" stroke="rgb(0%, 0%, 0%)" stroke-opacity="1" stroke-miterlimit="10" d="M 337.001816 250.998099 C 337.001816 243.819469 331.180671 237.998324 323.998128 237.998324 C 316.819498 237.998324 310.998353 243.819469 310.998353 250.998099 C 310.998353 258.180641 316.819498 264.001786 323.998128 264.001786 C 331.180671 264.001786 337.001816 258.180641 337.001816 250.998099 " transform="matrix(0.998515, 0, 0, -0.998515, -33.235693, 452.027673)"/>
<path fill-rule="nonzero" fill="rgb(95.999146%, 45.799255%, 25%)" fill-opacity="1" stroke-width="0.4" stroke-linecap="butt" stroke-linejoin="round" stroke="rgb(0%, 0%, 0%)" stroke-opacity="1" stroke-miterlimit="10" d="M 353.999716 320.499757 C 353.999716 313.321127 348.178571 307.499981 340.999941 307.499981 C 333.821311 307.499981 328.000166 313.321127 328.000166 320.499757 C 328.000166 327.678387 333.821311 333.499532 340.999941 333.499532 C 348.178571 333.499532 353.999716 327.678387 353.999716 320.499757 " transform="matrix(0.998515, 0, 0, -0.998515, -33.235693, 452.027673)"/>
<path fill-rule="nonzero" fill="rgb(81.498718%, 66.598511%, 28.199768%)" fill-opacity="1" stroke-width="0.4" stroke-linecap="butt" stroke-linejoin="round" stroke="rgb(0%, 0%, 0%)" stroke-opacity="1" stroke-miterlimit="10" d="M 295.00194 363.50112 C 295.00194 356.044734 288.957807 350.000601 281.501421 350.000601 C 274.041122 350.000601 268.000902 356.044734 268.000902 363.50112 C 268.000902 370.957507 274.041122 377.001639 281.501421 377.001639 C 288.957807 377.001639 295.00194 370.957507 295.00194 363.50112 " transform="matrix(0.998515, 0, 0, -0.998515, -33.235693, 452.027673)"/>
<path fill-rule="nonzero" fill="rgb(90.899658%, 95.199585%, 39.898682%)" fill-opacity="1" stroke-width="0.4" stroke-linecap="butt" stroke-linejoin="round" stroke="rgb(0%, 0%, 0%)" stroke-opacity="1" stroke-miterlimit="10" d="M 221.998988 363.50112 C 221.998988 356.044734 215.958768 350.000601 208.498469 350.000601 C 201.042083 350.000601 195.001862 356.044734 195.001862 363.50112 C 195.001862 370.957507 201.042083 377.001639 208.498469 377.001639 C 215.958768 377.001639 221.998988 370.957507 221.998988 363.50112 " transform="matrix(0.998515, 0, 0, -0.998515, -33.235693, 452.027673)"/>
<path fill-rule="nonzero" fill="rgb(97.198486%, 51.298523%, 38.798523%)" fill-opacity="1" stroke-width="0.4" stroke-linecap="butt" stroke-linejoin="round" stroke="rgb(0%, 0%, 0%)" stroke-opacity="1" stroke-miterlimit="10" d="M 161.999724 320.499757 C 161.999724 313.321127 156.178579 307.499981 148.999949 307.499981 C 141.821319 307.499981 136.000174 313.321127 136.000174 320.499757 C 136.000174 327.678387 141.821319 333.499532 148.999949 333.499532 C 156.178579 333.499532 161.999724 327.678387 161.999724 320.499757 " transform="matrix(0.998515, 0, 0, -0.998515, -33.235693, 452.027673)"/>
<path fill-rule="nonzero" fill="rgb(39.898682%, 25%, 21.899414%)" fill-opacity="1" stroke-width="0.4" stroke-linecap="butt" stroke-linejoin="round" stroke="rgb(0%, 0%, 0%)" stroke-opacity="1" stroke-miterlimit="10" d="M 139.998299 250.998099 C 139.998299 243.541713 133.958078 237.501492 126.501692 237.501492 C 119.041393 237.501492 113.001173 243.541713 113.001173 250.998099 C 113.001173 258.458397 119.041393 264.498618 126.501692 264.498618 C 133.958078 264.498618 139.998299 258.458397 139.998299 250.998099 " transform="matrix(0.998515, 0, 0, -0.998515, -33.235693, 452.027673)"/>
<path fill-rule="nonzero" fill="rgb(51.298523%, 28.199768%, 64.99939%)" fill-opacity="1" stroke-width="0.4" stroke-linecap="butt" stroke-linejoin="round" stroke="rgb(0%, 0%, 0%)" stroke-opacity="1" stroke-miterlimit="10" d="M 161.999724 181.500353 C 161.999724 174.321723 156.178579 168.500578 148.999949 168.500578 C 141.821319 168.500578 136.000174 174.321723 136.000174 181.500353 C 136.000174 188.678983 141.821319 194.500129 148.999949 194.500129 C 156.178579 194.500129 161.999724 188.678983 161.999724 181.500353 " transform="matrix(0.998515, 0, 0, -0.998515, -33.235693, 452.027673)"/>
<path fill-rule="nonzero" fill="rgb(62.298584%, 17.599487%, 54.098511%)" fill-opacity="1" stroke-width="0.4" stroke-linecap="butt" stroke-linejoin="round" stroke="rgb(0%, 0%, 0%)" stroke-opacity="1" stroke-miterlimit="10" d="M 221.998988 138.49899 C 221.998988 131.042603 215.958768 124.998471 208.498469 124.998471 C 201.042083 124.998471 195.001862 131.042603 195.001862 138.49899 C 195.001862 145.955376 201.042083 151.999509 208.498469 151.999509 C 215.958768 151.999509 221.998988 145.955376 221.998988 138.49899 " transform="matrix(0.998515, 0, 0, -0.998515, -33.235693, 452.027673)"/>
<path fill-rule="nonzero" fill="rgb(35.598755%, 15.99884%, 48.199463%)" fill-opacity="1" stroke-width="0.4" stroke-linecap="butt" stroke-linejoin="round" stroke="rgb(0%, 0%, 0%)" stroke-opacity="1" stroke-miterlimit="10" d="M 295.00194 138.49899 C 295.00194 131.042603 288.957807 124.998471 281.501421 124.998471 C 274.041122 124.998471 268.000902 131.042603 268.000902 138.49899 C 268.000902 145.955376 274.041122 151.999509 281.501421 151.999509 C 288.957807 151.999509 295.00194 145.955376 295.00194 138.49899 " transform="matrix(0.998515, 0, 0, -0.998515, -33.235693, 452.027673)"/>
<path fill-rule="nonzero" fill="rgb(64.299011%, 86.199951%, 26.199341%)" fill-opacity="1" stroke-width="0.4" stroke-linecap="butt" stroke-linejoin="round" stroke="rgb(0%, 0%, 0%)" stroke-opacity="1" stroke-miterlimit="10" d="M 353.999716 181.500353 C 353.999716 174.321723 348.178571 168.500578 340.999941 168.500578 C 333.821311 168.500578 328.000166 174.321723 328.000166 181.500353 C 328.000166 188.678983 333.821311 194.500129 340.999941 194.500129 C 348.178571 194.500129 353.999716 188.678983 353.999716 181.500353 " transform="matrix(0.998515, 0, 0, -0.998515, -33.235693, 452.027673)"/>
<path fill-rule="nonzero" fill="rgb(90.899658%, 58.399963%, 28.199768%)" fill-opacity="1" stroke-width="0.4" stroke-linecap="butt" stroke-linejoin="round" stroke="rgb(0%, 0%, 0%)" stroke-opacity="1" stroke-miterlimit="10" d="M 376.998717 250.998099 C 376.998717 243.541713 370.958497 237.501492 363.498198 237.501492 C 356.041812 237.501492 350.001591 243.541713 350.001591 250.998099 C 350.001591 258.458397 356.041812 264.498618 363.498198 264.498618 C 370.958497 264.498618 376.998717 258.458397 376.998717 250.998099 " transform="matrix(0.998515, 0, 0, -0.998515, -33.235693, 452.027673)"/>
<path fill-rule="nonzero" fill="rgb(36.399841%, 83.499146%, 20.698547%)" fill-opacity="1" stroke-width="0.4" stroke-linecap="butt" stroke-linejoin="round" stroke="rgb(0%, 0%, 0%)" stroke-opacity="1" stroke-miterlimit="10" d="M 386.000367 343.999501 C 386.000367 336.820871 380.179222 330.999726 373.000592 330.999726 C 365.81805 330.999726 360.000816 336.820871 360.000816 343.999501 C 360.000816 351.178131 365.81805 356.999276 373.000592 356.999276 C 380.179222 356.999276 386.000367 351.178131 386.000367 343.999501 " transform="matrix(0.998515, 0, 0, -0.998515, -33.235693, 452.027673)"/>
<path fill-rule="nonzero" fill="rgb(3.09906%, 11.698914%, 16.398621%)" fill-opacity="1" stroke-width="0.4" stroke-linecap="butt" stroke-linejoin="round" stroke="rgb(0%, 0%, 0%)" stroke-opacity="1" stroke-miterlimit="10" d="M 307.000228 401.498959 C 307.000228 394.320329 301.179082 388.499184 294.000452 388.499184 C 286.821822 388.499184 281.000677 394.320329 281.000677 401.498959 C 281.000677 408.681501 286.821822 414.498734 294.000452 414.498734 C 301.179082 414.498734 307.000228 408.681501 307.000228 401.498959 " transform="matrix(0.998515, 0, 0, -0.998515, -33.235693, 452.027673)"/>
<path fill-rule="nonzero" fill="rgb(98.399353%, 51.699829%, 98.399353%)" fill-opacity="1" stroke-width="0.4" stroke-linecap="butt" stroke-linejoin="round" stroke="rgb(0%, 0%, 0%)" stroke-opacity="1" stroke-miterlimit="10" d="M 208.999213 401.498959 C 208.999213 394.320329 203.178068 388.499184 195.999438 388.499184 C 188.820808 388.499184 182.999662 394.320329 182.999662 401.498959 C 182.999662 408.681501 188.820808 414.498734 195.999438 414.498734 C 203.178068 414.498734 208.999213 408.681501 208.999213 401.498959 " transform="matrix(0.998515, 0, 0, -0.998515, -33.235693, 452.027673)"/>
<path fill-rule="nonzero" fill="rgb(49.798584%, 90.499878%, 88.999939%)" fill-opacity="1" stroke-width="0.4" stroke-linecap="butt" stroke-linejoin="round" stroke="rgb(0%, 0%, 0%)" stroke-opacity="1" stroke-miterlimit="10" d="M 129.999074 343.999501 C 129.999074 336.820871 124.18184 330.999726 116.999298 330.999726 C 109.820668 330.999726 103.999523 336.820871 103.999523 343.999501 C 103.999523 351.178131 109.820668 356.999276 116.999298 356.999276 C 124.18184 356.999276 129.999074 351.178131 129.999074 343.999501 " transform="matrix(0.998515, 0, 0, -0.998515, -33.235693, 452.027673)"/>
<path fill-rule="nonzero" fill="rgb(74.899292%, 12.098694%, 85.798645%)" fill-opacity="1" stroke-width="0.4" stroke-linecap="butt" stroke-linejoin="round" stroke="rgb(0%, 0%, 0%)" stroke-opacity="1" stroke-miterlimit="10" d="M 100.001397 250.998099 C 100.001397 243.819469 94.180252 237.998324 87.001622 237.998324 C 79.81908 237.998324 74.001847 243.819469 74.001847 250.998099 C 74.001847 258.180641 79.81908 264.001786 87.001622 264.001786 C 94.180252 264.001786 100.001397 258.180641 100.001397 250.998099 " transform="matrix(0.998515, 0, 0, -0.998515, -33.235693, 452.027673)"/>
<path fill-rule="nonzero" fill="rgb(2.69928%, 77.598572%, 25.799561%)" fill-opacity="1" stroke-width="0.4" stroke-linecap="butt" stroke-linejoin="round" stroke="rgb(0%, 0%, 0%)" stroke-opacity="1" stroke-miterlimit="10" d="M 129.999074 158.000609 C 129.999074 150.818067 124.18184 145.000834 116.999298 145.000834 C 109.820668 145.000834 103.999523 150.818067 103.999523 158.000609 C 103.999523 165.179239 109.820668 171.000384 116.999298 171.000384 C 124.18184 171.000384 129.999074 165.179239 129.999074 158.000609 " transform="matrix(0.998515, 0, 0, -0.998515, -33.235693, 452.027673)"/>
<path fill-rule="nonzero" fill="rgb(20.698547%, 31.298828%, 77.198792%)" fill-opacity="1" stroke-width="0.4" stroke-linecap="butt" stroke-linejoin="round" stroke="rgb(0%, 0%, 0%)" stroke-opacity="1" stroke-miterlimit="10" d="M 208.999213 100.501151 C 208.999213 93.318609 203.178068 87.501376 195.999438 87.501376 C 188.820808 87.501376 182.999662 93.318609 182.999662 100.501151 C 182.999662 107.679781 188.820808 113.500926 195.999438 113.500926 C 203.178068 113.500926 208.999213 107.679781 208.999213 100.501151 " transform="matrix(0.998515, 0, 0, -0.998515, -33.235693, 452.027673)"/>
<path fill-rule="nonzero" fill="rgb(36.799622%, 79.899597%, 39.599609%)" fill-opacity="1" stroke-width="0.4" stroke-linecap="butt" stroke-linejoin="round" stroke="rgb(0%, 0%, 0%)" stroke-opacity="1" stroke-miterlimit="10" d="M 307.000228 100.501151 C 307.000228 93.318609 301.179082 87.501376 294.000452 87.501376 C 286.821822 87.501376 281.000677 93.318609 281.000677 100.501151 C 281.000677 107.679781 286.821822 113.500926 294.000452 113.500926 C 301.179082 113.500926 307.000228 107.679781 307.000228 100.501151 " transform="matrix(0.998515, 0, 0, -0.998515, -33.235693, 452.027673)"/>
<path fill-rule="nonzero" fill="rgb(22.698975%, 5.799866%, 75.19989%)" fill-opacity="1" stroke-width="0.4" stroke-linecap="butt" stroke-linejoin="round" stroke="rgb(0%, 0%, 0%)" stroke-opacity="1" stroke-miterlimit="10" d="M 386.000367 158.000609 C 386.000367 150.818067 380.179222 145.000834 373.000592 145.000834 C 365.81805 145.000834 360.000816 150.818067 360.000816 158.000609 C 360.000816 165.179239 365.81805 171.000384 373.000592 171.000384 C 380.179222 171.000384 386.000367 165.179239 386.000367 158.000609 " transform="matrix(0.998515, 0, 0, -0.998515, -33.235693, 452.027673)"/>
<path fill-rule="nonzero" fill="rgb(81.098938%, 34.098816%, 39.199829%)" fill-opacity="1" stroke-width="0.4" stroke-linecap="butt" stroke-linejoin="round" stroke="rgb(0%, 0%, 0%)" stroke-opacity="1" stroke-miterlimit="10" d="M 416.001955 250.998099 C 416.001955 243.819469 410.18081 237.998324 402.998268 237.998324 C 395.819638 237.998324 389.998493 243.819469 389.998493 250.998099 C 389.998493 258.180641 395.819638 264.001786 402.998268 264.001786 C 410.18081 264.001786 416.001955 258.180641 416.001955 250.998099 " transform="matrix(0.998515, 0, 0, -0.998515, -33.235693, 452.027673)"/>
<path fill-rule="nonzero" fill="rgb(64.698792%, 54.899597%, 29.798889%)" fill-opacity="1" stroke-width="0.4" stroke-linecap="butt" stroke-linejoin="round" stroke="rgb(0%, 0%, 0%)" stroke-opacity="1" stroke-miterlimit="10" d="M 418.001018 366.998502 C 418.001018 359.819872 412.179873 353.998726 405.001243 353.998726 C 397.8187 353.998726 392.001467 359.819872 392.001467 366.998502 C 392.001467 374.181044 397.8187 379.998277 405.001243 379.998277 C 412.179873 379.998277 418.001018 374.181044 418.001018 366.998502 " transform="matrix(0.998515, 0, 0, -0.998515, -33.235693, 452.027673)"/>
<path fill-rule="nonzero" fill="rgb(76.399231%, 71.299744%, 66.598511%)" fill-opacity="1" stroke-width="0.4" stroke-linecap="butt" stroke-linejoin="round" stroke="rgb(0%, 0%, 0%)" stroke-opacity="1" stroke-miterlimit="10" d="M 318.998516 438.999966 C 318.998516 431.821336 313.181283 426.000191 305.99874 426.000191 C 298.82011 426.000191 292.998965 431.821336 292.998965 438.999966 C 292.998965 446.178596 298.82011 451.999741 305.99874 451.999741 C 313.181283 451.999741 318.998516 446.178596 318.998516 438.999966 " transform="matrix(0.998515, 0, 0, -0.998515, -33.235693, 452.027673)"/>
<path fill-rule="nonzero" fill="rgb(27.799988%, 69.398499%, 69.799805%)" fill-opacity="1" stroke-width="0.4" stroke-linecap="butt" stroke-linejoin="round" stroke="rgb(0%, 0%, 0%)" stroke-opacity="1" stroke-miterlimit="10" d="M 197.000925 438.999966 C 197.000925 431.821336 191.17978 426.000191 184.00115 426.000191 C 176.818607 426.000191 171.001374 431.821336 171.001374 438.999966 C 171.001374 446.178596 176.818607 451.999741 184.00115 451.999741 C 191.17978 451.999741 197.000925 446.178596 197.000925 438.999966 " transform="matrix(0.998515, 0, 0, -0.998515, -33.235693, 452.027673)"/>
<path fill-rule="nonzero" fill="rgb(17.999268%, 58.399963%, 67.799377%)" fill-opacity="1" stroke-width="0.4" stroke-linecap="butt" stroke-linejoin="round" stroke="rgb(0%, 0%, 0%)" stroke-opacity="1" stroke-miterlimit="10" d="M 97.998423 366.998502 C 97.998423 359.819872 92.18119 353.998726 84.998647 353.998726 C 77.820017 353.998726 71.998872 359.819872 71.998872 366.998502 C 71.998872 374.181044 77.820017 379.998277 84.998647 379.998277 C 92.18119 379.998277 97.998423 374.181044 97.998423 366.998502 " transform="matrix(0.998515, 0, 0, -0.998515, -33.235693, 452.027673)"/>
<g clip-path="url(#clip-0)">
<path fill-rule="nonzero" fill="rgb(30.099487%, 43.899536%, 17.199707%)" fill-opacity="1" d="M 27.671875 201.402344 C 27.671875 208.847656 21.640625 214.878906 14.195312 214.878906 C 6.746094 214.878906 0.714844 208.847656 0.714844 201.402344 C 0.714844 193.953125 6.746094 187.921875 14.195312 187.921875 C 21.640625 187.921875 27.671875 193.953125 27.671875 201.402344 "/>
</g>
<g clip-path="url(#clip-1)">
<path fill="none" stroke-width="0.4" stroke-linecap="butt" stroke-linejoin="round" stroke="rgb(0%, 0%, 0%)" stroke-opacity="1" stroke-miterlimit="10" d="M 60.998159 250.998099 C 60.998159 243.541713 54.957939 237.501492 47.501552 237.501492 C 40.041254 237.501492 34.001033 243.541713 34.001033 250.998099 C 34.001033 258.458397 40.041254 264.498618 47.501552 264.498618 C 54.957939 264.498618 60.998159 258.458397 60.998159 250.998099 " transform="matrix(0.998515, 0, 0, -0.998515, -33.235693, 452.027673)"/>
</g>
<path fill-rule="nonzero" fill="rgb(7.398987%, 69.799805%, 92.098999%)" fill-opacity="1" stroke-width="0.4" stroke-linecap="butt" stroke-linejoin="round" stroke="rgb(0%, 0%, 0%)" stroke-opacity="1" stroke-miterlimit="10" d="M 97.998423 135.001608 C 97.998423 127.819066 92.18119 122.001833 84.998647 122.001833 C 77.820017 122.001833 71.998872 127.819066 71.998872 135.001608 C 71.998872 142.180238 77.820017 148.001384 84.998647 148.001384 C 92.18119 148.001384 97.998423 142.180238 97.998423 135.001608 " transform="matrix(0.998515, 0, 0, -0.998515, -33.235693, 452.027673)"/>
<g clip-path="url(#clip-2)">
<path fill-rule="nonzero" fill="rgb(39.199829%, 46.998596%, 95.199585%)" fill-opacity="1" d="M 163.472656 389.121094 C 163.472656 396.289062 157.660156 402.101562 150.492188 402.101562 C 143.320312 402.101562 137.511719 396.289062 137.511719 389.121094 C 137.511719 381.953125 143.320312 376.140625 150.492188 376.140625 C 157.660156 376.140625 163.472656 381.953125 163.472656 389.121094 "/>
</g>
<g clip-path="url(#clip-3)">
<path fill="none" stroke-width="0.4" stroke-linecap="butt" stroke-linejoin="round" stroke="rgb(0%, 0%, 0%)" stroke-opacity="1" stroke-miterlimit="10" d="M 197.000925 63.000144 C 197.000925 55.821514 191.17978 50.000369 184.00115 50.000369 C 176.818607 50.000369 171.001374 55.821514 171.001374 63.000144 C 171.001374 70.178774 176.818607 75.999919 184.00115 75.999919 C 191.17978 75.999919 197.000925 70.178774 197.000925 63.000144 " transform="matrix(0.998515, 0, 0, -0.998515, -33.235693, 452.027673)"/>
</g>
<g clip-path="url(#clip-4)">
<path fill-rule="nonzero" fill="rgb(18.798828%, 86.599731%, 15.59906%)" fill-opacity="1" d="M 285.289062 389.121094 C 285.289062 396.289062 279.480469 402.101562 272.308594 402.101562 C 265.140625 402.101562 259.328125 396.289062 259.328125 389.121094 C 259.328125 381.953125 265.140625 376.140625 272.308594 376.140625 C 279.480469 376.140625 285.289062 381.953125 285.289062 389.121094 "/>
</g>
<g clip-path="url(#clip-5)">
<path fill="none" stroke-width="0.4" stroke-linecap="butt" stroke-linejoin="round" stroke="rgb(0%, 0%, 0%)" stroke-opacity="1" stroke-miterlimit="10" d="M 318.998516 63.000144 C 318.998516 55.821514 313.181283 50.000369 305.99874 50.000369 C 298.82011 50.000369 292.998965 55.821514 292.998965 63.000144 C 292.998965 70.178774 298.82011 75.999919 305.99874 75.999919 C 313.181283 75.999919 318.998516 70.178774 318.998516 63.000144 " transform="matrix(0.998515, 0, 0, -0.998515, -33.235693, 452.027673)"/>
</g>
<path fill-rule="nonzero" fill="rgb(24.699402%, 61.499023%, 52.49939%)" fill-opacity="1" stroke-width="0.4" stroke-linecap="butt" stroke-linejoin="round" stroke="rgb(0%, 0%, 0%)" stroke-opacity="1" stroke-miterlimit="10" d="M 418.001018 135.001608 C 418.001018 127.819066 412.179873 122.001833 405.001243 122.001833 C 397.8187 122.001833 392.001467 127.819066 392.001467 135.001608 C 392.001467 142.180238 397.8187 148.001384 405.001243 148.001384 C 412.179873 148.001384 418.001018 142.180238 418.001018 135.001608 " transform="matrix(0.998515, 0, 0, -0.998515, -33.235693, 452.027673)"/>
<g clip-path="url(#clip-6)">
<path fill-rule="nonzero" fill="rgb(58.799744%, 0.299072%, 75.19989%)" fill-opacity="1" d="M 422.085938 201.402344 C 422.085938 208.847656 416.054688 214.878906 408.605469 214.878906 C 401.160156 214.878906 395.128906 208.847656 395.128906 201.402344 C 395.128906 193.953125 401.160156 187.921875 408.605469 187.921875 C 416.054688 187.921875 422.085938 193.953125 422.085938 201.402344 "/>
</g>
<g clip-path="url(#clip-7)">
<path fill="none" stroke-width="0.4" stroke-linecap="butt" stroke-linejoin="round" stroke="rgb(0%, 0%, 0%)" stroke-opacity="1" stroke-miterlimit="10" d="M 455.998857 250.998099 C 455.998857 243.541713 449.958636 237.501492 442.498338 237.501492 C 435.041951 237.501492 429.001731 243.541713 429.001731 250.998099 C 429.001731 258.458397 435.041951 264.498618 442.498338 264.498618 C 449.958636 264.498618 455.998857 258.458397 455.998857 250.998099 " transform="matrix(0.998515, 0, 0, -0.998515, -33.235693, 452.027673)"/>
</g>
</svg>
