<?xml version="1.0" encoding="UTF-8"?>
<svg xmlns="http://www.w3.org/2000/svg" xmlns:xlink="http://www.w3.org/1999/xlink" width="356.4" height="331.4" viewBox="0 0 356.4 331.4">
<defs>
<clipPath id="clip-0">
<path clip-rule="nonzero" d="M 0.0234375 168 L 67 168 L 67 235 L 0.0234375 235 Z M 0.0234375 168 "/>
</clipPath>
<clipPath id="clip-1">
<path clip-rule="nonzero" d="M 134 54 L 355.777344 54 L 355.777344 276 L 134 276 Z M 134 54 "/>
</clipPath>
<clipPath id="clip-2">
<path clip-rule="nonzero" d="M 40 203 L 168 203 L 168 330.800781 L 40 330.800781 Z M 40 203 "/>
</clipPath>
</defs>
<path fill-rule="nonzero" fill="rgb(36.399841%, 4.699707%, 96.398926%)" fill-opacity="1" stroke-width="0.4" stroke-linecap="butt" stroke-linejoin="round" stroke="rgb(0%, 0%, 0%)" stroke-opacity="1" stroke-miterlimit="10" d="M 151.00056 284.499968 C 151.00056 281.189297 148.312108 278.500845 145.001437 278.500845 C 141.686853 278.500845 138.998401 281.189297 138.998401 284.499968 C 138.998401 287.810639 141.686853 290.499091 145.001437 290.499091 C 148.312108 290.499091 151.00056 287.810639 151.00056 284.499968 " transform="matrix(0.998193, 0, 0, -0.998193, -51.184699, 387.99753)"/>
<path fill-rule="nonzero" fill="rgb(78.399658%, 48.599243%, 75.19989%)" fill-opacity="1" stroke-width="0.4" stroke-linecap="butt" stroke-linejoin="round" stroke="rgb(0%, 0%, 0%)" stroke-opacity="1" stroke-miterlimit="10" d="M 104.00156 244.998893 C 104.00156 230.918759 92.582485 219.499685 78.498438 219.499685 C 64.418305 219.499685 52.999231 230.918759 52.999231 244.998893 C 52.999231 259.08294 64.418305 270.498101 78.498438 270.498101 C 92.582485 270.498101 104.00156 259.08294 104.00156 244.998893 " transform="matrix(0.998193, 0, 0, -0.998193, -51.184699, 387.99753)"/>
<path fill-rule="nonzero" fill="rgb(86.199951%, 88.198853%, 17.199707%)" fill-opacity="1" stroke-width="0.4" stroke-linecap="butt" stroke-linejoin="round" stroke="rgb(0%, 0%, 0%)" stroke-opacity="1" stroke-miterlimit="10" d="M 97.998523 221.499393 C 97.998523 217.499977 91.9994 217.499977 91.9994 221.499393 C 91.9994 225.498808 97.998523 225.498808 97.998523 221.499393 " transform="matrix(0.998193, 0, 0, -0.998193, -51.184699, 387.99753)"/>
<path fill-rule="nonzero" fill="rgb(54.098511%, 22.299194%, 82.299805%)" fill-opacity="1" stroke-width="0.4" stroke-linecap="butt" stroke-linejoin="round" stroke="rgb(0%, 0%, 0%)" stroke-opacity="1" stroke-miterlimit="10" d="M 123.998636 225.001816 C 123.998636 217.82087 118.179526 212.00176 110.99858 212.00176 C 103.821547 212.00176 97.998523 217.82087 97.998523 225.001816 C 97.998523 232.178849 103.821547 238.001873 110.99858 238.001873 C 118.179526 238.001873 123.998636 232.178849 123.998636 225.001816 " transform="matrix(0.998193, 0, 0, -0.998193, -51.184699, 387.99753)"/>
<path fill-rule="nonzero" fill="rgb(19.898987%, 63.09967%, 75.999451%)" fill-opacity="1" stroke-width="0.4" stroke-linecap="butt" stroke-linejoin="round" stroke="rgb(0%, 0%, 0%)" stroke-opacity="1" stroke-miterlimit="10" d="M 140.000211 254.500439 C 140.000211 244.282755 131.719621 235.998252 121.501937 235.998252 C 111.280339 235.998252 102.999749 244.282755 102.999749 254.500439 C 102.999749 264.718124 111.280339 272.998714 121.501937 272.998714 C 131.719621 272.998714 140.000211 264.718124 140.000211 254.500439 " transform="matrix(0.998193, 0, 0, -0.998193, -51.184699, 387.99753)"/>
<path fill-rule="nonzero" fill="rgb(20.698547%, 92.89856%, 35.198975%)" fill-opacity="1" stroke-width="0.4" stroke-linecap="butt" stroke-linejoin="round" stroke="rgb(0%, 0%, 0%)" stroke-opacity="1" stroke-miterlimit="10" d="M 154.999975 269.500204 C 154.999975 264.252439 150.746194 259.998657 145.498429 259.998657 C 140.254577 259.998657 136.000796 264.252439 136.000796 269.500204 C 136.000796 274.744056 140.254577 279.00175 145.498429 279.00175 C 150.746194 279.00175 154.999975 274.744056 154.999975 269.500204 " transform="matrix(0.998193, 0, 0, -0.998193, -51.184699, 387.99753)"/>
<path fill-rule="nonzero" fill="rgb(41.499329%, 86.999512%, 49.398804%)" fill-opacity="1" stroke-width="0.4" stroke-linecap="butt" stroke-linejoin="round" stroke="rgb(0%, 0%, 0%)" stroke-opacity="1" stroke-miterlimit="10" d="M 140.000211 281.001458 C 140.000211 275.753693 135.74643 271.499911 130.498665 271.499911 C 125.254813 271.499911 121.001032 275.753693 121.001032 281.001458 C 121.001032 286.24531 125.254813 290.499091 130.498665 290.499091 C 135.74643 290.499091 140.000211 286.24531 140.000211 281.001458 " transform="matrix(0.998193, 0, 0, -0.998193, -51.184699, 387.99753)"/>
<path fill-rule="nonzero" fill="rgb(51.298523%, 10.499573%, 3.898621%)" fill-opacity="1" stroke-width="0.4" stroke-linecap="butt" stroke-linejoin="round" stroke="rgb(0%, 0%, 0%)" stroke-opacity="1" stroke-miterlimit="10" d="M 123.000739 291.500901 C 123.000739 277.416855 111.581665 266.001694 97.501531 266.001694 C 83.417485 266.001694 71.99841 277.416855 71.99841 291.500901 C 71.99841 305.581035 83.417485 317.000109 97.501531 317.000109 C 111.581665 317.000109 123.000739 305.581035 123.000739 291.500901 " transform="matrix(0.998193, 0, 0, -0.998193, -51.184699, 387.99753)"/>
<path fill-rule="nonzero" fill="rgb(20.298767%, 25%, 26.599121%)" fill-opacity="1" stroke-width="0.4" stroke-linecap="butt" stroke-linejoin="round" stroke="rgb(0%, 0%, 0%)" stroke-opacity="1" stroke-miterlimit="10" d="M 127.998052 328.000458 C 127.998052 319.715955 121.286704 313.000694 112.998288 313.000694 C 104.713784 313.000694 97.998523 319.715955 97.998523 328.000458 C 97.998523 336.284962 104.713784 343.000223 112.998288 343.000223 C 121.286704 343.000223 127.998052 336.284962 127.998052 328.000458 " transform="matrix(0.998193, 0, 0, -0.998193, -51.184699, 387.99753)"/>
<path fill-rule="nonzero" fill="rgb(100%, 100%, 0%)" fill-opacity="1" stroke-width="0.4" stroke-linecap="butt" stroke-linejoin="round" stroke="rgb(0%, 0%, 0%)" stroke-opacity="1" stroke-miterlimit="10" d="M 164.998514 344.99993 C 164.998514 333.400843 155.598714 324.001043 143.999627 324.001043 C 132.400539 324.001043 123.000739 333.400843 123.000739 344.99993 C 123.000739 356.599017 132.400539 365.998818 143.999627 365.998818 C 155.598714 365.998818 164.998514 356.599017 164.998514 344.99993 " transform="matrix(0.998193, 0, 0, -0.998193, -51.184699, 387.99753)"/>
<g clip-path="url(#clip-0)">
<path fill-rule="nonzero" fill="rgb(100%, 12.098694%, 23.498535%)" fill-opacity="1" stroke-width="0.4" stroke-linecap="butt" stroke-linejoin="round" stroke="rgb(0%, 0%, 0%)" stroke-opacity="1" stroke-miterlimit="10" d="M 117.999513 186.999544 C 117.999513 168.771288 103.226722 153.998497 84.998467 153.998497 C 66.774125 153.998497 52.001333 168.771288 52.001333 186.999544 C 52.001333 205.227799 66.774125 220.00059 84.998467 220.00059 C 103.226722 220.00059 117.999513 205.227799 117.999513 186.999544 " transform="matrix(0.998193, 0, 0, -0.998193, -51.184699, 387.99753)"/>
</g>
<path fill-rule="nonzero" fill="rgb(48.599243%, 87.799072%, 17.599487%)" fill-opacity="1" stroke-width="0.4" stroke-linecap="butt" stroke-linejoin="round" stroke="rgb(0%, 0%, 0%)" stroke-opacity="1" stroke-miterlimit="10" d="M 138.000504 229.999129 C 138.000504 225.858834 134.642873 222.501203 130.498665 222.501203 C 126.35837 222.501203 123.000739 225.858834 123.000739 229.999129 C 123.000739 234.139424 126.35837 237.500967 130.498665 237.500967 C 134.642873 237.500967 138.000504 234.139424 138.000504 229.999129 " transform="matrix(0.998193, 0, 0, -0.998193, -51.184699, 387.99753)"/>
<path fill-rule="nonzero" fill="rgb(58.799744%, 86.999512%, 82.299805%)" fill-opacity="1" stroke-width="0.4" stroke-linecap="butt" stroke-linejoin="round" stroke="rgb(0%, 0%, 0%)" stroke-opacity="1" stroke-miterlimit="10" d="M 154.999975 307.001571 C 154.999975 297.335665 147.165504 289.501194 137.499598 289.501194 C 127.837606 289.501194 119.999221 297.335665 119.999221 307.001571 C 119.999221 316.663564 127.837606 324.501948 137.499598 324.501948 C 147.165504 324.501948 154.999975 316.663564 154.999975 307.001571 " transform="matrix(0.998193, 0, 0, -0.998193, -51.184699, 387.99753)"/>
<path fill-rule="nonzero" fill="rgb(21.499634%, 63.09967%, 35.998535%)" fill-opacity="1" stroke-width="0.4" stroke-linecap="butt" stroke-linejoin="round" stroke="rgb(0%, 0%, 0%)" stroke-opacity="1" stroke-miterlimit="10" d="M 248.000079 346.498733 C 248.000079 323.582317 229.419625 305.001863 206.499297 305.001863 C 183.582881 305.001863 164.998514 323.582317 164.998514 346.498733 C 164.998514 369.419061 183.582881 387.999515 206.499297 387.999515 C 229.419625 387.999515 248.000079 369.419061 248.000079 346.498733 " transform="matrix(0.998193, 0, 0, -0.998193, -51.184699, 387.99753)"/>
<path fill-rule="nonzero" fill="rgb(14.099121%, 98.399353%, 56.399536%)" fill-opacity="1" stroke-width="0.4" stroke-linecap="butt" stroke-linejoin="round" stroke="rgb(0%, 0%, 0%)" stroke-opacity="1" stroke-miterlimit="10" d="M 171.999447 320.001628 C 171.999447 314.476017 167.522607 309.999176 162.000909 309.999176 C 156.475298 309.999176 151.998457 314.476017 151.998457 320.001628 C 151.998457 325.523325 156.475298 330.000166 162.000909 330.000166 C 167.522607 330.000166 171.999447 325.523325 171.999447 320.001628 " transform="matrix(0.998193, 0, 0, -0.998193, -51.184699, 387.99753)"/>
<path fill-rule="nonzero" fill="rgb(1.098633%, 47.399902%, 77.198792%)" fill-opacity="1" stroke-width="0.4" stroke-linecap="butt" stroke-linejoin="round" stroke="rgb(0%, 0%, 0%)" stroke-opacity="1" stroke-miterlimit="10" d="M 201.001079 287.000581 C 201.001079 272.916534 189.582004 261.501373 175.501871 261.501373 C 161.417824 261.501373 149.99875 272.916534 149.99875 287.000581 C 149.99875 301.080714 161.417824 312.499789 175.501871 312.499789 C 189.582004 312.499789 201.001079 301.080714 201.001079 287.000581 " transform="matrix(0.998193, 0, 0, -0.998193, -51.184699, 387.99753)"/>
<path fill-rule="nonzero" fill="rgb(11.698914%, 51.298523%, 18.399048%)" fill-opacity="1" stroke-width="0.4" stroke-linecap="butt" stroke-linejoin="round" stroke="rgb(0%, 0%, 0%)" stroke-opacity="1" stroke-miterlimit="10" d="M 186.001314 238.99977 C 186.001314 225.467502 175.032272 214.498459 161.500004 214.498459 C 147.967735 214.498459 136.998693 225.467502 136.998693 238.99977 C 136.998693 252.532038 147.967735 263.501081 161.500004 263.501081 C 175.032272 263.501081 186.001314 252.532038 186.001314 238.99977 " transform="matrix(0.998193, 0, 0, -0.998193, -51.184699, 387.99753)"/>
<path fill-rule="nonzero" fill="rgb(36.799622%, 77.999878%, 69.799805%)" fill-opacity="1" stroke-width="0.4" stroke-linecap="butt" stroke-linejoin="round" stroke="rgb(0%, 0%, 0%)" stroke-opacity="1" stroke-miterlimit="10" d="M 156.001786 202.500213 C 156.001786 191.178972 146.821132 181.998318 135.499891 181.998318 C 124.178649 181.998318 115.001909 191.178972 115.001909 202.500213 C 115.001909 213.821454 124.178649 222.998195 135.499891 222.998195 C 146.821132 222.998195 156.001786 213.821454 156.001786 202.500213 " transform="matrix(0.998193, 0, 0, -0.998193, -51.184699, 387.99753)"/>
<g clip-path="url(#clip-1)">
<path fill-rule="nonzero" fill="rgb(62.298584%, 97.198486%, 90.499878%)" fill-opacity="1" stroke-width="0.4" stroke-linecap="butt" stroke-linejoin="round" stroke="rgb(0%, 0%, 0%)" stroke-opacity="1" stroke-miterlimit="10" d="M 406.998363 223.4991 C 406.998363 162.474753 357.526143 112.998619 296.501795 112.998619 C 235.473535 112.998619 186.001314 162.474753 186.001314 223.4991 C 186.001314 284.527361 235.473535 333.999581 296.501795 333.999581 C 357.526143 333.999581 406.998363 284.527361 406.998363 223.4991 " transform="matrix(0.998193, 0, 0, -0.998193, -51.184699, 387.99753)"/>
</g>
<path fill-rule="nonzero" fill="rgb(74.499512%, 20.298767%, 99.198914%)" fill-opacity="1" stroke-width="0.4" stroke-linecap="butt" stroke-linejoin="round" stroke="rgb(0%, 0%, 0%)" stroke-opacity="1" stroke-miterlimit="10" d="M 188.001022 199.001703 C 188.001022 189.887575 180.61267 182.499223 171.498542 182.499223 C 162.388328 182.499223 154.999975 189.887575 154.999975 199.001703 C 154.999975 208.111917 162.388328 215.50027 171.498542 215.50027 C 180.61267 215.50027 188.001022 208.111917 188.001022 199.001703 " transform="matrix(0.998193, 0, 0, -0.998193, -51.184699, 387.99753)"/>
<g clip-path="url(#clip-2)">
<path fill-rule="nonzero" fill="rgb(0%, 0%, 100%)" fill-opacity="1" stroke-width="0.4" stroke-linecap="butt" stroke-linejoin="round" stroke="rgb(0%, 0%, 0%)" stroke-opacity="1" stroke-miterlimit="10" d="M 218.998448 121.498355 C 218.998448 86.431075 190.568162 58.000788 155.500881 58.000788 C 120.429687 58.000788 91.9994 86.431075 91.9994 121.498355 C 91.9994 156.56955 120.429687 184.999836 155.500881 184.999836 C 190.568162 184.999836 218.998448 156.56955 218.998448 121.498355 " transform="matrix(0.998193, 0, 0, -0.998193, -51.184699, 387.99753)"/>
</g>
</svg>
