<?xml version="1.0" encoding="UTF-8"?>
<svg xmlns="http://www.w3.org/2000/svg" xmlns:xlink="http://www.w3.org/1999/xlink" width="210.4" height="244.2" viewBox="0 0 210.4 244.2">
<defs>
<clipPath id="clip-0">
<path clip-rule="nonzero" d="M 107 174 L 176 174 L 176 243.402344 L 107 243.402344 Z M 107 174 "/>
</clipPath>
<clipPath id="clip-1">
<path clip-rule="nonzero" d="M 0.0429688 73 L 29 73 L 29 122 L 0.0429688 122 Z M 0.0429688 73 "/>
</clipPath>
<clipPath id="clip-2">
<path clip-rule="nonzero" d="M 0.0429688 73 L 36 73 L 36 89 L 0.0429688 89 Z M 0.0429688 73 "/>
</clipPath>
<clipPath id="clip-3">
<path clip-rule="nonzero" d="M 0.0429688 60 L 39 60 L 39 75 L 0.0429688 75 Z M 0.0429688 60 "/>
</clipPath>
<clipPath id="clip-4">
<path clip-rule="nonzero" d="M 0.0429688 15 L 23 15 L 23 75 L 0.0429688 75 Z M 0.0429688 15 "/>
</clipPath>
<clipPath id="clip-5">
<path clip-rule="nonzero" d="M 0.0429688 73 L 32 73 L 32 191 L 0.0429688 191 Z M 0.0429688 73 "/>
</clipPath>
<clipPath id="clip-6">
<path clip-rule="nonzero" d="M 192 86 L 209.757812 86 L 209.757812 106 L 192 106 Z M 192 86 "/>
</clipPath>
<clipPath id="clip-7">
<path clip-rule="nonzero" d="M 184 104 L 209.757812 104 L 209.757812 130 L 184 130 Z M 184 104 "/>
</clipPath>
<clipPath id="clip-8">
<path clip-rule="nonzero" d="M 0.0429688 73 L 36 73 L 36 89 L 0.0429688 89 Z M 0.0429688 73 "/>
</clipPath>
<clipPath id="clip-9">
<path clip-rule="nonzero" d="M 0.0429688 60 L 39 60 L 39 75 L 0.0429688 75 Z M 0.0429688 60 "/>
</clipPath>
<clipPath id="clip-10">
<path clip-rule="nonzero" d="M 0.0429688 15 L 23 15 L 23 75 L 0.0429688 75 Z M 0.0429688 15 "/>
</clipPath>
</defs>
<path fill-rule="evenodd" fill="rgb(0%, 39.199829%, 0%)" fill-opacity="0.4" d="M 108.886719 201.539062 L 142.777344 175.625 L 174.671875 192.570312 L 165.703125 225.460938 L 121.84375 242.40625 Z M 108.886719 201.539062 "/>
<path fill-rule="evenodd" fill="rgb(0%, 39.199829%, 0%)" fill-opacity="0.4" d="M 35.128906 87.910156 L 67.023438 79.9375 L 80.980469 94.890625 L 108.886719 105.851562 L 86.960938 165.65625 L 52.074219 167.652344 L 47.089844 144.726562 L 28.152344 120.804688 Z M 35.128906 87.910156 "/>
<path fill-rule="evenodd" fill="rgb(0%, 39.199829%, 0%)" fill-opacity="0.4" d="M 130.816406 18.140625 L 150.75 13.15625 L 186.632812 39.070312 L 187.628906 61 L 160.71875 61.996094 L 139.785156 52.03125 Z M 130.816406 18.140625 "/>
<path fill-rule="evenodd" fill="rgb(0%, 0%, 54.499817%)" fill-opacity="0.4" d="M 84.964844 67.976562 L 115.863281 62.992188 L 139.785156 52.03125 L 160.71875 61.996094 L 162.710938 117.8125 L 108.886719 105.851562 L 80.980469 94.890625 Z M 84.964844 67.976562 "/>
<path fill-rule="evenodd" fill="rgb(0%, 39.199829%, 0%)" fill-opacity="0.4" d="M 43.101562 30.101562 L 66.027344 14.152344 L 96.925781 30.101562 L 84.964844 67.976562 L 67.023438 79.9375 L 38.121094 61 Z M 43.101562 30.101562 "/>
<g clip-path="url(#clip-0)">
<path fill="none" stroke-width="2" stroke-linecap="butt" stroke-linejoin="round" stroke="rgb(0%, 39.199829%, 0%)" stroke-opacity="0.4" stroke-miterlimit="10" d="M 161.998796 81.000695 L 196.000447 106.999652 L 227.999465 89.998827 L 219.001333 57.000452 L 174.998275 39.999626 Z M 161.998796 81.000695 " transform="matrix(0.996735, 0, 0, -0.996735, -52.583102, 282.275265)"/>
</g>
<path fill="none" stroke-width="2" stroke-linecap="butt" stroke-linejoin="round" stroke="rgb(0%, 39.199829%, 0%)" stroke-opacity="0.4" stroke-miterlimit="10" d="M 87.999353 195.00185 L 119.998371 203.000624 L 134.001125 187.998513 L 161.998796 177.001667 L 140.001186 117.00106 L 105.000179 114.998427 L 99.999475 137.999313 L 80.999935 161.999556 Z M 87.999353 195.00185 " transform="matrix(0.996735, 0, 0, -0.996735, -52.583102, 282.275265)"/>
<path fill="none" stroke-width="2" stroke-linecap="butt" stroke-linejoin="round" stroke="rgb(0%, 39.199829%, 0%)" stroke-opacity="0.4" stroke-miterlimit="10" d="M 184.000326 264.999946 L 203.999222 270.00065 L 239.999587 244.001693 L 240.998944 222.000164 L 214.00063 221.000807 L 192.998457 230.998295 Z M 184.000326 264.999946 " transform="matrix(0.996735, 0, 0, -0.996735, -52.583102, 282.275265)"/>
<path fill="none" stroke-width="2" stroke-linecap="butt" stroke-linejoin="round" stroke="rgb(0%, 0%, 54.499817%)" stroke-opacity="0.4" stroke-miterlimit="10" d="M 137.998553 215.000746 L 168.998214 220.00145 L 192.998457 230.998295 L 214.00063 221.000807 L 215.999344 165.001546 L 161.998796 177.001667 L 134.001125 187.998513 Z M 137.998553 215.000746 " transform="matrix(0.996735, 0, 0, -0.996735, -52.583102, 282.275265)"/>
<path fill="none" stroke-width="2" stroke-linecap="butt" stroke-linejoin="round" stroke="rgb(0%, 39.199829%, 0%)" stroke-opacity="0.4" stroke-miterlimit="10" d="M 95.998128 252.999825 L 118.999014 269.001293 L 149.998675 252.999825 L 137.998553 215.000746 L 119.998371 203.000624 L 91.001343 222.000164 Z M 95.998128 252.999825 " transform="matrix(0.996735, 0, 0, -0.996735, -52.583102, 282.275265)"/>
<path fill="none" stroke-width="0.4" stroke-linecap="butt" stroke-linejoin="round" stroke="rgb(0%, 0%, 0%)" stroke-opacity="1" stroke-miterlimit="10" d="M 168.998214 220.00145 L 137.998553 215.000746 " transform="matrix(0.996735, 0, 0, -0.996735, -52.583102, 282.275265)"/>
<path fill="none" stroke-width="0.4" stroke-linecap="butt" stroke-linejoin="round" stroke="rgb(0%, 0%, 0%)" stroke-opacity="1" stroke-miterlimit="10" d="M 118.999014 59.998523 L 84.001925 92.001459 " transform="matrix(0.996735, 0, 0, -0.996735, -52.583102, 282.275265)"/>
<path fill="none" stroke-width="0.4" stroke-linecap="butt" stroke-linejoin="round" stroke="rgb(0%, 0%, 0%)" stroke-opacity="1" stroke-miterlimit="10" d="M 118.999014 59.998523 L 174.998275 39.999626 " transform="matrix(0.996735, 0, 0, -0.996735, -52.583102, 282.275265)"/>
<path fill="none" stroke-width="0.4" stroke-linecap="butt" stroke-linejoin="round" stroke="rgb(0%, 0%, 0%)" stroke-opacity="1" stroke-miterlimit="10" d="M 118.999014 59.998523 L 152.001308 57.000452 " transform="matrix(0.996735, 0, 0, -0.996735, -52.583102, 282.275265)"/>
<path fill="none" stroke-width="0.4" stroke-linecap="butt" stroke-linejoin="round" stroke="rgb(0%, 0%, 0%)" stroke-opacity="1" stroke-miterlimit="10" d="M 118.999014 59.998523 L 116.000943 81.000695 " transform="matrix(0.996735, 0, 0, -0.996735, -52.583102, 282.275265)"/>
<g clip-path="url(#clip-1)">
<path fill="none" stroke-width="0.4" stroke-linecap="butt" stroke-linejoin="round" stroke="rgb(0%, 0%, 0%)" stroke-opacity="1" stroke-miterlimit="10" d="M 52.998345 209.000685 L 80.999935 161.999556 " transform="matrix(0.996735, 0, 0, -0.996735, -52.583102, 282.275265)"/>
</g>
<g clip-path="url(#clip-2)">
<path fill="none" stroke-width="0.4" stroke-linecap="butt" stroke-linejoin="round" stroke="rgb(0%, 0%, 0%)" stroke-opacity="1" stroke-miterlimit="10" d="M 52.998345 209.000685 L 87.999353 195.00185 " transform="matrix(0.996735, 0, 0, -0.996735, -52.583102, 282.275265)"/>
</g>
<g clip-path="url(#clip-3)">
<path fill="none" stroke-width="0.4" stroke-linecap="butt" stroke-linejoin="round" stroke="rgb(0%, 0%, 0%)" stroke-opacity="1" stroke-miterlimit="10" d="M 52.998345 209.000685 L 91.001343 222.000164 " transform="matrix(0.996735, 0, 0, -0.996735, -52.583102, 282.275265)"/>
</g>
<g clip-path="url(#clip-4)">
<path fill="none" stroke-width="0.4" stroke-linecap="butt" stroke-linejoin="round" stroke="rgb(0%, 0%, 0%)" stroke-opacity="1" stroke-miterlimit="10" d="M 52.998345 209.000685 L 74.999875 266.99866 " transform="matrix(0.996735, 0, 0, -0.996735, -52.583102, 282.275265)"/>
</g>
<g clip-path="url(#clip-5)">
<path fill="none" stroke-width="0.4" stroke-linecap="butt" stroke-linejoin="round" stroke="rgb(0%, 0%, 0%)" stroke-opacity="1" stroke-miterlimit="10" d="M 52.998345 209.000685 L 84.001925 92.001459 " transform="matrix(0.996735, 0, 0, -0.996735, -52.583102, 282.275265)"/>
</g>
<path fill="none" stroke-width="0.4" stroke-linecap="butt" stroke-linejoin="round" stroke="rgb(0%, 0%, 0%)" stroke-opacity="1" stroke-miterlimit="10" d="M 214.999987 240.999703 L 184.000326 264.999946 " transform="matrix(0.996735, 0, 0, -0.996735, -52.583102, 282.275265)"/>
<path fill="none" stroke-width="0.4" stroke-linecap="butt" stroke-linejoin="round" stroke="rgb(0%, 0%, 0%)" stroke-opacity="1" stroke-miterlimit="10" d="M 214.999987 240.999703 L 192.998457 230.998295 " transform="matrix(0.996735, 0, 0, -0.996735, -52.583102, 282.275265)"/>
<path fill="none" stroke-width="0.4" stroke-linecap="butt" stroke-linejoin="round" stroke="rgb(0%, 0%, 0%)" stroke-opacity="1" stroke-miterlimit="10" d="M 214.999987 240.999703 L 214.00063 221.000807 " transform="matrix(0.996735, 0, 0, -0.996735, -52.583102, 282.275265)"/>
<path fill="none" stroke-width="0.4" stroke-linecap="butt" stroke-linejoin="round" stroke="rgb(0%, 0%, 0%)" stroke-opacity="1" stroke-miterlimit="10" d="M 214.999987 240.999703 L 240.998944 222.000164 " transform="matrix(0.996735, 0, 0, -0.996735, -52.583102, 282.275265)"/>
<path fill="none" stroke-width="0.4" stroke-linecap="butt" stroke-linejoin="round" stroke="rgb(0%, 0%, 0%)" stroke-opacity="1" stroke-miterlimit="10" d="M 214.999987 240.999703 L 239.999587 244.001693 " transform="matrix(0.996735, 0, 0, -0.996735, -52.583102, 282.275265)"/>
<path fill="none" stroke-width="0.4" stroke-linecap="butt" stroke-linejoin="round" stroke="rgb(0%, 0%, 0%)" stroke-opacity="1" stroke-miterlimit="10" d="M 214.999987 240.999703 L 203.999222 270.00065 " transform="matrix(0.996735, 0, 0, -0.996735, -52.583102, 282.275265)"/>
<g clip-path="url(#clip-6)">
<path fill="none" stroke-width="0.4" stroke-linecap="butt" stroke-linejoin="round" stroke="rgb(0%, 0%, 0%)" stroke-opacity="1" stroke-miterlimit="10" d="M 263.000473 178.001024 L 245.999647 196.001207 " transform="matrix(0.996735, 0, 0, -0.996735, -52.583102, 282.275265)"/>
</g>
<g clip-path="url(#clip-7)">
<path fill="none" stroke-width="0.4" stroke-linecap="butt" stroke-linejoin="round" stroke="rgb(0%, 0%, 0%)" stroke-opacity="1" stroke-miterlimit="10" d="M 263.000473 178.001024 L 238.000873 153.001424 " transform="matrix(0.996735, 0, 0, -0.996735, -52.583102, 282.275265)"/>
</g>
<path fill="none" stroke-width="0.4" stroke-linecap="butt" stroke-linejoin="round" stroke="rgb(0%, 0%, 0%)" stroke-opacity="1" stroke-miterlimit="10" d="M 215.999344 165.001546 L 174.998275 197.999921 " transform="matrix(0.996735, 0, 0, -0.996735, -52.583102, 282.275265)"/>
<path fill="none" stroke-width="0.4" stroke-linecap="butt" stroke-linejoin="round" stroke="rgb(0%, 0%, 0%)" stroke-opacity="1" stroke-miterlimit="10" d="M 215.999344 165.001546 L 161.998796 177.001667 " transform="matrix(0.996735, 0, 0, -0.996735, -52.583102, 282.275265)"/>
<path fill="none" stroke-width="0.4" stroke-linecap="butt" stroke-linejoin="round" stroke="rgb(0%, 0%, 0%)" stroke-opacity="1" stroke-miterlimit="10" d="M 215.999344 165.001546 L 197.999161 126.998548 " transform="matrix(0.996735, 0, 0, -0.996735, -52.583102, 282.275265)"/>
<path fill="none" stroke-width="0.4" stroke-linecap="butt" stroke-linejoin="round" stroke="rgb(0%, 0%, 0%)" stroke-opacity="1" stroke-miterlimit="10" d="M 215.999344 165.001546 L 238.000873 153.001424 " transform="matrix(0.996735, 0, 0, -0.996735, -52.583102, 282.275265)"/>
<path fill="none" stroke-width="0.4" stroke-linecap="butt" stroke-linejoin="round" stroke="rgb(0%, 0%, 0%)" stroke-opacity="1" stroke-miterlimit="10" d="M 215.999344 165.001546 L 245.999647 196.001207 " transform="matrix(0.996735, 0, 0, -0.996735, -52.583102, 282.275265)"/>
<path fill="none" stroke-width="0.4" stroke-linecap="butt" stroke-linejoin="round" stroke="rgb(0%, 0%, 0%)" stroke-opacity="1" stroke-miterlimit="10" d="M 215.999344 165.001546 L 214.00063 221.000807 " transform="matrix(0.996735, 0, 0, -0.996735, -52.583102, 282.275265)"/>
<path fill="none" stroke-width="0.4" stroke-linecap="butt" stroke-linejoin="round" stroke="rgb(0%, 0%, 0%)" stroke-opacity="1" stroke-miterlimit="10" d="M 214.00063 221.000807 L 245.999647 196.001207 " transform="matrix(0.996735, 0, 0, -0.996735, -52.583102, 282.275265)"/>
<path fill="none" stroke-width="0.4" stroke-linecap="butt" stroke-linejoin="round" stroke="rgb(0%, 0%, 0%)" stroke-opacity="1" stroke-miterlimit="10" d="M 214.00063 221.000807 L 240.998944 222.000164 " transform="matrix(0.996735, 0, 0, -0.996735, -52.583102, 282.275265)"/>
<path fill="none" stroke-width="0.4" stroke-linecap="butt" stroke-linejoin="round" stroke="rgb(0%, 0%, 0%)" stroke-opacity="1" stroke-miterlimit="10" d="M 214.00063 221.000807 L 192.998457 230.998295 " transform="matrix(0.996735, 0, 0, -0.996735, -52.583102, 282.275265)"/>
<path fill="none" stroke-width="0.4" stroke-linecap="butt" stroke-linejoin="round" stroke="rgb(0%, 0%, 0%)" stroke-opacity="1" stroke-miterlimit="10" d="M 214.00063 221.000807 L 174.998275 197.999921 " transform="matrix(0.996735, 0, 0, -0.996735, -52.583102, 282.275265)"/>
<path fill="none" stroke-width="0.4" stroke-linecap="butt" stroke-linejoin="round" stroke="rgb(0%, 0%, 0%)" stroke-opacity="1" stroke-miterlimit="10" d="M 214.00063 221.000807 L 215.999344 165.001546 " transform="matrix(0.996735, 0, 0, -0.996735, -52.583102, 282.275265)"/>
<path fill="none" stroke-width="0.4" stroke-linecap="butt" stroke-linejoin="round" stroke="rgb(0%, 0%, 0%)" stroke-opacity="1" stroke-miterlimit="10" d="M 239.999587 244.001693 L 229.998179 283.000129 " transform="matrix(0.996735, 0, 0, -0.996735, -52.583102, 282.275265)"/>
<path fill="none" stroke-width="0.4" stroke-linecap="butt" stroke-linejoin="round" stroke="rgb(0%, 0%, 0%)" stroke-opacity="1" stroke-miterlimit="10" d="M 239.999587 244.001693 L 203.999222 270.00065 " transform="matrix(0.996735, 0, 0, -0.996735, -52.583102, 282.275265)"/>
<path fill="none" stroke-width="0.4" stroke-linecap="butt" stroke-linejoin="round" stroke="rgb(0%, 0%, 0%)" stroke-opacity="1" stroke-miterlimit="10" d="M 239.999587 244.001693 L 240.998944 222.000164 " transform="matrix(0.996735, 0, 0, -0.996735, -52.583102, 282.275265)"/>
<path fill="none" stroke-width="0.4" stroke-linecap="butt" stroke-linejoin="round" stroke="rgb(0%, 0%, 0%)" stroke-opacity="1" stroke-miterlimit="10" d="M 240.998944 222.000164 L 239.999587 244.001693 " transform="matrix(0.996735, 0, 0, -0.996735, -52.583102, 282.275265)"/>
<path fill="none" stroke-width="0.4" stroke-linecap="butt" stroke-linejoin="round" stroke="rgb(0%, 0%, 0%)" stroke-opacity="1" stroke-miterlimit="10" d="M 240.998944 222.000164 L 245.999647 196.001207 " transform="matrix(0.996735, 0, 0, -0.996735, -52.583102, 282.275265)"/>
<path fill="none" stroke-width="0.4" stroke-linecap="butt" stroke-linejoin="round" stroke="rgb(0%, 0%, 0%)" stroke-opacity="1" stroke-miterlimit="10" d="M 245.999647 196.001207 L 238.000873 153.001424 " transform="matrix(0.996735, 0, 0, -0.996735, -52.583102, 282.275265)"/>
<path fill="none" stroke-width="0.4" stroke-linecap="butt" stroke-linejoin="round" stroke="rgb(0%, 0%, 0%)" stroke-opacity="1" stroke-miterlimit="10" d="M 245.999647 196.001207 L 240.998944 222.000164 " transform="matrix(0.996735, 0, 0, -0.996735, -52.583102, 282.275265)"/>
<path fill="none" stroke-width="0.4" stroke-linecap="butt" stroke-linejoin="round" stroke="rgb(0%, 0%, 0%)" stroke-opacity="1" stroke-miterlimit="10" d="M 168.998214 220.00145 L 174.998275 197.999921 " transform="matrix(0.996735, 0, 0, -0.996735, -52.583102, 282.275265)"/>
<path fill="none" stroke-width="0.4" stroke-linecap="butt" stroke-linejoin="round" stroke="rgb(0%, 0%, 0%)" stroke-opacity="1" stroke-miterlimit="10" d="M 168.998214 220.00145 L 192.998457 230.998295 " transform="matrix(0.996735, 0, 0, -0.996735, -52.583102, 282.275265)"/>
<path fill="none" stroke-width="0.4" stroke-linecap="butt" stroke-linejoin="round" stroke="rgb(0%, 0%, 0%)" stroke-opacity="1" stroke-miterlimit="10" d="M 168.998214 220.00145 L 184.000326 264.999946 " transform="matrix(0.996735, 0, 0, -0.996735, -52.583102, 282.275265)"/>
<path fill="none" stroke-width="0.4" stroke-linecap="butt" stroke-linejoin="round" stroke="rgb(0%, 0%, 0%)" stroke-opacity="1" stroke-miterlimit="10" d="M 168.998214 220.00145 L 149.998675 252.999825 " transform="matrix(0.996735, 0, 0, -0.996735, -52.583102, 282.275265)"/>
<path fill="none" stroke-width="0.4" stroke-linecap="butt" stroke-linejoin="round" stroke="rgb(0%, 0%, 0%)" stroke-opacity="1" stroke-miterlimit="10" d="M 161.998796 177.001667 L 140.001186 117.00106 " transform="matrix(0.996735, 0, 0, -0.996735, -52.583102, 282.275265)"/>
<path fill="none" stroke-width="0.4" stroke-linecap="butt" stroke-linejoin="round" stroke="rgb(0%, 0%, 0%)" stroke-opacity="1" stroke-miterlimit="10" d="M 161.998796 177.001667 L 197.999161 126.998548 " transform="matrix(0.996735, 0, 0, -0.996735, -52.583102, 282.275265)"/>
<path fill="none" stroke-width="0.4" stroke-linecap="butt" stroke-linejoin="round" stroke="rgb(0%, 0%, 0%)" stroke-opacity="1" stroke-miterlimit="10" d="M 161.998796 177.001667 L 174.998275 197.999921 " transform="matrix(0.996735, 0, 0, -0.996735, -52.583102, 282.275265)"/>
<path fill="none" stroke-width="0.4" stroke-linecap="butt" stroke-linejoin="round" stroke="rgb(0%, 0%, 0%)" stroke-opacity="1" stroke-miterlimit="10" d="M 161.998796 177.001667 L 134.001125 187.998513 " transform="matrix(0.996735, 0, 0, -0.996735, -52.583102, 282.275265)"/>
<path fill="none" stroke-width="0.4" stroke-linecap="butt" stroke-linejoin="round" stroke="rgb(0%, 0%, 0%)" stroke-opacity="1" stroke-miterlimit="10" d="M 161.998796 177.001667 L 109.001525 157.998209 " transform="matrix(0.996735, 0, 0, -0.996735, -52.583102, 282.275265)"/>
<path fill="none" stroke-width="0.4" stroke-linecap="butt" stroke-linejoin="round" stroke="rgb(0%, 0%, 0%)" stroke-opacity="1" stroke-miterlimit="10" d="M 197.999161 126.998548 L 161.998796 177.001667 " transform="matrix(0.996735, 0, 0, -0.996735, -52.583102, 282.275265)"/>
<path fill="none" stroke-width="0.4" stroke-linecap="butt" stroke-linejoin="round" stroke="rgb(0%, 0%, 0%)" stroke-opacity="1" stroke-miterlimit="10" d="M 197.999161 126.998548 L 140.001186 117.00106 " transform="matrix(0.996735, 0, 0, -0.996735, -52.583102, 282.275265)"/>
<path fill="none" stroke-width="0.4" stroke-linecap="butt" stroke-linejoin="round" stroke="rgb(0%, 0%, 0%)" stroke-opacity="1" stroke-miterlimit="10" d="M 197.999161 126.998548 L 196.000447 106.999652 " transform="matrix(0.996735, 0, 0, -0.996735, -52.583102, 282.275265)"/>
<path fill="none" stroke-width="0.4" stroke-linecap="butt" stroke-linejoin="round" stroke="rgb(0%, 0%, 0%)" stroke-opacity="1" stroke-miterlimit="10" d="M 197.999161 126.998548 L 235.99824 118.999773 " transform="matrix(0.996735, 0, 0, -0.996735, -52.583102, 282.275265)"/>
<path fill="none" stroke-width="0.4" stroke-linecap="butt" stroke-linejoin="round" stroke="rgb(0%, 0%, 0%)" stroke-opacity="1" stroke-miterlimit="10" d="M 197.999161 126.998548 L 238.000873 153.001424 " transform="matrix(0.996735, 0, 0, -0.996735, -52.583102, 282.275265)"/>
<path fill="none" stroke-width="0.4" stroke-linecap="butt" stroke-linejoin="round" stroke="rgb(0%, 0%, 0%)" stroke-opacity="1" stroke-miterlimit="10" d="M 235.99824 118.999773 L 197.999161 126.998548 " transform="matrix(0.996735, 0, 0, -0.996735, -52.583102, 282.275265)"/>
<path fill="none" stroke-width="0.4" stroke-linecap="butt" stroke-linejoin="round" stroke="rgb(0%, 0%, 0%)" stroke-opacity="1" stroke-miterlimit="10" d="M 235.99824 118.999773 L 196.000447 106.999652 " transform="matrix(0.996735, 0, 0, -0.996735, -52.583102, 282.275265)"/>
<path fill="none" stroke-width="0.4" stroke-linecap="butt" stroke-linejoin="round" stroke="rgb(0%, 0%, 0%)" stroke-opacity="1" stroke-miterlimit="10" d="M 235.99824 118.999773 L 227.999465 89.998827 " transform="matrix(0.996735, 0, 0, -0.996735, -52.583102, 282.275265)"/>
<path fill="none" stroke-width="0.4" stroke-linecap="butt" stroke-linejoin="round" stroke="rgb(0%, 0%, 0%)" stroke-opacity="1" stroke-miterlimit="10" d="M 235.99824 118.999773 L 238.000873 153.001424 " transform="matrix(0.996735, 0, 0, -0.996735, -52.583102, 282.275265)"/>
<path fill="none" stroke-width="0.4" stroke-linecap="butt" stroke-linejoin="round" stroke="rgb(0%, 0%, 0%)" stroke-opacity="1" stroke-miterlimit="10" d="M 256.001055 73.00192 L 219.001333 57.000452 " transform="matrix(0.996735, 0, 0, -0.996735, -52.583102, 282.275265)"/>
<path fill="none" stroke-width="0.4" stroke-linecap="butt" stroke-linejoin="round" stroke="rgb(0%, 0%, 0%)" stroke-opacity="1" stroke-miterlimit="10" d="M 256.001055 73.00192 L 244.000934 39.999626 " transform="matrix(0.996735, 0, 0, -0.996735, -52.583102, 282.275265)"/>
<path fill="none" stroke-width="0.4" stroke-linecap="butt" stroke-linejoin="round" stroke="rgb(0%, 0%, 0%)" stroke-opacity="1" stroke-miterlimit="10" d="M 256.001055 73.00192 L 227.999465 89.998827 " transform="matrix(0.996735, 0, 0, -0.996735, -52.583102, 282.275265)"/>
<path fill="none" stroke-width="0.4" stroke-linecap="butt" stroke-linejoin="round" stroke="rgb(0%, 0%, 0%)" stroke-opacity="1" stroke-miterlimit="10" d="M 219.001333 57.000452 L 174.998275 39.999626 " transform="matrix(0.996735, 0, 0, -0.996735, -52.583102, 282.275265)"/>
<path fill="none" stroke-width="0.4" stroke-linecap="butt" stroke-linejoin="round" stroke="rgb(0%, 0%, 0%)" stroke-opacity="1" stroke-miterlimit="10" d="M 219.001333 57.000452 L 244.000934 39.999626 " transform="matrix(0.996735, 0, 0, -0.996735, -52.583102, 282.275265)"/>
<path fill="none" stroke-width="0.4" stroke-linecap="butt" stroke-linejoin="round" stroke="rgb(0%, 0%, 0%)" stroke-opacity="1" stroke-miterlimit="10" d="M 219.001333 57.000452 L 256.001055 73.00192 " transform="matrix(0.996735, 0, 0, -0.996735, -52.583102, 282.275265)"/>
<path fill="none" stroke-width="0.4" stroke-linecap="butt" stroke-linejoin="round" stroke="rgb(0%, 0%, 0%)" stroke-opacity="1" stroke-miterlimit="10" d="M 219.001333 57.000452 L 227.999465 89.998827 " transform="matrix(0.996735, 0, 0, -0.996735, -52.583102, 282.275265)"/>
<path fill="none" stroke-width="0.4" stroke-linecap="butt" stroke-linejoin="round" stroke="rgb(0%, 0%, 0%)" stroke-opacity="1" stroke-miterlimit="10" d="M 219.001333 57.000452 L 195.00109 82.000052 " transform="matrix(0.996735, 0, 0, -0.996735, -52.583102, 282.275265)"/>
<path fill="none" stroke-width="0.4" stroke-linecap="butt" stroke-linejoin="round" stroke="rgb(0%, 0%, 0%)" stroke-opacity="1" stroke-miterlimit="10" d="M 244.000934 39.999626 L 219.001333 57.000452 " transform="matrix(0.996735, 0, 0, -0.996735, -52.583102, 282.275265)"/>
<path fill="none" stroke-width="0.4" stroke-linecap="butt" stroke-linejoin="round" stroke="rgb(0%, 0%, 0%)" stroke-opacity="1" stroke-miterlimit="10" d="M 244.000934 39.999626 L 174.998275 39.999626 " transform="matrix(0.996735, 0, 0, -0.996735, -52.583102, 282.275265)"/>
<path fill="none" stroke-width="0.4" stroke-linecap="butt" stroke-linejoin="round" stroke="rgb(0%, 0%, 0%)" stroke-opacity="1" stroke-miterlimit="10" d="M 174.998275 39.999626 L 195.00109 82.000052 " transform="matrix(0.996735, 0, 0, -0.996735, -52.583102, 282.275265)"/>
<path fill="none" stroke-width="0.4" stroke-linecap="butt" stroke-linejoin="round" stroke="rgb(0%, 0%, 0%)" stroke-opacity="1" stroke-miterlimit="10" d="M 174.998275 39.999626 L 161.998796 81.000695 " transform="matrix(0.996735, 0, 0, -0.996735, -52.583102, 282.275265)"/>
<path fill="none" stroke-width="0.4" stroke-linecap="butt" stroke-linejoin="round" stroke="rgb(0%, 0%, 0%)" stroke-opacity="1" stroke-miterlimit="10" d="M 174.998275 39.999626 L 152.001308 57.000452 " transform="matrix(0.996735, 0, 0, -0.996735, -52.583102, 282.275265)"/>
<path fill="none" stroke-width="0.4" stroke-linecap="butt" stroke-linejoin="round" stroke="rgb(0%, 0%, 0%)" stroke-opacity="1" stroke-miterlimit="10" d="M 174.998275 39.999626 L 244.000934 39.999626 " transform="matrix(0.996735, 0, 0, -0.996735, -52.583102, 282.275265)"/>
<path fill="none" stroke-width="0.4" stroke-linecap="butt" stroke-linejoin="round" stroke="rgb(0%, 0%, 0%)" stroke-opacity="1" stroke-miterlimit="10" d="M 140.001186 117.00106 L 196.000447 106.999652 " transform="matrix(0.996735, 0, 0, -0.996735, -52.583102, 282.275265)"/>
<path fill="none" stroke-width="0.4" stroke-linecap="butt" stroke-linejoin="round" stroke="rgb(0%, 0%, 0%)" stroke-opacity="1" stroke-miterlimit="10" d="M 140.001186 117.00106 L 109.001525 157.998209 " transform="matrix(0.996735, 0, 0, -0.996735, -52.583102, 282.275265)"/>
<path fill="none" stroke-width="0.4" stroke-linecap="butt" stroke-linejoin="round" stroke="rgb(0%, 0%, 0%)" stroke-opacity="1" stroke-miterlimit="10" d="M 140.001186 117.00106 L 105.000179 114.998427 " transform="matrix(0.996735, 0, 0, -0.996735, -52.583102, 282.275265)"/>
<path fill="none" stroke-width="0.4" stroke-linecap="butt" stroke-linejoin="round" stroke="rgb(0%, 0%, 0%)" stroke-opacity="1" stroke-miterlimit="10" d="M 140.001186 117.00106 L 116.000943 81.000695 " transform="matrix(0.996735, 0, 0, -0.996735, -52.583102, 282.275265)"/>
<path fill="none" stroke-width="0.4" stroke-linecap="butt" stroke-linejoin="round" stroke="rgb(0%, 0%, 0%)" stroke-opacity="1" stroke-miterlimit="10" d="M 140.001186 117.00106 L 161.998796 81.000695 " transform="matrix(0.996735, 0, 0, -0.996735, -52.583102, 282.275265)"/>
<path fill="none" stroke-width="0.4" stroke-linecap="butt" stroke-linejoin="round" stroke="rgb(0%, 0%, 0%)" stroke-opacity="1" stroke-miterlimit="10" d="M 109.001525 157.998209 L 119.998371 203.000624 " transform="matrix(0.996735, 0, 0, -0.996735, -52.583102, 282.275265)"/>
<path fill="none" stroke-width="0.4" stroke-linecap="butt" stroke-linejoin="round" stroke="rgb(0%, 0%, 0%)" stroke-opacity="1" stroke-miterlimit="10" d="M 109.001525 157.998209 L 87.999353 195.00185 " transform="matrix(0.996735, 0, 0, -0.996735, -52.583102, 282.275265)"/>
<path fill="none" stroke-width="0.4" stroke-linecap="butt" stroke-linejoin="round" stroke="rgb(0%, 0%, 0%)" stroke-opacity="1" stroke-miterlimit="10" d="M 109.001525 157.998209 L 80.999935 161.999556 " transform="matrix(0.996735, 0, 0, -0.996735, -52.583102, 282.275265)"/>
<path fill="none" stroke-width="0.4" stroke-linecap="butt" stroke-linejoin="round" stroke="rgb(0%, 0%, 0%)" stroke-opacity="1" stroke-miterlimit="10" d="M 109.001525 157.998209 L 99.999475 137.999313 " transform="matrix(0.996735, 0, 0, -0.996735, -52.583102, 282.275265)"/>
<path fill="none" stroke-width="0.4" stroke-linecap="butt" stroke-linejoin="round" stroke="rgb(0%, 0%, 0%)" stroke-opacity="1" stroke-miterlimit="10" d="M 109.001525 157.998209 L 105.000179 114.998427 " transform="matrix(0.996735, 0, 0, -0.996735, -52.583102, 282.275265)"/>
<path fill="none" stroke-width="0.4" stroke-linecap="butt" stroke-linejoin="round" stroke="rgb(0%, 0%, 0%)" stroke-opacity="1" stroke-miterlimit="10" d="M 109.001525 157.998209 L 140.001186 117.00106 " transform="matrix(0.996735, 0, 0, -0.996735, -52.583102, 282.275265)"/>
<path fill="none" stroke-width="0.4" stroke-linecap="butt" stroke-linejoin="round" stroke="rgb(0%, 0%, 0%)" stroke-opacity="1" stroke-miterlimit="10" d="M 109.001525 157.998209 L 134.001125 187.998513 " transform="matrix(0.996735, 0, 0, -0.996735, -52.583102, 282.275265)"/>
<path fill="none" stroke-width="0.4" stroke-linecap="butt" stroke-linejoin="round" stroke="rgb(0%, 0%, 0%)" stroke-opacity="1" stroke-miterlimit="10" d="M 229.998179 283.000129 L 203.999222 270.00065 " transform="matrix(0.996735, 0, 0, -0.996735, -52.583102, 282.275265)"/>
<path fill="none" stroke-width="0.4" stroke-linecap="butt" stroke-linejoin="round" stroke="rgb(0%, 0%, 0%)" stroke-opacity="1" stroke-miterlimit="10" d="M 203.999222 270.00065 L 229.998179 283.000129 " transform="matrix(0.996735, 0, 0, -0.996735, -52.583102, 282.275265)"/>
<path fill="none" stroke-width="0.4" stroke-linecap="butt" stroke-linejoin="round" stroke="rgb(0%, 0%, 0%)" stroke-opacity="1" stroke-miterlimit="10" d="M 203.999222 270.00065 L 184.000326 264.999946 " transform="matrix(0.996735, 0, 0, -0.996735, -52.583102, 282.275265)"/>
<path fill="none" stroke-width="0.4" stroke-linecap="butt" stroke-linejoin="round" stroke="rgb(0%, 0%, 0%)" stroke-opacity="1" stroke-miterlimit="10" d="M 184.000326 264.999946 L 203.999222 270.00065 " transform="matrix(0.996735, 0, 0, -0.996735, -52.583102, 282.275265)"/>
<path fill="none" stroke-width="0.4" stroke-linecap="butt" stroke-linejoin="round" stroke="rgb(0%, 0%, 0%)" stroke-opacity="1" stroke-miterlimit="10" d="M 184.000326 264.999946 L 149.998675 252.999825 " transform="matrix(0.996735, 0, 0, -0.996735, -52.583102, 282.275265)"/>
<path fill="none" stroke-width="0.4" stroke-linecap="butt" stroke-linejoin="round" stroke="rgb(0%, 0%, 0%)" stroke-opacity="1" stroke-miterlimit="10" d="M 184.000326 264.999946 L 192.998457 230.998295 " transform="matrix(0.996735, 0, 0, -0.996735, -52.583102, 282.275265)"/>
<path fill="none" stroke-width="0.4" stroke-linecap="butt" stroke-linejoin="round" stroke="rgb(0%, 0%, 0%)" stroke-opacity="1" stroke-miterlimit="10" d="M 149.998675 252.999825 L 184.000326 264.999946 " transform="matrix(0.996735, 0, 0, -0.996735, -52.583102, 282.275265)"/>
<path fill="none" stroke-width="0.4" stroke-linecap="butt" stroke-linejoin="round" stroke="rgb(0%, 0%, 0%)" stroke-opacity="1" stroke-miterlimit="10" d="M 149.998675 252.999825 L 118.999014 269.001293 " transform="matrix(0.996735, 0, 0, -0.996735, -52.583102, 282.275265)"/>
<path fill="none" stroke-width="0.4" stroke-linecap="butt" stroke-linejoin="round" stroke="rgb(0%, 0%, 0%)" stroke-opacity="1" stroke-miterlimit="10" d="M 149.998675 252.999825 L 118.999014 240.000346 " transform="matrix(0.996735, 0, 0, -0.996735, -52.583102, 282.275265)"/>
<path fill="none" stroke-width="0.4" stroke-linecap="butt" stroke-linejoin="round" stroke="rgb(0%, 0%, 0%)" stroke-opacity="1" stroke-miterlimit="10" d="M 149.998675 252.999825 L 137.998553 215.000746 " transform="matrix(0.996735, 0, 0, -0.996735, -52.583102, 282.275265)"/>
<path fill="none" stroke-width="0.4" stroke-linecap="butt" stroke-linejoin="round" stroke="rgb(0%, 0%, 0%)" stroke-opacity="1" stroke-miterlimit="10" d="M 118.999014 269.001293 L 95.998128 252.999825 " transform="matrix(0.996735, 0, 0, -0.996735, -52.583102, 282.275265)"/>
<path fill="none" stroke-width="0.4" stroke-linecap="butt" stroke-linejoin="round" stroke="rgb(0%, 0%, 0%)" stroke-opacity="1" stroke-miterlimit="10" d="M 118.999014 269.001293 L 118.999014 240.000346 " transform="matrix(0.996735, 0, 0, -0.996735, -52.583102, 282.275265)"/>
<path fill="none" stroke-width="0.4" stroke-linecap="butt" stroke-linejoin="round" stroke="rgb(0%, 0%, 0%)" stroke-opacity="1" stroke-miterlimit="10" d="M 118.999014 240.000346 L 119.998371 203.000624 " transform="matrix(0.996735, 0, 0, -0.996735, -52.583102, 282.275265)"/>
<path fill="none" stroke-width="0.4" stroke-linecap="butt" stroke-linejoin="round" stroke="rgb(0%, 0%, 0%)" stroke-opacity="1" stroke-miterlimit="10" d="M 118.999014 240.000346 L 137.998553 215.000746 " transform="matrix(0.996735, 0, 0, -0.996735, -52.583102, 282.275265)"/>
<path fill="none" stroke-width="0.4" stroke-linecap="butt" stroke-linejoin="round" stroke="rgb(0%, 0%, 0%)" stroke-opacity="1" stroke-miterlimit="10" d="M 118.999014 240.000346 L 118.999014 269.001293 " transform="matrix(0.996735, 0, 0, -0.996735, -52.583102, 282.275265)"/>
<path fill="none" stroke-width="0.4" stroke-linecap="butt" stroke-linejoin="round" stroke="rgb(0%, 0%, 0%)" stroke-opacity="1" stroke-miterlimit="10" d="M 118.999014 240.000346 L 95.998128 252.999825 " transform="matrix(0.996735, 0, 0, -0.996735, -52.583102, 282.275265)"/>
<path fill="none" stroke-width="0.4" stroke-linecap="butt" stroke-linejoin="round" stroke="rgb(0%, 0%, 0%)" stroke-opacity="1" stroke-miterlimit="10" d="M 118.999014 240.000346 L 91.001343 222.000164 " transform="matrix(0.996735, 0, 0, -0.996735, -52.583102, 282.275265)"/>
<path fill="none" stroke-width="0.4" stroke-linecap="butt" stroke-linejoin="round" stroke="rgb(0%, 0%, 0%)" stroke-opacity="1" stroke-miterlimit="10" d="M 95.998128 252.999825 L 74.999875 266.99866 " transform="matrix(0.996735, 0, 0, -0.996735, -52.583102, 282.275265)"/>
<path fill="none" stroke-width="0.4" stroke-linecap="butt" stroke-linejoin="round" stroke="rgb(0%, 0%, 0%)" stroke-opacity="1" stroke-miterlimit="10" d="M 95.998128 252.999825 L 91.001343 222.000164 " transform="matrix(0.996735, 0, 0, -0.996735, -52.583102, 282.275265)"/>
<path fill="none" stroke-width="0.4" stroke-linecap="butt" stroke-linejoin="round" stroke="rgb(0%, 0%, 0%)" stroke-opacity="1" stroke-miterlimit="10" d="M 91.001343 222.000164 L 95.998128 252.999825 " transform="matrix(0.996735, 0, 0, -0.996735, -52.583102, 282.275265)"/>
<path fill="none" stroke-width="0.4" stroke-linecap="butt" stroke-linejoin="round" stroke="rgb(0%, 0%, 0%)" stroke-opacity="1" stroke-miterlimit="10" d="M 91.001343 222.000164 L 74.999875 266.99866 " transform="matrix(0.996735, 0, 0, -0.996735, -52.583102, 282.275265)"/>
<path fill="none" stroke-width="0.4" stroke-linecap="butt" stroke-linejoin="round" stroke="rgb(0%, 0%, 0%)" stroke-opacity="1" stroke-miterlimit="10" d="M 91.001343 222.000164 L 87.999353 195.00185 " transform="matrix(0.996735, 0, 0, -0.996735, -52.583102, 282.275265)"/>
<path fill="none" stroke-width="0.4" stroke-linecap="butt" stroke-linejoin="round" stroke="rgb(0%, 0%, 0%)" stroke-opacity="1" stroke-miterlimit="10" d="M 91.001343 222.000164 L 119.998371 203.000624 " transform="matrix(0.996735, 0, 0, -0.996735, -52.583102, 282.275265)"/>
<path fill="none" stroke-width="0.4" stroke-linecap="butt" stroke-linejoin="round" stroke="rgb(0%, 0%, 0%)" stroke-opacity="1" stroke-miterlimit="10" d="M 87.999353 195.00185 L 119.998371 203.000624 " transform="matrix(0.996735, 0, 0, -0.996735, -52.583102, 282.275265)"/>
<path fill="none" stroke-width="0.4" stroke-linecap="butt" stroke-linejoin="round" stroke="rgb(0%, 0%, 0%)" stroke-opacity="1" stroke-miterlimit="10" d="M 87.999353 195.00185 L 91.001343 222.000164 " transform="matrix(0.996735, 0, 0, -0.996735, -52.583102, 282.275265)"/>
<path fill="none" stroke-width="0.4" stroke-linecap="butt" stroke-linejoin="round" stroke="rgb(0%, 0%, 0%)" stroke-opacity="1" stroke-miterlimit="10" d="M 87.999353 195.00185 L 80.999935 161.999556 " transform="matrix(0.996735, 0, 0, -0.996735, -52.583102, 282.275265)"/>
<path fill="none" stroke-width="0.4" stroke-linecap="butt" stroke-linejoin="round" stroke="rgb(0%, 0%, 0%)" stroke-opacity="1" stroke-miterlimit="10" d="M 80.999935 161.999556 L 87.999353 195.00185 " transform="matrix(0.996735, 0, 0, -0.996735, -52.583102, 282.275265)"/>
<path fill="none" stroke-width="0.4" stroke-linecap="butt" stroke-linejoin="round" stroke="rgb(0%, 0%, 0%)" stroke-opacity="1" stroke-miterlimit="10" d="M 80.999935 161.999556 L 84.001925 92.001459 " transform="matrix(0.996735, 0, 0, -0.996735, -52.583102, 282.275265)"/>
<path fill="none" stroke-width="0.4" stroke-linecap="butt" stroke-linejoin="round" stroke="rgb(0%, 0%, 0%)" stroke-opacity="1" stroke-miterlimit="10" d="M 80.999935 161.999556 L 99.999475 137.999313 " transform="matrix(0.996735, 0, 0, -0.996735, -52.583102, 282.275265)"/>
<path fill="none" stroke-width="0.4" stroke-linecap="butt" stroke-linejoin="round" stroke="rgb(0%, 0%, 0%)" stroke-opacity="1" stroke-miterlimit="10" d="M 99.999475 137.999313 L 105.000179 114.998427 " transform="matrix(0.996735, 0, 0, -0.996735, -52.583102, 282.275265)"/>
<path fill="none" stroke-width="0.4" stroke-linecap="butt" stroke-linejoin="round" stroke="rgb(0%, 0%, 0%)" stroke-opacity="1" stroke-miterlimit="10" d="M 99.999475 137.999313 L 80.999935 161.999556 " transform="matrix(0.996735, 0, 0, -0.996735, -52.583102, 282.275265)"/>
<path fill="none" stroke-width="0.4" stroke-linecap="butt" stroke-linejoin="round" stroke="rgb(0%, 0%, 0%)" stroke-opacity="1" stroke-miterlimit="10" d="M 99.999475 137.999313 L 84.001925 92.001459 " transform="matrix(0.996735, 0, 0, -0.996735, -52.583102, 282.275265)"/>
<path fill="none" stroke-width="0.4" stroke-linecap="butt" stroke-linejoin="round" stroke="rgb(0%, 0%, 0%)" stroke-opacity="1" stroke-miterlimit="10" d="M 105.000179 114.998427 L 99.999475 137.999313 " transform="matrix(0.996735, 0, 0, -0.996735, -52.583102, 282.275265)"/>
<path fill="none" stroke-width="0.4" stroke-linecap="butt" stroke-linejoin="round" stroke="rgb(0%, 0%, 0%)" stroke-opacity="1" stroke-miterlimit="10" d="M 105.000179 114.998427 L 84.001925 92.001459 " transform="matrix(0.996735, 0, 0, -0.996735, -52.583102, 282.275265)"/>
<path fill="none" stroke-width="0.4" stroke-linecap="butt" stroke-linejoin="round" stroke="rgb(0%, 0%, 0%)" stroke-opacity="1" stroke-miterlimit="10" d="M 105.000179 114.998427 L 116.000943 81.000695 " transform="matrix(0.996735, 0, 0, -0.996735, -52.583102, 282.275265)"/>
<path fill="none" stroke-width="0.4" stroke-linecap="butt" stroke-linejoin="round" stroke="rgb(0%, 0%, 0%)" stroke-opacity="1" stroke-miterlimit="10" d="M 84.001925 92.001459 L 116.000943 81.000695 " transform="matrix(0.996735, 0, 0, -0.996735, -52.583102, 282.275265)"/>
<path fill="none" stroke-width="0.4" stroke-linecap="butt" stroke-linejoin="round" stroke="rgb(0%, 0%, 0%)" stroke-opacity="1" stroke-miterlimit="10" d="M 84.001925 92.001459 L 105.000179 114.998427 " transform="matrix(0.996735, 0, 0, -0.996735, -52.583102, 282.275265)"/>
<path fill="none" stroke-width="0.4" stroke-linecap="butt" stroke-linejoin="round" stroke="rgb(0%, 0%, 0%)" stroke-opacity="1" stroke-miterlimit="10" d="M 116.000943 81.000695 L 161.998796 81.000695 " transform="matrix(0.996735, 0, 0, -0.996735, -52.583102, 282.275265)"/>
<path fill="none" stroke-width="0.4" stroke-linecap="butt" stroke-linejoin="round" stroke="rgb(0%, 0%, 0%)" stroke-opacity="1" stroke-miterlimit="10" d="M 116.000943 81.000695 L 84.001925 92.001459 " transform="matrix(0.996735, 0, 0, -0.996735, -52.583102, 282.275265)"/>
<path fill="none" stroke-width="0.4" stroke-linecap="butt" stroke-linejoin="round" stroke="rgb(0%, 0%, 0%)" stroke-opacity="1" stroke-miterlimit="10" d="M 116.000943 81.000695 L 152.001308 57.000452 " transform="matrix(0.996735, 0, 0, -0.996735, -52.583102, 282.275265)"/>
<path fill="none" stroke-width="0.4" stroke-linecap="butt" stroke-linejoin="round" stroke="rgb(0%, 0%, 0%)" stroke-opacity="1" stroke-miterlimit="10" d="M 196.000447 106.999652 L 161.998796 81.000695 " transform="matrix(0.996735, 0, 0, -0.996735, -52.583102, 282.275265)"/>
<path fill="none" stroke-width="0.4" stroke-linecap="butt" stroke-linejoin="round" stroke="rgb(0%, 0%, 0%)" stroke-opacity="1" stroke-miterlimit="10" d="M 196.000447 106.999652 L 195.00109 82.000052 " transform="matrix(0.996735, 0, 0, -0.996735, -52.583102, 282.275265)"/>
<path fill="none" stroke-width="0.4" stroke-linecap="butt" stroke-linejoin="round" stroke="rgb(0%, 0%, 0%)" stroke-opacity="1" stroke-miterlimit="10" d="M 196.000447 106.999652 L 227.999465 89.998827 " transform="matrix(0.996735, 0, 0, -0.996735, -52.583102, 282.275265)"/>
<path fill="none" stroke-width="0.4" stroke-linecap="butt" stroke-linejoin="round" stroke="rgb(0%, 0%, 0%)" stroke-opacity="1" stroke-miterlimit="10" d="M 195.00109 82.000052 L 196.000447 106.999652 " transform="matrix(0.996735, 0, 0, -0.996735, -52.583102, 282.275265)"/>
<path fill="none" stroke-width="0.4" stroke-linecap="butt" stroke-linejoin="round" stroke="rgb(0%, 0%, 0%)" stroke-opacity="1" stroke-miterlimit="10" d="M 195.00109 82.000052 L 161.998796 81.000695 " transform="matrix(0.996735, 0, 0, -0.996735, -52.583102, 282.275265)"/>
<path fill="none" stroke-width="0.4" stroke-linecap="butt" stroke-linejoin="round" stroke="rgb(0%, 0%, 0%)" stroke-opacity="1" stroke-miterlimit="10" d="M 195.00109 82.000052 L 227.999465 89.998827 " transform="matrix(0.996735, 0, 0, -0.996735, -52.583102, 282.275265)"/>
<path fill="none" stroke-width="0.4" stroke-linecap="butt" stroke-linejoin="round" stroke="rgb(0%, 0%, 0%)" stroke-opacity="1" stroke-miterlimit="10" d="M 161.998796 81.000695 L 152.001308 57.000452 " transform="matrix(0.996735, 0, 0, -0.996735, -52.583102, 282.275265)"/>
<path fill="none" stroke-width="0.4" stroke-linecap="butt" stroke-linejoin="round" stroke="rgb(0%, 0%, 0%)" stroke-opacity="1" stroke-miterlimit="10" d="M 161.998796 81.000695 L 195.00109 82.000052 " transform="matrix(0.996735, 0, 0, -0.996735, -52.583102, 282.275265)"/>
<path fill="none" stroke-width="0.4" stroke-linecap="butt" stroke-linejoin="round" stroke="rgb(0%, 0%, 0%)" stroke-opacity="1" stroke-miterlimit="10" d="M 152.001308 57.000452 L 161.998796 81.000695 " transform="matrix(0.996735, 0, 0, -0.996735, -52.583102, 282.275265)"/>
<path fill="none" stroke-width="0.4" stroke-linecap="butt" stroke-linejoin="round" stroke="rgb(0%, 0%, 0%)" stroke-opacity="1" stroke-miterlimit="10" d="M 137.998553 215.000746 L 119.998371 203.000624 " transform="matrix(0.996735, 0, 0, -0.996735, -52.583102, 282.275265)"/>
<path fill="none" stroke-width="0.4" stroke-linecap="butt" stroke-linejoin="round" stroke="rgb(0%, 0%, 0%)" stroke-opacity="1" stroke-miterlimit="10" d="M 137.998553 215.000746 L 134.001125 187.998513 " transform="matrix(0.996735, 0, 0, -0.996735, -52.583102, 282.275265)"/>
<path fill="none" stroke-width="0.4" stroke-linecap="butt" stroke-linejoin="round" stroke="rgb(0%, 0%, 0%)" stroke-opacity="1" stroke-miterlimit="10" d="M 137.998553 215.000746 L 174.998275 197.999921 " transform="matrix(0.996735, 0, 0, -0.996735, -52.583102, 282.275265)"/>
<path fill="none" stroke-width="0.4" stroke-linecap="butt" stroke-linejoin="round" stroke="rgb(0%, 0%, 0%)" stroke-opacity="1" stroke-miterlimit="10" d="M 119.998371 203.000624 L 134.001125 187.998513 " transform="matrix(0.996735, 0, 0, -0.996735, -52.583102, 282.275265)"/>
<path fill="none" stroke-width="0.4" stroke-linecap="butt" stroke-linejoin="round" stroke="rgb(0%, 0%, 0%)" stroke-opacity="1" stroke-miterlimit="10" d="M 119.998371 203.000624 L 137.998553 215.000746 " transform="matrix(0.996735, 0, 0, -0.996735, -52.583102, 282.275265)"/>
<path fill="none" stroke-width="0.4" stroke-linecap="butt" stroke-linejoin="round" stroke="rgb(0%, 0%, 0%)" stroke-opacity="1" stroke-miterlimit="10" d="M 134.001125 187.998513 L 174.998275 197.999921 " transform="matrix(0.996735, 0, 0, -0.996735, -52.583102, 282.275265)"/>
<path fill="none" stroke-width="0.4" stroke-linecap="butt" stroke-linejoin="round" stroke="rgb(0%, 0%, 0%)" stroke-opacity="1" stroke-miterlimit="10" d="M 134.001125 187.998513 L 119.998371 203.000624 " transform="matrix(0.996735, 0, 0, -0.996735, -52.583102, 282.275265)"/>
<path fill="none" stroke-width="0.4" stroke-linecap="butt" stroke-linejoin="round" stroke="rgb(0%, 0%, 0%)" stroke-opacity="1" stroke-miterlimit="10" d="M 174.998275 197.999921 L 192.998457 230.998295 " transform="matrix(0.996735, 0, 0, -0.996735, -52.583102, 282.275265)"/>
<path fill="none" stroke-width="0.4" stroke-linecap="butt" stroke-linejoin="round" stroke="rgb(0%, 0%, 0%)" stroke-opacity="1" stroke-miterlimit="10" d="M 174.998275 197.999921 L 134.001125 187.998513 " transform="matrix(0.996735, 0, 0, -0.996735, -52.583102, 282.275265)"/>
<path fill="none" stroke-width="0.4" stroke-linecap="butt" stroke-linejoin="round" stroke="rgb(0%, 0%, 0%)" stroke-opacity="1" stroke-miterlimit="10" d="M 192.998457 230.998295 L 174.998275 197.999921 " transform="matrix(0.996735, 0, 0, -0.996735, -52.583102, 282.275265)"/>
<g clip-path="url(#clip-8)">
<path fill="none" stroke-width="0.4" stroke-linecap="butt" stroke-linejoin="round" stroke="rgb(0%, 0%, 0%)" stroke-opacity="1" stroke-miterlimit="10" d="M 52.998345 209.000685 L 87.999353 195.00185 " transform="matrix(0.996735, 0, 0, -0.996735, -52.583102, 282.275265)"/>
</g>
<g clip-path="url(#clip-9)">
<path fill="none" stroke-width="0.4" stroke-linecap="butt" stroke-linejoin="round" stroke="rgb(0%, 0%, 0%)" stroke-opacity="1" stroke-miterlimit="10" d="M 52.998345 209.000685 L 91.001343 222.000164 " transform="matrix(0.996735, 0, 0, -0.996735, -52.583102, 282.275265)"/>
</g>
<g clip-path="url(#clip-10)">
<path fill="none" stroke-width="0.4" stroke-linecap="butt" stroke-linejoin="round" stroke="rgb(0%, 0%, 0%)" stroke-opacity="1" stroke-miterlimit="10" d="M 52.998345 209.000685 L 74.999875 266.99866 " transform="matrix(0.996735, 0, 0, -0.996735, -52.583102, 282.275265)"/>
</g>
<path fill="none" stroke-width="0.4" stroke-linecap="butt" stroke-linejoin="round" stroke="rgb(0%, 0%, 0%)" stroke-opacity="1" stroke-miterlimit="10" d="M 219.001333 57.000452 L 227.999465 89.998827 " transform="matrix(0.996735, 0, 0, -0.996735, -52.583102, 282.275265)"/>
<path fill="none" stroke-width="0.4" stroke-linecap="butt" stroke-linejoin="round" stroke="rgb(0%, 0%, 0%)" stroke-opacity="1" stroke-miterlimit="10" d="M 140.001186 117.00106 L 105.000179 114.998427 " transform="matrix(0.996735, 0, 0, -0.996735, -52.583102, 282.275265)"/>
<path fill="none" stroke-width="0.4" stroke-linecap="butt" stroke-linejoin="round" stroke="rgb(0%, 0%, 0%)" stroke-opacity="1" stroke-miterlimit="10" d="M 140.001186 117.00106 L 116.000943 81.000695 " transform="matrix(0.996735, 0, 0, -0.996735, -52.583102, 282.275265)"/>
<path fill="none" stroke-width="0.4" stroke-linecap="butt" stroke-linejoin="round" stroke="rgb(0%, 0%, 0%)" stroke-opacity="1" stroke-miterlimit="10" d="M 140.001186 117.00106 L 161.998796 81.000695 " transform="matrix(0.996735, 0, 0, -0.996735, -52.583102, 282.275265)"/>
<path fill="none" stroke-width="0.4" stroke-linecap="butt" stroke-linejoin="round" stroke="rgb(0%, 0%, 0%)" stroke-opacity="1" stroke-miterlimit="10" d="M 109.001525 157.998209 L 80.999935 161.999556 " transform="matrix(0.996735, 0, 0, -0.996735, -52.583102, 282.275265)"/>
<path fill="none" stroke-width="0.4" stroke-linecap="butt" stroke-linejoin="round" stroke="rgb(0%, 0%, 0%)" stroke-opacity="1" stroke-miterlimit="10" d="M 109.001525 157.998209 L 99.999475 137.999313 " transform="matrix(0.996735, 0, 0, -0.996735, -52.583102, 282.275265)"/>
<path fill="none" stroke-width="0.4" stroke-linecap="butt" stroke-linejoin="round" stroke="rgb(0%, 0%, 0%)" stroke-opacity="1" stroke-miterlimit="10" d="M 109.001525 157.998209 L 105.000179 114.998427 " transform="matrix(0.996735, 0, 0, -0.996735, -52.583102, 282.275265)"/>
<path fill="none" stroke-width="0.4" stroke-linecap="butt" stroke-linejoin="round" stroke="rgb(0%, 0%, 0%)" stroke-opacity="1" stroke-miterlimit="10" d="M 80.999935 161.999556 L 87.999353 195.00185 " transform="matrix(0.996735, 0, 0, -0.996735, -52.583102, 282.275265)"/>
<path fill="none" stroke-width="0.4" stroke-linecap="butt" stroke-linejoin="round" stroke="rgb(0%, 0%, 0%)" stroke-opacity="1" stroke-miterlimit="10" d="M 196.000447 106.999652 L 161.998796 81.000695 " transform="matrix(0.996735, 0, 0, -0.996735, -52.583102, 282.275265)"/>
<path fill="none" stroke-width="0.4" stroke-linecap="butt" stroke-linejoin="round" stroke="rgb(0%, 0%, 0%)" stroke-opacity="1" stroke-miterlimit="10" d="M 195.00109 82.000052 L 196.000447 106.999652 " transform="matrix(0.996735, 0, 0, -0.996735, -52.583102, 282.275265)"/>
<path fill="none" stroke-width="0.4" stroke-linecap="butt" stroke-linejoin="round" stroke="rgb(0%, 0%, 0%)" stroke-opacity="1" stroke-miterlimit="10" d="M 195.00109 82.000052 L 227.999465 89.998827 " transform="matrix(0.996735, 0, 0, -0.996735, -52.583102, 282.275265)"/>
<path fill-rule="evenodd" fill="rgb(0%, 39.199829%, 0%)" fill-opacity="1" d="M 71.011719 43.058594 C 71.011719 40.308594 68.78125 38.074219 66.027344 38.074219 C 63.277344 38.074219 61.042969 40.308594 61.042969 43.058594 C 61.042969 45.8125 63.277344 48.042969 66.027344 48.042969 C 68.78125 48.042969 71.011719 45.8125 71.011719 43.058594 "/>
<path fill-rule="evenodd" fill="rgb(0%, 0%, 0%)" fill-opacity="1" d="M 72.007812 43.058594 C 72.007812 39.753906 69.332031 37.078125 66.027344 37.078125 C 62.726562 37.078125 60.046875 39.753906 60.046875 43.058594 C 60.046875 46.363281 62.726562 49.039062 66.027344 49.039062 C 69.332031 49.039062 72.007812 46.363281 72.007812 43.058594 M 70.015625 43.058594 C 70.015625 40.855469 68.230469 39.070312 66.027344 39.070312 C 63.828125 39.070312 62.042969 40.855469 62.042969 43.058594 C 62.042969 45.261719 63.828125 47.046875 66.027344 47.046875 C 68.230469 47.046875 70.015625 45.261719 70.015625 43.058594 "/>
<path fill-rule="evenodd" fill="rgb(0%, 39.199829%, 0%)" fill-opacity="1" d="M 166.699219 42.0625 C 166.699219 39.308594 164.46875 37.078125 161.714844 37.078125 C 158.960938 37.078125 156.730469 39.308594 156.730469 42.0625 C 156.730469 44.8125 158.960938 47.046875 161.714844 47.046875 C 164.46875 47.046875 166.699219 44.8125 166.699219 42.0625 "/>
<path fill-rule="evenodd" fill="rgb(0%, 0%, 0%)" fill-opacity="1" d="M 167.695312 42.0625 C 167.695312 38.757812 165.019531 36.082031 161.714844 36.082031 C 158.410156 36.082031 155.734375 38.757812 155.734375 42.0625 C 155.734375 45.367188 158.410156 48.042969 161.714844 48.042969 C 165.019531 48.042969 167.695312 45.367188 167.695312 42.0625 M 165.703125 42.0625 C 165.703125 39.859375 163.917969 38.074219 161.714844 38.074219 C 159.511719 38.074219 157.726562 39.859375 157.726562 42.0625 C 157.726562 44.265625 159.511719 46.050781 161.714844 46.050781 C 163.917969 46.050781 165.703125 44.265625 165.703125 42.0625 "/>
<path fill-rule="evenodd" fill="rgb(0%, 0%, 54.499817%)" fill-opacity="1" d="M 126.828125 84.921875 C 126.828125 82.167969 124.597656 79.9375 121.84375 79.9375 C 119.09375 79.9375 116.863281 82.167969 116.863281 84.921875 C 116.863281 87.671875 119.09375 89.90625 121.84375 89.90625 C 124.597656 89.90625 126.828125 87.671875 126.828125 84.921875 "/>
<path fill-rule="evenodd" fill="rgb(0%, 0%, 0%)" fill-opacity="1" d="M 127.824219 84.921875 C 127.824219 81.617188 125.148438 78.941406 121.84375 78.941406 C 118.542969 78.941406 115.863281 81.617188 115.863281 84.921875 C 115.863281 88.226562 118.542969 90.902344 121.84375 90.902344 C 125.148438 90.902344 127.824219 88.226562 127.824219 84.921875 M 125.832031 84.921875 C 125.832031 82.71875 124.046875 80.933594 121.84375 80.933594 C 119.644531 80.933594 117.859375 82.71875 117.859375 84.921875 C 117.859375 87.125 119.644531 88.910156 121.84375 88.910156 C 124.046875 88.910156 125.832031 87.125 125.832031 84.921875 "/>
<path fill-rule="evenodd" fill="rgb(0%, 39.199829%, 0%)" fill-opacity="1" d="M 61.042969 124.792969 C 61.042969 122.039062 58.8125 119.808594 56.0625 119.808594 C 53.308594 119.808594 51.078125 122.039062 51.078125 124.792969 C 51.078125 127.542969 53.308594 129.773438 56.0625 129.773438 C 58.8125 129.773438 61.042969 127.542969 61.042969 124.792969 "/>
<path fill-rule="evenodd" fill="rgb(0%, 0%, 0%)" fill-opacity="1" d="M 62.042969 124.792969 C 62.042969 121.488281 59.363281 118.8125 56.0625 118.8125 C 52.757812 118.8125 50.082031 121.488281 50.082031 124.792969 C 50.082031 128.09375 52.757812 130.773438 56.0625 130.773438 C 59.363281 130.773438 62.042969 128.09375 62.042969 124.792969 M 60.046875 124.792969 C 60.046875 122.589844 58.261719 120.804688 56.0625 120.804688 C 53.859375 120.804688 52.074219 122.589844 52.074219 124.792969 C 52.074219 126.992188 53.859375 128.777344 56.0625 128.777344 C 58.261719 128.777344 60.046875 126.992188 60.046875 124.792969 "/>
<path fill-rule="evenodd" fill="rgb(0%, 39.199829%, 0%)" fill-opacity="1" d="M 146.765625 200.542969 C 146.765625 197.789062 144.53125 195.558594 141.78125 195.558594 C 139.027344 195.558594 136.796875 197.789062 136.796875 200.542969 C 136.796875 203.296875 139.027344 205.527344 141.78125 205.527344 C 144.53125 205.527344 146.765625 203.296875 146.765625 200.542969 "/>
<path fill-rule="evenodd" fill="rgb(0%, 0%, 0%)" fill-opacity="1" d="M 147.761719 200.542969 C 147.761719 197.238281 145.082031 194.5625 141.78125 194.5625 C 138.476562 194.5625 135.800781 197.238281 135.800781 200.542969 C 135.800781 203.847656 138.476562 206.523438 141.78125 206.523438 C 145.082031 206.523438 147.761719 203.847656 147.761719 200.542969 M 145.765625 200.542969 C 145.765625 198.339844 143.980469 196.554688 141.78125 196.554688 C 139.578125 196.554688 137.792969 198.339844 137.792969 200.542969 C 137.792969 202.746094 139.578125 204.53125 141.78125 204.53125 C 143.980469 204.53125 145.765625 202.746094 145.765625 200.542969 "/>
</svg>
