<?xml version="1.0" encoding="UTF-8"?>
<svg xmlns="http://www.w3.org/2000/svg" xmlns:xlink="http://www.w3.org/1999/xlink" width="217.7" height="245" viewBox="0 0 217.7 245">
<defs>
<clipPath id="clip-0">
<path clip-rule="nonzero" d="M 150 87 L 217.402344 87 L 217.402344 166 L 150 166 Z M 150 87 "/>
</clipPath>
<clipPath id="clip-1">
<path clip-rule="nonzero" d="M 156 0.167969 L 196 0.167969 L 196 64 L 156 64 Z M 156 0.167969 "/>
</clipPath>
<clipPath id="clip-2">
<path clip-rule="nonzero" d="M 71 222 L 130 222 L 130 244.832031 L 71 244.832031 Z M 71 222 "/>
</clipPath>
<clipPath id="clip-3">
<path clip-rule="nonzero" d="M 127 192 L 211 192 L 211 244.832031 L 127 244.832031 Z M 127 192 "/>
</clipPath>
<clipPath id="clip-4">
<path clip-rule="nonzero" d="M 72 223 L 129 223 L 129 244.832031 L 72 244.832031 Z M 72 223 "/>
</clipPath>
<clipPath id="clip-5">
<path clip-rule="nonzero" d="M 183 0.167969 L 194 0.167969 L 194 41 L 183 41 Z M 183 0.167969 "/>
</clipPath>
<clipPath id="clip-6">
<path clip-rule="nonzero" d="M 197 210 L 210 210 L 210 244.832031 L 197 244.832031 Z M 197 210 "/>
</clipPath>
<clipPath id="clip-7">
<path clip-rule="nonzero" d="M 128 226 L 173 226 L 173 244.832031 L 128 244.832031 Z M 128 226 "/>
</clipPath>
<clipPath id="clip-8">
<path clip-rule="nonzero" d="M 172 226 L 198 226 L 198 244.832031 L 172 244.832031 Z M 172 226 "/>
</clipPath>
<clipPath id="clip-9">
<path clip-rule="nonzero" d="M 172 226 L 198 226 L 198 244.832031 L 172 244.832031 Z M 172 226 "/>
</clipPath>
<clipPath id="clip-10">
<path clip-rule="nonzero" d="M 128 243 L 198 243 L 198 244.832031 L 128 244.832031 Z M 128 243 "/>
</clipPath>
<clipPath id="clip-11">
<path clip-rule="nonzero" d="M 128 201 L 149 201 L 149 244.832031 L 128 244.832031 Z M 128 201 "/>
</clipPath>
<clipPath id="clip-12">
<path clip-rule="nonzero" d="M 115 202 L 129 202 L 129 244.832031 L 115 244.832031 Z M 115 202 "/>
</clipPath>
<clipPath id="clip-13">
<path clip-rule="nonzero" d="M 105 226 L 129 226 L 129 244.832031 L 105 244.832031 Z M 105 226 "/>
</clipPath>
<clipPath id="clip-14">
<path clip-rule="nonzero" d="M 128 243 L 198 243 L 198 244.832031 L 128 244.832031 Z M 128 243 "/>
</clipPath>
<clipPath id="clip-15">
<path clip-rule="nonzero" d="M 157 0.167969 L 184 0.167969 L 184 15 L 157 15 Z M 157 0.167969 "/>
</clipPath>
</defs>
<path fill-rule="evenodd" fill="rgb(0%, 0%, 100%)" fill-opacity="0.2" d="M 216.402344 106.023438 L 199.425781 88.046875 L 169.464844 119.003906 L 151.492188 156.953125 L 189.4375 164.941406 Z M 216.402344 106.023438 "/>
<path fill-rule="evenodd" fill="rgb(52.89917%, 80.799866%, 92.199707%)" fill-opacity="0.2" d="M 183.445312 1.167969 L 157.484375 14.148438 L 168.46875 43.109375 L 194.433594 62.082031 L 193.433594 40.113281 Z M 183.445312 1.167969 "/>
<path fill-rule="evenodd" fill="rgb(52.89917%, 80.799866%, 92.199707%)" fill-opacity="0.2" d="M 72.601562 223.859375 L 105.554688 226.855469 L 128.523438 243.832031 Z M 72.601562 223.859375 "/>
<path fill-rule="evenodd" fill="rgb(52.89917%, 80.799866%, 92.199707%)" fill-opacity="0.2" d="M 115.539062 202.890625 L 148.496094 201.890625 L 149.492188 176.925781 Z M 115.539062 202.890625 "/>
<path fill-rule="evenodd" fill="rgb(56.498718%, 93.299866%, 56.498718%)" fill-opacity="0.2" d="M 69.605469 202.890625 L 115.539062 202.890625 L 93.570312 166.9375 L 58.621094 168.9375 Z M 69.605469 202.890625 "/>
<path fill-rule="evenodd" fill="rgb(52.89917%, 80.799866%, 92.199707%)" fill-opacity="0.2" d="M 87.578125 96.035156 L 128.523438 86.050781 L 169.464844 119.003906 L 151.492188 156.953125 L 93.570312 166.9375 L 62.613281 125.996094 Z M 87.578125 96.035156 "/>
<path fill-rule="evenodd" fill="rgb(52.89917%, 80.799866%, 92.199707%)" fill-opacity="0.2" d="M 103.558594 31.125 L 91.574219 69.074219 L 128.523438 86.050781 L 146.5 53.09375 L 137.511719 19.140625 Z M 103.558594 31.125 "/>
<path fill-rule="evenodd" fill="rgb(56.498718%, 93.299866%, 56.498718%)" fill-opacity="0.2" d="M 199.425781 88.046875 L 167.46875 63.082031 L 168.46875 43.109375 L 146.5 53.09375 L 128.523438 86.050781 L 169.464844 119.003906 Z M 199.425781 88.046875 "/>
<path fill-rule="evenodd" fill="rgb(52.89917%, 80.799866%, 92.199707%)" fill-opacity="0.2" d="M 197.429688 243.832031 L 209.410156 210.878906 L 181.449219 193.902344 L 148.496094 201.890625 L 128.523438 243.832031 Z M 197.429688 243.832031 "/>
<path fill-rule="evenodd" fill="rgb(0%, 0%, 100%)" fill-opacity="0.2" d="M 34.652344 122 L 62.613281 125.996094 L 93.570312 166.9375 L 58.621094 168.9375 L 37.648438 191.90625 Z M 34.652344 122 "/>
<path fill-rule="evenodd" fill="rgb(52.89917%, 80.799866%, 92.199707%)" fill-opacity="0.2" d="M 72.601562 44.109375 L 72.601562 15.148438 L 49.632812 31.125 Z M 72.601562 44.109375 "/>
<path fill-rule="evenodd" fill="rgb(52.89917%, 80.799866%, 92.199707%)" fill-opacity="0.2" d="M 28.660156 17.144531 L 44.636719 62.082031 L 41.644531 89.046875 L 34.652344 122 L 37.648438 191.90625 L 6.691406 75.066406 Z M 28.660156 17.144531 "/>
<g clip-path="url(#clip-0)">
<path fill="none" stroke-width="2" stroke-linecap="butt" stroke-linejoin="round" stroke="rgb(0%, 0%, 100%)" stroke-opacity="0.4" stroke-miterlimit="10" d="M 263.000556 177.999268 L 246.000599 196.000603 L 215.998374 165.000912 L 198.00095 126.999397 L 235.998553 119.000108 Z M 263.000556 177.999268 " transform="matrix(0.998624, 0, 0, -0.998624, -46.236284, 283.777752)"/>
</g>
<g clip-path="url(#clip-1)">
<path fill="none" stroke-width="2" stroke-linecap="butt" stroke-linejoin="round" stroke="rgb(0%, 0%, 0%)" stroke-opacity="0.4" stroke-miterlimit="10" d="M 229.998108 282.999232 L 204.001395 270.000876 L 215.000907 241.000029 L 241.001532 222.001227 L 240.000154 244.000251 Z M 229.998108 282.999232 " transform="matrix(0.998624, 0, 0, -0.998624, -46.236284, 283.777752)"/>
</g>
<g clip-path="url(#clip-2)">
<path fill="none" stroke-width="2" stroke-linecap="butt" stroke-linejoin="round" stroke="rgb(67.799377%, 84.698486%, 90.19928%)" stroke-opacity="0.4" stroke-miterlimit="10" d="M 119.001611 60.000947 L 152.000146 57.000725 L 175.000548 40.000768 Z M 119.001611 60.000947 " transform="matrix(0.998624, 0, 0, -0.998624, -46.236284, 283.777752)"/>
</g>
<path fill="none" stroke-width="2" stroke-linecap="butt" stroke-linejoin="round" stroke="rgb(67.799377%, 84.698486%, 90.19928%)" stroke-opacity="0.4" stroke-miterlimit="10" d="M 161.99828 80.998593 L 195.000728 81.999971 L 195.998194 106.999218 Z M 161.99828 80.998593 " transform="matrix(0.998624, 0, 0, -0.998624, -46.236284, 283.777752)"/>
<path fill="none" stroke-width="2" stroke-linecap="butt" stroke-linejoin="round" stroke="rgb(0%, 0%, 0%)" stroke-opacity="0.4" stroke-miterlimit="10" d="M 116.001388 80.998593 L 161.99828 80.998593 L 139.999256 117.001263 L 105.001876 114.998507 Z M 116.001388 80.998593 " transform="matrix(0.998624, 0, 0, -0.998624, -46.236284, 283.777752)"/>
<path fill="none" stroke-width="2" stroke-linecap="butt" stroke-linejoin="round" stroke="rgb(0%, 0%, 0%)" stroke-opacity="0.4" stroke-miterlimit="10" d="M 133.998811 188.001313 L 175.000548 197.999447 L 215.998374 165.000912 L 198.00095 126.999397 L 139.999256 117.001263 L 108.999565 157.999088 Z M 133.998811 188.001313 " transform="matrix(0.998624, 0, 0, -0.998624, -46.236284, 283.777752)"/>
<path fill="none" stroke-width="2" stroke-linecap="butt" stroke-linejoin="round" stroke="rgb(67.799377%, 84.698486%, 90.19928%)" stroke-opacity="0.4" stroke-miterlimit="10" d="M 150.001302 253.000919 L 138.000412 214.999404 L 175.000548 197.999447 L 193.001883 231.001895 L 184.001216 265.001809 Z M 150.001302 253.000919 " transform="matrix(0.998624, 0, 0, -0.998624, -46.236284, 283.777752)"/>
<path fill="none" stroke-width="2" stroke-linecap="butt" stroke-linejoin="round" stroke="rgb(0%, 100%, 0%)" stroke-opacity="0.4" stroke-miterlimit="10" d="M 246.000599 196.000603 L 213.999529 220.999849 L 215.000907 241.000029 L 193.001883 231.001895 L 175.000548 197.999447 L 215.998374 165.000912 Z M 246.000599 196.000603 " transform="matrix(0.998624, 0, 0, -0.998624, -46.236284, 283.777752)"/>
<g clip-path="url(#clip-3)">
<path fill="none" stroke-width="2" stroke-linecap="butt" stroke-linejoin="round" stroke="rgb(0%, 0%, 0%)" stroke-opacity="0.4" stroke-miterlimit="10" d="M 244.001754 40.000768 L 255.998732 72.999304 L 227.999264 89.999261 L 195.000728 81.999971 L 175.000548 40.000768 Z M 244.001754 40.000768 " transform="matrix(0.998624, 0, 0, -0.998624, -46.236284, 283.777752)"/>
</g>
<path fill="none" stroke-width="2" stroke-linecap="butt" stroke-linejoin="round" stroke="rgb(0%, 0%, 100%)" stroke-opacity="0.4" stroke-miterlimit="10" d="M 81.000096 162.000689 L 108.999565 157.999088 L 139.999256 117.001263 L 105.001876 114.998507 L 84.000319 91.998105 Z M 81.000096 162.000689 " transform="matrix(0.998624, 0, 0, -0.998624, -46.236284, 283.777752)"/>
<path fill="none" stroke-width="2" stroke-linecap="butt" stroke-linejoin="round" stroke="rgb(0%, 0%, 0%)" stroke-opacity="0.4" stroke-miterlimit="10" d="M 119.001611 239.998651 L 119.001611 268.999498 L 96.001209 253.000919 Z M 119.001611 239.998651 " transform="matrix(0.998624, 0, 0, -0.998624, -46.236284, 283.777752)"/>
<path fill="none" stroke-width="2" stroke-linecap="butt" stroke-linejoin="round" stroke="rgb(0%, 0%, 0%)" stroke-opacity="0.4" stroke-miterlimit="10" d="M 74.999651 267.000653 L 90.99823 222.001227 L 88.001919 194.999225 L 81.000096 162.000689 L 84.000319 91.998105 L 53.000627 208.998959 Z M 74.999651 267.000653 " transform="matrix(0.998624, 0, 0, -0.998624, -46.236284, 283.777752)"/>
<path fill="none" stroke-width="0.4" stroke-linecap="butt" stroke-linejoin="round" stroke="rgb(0%, 0%, 0%)" stroke-opacity="1" stroke-miterlimit="10" d="M 169.000103 219.998471 L 138.000412 214.999404 " transform="matrix(0.998624, 0, 0, -0.998624, -46.236284, 283.777752)"/>
<path fill="none" stroke-width="0.4" stroke-linecap="butt" stroke-linejoin="round" stroke="rgb(0%, 0%, 0%)" stroke-opacity="1" stroke-miterlimit="10" d="M 119.001611 60.000947 L 84.000319 91.998105 " transform="matrix(0.998624, 0, 0, -0.998624, -46.236284, 283.777752)"/>
<g clip-path="url(#clip-4)">
<path fill="none" stroke-width="0.4" stroke-linecap="butt" stroke-linejoin="round" stroke="rgb(0%, 0%, 0%)" stroke-opacity="1" stroke-miterlimit="10" d="M 119.001611 60.000947 L 175.000548 40.000768 " transform="matrix(0.998624, 0, 0, -0.998624, -46.236284, 283.777752)"/>
</g>
<path fill="none" stroke-width="0.4" stroke-linecap="butt" stroke-linejoin="round" stroke="rgb(0%, 0%, 0%)" stroke-opacity="1" stroke-miterlimit="10" d="M 119.001611 60.000947 L 152.000146 57.000725 " transform="matrix(0.998624, 0, 0, -0.998624, -46.236284, 283.777752)"/>
<path fill="none" stroke-width="0.4" stroke-linecap="butt" stroke-linejoin="round" stroke="rgb(0%, 0%, 0%)" stroke-opacity="1" stroke-miterlimit="10" d="M 119.001611 60.000947 L 116.001388 80.998593 " transform="matrix(0.998624, 0, 0, -0.998624, -46.236284, 283.777752)"/>
<path fill="none" stroke-width="0.4" stroke-linecap="butt" stroke-linejoin="round" stroke="rgb(0%, 0%, 0%)" stroke-opacity="1" stroke-miterlimit="10" d="M 53.000627 208.998959 L 81.000096 162.000689 " transform="matrix(0.998624, 0, 0, -0.998624, -46.236284, 283.777752)"/>
<path fill="none" stroke-width="0.4" stroke-linecap="butt" stroke-linejoin="round" stroke="rgb(0%, 0%, 0%)" stroke-opacity="1" stroke-miterlimit="10" d="M 53.000627 208.998959 L 88.001919 194.999225 " transform="matrix(0.998624, 0, 0, -0.998624, -46.236284, 283.777752)"/>
<path fill="none" stroke-width="0.4" stroke-linecap="butt" stroke-linejoin="round" stroke="rgb(0%, 0%, 0%)" stroke-opacity="1" stroke-miterlimit="10" d="M 53.000627 208.998959 L 90.99823 222.001227 " transform="matrix(0.998624, 0, 0, -0.998624, -46.236284, 283.777752)"/>
<path fill="none" stroke-width="0.4" stroke-linecap="butt" stroke-linejoin="round" stroke="rgb(0%, 0%, 0%)" stroke-opacity="1" stroke-miterlimit="10" d="M 53.000627 208.998959 L 74.999651 267.000653 " transform="matrix(0.998624, 0, 0, -0.998624, -46.236284, 283.777752)"/>
<path fill="none" stroke-width="0.4" stroke-linecap="butt" stroke-linejoin="round" stroke="rgb(0%, 0%, 0%)" stroke-opacity="1" stroke-miterlimit="10" d="M 53.000627 208.998959 L 84.000319 91.998105 " transform="matrix(0.998624, 0, 0, -0.998624, -46.236284, 283.777752)"/>
<path fill="none" stroke-width="0.4" stroke-linecap="butt" stroke-linejoin="round" stroke="rgb(0%, 0%, 0%)" stroke-opacity="1" stroke-miterlimit="10" d="M 215.000907 241.000029 L 184.001216 265.001809 " transform="matrix(0.998624, 0, 0, -0.998624, -46.236284, 283.777752)"/>
<path fill="none" stroke-width="0.4" stroke-linecap="butt" stroke-linejoin="round" stroke="rgb(0%, 0%, 0%)" stroke-opacity="1" stroke-miterlimit="10" d="M 215.000907 241.000029 L 193.001883 231.001895 " transform="matrix(0.998624, 0, 0, -0.998624, -46.236284, 283.777752)"/>
<path fill="none" stroke-width="0.4" stroke-linecap="butt" stroke-linejoin="round" stroke="rgb(0%, 0%, 0%)" stroke-opacity="1" stroke-miterlimit="10" d="M 215.000907 241.000029 L 213.999529 220.999849 " transform="matrix(0.998624, 0, 0, -0.998624, -46.236284, 283.777752)"/>
<path fill="none" stroke-width="0.4" stroke-linecap="butt" stroke-linejoin="round" stroke="rgb(0%, 0%, 0%)" stroke-opacity="1" stroke-miterlimit="10" d="M 215.000907 241.000029 L 241.001532 222.001227 " transform="matrix(0.998624, 0, 0, -0.998624, -46.236284, 283.777752)"/>
<path fill="none" stroke-width="0.4" stroke-linecap="butt" stroke-linejoin="round" stroke="rgb(0%, 0%, 0%)" stroke-opacity="1" stroke-miterlimit="10" d="M 215.000907 241.000029 L 240.000154 244.000251 " transform="matrix(0.998624, 0, 0, -0.998624, -46.236284, 283.777752)"/>
<path fill="none" stroke-width="0.4" stroke-linecap="butt" stroke-linejoin="round" stroke="rgb(0%, 0%, 0%)" stroke-opacity="1" stroke-miterlimit="10" d="M 215.000907 241.000029 L 204.001395 270.000876 " transform="matrix(0.998624, 0, 0, -0.998624, -46.236284, 283.777752)"/>
<path fill="none" stroke-width="0.4" stroke-linecap="butt" stroke-linejoin="round" stroke="rgb(0%, 0%, 0%)" stroke-opacity="1" stroke-miterlimit="10" d="M 263.000556 177.999268 L 246.000599 196.000603 " transform="matrix(0.998624, 0, 0, -0.998624, -46.236284, 283.777752)"/>
<path fill="none" stroke-width="0.4" stroke-linecap="butt" stroke-linejoin="round" stroke="rgb(0%, 0%, 0%)" stroke-opacity="1" stroke-miterlimit="10" d="M 263.000556 177.999268 L 238.001309 153.000022 " transform="matrix(0.998624, 0, 0, -0.998624, -46.236284, 283.777752)"/>
<path fill="none" stroke-width="0.4" stroke-linecap="butt" stroke-linejoin="round" stroke="rgb(0%, 0%, 0%)" stroke-opacity="1" stroke-miterlimit="10" d="M 215.998374 165.000912 L 175.000548 197.999447 " transform="matrix(0.998624, 0, 0, -0.998624, -46.236284, 283.777752)"/>
<path fill="none" stroke-width="0.4" stroke-linecap="butt" stroke-linejoin="round" stroke="rgb(0%, 0%, 0%)" stroke-opacity="1" stroke-miterlimit="10" d="M 215.998374 165.000912 L 161.99828 177.001802 " transform="matrix(0.998624, 0, 0, -0.998624, -46.236284, 283.777752)"/>
<path fill="none" stroke-width="0.4" stroke-linecap="butt" stroke-linejoin="round" stroke="rgb(0%, 0%, 0%)" stroke-opacity="1" stroke-miterlimit="10" d="M 215.998374 165.000912 L 198.00095 126.999397 " transform="matrix(0.998624, 0, 0, -0.998624, -46.236284, 283.777752)"/>
<path fill="none" stroke-width="0.4" stroke-linecap="butt" stroke-linejoin="round" stroke="rgb(0%, 0%, 0%)" stroke-opacity="1" stroke-miterlimit="10" d="M 215.998374 165.000912 L 238.001309 153.000022 " transform="matrix(0.998624, 0, 0, -0.998624, -46.236284, 283.777752)"/>
<path fill="none" stroke-width="0.4" stroke-linecap="butt" stroke-linejoin="round" stroke="rgb(0%, 0%, 0%)" stroke-opacity="1" stroke-miterlimit="10" d="M 215.998374 165.000912 L 246.000599 196.000603 " transform="matrix(0.998624, 0, 0, -0.998624, -46.236284, 283.777752)"/>
<path fill="none" stroke-width="0.4" stroke-linecap="butt" stroke-linejoin="round" stroke="rgb(0%, 0%, 0%)" stroke-opacity="1" stroke-miterlimit="10" d="M 215.998374 165.000912 L 213.999529 220.999849 " transform="matrix(0.998624, 0, 0, -0.998624, -46.236284, 283.777752)"/>
<path fill="none" stroke-width="0.4" stroke-linecap="butt" stroke-linejoin="round" stroke="rgb(0%, 0%, 0%)" stroke-opacity="1" stroke-miterlimit="10" d="M 213.999529 220.999849 L 246.000599 196.000603 " transform="matrix(0.998624, 0, 0, -0.998624, -46.236284, 283.777752)"/>
<path fill="none" stroke-width="0.4" stroke-linecap="butt" stroke-linejoin="round" stroke="rgb(0%, 0%, 0%)" stroke-opacity="1" stroke-miterlimit="10" d="M 213.999529 220.999849 L 241.001532 222.001227 " transform="matrix(0.998624, 0, 0, -0.998624, -46.236284, 283.777752)"/>
<path fill="none" stroke-width="0.4" stroke-linecap="butt" stroke-linejoin="round" stroke="rgb(0%, 0%, 0%)" stroke-opacity="1" stroke-miterlimit="10" d="M 213.999529 220.999849 L 193.001883 231.001895 " transform="matrix(0.998624, 0, 0, -0.998624, -46.236284, 283.777752)"/>
<path fill="none" stroke-width="0.4" stroke-linecap="butt" stroke-linejoin="round" stroke="rgb(0%, 0%, 0%)" stroke-opacity="1" stroke-miterlimit="10" d="M 213.999529 220.999849 L 175.000548 197.999447 " transform="matrix(0.998624, 0, 0, -0.998624, -46.236284, 283.777752)"/>
<path fill="none" stroke-width="0.4" stroke-linecap="butt" stroke-linejoin="round" stroke="rgb(0%, 0%, 0%)" stroke-opacity="1" stroke-miterlimit="10" d="M 213.999529 220.999849 L 215.998374 165.000912 " transform="matrix(0.998624, 0, 0, -0.998624, -46.236284, 283.777752)"/>
<g clip-path="url(#clip-5)">
<path fill="none" stroke-width="0.4" stroke-linecap="butt" stroke-linejoin="round" stroke="rgb(0%, 0%, 0%)" stroke-opacity="1" stroke-miterlimit="10" d="M 240.000154 244.000251 L 229.998108 282.999232 " transform="matrix(0.998624, 0, 0, -0.998624, -46.236284, 283.777752)"/>
</g>
<path fill="none" stroke-width="0.4" stroke-linecap="butt" stroke-linejoin="round" stroke="rgb(0%, 0%, 0%)" stroke-opacity="1" stroke-miterlimit="10" d="M 240.000154 244.000251 L 204.001395 270.000876 " transform="matrix(0.998624, 0, 0, -0.998624, -46.236284, 283.777752)"/>
<path fill="none" stroke-width="0.4" stroke-linecap="butt" stroke-linejoin="round" stroke="rgb(0%, 0%, 0%)" stroke-opacity="1" stroke-miterlimit="10" d="M 240.000154 244.000251 L 241.001532 222.001227 " transform="matrix(0.998624, 0, 0, -0.998624, -46.236284, 283.777752)"/>
<path fill="none" stroke-width="0.4" stroke-linecap="butt" stroke-linejoin="round" stroke="rgb(0%, 0%, 0%)" stroke-opacity="1" stroke-miterlimit="10" d="M 241.001532 222.001227 L 240.000154 244.000251 " transform="matrix(0.998624, 0, 0, -0.998624, -46.236284, 283.777752)"/>
<path fill="none" stroke-width="0.4" stroke-linecap="butt" stroke-linejoin="round" stroke="rgb(0%, 0%, 0%)" stroke-opacity="1" stroke-miterlimit="10" d="M 241.001532 222.001227 L 246.000599 196.000603 " transform="matrix(0.998624, 0, 0, -0.998624, -46.236284, 283.777752)"/>
<path fill="none" stroke-width="0.4" stroke-linecap="butt" stroke-linejoin="round" stroke="rgb(0%, 0%, 0%)" stroke-opacity="1" stroke-miterlimit="10" d="M 246.000599 196.000603 L 238.001309 153.000022 " transform="matrix(0.998624, 0, 0, -0.998624, -46.236284, 283.777752)"/>
<path fill="none" stroke-width="0.4" stroke-linecap="butt" stroke-linejoin="round" stroke="rgb(0%, 0%, 0%)" stroke-opacity="1" stroke-miterlimit="10" d="M 246.000599 196.000603 L 241.001532 222.001227 " transform="matrix(0.998624, 0, 0, -0.998624, -46.236284, 283.777752)"/>
<path fill="none" stroke-width="0.4" stroke-linecap="butt" stroke-linejoin="round" stroke="rgb(0%, 0%, 0%)" stroke-opacity="1" stroke-miterlimit="10" d="M 169.000103 219.998471 L 175.000548 197.999447 " transform="matrix(0.998624, 0, 0, -0.998624, -46.236284, 283.777752)"/>
<path fill="none" stroke-width="0.4" stroke-linecap="butt" stroke-linejoin="round" stroke="rgb(0%, 0%, 0%)" stroke-opacity="1" stroke-miterlimit="10" d="M 169.000103 219.998471 L 193.001883 231.001895 " transform="matrix(0.998624, 0, 0, -0.998624, -46.236284, 283.777752)"/>
<path fill="none" stroke-width="0.4" stroke-linecap="butt" stroke-linejoin="round" stroke="rgb(0%, 0%, 0%)" stroke-opacity="1" stroke-miterlimit="10" d="M 169.000103 219.998471 L 184.001216 265.001809 " transform="matrix(0.998624, 0, 0, -0.998624, -46.236284, 283.777752)"/>
<path fill="none" stroke-width="0.4" stroke-linecap="butt" stroke-linejoin="round" stroke="rgb(0%, 0%, 0%)" stroke-opacity="1" stroke-miterlimit="10" d="M 169.000103 219.998471 L 150.001302 253.000919 " transform="matrix(0.998624, 0, 0, -0.998624, -46.236284, 283.777752)"/>
<path fill="none" stroke-width="0.4" stroke-linecap="butt" stroke-linejoin="round" stroke="rgb(0%, 0%, 0%)" stroke-opacity="1" stroke-miterlimit="10" d="M 161.99828 177.001802 L 139.999256 117.001263 " transform="matrix(0.998624, 0, 0, -0.998624, -46.236284, 283.777752)"/>
<path fill="none" stroke-width="0.4" stroke-linecap="butt" stroke-linejoin="round" stroke="rgb(0%, 0%, 0%)" stroke-opacity="1" stroke-miterlimit="10" d="M 161.99828 177.001802 L 198.00095 126.999397 " transform="matrix(0.998624, 0, 0, -0.998624, -46.236284, 283.777752)"/>
<path fill="none" stroke-width="0.4" stroke-linecap="butt" stroke-linejoin="round" stroke="rgb(0%, 0%, 0%)" stroke-opacity="1" stroke-miterlimit="10" d="M 161.99828 177.001802 L 175.000548 197.999447 " transform="matrix(0.998624, 0, 0, -0.998624, -46.236284, 283.777752)"/>
<path fill="none" stroke-width="0.4" stroke-linecap="butt" stroke-linejoin="round" stroke="rgb(0%, 0%, 0%)" stroke-opacity="1" stroke-miterlimit="10" d="M 161.99828 177.001802 L 133.998811 188.001313 " transform="matrix(0.998624, 0, 0, -0.998624, -46.236284, 283.777752)"/>
<path fill="none" stroke-width="0.4" stroke-linecap="butt" stroke-linejoin="round" stroke="rgb(0%, 0%, 0%)" stroke-opacity="1" stroke-miterlimit="10" d="M 161.99828 177.001802 L 108.999565 157.999088 " transform="matrix(0.998624, 0, 0, -0.998624, -46.236284, 283.777752)"/>
<path fill="none" stroke-width="0.4" stroke-linecap="butt" stroke-linejoin="round" stroke="rgb(0%, 0%, 0%)" stroke-opacity="1" stroke-miterlimit="10" d="M 198.00095 126.999397 L 161.99828 177.001802 " transform="matrix(0.998624, 0, 0, -0.998624, -46.236284, 283.777752)"/>
<path fill="none" stroke-width="0.4" stroke-linecap="butt" stroke-linejoin="round" stroke="rgb(0%, 0%, 0%)" stroke-opacity="1" stroke-miterlimit="10" d="M 198.00095 126.999397 L 139.999256 117.001263 " transform="matrix(0.998624, 0, 0, -0.998624, -46.236284, 283.777752)"/>
<path fill="none" stroke-width="0.4" stroke-linecap="butt" stroke-linejoin="round" stroke="rgb(0%, 0%, 0%)" stroke-opacity="1" stroke-miterlimit="10" d="M 198.00095 126.999397 L 195.998194 106.999218 " transform="matrix(0.998624, 0, 0, -0.998624, -46.236284, 283.777752)"/>
<path fill="none" stroke-width="0.4" stroke-linecap="butt" stroke-linejoin="round" stroke="rgb(0%, 0%, 0%)" stroke-opacity="1" stroke-miterlimit="10" d="M 198.00095 126.999397 L 235.998553 119.000108 " transform="matrix(0.998624, 0, 0, -0.998624, -46.236284, 283.777752)"/>
<path fill="none" stroke-width="0.4" stroke-linecap="butt" stroke-linejoin="round" stroke="rgb(0%, 0%, 0%)" stroke-opacity="1" stroke-miterlimit="10" d="M 198.00095 126.999397 L 238.001309 153.000022 " transform="matrix(0.998624, 0, 0, -0.998624, -46.236284, 283.777752)"/>
<path fill="none" stroke-width="0.4" stroke-linecap="butt" stroke-linejoin="round" stroke="rgb(0%, 0%, 0%)" stroke-opacity="1" stroke-miterlimit="10" d="M 235.998553 119.000108 L 198.00095 126.999397 " transform="matrix(0.998624, 0, 0, -0.998624, -46.236284, 283.777752)"/>
<path fill="none" stroke-width="0.4" stroke-linecap="butt" stroke-linejoin="round" stroke="rgb(0%, 0%, 0%)" stroke-opacity="1" stroke-miterlimit="10" d="M 235.998553 119.000108 L 195.998194 106.999218 " transform="matrix(0.998624, 0, 0, -0.998624, -46.236284, 283.777752)"/>
<path fill="none" stroke-width="0.4" stroke-linecap="butt" stroke-linejoin="round" stroke="rgb(0%, 0%, 0%)" stroke-opacity="1" stroke-miterlimit="10" d="M 235.998553 119.000108 L 227.999264 89.999261 " transform="matrix(0.998624, 0, 0, -0.998624, -46.236284, 283.777752)"/>
<path fill="none" stroke-width="0.4" stroke-linecap="butt" stroke-linejoin="round" stroke="rgb(0%, 0%, 0%)" stroke-opacity="1" stroke-miterlimit="10" d="M 235.998553 119.000108 L 238.001309 153.000022 " transform="matrix(0.998624, 0, 0, -0.998624, -46.236284, 283.777752)"/>
<path fill="none" stroke-width="0.4" stroke-linecap="butt" stroke-linejoin="round" stroke="rgb(0%, 0%, 0%)" stroke-opacity="1" stroke-miterlimit="10" d="M 255.998732 72.999304 L 218.998596 57.000725 " transform="matrix(0.998624, 0, 0, -0.998624, -46.236284, 283.777752)"/>
<g clip-path="url(#clip-6)">
<path fill="none" stroke-width="0.4" stroke-linecap="butt" stroke-linejoin="round" stroke="rgb(0%, 0%, 0%)" stroke-opacity="1" stroke-miterlimit="10" d="M 255.998732 72.999304 L 244.001754 40.000768 " transform="matrix(0.998624, 0, 0, -0.998624, -46.236284, 283.777752)"/>
</g>
<path fill="none" stroke-width="0.4" stroke-linecap="butt" stroke-linejoin="round" stroke="rgb(0%, 0%, 0%)" stroke-opacity="1" stroke-miterlimit="10" d="M 255.998732 72.999304 L 227.999264 89.999261 " transform="matrix(0.998624, 0, 0, -0.998624, -46.236284, 283.777752)"/>
<g clip-path="url(#clip-7)">
<path fill="none" stroke-width="0.4" stroke-linecap="butt" stroke-linejoin="round" stroke="rgb(0%, 0%, 0%)" stroke-opacity="1" stroke-miterlimit="10" d="M 218.998596 57.000725 L 175.000548 40.000768 " transform="matrix(0.998624, 0, 0, -0.998624, -46.236284, 283.777752)"/>
</g>
<g clip-path="url(#clip-8)">
<path fill="none" stroke-width="0.4" stroke-linecap="butt" stroke-linejoin="round" stroke="rgb(0%, 0%, 0%)" stroke-opacity="1" stroke-miterlimit="10" d="M 218.998596 57.000725 L 244.001754 40.000768 " transform="matrix(0.998624, 0, 0, -0.998624, -46.236284, 283.777752)"/>
</g>
<path fill="none" stroke-width="0.4" stroke-linecap="butt" stroke-linejoin="round" stroke="rgb(0%, 0%, 0%)" stroke-opacity="1" stroke-miterlimit="10" d="M 218.998596 57.000725 L 255.998732 72.999304 " transform="matrix(0.998624, 0, 0, -0.998624, -46.236284, 283.777752)"/>
<path fill="none" stroke-width="0.4" stroke-linecap="butt" stroke-linejoin="round" stroke="rgb(0%, 0%, 0%)" stroke-opacity="1" stroke-miterlimit="10" d="M 218.998596 57.000725 L 227.999264 89.999261 " transform="matrix(0.998624, 0, 0, -0.998624, -46.236284, 283.777752)"/>
<path fill="none" stroke-width="0.4" stroke-linecap="butt" stroke-linejoin="round" stroke="rgb(0%, 0%, 0%)" stroke-opacity="1" stroke-miterlimit="10" d="M 218.998596 57.000725 L 195.000728 81.999971 " transform="matrix(0.998624, 0, 0, -0.998624, -46.236284, 283.777752)"/>
<g clip-path="url(#clip-9)">
<path fill="none" stroke-width="0.4" stroke-linecap="butt" stroke-linejoin="round" stroke="rgb(0%, 0%, 0%)" stroke-opacity="1" stroke-miterlimit="10" d="M 244.001754 40.000768 L 218.998596 57.000725 " transform="matrix(0.998624, 0, 0, -0.998624, -46.236284, 283.777752)"/>
</g>
<g clip-path="url(#clip-10)">
<path fill="none" stroke-width="0.4" stroke-linecap="butt" stroke-linejoin="round" stroke="rgb(0%, 0%, 0%)" stroke-opacity="1" stroke-miterlimit="10" d="M 244.001754 40.000768 L 175.000548 40.000768 " transform="matrix(0.998624, 0, 0, -0.998624, -46.236284, 283.777752)"/>
</g>
<g clip-path="url(#clip-11)">
<path fill="none" stroke-width="0.4" stroke-linecap="butt" stroke-linejoin="round" stroke="rgb(0%, 0%, 0%)" stroke-opacity="1" stroke-miterlimit="10" d="M 175.000548 40.000768 L 195.000728 81.999971 " transform="matrix(0.998624, 0, 0, -0.998624, -46.236284, 283.777752)"/>
</g>
<g clip-path="url(#clip-12)">
<path fill="none" stroke-width="0.4" stroke-linecap="butt" stroke-linejoin="round" stroke="rgb(0%, 0%, 0%)" stroke-opacity="1" stroke-miterlimit="10" d="M 175.000548 40.000768 L 161.99828 80.998593 " transform="matrix(0.998624, 0, 0, -0.998624, -46.236284, 283.777752)"/>
</g>
<g clip-path="url(#clip-13)">
<path fill="none" stroke-width="0.4" stroke-linecap="butt" stroke-linejoin="round" stroke="rgb(0%, 0%, 0%)" stroke-opacity="1" stroke-miterlimit="10" d="M 175.000548 40.000768 L 152.000146 57.000725 " transform="matrix(0.998624, 0, 0, -0.998624, -46.236284, 283.777752)"/>
</g>
<g clip-path="url(#clip-14)">
<path fill="none" stroke-width="0.4" stroke-linecap="butt" stroke-linejoin="round" stroke="rgb(0%, 0%, 0%)" stroke-opacity="1" stroke-miterlimit="10" d="M 175.000548 40.000768 L 244.001754 40.000768 " transform="matrix(0.998624, 0, 0, -0.998624, -46.236284, 283.777752)"/>
</g>
<path fill="none" stroke-width="0.4" stroke-linecap="butt" stroke-linejoin="round" stroke="rgb(0%, 0%, 0%)" stroke-opacity="1" stroke-miterlimit="10" d="M 139.999256 117.001263 L 195.998194 106.999218 " transform="matrix(0.998624, 0, 0, -0.998624, -46.236284, 283.777752)"/>
<path fill="none" stroke-width="0.4" stroke-linecap="butt" stroke-linejoin="round" stroke="rgb(0%, 0%, 0%)" stroke-opacity="1" stroke-miterlimit="10" d="M 139.999256 117.001263 L 108.999565 157.999088 " transform="matrix(0.998624, 0, 0, -0.998624, -46.236284, 283.777752)"/>
<path fill="none" stroke-width="0.4" stroke-linecap="butt" stroke-linejoin="round" stroke="rgb(0%, 0%, 0%)" stroke-opacity="1" stroke-miterlimit="10" d="M 139.999256 117.001263 L 105.001876 114.998507 " transform="matrix(0.998624, 0, 0, -0.998624, -46.236284, 283.777752)"/>
<path fill="none" stroke-width="0.4" stroke-linecap="butt" stroke-linejoin="round" stroke="rgb(0%, 0%, 0%)" stroke-opacity="1" stroke-miterlimit="10" d="M 139.999256 117.001263 L 116.001388 80.998593 " transform="matrix(0.998624, 0, 0, -0.998624, -46.236284, 283.777752)"/>
<path fill="none" stroke-width="0.4" stroke-linecap="butt" stroke-linejoin="round" stroke="rgb(0%, 0%, 0%)" stroke-opacity="1" stroke-miterlimit="10" d="M 139.999256 117.001263 L 161.99828 80.998593 " transform="matrix(0.998624, 0, 0, -0.998624, -46.236284, 283.777752)"/>
<path fill="none" stroke-width="0.4" stroke-linecap="butt" stroke-linejoin="round" stroke="rgb(0%, 0%, 0%)" stroke-opacity="1" stroke-miterlimit="10" d="M 108.999565 157.999088 L 119.999077 202.998514 " transform="matrix(0.998624, 0, 0, -0.998624, -46.236284, 283.777752)"/>
<path fill="none" stroke-width="0.4" stroke-linecap="butt" stroke-linejoin="round" stroke="rgb(0%, 0%, 0%)" stroke-opacity="1" stroke-miterlimit="10" d="M 108.999565 157.999088 L 88.001919 194.999225 " transform="matrix(0.998624, 0, 0, -0.998624, -46.236284, 283.777752)"/>
<path fill="none" stroke-width="0.4" stroke-linecap="butt" stroke-linejoin="round" stroke="rgb(0%, 0%, 0%)" stroke-opacity="1" stroke-miterlimit="10" d="M 108.999565 157.999088 L 81.000096 162.000689 " transform="matrix(0.998624, 0, 0, -0.998624, -46.236284, 283.777752)"/>
<path fill="none" stroke-width="0.4" stroke-linecap="butt" stroke-linejoin="round" stroke="rgb(0%, 0%, 0%)" stroke-opacity="1" stroke-miterlimit="10" d="M 108.999565 157.999088 L 99.998898 137.998909 " transform="matrix(0.998624, 0, 0, -0.998624, -46.236284, 283.777752)"/>
<path fill="none" stroke-width="0.4" stroke-linecap="butt" stroke-linejoin="round" stroke="rgb(0%, 0%, 0%)" stroke-opacity="1" stroke-miterlimit="10" d="M 108.999565 157.999088 L 105.001876 114.998507 " transform="matrix(0.998624, 0, 0, -0.998624, -46.236284, 283.777752)"/>
<path fill="none" stroke-width="0.4" stroke-linecap="butt" stroke-linejoin="round" stroke="rgb(0%, 0%, 0%)" stroke-opacity="1" stroke-miterlimit="10" d="M 108.999565 157.999088 L 139.999256 117.001263 " transform="matrix(0.998624, 0, 0, -0.998624, -46.236284, 283.777752)"/>
<path fill="none" stroke-width="0.4" stroke-linecap="butt" stroke-linejoin="round" stroke="rgb(0%, 0%, 0%)" stroke-opacity="1" stroke-miterlimit="10" d="M 108.999565 157.999088 L 133.998811 188.001313 " transform="matrix(0.998624, 0, 0, -0.998624, -46.236284, 283.777752)"/>
<g clip-path="url(#clip-15)">
<path fill="none" stroke-width="0.4" stroke-linecap="butt" stroke-linejoin="round" stroke="rgb(0%, 0%, 0%)" stroke-opacity="1" stroke-miterlimit="10" d="M 229.998108 282.999232 L 204.001395 270.000876 " transform="matrix(0.998624, 0, 0, -0.998624, -46.236284, 283.777752)"/>
<path fill="none" stroke-width="0.4" stroke-linecap="butt" stroke-linejoin="round" stroke="rgb(0%, 0%, 0%)" stroke-opacity="1" stroke-miterlimit="10" d="M 204.001395 270.000876 L 229.998108 282.999232 " transform="matrix(0.998624, 0, 0, -0.998624, -46.236284, 283.777752)"/>
</g>
<path fill="none" stroke-width="0.4" stroke-linecap="butt" stroke-linejoin="round" stroke="rgb(0%, 0%, 0%)" stroke-opacity="1" stroke-miterlimit="10" d="M 204.001395 270.000876 L 184.001216 265.001809 " transform="matrix(0.998624, 0, 0, -0.998624, -46.236284, 283.777752)"/>
<path fill="none" stroke-width="0.4" stroke-linecap="butt" stroke-linejoin="round" stroke="rgb(0%, 0%, 0%)" stroke-opacity="1" stroke-miterlimit="10" d="M 184.001216 265.001809 L 204.001395 270.000876 " transform="matrix(0.998624, 0, 0, -0.998624, -46.236284, 283.777752)"/>
<path fill="none" stroke-width="0.4" stroke-linecap="butt" stroke-linejoin="round" stroke="rgb(0%, 0%, 0%)" stroke-opacity="1" stroke-miterlimit="10" d="M 184.001216 265.001809 L 150.001302 253.000919 " transform="matrix(0.998624, 0, 0, -0.998624, -46.236284, 283.777752)"/>
<path fill="none" stroke-width="0.4" stroke-linecap="butt" stroke-linejoin="round" stroke="rgb(0%, 0%, 0%)" stroke-opacity="1" stroke-miterlimit="10" d="M 184.001216 265.001809 L 193.001883 231.001895 " transform="matrix(0.998624, 0, 0, -0.998624, -46.236284, 283.777752)"/>
<path fill="none" stroke-width="0.4" stroke-linecap="butt" stroke-linejoin="round" stroke="rgb(0%, 0%, 0%)" stroke-opacity="1" stroke-miterlimit="10" d="M 150.001302 253.000919 L 184.001216 265.001809 " transform="matrix(0.998624, 0, 0, -0.998624, -46.236284, 283.777752)"/>
<path fill="none" stroke-width="0.4" stroke-linecap="butt" stroke-linejoin="round" stroke="rgb(0%, 0%, 0%)" stroke-opacity="1" stroke-miterlimit="10" d="M 150.001302 253.000919 L 119.001611 268.999498 " transform="matrix(0.998624, 0, 0, -0.998624, -46.236284, 283.777752)"/>
<path fill="none" stroke-width="0.4" stroke-linecap="butt" stroke-linejoin="round" stroke="rgb(0%, 0%, 0%)" stroke-opacity="1" stroke-miterlimit="10" d="M 150.001302 253.000919 L 119.001611 239.998651 " transform="matrix(0.998624, 0, 0, -0.998624, -46.236284, 283.777752)"/>
<path fill="none" stroke-width="0.4" stroke-linecap="butt" stroke-linejoin="round" stroke="rgb(0%, 0%, 0%)" stroke-opacity="1" stroke-miterlimit="10" d="M 150.001302 253.000919 L 138.000412 214.999404 " transform="matrix(0.998624, 0, 0, -0.998624, -46.236284, 283.777752)"/>
<path fill="none" stroke-width="0.4" stroke-linecap="butt" stroke-linejoin="round" stroke="rgb(0%, 0%, 0%)" stroke-opacity="1" stroke-miterlimit="10" d="M 119.001611 268.999498 L 96.001209 253.000919 " transform="matrix(0.998624, 0, 0, -0.998624, -46.236284, 283.777752)"/>
<path fill="none" stroke-width="0.4" stroke-linecap="butt" stroke-linejoin="round" stroke="rgb(0%, 0%, 0%)" stroke-opacity="1" stroke-miterlimit="10" d="M 119.001611 268.999498 L 119.001611 239.998651 " transform="matrix(0.998624, 0, 0, -0.998624, -46.236284, 283.777752)"/>
<path fill="none" stroke-width="0.4" stroke-linecap="butt" stroke-linejoin="round" stroke="rgb(0%, 0%, 0%)" stroke-opacity="1" stroke-miterlimit="10" d="M 119.001611 239.998651 L 119.999077 202.998514 " transform="matrix(0.998624, 0, 0, -0.998624, -46.236284, 283.777752)"/>
<path fill="none" stroke-width="0.4" stroke-linecap="butt" stroke-linejoin="round" stroke="rgb(0%, 0%, 0%)" stroke-opacity="1" stroke-miterlimit="10" d="M 119.001611 239.998651 L 138.000412 214.999404 " transform="matrix(0.998624, 0, 0, -0.998624, -46.236284, 283.777752)"/>
<path fill="none" stroke-width="0.4" stroke-linecap="butt" stroke-linejoin="round" stroke="rgb(0%, 0%, 0%)" stroke-opacity="1" stroke-miterlimit="10" d="M 119.001611 239.998651 L 119.001611 268.999498 " transform="matrix(0.998624, 0, 0, -0.998624, -46.236284, 283.777752)"/>
<path fill="none" stroke-width="0.4" stroke-linecap="butt" stroke-linejoin="round" stroke="rgb(0%, 0%, 0%)" stroke-opacity="1" stroke-miterlimit="10" d="M 119.001611 239.998651 L 96.001209 253.000919 " transform="matrix(0.998624, 0, 0, -0.998624, -46.236284, 283.777752)"/>
<path fill="none" stroke-width="0.4" stroke-linecap="butt" stroke-linejoin="round" stroke="rgb(0%, 0%, 0%)" stroke-opacity="1" stroke-miterlimit="10" d="M 119.001611 239.998651 L 90.99823 222.001227 " transform="matrix(0.998624, 0, 0, -0.998624, -46.236284, 283.777752)"/>
<path fill="none" stroke-width="0.4" stroke-linecap="butt" stroke-linejoin="round" stroke="rgb(0%, 0%, 0%)" stroke-opacity="1" stroke-miterlimit="10" d="M 96.001209 253.000919 L 74.999651 267.000653 " transform="matrix(0.998624, 0, 0, -0.998624, -46.236284, 283.777752)"/>
<path fill="none" stroke-width="0.4" stroke-linecap="butt" stroke-linejoin="round" stroke="rgb(0%, 0%, 0%)" stroke-opacity="1" stroke-miterlimit="10" d="M 96.001209 253.000919 L 90.99823 222.001227 " transform="matrix(0.998624, 0, 0, -0.998624, -46.236284, 283.777752)"/>
<path fill="none" stroke-width="0.4" stroke-linecap="butt" stroke-linejoin="round" stroke="rgb(0%, 0%, 0%)" stroke-opacity="1" stroke-miterlimit="10" d="M 90.99823 222.001227 L 96.001209 253.000919 " transform="matrix(0.998624, 0, 0, -0.998624, -46.236284, 283.777752)"/>
<path fill="none" stroke-width="0.4" stroke-linecap="butt" stroke-linejoin="round" stroke="rgb(0%, 0%, 0%)" stroke-opacity="1" stroke-miterlimit="10" d="M 90.99823 222.001227 L 74.999651 267.000653 " transform="matrix(0.998624, 0, 0, -0.998624, -46.236284, 283.777752)"/>
<path fill="none" stroke-width="0.4" stroke-linecap="butt" stroke-linejoin="round" stroke="rgb(0%, 0%, 0%)" stroke-opacity="1" stroke-miterlimit="10" d="M 90.99823 222.001227 L 88.001919 194.999225 " transform="matrix(0.998624, 0, 0, -0.998624, -46.236284, 283.777752)"/>
<path fill="none" stroke-width="0.4" stroke-linecap="butt" stroke-linejoin="round" stroke="rgb(0%, 0%, 0%)" stroke-opacity="1" stroke-miterlimit="10" d="M 90.99823 222.001227 L 119.999077 202.998514 " transform="matrix(0.998624, 0, 0, -0.998624, -46.236284, 283.777752)"/>
<path fill="none" stroke-width="0.4" stroke-linecap="butt" stroke-linejoin="round" stroke="rgb(0%, 0%, 0%)" stroke-opacity="1" stroke-miterlimit="10" d="M 88.001919 194.999225 L 119.999077 202.998514 " transform="matrix(0.998624, 0, 0, -0.998624, -46.236284, 283.777752)"/>
<path fill="none" stroke-width="0.4" stroke-linecap="butt" stroke-linejoin="round" stroke="rgb(0%, 0%, 0%)" stroke-opacity="1" stroke-miterlimit="10" d="M 88.001919 194.999225 L 90.99823 222.001227 " transform="matrix(0.998624, 0, 0, -0.998624, -46.236284, 283.777752)"/>
<path fill="none" stroke-width="0.4" stroke-linecap="butt" stroke-linejoin="round" stroke="rgb(0%, 0%, 0%)" stroke-opacity="1" stroke-miterlimit="10" d="M 88.001919 194.999225 L 81.000096 162.000689 " transform="matrix(0.998624, 0, 0, -0.998624, -46.236284, 283.777752)"/>
<path fill="none" stroke-width="0.4" stroke-linecap="butt" stroke-linejoin="round" stroke="rgb(0%, 0%, 0%)" stroke-opacity="1" stroke-miterlimit="10" d="M 81.000096 162.000689 L 88.001919 194.999225 " transform="matrix(0.998624, 0, 0, -0.998624, -46.236284, 283.777752)"/>
<path fill="none" stroke-width="0.4" stroke-linecap="butt" stroke-linejoin="round" stroke="rgb(0%, 0%, 0%)" stroke-opacity="1" stroke-miterlimit="10" d="M 81.000096 162.000689 L 84.000319 91.998105 " transform="matrix(0.998624, 0, 0, -0.998624, -46.236284, 283.777752)"/>
<path fill="none" stroke-width="0.4" stroke-linecap="butt" stroke-linejoin="round" stroke="rgb(0%, 0%, 0%)" stroke-opacity="1" stroke-miterlimit="10" d="M 81.000096 162.000689 L 99.998898 137.998909 " transform="matrix(0.998624, 0, 0, -0.998624, -46.236284, 283.777752)"/>
<path fill="none" stroke-width="0.4" stroke-linecap="butt" stroke-linejoin="round" stroke="rgb(0%, 0%, 0%)" stroke-opacity="1" stroke-miterlimit="10" d="M 99.998898 137.998909 L 105.001876 114.998507 " transform="matrix(0.998624, 0, 0, -0.998624, -46.236284, 283.777752)"/>
<path fill="none" stroke-width="0.4" stroke-linecap="butt" stroke-linejoin="round" stroke="rgb(0%, 0%, 0%)" stroke-opacity="1" stroke-miterlimit="10" d="M 99.998898 137.998909 L 81.000096 162.000689 " transform="matrix(0.998624, 0, 0, -0.998624, -46.236284, 283.777752)"/>
<path fill="none" stroke-width="0.4" stroke-linecap="butt" stroke-linejoin="round" stroke="rgb(0%, 0%, 0%)" stroke-opacity="1" stroke-miterlimit="10" d="M 99.998898 137.998909 L 84.000319 91.998105 " transform="matrix(0.998624, 0, 0, -0.998624, -46.236284, 283.777752)"/>
<path fill="none" stroke-width="0.4" stroke-linecap="butt" stroke-linejoin="round" stroke="rgb(0%, 0%, 0%)" stroke-opacity="1" stroke-miterlimit="10" d="M 105.001876 114.998507 L 99.998898 137.998909 " transform="matrix(0.998624, 0, 0, -0.998624, -46.236284, 283.777752)"/>
<path fill="none" stroke-width="0.4" stroke-linecap="butt" stroke-linejoin="round" stroke="rgb(0%, 0%, 0%)" stroke-opacity="1" stroke-miterlimit="10" d="M 105.001876 114.998507 L 84.000319 91.998105 " transform="matrix(0.998624, 0, 0, -0.998624, -46.236284, 283.777752)"/>
<path fill="none" stroke-width="0.4" stroke-linecap="butt" stroke-linejoin="round" stroke="rgb(0%, 0%, 0%)" stroke-opacity="1" stroke-miterlimit="10" d="M 105.001876 114.998507 L 116.001388 80.998593 " transform="matrix(0.998624, 0, 0, -0.998624, -46.236284, 283.777752)"/>
<path fill="none" stroke-width="0.4" stroke-linecap="butt" stroke-linejoin="round" stroke="rgb(0%, 0%, 0%)" stroke-opacity="1" stroke-miterlimit="10" d="M 84.000319 91.998105 L 116.001388 80.998593 " transform="matrix(0.998624, 0, 0, -0.998624, -46.236284, 283.777752)"/>
<path fill="none" stroke-width="0.4" stroke-linecap="butt" stroke-linejoin="round" stroke="rgb(0%, 0%, 0%)" stroke-opacity="1" stroke-miterlimit="10" d="M 84.000319 91.998105 L 105.001876 114.998507 " transform="matrix(0.998624, 0, 0, -0.998624, -46.236284, 283.777752)"/>
<path fill="none" stroke-width="0.4" stroke-linecap="butt" stroke-linejoin="round" stroke="rgb(0%, 0%, 0%)" stroke-opacity="1" stroke-miterlimit="10" d="M 116.001388 80.998593 L 161.99828 80.998593 " transform="matrix(0.998624, 0, 0, -0.998624, -46.236284, 283.777752)"/>
<path fill="none" stroke-width="0.4" stroke-linecap="butt" stroke-linejoin="round" stroke="rgb(0%, 0%, 0%)" stroke-opacity="1" stroke-miterlimit="10" d="M 116.001388 80.998593 L 84.000319 91.998105 " transform="matrix(0.998624, 0, 0, -0.998624, -46.236284, 283.777752)"/>
<path fill="none" stroke-width="0.4" stroke-linecap="butt" stroke-linejoin="round" stroke="rgb(0%, 0%, 0%)" stroke-opacity="1" stroke-miterlimit="10" d="M 116.001388 80.998593 L 152.000146 57.000725 " transform="matrix(0.998624, 0, 0, -0.998624, -46.236284, 283.777752)"/>
<path fill="none" stroke-width="0.4" stroke-linecap="butt" stroke-linejoin="round" stroke="rgb(0%, 0%, 0%)" stroke-opacity="1" stroke-miterlimit="10" d="M 195.998194 106.999218 L 161.99828 80.998593 " transform="matrix(0.998624, 0, 0, -0.998624, -46.236284, 283.777752)"/>
<path fill="none" stroke-width="0.4" stroke-linecap="butt" stroke-linejoin="round" stroke="rgb(0%, 0%, 0%)" stroke-opacity="1" stroke-miterlimit="10" d="M 195.998194 106.999218 L 195.000728 81.999971 " transform="matrix(0.998624, 0, 0, -0.998624, -46.236284, 283.777752)"/>
<path fill="none" stroke-width="0.4" stroke-linecap="butt" stroke-linejoin="round" stroke="rgb(0%, 0%, 0%)" stroke-opacity="1" stroke-miterlimit="10" d="M 195.998194 106.999218 L 227.999264 89.999261 " transform="matrix(0.998624, 0, 0, -0.998624, -46.236284, 283.777752)"/>
<path fill="none" stroke-width="0.4" stroke-linecap="butt" stroke-linejoin="round" stroke="rgb(0%, 0%, 0%)" stroke-opacity="1" stroke-miterlimit="10" d="M 195.000728 81.999971 L 195.998194 106.999218 " transform="matrix(0.998624, 0, 0, -0.998624, -46.236284, 283.777752)"/>
<path fill="none" stroke-width="0.4" stroke-linecap="butt" stroke-linejoin="round" stroke="rgb(0%, 0%, 0%)" stroke-opacity="1" stroke-miterlimit="10" d="M 195.000728 81.999971 L 161.99828 80.998593 " transform="matrix(0.998624, 0, 0, -0.998624, -46.236284, 283.777752)"/>
<path fill="none" stroke-width="0.4" stroke-linecap="butt" stroke-linejoin="round" stroke="rgb(0%, 0%, 0%)" stroke-opacity="1" stroke-miterlimit="10" d="M 195.000728 81.999971 L 227.999264 89.999261 " transform="matrix(0.998624, 0, 0, -0.998624, -46.236284, 283.777752)"/>
<path fill="none" stroke-width="0.4" stroke-linecap="butt" stroke-linejoin="round" stroke="rgb(0%, 0%, 0%)" stroke-opacity="1" stroke-miterlimit="10" d="M 161.99828 80.998593 L 152.000146 57.000725 " transform="matrix(0.998624, 0, 0, -0.998624, -46.236284, 283.777752)"/>
<path fill="none" stroke-width="0.4" stroke-linecap="butt" stroke-linejoin="round" stroke="rgb(0%, 0%, 0%)" stroke-opacity="1" stroke-miterlimit="10" d="M 161.99828 80.998593 L 195.000728 81.999971 " transform="matrix(0.998624, 0, 0, -0.998624, -46.236284, 283.777752)"/>
<path fill="none" stroke-width="0.4" stroke-linecap="butt" stroke-linejoin="round" stroke="rgb(0%, 0%, 0%)" stroke-opacity="1" stroke-miterlimit="10" d="M 152.000146 57.000725 L 161.99828 80.998593 " transform="matrix(0.998624, 0, 0, -0.998624, -46.236284, 283.777752)"/>
<path fill="none" stroke-width="0.4" stroke-linecap="butt" stroke-linejoin="round" stroke="rgb(0%, 0%, 0%)" stroke-opacity="1" stroke-miterlimit="10" d="M 138.000412 214.999404 L 119.999077 202.998514 " transform="matrix(0.998624, 0, 0, -0.998624, -46.236284, 283.777752)"/>
<path fill="none" stroke-width="0.4" stroke-linecap="butt" stroke-linejoin="round" stroke="rgb(0%, 0%, 0%)" stroke-opacity="1" stroke-miterlimit="10" d="M 138.000412 214.999404 L 133.998811 188.001313 " transform="matrix(0.998624, 0, 0, -0.998624, -46.236284, 283.777752)"/>
<path fill="none" stroke-width="0.4" stroke-linecap="butt" stroke-linejoin="round" stroke="rgb(0%, 0%, 0%)" stroke-opacity="1" stroke-miterlimit="10" d="M 138.000412 214.999404 L 175.000548 197.999447 " transform="matrix(0.998624, 0, 0, -0.998624, -46.236284, 283.777752)"/>
<path fill="none" stroke-width="0.4" stroke-linecap="butt" stroke-linejoin="round" stroke="rgb(0%, 0%, 0%)" stroke-opacity="1" stroke-miterlimit="10" d="M 119.999077 202.998514 L 133.998811 188.001313 " transform="matrix(0.998624, 0, 0, -0.998624, -46.236284, 283.777752)"/>
<path fill="none" stroke-width="0.4" stroke-linecap="butt" stroke-linejoin="round" stroke="rgb(0%, 0%, 0%)" stroke-opacity="1" stroke-miterlimit="10" d="M 119.999077 202.998514 L 138.000412 214.999404 " transform="matrix(0.998624, 0, 0, -0.998624, -46.236284, 283.777752)"/>
<path fill="none" stroke-width="0.4" stroke-linecap="butt" stroke-linejoin="round" stroke="rgb(0%, 0%, 0%)" stroke-opacity="1" stroke-miterlimit="10" d="M 133.998811 188.001313 L 175.000548 197.999447 " transform="matrix(0.998624, 0, 0, -0.998624, -46.236284, 283.777752)"/>
<path fill="none" stroke-width="0.4" stroke-linecap="butt" stroke-linejoin="round" stroke="rgb(0%, 0%, 0%)" stroke-opacity="1" stroke-miterlimit="10" d="M 133.998811 188.001313 L 119.999077 202.998514 " transform="matrix(0.998624, 0, 0, -0.998624, -46.236284, 283.777752)"/>
<path fill="none" stroke-width="0.4" stroke-linecap="butt" stroke-linejoin="round" stroke="rgb(0%, 0%, 0%)" stroke-opacity="1" stroke-miterlimit="10" d="M 175.000548 197.999447 L 193.001883 231.001895 " transform="matrix(0.998624, 0, 0, -0.998624, -46.236284, 283.777752)"/>
<path fill="none" stroke-width="0.4" stroke-linecap="butt" stroke-linejoin="round" stroke="rgb(0%, 0%, 0%)" stroke-opacity="1" stroke-miterlimit="10" d="M 175.000548 197.999447 L 133.998811 188.001313 " transform="matrix(0.998624, 0, 0, -0.998624, -46.236284, 283.777752)"/>
<path fill="none" stroke-width="0.4" stroke-linecap="butt" stroke-linejoin="round" stroke="rgb(0%, 0%, 0%)" stroke-opacity="1" stroke-miterlimit="10" d="M 193.001883 231.001895 L 175.000548 197.999447 " transform="matrix(0.998624, 0, 0, -0.998624, -46.236284, 283.777752)"/>
<path fill="none" stroke-width="0.4" stroke-linecap="butt" stroke-linejoin="round" stroke="rgb(0%, 0%, 0%)" stroke-opacity="1" stroke-miterlimit="10" d="M 53.000627 208.998959 L 88.001919 194.999225 " transform="matrix(0.998624, 0, 0, -0.998624, -46.236284, 283.777752)"/>
<path fill="none" stroke-width="0.4" stroke-linecap="butt" stroke-linejoin="round" stroke="rgb(0%, 0%, 0%)" stroke-opacity="1" stroke-miterlimit="10" d="M 53.000627 208.998959 L 90.99823 222.001227 " transform="matrix(0.998624, 0, 0, -0.998624, -46.236284, 283.777752)"/>
<path fill="none" stroke-width="0.4" stroke-linecap="butt" stroke-linejoin="round" stroke="rgb(0%, 0%, 0%)" stroke-opacity="1" stroke-miterlimit="10" d="M 53.000627 208.998959 L 74.999651 267.000653 " transform="matrix(0.998624, 0, 0, -0.998624, -46.236284, 283.777752)"/>
<path fill="none" stroke-width="0.4" stroke-linecap="butt" stroke-linejoin="round" stroke="rgb(0%, 0%, 0%)" stroke-opacity="1" stroke-miterlimit="10" d="M 218.998596 57.000725 L 227.999264 89.999261 " transform="matrix(0.998624, 0, 0, -0.998624, -46.236284, 283.777752)"/>
<path fill="none" stroke-width="0.4" stroke-linecap="butt" stroke-linejoin="round" stroke="rgb(0%, 0%, 0%)" stroke-opacity="1" stroke-miterlimit="10" d="M 139.999256 117.001263 L 105.001876 114.998507 " transform="matrix(0.998624, 0, 0, -0.998624, -46.236284, 283.777752)"/>
<path fill="none" stroke-width="0.4" stroke-linecap="butt" stroke-linejoin="round" stroke="rgb(0%, 0%, 0%)" stroke-opacity="1" stroke-miterlimit="10" d="M 139.999256 117.001263 L 116.001388 80.998593 " transform="matrix(0.998624, 0, 0, -0.998624, -46.236284, 283.777752)"/>
<path fill="none" stroke-width="0.4" stroke-linecap="butt" stroke-linejoin="round" stroke="rgb(0%, 0%, 0%)" stroke-opacity="1" stroke-miterlimit="10" d="M 139.999256 117.001263 L 161.99828 80.998593 " transform="matrix(0.998624, 0, 0, -0.998624, -46.236284, 283.777752)"/>
<path fill="none" stroke-width="0.4" stroke-linecap="butt" stroke-linejoin="round" stroke="rgb(0%, 0%, 0%)" stroke-opacity="1" stroke-miterlimit="10" d="M 108.999565 157.999088 L 81.000096 162.000689 " transform="matrix(0.998624, 0, 0, -0.998624, -46.236284, 283.777752)"/>
<path fill="none" stroke-width="0.4" stroke-linecap="butt" stroke-linejoin="round" stroke="rgb(0%, 0%, 0%)" stroke-opacity="1" stroke-miterlimit="10" d="M 108.999565 157.999088 L 99.998898 137.998909 " transform="matrix(0.998624, 0, 0, -0.998624, -46.236284, 283.777752)"/>
<path fill="none" stroke-width="0.4" stroke-linecap="butt" stroke-linejoin="round" stroke="rgb(0%, 0%, 0%)" stroke-opacity="1" stroke-miterlimit="10" d="M 108.999565 157.999088 L 105.001876 114.998507 " transform="matrix(0.998624, 0, 0, -0.998624, -46.236284, 283.777752)"/>
<path fill="none" stroke-width="0.4" stroke-linecap="butt" stroke-linejoin="round" stroke="rgb(0%, 0%, 0%)" stroke-opacity="1" stroke-miterlimit="10" d="M 81.000096 162.000689 L 88.001919 194.999225 " transform="matrix(0.998624, 0, 0, -0.998624, -46.236284, 283.777752)"/>
<path fill="none" stroke-width="0.4" stroke-linecap="butt" stroke-linejoin="round" stroke="rgb(0%, 0%, 0%)" stroke-opacity="1" stroke-miterlimit="10" d="M 195.998194 106.999218 L 161.99828 80.998593 " transform="matrix(0.998624, 0, 0, -0.998624, -46.236284, 283.777752)"/>
<path fill="none" stroke-width="0.4" stroke-linecap="butt" stroke-linejoin="round" stroke="rgb(0%, 0%, 0%)" stroke-opacity="1" stroke-miterlimit="10" d="M 195.000728 81.999971 L 195.998194 106.999218 " transform="matrix(0.998624, 0, 0, -0.998624, -46.236284, 283.777752)"/>
<path fill="none" stroke-width="0.4" stroke-linecap="butt" stroke-linejoin="round" stroke="rgb(0%, 0%, 0%)" stroke-opacity="1" stroke-miterlimit="10" d="M 195.000728 81.999971 L 227.999264 89.999261 " transform="matrix(0.998624, 0, 0, -0.998624, -46.236284, 283.777752)"/>
<path fill-rule="evenodd" fill="rgb(0%, 0%, 100%)" fill-opacity="1" d="M 196.429688 130.988281 C 196.429688 128.230469 194.195312 125.996094 191.4375 125.996094 C 188.679688 125.996094 186.441406 128.230469 186.441406 130.988281 C 186.441406 133.746094 188.679688 135.980469 191.4375 135.980469 C 194.195312 135.980469 196.429688 133.746094 196.429688 130.988281 "/>
<path fill-rule="evenodd" fill="rgb(0%, 0%, 0%)" fill-opacity="1" d="M 197.429688 130.988281 C 197.429688 127.679688 194.746094 124.996094 191.4375 124.996094 C 188.125 124.996094 185.445312 127.679688 185.445312 130.988281 C 185.445312 134.296875 188.125 136.980469 191.4375 136.980469 C 194.746094 136.980469 197.429688 134.296875 197.429688 130.988281 M 195.429688 130.988281 C 195.429688 128.78125 193.640625 126.992188 191.4375 126.992188 C 189.230469 126.992188 187.441406 128.78125 187.441406 130.988281 C 187.441406 133.195312 189.230469 134.984375 191.4375 134.984375 C 193.640625 134.984375 195.429688 133.195312 195.429688 130.988281 "/>
<path fill-rule="evenodd" fill="rgb(52.89917%, 80.799866%, 92.199707%)" fill-opacity="1" d="M 11.683594 75.066406 C 11.683594 72.308594 9.449219 70.070312 6.691406 70.070312 C 3.933594 70.070312 1.699219 72.308594 1.699219 75.066406 C 1.699219 77.824219 3.933594 80.058594 6.691406 80.058594 C 9.449219 80.058594 11.683594 77.824219 11.683594 75.066406 "/>
<path fill-rule="evenodd" fill="rgb(0%, 0%, 0%)" fill-opacity="1" d="M 12.683594 75.066406 C 12.683594 71.757812 10 69.074219 6.691406 69.074219 C 3.382812 69.074219 0.699219 71.757812 0.699219 75.066406 C 0.699219 78.375 3.382812 81.058594 6.691406 81.058594 C 10 81.058594 12.683594 78.375 12.683594 75.066406 M 10.683594 75.066406 C 10.683594 72.859375 8.898438 71.070312 6.691406 71.070312 C 4.484375 71.070312 2.695312 72.859375 2.695312 75.066406 C 2.695312 77.269531 4.484375 79.058594 6.691406 79.058594 C 8.898438 79.058594 10.683594 77.269531 10.683594 75.066406 "/>
<path fill-rule="evenodd" fill="rgb(52.89917%, 80.799866%, 92.199707%)" fill-opacity="1" d="M 54.625 31.125 C 54.625 28.367188 52.390625 26.132812 49.632812 26.132812 C 46.875 26.132812 44.636719 28.367188 44.636719 31.125 C 44.636719 33.882812 46.875 36.117188 49.632812 36.117188 C 52.390625 36.117188 54.625 33.882812 54.625 31.125 "/>
<path fill-rule="evenodd" fill="rgb(0%, 0%, 0%)" fill-opacity="1" d="M 55.625 31.125 C 55.625 27.816406 52.941406 25.132812 49.632812 25.132812 C 46.324219 25.132812 43.640625 27.816406 43.640625 31.125 C 43.640625 34.433594 46.324219 37.117188 49.632812 37.117188 C 52.941406 37.117188 55.625 34.433594 55.625 31.125 M 53.625 31.125 C 53.625 28.921875 51.835938 27.132812 49.632812 27.132812 C 47.425781 27.132812 45.636719 28.921875 45.636719 31.125 C 45.636719 33.332031 47.425781 35.121094 49.632812 35.121094 C 51.835938 35.121094 53.625 33.332031 53.625 31.125 "/>
<path fill-rule="evenodd" fill="rgb(52.89917%, 80.799866%, 92.199707%)" fill-opacity="1" d="M 127.523438 64.082031 C 127.523438 61.324219 125.289062 59.085938 122.53125 59.085938 C 119.773438 59.085938 117.539062 61.324219 117.539062 64.082031 C 117.539062 66.835938 119.773438 69.074219 122.53125 69.074219 C 125.289062 69.074219 127.523438 66.835938 127.523438 64.082031 "/>
<path fill-rule="evenodd" fill="rgb(0%, 0%, 0%)" fill-opacity="1" d="M 128.523438 64.082031 C 128.523438 60.769531 125.839844 58.089844 122.53125 58.089844 C 119.222656 58.089844 116.539062 60.769531 116.539062 64.082031 C 116.539062 67.390625 119.222656 70.070312 122.53125 70.070312 C 125.839844 70.070312 128.523438 67.390625 128.523438 64.082031 M 126.527344 64.082031 C 126.527344 61.875 124.738281 60.085938 122.53125 60.085938 C 120.324219 60.085938 118.535156 61.875 118.535156 64.082031 C 118.535156 66.285156 120.324219 68.074219 122.53125 68.074219 C 124.738281 68.074219 126.527344 66.285156 126.527344 64.082031 "/>
<path fill-rule="evenodd" fill="rgb(52.89917%, 80.799866%, 92.199707%)" fill-opacity="1" d="M 198.425781 40.113281 C 198.425781 37.355469 196.191406 35.121094 193.433594 35.121094 C 190.675781 35.121094 188.441406 37.355469 188.441406 40.113281 C 188.441406 42.871094 190.675781 45.105469 193.433594 45.105469 C 196.191406 45.105469 198.425781 42.871094 198.425781 40.113281 "/>
<path fill-rule="evenodd" fill="rgb(0%, 0%, 0%)" fill-opacity="1" d="M 199.425781 40.113281 C 199.425781 36.804688 196.742188 34.121094 193.433594 34.121094 C 190.125 34.121094 187.441406 36.804688 187.441406 40.113281 C 187.441406 43.421875 190.125 46.105469 193.433594 46.105469 C 196.742188 46.105469 199.425781 43.421875 199.425781 40.113281 M 197.429688 40.113281 C 197.429688 37.90625 195.640625 36.117188 193.433594 36.117188 C 191.226562 36.117188 189.4375 37.90625 189.4375 40.113281 C 189.4375 42.320312 191.226562 44.109375 193.433594 44.109375 C 195.640625 44.109375 197.429688 42.320312 197.429688 40.113281 "/>
<path fill-rule="evenodd" fill="rgb(56.498718%, 93.299866%, 56.498718%)" fill-opacity="1" d="M 172.460938 63.082031 C 172.460938 60.324219 170.226562 58.089844 167.46875 58.089844 C 164.710938 58.089844 162.476562 60.324219 162.476562 63.082031 C 162.476562 65.839844 164.710938 68.074219 167.46875 68.074219 C 170.226562 68.074219 172.460938 65.839844 172.460938 63.082031 "/>
<path fill-rule="evenodd" fill="rgb(0%, 0%, 0%)" fill-opacity="1" d="M 173.460938 63.082031 C 173.460938 59.773438 170.777344 57.089844 167.46875 57.089844 C 164.160156 57.089844 161.476562 59.773438 161.476562 63.082031 C 161.476562 66.390625 164.160156 69.074219 167.46875 69.074219 C 170.777344 69.074219 173.460938 66.390625 173.460938 63.082031 M 171.464844 63.082031 C 171.464844 60.875 169.675781 59.085938 167.46875 59.085938 C 165.261719 59.085938 163.476562 60.875 163.476562 63.082031 C 163.476562 65.289062 165.261719 67.078125 167.46875 67.078125 C 169.675781 67.078125 171.464844 65.289062 171.464844 63.082031 "/>
<path fill-rule="evenodd" fill="rgb(52.89917%, 80.799866%, 92.199707%)" fill-opacity="1" d="M 154.488281 176.925781 C 154.488281 174.167969 152.25 171.933594 149.492188 171.933594 C 146.738281 171.933594 144.5 174.167969 144.5 176.925781 C 144.5 179.683594 146.738281 181.917969 149.492188 181.917969 C 152.25 181.917969 154.488281 179.683594 154.488281 176.925781 "/>
<path fill-rule="evenodd" fill="rgb(0%, 0%, 0%)" fill-opacity="1" d="M 155.484375 176.925781 C 155.484375 173.617188 152.804688 170.933594 149.492188 170.933594 C 146.183594 170.933594 143.503906 173.617188 143.503906 176.925781 C 143.503906 180.234375 146.183594 182.917969 149.492188 182.917969 C 152.804688 182.917969 155.484375 180.234375 155.484375 176.925781 M 153.488281 176.925781 C 153.488281 174.71875 151.699219 172.929688 149.492188 172.929688 C 147.289062 172.929688 145.5 174.71875 145.5 176.925781 C 145.5 179.132812 147.289062 180.917969 149.492188 180.917969 C 151.699219 180.917969 153.488281 179.132812 153.488281 176.925781 "/>
<path fill-rule="evenodd" fill="rgb(52.89917%, 80.799866%, 92.199707%)" fill-opacity="1" d="M 177.457031 226.855469 C 177.457031 224.097656 175.21875 221.863281 172.460938 221.863281 C 169.707031 221.863281 167.46875 224.097656 167.46875 226.855469 C 167.46875 229.613281 169.707031 231.847656 172.460938 231.847656 C 175.21875 231.847656 177.457031 229.613281 177.457031 226.855469 "/>
<path fill-rule="evenodd" fill="rgb(0%, 0%, 0%)" fill-opacity="1" d="M 178.453125 226.855469 C 178.453125 223.546875 175.773438 220.863281 172.460938 220.863281 C 169.152344 220.863281 166.46875 223.546875 166.46875 226.855469 C 166.46875 230.164062 169.152344 232.847656 172.460938 232.847656 C 175.773438 232.847656 178.453125 230.164062 178.453125 226.855469 M 176.457031 226.855469 C 176.457031 224.648438 174.667969 222.863281 172.460938 222.863281 C 170.257812 222.863281 168.46875 224.648438 168.46875 226.855469 C 168.46875 229.0625 170.257812 230.851562 172.460938 230.851562 C 174.667969 230.851562 176.457031 229.0625 176.457031 226.855469 "/>
<path fill-rule="evenodd" fill="rgb(52.89917%, 80.799866%, 92.199707%)" fill-opacity="1" d="M 110.546875 226.855469 C 110.546875 224.097656 108.3125 221.863281 105.554688 221.863281 C 102.796875 221.863281 100.5625 224.097656 100.5625 226.855469 C 100.5625 229.613281 102.796875 231.847656 105.554688 231.847656 C 108.3125 231.847656 110.546875 229.613281 110.546875 226.855469 "/>
<path fill-rule="evenodd" fill="rgb(0%, 0%, 0%)" fill-opacity="1" d="M 111.546875 226.855469 C 111.546875 223.546875 108.863281 220.863281 105.554688 220.863281 C 102.246094 220.863281 99.5625 223.546875 99.5625 226.855469 C 99.5625 230.164062 102.246094 232.847656 105.554688 232.847656 C 108.863281 232.847656 111.546875 230.164062 111.546875 226.855469 M 109.550781 226.855469 C 109.550781 224.648438 107.761719 222.863281 105.554688 222.863281 C 103.347656 222.863281 101.558594 224.648438 101.558594 226.855469 C 101.558594 229.0625 103.347656 230.851562 105.554688 230.851562 C 107.761719 230.851562 109.550781 229.0625 109.550781 226.855469 "/>
<path fill-rule="evenodd" fill="rgb(56.498718%, 93.299866%, 56.498718%)" fill-opacity="1" d="M 74.597656 202.890625 C 74.597656 200.132812 72.359375 197.894531 69.605469 197.894531 C 66.847656 197.894531 64.609375 200.132812 64.609375 202.890625 C 64.609375 205.648438 66.847656 207.882812 69.605469 207.882812 C 72.359375 207.882812 74.597656 205.648438 74.597656 202.890625 "/>
<path fill-rule="evenodd" fill="rgb(0%, 0%, 0%)" fill-opacity="1" d="M 75.597656 202.890625 C 75.597656 199.582031 72.914062 196.898438 69.605469 196.898438 C 66.292969 196.898438 63.613281 199.582031 63.613281 202.890625 C 63.613281 206.199219 66.292969 208.882812 69.605469 208.882812 C 72.914062 208.882812 75.597656 206.199219 75.597656 202.890625 M 73.597656 202.890625 C 73.597656 200.683594 71.808594 198.894531 69.605469 198.894531 C 67.398438 198.894531 65.609375 200.683594 65.609375 202.890625 C 65.609375 205.09375 67.398438 206.882812 69.605469 206.882812 C 71.808594 206.882812 73.597656 205.09375 73.597656 202.890625 "/>
<path fill-rule="evenodd" fill="rgb(52.89917%, 80.799866%, 92.199707%)" fill-opacity="1" d="M 120.535156 107.019531 C 120.535156 104.265625 118.296875 102.027344 115.539062 102.027344 C 112.785156 102.027344 110.546875 104.265625 110.546875 107.019531 C 110.546875 109.777344 112.785156 112.015625 115.539062 112.015625 C 118.296875 112.015625 120.535156 109.777344 120.535156 107.019531 "/>
<path fill-rule="evenodd" fill="rgb(0%, 0%, 0%)" fill-opacity="1" d="M 121.53125 107.019531 C 121.53125 103.710938 118.851562 101.03125 115.539062 101.03125 C 112.230469 101.03125 109.550781 103.710938 109.550781 107.019531 C 109.550781 110.332031 112.230469 113.011719 115.539062 113.011719 C 118.851562 113.011719 121.53125 110.332031 121.53125 107.019531 M 119.535156 107.019531 C 119.535156 104.816406 117.746094 103.027344 115.539062 103.027344 C 113.335938 103.027344 111.546875 104.816406 111.546875 107.019531 C 111.546875 109.226562 113.335938 111.015625 115.539062 111.015625 C 117.746094 111.015625 119.535156 109.226562 119.535156 107.019531 "/>
<path fill-rule="evenodd" fill="rgb(0%, 0%, 100%)" fill-opacity="1" d="M 58.621094 145.96875 C 58.621094 143.210938 56.382812 140.972656 53.625 140.972656 C 50.867188 140.972656 48.632812 143.210938 48.632812 145.96875 C 48.632812 148.726562 50.867188 150.960938 53.625 150.960938 C 56.382812 150.960938 58.621094 148.726562 58.621094 145.96875 "/>
<path fill-rule="evenodd" fill="rgb(0%, 0%, 0%)" fill-opacity="1" d="M 59.617188 145.96875 C 59.617188 142.660156 56.933594 139.976562 53.625 139.976562 C 50.316406 139.976562 47.632812 142.660156 47.632812 145.96875 C 47.632812 149.277344 50.316406 151.960938 53.625 151.960938 C 56.933594 151.960938 59.617188 149.277344 59.617188 145.96875 M 57.621094 145.96875 C 57.621094 143.761719 55.832031 141.972656 53.625 141.972656 C 51.421875 141.972656 49.632812 143.761719 49.632812 145.96875 C 49.632812 148.171875 51.421875 149.960938 53.625 149.960938 C 55.832031 149.960938 57.621094 148.171875 57.621094 145.96875 "/>
</svg>
