<?xml version="1.0" encoding="UTF-8"?>
<svg xmlns="http://www.w3.org/2000/svg" xmlns:xlink="http://www.w3.org/1999/xlink" width="212" height="250.7" viewBox="0 0 212 250.7">
<defs>
<clipPath id="clip-0">
<path clip-rule="nonzero" d="M 0.125 74 L 30 74 L 30 123 L 0.125 123 Z M 0.125 74 "/>
</clipPath>
<clipPath id="clip-1">
<path clip-rule="nonzero" d="M 0.125 74 L 37 74 L 37 90 L 0.125 90 Z M 0.125 74 "/>
</clipPath>
<clipPath id="clip-2">
<path clip-rule="nonzero" d="M 0.125 61 L 40 61 L 40 76 L 0.125 76 Z M 0.125 61 "/>
</clipPath>
<clipPath id="clip-3">
<path clip-rule="nonzero" d="M 0.125 16 L 24 16 L 24 76 L 0.125 76 Z M 0.125 16 "/>
</clipPath>
<clipPath id="clip-4">
<path clip-rule="nonzero" d="M 0.125 74 L 33 74 L 33 192 L 0.125 192 Z M 0.125 74 "/>
</clipPath>
<clipPath id="clip-5">
<path clip-rule="nonzero" d="M 193 87 L 211.871094 87 L 211.871094 107 L 193 107 Z M 193 87 "/>
</clipPath>
<clipPath id="clip-6">
<path clip-rule="nonzero" d="M 185 105 L 211.871094 105 L 211.871094 132 L 185 132 Z M 185 105 "/>
</clipPath>
<clipPath id="clip-7">
<path clip-rule="nonzero" d="M 0.125 74 L 37 74 L 37 90 L 0.125 90 Z M 0.125 74 "/>
</clipPath>
<clipPath id="clip-8">
<path clip-rule="nonzero" d="M 0.125 61 L 40 61 L 40 76 L 0.125 76 Z M 0.125 61 "/>
</clipPath>
<clipPath id="clip-9">
<path clip-rule="nonzero" d="M 0.125 16 L 24 16 L 24 76 L 0.125 76 Z M 0.125 16 "/>
</clipPath>
<clipPath id="clip-10">
<path clip-rule="nonzero" d="M 0.125 73 L 59 73 L 59 147 L 0.125 147 Z M 0.125 73 "/>
</clipPath>
<clipPath id="clip-11">
<path clip-rule="nonzero" d="M 162 86 L 211.871094 86 L 211.871094 132 L 162 132 Z M 162 86 "/>
</clipPath>
<clipPath id="clip-12">
<path clip-rule="nonzero" d="M 0.125 15 L 46 15 L 46 76 L 0.125 76 Z M 0.125 15 "/>
</clipPath>
</defs>
<path fill-rule="evenodd" fill="rgb(0%, 74.899292%, 100%)" fill-opacity="0.3" d="M 88.023438 166.800781 L 143.953125 176.789062 L 142.957031 201.757812 L 122.980469 243.707031 L 64.050781 202.757812 Z M 88.023438 166.800781 "/>
<path fill-rule="evenodd" fill="rgb(13.299561%, 54.499817%, 13.299561%)" fill-opacity="0.3" d="M 32.089844 191.769531 L 64.050781 202.757812 L 100.007812 226.730469 L 122.980469 243.707031 L 67.046875 223.730469 Z M 32.089844 191.769531 "/>
<path fill-rule="evenodd" fill="rgb(59.999084%, 19.599915%, 79.998779%)" fill-opacity="0.3" d="M 191.898438 243.707031 L 166.925781 226.730469 L 122.980469 243.707031 Z M 191.898438 243.707031 "/>
<path fill-rule="evenodd" fill="rgb(93.299866%, 50.999451%, 38.398743%)" fill-opacity="0.3" d="M 143.953125 176.789062 L 183.90625 164.804688 L 175.917969 193.769531 L 203.882812 210.746094 L 166.925781 226.730469 L 142.957031 201.757812 Z M 143.953125 176.789062 "/>
<path fill-rule="evenodd" fill="rgb(59.999084%, 19.599915%, 79.998779%)" fill-opacity="0.3" d="M 109.996094 106.871094 L 88.023438 166.800781 L 143.953125 176.789062 L 183.90625 164.804688 L 185.90625 130.84375 L 163.929688 118.859375 Z M 109.996094 106.871094 "/>
<path fill-rule="evenodd" fill="rgb(93.299866%, 50.999451%, 38.398743%)" fill-opacity="0.3" d="M 88.023438 166.800781 L 53.0625 168.796875 L 32.089844 191.769531 L 64.050781 202.757812 Z M 88.023438 166.800781 "/>
<path fill-rule="evenodd" fill="rgb(59.999084%, 19.599915%, 79.998779%)" fill-opacity="0.3" d="M 1.125 74.910156 L 36.082031 88.894531 L 57.058594 125.847656 L 48.070312 145.824219 L 29.09375 121.855469 Z M 1.125 74.910156 "/>
<path fill-rule="evenodd" fill="rgb(93.299866%, 50.999451%, 38.398743%)" fill-opacity="0.3" d="M 68.046875 80.902344 L 82.027344 95.886719 L 122.980469 85.898438 L 109.996094 106.871094 L 57.058594 125.847656 Z M 68.046875 80.902344 "/>
<path fill-rule="evenodd" fill="rgb(93.299866%, 50.999451%, 38.398743%)" fill-opacity="0.3" d="M 193.894531 87.894531 L 163.929688 118.859375 L 185.90625 130.84375 L 210.875 105.875 Z M 193.894531 87.894531 "/>
<path fill-rule="evenodd" fill="rgb(59.999084%, 19.599915%, 79.998779%)" fill-opacity="0.3" d="M 122.980469 85.898438 L 140.957031 52.9375 L 161.933594 62.925781 Z M 122.980469 85.898438 "/>
<path fill-rule="evenodd" fill="rgb(93.299866%, 50.999451%, 38.398743%)" fill-opacity="0.3" d="M 131.96875 18.976562 L 162.933594 42.949219 L 187.902344 39.953125 L 177.914062 1 L 151.945312 13.984375 Z M 131.96875 18.976562 "/>
<path fill-rule="evenodd" fill="rgb(93.299866%, 50.999451%, 38.398743%)" fill-opacity="0.3" d="M 67.046875 14.980469 L 67.046875 43.949219 L 86.023438 68.917969 L 116.988281 63.921875 L 98.007812 30.964844 Z M 67.046875 14.980469 "/>
<path fill-rule="evenodd" fill="rgb(93.299866%, 50.999451%, 38.398743%)" fill-opacity="0.3" d="M 23.097656 16.980469 L 44.074219 30.964844 L 39.082031 61.925781 L 1.125 74.910156 Z M 23.097656 16.980469 "/>
<path fill="none" stroke-width="0.4" stroke-linecap="butt" stroke-linejoin="round" stroke="rgb(0%, 0%, 0%)" stroke-opacity="1" stroke-miterlimit="10" d="M 169.00143 220.001633 L 137.999533 214.999561 " transform="matrix(0.998805, 0, 0, -0.998805, -51.811155, 283.660558)"/>
<path fill="none" stroke-width="0.4" stroke-linecap="butt" stroke-linejoin="round" stroke="rgb(0%, 0%, 0%)" stroke-opacity="1" stroke-miterlimit="10" d="M 119.000262 60.001804 L 84.001399 92.000988 " transform="matrix(0.998805, 0, 0, -0.998805, -51.811155, 283.660558)"/>
<path fill="none" stroke-width="0.4" stroke-linecap="butt" stroke-linejoin="round" stroke="rgb(0%, 0%, 0%)" stroke-opacity="1" stroke-miterlimit="10" d="M 119.000262 60.001804 L 175.000788 40.001337 " transform="matrix(0.998805, 0, 0, -0.998805, -51.811155, 283.660558)"/>
<path fill="none" stroke-width="0.4" stroke-linecap="butt" stroke-linejoin="round" stroke="rgb(0%, 0%, 0%)" stroke-opacity="1" stroke-miterlimit="10" d="M 119.000262 60.001804 L 152.000642 56.998214 " transform="matrix(0.998805, 0, 0, -0.998805, -51.811155, 283.660558)"/>
<path fill="none" stroke-width="0.4" stroke-linecap="butt" stroke-linejoin="round" stroke="rgb(0%, 0%, 0%)" stroke-opacity="1" stroke-miterlimit="10" d="M 119.000262 60.001804 L 116.000583 80.999557 " transform="matrix(0.998805, 0, 0, -0.998805, -51.811155, 283.660558)"/>
<g clip-path="url(#clip-0)">
<path fill="none" stroke-width="0.4" stroke-linecap="butt" stroke-linejoin="round" stroke="rgb(0%, 0%, 0%)" stroke-opacity="1" stroke-miterlimit="10" d="M 52.999501 209.000203 L 81.00172 161.998713 " transform="matrix(0.998805, 0, 0, -0.998805, -51.811155, 283.660558)"/>
</g>
<g clip-path="url(#clip-1)">
<path fill="none" stroke-width="0.4" stroke-linecap="butt" stroke-linejoin="round" stroke="rgb(0%, 0%, 0%)" stroke-opacity="1" stroke-miterlimit="10" d="M 52.999501 209.000203 L 87.998364 194.999093 " transform="matrix(0.998805, 0, 0, -0.998805, -51.811155, 283.660558)"/>
</g>
<g clip-path="url(#clip-2)">
<path fill="none" stroke-width="0.4" stroke-linecap="butt" stroke-linejoin="round" stroke="rgb(0%, 0%, 0%)" stroke-opacity="1" stroke-miterlimit="10" d="M 52.999501 209.000203 L 91.001954 222.000115 " transform="matrix(0.998805, 0, 0, -0.998805, -51.811155, 283.660558)"/>
</g>
<g clip-path="url(#clip-3)">
<path fill="none" stroke-width="0.4" stroke-linecap="butt" stroke-linejoin="round" stroke="rgb(0%, 0%, 0%)" stroke-opacity="1" stroke-miterlimit="10" d="M 52.999501 209.000203 L 74.998451 266.999212 " transform="matrix(0.998805, 0, 0, -0.998805, -51.811155, 283.660558)"/>
</g>
<g clip-path="url(#clip-4)">
<path fill="none" stroke-width="0.4" stroke-linecap="butt" stroke-linejoin="round" stroke="rgb(0%, 0%, 0%)" stroke-opacity="1" stroke-miterlimit="10" d="M 52.999501 209.000203 L 84.001399 92.000988 " transform="matrix(0.998805, 0, 0, -0.998805, -51.811155, 283.660558)"/>
</g>
<path fill="none" stroke-width="0.4" stroke-linecap="butt" stroke-linejoin="round" stroke="rgb(0%, 0%, 0%)" stroke-opacity="1" stroke-miterlimit="10" d="M 215.001723 240.999386 L 183.999825 265.000729 " transform="matrix(0.998805, 0, 0, -0.998805, -51.811155, 283.660558)"/>
<path fill="none" stroke-width="0.4" stroke-linecap="butt" stroke-linejoin="round" stroke="rgb(0%, 0%, 0%)" stroke-opacity="1" stroke-miterlimit="10" d="M 215.001723 240.999386 L 192.998863 230.999152 " transform="matrix(0.998805, 0, 0, -0.998805, -51.811155, 283.660558)"/>
<path fill="none" stroke-width="0.4" stroke-linecap="butt" stroke-linejoin="round" stroke="rgb(0%, 0%, 0%)" stroke-opacity="1" stroke-miterlimit="10" d="M 215.001723 240.999386 L 214.000527 220.998919 " transform="matrix(0.998805, 0, 0, -0.998805, -51.811155, 283.660558)"/>
<path fill="none" stroke-width="0.4" stroke-linecap="butt" stroke-linejoin="round" stroke="rgb(0%, 0%, 0%)" stroke-opacity="1" stroke-miterlimit="10" d="M 215.001723 240.999386 L 241.001549 222.000115 " transform="matrix(0.998805, 0, 0, -0.998805, -51.811155, 283.660558)"/>
<path fill="none" stroke-width="0.4" stroke-linecap="butt" stroke-linejoin="round" stroke="rgb(0%, 0%, 0%)" stroke-opacity="1" stroke-miterlimit="10" d="M 215.001723 240.999386 L 240.000352 243.999065 " transform="matrix(0.998805, 0, 0, -0.998805, -51.811155, 283.660558)"/>
<path fill="none" stroke-width="0.4" stroke-linecap="butt" stroke-linejoin="round" stroke="rgb(0%, 0%, 0%)" stroke-opacity="1" stroke-miterlimit="10" d="M 215.001723 240.999386 L 204.000293 269.998891 " transform="matrix(0.998805, 0, 0, -0.998805, -51.811155, 283.660558)"/>
<g clip-path="url(#clip-5)">
<path fill="none" stroke-width="0.4" stroke-linecap="butt" stroke-linejoin="round" stroke="rgb(0%, 0%, 0%)" stroke-opacity="1" stroke-miterlimit="10" d="M 263.000499 177.998305 L 245.99971 196.00029 " transform="matrix(0.998805, 0, 0, -0.998805, -51.811155, 283.660558)"/>
</g>
<g clip-path="url(#clip-6)">
<path fill="none" stroke-width="0.4" stroke-linecap="butt" stroke-linejoin="round" stroke="rgb(0%, 0%, 0%)" stroke-opacity="1" stroke-miterlimit="10" d="M 263.000499 177.998305 L 238.00187 152.999676 " transform="matrix(0.998805, 0, 0, -0.998805, -51.811155, 283.660558)"/>
</g>
<path fill="none" stroke-width="0.4" stroke-linecap="butt" stroke-linejoin="round" stroke="rgb(0%, 0%, 0%)" stroke-opacity="1" stroke-miterlimit="10" d="M 215.999009 164.998392 L 175.000788 197.998772 " transform="matrix(0.998805, 0, 0, -0.998805, -51.811155, 283.660558)"/>
<path fill="none" stroke-width="0.4" stroke-linecap="butt" stroke-linejoin="round" stroke="rgb(0%, 0%, 0%)" stroke-opacity="1" stroke-miterlimit="10" d="M 215.999009 164.998392 L 162.000876 177.001019 " transform="matrix(0.998805, 0, 0, -0.998805, -51.811155, 283.660558)"/>
<path fill="none" stroke-width="0.4" stroke-linecap="butt" stroke-linejoin="round" stroke="rgb(0%, 0%, 0%)" stroke-opacity="1" stroke-miterlimit="10" d="M 215.999009 164.998392 L 198.000935 126.99985 " transform="matrix(0.998805, 0, 0, -0.998805, -51.811155, 283.660558)"/>
<path fill="none" stroke-width="0.4" stroke-linecap="butt" stroke-linejoin="round" stroke="rgb(0%, 0%, 0%)" stroke-opacity="1" stroke-miterlimit="10" d="M 215.999009 164.998392 L 238.00187 152.999676 " transform="matrix(0.998805, 0, 0, -0.998805, -51.811155, 283.660558)"/>
<path fill="none" stroke-width="0.4" stroke-linecap="butt" stroke-linejoin="round" stroke="rgb(0%, 0%, 0%)" stroke-opacity="1" stroke-miterlimit="10" d="M 215.999009 164.998392 L 245.99971 196.00029 " transform="matrix(0.998805, 0, 0, -0.998805, -51.811155, 283.660558)"/>
<path fill="none" stroke-width="0.4" stroke-linecap="butt" stroke-linejoin="round" stroke="rgb(0%, 0%, 0%)" stroke-opacity="1" stroke-miterlimit="10" d="M 215.999009 164.998392 L 214.000527 220.998919 " transform="matrix(0.998805, 0, 0, -0.998805, -51.811155, 283.660558)"/>
<path fill="none" stroke-width="0.4" stroke-linecap="butt" stroke-linejoin="round" stroke="rgb(0%, 0%, 0%)" stroke-opacity="1" stroke-miterlimit="10" d="M 214.000527 220.998919 L 245.99971 196.00029 " transform="matrix(0.998805, 0, 0, -0.998805, -51.811155, 283.660558)"/>
<path fill="none" stroke-width="0.4" stroke-linecap="butt" stroke-linejoin="round" stroke="rgb(0%, 0%, 0%)" stroke-opacity="1" stroke-miterlimit="10" d="M 214.000527 220.998919 L 241.001549 222.000115 " transform="matrix(0.998805, 0, 0, -0.998805, -51.811155, 283.660558)"/>
<path fill="none" stroke-width="0.4" stroke-linecap="butt" stroke-linejoin="round" stroke="rgb(0%, 0%, 0%)" stroke-opacity="1" stroke-miterlimit="10" d="M 214.000527 220.998919 L 192.998863 230.999152 " transform="matrix(0.998805, 0, 0, -0.998805, -51.811155, 283.660558)"/>
<path fill="none" stroke-width="0.4" stroke-linecap="butt" stroke-linejoin="round" stroke="rgb(0%, 0%, 0%)" stroke-opacity="1" stroke-miterlimit="10" d="M 214.000527 220.998919 L 175.000788 197.998772 " transform="matrix(0.998805, 0, 0, -0.998805, -51.811155, 283.660558)"/>
<path fill="none" stroke-width="0.4" stroke-linecap="butt" stroke-linejoin="round" stroke="rgb(0%, 0%, 0%)" stroke-opacity="1" stroke-miterlimit="10" d="M 214.000527 220.998919 L 215.999009 164.998392 " transform="matrix(0.998805, 0, 0, -0.998805, -51.811155, 283.660558)"/>
<path fill="none" stroke-width="0.4" stroke-linecap="butt" stroke-linejoin="round" stroke="rgb(0%, 0%, 0%)" stroke-opacity="1" stroke-miterlimit="10" d="M 240.000352 243.999065 L 230.000118 282.998803 " transform="matrix(0.998805, 0, 0, -0.998805, -51.811155, 283.660558)"/>
<path fill="none" stroke-width="0.4" stroke-linecap="butt" stroke-linejoin="round" stroke="rgb(0%, 0%, 0%)" stroke-opacity="1" stroke-miterlimit="10" d="M 240.000352 243.999065 L 204.000293 269.998891 " transform="matrix(0.998805, 0, 0, -0.998805, -51.811155, 283.660558)"/>
<path fill="none" stroke-width="0.4" stroke-linecap="butt" stroke-linejoin="round" stroke="rgb(0%, 0%, 0%)" stroke-opacity="1" stroke-miterlimit="10" d="M 240.000352 243.999065 L 241.001549 222.000115 " transform="matrix(0.998805, 0, 0, -0.998805, -51.811155, 283.660558)"/>
<path fill="none" stroke-width="0.4" stroke-linecap="butt" stroke-linejoin="round" stroke="rgb(0%, 0%, 0%)" stroke-opacity="1" stroke-miterlimit="10" d="M 241.001549 222.000115 L 240.000352 243.999065 " transform="matrix(0.998805, 0, 0, -0.998805, -51.811155, 283.660558)"/>
<path fill="none" stroke-width="0.4" stroke-linecap="butt" stroke-linejoin="round" stroke="rgb(0%, 0%, 0%)" stroke-opacity="1" stroke-miterlimit="10" d="M 241.001549 222.000115 L 245.99971 196.00029 " transform="matrix(0.998805, 0, 0, -0.998805, -51.811155, 283.660558)"/>
<path fill="none" stroke-width="0.4" stroke-linecap="butt" stroke-linejoin="round" stroke="rgb(0%, 0%, 0%)" stroke-opacity="1" stroke-miterlimit="10" d="M 245.99971 196.00029 L 238.00187 152.999676 " transform="matrix(0.998805, 0, 0, -0.998805, -51.811155, 283.660558)"/>
<path fill="none" stroke-width="0.4" stroke-linecap="butt" stroke-linejoin="round" stroke="rgb(0%, 0%, 0%)" stroke-opacity="1" stroke-miterlimit="10" d="M 245.99971 196.00029 L 241.001549 222.000115 " transform="matrix(0.998805, 0, 0, -0.998805, -51.811155, 283.660558)"/>
<path fill="none" stroke-width="0.4" stroke-linecap="butt" stroke-linejoin="round" stroke="rgb(0%, 0%, 0%)" stroke-opacity="1" stroke-miterlimit="10" d="M 169.00143 220.001633 L 175.000788 197.998772 " transform="matrix(0.998805, 0, 0, -0.998805, -51.811155, 283.660558)"/>
<path fill="none" stroke-width="0.4" stroke-linecap="butt" stroke-linejoin="round" stroke="rgb(0%, 0%, 0%)" stroke-opacity="1" stroke-miterlimit="10" d="M 169.00143 220.001633 L 192.998863 230.999152 " transform="matrix(0.998805, 0, 0, -0.998805, -51.811155, 283.660558)"/>
<path fill="none" stroke-width="0.4" stroke-linecap="butt" stroke-linejoin="round" stroke="rgb(0%, 0%, 0%)" stroke-opacity="1" stroke-miterlimit="10" d="M 169.00143 220.001633 L 183.999825 265.000729 " transform="matrix(0.998805, 0, 0, -0.998805, -51.811155, 283.660558)"/>
<path fill="none" stroke-width="0.4" stroke-linecap="butt" stroke-linejoin="round" stroke="rgb(0%, 0%, 0%)" stroke-opacity="1" stroke-miterlimit="10" d="M 169.00143 220.001633 L 149.998249 252.998102 " transform="matrix(0.998805, 0, 0, -0.998805, -51.811155, 283.660558)"/>
<path fill="none" stroke-width="0.4" stroke-linecap="butt" stroke-linejoin="round" stroke="rgb(0%, 0%, 0%)" stroke-opacity="1" stroke-miterlimit="10" d="M 162.000876 177.001019 L 140.001926 116.999617 " transform="matrix(0.998805, 0, 0, -0.998805, -51.811155, 283.660558)"/>
<path fill="none" stroke-width="0.4" stroke-linecap="butt" stroke-linejoin="round" stroke="rgb(0%, 0%, 0%)" stroke-opacity="1" stroke-miterlimit="10" d="M 162.000876 177.001019 L 198.000935 126.99985 " transform="matrix(0.998805, 0, 0, -0.998805, -51.811155, 283.660558)"/>
<path fill="none" stroke-width="0.4" stroke-linecap="butt" stroke-linejoin="round" stroke="rgb(0%, 0%, 0%)" stroke-opacity="1" stroke-miterlimit="10" d="M 162.000876 177.001019 L 175.000788 197.998772 " transform="matrix(0.998805, 0, 0, -0.998805, -51.811155, 283.660558)"/>
<path fill="none" stroke-width="0.4" stroke-linecap="butt" stroke-linejoin="round" stroke="rgb(0%, 0%, 0%)" stroke-opacity="1" stroke-miterlimit="10" d="M 162.000876 177.001019 L 133.998657 187.998538 " transform="matrix(0.998805, 0, 0, -0.998805, -51.811155, 283.660558)"/>
<path fill="none" stroke-width="0.4" stroke-linecap="butt" stroke-linejoin="round" stroke="rgb(0%, 0%, 0%)" stroke-opacity="1" stroke-miterlimit="10" d="M 162.000876 177.001019 L 109.000028 158.001748 " transform="matrix(0.998805, 0, 0, -0.998805, -51.811155, 283.660558)"/>
<path fill="none" stroke-width="0.4" stroke-linecap="butt" stroke-linejoin="round" stroke="rgb(0%, 0%, 0%)" stroke-opacity="1" stroke-miterlimit="10" d="M 198.000935 126.99985 L 162.000876 177.001019 " transform="matrix(0.998805, 0, 0, -0.998805, -51.811155, 283.660558)"/>
<path fill="none" stroke-width="0.4" stroke-linecap="butt" stroke-linejoin="round" stroke="rgb(0%, 0%, 0%)" stroke-opacity="1" stroke-miterlimit="10" d="M 198.000935 126.99985 L 140.001926 116.999617 " transform="matrix(0.998805, 0, 0, -0.998805, -51.811155, 283.660558)"/>
<path fill="none" stroke-width="0.4" stroke-linecap="butt" stroke-linejoin="round" stroke="rgb(0%, 0%, 0%)" stroke-opacity="1" stroke-miterlimit="10" d="M 198.000935 126.99985 L 195.998542 106.999383 " transform="matrix(0.998805, 0, 0, -0.998805, -51.811155, 283.660558)"/>
<path fill="none" stroke-width="0.4" stroke-linecap="butt" stroke-linejoin="round" stroke="rgb(0%, 0%, 0%)" stroke-opacity="1" stroke-miterlimit="10" d="M 198.000935 126.99985 L 235.999476 118.998099 " transform="matrix(0.998805, 0, 0, -0.998805, -51.811155, 283.660558)"/>
<path fill="none" stroke-width="0.4" stroke-linecap="butt" stroke-linejoin="round" stroke="rgb(0%, 0%, 0%)" stroke-opacity="1" stroke-miterlimit="10" d="M 198.000935 126.99985 L 238.00187 152.999676 " transform="matrix(0.998805, 0, 0, -0.998805, -51.811155, 283.660558)"/>
<path fill="none" stroke-width="0.4" stroke-linecap="butt" stroke-linejoin="round" stroke="rgb(0%, 0%, 0%)" stroke-opacity="1" stroke-miterlimit="10" d="M 235.999476 118.998099 L 198.000935 126.99985 " transform="matrix(0.998805, 0, 0, -0.998805, -51.811155, 283.660558)"/>
<path fill="none" stroke-width="0.4" stroke-linecap="butt" stroke-linejoin="round" stroke="rgb(0%, 0%, 0%)" stroke-opacity="1" stroke-miterlimit="10" d="M 235.999476 118.998099 L 195.998542 106.999383 " transform="matrix(0.998805, 0, 0, -0.998805, -51.811155, 283.660558)"/>
<path fill="none" stroke-width="0.4" stroke-linecap="butt" stroke-linejoin="round" stroke="rgb(0%, 0%, 0%)" stroke-opacity="1" stroke-miterlimit="10" d="M 235.999476 118.998099 L 228.001636 89.998595 " transform="matrix(0.998805, 0, 0, -0.998805, -51.811155, 283.660558)"/>
<path fill="none" stroke-width="0.4" stroke-linecap="butt" stroke-linejoin="round" stroke="rgb(0%, 0%, 0%)" stroke-opacity="1" stroke-miterlimit="10" d="M 235.999476 118.998099 L 238.00187 152.999676 " transform="matrix(0.998805, 0, 0, -0.998805, -51.811155, 283.660558)"/>
<path fill="none" stroke-width="0.4" stroke-linecap="butt" stroke-linejoin="round" stroke="rgb(0%, 0%, 0%)" stroke-opacity="1" stroke-miterlimit="10" d="M 255.999944 73.001717 L 218.998688 56.998214 " transform="matrix(0.998805, 0, 0, -0.998805, -51.811155, 283.660558)"/>
<path fill="none" stroke-width="0.4" stroke-linecap="butt" stroke-linejoin="round" stroke="rgb(0%, 0%, 0%)" stroke-opacity="1" stroke-miterlimit="10" d="M 255.999944 73.001717 L 244.001228 40.001337 " transform="matrix(0.998805, 0, 0, -0.998805, -51.811155, 283.660558)"/>
<path fill="none" stroke-width="0.4" stroke-linecap="butt" stroke-linejoin="round" stroke="rgb(0%, 0%, 0%)" stroke-opacity="1" stroke-miterlimit="10" d="M 255.999944 73.001717 L 228.001636 89.998595 " transform="matrix(0.998805, 0, 0, -0.998805, -51.811155, 283.660558)"/>
<path fill="none" stroke-width="0.4" stroke-linecap="butt" stroke-linejoin="round" stroke="rgb(0%, 0%, 0%)" stroke-opacity="1" stroke-miterlimit="10" d="M 218.998688 56.998214 L 175.000788 40.001337 " transform="matrix(0.998805, 0, 0, -0.998805, -51.811155, 283.660558)"/>
<path fill="none" stroke-width="0.4" stroke-linecap="butt" stroke-linejoin="round" stroke="rgb(0%, 0%, 0%)" stroke-opacity="1" stroke-miterlimit="10" d="M 218.998688 56.998214 L 244.001228 40.001337 " transform="matrix(0.998805, 0, 0, -0.998805, -51.811155, 283.660558)"/>
<path fill="none" stroke-width="0.4" stroke-linecap="butt" stroke-linejoin="round" stroke="rgb(0%, 0%, 0%)" stroke-opacity="1" stroke-miterlimit="10" d="M 218.998688 56.998214 L 255.999944 73.001717 " transform="matrix(0.998805, 0, 0, -0.998805, -51.811155, 283.660558)"/>
<path fill="none" stroke-width="0.4" stroke-linecap="butt" stroke-linejoin="round" stroke="rgb(0%, 0%, 0%)" stroke-opacity="1" stroke-miterlimit="10" d="M 218.998688 56.998214 L 228.001636 89.998595 " transform="matrix(0.998805, 0, 0, -0.998805, -51.811155, 283.660558)"/>
<path fill="none" stroke-width="0.4" stroke-linecap="butt" stroke-linejoin="round" stroke="rgb(0%, 0%, 0%)" stroke-opacity="1" stroke-miterlimit="10" d="M 218.998688 56.998214 L 195.001256 82.000754 " transform="matrix(0.998805, 0, 0, -0.998805, -51.811155, 283.660558)"/>
<path fill="none" stroke-width="0.4" stroke-linecap="butt" stroke-linejoin="round" stroke="rgb(0%, 0%, 0%)" stroke-opacity="1" stroke-miterlimit="10" d="M 244.001228 40.001337 L 218.998688 56.998214 " transform="matrix(0.998805, 0, 0, -0.998805, -51.811155, 283.660558)"/>
<path fill="none" stroke-width="0.4" stroke-linecap="butt" stroke-linejoin="round" stroke="rgb(0%, 0%, 0%)" stroke-opacity="1" stroke-miterlimit="10" d="M 244.001228 40.001337 L 175.000788 40.001337 " transform="matrix(0.998805, 0, 0, -0.998805, -51.811155, 283.660558)"/>
<path fill="none" stroke-width="0.4" stroke-linecap="butt" stroke-linejoin="round" stroke="rgb(0%, 0%, 0%)" stroke-opacity="1" stroke-miterlimit="10" d="M 175.000788 40.001337 L 195.001256 82.000754 " transform="matrix(0.998805, 0, 0, -0.998805, -51.811155, 283.660558)"/>
<path fill="none" stroke-width="0.4" stroke-linecap="butt" stroke-linejoin="round" stroke="rgb(0%, 0%, 0%)" stroke-opacity="1" stroke-miterlimit="10" d="M 175.000788 40.001337 L 162.000876 80.999557 " transform="matrix(0.998805, 0, 0, -0.998805, -51.811155, 283.660558)"/>
<path fill="none" stroke-width="0.4" stroke-linecap="butt" stroke-linejoin="round" stroke="rgb(0%, 0%, 0%)" stroke-opacity="1" stroke-miterlimit="10" d="M 175.000788 40.001337 L 152.000642 56.998214 " transform="matrix(0.998805, 0, 0, -0.998805, -51.811155, 283.660558)"/>
<path fill="none" stroke-width="0.4" stroke-linecap="butt" stroke-linejoin="round" stroke="rgb(0%, 0%, 0%)" stroke-opacity="1" stroke-miterlimit="10" d="M 175.000788 40.001337 L 244.001228 40.001337 " transform="matrix(0.998805, 0, 0, -0.998805, -51.811155, 283.660558)"/>
<path fill="none" stroke-width="0.4" stroke-linecap="butt" stroke-linejoin="round" stroke="rgb(0%, 0%, 0%)" stroke-opacity="1" stroke-miterlimit="10" d="M 140.001926 116.999617 L 195.998542 106.999383 " transform="matrix(0.998805, 0, 0, -0.998805, -51.811155, 283.660558)"/>
<path fill="none" stroke-width="0.4" stroke-linecap="butt" stroke-linejoin="round" stroke="rgb(0%, 0%, 0%)" stroke-opacity="1" stroke-miterlimit="10" d="M 140.001926 116.999617 L 109.000028 158.001748 " transform="matrix(0.998805, 0, 0, -0.998805, -51.811155, 283.660558)"/>
<path fill="none" stroke-width="0.4" stroke-linecap="butt" stroke-linejoin="round" stroke="rgb(0%, 0%, 0%)" stroke-opacity="1" stroke-miterlimit="10" d="M 140.001926 116.999617 L 104.999152 115.001134 " transform="matrix(0.998805, 0, 0, -0.998805, -51.811155, 283.660558)"/>
<path fill="none" stroke-width="0.4" stroke-linecap="butt" stroke-linejoin="round" stroke="rgb(0%, 0%, 0%)" stroke-opacity="1" stroke-miterlimit="10" d="M 140.001926 116.999617 L 116.000583 80.999557 " transform="matrix(0.998805, 0, 0, -0.998805, -51.811155, 283.660558)"/>
<path fill="none" stroke-width="0.4" stroke-linecap="butt" stroke-linejoin="round" stroke="rgb(0%, 0%, 0%)" stroke-opacity="1" stroke-miterlimit="10" d="M 140.001926 116.999617 L 162.000876 80.999557 " transform="matrix(0.998805, 0, 0, -0.998805, -51.811155, 283.660558)"/>
<path fill="none" stroke-width="0.4" stroke-linecap="butt" stroke-linejoin="round" stroke="rgb(0%, 0%, 0%)" stroke-opacity="1" stroke-miterlimit="10" d="M 109.000028 158.001748 L 120.001458 203.000845 " transform="matrix(0.998805, 0, 0, -0.998805, -51.811155, 283.660558)"/>
<path fill="none" stroke-width="0.4" stroke-linecap="butt" stroke-linejoin="round" stroke="rgb(0%, 0%, 0%)" stroke-opacity="1" stroke-miterlimit="10" d="M 109.000028 158.001748 L 87.998364 194.999093 " transform="matrix(0.998805, 0, 0, -0.998805, -51.811155, 283.660558)"/>
<path fill="none" stroke-width="0.4" stroke-linecap="butt" stroke-linejoin="round" stroke="rgb(0%, 0%, 0%)" stroke-opacity="1" stroke-miterlimit="10" d="M 109.000028 158.001748 L 81.00172 161.998713 " transform="matrix(0.998805, 0, 0, -0.998805, -51.811155, 283.660558)"/>
<path fill="none" stroke-width="0.4" stroke-linecap="butt" stroke-linejoin="round" stroke="rgb(0%, 0%, 0%)" stroke-opacity="1" stroke-miterlimit="10" d="M 109.000028 158.001748 L 100.000991 138.001281 " transform="matrix(0.998805, 0, 0, -0.998805, -51.811155, 283.660558)"/>
<path fill="none" stroke-width="0.4" stroke-linecap="butt" stroke-linejoin="round" stroke="rgb(0%, 0%, 0%)" stroke-opacity="1" stroke-miterlimit="10" d="M 109.000028 158.001748 L 104.999152 115.001134 " transform="matrix(0.998805, 0, 0, -0.998805, -51.811155, 283.660558)"/>
<path fill="none" stroke-width="0.4" stroke-linecap="butt" stroke-linejoin="round" stroke="rgb(0%, 0%, 0%)" stroke-opacity="1" stroke-miterlimit="10" d="M 109.000028 158.001748 L 140.001926 116.999617 " transform="matrix(0.998805, 0, 0, -0.998805, -51.811155, 283.660558)"/>
<path fill="none" stroke-width="0.4" stroke-linecap="butt" stroke-linejoin="round" stroke="rgb(0%, 0%, 0%)" stroke-opacity="1" stroke-miterlimit="10" d="M 109.000028 158.001748 L 133.998657 187.998538 " transform="matrix(0.998805, 0, 0, -0.998805, -51.811155, 283.660558)"/>
<path fill="none" stroke-width="0.4" stroke-linecap="butt" stroke-linejoin="round" stroke="rgb(0%, 0%, 0%)" stroke-opacity="1" stroke-miterlimit="10" d="M 230.000118 282.998803 L 204.000293 269.998891 " transform="matrix(0.998805, 0, 0, -0.998805, -51.811155, 283.660558)"/>
<path fill="none" stroke-width="0.4" stroke-linecap="butt" stroke-linejoin="round" stroke="rgb(0%, 0%, 0%)" stroke-opacity="1" stroke-miterlimit="10" d="M 204.000293 269.998891 L 230.000118 282.998803 " transform="matrix(0.998805, 0, 0, -0.998805, -51.811155, 283.660558)"/>
<path fill="none" stroke-width="0.4" stroke-linecap="butt" stroke-linejoin="round" stroke="rgb(0%, 0%, 0%)" stroke-opacity="1" stroke-miterlimit="10" d="M 204.000293 269.998891 L 183.999825 265.000729 " transform="matrix(0.998805, 0, 0, -0.998805, -51.811155, 283.660558)"/>
<path fill="none" stroke-width="0.4" stroke-linecap="butt" stroke-linejoin="round" stroke="rgb(0%, 0%, 0%)" stroke-opacity="1" stroke-miterlimit="10" d="M 183.999825 265.000729 L 204.000293 269.998891 " transform="matrix(0.998805, 0, 0, -0.998805, -51.811155, 283.660558)"/>
<path fill="none" stroke-width="0.4" stroke-linecap="butt" stroke-linejoin="round" stroke="rgb(0%, 0%, 0%)" stroke-opacity="1" stroke-miterlimit="10" d="M 183.999825 265.000729 L 149.998249 252.998102 " transform="matrix(0.998805, 0, 0, -0.998805, -51.811155, 283.660558)"/>
<path fill="none" stroke-width="0.4" stroke-linecap="butt" stroke-linejoin="round" stroke="rgb(0%, 0%, 0%)" stroke-opacity="1" stroke-miterlimit="10" d="M 183.999825 265.000729 L 192.998863 230.999152 " transform="matrix(0.998805, 0, 0, -0.998805, -51.811155, 283.660558)"/>
<path fill="none" stroke-width="0.4" stroke-linecap="butt" stroke-linejoin="round" stroke="rgb(0%, 0%, 0%)" stroke-opacity="1" stroke-miterlimit="10" d="M 149.998249 252.998102 L 183.999825 265.000729 " transform="matrix(0.998805, 0, 0, -0.998805, -51.811155, 283.660558)"/>
<path fill="none" stroke-width="0.4" stroke-linecap="butt" stroke-linejoin="round" stroke="rgb(0%, 0%, 0%)" stroke-opacity="1" stroke-miterlimit="10" d="M 149.998249 252.998102 L 119.000262 269.001605 " transform="matrix(0.998805, 0, 0, -0.998805, -51.811155, 283.660558)"/>
<path fill="none" stroke-width="0.4" stroke-linecap="butt" stroke-linejoin="round" stroke="rgb(0%, 0%, 0%)" stroke-opacity="1" stroke-miterlimit="10" d="M 149.998249 252.998102 L 119.000262 239.998189 " transform="matrix(0.998805, 0, 0, -0.998805, -51.811155, 283.660558)"/>
<path fill="none" stroke-width="0.4" stroke-linecap="butt" stroke-linejoin="round" stroke="rgb(0%, 0%, 0%)" stroke-opacity="1" stroke-miterlimit="10" d="M 149.998249 252.998102 L 137.999533 214.999561 " transform="matrix(0.998805, 0, 0, -0.998805, -51.811155, 283.660558)"/>
<path fill="none" stroke-width="0.4" stroke-linecap="butt" stroke-linejoin="round" stroke="rgb(0%, 0%, 0%)" stroke-opacity="1" stroke-miterlimit="10" d="M 119.000262 269.001605 L 96.000115 252.998102 " transform="matrix(0.998805, 0, 0, -0.998805, -51.811155, 283.660558)"/>
<path fill="none" stroke-width="0.4" stroke-linecap="butt" stroke-linejoin="round" stroke="rgb(0%, 0%, 0%)" stroke-opacity="1" stroke-miterlimit="10" d="M 119.000262 269.001605 L 119.000262 239.998189 " transform="matrix(0.998805, 0, 0, -0.998805, -51.811155, 283.660558)"/>
<path fill="none" stroke-width="0.4" stroke-linecap="butt" stroke-linejoin="round" stroke="rgb(0%, 0%, 0%)" stroke-opacity="1" stroke-miterlimit="10" d="M 119.000262 239.998189 L 120.001458 203.000845 " transform="matrix(0.998805, 0, 0, -0.998805, -51.811155, 283.660558)"/>
<path fill="none" stroke-width="0.4" stroke-linecap="butt" stroke-linejoin="round" stroke="rgb(0%, 0%, 0%)" stroke-opacity="1" stroke-miterlimit="10" d="M 119.000262 239.998189 L 137.999533 214.999561 " transform="matrix(0.998805, 0, 0, -0.998805, -51.811155, 283.660558)"/>
<path fill="none" stroke-width="0.4" stroke-linecap="butt" stroke-linejoin="round" stroke="rgb(0%, 0%, 0%)" stroke-opacity="1" stroke-miterlimit="10" d="M 119.000262 239.998189 L 119.000262 269.001605 " transform="matrix(0.998805, 0, 0, -0.998805, -51.811155, 283.660558)"/>
<path fill="none" stroke-width="0.4" stroke-linecap="butt" stroke-linejoin="round" stroke="rgb(0%, 0%, 0%)" stroke-opacity="1" stroke-miterlimit="10" d="M 119.000262 239.998189 L 96.000115 252.998102 " transform="matrix(0.998805, 0, 0, -0.998805, -51.811155, 283.660558)"/>
<path fill="none" stroke-width="0.4" stroke-linecap="butt" stroke-linejoin="round" stroke="rgb(0%, 0%, 0%)" stroke-opacity="1" stroke-miterlimit="10" d="M 119.000262 239.998189 L 91.001954 222.000115 " transform="matrix(0.998805, 0, 0, -0.998805, -51.811155, 283.660558)"/>
<path fill="none" stroke-width="0.4" stroke-linecap="butt" stroke-linejoin="round" stroke="rgb(0%, 0%, 0%)" stroke-opacity="1" stroke-miterlimit="10" d="M 96.000115 252.998102 L 74.998451 266.999212 " transform="matrix(0.998805, 0, 0, -0.998805, -51.811155, 283.660558)"/>
<path fill="none" stroke-width="0.4" stroke-linecap="butt" stroke-linejoin="round" stroke="rgb(0%, 0%, 0%)" stroke-opacity="1" stroke-miterlimit="10" d="M 96.000115 252.998102 L 91.001954 222.000115 " transform="matrix(0.998805, 0, 0, -0.998805, -51.811155, 283.660558)"/>
<path fill="none" stroke-width="0.4" stroke-linecap="butt" stroke-linejoin="round" stroke="rgb(0%, 0%, 0%)" stroke-opacity="1" stroke-miterlimit="10" d="M 91.001954 222.000115 L 96.000115 252.998102 " transform="matrix(0.998805, 0, 0, -0.998805, -51.811155, 283.660558)"/>
<path fill="none" stroke-width="0.4" stroke-linecap="butt" stroke-linejoin="round" stroke="rgb(0%, 0%, 0%)" stroke-opacity="1" stroke-miterlimit="10" d="M 91.001954 222.000115 L 74.998451 266.999212 " transform="matrix(0.998805, 0, 0, -0.998805, -51.811155, 283.660558)"/>
<path fill="none" stroke-width="0.4" stroke-linecap="butt" stroke-linejoin="round" stroke="rgb(0%, 0%, 0%)" stroke-opacity="1" stroke-miterlimit="10" d="M 91.001954 222.000115 L 87.998364 194.999093 " transform="matrix(0.998805, 0, 0, -0.998805, -51.811155, 283.660558)"/>
<path fill="none" stroke-width="0.4" stroke-linecap="butt" stroke-linejoin="round" stroke="rgb(0%, 0%, 0%)" stroke-opacity="1" stroke-miterlimit="10" d="M 91.001954 222.000115 L 120.001458 203.000845 " transform="matrix(0.998805, 0, 0, -0.998805, -51.811155, 283.660558)"/>
<path fill="none" stroke-width="0.4" stroke-linecap="butt" stroke-linejoin="round" stroke="rgb(0%, 0%, 0%)" stroke-opacity="1" stroke-miterlimit="10" d="M 87.998364 194.999093 L 120.001458 203.000845 " transform="matrix(0.998805, 0, 0, -0.998805, -51.811155, 283.660558)"/>
<path fill="none" stroke-width="0.4" stroke-linecap="butt" stroke-linejoin="round" stroke="rgb(0%, 0%, 0%)" stroke-opacity="1" stroke-miterlimit="10" d="M 87.998364 194.999093 L 91.001954 222.000115 " transform="matrix(0.998805, 0, 0, -0.998805, -51.811155, 283.660558)"/>
<path fill="none" stroke-width="0.4" stroke-linecap="butt" stroke-linejoin="round" stroke="rgb(0%, 0%, 0%)" stroke-opacity="1" stroke-miterlimit="10" d="M 87.998364 194.999093 L 81.00172 161.998713 " transform="matrix(0.998805, 0, 0, -0.998805, -51.811155, 283.660558)"/>
<path fill="none" stroke-width="0.4" stroke-linecap="butt" stroke-linejoin="round" stroke="rgb(0%, 0%, 0%)" stroke-opacity="1" stroke-miterlimit="10" d="M 81.00172 161.998713 L 87.998364 194.999093 " transform="matrix(0.998805, 0, 0, -0.998805, -51.811155, 283.660558)"/>
<path fill="none" stroke-width="0.4" stroke-linecap="butt" stroke-linejoin="round" stroke="rgb(0%, 0%, 0%)" stroke-opacity="1" stroke-miterlimit="10" d="M 81.00172 161.998713 L 84.001399 92.000988 " transform="matrix(0.998805, 0, 0, -0.998805, -51.811155, 283.660558)"/>
<path fill="none" stroke-width="0.4" stroke-linecap="butt" stroke-linejoin="round" stroke="rgb(0%, 0%, 0%)" stroke-opacity="1" stroke-miterlimit="10" d="M 81.00172 161.998713 L 100.000991 138.001281 " transform="matrix(0.998805, 0, 0, -0.998805, -51.811155, 283.660558)"/>
<path fill="none" stroke-width="0.4" stroke-linecap="butt" stroke-linejoin="round" stroke="rgb(0%, 0%, 0%)" stroke-opacity="1" stroke-miterlimit="10" d="M 100.000991 138.001281 L 104.999152 115.001134 " transform="matrix(0.998805, 0, 0, -0.998805, -51.811155, 283.660558)"/>
<path fill="none" stroke-width="0.4" stroke-linecap="butt" stroke-linejoin="round" stroke="rgb(0%, 0%, 0%)" stroke-opacity="1" stroke-miterlimit="10" d="M 100.000991 138.001281 L 81.00172 161.998713 " transform="matrix(0.998805, 0, 0, -0.998805, -51.811155, 283.660558)"/>
<path fill="none" stroke-width="0.4" stroke-linecap="butt" stroke-linejoin="round" stroke="rgb(0%, 0%, 0%)" stroke-opacity="1" stroke-miterlimit="10" d="M 100.000991 138.001281 L 84.001399 92.000988 " transform="matrix(0.998805, 0, 0, -0.998805, -51.811155, 283.660558)"/>
<path fill="none" stroke-width="0.4" stroke-linecap="butt" stroke-linejoin="round" stroke="rgb(0%, 0%, 0%)" stroke-opacity="1" stroke-miterlimit="10" d="M 104.999152 115.001134 L 100.000991 138.001281 " transform="matrix(0.998805, 0, 0, -0.998805, -51.811155, 283.660558)"/>
<path fill="none" stroke-width="0.4" stroke-linecap="butt" stroke-linejoin="round" stroke="rgb(0%, 0%, 0%)" stroke-opacity="1" stroke-miterlimit="10" d="M 104.999152 115.001134 L 84.001399 92.000988 " transform="matrix(0.998805, 0, 0, -0.998805, -51.811155, 283.660558)"/>
<path fill="none" stroke-width="0.4" stroke-linecap="butt" stroke-linejoin="round" stroke="rgb(0%, 0%, 0%)" stroke-opacity="1" stroke-miterlimit="10" d="M 104.999152 115.001134 L 116.000583 80.999557 " transform="matrix(0.998805, 0, 0, -0.998805, -51.811155, 283.660558)"/>
<path fill="none" stroke-width="0.4" stroke-linecap="butt" stroke-linejoin="round" stroke="rgb(0%, 0%, 0%)" stroke-opacity="1" stroke-miterlimit="10" d="M 84.001399 92.000988 L 116.000583 80.999557 " transform="matrix(0.998805, 0, 0, -0.998805, -51.811155, 283.660558)"/>
<path fill="none" stroke-width="0.4" stroke-linecap="butt" stroke-linejoin="round" stroke="rgb(0%, 0%, 0%)" stroke-opacity="1" stroke-miterlimit="10" d="M 84.001399 92.000988 L 104.999152 115.001134 " transform="matrix(0.998805, 0, 0, -0.998805, -51.811155, 283.660558)"/>
<path fill="none" stroke-width="0.4" stroke-linecap="butt" stroke-linejoin="round" stroke="rgb(0%, 0%, 0%)" stroke-opacity="1" stroke-miterlimit="10" d="M 116.000583 80.999557 L 162.000876 80.999557 " transform="matrix(0.998805, 0, 0, -0.998805, -51.811155, 283.660558)"/>
<path fill="none" stroke-width="0.4" stroke-linecap="butt" stroke-linejoin="round" stroke="rgb(0%, 0%, 0%)" stroke-opacity="1" stroke-miterlimit="10" d="M 116.000583 80.999557 L 84.001399 92.000988 " transform="matrix(0.998805, 0, 0, -0.998805, -51.811155, 283.660558)"/>
<path fill="none" stroke-width="0.4" stroke-linecap="butt" stroke-linejoin="round" stroke="rgb(0%, 0%, 0%)" stroke-opacity="1" stroke-miterlimit="10" d="M 116.000583 80.999557 L 152.000642 56.998214 " transform="matrix(0.998805, 0, 0, -0.998805, -51.811155, 283.660558)"/>
<path fill="none" stroke-width="0.4" stroke-linecap="butt" stroke-linejoin="round" stroke="rgb(0%, 0%, 0%)" stroke-opacity="1" stroke-miterlimit="10" d="M 195.998542 106.999383 L 162.000876 80.999557 " transform="matrix(0.998805, 0, 0, -0.998805, -51.811155, 283.660558)"/>
<path fill="none" stroke-width="0.4" stroke-linecap="butt" stroke-linejoin="round" stroke="rgb(0%, 0%, 0%)" stroke-opacity="1" stroke-miterlimit="10" d="M 195.998542 106.999383 L 195.001256 82.000754 " transform="matrix(0.998805, 0, 0, -0.998805, -51.811155, 283.660558)"/>
<path fill="none" stroke-width="0.4" stroke-linecap="butt" stroke-linejoin="round" stroke="rgb(0%, 0%, 0%)" stroke-opacity="1" stroke-miterlimit="10" d="M 195.998542 106.999383 L 228.001636 89.998595 " transform="matrix(0.998805, 0, 0, -0.998805, -51.811155, 283.660558)"/>
<path fill="none" stroke-width="0.4" stroke-linecap="butt" stroke-linejoin="round" stroke="rgb(0%, 0%, 0%)" stroke-opacity="1" stroke-miterlimit="10" d="M 195.001256 82.000754 L 195.998542 106.999383 " transform="matrix(0.998805, 0, 0, -0.998805, -51.811155, 283.660558)"/>
<path fill="none" stroke-width="0.4" stroke-linecap="butt" stroke-linejoin="round" stroke="rgb(0%, 0%, 0%)" stroke-opacity="1" stroke-miterlimit="10" d="M 195.001256 82.000754 L 162.000876 80.999557 " transform="matrix(0.998805, 0, 0, -0.998805, -51.811155, 283.660558)"/>
<path fill="none" stroke-width="0.4" stroke-linecap="butt" stroke-linejoin="round" stroke="rgb(0%, 0%, 0%)" stroke-opacity="1" stroke-miterlimit="10" d="M 195.001256 82.000754 L 228.001636 89.998595 " transform="matrix(0.998805, 0, 0, -0.998805, -51.811155, 283.660558)"/>
<path fill="none" stroke-width="0.4" stroke-linecap="butt" stroke-linejoin="round" stroke="rgb(0%, 0%, 0%)" stroke-opacity="1" stroke-miterlimit="10" d="M 162.000876 80.999557 L 152.000642 56.998214 " transform="matrix(0.998805, 0, 0, -0.998805, -51.811155, 283.660558)"/>
<path fill="none" stroke-width="0.4" stroke-linecap="butt" stroke-linejoin="round" stroke="rgb(0%, 0%, 0%)" stroke-opacity="1" stroke-miterlimit="10" d="M 162.000876 80.999557 L 195.001256 82.000754 " transform="matrix(0.998805, 0, 0, -0.998805, -51.811155, 283.660558)"/>
<path fill="none" stroke-width="0.4" stroke-linecap="butt" stroke-linejoin="round" stroke="rgb(0%, 0%, 0%)" stroke-opacity="1" stroke-miterlimit="10" d="M 152.000642 56.998214 L 162.000876 80.999557 " transform="matrix(0.998805, 0, 0, -0.998805, -51.811155, 283.660558)"/>
<path fill="none" stroke-width="0.4" stroke-linecap="butt" stroke-linejoin="round" stroke="rgb(0%, 0%, 0%)" stroke-opacity="1" stroke-miterlimit="10" d="M 137.999533 214.999561 L 120.001458 203.000845 " transform="matrix(0.998805, 0, 0, -0.998805, -51.811155, 283.660558)"/>
<path fill="none" stroke-width="0.4" stroke-linecap="butt" stroke-linejoin="round" stroke="rgb(0%, 0%, 0%)" stroke-opacity="1" stroke-miterlimit="10" d="M 137.999533 214.999561 L 133.998657 187.998538 " transform="matrix(0.998805, 0, 0, -0.998805, -51.811155, 283.660558)"/>
<path fill="none" stroke-width="0.4" stroke-linecap="butt" stroke-linejoin="round" stroke="rgb(0%, 0%, 0%)" stroke-opacity="1" stroke-miterlimit="10" d="M 137.999533 214.999561 L 175.000788 197.998772 " transform="matrix(0.998805, 0, 0, -0.998805, -51.811155, 283.660558)"/>
<path fill="none" stroke-width="0.4" stroke-linecap="butt" stroke-linejoin="round" stroke="rgb(0%, 0%, 0%)" stroke-opacity="1" stroke-miterlimit="10" d="M 120.001458 203.000845 L 133.998657 187.998538 " transform="matrix(0.998805, 0, 0, -0.998805, -51.811155, 283.660558)"/>
<path fill="none" stroke-width="0.4" stroke-linecap="butt" stroke-linejoin="round" stroke="rgb(0%, 0%, 0%)" stroke-opacity="1" stroke-miterlimit="10" d="M 120.001458 203.000845 L 137.999533 214.999561 " transform="matrix(0.998805, 0, 0, -0.998805, -51.811155, 283.660558)"/>
<path fill="none" stroke-width="0.4" stroke-linecap="butt" stroke-linejoin="round" stroke="rgb(0%, 0%, 0%)" stroke-opacity="1" stroke-miterlimit="10" d="M 133.998657 187.998538 L 175.000788 197.998772 " transform="matrix(0.998805, 0, 0, -0.998805, -51.811155, 283.660558)"/>
<path fill="none" stroke-width="0.4" stroke-linecap="butt" stroke-linejoin="round" stroke="rgb(0%, 0%, 0%)" stroke-opacity="1" stroke-miterlimit="10" d="M 133.998657 187.998538 L 120.001458 203.000845 " transform="matrix(0.998805, 0, 0, -0.998805, -51.811155, 283.660558)"/>
<path fill="none" stroke-width="0.4" stroke-linecap="butt" stroke-linejoin="round" stroke="rgb(0%, 0%, 0%)" stroke-opacity="1" stroke-miterlimit="10" d="M 175.000788 197.998772 L 192.998863 230.999152 " transform="matrix(0.998805, 0, 0, -0.998805, -51.811155, 283.660558)"/>
<path fill="none" stroke-width="0.4" stroke-linecap="butt" stroke-linejoin="round" stroke="rgb(0%, 0%, 0%)" stroke-opacity="1" stroke-miterlimit="10" d="M 175.000788 197.998772 L 133.998657 187.998538 " transform="matrix(0.998805, 0, 0, -0.998805, -51.811155, 283.660558)"/>
<path fill="none" stroke-width="0.4" stroke-linecap="butt" stroke-linejoin="round" stroke="rgb(0%, 0%, 0%)" stroke-opacity="1" stroke-miterlimit="10" d="M 192.998863 230.999152 L 175.000788 197.998772 " transform="matrix(0.998805, 0, 0, -0.998805, -51.811155, 283.660558)"/>
<g clip-path="url(#clip-7)">
<path fill="none" stroke-width="0.4" stroke-linecap="butt" stroke-linejoin="round" stroke="rgb(0%, 0%, 0%)" stroke-opacity="1" stroke-miterlimit="10" d="M 52.999501 209.000203 L 87.998364 194.999093 " transform="matrix(0.998805, 0, 0, -0.998805, -51.811155, 283.660558)"/>
</g>
<g clip-path="url(#clip-8)">
<path fill="none" stroke-width="0.4" stroke-linecap="butt" stroke-linejoin="round" stroke="rgb(0%, 0%, 0%)" stroke-opacity="1" stroke-miterlimit="10" d="M 52.999501 209.000203 L 91.001954 222.000115 " transform="matrix(0.998805, 0, 0, -0.998805, -51.811155, 283.660558)"/>
</g>
<g clip-path="url(#clip-9)">
<path fill="none" stroke-width="0.4" stroke-linecap="butt" stroke-linejoin="round" stroke="rgb(0%, 0%, 0%)" stroke-opacity="1" stroke-miterlimit="10" d="M 52.999501 209.000203 L 74.998451 266.999212 " transform="matrix(0.998805, 0, 0, -0.998805, -51.811155, 283.660558)"/>
</g>
<path fill="none" stroke-width="0.4" stroke-linecap="butt" stroke-linejoin="round" stroke="rgb(0%, 0%, 0%)" stroke-opacity="1" stroke-miterlimit="10" d="M 218.998688 56.998214 L 228.001636 89.998595 " transform="matrix(0.998805, 0, 0, -0.998805, -51.811155, 283.660558)"/>
<path fill="none" stroke-width="0.4" stroke-linecap="butt" stroke-linejoin="round" stroke="rgb(0%, 0%, 0%)" stroke-opacity="1" stroke-miterlimit="10" d="M 140.001926 116.999617 L 104.999152 115.001134 " transform="matrix(0.998805, 0, 0, -0.998805, -51.811155, 283.660558)"/>
<path fill="none" stroke-width="0.4" stroke-linecap="butt" stroke-linejoin="round" stroke="rgb(0%, 0%, 0%)" stroke-opacity="1" stroke-miterlimit="10" d="M 140.001926 116.999617 L 116.000583 80.999557 " transform="matrix(0.998805, 0, 0, -0.998805, -51.811155, 283.660558)"/>
<path fill="none" stroke-width="0.4" stroke-linecap="butt" stroke-linejoin="round" stroke="rgb(0%, 0%, 0%)" stroke-opacity="1" stroke-miterlimit="10" d="M 140.001926 116.999617 L 162.000876 80.999557 " transform="matrix(0.998805, 0, 0, -0.998805, -51.811155, 283.660558)"/>
<path fill="none" stroke-width="0.4" stroke-linecap="butt" stroke-linejoin="round" stroke="rgb(0%, 0%, 0%)" stroke-opacity="1" stroke-miterlimit="10" d="M 109.000028 158.001748 L 81.00172 161.998713 " transform="matrix(0.998805, 0, 0, -0.998805, -51.811155, 283.660558)"/>
<path fill="none" stroke-width="0.4" stroke-linecap="butt" stroke-linejoin="round" stroke="rgb(0%, 0%, 0%)" stroke-opacity="1" stroke-miterlimit="10" d="M 109.000028 158.001748 L 100.000991 138.001281 " transform="matrix(0.998805, 0, 0, -0.998805, -51.811155, 283.660558)"/>
<path fill="none" stroke-width="0.4" stroke-linecap="butt" stroke-linejoin="round" stroke="rgb(0%, 0%, 0%)" stroke-opacity="1" stroke-miterlimit="10" d="M 109.000028 158.001748 L 104.999152 115.001134 " transform="matrix(0.998805, 0, 0, -0.998805, -51.811155, 283.660558)"/>
<path fill="none" stroke-width="0.4" stroke-linecap="butt" stroke-linejoin="round" stroke="rgb(0%, 0%, 0%)" stroke-opacity="1" stroke-miterlimit="10" d="M 81.00172 161.998713 L 87.998364 194.999093 " transform="matrix(0.998805, 0, 0, -0.998805, -51.811155, 283.660558)"/>
<path fill="none" stroke-width="0.4" stroke-linecap="butt" stroke-linejoin="round" stroke="rgb(0%, 0%, 0%)" stroke-opacity="1" stroke-miterlimit="10" d="M 195.998542 106.999383 L 162.000876 80.999557 " transform="matrix(0.998805, 0, 0, -0.998805, -51.811155, 283.660558)"/>
<path fill="none" stroke-width="0.4" stroke-linecap="butt" stroke-linejoin="round" stroke="rgb(0%, 0%, 0%)" stroke-opacity="1" stroke-miterlimit="10" d="M 195.001256 82.000754 L 195.998542 106.999383 " transform="matrix(0.998805, 0, 0, -0.998805, -51.811155, 283.660558)"/>
<path fill="none" stroke-width="0.4" stroke-linecap="butt" stroke-linejoin="round" stroke="rgb(0%, 0%, 0%)" stroke-opacity="1" stroke-miterlimit="10" d="M 195.001256 82.000754 L 228.001636 89.998595 " transform="matrix(0.998805, 0, 0, -0.998805, -51.811155, 283.660558)"/>
<path fill="none" stroke-width="2" stroke-linecap="butt" stroke-linejoin="round" stroke="rgb(13.299561%, 54.499817%, 13.299561%)" stroke-opacity="0.4" stroke-miterlimit="10" d="M 84.001399 92.000988 L 116.000583 80.999557 L 152.000642 56.000929 L 175.000788 40.001337 L 119.000262 60.001804 Z M 84.001399 92.000988 " transform="matrix(0.998805, 0, 0, -0.998805, -51.811155, 283.660558)"/>
<path fill="none" stroke-width="2" stroke-linecap="butt" stroke-linejoin="round" stroke="rgb(59.999084%, 19.599915%, 79.998779%)" stroke-opacity="0.4" stroke-miterlimit="10" d="M 244.001228 40.001337 L 218.998688 56.998214 L 175.000788 40.001337 Z M 244.001228 40.001337 " transform="matrix(0.998805, 0, 0, -0.998805, -51.811155, 283.660558)"/>
<path fill="none" stroke-width="2" stroke-linecap="butt" stroke-linejoin="round" stroke="rgb(100%, 0%, 0%)" stroke-opacity="0.4" stroke-miterlimit="10" d="M 195.998542 106.999383 L 235.999476 118.998099 L 228.001636 89.998595 L 255.999944 73.001717 L 218.998688 56.998214 L 195.001256 82.000754 Z M 195.998542 106.999383 " transform="matrix(0.998805, 0, 0, -0.998805, -51.811155, 283.660558)"/>
<path fill="none" stroke-width="2" stroke-linecap="butt" stroke-linejoin="round" stroke="rgb(59.999084%, 19.599915%, 79.998779%)" stroke-opacity="0.4" stroke-miterlimit="10" d="M 162.000876 177.001019 L 140.001926 116.999617 L 195.998542 106.999383 L 235.999476 118.998099 L 238.00187 152.999676 L 215.999009 164.998392 Z M 162.000876 177.001019 " transform="matrix(0.998805, 0, 0, -0.998805, -51.811155, 283.660558)"/>
<path fill="none" stroke-width="2" stroke-linecap="butt" stroke-linejoin="round" stroke="rgb(100%, 0%, 0%)" stroke-opacity="0.4" stroke-miterlimit="10" d="M 140.001926 116.999617 L 104.999152 115.001134 L 84.001399 92.000988 L 116.000583 80.999557 Z M 140.001926 116.999617 " transform="matrix(0.998805, 0, 0, -0.998805, -51.811155, 283.660558)"/>
<g clip-path="url(#clip-10)">
<path fill="none" stroke-width="2" stroke-linecap="butt" stroke-linejoin="round" stroke="rgb(59.999084%, 19.599915%, 79.998779%)" stroke-opacity="0.4" stroke-miterlimit="10" d="M 52.999501 209.000203 L 87.998364 194.999093 L 109.000028 158.001748 L 100.000991 138.001281 L 81.00172 161.998713 Z M 52.999501 209.000203 " transform="matrix(0.998805, 0, 0, -0.998805, -51.811155, 283.660558)"/>
</g>
<path fill="none" stroke-width="2" stroke-linecap="butt" stroke-linejoin="round" stroke="rgb(100%, 0%, 0%)" stroke-opacity="0.4" stroke-miterlimit="10" d="M 120.001458 203.000845 L 133.998657 187.998538 L 175.000788 197.998772 L 162.000876 177.001019 L 109.000028 158.001748 Z M 120.001458 203.000845 " transform="matrix(0.998805, 0, 0, -0.998805, -51.811155, 283.660558)"/>
<g clip-path="url(#clip-11)">
<path fill="none" stroke-width="2" stroke-linecap="butt" stroke-linejoin="round" stroke="rgb(100%, 0%, 0%)" stroke-opacity="0.4" stroke-miterlimit="10" d="M 245.99971 196.00029 L 215.999009 164.998392 L 238.00187 152.999676 L 263.000499 177.998305 Z M 245.99971 196.00029 " transform="matrix(0.998805, 0, 0, -0.998805, -51.811155, 283.660558)"/>
</g>
<path fill="none" stroke-width="2" stroke-linecap="butt" stroke-linejoin="round" stroke="rgb(59.999084%, 19.599915%, 79.998779%)" stroke-opacity="0.4" stroke-miterlimit="10" d="M 175.000788 197.998772 L 192.998863 230.999152 L 214.000527 220.998919 Z M 175.000788 197.998772 " transform="matrix(0.998805, 0, 0, -0.998805, -51.811155, 283.660558)"/>
<path fill="none" stroke-width="2" stroke-linecap="butt" stroke-linejoin="round" stroke="rgb(100%, 0%, 0%)" stroke-opacity="0.4" stroke-miterlimit="10" d="M 183.999825 265.000729 L 215.001723 240.999386 L 240.000352 243.999065 L 230.000118 282.998803 L 204.000293 269.998891 Z M 183.999825 265.000729 " transform="matrix(0.998805, 0, 0, -0.998805, -51.811155, 283.660558)"/>
<path fill="none" stroke-width="2" stroke-linecap="butt" stroke-linejoin="round" stroke="rgb(100%, 0%, 0%)" stroke-opacity="0.4" stroke-miterlimit="10" d="M 119.000262 269.001605 L 119.000262 239.998189 L 137.999533 214.999561 L 169.00143 220.001633 L 149.998249 252.998102 Z M 119.000262 269.001605 " transform="matrix(0.998805, 0, 0, -0.998805, -51.811155, 283.660558)"/>
<g clip-path="url(#clip-12)">
<path fill="none" stroke-width="2" stroke-linecap="butt" stroke-linejoin="round" stroke="rgb(100%, 0%, 0%)" stroke-opacity="0.4" stroke-miterlimit="10" d="M 74.998451 266.999212 L 96.000115 252.998102 L 91.001954 222.000115 L 52.999501 209.000203 Z M 74.998451 266.999212 " transform="matrix(0.998805, 0, 0, -0.998805, -51.811155, 283.660558)"/>
</g>
<path fill="none" stroke-width="2" stroke-linecap="butt" stroke-linejoin="round" stroke="rgb(0%, 74.899292%, 100%)" stroke-opacity="0.4" stroke-miterlimit="10" d="M 140.001926 116.999617 L 195.998542 106.999383 L 195.001256 82.000754 L 175.000788 40.001337 L 116.000583 80.999557 Z M 140.001926 116.999617 " transform="matrix(0.998805, 0, 0, -0.998805, -51.811155, 283.660558)"/>
<path fill-rule="evenodd" fill="rgb(100%, 0%, 0%)" fill-opacity="1" d="M 44.074219 61.925781 C 44.074219 59.167969 41.839844 56.933594 39.082031 56.933594 C 36.320312 56.933594 34.085938 59.167969 34.085938 61.925781 C 34.085938 64.683594 36.320312 66.917969 39.082031 66.917969 C 41.839844 66.917969 44.074219 64.683594 44.074219 61.925781 "/>
<path fill-rule="evenodd" fill="rgb(0%, 0%, 0%)" fill-opacity="1" d="M 45.074219 61.925781 C 45.074219 58.617188 42.390625 55.933594 39.082031 55.933594 C 35.769531 55.933594 33.085938 58.617188 33.085938 61.925781 C 33.085938 65.234375 35.769531 67.917969 39.082031 67.917969 C 42.390625 67.917969 45.074219 65.234375 45.074219 61.925781 M 43.074219 61.925781 C 43.074219 59.71875 41.285156 57.929688 39.082031 57.929688 C 36.875 57.929688 35.085938 59.71875 35.085938 61.925781 C 35.085938 64.132812 36.875 65.921875 39.082031 65.921875 C 41.285156 65.921875 43.074219 64.132812 43.074219 61.925781 "/>
<path fill-rule="evenodd" fill="rgb(100%, 0%, 0%)" fill-opacity="1" d="M 103.003906 30.964844 C 103.003906 28.207031 100.765625 25.96875 98.007812 25.96875 C 95.25 25.96875 93.015625 28.207031 93.015625 30.964844 C 93.015625 33.71875 95.25 35.957031 98.007812 35.957031 C 100.765625 35.957031 103.003906 33.71875 103.003906 30.964844 "/>
<path fill-rule="evenodd" fill="rgb(0%, 0%, 0%)" fill-opacity="1" d="M 104.003906 30.964844 C 104.003906 27.652344 101.320312 24.96875 98.007812 24.96875 C 94.699219 24.96875 92.015625 27.652344 92.015625 30.964844 C 92.015625 34.273438 94.699219 36.957031 98.007812 36.957031 C 101.320312 36.957031 104.003906 34.273438 104.003906 30.964844 M 102.003906 30.964844 C 102.003906 28.757812 100.214844 26.96875 98.007812 26.96875 C 95.804688 26.96875 94.015625 28.757812 94.015625 30.964844 C 94.015625 33.167969 95.804688 34.957031 98.007812 34.957031 C 100.214844 34.957031 102.003906 33.167969 102.003906 30.964844 "/>
<path fill-rule="evenodd" fill="rgb(100%, 0%, 0%)" fill-opacity="1" d="M 156.9375 13.984375 C 156.9375 11.226562 154.703125 8.988281 151.945312 8.988281 C 149.1875 8.988281 146.949219 11.226562 146.949219 13.984375 C 146.949219 16.742188 149.1875 18.976562 151.945312 18.976562 C 154.703125 18.976562 156.9375 16.742188 156.9375 13.984375 "/>
<path fill-rule="evenodd" fill="rgb(0%, 0%, 0%)" fill-opacity="1" d="M 157.9375 13.984375 C 157.9375 10.671875 155.253906 7.992188 151.945312 7.992188 C 148.636719 7.992188 145.953125 10.671875 145.953125 13.984375 C 145.953125 17.292969 148.636719 19.976562 151.945312 19.976562 C 155.253906 19.976562 157.9375 17.292969 157.9375 13.984375 M 155.941406 13.984375 C 155.941406 11.777344 154.152344 9.988281 151.945312 9.988281 C 149.738281 9.988281 147.949219 11.777344 147.949219 13.984375 C 147.949219 16.191406 149.738281 17.976562 151.945312 17.976562 C 154.152344 17.976562 155.941406 16.191406 155.941406 13.984375 "/>
<path fill-rule="evenodd" fill="rgb(100%, 0%, 0%)" fill-opacity="1" d="M 198.890625 87.894531 C 198.890625 85.136719 196.652344 82.902344 193.894531 82.902344 C 191.136719 82.902344 188.902344 85.136719 188.902344 87.894531 C 188.902344 90.652344 191.136719 92.890625 193.894531 92.890625 C 196.652344 92.890625 198.890625 90.652344 198.890625 87.894531 "/>
<path fill-rule="evenodd" fill="rgb(0%, 0%, 0%)" fill-opacity="1" d="M 199.886719 87.894531 C 199.886719 84.585938 197.203125 81.902344 193.894531 81.902344 C 190.585938 81.902344 187.902344 84.585938 187.902344 87.894531 C 187.902344 91.203125 190.585938 93.886719 193.894531 93.886719 C 197.203125 93.886719 199.886719 91.203125 199.886719 87.894531 M 197.890625 87.894531 C 197.890625 85.6875 196.101562 83.898438 193.894531 83.898438 C 191.6875 83.898438 189.898438 85.6875 189.898438 87.894531 C 189.898438 90.101562 191.6875 91.890625 193.894531 91.890625 C 196.101562 91.890625 197.890625 90.101562 197.890625 87.894531 "/>
<path fill-rule="evenodd" fill="rgb(100%, 0%, 0%)" fill-opacity="1" d="M 180.910156 193.769531 C 180.910156 191.011719 178.675781 188.773438 175.917969 188.773438 C 173.160156 188.773438 170.921875 191.011719 170.921875 193.769531 C 170.921875 196.527344 173.160156 198.761719 175.917969 198.761719 C 178.675781 198.761719 180.910156 196.527344 180.910156 193.769531 "/>
<path fill-rule="evenodd" fill="rgb(0%, 0%, 0%)" fill-opacity="1" d="M 181.910156 193.769531 C 181.910156 190.457031 179.226562 187.773438 175.917969 187.773438 C 172.605469 187.773438 169.921875 190.457031 169.921875 193.769531 C 169.921875 197.078125 172.605469 199.761719 175.917969 199.761719 C 179.226562 199.761719 181.910156 197.078125 181.910156 193.769531 M 179.910156 193.769531 C 179.910156 191.5625 178.121094 189.773438 175.917969 189.773438 C 173.710938 189.773438 171.921875 191.5625 171.921875 193.769531 C 171.921875 195.972656 173.710938 197.761719 175.917969 197.761719 C 178.121094 197.761719 179.910156 195.972656 179.910156 193.769531 "/>
<path fill-rule="evenodd" fill="rgb(59.999084%, 19.599915%, 79.998779%)" fill-opacity="1" d="M 196.890625 243.707031 C 196.890625 240.949219 194.65625 238.714844 191.898438 238.714844 C 189.140625 238.714844 186.902344 240.949219 186.902344 243.707031 C 186.902344 246.464844 189.140625 248.703125 191.898438 248.703125 C 194.65625 248.703125 196.890625 246.464844 196.890625 243.707031 "/>
<path fill-rule="evenodd" fill="rgb(0%, 0%, 0%)" fill-opacity="1" d="M 197.890625 243.707031 C 197.890625 240.398438 195.207031 237.714844 191.898438 237.714844 C 188.585938 237.714844 185.90625 240.398438 185.90625 243.707031 C 185.90625 247.019531 188.585938 249.703125 191.898438 249.703125 C 195.207031 249.703125 197.890625 247.019531 197.890625 243.707031 M 195.890625 243.707031 C 195.890625 241.5 194.105469 239.714844 191.898438 239.714844 C 189.691406 239.714844 187.902344 241.5 187.902344 243.707031 C 187.902344 245.914062 189.691406 247.703125 191.898438 247.703125 C 194.105469 247.703125 195.890625 245.914062 195.890625 243.707031 "/>
<path fill-rule="evenodd" fill="rgb(100%, 0%, 0%)" fill-opacity="1" d="M 72.039062 223.730469 C 72.039062 220.972656 69.804688 218.738281 67.046875 218.738281 C 64.289062 218.738281 62.050781 220.972656 62.050781 223.730469 C 62.050781 226.492188 64.289062 228.726562 67.046875 228.726562 C 69.804688 228.726562 72.039062 226.492188 72.039062 223.730469 "/>
<path fill-rule="evenodd" fill="rgb(0%, 0%, 0%)" fill-opacity="1" d="M 73.039062 223.730469 C 73.039062 220.421875 70.355469 217.738281 67.046875 217.738281 C 63.738281 217.738281 61.054688 220.421875 61.054688 223.730469 C 61.054688 227.042969 63.738281 229.726562 67.046875 229.726562 C 70.355469 229.726562 73.039062 227.042969 73.039062 223.730469 M 71.042969 223.730469 C 71.042969 221.527344 69.253906 219.738281 67.046875 219.738281 C 64.839844 219.738281 63.050781 221.527344 63.050781 223.730469 C 63.050781 225.9375 64.839844 227.726562 67.046875 227.726562 C 69.253906 227.726562 71.042969 225.9375 71.042969 223.730469 "/>
<path fill-rule="evenodd" fill="rgb(59.999084%, 19.599915%, 79.998779%)" fill-opacity="1" d="M 34.085938 121.855469 C 34.085938 119.097656 31.851562 116.859375 29.09375 116.859375 C 26.332031 116.859375 24.097656 119.097656 24.097656 121.855469 C 24.097656 124.613281 26.332031 126.847656 29.09375 126.847656 C 31.851562 126.847656 34.085938 124.613281 34.085938 121.855469 "/>
<path fill-rule="evenodd" fill="rgb(0%, 0%, 0%)" fill-opacity="1" d="M 35.085938 121.855469 C 35.085938 118.542969 32.402344 115.863281 29.09375 115.863281 C 25.78125 115.863281 23.097656 118.542969 23.097656 121.855469 C 23.097656 125.164062 25.78125 127.847656 29.09375 127.847656 C 32.402344 127.847656 35.085938 125.164062 35.085938 121.855469 M 33.085938 121.855469 C 33.085938 119.648438 31.296875 117.859375 29.09375 117.859375 C 26.886719 117.859375 25.097656 119.648438 25.097656 121.855469 C 25.097656 124.058594 26.886719 125.847656 29.09375 125.847656 C 31.296875 125.847656 33.085938 124.058594 33.085938 121.855469 "/>
<path fill-rule="evenodd" fill="rgb(100%, 0%, 0%)" fill-opacity="1" d="M 87.023438 95.886719 C 87.023438 93.128906 84.785156 90.890625 82.027344 90.890625 C 79.269531 90.890625 77.035156 93.128906 77.035156 95.886719 C 77.035156 98.644531 79.269531 100.878906 82.027344 100.878906 C 84.785156 100.878906 87.023438 98.644531 87.023438 95.886719 "/>
<path fill-rule="evenodd" fill="rgb(0%, 0%, 0%)" fill-opacity="1" d="M 88.023438 95.886719 C 88.023438 92.574219 85.339844 89.890625 82.027344 89.890625 C 78.71875 89.890625 76.035156 92.574219 76.035156 95.886719 C 76.035156 99.195312 78.71875 101.878906 82.027344 101.878906 C 85.339844 101.878906 88.023438 99.195312 88.023438 95.886719 M 86.023438 95.886719 C 86.023438 93.679688 84.234375 91.890625 82.027344 91.890625 C 79.824219 91.890625 78.035156 93.679688 78.035156 95.886719 C 78.035156 98.089844 79.824219 99.878906 82.027344 99.878906 C 84.234375 99.878906 86.023438 98.089844 86.023438 95.886719 "/>
<path fill-rule="evenodd" fill="rgb(59.999084%, 19.599915%, 79.998779%)" fill-opacity="1" d="M 145.953125 52.9375 C 145.953125 50.179688 143.714844 47.941406 140.957031 47.941406 C 138.199219 47.941406 135.964844 50.179688 135.964844 52.9375 C 135.964844 55.695312 138.199219 57.929688 140.957031 57.929688 C 143.714844 57.929688 145.953125 55.695312 145.953125 52.9375 "/>
<path fill-rule="evenodd" fill="rgb(0%, 0%, 0%)" fill-opacity="1" d="M 146.949219 52.9375 C 146.949219 49.625 144.269531 46.945312 140.957031 46.945312 C 137.648438 46.945312 134.964844 49.625 134.964844 52.9375 C 134.964844 56.246094 137.648438 58.929688 140.957031 58.929688 C 144.269531 58.929688 146.949219 56.246094 146.949219 52.9375 M 144.953125 52.9375 C 144.953125 50.730469 143.164062 48.941406 140.957031 48.941406 C 138.75 48.941406 136.964844 50.730469 136.964844 52.9375 C 136.964844 55.144531 138.75 56.933594 140.957031 56.933594 C 143.164062 56.933594 144.953125 55.144531 144.953125 52.9375 "/>
<path fill-rule="evenodd" fill="rgb(0%, 74.899292%, 100%)" fill-opacity="1" d="M 114.988281 202.757812 C 114.988281 200 112.753906 197.761719 109.996094 197.761719 C 107.238281 197.761719 105 200 105 202.757812 C 105 205.515625 107.238281 207.75 109.996094 207.75 C 112.753906 207.75 114.988281 205.515625 114.988281 202.757812 "/>
<path fill-rule="evenodd" fill="rgb(0%, 0%, 0%)" fill-opacity="1" d="M 115.988281 202.757812 C 115.988281 199.449219 113.304688 196.765625 109.996094 196.765625 C 106.683594 196.765625 104.003906 199.449219 104.003906 202.757812 C 104.003906 206.066406 106.683594 208.75 109.996094 208.75 C 113.304688 208.75 115.988281 206.066406 115.988281 202.757812 M 113.992188 202.757812 C 113.992188 200.550781 112.203125 198.761719 109.996094 198.761719 C 107.789062 198.761719 106 200.550781 106 202.757812 C 106 204.964844 107.789062 206.753906 109.996094 206.753906 C 112.203125 206.753906 113.992188 204.964844 113.992188 202.757812 "/>
<path fill-rule="evenodd" fill="rgb(59.999084%, 19.599915%, 79.998779%)" fill-opacity="1" d="M 150.945312 156.8125 C 150.945312 154.054688 148.710938 151.816406 145.953125 151.816406 C 143.195312 151.816406 140.957031 154.054688 140.957031 156.8125 C 140.957031 159.570312 143.195312 161.804688 145.953125 161.804688 C 148.710938 161.804688 150.945312 159.570312 150.945312 156.8125 "/>
<path fill-rule="evenodd" fill="rgb(0%, 0%, 0%)" fill-opacity="1" d="M 151.945312 156.8125 C 151.945312 153.503906 149.261719 150.820312 145.953125 150.820312 C 142.640625 150.820312 139.960938 153.503906 139.960938 156.8125 C 139.960938 160.121094 142.640625 162.804688 145.953125 162.804688 C 149.261719 162.804688 151.945312 160.121094 151.945312 156.8125 M 149.949219 156.8125 C 149.949219 154.605469 148.160156 152.816406 145.953125 152.816406 C 143.746094 152.816406 141.957031 154.605469 141.957031 156.8125 C 141.957031 159.019531 143.746094 160.808594 145.953125 160.808594 C 148.160156 160.808594 149.949219 159.019531 149.949219 156.8125 "/>
<path fill-rule="evenodd" fill="rgb(100%, 0%, 0%)" fill-opacity="1" d="M 58.058594 168.796875 C 58.058594 166.039062 55.820312 163.804688 53.0625 163.804688 C 50.304688 163.804688 48.070312 166.039062 48.070312 168.796875 C 48.070312 171.554688 50.304688 173.792969 53.0625 173.792969 C 55.820312 173.792969 58.058594 171.554688 58.058594 168.796875 "/>
<path fill-rule="evenodd" fill="rgb(0%, 0%, 0%)" fill-opacity="1" d="M 59.054688 168.796875 C 59.054688 165.488281 56.375 162.804688 53.0625 162.804688 C 49.753906 162.804688 47.070312 165.488281 47.070312 168.796875 C 47.070312 172.109375 49.753906 174.789062 53.0625 174.789062 C 56.375 174.789062 59.054688 172.109375 59.054688 168.796875 M 57.058594 168.796875 C 57.058594 166.589844 55.269531 164.804688 53.0625 164.804688 C 50.855469 164.804688 49.066406 166.589844 49.066406 168.796875 C 49.066406 171.003906 50.855469 172.792969 53.0625 172.792969 C 55.269531 172.792969 57.058594 171.003906 57.058594 168.796875 "/>
</svg>
