<?xml version="1.0" encoding="UTF-8"?>
<svg xmlns="http://www.w3.org/2000/svg" xmlns:xlink="http://www.w3.org/1999/xlink" width="223.4" height="256.4" viewBox="0 0 223.4 256.4">
<defs>
<clipPath id="clip-0">
<path clip-rule="nonzero" d="M 177 0.0429688 L 190 0.0429688 L 190 13 L 177 13 Z M 177 0.0429688 "/>
</clipPath>
<clipPath id="clip-1">
<path clip-rule="nonzero" d="M 210 105 L 222.800781 105 L 222.800781 118 L 210 118 Z M 210 105 "/>
</clipPath>
<clipPath id="clip-2">
<path clip-rule="nonzero" d="M 122 243 L 135 243 L 135 255.757812 L 122 255.757812 Z M 122 243 "/>
</clipPath>
</defs>
<path fill-rule="evenodd" fill="rgb(0%, 0%, 54.499817%)" fill-opacity="0.3" d="M 72.503906 229.128906 L 105.417969 232.121094 L 115.390625 208.183594 L 148.300781 207.1875 L 172.238281 232.121094 L 197.171875 249.074219 L 128.355469 249.074219 Z M 72.503906 229.128906 "/>
<path fill-rule="evenodd" fill="rgb(0%, 54.499817%, 54.499817%)" fill-opacity="0.3" d="M 181.214844 199.210938 L 172.238281 232.121094 L 197.171875 249.074219 L 209.136719 216.164062 Z M 181.214844 199.210938 "/>
<path fill-rule="evenodd" fill="rgb(100%, 0%, 0%)" fill-opacity="0.3" d="M 191.1875 136.378906 L 151.292969 162.308594 L 149.300781 182.253906 L 181.214844 199.210938 L 189.191406 170.285156 Z M 191.1875 136.378906 "/>
<path fill-rule="evenodd" fill="rgb(0%, 0%, 54.499817%)" fill-opacity="0.3" d="M 128.355469 91.5 L 167.25 68.558594 L 199.164062 93.492188 L 191.1875 136.378906 L 151.292969 162.308594 L 115.390625 112.441406 Z M 128.355469 91.5 "/>
<path fill-rule="evenodd" fill="rgb(0%, 54.499817%, 54.499817%)" fill-opacity="0.3" d="M 157.277344 19.691406 L 168.25 48.613281 L 146.308594 58.585938 L 122.371094 69.558594 L 103.421875 36.644531 L 137.332031 24.679688 Z M 157.277344 19.691406 "/>
<path fill-rule="evenodd" fill="rgb(100%, 0%, 0%)" fill-opacity="0.3" d="M 193.179688 45.621094 L 168.25 48.613281 L 167.25 68.558594 L 199.164062 93.492188 L 194.179688 67.5625 Z M 193.179688 45.621094 "/>
<path fill-rule="evenodd" fill="rgb(0%, 39.199829%, 0%)" fill-opacity="0.3" d="M 58.542969 174.277344 L 62.53125 131.390625 L 115.390625 112.441406 L 151.292969 162.308594 L 149.300781 182.253906 L 115.390625 208.183594 L 69.511719 208.183594 Z M 58.542969 174.277344 "/>
<path fill-rule="evenodd" fill="rgb(0%, 0%, 54.499817%)" fill-opacity="0.3" d="M 49.566406 36.644531 L 72.503906 49.609375 L 103.421875 36.644531 L 72.503906 20.6875 Z M 49.566406 36.644531 "/>
<path fill-rule="evenodd" fill="rgb(100%, 0%, 0%)" fill-opacity="0.3" d="M 6.683594 80.527344 L 34.605469 127.402344 L 53.554688 151.335938 L 58.542969 174.277344 L 69.511719 208.183594 L 72.503906 229.128906 L 37.597656 197.214844 Z M 6.683594 80.527344 "/>
<path fill-rule="evenodd" fill="rgb(100%, 0%, 0%)" fill-opacity="0.3" d="M 28.625 22.683594 L 49.566406 36.644531 L 44.582031 67.5625 L 6.683594 80.527344 Z M 28.625 22.683594 "/>
<path fill-rule="evenodd" fill="rgb(0%, 0%, 54.499817%)" fill-opacity="0.3" d="M 6.683594 80.527344 L 44.582031 67.5625 L 73.503906 86.511719 L 62.53125 131.390625 L 34.605469 127.402344 Z M 6.683594 80.527344 "/>
<path fill-rule="evenodd" fill="rgb(100%, 0%, 0%)" fill-opacity="0.3" d="M 73.503906 86.511719 L 72.503906 49.609375 L 103.421875 36.644531 L 122.371094 69.558594 L 128.355469 91.5 L 87.464844 101.472656 Z M 73.503906 86.511719 "/>
<path fill-rule="evenodd" fill="rgb(0%, 0%, 54.499817%)" fill-opacity="0.3" d="M 157.277344 19.691406 L 193.179688 45.621094 L 183.207031 6.726562 Z M 157.277344 19.691406 "/>
<path fill-rule="evenodd" fill="rgb(0%, 54.499817%, 54.499817%)" fill-opacity="0.3" d="M 199.164062 93.492188 L 191.1875 136.378906 L 216.121094 111.445312 Z M 199.164062 93.492188 "/>
<path fill="none" stroke-width="0.4" stroke-linecap="butt" stroke-linejoin="round" stroke="rgb(0%, 0%, 0%)" stroke-opacity="1" stroke-miterlimit="10" d="M 168.999754 219.998903 L 137.998747 215.001141 " transform="matrix(0.997321, 0, 0, -0.997321, -46.175982, 288.968214)"/>
<path fill="none" stroke-width="0.4" stroke-linecap="butt" stroke-linejoin="round" stroke="rgb(0%, 0%, 0%)" stroke-opacity="1" stroke-miterlimit="10" d="M 118.998635 60.000022 L 83.998635 91.999799 " transform="matrix(0.997321, 0, 0, -0.997321, -46.175982, 288.968214)"/>
<path fill="none" stroke-width="0.4" stroke-linecap="butt" stroke-linejoin="round" stroke="rgb(0%, 0%, 0%)" stroke-opacity="1" stroke-miterlimit="10" d="M 118.998635 60.000022 L 175.000201 40.001141 " transform="matrix(0.997321, 0, 0, -0.997321, -46.175982, 288.968214)"/>
<path fill="none" stroke-width="0.4" stroke-linecap="butt" stroke-linejoin="round" stroke="rgb(0%, 0%, 0%)" stroke-opacity="1" stroke-miterlimit="10" d="M 118.998635 60.000022 L 152.001097 56.999799 " transform="matrix(0.997321, 0, 0, -0.997321, -46.175982, 288.968214)"/>
<path fill="none" stroke-width="0.4" stroke-linecap="butt" stroke-linejoin="round" stroke="rgb(0%, 0%, 0%)" stroke-opacity="1" stroke-miterlimit="10" d="M 118.998635 60.000022 L 115.998411 81.001589 " transform="matrix(0.997321, 0, 0, -0.997321, -46.175982, 288.968214)"/>
<path fill="none" stroke-width="0.4" stroke-linecap="butt" stroke-linejoin="round" stroke="rgb(0%, 0%, 0%)" stroke-opacity="1" stroke-miterlimit="10" d="M 53.001544 209.000694 L 80.998411 161.999799 " transform="matrix(0.997321, 0, 0, -0.997321, -46.175982, 288.968214)"/>
<path fill="none" stroke-width="0.4" stroke-linecap="butt" stroke-linejoin="round" stroke="rgb(0%, 0%, 0%)" stroke-opacity="1" stroke-miterlimit="10" d="M 53.001544 209.000694 L 88.001544 194.998344 " transform="matrix(0.997321, 0, 0, -0.997321, -46.175982, 288.968214)"/>
<path fill="none" stroke-width="0.4" stroke-linecap="butt" stroke-linejoin="round" stroke="rgb(0%, 0%, 0%)" stroke-opacity="1" stroke-miterlimit="10" d="M 53.001544 209.000694 L 91.001768 222.000358 " transform="matrix(0.997321, 0, 0, -0.997321, -46.175982, 288.968214)"/>
<path fill="none" stroke-width="0.4" stroke-linecap="butt" stroke-linejoin="round" stroke="rgb(0%, 0%, 0%)" stroke-opacity="1" stroke-miterlimit="10" d="M 53.001544 209.000694 L 75.00188 266.999799 " transform="matrix(0.997321, 0, 0, -0.997321, -46.175982, 288.968214)"/>
<path fill="none" stroke-width="0.4" stroke-linecap="butt" stroke-linejoin="round" stroke="rgb(0%, 0%, 0%)" stroke-opacity="1" stroke-miterlimit="10" d="M 53.001544 209.000694 L 83.998635 91.999799 " transform="matrix(0.997321, 0, 0, -0.997321, -46.175982, 288.968214)"/>
<path fill="none" stroke-width="0.4" stroke-linecap="butt" stroke-linejoin="round" stroke="rgb(0%, 0%, 0%)" stroke-opacity="1" stroke-miterlimit="10" d="M 215.00188 241.00047 L 184.000873 264.998344 " transform="matrix(0.997321, 0, 0, -0.997321, -46.175982, 288.968214)"/>
<path fill="none" stroke-width="0.4" stroke-linecap="butt" stroke-linejoin="round" stroke="rgb(0%, 0%, 0%)" stroke-opacity="1" stroke-miterlimit="10" d="M 215.00188 241.00047 L 193.001544 231.00103 " transform="matrix(0.997321, 0, 0, -0.997321, -46.175982, 288.968214)"/>
<path fill="none" stroke-width="0.4" stroke-linecap="butt" stroke-linejoin="round" stroke="rgb(0%, 0%, 0%)" stroke-opacity="1" stroke-miterlimit="10" d="M 215.00188 241.00047 L 213.999194 221.001589 " transform="matrix(0.997321, 0, 0, -0.997321, -46.175982, 288.968214)"/>
<path fill="none" stroke-width="0.4" stroke-linecap="butt" stroke-linejoin="round" stroke="rgb(0%, 0%, 0%)" stroke-opacity="1" stroke-miterlimit="10" d="M 215.00188 241.00047 L 241.001209 222.000358 " transform="matrix(0.997321, 0, 0, -0.997321, -46.175982, 288.968214)"/>
<path fill="none" stroke-width="0.4" stroke-linecap="butt" stroke-linejoin="round" stroke="rgb(0%, 0%, 0%)" stroke-opacity="1" stroke-miterlimit="10" d="M 215.00188 241.00047 L 239.998523 244.000694 " transform="matrix(0.997321, 0, 0, -0.997321, -46.175982, 288.968214)"/>
<path fill="none" stroke-width="0.4" stroke-linecap="butt" stroke-linejoin="round" stroke="rgb(0%, 0%, 0%)" stroke-opacity="1" stroke-miterlimit="10" d="M 215.00188 241.00047 L 203.999754 270.000022 " transform="matrix(0.997321, 0, 0, -0.997321, -46.175982, 288.968214)"/>
<path fill="none" stroke-width="0.4" stroke-linecap="butt" stroke-linejoin="round" stroke="rgb(0%, 0%, 0%)" stroke-opacity="1" stroke-miterlimit="10" d="M 263.001544 177.999687 L 245.99897 196.00103 " transform="matrix(0.997321, 0, 0, -0.997321, -46.175982, 288.968214)"/>
<path fill="none" stroke-width="0.4" stroke-linecap="butt" stroke-linejoin="round" stroke="rgb(0%, 0%, 0%)" stroke-opacity="1" stroke-miterlimit="10" d="M 263.001544 177.999687 L 238.000985 152.999127 " transform="matrix(0.997321, 0, 0, -0.997321, -46.175982, 288.968214)"/>
<path fill="none" stroke-width="0.4" stroke-linecap="butt" stroke-linejoin="round" stroke="rgb(0%, 0%, 0%)" stroke-opacity="1" stroke-miterlimit="10" d="M 216.000649 165.000022 L 175.000201 197.998568 " transform="matrix(0.997321, 0, 0, -0.997321, -46.175982, 288.968214)"/>
<path fill="none" stroke-width="0.4" stroke-linecap="butt" stroke-linejoin="round" stroke="rgb(0%, 0%, 0%)" stroke-opacity="1" stroke-miterlimit="10" d="M 216.000649 165.000022 L 162.000537 177.000918 " transform="matrix(0.997321, 0, 0, -0.997321, -46.175982, 288.968214)"/>
<path fill="none" stroke-width="0.4" stroke-linecap="butt" stroke-linejoin="round" stroke="rgb(0%, 0%, 0%)" stroke-opacity="1" stroke-miterlimit="10" d="M 216.000649 165.000022 L 197.999306 126.999799 " transform="matrix(0.997321, 0, 0, -0.997321, -46.175982, 288.968214)"/>
<path fill="none" stroke-width="0.4" stroke-linecap="butt" stroke-linejoin="round" stroke="rgb(0%, 0%, 0%)" stroke-opacity="1" stroke-miterlimit="10" d="M 216.000649 165.000022 L 238.000985 152.999127 " transform="matrix(0.997321, 0, 0, -0.997321, -46.175982, 288.968214)"/>
<path fill="none" stroke-width="0.4" stroke-linecap="butt" stroke-linejoin="round" stroke="rgb(0%, 0%, 0%)" stroke-opacity="1" stroke-miterlimit="10" d="M 216.000649 165.000022 L 245.99897 196.00103 " transform="matrix(0.997321, 0, 0, -0.997321, -46.175982, 288.968214)"/>
<path fill="none" stroke-width="0.4" stroke-linecap="butt" stroke-linejoin="round" stroke="rgb(0%, 0%, 0%)" stroke-opacity="1" stroke-miterlimit="10" d="M 216.000649 165.000022 L 213.999194 221.001589 " transform="matrix(0.997321, 0, 0, -0.997321, -46.175982, 288.968214)"/>
<path fill="none" stroke-width="0.4" stroke-linecap="butt" stroke-linejoin="round" stroke="rgb(0%, 0%, 0%)" stroke-opacity="1" stroke-miterlimit="10" d="M 213.999194 221.001589 L 245.99897 196.00103 " transform="matrix(0.997321, 0, 0, -0.997321, -46.175982, 288.968214)"/>
<path fill="none" stroke-width="0.4" stroke-linecap="butt" stroke-linejoin="round" stroke="rgb(0%, 0%, 0%)" stroke-opacity="1" stroke-miterlimit="10" d="M 213.999194 221.001589 L 241.001209 222.000358 " transform="matrix(0.997321, 0, 0, -0.997321, -46.175982, 288.968214)"/>
<path fill="none" stroke-width="0.4" stroke-linecap="butt" stroke-linejoin="round" stroke="rgb(0%, 0%, 0%)" stroke-opacity="1" stroke-miterlimit="10" d="M 213.999194 221.001589 L 193.001544 231.00103 " transform="matrix(0.997321, 0, 0, -0.997321, -46.175982, 288.968214)"/>
<path fill="none" stroke-width="0.4" stroke-linecap="butt" stroke-linejoin="round" stroke="rgb(0%, 0%, 0%)" stroke-opacity="1" stroke-miterlimit="10" d="M 213.999194 221.001589 L 175.000201 197.998568 " transform="matrix(0.997321, 0, 0, -0.997321, -46.175982, 288.968214)"/>
<path fill="none" stroke-width="0.4" stroke-linecap="butt" stroke-linejoin="round" stroke="rgb(0%, 0%, 0%)" stroke-opacity="1" stroke-miterlimit="10" d="M 213.999194 221.001589 L 216.000649 165.000022 " transform="matrix(0.997321, 0, 0, -0.997321, -46.175982, 288.968214)"/>
<path fill="none" stroke-width="0.4" stroke-linecap="butt" stroke-linejoin="round" stroke="rgb(0%, 0%, 0%)" stroke-opacity="1" stroke-miterlimit="10" d="M 239.998523 244.000694 L 229.999082 282.999687 " transform="matrix(0.997321, 0, 0, -0.997321, -46.175982, 288.968214)"/>
<path fill="none" stroke-width="0.4" stroke-linecap="butt" stroke-linejoin="round" stroke="rgb(0%, 0%, 0%)" stroke-opacity="1" stroke-miterlimit="10" d="M 239.998523 244.000694 L 203.999754 270.000022 " transform="matrix(0.997321, 0, 0, -0.997321, -46.175982, 288.968214)"/>
<path fill="none" stroke-width="0.4" stroke-linecap="butt" stroke-linejoin="round" stroke="rgb(0%, 0%, 0%)" stroke-opacity="1" stroke-miterlimit="10" d="M 239.998523 244.000694 L 241.001209 222.000358 " transform="matrix(0.997321, 0, 0, -0.997321, -46.175982, 288.968214)"/>
<path fill="none" stroke-width="0.4" stroke-linecap="butt" stroke-linejoin="round" stroke="rgb(0%, 0%, 0%)" stroke-opacity="1" stroke-miterlimit="10" d="M 241.001209 222.000358 L 239.998523 244.000694 " transform="matrix(0.997321, 0, 0, -0.997321, -46.175982, 288.968214)"/>
<path fill="none" stroke-width="0.4" stroke-linecap="butt" stroke-linejoin="round" stroke="rgb(0%, 0%, 0%)" stroke-opacity="1" stroke-miterlimit="10" d="M 241.001209 222.000358 L 245.99897 196.00103 " transform="matrix(0.997321, 0, 0, -0.997321, -46.175982, 288.968214)"/>
<path fill="none" stroke-width="0.4" stroke-linecap="butt" stroke-linejoin="round" stroke="rgb(0%, 0%, 0%)" stroke-opacity="1" stroke-miterlimit="10" d="M 245.99897 196.00103 L 238.000985 152.999127 " transform="matrix(0.997321, 0, 0, -0.997321, -46.175982, 288.968214)"/>
<path fill="none" stroke-width="0.4" stroke-linecap="butt" stroke-linejoin="round" stroke="rgb(0%, 0%, 0%)" stroke-opacity="1" stroke-miterlimit="10" d="M 245.99897 196.00103 L 241.001209 222.000358 " transform="matrix(0.997321, 0, 0, -0.997321, -46.175982, 288.968214)"/>
<path fill="none" stroke-width="0.4" stroke-linecap="butt" stroke-linejoin="round" stroke="rgb(0%, 0%, 0%)" stroke-opacity="1" stroke-miterlimit="10" d="M 168.999754 219.998903 L 175.000201 197.998568 " transform="matrix(0.997321, 0, 0, -0.997321, -46.175982, 288.968214)"/>
<path fill="none" stroke-width="0.4" stroke-linecap="butt" stroke-linejoin="round" stroke="rgb(0%, 0%, 0%)" stroke-opacity="1" stroke-miterlimit="10" d="M 168.999754 219.998903 L 193.001544 231.00103 " transform="matrix(0.997321, 0, 0, -0.997321, -46.175982, 288.968214)"/>
<path fill="none" stroke-width="0.4" stroke-linecap="butt" stroke-linejoin="round" stroke="rgb(0%, 0%, 0%)" stroke-opacity="1" stroke-miterlimit="10" d="M 168.999754 219.998903 L 184.000873 264.998344 " transform="matrix(0.997321, 0, 0, -0.997321, -46.175982, 288.968214)"/>
<path fill="none" stroke-width="0.4" stroke-linecap="butt" stroke-linejoin="round" stroke="rgb(0%, 0%, 0%)" stroke-opacity="1" stroke-miterlimit="10" d="M 168.999754 219.998903 L 149.999642 253.001365 " transform="matrix(0.997321, 0, 0, -0.997321, -46.175982, 288.968214)"/>
<path fill="none" stroke-width="0.4" stroke-linecap="butt" stroke-linejoin="round" stroke="rgb(0%, 0%, 0%)" stroke-opacity="1" stroke-miterlimit="10" d="M 162.000537 177.000918 L 140.000201 117.000358 " transform="matrix(0.997321, 0, 0, -0.997321, -46.175982, 288.968214)"/>
<path fill="none" stroke-width="0.4" stroke-linecap="butt" stroke-linejoin="round" stroke="rgb(0%, 0%, 0%)" stroke-opacity="1" stroke-miterlimit="10" d="M 162.000537 177.000918 L 197.999306 126.999799 " transform="matrix(0.997321, 0, 0, -0.997321, -46.175982, 288.968214)"/>
<path fill="none" stroke-width="0.4" stroke-linecap="butt" stroke-linejoin="round" stroke="rgb(0%, 0%, 0%)" stroke-opacity="1" stroke-miterlimit="10" d="M 162.000537 177.000918 L 175.000201 197.998568 " transform="matrix(0.997321, 0, 0, -0.997321, -46.175982, 288.968214)"/>
<path fill="none" stroke-width="0.4" stroke-linecap="butt" stroke-linejoin="round" stroke="rgb(0%, 0%, 0%)" stroke-opacity="1" stroke-miterlimit="10" d="M 162.000537 177.000918 L 133.999754 187.999127 " transform="matrix(0.997321, 0, 0, -0.997321, -46.175982, 288.968214)"/>
<path fill="none" stroke-width="0.4" stroke-linecap="butt" stroke-linejoin="round" stroke="rgb(0%, 0%, 0%)" stroke-opacity="1" stroke-miterlimit="10" d="M 162.000537 177.000918 L 108.999194 158.000806 " transform="matrix(0.997321, 0, 0, -0.997321, -46.175982, 288.968214)"/>
<path fill="none" stroke-width="0.4" stroke-linecap="butt" stroke-linejoin="round" stroke="rgb(0%, 0%, 0%)" stroke-opacity="1" stroke-miterlimit="10" d="M 197.999306 126.999799 L 162.000537 177.000918 " transform="matrix(0.997321, 0, 0, -0.997321, -46.175982, 288.968214)"/>
<path fill="none" stroke-width="0.4" stroke-linecap="butt" stroke-linejoin="round" stroke="rgb(0%, 0%, 0%)" stroke-opacity="1" stroke-miterlimit="10" d="M 197.999306 126.999799 L 140.000201 117.000358 " transform="matrix(0.997321, 0, 0, -0.997321, -46.175982, 288.968214)"/>
<path fill="none" stroke-width="0.4" stroke-linecap="butt" stroke-linejoin="round" stroke="rgb(0%, 0%, 0%)" stroke-opacity="1" stroke-miterlimit="10" d="M 197.999306 126.999799 L 196.001768 107.000918 " transform="matrix(0.997321, 0, 0, -0.997321, -46.175982, 288.968214)"/>
<path fill="none" stroke-width="0.4" stroke-linecap="butt" stroke-linejoin="round" stroke="rgb(0%, 0%, 0%)" stroke-opacity="1" stroke-miterlimit="10" d="M 197.999306 126.999799 L 235.99953 119.001813 " transform="matrix(0.997321, 0, 0, -0.997321, -46.175982, 288.968214)"/>
<path fill="none" stroke-width="0.4" stroke-linecap="butt" stroke-linejoin="round" stroke="rgb(0%, 0%, 0%)" stroke-opacity="1" stroke-miterlimit="10" d="M 197.999306 126.999799 L 238.000985 152.999127 " transform="matrix(0.997321, 0, 0, -0.997321, -46.175982, 288.968214)"/>
<path fill="none" stroke-width="0.4" stroke-linecap="butt" stroke-linejoin="round" stroke="rgb(0%, 0%, 0%)" stroke-opacity="1" stroke-miterlimit="10" d="M 235.99953 119.001813 L 197.999306 126.999799 " transform="matrix(0.997321, 0, 0, -0.997321, -46.175982, 288.968214)"/>
<path fill="none" stroke-width="0.4" stroke-linecap="butt" stroke-linejoin="round" stroke="rgb(0%, 0%, 0%)" stroke-opacity="1" stroke-miterlimit="10" d="M 235.99953 119.001813 L 196.001768 107.000918 " transform="matrix(0.997321, 0, 0, -0.997321, -46.175982, 288.968214)"/>
<path fill="none" stroke-width="0.4" stroke-linecap="butt" stroke-linejoin="round" stroke="rgb(0%, 0%, 0%)" stroke-opacity="1" stroke-miterlimit="10" d="M 235.99953 119.001813 L 228.001544 89.998344 " transform="matrix(0.997321, 0, 0, -0.997321, -46.175982, 288.968214)"/>
<path fill="none" stroke-width="0.4" stroke-linecap="butt" stroke-linejoin="round" stroke="rgb(0%, 0%, 0%)" stroke-opacity="1" stroke-miterlimit="10" d="M 235.99953 119.001813 L 238.000985 152.999127 " transform="matrix(0.997321, 0, 0, -0.997321, -46.175982, 288.968214)"/>
<path fill="none" stroke-width="0.4" stroke-linecap="butt" stroke-linejoin="round" stroke="rgb(0%, 0%, 0%)" stroke-opacity="1" stroke-miterlimit="10" d="M 255.998411 72.999687 L 219.000873 56.999799 " transform="matrix(0.997321, 0, 0, -0.997321, -46.175982, 288.968214)"/>
<path fill="none" stroke-width="0.4" stroke-linecap="butt" stroke-linejoin="round" stroke="rgb(0%, 0%, 0%)" stroke-opacity="1" stroke-miterlimit="10" d="M 255.998411 72.999687 L 244.001432 40.001141 " transform="matrix(0.997321, 0, 0, -0.997321, -46.175982, 288.968214)"/>
<path fill="none" stroke-width="0.4" stroke-linecap="butt" stroke-linejoin="round" stroke="rgb(0%, 0%, 0%)" stroke-opacity="1" stroke-miterlimit="10" d="M 255.998411 72.999687 L 228.001544 89.998344 " transform="matrix(0.997321, 0, 0, -0.997321, -46.175982, 288.968214)"/>
<path fill="none" stroke-width="0.4" stroke-linecap="butt" stroke-linejoin="round" stroke="rgb(0%, 0%, 0%)" stroke-opacity="1" stroke-miterlimit="10" d="M 219.000873 56.999799 L 175.000201 40.001141 " transform="matrix(0.997321, 0, 0, -0.997321, -46.175982, 288.968214)"/>
<path fill="none" stroke-width="0.4" stroke-linecap="butt" stroke-linejoin="round" stroke="rgb(0%, 0%, 0%)" stroke-opacity="1" stroke-miterlimit="10" d="M 219.000873 56.999799 L 244.001432 40.001141 " transform="matrix(0.997321, 0, 0, -0.997321, -46.175982, 288.968214)"/>
<path fill="none" stroke-width="0.4" stroke-linecap="butt" stroke-linejoin="round" stroke="rgb(0%, 0%, 0%)" stroke-opacity="1" stroke-miterlimit="10" d="M 219.000873 56.999799 L 255.998411 72.999687 " transform="matrix(0.997321, 0, 0, -0.997321, -46.175982, 288.968214)"/>
<path fill="none" stroke-width="0.4" stroke-linecap="butt" stroke-linejoin="round" stroke="rgb(0%, 0%, 0%)" stroke-opacity="1" stroke-miterlimit="10" d="M 219.000873 56.999799 L 228.001544 89.998344 " transform="matrix(0.997321, 0, 0, -0.997321, -46.175982, 288.968214)"/>
<path fill="none" stroke-width="0.4" stroke-linecap="butt" stroke-linejoin="round" stroke="rgb(0%, 0%, 0%)" stroke-opacity="1" stroke-miterlimit="10" d="M 219.000873 56.999799 L 194.999082 82.000358 " transform="matrix(0.997321, 0, 0, -0.997321, -46.175982, 288.968214)"/>
<path fill="none" stroke-width="0.4" stroke-linecap="butt" stroke-linejoin="round" stroke="rgb(0%, 0%, 0%)" stroke-opacity="1" stroke-miterlimit="10" d="M 244.001432 40.001141 L 219.000873 56.999799 " transform="matrix(0.997321, 0, 0, -0.997321, -46.175982, 288.968214)"/>
<path fill="none" stroke-width="0.4" stroke-linecap="butt" stroke-linejoin="round" stroke="rgb(0%, 0%, 0%)" stroke-opacity="1" stroke-miterlimit="10" d="M 244.001432 40.001141 L 175.000201 40.001141 " transform="matrix(0.997321, 0, 0, -0.997321, -46.175982, 288.968214)"/>
<path fill="none" stroke-width="0.4" stroke-linecap="butt" stroke-linejoin="round" stroke="rgb(0%, 0%, 0%)" stroke-opacity="1" stroke-miterlimit="10" d="M 175.000201 40.001141 L 194.999082 82.000358 " transform="matrix(0.997321, 0, 0, -0.997321, -46.175982, 288.968214)"/>
<path fill="none" stroke-width="0.4" stroke-linecap="butt" stroke-linejoin="round" stroke="rgb(0%, 0%, 0%)" stroke-opacity="1" stroke-miterlimit="10" d="M 175.000201 40.001141 L 162.000537 81.001589 " transform="matrix(0.997321, 0, 0, -0.997321, -46.175982, 288.968214)"/>
<path fill="none" stroke-width="0.4" stroke-linecap="butt" stroke-linejoin="round" stroke="rgb(0%, 0%, 0%)" stroke-opacity="1" stroke-miterlimit="10" d="M 175.000201 40.001141 L 152.001097 56.999799 " transform="matrix(0.997321, 0, 0, -0.997321, -46.175982, 288.968214)"/>
<path fill="none" stroke-width="0.4" stroke-linecap="butt" stroke-linejoin="round" stroke="rgb(0%, 0%, 0%)" stroke-opacity="1" stroke-miterlimit="10" d="M 175.000201 40.001141 L 244.001432 40.001141 " transform="matrix(0.997321, 0, 0, -0.997321, -46.175982, 288.968214)"/>
<path fill="none" stroke-width="0.4" stroke-linecap="butt" stroke-linejoin="round" stroke="rgb(0%, 0%, 0%)" stroke-opacity="1" stroke-miterlimit="10" d="M 140.000201 117.000358 L 196.001768 107.000918 " transform="matrix(0.997321, 0, 0, -0.997321, -46.175982, 288.968214)"/>
<path fill="none" stroke-width="0.4" stroke-linecap="butt" stroke-linejoin="round" stroke="rgb(0%, 0%, 0%)" stroke-opacity="1" stroke-miterlimit="10" d="M 140.000201 117.000358 L 108.999194 158.000806 " transform="matrix(0.997321, 0, 0, -0.997321, -46.175982, 288.968214)"/>
<path fill="none" stroke-width="0.4" stroke-linecap="butt" stroke-linejoin="round" stroke="rgb(0%, 0%, 0%)" stroke-opacity="1" stroke-miterlimit="10" d="M 140.000201 117.000358 L 105.000201 114.998903 " transform="matrix(0.997321, 0, 0, -0.997321, -46.175982, 288.968214)"/>
<path fill="none" stroke-width="0.4" stroke-linecap="butt" stroke-linejoin="round" stroke="rgb(0%, 0%, 0%)" stroke-opacity="1" stroke-miterlimit="10" d="M 140.000201 117.000358 L 115.998411 81.001589 " transform="matrix(0.997321, 0, 0, -0.997321, -46.175982, 288.968214)"/>
<path fill="none" stroke-width="0.4" stroke-linecap="butt" stroke-linejoin="round" stroke="rgb(0%, 0%, 0%)" stroke-opacity="1" stroke-miterlimit="10" d="M 140.000201 117.000358 L 162.000537 81.001589 " transform="matrix(0.997321, 0, 0, -0.997321, -46.175982, 288.968214)"/>
<path fill="none" stroke-width="0.4" stroke-linecap="butt" stroke-linejoin="round" stroke="rgb(0%, 0%, 0%)" stroke-opacity="1" stroke-miterlimit="10" d="M 108.999194 158.000806 L 120.001321 203.000246 " transform="matrix(0.997321, 0, 0, -0.997321, -46.175982, 288.968214)"/>
<path fill="none" stroke-width="0.4" stroke-linecap="butt" stroke-linejoin="round" stroke="rgb(0%, 0%, 0%)" stroke-opacity="1" stroke-miterlimit="10" d="M 108.999194 158.000806 L 88.001544 194.998344 " transform="matrix(0.997321, 0, 0, -0.997321, -46.175982, 288.968214)"/>
<path fill="none" stroke-width="0.4" stroke-linecap="butt" stroke-linejoin="round" stroke="rgb(0%, 0%, 0%)" stroke-opacity="1" stroke-miterlimit="10" d="M 108.999194 158.000806 L 80.998411 161.999799 " transform="matrix(0.997321, 0, 0, -0.997321, -46.175982, 288.968214)"/>
<path fill="none" stroke-width="0.4" stroke-linecap="butt" stroke-linejoin="round" stroke="rgb(0%, 0%, 0%)" stroke-opacity="1" stroke-miterlimit="10" d="M 108.999194 158.000806 L 99.998523 138.001925 " transform="matrix(0.997321, 0, 0, -0.997321, -46.175982, 288.968214)"/>
<path fill="none" stroke-width="0.4" stroke-linecap="butt" stroke-linejoin="round" stroke="rgb(0%, 0%, 0%)" stroke-opacity="1" stroke-miterlimit="10" d="M 108.999194 158.000806 L 105.000201 114.998903 " transform="matrix(0.997321, 0, 0, -0.997321, -46.175982, 288.968214)"/>
<path fill="none" stroke-width="0.4" stroke-linecap="butt" stroke-linejoin="round" stroke="rgb(0%, 0%, 0%)" stroke-opacity="1" stroke-miterlimit="10" d="M 108.999194 158.000806 L 140.000201 117.000358 " transform="matrix(0.997321, 0, 0, -0.997321, -46.175982, 288.968214)"/>
<path fill="none" stroke-width="0.4" stroke-linecap="butt" stroke-linejoin="round" stroke="rgb(0%, 0%, 0%)" stroke-opacity="1" stroke-miterlimit="10" d="M 108.999194 158.000806 L 133.999754 187.999127 " transform="matrix(0.997321, 0, 0, -0.997321, -46.175982, 288.968214)"/>
<path fill="none" stroke-width="0.4" stroke-linecap="butt" stroke-linejoin="round" stroke="rgb(0%, 0%, 0%)" stroke-opacity="1" stroke-miterlimit="10" d="M 229.999082 282.999687 L 203.999754 270.000022 " transform="matrix(0.997321, 0, 0, -0.997321, -46.175982, 288.968214)"/>
<path fill="none" stroke-width="0.4" stroke-linecap="butt" stroke-linejoin="round" stroke="rgb(0%, 0%, 0%)" stroke-opacity="1" stroke-miterlimit="10" d="M 203.999754 270.000022 L 229.999082 282.999687 " transform="matrix(0.997321, 0, 0, -0.997321, -46.175982, 288.968214)"/>
<path fill="none" stroke-width="0.4" stroke-linecap="butt" stroke-linejoin="round" stroke="rgb(0%, 0%, 0%)" stroke-opacity="1" stroke-miterlimit="10" d="M 203.999754 270.000022 L 184.000873 264.998344 " transform="matrix(0.997321, 0, 0, -0.997321, -46.175982, 288.968214)"/>
<path fill="none" stroke-width="0.4" stroke-linecap="butt" stroke-linejoin="round" stroke="rgb(0%, 0%, 0%)" stroke-opacity="1" stroke-miterlimit="10" d="M 184.000873 264.998344 L 203.999754 270.000022 " transform="matrix(0.997321, 0, 0, -0.997321, -46.175982, 288.968214)"/>
<path fill="none" stroke-width="0.4" stroke-linecap="butt" stroke-linejoin="round" stroke="rgb(0%, 0%, 0%)" stroke-opacity="1" stroke-miterlimit="10" d="M 184.000873 264.998344 L 149.999642 253.001365 " transform="matrix(0.997321, 0, 0, -0.997321, -46.175982, 288.968214)"/>
<path fill="none" stroke-width="0.4" stroke-linecap="butt" stroke-linejoin="round" stroke="rgb(0%, 0%, 0%)" stroke-opacity="1" stroke-miterlimit="10" d="M 184.000873 264.998344 L 193.001544 231.00103 " transform="matrix(0.997321, 0, 0, -0.997321, -46.175982, 288.968214)"/>
<path fill="none" stroke-width="0.4" stroke-linecap="butt" stroke-linejoin="round" stroke="rgb(0%, 0%, 0%)" stroke-opacity="1" stroke-miterlimit="10" d="M 149.999642 253.001365 L 184.000873 264.998344 " transform="matrix(0.997321, 0, 0, -0.997321, -46.175982, 288.968214)"/>
<path fill="none" stroke-width="0.4" stroke-linecap="butt" stroke-linejoin="round" stroke="rgb(0%, 0%, 0%)" stroke-opacity="1" stroke-miterlimit="10" d="M 149.999642 253.001365 L 118.998635 269.001253 " transform="matrix(0.997321, 0, 0, -0.997321, -46.175982, 288.968214)"/>
<path fill="none" stroke-width="0.4" stroke-linecap="butt" stroke-linejoin="round" stroke="rgb(0%, 0%, 0%)" stroke-opacity="1" stroke-miterlimit="10" d="M 149.999642 253.001365 L 118.998635 240.001701 " transform="matrix(0.997321, 0, 0, -0.997321, -46.175982, 288.968214)"/>
<path fill="none" stroke-width="0.4" stroke-linecap="butt" stroke-linejoin="round" stroke="rgb(0%, 0%, 0%)" stroke-opacity="1" stroke-miterlimit="10" d="M 149.999642 253.001365 L 137.998747 215.001141 " transform="matrix(0.997321, 0, 0, -0.997321, -46.175982, 288.968214)"/>
<path fill="none" stroke-width="0.4" stroke-linecap="butt" stroke-linejoin="round" stroke="rgb(0%, 0%, 0%)" stroke-opacity="1" stroke-miterlimit="10" d="M 118.998635 269.001253 L 95.99953 253.001365 " transform="matrix(0.997321, 0, 0, -0.997321, -46.175982, 288.968214)"/>
<path fill="none" stroke-width="0.4" stroke-linecap="butt" stroke-linejoin="round" stroke="rgb(0%, 0%, 0%)" stroke-opacity="1" stroke-miterlimit="10" d="M 118.998635 269.001253 L 118.998635 240.001701 " transform="matrix(0.997321, 0, 0, -0.997321, -46.175982, 288.968214)"/>
<path fill="none" stroke-width="0.4" stroke-linecap="butt" stroke-linejoin="round" stroke="rgb(0%, 0%, 0%)" stroke-opacity="1" stroke-miterlimit="10" d="M 118.998635 240.001701 L 120.001321 203.000246 " transform="matrix(0.997321, 0, 0, -0.997321, -46.175982, 288.968214)"/>
<path fill="none" stroke-width="0.4" stroke-linecap="butt" stroke-linejoin="round" stroke="rgb(0%, 0%, 0%)" stroke-opacity="1" stroke-miterlimit="10" d="M 118.998635 240.001701 L 137.998747 215.001141 " transform="matrix(0.997321, 0, 0, -0.997321, -46.175982, 288.968214)"/>
<path fill="none" stroke-width="0.4" stroke-linecap="butt" stroke-linejoin="round" stroke="rgb(0%, 0%, 0%)" stroke-opacity="1" stroke-miterlimit="10" d="M 118.998635 240.001701 L 118.998635 269.001253 " transform="matrix(0.997321, 0, 0, -0.997321, -46.175982, 288.968214)"/>
<path fill="none" stroke-width="0.4" stroke-linecap="butt" stroke-linejoin="round" stroke="rgb(0%, 0%, 0%)" stroke-opacity="1" stroke-miterlimit="10" d="M 118.998635 240.001701 L 95.99953 253.001365 " transform="matrix(0.997321, 0, 0, -0.997321, -46.175982, 288.968214)"/>
<path fill="none" stroke-width="0.4" stroke-linecap="butt" stroke-linejoin="round" stroke="rgb(0%, 0%, 0%)" stroke-opacity="1" stroke-miterlimit="10" d="M 118.998635 240.001701 L 91.001768 222.000358 " transform="matrix(0.997321, 0, 0, -0.997321, -46.175982, 288.968214)"/>
<path fill="none" stroke-width="0.4" stroke-linecap="butt" stroke-linejoin="round" stroke="rgb(0%, 0%, 0%)" stroke-opacity="1" stroke-miterlimit="10" d="M 95.99953 253.001365 L 75.00188 266.999799 " transform="matrix(0.997321, 0, 0, -0.997321, -46.175982, 288.968214)"/>
<path fill="none" stroke-width="0.4" stroke-linecap="butt" stroke-linejoin="round" stroke="rgb(0%, 0%, 0%)" stroke-opacity="1" stroke-miterlimit="10" d="M 95.99953 253.001365 L 91.001768 222.000358 " transform="matrix(0.997321, 0, 0, -0.997321, -46.175982, 288.968214)"/>
<path fill="none" stroke-width="0.4" stroke-linecap="butt" stroke-linejoin="round" stroke="rgb(0%, 0%, 0%)" stroke-opacity="1" stroke-miterlimit="10" d="M 91.001768 222.000358 L 95.99953 253.001365 " transform="matrix(0.997321, 0, 0, -0.997321, -46.175982, 288.968214)"/>
<path fill="none" stroke-width="0.4" stroke-linecap="butt" stroke-linejoin="round" stroke="rgb(0%, 0%, 0%)" stroke-opacity="1" stroke-miterlimit="10" d="M 91.001768 222.000358 L 75.00188 266.999799 " transform="matrix(0.997321, 0, 0, -0.997321, -46.175982, 288.968214)"/>
<path fill="none" stroke-width="0.4" stroke-linecap="butt" stroke-linejoin="round" stroke="rgb(0%, 0%, 0%)" stroke-opacity="1" stroke-miterlimit="10" d="M 91.001768 222.000358 L 88.001544 194.998344 " transform="matrix(0.997321, 0, 0, -0.997321, -46.175982, 288.968214)"/>
<path fill="none" stroke-width="0.4" stroke-linecap="butt" stroke-linejoin="round" stroke="rgb(0%, 0%, 0%)" stroke-opacity="1" stroke-miterlimit="10" d="M 91.001768 222.000358 L 120.001321 203.000246 " transform="matrix(0.997321, 0, 0, -0.997321, -46.175982, 288.968214)"/>
<path fill="none" stroke-width="0.4" stroke-linecap="butt" stroke-linejoin="round" stroke="rgb(0%, 0%, 0%)" stroke-opacity="1" stroke-miterlimit="10" d="M 88.001544 194.998344 L 120.001321 203.000246 " transform="matrix(0.997321, 0, 0, -0.997321, -46.175982, 288.968214)"/>
<path fill="none" stroke-width="0.4" stroke-linecap="butt" stroke-linejoin="round" stroke="rgb(0%, 0%, 0%)" stroke-opacity="1" stroke-miterlimit="10" d="M 88.001544 194.998344 L 91.001768 222.000358 " transform="matrix(0.997321, 0, 0, -0.997321, -46.175982, 288.968214)"/>
<path fill="none" stroke-width="0.4" stroke-linecap="butt" stroke-linejoin="round" stroke="rgb(0%, 0%, 0%)" stroke-opacity="1" stroke-miterlimit="10" d="M 88.001544 194.998344 L 80.998411 161.999799 " transform="matrix(0.997321, 0, 0, -0.997321, -46.175982, 288.968214)"/>
<path fill="none" stroke-width="0.4" stroke-linecap="butt" stroke-linejoin="round" stroke="rgb(0%, 0%, 0%)" stroke-opacity="1" stroke-miterlimit="10" d="M 80.998411 161.999799 L 88.001544 194.998344 " transform="matrix(0.997321, 0, 0, -0.997321, -46.175982, 288.968214)"/>
<path fill="none" stroke-width="0.4" stroke-linecap="butt" stroke-linejoin="round" stroke="rgb(0%, 0%, 0%)" stroke-opacity="1" stroke-miterlimit="10" d="M 80.998411 161.999799 L 83.998635 91.999799 " transform="matrix(0.997321, 0, 0, -0.997321, -46.175982, 288.968214)"/>
<path fill="none" stroke-width="0.4" stroke-linecap="butt" stroke-linejoin="round" stroke="rgb(0%, 0%, 0%)" stroke-opacity="1" stroke-miterlimit="10" d="M 80.998411 161.999799 L 99.998523 138.001925 " transform="matrix(0.997321, 0, 0, -0.997321, -46.175982, 288.968214)"/>
<path fill="none" stroke-width="0.4" stroke-linecap="butt" stroke-linejoin="round" stroke="rgb(0%, 0%, 0%)" stroke-opacity="1" stroke-miterlimit="10" d="M 99.998523 138.001925 L 105.000201 114.998903 " transform="matrix(0.997321, 0, 0, -0.997321, -46.175982, 288.968214)"/>
<path fill="none" stroke-width="0.4" stroke-linecap="butt" stroke-linejoin="round" stroke="rgb(0%, 0%, 0%)" stroke-opacity="1" stroke-miterlimit="10" d="M 99.998523 138.001925 L 80.998411 161.999799 " transform="matrix(0.997321, 0, 0, -0.997321, -46.175982, 288.968214)"/>
<path fill="none" stroke-width="0.4" stroke-linecap="butt" stroke-linejoin="round" stroke="rgb(0%, 0%, 0%)" stroke-opacity="1" stroke-miterlimit="10" d="M 99.998523 138.001925 L 83.998635 91.999799 " transform="matrix(0.997321, 0, 0, -0.997321, -46.175982, 288.968214)"/>
<path fill="none" stroke-width="0.4" stroke-linecap="butt" stroke-linejoin="round" stroke="rgb(0%, 0%, 0%)" stroke-opacity="1" stroke-miterlimit="10" d="M 105.000201 114.998903 L 99.998523 138.001925 " transform="matrix(0.997321, 0, 0, -0.997321, -46.175982, 288.968214)"/>
<path fill="none" stroke-width="0.4" stroke-linecap="butt" stroke-linejoin="round" stroke="rgb(0%, 0%, 0%)" stroke-opacity="1" stroke-miterlimit="10" d="M 105.000201 114.998903 L 83.998635 91.999799 " transform="matrix(0.997321, 0, 0, -0.997321, -46.175982, 288.968214)"/>
<path fill="none" stroke-width="0.4" stroke-linecap="butt" stroke-linejoin="round" stroke="rgb(0%, 0%, 0%)" stroke-opacity="1" stroke-miterlimit="10" d="M 105.000201 114.998903 L 115.998411 81.001589 " transform="matrix(0.997321, 0, 0, -0.997321, -46.175982, 288.968214)"/>
<path fill="none" stroke-width="0.4" stroke-linecap="butt" stroke-linejoin="round" stroke="rgb(0%, 0%, 0%)" stroke-opacity="1" stroke-miterlimit="10" d="M 83.998635 91.999799 L 115.998411 81.001589 " transform="matrix(0.997321, 0, 0, -0.997321, -46.175982, 288.968214)"/>
<path fill="none" stroke-width="0.4" stroke-linecap="butt" stroke-linejoin="round" stroke="rgb(0%, 0%, 0%)" stroke-opacity="1" stroke-miterlimit="10" d="M 83.998635 91.999799 L 105.000201 114.998903 " transform="matrix(0.997321, 0, 0, -0.997321, -46.175982, 288.968214)"/>
<path fill="none" stroke-width="0.4" stroke-linecap="butt" stroke-linejoin="round" stroke="rgb(0%, 0%, 0%)" stroke-opacity="1" stroke-miterlimit="10" d="M 115.998411 81.001589 L 162.000537 81.001589 " transform="matrix(0.997321, 0, 0, -0.997321, -46.175982, 288.968214)"/>
<path fill="none" stroke-width="0.4" stroke-linecap="butt" stroke-linejoin="round" stroke="rgb(0%, 0%, 0%)" stroke-opacity="1" stroke-miterlimit="10" d="M 115.998411 81.001589 L 83.998635 91.999799 " transform="matrix(0.997321, 0, 0, -0.997321, -46.175982, 288.968214)"/>
<path fill="none" stroke-width="0.4" stroke-linecap="butt" stroke-linejoin="round" stroke="rgb(0%, 0%, 0%)" stroke-opacity="1" stroke-miterlimit="10" d="M 115.998411 81.001589 L 152.001097 56.999799 " transform="matrix(0.997321, 0, 0, -0.997321, -46.175982, 288.968214)"/>
<path fill="none" stroke-width="0.4" stroke-linecap="butt" stroke-linejoin="round" stroke="rgb(0%, 0%, 0%)" stroke-opacity="1" stroke-miterlimit="10" d="M 196.001768 107.000918 L 162.000537 81.001589 " transform="matrix(0.997321, 0, 0, -0.997321, -46.175982, 288.968214)"/>
<path fill="none" stroke-width="0.4" stroke-linecap="butt" stroke-linejoin="round" stroke="rgb(0%, 0%, 0%)" stroke-opacity="1" stroke-miterlimit="10" d="M 196.001768 107.000918 L 194.999082 82.000358 " transform="matrix(0.997321, 0, 0, -0.997321, -46.175982, 288.968214)"/>
<path fill="none" stroke-width="0.4" stroke-linecap="butt" stroke-linejoin="round" stroke="rgb(0%, 0%, 0%)" stroke-opacity="1" stroke-miterlimit="10" d="M 196.001768 107.000918 L 228.001544 89.998344 " transform="matrix(0.997321, 0, 0, -0.997321, -46.175982, 288.968214)"/>
<path fill="none" stroke-width="0.4" stroke-linecap="butt" stroke-linejoin="round" stroke="rgb(0%, 0%, 0%)" stroke-opacity="1" stroke-miterlimit="10" d="M 194.999082 82.000358 L 196.001768 107.000918 " transform="matrix(0.997321, 0, 0, -0.997321, -46.175982, 288.968214)"/>
<path fill="none" stroke-width="0.4" stroke-linecap="butt" stroke-linejoin="round" stroke="rgb(0%, 0%, 0%)" stroke-opacity="1" stroke-miterlimit="10" d="M 194.999082 82.000358 L 162.000537 81.001589 " transform="matrix(0.997321, 0, 0, -0.997321, -46.175982, 288.968214)"/>
<path fill="none" stroke-width="0.4" stroke-linecap="butt" stroke-linejoin="round" stroke="rgb(0%, 0%, 0%)" stroke-opacity="1" stroke-miterlimit="10" d="M 194.999082 82.000358 L 228.001544 89.998344 " transform="matrix(0.997321, 0, 0, -0.997321, -46.175982, 288.968214)"/>
<path fill="none" stroke-width="0.4" stroke-linecap="butt" stroke-linejoin="round" stroke="rgb(0%, 0%, 0%)" stroke-opacity="1" stroke-miterlimit="10" d="M 162.000537 81.001589 L 152.001097 56.999799 " transform="matrix(0.997321, 0, 0, -0.997321, -46.175982, 288.968214)"/>
<path fill="none" stroke-width="0.4" stroke-linecap="butt" stroke-linejoin="round" stroke="rgb(0%, 0%, 0%)" stroke-opacity="1" stroke-miterlimit="10" d="M 162.000537 81.001589 L 194.999082 82.000358 " transform="matrix(0.997321, 0, 0, -0.997321, -46.175982, 288.968214)"/>
<path fill="none" stroke-width="0.4" stroke-linecap="butt" stroke-linejoin="round" stroke="rgb(0%, 0%, 0%)" stroke-opacity="1" stroke-miterlimit="10" d="M 152.001097 56.999799 L 162.000537 81.001589 " transform="matrix(0.997321, 0, 0, -0.997321, -46.175982, 288.968214)"/>
<path fill="none" stroke-width="0.4" stroke-linecap="butt" stroke-linejoin="round" stroke="rgb(0%, 0%, 0%)" stroke-opacity="1" stroke-miterlimit="10" d="M 137.998747 215.001141 L 120.001321 203.000246 " transform="matrix(0.997321, 0, 0, -0.997321, -46.175982, 288.968214)"/>
<path fill="none" stroke-width="0.4" stroke-linecap="butt" stroke-linejoin="round" stroke="rgb(0%, 0%, 0%)" stroke-opacity="1" stroke-miterlimit="10" d="M 137.998747 215.001141 L 133.999754 187.999127 " transform="matrix(0.997321, 0, 0, -0.997321, -46.175982, 288.968214)"/>
<path fill="none" stroke-width="0.4" stroke-linecap="butt" stroke-linejoin="round" stroke="rgb(0%, 0%, 0%)" stroke-opacity="1" stroke-miterlimit="10" d="M 137.998747 215.001141 L 175.000201 197.998568 " transform="matrix(0.997321, 0, 0, -0.997321, -46.175982, 288.968214)"/>
<path fill="none" stroke-width="0.4" stroke-linecap="butt" stroke-linejoin="round" stroke="rgb(0%, 0%, 0%)" stroke-opacity="1" stroke-miterlimit="10" d="M 120.001321 203.000246 L 133.999754 187.999127 " transform="matrix(0.997321, 0, 0, -0.997321, -46.175982, 288.968214)"/>
<path fill="none" stroke-width="0.4" stroke-linecap="butt" stroke-linejoin="round" stroke="rgb(0%, 0%, 0%)" stroke-opacity="1" stroke-miterlimit="10" d="M 120.001321 203.000246 L 137.998747 215.001141 " transform="matrix(0.997321, 0, 0, -0.997321, -46.175982, 288.968214)"/>
<path fill="none" stroke-width="0.4" stroke-linecap="butt" stroke-linejoin="round" stroke="rgb(0%, 0%, 0%)" stroke-opacity="1" stroke-miterlimit="10" d="M 133.999754 187.999127 L 175.000201 197.998568 " transform="matrix(0.997321, 0, 0, -0.997321, -46.175982, 288.968214)"/>
<path fill="none" stroke-width="0.4" stroke-linecap="butt" stroke-linejoin="round" stroke="rgb(0%, 0%, 0%)" stroke-opacity="1" stroke-miterlimit="10" d="M 133.999754 187.999127 L 120.001321 203.000246 " transform="matrix(0.997321, 0, 0, -0.997321, -46.175982, 288.968214)"/>
<path fill="none" stroke-width="0.4" stroke-linecap="butt" stroke-linejoin="round" stroke="rgb(0%, 0%, 0%)" stroke-opacity="1" stroke-miterlimit="10" d="M 175.000201 197.998568 L 193.001544 231.00103 " transform="matrix(0.997321, 0, 0, -0.997321, -46.175982, 288.968214)"/>
<path fill="none" stroke-width="0.4" stroke-linecap="butt" stroke-linejoin="round" stroke="rgb(0%, 0%, 0%)" stroke-opacity="1" stroke-miterlimit="10" d="M 175.000201 197.998568 L 133.999754 187.999127 " transform="matrix(0.997321, 0, 0, -0.997321, -46.175982, 288.968214)"/>
<path fill="none" stroke-width="0.4" stroke-linecap="butt" stroke-linejoin="round" stroke="rgb(0%, 0%, 0%)" stroke-opacity="1" stroke-miterlimit="10" d="M 193.001544 231.00103 L 175.000201 197.998568 " transform="matrix(0.997321, 0, 0, -0.997321, -46.175982, 288.968214)"/>
<path fill="none" stroke-width="0.4" stroke-linecap="butt" stroke-linejoin="round" stroke="rgb(0%, 0%, 0%)" stroke-opacity="1" stroke-miterlimit="10" d="M 53.001544 209.000694 L 88.001544 194.998344 " transform="matrix(0.997321, 0, 0, -0.997321, -46.175982, 288.968214)"/>
<path fill="none" stroke-width="0.4" stroke-linecap="butt" stroke-linejoin="round" stroke="rgb(0%, 0%, 0%)" stroke-opacity="1" stroke-miterlimit="10" d="M 53.001544 209.000694 L 91.001768 222.000358 " transform="matrix(0.997321, 0, 0, -0.997321, -46.175982, 288.968214)"/>
<path fill="none" stroke-width="0.4" stroke-linecap="butt" stroke-linejoin="round" stroke="rgb(0%, 0%, 0%)" stroke-opacity="1" stroke-miterlimit="10" d="M 53.001544 209.000694 L 75.00188 266.999799 " transform="matrix(0.997321, 0, 0, -0.997321, -46.175982, 288.968214)"/>
<path fill="none" stroke-width="0.4" stroke-linecap="butt" stroke-linejoin="round" stroke="rgb(0%, 0%, 0%)" stroke-opacity="1" stroke-miterlimit="10" d="M 219.000873 56.999799 L 228.001544 89.998344 " transform="matrix(0.997321, 0, 0, -0.997321, -46.175982, 288.968214)"/>
<path fill="none" stroke-width="0.4" stroke-linecap="butt" stroke-linejoin="round" stroke="rgb(0%, 0%, 0%)" stroke-opacity="1" stroke-miterlimit="10" d="M 140.000201 117.000358 L 105.000201 114.998903 " transform="matrix(0.997321, 0, 0, -0.997321, -46.175982, 288.968214)"/>
<path fill="none" stroke-width="0.4" stroke-linecap="butt" stroke-linejoin="round" stroke="rgb(0%, 0%, 0%)" stroke-opacity="1" stroke-miterlimit="10" d="M 140.000201 117.000358 L 115.998411 81.001589 " transform="matrix(0.997321, 0, 0, -0.997321, -46.175982, 288.968214)"/>
<path fill="none" stroke-width="0.4" stroke-linecap="butt" stroke-linejoin="round" stroke="rgb(0%, 0%, 0%)" stroke-opacity="1" stroke-miterlimit="10" d="M 140.000201 117.000358 L 162.000537 81.001589 " transform="matrix(0.997321, 0, 0, -0.997321, -46.175982, 288.968214)"/>
<path fill="none" stroke-width="0.4" stroke-linecap="butt" stroke-linejoin="round" stroke="rgb(0%, 0%, 0%)" stroke-opacity="1" stroke-miterlimit="10" d="M 108.999194 158.000806 L 80.998411 161.999799 " transform="matrix(0.997321, 0, 0, -0.997321, -46.175982, 288.968214)"/>
<path fill="none" stroke-width="0.4" stroke-linecap="butt" stroke-linejoin="round" stroke="rgb(0%, 0%, 0%)" stroke-opacity="1" stroke-miterlimit="10" d="M 108.999194 158.000806 L 99.998523 138.001925 " transform="matrix(0.997321, 0, 0, -0.997321, -46.175982, 288.968214)"/>
<path fill="none" stroke-width="0.4" stroke-linecap="butt" stroke-linejoin="round" stroke="rgb(0%, 0%, 0%)" stroke-opacity="1" stroke-miterlimit="10" d="M 108.999194 158.000806 L 105.000201 114.998903 " transform="matrix(0.997321, 0, 0, -0.997321, -46.175982, 288.968214)"/>
<path fill="none" stroke-width="0.4" stroke-linecap="butt" stroke-linejoin="round" stroke="rgb(0%, 0%, 0%)" stroke-opacity="1" stroke-miterlimit="10" d="M 80.998411 161.999799 L 88.001544 194.998344 " transform="matrix(0.997321, 0, 0, -0.997321, -46.175982, 288.968214)"/>
<path fill="none" stroke-width="0.4" stroke-linecap="butt" stroke-linejoin="round" stroke="rgb(0%, 0%, 0%)" stroke-opacity="1" stroke-miterlimit="10" d="M 196.001768 107.000918 L 162.000537 81.001589 " transform="matrix(0.997321, 0, 0, -0.997321, -46.175982, 288.968214)"/>
<path fill="none" stroke-width="0.4" stroke-linecap="butt" stroke-linejoin="round" stroke="rgb(0%, 0%, 0%)" stroke-opacity="1" stroke-miterlimit="10" d="M 194.999082 82.000358 L 196.001768 107.000918 " transform="matrix(0.997321, 0, 0, -0.997321, -46.175982, 288.968214)"/>
<path fill="none" stroke-width="0.4" stroke-linecap="butt" stroke-linejoin="round" stroke="rgb(0%, 0%, 0%)" stroke-opacity="1" stroke-miterlimit="10" d="M 194.999082 82.000358 L 228.001544 89.998344 " transform="matrix(0.997321, 0, 0, -0.997321, -46.175982, 288.968214)"/>
<path fill-rule="evenodd" fill="rgb(100%, 0%, 0%)" fill-opacity="1" d="M 33.609375 22.683594 C 33.609375 19.929688 31.378906 17.695312 28.625 17.695312 C 25.867188 17.695312 23.636719 19.929688 23.636719 22.683594 C 23.636719 25.4375 25.867188 27.671875 28.625 27.671875 C 31.378906 27.671875 33.609375 25.4375 33.609375 22.683594 "/>
<path fill-rule="evenodd" fill="rgb(0%, 0%, 0%)" fill-opacity="1" d="M 34.605469 22.683594 C 34.605469 19.378906 31.929688 16.699219 28.625 16.699219 C 25.316406 16.699219 22.640625 19.378906 22.640625 22.683594 C 22.640625 25.988281 25.316406 28.667969 28.625 28.667969 C 31.929688 28.667969 34.605469 25.988281 34.605469 22.683594 M 32.613281 22.683594 C 32.613281 20.480469 30.828125 18.695312 28.625 18.695312 C 26.421875 18.695312 24.632812 20.480469 24.632812 22.683594 C 24.632812 24.886719 26.421875 26.671875 28.625 26.671875 C 30.828125 26.671875 32.613281 24.886719 32.613281 22.683594 "/>
<path fill-rule="evenodd" fill="rgb(0%, 0%, 54.499817%)" fill-opacity="1" d="M 77.492188 20.6875 C 77.492188 17.933594 75.257812 15.703125 72.503906 15.703125 C 69.75 15.703125 67.519531 17.933594 67.519531 20.6875 C 67.519531 23.441406 69.75 25.675781 72.503906 25.675781 C 75.257812 25.675781 77.492188 23.441406 77.492188 20.6875 "/>
<path fill-rule="evenodd" fill="rgb(0%, 0%, 0%)" fill-opacity="1" d="M 78.488281 20.6875 C 78.488281 17.382812 75.808594 14.703125 72.503906 14.703125 C 69.199219 14.703125 66.519531 17.382812 66.519531 20.6875 C 66.519531 23.992188 69.199219 26.671875 72.503906 26.671875 C 75.808594 26.671875 78.488281 23.992188 78.488281 20.6875 M 76.496094 20.6875 C 76.496094 18.484375 74.707031 16.699219 72.503906 16.699219 C 70.300781 16.699219 68.515625 18.484375 68.515625 20.6875 C 68.515625 22.890625 70.300781 24.679688 72.503906 24.679688 C 74.707031 24.679688 76.496094 22.890625 76.496094 20.6875 "/>
<path fill-rule="evenodd" fill="rgb(0%, 54.499817%, 54.499817%)" fill-opacity="1" d="M 142.316406 24.679688 C 142.316406 21.925781 140.085938 19.691406 137.332031 19.691406 C 134.578125 19.691406 132.34375 21.925781 132.34375 24.679688 C 132.34375 27.429688 134.578125 29.664062 137.332031 29.664062 C 140.085938 29.664062 142.316406 27.429688 142.316406 24.679688 "/>
<path fill-rule="evenodd" fill="rgb(0%, 0%, 0%)" fill-opacity="1" d="M 143.316406 24.679688 C 143.316406 21.371094 140.636719 18.695312 137.332031 18.695312 C 134.027344 18.695312 131.347656 21.371094 131.347656 24.679688 C 131.347656 27.984375 134.027344 30.660156 137.332031 30.660156 C 140.636719 30.660156 143.316406 27.984375 143.316406 24.679688 M 141.320312 24.679688 C 141.320312 22.476562 139.535156 20.6875 137.332031 20.6875 C 135.128906 20.6875 133.34375 22.476562 133.34375 24.679688 C 133.34375 26.882812 135.128906 28.667969 137.332031 28.667969 C 139.535156 28.667969 141.320312 26.882812 141.320312 24.679688 "/>
<path fill-rule="evenodd" fill="rgb(0%, 0%, 54.499817%)" fill-opacity="1" d="M 188.195312 6.726562 C 188.195312 3.972656 185.960938 1.738281 183.207031 1.738281 C 180.453125 1.738281 178.222656 3.972656 178.222656 6.726562 C 178.222656 9.480469 180.453125 11.710938 183.207031 11.710938 C 185.960938 11.710938 188.195312 9.480469 188.195312 6.726562 "/>
<g clip-path="url(#clip-0)">
<path fill-rule="evenodd" fill="rgb(0%, 0%, 0%)" fill-opacity="1" d="M 189.191406 6.726562 C 189.191406 3.421875 186.511719 0.742188 183.207031 0.742188 C 179.902344 0.742188 177.222656 3.421875 177.222656 6.726562 C 177.222656 10.03125 179.902344 12.710938 183.207031 12.710938 C 186.511719 12.710938 189.191406 10.03125 189.191406 6.726562 M 187.195312 6.726562 C 187.195312 4.523438 185.410156 2.738281 183.207031 2.738281 C 181.003906 2.738281 179.21875 4.523438 179.21875 6.726562 C 179.21875 8.929688 181.003906 10.714844 183.207031 10.714844 C 185.410156 10.714844 187.195312 8.929688 187.195312 6.726562 "/>
</g>
<path fill-rule="evenodd" fill="rgb(100%, 0%, 0%)" fill-opacity="1" d="M 199.164062 67.5625 C 199.164062 64.808594 196.933594 62.578125 194.179688 62.578125 C 191.425781 62.578125 189.191406 64.808594 189.191406 67.5625 C 189.191406 70.316406 191.425781 72.550781 194.179688 72.550781 C 196.933594 72.550781 199.164062 70.316406 199.164062 67.5625 "/>
<path fill-rule="evenodd" fill="rgb(0%, 0%, 0%)" fill-opacity="1" d="M 200.164062 67.5625 C 200.164062 64.257812 197.484375 61.578125 194.179688 61.578125 C 190.875 61.578125 188.195312 64.257812 188.195312 67.5625 C 188.195312 70.867188 190.875 73.546875 194.179688 73.546875 C 197.484375 73.546875 200.164062 70.867188 200.164062 67.5625 M 198.167969 67.5625 C 198.167969 65.359375 196.382812 63.574219 194.179688 63.574219 C 191.976562 63.574219 190.1875 65.359375 190.1875 67.5625 C 190.1875 69.765625 191.976562 71.550781 194.179688 71.550781 C 196.382812 71.550781 198.167969 69.765625 198.167969 67.5625 "/>
<path fill-rule="evenodd" fill="rgb(0%, 54.499817%, 54.499817%)" fill-opacity="1" d="M 221.105469 111.445312 C 221.105469 108.691406 218.875 106.457031 216.121094 106.457031 C 213.367188 106.457031 211.132812 108.691406 211.132812 111.445312 C 211.132812 114.199219 213.367188 116.429688 216.121094 116.429688 C 218.875 116.429688 221.105469 114.199219 221.105469 111.445312 "/>
<g clip-path="url(#clip-1)">
<path fill-rule="evenodd" fill="rgb(0%, 0%, 0%)" fill-opacity="1" d="M 222.101562 111.445312 C 222.101562 108.140625 219.425781 105.460938 216.121094 105.460938 C 212.8125 105.460938 210.136719 108.140625 210.136719 111.445312 C 210.136719 114.75 212.8125 117.429688 216.121094 117.429688 C 219.425781 117.429688 222.101562 114.75 222.101562 111.445312 M 220.109375 111.445312 C 220.109375 109.242188 218.324219 107.457031 216.121094 107.457031 C 213.917969 107.457031 212.128906 109.242188 212.128906 111.445312 C 212.128906 113.648438 213.917969 115.433594 216.121094 115.433594 C 218.324219 115.433594 220.109375 113.648438 220.109375 111.445312 "/>
</g>
<path fill-rule="evenodd" fill="rgb(100%, 0%, 0%)" fill-opacity="1" d="M 194.179688 170.285156 C 194.179688 167.535156 191.945312 165.300781 189.191406 165.300781 C 186.4375 165.300781 184.207031 167.535156 184.207031 170.285156 C 184.207031 173.039062 186.4375 175.273438 189.191406 175.273438 C 191.945312 175.273438 194.179688 173.039062 194.179688 170.285156 "/>
<path fill-rule="evenodd" fill="rgb(0%, 0%, 0%)" fill-opacity="1" d="M 195.175781 170.285156 C 195.175781 166.980469 192.496094 164.304688 189.191406 164.304688 C 185.886719 164.304688 183.207031 166.980469 183.207031 170.285156 C 183.207031 173.59375 185.886719 176.269531 189.191406 176.269531 C 192.496094 176.269531 195.175781 173.59375 195.175781 170.285156 M 193.179688 170.285156 C 193.179688 168.082031 191.394531 166.296875 189.191406 166.296875 C 186.988281 166.296875 185.203125 168.082031 185.203125 170.285156 C 185.203125 172.488281 186.988281 174.277344 189.191406 174.277344 C 191.394531 174.277344 193.179688 172.488281 193.179688 170.285156 "/>
<path fill-rule="evenodd" fill="rgb(0%, 54.499817%, 54.499817%)" fill-opacity="1" d="M 214.125 216.164062 C 214.125 213.410156 211.890625 211.175781 209.136719 211.175781 C 206.382812 211.175781 204.152344 213.410156 204.152344 216.164062 C 204.152344 218.917969 206.382812 221.148438 209.136719 221.148438 C 211.890625 221.148438 214.125 218.917969 214.125 216.164062 "/>
<path fill-rule="evenodd" fill="rgb(0%, 0%, 0%)" fill-opacity="1" d="M 215.121094 216.164062 C 215.121094 212.859375 212.445312 210.179688 209.136719 210.179688 C 205.832031 210.179688 203.15625 212.859375 203.15625 216.164062 C 203.15625 219.46875 205.832031 222.148438 209.136719 222.148438 C 212.445312 222.148438 215.121094 219.46875 215.121094 216.164062 M 213.128906 216.164062 C 213.128906 213.960938 211.339844 212.175781 209.136719 212.175781 C 206.933594 212.175781 205.148438 213.960938 205.148438 216.164062 C 205.148438 218.367188 206.933594 220.152344 209.136719 220.152344 C 211.339844 220.152344 213.128906 218.367188 213.128906 216.164062 "/>
<path fill-rule="evenodd" fill="rgb(0%, 0%, 54.499817%)" fill-opacity="1" d="M 133.34375 249.074219 C 133.34375 246.320312 131.109375 244.089844 128.355469 244.089844 C 125.601562 244.089844 123.367188 246.320312 123.367188 249.074219 C 123.367188 251.828125 125.601562 254.0625 128.355469 254.0625 C 131.109375 254.0625 133.34375 251.828125 133.34375 249.074219 "/>
<g clip-path="url(#clip-2)">
<path fill-rule="evenodd" fill="rgb(0%, 0%, 0%)" fill-opacity="1" d="M 134.339844 249.074219 C 134.339844 245.769531 131.660156 243.089844 128.355469 243.089844 C 125.050781 243.089844 122.371094 245.769531 122.371094 249.074219 C 122.371094 252.378906 125.050781 255.058594 128.355469 255.058594 C 131.660156 255.058594 134.339844 252.378906 134.339844 249.074219 M 132.34375 249.074219 C 132.34375 246.871094 130.558594 245.085938 128.355469 245.085938 C 126.152344 245.085938 124.367188 246.871094 124.367188 249.074219 C 124.367188 251.277344 126.152344 253.066406 128.355469 253.066406 C 130.558594 253.066406 132.34375 251.277344 132.34375 249.074219 "/>
</g>
<path fill-rule="evenodd" fill="rgb(0%, 39.199829%, 0%)" fill-opacity="1" d="M 42.585938 197.214844 C 42.585938 194.460938 40.351562 192.226562 37.597656 192.226562 C 34.84375 192.226562 32.613281 194.460938 32.613281 197.214844 C 32.613281 199.96875 34.84375 202.203125 37.597656 202.203125 C 40.351562 202.203125 42.585938 199.96875 42.585938 197.214844 "/>
<path fill-rule="evenodd" fill="rgb(0%, 0%, 0%)" fill-opacity="1" d="M 43.582031 197.214844 C 43.582031 193.910156 40.902344 191.230469 37.597656 191.230469 C 34.292969 191.230469 31.613281 193.910156 31.613281 197.214844 C 31.613281 200.519531 34.292969 203.199219 37.597656 203.199219 C 40.902344 203.199219 43.582031 200.519531 43.582031 197.214844 M 41.589844 197.214844 C 41.589844 195.011719 39.800781 193.226562 37.597656 193.226562 C 35.394531 193.226562 33.609375 195.011719 33.609375 197.214844 C 33.609375 199.417969 35.394531 201.203125 37.597656 201.203125 C 39.800781 201.203125 41.589844 199.417969 41.589844 197.214844 "/>
<path fill-rule="evenodd" fill="rgb(0%, 0%, 54.499817%)" fill-opacity="1" d="M 46.574219 94.492188 C 46.574219 91.738281 44.34375 89.503906 41.589844 89.503906 C 38.835938 89.503906 36.601562 91.738281 36.601562 94.492188 C 36.601562 97.242188 38.835938 99.476562 41.589844 99.476562 C 44.34375 99.476562 46.574219 97.242188 46.574219 94.492188 "/>
<path fill-rule="evenodd" fill="rgb(0%, 0%, 0%)" fill-opacity="1" d="M 47.570312 94.492188 C 47.570312 91.183594 44.894531 88.507812 41.589844 88.507812 C 38.285156 88.507812 35.605469 91.183594 35.605469 94.492188 C 35.605469 97.796875 38.285156 100.472656 41.589844 100.472656 C 44.894531 100.472656 47.570312 97.796875 47.570312 94.492188 M 45.578125 94.492188 C 45.578125 92.289062 43.792969 90.5 41.589844 90.5 C 39.386719 90.5 37.597656 92.289062 37.597656 94.492188 C 37.597656 96.695312 39.386719 98.480469 41.589844 98.480469 C 43.792969 98.480469 45.578125 96.695312 45.578125 94.492188 "/>
<path fill-rule="evenodd" fill="rgb(100%, 0%, 0%)" fill-opacity="1" d="M 96.441406 74.542969 C 96.441406 71.789062 94.207031 69.558594 91.453125 69.558594 C 88.699219 69.558594 86.46875 71.789062 86.46875 74.542969 C 86.46875 77.296875 88.699219 79.53125 91.453125 79.53125 C 94.207031 79.53125 96.441406 77.296875 96.441406 74.542969 "/>
<path fill-rule="evenodd" fill="rgb(0%, 0%, 0%)" fill-opacity="1" d="M 97.4375 74.542969 C 97.4375 71.238281 94.757812 68.558594 91.453125 68.558594 C 88.148438 68.558594 85.46875 71.238281 85.46875 74.542969 C 85.46875 77.847656 88.148438 80.527344 91.453125 80.527344 C 94.757812 80.527344 97.4375 77.847656 97.4375 74.542969 M 95.445312 74.542969 C 95.445312 72.339844 93.65625 70.554688 91.453125 70.554688 C 89.25 70.554688 87.464844 72.339844 87.464844 74.542969 C 87.464844 76.746094 89.25 78.535156 91.453125 78.535156 C 93.65625 78.535156 95.445312 76.746094 95.445312 74.542969 "/>
<path fill-rule="evenodd" fill="rgb(0%, 0%, 54.499817%)" fill-opacity="1" d="M 174.230469 124.410156 C 174.230469 121.65625 172 119.421875 169.246094 119.421875 C 166.492188 119.421875 164.257812 121.65625 164.257812 124.410156 C 164.257812 127.164062 166.492188 129.398438 169.246094 129.398438 C 172 129.398438 174.230469 127.164062 174.230469 124.410156 "/>
<path fill-rule="evenodd" fill="rgb(0%, 0%, 0%)" fill-opacity="1" d="M 175.230469 124.410156 C 175.230469 121.105469 172.550781 118.425781 169.246094 118.425781 C 165.941406 118.425781 163.261719 121.105469 163.261719 124.410156 C 163.261719 127.714844 165.941406 130.394531 169.246094 130.394531 C 172.550781 130.394531 175.230469 127.714844 175.230469 124.410156 M 173.234375 124.410156 C 173.234375 122.207031 171.449219 120.421875 169.246094 120.421875 C 167.042969 120.421875 165.257812 122.207031 165.257812 124.410156 C 165.257812 126.613281 167.042969 128.398438 169.246094 128.398438 C 171.449219 128.398438 173.234375 126.613281 173.234375 124.410156 "/>
<path fill-rule="evenodd" fill="rgb(0%, 39.199829%, 0%)" fill-opacity="1" d="M 98.4375 172.28125 C 98.4375 169.527344 96.203125 167.296875 93.449219 167.296875 C 90.695312 167.296875 88.460938 169.527344 88.460938 172.28125 C 88.460938 175.035156 90.695312 177.269531 93.449219 177.269531 C 96.203125 177.269531 98.4375 175.035156 98.4375 172.28125 "/>
<path fill-rule="evenodd" fill="rgb(0%, 0%, 0%)" fill-opacity="1" d="M 99.433594 172.28125 C 99.433594 168.976562 96.753906 166.296875 93.449219 166.296875 C 90.144531 166.296875 87.464844 168.976562 87.464844 172.28125 C 87.464844 175.585938 90.144531 178.265625 93.449219 178.265625 C 96.753906 178.265625 99.433594 175.585938 99.433594 172.28125 M 97.4375 172.28125 C 97.4375 170.078125 95.652344 168.292969 93.449219 168.292969 C 91.246094 168.292969 89.460938 170.078125 89.460938 172.28125 C 89.460938 174.484375 91.246094 176.269531 93.449219 176.269531 C 95.652344 176.269531 97.4375 174.484375 97.4375 172.28125 "/>
</svg>
