<?xml version="1.0" encoding="UTF-8"?>
<svg xmlns="http://www.w3.org/2000/svg" xmlns:xlink="http://www.w3.org/1999/xlink" width="216.9" height="256.4" viewBox="0 0 216.9 256.4">
<defs>
<clipPath id="clip-0">
<path clip-rule="nonzero" d="M 0.203125 80 L 29 80 L 29 128 L 0.203125 128 Z M 0.203125 80 "/>
</clipPath>
<clipPath id="clip-1">
<path clip-rule="nonzero" d="M 0.203125 80 L 36 80 L 36 95 L 0.203125 95 Z M 0.203125 80 "/>
</clipPath>
<clipPath id="clip-2">
<path clip-rule="nonzero" d="M 0.203125 67 L 39 67 L 39 81 L 0.203125 81 Z M 0.203125 67 "/>
</clipPath>
<clipPath id="clip-3">
<path clip-rule="nonzero" d="M 0.203125 22 L 23 22 L 23 81 L 0.203125 81 Z M 0.203125 22 "/>
</clipPath>
<clipPath id="clip-4">
<path clip-rule="nonzero" d="M 0.203125 80 L 32 80 L 32 198 L 0.203125 198 Z M 0.203125 80 "/>
</clipPath>
<clipPath id="clip-5">
<path clip-rule="nonzero" d="M 0.203125 80 L 36 80 L 36 95 L 0.203125 95 Z M 0.203125 80 "/>
</clipPath>
<clipPath id="clip-6">
<path clip-rule="nonzero" d="M 0.203125 67 L 39 67 L 39 81 L 0.203125 81 Z M 0.203125 67 "/>
</clipPath>
<clipPath id="clip-7">
<path clip-rule="nonzero" d="M 0.203125 22 L 23 22 L 23 81 L 0.203125 81 Z M 0.203125 22 "/>
</clipPath>
<clipPath id="clip-8">
<path clip-rule="nonzero" d="M 116 243 L 129 243 L 129 255.800781 L 116 255.800781 Z M 116 243 "/>
</clipPath>
</defs>
<path fill="none" stroke-width="0.4" stroke-linecap="butt" stroke-linejoin="round" stroke="rgb(0%, 0%, 0%)" stroke-opacity="1" stroke-miterlimit="10" d="M 169.000791 219.99821 L 137.998725 214.998255 " transform="matrix(0.997665, 0, 0, -0.997665, -52.473424, 289.023658)"/>
<path fill="none" stroke-width="0.4" stroke-linecap="butt" stroke-linejoin="round" stroke="rgb(0%, 0%, 0%)" stroke-opacity="1" stroke-miterlimit="10" d="M 119.001248 59.999672 L 84.001568 92.000163 " transform="matrix(0.997665, 0, 0, -0.997665, -52.473424, 289.023658)"/>
<path fill="none" stroke-width="0.4" stroke-linecap="butt" stroke-linejoin="round" stroke="rgb(0%, 0%, 0%)" stroke-opacity="1" stroke-miterlimit="10" d="M 119.001248 59.999672 L 174.99917 39.999855 " transform="matrix(0.997665, 0, 0, -0.997665, -52.473424, 289.023658)"/>
<path fill="none" stroke-width="0.4" stroke-linecap="butt" stroke-linejoin="round" stroke="rgb(0%, 0%, 0%)" stroke-opacity="1" stroke-miterlimit="10" d="M 119.001248 59.999672 L 152.000163 57.000483 " transform="matrix(0.997665, 0, 0, -0.997665, -52.473424, 289.023658)"/>
<path fill="none" stroke-width="0.4" stroke-linecap="butt" stroke-linejoin="round" stroke="rgb(0%, 0%, 0%)" stroke-opacity="1" stroke-miterlimit="10" d="M 119.001248 59.999672 L 115.998143 81.001829 " transform="matrix(0.997665, 0, 0, -0.997665, -52.473424, 289.023658)"/>
<g clip-path="url(#clip-0)">
<path fill="none" stroke-width="0.4" stroke-linecap="butt" stroke-linejoin="round" stroke="rgb(0%, 0%, 0%)" stroke-opacity="1" stroke-miterlimit="10" d="M 52.999502 208.999876 L 80.998463 161.999523 " transform="matrix(0.997665, 0, 0, -0.997665, -52.473424, 289.023658)"/>
</g>
<g clip-path="url(#clip-1)">
<path fill="none" stroke-width="0.4" stroke-linecap="butt" stroke-linejoin="round" stroke="rgb(0%, 0%, 0%)" stroke-opacity="1" stroke-miterlimit="10" d="M 52.999502 208.999876 L 87.999182 194.998438 " transform="matrix(0.997665, 0, 0, -0.997665, -52.473424, 289.023658)"/>
</g>
<g clip-path="url(#clip-2)">
<path fill="none" stroke-width="0.4" stroke-linecap="butt" stroke-linejoin="round" stroke="rgb(0%, 0%, 0%)" stroke-opacity="1" stroke-miterlimit="10" d="M 52.999502 208.999876 L 90.998372 221.998974 " transform="matrix(0.997665, 0, 0, -0.997665, -52.473424, 289.023658)"/>
</g>
<g clip-path="url(#clip-3)">
<path fill="none" stroke-width="0.4" stroke-linecap="butt" stroke-linejoin="round" stroke="rgb(0%, 0%, 0%)" stroke-opacity="1" stroke-miterlimit="10" d="M 52.999502 208.999876 L 75.000084 266.998563 " transform="matrix(0.997665, 0, 0, -0.997665, -52.473424, 289.023658)"/>
</g>
<g clip-path="url(#clip-4)">
<path fill="none" stroke-width="0.4" stroke-linecap="butt" stroke-linejoin="round" stroke="rgb(0%, 0%, 0%)" stroke-opacity="1" stroke-miterlimit="10" d="M 52.999502 208.999876 L 84.001568 92.000163 " transform="matrix(0.997665, 0, 0, -0.997665, -52.473424, 289.023658)"/>
</g>
<path fill="none" stroke-width="0.4" stroke-linecap="butt" stroke-linejoin="round" stroke="rgb(0%, 0%, 0%)" stroke-opacity="1" stroke-miterlimit="10" d="M 214.998804 241.000367 L 184.000654 265.001714 " transform="matrix(0.997665, 0, 0, -0.997665, -52.473424, 289.023658)"/>
<path fill="none" stroke-width="0.4" stroke-linecap="butt" stroke-linejoin="round" stroke="rgb(0%, 0%, 0%)" stroke-opacity="1" stroke-miterlimit="10" d="M 214.998804 241.000367 L 192.998222 231.000458 " transform="matrix(0.997665, 0, 0, -0.997665, -52.473424, 289.023658)"/>
<path fill="none" stroke-width="0.4" stroke-linecap="butt" stroke-linejoin="round" stroke="rgb(0%, 0%, 0%)" stroke-opacity="1" stroke-miterlimit="10" d="M 214.998804 241.000367 L 214.00038 221.00055 " transform="matrix(0.997665, 0, 0, -0.997665, -52.473424, 289.023658)"/>
<path fill="none" stroke-width="0.4" stroke-linecap="butt" stroke-linejoin="round" stroke="rgb(0%, 0%, 0%)" stroke-opacity="1" stroke-miterlimit="10" d="M 214.998804 241.000367 L 241.000916 221.998974 " transform="matrix(0.997665, 0, 0, -0.997665, -52.473424, 289.023658)"/>
<path fill="none" stroke-width="0.4" stroke-linecap="butt" stroke-linejoin="round" stroke="rgb(0%, 0%, 0%)" stroke-opacity="1" stroke-miterlimit="10" d="M 214.998804 241.000367 L 239.998576 243.999556 " transform="matrix(0.997665, 0, 0, -0.997665, -52.473424, 289.023658)"/>
<path fill="none" stroke-width="0.4" stroke-linecap="butt" stroke-linejoin="round" stroke="rgb(0%, 0%, 0%)" stroke-opacity="1" stroke-miterlimit="10" d="M 214.998804 241.000367 L 204.000471 270.001668 " transform="matrix(0.997665, 0, 0, -0.997665, -52.473424, 289.023658)"/>
<path fill="none" stroke-width="0.4" stroke-linecap="butt" stroke-linejoin="round" stroke="rgb(0%, 0%, 0%)" stroke-opacity="1" stroke-miterlimit="10" d="M 263.001498 178.001726 L 246.00087 196.000778 " transform="matrix(0.997665, 0, 0, -0.997665, -52.473424, 289.023658)"/>
<path fill="none" stroke-width="0.4" stroke-linecap="butt" stroke-linejoin="round" stroke="rgb(0%, 0%, 0%)" stroke-opacity="1" stroke-miterlimit="10" d="M 263.001498 178.001726 L 238.001726 153.001954 " transform="matrix(0.997665, 0, 0, -0.997665, -52.473424, 289.023658)"/>
<path fill="none" stroke-width="0.4" stroke-linecap="butt" stroke-linejoin="round" stroke="rgb(0%, 0%, 0%)" stroke-opacity="1" stroke-miterlimit="10" d="M 216.001144 164.998712 L 174.99917 198.001543 " transform="matrix(0.997665, 0, 0, -0.997665, -52.473424, 289.023658)"/>
<path fill="none" stroke-width="0.4" stroke-linecap="butt" stroke-linejoin="round" stroke="rgb(0%, 0%, 0%)" stroke-opacity="1" stroke-miterlimit="10" d="M 216.001144 164.998712 L 162.000072 176.999386 " transform="matrix(0.997665, 0, 0, -0.997665, -52.473424, 289.023658)"/>
<path fill="none" stroke-width="0.4" stroke-linecap="butt" stroke-linejoin="round" stroke="rgb(0%, 0%, 0%)" stroke-opacity="1" stroke-miterlimit="10" d="M 216.001144 164.998712 L 197.998177 126.999843 " transform="matrix(0.997665, 0, 0, -0.997665, -52.473424, 289.023658)"/>
<path fill="none" stroke-width="0.4" stroke-linecap="butt" stroke-linejoin="round" stroke="rgb(0%, 0%, 0%)" stroke-opacity="1" stroke-miterlimit="10" d="M 216.001144 164.998712 L 238.001726 153.001954 " transform="matrix(0.997665, 0, 0, -0.997665, -52.473424, 289.023658)"/>
<path fill="none" stroke-width="0.4" stroke-linecap="butt" stroke-linejoin="round" stroke="rgb(0%, 0%, 0%)" stroke-opacity="1" stroke-miterlimit="10" d="M 216.001144 164.998712 L 246.00087 196.000778 " transform="matrix(0.997665, 0, 0, -0.997665, -52.473424, 289.023658)"/>
<path fill="none" stroke-width="0.4" stroke-linecap="butt" stroke-linejoin="round" stroke="rgb(0%, 0%, 0%)" stroke-opacity="1" stroke-miterlimit="10" d="M 216.001144 164.998712 L 214.00038 221.00055 " transform="matrix(0.997665, 0, 0, -0.997665, -52.473424, 289.023658)"/>
<path fill="none" stroke-width="0.4" stroke-linecap="butt" stroke-linejoin="round" stroke="rgb(0%, 0%, 0%)" stroke-opacity="1" stroke-miterlimit="10" d="M 214.00038 221.00055 L 246.00087 196.000778 " transform="matrix(0.997665, 0, 0, -0.997665, -52.473424, 289.023658)"/>
<path fill="none" stroke-width="0.4" stroke-linecap="butt" stroke-linejoin="round" stroke="rgb(0%, 0%, 0%)" stroke-opacity="1" stroke-miterlimit="10" d="M 214.00038 221.00055 L 241.000916 221.998974 " transform="matrix(0.997665, 0, 0, -0.997665, -52.473424, 289.023658)"/>
<path fill="none" stroke-width="0.4" stroke-linecap="butt" stroke-linejoin="round" stroke="rgb(0%, 0%, 0%)" stroke-opacity="1" stroke-miterlimit="10" d="M 214.00038 221.00055 L 192.998222 231.000458 " transform="matrix(0.997665, 0, 0, -0.997665, -52.473424, 289.023658)"/>
<path fill="none" stroke-width="0.4" stroke-linecap="butt" stroke-linejoin="round" stroke="rgb(0%, 0%, 0%)" stroke-opacity="1" stroke-miterlimit="10" d="M 214.00038 221.00055 L 174.99917 198.001543 " transform="matrix(0.997665, 0, 0, -0.997665, -52.473424, 289.023658)"/>
<path fill="none" stroke-width="0.4" stroke-linecap="butt" stroke-linejoin="round" stroke="rgb(0%, 0%, 0%)" stroke-opacity="1" stroke-miterlimit="10" d="M 214.00038 221.00055 L 216.001144 164.998712 " transform="matrix(0.997665, 0, 0, -0.997665, -52.473424, 289.023658)"/>
<path fill="none" stroke-width="0.4" stroke-linecap="butt" stroke-linejoin="round" stroke="rgb(0%, 0%, 0%)" stroke-opacity="1" stroke-miterlimit="10" d="M 239.998576 243.999556 L 229.998667 283.000766 " transform="matrix(0.997665, 0, 0, -0.997665, -52.473424, 289.023658)"/>
<path fill="none" stroke-width="0.4" stroke-linecap="butt" stroke-linejoin="round" stroke="rgb(0%, 0%, 0%)" stroke-opacity="1" stroke-miterlimit="10" d="M 239.998576 243.999556 L 204.000471 270.001668 " transform="matrix(0.997665, 0, 0, -0.997665, -52.473424, 289.023658)"/>
<path fill="none" stroke-width="0.4" stroke-linecap="butt" stroke-linejoin="round" stroke="rgb(0%, 0%, 0%)" stroke-opacity="1" stroke-miterlimit="10" d="M 239.998576 243.999556 L 241.000916 221.998974 " transform="matrix(0.997665, 0, 0, -0.997665, -52.473424, 289.023658)"/>
<path fill="none" stroke-width="0.4" stroke-linecap="butt" stroke-linejoin="round" stroke="rgb(0%, 0%, 0%)" stroke-opacity="1" stroke-miterlimit="10" d="M 241.000916 221.998974 L 239.998576 243.999556 " transform="matrix(0.997665, 0, 0, -0.997665, -52.473424, 289.023658)"/>
<path fill="none" stroke-width="0.4" stroke-linecap="butt" stroke-linejoin="round" stroke="rgb(0%, 0%, 0%)" stroke-opacity="1" stroke-miterlimit="10" d="M 241.000916 221.998974 L 246.00087 196.000778 " transform="matrix(0.997665, 0, 0, -0.997665, -52.473424, 289.023658)"/>
<path fill="none" stroke-width="0.4" stroke-linecap="butt" stroke-linejoin="round" stroke="rgb(0%, 0%, 0%)" stroke-opacity="1" stroke-miterlimit="10" d="M 246.00087 196.000778 L 238.001726 153.001954 " transform="matrix(0.997665, 0, 0, -0.997665, -52.473424, 289.023658)"/>
<path fill="none" stroke-width="0.4" stroke-linecap="butt" stroke-linejoin="round" stroke="rgb(0%, 0%, 0%)" stroke-opacity="1" stroke-miterlimit="10" d="M 246.00087 196.000778 L 241.000916 221.998974 " transform="matrix(0.997665, 0, 0, -0.997665, -52.473424, 289.023658)"/>
<path fill="none" stroke-width="0.4" stroke-linecap="butt" stroke-linejoin="round" stroke="rgb(0%, 0%, 0%)" stroke-opacity="1" stroke-miterlimit="10" d="M 169.000791 219.99821 L 174.99917 198.001543 " transform="matrix(0.997665, 0, 0, -0.997665, -52.473424, 289.023658)"/>
<path fill="none" stroke-width="0.4" stroke-linecap="butt" stroke-linejoin="round" stroke="rgb(0%, 0%, 0%)" stroke-opacity="1" stroke-miterlimit="10" d="M 169.000791 219.99821 L 192.998222 231.000458 " transform="matrix(0.997665, 0, 0, -0.997665, -52.473424, 289.023658)"/>
<path fill="none" stroke-width="0.4" stroke-linecap="butt" stroke-linejoin="round" stroke="rgb(0%, 0%, 0%)" stroke-opacity="1" stroke-miterlimit="10" d="M 169.000791 219.99821 L 184.000654 265.001714 " transform="matrix(0.997665, 0, 0, -0.997665, -52.473424, 289.023658)"/>
<path fill="none" stroke-width="0.4" stroke-linecap="butt" stroke-linejoin="round" stroke="rgb(0%, 0%, 0%)" stroke-opacity="1" stroke-miterlimit="10" d="M 169.000791 219.99821 L 149.999399 253.00104 " transform="matrix(0.997665, 0, 0, -0.997665, -52.473424, 289.023658)"/>
<path fill="none" stroke-width="0.4" stroke-linecap="butt" stroke-linejoin="round" stroke="rgb(0%, 0%, 0%)" stroke-opacity="1" stroke-miterlimit="10" d="M 162.000072 176.999386 L 139.99949 116.999934 " transform="matrix(0.997665, 0, 0, -0.997665, -52.473424, 289.023658)"/>
<path fill="none" stroke-width="0.4" stroke-linecap="butt" stroke-linejoin="round" stroke="rgb(0%, 0%, 0%)" stroke-opacity="1" stroke-miterlimit="10" d="M 162.000072 176.999386 L 197.998177 126.999843 " transform="matrix(0.997665, 0, 0, -0.997665, -52.473424, 289.023658)"/>
<path fill="none" stroke-width="0.4" stroke-linecap="butt" stroke-linejoin="round" stroke="rgb(0%, 0%, 0%)" stroke-opacity="1" stroke-miterlimit="10" d="M 162.000072 176.999386 L 174.99917 198.001543 " transform="matrix(0.997665, 0, 0, -0.997665, -52.473424, 289.023658)"/>
<path fill="none" stroke-width="0.4" stroke-linecap="butt" stroke-linejoin="round" stroke="rgb(0%, 0%, 0%)" stroke-opacity="1" stroke-miterlimit="10" d="M 162.000072 176.999386 L 134.001111 188.001634 " transform="matrix(0.997665, 0, 0, -0.997665, -52.473424, 289.023658)"/>
<path fill="none" stroke-width="0.4" stroke-linecap="butt" stroke-linejoin="round" stroke="rgb(0%, 0%, 0%)" stroke-opacity="1" stroke-miterlimit="10" d="M 162.000072 176.999386 L 109.001339 158.001909 " transform="matrix(0.997665, 0, 0, -0.997665, -52.473424, 289.023658)"/>
<path fill="none" stroke-width="0.4" stroke-linecap="butt" stroke-linejoin="round" stroke="rgb(0%, 0%, 0%)" stroke-opacity="1" stroke-miterlimit="10" d="M 197.998177 126.999843 L 162.000072 176.999386 " transform="matrix(0.997665, 0, 0, -0.997665, -52.473424, 289.023658)"/>
<path fill="none" stroke-width="0.4" stroke-linecap="butt" stroke-linejoin="round" stroke="rgb(0%, 0%, 0%)" stroke-opacity="1" stroke-miterlimit="10" d="M 197.998177 126.999843 L 139.99949 116.999934 " transform="matrix(0.997665, 0, 0, -0.997665, -52.473424, 289.023658)"/>
<path fill="none" stroke-width="0.4" stroke-linecap="butt" stroke-linejoin="round" stroke="rgb(0%, 0%, 0%)" stroke-opacity="1" stroke-miterlimit="10" d="M 197.998177 126.999843 L 196.001327 107.000026 " transform="matrix(0.997665, 0, 0, -0.997665, -52.473424, 289.023658)"/>
<path fill="none" stroke-width="0.4" stroke-linecap="butt" stroke-linejoin="round" stroke="rgb(0%, 0%, 0%)" stroke-opacity="1" stroke-miterlimit="10" d="M 197.998177 126.999843 L 236.000962 119.000699 " transform="matrix(0.997665, 0, 0, -0.997665, -52.473424, 289.023658)"/>
<path fill="none" stroke-width="0.4" stroke-linecap="butt" stroke-linejoin="round" stroke="rgb(0%, 0%, 0%)" stroke-opacity="1" stroke-miterlimit="10" d="M 197.998177 126.999843 L 238.001726 153.001954 " transform="matrix(0.997665, 0, 0, -0.997665, -52.473424, 289.023658)"/>
<path fill="none" stroke-width="0.4" stroke-linecap="butt" stroke-linejoin="round" stroke="rgb(0%, 0%, 0%)" stroke-opacity="1" stroke-miterlimit="10" d="M 236.000962 119.000699 L 197.998177 126.999843 " transform="matrix(0.997665, 0, 0, -0.997665, -52.473424, 289.023658)"/>
<path fill="none" stroke-width="0.4" stroke-linecap="butt" stroke-linejoin="round" stroke="rgb(0%, 0%, 0%)" stroke-opacity="1" stroke-miterlimit="10" d="M 236.000962 119.000699 L 196.001327 107.000026 " transform="matrix(0.997665, 0, 0, -0.997665, -52.473424, 289.023658)"/>
<path fill="none" stroke-width="0.4" stroke-linecap="butt" stroke-linejoin="round" stroke="rgb(0%, 0%, 0%)" stroke-opacity="1" stroke-miterlimit="10" d="M 236.000962 119.000699 L 228.001818 89.999398 " transform="matrix(0.997665, 0, 0, -0.997665, -52.473424, 289.023658)"/>
<path fill="none" stroke-width="0.4" stroke-linecap="butt" stroke-linejoin="round" stroke="rgb(0%, 0%, 0%)" stroke-opacity="1" stroke-miterlimit="10" d="M 236.000962 119.000699 L 238.001726 153.001954 " transform="matrix(0.997665, 0, 0, -0.997665, -52.473424, 289.023658)"/>
<path fill="none" stroke-width="0.4" stroke-linecap="butt" stroke-linejoin="round" stroke="rgb(0%, 0%, 0%)" stroke-opacity="1" stroke-miterlimit="10" d="M 256.000779 72.99877 L 219.000334 57.000483 " transform="matrix(0.997665, 0, 0, -0.997665, -52.473424, 289.023658)"/>
<path fill="none" stroke-width="0.4" stroke-linecap="butt" stroke-linejoin="round" stroke="rgb(0%, 0%, 0%)" stroke-opacity="1" stroke-miterlimit="10" d="M 256.000779 72.99877 L 244.000105 39.999855 " transform="matrix(0.997665, 0, 0, -0.997665, -52.473424, 289.023658)"/>
<path fill="none" stroke-width="0.4" stroke-linecap="butt" stroke-linejoin="round" stroke="rgb(0%, 0%, 0%)" stroke-opacity="1" stroke-miterlimit="10" d="M 256.000779 72.99877 L 228.001818 89.999398 " transform="matrix(0.997665, 0, 0, -0.997665, -52.473424, 289.023658)"/>
<path fill="none" stroke-width="0.4" stroke-linecap="butt" stroke-linejoin="round" stroke="rgb(0%, 0%, 0%)" stroke-opacity="1" stroke-miterlimit="10" d="M 219.000334 57.000483 L 174.99917 39.999855 " transform="matrix(0.997665, 0, 0, -0.997665, -52.473424, 289.023658)"/>
<path fill="none" stroke-width="0.4" stroke-linecap="butt" stroke-linejoin="round" stroke="rgb(0%, 0%, 0%)" stroke-opacity="1" stroke-miterlimit="10" d="M 219.000334 57.000483 L 244.000105 39.999855 " transform="matrix(0.997665, 0, 0, -0.997665, -52.473424, 289.023658)"/>
<path fill="none" stroke-width="0.4" stroke-linecap="butt" stroke-linejoin="round" stroke="rgb(0%, 0%, 0%)" stroke-opacity="1" stroke-miterlimit="10" d="M 219.000334 57.000483 L 256.000779 72.99877 " transform="matrix(0.997665, 0, 0, -0.997665, -52.473424, 289.023658)"/>
<path fill="none" stroke-width="0.4" stroke-linecap="butt" stroke-linejoin="round" stroke="rgb(0%, 0%, 0%)" stroke-opacity="1" stroke-miterlimit="10" d="M 219.000334 57.000483 L 228.001818 89.999398 " transform="matrix(0.997665, 0, 0, -0.997665, -52.473424, 289.023658)"/>
<path fill="none" stroke-width="0.4" stroke-linecap="butt" stroke-linejoin="round" stroke="rgb(0%, 0%, 0%)" stroke-opacity="1" stroke-miterlimit="10" d="M 219.000334 57.000483 L 194.998987 82.000254 " transform="matrix(0.997665, 0, 0, -0.997665, -52.473424, 289.023658)"/>
<path fill="none" stroke-width="0.4" stroke-linecap="butt" stroke-linejoin="round" stroke="rgb(0%, 0%, 0%)" stroke-opacity="1" stroke-miterlimit="10" d="M 244.000105 39.999855 L 219.000334 57.000483 " transform="matrix(0.997665, 0, 0, -0.997665, -52.473424, 289.023658)"/>
<path fill="none" stroke-width="0.4" stroke-linecap="butt" stroke-linejoin="round" stroke="rgb(0%, 0%, 0%)" stroke-opacity="1" stroke-miterlimit="10" d="M 244.000105 39.999855 L 174.99917 39.999855 " transform="matrix(0.997665, 0, 0, -0.997665, -52.473424, 289.023658)"/>
<path fill="none" stroke-width="0.4" stroke-linecap="butt" stroke-linejoin="round" stroke="rgb(0%, 0%, 0%)" stroke-opacity="1" stroke-miterlimit="10" d="M 174.99917 39.999855 L 194.998987 82.000254 " transform="matrix(0.997665, 0, 0, -0.997665, -52.473424, 289.023658)"/>
<path fill="none" stroke-width="0.4" stroke-linecap="butt" stroke-linejoin="round" stroke="rgb(0%, 0%, 0%)" stroke-opacity="1" stroke-miterlimit="10" d="M 174.99917 39.999855 L 162.000072 81.001829 " transform="matrix(0.997665, 0, 0, -0.997665, -52.473424, 289.023658)"/>
<path fill="none" stroke-width="0.4" stroke-linecap="butt" stroke-linejoin="round" stroke="rgb(0%, 0%, 0%)" stroke-opacity="1" stroke-miterlimit="10" d="M 174.99917 39.999855 L 152.000163 57.000483 " transform="matrix(0.997665, 0, 0, -0.997665, -52.473424, 289.023658)"/>
<path fill="none" stroke-width="0.4" stroke-linecap="butt" stroke-linejoin="round" stroke="rgb(0%, 0%, 0%)" stroke-opacity="1" stroke-miterlimit="10" d="M 174.99917 39.999855 L 244.000105 39.999855 " transform="matrix(0.997665, 0, 0, -0.997665, -52.473424, 289.023658)"/>
<path fill="none" stroke-width="0.4" stroke-linecap="butt" stroke-linejoin="round" stroke="rgb(0%, 0%, 0%)" stroke-opacity="1" stroke-miterlimit="10" d="M 139.99949 116.999934 L 196.001327 107.000026 " transform="matrix(0.997665, 0, 0, -0.997665, -52.473424, 289.023658)"/>
<path fill="none" stroke-width="0.4" stroke-linecap="butt" stroke-linejoin="round" stroke="rgb(0%, 0%, 0%)" stroke-opacity="1" stroke-miterlimit="10" d="M 139.99949 116.999934 L 109.001339 158.001909 " transform="matrix(0.997665, 0, 0, -0.997665, -52.473424, 289.023658)"/>
<path fill="none" stroke-width="0.4" stroke-linecap="butt" stroke-linejoin="round" stroke="rgb(0%, 0%, 0%)" stroke-opacity="1" stroke-miterlimit="10" d="M 139.99949 116.999934 L 104.99981 114.999169 " transform="matrix(0.997665, 0, 0, -0.997665, -52.473424, 289.023658)"/>
<path fill="none" stroke-width="0.4" stroke-linecap="butt" stroke-linejoin="round" stroke="rgb(0%, 0%, 0%)" stroke-opacity="1" stroke-miterlimit="10" d="M 139.99949 116.999934 L 115.998143 81.001829 " transform="matrix(0.997665, 0, 0, -0.997665, -52.473424, 289.023658)"/>
<path fill="none" stroke-width="0.4" stroke-linecap="butt" stroke-linejoin="round" stroke="rgb(0%, 0%, 0%)" stroke-opacity="1" stroke-miterlimit="10" d="M 139.99949 116.999934 L 162.000072 81.001829 " transform="matrix(0.997665, 0, 0, -0.997665, -52.473424, 289.023658)"/>
<path fill="none" stroke-width="0.4" stroke-linecap="butt" stroke-linejoin="round" stroke="rgb(0%, 0%, 0%)" stroke-opacity="1" stroke-miterlimit="10" d="M 109.001339 158.001909 L 119.999673 203.001497 " transform="matrix(0.997665, 0, 0, -0.997665, -52.473424, 289.023658)"/>
<path fill="none" stroke-width="0.4" stroke-linecap="butt" stroke-linejoin="round" stroke="rgb(0%, 0%, 0%)" stroke-opacity="1" stroke-miterlimit="10" d="M 109.001339 158.001909 L 87.999182 194.998438 " transform="matrix(0.997665, 0, 0, -0.997665, -52.473424, 289.023658)"/>
<path fill="none" stroke-width="0.4" stroke-linecap="butt" stroke-linejoin="round" stroke="rgb(0%, 0%, 0%)" stroke-opacity="1" stroke-miterlimit="10" d="M 109.001339 158.001909 L 80.998463 161.999523 " transform="matrix(0.997665, 0, 0, -0.997665, -52.473424, 289.023658)"/>
<path fill="none" stroke-width="0.4" stroke-linecap="butt" stroke-linejoin="round" stroke="rgb(0%, 0%, 0%)" stroke-opacity="1" stroke-miterlimit="10" d="M 109.001339 158.001909 L 99.999856 137.998176 " transform="matrix(0.997665, 0, 0, -0.997665, -52.473424, 289.023658)"/>
<path fill="none" stroke-width="0.4" stroke-linecap="butt" stroke-linejoin="round" stroke="rgb(0%, 0%, 0%)" stroke-opacity="1" stroke-miterlimit="10" d="M 109.001339 158.001909 L 104.99981 114.999169 " transform="matrix(0.997665, 0, 0, -0.997665, -52.473424, 289.023658)"/>
<path fill="none" stroke-width="0.4" stroke-linecap="butt" stroke-linejoin="round" stroke="rgb(0%, 0%, 0%)" stroke-opacity="1" stroke-miterlimit="10" d="M 109.001339 158.001909 L 139.99949 116.999934 " transform="matrix(0.997665, 0, 0, -0.997665, -52.473424, 289.023658)"/>
<path fill="none" stroke-width="0.4" stroke-linecap="butt" stroke-linejoin="round" stroke="rgb(0%, 0%, 0%)" stroke-opacity="1" stroke-miterlimit="10" d="M 109.001339 158.001909 L 134.001111 188.001634 " transform="matrix(0.997665, 0, 0, -0.997665, -52.473424, 289.023658)"/>
<path fill="none" stroke-width="0.4" stroke-linecap="butt" stroke-linejoin="round" stroke="rgb(0%, 0%, 0%)" stroke-opacity="1" stroke-miterlimit="10" d="M 229.998667 283.000766 L 204.000471 270.001668 " transform="matrix(0.997665, 0, 0, -0.997665, -52.473424, 289.023658)"/>
<path fill="none" stroke-width="0.4" stroke-linecap="butt" stroke-linejoin="round" stroke="rgb(0%, 0%, 0%)" stroke-opacity="1" stroke-miterlimit="10" d="M 204.000471 270.001668 L 229.998667 283.000766 " transform="matrix(0.997665, 0, 0, -0.997665, -52.473424, 289.023658)"/>
<path fill="none" stroke-width="0.4" stroke-linecap="butt" stroke-linejoin="round" stroke="rgb(0%, 0%, 0%)" stroke-opacity="1" stroke-miterlimit="10" d="M 204.000471 270.001668 L 184.000654 265.001714 " transform="matrix(0.997665, 0, 0, -0.997665, -52.473424, 289.023658)"/>
<path fill="none" stroke-width="0.4" stroke-linecap="butt" stroke-linejoin="round" stroke="rgb(0%, 0%, 0%)" stroke-opacity="1" stroke-miterlimit="10" d="M 184.000654 265.001714 L 204.000471 270.001668 " transform="matrix(0.997665, 0, 0, -0.997665, -52.473424, 289.023658)"/>
<path fill="none" stroke-width="0.4" stroke-linecap="butt" stroke-linejoin="round" stroke="rgb(0%, 0%, 0%)" stroke-opacity="1" stroke-miterlimit="10" d="M 184.000654 265.001714 L 149.999399 253.00104 " transform="matrix(0.997665, 0, 0, -0.997665, -52.473424, 289.023658)"/>
<path fill="none" stroke-width="0.4" stroke-linecap="butt" stroke-linejoin="round" stroke="rgb(0%, 0%, 0%)" stroke-opacity="1" stroke-miterlimit="10" d="M 184.000654 265.001714 L 192.998222 231.000458 " transform="matrix(0.997665, 0, 0, -0.997665, -52.473424, 289.023658)"/>
<path fill="none" stroke-width="0.4" stroke-linecap="butt" stroke-linejoin="round" stroke="rgb(0%, 0%, 0%)" stroke-opacity="1" stroke-miterlimit="10" d="M 149.999399 253.00104 L 184.000654 265.001714 " transform="matrix(0.997665, 0, 0, -0.997665, -52.473424, 289.023658)"/>
<path fill="none" stroke-width="0.4" stroke-linecap="butt" stroke-linejoin="round" stroke="rgb(0%, 0%, 0%)" stroke-opacity="1" stroke-miterlimit="10" d="M 149.999399 253.00104 L 119.001248 268.999328 " transform="matrix(0.997665, 0, 0, -0.997665, -52.473424, 289.023658)"/>
<path fill="none" stroke-width="0.4" stroke-linecap="butt" stroke-linejoin="round" stroke="rgb(0%, 0%, 0%)" stroke-opacity="1" stroke-miterlimit="10" d="M 149.999399 253.00104 L 119.001248 240.001942 " transform="matrix(0.997665, 0, 0, -0.997665, -52.473424, 289.023658)"/>
<path fill="none" stroke-width="0.4" stroke-linecap="butt" stroke-linejoin="round" stroke="rgb(0%, 0%, 0%)" stroke-opacity="1" stroke-miterlimit="10" d="M 149.999399 253.00104 L 137.998725 214.998255 " transform="matrix(0.997665, 0, 0, -0.997665, -52.473424, 289.023658)"/>
<path fill="none" stroke-width="0.4" stroke-linecap="butt" stroke-linejoin="round" stroke="rgb(0%, 0%, 0%)" stroke-opacity="1" stroke-miterlimit="10" d="M 119.001248 268.999328 L 95.998326 253.00104 " transform="matrix(0.997665, 0, 0, -0.997665, -52.473424, 289.023658)"/>
<path fill="none" stroke-width="0.4" stroke-linecap="butt" stroke-linejoin="round" stroke="rgb(0%, 0%, 0%)" stroke-opacity="1" stroke-miterlimit="10" d="M 119.001248 268.999328 L 119.001248 240.001942 " transform="matrix(0.997665, 0, 0, -0.997665, -52.473424, 289.023658)"/>
<path fill="none" stroke-width="0.4" stroke-linecap="butt" stroke-linejoin="round" stroke="rgb(0%, 0%, 0%)" stroke-opacity="1" stroke-miterlimit="10" d="M 119.001248 240.001942 L 119.999673 203.001497 " transform="matrix(0.997665, 0, 0, -0.997665, -52.473424, 289.023658)"/>
<path fill="none" stroke-width="0.4" stroke-linecap="butt" stroke-linejoin="round" stroke="rgb(0%, 0%, 0%)" stroke-opacity="1" stroke-miterlimit="10" d="M 119.001248 240.001942 L 137.998725 214.998255 " transform="matrix(0.997665, 0, 0, -0.997665, -52.473424, 289.023658)"/>
<path fill="none" stroke-width="0.4" stroke-linecap="butt" stroke-linejoin="round" stroke="rgb(0%, 0%, 0%)" stroke-opacity="1" stroke-miterlimit="10" d="M 119.001248 240.001942 L 119.001248 268.999328 " transform="matrix(0.997665, 0, 0, -0.997665, -52.473424, 289.023658)"/>
<path fill="none" stroke-width="0.4" stroke-linecap="butt" stroke-linejoin="round" stroke="rgb(0%, 0%, 0%)" stroke-opacity="1" stroke-miterlimit="10" d="M 119.001248 240.001942 L 95.998326 253.00104 " transform="matrix(0.997665, 0, 0, -0.997665, -52.473424, 289.023658)"/>
<path fill="none" stroke-width="0.4" stroke-linecap="butt" stroke-linejoin="round" stroke="rgb(0%, 0%, 0%)" stroke-opacity="1" stroke-miterlimit="10" d="M 119.001248 240.001942 L 90.998372 221.998974 " transform="matrix(0.997665, 0, 0, -0.997665, -52.473424, 289.023658)"/>
<path fill="none" stroke-width="0.4" stroke-linecap="butt" stroke-linejoin="round" stroke="rgb(0%, 0%, 0%)" stroke-opacity="1" stroke-miterlimit="10" d="M 95.998326 253.00104 L 75.000084 266.998563 " transform="matrix(0.997665, 0, 0, -0.997665, -52.473424, 289.023658)"/>
<path fill="none" stroke-width="0.4" stroke-linecap="butt" stroke-linejoin="round" stroke="rgb(0%, 0%, 0%)" stroke-opacity="1" stroke-miterlimit="10" d="M 95.998326 253.00104 L 90.998372 221.998974 " transform="matrix(0.997665, 0, 0, -0.997665, -52.473424, 289.023658)"/>
<path fill="none" stroke-width="0.4" stroke-linecap="butt" stroke-linejoin="round" stroke="rgb(0%, 0%, 0%)" stroke-opacity="1" stroke-miterlimit="10" d="M 90.998372 221.998974 L 95.998326 253.00104 " transform="matrix(0.997665, 0, 0, -0.997665, -52.473424, 289.023658)"/>
<path fill="none" stroke-width="0.4" stroke-linecap="butt" stroke-linejoin="round" stroke="rgb(0%, 0%, 0%)" stroke-opacity="1" stroke-miterlimit="10" d="M 90.998372 221.998974 L 75.000084 266.998563 " transform="matrix(0.997665, 0, 0, -0.997665, -52.473424, 289.023658)"/>
<path fill="none" stroke-width="0.4" stroke-linecap="butt" stroke-linejoin="round" stroke="rgb(0%, 0%, 0%)" stroke-opacity="1" stroke-miterlimit="10" d="M 90.998372 221.998974 L 87.999182 194.998438 " transform="matrix(0.997665, 0, 0, -0.997665, -52.473424, 289.023658)"/>
<path fill="none" stroke-width="0.4" stroke-linecap="butt" stroke-linejoin="round" stroke="rgb(0%, 0%, 0%)" stroke-opacity="1" stroke-miterlimit="10" d="M 90.998372 221.998974 L 119.999673 203.001497 " transform="matrix(0.997665, 0, 0, -0.997665, -52.473424, 289.023658)"/>
<path fill="none" stroke-width="0.4" stroke-linecap="butt" stroke-linejoin="round" stroke="rgb(0%, 0%, 0%)" stroke-opacity="1" stroke-miterlimit="10" d="M 87.999182 194.998438 L 119.999673 203.001497 " transform="matrix(0.997665, 0, 0, -0.997665, -52.473424, 289.023658)"/>
<path fill="none" stroke-width="0.4" stroke-linecap="butt" stroke-linejoin="round" stroke="rgb(0%, 0%, 0%)" stroke-opacity="1" stroke-miterlimit="10" d="M 87.999182 194.998438 L 90.998372 221.998974 " transform="matrix(0.997665, 0, 0, -0.997665, -52.473424, 289.023658)"/>
<path fill="none" stroke-width="0.4" stroke-linecap="butt" stroke-linejoin="round" stroke="rgb(0%, 0%, 0%)" stroke-opacity="1" stroke-miterlimit="10" d="M 87.999182 194.998438 L 80.998463 161.999523 " transform="matrix(0.997665, 0, 0, -0.997665, -52.473424, 289.023658)"/>
<path fill="none" stroke-width="0.4" stroke-linecap="butt" stroke-linejoin="round" stroke="rgb(0%, 0%, 0%)" stroke-opacity="1" stroke-miterlimit="10" d="M 80.998463 161.999523 L 87.999182 194.998438 " transform="matrix(0.997665, 0, 0, -0.997665, -52.473424, 289.023658)"/>
<path fill="none" stroke-width="0.4" stroke-linecap="butt" stroke-linejoin="round" stroke="rgb(0%, 0%, 0%)" stroke-opacity="1" stroke-miterlimit="10" d="M 80.998463 161.999523 L 84.001568 92.000163 " transform="matrix(0.997665, 0, 0, -0.997665, -52.473424, 289.023658)"/>
<path fill="none" stroke-width="0.4" stroke-linecap="butt" stroke-linejoin="round" stroke="rgb(0%, 0%, 0%)" stroke-opacity="1" stroke-miterlimit="10" d="M 80.998463 161.999523 L 99.999856 137.998176 " transform="matrix(0.997665, 0, 0, -0.997665, -52.473424, 289.023658)"/>
<path fill="none" stroke-width="0.4" stroke-linecap="butt" stroke-linejoin="round" stroke="rgb(0%, 0%, 0%)" stroke-opacity="1" stroke-miterlimit="10" d="M 99.999856 137.998176 L 104.99981 114.999169 " transform="matrix(0.997665, 0, 0, -0.997665, -52.473424, 289.023658)"/>
<path fill="none" stroke-width="0.4" stroke-linecap="butt" stroke-linejoin="round" stroke="rgb(0%, 0%, 0%)" stroke-opacity="1" stroke-miterlimit="10" d="M 99.999856 137.998176 L 80.998463 161.999523 " transform="matrix(0.997665, 0, 0, -0.997665, -52.473424, 289.023658)"/>
<path fill="none" stroke-width="0.4" stroke-linecap="butt" stroke-linejoin="round" stroke="rgb(0%, 0%, 0%)" stroke-opacity="1" stroke-miterlimit="10" d="M 99.999856 137.998176 L 84.001568 92.000163 " transform="matrix(0.997665, 0, 0, -0.997665, -52.473424, 289.023658)"/>
<path fill="none" stroke-width="0.4" stroke-linecap="butt" stroke-linejoin="round" stroke="rgb(0%, 0%, 0%)" stroke-opacity="1" stroke-miterlimit="10" d="M 104.99981 114.999169 L 99.999856 137.998176 " transform="matrix(0.997665, 0, 0, -0.997665, -52.473424, 289.023658)"/>
<path fill="none" stroke-width="0.4" stroke-linecap="butt" stroke-linejoin="round" stroke="rgb(0%, 0%, 0%)" stroke-opacity="1" stroke-miterlimit="10" d="M 104.99981 114.999169 L 84.001568 92.000163 " transform="matrix(0.997665, 0, 0, -0.997665, -52.473424, 289.023658)"/>
<path fill="none" stroke-width="0.4" stroke-linecap="butt" stroke-linejoin="round" stroke="rgb(0%, 0%, 0%)" stroke-opacity="1" stroke-miterlimit="10" d="M 104.99981 114.999169 L 115.998143 81.001829 " transform="matrix(0.997665, 0, 0, -0.997665, -52.473424, 289.023658)"/>
<path fill="none" stroke-width="0.4" stroke-linecap="butt" stroke-linejoin="round" stroke="rgb(0%, 0%, 0%)" stroke-opacity="1" stroke-miterlimit="10" d="M 84.001568 92.000163 L 115.998143 81.001829 " transform="matrix(0.997665, 0, 0, -0.997665, -52.473424, 289.023658)"/>
<path fill="none" stroke-width="0.4" stroke-linecap="butt" stroke-linejoin="round" stroke="rgb(0%, 0%, 0%)" stroke-opacity="1" stroke-miterlimit="10" d="M 84.001568 92.000163 L 104.99981 114.999169 " transform="matrix(0.997665, 0, 0, -0.997665, -52.473424, 289.023658)"/>
<path fill="none" stroke-width="0.4" stroke-linecap="butt" stroke-linejoin="round" stroke="rgb(0%, 0%, 0%)" stroke-opacity="1" stroke-miterlimit="10" d="M 115.998143 81.001829 L 162.000072 81.001829 " transform="matrix(0.997665, 0, 0, -0.997665, -52.473424, 289.023658)"/>
<path fill="none" stroke-width="0.4" stroke-linecap="butt" stroke-linejoin="round" stroke="rgb(0%, 0%, 0%)" stroke-opacity="1" stroke-miterlimit="10" d="M 115.998143 81.001829 L 84.001568 92.000163 " transform="matrix(0.997665, 0, 0, -0.997665, -52.473424, 289.023658)"/>
<path fill="none" stroke-width="0.4" stroke-linecap="butt" stroke-linejoin="round" stroke="rgb(0%, 0%, 0%)" stroke-opacity="1" stroke-miterlimit="10" d="M 115.998143 81.001829 L 152.000163 57.000483 " transform="matrix(0.997665, 0, 0, -0.997665, -52.473424, 289.023658)"/>
<path fill="none" stroke-width="0.4" stroke-linecap="butt" stroke-linejoin="round" stroke="rgb(0%, 0%, 0%)" stroke-opacity="1" stroke-miterlimit="10" d="M 196.001327 107.000026 L 162.000072 81.001829 " transform="matrix(0.997665, 0, 0, -0.997665, -52.473424, 289.023658)"/>
<path fill="none" stroke-width="0.4" stroke-linecap="butt" stroke-linejoin="round" stroke="rgb(0%, 0%, 0%)" stroke-opacity="1" stroke-miterlimit="10" d="M 196.001327 107.000026 L 194.998987 82.000254 " transform="matrix(0.997665, 0, 0, -0.997665, -52.473424, 289.023658)"/>
<path fill="none" stroke-width="0.4" stroke-linecap="butt" stroke-linejoin="round" stroke="rgb(0%, 0%, 0%)" stroke-opacity="1" stroke-miterlimit="10" d="M 196.001327 107.000026 L 228.001818 89.999398 " transform="matrix(0.997665, 0, 0, -0.997665, -52.473424, 289.023658)"/>
<path fill="none" stroke-width="0.4" stroke-linecap="butt" stroke-linejoin="round" stroke="rgb(0%, 0%, 0%)" stroke-opacity="1" stroke-miterlimit="10" d="M 194.998987 82.000254 L 196.001327 107.000026 " transform="matrix(0.997665, 0, 0, -0.997665, -52.473424, 289.023658)"/>
<path fill="none" stroke-width="0.4" stroke-linecap="butt" stroke-linejoin="round" stroke="rgb(0%, 0%, 0%)" stroke-opacity="1" stroke-miterlimit="10" d="M 194.998987 82.000254 L 162.000072 81.001829 " transform="matrix(0.997665, 0, 0, -0.997665, -52.473424, 289.023658)"/>
<path fill="none" stroke-width="0.4" stroke-linecap="butt" stroke-linejoin="round" stroke="rgb(0%, 0%, 0%)" stroke-opacity="1" stroke-miterlimit="10" d="M 194.998987 82.000254 L 228.001818 89.999398 " transform="matrix(0.997665, 0, 0, -0.997665, -52.473424, 289.023658)"/>
<path fill="none" stroke-width="0.4" stroke-linecap="butt" stroke-linejoin="round" stroke="rgb(0%, 0%, 0%)" stroke-opacity="1" stroke-miterlimit="10" d="M 162.000072 81.001829 L 152.000163 57.000483 " transform="matrix(0.997665, 0, 0, -0.997665, -52.473424, 289.023658)"/>
<path fill="none" stroke-width="0.4" stroke-linecap="butt" stroke-linejoin="round" stroke="rgb(0%, 0%, 0%)" stroke-opacity="1" stroke-miterlimit="10" d="M 162.000072 81.001829 L 194.998987 82.000254 " transform="matrix(0.997665, 0, 0, -0.997665, -52.473424, 289.023658)"/>
<path fill="none" stroke-width="0.4" stroke-linecap="butt" stroke-linejoin="round" stroke="rgb(0%, 0%, 0%)" stroke-opacity="1" stroke-miterlimit="10" d="M 152.000163 57.000483 L 162.000072 81.001829 " transform="matrix(0.997665, 0, 0, -0.997665, -52.473424, 289.023658)"/>
<path fill="none" stroke-width="0.4" stroke-linecap="butt" stroke-linejoin="round" stroke="rgb(0%, 0%, 0%)" stroke-opacity="1" stroke-miterlimit="10" d="M 137.998725 214.998255 L 119.999673 203.001497 " transform="matrix(0.997665, 0, 0, -0.997665, -52.473424, 289.023658)"/>
<path fill="none" stroke-width="0.4" stroke-linecap="butt" stroke-linejoin="round" stroke="rgb(0%, 0%, 0%)" stroke-opacity="1" stroke-miterlimit="10" d="M 137.998725 214.998255 L 134.001111 188.001634 " transform="matrix(0.997665, 0, 0, -0.997665, -52.473424, 289.023658)"/>
<path fill="none" stroke-width="0.4" stroke-linecap="butt" stroke-linejoin="round" stroke="rgb(0%, 0%, 0%)" stroke-opacity="1" stroke-miterlimit="10" d="M 137.998725 214.998255 L 174.99917 198.001543 " transform="matrix(0.997665, 0, 0, -0.997665, -52.473424, 289.023658)"/>
<path fill="none" stroke-width="0.4" stroke-linecap="butt" stroke-linejoin="round" stroke="rgb(0%, 0%, 0%)" stroke-opacity="1" stroke-miterlimit="10" d="M 119.999673 203.001497 L 134.001111 188.001634 " transform="matrix(0.997665, 0, 0, -0.997665, -52.473424, 289.023658)"/>
<path fill="none" stroke-width="0.4" stroke-linecap="butt" stroke-linejoin="round" stroke="rgb(0%, 0%, 0%)" stroke-opacity="1" stroke-miterlimit="10" d="M 119.999673 203.001497 L 137.998725 214.998255 " transform="matrix(0.997665, 0, 0, -0.997665, -52.473424, 289.023658)"/>
<path fill="none" stroke-width="0.4" stroke-linecap="butt" stroke-linejoin="round" stroke="rgb(0%, 0%, 0%)" stroke-opacity="1" stroke-miterlimit="10" d="M 134.001111 188.001634 L 174.99917 198.001543 " transform="matrix(0.997665, 0, 0, -0.997665, -52.473424, 289.023658)"/>
<path fill="none" stroke-width="0.4" stroke-linecap="butt" stroke-linejoin="round" stroke="rgb(0%, 0%, 0%)" stroke-opacity="1" stroke-miterlimit="10" d="M 134.001111 188.001634 L 119.999673 203.001497 " transform="matrix(0.997665, 0, 0, -0.997665, -52.473424, 289.023658)"/>
<path fill="none" stroke-width="0.4" stroke-linecap="butt" stroke-linejoin="round" stroke="rgb(0%, 0%, 0%)" stroke-opacity="1" stroke-miterlimit="10" d="M 174.99917 198.001543 L 192.998222 231.000458 " transform="matrix(0.997665, 0, 0, -0.997665, -52.473424, 289.023658)"/>
<path fill="none" stroke-width="0.4" stroke-linecap="butt" stroke-linejoin="round" stroke="rgb(0%, 0%, 0%)" stroke-opacity="1" stroke-miterlimit="10" d="M 174.99917 198.001543 L 134.001111 188.001634 " transform="matrix(0.997665, 0, 0, -0.997665, -52.473424, 289.023658)"/>
<path fill="none" stroke-width="0.4" stroke-linecap="butt" stroke-linejoin="round" stroke="rgb(0%, 0%, 0%)" stroke-opacity="1" stroke-miterlimit="10" d="M 192.998222 231.000458 L 174.99917 198.001543 " transform="matrix(0.997665, 0, 0, -0.997665, -52.473424, 289.023658)"/>
<g clip-path="url(#clip-5)">
<path fill="none" stroke-width="0.4" stroke-linecap="butt" stroke-linejoin="round" stroke="rgb(0%, 0%, 0%)" stroke-opacity="1" stroke-miterlimit="10" d="M 52.999502 208.999876 L 87.999182 194.998438 " transform="matrix(0.997665, 0, 0, -0.997665, -52.473424, 289.023658)"/>
</g>
<g clip-path="url(#clip-6)">
<path fill="none" stroke-width="0.4" stroke-linecap="butt" stroke-linejoin="round" stroke="rgb(0%, 0%, 0%)" stroke-opacity="1" stroke-miterlimit="10" d="M 52.999502 208.999876 L 90.998372 221.998974 " transform="matrix(0.997665, 0, 0, -0.997665, -52.473424, 289.023658)"/>
</g>
<g clip-path="url(#clip-7)">
<path fill="none" stroke-width="0.4" stroke-linecap="butt" stroke-linejoin="round" stroke="rgb(0%, 0%, 0%)" stroke-opacity="1" stroke-miterlimit="10" d="M 52.999502 208.999876 L 75.000084 266.998563 " transform="matrix(0.997665, 0, 0, -0.997665, -52.473424, 289.023658)"/>
</g>
<path fill="none" stroke-width="0.4" stroke-linecap="butt" stroke-linejoin="round" stroke="rgb(0%, 0%, 0%)" stroke-opacity="1" stroke-miterlimit="10" d="M 219.000334 57.000483 L 228.001818 89.999398 " transform="matrix(0.997665, 0, 0, -0.997665, -52.473424, 289.023658)"/>
<path fill="none" stroke-width="0.4" stroke-linecap="butt" stroke-linejoin="round" stroke="rgb(0%, 0%, 0%)" stroke-opacity="1" stroke-miterlimit="10" d="M 139.99949 116.999934 L 104.99981 114.999169 " transform="matrix(0.997665, 0, 0, -0.997665, -52.473424, 289.023658)"/>
<path fill="none" stroke-width="0.4" stroke-linecap="butt" stroke-linejoin="round" stroke="rgb(0%, 0%, 0%)" stroke-opacity="1" stroke-miterlimit="10" d="M 139.99949 116.999934 L 115.998143 81.001829 " transform="matrix(0.997665, 0, 0, -0.997665, -52.473424, 289.023658)"/>
<path fill="none" stroke-width="0.4" stroke-linecap="butt" stroke-linejoin="round" stroke="rgb(0%, 0%, 0%)" stroke-opacity="1" stroke-miterlimit="10" d="M 139.99949 116.999934 L 162.000072 81.001829 " transform="matrix(0.997665, 0, 0, -0.997665, -52.473424, 289.023658)"/>
<path fill="none" stroke-width="0.4" stroke-linecap="butt" stroke-linejoin="round" stroke="rgb(0%, 0%, 0%)" stroke-opacity="1" stroke-miterlimit="10" d="M 109.001339 158.001909 L 80.998463 161.999523 " transform="matrix(0.997665, 0, 0, -0.997665, -52.473424, 289.023658)"/>
<path fill="none" stroke-width="0.4" stroke-linecap="butt" stroke-linejoin="round" stroke="rgb(0%, 0%, 0%)" stroke-opacity="1" stroke-miterlimit="10" d="M 109.001339 158.001909 L 99.999856 137.998176 " transform="matrix(0.997665, 0, 0, -0.997665, -52.473424, 289.023658)"/>
<path fill="none" stroke-width="0.4" stroke-linecap="butt" stroke-linejoin="round" stroke="rgb(0%, 0%, 0%)" stroke-opacity="1" stroke-miterlimit="10" d="M 109.001339 158.001909 L 104.99981 114.999169 " transform="matrix(0.997665, 0, 0, -0.997665, -52.473424, 289.023658)"/>
<path fill="none" stroke-width="0.4" stroke-linecap="butt" stroke-linejoin="round" stroke="rgb(0%, 0%, 0%)" stroke-opacity="1" stroke-miterlimit="10" d="M 80.998463 161.999523 L 87.999182 194.998438 " transform="matrix(0.997665, 0, 0, -0.997665, -52.473424, 289.023658)"/>
<path fill="none" stroke-width="0.4" stroke-linecap="butt" stroke-linejoin="round" stroke="rgb(0%, 0%, 0%)" stroke-opacity="1" stroke-miterlimit="10" d="M 196.001327 107.000026 L 162.000072 81.001829 " transform="matrix(0.997665, 0, 0, -0.997665, -52.473424, 289.023658)"/>
<path fill="none" stroke-width="0.4" stroke-linecap="butt" stroke-linejoin="round" stroke="rgb(0%, 0%, 0%)" stroke-opacity="1" stroke-miterlimit="10" d="M 194.998987 82.000254 L 196.001327 107.000026 " transform="matrix(0.997665, 0, 0, -0.997665, -52.473424, 289.023658)"/>
<path fill="none" stroke-width="0.4" stroke-linecap="butt" stroke-linejoin="round" stroke="rgb(0%, 0%, 0%)" stroke-opacity="1" stroke-miterlimit="10" d="M 194.998987 82.000254 L 228.001818 89.999398 " transform="matrix(0.997665, 0, 0, -0.997665, -52.473424, 289.023658)"/>
<path fill-rule="evenodd" fill="rgb(56.498718%, 93.299866%, 56.498718%)" fill-opacity="1" d="M 43.300781 67.542969 C 43.300781 64.789062 41.070312 62.554688 38.3125 62.554688 C 35.558594 62.554688 33.324219 64.789062 33.324219 67.542969 C 33.324219 70.296875 35.558594 72.53125 38.3125 72.53125 C 41.070312 72.53125 43.300781 70.296875 43.300781 67.542969 "/>
<path fill-rule="evenodd" fill="rgb(0%, 0%, 0%)" fill-opacity="1" d="M 44.300781 67.542969 C 44.300781 64.234375 41.621094 61.554688 38.3125 61.554688 C 35.007812 61.554688 32.328125 64.234375 32.328125 67.542969 C 32.328125 70.847656 35.007812 73.527344 38.3125 73.527344 C 41.621094 73.527344 44.300781 70.847656 44.300781 67.542969 M 42.304688 67.542969 C 42.304688 65.339844 40.519531 63.550781 38.3125 63.550781 C 36.109375 63.550781 34.324219 65.339844 34.324219 67.542969 C 34.324219 69.746094 36.109375 71.53125 38.3125 71.53125 C 40.519531 71.53125 42.304688 69.746094 42.304688 67.542969 "/>
<path fill-rule="evenodd" fill="rgb(67.799377%, 84.698486%, 90.19928%)" fill-opacity="1" d="M 36.320312 197.238281 C 36.320312 194.484375 34.085938 192.25 31.332031 192.25 C 28.574219 192.25 26.34375 194.484375 26.34375 197.238281 C 26.34375 199.992188 28.574219 202.226562 31.332031 202.226562 C 34.085938 202.226562 36.320312 199.992188 36.320312 197.238281 "/>
<path fill-rule="evenodd" fill="rgb(0%, 0%, 0%)" fill-opacity="1" d="M 37.316406 197.238281 C 37.316406 193.933594 34.636719 191.253906 31.332031 191.253906 C 28.023438 191.253906 25.34375 193.933594 25.34375 197.238281 C 25.34375 200.542969 28.023438 203.222656 31.332031 203.222656 C 34.636719 203.222656 37.316406 200.542969 37.316406 197.238281 M 35.320312 197.238281 C 35.320312 195.035156 33.535156 193.246094 31.332031 193.246094 C 29.125 193.246094 27.339844 195.035156 27.339844 197.238281 C 27.339844 199.441406 29.125 201.230469 31.332031 201.230469 C 33.535156 201.230469 35.320312 199.441406 35.320312 197.238281 "/>
<path fill-rule="evenodd" fill="rgb(49.798584%, 100%, 83.099365%)" fill-opacity="1" d="M 171.003906 232.15625 C 171.003906 229.402344 168.769531 227.167969 166.015625 227.167969 C 163.261719 227.167969 161.027344 229.402344 161.027344 232.15625 C 161.027344 234.910156 163.261719 237.144531 166.015625 237.144531 C 168.769531 237.144531 171.003906 234.910156 171.003906 232.15625 "/>
<path fill-rule="evenodd" fill="rgb(0%, 0%, 0%)" fill-opacity="1" d="M 172 232.15625 C 172 228.851562 169.320312 226.171875 166.015625 226.171875 C 162.710938 226.171875 160.03125 228.851562 160.03125 232.15625 C 160.03125 235.460938 162.710938 238.144531 166.015625 238.144531 C 169.320312 238.144531 172 235.460938 172 232.15625 M 170.007812 232.15625 C 170.007812 229.953125 168.21875 228.167969 166.015625 228.167969 C 163.8125 228.167969 162.023438 229.953125 162.023438 232.15625 C 162.023438 234.359375 163.8125 236.148438 166.015625 236.148438 C 168.21875 236.148438 170.007812 234.359375 170.007812 232.15625 "/>
<path fill-rule="evenodd" fill="rgb(84.698486%, 74.899292%, 84.698486%)" fill-opacity="1" d="M 189.960938 136.378906 C 189.960938 133.625 187.726562 131.390625 184.972656 131.390625 C 182.214844 131.390625 179.984375 133.625 179.984375 136.378906 C 179.984375 139.136719 182.214844 141.371094 184.972656 141.371094 C 187.726562 141.371094 189.960938 139.136719 189.960938 136.378906 "/>
<path fill-rule="evenodd" fill="rgb(0%, 0%, 0%)" fill-opacity="1" d="M 190.957031 136.378906 C 190.957031 133.074219 188.277344 130.394531 184.972656 130.394531 C 181.664062 130.394531 178.984375 133.074219 178.984375 136.378906 C 178.984375 139.6875 181.664062 142.367188 184.972656 142.367188 C 188.277344 142.367188 190.957031 139.6875 190.957031 136.378906 M 188.960938 136.378906 C 188.960938 134.175781 187.175781 132.390625 184.972656 132.390625 C 182.765625 132.390625 180.980469 134.175781 180.980469 136.378906 C 180.980469 138.585938 182.765625 140.371094 184.972656 140.371094 C 187.175781 140.371094 188.960938 138.585938 188.960938 136.378906 "/>
<path fill-rule="evenodd" fill="rgb(87.5%, 87.5%, 87.5%)" fill-opacity="1" d="M 191.953125 45.59375 C 191.953125 42.839844 189.722656 40.605469 186.964844 40.605469 C 184.210938 40.605469 181.976562 42.839844 181.976562 45.59375 C 181.976562 48.347656 184.210938 50.582031 186.964844 50.582031 C 189.722656 50.582031 191.953125 48.347656 191.953125 45.59375 "/>
<path fill-rule="evenodd" fill="rgb(0%, 0%, 0%)" fill-opacity="1" d="M 192.953125 45.59375 C 192.953125 42.285156 190.273438 39.605469 186.964844 39.605469 C 183.660156 39.605469 180.980469 42.285156 180.980469 45.59375 C 180.980469 48.898438 183.660156 51.578125 186.964844 51.578125 C 190.273438 51.578125 192.953125 48.898438 192.953125 45.59375 M 190.957031 45.59375 C 190.957031 43.390625 189.171875 41.601562 186.964844 41.601562 C 184.761719 41.601562 182.976562 43.390625 182.976562 45.59375 C 182.976562 47.796875 184.761719 49.582031 186.964844 49.582031 C 189.171875 49.582031 190.957031 47.796875 190.957031 45.59375 "/>
<path fill-rule="evenodd" fill="rgb(100%, 92.199707%, 80.39856%)" fill-opacity="1" d="M 102.164062 36.613281 C 102.164062 33.859375 99.929688 31.625 97.175781 31.625 C 94.421875 31.625 92.1875 33.859375 92.1875 36.613281 C 92.1875 39.367188 94.421875 41.601562 97.175781 41.601562 C 99.929688 41.601562 102.164062 39.367188 102.164062 36.613281 "/>
<path fill-rule="evenodd" fill="rgb(0%, 0%, 0%)" fill-opacity="1" d="M 103.164062 36.613281 C 103.164062 33.308594 100.484375 30.628906 97.175781 30.628906 C 93.871094 30.628906 91.191406 33.308594 91.191406 36.613281 C 91.191406 39.921875 93.871094 42.601562 97.175781 42.601562 C 100.484375 42.601562 103.164062 39.921875 103.164062 36.613281 M 101.167969 36.613281 C 101.167969 34.410156 99.378906 32.625 97.175781 32.625 C 94.972656 32.625 93.1875 34.410156 93.1875 36.613281 C 93.1875 38.816406 94.972656 40.605469 97.175781 40.605469 C 99.378906 40.605469 101.167969 38.816406 101.167969 36.613281 "/>
<path fill-rule="evenodd" fill="rgb(0%, 54.499817%, 54.499817%)" fill-opacity="1" d="M 92.1875 172.296875 C 92.1875 169.542969 89.953125 167.308594 87.199219 167.308594 C 84.445312 167.308594 82.210938 169.542969 82.210938 172.296875 C 82.210938 175.050781 84.445312 177.285156 87.199219 177.285156 C 89.953125 177.285156 92.1875 175.050781 92.1875 172.296875 "/>
<path fill-rule="evenodd" fill="rgb(0%, 0%, 0%)" fill-opacity="1" d="M 93.1875 172.296875 C 93.1875 168.992188 90.507812 166.3125 87.199219 166.3125 C 83.894531 166.3125 81.214844 168.992188 81.214844 172.296875 C 81.214844 175.601562 83.894531 178.28125 87.199219 178.28125 C 90.507812 178.28125 93.1875 175.601562 93.1875 172.296875 M 91.191406 172.296875 C 91.191406 170.09375 89.402344 168.304688 87.199219 168.304688 C 84.996094 168.304688 83.210938 170.09375 83.210938 172.296875 C 83.210938 174.5 84.996094 176.289062 87.199219 176.289062 C 89.402344 176.289062 91.191406 174.5 91.191406 172.296875 "/>
<path fill-rule="evenodd" fill="rgb(100%, 82.699585%, 60.798645%)" fill-opacity="1" d="M 104.160156 232.15625 C 104.160156 229.402344 101.925781 227.167969 99.171875 227.167969 C 96.417969 227.167969 94.183594 229.402344 94.183594 232.15625 C 94.183594 234.910156 96.417969 237.144531 99.171875 237.144531 C 101.925781 237.144531 104.160156 234.910156 104.160156 232.15625 "/>
<path fill-rule="evenodd" fill="rgb(0%, 0%, 0%)" fill-opacity="1" d="M 105.15625 232.15625 C 105.15625 228.851562 102.476562 226.171875 99.171875 226.171875 C 95.867188 226.171875 93.1875 228.851562 93.1875 232.15625 C 93.1875 235.460938 95.867188 238.144531 99.171875 238.144531 C 102.476562 238.144531 105.15625 235.460938 105.15625 232.15625 M 103.164062 232.15625 C 103.164062 229.953125 101.375 228.167969 99.171875 228.167969 C 96.96875 228.167969 95.179688 229.953125 95.179688 232.15625 C 95.179688 234.359375 96.96875 236.148438 99.171875 236.148438 C 101.375 236.148438 103.164062 234.359375 103.164062 232.15625 "/>
<path fill-rule="evenodd" fill="rgb(100%, 60.099792%, 60.099792%)" fill-opacity="1" d="M 61.261719 131.390625 C 61.261719 128.636719 59.027344 126.402344 56.273438 126.402344 C 53.515625 126.402344 51.285156 128.636719 51.285156 131.390625 C 51.285156 134.148438 53.515625 136.378906 56.273438 136.378906 C 59.027344 136.378906 61.261719 134.148438 61.261719 131.390625 "/>
<path fill-rule="evenodd" fill="rgb(0%, 0%, 0%)" fill-opacity="1" d="M 62.257812 131.390625 C 62.257812 128.085938 59.578125 125.40625 56.273438 125.40625 C 52.964844 125.40625 50.285156 128.085938 50.285156 131.390625 C 50.285156 134.699219 52.964844 137.378906 56.273438 137.378906 C 59.578125 137.378906 62.257812 134.699219 62.257812 131.390625 M 60.261719 131.390625 C 60.261719 129.1875 58.476562 127.402344 56.273438 127.402344 C 54.066406 127.402344 52.28125 129.1875 52.28125 131.390625 C 52.28125 133.597656 54.066406 135.382812 56.273438 135.382812 C 58.476562 135.382812 60.261719 133.597656 60.261719 131.390625 "/>
<path fill-rule="evenodd" fill="rgb(54.499817%, 53.29895%, 47.099304%)" fill-opacity="1" d="M 127.105469 91.484375 C 127.105469 88.730469 124.871094 86.496094 122.117188 86.496094 C 119.363281 86.496094 117.128906 88.730469 117.128906 91.484375 C 117.128906 94.242188 119.363281 96.472656 122.117188 96.472656 C 124.871094 96.472656 127.105469 94.242188 127.105469 91.484375 "/>
<path fill-rule="evenodd" fill="rgb(0%, 0%, 0%)" fill-opacity="1" d="M 128.105469 91.484375 C 128.105469 88.179688 125.425781 85.5 122.117188 85.5 C 118.8125 85.5 116.132812 88.179688 116.132812 91.484375 C 116.132812 94.792969 118.8125 97.472656 122.117188 97.472656 C 125.425781 97.472656 128.105469 94.792969 128.105469 91.484375 M 126.109375 91.484375 C 126.109375 89.28125 124.320312 87.496094 122.117188 87.496094 C 119.914062 87.496094 118.128906 89.28125 118.128906 91.484375 C 118.128906 93.691406 119.914062 95.476562 122.117188 95.476562 C 124.320312 95.476562 126.109375 93.691406 126.109375 91.484375 "/>
<path fill-rule="evenodd" fill="rgb(100%, 0%, 0%)" fill-opacity="1" d="M 27.339844 22.648438 C 27.339844 19.890625 25.105469 17.660156 22.351562 17.660156 C 19.597656 17.660156 17.363281 19.890625 17.363281 22.648438 C 17.363281 25.402344 19.597656 27.636719 22.351562 27.636719 C 25.105469 27.636719 27.339844 25.402344 27.339844 22.648438 "/>
<path fill-rule="evenodd" fill="rgb(0%, 0%, 0%)" fill-opacity="1" d="M 28.335938 22.648438 C 28.335938 19.339844 25.65625 16.660156 22.351562 16.660156 C 19.046875 16.660156 16.367188 19.339844 16.367188 22.648438 C 16.367188 25.953125 19.046875 28.632812 22.351562 28.632812 C 25.65625 28.632812 28.335938 25.953125 28.335938 22.648438 M 26.34375 22.648438 C 26.34375 20.441406 24.554688 18.65625 22.351562 18.65625 C 20.148438 18.65625 18.359375 20.441406 18.359375 22.648438 C 18.359375 24.851562 20.148438 26.636719 22.351562 26.636719 C 24.554688 26.636719 26.34375 24.851562 26.34375 22.648438 "/>
<path fill-rule="evenodd" fill="rgb(100%, 0%, 0%)" fill-opacity="1" d="M 40.308594 94.480469 C 40.308594 91.722656 38.074219 89.492188 35.320312 89.492188 C 32.566406 89.492188 30.332031 91.722656 30.332031 94.480469 C 30.332031 97.234375 32.566406 99.46875 35.320312 99.46875 C 38.074219 99.46875 40.308594 97.234375 40.308594 94.480469 "/>
<path fill-rule="evenodd" fill="rgb(0%, 0%, 0%)" fill-opacity="1" d="M 41.308594 94.480469 C 41.308594 91.171875 38.628906 88.492188 35.320312 88.492188 C 32.015625 88.492188 29.335938 91.171875 29.335938 94.480469 C 29.335938 97.785156 32.015625 100.464844 35.320312 100.464844 C 38.628906 100.464844 41.308594 97.785156 41.308594 94.480469 M 39.3125 94.480469 C 39.3125 92.273438 37.523438 90.488281 35.320312 90.488281 C 33.117188 90.488281 31.332031 92.273438 31.332031 94.480469 C 31.332031 96.683594 33.117188 98.46875 35.320312 98.46875 C 37.523438 98.46875 39.3125 96.683594 39.3125 94.480469 "/>
<path fill-rule="evenodd" fill="rgb(100%, 0%, 0%)" fill-opacity="1" d="M 71.238281 49.582031 C 71.238281 46.828125 69.003906 44.59375 66.25 44.59375 C 63.496094 44.59375 61.261719 46.828125 61.261719 49.582031 C 61.261719 52.339844 63.496094 54.574219 66.25 54.574219 C 69.003906 54.574219 71.238281 52.339844 71.238281 49.582031 "/>
<path fill-rule="evenodd" fill="rgb(0%, 0%, 0%)" fill-opacity="1" d="M 72.234375 49.582031 C 72.234375 46.277344 69.554688 43.597656 66.25 43.597656 C 62.941406 43.597656 60.261719 46.277344 60.261719 49.582031 C 60.261719 52.890625 62.941406 55.570312 66.25 55.570312 C 69.554688 55.570312 72.234375 52.890625 72.234375 49.582031 M 70.238281 49.582031 C 70.238281 47.378906 68.453125 45.59375 66.25 45.59375 C 64.042969 45.59375 62.257812 47.378906 62.257812 49.582031 C 62.257812 51.789062 64.042969 53.574219 66.25 53.574219 C 68.453125 53.574219 70.238281 51.789062 70.238281 49.582031 "/>
<path fill-rule="evenodd" fill="rgb(100%, 0%, 0%)" fill-opacity="1" d="M 121.121094 69.539062 C 121.121094 66.78125 118.886719 64.550781 116.132812 64.550781 C 113.378906 64.550781 111.144531 66.78125 111.144531 69.539062 C 111.144531 72.292969 113.378906 74.527344 116.132812 74.527344 C 118.886719 74.527344 121.121094 72.292969 121.121094 69.539062 "/>
<path fill-rule="evenodd" fill="rgb(0%, 0%, 0%)" fill-opacity="1" d="M 122.117188 69.539062 C 122.117188 66.230469 119.4375 63.550781 116.132812 63.550781 C 112.824219 63.550781 110.144531 66.230469 110.144531 69.539062 C 110.144531 72.84375 112.824219 75.523438 116.132812 75.523438 C 119.4375 75.523438 122.117188 72.84375 122.117188 69.539062 M 120.121094 69.539062 C 120.121094 67.332031 118.335938 65.546875 116.132812 65.546875 C 113.929688 65.546875 112.140625 67.332031 112.140625 69.539062 C 112.140625 71.742188 113.929688 73.527344 116.132812 73.527344 C 118.335938 73.527344 120.121094 71.742188 120.121094 69.539062 "/>
<path fill-rule="evenodd" fill="rgb(100%, 0%, 0%)" fill-opacity="1" d="M 166.015625 68.539062 C 166.015625 65.785156 163.78125 63.550781 161.027344 63.550781 C 158.273438 63.550781 156.039062 65.785156 156.039062 68.539062 C 156.039062 71.292969 158.273438 73.527344 161.027344 73.527344 C 163.78125 73.527344 166.015625 71.292969 166.015625 68.539062 "/>
<path fill-rule="evenodd" fill="rgb(0%, 0%, 0%)" fill-opacity="1" d="M 167.011719 68.539062 C 167.011719 65.234375 164.332031 62.554688 161.027344 62.554688 C 157.71875 62.554688 155.039062 65.234375 155.039062 68.539062 C 155.039062 71.847656 157.71875 74.527344 161.027344 74.527344 C 164.332031 74.527344 167.011719 71.847656 167.011719 68.539062 M 165.019531 68.539062 C 165.019531 66.335938 163.230469 64.550781 161.027344 64.550781 C 158.824219 64.550781 157.035156 66.335938 157.035156 68.539062 C 157.035156 70.742188 158.824219 72.53125 161.027344 72.53125 C 163.230469 72.53125 165.019531 70.742188 165.019531 68.539062 "/>
<path fill-rule="evenodd" fill="rgb(100%, 0%, 0%)" fill-opacity="1" d="M 214.902344 111.4375 C 214.902344 108.683594 212.667969 106.449219 209.914062 106.449219 C 207.15625 106.449219 204.925781 108.683594 204.925781 111.4375 C 204.925781 114.195312 207.15625 116.425781 209.914062 116.425781 C 212.667969 116.425781 214.902344 114.195312 214.902344 111.4375 "/>
<path fill-rule="evenodd" fill="rgb(0%, 0%, 0%)" fill-opacity="1" d="M 215.898438 111.4375 C 215.898438 108.132812 213.21875 105.453125 209.914062 105.453125 C 206.605469 105.453125 203.925781 108.132812 203.925781 111.4375 C 203.925781 114.746094 206.605469 117.425781 209.914062 117.425781 C 213.21875 117.425781 215.898438 114.746094 215.898438 111.4375 M 213.902344 111.4375 C 213.902344 109.234375 212.117188 107.449219 209.914062 107.449219 C 207.707031 107.449219 205.921875 109.234375 205.921875 111.4375 C 205.921875 113.644531 207.707031 115.429688 209.914062 115.429688 C 212.117188 115.429688 213.902344 113.644531 213.902344 111.4375 "/>
<path fill-rule="evenodd" fill="rgb(100%, 0%, 0%)" fill-opacity="1" d="M 150.050781 162.320312 C 150.050781 159.566406 147.820312 157.332031 145.0625 157.332031 C 142.308594 157.332031 140.074219 159.566406 140.074219 162.320312 C 140.074219 165.074219 142.308594 167.308594 145.0625 167.308594 C 147.820312 167.308594 150.050781 165.074219 150.050781 162.320312 "/>
<path fill-rule="evenodd" fill="rgb(0%, 0%, 0%)" fill-opacity="1" d="M 151.050781 162.320312 C 151.050781 159.015625 148.371094 156.335938 145.0625 156.335938 C 141.757812 156.335938 139.078125 159.015625 139.078125 162.320312 C 139.078125 165.625 141.757812 168.304688 145.0625 168.304688 C 148.371094 168.304688 151.050781 165.625 151.050781 162.320312 M 149.054688 162.320312 C 149.054688 160.117188 147.269531 158.328125 145.0625 158.328125 C 142.859375 158.328125 141.074219 160.117188 141.074219 162.320312 C 141.074219 164.523438 142.859375 166.3125 145.0625 166.3125 C 147.269531 166.3125 149.054688 164.523438 149.054688 162.320312 "/>
<path fill-rule="evenodd" fill="rgb(100%, 0%, 0%)" fill-opacity="1" d="M 181.976562 6.683594 C 181.976562 3.929688 179.746094 1.695312 176.988281 1.695312 C 174.234375 1.695312 172 3.929688 172 6.683594 C 172 9.4375 174.234375 11.671875 176.988281 11.671875 C 179.746094 11.671875 181.976562 9.4375 181.976562 6.683594 "/>
<path fill-rule="evenodd" fill="rgb(0%, 0%, 0%)" fill-opacity="1" d="M 182.976562 6.683594 C 182.976562 3.378906 180.296875 0.699219 176.988281 0.699219 C 173.683594 0.699219 171.003906 3.378906 171.003906 6.683594 C 171.003906 9.992188 173.683594 12.671875 176.988281 12.671875 C 180.296875 12.671875 182.976562 9.992188 182.976562 6.683594 M 180.980469 6.683594 C 180.980469 4.480469 179.195312 2.695312 176.988281 2.695312 C 174.785156 2.695312 173 4.480469 173 6.683594 C 173 8.886719 174.785156 10.675781 176.988281 10.675781 C 179.195312 10.675781 180.980469 8.886719 180.980469 6.683594 "/>
<path fill-rule="evenodd" fill="rgb(100%, 0%, 0%)" fill-opacity="1" d="M 127.105469 249.117188 C 127.105469 246.363281 124.871094 244.128906 122.117188 244.128906 C 119.363281 244.128906 117.128906 246.363281 117.128906 249.117188 C 117.128906 251.871094 119.363281 254.105469 122.117188 254.105469 C 124.871094 254.105469 127.105469 251.871094 127.105469 249.117188 "/>
<g clip-path="url(#clip-8)">
<path fill-rule="evenodd" fill="rgb(0%, 0%, 0%)" fill-opacity="1" d="M 128.105469 249.117188 C 128.105469 245.8125 125.425781 243.132812 122.117188 243.132812 C 118.8125 243.132812 116.132812 245.8125 116.132812 249.117188 C 116.132812 252.421875 118.8125 255.101562 122.117188 255.101562 C 125.425781 255.101562 128.105469 252.421875 128.105469 249.117188 M 126.109375 249.117188 C 126.109375 246.914062 124.320312 245.125 122.117188 245.125 C 119.914062 245.125 118.128906 246.914062 118.128906 249.117188 C 118.128906 251.320312 119.914062 253.109375 122.117188 253.109375 C 124.320312 253.109375 126.109375 251.320312 126.109375 249.117188 "/>
</g>
<path fill-rule="evenodd" fill="rgb(100%, 0%, 0%)" fill-opacity="1" d="M 207.917969 216.195312 C 207.917969 213.4375 205.683594 211.207031 202.929688 211.207031 C 200.175781 211.207031 197.941406 213.4375 197.941406 216.195312 C 197.941406 218.949219 200.175781 221.183594 202.929688 221.183594 C 205.683594 221.183594 207.917969 218.949219 207.917969 216.195312 "/>
<path fill-rule="evenodd" fill="rgb(0%, 0%, 0%)" fill-opacity="1" d="M 208.914062 216.195312 C 208.914062 212.886719 206.234375 210.207031 202.929688 210.207031 C 199.621094 210.207031 196.941406 212.886719 196.941406 216.195312 C 196.941406 219.5 199.621094 222.179688 202.929688 222.179688 C 206.234375 222.179688 208.914062 219.5 208.914062 216.195312 M 206.917969 216.195312 C 206.917969 213.988281 205.132812 212.203125 202.929688 212.203125 C 200.726562 212.203125 198.9375 213.988281 198.9375 216.195312 C 198.9375 218.398438 200.726562 220.183594 202.929688 220.183594 C 205.132812 220.183594 206.917969 218.398438 206.917969 216.195312 "/>
<path fill-rule="evenodd" fill="rgb(100%, 0%, 0%)" fill-opacity="1" d="M 68.242188 208.210938 C 68.242188 205.457031 66.011719 203.222656 63.253906 203.222656 C 60.5 203.222656 58.265625 205.457031 58.265625 208.210938 C 58.265625 210.96875 60.5 213.199219 63.253906 213.199219 C 66.011719 213.199219 68.242188 210.96875 68.242188 208.210938 "/>
<path fill-rule="evenodd" fill="rgb(0%, 0%, 0%)" fill-opacity="1" d="M 69.242188 208.210938 C 69.242188 204.90625 66.5625 202.226562 63.253906 202.226562 C 59.949219 202.226562 57.269531 204.90625 57.269531 208.210938 C 57.269531 211.519531 59.949219 214.199219 63.253906 214.199219 C 66.5625 214.199219 69.242188 211.519531 69.242188 208.210938 M 67.246094 208.210938 C 67.246094 206.007812 65.460938 204.222656 63.253906 204.222656 C 61.050781 204.222656 59.265625 206.007812 59.265625 208.210938 C 59.265625 210.417969 61.050781 212.203125 63.253906 212.203125 C 65.460938 212.203125 67.246094 210.417969 67.246094 208.210938 "/>
<path fill-rule="evenodd" fill="rgb(100%, 0%, 0%)" fill-opacity="1" d="M 86.203125 101.460938 C 86.203125 98.707031 83.96875 96.472656 81.214844 96.472656 C 78.460938 96.472656 76.226562 98.707031 76.226562 101.460938 C 76.226562 104.21875 78.460938 106.449219 81.214844 106.449219 C 83.96875 106.449219 86.203125 104.21875 86.203125 101.460938 "/>
<path fill-rule="evenodd" fill="rgb(0%, 0%, 0%)" fill-opacity="1" d="M 87.199219 101.460938 C 87.199219 98.15625 84.519531 95.476562 81.214844 95.476562 C 77.90625 95.476562 75.226562 98.15625 75.226562 101.460938 C 75.226562 104.769531 77.90625 107.449219 81.214844 107.449219 C 84.519531 107.449219 87.199219 104.769531 87.199219 101.460938 M 85.203125 101.460938 C 85.203125 99.257812 83.417969 97.472656 81.214844 97.472656 C 79.011719 97.472656 77.222656 99.257812 77.222656 101.460938 C 77.222656 103.667969 79.011719 105.453125 81.214844 105.453125 C 83.417969 105.453125 85.203125 103.667969 85.203125 101.460938 "/>
</svg>
