<?xml version="1.0" encoding="UTF-8"?>
<svg xmlns="http://www.w3.org/2000/svg" xmlns:xlink="http://www.w3.org/1999/xlink" width="216.9" height="256.4" viewBox="0 0 216.9 256.4">
<defs>
<clipPath id="clip-0">
<path clip-rule="nonzero" d="M 0.203125 80 L 29 80 L 29 128 L 0.203125 128 Z M 0.203125 80 "/>
</clipPath>
<clipPath id="clip-1">
<path clip-rule="nonzero" d="M 0.203125 80 L 36 80 L 36 95 L 0.203125 95 Z M 0.203125 80 "/>
</clipPath>
<clipPath id="clip-2">
<path clip-rule="nonzero" d="M 0.203125 67 L 39 67 L 39 81 L 0.203125 81 Z M 0.203125 67 "/>
</clipPath>
<clipPath id="clip-3">
<path clip-rule="nonzero" d="M 0.203125 22 L 23 22 L 23 81 L 0.203125 81 Z M 0.203125 22 "/>
</clipPath>
<clipPath id="clip-4">
<path clip-rule="nonzero" d="M 0.203125 80 L 32 80 L 32 198 L 0.203125 198 Z M 0.203125 80 "/>
</clipPath>
<clipPath id="clip-5">
<path clip-rule="nonzero" d="M 0.203125 80 L 36 80 L 36 95 L 0.203125 95 Z M 0.203125 80 "/>
</clipPath>
<clipPath id="clip-6">
<path clip-rule="nonzero" d="M 0.203125 67 L 39 67 L 39 81 L 0.203125 81 Z M 0.203125 67 "/>
</clipPath>
<clipPath id="clip-7">
<path clip-rule="nonzero" d="M 0.203125 22 L 23 22 L 23 81 L 0.203125 81 Z M 0.203125 22 "/>
</clipPath>
<clipPath id="clip-8">
<path clip-rule="nonzero" d="M 116 243 L 129 243 L 129 255.800781 L 116 255.800781 Z M 116 243 "/>
</clipPath>
</defs>
<path fill="none" stroke-width="0.4" stroke-linecap="butt" stroke-linejoin="round" stroke="rgb(0%, 0%, 0%)" stroke-opacity="1" stroke-miterlimit="10" d="M 169.000791 219.99821 L 137.998725 214.998255 " transform="matrix(0.997665, 0, 0, -0.997665, -52.473424, 289.023658)"/>
<path fill="none" stroke-width="0.4" stroke-linecap="butt" stroke-linejoin="round" stroke="rgb(0%, 0%, 0%)" stroke-opacity="1" stroke-miterlimit="10" d="M 119.001248 59.999672 L 84.001568 92.000163 " transform="matrix(0.997665, 0, 0, -0.997665, -52.473424, 289.023658)"/>
<path fill="none" stroke-width="0.4" stroke-linecap="butt" stroke-linejoin="round" stroke="rgb(0%, 0%, 0%)" stroke-opacity="1" stroke-miterlimit="10" d="M 119.001248 59.999672 L 174.99917 39.999855 " transform="matrix(0.997665, 0, 0, -0.997665, -52.473424, 289.023658)"/>
<path fill="none" stroke-width="0.4" stroke-linecap="butt" stroke-linejoin="round" stroke="rgb(0%, 0%, 0%)" stroke-opacity="1" stroke-miterlimit="10" d="M 119.001248 59.999672 L 152.000163 57.000483 " transform="matrix(0.997665, 0, 0, -0.997665, -52.473424, 289.023658)"/>
<path fill="none" stroke-width="0.4" stroke-linecap="butt" stroke-linejoin="round" stroke="rgb(0%, 0%, 0%)" stroke-opacity="1" stroke-miterlimit="10" d="M 119.001248 59.999672 L 115.998143 81.001829 " transform="matrix(0.997665, 0, 0, -0.997665, -52.473424, 289.023658)"/>
<g clip-path="url(#clip-0)">
<path fill="none" stroke-width="0.4" stroke-linecap="butt" stroke-linejoin="round" stroke="rgb(0%, 0%, 0%)" stroke-opacity="1" stroke-miterlimit="10" d="M 52.999502 208.999876 L 80.998463 161.999523 " transform="matrix(0.997665, 0, 0, -0.997665, -52.473424, 289.023658)"/>
</g>
<g clip-path="url(#clip-1)">
<path fill="none" stroke-width="0.4" stroke-linecap="butt" stroke-linejoin="round" stroke="rgb(0%, 0%, 0%)" stroke-opacity="1" stroke-miterlimit="10" d="M 52.999502 208.999876 L 87.999182 194.998438 " transform="matrix(0.997665, 0, 0, -0.997665, -52.473424, 289.023658)"/>
</g>
<g clip-path="url(#clip-2)">
<path fill="none" stroke-width="0.4" stroke-linecap="butt" stroke-linejoin="round" stroke="rgb(0%, 0%, 0%)" stroke-opacity="1" stroke-miterlimit="10" d="M 52.999502 208.999876 L 90.998372 221.998974 " transform="matrix(0.997665, 0, 0, -0.997665, -52.473424, 289.023658)"/>
</g>
<g clip-path="url(#clip-3)">
<path fill="none" stroke-width="0.4" stroke-linecap="butt" stroke-linejoin="round" stroke="rgb(0%, 0%, 0%)" stroke-opacity="1" stroke-miterlimit="10" d="M 52.999502 208.999876 L 75.000084 266.998563 " transform="matrix(0.997665, 0, 0, -0.997665, -52.473424, 289.023658)"/>
</g>
<g clip-path="url(#clip-4)">
<path fill="none" stroke-width="0.4" stroke-linecap="butt" stroke-linejoin="round" stroke="rgb(0%, 0%, 0%)" stroke-opacity="1" stroke-miterlimit="10" d="M 52.999502 208.999876 L 84.001568 92.000163 " transform="matrix(0.997665, 0, 0, -0.997665, -52.473424, 289.023658)"/>
</g>
<path fill="none" stroke-width="0.4" stroke-linecap="butt" stroke-linejoin="round" stroke="rgb(0%, 0%, 0%)" stroke-opacity="1" stroke-miterlimit="10" d="M 214.998804 241.000367 L 184.000654 265.001714 " transform="matrix(0.997665, 0, 0, -0.997665, -52.473424, 289.023658)"/>
<path fill="none" stroke-width="0.4" stroke-linecap="butt" stroke-linejoin="round" stroke="rgb(0%, 0%, 0%)" stroke-opacity="1" stroke-miterlimit="10" d="M 214.998804 241.000367 L 192.998222 231.000458 " transform="matrix(0.997665, 0, 0, -0.997665, -52.473424, 289.023658)"/>
<path fill="none" stroke-width="0.4" stroke-linecap="butt" stroke-linejoin="round" stroke="rgb(0%, 0%, 0%)" stroke-opacity="1" stroke-miterlimit="10" d="M 214.998804 241.000367 L 214.00038 221.00055 " transform="matrix(0.997665, 0, 0, -0.997665, -52.473424, 289.023658)"/>
<path fill="none" stroke-width="0.4" stroke-linecap="butt" stroke-linejoin="round" stroke="rgb(0%, 0%, 0%)" stroke-opacity="1" stroke-miterlimit="10" d="M 214.998804 241.000367 L 241.000916 221.998974 " transform="matrix(0.997665, 0, 0, -0.997665, -52.473424, 289.023658)"/>
<path fill="none" stroke-width="0.4" stroke-linecap="butt" stroke-linejoin="round" stroke="rgb(0%, 0%, 0%)" stroke-opacity="1" stroke-miterlimit="10" d="M 214.998804 241.000367 L 239.998576 243.999556 " transform="matrix(0.997665, 0, 0, -0.997665, -52.473424, 289.023658)"/>
<path fill="none" stroke-width="0.4" stroke-linecap="butt" stroke-linejoin="round" stroke="rgb(0%, 0%, 0%)" stroke-opacity="1" stroke-miterlimit="10" d="M 214.998804 241.000367 L 204.000471 270.001668 " transform="matrix(0.997665, 0, 0, -0.997665, -52.473424, 289.023658)"/>
<path fill="none" stroke-width="0.4" stroke-linecap="butt" stroke-linejoin="round" stroke="rgb(0%, 0%, 0%)" stroke-opacity="1" stroke-miterlimit="10" d="M 263.001498 178.001726 L 246.00087 196.000778 " transform="matrix(0.997665, 0, 0, -0.997665, -52.473424, 289.023658)"/>
<path fill="none" stroke-width="0.4" stroke-linecap="butt" stroke-linejoin="round" stroke="rgb(0%, 0%, 0%)" stroke-opacity="1" stroke-miterlimit="10" d="M 263.001498 178.001726 L 238.001726 153.001954 " transform="matrix(0.997665, 0, 0, -0.997665, -52.473424, 289.023658)"/>
<path fill="none" stroke-width="0.4" stroke-linecap="butt" stroke-linejoin="round" stroke="rgb(0%, 0%, 0%)" stroke-opacity="1" stroke-miterlimit="10" d="M 216.001144 164.998712 L 174.99917 198.001543 " transform="matrix(0.997665, 0, 0, -0.997665, -52.473424, 289.023658)"/>
<path fill="none" stroke-width="0.4" stroke-linecap="butt" stroke-linejoin="round" stroke="rgb(0%, 0%, 0%)" stroke-opacity="1" stroke-miterlimit="10" d="M 216.001144 164.998712 L 162.000072 176.999386 " transform="matrix(0.997665, 0, 0, -0.997665, -52.473424, 289.023658)"/>
<path fill="none" stroke-width="0.4" stroke-linecap="butt" stroke-linejoin="round" stroke="rgb(0%, 0%, 0%)" stroke-opacity="1" stroke-miterlimit="10" d="M 216.001144 164.998712 L 197.998177 126.999843 " transform="matrix(0.997665, 0, 0, -0.997665, -52.473424, 289.023658)"/>
<path fill="none" stroke-width="0.4" stroke-linecap="butt" stroke-linejoin="round" stroke="rgb(0%, 0%, 0%)" stroke-opacity="1" stroke-miterlimit="10" d="M 216.001144 164.998712 L 238.001726 153.001954 " transform="matrix(0.997665, 0, 0, -0.997665, -52.473424, 289.023658)"/>
<path fill="none" stroke-width="0.4" stroke-linecap="butt" stroke-linejoin="round" stroke="rgb(0%, 0%, 0%)" stroke-opacity="1" stroke-miterlimit="10" d="M 216.001144 164.998712 L 246.00087 196.000778 " transform="matrix(0.997665, 0, 0, -0.997665, -52.473424, 289.023658)"/>
<path fill="none" stroke-width="0.4" stroke-linecap="butt" stroke-linejoin="round" stroke="rgb(0%, 0%, 0%)" stroke-opacity="1" stroke-miterlimit="10" d="M 216.001144 164.998712 L 214.00038 221.00055 " transform="matrix(0.997665, 0, 0, -0.997665, -52.473424, 289.023658)"/>
<path fill="none" stroke-width="0.4" stroke-linecap="butt" stroke-linejoin="round" stroke="rgb(0%, 0%, 0%)" stroke-opacity="1" stroke-miterlimit="10" d="M 214.00038 221.00055 L 246.00087 196.000778 " transform="matrix(0.997665, 0, 0, -0.997665, -52.473424, 289.023658)"/>
<path fill="none" stroke-width="0.4" stroke-linecap="butt" stroke-linejoin="round" stroke="rgb(0%, 0%, 0%)" stroke-opacity="1" stroke-miterlimit="10" d="M 214.00038 221.00055 L 241.000916 221.998974 " transform="matrix(0.997665, 0, 0, -0.997665, -52.473424, 289.023658)"/>
<path fill="none" stroke-width="0.4" stroke-linecap="butt" stroke-linejoin="round" stroke="rgb(0%, 0%, 0%)" stroke-opacity="1" stroke-miterlimit="10" d="M 214.00038 221.00055 L 192.998222 231.000458 " transform="matrix(0.997665, 0, 0, -0.997665, -52.473424, 289.023658)"/>
<path fill="none" stroke-width="0.4" stroke-linecap="butt" stroke-linejoin="round" stroke="rgb(0%, 0%, 0%)" stroke-opacity="1" stroke-miterlimit="10" d="M 214.00038 221.00055 L 174.99917 198.001543 " transform="matrix(0.997665, 0, 0, -0.997665, -52.473424, 289.023658)"/>
<path fill="none" stroke-width="0.4" stroke-linecap="butt" stroke-linejoin="round" stroke="rgb(0%, 0%, 0%)" stroke-opacity="1" stroke-miterlimit="10" d="M 214.00038 221.00055 L 216.001144 164.998712 " transform="matrix(0.997665, 0, 0, -0.997665, -52.473424, 289.023658)"/>
<path fill="none" stroke-width="0.4" stroke-linecap="butt" stroke-linejoin="round" stroke="rgb(0%, 0%, 0%)" stroke-opacity="1" stroke-miterlimit="10" d="M 239.998576 243.999556 L 229.998667 283.000766 " transform="matrix(0.997665, 0, 0, -0.997665, -52.473424, 289.023658)"/>
<path fill="none" stroke-width="0.4" stroke-linecap="butt" stroke-linejoin="round" stroke="rgb(0%, 0%, 0%)" stroke-opacity="1" stroke-miterlimit="10" d="M 239.998576 243.999556 L 204.000471 270.001668 " transform="matrix(0.997665, 0, 0, -0.997665, -52.473424, 289.023658)"/>
<path fill="none" stroke-width="0.4" stroke-linecap="butt" stroke-linejoin="round" stroke="rgb(0%, 0%, 0%)" stroke-opacity="1" stroke-miterlimit="10" d="M 239.998576 243.999556 L 241.000916 221.998974 " transform="matrix(0.997665, 0, 0, -0.997665, -52.473424, 289.023658)"/>
<path fill="none" stroke-width="0.4" stroke-linecap="butt" stroke-linejoin="round" stroke="rgb(0%, 0%, 0%)" stroke-opacity="1" stroke-miterlimit="10" d="M 241.000916 221.998974 L 239.998576 243.999556 " transform="matrix(0.997665, 0, 0, -0.997665, -52.473424, 289.023658)"/>
<path fill="none" stroke-width="0.4" stroke-linecap="butt" stroke-linejoin="round" stroke="rgb(0%, 0%, 0%)" stroke-opacity="1" stroke-miterlimit="10" d="M 241.000916 221.998974 L 246.00087 196.000778 " transform="matrix(0.997665, 0, 0, -0.997665, -52.473424, 289.023658)"/>
<path fill="none" stroke-width="0.4" stroke-linecap="butt" stroke-linejoin="round" stroke="rgb(0%, 0%, 0%)" stroke-opacity="1" stroke-miterlimit="10" d="M 246.00087 196.000778 L 238.001726 153.001954 " transform="matrix(0.997665, 0, 0, -0.997665, -52.473424, 289.023658)"/>
<path fill="none" stroke-width="0.4" stroke-linecap="butt" stroke-linejoin="round" stroke="rgb(0%, 0%, 0%)" stroke-opacity="1" stroke-miterlimit="10" d="M 246.00087 196.000778 L 241.000916 221.998974 " transform="matrix(0.997665, 0, 0, -0.997665, -52.473424, 289.023658)"/>
<path fill="none" stroke-width="0.4" stroke-linecap="butt" stroke-linejoin="round" stroke="rgb(0%, 0%, 0%)" stroke-opacity="1" stroke-miterlimit="10" d="M 169.000791 219.99821 L 174.99917 198.001543 " transform="matrix(0.997665, 0, 0, -0.997665, -52.473424, 289.023658)"/>
<path fill="none" stroke-width="0.4" stroke-linecap="butt" stroke-linejoin="round" stroke="rgb(0%, 0%, 0%)" stroke-opacity="1" stroke-miterlimit="10" d="M 169.000791 219.99821 L 192.998222 231.000458 " transform="matrix(0.997665, 0, 0, -0.997665, -52.473424, 289.023658)"/>
<path fill="none" stroke-width="0.4" stroke-linecap="butt" stroke-linejoin="round" stroke="rgb(0%, 0%, 0%)" stroke-opacity="1" stroke-miterlimit="10" d="M 169.000791 219.99821 L 184.000654 265.001714 " transform="matrix(0.997665, 0, 0, -0.997665, -52.473424, 289.023658)"/>
<path fill="none" stroke-width="0.4" stroke-linecap="butt" stroke-linejoin="round" stroke="rgb(0%, 0%, 0%)" stroke-opacity="1" stroke-miterlimit="10" d="M 169.000791 219.99821 L 149.999399 253.00104 " transform="matrix(0.997665, 0, 0, -0.997665, -52.473424, 289.023658)"/>
<path fill="none" stroke-width="0.4" stroke-linecap="butt" stroke-linejoin="round" stroke="rgb(0%, 0%, 0%)" stroke-opacity="1" stroke-miterlimit="10" d="M 162.000072 176.999386 L 139.99949 116.999934 " transform="matrix(0.997665, 0, 0, -0.997665, -52.473424, 289.023658)"/>
<path fill="none" stroke-width="0.4" stroke-linecap="butt" stroke-linejoin="round" stroke="rgb(0%, 0%, 0%)" stroke-opacity="1" stroke-miterlimit="10" d="M 162.000072 176.999386 L 197.998177 126.999843 " transform="matrix(0.997665, 0, 0, -0.997665, -52.473424, 289.023658)"/>
<path fill="none" stroke-width="0.4" stroke-linecap="butt" stroke-linejoin="round" stroke="rgb(0%, 0%, 0%)" stroke-opacity="1" stroke-miterlimit="10" d="M 162.000072 176.999386 L 174.99917 198.001543 " transform="matrix(0.997665, 0, 0, -0.997665, -52.473424, 289.023658)"/>
<path fill="none" stroke-width="0.4" stroke-linecap="butt" stroke-linejoin="round" stroke="rgb(0%, 0%, 0%)" stroke-opacity="1" stroke-miterlimit="10" d="M 162.000072 176.999386 L 134.001111 188.001634 " transform="matrix(0.997665, 0, 0, -0.997665, -52.473424, 289.023658)"/>
<path fill="none" stroke-width="0.4" stroke-linecap="butt" stroke-linejoin="round" stroke="rgb(0%, 0%, 0%)" stroke-opacity="1" stroke-miterlimit="10" d="M 162.000072 176.999386 L 109.001339 158.001909 " transform="matrix(0.997665, 0, 0, -0.997665, -52.473424, 289.023658)"/>
<path fill="none" stroke-width="0.4" stroke-linecap="butt" stroke-linejoin="round" stroke="rgb(0%, 0%, 0%)" stroke-opacity="1" stroke-miterlimit="10" d="M 197.998177 126.999843 L 162.000072 176.999386 " transform="matrix(0.997665, 0, 0, -0.997665, -52.473424, 289.023658)"/>
<path fill="none" stroke-width="0.4" stroke-linecap="butt" stroke-linejoin="round" stroke="rgb(0%, 0%, 0%)" stroke-opacity="1" stroke-miterlimit="10" d="M 197.998177 126.999843 L 139.99949 116.999934 " transform="matrix(0.997665, 0, 0, -0.997665, -52.473424, 289.023658)"/>
<path fill="none" stroke-width="0.4" stroke-linecap="butt" stroke-linejoin="round" stroke="rgb(0%, 0%, 0%)" stroke-opacity="1" stroke-miterlimit="10" d="M 197.998177 126.999843 L 196.001327 107.000026 " transform="matrix(0.997665, 0, 0, -0.997665, -52.473424, 289.023658)"/>
<path fill="none" stroke-width="0.4" stroke-linecap="butt" stroke-linejoin="round" stroke="rgb(0%, 0%, 0%)" stroke-opacity="1" stroke-miterlimit="10" d="M 197.998177 126.999843 L 236.000962 119.000699 " transform="matrix(0.997665, 0, 0, -0.997665, -52.473424, 289.023658)"/>
<path fill="none" stroke-width="0.4" stroke-linecap="butt" stroke-linejoin="round" stroke="rgb(0%, 0%, 0%)" stroke-opacity="1" stroke-miterlimit="10" d="M 197.998177 126.999843 L 238.001726 153.001954 " transform="matrix(0.997665, 0, 0, -0.997665, -52.473424, 289.023658)"/>
<path fill="none" stroke-width="0.4" stroke-linecap="butt" stroke-linejoin="round" stroke="rgb(0%, 0%, 0%)" stroke-opacity="1" stroke-miterlimit="10" d="M 236.000962 119.000699 L 197.998177 126.999843 " transform="matrix(0.997665, 0, 0, -0.997665, -52.473424, 289.023658)"/>
<path fill="none" stroke-width="0.4" stroke-linecap="butt" stroke-linejoin="round" stroke="rgb(0%, 0%, 0%)" stroke-opacity="1" stroke-miterlimit="10" d="M 236.000962 119.000699 L 196.001327 107.000026 " transform="matrix(0.997665, 0, 0, -0.997665, -52.473424, 289.023658)"/>
<path fill="none" stroke-width="0.4" stroke-linecap="butt" stroke-linejoin="round" stroke="rgb(0%, 0%, 0%)" stroke-opacity="1" stroke-miterlimit="10" d="M 236.000962 119.000699 L 228.001818 89.999398 " transform="matrix(0.997665, 0, 0, -0.997665, -52.473424, 289.023658)"/>
<path fill="none" stroke-width="0.4" stroke-linecap="butt" stroke-linejoin="round" stroke="rgb(0%, 0%, 0%)" stroke-opacity="1" stroke-miterlimit="10" d="M 236.000962 119.000699 L 238.001726 153.001954 " transform="matrix(0.997665, 0, 0, -0.997665, -52.473424, 289.023658)"/>
<path fill="none" stroke-width="0.4" stroke-linecap="butt" stroke-linejoin="round" stroke="rgb(0%, 0%, 0%)" stroke-opacity="1" stroke-miterlimit="10" d="M 256.000779 72.99877 L 219.000334 57.000483 " transform="matrix(0.997665, 0, 0, -0.997665, -52.473424, 289.023658)"/>
<path fill="none" stroke-width="0.4" stroke-linecap="butt" stroke-linejoin="round" stroke="rgb(0%, 0%, 0%)" stroke-opacity="1" stroke-miterlimit="10" d="M 256.000779 72.99877 L 244.000105 39.999855 " transform="matrix(0.997665, 0, 0, -0.997665, -52.473424, 289.023658)"/>
<path fill="none" stroke-width="0.4" stroke-linecap="butt" stroke-linejoin="round" stroke="rgb(0%, 0%, 0%)" stroke-opacity="1" stroke-miterlimit="10" d="M 256.000779 72.99877 L 228.001818 89.999398 " transform="matrix(0.997665, 0, 0, -0.997665, -52.473424, 289.023658)"/>
<path fill="none" stroke-width="0.4" stroke-linecap="butt" stroke-linejoin="round" stroke="rgb(0%, 0%, 0%)" stroke-opacity="1" stroke-miterlimit="10" d="M 219.000334 57.000483 L 174.99917 39.999855 " transform="matrix(0.997665, 0, 0, -0.997665, -52.473424, 289.023658)"/>
<path fill="none" stroke-width="0.4" stroke-linecap="butt" stroke-linejoin="round" stroke="rgb(0%, 0%, 0%)" stroke-opacity="1" stroke-miterlimit="10" d="M 219.000334 57.000483 L 244.000105 39.999855 " transform="matrix(0.997665, 0, 0, -0.997665, -52.473424, 289.023658)"/>
<path fill="none" stroke-width="0.4" stroke-linecap="butt" stroke-linejoin="round" stroke="rgb(0%, 0%, 0%)" stroke-opacity="1" stroke-miterlimit="10" d="M 219.000334 57.000483 L 256.000779 72.99877 " transform="matrix(0.997665, 0, 0, -0.997665, -52.473424, 289.023658)"/>
<path fill="none" stroke-width="0.4" stroke-linecap="butt" stroke-linejoin="round" stroke="rgb(0%, 0%, 0%)" stroke-opacity="1" stroke-miterlimit="10" d="M 219.000334 57.000483 L 228.001818 89.999398 " transform="matrix(0.997665, 0, 0, -0.997665, -52.473424, 289.023658)"/>
<path fill="none" stroke-width="0.4" stroke-linecap="butt" stroke-linejoin="round" stroke="rgb(0%, 0%, 0%)" stroke-opacity="1" stroke-miterlimit="10" d="M 219.000334 57.000483 L 194.998987 82.000254 " transform="matrix(0.997665, 0, 0, -0.997665, -52.473424, 289.023658)"/>
<path fill="none" stroke-width="0.4" stroke-linecap="butt" stroke-linejoin="round" stroke="rgb(0%, 0%, 0%)" stroke-opacity="1" stroke-miterlimit="10" d="M 244.000105 39.999855 L 219.000334 57.000483 " transform="matrix(0.997665, 0, 0, -0.997665, -52.473424, 289.023658)"/>
<path fill="none" stroke-width="0.4" stroke-linecap="butt" stroke-linejoin="round" stroke="rgb(0%, 0%, 0%)" stroke-opacity="1" stroke-miterlimit="10" d="M 244.000105 39.999855 L 174.99917 39.999855 " transform="matrix(0.997665, 0, 0, -0.997665, -52.473424, 289.023658)"/>
<path fill="none" stroke-width="0.4" stroke-linecap="butt" stroke-linejoin="round" stroke="rgb(0%, 0%, 0%)" stroke-opacity="1" stroke-miterlimit="10" d="M 174.99917 39.999855 L 194.998987 82.000254 " transform="matrix(0.997665, 0, 0, -0.997665, -52.473424, 289.023658)"/>
<path fill="none" stroke-width="0.4" stroke-linecap="butt" stroke-linejoin="round" stroke="rgb(0%, 0%, 0%)" stroke-opacity="1" stroke-miterlimit="10" d="M 174.99917 39.999855 L 162.000072 81.001829 " transform="matrix(0.997665, 0, 0, -0.997665, -52.473424, 289.023658)"/>
<path fill="none" stroke-width="0.4" stroke-linecap="butt" stroke-linejoin="round" stroke="rgb(0%, 0%, 0%)" stroke-opacity="1" stroke-miterlimit="10" d="M 174.99917 39.999855 L 152.000163 57.000483 " transform="matrix(0.997665, 0, 0, -0.997665, -52.473424, 289.023658)"/>
<path fill="none" stroke-width="0.4" stroke-linecap="butt" stroke-linejoin="round" stroke="rgb(0%, 0%, 0%)" stroke-opacity="1" stroke-miterlimit="10" d="M 174.99917 39.999855 L 244.000105 39.999855 " transform="matrix(0.997665, 0, 0, -0.997665, -52.473424, 289.023658)"/>
<path fill="none" stroke-width="0.4" stroke-linecap="butt" stroke-linejoin="round" stroke="rgb(0%, 0%, 0%)" stroke-opacity="1" stroke-miterlimit="10" d="M 139.99949 116.999934 L 196.001327 107.000026 " transform="matrix(0.997665, 0, 0, -0.997665, -52.473424, 289.023658)"/>
<path fill="none" stroke-width="0.4" stroke-linecap="butt" stroke-linejoin="round" stroke="rgb(0%, 0%, 0%)" stroke-opacity="1" stroke-miterlimit="10" d="M 139.99949 116.999934 L 109.001339 158.001909 " transform="matrix(0.997665, 0, 0, -0.997665, -52.473424, 289.023658)"/>
<path fill="none" stroke-width="0.4" stroke-linecap="butt" stroke-linejoin="round" stroke="rgb(0%, 0%, 0%)" stroke-opacity="1" stroke-miterlimit="10" d="M 139.99949 116.999934 L 104.99981 114.999169 " transform="matrix(0.997665, 0, 0, -0.997665, -52.473424, 289.023658)"/>
<path fill="none" stroke-width="0.4" stroke-linecap="butt" stroke-linejoin="round" stroke="rgb(0%, 0%, 0%)" stroke-opacity="1" stroke-miterlimit="10" d="M 139.99949 116.999934 L 115.998143 81.001829 " transform="matrix(0.997665, 0, 0, -0.997665, -52.473424, 289.023658)"/>
<path fill="none" stroke-width="0.4" stroke-linecap="butt" stroke-linejoin="round" stroke="rgb(0%, 0%, 0%)" stroke-opacity="1" stroke-miterlimit="10" d="M 139.99949 116.999934 L 162.000072 81.001829 " transform="matrix(0.997665, 0, 0, -0.997665, -52.473424, 289.023658)"/>
<path fill="none" stroke-width="0.4" stroke-linecap="butt" stroke-linejoin="round" stroke="rgb(0%, 0%, 0%)" stroke-opacity="1" stroke-miterlimit="10" d="M 109.001339 158.001909 L 119.999673 203.001497 " transform="matrix(0.997665, 0, 0, -0.997665, -52.473424, 289.023658)"/>
<path fill="none" stroke-width="0.4" stroke-linecap="butt" stroke-linejoin="round" stroke="rgb(0%, 0%, 0%)" stroke-opacity="1" stroke-miterlimit="10" d="M 109.001339 158.001909 L 87.999182 194.998438 " transform="matrix(0.997665, 0, 0, -0.997665, -52.473424, 289.023658)"/>
<path fill="none" stroke-width="0.4" stroke-linecap="butt" stroke-linejoin="round" stroke="rgb(0%, 0%, 0%)" stroke-opacity="1" stroke-miterlimit="10" d="M 109.001339 158.001909 L 80.998463 161.999523 " transform="matrix(0.997665, 0, 0, -0.997665, -52.473424, 289.023658)"/>
<path fill="none" stroke-width="0.4" stroke-linecap="butt" stroke-linejoin="round" stroke="rgb(0%, 0%, 0%)" stroke-opacity="1" stroke-miterlimit="10" d="M 109.001339 158.001909 L 99.999856 137.998176 " transform="matrix(0.997665, 0, 0, -0.997665, -52.473424, 289.023658)"/>
<path fill="none" stroke-width="0.4" stroke-linecap="butt" stroke-linejoin="round" stroke="rgb(0%, 0%, 0%)" stroke-opacity="1" stroke-miterlimit="10" d="M 109.001339 158.001909 L 104.99981 114.999169 " transform="matrix(0.997665, 0, 0, -0.997665, -52.473424, 289.023658)"/>
<path fill="none" stroke-width="0.4" stroke-linecap="butt" stroke-linejoin="round" stroke="rgb(0%, 0%, 0%)" stroke-opacity="1" stroke-miterlimit="10" d="M 109.001339 158.001909 L 139.99949 116.999934 " transform="matrix(0.997665, 0, 0, -0.997665, -52.473424, 289.023658)"/>
<path fill="none" stroke-width="0.4" stroke-linecap="butt" stroke-linejoin="round" stroke="rgb(0%, 0%, 0%)" stroke-opacity="1" stroke-miterlimit="10" d="M 109.001339 158.001909 L 134.001111 188.001634 " transform="matrix(0.997665, 0, 0, -0.997665, -52.473424, 289.023658)"/>
<path fill="none" stroke-width="0.4" stroke-linecap="butt" stroke-linejoin="round" stroke="rgb(0%, 0%, 0%)" stroke-opacity="1" stroke-miterlimit="10" d="M 229.998667 283.000766 L 204.000471 270.001668 " transform="matrix(0.997665, 0, 0, -0.997665, -52.473424, 289.023658)"/>
<path fill="none" stroke-width="0.4" stroke-linecap="butt" stroke-linejoin="round" stroke="rgb(0%, 0%, 0%)" stroke-opacity="1" stroke-miterlimit="10" d="M 204.000471 270.001668 L 229.998667 283.000766 " transform="matrix(0.997665, 0, 0, -0.997665, -52.473424, 289.023658)"/>
<path fill="none" stroke-width="0.4" stroke-linecap="butt" stroke-linejoin="round" stroke="rgb(0%, 0%, 0%)" stroke-opacity="1" stroke-miterlimit="10" d="M 204.000471 270.001668 L 184.000654 265.001714 " transform="matrix(0.997665, 0, 0, -0.997665, -52.473424, 289.023658)"/>
<path fill="none" stroke-width="0.4" stroke-linecap="butt" stroke-linejoin="round" stroke="rgb(0%, 0%, 0%)" stroke-opacity="1" stroke-miterlimit="10" d="M 184.000654 265.001714 L 204.000471 270.001668 " transform="matrix(0.997665, 0, 0, -0.997665, -52.473424, 289.023658)"/>
<path fill="none" stroke-width="0.4" stroke-linecap="butt" stroke-linejoin="round" stroke="rgb(0%, 0%, 0%)" stroke-opacity="1" stroke-miterlimit="10" d="M 184.000654 265.001714 L 149.999399 253.00104 " transform="matrix(0.997665, 0, 0, -0.997665, -52.473424, 289.023658)"/>
<path fill="none" stroke-width="0.4" stroke-linecap="butt" stroke-linejoin="round" stroke="rgb(0%, 0%, 0%)" stroke-opacity="1" stroke-miterlimit="10" d="M 184.000654 265.001714 L 192.998222 231.000458 " transform="matrix(0.997665, 0, 0, -0.997665, -52.473424, 289.023658)"/>
<path fill="none" stroke-width="0.4" stroke-linecap="butt" stroke-linejoin="round" stroke="rgb(0%, 0%, 0%)" stroke-opacity="1" stroke-miterlimit="10" d="M 149.999399 253.00104 L 184.000654 265.001714 " transform="matrix(0.997665, 0, 0, -0.997665, -52.473424, 289.023658)"/>
<path fill="none" stroke-width="0.4" stroke-linecap="butt" stroke-linejoin="round" stroke="rgb(0%, 0%, 0%)" stroke-opacity="1" stroke-miterlimit="10" d="M 149.999399 253.00104 L 119.001248 268.999328 " transform="matrix(0.997665, 0, 0, -0.997665, -52.473424, 289.023658)"/>
<path fill="none" stroke-width="0.4" stroke-linecap="butt" stroke-linejoin="round" stroke="rgb(0%, 0%, 0%)" stroke-opacity="1" stroke-miterlimit="10" d="M 149.999399 253.00104 L 119.001248 240.001942 " transform="matrix(0.997665, 0, 0, -0.997665, -52.473424, 289.023658)"/>
<path fill="none" stroke-width="0.4" stroke-linecap="butt" stroke-linejoin="round" stroke="rgb(0%, 0%, 0%)" stroke-opacity="1" stroke-miterlimit="10" d="M 149.999399 253.00104 L 137.998725 214.998255 " transform="matrix(0.997665, 0, 0, -0.997665, -52.473424, 289.023658)"/>
<path fill="none" stroke-width="0.4" stroke-linecap="butt" stroke-linejoin="round" stroke="rgb(0%, 0%, 0%)" stroke-opacity="1" stroke-miterlimit="10" d="M 119.001248 268.999328 L 95.998326 253.00104 " transform="matrix(0.997665, 0, 0, -0.997665, -52.473424, 289.023658)"/>
<path fill="none" stroke-width="0.4" stroke-linecap="butt" stroke-linejoin="round" stroke="rgb(0%, 0%, 0%)" stroke-opacity="1" stroke-miterlimit="10" d="M 119.001248 268.999328 L 119.001248 240.001942 " transform="matrix(0.997665, 0, 0, -0.997665, -52.473424, 289.023658)"/>
<path fill="none" stroke-width="0.4" stroke-linecap="butt" stroke-linejoin="round" stroke="rgb(0%, 0%, 0%)" stroke-opacity="1" stroke-miterlimit="10" d="M 119.001248 240.001942 L 119.999673 203.001497 " transform="matrix(0.997665, 0, 0, -0.997665, -52.473424, 289.023658)"/>
<path fill="none" stroke-width="0.4" stroke-linecap="butt" stroke-linejoin="round" stroke="rgb(0%, 0%, 0%)" stroke-opacity="1" stroke-miterlimit="10" d="M 119.001248 240.001942 L 137.998725 214.998255 " transform="matrix(0.997665, 0, 0, -0.997665, -52.473424, 289.023658)"/>
<path fill="none" stroke-width="0.4" stroke-linecap="butt" stroke-linejoin="round" stroke="rgb(0%, 0%, 0%)" stroke-opacity="1" stroke-miterlimit="10" d="M 119.001248 240.001942 L 119.001248 268.999328 " transform="matrix(0.997665, 0, 0, -0.997665, -52.473424, 289.023658)"/>
<path fill="none" stroke-width="0.4" stroke-linecap="butt" stroke-linejoin="round" stroke="rgb(0%, 0%, 0%)" stroke-opacity="1" stroke-miterlimit="10" d="M 119.001248 240.001942 L 95.998326 253.00104 " transform="matrix(0.997665, 0, 0, -0.997665, -52.473424, 289.023658)"/>
<path fill="none" stroke-width="0.4" stroke-linecap="butt" stroke-linejoin="round" stroke="rgb(0%, 0%, 0%)" stroke-opacity="1" stroke-miterlimit="10" d="M 119.001248 240.001942 L 90.998372 221.998974 " transform="matrix(0.997665, 0, 0, -0.997665, -52.473424, 289.023658)"/>
<path fill="none" stroke-width="0.4" stroke-linecap="butt" stroke-linejoin="round" stroke="rgb(0%, 0%, 0%)" stroke-opacity="1" stroke-miterlimit="10" d="M 95.998326 253.00104 L 75.000084 266.998563 " transform="matrix(0.997665, 0, 0, -0.997665, -52.473424, 289.023658)"/>
<path fill="none" stroke-width="0.4" stroke-linecap="butt" stroke-linejoin="round" stroke="rgb(0%, 0%, 0%)" stroke-opacity="1" stroke-miterlimit="10" d="M 95.998326 253.00104 L 90.998372 221.998974 " transform="matrix(0.997665, 0, 0, -0.997665, -52.473424, 289.023658)"/>
<path fill="none" stroke-width="0.4" stroke-linecap="butt" stroke-linejoin="round" stroke="rgb(0%, 0%, 0%)" stroke-opacity="1" stroke-miterlimit="10" d="M 90.998372 221.998974 L 95.998326 253.00104 " transform="matrix(0.997665, 0, 0, -0.997665, -52.473424, 289.023658)"/>
<path fill="none" stroke-width="0.4" stroke-linecap="butt" stroke-linejoin="round" stroke="rgb(0%, 0%, 0%)" stroke-opacity="1" stroke-miterlimit="10" d="M 90.998372 221.998974 L 75.000084 266.998563 " transform="matrix(0.997665, 0, 0, -0.997665, -52.473424, 289.023658)"/>
<path fill="none" stroke-width="0.4" stroke-linecap="butt" stroke-linejoin="round" stroke="rgb(0%, 0%, 0%)" stroke-opacity="1" stroke-miterlimit="10" d="M 90.998372 221.998974 L 87.999182 194.998438 " transform="matrix(0.997665, 0, 0, -0.997665, -52.473424, 289.023658)"/>
<path fill="none" stroke-width="0.4" stroke-linecap="butt" stroke-linejoin="round" stroke="rgb(0%, 0%, 0%)" stroke-opacity="1" stroke-miterlimit="10" d="M 90.998372 221.998974 L 119.999673 203.001497 " transform="matrix(0.997665, 0, 0, -0.997665, -52.473424, 289.023658)"/>
<path fill="none" stroke-width="0.4" stroke-linecap="butt" stroke-linejoin="round" stroke="rgb(0%, 0%, 0%)" stroke-opacity="1" stroke-miterlimit="10" d="M 87.999182 194.998438 L 119.999673 203.001497 " transform="matrix(0.997665, 0, 0, -0.997665, -52.473424, 289.023658)"/>
<path fill="none" stroke-width="0.4" stroke-linecap="butt" stroke-linejoin="round" stroke="rgb(0%, 0%, 0%)" stroke-opacity="1" stroke-miterlimit="10" d="M 87.999182 194.998438 L 90.998372 221.998974 " transform="matrix(0.997665, 0, 0, -0.997665, -52.473424, 289.023658)"/>
<path fill="none" stroke-width="0.4" stroke-linecap="butt" stroke-linejoin="round" stroke="rgb(0%, 0%, 0%)" stroke-opacity="1" stroke-miterlimit="10" d="M 87.999182 194.998438 L 80.998463 161.999523 " transform="matrix(0.997665, 0, 0, -0.997665, -52.473424, 289.023658)"/>
<path fill="none" stroke-width="0.4" stroke-linecap="butt" stroke-linejoin="round" stroke="rgb(0%, 0%, 0%)" stroke-opacity="1" stroke-miterlimit="10" d="M 80.998463 161.999523 L 87.999182 194.998438 " transform="matrix(0.997665, 0, 0, -0.997665, -52.473424, 289.023658)"/>
<path fill="none" stroke-width="0.4" stroke-linecap="butt" stroke-linejoin="round" stroke="rgb(0%, 0%, 0%)" stroke-opacity="1" stroke-miterlimit="10" d="M 80.998463 161.999523 L 84.001568 92.000163 " transform="matrix(0.997665, 0, 0, -0.997665, -52.473424, 289.023658)"/>
<path fill="none" stroke-width="0.4" stroke-linecap="butt" stroke-linejoin="round" stroke="rgb(0%, 0%, 0%)" stroke-opacity="1" stroke-miterlimit="10" d="M 80.998463 161.999523 L 99.999856 137.998176 " transform="matrix(0.997665, 0, 0, -0.997665, -52.473424, 289.023658)"/>
<path fill="none" stroke-width="0.4" stroke-linecap="butt" stroke-linejoin="round" stroke="rgb(0%, 0%, 0%)" stroke-opacity="1" stroke-miterlimit="10" d="M 99.999856 137.998176 L 104.99981 114.999169 " transform="matrix(0.997665, 0, 0, -0.997665, -52.473424, 289.023658)"/>
<path fill="none" stroke-width="0.4" stroke-linecap="butt" stroke-linejoin="round" stroke="rgb(0%, 0%, 0%)" stroke-opacity="1" stroke-miterlimit="10" d="M 99.999856 137.998176 L 80.998463 161.999523 " transform="matrix(0.997665, 0, 0, -0.997665, -52.473424, 289.023658)"/>
<path fill="none" stroke-width="0.4" stroke-linecap="butt" stroke-linejoin="round" stroke="rgb(0%, 0%, 0%)" stroke-opacity="1" stroke-miterlimit="10" d="M 99.999856 137.998176 L 84.001568 92.000163 " transform="matrix(0.997665, 0, 0, -0.997665, -52.473424, 289.023658)"/>
<path fill="none" stroke-width="0.4" stroke-linecap="butt" stroke-linejoin="round" stroke="rgb(0%, 0%, 0%)" stroke-opacity="1" stroke-miterlimit="10" d="M 104.99981 114.999169 L 99.999856 137.998176 " transform="matrix(0.997665, 0, 0, -0.997665, -52.473424, 289.023658)"/>
<path fill="none" stroke-width="0.4" stroke-linecap="butt" stroke-linejoin="round" stroke="rgb(0%, 0%, 0%)" stroke-opacity="1" stroke-miterlimit="10" d="M 104.99981 114.999169 L 84.001568 92.000163 " transform="matrix(0.997665, 0, 0, -0.997665, -52.473424, 289.023658)"/>
<path fill="none" stroke-width="0.4" stroke-linecap="butt" stroke-linejoin="round" stroke="rgb(0%, 0%, 0%)" stroke-opacity="1" stroke-miterlimit="10" d="M 104.99981 114.999169 L 115.998143 81.001829 " transform="matrix(0.997665, 0, 0, -0.997665, -52.473424, 289.023658)"/>
<path fill="none" stroke-width="0.4" stroke-linecap="butt" stroke-linejoin="round" stroke="rgb(0%, 0%, 0%)" stroke-opacity="1" stroke-miterlimit="10" d="M 84.001568 92.000163 L 115.998143 81.001829 " transform="matrix(0.997665, 0, 0, -0.997665, -52.473424, 289.023658)"/>
<path fill="none" stroke-width="0.4" stroke-linecap="butt" stroke-linejoin="round" stroke="rgb(0%, 0%, 0%)" stroke-opacity="1" stroke-miterlimit="10" d="M 84.001568 92.000163 L 104.99981 114.999169 " transform="matrix(0.997665, 0, 0, -0.997665, -52.473424, 289.023658)"/>
<path fill="none" stroke-width="0.4" stroke-linecap="butt" stroke-linejoin="round" stroke="rgb(0%, 0%, 0%)" stroke-opacity="1" stroke-miterlimit="10" d="M 115.998143 81.001829 L 162.000072 81.001829 " transform="matrix(0.997665, 0, 0, -0.997665, -52.473424, 289.023658)"/>
<path fill="none" stroke-width="0.4" stroke-linecap="butt" stroke-linejoin="round" stroke="rgb(0%, 0%, 0%)" stroke-opacity="1" stroke-miterlimit="10" d="M 115.998143 81.001829 L 84.001568 92.000163 " transform="matrix(0.997665, 0, 0, -0.997665, -52.473424, 289.023658)"/>
<path fill="none" stroke-width="0.4" stroke-linecap="butt" stroke-linejoin="round" stroke="rgb(0%, 0%, 0%)" stroke-opacity="1" stroke-miterlimit="10" d="M 115.998143 81.001829 L 152.000163 57.000483 " transform="matrix(0.997665, 0, 0, -0.997665, -52.473424, 289.023658)"/>
<path fill="none" stroke-width="0.4" stroke-linecap="butt" stroke-linejoin="round" stroke="rgb(0%, 0%, 0%)" stroke-opacity="1" stroke-miterlimit="10" d="M 196.001327 107.000026 L 162.000072 81.001829 " transform="matrix(0.997665, 0, 0, -0.997665, -52.473424, 289.023658)"/>
<path fill="none" stroke-width="0.4" stroke-linecap="butt" stroke-linejoin="round" stroke="rgb(0%, 0%, 0%)" stroke-opacity="1" stroke-miterlimit="10" d="M 196.001327 107.000026 L 194.998987 82.000254 " transform="matrix(0.997665, 0, 0, -0.997665, -52.473424, 289.023658)"/>
<path fill="none" stroke-width="0.4" stroke-linecap="butt" stroke-linejoin="round" stroke="rgb(0%, 0%, 0%)" stroke-opacity="1" stroke-miterlimit="10" d="M 196.001327 107.000026 L 228.001818 89.999398 " transform="matrix(0.997665, 0, 0, -0.997665, -52.473424, 289.023658)"/>
<path fill="none" stroke-width="0.4" stroke-linecap="butt" stroke-linejoin="round" stroke="rgb(0%, 0%, 0%)" stroke-opacity="1" stroke-miterlimit="10" d="M 194.998987 82.000254 L 196.001327 107.000026 " transform="matrix(0.997665, 0, 0, -0.997665, -52.473424, 289.023658)"/>
<path fill="none" stroke-width="0.4" stroke-linecap="butt" stroke-linejoin="round" stroke="rgb(0%, 0%, 0%)" stroke-opacity="1" stroke-miterlimit="10" d="M 194.998987 82.000254 L 162.000072 81.001829 " transform="matrix(0.997665, 0, 0, -0.997665, -52.473424, 289.023658)"/>
<path fill="none" stroke-width="0.4" stroke-linecap="butt" stroke-linejoin="round" stroke="rgb(0%, 0%, 0%)" stroke-opacity="1" stroke-miterlimit="10" d="M 194.998987 82.000254 L 228.001818 89.999398 " transform="matrix(0.997665, 0, 0, -0.997665, -52.473424, 289.023658)"/>
<path fill="none" stroke-width="0.4" stroke-linecap="butt" stroke-linejoin="round" stroke="rgb(0%, 0%, 0%)" stroke-opacity="1" stroke-miterlimit="10" d="M 162.000072 81.001829 L 152.000163 57.000483 " transform="matrix(0.997665, 0, 0, -0.997665, -52.473424, 289.023658)"/>
<path fill="none" stroke-width="0.4" stroke-linecap="butt" stroke-linejoin="round" stroke="rgb(0%, 0%, 0%)" stroke-opacity="1" stroke-miterlimit="10" d="M 162.000072 81.001829 L 194.998987 82.000254 " transform="matrix(0.997665, 0, 0, -0.997665, -52.473424, 289.023658)"/>
<path fill="none" stroke-width="0.4" stroke-linecap="butt" stroke-linejoin="round" stroke="rgb(0%, 0%, 0%)" stroke-opacity="1" stroke-miterlimit="10" d="M 152.000163 57.000483 L 162.000072 81.001829 " transform="matrix(0.997665, 0, 0, -0.997665, -52.473424, 289.023658)"/>
<path fill="none" stroke-width="0.4" stroke-linecap="butt" stroke-linejoin="round" stroke="rgb(0%, 0%, 0%)" stroke-opacity="1" stroke-miterlimit="10" d="M 137.998725 214.998255 L 119.999673 203.001497 " transform="matrix(0.997665, 0, 0, -0.997665, -52.473424, 289.023658)"/>
<path fill="none" stroke-width="0.4" stroke-linecap="butt" stroke-linejoin="round" stroke="rgb(0%, 0%, 0%)" stroke-opacity="1" stroke-miterlimit="10" d="M 137.998725 214.998255 L 134.001111 188.001634 " transform="matrix(0.997665, 0, 0, -0.997665, -52.473424, 289.023658)"/>
<path fill="none" stroke-width="0.4" stroke-linecap="butt" stroke-linejoin="round" stroke="rgb(0%, 0%, 0%)" stroke-opacity="1" stroke-miterlimit="10" d="M 137.998725 214.998255 L 174.99917 198.001543 " transform="matrix(0.997665, 0, 0, -0.997665, -52.473424, 289.023658)"/>
<path fill="none" stroke-width="0.4" stroke-linecap="butt" stroke-linejoin="round" stroke="rgb(0%, 0%, 0%)" stroke-opacity="1" stroke-miterlimit="10" d="M 119.999673 203.001497 L 134.001111 188.001634 " transform="matrix(0.997665, 0, 0, -0.997665, -52.473424, 289.023658)"/>
<path fill="none" stroke-width="0.4" stroke-linecap="butt" stroke-linejoin="round" stroke="rgb(0%, 0%, 0%)" stroke-opacity="1" stroke-miterlimit="10" d="M 119.999673 203.001497 L 137.998725 214.998255 " transform="matrix(0.997665, 0, 0, -0.997665, -52.473424, 289.023658)"/>
<path fill="none" stroke-width="0.4" stroke-linecap="butt" stroke-linejoin="round" stroke="rgb(0%, 0%, 0%)" stroke-opacity="1" stroke-miterlimit="10" d="M 134.001111 188.001634 L 174.99917 198.001543 " transform="matrix(0.997665, 0, 0, -0.997665, -52.473424, 289.023658)"/>
<path fill="none" stroke-width="0.4" stroke-linecap="butt" stroke-linejoin="round" stroke="rgb(0%, 0%, 0%)" stroke-opacity="1" stroke-miterlimit="10" d="M 134.001111 188.001634 L 119.999673 203.001497 " transform="matrix(0.997665, 0, 0, -0.997665, -52.473424, 289.023658)"/>
<path fill="none" stroke-width="0.4" stroke-linecap="butt" stroke-linejoin="round" stroke="rgb(0%, 0%, 0%)" stroke-opacity="1" stroke-miterlimit="10" d="M 174.99917 198.001543 L 192.998222 231.000458 " transform="matrix(0.997665, 0, 0, -0.997665, -52.473424, 289.023658)"/>
<path fill="none" stroke-width="0.4" stroke-linecap="butt" stroke-linejoin="round" stroke="rgb(0%, 0%, 0%)" stroke-opacity="1" stroke-miterlimit="10" d="M 174.99917 198.001543 L 134.001111 188.001634 " transform="matrix(0.997665, 0, 0, -0.997665, -52.473424, 289.023658)"/>
<path fill="none" stroke-width="0.4" stroke-linecap="butt" stroke-linejoin="round" stroke="rgb(0%, 0%, 0%)" stroke-opacity="1" stroke-miterlimit="10" d="M 192.998222 231.000458 L 174.99917 198.001543 " transform="matrix(0.997665, 0, 0, -0.997665, -52.473424, 289.023658)"/>
<g clip-path="url(#clip-5)">
<path fill="none" stroke-width="0.4" stroke-linecap="butt" stroke-linejoin="round" stroke="rgb(0%, 0%, 0%)" stroke-opacity="1" stroke-miterlimit="10" d="M 52.999502 208.999876 L 87.999182 194.998438 " transform="matrix(0.997665, 0, 0, -0.997665, -52.473424, 289.023658)"/>
</g>
<g clip-path="url(#clip-6)">
<path fill="none" stroke-width="0.4" stroke-linecap="butt" stroke-linejoin="round" stroke="rgb(0%, 0%, 0%)" stroke-opacity="1" stroke-miterlimit="10" d="M 52.999502 208.999876 L 90.998372 221.998974 " transform="matrix(0.997665, 0, 0, -0.997665, -52.473424, 289.023658)"/>
</g>
<g clip-path="url(#clip-7)">
<path fill="none" stroke-width="0.4" stroke-linecap="butt" stroke-linejoin="round" stroke="rgb(0%, 0%, 0%)" stroke-opacity="1" stroke-miterlimit="10" d="M 52.999502 208.999876 L 75.000084 266.998563 " transform="matrix(0.997665, 0, 0, -0.997665, -52.473424, 289.023658)"/>
</g>
<path fill="none" stroke-width="0.4" stroke-linecap="butt" stroke-linejoin="round" stroke="rgb(0%, 0%, 0%)" stroke-opacity="1" stroke-miterlimit="10" d="M 219.000334 57.000483 L 228.001818 89.999398 " transform="matrix(0.997665, 0, 0, -0.997665, -52.473424, 289.023658)"/>
<path fill="none" stroke-width="0.4" stroke-linecap="butt" stroke-linejoin="round" stroke="rgb(0%, 0%, 0%)" stroke-opacity="1" stroke-miterlimit="10" d="M 139.99949 116.999934 L 104.99981 114.999169 " transform="matrix(0.997665, 0, 0, -0.997665, -52.473424, 289.023658)"/>
<path fill="none" stroke-width="0.4" stroke-linecap="butt" stroke-linejoin="round" stroke="rgb(0%, 0%, 0%)" stroke-opacity="1" stroke-miterlimit="10" d="M 139.99949 116.999934 L 115.998143 81.001829 " transform="matrix(0.997665, 0, 0, -0.997665, -52.473424, 289.023658)"/>
<path fill="none" stroke-width="0.4" stroke-linecap="butt" stroke-linejoin="round" stroke="rgb(0%, 0%, 0%)" stroke-opacity="1" stroke-miterlimit="10" d="M 139.99949 116.999934 L 162.000072 81.001829 " transform="matrix(0.997665, 0, 0, -0.997665, -52.473424, 289.023658)"/>
<path fill="none" stroke-width="0.4" stroke-linecap="butt" stroke-linejoin="round" stroke="rgb(0%, 0%, 0%)" stroke-opacity="1" stroke-miterlimit="10" d="M 109.001339 158.001909 L 80.998463 161.999523 " transform="matrix(0.997665, 0, 0, -0.997665, -52.473424, 289.023658)"/>
<path fill="none" stroke-width="0.4" stroke-linecap="butt" stroke-linejoin="round" stroke="rgb(0%, 0%, 0%)" stroke-opacity="1" stroke-miterlimit="10" d="M 109.001339 158.001909 L 99.999856 137.998176 " transform="matrix(0.997665, 0, 0, -0.997665, -52.473424, 289.023658)"/>
<path fill="none" stroke-width="0.4" stroke-linecap="butt" stroke-linejoin="round" stroke="rgb(0%, 0%, 0%)" stroke-opacity="1" stroke-miterlimit="10" d="M 109.001339 158.001909 L 104.99981 114.999169 " transform="matrix(0.997665, 0, 0, -0.997665, -52.473424, 289.023658)"/>
<path fill="none" stroke-width="0.4" stroke-linecap="butt" stroke-linejoin="round" stroke="rgb(0%, 0%, 0%)" stroke-opacity="1" stroke-miterlimit="10" d="M 80.998463 161.999523 L 87.999182 194.998438 " transform="matrix(0.997665, 0, 0, -0.997665, -52.473424, 289.023658)"/>
<path fill="none" stroke-width="0.4" stroke-linecap="butt" stroke-linejoin="round" stroke="rgb(0%, 0%, 0%)" stroke-opacity="1" stroke-miterlimit="10" d="M 196.001327 107.000026 L 162.000072 81.001829 " transform="matrix(0.997665, 0, 0, -0.997665, -52.473424, 289.023658)"/>
<path fill="none" stroke-width="0.4" stroke-linecap="butt" stroke-linejoin="round" stroke="rgb(0%, 0%, 0%)" stroke-opacity="1" stroke-miterlimit="10" d="M 194.998987 82.000254 L 196.001327 107.000026 " transform="matrix(0.997665, 0, 0, -0.997665, -52.473424, 289.023658)"/>
<path fill="none" stroke-width="0.4" stroke-linecap="butt" stroke-linejoin="round" stroke="rgb(0%, 0%, 0%)" stroke-opacity="1" stroke-miterlimit="10" d="M 194.998987 82.000254 L 228.001818 89.999398 " transform="matrix(0.997665, 0, 0, -0.997665, -52.473424, 289.023658)"/>
<path fill-rule="evenodd" fill="rgb(100%, 0%, 0%)" fill-opacity="1" d="M 27.339844 22.648438 C 27.339844 19.890625 25.105469 17.660156 22.351562 17.660156 C 19.597656 17.660156 17.363281 19.890625 17.363281 22.648438 C 17.363281 25.402344 19.597656 27.636719 22.351562 27.636719 C 25.105469 27.636719 27.339844 25.402344 27.339844 22.648438 "/>
<path fill-rule="evenodd" fill="rgb(0%, 0%, 0%)" fill-opacity="1" d="M 28.335938 22.648438 C 28.335938 19.339844 25.65625 16.660156 22.351562 16.660156 C 19.046875 16.660156 16.367188 19.339844 16.367188 22.648438 C 16.367188 25.953125 19.046875 28.632812 22.351562 28.632812 C 25.65625 28.632812 28.335938 25.953125 28.335938 22.648438 M 26.34375 22.648438 C 26.34375 20.441406 24.554688 18.65625 22.351562 18.65625 C 20.148438 18.65625 18.359375 20.441406 18.359375 22.648438 C 18.359375 24.851562 20.148438 26.636719 22.351562 26.636719 C 24.554688 26.636719 26.34375 24.851562 26.34375 22.648438 "/>
<path fill-rule="evenodd" fill="rgb(0%, 0%, 54.499817%)" fill-opacity="1" d="M 71.238281 20.652344 C 71.238281 17.898438 69.003906 15.664062 66.25 15.664062 C 63.496094 15.664062 61.261719 17.898438 61.261719 20.652344 C 61.261719 23.40625 63.496094 25.640625 66.25 25.640625 C 69.003906 25.640625 71.238281 23.40625 71.238281 20.652344 "/>
<path fill-rule="evenodd" fill="rgb(0%, 0%, 0%)" fill-opacity="1" d="M 72.234375 20.652344 C 72.234375 17.34375 69.554688 14.664062 66.25 14.664062 C 62.941406 14.664062 60.261719 17.34375 60.261719 20.652344 C 60.261719 23.957031 62.941406 26.636719 66.25 26.636719 C 69.554688 26.636719 72.234375 23.957031 72.234375 20.652344 M 70.238281 20.652344 C 70.238281 18.449219 68.453125 16.660156 66.25 16.660156 C 64.042969 16.660156 62.257812 18.449219 62.257812 20.652344 C 62.257812 22.855469 64.042969 24.640625 66.25 24.640625 C 68.453125 24.640625 70.238281 22.855469 70.238281 20.652344 "/>
<path fill-rule="evenodd" fill="rgb(0%, 54.499817%, 54.499817%)" fill-opacity="1" d="M 136.085938 24.640625 C 136.085938 21.886719 133.851562 19.652344 131.097656 19.652344 C 128.34375 19.652344 126.109375 21.886719 126.109375 24.640625 C 126.109375 27.398438 128.34375 29.628906 131.097656 29.628906 C 133.851562 29.628906 136.085938 27.398438 136.085938 24.640625 "/>
<path fill-rule="evenodd" fill="rgb(0%, 0%, 0%)" fill-opacity="1" d="M 137.082031 24.640625 C 137.082031 21.335938 134.402344 18.65625 131.097656 18.65625 C 127.789062 18.65625 125.109375 21.335938 125.109375 24.640625 C 125.109375 27.949219 127.789062 30.628906 131.097656 30.628906 C 134.402344 30.628906 137.082031 27.949219 137.082031 24.640625 M 135.085938 24.640625 C 135.085938 22.4375 133.300781 20.652344 131.097656 20.652344 C 128.894531 20.652344 127.105469 22.4375 127.105469 24.640625 C 127.105469 26.847656 128.894531 28.632812 131.097656 28.632812 C 133.300781 28.632812 135.085938 26.847656 135.085938 24.640625 "/>
<path fill-rule="evenodd" fill="rgb(0%, 0%, 54.499817%)" fill-opacity="1" d="M 181.976562 6.683594 C 181.976562 3.929688 179.746094 1.695312 176.988281 1.695312 C 174.234375 1.695312 172 3.929688 172 6.683594 C 172 9.4375 174.234375 11.671875 176.988281 11.671875 C 179.746094 11.671875 181.976562 9.4375 181.976562 6.683594 "/>
<path fill-rule="evenodd" fill="rgb(0%, 0%, 0%)" fill-opacity="1" d="M 182.976562 6.683594 C 182.976562 3.378906 180.296875 0.699219 176.988281 0.699219 C 173.683594 0.699219 171.003906 3.378906 171.003906 6.683594 C 171.003906 9.992188 173.683594 12.671875 176.988281 12.671875 C 180.296875 12.671875 182.976562 9.992188 182.976562 6.683594 M 180.980469 6.683594 C 180.980469 4.480469 179.195312 2.695312 176.988281 2.695312 C 174.785156 2.695312 173 4.480469 173 6.683594 C 173 8.886719 174.785156 10.675781 176.988281 10.675781 C 179.195312 10.675781 180.980469 8.886719 180.980469 6.683594 "/>
<path fill-rule="evenodd" fill="rgb(100%, 0%, 0%)" fill-opacity="1" d="M 192.953125 67.542969 C 192.953125 64.789062 190.71875 62.554688 187.964844 62.554688 C 185.210938 62.554688 182.976562 64.789062 182.976562 67.542969 C 182.976562 70.296875 185.210938 72.53125 187.964844 72.53125 C 190.71875 72.53125 192.953125 70.296875 192.953125 67.542969 "/>
<path fill-rule="evenodd" fill="rgb(0%, 0%, 0%)" fill-opacity="1" d="M 193.949219 67.542969 C 193.949219 64.234375 191.269531 61.554688 187.964844 61.554688 C 184.65625 61.554688 181.976562 64.234375 181.976562 67.542969 C 181.976562 70.847656 184.65625 73.527344 187.964844 73.527344 C 191.269531 73.527344 193.949219 70.847656 193.949219 67.542969 M 191.953125 67.542969 C 191.953125 65.339844 190.167969 63.550781 187.964844 63.550781 C 185.761719 63.550781 183.972656 65.339844 183.972656 67.542969 C 183.972656 69.746094 185.761719 71.53125 187.964844 71.53125 C 190.167969 71.53125 191.953125 69.746094 191.953125 67.542969 "/>
<path fill-rule="evenodd" fill="rgb(0%, 54.499817%, 54.499817%)" fill-opacity="1" d="M 214.902344 111.4375 C 214.902344 108.683594 212.667969 106.449219 209.914062 106.449219 C 207.15625 106.449219 204.925781 108.683594 204.925781 111.4375 C 204.925781 114.195312 207.15625 116.425781 209.914062 116.425781 C 212.667969 116.425781 214.902344 114.195312 214.902344 111.4375 "/>
<path fill-rule="evenodd" fill="rgb(0%, 0%, 0%)" fill-opacity="1" d="M 215.898438 111.4375 C 215.898438 108.132812 213.21875 105.453125 209.914062 105.453125 C 206.605469 105.453125 203.925781 108.132812 203.925781 111.4375 C 203.925781 114.746094 206.605469 117.425781 209.914062 117.425781 C 213.21875 117.425781 215.898438 114.746094 215.898438 111.4375 M 213.902344 111.4375 C 213.902344 109.234375 212.117188 107.449219 209.914062 107.449219 C 207.707031 107.449219 205.921875 109.234375 205.921875 111.4375 C 205.921875 113.644531 207.707031 115.429688 209.914062 115.429688 C 212.117188 115.429688 213.902344 113.644531 213.902344 111.4375 "/>
<path fill-rule="evenodd" fill="rgb(100%, 0%, 0%)" fill-opacity="1" d="M 187.964844 170.300781 C 187.964844 167.546875 185.730469 165.3125 182.976562 165.3125 C 180.222656 165.3125 177.988281 167.546875 177.988281 170.300781 C 177.988281 173.054688 180.222656 175.289062 182.976562 175.289062 C 185.730469 175.289062 187.964844 173.054688 187.964844 170.300781 "/>
<path fill-rule="evenodd" fill="rgb(0%, 0%, 0%)" fill-opacity="1" d="M 188.960938 170.300781 C 188.960938 166.996094 186.28125 164.316406 182.976562 164.316406 C 179.667969 164.316406 176.988281 166.996094 176.988281 170.300781 C 176.988281 173.609375 179.667969 176.289062 182.976562 176.289062 C 186.28125 176.289062 188.960938 173.609375 188.960938 170.300781 M 186.964844 170.300781 C 186.964844 168.097656 185.179688 166.3125 182.976562 166.3125 C 180.773438 166.3125 178.984375 168.097656 178.984375 170.300781 C 178.984375 172.503906 180.773438 174.292969 182.976562 174.292969 C 185.179688 174.292969 186.964844 172.503906 186.964844 170.300781 "/>
<path fill-rule="evenodd" fill="rgb(0%, 54.499817%, 54.499817%)" fill-opacity="1" d="M 207.917969 216.195312 C 207.917969 213.4375 205.683594 211.207031 202.929688 211.207031 C 200.175781 211.207031 197.941406 213.4375 197.941406 216.195312 C 197.941406 218.949219 200.175781 221.183594 202.929688 221.183594 C 205.683594 221.183594 207.917969 218.949219 207.917969 216.195312 "/>
<path fill-rule="evenodd" fill="rgb(0%, 0%, 0%)" fill-opacity="1" d="M 208.914062 216.195312 C 208.914062 212.886719 206.234375 210.207031 202.929688 210.207031 C 199.621094 210.207031 196.941406 212.886719 196.941406 216.195312 C 196.941406 219.5 199.621094 222.179688 202.929688 222.179688 C 206.234375 222.179688 208.914062 219.5 208.914062 216.195312 M 206.917969 216.195312 C 206.917969 213.988281 205.132812 212.203125 202.929688 212.203125 C 200.726562 212.203125 198.9375 213.988281 198.9375 216.195312 C 198.9375 218.398438 200.726562 220.183594 202.929688 220.183594 C 205.132812 220.183594 206.917969 218.398438 206.917969 216.195312 "/>
<path fill-rule="evenodd" fill="rgb(0%, 0%, 54.499817%)" fill-opacity="1" d="M 127.105469 249.117188 C 127.105469 246.363281 124.871094 244.128906 122.117188 244.128906 C 119.363281 244.128906 117.128906 246.363281 117.128906 249.117188 C 117.128906 251.871094 119.363281 254.105469 122.117188 254.105469 C 124.871094 254.105469 127.105469 251.871094 127.105469 249.117188 "/>
<g clip-path="url(#clip-8)">
<path fill-rule="evenodd" fill="rgb(0%, 0%, 0%)" fill-opacity="1" d="M 128.105469 249.117188 C 128.105469 245.8125 125.425781 243.132812 122.117188 243.132812 C 118.8125 243.132812 116.132812 245.8125 116.132812 249.117188 C 116.132812 252.421875 118.8125 255.101562 122.117188 255.101562 C 125.425781 255.101562 128.105469 252.421875 128.105469 249.117188 M 126.109375 249.117188 C 126.109375 246.914062 124.320312 245.125 122.117188 245.125 C 119.914062 245.125 118.128906 246.914062 118.128906 249.117188 C 118.128906 251.320312 119.914062 253.109375 122.117188 253.109375 C 124.320312 253.109375 126.109375 251.320312 126.109375 249.117188 "/>
</g>
<path fill-rule="evenodd" fill="rgb(0%, 39.199829%, 0%)" fill-opacity="1" d="M 36.320312 197.238281 C 36.320312 194.484375 34.085938 192.25 31.332031 192.25 C 28.574219 192.25 26.34375 194.484375 26.34375 197.238281 C 26.34375 199.992188 28.574219 202.226562 31.332031 202.226562 C 34.085938 202.226562 36.320312 199.992188 36.320312 197.238281 "/>
<path fill-rule="evenodd" fill="rgb(0%, 0%, 0%)" fill-opacity="1" d="M 37.316406 197.238281 C 37.316406 193.933594 34.636719 191.253906 31.332031 191.253906 C 28.023438 191.253906 25.34375 193.933594 25.34375 197.238281 C 25.34375 200.542969 28.023438 203.222656 31.332031 203.222656 C 34.636719 203.222656 37.316406 200.542969 37.316406 197.238281 M 35.320312 197.238281 C 35.320312 195.035156 33.535156 193.246094 31.332031 193.246094 C 29.125 193.246094 27.339844 195.035156 27.339844 197.238281 C 27.339844 199.441406 29.125 201.230469 31.332031 201.230469 C 33.535156 201.230469 35.320312 199.441406 35.320312 197.238281 "/>
<path fill-rule="evenodd" fill="rgb(0%, 0%, 54.499817%)" fill-opacity="1" d="M 40.308594 94.480469 C 40.308594 91.722656 38.074219 89.492188 35.320312 89.492188 C 32.566406 89.492188 30.332031 91.722656 30.332031 94.480469 C 30.332031 97.234375 32.566406 99.46875 35.320312 99.46875 C 38.074219 99.46875 40.308594 97.234375 40.308594 94.480469 "/>
<path fill-rule="evenodd" fill="rgb(0%, 0%, 0%)" fill-opacity="1" d="M 41.308594 94.480469 C 41.308594 91.171875 38.628906 88.492188 35.320312 88.492188 C 32.015625 88.492188 29.335938 91.171875 29.335938 94.480469 C 29.335938 97.785156 32.015625 100.464844 35.320312 100.464844 C 38.628906 100.464844 41.308594 97.785156 41.308594 94.480469 M 39.3125 94.480469 C 39.3125 92.273438 37.523438 90.488281 35.320312 90.488281 C 33.117188 90.488281 31.332031 92.273438 31.332031 94.480469 C 31.332031 96.683594 33.117188 98.46875 35.320312 98.46875 C 37.523438 98.46875 39.3125 96.683594 39.3125 94.480469 "/>
<path fill-rule="evenodd" fill="rgb(100%, 0%, 0%)" fill-opacity="1" d="M 90.191406 74.527344 C 90.191406 71.769531 87.957031 69.539062 85.203125 69.539062 C 82.449219 69.539062 80.214844 71.769531 80.214844 74.527344 C 80.214844 77.28125 82.449219 79.515625 85.203125 79.515625 C 87.957031 79.515625 90.191406 77.28125 90.191406 74.527344 "/>
<path fill-rule="evenodd" fill="rgb(0%, 0%, 0%)" fill-opacity="1" d="M 91.191406 74.527344 C 91.191406 71.21875 88.511719 68.539062 85.203125 68.539062 C 81.898438 68.539062 79.21875 71.21875 79.21875 74.527344 C 79.21875 77.832031 81.898438 80.511719 85.203125 80.511719 C 88.511719 80.511719 91.191406 77.832031 91.191406 74.527344 M 89.195312 74.527344 C 89.195312 72.320312 87.410156 70.535156 85.203125 70.535156 C 83 70.535156 81.214844 72.320312 81.214844 74.527344 C 81.214844 76.730469 83 78.515625 85.203125 78.515625 C 87.410156 78.515625 89.195312 76.730469 89.195312 74.527344 "/>
<path fill-rule="evenodd" fill="rgb(0%, 0%, 54.499817%)" fill-opacity="1" d="M 168.011719 124.410156 C 168.011719 121.65625 165.777344 119.421875 163.023438 119.421875 C 160.269531 119.421875 158.035156 121.65625 158.035156 124.410156 C 158.035156 127.164062 160.269531 129.398438 163.023438 129.398438 C 165.777344 129.398438 168.011719 127.164062 168.011719 124.410156 "/>
<path fill-rule="evenodd" fill="rgb(0%, 0%, 0%)" fill-opacity="1" d="M 169.007812 124.410156 C 169.007812 121.101562 166.328125 118.421875 163.023438 118.421875 C 159.714844 118.421875 157.035156 121.101562 157.035156 124.410156 C 157.035156 127.714844 159.714844 130.394531 163.023438 130.394531 C 166.328125 130.394531 169.007812 127.714844 169.007812 124.410156 M 167.011719 124.410156 C 167.011719 122.203125 165.226562 120.417969 163.023438 120.417969 C 160.820312 120.417969 159.03125 122.203125 159.03125 124.410156 C 159.03125 126.613281 160.820312 128.398438 163.023438 128.398438 C 165.226562 128.398438 167.011719 126.613281 167.011719 124.410156 "/>
<path fill-rule="evenodd" fill="rgb(0%, 39.199829%, 0%)" fill-opacity="1" d="M 92.1875 172.296875 C 92.1875 169.542969 89.953125 167.308594 87.199219 167.308594 C 84.445312 167.308594 82.210938 169.542969 82.210938 172.296875 C 82.210938 175.050781 84.445312 177.285156 87.199219 177.285156 C 89.953125 177.285156 92.1875 175.050781 92.1875 172.296875 "/>
<path fill-rule="evenodd" fill="rgb(0%, 0%, 0%)" fill-opacity="1" d="M 93.1875 172.296875 C 93.1875 168.992188 90.507812 166.3125 87.199219 166.3125 C 83.894531 166.3125 81.214844 168.992188 81.214844 172.296875 C 81.214844 175.601562 83.894531 178.28125 87.199219 178.28125 C 90.507812 178.28125 93.1875 175.601562 93.1875 172.296875 M 91.191406 172.296875 C 91.191406 170.09375 89.402344 168.304688 87.199219 168.304688 C 84.996094 168.304688 83.210938 170.09375 83.210938 172.296875 C 83.210938 174.5 84.996094 176.289062 87.199219 176.289062 C 89.402344 176.289062 91.191406 174.5 91.191406 172.296875 "/>
</svg>
