<?xml version="1.0" encoding="UTF-8"?>
<svg xmlns="http://www.w3.org/2000/svg" xmlns:xlink="http://www.w3.org/1999/xlink" width="216.9" height="256.4" viewBox="0 0 216.9 256.4">
<defs>
<clipPath id="clip-0">
<path clip-rule="nonzero" d="M 0.203125 80 L 29 80 L 29 128 L 0.203125 128 Z M 0.203125 80 "/>
</clipPath>
<clipPath id="clip-1">
<path clip-rule="nonzero" d="M 0.203125 80 L 36 80 L 36 95 L 0.203125 95 Z M 0.203125 80 "/>
</clipPath>
<clipPath id="clip-2">
<path clip-rule="nonzero" d="M 0.203125 67 L 39 67 L 39 81 L 0.203125 81 Z M 0.203125 67 "/>
</clipPath>
<clipPath id="clip-3">
<path clip-rule="nonzero" d="M 0.203125 22 L 23 22 L 23 81 L 0.203125 81 Z M 0.203125 22 "/>
</clipPath>
<clipPath id="clip-4">
<path clip-rule="nonzero" d="M 0.203125 80 L 32 80 L 32 198 L 0.203125 198 Z M 0.203125 80 "/>
</clipPath>
<clipPath id="clip-5">
<path clip-rule="nonzero" d="M 0.203125 80 L 36 80 L 36 95 L 0.203125 95 Z M 0.203125 80 "/>
</clipPath>
<clipPath id="clip-6">
<path clip-rule="nonzero" d="M 0.203125 67 L 39 67 L 39 81 L 0.203125 81 Z M 0.203125 67 "/>
</clipPath>
<clipPath id="clip-7">
<path clip-rule="nonzero" d="M 0.203125 22 L 23 22 L 23 81 L 0.203125 81 Z M 0.203125 22 "/>
</clipPath>
<clipPath id="clip-8">
<path clip-rule="nonzero" d="M 116 243 L 129 243 L 129 255.800781 L 116 255.800781 Z M 116 243 "/>
</clipPath>
<clipPath id="clip-9">
<path clip-rule="nonzero" d="M 184 243 L 197 243 L 197 255.800781 L 184 255.800781 Z M 184 243 "/>
</clipPath>
</defs>
<path fill="none" stroke-width="0.4" stroke-linecap="butt" stroke-linejoin="round" stroke="rgb(0%, 0%, 0%)" stroke-opacity="1" stroke-miterlimit="10" d="M 169.000791 219.99821 L 137.998725 214.998255 " transform="matrix(0.997665, 0, 0, -0.997665, -52.473424, 289.023658)"/>
<path fill="none" stroke-width="0.4" stroke-linecap="butt" stroke-linejoin="round" stroke="rgb(0%, 0%, 0%)" stroke-opacity="1" stroke-miterlimit="10" d="M 119.001248 59.999672 L 84.001568 92.000163 " transform="matrix(0.997665, 0, 0, -0.997665, -52.473424, 289.023658)"/>
<path fill="none" stroke-width="0.4" stroke-linecap="butt" stroke-linejoin="round" stroke="rgb(0%, 0%, 0%)" stroke-opacity="1" stroke-miterlimit="10" d="M 119.001248 59.999672 L 174.99917 39.999855 " transform="matrix(0.997665, 0, 0, -0.997665, -52.473424, 289.023658)"/>
<path fill="none" stroke-width="0.4" stroke-linecap="butt" stroke-linejoin="round" stroke="rgb(0%, 0%, 0%)" stroke-opacity="1" stroke-miterlimit="10" d="M 119.001248 59.999672 L 152.000163 57.000483 " transform="matrix(0.997665, 0, 0, -0.997665, -52.473424, 289.023658)"/>
<path fill="none" stroke-width="0.4" stroke-linecap="butt" stroke-linejoin="round" stroke="rgb(0%, 0%, 0%)" stroke-opacity="1" stroke-miterlimit="10" d="M 119.001248 59.999672 L 115.998143 81.001829 " transform="matrix(0.997665, 0, 0, -0.997665, -52.473424, 289.023658)"/>
<g clip-path="url(#clip-0)">
<path fill="none" stroke-width="0.4" stroke-linecap="butt" stroke-linejoin="round" stroke="rgb(0%, 0%, 0%)" stroke-opacity="1" stroke-miterlimit="10" d="M 52.999502 208.999876 L 80.998463 161.999523 " transform="matrix(0.997665, 0, 0, -0.997665, -52.473424, 289.023658)"/>
</g>
<g clip-path="url(#clip-1)">
<path fill="none" stroke-width="0.4" stroke-linecap="butt" stroke-linejoin="round" stroke="rgb(0%, 0%, 0%)" stroke-opacity="1" stroke-miterlimit="10" d="M 52.999502 208.999876 L 87.999182 194.998438 " transform="matrix(0.997665, 0, 0, -0.997665, -52.473424, 289.023658)"/>
</g>
<g clip-path="url(#clip-2)">
<path fill="none" stroke-width="0.4" stroke-linecap="butt" stroke-linejoin="round" stroke="rgb(0%, 0%, 0%)" stroke-opacity="1" stroke-miterlimit="10" d="M 52.999502 208.999876 L 90.998372 221.998974 " transform="matrix(0.997665, 0, 0, -0.997665, -52.473424, 289.023658)"/>
</g>
<g clip-path="url(#clip-3)">
<path fill="none" stroke-width="0.4" stroke-linecap="butt" stroke-linejoin="round" stroke="rgb(0%, 0%, 0%)" stroke-opacity="1" stroke-miterlimit="10" d="M 52.999502 208.999876 L 75.000084 266.998563 " transform="matrix(0.997665, 0, 0, -0.997665, -52.473424, 289.023658)"/>
</g>
<g clip-path="url(#clip-4)">
<path fill="none" stroke-width="0.4" stroke-linecap="butt" stroke-linejoin="round" stroke="rgb(0%, 0%, 0%)" stroke-opacity="1" stroke-miterlimit="10" d="M 52.999502 208.999876 L 84.001568 92.000163 " transform="matrix(0.997665, 0, 0, -0.997665, -52.473424, 289.023658)"/>
</g>
<path fill="none" stroke-width="0.4" stroke-linecap="butt" stroke-linejoin="round" stroke="rgb(0%, 0%, 0%)" stroke-opacity="1" stroke-miterlimit="10" d="M 214.998804 241.000367 L 184.000654 265.001714 " transform="matrix(0.997665, 0, 0, -0.997665, -52.473424, 289.023658)"/>
<path fill="none" stroke-width="0.4" stroke-linecap="butt" stroke-linejoin="round" stroke="rgb(0%, 0%, 0%)" stroke-opacity="1" stroke-miterlimit="10" d="M 214.998804 241.000367 L 192.998222 231.000458 " transform="matrix(0.997665, 0, 0, -0.997665, -52.473424, 289.023658)"/>
<path fill="none" stroke-width="0.4" stroke-linecap="butt" stroke-linejoin="round" stroke="rgb(0%, 0%, 0%)" stroke-opacity="1" stroke-miterlimit="10" d="M 214.998804 241.000367 L 214.00038 221.00055 " transform="matrix(0.997665, 0, 0, -0.997665, -52.473424, 289.023658)"/>
<path fill="none" stroke-width="0.4" stroke-linecap="butt" stroke-linejoin="round" stroke="rgb(0%, 0%, 0%)" stroke-opacity="1" stroke-miterlimit="10" d="M 214.998804 241.000367 L 241.000916 221.998974 " transform="matrix(0.997665, 0, 0, -0.997665, -52.473424, 289.023658)"/>
<path fill="none" stroke-width="0.4" stroke-linecap="butt" stroke-linejoin="round" stroke="rgb(0%, 0%, 0%)" stroke-opacity="1" stroke-miterlimit="10" d="M 214.998804 241.000367 L 239.998576 243.999556 " transform="matrix(0.997665, 0, 0, -0.997665, -52.473424, 289.023658)"/>
<path fill="none" stroke-width="0.4" stroke-linecap="butt" stroke-linejoin="round" stroke="rgb(0%, 0%, 0%)" stroke-opacity="1" stroke-miterlimit="10" d="M 214.998804 241.000367 L 204.000471 270.001668 " transform="matrix(0.997665, 0, 0, -0.997665, -52.473424, 289.023658)"/>
<path fill="none" stroke-width="0.4" stroke-linecap="butt" stroke-linejoin="round" stroke="rgb(0%, 0%, 0%)" stroke-opacity="1" stroke-miterlimit="10" d="M 263.001498 178.001726 L 246.00087 196.000778 " transform="matrix(0.997665, 0, 0, -0.997665, -52.473424, 289.023658)"/>
<path fill="none" stroke-width="0.4" stroke-linecap="butt" stroke-linejoin="round" stroke="rgb(0%, 0%, 0%)" stroke-opacity="1" stroke-miterlimit="10" d="M 263.001498 178.001726 L 238.001726 153.001954 " transform="matrix(0.997665, 0, 0, -0.997665, -52.473424, 289.023658)"/>
<path fill="none" stroke-width="0.4" stroke-linecap="butt" stroke-linejoin="round" stroke="rgb(0%, 0%, 0%)" stroke-opacity="1" stroke-miterlimit="10" d="M 216.001144 164.998712 L 174.99917 198.001543 " transform="matrix(0.997665, 0, 0, -0.997665, -52.473424, 289.023658)"/>
<path fill="none" stroke-width="0.4" stroke-linecap="butt" stroke-linejoin="round" stroke="rgb(0%, 0%, 0%)" stroke-opacity="1" stroke-miterlimit="10" d="M 216.001144 164.998712 L 162.000072 176.999386 " transform="matrix(0.997665, 0, 0, -0.997665, -52.473424, 289.023658)"/>
<path fill="none" stroke-width="0.4" stroke-linecap="butt" stroke-linejoin="round" stroke="rgb(0%, 0%, 0%)" stroke-opacity="1" stroke-miterlimit="10" d="M 216.001144 164.998712 L 197.998177 126.999843 " transform="matrix(0.997665, 0, 0, -0.997665, -52.473424, 289.023658)"/>
<path fill="none" stroke-width="0.4" stroke-linecap="butt" stroke-linejoin="round" stroke="rgb(0%, 0%, 0%)" stroke-opacity="1" stroke-miterlimit="10" d="M 216.001144 164.998712 L 238.001726 153.001954 " transform="matrix(0.997665, 0, 0, -0.997665, -52.473424, 289.023658)"/>
<path fill="none" stroke-width="0.4" stroke-linecap="butt" stroke-linejoin="round" stroke="rgb(0%, 0%, 0%)" stroke-opacity="1" stroke-miterlimit="10" d="M 216.001144 164.998712 L 246.00087 196.000778 " transform="matrix(0.997665, 0, 0, -0.997665, -52.473424, 289.023658)"/>
<path fill="none" stroke-width="0.4" stroke-linecap="butt" stroke-linejoin="round" stroke="rgb(0%, 0%, 0%)" stroke-opacity="1" stroke-miterlimit="10" d="M 216.001144 164.998712 L 214.00038 221.00055 " transform="matrix(0.997665, 0, 0, -0.997665, -52.473424, 289.023658)"/>
<path fill="none" stroke-width="0.4" stroke-linecap="butt" stroke-linejoin="round" stroke="rgb(0%, 0%, 0%)" stroke-opacity="1" stroke-miterlimit="10" d="M 214.00038 221.00055 L 246.00087 196.000778 " transform="matrix(0.997665, 0, 0, -0.997665, -52.473424, 289.023658)"/>
<path fill="none" stroke-width="0.4" stroke-linecap="butt" stroke-linejoin="round" stroke="rgb(0%, 0%, 0%)" stroke-opacity="1" stroke-miterlimit="10" d="M 214.00038 221.00055 L 241.000916 221.998974 " transform="matrix(0.997665, 0, 0, -0.997665, -52.473424, 289.023658)"/>
<path fill="none" stroke-width="0.4" stroke-linecap="butt" stroke-linejoin="round" stroke="rgb(0%, 0%, 0%)" stroke-opacity="1" stroke-miterlimit="10" d="M 214.00038 221.00055 L 192.998222 231.000458 " transform="matrix(0.997665, 0, 0, -0.997665, -52.473424, 289.023658)"/>
<path fill="none" stroke-width="0.4" stroke-linecap="butt" stroke-linejoin="round" stroke="rgb(0%, 0%, 0%)" stroke-opacity="1" stroke-miterlimit="10" d="M 214.00038 221.00055 L 174.99917 198.001543 " transform="matrix(0.997665, 0, 0, -0.997665, -52.473424, 289.023658)"/>
<path fill="none" stroke-width="0.4" stroke-linecap="butt" stroke-linejoin="round" stroke="rgb(0%, 0%, 0%)" stroke-opacity="1" stroke-miterlimit="10" d="M 214.00038 221.00055 L 216.001144 164.998712 " transform="matrix(0.997665, 0, 0, -0.997665, -52.473424, 289.023658)"/>
<path fill="none" stroke-width="0.4" stroke-linecap="butt" stroke-linejoin="round" stroke="rgb(0%, 0%, 0%)" stroke-opacity="1" stroke-miterlimit="10" d="M 239.998576 243.999556 L 229.998667 283.000766 " transform="matrix(0.997665, 0, 0, -0.997665, -52.473424, 289.023658)"/>
<path fill="none" stroke-width="0.4" stroke-linecap="butt" stroke-linejoin="round" stroke="rgb(0%, 0%, 0%)" stroke-opacity="1" stroke-miterlimit="10" d="M 239.998576 243.999556 L 204.000471 270.001668 " transform="matrix(0.997665, 0, 0, -0.997665, -52.473424, 289.023658)"/>
<path fill="none" stroke-width="0.4" stroke-linecap="butt" stroke-linejoin="round" stroke="rgb(0%, 0%, 0%)" stroke-opacity="1" stroke-miterlimit="10" d="M 239.998576 243.999556 L 241.000916 221.998974 " transform="matrix(0.997665, 0, 0, -0.997665, -52.473424, 289.023658)"/>
<path fill="none" stroke-width="0.4" stroke-linecap="butt" stroke-linejoin="round" stroke="rgb(0%, 0%, 0%)" stroke-opacity="1" stroke-miterlimit="10" d="M 241.000916 221.998974 L 239.998576 243.999556 " transform="matrix(0.997665, 0, 0, -0.997665, -52.473424, 289.023658)"/>
<path fill="none" stroke-width="0.4" stroke-linecap="butt" stroke-linejoin="round" stroke="rgb(0%, 0%, 0%)" stroke-opacity="1" stroke-miterlimit="10" d="M 241.000916 221.998974 L 246.00087 196.000778 " transform="matrix(0.997665, 0, 0, -0.997665, -52.473424, 289.023658)"/>
<path fill="none" stroke-width="0.4" stroke-linecap="butt" stroke-linejoin="round" stroke="rgb(0%, 0%, 0%)" stroke-opacity="1" stroke-miterlimit="10" d="M 246.00087 196.000778 L 238.001726 153.001954 " transform="matrix(0.997665, 0, 0, -0.997665, -52.473424, 289.023658)"/>
<path fill="none" stroke-width="0.4" stroke-linecap="butt" stroke-linejoin="round" stroke="rgb(0%, 0%, 0%)" stroke-opacity="1" stroke-miterlimit="10" d="M 246.00087 196.000778 L 241.000916 221.998974 " transform="matrix(0.997665, 0, 0, -0.997665, -52.473424, 289.023658)"/>
<path fill="none" stroke-width="0.4" stroke-linecap="butt" stroke-linejoin="round" stroke="rgb(0%, 0%, 0%)" stroke-opacity="1" stroke-miterlimit="10" d="M 169.000791 219.99821 L 174.99917 198.001543 " transform="matrix(0.997665, 0, 0, -0.997665, -52.473424, 289.023658)"/>
<path fill="none" stroke-width="0.4" stroke-linecap="butt" stroke-linejoin="round" stroke="rgb(0%, 0%, 0%)" stroke-opacity="1" stroke-miterlimit="10" d="M 169.000791 219.99821 L 192.998222 231.000458 " transform="matrix(0.997665, 0, 0, -0.997665, -52.473424, 289.023658)"/>
<path fill="none" stroke-width="0.4" stroke-linecap="butt" stroke-linejoin="round" stroke="rgb(0%, 0%, 0%)" stroke-opacity="1" stroke-miterlimit="10" d="M 169.000791 219.99821 L 184.000654 265.001714 " transform="matrix(0.997665, 0, 0, -0.997665, -52.473424, 289.023658)"/>
<path fill="none" stroke-width="0.4" stroke-linecap="butt" stroke-linejoin="round" stroke="rgb(0%, 0%, 0%)" stroke-opacity="1" stroke-miterlimit="10" d="M 169.000791 219.99821 L 149.999399 253.00104 " transform="matrix(0.997665, 0, 0, -0.997665, -52.473424, 289.023658)"/>
<path fill="none" stroke-width="0.4" stroke-linecap="butt" stroke-linejoin="round" stroke="rgb(0%, 0%, 0%)" stroke-opacity="1" stroke-miterlimit="10" d="M 162.000072 176.999386 L 139.99949 116.999934 " transform="matrix(0.997665, 0, 0, -0.997665, -52.473424, 289.023658)"/>
<path fill="none" stroke-width="0.4" stroke-linecap="butt" stroke-linejoin="round" stroke="rgb(0%, 0%, 0%)" stroke-opacity="1" stroke-miterlimit="10" d="M 162.000072 176.999386 L 197.998177 126.999843 " transform="matrix(0.997665, 0, 0, -0.997665, -52.473424, 289.023658)"/>
<path fill="none" stroke-width="0.4" stroke-linecap="butt" stroke-linejoin="round" stroke="rgb(0%, 0%, 0%)" stroke-opacity="1" stroke-miterlimit="10" d="M 162.000072 176.999386 L 174.99917 198.001543 " transform="matrix(0.997665, 0, 0, -0.997665, -52.473424, 289.023658)"/>
<path fill="none" stroke-width="0.4" stroke-linecap="butt" stroke-linejoin="round" stroke="rgb(0%, 0%, 0%)" stroke-opacity="1" stroke-miterlimit="10" d="M 162.000072 176.999386 L 134.001111 188.001634 " transform="matrix(0.997665, 0, 0, -0.997665, -52.473424, 289.023658)"/>
<path fill="none" stroke-width="0.4" stroke-linecap="butt" stroke-linejoin="round" stroke="rgb(0%, 0%, 0%)" stroke-opacity="1" stroke-miterlimit="10" d="M 162.000072 176.999386 L 109.001339 158.001909 " transform="matrix(0.997665, 0, 0, -0.997665, -52.473424, 289.023658)"/>
<path fill="none" stroke-width="0.4" stroke-linecap="butt" stroke-linejoin="round" stroke="rgb(0%, 0%, 0%)" stroke-opacity="1" stroke-miterlimit="10" d="M 197.998177 126.999843 L 162.000072 176.999386 " transform="matrix(0.997665, 0, 0, -0.997665, -52.473424, 289.023658)"/>
<path fill="none" stroke-width="0.4" stroke-linecap="butt" stroke-linejoin="round" stroke="rgb(0%, 0%, 0%)" stroke-opacity="1" stroke-miterlimit="10" d="M 197.998177 126.999843 L 139.99949 116.999934 " transform="matrix(0.997665, 0, 0, -0.997665, -52.473424, 289.023658)"/>
<path fill="none" stroke-width="0.4" stroke-linecap="butt" stroke-linejoin="round" stroke="rgb(0%, 0%, 0%)" stroke-opacity="1" stroke-miterlimit="10" d="M 197.998177 126.999843 L 196.001327 107.000026 " transform="matrix(0.997665, 0, 0, -0.997665, -52.473424, 289.023658)"/>
<path fill="none" stroke-width="0.4" stroke-linecap="butt" stroke-linejoin="round" stroke="rgb(0%, 0%, 0%)" stroke-opacity="1" stroke-miterlimit="10" d="M 197.998177 126.999843 L 236.000962 119.000699 " transform="matrix(0.997665, 0, 0, -0.997665, -52.473424, 289.023658)"/>
<path fill="none" stroke-width="0.4" stroke-linecap="butt" stroke-linejoin="round" stroke="rgb(0%, 0%, 0%)" stroke-opacity="1" stroke-miterlimit="10" d="M 197.998177 126.999843 L 238.001726 153.001954 " transform="matrix(0.997665, 0, 0, -0.997665, -52.473424, 289.023658)"/>
<path fill="none" stroke-width="0.4" stroke-linecap="butt" stroke-linejoin="round" stroke="rgb(0%, 0%, 0%)" stroke-opacity="1" stroke-miterlimit="10" d="M 236.000962 119.000699 L 197.998177 126.999843 " transform="matrix(0.997665, 0, 0, -0.997665, -52.473424, 289.023658)"/>
<path fill="none" stroke-width="0.4" stroke-linecap="butt" stroke-linejoin="round" stroke="rgb(0%, 0%, 0%)" stroke-opacity="1" stroke-miterlimit="10" d="M 236.000962 119.000699 L 196.001327 107.000026 " transform="matrix(0.997665, 0, 0, -0.997665, -52.473424, 289.023658)"/>
<path fill="none" stroke-width="0.4" stroke-linecap="butt" stroke-linejoin="round" stroke="rgb(0%, 0%, 0%)" stroke-opacity="1" stroke-miterlimit="10" d="M 236.000962 119.000699 L 228.001818 89.999398 " transform="matrix(0.997665, 0, 0, -0.997665, -52.473424, 289.023658)"/>
<path fill="none" stroke-width="0.4" stroke-linecap="butt" stroke-linejoin="round" stroke="rgb(0%, 0%, 0%)" stroke-opacity="1" stroke-miterlimit="10" d="M 236.000962 119.000699 L 238.001726 153.001954 " transform="matrix(0.997665, 0, 0, -0.997665, -52.473424, 289.023658)"/>
<path fill="none" stroke-width="0.4" stroke-linecap="butt" stroke-linejoin="round" stroke="rgb(0%, 0%, 0%)" stroke-opacity="1" stroke-miterlimit="10" d="M 256.000779 72.99877 L 219.000334 57.000483 " transform="matrix(0.997665, 0, 0, -0.997665, -52.473424, 289.023658)"/>
<path fill="none" stroke-width="0.4" stroke-linecap="butt" stroke-linejoin="round" stroke="rgb(0%, 0%, 0%)" stroke-opacity="1" stroke-miterlimit="10" d="M 256.000779 72.99877 L 244.000105 39.999855 " transform="matrix(0.997665, 0, 0, -0.997665, -52.473424, 289.023658)"/>
<path fill="none" stroke-width="0.4" stroke-linecap="butt" stroke-linejoin="round" stroke="rgb(0%, 0%, 0%)" stroke-opacity="1" stroke-miterlimit="10" d="M 256.000779 72.99877 L 228.001818 89.999398 " transform="matrix(0.997665, 0, 0, -0.997665, -52.473424, 289.023658)"/>
<path fill="none" stroke-width="0.4" stroke-linecap="butt" stroke-linejoin="round" stroke="rgb(0%, 0%, 0%)" stroke-opacity="1" stroke-miterlimit="10" d="M 219.000334 57.000483 L 174.99917 39.999855 " transform="matrix(0.997665, 0, 0, -0.997665, -52.473424, 289.023658)"/>
<path fill="none" stroke-width="0.4" stroke-linecap="butt" stroke-linejoin="round" stroke="rgb(0%, 0%, 0%)" stroke-opacity="1" stroke-miterlimit="10" d="M 219.000334 57.000483 L 244.000105 39.999855 " transform="matrix(0.997665, 0, 0, -0.997665, -52.473424, 289.023658)"/>
<path fill="none" stroke-width="0.4" stroke-linecap="butt" stroke-linejoin="round" stroke="rgb(0%, 0%, 0%)" stroke-opacity="1" stroke-miterlimit="10" d="M 219.000334 57.000483 L 256.000779 72.99877 " transform="matrix(0.997665, 0, 0, -0.997665, -52.473424, 289.023658)"/>
<path fill="none" stroke-width="0.4" stroke-linecap="butt" stroke-linejoin="round" stroke="rgb(0%, 0%, 0%)" stroke-opacity="1" stroke-miterlimit="10" d="M 219.000334 57.000483 L 228.001818 89.999398 " transform="matrix(0.997665, 0, 0, -0.997665, -52.473424, 289.023658)"/>
<path fill="none" stroke-width="0.4" stroke-linecap="butt" stroke-linejoin="round" stroke="rgb(0%, 0%, 0%)" stroke-opacity="1" stroke-miterlimit="10" d="M 219.000334 57.000483 L 194.998987 82.000254 " transform="matrix(0.997665, 0, 0, -0.997665, -52.473424, 289.023658)"/>
<path fill="none" stroke-width="0.4" stroke-linecap="butt" stroke-linejoin="round" stroke="rgb(0%, 0%, 0%)" stroke-opacity="1" stroke-miterlimit="10" d="M 244.000105 39.999855 L 219.000334 57.000483 " transform="matrix(0.997665, 0, 0, -0.997665, -52.473424, 289.023658)"/>
<path fill="none" stroke-width="0.4" stroke-linecap="butt" stroke-linejoin="round" stroke="rgb(0%, 0%, 0%)" stroke-opacity="1" stroke-miterlimit="10" d="M 244.000105 39.999855 L 174.99917 39.999855 " transform="matrix(0.997665, 0, 0, -0.997665, -52.473424, 289.023658)"/>
<path fill="none" stroke-width="0.4" stroke-linecap="butt" stroke-linejoin="round" stroke="rgb(0%, 0%, 0%)" stroke-opacity="1" stroke-miterlimit="10" d="M 174.99917 39.999855 L 194.998987 82.000254 " transform="matrix(0.997665, 0, 0, -0.997665, -52.473424, 289.023658)"/>
<path fill="none" stroke-width="0.4" stroke-linecap="butt" stroke-linejoin="round" stroke="rgb(0%, 0%, 0%)" stroke-opacity="1" stroke-miterlimit="10" d="M 174.99917 39.999855 L 162.000072 81.001829 " transform="matrix(0.997665, 0, 0, -0.997665, -52.473424, 289.023658)"/>
<path fill="none" stroke-width="0.4" stroke-linecap="butt" stroke-linejoin="round" stroke="rgb(0%, 0%, 0%)" stroke-opacity="1" stroke-miterlimit="10" d="M 174.99917 39.999855 L 152.000163 57.000483 " transform="matrix(0.997665, 0, 0, -0.997665, -52.473424, 289.023658)"/>
<path fill="none" stroke-width="0.4" stroke-linecap="butt" stroke-linejoin="round" stroke="rgb(0%, 0%, 0%)" stroke-opacity="1" stroke-miterlimit="10" d="M 174.99917 39.999855 L 244.000105 39.999855 " transform="matrix(0.997665, 0, 0, -0.997665, -52.473424, 289.023658)"/>
<path fill="none" stroke-width="0.4" stroke-linecap="butt" stroke-linejoin="round" stroke="rgb(0%, 0%, 0%)" stroke-opacity="1" stroke-miterlimit="10" d="M 139.99949 116.999934 L 196.001327 107.000026 " transform="matrix(0.997665, 0, 0, -0.997665, -52.473424, 289.023658)"/>
<path fill="none" stroke-width="0.4" stroke-linecap="butt" stroke-linejoin="round" stroke="rgb(0%, 0%, 0%)" stroke-opacity="1" stroke-miterlimit="10" d="M 139.99949 116.999934 L 109.001339 158.001909 " transform="matrix(0.997665, 0, 0, -0.997665, -52.473424, 289.023658)"/>
<path fill="none" stroke-width="0.4" stroke-linecap="butt" stroke-linejoin="round" stroke="rgb(0%, 0%, 0%)" stroke-opacity="1" stroke-miterlimit="10" d="M 139.99949 116.999934 L 104.99981 114.999169 " transform="matrix(0.997665, 0, 0, -0.997665, -52.473424, 289.023658)"/>
<path fill="none" stroke-width="0.4" stroke-linecap="butt" stroke-linejoin="round" stroke="rgb(0%, 0%, 0%)" stroke-opacity="1" stroke-miterlimit="10" d="M 139.99949 116.999934 L 115.998143 81.001829 " transform="matrix(0.997665, 0, 0, -0.997665, -52.473424, 289.023658)"/>
<path fill="none" stroke-width="0.4" stroke-linecap="butt" stroke-linejoin="round" stroke="rgb(0%, 0%, 0%)" stroke-opacity="1" stroke-miterlimit="10" d="M 139.99949 116.999934 L 162.000072 81.001829 " transform="matrix(0.997665, 0, 0, -0.997665, -52.473424, 289.023658)"/>
<path fill="none" stroke-width="0.4" stroke-linecap="butt" stroke-linejoin="round" stroke="rgb(0%, 0%, 0%)" stroke-opacity="1" stroke-miterlimit="10" d="M 109.001339 158.001909 L 119.999673 203.001497 " transform="matrix(0.997665, 0, 0, -0.997665, -52.473424, 289.023658)"/>
<path fill="none" stroke-width="0.4" stroke-linecap="butt" stroke-linejoin="round" stroke="rgb(0%, 0%, 0%)" stroke-opacity="1" stroke-miterlimit="10" d="M 109.001339 158.001909 L 87.999182 194.998438 " transform="matrix(0.997665, 0, 0, -0.997665, -52.473424, 289.023658)"/>
<path fill="none" stroke-width="0.4" stroke-linecap="butt" stroke-linejoin="round" stroke="rgb(0%, 0%, 0%)" stroke-opacity="1" stroke-miterlimit="10" d="M 109.001339 158.001909 L 80.998463 161.999523 " transform="matrix(0.997665, 0, 0, -0.997665, -52.473424, 289.023658)"/>
<path fill="none" stroke-width="0.4" stroke-linecap="butt" stroke-linejoin="round" stroke="rgb(0%, 0%, 0%)" stroke-opacity="1" stroke-miterlimit="10" d="M 109.001339 158.001909 L 99.999856 137.998176 " transform="matrix(0.997665, 0, 0, -0.997665, -52.473424, 289.023658)"/>
<path fill="none" stroke-width="0.4" stroke-linecap="butt" stroke-linejoin="round" stroke="rgb(0%, 0%, 0%)" stroke-opacity="1" stroke-miterlimit="10" d="M 109.001339 158.001909 L 104.99981 114.999169 " transform="matrix(0.997665, 0, 0, -0.997665, -52.473424, 289.023658)"/>
<path fill="none" stroke-width="0.4" stroke-linecap="butt" stroke-linejoin="round" stroke="rgb(0%, 0%, 0%)" stroke-opacity="1" stroke-miterlimit="10" d="M 109.001339 158.001909 L 139.99949 116.999934 " transform="matrix(0.997665, 0, 0, -0.997665, -52.473424, 289.023658)"/>
<path fill="none" stroke-width="0.4" stroke-linecap="butt" stroke-linejoin="round" stroke="rgb(0%, 0%, 0%)" stroke-opacity="1" stroke-miterlimit="10" d="M 109.001339 158.001909 L 134.001111 188.001634 " transform="matrix(0.997665, 0, 0, -0.997665, -52.473424, 289.023658)"/>
<path fill="none" stroke-width="0.4" stroke-linecap="butt" stroke-linejoin="round" stroke="rgb(0%, 0%, 0%)" stroke-opacity="1" stroke-miterlimit="10" d="M 229.998667 283.000766 L 204.000471 270.001668 " transform="matrix(0.997665, 0, 0, -0.997665, -52.473424, 289.023658)"/>
<path fill="none" stroke-width="0.4" stroke-linecap="butt" stroke-linejoin="round" stroke="rgb(0%, 0%, 0%)" stroke-opacity="1" stroke-miterlimit="10" d="M 204.000471 270.001668 L 229.998667 283.000766 " transform="matrix(0.997665, 0, 0, -0.997665, -52.473424, 289.023658)"/>
<path fill="none" stroke-width="0.4" stroke-linecap="butt" stroke-linejoin="round" stroke="rgb(0%, 0%, 0%)" stroke-opacity="1" stroke-miterlimit="10" d="M 204.000471 270.001668 L 184.000654 265.001714 " transform="matrix(0.997665, 0, 0, -0.997665, -52.473424, 289.023658)"/>
<path fill="none" stroke-width="0.4" stroke-linecap="butt" stroke-linejoin="round" stroke="rgb(0%, 0%, 0%)" stroke-opacity="1" stroke-miterlimit="10" d="M 184.000654 265.001714 L 204.000471 270.001668 " transform="matrix(0.997665, 0, 0, -0.997665, -52.473424, 289.023658)"/>
<path fill="none" stroke-width="0.4" stroke-linecap="butt" stroke-linejoin="round" stroke="rgb(0%, 0%, 0%)" stroke-opacity="1" stroke-miterlimit="10" d="M 184.000654 265.001714 L 149.999399 253.00104 " transform="matrix(0.997665, 0, 0, -0.997665, -52.473424, 289.023658)"/>
<path fill="none" stroke-width="0.4" stroke-linecap="butt" stroke-linejoin="round" stroke="rgb(0%, 0%, 0%)" stroke-opacity="1" stroke-miterlimit="10" d="M 184.000654 265.001714 L 192.998222 231.000458 " transform="matrix(0.997665, 0, 0, -0.997665, -52.473424, 289.023658)"/>
<path fill="none" stroke-width="0.4" stroke-linecap="butt" stroke-linejoin="round" stroke="rgb(0%, 0%, 0%)" stroke-opacity="1" stroke-miterlimit="10" d="M 149.999399 253.00104 L 184.000654 265.001714 " transform="matrix(0.997665, 0, 0, -0.997665, -52.473424, 289.023658)"/>
<path fill="none" stroke-width="0.4" stroke-linecap="butt" stroke-linejoin="round" stroke="rgb(0%, 0%, 0%)" stroke-opacity="1" stroke-miterlimit="10" d="M 149.999399 253.00104 L 119.001248 268.999328 " transform="matrix(0.997665, 0, 0, -0.997665, -52.473424, 289.023658)"/>
<path fill="none" stroke-width="0.4" stroke-linecap="butt" stroke-linejoin="round" stroke="rgb(0%, 0%, 0%)" stroke-opacity="1" stroke-miterlimit="10" d="M 149.999399 253.00104 L 119.001248 240.001942 " transform="matrix(0.997665, 0, 0, -0.997665, -52.473424, 289.023658)"/>
<path fill="none" stroke-width="0.4" stroke-linecap="butt" stroke-linejoin="round" stroke="rgb(0%, 0%, 0%)" stroke-opacity="1" stroke-miterlimit="10" d="M 149.999399 253.00104 L 137.998725 214.998255 " transform="matrix(0.997665, 0, 0, -0.997665, -52.473424, 289.023658)"/>
<path fill="none" stroke-width="0.4" stroke-linecap="butt" stroke-linejoin="round" stroke="rgb(0%, 0%, 0%)" stroke-opacity="1" stroke-miterlimit="10" d="M 119.001248 268.999328 L 95.998326 253.00104 " transform="matrix(0.997665, 0, 0, -0.997665, -52.473424, 289.023658)"/>
<path fill="none" stroke-width="0.4" stroke-linecap="butt" stroke-linejoin="round" stroke="rgb(0%, 0%, 0%)" stroke-opacity="1" stroke-miterlimit="10" d="M 119.001248 268.999328 L 119.001248 240.001942 " transform="matrix(0.997665, 0, 0, -0.997665, -52.473424, 289.023658)"/>
<path fill="none" stroke-width="0.4" stroke-linecap="butt" stroke-linejoin="round" stroke="rgb(0%, 0%, 0%)" stroke-opacity="1" stroke-miterlimit="10" d="M 119.001248 240.001942 L 119.999673 203.001497 " transform="matrix(0.997665, 0, 0, -0.997665, -52.473424, 289.023658)"/>
<path fill="none" stroke-width="0.4" stroke-linecap="butt" stroke-linejoin="round" stroke="rgb(0%, 0%, 0%)" stroke-opacity="1" stroke-miterlimit="10" d="M 119.001248 240.001942 L 137.998725 214.998255 " transform="matrix(0.997665, 0, 0, -0.997665, -52.473424, 289.023658)"/>
<path fill="none" stroke-width="0.4" stroke-linecap="butt" stroke-linejoin="round" stroke="rgb(0%, 0%, 0%)" stroke-opacity="1" stroke-miterlimit="10" d="M 119.001248 240.001942 L 119.001248 268.999328 " transform="matrix(0.997665, 0, 0, -0.997665, -52.473424, 289.023658)"/>
<path fill="none" stroke-width="0.4" stroke-linecap="butt" stroke-linejoin="round" stroke="rgb(0%, 0%, 0%)" stroke-opacity="1" stroke-miterlimit="10" d="M 119.001248 240.001942 L 95.998326 253.00104 " transform="matrix(0.997665, 0, 0, -0.997665, -52.473424, 289.023658)"/>
<path fill="none" stroke-width="0.4" stroke-linecap="butt" stroke-linejoin="round" stroke="rgb(0%, 0%, 0%)" stroke-opacity="1" stroke-miterlimit="10" d="M 119.001248 240.001942 L 90.998372 221.998974 " transform="matrix(0.997665, 0, 0, -0.997665, -52.473424, 289.023658)"/>
<path fill="none" stroke-width="0.4" stroke-linecap="butt" stroke-linejoin="round" stroke="rgb(0%, 0%, 0%)" stroke-opacity="1" stroke-miterlimit="10" d="M 95.998326 253.00104 L 75.000084 266.998563 " transform="matrix(0.997665, 0, 0, -0.997665, -52.473424, 289.023658)"/>
<path fill="none" stroke-width="0.4" stroke-linecap="butt" stroke-linejoin="round" stroke="rgb(0%, 0%, 0%)" stroke-opacity="1" stroke-miterlimit="10" d="M 95.998326 253.00104 L 90.998372 221.998974 " transform="matrix(0.997665, 0, 0, -0.997665, -52.473424, 289.023658)"/>
<path fill="none" stroke-width="0.4" stroke-linecap="butt" stroke-linejoin="round" stroke="rgb(0%, 0%, 0%)" stroke-opacity="1" stroke-miterlimit="10" d="M 90.998372 221.998974 L 95.998326 253.00104 " transform="matrix(0.997665, 0, 0, -0.997665, -52.473424, 289.023658)"/>
<path fill="none" stroke-width="0.4" stroke-linecap="butt" stroke-linejoin="round" stroke="rgb(0%, 0%, 0%)" stroke-opacity="1" stroke-miterlimit="10" d="M 90.998372 221.998974 L 75.000084 266.998563 " transform="matrix(0.997665, 0, 0, -0.997665, -52.473424, 289.023658)"/>
<path fill="none" stroke-width="0.4" stroke-linecap="butt" stroke-linejoin="round" stroke="rgb(0%, 0%, 0%)" stroke-opacity="1" stroke-miterlimit="10" d="M 90.998372 221.998974 L 87.999182 194.998438 " transform="matrix(0.997665, 0, 0, -0.997665, -52.473424, 289.023658)"/>
<path fill="none" stroke-width="0.4" stroke-linecap="butt" stroke-linejoin="round" stroke="rgb(0%, 0%, 0%)" stroke-opacity="1" stroke-miterlimit="10" d="M 90.998372 221.998974 L 119.999673 203.001497 " transform="matrix(0.997665, 0, 0, -0.997665, -52.473424, 289.023658)"/>
<path fill="none" stroke-width="0.4" stroke-linecap="butt" stroke-linejoin="round" stroke="rgb(0%, 0%, 0%)" stroke-opacity="1" stroke-miterlimit="10" d="M 87.999182 194.998438 L 119.999673 203.001497 " transform="matrix(0.997665, 0, 0, -0.997665, -52.473424, 289.023658)"/>
<path fill="none" stroke-width="0.4" stroke-linecap="butt" stroke-linejoin="round" stroke="rgb(0%, 0%, 0%)" stroke-opacity="1" stroke-miterlimit="10" d="M 87.999182 194.998438 L 90.998372 221.998974 " transform="matrix(0.997665, 0, 0, -0.997665, -52.473424, 289.023658)"/>
<path fill="none" stroke-width="0.4" stroke-linecap="butt" stroke-linejoin="round" stroke="rgb(0%, 0%, 0%)" stroke-opacity="1" stroke-miterlimit="10" d="M 87.999182 194.998438 L 80.998463 161.999523 " transform="matrix(0.997665, 0, 0, -0.997665, -52.473424, 289.023658)"/>
<path fill="none" stroke-width="0.4" stroke-linecap="butt" stroke-linejoin="round" stroke="rgb(0%, 0%, 0%)" stroke-opacity="1" stroke-miterlimit="10" d="M 80.998463 161.999523 L 87.999182 194.998438 " transform="matrix(0.997665, 0, 0, -0.997665, -52.473424, 289.023658)"/>
<path fill="none" stroke-width="0.4" stroke-linecap="butt" stroke-linejoin="round" stroke="rgb(0%, 0%, 0%)" stroke-opacity="1" stroke-miterlimit="10" d="M 80.998463 161.999523 L 84.001568 92.000163 " transform="matrix(0.997665, 0, 0, -0.997665, -52.473424, 289.023658)"/>
<path fill="none" stroke-width="0.4" stroke-linecap="butt" stroke-linejoin="round" stroke="rgb(0%, 0%, 0%)" stroke-opacity="1" stroke-miterlimit="10" d="M 80.998463 161.999523 L 99.999856 137.998176 " transform="matrix(0.997665, 0, 0, -0.997665, -52.473424, 289.023658)"/>
<path fill="none" stroke-width="0.4" stroke-linecap="butt" stroke-linejoin="round" stroke="rgb(0%, 0%, 0%)" stroke-opacity="1" stroke-miterlimit="10" d="M 99.999856 137.998176 L 104.99981 114.999169 " transform="matrix(0.997665, 0, 0, -0.997665, -52.473424, 289.023658)"/>
<path fill="none" stroke-width="0.4" stroke-linecap="butt" stroke-linejoin="round" stroke="rgb(0%, 0%, 0%)" stroke-opacity="1" stroke-miterlimit="10" d="M 99.999856 137.998176 L 80.998463 161.999523 " transform="matrix(0.997665, 0, 0, -0.997665, -52.473424, 289.023658)"/>
<path fill="none" stroke-width="0.4" stroke-linecap="butt" stroke-linejoin="round" stroke="rgb(0%, 0%, 0%)" stroke-opacity="1" stroke-miterlimit="10" d="M 99.999856 137.998176 L 84.001568 92.000163 " transform="matrix(0.997665, 0, 0, -0.997665, -52.473424, 289.023658)"/>
<path fill="none" stroke-width="0.4" stroke-linecap="butt" stroke-linejoin="round" stroke="rgb(0%, 0%, 0%)" stroke-opacity="1" stroke-miterlimit="10" d="M 104.99981 114.999169 L 99.999856 137.998176 " transform="matrix(0.997665, 0, 0, -0.997665, -52.473424, 289.023658)"/>
<path fill="none" stroke-width="0.4" stroke-linecap="butt" stroke-linejoin="round" stroke="rgb(0%, 0%, 0%)" stroke-opacity="1" stroke-miterlimit="10" d="M 104.99981 114.999169 L 84.001568 92.000163 " transform="matrix(0.997665, 0, 0, -0.997665, -52.473424, 289.023658)"/>
<path fill="none" stroke-width="0.4" stroke-linecap="butt" stroke-linejoin="round" stroke="rgb(0%, 0%, 0%)" stroke-opacity="1" stroke-miterlimit="10" d="M 104.99981 114.999169 L 115.998143 81.001829 " transform="matrix(0.997665, 0, 0, -0.997665, -52.473424, 289.023658)"/>
<path fill="none" stroke-width="0.4" stroke-linecap="butt" stroke-linejoin="round" stroke="rgb(0%, 0%, 0%)" stroke-opacity="1" stroke-miterlimit="10" d="M 84.001568 92.000163 L 115.998143 81.001829 " transform="matrix(0.997665, 0, 0, -0.997665, -52.473424, 289.023658)"/>
<path fill="none" stroke-width="0.4" stroke-linecap="butt" stroke-linejoin="round" stroke="rgb(0%, 0%, 0%)" stroke-opacity="1" stroke-miterlimit="10" d="M 84.001568 92.000163 L 104.99981 114.999169 " transform="matrix(0.997665, 0, 0, -0.997665, -52.473424, 289.023658)"/>
<path fill="none" stroke-width="0.4" stroke-linecap="butt" stroke-linejoin="round" stroke="rgb(0%, 0%, 0%)" stroke-opacity="1" stroke-miterlimit="10" d="M 115.998143 81.001829 L 162.000072 81.001829 " transform="matrix(0.997665, 0, 0, -0.997665, -52.473424, 289.023658)"/>
<path fill="none" stroke-width="0.4" stroke-linecap="butt" stroke-linejoin="round" stroke="rgb(0%, 0%, 0%)" stroke-opacity="1" stroke-miterlimit="10" d="M 115.998143 81.001829 L 84.001568 92.000163 " transform="matrix(0.997665, 0, 0, -0.997665, -52.473424, 289.023658)"/>
<path fill="none" stroke-width="0.4" stroke-linecap="butt" stroke-linejoin="round" stroke="rgb(0%, 0%, 0%)" stroke-opacity="1" stroke-miterlimit="10" d="M 115.998143 81.001829 L 152.000163 57.000483 " transform="matrix(0.997665, 0, 0, -0.997665, -52.473424, 289.023658)"/>
<path fill="none" stroke-width="0.4" stroke-linecap="butt" stroke-linejoin="round" stroke="rgb(0%, 0%, 0%)" stroke-opacity="1" stroke-miterlimit="10" d="M 196.001327 107.000026 L 162.000072 81.001829 " transform="matrix(0.997665, 0, 0, -0.997665, -52.473424, 289.023658)"/>
<path fill="none" stroke-width="0.4" stroke-linecap="butt" stroke-linejoin="round" stroke="rgb(0%, 0%, 0%)" stroke-opacity="1" stroke-miterlimit="10" d="M 196.001327 107.000026 L 194.998987 82.000254 " transform="matrix(0.997665, 0, 0, -0.997665, -52.473424, 289.023658)"/>
<path fill="none" stroke-width="0.4" stroke-linecap="butt" stroke-linejoin="round" stroke="rgb(0%, 0%, 0%)" stroke-opacity="1" stroke-miterlimit="10" d="M 196.001327 107.000026 L 228.001818 89.999398 " transform="matrix(0.997665, 0, 0, -0.997665, -52.473424, 289.023658)"/>
<path fill="none" stroke-width="0.4" stroke-linecap="butt" stroke-linejoin="round" stroke="rgb(0%, 0%, 0%)" stroke-opacity="1" stroke-miterlimit="10" d="M 194.998987 82.000254 L 196.001327 107.000026 " transform="matrix(0.997665, 0, 0, -0.997665, -52.473424, 289.023658)"/>
<path fill="none" stroke-width="0.4" stroke-linecap="butt" stroke-linejoin="round" stroke="rgb(0%, 0%, 0%)" stroke-opacity="1" stroke-miterlimit="10" d="M 194.998987 82.000254 L 162.000072 81.001829 " transform="matrix(0.997665, 0, 0, -0.997665, -52.473424, 289.023658)"/>
<path fill="none" stroke-width="0.4" stroke-linecap="butt" stroke-linejoin="round" stroke="rgb(0%, 0%, 0%)" stroke-opacity="1" stroke-miterlimit="10" d="M 194.998987 82.000254 L 228.001818 89.999398 " transform="matrix(0.997665, 0, 0, -0.997665, -52.473424, 289.023658)"/>
<path fill="none" stroke-width="0.4" stroke-linecap="butt" stroke-linejoin="round" stroke="rgb(0%, 0%, 0%)" stroke-opacity="1" stroke-miterlimit="10" d="M 162.000072 81.001829 L 152.000163 57.000483 " transform="matrix(0.997665, 0, 0, -0.997665, -52.473424, 289.023658)"/>
<path fill="none" stroke-width="0.4" stroke-linecap="butt" stroke-linejoin="round" stroke="rgb(0%, 0%, 0%)" stroke-opacity="1" stroke-miterlimit="10" d="M 162.000072 81.001829 L 194.998987 82.000254 " transform="matrix(0.997665, 0, 0, -0.997665, -52.473424, 289.023658)"/>
<path fill="none" stroke-width="0.4" stroke-linecap="butt" stroke-linejoin="round" stroke="rgb(0%, 0%, 0%)" stroke-opacity="1" stroke-miterlimit="10" d="M 152.000163 57.000483 L 162.000072 81.001829 " transform="matrix(0.997665, 0, 0, -0.997665, -52.473424, 289.023658)"/>
<path fill="none" stroke-width="0.4" stroke-linecap="butt" stroke-linejoin="round" stroke="rgb(0%, 0%, 0%)" stroke-opacity="1" stroke-miterlimit="10" d="M 137.998725 214.998255 L 119.999673 203.001497 " transform="matrix(0.997665, 0, 0, -0.997665, -52.473424, 289.023658)"/>
<path fill="none" stroke-width="0.4" stroke-linecap="butt" stroke-linejoin="round" stroke="rgb(0%, 0%, 0%)" stroke-opacity="1" stroke-miterlimit="10" d="M 137.998725 214.998255 L 134.001111 188.001634 " transform="matrix(0.997665, 0, 0, -0.997665, -52.473424, 289.023658)"/>
<path fill="none" stroke-width="0.4" stroke-linecap="butt" stroke-linejoin="round" stroke="rgb(0%, 0%, 0%)" stroke-opacity="1" stroke-miterlimit="10" d="M 137.998725 214.998255 L 174.99917 198.001543 " transform="matrix(0.997665, 0, 0, -0.997665, -52.473424, 289.023658)"/>
<path fill="none" stroke-width="0.4" stroke-linecap="butt" stroke-linejoin="round" stroke="rgb(0%, 0%, 0%)" stroke-opacity="1" stroke-miterlimit="10" d="M 119.999673 203.001497 L 134.001111 188.001634 " transform="matrix(0.997665, 0, 0, -0.997665, -52.473424, 289.023658)"/>
<path fill="none" stroke-width="0.4" stroke-linecap="butt" stroke-linejoin="round" stroke="rgb(0%, 0%, 0%)" stroke-opacity="1" stroke-miterlimit="10" d="M 119.999673 203.001497 L 137.998725 214.998255 " transform="matrix(0.997665, 0, 0, -0.997665, -52.473424, 289.023658)"/>
<path fill="none" stroke-width="0.4" stroke-linecap="butt" stroke-linejoin="round" stroke="rgb(0%, 0%, 0%)" stroke-opacity="1" stroke-miterlimit="10" d="M 134.001111 188.001634 L 174.99917 198.001543 " transform="matrix(0.997665, 0, 0, -0.997665, -52.473424, 289.023658)"/>
<path fill="none" stroke-width="0.4" stroke-linecap="butt" stroke-linejoin="round" stroke="rgb(0%, 0%, 0%)" stroke-opacity="1" stroke-miterlimit="10" d="M 134.001111 188.001634 L 119.999673 203.001497 " transform="matrix(0.997665, 0, 0, -0.997665, -52.473424, 289.023658)"/>
<path fill="none" stroke-width="0.4" stroke-linecap="butt" stroke-linejoin="round" stroke="rgb(0%, 0%, 0%)" stroke-opacity="1" stroke-miterlimit="10" d="M 174.99917 198.001543 L 192.998222 231.000458 " transform="matrix(0.997665, 0, 0, -0.997665, -52.473424, 289.023658)"/>
<path fill="none" stroke-width="0.4" stroke-linecap="butt" stroke-linejoin="round" stroke="rgb(0%, 0%, 0%)" stroke-opacity="1" stroke-miterlimit="10" d="M 174.99917 198.001543 L 134.001111 188.001634 " transform="matrix(0.997665, 0, 0, -0.997665, -52.473424, 289.023658)"/>
<path fill="none" stroke-width="0.4" stroke-linecap="butt" stroke-linejoin="round" stroke="rgb(0%, 0%, 0%)" stroke-opacity="1" stroke-miterlimit="10" d="M 192.998222 231.000458 L 174.99917 198.001543 " transform="matrix(0.997665, 0, 0, -0.997665, -52.473424, 289.023658)"/>
<g clip-path="url(#clip-5)">
<path fill="none" stroke-width="0.4" stroke-linecap="butt" stroke-linejoin="round" stroke="rgb(0%, 0%, 0%)" stroke-opacity="1" stroke-miterlimit="10" d="M 52.999502 208.999876 L 87.999182 194.998438 " transform="matrix(0.997665, 0, 0, -0.997665, -52.473424, 289.023658)"/>
</g>
<g clip-path="url(#clip-6)">
<path fill="none" stroke-width="0.4" stroke-linecap="butt" stroke-linejoin="round" stroke="rgb(0%, 0%, 0%)" stroke-opacity="1" stroke-miterlimit="10" d="M 52.999502 208.999876 L 90.998372 221.998974 " transform="matrix(0.997665, 0, 0, -0.997665, -52.473424, 289.023658)"/>
</g>
<g clip-path="url(#clip-7)">
<path fill="none" stroke-width="0.4" stroke-linecap="butt" stroke-linejoin="round" stroke="rgb(0%, 0%, 0%)" stroke-opacity="1" stroke-miterlimit="10" d="M 52.999502 208.999876 L 75.000084 266.998563 " transform="matrix(0.997665, 0, 0, -0.997665, -52.473424, 289.023658)"/>
</g>
<path fill="none" stroke-width="0.4" stroke-linecap="butt" stroke-linejoin="round" stroke="rgb(0%, 0%, 0%)" stroke-opacity="1" stroke-miterlimit="10" d="M 219.000334 57.000483 L 228.001818 89.999398 " transform="matrix(0.997665, 0, 0, -0.997665, -52.473424, 289.023658)"/>
<path fill="none" stroke-width="0.4" stroke-linecap="butt" stroke-linejoin="round" stroke="rgb(0%, 0%, 0%)" stroke-opacity="1" stroke-miterlimit="10" d="M 139.99949 116.999934 L 104.99981 114.999169 " transform="matrix(0.997665, 0, 0, -0.997665, -52.473424, 289.023658)"/>
<path fill="none" stroke-width="0.4" stroke-linecap="butt" stroke-linejoin="round" stroke="rgb(0%, 0%, 0%)" stroke-opacity="1" stroke-miterlimit="10" d="M 139.99949 116.999934 L 115.998143 81.001829 " transform="matrix(0.997665, 0, 0, -0.997665, -52.473424, 289.023658)"/>
<path fill="none" stroke-width="0.4" stroke-linecap="butt" stroke-linejoin="round" stroke="rgb(0%, 0%, 0%)" stroke-opacity="1" stroke-miterlimit="10" d="M 139.99949 116.999934 L 162.000072 81.001829 " transform="matrix(0.997665, 0, 0, -0.997665, -52.473424, 289.023658)"/>
<path fill="none" stroke-width="0.4" stroke-linecap="butt" stroke-linejoin="round" stroke="rgb(0%, 0%, 0%)" stroke-opacity="1" stroke-miterlimit="10" d="M 109.001339 158.001909 L 80.998463 161.999523 " transform="matrix(0.997665, 0, 0, -0.997665, -52.473424, 289.023658)"/>
<path fill="none" stroke-width="0.4" stroke-linecap="butt" stroke-linejoin="round" stroke="rgb(0%, 0%, 0%)" stroke-opacity="1" stroke-miterlimit="10" d="M 109.001339 158.001909 L 99.999856 137.998176 " transform="matrix(0.997665, 0, 0, -0.997665, -52.473424, 289.023658)"/>
<path fill="none" stroke-width="0.4" stroke-linecap="butt" stroke-linejoin="round" stroke="rgb(0%, 0%, 0%)" stroke-opacity="1" stroke-miterlimit="10" d="M 109.001339 158.001909 L 104.99981 114.999169 " transform="matrix(0.997665, 0, 0, -0.997665, -52.473424, 289.023658)"/>
<path fill="none" stroke-width="0.4" stroke-linecap="butt" stroke-linejoin="round" stroke="rgb(0%, 0%, 0%)" stroke-opacity="1" stroke-miterlimit="10" d="M 80.998463 161.999523 L 87.999182 194.998438 " transform="matrix(0.997665, 0, 0, -0.997665, -52.473424, 289.023658)"/>
<path fill="none" stroke-width="0.4" stroke-linecap="butt" stroke-linejoin="round" stroke="rgb(0%, 0%, 0%)" stroke-opacity="1" stroke-miterlimit="10" d="M 196.001327 107.000026 L 162.000072 81.001829 " transform="matrix(0.997665, 0, 0, -0.997665, -52.473424, 289.023658)"/>
<path fill="none" stroke-width="0.4" stroke-linecap="butt" stroke-linejoin="round" stroke="rgb(0%, 0%, 0%)" stroke-opacity="1" stroke-miterlimit="10" d="M 194.998987 82.000254 L 196.001327 107.000026 " transform="matrix(0.997665, 0, 0, -0.997665, -52.473424, 289.023658)"/>
<path fill="none" stroke-width="0.4" stroke-linecap="butt" stroke-linejoin="round" stroke="rgb(0%, 0%, 0%)" stroke-opacity="1" stroke-miterlimit="10" d="M 194.998987 82.000254 L 228.001818 89.999398 " transform="matrix(0.997665, 0, 0, -0.997665, -52.473424, 289.023658)"/>
<path fill-rule="evenodd" fill="rgb(100%, 0%, 0%)" fill-opacity="1" d="M 27.339844 22.648438 C 27.339844 19.890625 25.105469 17.660156 22.351562 17.660156 C 19.597656 17.660156 17.363281 19.890625 17.363281 22.648438 C 17.363281 25.402344 19.597656 27.636719 22.351562 27.636719 C 25.105469 27.636719 27.339844 25.402344 27.339844 22.648438 "/>
<path fill-rule="evenodd" fill="rgb(0%, 0%, 0%)" fill-opacity="1" d="M 28.335938 22.648438 C 28.335938 19.339844 25.65625 16.660156 22.351562 16.660156 C 19.046875 16.660156 16.367188 19.339844 16.367188 22.648438 C 16.367188 25.953125 19.046875 28.632812 22.351562 28.632812 C 25.65625 28.632812 28.335938 25.953125 28.335938 22.648438 M 26.34375 22.648438 C 26.34375 20.441406 24.554688 18.65625 22.351562 18.65625 C 20.148438 18.65625 18.359375 20.441406 18.359375 22.648438 C 18.359375 24.851562 20.148438 26.636719 22.351562 26.636719 C 24.554688 26.636719 26.34375 24.851562 26.34375 22.648438 "/>
<path fill-rule="evenodd" fill="rgb(0%, 0%, 54.499817%)" fill-opacity="1" d="M 71.238281 20.652344 C 71.238281 17.898438 69.003906 15.664062 66.25 15.664062 C 63.496094 15.664062 61.261719 17.898438 61.261719 20.652344 C 61.261719 23.40625 63.496094 25.640625 66.25 25.640625 C 69.003906 25.640625 71.238281 23.40625 71.238281 20.652344 "/>
<path fill-rule="evenodd" fill="rgb(0%, 0%, 0%)" fill-opacity="1" d="M 72.234375 20.652344 C 72.234375 17.34375 69.554688 14.664062 66.25 14.664062 C 62.941406 14.664062 60.261719 17.34375 60.261719 20.652344 C 60.261719 23.957031 62.941406 26.636719 66.25 26.636719 C 69.554688 26.636719 72.234375 23.957031 72.234375 20.652344 M 70.238281 20.652344 C 70.238281 18.449219 68.453125 16.660156 66.25 16.660156 C 64.042969 16.660156 62.257812 18.449219 62.257812 20.652344 C 62.257812 22.855469 64.042969 24.640625 66.25 24.640625 C 68.453125 24.640625 70.238281 22.855469 70.238281 20.652344 "/>
<path fill-rule="evenodd" fill="rgb(0%, 54.499817%, 54.499817%)" fill-opacity="1" d="M 136.085938 24.640625 C 136.085938 21.886719 133.851562 19.652344 131.097656 19.652344 C 128.34375 19.652344 126.109375 21.886719 126.109375 24.640625 C 126.109375 27.398438 128.34375 29.628906 131.097656 29.628906 C 133.851562 29.628906 136.085938 27.398438 136.085938 24.640625 "/>
<path fill-rule="evenodd" fill="rgb(0%, 0%, 0%)" fill-opacity="1" d="M 137.082031 24.640625 C 137.082031 21.335938 134.402344 18.65625 131.097656 18.65625 C 127.789062 18.65625 125.109375 21.335938 125.109375 24.640625 C 125.109375 27.949219 127.789062 30.628906 131.097656 30.628906 C 134.402344 30.628906 137.082031 27.949219 137.082031 24.640625 M 135.085938 24.640625 C 135.085938 22.4375 133.300781 20.652344 131.097656 20.652344 C 128.894531 20.652344 127.105469 22.4375 127.105469 24.640625 C 127.105469 26.847656 128.894531 28.632812 131.097656 28.632812 C 133.300781 28.632812 135.085938 26.847656 135.085938 24.640625 "/>
<path fill-rule="evenodd" fill="rgb(0%, 0%, 54.499817%)" fill-opacity="1" d="M 181.976562 6.683594 C 181.976562 3.929688 179.746094 1.695312 176.988281 1.695312 C 174.234375 1.695312 172 3.929688 172 6.683594 C 172 9.4375 174.234375 11.671875 176.988281 11.671875 C 179.746094 11.671875 181.976562 9.4375 181.976562 6.683594 "/>
<path fill-rule="evenodd" fill="rgb(0%, 0%, 0%)" fill-opacity="1" d="M 182.976562 6.683594 C 182.976562 3.378906 180.296875 0.699219 176.988281 0.699219 C 173.683594 0.699219 171.003906 3.378906 171.003906 6.683594 C 171.003906 9.992188 173.683594 12.671875 176.988281 12.671875 C 180.296875 12.671875 182.976562 9.992188 182.976562 6.683594 M 180.980469 6.683594 C 180.980469 4.480469 179.195312 2.695312 176.988281 2.695312 C 174.785156 2.695312 173 4.480469 173 6.683594 C 173 8.886719 174.785156 10.675781 176.988281 10.675781 C 179.195312 10.675781 180.980469 8.886719 180.980469 6.683594 "/>
<path fill-rule="evenodd" fill="rgb(100%, 0%, 0%)" fill-opacity="1" d="M 192.953125 67.542969 C 192.953125 64.789062 190.71875 62.554688 187.964844 62.554688 C 185.210938 62.554688 182.976562 64.789062 182.976562 67.542969 C 182.976562 70.296875 185.210938 72.53125 187.964844 72.53125 C 190.71875 72.53125 192.953125 70.296875 192.953125 67.542969 "/>
<path fill-rule="evenodd" fill="rgb(0%, 0%, 0%)" fill-opacity="1" d="M 193.949219 67.542969 C 193.949219 64.234375 191.269531 61.554688 187.964844 61.554688 C 184.65625 61.554688 181.976562 64.234375 181.976562 67.542969 C 181.976562 70.847656 184.65625 73.527344 187.964844 73.527344 C 191.269531 73.527344 193.949219 70.847656 193.949219 67.542969 M 191.953125 67.542969 C 191.953125 65.339844 190.167969 63.550781 187.964844 63.550781 C 185.761719 63.550781 183.972656 65.339844 183.972656 67.542969 C 183.972656 69.746094 185.761719 71.53125 187.964844 71.53125 C 190.167969 71.53125 191.953125 69.746094 191.953125 67.542969 "/>
<path fill-rule="evenodd" fill="rgb(0%, 54.499817%, 54.499817%)" fill-opacity="1" d="M 214.902344 111.4375 C 214.902344 108.683594 212.667969 106.449219 209.914062 106.449219 C 207.15625 106.449219 204.925781 108.683594 204.925781 111.4375 C 204.925781 114.195312 207.15625 116.425781 209.914062 116.425781 C 212.667969 116.425781 214.902344 114.195312 214.902344 111.4375 "/>
<path fill-rule="evenodd" fill="rgb(0%, 0%, 0%)" fill-opacity="1" d="M 215.898438 111.4375 C 215.898438 108.132812 213.21875 105.453125 209.914062 105.453125 C 206.605469 105.453125 203.925781 108.132812 203.925781 111.4375 C 203.925781 114.746094 206.605469 117.425781 209.914062 117.425781 C 213.21875 117.425781 215.898438 114.746094 215.898438 111.4375 M 213.902344 111.4375 C 213.902344 109.234375 212.117188 107.449219 209.914062 107.449219 C 207.707031 107.449219 205.921875 109.234375 205.921875 111.4375 C 205.921875 113.644531 207.707031 115.429688 209.914062 115.429688 C 212.117188 115.429688 213.902344 113.644531 213.902344 111.4375 "/>
<path fill-rule="evenodd" fill="rgb(100%, 0%, 0%)" fill-opacity="1" d="M 187.964844 170.300781 C 187.964844 167.546875 185.730469 165.3125 182.976562 165.3125 C 180.222656 165.3125 177.988281 167.546875 177.988281 170.300781 C 177.988281 173.054688 180.222656 175.289062 182.976562 175.289062 C 185.730469 175.289062 187.964844 173.054688 187.964844 170.300781 "/>
<path fill-rule="evenodd" fill="rgb(0%, 0%, 0%)" fill-opacity="1" d="M 188.960938 170.300781 C 188.960938 166.996094 186.28125 164.316406 182.976562 164.316406 C 179.667969 164.316406 176.988281 166.996094 176.988281 170.300781 C 176.988281 173.609375 179.667969 176.289062 182.976562 176.289062 C 186.28125 176.289062 188.960938 173.609375 188.960938 170.300781 M 186.964844 170.300781 C 186.964844 168.097656 185.179688 166.3125 182.976562 166.3125 C 180.773438 166.3125 178.984375 168.097656 178.984375 170.300781 C 178.984375 172.503906 180.773438 174.292969 182.976562 174.292969 C 185.179688 174.292969 186.964844 172.503906 186.964844 170.300781 "/>
<path fill-rule="evenodd" fill="rgb(0%, 54.499817%, 54.499817%)" fill-opacity="1" d="M 207.917969 216.195312 C 207.917969 213.4375 205.683594 211.207031 202.929688 211.207031 C 200.175781 211.207031 197.941406 213.4375 197.941406 216.195312 C 197.941406 218.949219 200.175781 221.183594 202.929688 221.183594 C 205.683594 221.183594 207.917969 218.949219 207.917969 216.195312 "/>
<path fill-rule="evenodd" fill="rgb(0%, 0%, 0%)" fill-opacity="1" d="M 208.914062 216.195312 C 208.914062 212.886719 206.234375 210.207031 202.929688 210.207031 C 199.621094 210.207031 196.941406 212.886719 196.941406 216.195312 C 196.941406 219.5 199.621094 222.179688 202.929688 222.179688 C 206.234375 222.179688 208.914062 219.5 208.914062 216.195312 M 206.917969 216.195312 C 206.917969 213.988281 205.132812 212.203125 202.929688 212.203125 C 200.726562 212.203125 198.9375 213.988281 198.9375 216.195312 C 198.9375 218.398438 200.726562 220.183594 202.929688 220.183594 C 205.132812 220.183594 206.917969 218.398438 206.917969 216.195312 "/>
<path fill-rule="evenodd" fill="rgb(0%, 0%, 54.499817%)" fill-opacity="1" d="M 127.105469 249.117188 C 127.105469 246.363281 124.871094 244.128906 122.117188 244.128906 C 119.363281 244.128906 117.128906 246.363281 117.128906 249.117188 C 117.128906 251.871094 119.363281 254.105469 122.117188 254.105469 C 124.871094 254.105469 127.105469 251.871094 127.105469 249.117188 "/>
<g clip-path="url(#clip-8)">
<path fill-rule="evenodd" fill="rgb(0%, 0%, 0%)" fill-opacity="1" d="M 128.105469 249.117188 C 128.105469 245.8125 125.425781 243.132812 122.117188 243.132812 C 118.8125 243.132812 116.132812 245.8125 116.132812 249.117188 C 116.132812 252.421875 118.8125 255.101562 122.117188 255.101562 C 125.425781 255.101562 128.105469 252.421875 128.105469 249.117188 M 126.109375 249.117188 C 126.109375 246.914062 124.320312 245.125 122.117188 245.125 C 119.914062 245.125 118.128906 246.914062 118.128906 249.117188 C 118.128906 251.320312 119.914062 253.109375 122.117188 253.109375 C 124.320312 253.109375 126.109375 251.320312 126.109375 249.117188 "/>
</g>
<path fill-rule="evenodd" fill="rgb(0%, 39.199829%, 0%)" fill-opacity="1" d="M 36.320312 197.238281 C 36.320312 194.484375 34.085938 192.25 31.332031 192.25 C 28.574219 192.25 26.34375 194.484375 26.34375 197.238281 C 26.34375 199.992188 28.574219 202.226562 31.332031 202.226562 C 34.085938 202.226562 36.320312 199.992188 36.320312 197.238281 "/>
<path fill-rule="evenodd" fill="rgb(0%, 0%, 0%)" fill-opacity="1" d="M 37.316406 197.238281 C 37.316406 193.933594 34.636719 191.253906 31.332031 191.253906 C 28.023438 191.253906 25.34375 193.933594 25.34375 197.238281 C 25.34375 200.542969 28.023438 203.222656 31.332031 203.222656 C 34.636719 203.222656 37.316406 200.542969 37.316406 197.238281 M 35.320312 197.238281 C 35.320312 195.035156 33.535156 193.246094 31.332031 193.246094 C 29.125 193.246094 27.339844 195.035156 27.339844 197.238281 C 27.339844 199.441406 29.125 201.230469 31.332031 201.230469 C 33.535156 201.230469 35.320312 199.441406 35.320312 197.238281 "/>
<path fill-rule="evenodd" fill="rgb(0%, 0%, 54.499817%)" fill-opacity="1" d="M 40.308594 94.480469 C 40.308594 91.722656 38.074219 89.492188 35.320312 89.492188 C 32.566406 89.492188 30.332031 91.722656 30.332031 94.480469 C 30.332031 97.234375 32.566406 99.46875 35.320312 99.46875 C 38.074219 99.46875 40.308594 97.234375 40.308594 94.480469 "/>
<path fill-rule="evenodd" fill="rgb(0%, 0%, 0%)" fill-opacity="1" d="M 41.308594 94.480469 C 41.308594 91.171875 38.628906 88.492188 35.320312 88.492188 C 32.015625 88.492188 29.335938 91.171875 29.335938 94.480469 C 29.335938 97.785156 32.015625 100.464844 35.320312 100.464844 C 38.628906 100.464844 41.308594 97.785156 41.308594 94.480469 M 39.3125 94.480469 C 39.3125 92.273438 37.523438 90.488281 35.320312 90.488281 C 33.117188 90.488281 31.332031 92.273438 31.332031 94.480469 C 31.332031 96.683594 33.117188 98.46875 35.320312 98.46875 C 37.523438 98.46875 39.3125 96.683594 39.3125 94.480469 "/>
<path fill-rule="evenodd" fill="rgb(100%, 0%, 0%)" fill-opacity="1" d="M 90.191406 74.527344 C 90.191406 71.769531 87.957031 69.539062 85.203125 69.539062 C 82.449219 69.539062 80.214844 71.769531 80.214844 74.527344 C 80.214844 77.28125 82.449219 79.515625 85.203125 79.515625 C 87.957031 79.515625 90.191406 77.28125 90.191406 74.527344 "/>
<path fill-rule="evenodd" fill="rgb(0%, 0%, 0%)" fill-opacity="1" d="M 91.191406 74.527344 C 91.191406 71.21875 88.511719 68.539062 85.203125 68.539062 C 81.898438 68.539062 79.21875 71.21875 79.21875 74.527344 C 79.21875 77.832031 81.898438 80.511719 85.203125 80.511719 C 88.511719 80.511719 91.191406 77.832031 91.191406 74.527344 M 89.195312 74.527344 C 89.195312 72.320312 87.410156 70.535156 85.203125 70.535156 C 83 70.535156 81.214844 72.320312 81.214844 74.527344 C 81.214844 76.730469 83 78.515625 85.203125 78.515625 C 87.410156 78.515625 89.195312 76.730469 89.195312 74.527344 "/>
<path fill-rule="evenodd" fill="rgb(0%, 0%, 54.499817%)" fill-opacity="1" d="M 168.011719 124.410156 C 168.011719 121.65625 165.777344 119.421875 163.023438 119.421875 C 160.269531 119.421875 158.035156 121.65625 158.035156 124.410156 C 158.035156 127.164062 160.269531 129.398438 163.023438 129.398438 C 165.777344 129.398438 168.011719 127.164062 168.011719 124.410156 "/>
<path fill-rule="evenodd" fill="rgb(0%, 0%, 0%)" fill-opacity="1" d="M 169.007812 124.410156 C 169.007812 121.101562 166.328125 118.421875 163.023438 118.421875 C 159.714844 118.421875 157.035156 121.101562 157.035156 124.410156 C 157.035156 127.714844 159.714844 130.394531 163.023438 130.394531 C 166.328125 130.394531 169.007812 127.714844 169.007812 124.410156 M 167.011719 124.410156 C 167.011719 122.203125 165.226562 120.417969 163.023438 120.417969 C 160.820312 120.417969 159.03125 122.203125 159.03125 124.410156 C 159.03125 126.613281 160.820312 128.398438 163.023438 128.398438 C 165.226562 128.398438 167.011719 126.613281 167.011719 124.410156 "/>
<path fill-rule="evenodd" fill="rgb(0%, 39.199829%, 0%)" fill-opacity="1" d="M 92.1875 172.296875 C 92.1875 169.542969 89.953125 167.308594 87.199219 167.308594 C 84.445312 167.308594 82.210938 169.542969 82.210938 172.296875 C 82.210938 175.050781 84.445312 177.285156 87.199219 177.285156 C 89.953125 177.285156 92.1875 175.050781 92.1875 172.296875 "/>
<path fill-rule="evenodd" fill="rgb(0%, 0%, 0%)" fill-opacity="1" d="M 93.1875 172.296875 C 93.1875 168.992188 90.507812 166.3125 87.199219 166.3125 C 83.894531 166.3125 81.214844 168.992188 81.214844 172.296875 C 81.214844 175.601562 83.894531 178.28125 87.199219 178.28125 C 90.507812 178.28125 93.1875 175.601562 93.1875 172.296875 M 91.191406 172.296875 C 91.191406 170.09375 89.402344 168.304688 87.199219 168.304688 C 84.996094 168.304688 83.210938 170.09375 83.210938 172.296875 C 83.210938 174.5 84.996094 176.289062 87.199219 176.289062 C 89.402344 176.289062 91.191406 174.5 91.191406 172.296875 "/>
<path fill-rule="evenodd" fill="rgb(100%, 0%, 0%)" fill-opacity="1" d="M 43.300781 67.542969 C 43.300781 64.789062 41.070312 62.554688 38.3125 62.554688 C 35.558594 62.554688 33.324219 64.789062 33.324219 67.542969 C 33.324219 70.296875 35.558594 72.53125 38.3125 72.53125 C 41.070312 72.53125 43.300781 70.296875 43.300781 67.542969 "/>
<path fill-rule="evenodd" fill="rgb(0%, 0%, 0%)" fill-opacity="1" d="M 44.300781 67.542969 C 44.300781 64.234375 41.621094 61.554688 38.3125 61.554688 C 35.007812 61.554688 32.328125 64.234375 32.328125 67.542969 C 32.328125 70.847656 35.007812 73.527344 38.3125 73.527344 C 41.621094 73.527344 44.300781 70.847656 44.300781 67.542969 M 42.304688 67.542969 C 42.304688 65.339844 40.519531 63.550781 38.3125 63.550781 C 36.109375 63.550781 34.324219 65.339844 34.324219 67.542969 C 34.324219 69.746094 36.109375 71.53125 38.3125 71.53125 C 40.519531 71.53125 42.304688 69.746094 42.304688 67.542969 "/>
<path fill-rule="evenodd" fill="rgb(100%, 0%, 0%)" fill-opacity="1" d="M 102.164062 36.613281 C 102.164062 33.859375 99.929688 31.625 97.175781 31.625 C 94.421875 31.625 92.1875 33.859375 92.1875 36.613281 C 92.1875 39.367188 94.421875 41.601562 97.175781 41.601562 C 99.929688 41.601562 102.164062 39.367188 102.164062 36.613281 "/>
<path fill-rule="evenodd" fill="rgb(0%, 0%, 0%)" fill-opacity="1" d="M 103.164062 36.613281 C 103.164062 33.308594 100.484375 30.628906 97.175781 30.628906 C 93.871094 30.628906 91.191406 33.308594 91.191406 36.613281 C 91.191406 39.921875 93.871094 42.601562 97.175781 42.601562 C 100.484375 42.601562 103.164062 39.921875 103.164062 36.613281 M 101.167969 36.613281 C 101.167969 34.410156 99.378906 32.625 97.175781 32.625 C 94.972656 32.625 93.1875 34.410156 93.1875 36.613281 C 93.1875 38.816406 94.972656 40.605469 97.175781 40.605469 C 99.378906 40.605469 101.167969 38.816406 101.167969 36.613281 "/>
<path fill-rule="evenodd" fill="rgb(100%, 0%, 0%)" fill-opacity="1" d="M 156.039062 19.652344 C 156.039062 16.898438 153.804688 14.664062 151.050781 14.664062 C 148.296875 14.664062 146.0625 16.898438 146.0625 19.652344 C 146.0625 22.410156 148.296875 24.640625 151.050781 24.640625 C 153.804688 24.640625 156.039062 22.410156 156.039062 19.652344 "/>
<path fill-rule="evenodd" fill="rgb(0%, 0%, 0%)" fill-opacity="1" d="M 157.035156 19.652344 C 157.035156 16.347656 154.355469 13.667969 151.050781 13.667969 C 147.742188 13.667969 145.0625 16.347656 145.0625 19.652344 C 145.0625 22.960938 147.742188 25.640625 151.050781 25.640625 C 154.355469 25.640625 157.035156 22.960938 157.035156 19.652344 M 155.039062 19.652344 C 155.039062 17.449219 153.253906 15.664062 151.050781 15.664062 C 148.847656 15.664062 147.058594 17.449219 147.058594 19.652344 C 147.058594 21.859375 148.847656 23.644531 151.050781 23.644531 C 153.253906 23.644531 155.039062 21.859375 155.039062 19.652344 "/>
<path fill-rule="evenodd" fill="rgb(100%, 0%, 0%)" fill-opacity="1" d="M 197.941406 93.480469 C 197.941406 90.726562 195.707031 88.492188 192.953125 88.492188 C 190.199219 88.492188 187.964844 90.726562 187.964844 93.480469 C 187.964844 96.234375 190.199219 98.46875 192.953125 98.46875 C 195.707031 98.46875 197.941406 96.234375 197.941406 93.480469 "/>
<path fill-rule="evenodd" fill="rgb(0%, 0%, 0%)" fill-opacity="1" d="M 198.9375 93.480469 C 198.9375 90.175781 196.257812 87.496094 192.953125 87.496094 C 189.644531 87.496094 186.964844 90.175781 186.964844 93.480469 C 186.964844 96.789062 189.644531 99.46875 192.953125 99.46875 C 196.257812 99.46875 198.9375 96.789062 198.9375 93.480469 M 196.941406 93.480469 C 196.941406 91.277344 195.15625 89.492188 192.953125 89.492188 C 190.75 89.492188 188.960938 91.277344 188.960938 93.480469 C 188.960938 95.683594 190.75 97.472656 192.953125 97.472656 C 195.15625 97.472656 196.941406 95.683594 196.941406 93.480469 "/>
<path fill-rule="evenodd" fill="rgb(100%, 0%, 0%)" fill-opacity="1" d="M 179.984375 199.234375 C 179.984375 196.480469 177.75 194.246094 174.996094 194.246094 C 172.238281 194.246094 170.007812 196.480469 170.007812 199.234375 C 170.007812 201.988281 172.238281 204.222656 174.996094 204.222656 C 177.75 204.222656 179.984375 201.988281 179.984375 199.234375 "/>
<path fill-rule="evenodd" fill="rgb(0%, 0%, 0%)" fill-opacity="1" d="M 180.980469 199.234375 C 180.980469 195.929688 178.300781 193.246094 174.996094 193.246094 C 171.6875 193.246094 169.007812 195.929688 169.007812 199.234375 C 169.007812 202.539062 171.6875 205.21875 174.996094 205.21875 C 178.300781 205.21875 180.980469 202.539062 180.980469 199.234375 M 178.984375 199.234375 C 178.984375 197.03125 177.199219 195.242188 174.996094 195.242188 C 172.789062 195.242188 171.003906 197.03125 171.003906 199.234375 C 171.003906 201.4375 172.789062 203.222656 174.996094 203.222656 C 177.199219 203.222656 178.984375 201.4375 178.984375 199.234375 "/>
<path fill-rule="evenodd" fill="rgb(59.999084%, 19.599915%, 79.998779%)" fill-opacity="1" d="M 195.945312 249.117188 C 195.945312 246.363281 193.710938 244.128906 190.957031 244.128906 C 188.203125 244.128906 185.96875 246.363281 185.96875 249.117188 C 185.96875 251.871094 188.203125 254.105469 190.957031 254.105469 C 193.710938 254.105469 195.945312 251.871094 195.945312 249.117188 "/>
<g clip-path="url(#clip-9)">
<path fill-rule="evenodd" fill="rgb(0%, 0%, 0%)" fill-opacity="1" d="M 196.941406 249.117188 C 196.941406 245.8125 194.261719 243.132812 190.957031 243.132812 C 187.652344 243.132812 184.972656 245.8125 184.972656 249.117188 C 184.972656 252.421875 187.652344 255.101562 190.957031 255.101562 C 194.261719 255.101562 196.941406 252.421875 196.941406 249.117188 M 194.949219 249.117188 C 194.949219 246.914062 193.160156 245.125 190.957031 245.125 C 188.753906 245.125 186.964844 246.914062 186.964844 249.117188 C 186.964844 251.320312 188.753906 253.109375 190.957031 253.109375 C 193.160156 253.109375 194.949219 251.320312 194.949219 249.117188 "/>
</g>
<path fill-rule="evenodd" fill="rgb(100%, 0%, 0%)" fill-opacity="1" d="M 71.238281 229.164062 C 71.238281 226.410156 69.003906 224.175781 66.25 224.175781 C 63.496094 224.175781 61.261719 226.410156 61.261719 229.164062 C 61.261719 231.917969 63.496094 234.152344 66.25 234.152344 C 69.003906 234.152344 71.238281 231.917969 71.238281 229.164062 "/>
<path fill-rule="evenodd" fill="rgb(0%, 0%, 0%)" fill-opacity="1" d="M 72.234375 229.164062 C 72.234375 225.859375 69.554688 223.179688 66.25 223.179688 C 62.941406 223.179688 60.261719 225.859375 60.261719 229.164062 C 60.261719 232.46875 62.941406 235.148438 66.25 235.148438 C 69.554688 235.148438 72.234375 232.46875 72.234375 229.164062 M 70.238281 229.164062 C 70.238281 226.960938 68.453125 225.171875 66.25 225.171875 C 64.042969 225.171875 62.257812 226.960938 62.257812 229.164062 C 62.257812 231.367188 64.042969 233.15625 66.25 233.15625 C 68.453125 233.15625 70.238281 231.367188 70.238281 229.164062 "/>
<path fill-rule="evenodd" fill="rgb(59.999084%, 19.599915%, 79.998779%)" fill-opacity="1" d="M 33.324219 127.402344 C 33.324219 124.648438 31.09375 122.414062 28.335938 122.414062 C 25.582031 122.414062 23.347656 124.648438 23.347656 127.402344 C 23.347656 130.15625 25.582031 132.390625 28.335938 132.390625 C 31.09375 132.390625 33.324219 130.15625 33.324219 127.402344 "/>
<path fill-rule="evenodd" fill="rgb(0%, 0%, 0%)" fill-opacity="1" d="M 34.324219 127.402344 C 34.324219 124.09375 31.644531 121.414062 28.335938 121.414062 C 25.03125 121.414062 22.351562 124.09375 22.351562 127.402344 C 22.351562 130.707031 25.03125 133.386719 28.335938 133.386719 C 31.644531 133.386719 34.324219 130.707031 34.324219 127.402344 M 32.328125 127.402344 C 32.328125 125.199219 30.542969 123.410156 28.335938 123.410156 C 26.132812 123.410156 24.347656 125.199219 24.347656 127.402344 C 24.347656 129.605469 26.132812 131.390625 28.335938 131.390625 C 30.542969 131.390625 32.328125 129.605469 32.328125 127.402344 "/>
<path fill-rule="evenodd" fill="rgb(100%, 0%, 0%)" fill-opacity="1" d="M 86.203125 101.460938 C 86.203125 98.707031 83.96875 96.472656 81.214844 96.472656 C 78.460938 96.472656 76.226562 98.707031 76.226562 101.460938 C 76.226562 104.21875 78.460938 106.449219 81.214844 106.449219 C 83.96875 106.449219 86.203125 104.21875 86.203125 101.460938 "/>
<path fill-rule="evenodd" fill="rgb(0%, 0%, 0%)" fill-opacity="1" d="M 87.199219 101.460938 C 87.199219 98.15625 84.519531 95.476562 81.214844 95.476562 C 77.90625 95.476562 75.226562 98.15625 75.226562 101.460938 C 75.226562 104.769531 77.90625 107.449219 81.214844 107.449219 C 84.519531 107.449219 87.199219 104.769531 87.199219 101.460938 M 85.203125 101.460938 C 85.203125 99.257812 83.417969 97.472656 81.214844 97.472656 C 79.011719 97.472656 77.222656 99.257812 77.222656 101.460938 C 77.222656 103.667969 79.011719 105.453125 81.214844 105.453125 C 83.417969 105.453125 85.203125 103.667969 85.203125 101.460938 "/>
<path fill-rule="evenodd" fill="rgb(59.999084%, 19.599915%, 79.998779%)" fill-opacity="1" d="M 145.0625 58.5625 C 145.0625 55.808594 142.832031 53.574219 140.074219 53.574219 C 137.320312 53.574219 135.085938 55.808594 135.085938 58.5625 C 135.085938 61.316406 137.320312 63.550781 140.074219 63.550781 C 142.832031 63.550781 145.0625 61.316406 145.0625 58.5625 "/>
<path fill-rule="evenodd" fill="rgb(0%, 0%, 0%)" fill-opacity="1" d="M 146.0625 58.5625 C 146.0625 55.257812 143.382812 52.578125 140.074219 52.578125 C 136.769531 52.578125 134.089844 55.257812 134.089844 58.5625 C 134.089844 61.871094 136.769531 64.550781 140.074219 64.550781 C 143.382812 64.550781 146.0625 61.871094 146.0625 58.5625 M 144.066406 58.5625 C 144.066406 56.359375 142.28125 54.574219 140.074219 54.574219 C 137.871094 54.574219 136.085938 56.359375 136.085938 58.5625 C 136.085938 60.765625 137.871094 62.554688 140.074219 62.554688 C 142.28125 62.554688 144.066406 60.765625 144.066406 58.5625 "/>
<path fill-rule="evenodd" fill="rgb(0%, 74.899292%, 100%)" fill-opacity="1" d="M 114.136719 208.210938 C 114.136719 205.457031 111.902344 203.222656 109.148438 203.222656 C 106.394531 203.222656 104.160156 205.457031 104.160156 208.210938 C 104.160156 210.96875 106.394531 213.199219 109.148438 213.199219 C 111.902344 213.199219 114.136719 210.96875 114.136719 208.210938 "/>
<path fill-rule="evenodd" fill="rgb(0%, 0%, 0%)" fill-opacity="1" d="M 115.132812 208.210938 C 115.132812 204.90625 112.453125 202.226562 109.148438 202.226562 C 105.84375 202.226562 103.164062 204.90625 103.164062 208.210938 C 103.164062 211.519531 105.84375 214.199219 109.148438 214.199219 C 112.453125 214.199219 115.132812 211.519531 115.132812 208.210938 M 113.140625 208.210938 C 113.140625 206.007812 111.351562 204.222656 109.148438 204.222656 C 106.945312 204.222656 105.15625 206.007812 105.15625 208.210938 C 105.15625 210.417969 106.945312 212.203125 109.148438 212.203125 C 111.351562 212.203125 113.140625 210.417969 113.140625 208.210938 "/>
<path fill-rule="evenodd" fill="rgb(59.999084%, 19.599915%, 79.998779%)" fill-opacity="1" d="M 150.050781 162.320312 C 150.050781 159.566406 147.820312 157.332031 145.0625 157.332031 C 142.308594 157.332031 140.074219 159.566406 140.074219 162.320312 C 140.074219 165.074219 142.308594 167.308594 145.0625 167.308594 C 147.820312 167.308594 150.050781 165.074219 150.050781 162.320312 "/>
<path fill-rule="evenodd" fill="rgb(0%, 0%, 0%)" fill-opacity="1" d="M 151.050781 162.320312 C 151.050781 159.015625 148.371094 156.335938 145.0625 156.335938 C 141.757812 156.335938 139.078125 159.015625 139.078125 162.320312 C 139.078125 165.625 141.757812 168.304688 145.0625 168.304688 C 148.371094 168.304688 151.050781 165.625 151.050781 162.320312 M 149.054688 162.320312 C 149.054688 160.117188 147.269531 158.328125 145.0625 158.328125 C 142.859375 158.328125 141.074219 160.117188 141.074219 162.320312 C 141.074219 164.523438 142.859375 166.3125 145.0625 166.3125 C 147.269531 166.3125 149.054688 164.523438 149.054688 162.320312 "/>
<path fill-rule="evenodd" fill="rgb(100%, 0%, 0%)" fill-opacity="1" d="M 57.269531 174.292969 C 57.269531 171.539062 55.035156 169.304688 52.28125 169.304688 C 49.527344 169.304688 47.292969 171.539062 47.292969 174.292969 C 47.292969 177.046875 49.527344 179.28125 52.28125 179.28125 C 55.035156 179.28125 57.269531 177.046875 57.269531 174.292969 "/>
<path fill-rule="evenodd" fill="rgb(0%, 0%, 0%)" fill-opacity="1" d="M 58.265625 174.292969 C 58.265625 170.984375 55.585938 168.304688 52.28125 168.304688 C 48.976562 168.304688 46.296875 170.984375 46.296875 174.292969 C 46.296875 177.597656 48.976562 180.277344 52.28125 180.277344 C 55.585938 180.277344 58.265625 177.597656 58.265625 174.292969 M 56.273438 174.292969 C 56.273438 172.089844 54.484375 170.300781 52.28125 170.300781 C 50.078125 170.300781 48.289062 172.089844 48.289062 174.292969 C 48.289062 176.496094 50.078125 178.28125 52.28125 178.28125 C 54.484375 178.28125 56.273438 176.496094 56.273438 174.292969 "/>
</svg>
