<?xml version="1.0" encoding="UTF-8"?>
<svg xmlns="http://www.w3.org/2000/svg" xmlns:xlink="http://www.w3.org/1999/xlink" width="223.4" height="256.4" viewBox="0 0 223.4 256.4">
<defs>
<clipPath id="clip-0">
<path clip-rule="nonzero" d="M 177 0.0429688 L 190 0.0429688 L 190 13 L 177 13 Z M 177 0.0429688 "/>
</clipPath>
<clipPath id="clip-1">
<path clip-rule="nonzero" d="M 210 105 L 222.800781 105 L 222.800781 118 L 210 118 Z M 210 105 "/>
</clipPath>
<clipPath id="clip-2">
<path clip-rule="nonzero" d="M 122 243 L 135 243 L 135 255.757812 L 122 255.757812 Z M 122 243 "/>
</clipPath>
<clipPath id="clip-3">
<path clip-rule="nonzero" d="M 191 243 L 204 243 L 204 255.757812 L 191 255.757812 Z M 191 243 "/>
</clipPath>
</defs>
<path fill="none" stroke-width="0.4" stroke-linecap="butt" stroke-linejoin="round" stroke="rgb(0%, 0%, 0%)" stroke-opacity="1" stroke-miterlimit="10" d="M 168.999754 219.998903 L 137.998747 215.001141 " transform="matrix(0.997321, 0, 0, -0.997321, -46.175982, 288.968214)"/>
<path fill="none" stroke-width="0.4" stroke-linecap="butt" stroke-linejoin="round" stroke="rgb(0%, 0%, 0%)" stroke-opacity="1" stroke-miterlimit="10" d="M 118.998635 60.000022 L 83.998635 91.999799 " transform="matrix(0.997321, 0, 0, -0.997321, -46.175982, 288.968214)"/>
<path fill="none" stroke-width="0.4" stroke-linecap="butt" stroke-linejoin="round" stroke="rgb(0%, 0%, 0%)" stroke-opacity="1" stroke-miterlimit="10" d="M 118.998635 60.000022 L 175.000201 40.001141 " transform="matrix(0.997321, 0, 0, -0.997321, -46.175982, 288.968214)"/>
<path fill="none" stroke-width="0.4" stroke-linecap="butt" stroke-linejoin="round" stroke="rgb(0%, 0%, 0%)" stroke-opacity="1" stroke-miterlimit="10" d="M 118.998635 60.000022 L 152.001097 56.999799 " transform="matrix(0.997321, 0, 0, -0.997321, -46.175982, 288.968214)"/>
<path fill="none" stroke-width="0.4" stroke-linecap="butt" stroke-linejoin="round" stroke="rgb(0%, 0%, 0%)" stroke-opacity="1" stroke-miterlimit="10" d="M 118.998635 60.000022 L 115.998411 81.001589 " transform="matrix(0.997321, 0, 0, -0.997321, -46.175982, 288.968214)"/>
<path fill="none" stroke-width="0.4" stroke-linecap="butt" stroke-linejoin="round" stroke="rgb(0%, 0%, 0%)" stroke-opacity="1" stroke-miterlimit="10" d="M 53.001544 209.000694 L 80.998411 161.999799 " transform="matrix(0.997321, 0, 0, -0.997321, -46.175982, 288.968214)"/>
<path fill="none" stroke-width="0.4" stroke-linecap="butt" stroke-linejoin="round" stroke="rgb(0%, 0%, 0%)" stroke-opacity="1" stroke-miterlimit="10" d="M 53.001544 209.000694 L 88.001544 194.998344 " transform="matrix(0.997321, 0, 0, -0.997321, -46.175982, 288.968214)"/>
<path fill="none" stroke-width="0.4" stroke-linecap="butt" stroke-linejoin="round" stroke="rgb(0%, 0%, 0%)" stroke-opacity="1" stroke-miterlimit="10" d="M 53.001544 209.000694 L 91.001768 222.000358 " transform="matrix(0.997321, 0, 0, -0.997321, -46.175982, 288.968214)"/>
<path fill="none" stroke-width="0.4" stroke-linecap="butt" stroke-linejoin="round" stroke="rgb(0%, 0%, 0%)" stroke-opacity="1" stroke-miterlimit="10" d="M 53.001544 209.000694 L 75.00188 266.999799 " transform="matrix(0.997321, 0, 0, -0.997321, -46.175982, 288.968214)"/>
<path fill="none" stroke-width="0.4" stroke-linecap="butt" stroke-linejoin="round" stroke="rgb(0%, 0%, 0%)" stroke-opacity="1" stroke-miterlimit="10" d="M 53.001544 209.000694 L 83.998635 91.999799 " transform="matrix(0.997321, 0, 0, -0.997321, -46.175982, 288.968214)"/>
<path fill="none" stroke-width="0.4" stroke-linecap="butt" stroke-linejoin="round" stroke="rgb(0%, 0%, 0%)" stroke-opacity="1" stroke-miterlimit="10" d="M 215.00188 241.00047 L 184.000873 264.998344 " transform="matrix(0.997321, 0, 0, -0.997321, -46.175982, 288.968214)"/>
<path fill="none" stroke-width="0.4" stroke-linecap="butt" stroke-linejoin="round" stroke="rgb(0%, 0%, 0%)" stroke-opacity="1" stroke-miterlimit="10" d="M 215.00188 241.00047 L 193.001544 231.00103 " transform="matrix(0.997321, 0, 0, -0.997321, -46.175982, 288.968214)"/>
<path fill="none" stroke-width="0.4" stroke-linecap="butt" stroke-linejoin="round" stroke="rgb(0%, 0%, 0%)" stroke-opacity="1" stroke-miterlimit="10" d="M 215.00188 241.00047 L 213.999194 221.001589 " transform="matrix(0.997321, 0, 0, -0.997321, -46.175982, 288.968214)"/>
<path fill="none" stroke-width="0.4" stroke-linecap="butt" stroke-linejoin="round" stroke="rgb(0%, 0%, 0%)" stroke-opacity="1" stroke-miterlimit="10" d="M 215.00188 241.00047 L 241.001209 222.000358 " transform="matrix(0.997321, 0, 0, -0.997321, -46.175982, 288.968214)"/>
<path fill="none" stroke-width="0.4" stroke-linecap="butt" stroke-linejoin="round" stroke="rgb(0%, 0%, 0%)" stroke-opacity="1" stroke-miterlimit="10" d="M 215.00188 241.00047 L 239.998523 244.000694 " transform="matrix(0.997321, 0, 0, -0.997321, -46.175982, 288.968214)"/>
<path fill="none" stroke-width="0.4" stroke-linecap="butt" stroke-linejoin="round" stroke="rgb(0%, 0%, 0%)" stroke-opacity="1" stroke-miterlimit="10" d="M 215.00188 241.00047 L 203.999754 270.000022 " transform="matrix(0.997321, 0, 0, -0.997321, -46.175982, 288.968214)"/>
<path fill="none" stroke-width="0.4" stroke-linecap="butt" stroke-linejoin="round" stroke="rgb(0%, 0%, 0%)" stroke-opacity="1" stroke-miterlimit="10" d="M 263.001544 177.999687 L 245.99897 196.00103 " transform="matrix(0.997321, 0, 0, -0.997321, -46.175982, 288.968214)"/>
<path fill="none" stroke-width="0.4" stroke-linecap="butt" stroke-linejoin="round" stroke="rgb(0%, 0%, 0%)" stroke-opacity="1" stroke-miterlimit="10" d="M 263.001544 177.999687 L 238.000985 152.999127 " transform="matrix(0.997321, 0, 0, -0.997321, -46.175982, 288.968214)"/>
<path fill="none" stroke-width="0.4" stroke-linecap="butt" stroke-linejoin="round" stroke="rgb(0%, 0%, 0%)" stroke-opacity="1" stroke-miterlimit="10" d="M 216.000649 165.000022 L 175.000201 197.998568 " transform="matrix(0.997321, 0, 0, -0.997321, -46.175982, 288.968214)"/>
<path fill="none" stroke-width="0.4" stroke-linecap="butt" stroke-linejoin="round" stroke="rgb(0%, 0%, 0%)" stroke-opacity="1" stroke-miterlimit="10" d="M 216.000649 165.000022 L 162.000537 177.000918 " transform="matrix(0.997321, 0, 0, -0.997321, -46.175982, 288.968214)"/>
<path fill="none" stroke-width="0.4" stroke-linecap="butt" stroke-linejoin="round" stroke="rgb(0%, 0%, 0%)" stroke-opacity="1" stroke-miterlimit="10" d="M 216.000649 165.000022 L 197.999306 126.999799 " transform="matrix(0.997321, 0, 0, -0.997321, -46.175982, 288.968214)"/>
<path fill="none" stroke-width="0.4" stroke-linecap="butt" stroke-linejoin="round" stroke="rgb(0%, 0%, 0%)" stroke-opacity="1" stroke-miterlimit="10" d="M 216.000649 165.000022 L 238.000985 152.999127 " transform="matrix(0.997321, 0, 0, -0.997321, -46.175982, 288.968214)"/>
<path fill="none" stroke-width="0.4" stroke-linecap="butt" stroke-linejoin="round" stroke="rgb(0%, 0%, 0%)" stroke-opacity="1" stroke-miterlimit="10" d="M 216.000649 165.000022 L 245.99897 196.00103 " transform="matrix(0.997321, 0, 0, -0.997321, -46.175982, 288.968214)"/>
<path fill="none" stroke-width="0.4" stroke-linecap="butt" stroke-linejoin="round" stroke="rgb(0%, 0%, 0%)" stroke-opacity="1" stroke-miterlimit="10" d="M 216.000649 165.000022 L 213.999194 221.001589 " transform="matrix(0.997321, 0, 0, -0.997321, -46.175982, 288.968214)"/>
<path fill="none" stroke-width="0.4" stroke-linecap="butt" stroke-linejoin="round" stroke="rgb(0%, 0%, 0%)" stroke-opacity="1" stroke-miterlimit="10" d="M 213.999194 221.001589 L 245.99897 196.00103 " transform="matrix(0.997321, 0, 0, -0.997321, -46.175982, 288.968214)"/>
<path fill="none" stroke-width="0.4" stroke-linecap="butt" stroke-linejoin="round" stroke="rgb(0%, 0%, 0%)" stroke-opacity="1" stroke-miterlimit="10" d="M 213.999194 221.001589 L 241.001209 222.000358 " transform="matrix(0.997321, 0, 0, -0.997321, -46.175982, 288.968214)"/>
<path fill="none" stroke-width="0.4" stroke-linecap="butt" stroke-linejoin="round" stroke="rgb(0%, 0%, 0%)" stroke-opacity="1" stroke-miterlimit="10" d="M 213.999194 221.001589 L 193.001544 231.00103 " transform="matrix(0.997321, 0, 0, -0.997321, -46.175982, 288.968214)"/>
<path fill="none" stroke-width="0.4" stroke-linecap="butt" stroke-linejoin="round" stroke="rgb(0%, 0%, 0%)" stroke-opacity="1" stroke-miterlimit="10" d="M 213.999194 221.001589 L 175.000201 197.998568 " transform="matrix(0.997321, 0, 0, -0.997321, -46.175982, 288.968214)"/>
<path fill="none" stroke-width="0.4" stroke-linecap="butt" stroke-linejoin="round" stroke="rgb(0%, 0%, 0%)" stroke-opacity="1" stroke-miterlimit="10" d="M 213.999194 221.001589 L 216.000649 165.000022 " transform="matrix(0.997321, 0, 0, -0.997321, -46.175982, 288.968214)"/>
<path fill="none" stroke-width="0.4" stroke-linecap="butt" stroke-linejoin="round" stroke="rgb(0%, 0%, 0%)" stroke-opacity="1" stroke-miterlimit="10" d="M 239.998523 244.000694 L 229.999082 282.999687 " transform="matrix(0.997321, 0, 0, -0.997321, -46.175982, 288.968214)"/>
<path fill="none" stroke-width="0.4" stroke-linecap="butt" stroke-linejoin="round" stroke="rgb(0%, 0%, 0%)" stroke-opacity="1" stroke-miterlimit="10" d="M 239.998523 244.000694 L 203.999754 270.000022 " transform="matrix(0.997321, 0, 0, -0.997321, -46.175982, 288.968214)"/>
<path fill="none" stroke-width="0.4" stroke-linecap="butt" stroke-linejoin="round" stroke="rgb(0%, 0%, 0%)" stroke-opacity="1" stroke-miterlimit="10" d="M 239.998523 244.000694 L 241.001209 222.000358 " transform="matrix(0.997321, 0, 0, -0.997321, -46.175982, 288.968214)"/>
<path fill="none" stroke-width="0.4" stroke-linecap="butt" stroke-linejoin="round" stroke="rgb(0%, 0%, 0%)" stroke-opacity="1" stroke-miterlimit="10" d="M 241.001209 222.000358 L 239.998523 244.000694 " transform="matrix(0.997321, 0, 0, -0.997321, -46.175982, 288.968214)"/>
<path fill="none" stroke-width="0.4" stroke-linecap="butt" stroke-linejoin="round" stroke="rgb(0%, 0%, 0%)" stroke-opacity="1" stroke-miterlimit="10" d="M 241.001209 222.000358 L 245.99897 196.00103 " transform="matrix(0.997321, 0, 0, -0.997321, -46.175982, 288.968214)"/>
<path fill="none" stroke-width="0.4" stroke-linecap="butt" stroke-linejoin="round" stroke="rgb(0%, 0%, 0%)" stroke-opacity="1" stroke-miterlimit="10" d="M 245.99897 196.00103 L 238.000985 152.999127 " transform="matrix(0.997321, 0, 0, -0.997321, -46.175982, 288.968214)"/>
<path fill="none" stroke-width="0.4" stroke-linecap="butt" stroke-linejoin="round" stroke="rgb(0%, 0%, 0%)" stroke-opacity="1" stroke-miterlimit="10" d="M 245.99897 196.00103 L 241.001209 222.000358 " transform="matrix(0.997321, 0, 0, -0.997321, -46.175982, 288.968214)"/>
<path fill="none" stroke-width="0.4" stroke-linecap="butt" stroke-linejoin="round" stroke="rgb(0%, 0%, 0%)" stroke-opacity="1" stroke-miterlimit="10" d="M 168.999754 219.998903 L 175.000201 197.998568 " transform="matrix(0.997321, 0, 0, -0.997321, -46.175982, 288.968214)"/>
<path fill="none" stroke-width="0.4" stroke-linecap="butt" stroke-linejoin="round" stroke="rgb(0%, 0%, 0%)" stroke-opacity="1" stroke-miterlimit="10" d="M 168.999754 219.998903 L 193.001544 231.00103 " transform="matrix(0.997321, 0, 0, -0.997321, -46.175982, 288.968214)"/>
<path fill="none" stroke-width="0.4" stroke-linecap="butt" stroke-linejoin="round" stroke="rgb(0%, 0%, 0%)" stroke-opacity="1" stroke-miterlimit="10" d="M 168.999754 219.998903 L 184.000873 264.998344 " transform="matrix(0.997321, 0, 0, -0.997321, -46.175982, 288.968214)"/>
<path fill="none" stroke-width="0.4" stroke-linecap="butt" stroke-linejoin="round" stroke="rgb(0%, 0%, 0%)" stroke-opacity="1" stroke-miterlimit="10" d="M 168.999754 219.998903 L 149.999642 253.001365 " transform="matrix(0.997321, 0, 0, -0.997321, -46.175982, 288.968214)"/>
<path fill="none" stroke-width="0.4" stroke-linecap="butt" stroke-linejoin="round" stroke="rgb(0%, 0%, 0%)" stroke-opacity="1" stroke-miterlimit="10" d="M 162.000537 177.000918 L 140.000201 117.000358 " transform="matrix(0.997321, 0, 0, -0.997321, -46.175982, 288.968214)"/>
<path fill="none" stroke-width="0.4" stroke-linecap="butt" stroke-linejoin="round" stroke="rgb(0%, 0%, 0%)" stroke-opacity="1" stroke-miterlimit="10" d="M 162.000537 177.000918 L 197.999306 126.999799 " transform="matrix(0.997321, 0, 0, -0.997321, -46.175982, 288.968214)"/>
<path fill="none" stroke-width="0.4" stroke-linecap="butt" stroke-linejoin="round" stroke="rgb(0%, 0%, 0%)" stroke-opacity="1" stroke-miterlimit="10" d="M 162.000537 177.000918 L 175.000201 197.998568 " transform="matrix(0.997321, 0, 0, -0.997321, -46.175982, 288.968214)"/>
<path fill="none" stroke-width="0.4" stroke-linecap="butt" stroke-linejoin="round" stroke="rgb(0%, 0%, 0%)" stroke-opacity="1" stroke-miterlimit="10" d="M 162.000537 177.000918 L 133.999754 187.999127 " transform="matrix(0.997321, 0, 0, -0.997321, -46.175982, 288.968214)"/>
<path fill="none" stroke-width="0.4" stroke-linecap="butt" stroke-linejoin="round" stroke="rgb(0%, 0%, 0%)" stroke-opacity="1" stroke-miterlimit="10" d="M 162.000537 177.000918 L 108.999194 158.000806 " transform="matrix(0.997321, 0, 0, -0.997321, -46.175982, 288.968214)"/>
<path fill="none" stroke-width="0.4" stroke-linecap="butt" stroke-linejoin="round" stroke="rgb(0%, 0%, 0%)" stroke-opacity="1" stroke-miterlimit="10" d="M 197.999306 126.999799 L 162.000537 177.000918 " transform="matrix(0.997321, 0, 0, -0.997321, -46.175982, 288.968214)"/>
<path fill="none" stroke-width="0.4" stroke-linecap="butt" stroke-linejoin="round" stroke="rgb(0%, 0%, 0%)" stroke-opacity="1" stroke-miterlimit="10" d="M 197.999306 126.999799 L 140.000201 117.000358 " transform="matrix(0.997321, 0, 0, -0.997321, -46.175982, 288.968214)"/>
<path fill="none" stroke-width="0.4" stroke-linecap="butt" stroke-linejoin="round" stroke="rgb(0%, 0%, 0%)" stroke-opacity="1" stroke-miterlimit="10" d="M 197.999306 126.999799 L 196.001768 107.000918 " transform="matrix(0.997321, 0, 0, -0.997321, -46.175982, 288.968214)"/>
<path fill="none" stroke-width="0.4" stroke-linecap="butt" stroke-linejoin="round" stroke="rgb(0%, 0%, 0%)" stroke-opacity="1" stroke-miterlimit="10" d="M 197.999306 126.999799 L 235.99953 119.001813 " transform="matrix(0.997321, 0, 0, -0.997321, -46.175982, 288.968214)"/>
<path fill="none" stroke-width="0.4" stroke-linecap="butt" stroke-linejoin="round" stroke="rgb(0%, 0%, 0%)" stroke-opacity="1" stroke-miterlimit="10" d="M 197.999306 126.999799 L 238.000985 152.999127 " transform="matrix(0.997321, 0, 0, -0.997321, -46.175982, 288.968214)"/>
<path fill="none" stroke-width="0.4" stroke-linecap="butt" stroke-linejoin="round" stroke="rgb(0%, 0%, 0%)" stroke-opacity="1" stroke-miterlimit="10" d="M 235.99953 119.001813 L 197.999306 126.999799 " transform="matrix(0.997321, 0, 0, -0.997321, -46.175982, 288.968214)"/>
<path fill="none" stroke-width="0.4" stroke-linecap="butt" stroke-linejoin="round" stroke="rgb(0%, 0%, 0%)" stroke-opacity="1" stroke-miterlimit="10" d="M 235.99953 119.001813 L 196.001768 107.000918 " transform="matrix(0.997321, 0, 0, -0.997321, -46.175982, 288.968214)"/>
<path fill="none" stroke-width="0.4" stroke-linecap="butt" stroke-linejoin="round" stroke="rgb(0%, 0%, 0%)" stroke-opacity="1" stroke-miterlimit="10" d="M 235.99953 119.001813 L 228.001544 89.998344 " transform="matrix(0.997321, 0, 0, -0.997321, -46.175982, 288.968214)"/>
<path fill="none" stroke-width="0.4" stroke-linecap="butt" stroke-linejoin="round" stroke="rgb(0%, 0%, 0%)" stroke-opacity="1" stroke-miterlimit="10" d="M 235.99953 119.001813 L 238.000985 152.999127 " transform="matrix(0.997321, 0, 0, -0.997321, -46.175982, 288.968214)"/>
<path fill="none" stroke-width="0.4" stroke-linecap="butt" stroke-linejoin="round" stroke="rgb(0%, 0%, 0%)" stroke-opacity="1" stroke-miterlimit="10" d="M 255.998411 72.999687 L 219.000873 56.999799 " transform="matrix(0.997321, 0, 0, -0.997321, -46.175982, 288.968214)"/>
<path fill="none" stroke-width="0.4" stroke-linecap="butt" stroke-linejoin="round" stroke="rgb(0%, 0%, 0%)" stroke-opacity="1" stroke-miterlimit="10" d="M 255.998411 72.999687 L 244.001432 40.001141 " transform="matrix(0.997321, 0, 0, -0.997321, -46.175982, 288.968214)"/>
<path fill="none" stroke-width="0.4" stroke-linecap="butt" stroke-linejoin="round" stroke="rgb(0%, 0%, 0%)" stroke-opacity="1" stroke-miterlimit="10" d="M 255.998411 72.999687 L 228.001544 89.998344 " transform="matrix(0.997321, 0, 0, -0.997321, -46.175982, 288.968214)"/>
<path fill="none" stroke-width="0.4" stroke-linecap="butt" stroke-linejoin="round" stroke="rgb(0%, 0%, 0%)" stroke-opacity="1" stroke-miterlimit="10" d="M 219.000873 56.999799 L 175.000201 40.001141 " transform="matrix(0.997321, 0, 0, -0.997321, -46.175982, 288.968214)"/>
<path fill="none" stroke-width="0.4" stroke-linecap="butt" stroke-linejoin="round" stroke="rgb(0%, 0%, 0%)" stroke-opacity="1" stroke-miterlimit="10" d="M 219.000873 56.999799 L 244.001432 40.001141 " transform="matrix(0.997321, 0, 0, -0.997321, -46.175982, 288.968214)"/>
<path fill="none" stroke-width="0.4" stroke-linecap="butt" stroke-linejoin="round" stroke="rgb(0%, 0%, 0%)" stroke-opacity="1" stroke-miterlimit="10" d="M 219.000873 56.999799 L 255.998411 72.999687 " transform="matrix(0.997321, 0, 0, -0.997321, -46.175982, 288.968214)"/>
<path fill="none" stroke-width="0.4" stroke-linecap="butt" stroke-linejoin="round" stroke="rgb(0%, 0%, 0%)" stroke-opacity="1" stroke-miterlimit="10" d="M 219.000873 56.999799 L 228.001544 89.998344 " transform="matrix(0.997321, 0, 0, -0.997321, -46.175982, 288.968214)"/>
<path fill="none" stroke-width="0.4" stroke-linecap="butt" stroke-linejoin="round" stroke="rgb(0%, 0%, 0%)" stroke-opacity="1" stroke-miterlimit="10" d="M 219.000873 56.999799 L 194.999082 82.000358 " transform="matrix(0.997321, 0, 0, -0.997321, -46.175982, 288.968214)"/>
<path fill="none" stroke-width="0.4" stroke-linecap="butt" stroke-linejoin="round" stroke="rgb(0%, 0%, 0%)" stroke-opacity="1" stroke-miterlimit="10" d="M 244.001432 40.001141 L 219.000873 56.999799 " transform="matrix(0.997321, 0, 0, -0.997321, -46.175982, 288.968214)"/>
<path fill="none" stroke-width="0.4" stroke-linecap="butt" stroke-linejoin="round" stroke="rgb(0%, 0%, 0%)" stroke-opacity="1" stroke-miterlimit="10" d="M 244.001432 40.001141 L 175.000201 40.001141 " transform="matrix(0.997321, 0, 0, -0.997321, -46.175982, 288.968214)"/>
<path fill="none" stroke-width="0.4" stroke-linecap="butt" stroke-linejoin="round" stroke="rgb(0%, 0%, 0%)" stroke-opacity="1" stroke-miterlimit="10" d="M 175.000201 40.001141 L 194.999082 82.000358 " transform="matrix(0.997321, 0, 0, -0.997321, -46.175982, 288.968214)"/>
<path fill="none" stroke-width="0.4" stroke-linecap="butt" stroke-linejoin="round" stroke="rgb(0%, 0%, 0%)" stroke-opacity="1" stroke-miterlimit="10" d="M 175.000201 40.001141 L 162.000537 81.001589 " transform="matrix(0.997321, 0, 0, -0.997321, -46.175982, 288.968214)"/>
<path fill="none" stroke-width="0.4" stroke-linecap="butt" stroke-linejoin="round" stroke="rgb(0%, 0%, 0%)" stroke-opacity="1" stroke-miterlimit="10" d="M 175.000201 40.001141 L 152.001097 56.999799 " transform="matrix(0.997321, 0, 0, -0.997321, -46.175982, 288.968214)"/>
<path fill="none" stroke-width="0.4" stroke-linecap="butt" stroke-linejoin="round" stroke="rgb(0%, 0%, 0%)" stroke-opacity="1" stroke-miterlimit="10" d="M 175.000201 40.001141 L 244.001432 40.001141 " transform="matrix(0.997321, 0, 0, -0.997321, -46.175982, 288.968214)"/>
<path fill="none" stroke-width="0.4" stroke-linecap="butt" stroke-linejoin="round" stroke="rgb(0%, 0%, 0%)" stroke-opacity="1" stroke-miterlimit="10" d="M 140.000201 117.000358 L 196.001768 107.000918 " transform="matrix(0.997321, 0, 0, -0.997321, -46.175982, 288.968214)"/>
<path fill="none" stroke-width="0.4" stroke-linecap="butt" stroke-linejoin="round" stroke="rgb(0%, 0%, 0%)" stroke-opacity="1" stroke-miterlimit="10" d="M 140.000201 117.000358 L 108.999194 158.000806 " transform="matrix(0.997321, 0, 0, -0.997321, -46.175982, 288.968214)"/>
<path fill="none" stroke-width="0.4" stroke-linecap="butt" stroke-linejoin="round" stroke="rgb(0%, 0%, 0%)" stroke-opacity="1" stroke-miterlimit="10" d="M 140.000201 117.000358 L 105.000201 114.998903 " transform="matrix(0.997321, 0, 0, -0.997321, -46.175982, 288.968214)"/>
<path fill="none" stroke-width="0.4" stroke-linecap="butt" stroke-linejoin="round" stroke="rgb(0%, 0%, 0%)" stroke-opacity="1" stroke-miterlimit="10" d="M 140.000201 117.000358 L 115.998411 81.001589 " transform="matrix(0.997321, 0, 0, -0.997321, -46.175982, 288.968214)"/>
<path fill="none" stroke-width="0.4" stroke-linecap="butt" stroke-linejoin="round" stroke="rgb(0%, 0%, 0%)" stroke-opacity="1" stroke-miterlimit="10" d="M 140.000201 117.000358 L 162.000537 81.001589 " transform="matrix(0.997321, 0, 0, -0.997321, -46.175982, 288.968214)"/>
<path fill="none" stroke-width="0.4" stroke-linecap="butt" stroke-linejoin="round" stroke="rgb(0%, 0%, 0%)" stroke-opacity="1" stroke-miterlimit="10" d="M 108.999194 158.000806 L 120.001321 203.000246 " transform="matrix(0.997321, 0, 0, -0.997321, -46.175982, 288.968214)"/>
<path fill="none" stroke-width="0.4" stroke-linecap="butt" stroke-linejoin="round" stroke="rgb(0%, 0%, 0%)" stroke-opacity="1" stroke-miterlimit="10" d="M 108.999194 158.000806 L 88.001544 194.998344 " transform="matrix(0.997321, 0, 0, -0.997321, -46.175982, 288.968214)"/>
<path fill="none" stroke-width="0.4" stroke-linecap="butt" stroke-linejoin="round" stroke="rgb(0%, 0%, 0%)" stroke-opacity="1" stroke-miterlimit="10" d="M 108.999194 158.000806 L 80.998411 161.999799 " transform="matrix(0.997321, 0, 0, -0.997321, -46.175982, 288.968214)"/>
<path fill="none" stroke-width="0.4" stroke-linecap="butt" stroke-linejoin="round" stroke="rgb(0%, 0%, 0%)" stroke-opacity="1" stroke-miterlimit="10" d="M 108.999194 158.000806 L 99.998523 138.001925 " transform="matrix(0.997321, 0, 0, -0.997321, -46.175982, 288.968214)"/>
<path fill="none" stroke-width="0.4" stroke-linecap="butt" stroke-linejoin="round" stroke="rgb(0%, 0%, 0%)" stroke-opacity="1" stroke-miterlimit="10" d="M 108.999194 158.000806 L 105.000201 114.998903 " transform="matrix(0.997321, 0, 0, -0.997321, -46.175982, 288.968214)"/>
<path fill="none" stroke-width="0.4" stroke-linecap="butt" stroke-linejoin="round" stroke="rgb(0%, 0%, 0%)" stroke-opacity="1" stroke-miterlimit="10" d="M 108.999194 158.000806 L 140.000201 117.000358 " transform="matrix(0.997321, 0, 0, -0.997321, -46.175982, 288.968214)"/>
<path fill="none" stroke-width="0.4" stroke-linecap="butt" stroke-linejoin="round" stroke="rgb(0%, 0%, 0%)" stroke-opacity="1" stroke-miterlimit="10" d="M 108.999194 158.000806 L 133.999754 187.999127 " transform="matrix(0.997321, 0, 0, -0.997321, -46.175982, 288.968214)"/>
<path fill="none" stroke-width="0.4" stroke-linecap="butt" stroke-linejoin="round" stroke="rgb(0%, 0%, 0%)" stroke-opacity="1" stroke-miterlimit="10" d="M 229.999082 282.999687 L 203.999754 270.000022 " transform="matrix(0.997321, 0, 0, -0.997321, -46.175982, 288.968214)"/>
<path fill="none" stroke-width="0.4" stroke-linecap="butt" stroke-linejoin="round" stroke="rgb(0%, 0%, 0%)" stroke-opacity="1" stroke-miterlimit="10" d="M 203.999754 270.000022 L 229.999082 282.999687 " transform="matrix(0.997321, 0, 0, -0.997321, -46.175982, 288.968214)"/>
<path fill="none" stroke-width="0.4" stroke-linecap="butt" stroke-linejoin="round" stroke="rgb(0%, 0%, 0%)" stroke-opacity="1" stroke-miterlimit="10" d="M 203.999754 270.000022 L 184.000873 264.998344 " transform="matrix(0.997321, 0, 0, -0.997321, -46.175982, 288.968214)"/>
<path fill="none" stroke-width="0.4" stroke-linecap="butt" stroke-linejoin="round" stroke="rgb(0%, 0%, 0%)" stroke-opacity="1" stroke-miterlimit="10" d="M 184.000873 264.998344 L 203.999754 270.000022 " transform="matrix(0.997321, 0, 0, -0.997321, -46.175982, 288.968214)"/>
<path fill="none" stroke-width="0.4" stroke-linecap="butt" stroke-linejoin="round" stroke="rgb(0%, 0%, 0%)" stroke-opacity="1" stroke-miterlimit="10" d="M 184.000873 264.998344 L 149.999642 253.001365 " transform="matrix(0.997321, 0, 0, -0.997321, -46.175982, 288.968214)"/>
<path fill="none" stroke-width="0.4" stroke-linecap="butt" stroke-linejoin="round" stroke="rgb(0%, 0%, 0%)" stroke-opacity="1" stroke-miterlimit="10" d="M 184.000873 264.998344 L 193.001544 231.00103 " transform="matrix(0.997321, 0, 0, -0.997321, -46.175982, 288.968214)"/>
<path fill="none" stroke-width="0.4" stroke-linecap="butt" stroke-linejoin="round" stroke="rgb(0%, 0%, 0%)" stroke-opacity="1" stroke-miterlimit="10" d="M 149.999642 253.001365 L 184.000873 264.998344 " transform="matrix(0.997321, 0, 0, -0.997321, -46.175982, 288.968214)"/>
<path fill="none" stroke-width="0.4" stroke-linecap="butt" stroke-linejoin="round" stroke="rgb(0%, 0%, 0%)" stroke-opacity="1" stroke-miterlimit="10" d="M 149.999642 253.001365 L 118.998635 269.001253 " transform="matrix(0.997321, 0, 0, -0.997321, -46.175982, 288.968214)"/>
<path fill="none" stroke-width="0.4" stroke-linecap="butt" stroke-linejoin="round" stroke="rgb(0%, 0%, 0%)" stroke-opacity="1" stroke-miterlimit="10" d="M 149.999642 253.001365 L 118.998635 240.001701 " transform="matrix(0.997321, 0, 0, -0.997321, -46.175982, 288.968214)"/>
<path fill="none" stroke-width="0.4" stroke-linecap="butt" stroke-linejoin="round" stroke="rgb(0%, 0%, 0%)" stroke-opacity="1" stroke-miterlimit="10" d="M 149.999642 253.001365 L 137.998747 215.001141 " transform="matrix(0.997321, 0, 0, -0.997321, -46.175982, 288.968214)"/>
<path fill="none" stroke-width="0.4" stroke-linecap="butt" stroke-linejoin="round" stroke="rgb(0%, 0%, 0%)" stroke-opacity="1" stroke-miterlimit="10" d="M 118.998635 269.001253 L 95.99953 253.001365 " transform="matrix(0.997321, 0, 0, -0.997321, -46.175982, 288.968214)"/>
<path fill="none" stroke-width="0.4" stroke-linecap="butt" stroke-linejoin="round" stroke="rgb(0%, 0%, 0%)" stroke-opacity="1" stroke-miterlimit="10" d="M 118.998635 269.001253 L 118.998635 240.001701 " transform="matrix(0.997321, 0, 0, -0.997321, -46.175982, 288.968214)"/>
<path fill="none" stroke-width="0.4" stroke-linecap="butt" stroke-linejoin="round" stroke="rgb(0%, 0%, 0%)" stroke-opacity="1" stroke-miterlimit="10" d="M 118.998635 240.001701 L 120.001321 203.000246 " transform="matrix(0.997321, 0, 0, -0.997321, -46.175982, 288.968214)"/>
<path fill="none" stroke-width="0.4" stroke-linecap="butt" stroke-linejoin="round" stroke="rgb(0%, 0%, 0%)" stroke-opacity="1" stroke-miterlimit="10" d="M 118.998635 240.001701 L 137.998747 215.001141 " transform="matrix(0.997321, 0, 0, -0.997321, -46.175982, 288.968214)"/>
<path fill="none" stroke-width="0.4" stroke-linecap="butt" stroke-linejoin="round" stroke="rgb(0%, 0%, 0%)" stroke-opacity="1" stroke-miterlimit="10" d="M 118.998635 240.001701 L 118.998635 269.001253 " transform="matrix(0.997321, 0, 0, -0.997321, -46.175982, 288.968214)"/>
<path fill="none" stroke-width="0.4" stroke-linecap="butt" stroke-linejoin="round" stroke="rgb(0%, 0%, 0%)" stroke-opacity="1" stroke-miterlimit="10" d="M 118.998635 240.001701 L 95.99953 253.001365 " transform="matrix(0.997321, 0, 0, -0.997321, -46.175982, 288.968214)"/>
<path fill="none" stroke-width="0.4" stroke-linecap="butt" stroke-linejoin="round" stroke="rgb(0%, 0%, 0%)" stroke-opacity="1" stroke-miterlimit="10" d="M 118.998635 240.001701 L 91.001768 222.000358 " transform="matrix(0.997321, 0, 0, -0.997321, -46.175982, 288.968214)"/>
<path fill="none" stroke-width="0.4" stroke-linecap="butt" stroke-linejoin="round" stroke="rgb(0%, 0%, 0%)" stroke-opacity="1" stroke-miterlimit="10" d="M 95.99953 253.001365 L 75.00188 266.999799 " transform="matrix(0.997321, 0, 0, -0.997321, -46.175982, 288.968214)"/>
<path fill="none" stroke-width="0.4" stroke-linecap="butt" stroke-linejoin="round" stroke="rgb(0%, 0%, 0%)" stroke-opacity="1" stroke-miterlimit="10" d="M 95.99953 253.001365 L 91.001768 222.000358 " transform="matrix(0.997321, 0, 0, -0.997321, -46.175982, 288.968214)"/>
<path fill="none" stroke-width="0.4" stroke-linecap="butt" stroke-linejoin="round" stroke="rgb(0%, 0%, 0%)" stroke-opacity="1" stroke-miterlimit="10" d="M 91.001768 222.000358 L 95.99953 253.001365 " transform="matrix(0.997321, 0, 0, -0.997321, -46.175982, 288.968214)"/>
<path fill="none" stroke-width="0.4" stroke-linecap="butt" stroke-linejoin="round" stroke="rgb(0%, 0%, 0%)" stroke-opacity="1" stroke-miterlimit="10" d="M 91.001768 222.000358 L 75.00188 266.999799 " transform="matrix(0.997321, 0, 0, -0.997321, -46.175982, 288.968214)"/>
<path fill="none" stroke-width="0.4" stroke-linecap="butt" stroke-linejoin="round" stroke="rgb(0%, 0%, 0%)" stroke-opacity="1" stroke-miterlimit="10" d="M 91.001768 222.000358 L 88.001544 194.998344 " transform="matrix(0.997321, 0, 0, -0.997321, -46.175982, 288.968214)"/>
<path fill="none" stroke-width="0.4" stroke-linecap="butt" stroke-linejoin="round" stroke="rgb(0%, 0%, 0%)" stroke-opacity="1" stroke-miterlimit="10" d="M 91.001768 222.000358 L 120.001321 203.000246 " transform="matrix(0.997321, 0, 0, -0.997321, -46.175982, 288.968214)"/>
<path fill="none" stroke-width="0.4" stroke-linecap="butt" stroke-linejoin="round" stroke="rgb(0%, 0%, 0%)" stroke-opacity="1" stroke-miterlimit="10" d="M 88.001544 194.998344 L 120.001321 203.000246 " transform="matrix(0.997321, 0, 0, -0.997321, -46.175982, 288.968214)"/>
<path fill="none" stroke-width="0.4" stroke-linecap="butt" stroke-linejoin="round" stroke="rgb(0%, 0%, 0%)" stroke-opacity="1" stroke-miterlimit="10" d="M 88.001544 194.998344 L 91.001768 222.000358 " transform="matrix(0.997321, 0, 0, -0.997321, -46.175982, 288.968214)"/>
<path fill="none" stroke-width="0.4" stroke-linecap="butt" stroke-linejoin="round" stroke="rgb(0%, 0%, 0%)" stroke-opacity="1" stroke-miterlimit="10" d="M 88.001544 194.998344 L 80.998411 161.999799 " transform="matrix(0.997321, 0, 0, -0.997321, -46.175982, 288.968214)"/>
<path fill="none" stroke-width="0.4" stroke-linecap="butt" stroke-linejoin="round" stroke="rgb(0%, 0%, 0%)" stroke-opacity="1" stroke-miterlimit="10" d="M 80.998411 161.999799 L 88.001544 194.998344 " transform="matrix(0.997321, 0, 0, -0.997321, -46.175982, 288.968214)"/>
<path fill="none" stroke-width="0.4" stroke-linecap="butt" stroke-linejoin="round" stroke="rgb(0%, 0%, 0%)" stroke-opacity="1" stroke-miterlimit="10" d="M 80.998411 161.999799 L 83.998635 91.999799 " transform="matrix(0.997321, 0, 0, -0.997321, -46.175982, 288.968214)"/>
<path fill="none" stroke-width="0.4" stroke-linecap="butt" stroke-linejoin="round" stroke="rgb(0%, 0%, 0%)" stroke-opacity="1" stroke-miterlimit="10" d="M 80.998411 161.999799 L 99.998523 138.001925 " transform="matrix(0.997321, 0, 0, -0.997321, -46.175982, 288.968214)"/>
<path fill="none" stroke-width="0.4" stroke-linecap="butt" stroke-linejoin="round" stroke="rgb(0%, 0%, 0%)" stroke-opacity="1" stroke-miterlimit="10" d="M 99.998523 138.001925 L 105.000201 114.998903 " transform="matrix(0.997321, 0, 0, -0.997321, -46.175982, 288.968214)"/>
<path fill="none" stroke-width="0.4" stroke-linecap="butt" stroke-linejoin="round" stroke="rgb(0%, 0%, 0%)" stroke-opacity="1" stroke-miterlimit="10" d="M 99.998523 138.001925 L 80.998411 161.999799 " transform="matrix(0.997321, 0, 0, -0.997321, -46.175982, 288.968214)"/>
<path fill="none" stroke-width="0.4" stroke-linecap="butt" stroke-linejoin="round" stroke="rgb(0%, 0%, 0%)" stroke-opacity="1" stroke-miterlimit="10" d="M 99.998523 138.001925 L 83.998635 91.999799 " transform="matrix(0.997321, 0, 0, -0.997321, -46.175982, 288.968214)"/>
<path fill="none" stroke-width="0.4" stroke-linecap="butt" stroke-linejoin="round" stroke="rgb(0%, 0%, 0%)" stroke-opacity="1" stroke-miterlimit="10" d="M 105.000201 114.998903 L 99.998523 138.001925 " transform="matrix(0.997321, 0, 0, -0.997321, -46.175982, 288.968214)"/>
<path fill="none" stroke-width="0.4" stroke-linecap="butt" stroke-linejoin="round" stroke="rgb(0%, 0%, 0%)" stroke-opacity="1" stroke-miterlimit="10" d="M 105.000201 114.998903 L 83.998635 91.999799 " transform="matrix(0.997321, 0, 0, -0.997321, -46.175982, 288.968214)"/>
<path fill="none" stroke-width="0.4" stroke-linecap="butt" stroke-linejoin="round" stroke="rgb(0%, 0%, 0%)" stroke-opacity="1" stroke-miterlimit="10" d="M 105.000201 114.998903 L 115.998411 81.001589 " transform="matrix(0.997321, 0, 0, -0.997321, -46.175982, 288.968214)"/>
<path fill="none" stroke-width="0.4" stroke-linecap="butt" stroke-linejoin="round" stroke="rgb(0%, 0%, 0%)" stroke-opacity="1" stroke-miterlimit="10" d="M 83.998635 91.999799 L 115.998411 81.001589 " transform="matrix(0.997321, 0, 0, -0.997321, -46.175982, 288.968214)"/>
<path fill="none" stroke-width="0.4" stroke-linecap="butt" stroke-linejoin="round" stroke="rgb(0%, 0%, 0%)" stroke-opacity="1" stroke-miterlimit="10" d="M 83.998635 91.999799 L 105.000201 114.998903 " transform="matrix(0.997321, 0, 0, -0.997321, -46.175982, 288.968214)"/>
<path fill="none" stroke-width="0.4" stroke-linecap="butt" stroke-linejoin="round" stroke="rgb(0%, 0%, 0%)" stroke-opacity="1" stroke-miterlimit="10" d="M 115.998411 81.001589 L 162.000537 81.001589 " transform="matrix(0.997321, 0, 0, -0.997321, -46.175982, 288.968214)"/>
<path fill="none" stroke-width="0.4" stroke-linecap="butt" stroke-linejoin="round" stroke="rgb(0%, 0%, 0%)" stroke-opacity="1" stroke-miterlimit="10" d="M 115.998411 81.001589 L 83.998635 91.999799 " transform="matrix(0.997321, 0, 0, -0.997321, -46.175982, 288.968214)"/>
<path fill="none" stroke-width="0.4" stroke-linecap="butt" stroke-linejoin="round" stroke="rgb(0%, 0%, 0%)" stroke-opacity="1" stroke-miterlimit="10" d="M 115.998411 81.001589 L 152.001097 56.999799 " transform="matrix(0.997321, 0, 0, -0.997321, -46.175982, 288.968214)"/>
<path fill="none" stroke-width="0.4" stroke-linecap="butt" stroke-linejoin="round" stroke="rgb(0%, 0%, 0%)" stroke-opacity="1" stroke-miterlimit="10" d="M 196.001768 107.000918 L 162.000537 81.001589 " transform="matrix(0.997321, 0, 0, -0.997321, -46.175982, 288.968214)"/>
<path fill="none" stroke-width="0.4" stroke-linecap="butt" stroke-linejoin="round" stroke="rgb(0%, 0%, 0%)" stroke-opacity="1" stroke-miterlimit="10" d="M 196.001768 107.000918 L 194.999082 82.000358 " transform="matrix(0.997321, 0, 0, -0.997321, -46.175982, 288.968214)"/>
<path fill="none" stroke-width="0.4" stroke-linecap="butt" stroke-linejoin="round" stroke="rgb(0%, 0%, 0%)" stroke-opacity="1" stroke-miterlimit="10" d="M 196.001768 107.000918 L 228.001544 89.998344 " transform="matrix(0.997321, 0, 0, -0.997321, -46.175982, 288.968214)"/>
<path fill="none" stroke-width="0.4" stroke-linecap="butt" stroke-linejoin="round" stroke="rgb(0%, 0%, 0%)" stroke-opacity="1" stroke-miterlimit="10" d="M 194.999082 82.000358 L 196.001768 107.000918 " transform="matrix(0.997321, 0, 0, -0.997321, -46.175982, 288.968214)"/>
<path fill="none" stroke-width="0.4" stroke-linecap="butt" stroke-linejoin="round" stroke="rgb(0%, 0%, 0%)" stroke-opacity="1" stroke-miterlimit="10" d="M 194.999082 82.000358 L 162.000537 81.001589 " transform="matrix(0.997321, 0, 0, -0.997321, -46.175982, 288.968214)"/>
<path fill="none" stroke-width="0.4" stroke-linecap="butt" stroke-linejoin="round" stroke="rgb(0%, 0%, 0%)" stroke-opacity="1" stroke-miterlimit="10" d="M 194.999082 82.000358 L 228.001544 89.998344 " transform="matrix(0.997321, 0, 0, -0.997321, -46.175982, 288.968214)"/>
<path fill="none" stroke-width="0.4" stroke-linecap="butt" stroke-linejoin="round" stroke="rgb(0%, 0%, 0%)" stroke-opacity="1" stroke-miterlimit="10" d="M 162.000537 81.001589 L 152.001097 56.999799 " transform="matrix(0.997321, 0, 0, -0.997321, -46.175982, 288.968214)"/>
<path fill="none" stroke-width="0.4" stroke-linecap="butt" stroke-linejoin="round" stroke="rgb(0%, 0%, 0%)" stroke-opacity="1" stroke-miterlimit="10" d="M 162.000537 81.001589 L 194.999082 82.000358 " transform="matrix(0.997321, 0, 0, -0.997321, -46.175982, 288.968214)"/>
<path fill="none" stroke-width="0.4" stroke-linecap="butt" stroke-linejoin="round" stroke="rgb(0%, 0%, 0%)" stroke-opacity="1" stroke-miterlimit="10" d="M 152.001097 56.999799 L 162.000537 81.001589 " transform="matrix(0.997321, 0, 0, -0.997321, -46.175982, 288.968214)"/>
<path fill="none" stroke-width="0.4" stroke-linecap="butt" stroke-linejoin="round" stroke="rgb(0%, 0%, 0%)" stroke-opacity="1" stroke-miterlimit="10" d="M 137.998747 215.001141 L 120.001321 203.000246 " transform="matrix(0.997321, 0, 0, -0.997321, -46.175982, 288.968214)"/>
<path fill="none" stroke-width="0.4" stroke-linecap="butt" stroke-linejoin="round" stroke="rgb(0%, 0%, 0%)" stroke-opacity="1" stroke-miterlimit="10" d="M 137.998747 215.001141 L 133.999754 187.999127 " transform="matrix(0.997321, 0, 0, -0.997321, -46.175982, 288.968214)"/>
<path fill="none" stroke-width="0.4" stroke-linecap="butt" stroke-linejoin="round" stroke="rgb(0%, 0%, 0%)" stroke-opacity="1" stroke-miterlimit="10" d="M 137.998747 215.001141 L 175.000201 197.998568 " transform="matrix(0.997321, 0, 0, -0.997321, -46.175982, 288.968214)"/>
<path fill="none" stroke-width="0.4" stroke-linecap="butt" stroke-linejoin="round" stroke="rgb(0%, 0%, 0%)" stroke-opacity="1" stroke-miterlimit="10" d="M 120.001321 203.000246 L 133.999754 187.999127 " transform="matrix(0.997321, 0, 0, -0.997321, -46.175982, 288.968214)"/>
<path fill="none" stroke-width="0.4" stroke-linecap="butt" stroke-linejoin="round" stroke="rgb(0%, 0%, 0%)" stroke-opacity="1" stroke-miterlimit="10" d="M 120.001321 203.000246 L 137.998747 215.001141 " transform="matrix(0.997321, 0, 0, -0.997321, -46.175982, 288.968214)"/>
<path fill="none" stroke-width="0.4" stroke-linecap="butt" stroke-linejoin="round" stroke="rgb(0%, 0%, 0%)" stroke-opacity="1" stroke-miterlimit="10" d="M 133.999754 187.999127 L 175.000201 197.998568 " transform="matrix(0.997321, 0, 0, -0.997321, -46.175982, 288.968214)"/>
<path fill="none" stroke-width="0.4" stroke-linecap="butt" stroke-linejoin="round" stroke="rgb(0%, 0%, 0%)" stroke-opacity="1" stroke-miterlimit="10" d="M 133.999754 187.999127 L 120.001321 203.000246 " transform="matrix(0.997321, 0, 0, -0.997321, -46.175982, 288.968214)"/>
<path fill="none" stroke-width="0.4" stroke-linecap="butt" stroke-linejoin="round" stroke="rgb(0%, 0%, 0%)" stroke-opacity="1" stroke-miterlimit="10" d="M 175.000201 197.998568 L 193.001544 231.00103 " transform="matrix(0.997321, 0, 0, -0.997321, -46.175982, 288.968214)"/>
<path fill="none" stroke-width="0.4" stroke-linecap="butt" stroke-linejoin="round" stroke="rgb(0%, 0%, 0%)" stroke-opacity="1" stroke-miterlimit="10" d="M 175.000201 197.998568 L 133.999754 187.999127 " transform="matrix(0.997321, 0, 0, -0.997321, -46.175982, 288.968214)"/>
<path fill="none" stroke-width="0.4" stroke-linecap="butt" stroke-linejoin="round" stroke="rgb(0%, 0%, 0%)" stroke-opacity="1" stroke-miterlimit="10" d="M 193.001544 231.00103 L 175.000201 197.998568 " transform="matrix(0.997321, 0, 0, -0.997321, -46.175982, 288.968214)"/>
<path fill="none" stroke-width="0.4" stroke-linecap="butt" stroke-linejoin="round" stroke="rgb(0%, 0%, 0%)" stroke-opacity="1" stroke-miterlimit="10" d="M 53.001544 209.000694 L 88.001544 194.998344 " transform="matrix(0.997321, 0, 0, -0.997321, -46.175982, 288.968214)"/>
<path fill="none" stroke-width="0.4" stroke-linecap="butt" stroke-linejoin="round" stroke="rgb(0%, 0%, 0%)" stroke-opacity="1" stroke-miterlimit="10" d="M 53.001544 209.000694 L 91.001768 222.000358 " transform="matrix(0.997321, 0, 0, -0.997321, -46.175982, 288.968214)"/>
<path fill="none" stroke-width="0.4" stroke-linecap="butt" stroke-linejoin="round" stroke="rgb(0%, 0%, 0%)" stroke-opacity="1" stroke-miterlimit="10" d="M 53.001544 209.000694 L 75.00188 266.999799 " transform="matrix(0.997321, 0, 0, -0.997321, -46.175982, 288.968214)"/>
<path fill="none" stroke-width="0.4" stroke-linecap="butt" stroke-linejoin="round" stroke="rgb(0%, 0%, 0%)" stroke-opacity="1" stroke-miterlimit="10" d="M 219.000873 56.999799 L 228.001544 89.998344 " transform="matrix(0.997321, 0, 0, -0.997321, -46.175982, 288.968214)"/>
<path fill="none" stroke-width="0.4" stroke-linecap="butt" stroke-linejoin="round" stroke="rgb(0%, 0%, 0%)" stroke-opacity="1" stroke-miterlimit="10" d="M 140.000201 117.000358 L 105.000201 114.998903 " transform="matrix(0.997321, 0, 0, -0.997321, -46.175982, 288.968214)"/>
<path fill="none" stroke-width="0.4" stroke-linecap="butt" stroke-linejoin="round" stroke="rgb(0%, 0%, 0%)" stroke-opacity="1" stroke-miterlimit="10" d="M 140.000201 117.000358 L 115.998411 81.001589 " transform="matrix(0.997321, 0, 0, -0.997321, -46.175982, 288.968214)"/>
<path fill="none" stroke-width="0.4" stroke-linecap="butt" stroke-linejoin="round" stroke="rgb(0%, 0%, 0%)" stroke-opacity="1" stroke-miterlimit="10" d="M 140.000201 117.000358 L 162.000537 81.001589 " transform="matrix(0.997321, 0, 0, -0.997321, -46.175982, 288.968214)"/>
<path fill="none" stroke-width="0.4" stroke-linecap="butt" stroke-linejoin="round" stroke="rgb(0%, 0%, 0%)" stroke-opacity="1" stroke-miterlimit="10" d="M 108.999194 158.000806 L 80.998411 161.999799 " transform="matrix(0.997321, 0, 0, -0.997321, -46.175982, 288.968214)"/>
<path fill="none" stroke-width="0.4" stroke-linecap="butt" stroke-linejoin="round" stroke="rgb(0%, 0%, 0%)" stroke-opacity="1" stroke-miterlimit="10" d="M 108.999194 158.000806 L 99.998523 138.001925 " transform="matrix(0.997321, 0, 0, -0.997321, -46.175982, 288.968214)"/>
<path fill="none" stroke-width="0.4" stroke-linecap="butt" stroke-linejoin="round" stroke="rgb(0%, 0%, 0%)" stroke-opacity="1" stroke-miterlimit="10" d="M 108.999194 158.000806 L 105.000201 114.998903 " transform="matrix(0.997321, 0, 0, -0.997321, -46.175982, 288.968214)"/>
<path fill="none" stroke-width="0.4" stroke-linecap="butt" stroke-linejoin="round" stroke="rgb(0%, 0%, 0%)" stroke-opacity="1" stroke-miterlimit="10" d="M 80.998411 161.999799 L 88.001544 194.998344 " transform="matrix(0.997321, 0, 0, -0.997321, -46.175982, 288.968214)"/>
<path fill="none" stroke-width="0.4" stroke-linecap="butt" stroke-linejoin="round" stroke="rgb(0%, 0%, 0%)" stroke-opacity="1" stroke-miterlimit="10" d="M 196.001768 107.000918 L 162.000537 81.001589 " transform="matrix(0.997321, 0, 0, -0.997321, -46.175982, 288.968214)"/>
<path fill="none" stroke-width="0.4" stroke-linecap="butt" stroke-linejoin="round" stroke="rgb(0%, 0%, 0%)" stroke-opacity="1" stroke-miterlimit="10" d="M 194.999082 82.000358 L 196.001768 107.000918 " transform="matrix(0.997321, 0, 0, -0.997321, -46.175982, 288.968214)"/>
<path fill="none" stroke-width="0.4" stroke-linecap="butt" stroke-linejoin="round" stroke="rgb(0%, 0%, 0%)" stroke-opacity="1" stroke-miterlimit="10" d="M 194.999082 82.000358 L 228.001544 89.998344 " transform="matrix(0.997321, 0, 0, -0.997321, -46.175982, 288.968214)"/>
<path fill-rule="evenodd" fill="rgb(0%, 0%, 100%)" fill-opacity="1" d="M 196.171875 136.378906 C 196.171875 133.625 193.941406 131.390625 191.1875 131.390625 C 188.433594 131.390625 186.199219 133.625 186.199219 136.378906 C 186.199219 139.132812 188.433594 141.363281 191.1875 141.363281 C 193.941406 141.363281 196.171875 139.132812 196.171875 136.378906 "/>
<path fill-rule="evenodd" fill="rgb(0%, 0%, 0%)" fill-opacity="1" d="M 197.171875 136.378906 C 197.171875 133.074219 194.492188 130.394531 191.1875 130.394531 C 187.882812 130.394531 185.203125 133.074219 185.203125 136.378906 C 185.203125 139.683594 187.882812 142.363281 191.1875 142.363281 C 194.492188 142.363281 197.171875 139.683594 197.171875 136.378906 M 195.175781 136.378906 C 195.175781 134.175781 193.390625 132.390625 191.1875 132.390625 C 188.984375 132.390625 187.195312 134.175781 187.195312 136.378906 C 187.195312 138.582031 188.984375 140.367188 191.1875 140.367188 C 193.390625 140.367188 195.175781 138.582031 195.175781 136.378906 "/>
<path fill-rule="evenodd" fill="rgb(100%, 0%, 0%)" fill-opacity="1" d="M 33.609375 22.683594 C 33.609375 19.929688 31.378906 17.695312 28.625 17.695312 C 25.867188 17.695312 23.636719 19.929688 23.636719 22.683594 C 23.636719 25.4375 25.867188 27.671875 28.625 27.671875 C 31.378906 27.671875 33.609375 25.4375 33.609375 22.683594 "/>
<path fill-rule="evenodd" fill="rgb(0%, 0%, 0%)" fill-opacity="1" d="M 34.605469 22.683594 C 34.605469 19.378906 31.929688 16.699219 28.625 16.699219 C 25.316406 16.699219 22.640625 19.378906 22.640625 22.683594 C 22.640625 25.988281 25.316406 28.667969 28.625 28.667969 C 31.929688 28.667969 34.605469 25.988281 34.605469 22.683594 M 32.613281 22.683594 C 32.613281 20.480469 30.828125 18.695312 28.625 18.695312 C 26.421875 18.695312 24.632812 20.480469 24.632812 22.683594 C 24.632812 24.886719 26.421875 26.671875 28.625 26.671875 C 30.828125 26.671875 32.613281 24.886719 32.613281 22.683594 "/>
<path fill-rule="evenodd" fill="rgb(0%, 0%, 54.499817%)" fill-opacity="1" d="M 77.492188 20.6875 C 77.492188 17.933594 75.257812 15.703125 72.503906 15.703125 C 69.75 15.703125 67.519531 17.933594 67.519531 20.6875 C 67.519531 23.441406 69.75 25.675781 72.503906 25.675781 C 75.257812 25.675781 77.492188 23.441406 77.492188 20.6875 "/>
<path fill-rule="evenodd" fill="rgb(0%, 0%, 0%)" fill-opacity="1" d="M 78.488281 20.6875 C 78.488281 17.382812 75.808594 14.703125 72.503906 14.703125 C 69.199219 14.703125 66.519531 17.382812 66.519531 20.6875 C 66.519531 23.992188 69.199219 26.671875 72.503906 26.671875 C 75.808594 26.671875 78.488281 23.992188 78.488281 20.6875 M 76.496094 20.6875 C 76.496094 18.484375 74.707031 16.699219 72.503906 16.699219 C 70.300781 16.699219 68.515625 18.484375 68.515625 20.6875 C 68.515625 22.890625 70.300781 24.679688 72.503906 24.679688 C 74.707031 24.679688 76.496094 22.890625 76.496094 20.6875 "/>
<path fill-rule="evenodd" fill="rgb(0%, 54.499817%, 54.499817%)" fill-opacity="1" d="M 142.316406 24.679688 C 142.316406 21.925781 140.085938 19.691406 137.332031 19.691406 C 134.578125 19.691406 132.34375 21.925781 132.34375 24.679688 C 132.34375 27.429688 134.578125 29.664062 137.332031 29.664062 C 140.085938 29.664062 142.316406 27.429688 142.316406 24.679688 "/>
<path fill-rule="evenodd" fill="rgb(0%, 0%, 0%)" fill-opacity="1" d="M 143.316406 24.679688 C 143.316406 21.371094 140.636719 18.695312 137.332031 18.695312 C 134.027344 18.695312 131.347656 21.371094 131.347656 24.679688 C 131.347656 27.984375 134.027344 30.660156 137.332031 30.660156 C 140.636719 30.660156 143.316406 27.984375 143.316406 24.679688 M 141.320312 24.679688 C 141.320312 22.476562 139.535156 20.6875 137.332031 20.6875 C 135.128906 20.6875 133.34375 22.476562 133.34375 24.679688 C 133.34375 26.882812 135.128906 28.667969 137.332031 28.667969 C 139.535156 28.667969 141.320312 26.882812 141.320312 24.679688 "/>
<path fill-rule="evenodd" fill="rgb(0%, 0%, 54.499817%)" fill-opacity="1" d="M 188.195312 6.726562 C 188.195312 3.972656 185.960938 1.738281 183.207031 1.738281 C 180.453125 1.738281 178.222656 3.972656 178.222656 6.726562 C 178.222656 9.480469 180.453125 11.710938 183.207031 11.710938 C 185.960938 11.710938 188.195312 9.480469 188.195312 6.726562 "/>
<g clip-path="url(#clip-0)">
<path fill-rule="evenodd" fill="rgb(0%, 0%, 0%)" fill-opacity="1" d="M 189.191406 6.726562 C 189.191406 3.421875 186.511719 0.742188 183.207031 0.742188 C 179.902344 0.742188 177.222656 3.421875 177.222656 6.726562 C 177.222656 10.03125 179.902344 12.710938 183.207031 12.710938 C 186.511719 12.710938 189.191406 10.03125 189.191406 6.726562 M 187.195312 6.726562 C 187.195312 4.523438 185.410156 2.738281 183.207031 2.738281 C 181.003906 2.738281 179.21875 4.523438 179.21875 6.726562 C 179.21875 8.929688 181.003906 10.714844 183.207031 10.714844 C 185.410156 10.714844 187.195312 8.929688 187.195312 6.726562 "/>
</g>
<path fill-rule="evenodd" fill="rgb(100%, 0%, 0%)" fill-opacity="1" d="M 199.164062 67.5625 C 199.164062 64.808594 196.933594 62.578125 194.179688 62.578125 C 191.425781 62.578125 189.191406 64.808594 189.191406 67.5625 C 189.191406 70.316406 191.425781 72.550781 194.179688 72.550781 C 196.933594 72.550781 199.164062 70.316406 199.164062 67.5625 "/>
<path fill-rule="evenodd" fill="rgb(0%, 0%, 0%)" fill-opacity="1" d="M 200.164062 67.5625 C 200.164062 64.257812 197.484375 61.578125 194.179688 61.578125 C 190.875 61.578125 188.195312 64.257812 188.195312 67.5625 C 188.195312 70.867188 190.875 73.546875 194.179688 73.546875 C 197.484375 73.546875 200.164062 70.867188 200.164062 67.5625 M 198.167969 67.5625 C 198.167969 65.359375 196.382812 63.574219 194.179688 63.574219 C 191.976562 63.574219 190.1875 65.359375 190.1875 67.5625 C 190.1875 69.765625 191.976562 71.550781 194.179688 71.550781 C 196.382812 71.550781 198.167969 69.765625 198.167969 67.5625 "/>
<path fill-rule="evenodd" fill="rgb(0%, 54.499817%, 54.499817%)" fill-opacity="1" d="M 221.105469 111.445312 C 221.105469 108.691406 218.875 106.457031 216.121094 106.457031 C 213.367188 106.457031 211.132812 108.691406 211.132812 111.445312 C 211.132812 114.199219 213.367188 116.429688 216.121094 116.429688 C 218.875 116.429688 221.105469 114.199219 221.105469 111.445312 "/>
<g clip-path="url(#clip-1)">
<path fill-rule="evenodd" fill="rgb(0%, 0%, 0%)" fill-opacity="1" d="M 222.101562 111.445312 C 222.101562 108.140625 219.425781 105.460938 216.121094 105.460938 C 212.8125 105.460938 210.136719 108.140625 210.136719 111.445312 C 210.136719 114.75 212.8125 117.429688 216.121094 117.429688 C 219.425781 117.429688 222.101562 114.75 222.101562 111.445312 M 220.109375 111.445312 C 220.109375 109.242188 218.324219 107.457031 216.121094 107.457031 C 213.917969 107.457031 212.128906 109.242188 212.128906 111.445312 C 212.128906 113.648438 213.917969 115.433594 216.121094 115.433594 C 218.324219 115.433594 220.109375 113.648438 220.109375 111.445312 "/>
</g>
<path fill-rule="evenodd" fill="rgb(100%, 0%, 0%)" fill-opacity="1" d="M 194.179688 170.285156 C 194.179688 167.535156 191.945312 165.300781 189.191406 165.300781 C 186.4375 165.300781 184.207031 167.535156 184.207031 170.285156 C 184.207031 173.039062 186.4375 175.273438 189.191406 175.273438 C 191.945312 175.273438 194.179688 173.039062 194.179688 170.285156 "/>
<path fill-rule="evenodd" fill="rgb(0%, 0%, 0%)" fill-opacity="1" d="M 195.175781 170.285156 C 195.175781 166.980469 192.496094 164.304688 189.191406 164.304688 C 185.886719 164.304688 183.207031 166.980469 183.207031 170.285156 C 183.207031 173.59375 185.886719 176.269531 189.191406 176.269531 C 192.496094 176.269531 195.175781 173.59375 195.175781 170.285156 M 193.179688 170.285156 C 193.179688 168.082031 191.394531 166.296875 189.191406 166.296875 C 186.988281 166.296875 185.203125 168.082031 185.203125 170.285156 C 185.203125 172.488281 186.988281 174.277344 189.191406 174.277344 C 191.394531 174.277344 193.179688 172.488281 193.179688 170.285156 "/>
<path fill-rule="evenodd" fill="rgb(0%, 54.499817%, 54.499817%)" fill-opacity="1" d="M 214.125 216.164062 C 214.125 213.410156 211.890625 211.175781 209.136719 211.175781 C 206.382812 211.175781 204.152344 213.410156 204.152344 216.164062 C 204.152344 218.917969 206.382812 221.148438 209.136719 221.148438 C 211.890625 221.148438 214.125 218.917969 214.125 216.164062 "/>
<path fill-rule="evenodd" fill="rgb(0%, 0%, 0%)" fill-opacity="1" d="M 215.121094 216.164062 C 215.121094 212.859375 212.445312 210.179688 209.136719 210.179688 C 205.832031 210.179688 203.15625 212.859375 203.15625 216.164062 C 203.15625 219.46875 205.832031 222.148438 209.136719 222.148438 C 212.445312 222.148438 215.121094 219.46875 215.121094 216.164062 M 213.128906 216.164062 C 213.128906 213.960938 211.339844 212.175781 209.136719 212.175781 C 206.933594 212.175781 205.148438 213.960938 205.148438 216.164062 C 205.148438 218.367188 206.933594 220.152344 209.136719 220.152344 C 211.339844 220.152344 213.128906 218.367188 213.128906 216.164062 "/>
<path fill-rule="evenodd" fill="rgb(0%, 0%, 54.499817%)" fill-opacity="1" d="M 133.34375 249.074219 C 133.34375 246.320312 131.109375 244.089844 128.355469 244.089844 C 125.601562 244.089844 123.367188 246.320312 123.367188 249.074219 C 123.367188 251.828125 125.601562 254.0625 128.355469 254.0625 C 131.109375 254.0625 133.34375 251.828125 133.34375 249.074219 "/>
<g clip-path="url(#clip-2)">
<path fill-rule="evenodd" fill="rgb(0%, 0%, 0%)" fill-opacity="1" d="M 134.339844 249.074219 C 134.339844 245.769531 131.660156 243.089844 128.355469 243.089844 C 125.050781 243.089844 122.371094 245.769531 122.371094 249.074219 C 122.371094 252.378906 125.050781 255.058594 128.355469 255.058594 C 131.660156 255.058594 134.339844 252.378906 134.339844 249.074219 M 132.34375 249.074219 C 132.34375 246.871094 130.558594 245.085938 128.355469 245.085938 C 126.152344 245.085938 124.367188 246.871094 124.367188 249.074219 C 124.367188 251.277344 126.152344 253.066406 128.355469 253.066406 C 130.558594 253.066406 132.34375 251.277344 132.34375 249.074219 "/>
</g>
<path fill-rule="evenodd" fill="rgb(0%, 39.199829%, 0%)" fill-opacity="1" d="M 42.585938 197.214844 C 42.585938 194.460938 40.351562 192.226562 37.597656 192.226562 C 34.84375 192.226562 32.613281 194.460938 32.613281 197.214844 C 32.613281 199.96875 34.84375 202.203125 37.597656 202.203125 C 40.351562 202.203125 42.585938 199.96875 42.585938 197.214844 "/>
<path fill-rule="evenodd" fill="rgb(0%, 0%, 0%)" fill-opacity="1" d="M 43.582031 197.214844 C 43.582031 193.910156 40.902344 191.230469 37.597656 191.230469 C 34.292969 191.230469 31.613281 193.910156 31.613281 197.214844 C 31.613281 200.519531 34.292969 203.199219 37.597656 203.199219 C 40.902344 203.199219 43.582031 200.519531 43.582031 197.214844 M 41.589844 197.214844 C 41.589844 195.011719 39.800781 193.226562 37.597656 193.226562 C 35.394531 193.226562 33.609375 195.011719 33.609375 197.214844 C 33.609375 199.417969 35.394531 201.203125 37.597656 201.203125 C 39.800781 201.203125 41.589844 199.417969 41.589844 197.214844 "/>
<path fill-rule="evenodd" fill="rgb(0%, 0%, 54.499817%)" fill-opacity="1" d="M 46.574219 94.492188 C 46.574219 91.738281 44.34375 89.503906 41.589844 89.503906 C 38.835938 89.503906 36.601562 91.738281 36.601562 94.492188 C 36.601562 97.242188 38.835938 99.476562 41.589844 99.476562 C 44.34375 99.476562 46.574219 97.242188 46.574219 94.492188 "/>
<path fill-rule="evenodd" fill="rgb(0%, 0%, 0%)" fill-opacity="1" d="M 47.570312 94.492188 C 47.570312 91.183594 44.894531 88.507812 41.589844 88.507812 C 38.285156 88.507812 35.605469 91.183594 35.605469 94.492188 C 35.605469 97.796875 38.285156 100.472656 41.589844 100.472656 C 44.894531 100.472656 47.570312 97.796875 47.570312 94.492188 M 45.578125 94.492188 C 45.578125 92.289062 43.792969 90.5 41.589844 90.5 C 39.386719 90.5 37.597656 92.289062 37.597656 94.492188 C 37.597656 96.695312 39.386719 98.480469 41.589844 98.480469 C 43.792969 98.480469 45.578125 96.695312 45.578125 94.492188 "/>
<path fill-rule="evenodd" fill="rgb(100%, 0%, 0%)" fill-opacity="1" d="M 96.441406 74.542969 C 96.441406 71.789062 94.207031 69.558594 91.453125 69.558594 C 88.699219 69.558594 86.46875 71.789062 86.46875 74.542969 C 86.46875 77.296875 88.699219 79.53125 91.453125 79.53125 C 94.207031 79.53125 96.441406 77.296875 96.441406 74.542969 "/>
<path fill-rule="evenodd" fill="rgb(0%, 0%, 0%)" fill-opacity="1" d="M 97.4375 74.542969 C 97.4375 71.238281 94.757812 68.558594 91.453125 68.558594 C 88.148438 68.558594 85.46875 71.238281 85.46875 74.542969 C 85.46875 77.847656 88.148438 80.527344 91.453125 80.527344 C 94.757812 80.527344 97.4375 77.847656 97.4375 74.542969 M 95.445312 74.542969 C 95.445312 72.339844 93.65625 70.554688 91.453125 70.554688 C 89.25 70.554688 87.464844 72.339844 87.464844 74.542969 C 87.464844 76.746094 89.25 78.535156 91.453125 78.535156 C 93.65625 78.535156 95.445312 76.746094 95.445312 74.542969 "/>
<path fill-rule="evenodd" fill="rgb(0%, 0%, 54.499817%)" fill-opacity="1" d="M 174.230469 124.410156 C 174.230469 121.65625 172 119.421875 169.246094 119.421875 C 166.492188 119.421875 164.257812 121.65625 164.257812 124.410156 C 164.257812 127.164062 166.492188 129.398438 169.246094 129.398438 C 172 129.398438 174.230469 127.164062 174.230469 124.410156 "/>
<path fill-rule="evenodd" fill="rgb(0%, 0%, 0%)" fill-opacity="1" d="M 175.230469 124.410156 C 175.230469 121.105469 172.550781 118.425781 169.246094 118.425781 C 165.941406 118.425781 163.261719 121.105469 163.261719 124.410156 C 163.261719 127.714844 165.941406 130.394531 169.246094 130.394531 C 172.550781 130.394531 175.230469 127.714844 175.230469 124.410156 M 173.234375 124.410156 C 173.234375 122.207031 171.449219 120.421875 169.246094 120.421875 C 167.042969 120.421875 165.257812 122.207031 165.257812 124.410156 C 165.257812 126.613281 167.042969 128.398438 169.246094 128.398438 C 171.449219 128.398438 173.234375 126.613281 173.234375 124.410156 "/>
<path fill-rule="evenodd" fill="rgb(0%, 39.199829%, 0%)" fill-opacity="1" d="M 98.4375 172.28125 C 98.4375 169.527344 96.203125 167.296875 93.449219 167.296875 C 90.695312 167.296875 88.460938 169.527344 88.460938 172.28125 C 88.460938 175.035156 90.695312 177.269531 93.449219 177.269531 C 96.203125 177.269531 98.4375 175.035156 98.4375 172.28125 "/>
<path fill-rule="evenodd" fill="rgb(0%, 0%, 0%)" fill-opacity="1" d="M 99.433594 172.28125 C 99.433594 168.976562 96.753906 166.296875 93.449219 166.296875 C 90.144531 166.296875 87.464844 168.976562 87.464844 172.28125 C 87.464844 175.585938 90.144531 178.265625 93.449219 178.265625 C 96.753906 178.265625 99.433594 175.585938 99.433594 172.28125 M 97.4375 172.28125 C 97.4375 170.078125 95.652344 168.292969 93.449219 168.292969 C 91.246094 168.292969 89.460938 170.078125 89.460938 172.28125 C 89.460938 174.484375 91.246094 176.269531 93.449219 176.269531 C 95.652344 176.269531 97.4375 174.484375 97.4375 172.28125 "/>
<path fill-rule="evenodd" fill="rgb(52.89917%, 80.799866%, 92.199707%)" fill-opacity="1" d="M 11.667969 80.527344 C 11.667969 77.773438 9.4375 75.542969 6.683594 75.542969 C 3.929688 75.542969 1.695312 77.773438 1.695312 80.527344 C 1.695312 83.28125 3.929688 85.515625 6.683594 85.515625 C 9.4375 85.515625 11.667969 83.28125 11.667969 80.527344 "/>
<path fill-rule="evenodd" fill="rgb(0%, 0%, 0%)" fill-opacity="1" d="M 12.664062 80.527344 C 12.664062 77.222656 9.988281 74.542969 6.683594 74.542969 C 3.378906 74.542969 0.699219 77.222656 0.699219 80.527344 C 0.699219 83.832031 3.378906 86.511719 6.683594 86.511719 C 9.988281 86.511719 12.664062 83.832031 12.664062 80.527344 M 10.671875 80.527344 C 10.671875 78.324219 8.886719 76.539062 6.683594 76.539062 C 4.480469 76.539062 2.691406 78.324219 2.691406 80.527344 C 2.691406 82.730469 4.480469 84.515625 6.683594 84.515625 C 8.886719 84.515625 10.671875 82.730469 10.671875 80.527344 "/>
<path fill-rule="evenodd" fill="rgb(52.89917%, 80.799866%, 92.199707%)" fill-opacity="1" d="M 54.554688 36.644531 C 54.554688 33.890625 52.320312 31.660156 49.566406 31.660156 C 46.8125 31.660156 44.582031 33.890625 44.582031 36.644531 C 44.582031 39.398438 46.8125 41.632812 49.566406 41.632812 C 52.320312 41.632812 54.554688 39.398438 54.554688 36.644531 "/>
<path fill-rule="evenodd" fill="rgb(0%, 0%, 0%)" fill-opacity="1" d="M 55.550781 36.644531 C 55.550781 33.339844 52.871094 30.660156 49.566406 30.660156 C 46.261719 30.660156 43.582031 33.339844 43.582031 36.644531 C 43.582031 39.949219 46.261719 42.628906 49.566406 42.628906 C 52.871094 42.628906 55.550781 39.949219 55.550781 36.644531 M 53.554688 36.644531 C 53.554688 34.441406 51.769531 32.65625 49.566406 32.65625 C 47.363281 32.65625 45.578125 34.441406 45.578125 36.644531 C 45.578125 38.847656 47.363281 40.636719 49.566406 40.636719 C 51.769531 40.636719 53.554688 38.847656 53.554688 36.644531 "/>
<path fill-rule="evenodd" fill="rgb(52.89917%, 80.799866%, 92.199707%)" fill-opacity="1" d="M 127.359375 69.558594 C 127.359375 66.804688 125.125 64.570312 122.371094 64.570312 C 119.617188 64.570312 117.382812 66.804688 117.382812 69.558594 C 117.382812 72.3125 119.617188 74.542969 122.371094 74.542969 C 125.125 74.542969 127.359375 72.3125 127.359375 69.558594 "/>
<path fill-rule="evenodd" fill="rgb(0%, 0%, 0%)" fill-opacity="1" d="M 128.355469 69.558594 C 128.355469 66.253906 125.675781 63.574219 122.371094 63.574219 C 119.066406 63.574219 116.386719 66.253906 116.386719 69.558594 C 116.386719 72.863281 119.066406 75.542969 122.371094 75.542969 C 125.675781 75.542969 128.355469 72.863281 128.355469 69.558594 M 126.359375 69.558594 C 126.359375 67.355469 124.574219 65.566406 122.371094 65.566406 C 120.167969 65.566406 118.382812 67.355469 118.382812 69.558594 C 118.382812 71.761719 120.167969 73.546875 122.371094 73.546875 C 124.574219 73.546875 126.359375 71.761719 126.359375 69.558594 "/>
<path fill-rule="evenodd" fill="rgb(52.89917%, 80.799866%, 92.199707%)" fill-opacity="1" d="M 198.167969 45.621094 C 198.167969 42.867188 195.933594 40.636719 193.179688 40.636719 C 190.425781 40.636719 188.195312 42.867188 188.195312 45.621094 C 188.195312 48.375 190.425781 50.609375 193.179688 50.609375 C 195.933594 50.609375 198.167969 48.375 198.167969 45.621094 "/>
<path fill-rule="evenodd" fill="rgb(0%, 0%, 0%)" fill-opacity="1" d="M 199.164062 45.621094 C 199.164062 42.316406 196.484375 39.636719 193.179688 39.636719 C 189.875 39.636719 187.195312 42.316406 187.195312 45.621094 C 187.195312 48.925781 189.875 51.605469 193.179688 51.605469 C 196.484375 51.605469 199.164062 48.925781 199.164062 45.621094 M 197.171875 45.621094 C 197.171875 43.417969 195.382812 41.632812 193.179688 41.632812 C 190.976562 41.632812 189.191406 43.417969 189.191406 45.621094 C 189.191406 47.824219 190.976562 49.609375 193.179688 49.609375 C 195.382812 49.609375 197.171875 47.824219 197.171875 45.621094 "/>
<path fill-rule="evenodd" fill="rgb(56.498718%, 93.299866%, 56.498718%)" fill-opacity="1" d="M 172.238281 68.558594 C 172.238281 65.804688 170.003906 63.574219 167.25 63.574219 C 164.496094 63.574219 162.265625 65.804688 162.265625 68.558594 C 162.265625 71.3125 164.496094 73.546875 167.25 73.546875 C 170.003906 73.546875 172.238281 71.3125 172.238281 68.558594 "/>
<path fill-rule="evenodd" fill="rgb(0%, 0%, 0%)" fill-opacity="1" d="M 173.234375 68.558594 C 173.234375 65.253906 170.554688 62.578125 167.25 62.578125 C 163.945312 62.578125 161.265625 65.253906 161.265625 68.558594 C 161.265625 71.867188 163.945312 74.542969 167.25 74.542969 C 170.554688 74.542969 173.234375 71.867188 173.234375 68.558594 M 171.238281 68.558594 C 171.238281 66.355469 169.453125 64.570312 167.25 64.570312 C 165.046875 64.570312 163.261719 66.355469 163.261719 68.558594 C 163.261719 70.761719 165.046875 72.550781 167.25 72.550781 C 169.453125 72.550781 171.238281 70.761719 171.238281 68.558594 "/>
<path fill-rule="evenodd" fill="rgb(52.89917%, 80.799866%, 92.199707%)" fill-opacity="1" d="M 154.285156 182.253906 C 154.285156 179.5 152.050781 177.269531 149.300781 177.269531 C 146.546875 177.269531 144.3125 179.5 144.3125 182.253906 C 144.3125 185.007812 146.546875 187.242188 149.300781 187.242188 C 152.050781 187.242188 154.285156 185.007812 154.285156 182.253906 "/>
<path fill-rule="evenodd" fill="rgb(0%, 0%, 0%)" fill-opacity="1" d="M 155.28125 182.253906 C 155.28125 178.949219 152.605469 176.269531 149.300781 176.269531 C 145.992188 176.269531 143.316406 178.949219 143.316406 182.253906 C 143.316406 185.558594 145.992188 188.238281 149.300781 188.238281 C 152.605469 188.238281 155.28125 185.558594 155.28125 182.253906 M 153.289062 182.253906 C 153.289062 180.050781 151.503906 178.265625 149.300781 178.265625 C 147.097656 178.265625 145.308594 180.050781 145.308594 182.253906 C 145.308594 184.457031 147.097656 186.242188 149.300781 186.242188 C 151.503906 186.242188 153.289062 184.457031 153.289062 182.253906 "/>
<path fill-rule="evenodd" fill="rgb(52.89917%, 80.799866%, 92.199707%)" fill-opacity="1" d="M 177.222656 232.121094 C 177.222656 229.367188 174.992188 227.132812 172.238281 227.132812 C 169.484375 227.132812 167.25 229.367188 167.25 232.121094 C 167.25 234.875 169.484375 237.109375 172.238281 237.109375 C 174.992188 237.109375 177.222656 234.875 177.222656 232.121094 "/>
<path fill-rule="evenodd" fill="rgb(0%, 0%, 0%)" fill-opacity="1" d="M 178.222656 232.121094 C 178.222656 228.816406 175.542969 226.136719 172.238281 226.136719 C 168.933594 226.136719 166.253906 228.816406 166.253906 232.121094 C 166.253906 235.425781 168.933594 238.105469 172.238281 238.105469 C 175.542969 238.105469 178.222656 235.425781 178.222656 232.121094 M 176.226562 232.121094 C 176.226562 229.917969 174.441406 228.132812 172.238281 228.132812 C 170.035156 228.132812 168.25 229.917969 168.25 232.121094 C 168.25 234.324219 170.035156 236.109375 172.238281 236.109375 C 174.441406 236.109375 176.226562 234.324219 176.226562 232.121094 "/>
<path fill-rule="evenodd" fill="rgb(52.89917%, 80.799866%, 92.199707%)" fill-opacity="1" d="M 110.402344 232.121094 C 110.402344 229.367188 108.171875 227.132812 105.417969 227.132812 C 102.664062 227.132812 100.429688 229.367188 100.429688 232.121094 C 100.429688 234.875 102.664062 237.109375 105.417969 237.109375 C 108.171875 237.109375 110.402344 234.875 110.402344 232.121094 "/>
<path fill-rule="evenodd" fill="rgb(0%, 0%, 0%)" fill-opacity="1" d="M 111.402344 232.121094 C 111.402344 228.816406 108.722656 226.136719 105.417969 226.136719 C 102.113281 226.136719 99.433594 228.816406 99.433594 232.121094 C 99.433594 235.425781 102.113281 238.105469 105.417969 238.105469 C 108.722656 238.105469 111.402344 235.425781 111.402344 232.121094 M 109.40625 232.121094 C 109.40625 229.917969 107.621094 228.132812 105.417969 228.132812 C 103.214844 228.132812 101.425781 229.917969 101.425781 232.121094 C 101.425781 234.324219 103.214844 236.109375 105.417969 236.109375 C 107.621094 236.109375 109.40625 234.324219 109.40625 232.121094 "/>
<path fill-rule="evenodd" fill="rgb(56.498718%, 93.299866%, 56.498718%)" fill-opacity="1" d="M 74.5 208.183594 C 74.5 205.429688 72.265625 203.199219 69.511719 203.199219 C 66.757812 203.199219 64.527344 205.429688 64.527344 208.183594 C 64.527344 210.9375 66.757812 213.171875 69.511719 213.171875 C 72.265625 213.171875 74.5 210.9375 74.5 208.183594 "/>
<path fill-rule="evenodd" fill="rgb(0%, 0%, 0%)" fill-opacity="1" d="M 75.496094 208.183594 C 75.496094 204.878906 72.820312 202.203125 69.511719 202.203125 C 66.207031 202.203125 63.53125 204.878906 63.53125 208.183594 C 63.53125 211.488281 66.207031 214.167969 69.511719 214.167969 C 72.820312 214.167969 75.496094 211.488281 75.496094 208.183594 M 73.503906 208.183594 C 73.503906 205.980469 71.714844 204.195312 69.511719 204.195312 C 67.308594 204.195312 65.523438 205.980469 65.523438 208.183594 C 65.523438 210.386719 67.308594 212.175781 69.511719 212.175781 C 71.714844 212.175781 73.503906 210.386719 73.503906 208.183594 "/>
<path fill-rule="evenodd" fill="rgb(52.89917%, 80.799866%, 92.199707%)" fill-opacity="1" d="M 120.375 112.441406 C 120.375 109.6875 118.144531 107.457031 115.390625 107.457031 C 112.636719 107.457031 110.402344 109.6875 110.402344 112.441406 C 110.402344 115.195312 112.636719 117.429688 115.390625 117.429688 C 118.144531 117.429688 120.375 115.195312 120.375 112.441406 "/>
<path fill-rule="evenodd" fill="rgb(0%, 0%, 0%)" fill-opacity="1" d="M 121.375 112.441406 C 121.375 109.136719 118.695312 106.457031 115.390625 106.457031 C 112.085938 106.457031 109.40625 109.136719 109.40625 112.441406 C 109.40625 115.746094 112.085938 118.425781 115.390625 118.425781 C 118.695312 118.425781 121.375 115.746094 121.375 112.441406 M 119.378906 112.441406 C 119.378906 110.238281 117.59375 108.453125 115.390625 108.453125 C 113.1875 108.453125 111.402344 110.238281 111.402344 112.441406 C 111.402344 114.644531 113.1875 116.429688 115.390625 116.429688 C 117.59375 116.429688 119.378906 114.644531 119.378906 112.441406 "/>
<path fill-rule="evenodd" fill="rgb(0%, 39.199829%, 0%)" fill-opacity="1" d="M 77.492188 49.609375 C 77.492188 46.859375 75.257812 44.625 72.503906 44.625 C 69.75 44.625 67.519531 46.859375 67.519531 49.609375 C 67.519531 52.363281 69.75 54.597656 72.503906 54.597656 C 75.257812 54.597656 77.492188 52.363281 77.492188 49.609375 "/>
<path fill-rule="evenodd" fill="rgb(0%, 0%, 0%)" fill-opacity="1" d="M 78.488281 49.609375 C 78.488281 46.304688 75.808594 43.628906 72.503906 43.628906 C 69.199219 43.628906 66.519531 46.304688 66.519531 49.609375 C 66.519531 52.917969 69.199219 55.59375 72.503906 55.59375 C 75.808594 55.59375 78.488281 52.917969 78.488281 49.609375 M 76.496094 49.609375 C 76.496094 47.40625 74.707031 45.621094 72.503906 45.621094 C 70.300781 45.621094 68.515625 47.40625 68.515625 49.609375 C 68.515625 51.8125 70.300781 53.601562 72.503906 53.601562 C 74.707031 53.601562 76.496094 51.8125 76.496094 49.609375 "/>
<path fill-rule="evenodd" fill="rgb(0%, 39.199829%, 0%)" fill-opacity="1" d="M 173.234375 48.613281 C 173.234375 45.859375 171 43.628906 168.25 43.628906 C 165.496094 43.628906 163.261719 45.859375 163.261719 48.613281 C 163.261719 51.367188 165.496094 53.601562 168.25 53.601562 C 171 53.601562 173.234375 51.367188 173.234375 48.613281 "/>
<path fill-rule="evenodd" fill="rgb(0%, 0%, 0%)" fill-opacity="1" d="M 174.230469 48.613281 C 174.230469 45.308594 171.554688 42.628906 168.25 42.628906 C 164.941406 42.628906 162.265625 45.308594 162.265625 48.613281 C 162.265625 51.917969 164.941406 54.597656 168.25 54.597656 C 171.554688 54.597656 174.230469 51.917969 174.230469 48.613281 M 172.238281 48.613281 C 172.238281 46.410156 170.453125 44.625 168.25 44.625 C 166.046875 44.625 164.257812 46.410156 164.257812 48.613281 C 164.257812 50.816406 166.046875 52.601562 168.25 52.601562 C 170.453125 52.601562 172.238281 50.816406 172.238281 48.613281 "/>
<path fill-rule="evenodd" fill="rgb(0%, 0%, 54.499817%)" fill-opacity="1" d="M 133.34375 91.5 C 133.34375 88.746094 131.109375 86.511719 128.355469 86.511719 C 125.601562 86.511719 123.367188 88.746094 123.367188 91.5 C 123.367188 94.253906 125.601562 96.484375 128.355469 96.484375 C 131.109375 96.484375 133.34375 94.253906 133.34375 91.5 "/>
<path fill-rule="evenodd" fill="rgb(0%, 0%, 0%)" fill-opacity="1" d="M 134.339844 91.5 C 134.339844 88.195312 131.660156 85.515625 128.355469 85.515625 C 125.050781 85.515625 122.371094 88.195312 122.371094 91.5 C 122.371094 94.804688 125.050781 97.484375 128.355469 97.484375 C 131.660156 97.484375 134.339844 94.804688 134.339844 91.5 M 132.34375 91.5 C 132.34375 89.296875 130.558594 87.507812 128.355469 87.507812 C 126.152344 87.507812 124.367188 89.296875 124.367188 91.5 C 124.367188 93.703125 126.152344 95.488281 128.355469 95.488281 C 130.558594 95.488281 132.34375 93.703125 132.34375 91.5 "/>
<path fill-rule="evenodd" fill="rgb(0%, 39.199829%, 0%)" fill-opacity="1" d="M 67.519531 131.390625 C 67.519531 128.636719 65.285156 126.40625 62.53125 126.40625 C 59.777344 126.40625 57.546875 128.636719 57.546875 131.390625 C 57.546875 134.144531 59.777344 136.378906 62.53125 136.378906 C 65.285156 136.378906 67.519531 134.144531 67.519531 131.390625 "/>
<path fill-rule="evenodd" fill="rgb(0%, 0%, 0%)" fill-opacity="1" d="M 68.515625 131.390625 C 68.515625 128.085938 65.835938 125.40625 62.53125 125.40625 C 59.226562 125.40625 56.546875 128.085938 56.546875 131.390625 C 56.546875 134.695312 59.226562 137.375 62.53125 137.375 C 65.835938 137.375 68.515625 134.695312 68.515625 131.390625 M 66.519531 131.390625 C 66.519531 129.1875 64.734375 127.402344 62.53125 127.402344 C 60.328125 127.402344 58.542969 129.1875 58.542969 131.390625 C 58.542969 133.59375 60.328125 135.378906 62.53125 135.378906 C 64.734375 135.378906 66.519531 133.59375 66.519531 131.390625 "/>
<path fill-rule="evenodd" fill="rgb(0%, 39.199829%, 0%)" fill-opacity="1" d="M 153.289062 207.1875 C 153.289062 204.433594 151.054688 202.203125 148.300781 202.203125 C 145.546875 202.203125 143.316406 204.433594 143.316406 207.1875 C 143.316406 209.941406 145.546875 212.175781 148.300781 212.175781 C 151.054688 212.175781 153.289062 209.941406 153.289062 207.1875 "/>
<path fill-rule="evenodd" fill="rgb(0%, 0%, 0%)" fill-opacity="1" d="M 154.285156 207.1875 C 154.285156 203.882812 151.605469 201.203125 148.300781 201.203125 C 144.996094 201.203125 142.316406 203.882812 142.316406 207.1875 C 142.316406 210.492188 144.996094 213.171875 148.300781 213.171875 C 151.605469 213.171875 154.285156 210.492188 154.285156 207.1875 M 152.289062 207.1875 C 152.289062 204.984375 150.503906 203.199219 148.300781 203.199219 C 146.097656 203.199219 144.3125 204.984375 144.3125 207.1875 C 144.3125 209.390625 146.097656 211.175781 148.300781 211.175781 C 150.503906 211.175781 152.289062 209.390625 152.289062 207.1875 "/>
<path fill-rule="evenodd" fill="rgb(0%, 0%, 100%)" fill-opacity="1" d="M 58.542969 151.335938 C 58.542969 148.585938 56.308594 146.351562 53.554688 146.351562 C 50.800781 146.351562 48.570312 148.585938 48.570312 151.335938 C 48.570312 154.089844 50.800781 156.324219 53.554688 156.324219 C 56.308594 156.324219 58.542969 154.089844 58.542969 151.335938 "/>
<path fill-rule="evenodd" fill="rgb(0%, 0%, 0%)" fill-opacity="1" d="M 59.539062 151.335938 C 59.539062 148.03125 56.859375 145.355469 53.554688 145.355469 C 50.25 145.355469 47.570312 148.03125 47.570312 151.335938 C 47.570312 154.644531 50.25 157.320312 53.554688 157.320312 C 56.859375 157.320312 59.539062 154.644531 59.539062 151.335938 M 57.546875 151.335938 C 57.546875 149.136719 55.757812 147.347656 53.554688 147.347656 C 51.351562 147.347656 49.566406 149.136719 49.566406 151.335938 C 49.566406 153.539062 51.351562 155.328125 53.554688 155.328125 C 55.757812 155.328125 57.546875 153.539062 57.546875 151.335938 "/>
<path fill-rule="evenodd" fill="rgb(100%, 0%, 0%)" fill-opacity="1" d="M 49.566406 67.5625 C 49.566406 64.808594 47.335938 62.578125 44.582031 62.578125 C 41.828125 62.578125 39.59375 64.808594 39.59375 67.5625 C 39.59375 70.316406 41.828125 72.550781 44.582031 72.550781 C 47.335938 72.550781 49.566406 70.316406 49.566406 67.5625 "/>
<path fill-rule="evenodd" fill="rgb(0%, 0%, 0%)" fill-opacity="1" d="M 50.5625 67.5625 C 50.5625 64.257812 47.886719 61.578125 44.582031 61.578125 C 41.277344 61.578125 38.597656 64.257812 38.597656 67.5625 C 38.597656 70.867188 41.277344 73.546875 44.582031 73.546875 C 47.886719 73.546875 50.5625 70.867188 50.5625 67.5625 M 48.570312 67.5625 C 48.570312 65.359375 46.785156 63.574219 44.582031 63.574219 C 42.378906 63.574219 40.589844 65.359375 40.589844 67.5625 C 40.589844 69.765625 42.378906 71.550781 44.582031 71.550781 C 46.785156 71.550781 48.570312 69.765625 48.570312 67.5625 "/>
<path fill-rule="evenodd" fill="rgb(100%, 0%, 0%)" fill-opacity="1" d="M 108.410156 36.644531 C 108.410156 33.890625 106.175781 31.660156 103.421875 31.660156 C 100.667969 31.660156 98.4375 33.890625 98.4375 36.644531 C 98.4375 39.398438 100.667969 41.632812 103.421875 41.632812 C 106.175781 41.632812 108.410156 39.398438 108.410156 36.644531 "/>
<path fill-rule="evenodd" fill="rgb(0%, 0%, 0%)" fill-opacity="1" d="M 109.40625 36.644531 C 109.40625 33.339844 106.726562 30.660156 103.421875 30.660156 C 100.117188 30.660156 97.4375 33.339844 97.4375 36.644531 C 97.4375 39.949219 100.117188 42.628906 103.421875 42.628906 C 106.726562 42.628906 109.40625 39.949219 109.40625 36.644531 M 107.410156 36.644531 C 107.410156 34.441406 105.625 32.65625 103.421875 32.65625 C 101.21875 32.65625 99.433594 34.441406 99.433594 36.644531 C 99.433594 38.847656 101.21875 40.636719 103.421875 40.636719 C 105.625 40.636719 107.410156 38.847656 107.410156 36.644531 "/>
<path fill-rule="evenodd" fill="rgb(100%, 0%, 0%)" fill-opacity="1" d="M 162.265625 19.691406 C 162.265625 16.9375 160.03125 14.703125 157.277344 14.703125 C 154.523438 14.703125 152.289062 16.9375 152.289062 19.691406 C 152.289062 22.445312 154.523438 24.679688 157.277344 24.679688 C 160.03125 24.679688 162.265625 22.445312 162.265625 19.691406 "/>
<path fill-rule="evenodd" fill="rgb(0%, 0%, 0%)" fill-opacity="1" d="M 163.261719 19.691406 C 163.261719 16.386719 160.582031 13.707031 157.277344 13.707031 C 153.972656 13.707031 151.292969 16.386719 151.292969 19.691406 C 151.292969 22.996094 153.972656 25.675781 157.277344 25.675781 C 160.582031 25.675781 163.261719 22.996094 163.261719 19.691406 M 161.265625 19.691406 C 161.265625 17.488281 159.480469 15.703125 157.277344 15.703125 C 155.074219 15.703125 153.289062 17.488281 153.289062 19.691406 C 153.289062 21.894531 155.074219 23.679688 157.277344 23.679688 C 159.480469 23.679688 161.265625 21.894531 161.265625 19.691406 "/>
<path fill-rule="evenodd" fill="rgb(100%, 0%, 0%)" fill-opacity="1" d="M 204.152344 93.492188 C 204.152344 90.738281 201.917969 88.507812 199.164062 88.507812 C 196.410156 88.507812 194.179688 90.738281 194.179688 93.492188 C 194.179688 96.246094 196.410156 98.480469 199.164062 98.480469 C 201.917969 98.480469 204.152344 96.246094 204.152344 93.492188 "/>
<path fill-rule="evenodd" fill="rgb(0%, 0%, 0%)" fill-opacity="1" d="M 205.148438 93.492188 C 205.148438 90.1875 202.46875 87.507812 199.164062 87.507812 C 195.859375 87.507812 193.179688 90.1875 193.179688 93.492188 C 193.179688 96.796875 195.859375 99.476562 199.164062 99.476562 C 202.46875 99.476562 205.148438 96.796875 205.148438 93.492188 M 203.15625 93.492188 C 203.15625 91.289062 201.367188 89.503906 199.164062 89.503906 C 196.960938 89.503906 195.175781 91.289062 195.175781 93.492188 C 195.175781 95.695312 196.960938 97.484375 199.164062 97.484375 C 201.367188 97.484375 203.15625 95.695312 203.15625 93.492188 "/>
<path fill-rule="evenodd" fill="rgb(100%, 0%, 0%)" fill-opacity="1" d="M 186.199219 199.210938 C 186.199219 196.457031 183.96875 194.222656 181.214844 194.222656 C 178.460938 194.222656 176.226562 196.457031 176.226562 199.210938 C 176.226562 201.964844 178.460938 204.195312 181.214844 204.195312 C 183.96875 204.195312 186.199219 201.964844 186.199219 199.210938 "/>
<path fill-rule="evenodd" fill="rgb(0%, 0%, 0%)" fill-opacity="1" d="M 187.195312 199.210938 C 187.195312 195.90625 184.519531 193.226562 181.214844 193.226562 C 177.90625 193.226562 175.230469 195.90625 175.230469 199.210938 C 175.230469 202.515625 177.90625 205.191406 181.214844 205.191406 C 184.519531 205.191406 187.195312 202.515625 187.195312 199.210938 M 185.203125 199.210938 C 185.203125 197.007812 183.417969 195.21875 181.214844 195.21875 C 179.011719 195.21875 177.222656 197.007812 177.222656 199.210938 C 177.222656 201.414062 179.011719 203.199219 181.214844 203.199219 C 183.417969 203.199219 185.203125 201.414062 185.203125 199.210938 "/>
<path fill-rule="evenodd" fill="rgb(59.999084%, 19.599915%, 79.998779%)" fill-opacity="1" d="M 202.15625 249.074219 C 202.15625 246.320312 199.925781 244.089844 197.171875 244.089844 C 194.417969 244.089844 192.183594 246.320312 192.183594 249.074219 C 192.183594 251.828125 194.417969 254.0625 197.171875 254.0625 C 199.925781 254.0625 202.15625 251.828125 202.15625 249.074219 "/>
<g clip-path="url(#clip-3)">
<path fill-rule="evenodd" fill="rgb(0%, 0%, 0%)" fill-opacity="1" d="M 203.15625 249.074219 C 203.15625 245.769531 200.476562 243.089844 197.171875 243.089844 C 193.867188 243.089844 191.1875 245.769531 191.1875 249.074219 C 191.1875 252.378906 193.867188 255.058594 197.171875 255.058594 C 200.476562 255.058594 203.15625 252.378906 203.15625 249.074219 M 201.160156 249.074219 C 201.160156 246.871094 199.375 245.085938 197.171875 245.085938 C 194.96875 245.085938 193.179688 246.871094 193.179688 249.074219 C 193.179688 251.277344 194.96875 253.066406 197.171875 253.066406 C 199.375 253.066406 201.160156 251.277344 201.160156 249.074219 "/>
</g>
<path fill-rule="evenodd" fill="rgb(100%, 0%, 0%)" fill-opacity="1" d="M 77.492188 229.128906 C 77.492188 226.375 75.257812 224.140625 72.503906 224.140625 C 69.75 224.140625 67.519531 226.375 67.519531 229.128906 C 67.519531 231.882812 69.75 234.117188 72.503906 234.117188 C 75.257812 234.117188 77.492188 231.882812 77.492188 229.128906 "/>
<path fill-rule="evenodd" fill="rgb(0%, 0%, 0%)" fill-opacity="1" d="M 78.488281 229.128906 C 78.488281 225.824219 75.808594 223.144531 72.503906 223.144531 C 69.199219 223.144531 66.519531 225.824219 66.519531 229.128906 C 66.519531 232.433594 69.199219 235.113281 72.503906 235.113281 C 75.808594 235.113281 78.488281 232.433594 78.488281 229.128906 M 76.496094 229.128906 C 76.496094 226.925781 74.707031 225.140625 72.503906 225.140625 C 70.300781 225.140625 68.515625 226.925781 68.515625 229.128906 C 68.515625 231.332031 70.300781 233.117188 72.503906 233.117188 C 74.707031 233.117188 76.496094 231.332031 76.496094 229.128906 "/>
<path fill-rule="evenodd" fill="rgb(59.999084%, 19.599915%, 79.998779%)" fill-opacity="1" d="M 39.59375 127.402344 C 39.59375 124.648438 37.359375 122.414062 34.605469 122.414062 C 31.851562 122.414062 29.621094 124.648438 29.621094 127.402344 C 29.621094 130.15625 31.851562 132.390625 34.605469 132.390625 C 37.359375 132.390625 39.59375 130.15625 39.59375 127.402344 "/>
<path fill-rule="evenodd" fill="rgb(0%, 0%, 0%)" fill-opacity="1" d="M 40.589844 127.402344 C 40.589844 124.097656 37.910156 121.417969 34.605469 121.417969 C 31.300781 121.417969 28.625 124.097656 28.625 127.402344 C 28.625 130.707031 31.300781 133.386719 34.605469 133.386719 C 37.910156 133.386719 40.589844 130.707031 40.589844 127.402344 M 38.597656 127.402344 C 38.597656 125.199219 36.808594 123.414062 34.605469 123.414062 C 32.402344 123.414062 30.617188 125.199219 30.617188 127.402344 C 30.617188 129.605469 32.402344 131.390625 34.605469 131.390625 C 36.808594 131.390625 38.597656 129.605469 38.597656 127.402344 "/>
<path fill-rule="evenodd" fill="rgb(100%, 0%, 0%)" fill-opacity="1" d="M 92.453125 101.472656 C 92.453125 98.71875 90.21875 96.484375 87.464844 96.484375 C 84.710938 96.484375 82.476562 98.71875 82.476562 101.472656 C 82.476562 104.226562 84.710938 106.457031 87.464844 106.457031 C 90.21875 106.457031 92.453125 104.226562 92.453125 101.472656 "/>
<path fill-rule="evenodd" fill="rgb(0%, 0%, 0%)" fill-opacity="1" d="M 93.449219 101.472656 C 93.449219 98.167969 90.769531 95.488281 87.464844 95.488281 C 84.160156 95.488281 81.480469 98.167969 81.480469 101.472656 C 81.480469 104.777344 84.160156 107.457031 87.464844 107.457031 C 90.769531 107.457031 93.449219 104.777344 93.449219 101.472656 M 91.453125 101.472656 C 91.453125 99.269531 89.667969 97.484375 87.464844 97.484375 C 85.261719 97.484375 83.476562 99.269531 83.476562 101.472656 C 83.476562 103.675781 85.261719 105.460938 87.464844 105.460938 C 89.667969 105.460938 91.453125 103.675781 91.453125 101.472656 "/>
<path fill-rule="evenodd" fill="rgb(59.999084%, 19.599915%, 79.998779%)" fill-opacity="1" d="M 151.292969 58.585938 C 151.292969 55.832031 149.0625 53.601562 146.308594 53.601562 C 143.554688 53.601562 141.320312 55.832031 141.320312 58.585938 C 141.320312 61.339844 143.554688 63.574219 146.308594 63.574219 C 149.0625 63.574219 151.292969 61.339844 151.292969 58.585938 "/>
<path fill-rule="evenodd" fill="rgb(0%, 0%, 0%)" fill-opacity="1" d="M 152.289062 58.585938 C 152.289062 55.28125 149.613281 52.601562 146.308594 52.601562 C 143 52.601562 140.324219 55.28125 140.324219 58.585938 C 140.324219 61.890625 143 64.570312 146.308594 64.570312 C 149.613281 64.570312 152.289062 61.890625 152.289062 58.585938 M 150.296875 58.585938 C 150.296875 56.382812 148.511719 54.597656 146.308594 54.597656 C 144.105469 54.597656 142.316406 56.382812 142.316406 58.585938 C 142.316406 60.789062 144.105469 62.578125 146.308594 62.578125 C 148.511719 62.578125 150.296875 60.789062 150.296875 58.585938 "/>
<path fill-rule="evenodd" fill="rgb(0%, 74.899292%, 100%)" fill-opacity="1" d="M 120.375 208.183594 C 120.375 205.429688 118.144531 203.199219 115.390625 203.199219 C 112.636719 203.199219 110.402344 205.429688 110.402344 208.183594 C 110.402344 210.9375 112.636719 213.171875 115.390625 213.171875 C 118.144531 213.171875 120.375 210.9375 120.375 208.183594 "/>
<path fill-rule="evenodd" fill="rgb(0%, 0%, 0%)" fill-opacity="1" d="M 121.375 208.183594 C 121.375 204.878906 118.695312 202.203125 115.390625 202.203125 C 112.085938 202.203125 109.40625 204.878906 109.40625 208.183594 C 109.40625 211.488281 112.085938 214.167969 115.390625 214.167969 C 118.695312 214.167969 121.375 211.488281 121.375 208.183594 M 119.378906 208.183594 C 119.378906 205.980469 117.59375 204.195312 115.390625 204.195312 C 113.1875 204.195312 111.402344 205.980469 111.402344 208.183594 C 111.402344 210.386719 113.1875 212.175781 115.390625 212.175781 C 117.59375 212.175781 119.378906 210.386719 119.378906 208.183594 "/>
<path fill-rule="evenodd" fill="rgb(59.999084%, 19.599915%, 79.998779%)" fill-opacity="1" d="M 156.28125 162.308594 C 156.28125 159.554688 154.046875 157.320312 151.292969 157.320312 C 148.539062 157.320312 146.308594 159.554688 146.308594 162.308594 C 146.308594 165.0625 148.539062 167.296875 151.292969 167.296875 C 154.046875 167.296875 156.28125 165.0625 156.28125 162.308594 "/>
<path fill-rule="evenodd" fill="rgb(0%, 0%, 0%)" fill-opacity="1" d="M 157.277344 162.308594 C 157.277344 159.003906 154.597656 156.324219 151.292969 156.324219 C 147.988281 156.324219 145.308594 159.003906 145.308594 162.308594 C 145.308594 165.613281 147.988281 168.292969 151.292969 168.292969 C 154.597656 168.292969 157.277344 165.613281 157.277344 162.308594 M 155.28125 162.308594 C 155.28125 160.105469 153.496094 158.320312 151.292969 158.320312 C 149.089844 158.320312 147.304688 160.105469 147.304688 162.308594 C 147.304688 164.511719 149.089844 166.296875 151.292969 166.296875 C 153.496094 166.296875 155.28125 164.511719 155.28125 162.308594 "/>
<path fill-rule="evenodd" fill="rgb(100%, 0%, 0%)" fill-opacity="1" d="M 63.53125 174.277344 C 63.53125 171.523438 61.296875 169.289062 58.542969 169.289062 C 55.789062 169.289062 53.554688 171.523438 53.554688 174.277344 C 53.554688 177.03125 55.789062 179.261719 58.542969 179.261719 C 61.296875 179.261719 63.53125 177.03125 63.53125 174.277344 "/>
<path fill-rule="evenodd" fill="rgb(0%, 0%, 0%)" fill-opacity="1" d="M 64.527344 174.277344 C 64.527344 170.972656 61.847656 168.292969 58.542969 168.292969 C 55.238281 168.292969 52.558594 170.972656 52.558594 174.277344 C 52.558594 177.582031 55.238281 180.261719 58.542969 180.261719 C 61.847656 180.261719 64.527344 177.582031 64.527344 174.277344 M 62.53125 174.277344 C 62.53125 172.074219 60.746094 170.285156 58.542969 170.285156 C 56.339844 170.285156 54.554688 172.074219 54.554688 174.277344 C 54.554688 176.480469 56.339844 178.265625 58.542969 178.265625 C 60.746094 178.265625 62.53125 176.480469 62.53125 174.277344 "/>
</svg>
