<?xml version="1.0" encoding="UTF-8"?>
<svg xmlns="http://www.w3.org/2000/svg" xmlns:xlink="http://www.w3.org/1999/xlink" width="223.4" height="256.4" viewBox="0 0 223.4 256.4">
<path fill="none" stroke-width="2" stroke-linecap="butt" stroke-linejoin="round" stroke="rgb(0%, 39.199829%, 0%)" stroke-opacity="0.4" stroke-miterlimit="10" d="M 162.000537 81.001589 L 196.001768 107.000918 L 228.001544 89.998344 L 219.000873 56.999799 L 175.000201 40.001141 Z M 162.000537 81.001589 " transform="matrix(0.997321, 0, 0, -0.997321, -46.175982, 288.968214)"/>
<path fill="none" stroke-width="2" stroke-linecap="butt" stroke-linejoin="round" stroke="rgb(0%, 39.199829%, 0%)" stroke-opacity="0.4" stroke-miterlimit="10" d="M 88.001544 194.998344 L 120.001321 203.000246 L 133.999754 187.999127 L 162.000537 177.000918 L 140.000201 117.000358 L 105.000201 114.998903 L 99.998523 138.001925 L 80.998411 161.999799 Z M 88.001544 194.998344 " transform="matrix(0.997321, 0, 0, -0.997321, -46.175982, 288.968214)"/>
<path fill="none" stroke-width="2" stroke-linecap="butt" stroke-linejoin="round" stroke="rgb(0%, 39.199829%, 0%)" stroke-opacity="0.4" stroke-miterlimit="10" d="M 184.000873 264.998344 L 203.999754 270.000022 L 239.998523 244.000694 L 241.001209 222.000358 L 213.999194 221.001589 L 193.001544 231.00103 Z M 184.000873 264.998344 " transform="matrix(0.997321, 0, 0, -0.997321, -46.175982, 288.968214)"/>
<path fill="none" stroke-width="2" stroke-linecap="butt" stroke-linejoin="round" stroke="rgb(0%, 0%, 54.499817%)" stroke-opacity="0.4" stroke-miterlimit="10" d="M 137.998747 215.001141 L 168.999754 219.998903 L 193.001544 231.00103 L 213.999194 221.001589 L 216.000649 165.000022 L 162.000537 177.000918 L 133.999754 187.999127 Z M 137.998747 215.001141 " transform="matrix(0.997321, 0, 0, -0.997321, -46.175982, 288.968214)"/>
<path fill="none" stroke-width="2" stroke-linecap="butt" stroke-linejoin="round" stroke="rgb(0%, 39.199829%, 0%)" stroke-opacity="0.4" stroke-miterlimit="10" d="M 95.99953 253.001365 L 118.998635 269.001253 L 149.999642 253.001365 L 137.998747 215.001141 L 120.001321 203.000246 L 91.001768 222.000358 Z M 95.99953 253.001365 " transform="matrix(0.997321, 0, 0, -0.997321, -46.175982, 288.968214)"/>
<path fill-rule="evenodd" fill="rgb(0%, 0%, 54.499817%)" fill-opacity="0.3" d="M 72.503906 229.128906 L 105.417969 232.121094 L 115.390625 208.183594 L 148.300781 207.1875 L 172.238281 232.121094 L 197.171875 249.074219 L 128.355469 249.074219 Z M 72.503906 229.128906 "/>
<path fill-rule="evenodd" fill="rgb(0%, 54.499817%, 54.499817%)" fill-opacity="0.3" d="M 181.214844 199.210938 L 172.238281 232.121094 L 197.171875 249.074219 L 209.136719 216.164062 Z M 181.214844 199.210938 "/>
<path fill-rule="evenodd" fill="rgb(100%, 0%, 0%)" fill-opacity="0.3" d="M 191.1875 136.378906 L 151.292969 162.308594 L 149.300781 182.253906 L 181.214844 199.210938 L 189.191406 170.285156 Z M 191.1875 136.378906 "/>
<path fill-rule="evenodd" fill="rgb(0%, 0%, 54.499817%)" fill-opacity="0.3" d="M 128.355469 91.5 L 167.25 68.558594 L 199.164062 93.492188 L 191.1875 136.378906 L 151.292969 162.308594 L 115.390625 112.441406 Z M 128.355469 91.5 "/>
<path fill-rule="evenodd" fill="rgb(0%, 54.499817%, 54.499817%)" fill-opacity="0.3" d="M 157.277344 19.691406 L 168.25 48.613281 L 146.308594 58.585938 L 122.371094 69.558594 L 103.421875 36.644531 L 137.332031 24.679688 Z M 157.277344 19.691406 "/>
<path fill-rule="evenodd" fill="rgb(100%, 0%, 0%)" fill-opacity="0.3" d="M 193.179688 45.621094 L 168.25 48.613281 L 167.25 68.558594 L 199.164062 93.492188 L 194.179688 67.5625 Z M 193.179688 45.621094 "/>
<path fill-rule="evenodd" fill="rgb(0%, 39.199829%, 0%)" fill-opacity="0.3" d="M 58.542969 174.277344 L 62.53125 131.390625 L 115.390625 112.441406 L 151.292969 162.308594 L 149.300781 182.253906 L 115.390625 208.183594 L 69.511719 208.183594 Z M 58.542969 174.277344 "/>
<path fill-rule="evenodd" fill="rgb(0%, 0%, 54.499817%)" fill-opacity="0.3" d="M 49.566406 36.644531 L 72.503906 49.609375 L 103.421875 36.644531 L 72.503906 20.6875 Z M 49.566406 36.644531 "/>
<path fill-rule="evenodd" fill="rgb(100%, 0%, 0%)" fill-opacity="0.3" d="M 6.683594 80.527344 L 34.605469 127.402344 L 53.554688 151.335938 L 58.542969 174.277344 L 69.511719 208.183594 L 72.503906 229.128906 L 37.597656 197.214844 Z M 6.683594 80.527344 "/>
<path fill-rule="evenodd" fill="rgb(100%, 0%, 0%)" fill-opacity="0.3" d="M 28.625 22.683594 L 49.566406 36.644531 L 44.582031 67.5625 L 6.683594 80.527344 Z M 28.625 22.683594 "/>
<path fill-rule="evenodd" fill="rgb(0%, 0%, 54.499817%)" fill-opacity="0.3" d="M 6.683594 80.527344 L 44.582031 67.5625 L 73.503906 86.511719 L 62.53125 131.390625 L 34.605469 127.402344 Z M 6.683594 80.527344 "/>
<path fill-rule="evenodd" fill="rgb(100%, 0%, 0%)" fill-opacity="0.3" d="M 73.503906 86.511719 L 72.503906 49.609375 L 103.421875 36.644531 L 122.371094 69.558594 L 128.355469 91.5 L 87.464844 101.472656 Z M 73.503906 86.511719 "/>
<path fill-rule="evenodd" fill="rgb(0%, 0%, 54.499817%)" fill-opacity="0.3" d="M 157.277344 19.691406 L 193.179688 45.621094 L 183.207031 6.726562 Z M 157.277344 19.691406 "/>
<path fill-rule="evenodd" fill="rgb(0%, 54.499817%, 54.499817%)" fill-opacity="0.3" d="M 199.164062 93.492188 L 191.1875 136.378906 L 216.121094 111.445312 Z M 199.164062 93.492188 "/>
</svg>
