<?xml version="1.0" encoding="UTF-8"?>
<svg xmlns="http://www.w3.org/2000/svg" xmlns:xlink="http://www.w3.org/1999/xlink" width="189.59" height="189.59" viewBox="0 0 189.59 189.59">
<defs>
<g>
<g id="glyph-0-0">
<path d="M 5.484375 -13.171875 C 5.484375 -13.609375 5.46875 -13.640625 5.171875 -13.640625 C 4.375 -12.65625 3.15625 -12.359375 2 -12.3125 C 1.9375 -12.3125 1.828125 -12.3125 1.8125 -12.265625 C 1.796875 -12.234375 1.796875 -12.1875 1.796875 -11.75 C 2.4375 -11.75 3.5 -11.875 4.328125 -12.375 L 4.328125 -1.5 C 4.328125 -0.78125 4.296875 -0.53125 2.515625 -0.53125 L 1.890625 -0.53125 L 1.890625 0 C 2.890625 -0.015625 3.921875 -0.046875 4.90625 -0.046875 C 5.90625 -0.046875 6.9375 -0.015625 7.921875 0 L 7.921875 -0.53125 L 7.296875 -0.53125 C 5.53125 -0.53125 5.484375 -0.765625 5.484375 -1.5 Z M 5.484375 -13.171875 "/>
</g>
<g id="glyph-0-1">
<path d="M 8.59375 -3.203125 L 8.234375 -3.203125 C 8.015625 -1.734375 7.859375 -1.484375 7.78125 -1.359375 C 7.671875 -1.203125 6.1875 -1.203125 5.90625 -1.203125 L 1.9375 -1.203125 C 2.6875 -2 4.125 -3.46875 5.875 -5.15625 C 7.140625 -6.359375 8.59375 -7.75 8.59375 -9.796875 C 8.59375 -12.234375 6.65625 -13.640625 4.5 -13.640625 C 2.234375 -13.640625 0.84375 -11.625 0.84375 -9.78125 C 0.84375 -8.96875 1.4375 -8.875 1.6875 -8.875 C 1.890625 -8.875 2.515625 -9 2.515625 -9.71875 C 2.515625 -10.359375 1.984375 -10.546875 1.6875 -10.546875 C 1.5625 -10.546875 1.4375 -10.515625 1.359375 -10.484375 C 1.75 -12.234375 2.953125 -13.09375 4.203125 -13.09375 C 6 -13.09375 7.171875 -11.671875 7.171875 -9.796875 C 7.171875 -8 6.125 -6.453125 4.953125 -5.109375 L 0.84375 -0.46875 L 0.84375 0 L 8.109375 0 Z M 8.59375 -3.203125 "/>
</g>
</g>
</defs>
<path fill-rule="evenodd" fill="rgb(67.799377%, 84.698486%, 90.19928%)" fill-opacity="1" stroke-width="2" stroke-linecap="butt" stroke-linejoin="round" stroke="rgb(0%, 0%, 100%)" stroke-opacity="1" stroke-miterlimit="10" d="M 293.294471 264.0006 C 293.294471 315.525848 251.524649 357.295671 199.9994 357.295671 C 148.474152 357.295671 106.704329 315.525848 106.704329 264.0006 C 106.704329 212.475351 148.474152 170.705529 199.9994 170.705529 C 251.524649 170.705529 293.294471 212.475351 293.294471 264.0006 " transform="matrix(0.997842, 0, 0, -0.997842, -104.977979, 358.020758)"/>
<path fill-rule="evenodd" fill="rgb(100%, 100%, 100%)" fill-opacity="1" stroke-width="2" stroke-linecap="butt" stroke-linejoin="round" stroke="rgb(0%, 39.199829%, 0%)" stroke-opacity="1" stroke-miterlimit="10" d="M 246.646936 264.0006 C 246.646936 289.763224 225.762024 310.648135 199.9994 310.648135 C 174.236776 310.648135 153.351865 289.763224 153.351865 264.0006 C 153.351865 238.237976 174.236776 217.353064 199.9994 217.353064 C 225.762024 217.353064 246.646936 238.237976 246.646936 264.0006 " transform="matrix(0.997842, 0, 0, -0.997842, -104.977979, 358.020758)"/>
<path fill="none" stroke-width="2" stroke-linecap="butt" stroke-linejoin="round" stroke="rgb(0%, 39.199829%, 0%)" stroke-opacity="1" stroke-dasharray="4" stroke-miterlimit="10" d="M 199.9994 264.0006 L 248.001421 264.0006 " transform="matrix(0.997842, 0, 0, -0.997842, -104.977979, 358.020758)"/>
<g fill="rgb(0%, 39.199829%, 0%)" fill-opacity="1">
<use xlink:href="#glyph-0-0" x="110.555916" y="86.607706"/>
</g>
<path fill="none" stroke-width="2" stroke-linecap="butt" stroke-linejoin="round" stroke="rgb(0%, 0%, 100%)" stroke-opacity="1" stroke-dasharray="4" stroke-miterlimit="10" d="M 199.9994 264.0006 L 267.347856 199.435494 " transform="matrix(0.997842, 0, 0, -0.997842, -104.977979, 358.020758)"/>
<g fill="rgb(0%, 0%, 100%)" fill-opacity="1">
<use xlink:href="#glyph-0-1" x="128.421281" y="155.454819"/>
</g>
<path fill="none" stroke-width="2" stroke-linecap="butt" stroke-linejoin="round" stroke="rgb(100%, 0%, 0%)" stroke-opacity="1" stroke-miterlimit="10" d="M 290.311472 264.0006 C 290.311472 313.877761 249.876561 354.308757 199.9994 354.308757 C 150.122239 354.308757 109.691243 313.877761 109.691243 264.0006 C 109.691243 214.123439 150.122239 173.688528 199.9994 173.688528 C 249.876561 173.688528 290.311472 214.123439 290.311472 264.0006 " transform="matrix(0.997842, 0, 0, -0.997842, -104.977979, 358.020758)"/>
</svg>
