<?xml version="1.0" encoding="UTF-8"?>
<svg xmlns="http://www.w3.org/2000/svg" xmlns:xlink="http://www.w3.org/1999/xlink" width="1000" height="1000" viewBox="0 0 1000 1000">
<rect x="-100" y="-100" width="1200" height="1200" fill="rgb(100%, 100%, 100%)" fill-opacity="1"/>
<path fill-rule="nonzero" fill="rgb(83.418274%, 17.999268%, 89.99939%)" fill-opacity="0.3" stroke-width="4" stroke-linecap="butt" stroke-linejoin="miter" stroke="rgb(83.418274%, 17.999268%, 89.99939%)" stroke-opacity="1" stroke-miterlimit="10" d="M 894 695 C 894 735.867188 860.867188 769 820 769 C 779.132812 769 746 735.867188 746 695 C 746 654.132812 779.132812 621 820 621 C 860.867188 621 894 654.132812 894 695 "/>
<path fill-rule="nonzero" fill="rgb(89.99939%, 17.999268%, 45.111084%)" fill-opacity="0.3" stroke-width="4" stroke-linecap="butt" stroke-linejoin="miter" stroke="rgb(89.99939%, 17.999268%, 45.111084%)" stroke-opacity="1" stroke-miterlimit="10" d="M 796 676 C 796 753.871094 732.871094 817 655 817 C 577.128906 817 514 753.871094 514 676 C 514 598.128906 577.128906 535 655 535 C 732.871094 535 796 598.128906 796 676 "/>
<path fill-rule="nonzero" fill="rgb(57.266235%, 89.99939%, 17.999268%)" fill-opacity="0.3" stroke-width="4" stroke-linecap="butt" stroke-linejoin="miter" stroke="rgb(57.266235%, 89.99939%, 17.999268%)" stroke-opacity="1" stroke-miterlimit="10" d="M 502 797 C 502 844.496094 463.496094 883 416 883 C 368.503906 883 330 844.496094 330 797 C 330 749.503906 368.503906 711 416 711 C 463.496094 711 502 749.503906 502 797 "/>
<path fill-rule="nonzero" fill="rgb(17.999268%, 77.171326%, 89.99939%)" fill-opacity="0.3" stroke-width="4" stroke-linecap="butt" stroke-linejoin="miter" stroke="rgb(17.999268%, 77.171326%, 89.99939%)" stroke-opacity="1" stroke-miterlimit="10" d="M 744 711 C 744 777.828125 689.828125 832 623 832 C 556.171875 832 502 777.828125 502 711 C 502 644.171875 556.171875 590 623 590 C 689.828125 590 744 644.171875 744 711 "/>
<path fill-rule="nonzero" fill="rgb(17.999268%, 89.99939%, 53.898621%)" fill-opacity="0.3" stroke-width="4" stroke-linecap="butt" stroke-linejoin="miter" stroke="rgb(17.999268%, 89.99939%, 53.898621%)" stroke-opacity="1" stroke-miterlimit="10" d="M 878 853 C 878 929.769531 815.769531 992 739 992 C 662.230469 992 600 929.769531 600 853 C 600 776.230469 662.230469 714 739 714 C 815.769531 714 878 776.230469 878 853 "/>
<path fill-rule="nonzero" fill="rgb(17.999268%, 55.021667%, 89.99939%)" fill-opacity="0.3" stroke-width="4" stroke-linecap="butt" stroke-linejoin="miter" stroke="rgb(17.999268%, 55.021667%, 89.99939%)" stroke-opacity="1" stroke-miterlimit="10" d="M 866 538 C 866 581.628906 830.628906 617 787 617 C 743.371094 617 708 581.628906 708 538 C 708 494.371094 743.371094 459 787 459 C 830.628906 459 866 494.371094 866 538 "/>
<path fill-rule="nonzero" fill="rgb(17.999268%, 59.332275%, 89.99939%)" fill-opacity="0.3" stroke-width="4" stroke-linecap="butt" stroke-linejoin="miter" stroke="rgb(17.999268%, 59.332275%, 89.99939%)" stroke-opacity="1" stroke-miterlimit="10" d="M 872 227 C 872 317.023438 799.023438 390 709 390 C 618.976562 390 546 317.023438 546 227 C 546 136.976562 618.976562 64 709 64 C 799.023438 64 872 136.976562 872 227 "/>
<path fill-rule="nonzero" fill="rgb(88.641357%, 17.999268%, 89.99939%)" fill-opacity="0.3" stroke-width="4" stroke-linecap="butt" stroke-linejoin="miter" stroke="rgb(88.641357%, 17.999268%, 89.99939%)" stroke-opacity="1" stroke-miterlimit="10" d="M 608 835 C 608 890.226562 563.226562 935 508 935 C 452.773438 935 408 890.226562 408 835 C 408 779.773438 452.773438 735 508 735 C 563.226562 735 608 779.773438 608 835 "/>
<path fill-rule="nonzero" fill="rgb(89.99939%, 73.796082%, 17.999268%)" fill-opacity="0.3" stroke-width="4" stroke-linecap="butt" stroke-linejoin="miter" stroke="rgb(89.99939%, 73.796082%, 17.999268%)" stroke-opacity="1" stroke-miterlimit="10" d="M 549 683 C 549 764.738281 482.738281 831 401 831 C 319.261719 831 253 764.738281 253 683 C 253 601.261719 319.261719 535 401 535 C 482.738281 535 549 601.261719 549 683 "/>
<path fill-rule="nonzero" fill="rgb(17.999268%, 89.99939%, 30.206299%)" fill-opacity="0.3" stroke-width="4" stroke-linecap="butt" stroke-linejoin="miter" stroke="rgb(17.999268%, 89.99939%, 30.206299%)" stroke-opacity="1" stroke-miterlimit="10" d="M 550 452 C 550 512.75 500.75 562 440 562 C 379.25 562 330 512.75 330 452 C 330 391.25 379.25 342 440 342 C 500.75 342 550 391.25 550 452 "/>
<path fill-rule="nonzero" fill="rgb(17.999268%, 61.590576%, 89.99939%)" fill-opacity="0.3" stroke-width="4" stroke-linecap="butt" stroke-linejoin="miter" stroke="rgb(17.999268%, 61.590576%, 89.99939%)" stroke-opacity="1" stroke-miterlimit="10" d="M 294 808 C 294 861.570312 250.570312 905 197 905 C 143.429688 905 100 861.570312 100 808 C 100 754.429688 143.429688 711 197 711 C 250.570312 711 294 754.429688 294 808 "/>
<path fill-rule="nonzero" fill="rgb(71.650696%, 89.99939%, 17.999268%)" fill-opacity="0.3" stroke-width="4" stroke-linecap="butt" stroke-linejoin="miter" stroke="rgb(71.650696%, 89.99939%, 17.999268%)" stroke-opacity="1" stroke-miterlimit="10" d="M 724 399 C 724 486.261719 653.261719 557 566 557 C 478.738281 557 408 486.261719 408 399 C 408 311.738281 478.738281 241 566 241 C 653.261719 241 724 311.738281 724 399 "/>
<path fill-rule="nonzero" fill="rgb(17.999268%, 89.99939%, 75.556946%)" fill-opacity="0.3" stroke-width="4" stroke-linecap="butt" stroke-linejoin="miter" stroke="rgb(17.999268%, 89.99939%, 75.556946%)" stroke-opacity="1" stroke-miterlimit="10" d="M 491 349 C 491 416.929688 435.929688 472 368 472 C 300.070312 472 245 416.929688 245 349 C 245 281.070312 300.070312 226 368 226 C 435.929688 226 491 281.070312 491 349 "/>
<path fill-rule="nonzero" fill="rgb(17.999268%, 89.99939%, 36.778259%)" fill-opacity="0.3" stroke-width="4" stroke-linecap="butt" stroke-linejoin="miter" stroke="rgb(17.999268%, 89.99939%, 36.778259%)" stroke-opacity="1" stroke-miterlimit="10" d="M 975 656 C 975 702.390625 937.390625 740 891 740 C 844.609375 740 807 702.390625 807 656 C 807 609.609375 844.609375 572 891 572 C 937.390625 572 975 609.609375 975 656 "/>
<path fill-rule="nonzero" fill="rgb(89.99939%, 17.999268%, 42.092896%)" fill-opacity="0.3" stroke-width="4" stroke-linecap="butt" stroke-linejoin="miter" stroke="rgb(89.99939%, 17.999268%, 42.092896%)" stroke-opacity="1" stroke-miterlimit="10" d="M 556 476 C 556 519.078125 521.078125 554 478 554 C 434.921875 554 400 519.078125 400 476 C 400 432.921875 434.921875 398 478 398 C 521.078125 398 556 432.921875 556 476 "/>
<path fill-rule="nonzero" fill="rgb(41.366577%, 17.999268%, 89.99939%)" fill-opacity="0.3" stroke-width="4" stroke-linecap="butt" stroke-linejoin="miter" stroke="rgb(41.366577%, 17.999268%, 89.99939%)" stroke-opacity="1" stroke-miterlimit="10" d="M 507 602 C 507 634.03125 481.03125 660 449 660 C 416.96875 660 391 634.03125 391 602 C 391 569.96875 416.96875 544 449 544 C 481.03125 544 507 569.96875 507 602 "/>
<path fill-rule="nonzero" fill="rgb(17.999268%, 89.99939%, 20.181274%)" fill-opacity="0.3" stroke-width="4" stroke-linecap="butt" stroke-linejoin="miter" stroke="rgb(17.999268%, 89.99939%, 20.181274%)" stroke-opacity="1" stroke-miterlimit="10" d="M 531 103 C 531 193.023438 458.023438 266 368 266 C 277.976562 266 205 193.023438 205 103 C 205 12.976562 277.976562 -60 368 -60 C 458.023438 -60 531 12.976562 531 103 "/>
<path fill-rule="nonzero" fill="rgb(17.999268%, 89.99939%, 24.32251%)" fill-opacity="0.3" stroke-width="4" stroke-linecap="butt" stroke-linejoin="miter" stroke="rgb(17.999268%, 89.99939%, 24.32251%)" stroke-opacity="1" stroke-miterlimit="10" d="M 938 609 C 938 642.6875 910.6875 670 877 670 C 843.3125 670 816 642.6875 816 609 C 816 575.3125 843.3125 548 877 548 C 910.6875 548 938 575.3125 938 609 "/>
<path fill-rule="nonzero" fill="rgb(69.345093%, 17.999268%, 89.99939%)" fill-opacity="0.3" stroke-width="4" stroke-linecap="butt" stroke-linejoin="miter" stroke="rgb(69.345093%, 17.999268%, 89.99939%)" stroke-opacity="1" stroke-miterlimit="10" d="M 983 167 C 983 221.125 939.125 265 885 265 C 830.875 265 787 221.125 787 167 C 787 112.875 830.875 69 885 69 C 939.125 69 983 112.875 983 167 "/>
<path fill-rule="nonzero" fill="rgb(89.99939%, 17.999268%, 73.603821%)" fill-opacity="0.3" stroke-width="4" stroke-linecap="butt" stroke-linejoin="miter" stroke="rgb(89.99939%, 17.999268%, 73.603821%)" stroke-opacity="1" stroke-miterlimit="10" d="M 631 447 C 631 520.453125 571.453125 580 498 580 C 424.546875 580 365 520.453125 365 447 C 365 373.546875 424.546875 314 498 314 C 571.453125 314 631 373.546875 631 447 "/>
</svg>
