<?xml version="1.0" encoding="UTF-8"?>
<svg xmlns="http://www.w3.org/2000/svg" xmlns:xlink="http://www.w3.org/1999/xlink" width="316.4" height="313.9" viewBox="0 0 316.4 313.9">
<defs>
<clipPath id="clip-0">
<path clip-rule="nonzero" d="M 111 0.246094 L 167 0.246094 L 167 56 L 111 56 Z M 111 0.246094 "/>
</clipPath>
<clipPath id="clip-1">
<path clip-rule="nonzero" d="M 111 0.246094 L 167 0.246094 L 167 57 L 111 57 Z M 111 0.246094 "/>
</clipPath>
<clipPath id="clip-2">
<path clip-rule="nonzero" d="M 257 120 L 315.800781 120 L 315.800781 179 L 257 179 Z M 257 120 "/>
</clipPath>
<clipPath id="clip-3">
<path clip-rule="nonzero" d="M 109 259 L 163 259 L 163 313.554688 L 109 313.554688 Z M 109 259 "/>
</clipPath>
</defs>
<path fill-rule="nonzero" fill="rgb(30.899048%, 52.49939%, 80.299377%)" fill-opacity="1" stroke-width="0.4" stroke-linecap="butt" stroke-linejoin="round" stroke="rgb(0%, 0%, 0%)" stroke-opacity="1" stroke-miterlimit="10" d="M 207.999177 176.500821 C 207.999177 169.597129 202.402646 164.000599 195.498955 164.000599 C 188.599176 164.000599 182.998732 169.597129 182.998732 176.500821 C 182.998732 183.400599 188.599176 189.001043 195.498955 189.001043 C 202.402646 189.001043 207.999177 183.400599 207.999177 176.500821 " transform="matrix(0.998107, 0, 0, -0.998107, -55.195331, 424.143312)"/>
<path fill-rule="nonzero" fill="rgb(8.198547%, 75.19989%, 45.399475%)" fill-opacity="1" stroke-width="0.4" stroke-linecap="butt" stroke-linejoin="round" stroke="rgb(0%, 0%, 0%)" stroke-opacity="1" stroke-miterlimit="10" d="M 145.001031 325.000643 C 145.001031 320.859993 141.639199 317.498161 137.49855 317.498161 C 133.3579 317.498161 129.999982 320.859993 129.999982 325.000643 C 129.999982 329.141293 133.3579 332.499211 137.49855 332.499211 C 141.639199 332.499211 145.001031 329.141293 145.001031 325.000643 " transform="matrix(0.998107, 0, 0, -0.998107, -55.195331, 424.143312)"/>
<g clip-path="url(#clip-0)">
<path fill-rule="nonzero" fill="rgb(58.799744%, 13.699341%, 22.299194%)" fill-opacity="1" d="M 166.382812 28.394531 C 166.382812 43.554688 154.097656 55.839844 138.9375 55.839844 C 123.777344 55.839844 111.488281 43.554688 111.488281 28.394531 C 111.488281 13.234375 123.777344 0.945312 138.9375 0.945312 C 154.097656 0.945312 166.382812 13.234375 166.382812 28.394531 "/>
</g>
<g clip-path="url(#clip-1)">
<path fill="none" stroke-width="0.4" stroke-linecap="butt" stroke-linejoin="round" stroke="rgb(0%, 0%, 0%)" stroke-opacity="1" stroke-miterlimit="10" d="M 221.99833 396.499253 C 221.99833 381.310348 209.689877 369.001895 194.500972 369.001895 C 179.312067 369.001895 166.9997 381.310348 166.9997 396.499253 C 166.9997 411.688158 179.312067 424.000524 194.500972 424.000524 C 209.689877 424.000524 221.99833 411.688158 221.99833 396.499253 " transform="matrix(0.998107, 0, 0, -0.998107, -55.195331, 424.143312)"/>
</g>
<path fill-rule="nonzero" fill="rgb(88.999939%, 15.19928%, 18.399048%)" fill-opacity="1" stroke-width="0.4" stroke-linecap="butt" stroke-linejoin="round" stroke="rgb(0%, 0%, 0%)" stroke-opacity="1" stroke-miterlimit="10" d="M 322.000108 369.999878 C 322.000108 355.640668 310.36089 344.00145 296.001681 344.00145 C 281.642471 344.00145 269.99934 355.640668 269.99934 369.999878 C 269.99934 384.359087 281.642471 395.998305 296.001681 395.998305 C 310.36089 395.998305 322.000108 384.359087 322.000108 369.999878 " transform="matrix(0.998107, 0, 0, -0.998107, -55.195331, 424.143312)"/>
<g clip-path="url(#clip-2)">
<path fill-rule="nonzero" fill="rgb(10.899353%, 89.7995%, 5.39856%)" fill-opacity="1" stroke-width="0.4" stroke-linecap="butt" stroke-linejoin="round" stroke="rgb(0%, 0%, 0%)" stroke-opacity="1" stroke-miterlimit="10" d="M 370.9991 274.999754 C 370.9991 258.985067 358.017498 245.999552 341.998898 245.999552 C 325.984211 245.999552 312.998695 258.985067 312.998695 274.999754 C 312.998695 291.014441 325.984211 303.999957 341.998898 303.999957 C 358.017498 303.999957 370.9991 291.014441 370.9991 274.999754 " transform="matrix(0.998107, 0, 0, -0.998107, -55.195331, 424.143312)"/>
</g>
<path fill-rule="nonzero" fill="rgb(50.498962%, 54.499817%, 15.19928%)" fill-opacity="1" stroke-width="0.4" stroke-linecap="butt" stroke-linejoin="round" stroke="rgb(0%, 0%, 0%)" stroke-opacity="1" stroke-miterlimit="10" d="M 329.999624 171.499166 C 329.999624 156.310261 317.687257 144.001808 302.498352 144.001808 C 287.313361 144.001808 275.000994 156.310261 275.000994 171.499166 C 275.000994 186.688071 287.313361 199.000438 302.498352 199.000438 C 317.687257 199.000438 329.999624 186.688071 329.999624 171.499166 " transform="matrix(0.998107, 0, 0, -0.998107, -55.195331, 424.143312)"/>
<path fill-rule="nonzero" fill="rgb(6.599426%, 66.19873%, 27.799988%)" fill-opacity="1" d="M 162.390625 286.40625 C 162.390625 301.015625 150.550781 312.855469 135.941406 312.855469 C 121.332031 312.855469 109.492188 301.015625 109.492188 286.40625 C 109.492188 271.796875 121.332031 259.953125 135.941406 259.953125 C 150.550781 259.953125 162.390625 271.796875 162.390625 286.40625 "/>
<g clip-path="url(#clip-3)">
<path fill="none" stroke-width="0.4" stroke-linecap="butt" stroke-linejoin="round" stroke="rgb(0%, 0%, 0%)" stroke-opacity="1" stroke-miterlimit="10" d="M 217.998572 137.998258 C 217.998572 123.361178 206.136276 111.498882 191.499197 111.498882 C 176.862117 111.498882 164.999821 123.361178 164.999821 137.998258 C 164.999821 152.635337 176.862117 164.501547 191.499197 164.501547 C 206.136276 164.501547 217.998572 152.635337 217.998572 137.998258 " transform="matrix(0.998107, 0, 0, -0.998107, -55.195331, 424.143312)"/>
</g>
<path fill-rule="nonzero" fill="rgb(54.499817%, 12.098694%, 50.898743%)" fill-opacity="1" stroke-width="0.4" stroke-linecap="butt" stroke-linejoin="round" stroke="rgb(0%, 0%, 0%)" stroke-opacity="1" stroke-miterlimit="10" d="M 120.000587 185.001285 C 120.000587 174.508769 111.492295 166.000478 100.999779 166.000478 C 90.507263 166.000478 81.998972 174.508769 81.998972 185.001285 C 81.998972 195.493801 90.507263 203.998179 100.999779 203.998179 C 111.492295 203.998179 120.000587 195.493801 120.000587 185.001285 " transform="matrix(0.998107, 0, 0, -0.998107, -55.195331, 424.143312)"/>
<path fill-rule="nonzero" fill="rgb(41.899109%, 32.499695%, 73.298645%)" fill-opacity="1" stroke-width="0.4" stroke-linecap="butt" stroke-linejoin="round" stroke="rgb(0%, 0%, 0%)" stroke-opacity="1" stroke-miterlimit="10" d="M 118.99869 285.500097 C 118.99869 268.103889 104.897782 253.999068 87.501574 253.999068 C 70.101453 253.999068 56.000545 268.103889 56.000545 285.500097 C 56.000545 302.896305 70.101453 317.001127 87.501574 317.001127 C 104.897782 317.001127 118.99869 302.896305 118.99869 285.500097 " transform="matrix(0.998107, 0, 0, -0.998107, -55.195331, 424.143312)"/>
<path fill-rule="nonzero" fill="rgb(27.799988%, 90.098572%, 59.199524%)" fill-opacity="1" stroke-width="0.4" stroke-linecap="butt" stroke-linejoin="round" stroke="rgb(0%, 0%, 0%)" stroke-opacity="1" stroke-miterlimit="10" d="M 149.998772 313.498403 C 149.998772 310.461405 147.537081 307.999715 144.500083 307.999715 C 141.459171 307.999715 139.001394 310.461405 139.001394 313.498403 C 139.001394 316.539315 141.459171 319.001006 144.500083 319.001006 C 147.537081 319.001006 149.998772 316.539315 149.998772 313.498403 " transform="matrix(0.998107, 0, 0, -0.998107, -55.195331, 424.143312)"/>
<path fill-rule="nonzero" fill="rgb(22.299194%, 48.999023%, 25.39978%)" fill-opacity="1" stroke-width="0.4" stroke-linecap="butt" stroke-linejoin="round" stroke="rgb(0%, 0%, 0%)" stroke-opacity="1" stroke-miterlimit="10" d="M 178.998974 300.000199 C 178.998974 294.478028 174.52175 290.000803 168.999579 290.000803 C 163.477408 290.000803 159.000184 294.478028 159.000184 300.000199 C 159.000184 305.522369 163.477408 309.999594 168.999579 309.999594 C 174.52175 309.999594 178.998974 305.522369 178.998974 300.000199 " transform="matrix(0.998107, 0, 0, -0.998107, -55.195331, 424.143312)"/>
<path fill-rule="nonzero" fill="rgb(97.599792%, 94.499207%, 39.898682%)" fill-opacity="1" stroke-width="0.4" stroke-linecap="butt" stroke-linejoin="round" stroke="rgb(0%, 0%, 0%)" stroke-opacity="1" stroke-miterlimit="10" d="M 195.00192 270.999996 C 195.00192 267.133302 191.86708 263.998463 188.000387 263.998463 C 184.133693 263.998463 180.998853 267.133302 180.998853 270.999996 C 180.998853 274.86669 184.133693 278.001529 188.000387 278.001529 C 191.86708 278.001529 195.00192 274.86669 195.00192 270.999996 " transform="matrix(0.998107, 0, 0, -0.998107, -55.195331, 424.143312)"/>
<path fill-rule="nonzero" fill="rgb(11.299133%, 16.398621%, 48.599243%)" fill-opacity="1" stroke-width="0.4" stroke-linecap="butt" stroke-linejoin="round" stroke="rgb(0%, 0%, 0%)" stroke-opacity="1" stroke-miterlimit="10" d="M 283.998493 295.499492 C 283.998493 291.632799 280.867567 288.501873 277.000873 288.501873 C 273.134179 288.501873 269.99934 291.632799 269.99934 295.499492 C 269.99934 299.366186 273.134179 302.501026 277.000873 302.501026 C 280.867567 302.501026 283.998493 299.366186 283.998493 295.499492 " transform="matrix(0.998107, 0, 0, -0.998107, -55.195331, 424.143312)"/>
<path fill-rule="nonzero" fill="rgb(26.599121%, 35.198975%, 6.999207%)" fill-opacity="1" stroke-width="0.4" stroke-linecap="butt" stroke-linejoin="round" stroke="rgb(0%, 0%, 0%)" stroke-opacity="1" stroke-miterlimit="10" d="M 285.000389 245.498603 C 285.000389 242.187649 282.311706 239.498966 279.000752 239.498966 C 275.689798 239.498966 273.001115 242.187649 273.001115 245.498603 C 273.001115 248.813471 275.689798 251.49824 279.000752 251.49824 C 282.311706 251.49824 285.000389 248.813471 285.000389 245.498603 " transform="matrix(0.998107, 0, 0, -0.998107, -55.195331, 424.143312)"/>
<path fill-rule="nonzero" fill="rgb(16.398621%, 40.699768%, 95.999146%)" fill-opacity="1" stroke-width="0.4" stroke-linecap="butt" stroke-linejoin="round" stroke="rgb(0%, 0%, 0%)" stroke-opacity="1" stroke-miterlimit="10" d="M 281.000631 212.498643 C 281.000631 207.806168 277.196556 203.998179 272.500167 203.998179 C 267.803778 203.998179 263.999703 207.806168 263.999703 212.498643 C 263.999703 217.195032 267.803778 220.999107 272.500167 220.999107 C 277.196556 220.999107 281.000631 217.195032 281.000631 212.498643 " transform="matrix(0.998107, 0, 0, -0.998107, -55.195331, 424.143312)"/>
<path fill-rule="nonzero" fill="rgb(70.899963%, 55.999756%, 6.599426%)" fill-opacity="1" stroke-width="0.4" stroke-linecap="butt" stroke-linejoin="round" stroke="rgb(0%, 0%, 0%)" stroke-opacity="1" stroke-miterlimit="10" d="M 258.000066 187.999147 C 258.000066 182.476976 253.522841 177.999752 248.000671 177.999752 C 242.4785 177.999752 238.001276 182.476976 238.001276 187.999147 C 238.001276 193.521317 242.4785 197.998542 248.000671 197.998542 C 253.522841 197.998542 258.000066 193.521317 258.000066 187.999147 " transform="matrix(0.998107, 0, 0, -0.998107, -55.195331, 424.143312)"/>
<path fill-rule="nonzero" fill="rgb(36.799622%, 83.898926%, 57.598877%)" fill-opacity="1" stroke-width="0.4" stroke-linecap="butt" stroke-linejoin="round" stroke="rgb(0%, 0%, 0%)" stroke-opacity="1" stroke-miterlimit="10" d="M 221.000347 181.99951 C 221.000347 178.132816 217.865507 175.00189 213.998814 175.00189 C 210.13212 175.00189 207.001194 178.132816 207.001194 181.99951 C 207.001194 185.866203 210.13212 189.001043 213.998814 189.001043 C 217.865507 189.001043 221.000347 185.866203 221.000347 181.99951 " transform="matrix(0.998107, 0, 0, -0.998107, -55.195331, 424.143312)"/>
<path fill-rule="nonzero" fill="rgb(49.398804%, 34.899902%, 64.299011%)" fill-opacity="1" stroke-width="0.4" stroke-linecap="butt" stroke-linejoin="round" stroke="rgb(0%, 0%, 0%)" stroke-opacity="1" stroke-miterlimit="10" d="M 228.999863 195.501628 C 228.999863 191.083109 225.418867 187.498198 221.000347 187.498198 C 216.581828 187.498198 213.000831 191.083109 213.000831 195.501628 C 213.000831 199.916234 216.581828 203.501144 221.000347 203.501144 C 225.418867 203.501144 228.999863 199.916234 228.999863 195.501628 " transform="matrix(0.998107, 0, 0, -0.998107, -55.195331, 424.143312)"/>
<path fill-rule="nonzero" fill="rgb(72.099304%, 66.999817%, 60.699463%)" fill-opacity="1" stroke-width="0.4" stroke-linecap="butt" stroke-linejoin="round" stroke="rgb(0%, 0%, 0%)" stroke-opacity="1" stroke-miterlimit="10" d="M 263.00172 251.999189 C 263.00172 245.925192 258.074425 241.001811 252.000429 241.001811 C 245.926432 241.001811 240.999137 245.925192 240.999137 251.999189 C 240.999137 258.073185 245.926432 263.00048 252.000429 263.00048 C 258.074425 263.00048 263.00172 258.073185 263.00172 251.999189 " transform="matrix(0.998107, 0, 0, -0.998107, -55.195331, 424.143312)"/>
<path fill-rule="nonzero" fill="rgb(20.698547%, 92.498779%, 88.598633%)" fill-opacity="1" stroke-width="0.4" stroke-linecap="butt" stroke-linejoin="round" stroke="rgb(0%, 0%, 0%)" stroke-opacity="1" stroke-miterlimit="10" d="M 269.001357 269.501065 C 269.001357 264.804676 265.193368 261.000601 260.500893 261.000601 C 255.804504 261.000601 252.000429 264.804676 252.000429 269.501065 C 252.000429 274.193541 255.804504 278.001529 260.500893 278.001529 C 265.193368 278.001529 269.001357 274.193541 269.001357 269.501065 " transform="matrix(0.998107, 0, 0, -0.998107, -55.195331, 424.143312)"/>
<path fill-rule="nonzero" fill="rgb(14.898682%, 32.499695%, 10.899353%)" fill-opacity="1" stroke-width="0.4" stroke-linecap="butt" stroke-linejoin="round" stroke="rgb(0%, 0%, 0%)" stroke-opacity="1" stroke-miterlimit="10" d="M 285.000389 270.499048 C 285.000389 266.080529 281.419392 262.499532 277.000873 262.499532 C 272.582354 262.499532 269.001357 266.080529 269.001357 270.499048 C 269.001357 274.917567 272.582354 278.498564 277.000873 278.498564 C 281.419392 278.498564 285.000389 274.917567 285.000389 270.499048 " transform="matrix(0.998107, 0, 0, -0.998107, -55.195331, 424.143312)"/>
<path fill-rule="nonzero" fill="rgb(31.298828%, 81.098938%, 8.198547%)" fill-opacity="1" stroke-width="0.4" stroke-linecap="butt" stroke-linejoin="round" stroke="rgb(0%, 0%, 0%)" stroke-opacity="1" stroke-miterlimit="10" d="M 252.000429 291.499734 C 252.000429 287.633041 248.865589 284.498201 244.998895 284.498201 C 241.132202 284.498201 238.001276 287.633041 238.001276 291.499734 C 238.001276 295.366428 241.132202 298.501268 244.998895 298.501268 C 248.865589 298.501268 252.000429 295.366428 252.000429 291.499734 " transform="matrix(0.998107, 0, 0, -0.998107, -55.195331, 424.143312)"/>
<path fill-rule="nonzero" fill="rgb(66.598511%, 88.198853%, 19.599915%)" fill-opacity="1" stroke-width="0.4" stroke-linecap="butt" stroke-linejoin="round" stroke="rgb(0%, 0%, 0%)" stroke-opacity="1" stroke-miterlimit="10" d="M 252.000429 272.498927 C 252.000429 265.599149 246.403898 259.998705 239.500206 259.998705 C 232.596514 259.998705 226.999984 265.599149 226.999984 272.498927 C 226.999984 279.402619 232.596514 284.999149 239.500206 284.999149 C 246.403898 284.999149 252.000429 279.402619 252.000429 272.498927 " transform="matrix(0.998107, 0, 0, -0.998107, -55.195331, 424.143312)"/>
<path fill-rule="nonzero" fill="rgb(6.999207%, 83.898926%, 46.598816%)" fill-opacity="1" stroke-width="0.4" stroke-linecap="butt" stroke-linejoin="round" stroke="rgb(0%, 0%, 0%)" stroke-opacity="1" stroke-miterlimit="10" d="M 261.001841 282.99927 C 261.001841 279.688316 258.313158 276.999633 254.99829 276.999633 C 251.687336 276.999633 248.998653 279.688316 248.998653 282.99927 C 248.998653 286.310224 251.687336 288.998907 254.99829 288.998907 C 258.313158 288.998907 261.001841 286.310224 261.001841 282.99927 " transform="matrix(0.998107, 0, 0, -0.998107, -55.195331, 424.143312)"/>
<path fill-rule="nonzero" fill="rgb(63.09967%, 90.499878%, 63.09967%)" fill-opacity="1" stroke-width="0.4" stroke-linecap="butt" stroke-linejoin="round" stroke="rgb(0%, 0%, 0%)" stroke-opacity="1" stroke-miterlimit="10" d="M 269.99934 298.998302 C 269.99934 293.476131 265.522115 288.998907 259.999945 288.998907 C 254.477774 288.998907 250.00055 293.476131 250.00055 298.998302 C 250.00055 304.524387 254.477774 309.001611 259.999945 309.001611 C 265.522115 309.001611 269.99934 304.524387 269.99934 298.998302 " transform="matrix(0.998107, 0, 0, -0.998107, -55.195331, 424.143312)"/>
<path fill-rule="nonzero" fill="rgb(46.998596%, 47.799683%, 33.699036%)" fill-opacity="1" stroke-width="0.4" stroke-linecap="butt" stroke-linejoin="round" stroke="rgb(0%, 0%, 0%)" stroke-opacity="1" stroke-miterlimit="10" d="M 238.001276 321.501833 C 238.001276 317.909095 235.089514 315.001248 231.50069 315.001248 C 227.911866 315.001248 225.000105 317.909095 225.000105 321.501833 C 225.000105 325.090657 227.911866 327.998505 231.50069 327.998505 C 235.089514 327.998505 238.001276 325.090657 238.001276 321.501833 " transform="matrix(0.998107, 0, 0, -0.998107, -55.195331, 424.143312)"/>
<path fill-rule="nonzero" fill="rgb(81.898499%, 12.098694%, 70.899963%)" fill-opacity="1" stroke-width="0.4" stroke-linecap="butt" stroke-linejoin="round" stroke="rgb(0%, 0%, 0%)" stroke-opacity="1" stroke-miterlimit="10" d="M 232.001639 310.500542 C 232.001639 306.911718 229.089877 303.999957 225.501053 303.999957 C 221.908316 303.999957 219.000468 306.911718 219.000468 310.500542 C 219.000468 314.089366 221.908316 317.001127 225.501053 317.001127 C 229.089877 317.001127 232.001639 314.089366 232.001639 310.500542 " transform="matrix(0.998107, 0, 0, -0.998107, -55.195331, 424.143312)"/>
<path fill-rule="nonzero" fill="rgb(89.7995%, 30.499268%, 19.898987%)" fill-opacity="1" stroke-width="0.4" stroke-linecap="butt" stroke-linejoin="round" stroke="rgb(0%, 0%, 0%)" stroke-opacity="1" stroke-miterlimit="10" d="M 238.001276 292.998665 C 238.001276 286.924669 233.073981 282.001287 226.999984 282.001287 C 220.925988 282.001287 215.998693 286.924669 215.998693 292.998665 C 215.998693 299.072662 220.925988 303.999957 226.999984 303.999957 C 233.073981 303.999957 238.001276 299.072662 238.001276 292.998665 " transform="matrix(0.998107, 0, 0, -0.998107, -55.195331, 424.143312)"/>
<path fill-rule="nonzero" fill="rgb(56.399536%, 91.299438%, 1.499939%)" fill-opacity="1" stroke-width="0.4" stroke-linecap="butt" stroke-linejoin="round" stroke="rgb(0%, 0%, 0%)" stroke-opacity="1" stroke-miterlimit="10" d="M 226.999984 275.500702 C 226.999984 270.804313 223.195909 267.000238 218.49952 267.000238 C 213.803131 267.000238 209.999056 270.804313 209.999056 275.500702 C 209.999056 280.193178 213.803131 284.001166 218.49952 284.001166 C 223.195909 284.001166 226.999984 280.193178 226.999984 275.500702 " transform="matrix(0.998107, 0, 0, -0.998107, -55.195331, 424.143312)"/>
<path fill-rule="nonzero" fill="rgb(48.999023%, 79.899597%, 73.699951%)" fill-opacity="1" stroke-width="0.4" stroke-linecap="butt" stroke-linejoin="round" stroke="rgb(0%, 0%, 0%)" stroke-opacity="1" stroke-miterlimit="10" d="M 219.000468 261.000601 C 219.000468 256.859951 215.64255 253.498119 211.5019 253.498119 C 207.357337 253.498119 203.999419 256.859951 203.999419 261.000601 C 203.999419 265.141251 207.357337 268.499169 211.5019 268.499169 C 215.64255 268.499169 219.000468 265.141251 219.000468 261.000601 " transform="matrix(0.998107, 0, 0, -0.998107, -55.195331, 424.143312)"/>
<path fill-rule="nonzero" fill="rgb(81.498718%, 90.899658%, 94.499207%)" fill-opacity="1" stroke-width="0.4" stroke-linecap="butt" stroke-linejoin="round" stroke="rgb(0%, 0%, 0%)" stroke-opacity="1" stroke-miterlimit="10" d="M 228.999863 249.498361 C 228.999863 245.357712 225.641945 241.999794 221.501295 241.999794 C 217.360646 241.999794 213.998814 245.357712 213.998814 249.498361 C 213.998814 253.642925 217.360646 257.000843 221.501295 257.000843 C 225.641945 257.000843 228.999863 253.642925 228.999863 249.498361 " transform="matrix(0.998107, 0, 0, -0.998107, -55.195331, 424.143312)"/>
<path fill-rule="nonzero" fill="rgb(62.298584%, 99.198914%, 8.999634%)" fill-opacity="1" stroke-width="0.4" stroke-linecap="butt" stroke-linejoin="round" stroke="rgb(0%, 0%, 0%)" stroke-opacity="1" stroke-miterlimit="10" d="M 246.998774 236.501105 C 246.998774 230.149239 241.852315 224.998865 235.500448 224.998865 C 229.148582 224.998865 223.998209 230.149239 223.998209 236.501105 C 223.998209 242.852971 229.148582 247.999431 235.500448 247.999431 C 241.852315 247.999431 246.998774 242.852971 246.998774 236.501105 " transform="matrix(0.998107, 0, 0, -0.998107, -55.195331, 424.143312)"/>
<path fill-rule="nonzero" fill="rgb(50.099182%, 18.798828%, 40.699768%)" fill-opacity="1" stroke-width="0.4" stroke-linecap="butt" stroke-linejoin="round" stroke="rgb(0%, 0%, 0%)" stroke-opacity="1" stroke-miterlimit="10" d="M 207.999177 234.000278 C 207.999177 230.133584 204.868251 226.998744 201.001557 226.998744 C 197.134863 226.998744 194.000024 230.133584 194.000024 234.000278 C 194.000024 237.866971 197.134863 241.001811 201.001557 241.001811 C 204.868251 241.001811 207.999177 237.866971 207.999177 234.000278 " transform="matrix(0.998107, 0, 0, -0.998107, -55.195331, 424.143312)"/>
<path fill-rule="nonzero" fill="rgb(33.699036%, 65.39917%, 6.999207%)" fill-opacity="1" stroke-width="0.4" stroke-linecap="butt" stroke-linejoin="round" stroke="rgb(0%, 0%, 0%)" stroke-opacity="1" stroke-miterlimit="10" d="M 182.998732 243.00169 C 182.998732 238.031345 178.967665 234.000278 174.001234 234.000278 C 169.030889 234.000278 164.999821 238.031345 164.999821 243.00169 C 164.999821 247.968121 169.030889 251.999189 174.001234 251.999189 C 178.967665 251.999189 182.998732 247.968121 182.998732 243.00169 " transform="matrix(0.998107, 0, 0, -0.998107, -55.195331, 424.143312)"/>
<path fill-rule="nonzero" fill="rgb(23.899841%, 28.199768%, 14.498901%)" fill-opacity="1" stroke-width="0.4" stroke-linecap="butt" stroke-linejoin="round" stroke="rgb(0%, 0%, 0%)" stroke-opacity="1" stroke-miterlimit="10" d="M 190.000266 257.501791 C 190.000266 253.083272 186.419269 249.498361 182.00075 249.498361 C 177.58223 249.498361 174.001234 253.083272 174.001234 257.501791 C 174.001234 261.916397 177.58223 265.501307 182.00075 265.501307 C 186.419269 265.501307 190.000266 261.916397 190.000266 257.501791 " transform="matrix(0.998107, 0, 0, -0.998107, -55.195331, 424.143312)"/>
<path fill-rule="nonzero" fill="rgb(72.099304%, 61.898804%, 77.598572%)" fill-opacity="1" stroke-width="0.4" stroke-linecap="butt" stroke-linejoin="round" stroke="rgb(0%, 0%, 0%)" stroke-opacity="1" stroke-miterlimit="10" d="M 211.000952 272.999875 C 211.000952 268.581356 207.419955 265.000359 203.001436 265.000359 C 198.582917 265.000359 195.00192 268.581356 195.00192 272.999875 C 195.00192 277.418394 198.582917 280.999391 203.001436 280.999391 C 207.419955 280.999391 211.000952 277.418394 211.000952 272.999875 " transform="matrix(0.998107, 0, 0, -0.998107, -55.195331, 424.143312)"/>
<path fill-rule="nonzero" fill="rgb(84.298706%, 32.499695%, 24.299622%)" fill-opacity="1" stroke-width="0.4" stroke-linecap="butt" stroke-linejoin="round" stroke="rgb(0%, 0%, 0%)" stroke-opacity="1" stroke-miterlimit="10" d="M 205.001315 259.000722 C 205.001315 254.582203 201.416405 251.001206 197.001799 251.001206 C 192.58328 251.001206 188.998369 254.582203 188.998369 259.000722 C 188.998369 263.419241 192.58328 267.000238 197.001799 267.000238 C 201.416405 267.000238 205.001315 263.419241 205.001315 259.000722 " transform="matrix(0.998107, 0, 0, -0.998107, -55.195331, 424.143312)"/>
<path fill-rule="nonzero" fill="rgb(14.498901%, 52.49939%, 5.799866%)" fill-opacity="1" stroke-width="0.4" stroke-linecap="butt" stroke-linejoin="round" stroke="rgb(0%, 0%, 0%)" stroke-opacity="1" stroke-miterlimit="10" d="M 199.001678 245.001569 C 199.001678 240.58305 195.416768 236.998139 190.998248 236.998139 C 186.583643 236.998139 182.998732 240.58305 182.998732 245.001569 C 182.998732 249.416175 186.583643 253.001085 190.998248 253.001085 C 195.416768 253.001085 199.001678 249.416175 199.001678 245.001569 " transform="matrix(0.998107, 0, 0, -0.998107, -55.195331, 424.143312)"/>
<path fill-rule="nonzero" fill="rgb(5.799866%, 54.499817%, 95.599365%)" fill-opacity="1" stroke-width="0.4" stroke-linecap="butt" stroke-linejoin="round" stroke="rgb(0%, 0%, 0%)" stroke-opacity="1" stroke-miterlimit="10" d="M 213.998814 247.498482 C 213.998814 243.357833 210.640896 239.999915 206.500246 239.999915 C 202.359596 239.999915 199.001678 243.357833 199.001678 247.498482 C 199.001678 251.639132 202.359596 255.000964 206.500246 255.000964 C 210.640896 255.000964 213.998814 251.639132 213.998814 247.498482 " transform="matrix(0.998107, 0, 0, -0.998107, -55.195331, 424.143312)"/>
<path fill-rule="nonzero" fill="rgb(85.798645%, 27.799988%, 52.099609%)" fill-opacity="1" stroke-width="0.4" stroke-linecap="butt" stroke-linejoin="round" stroke="rgb(0%, 0%, 0%)" stroke-opacity="1" stroke-miterlimit="10" d="M 230.999742 262.499532 C 230.999742 259.188578 228.311059 256.499895 225.000105 256.499895 C 221.689151 256.499895 219.000468 259.188578 219.000468 262.499532 C 219.000468 265.810486 221.689151 268.499169 225.000105 268.499169 C 228.311059 268.499169 230.999742 265.810486 230.999742 262.499532 " transform="matrix(0.998107, 0, 0, -0.998107, -55.195331, 424.143312)"/>
<path fill-rule="nonzero" fill="rgb(76.399231%, 22.299194%, 0.698853%)" fill-opacity="1" stroke-width="0.4" stroke-linecap="butt" stroke-linejoin="round" stroke="rgb(0%, 0%, 0%)" stroke-opacity="1" stroke-miterlimit="10" d="M 240.999137 254.500016 C 240.999137 250.911192 238.09129 247.999431 234.498552 247.999431 C 230.909728 247.999431 228.001881 250.911192 228.001881 254.500016 C 228.001881 258.08884 230.909728 261.000601 234.498552 261.000601 C 238.09129 261.000601 240.999137 258.08884 240.999137 254.500016 " transform="matrix(0.998107, 0, 0, -0.998107, -55.195331, 424.143312)"/>
<path fill-rule="nonzero" fill="rgb(75.19989%, 31.298828%, 82.299805%)" fill-opacity="1" stroke-width="0.4" stroke-linecap="butt" stroke-linejoin="round" stroke="rgb(0%, 0%, 0%)" stroke-opacity="1" stroke-miterlimit="10" d="M 223.998209 234.99826 C 223.998209 230.583654 220.417212 226.998744 215.998693 226.998744 C 211.580173 226.998744 207.999177 230.583654 207.999177 234.99826 C 207.999177 239.41678 211.580173 243.00169 215.998693 243.00169 C 220.417212 243.00169 223.998209 239.41678 223.998209 234.99826 " transform="matrix(0.998107, 0, 0, -0.998107, -55.195331, 424.143312)"/>
<path fill-rule="nonzero" fill="rgb(94.099426%, 72.099304%, 44.299316%)" fill-opacity="1" stroke-width="0.4" stroke-linecap="butt" stroke-linejoin="round" stroke="rgb(0%, 0%, 0%)" stroke-opacity="1" stroke-miterlimit="10" d="M 207.001194 315.001248 C 207.001194 310.582729 203.416284 307.001732 199.001678 307.001732 C 194.583159 307.001732 190.998248 310.582729 190.998248 315.001248 C 190.998248 319.419767 194.583159 323.000764 199.001678 323.000764 C 203.416284 323.000764 207.001194 319.419767 207.001194 315.001248 " transform="matrix(0.998107, 0, 0, -0.998107, -55.195331, 424.143312)"/>
<path fill-rule="nonzero" fill="rgb(59.199524%, 79.598999%, 94.499207%)" fill-opacity="1" stroke-width="0.4" stroke-linecap="butt" stroke-linejoin="round" stroke="rgb(0%, 0%, 0%)" stroke-opacity="1" stroke-miterlimit="10" d="M 199.001678 340.001692 C 199.001678 335.031347 194.970611 331.00028 190.000266 331.00028 C 185.029921 331.00028 180.998853 335.031347 180.998853 340.001692 C 180.998853 344.968124 185.029921 348.999191 190.000266 348.999191 C 194.970611 348.999191 199.001678 344.968124 199.001678 340.001692 " transform="matrix(0.998107, 0, 0, -0.998107, -55.195331, 424.143312)"/>
<path fill-rule="nonzero" fill="rgb(87.399292%, 94.099426%, 27.799988%)" fill-opacity="1" stroke-width="0.4" stroke-linecap="butt" stroke-linejoin="round" stroke="rgb(0%, 0%, 0%)" stroke-opacity="1" stroke-miterlimit="10" d="M 172.001355 336.001934 C 172.001355 331.583415 168.416444 327.998505 164.001839 327.998505 C 159.583319 327.998505 155.998409 331.583415 155.998409 336.001934 C 155.998409 340.41654 159.583319 344.00145 164.001839 344.00145 C 168.416444 344.00145 172.001355 340.41654 172.001355 336.001934 " transform="matrix(0.998107, 0, 0, -0.998107, -55.195331, 424.143312)"/>
<path fill-rule="nonzero" fill="rgb(49.398804%, 71.299744%, 51.699829%)" fill-opacity="1" stroke-width="0.4" stroke-linecap="butt" stroke-linejoin="round" stroke="rgb(0%, 0%, 0%)" stroke-opacity="1" stroke-miterlimit="10" d="M 234.9995 363.499292 C 234.9995 355.491949 228.506742 348.999191 220.499399 348.999191 C 212.492056 348.999191 205.999298 355.491949 205.999298 363.499292 C 205.999298 371.506636 212.492056 377.999394 220.499399 377.999394 C 228.506742 377.999394 234.9995 371.506636 234.9995 363.499292 " transform="matrix(0.998107, 0, 0, -0.998107, -55.195331, 424.143312)"/>
<path fill-rule="nonzero" fill="rgb(81.898499%, 95.999146%, 23.498535%)" fill-opacity="1" stroke-width="0.4" stroke-linecap="butt" stroke-linejoin="round" stroke="rgb(0%, 0%, 0%)" stroke-opacity="1" stroke-miterlimit="10" d="M 263.00172 346.999312 C 263.00172 343.688358 260.313037 340.999675 256.998169 340.999675 C 253.687215 340.999675 250.998532 343.688358 250.998532 346.999312 C 250.998532 350.310266 253.687215 352.998949 256.998169 352.998949 C 260.313037 352.998949 263.00172 350.310266 263.00172 346.999312 " transform="matrix(0.998107, 0, 0, -0.998107, -55.195331, 424.143312)"/>
<path fill-rule="nonzero" fill="rgb(34.498596%, 1.499939%, 7.398987%)" fill-opacity="1" stroke-width="0.4" stroke-linecap="butt" stroke-linejoin="round" stroke="rgb(0%, 0%, 0%)" stroke-opacity="1" stroke-miterlimit="10" d="M 291.000026 315.498282 C 291.000026 312.461284 288.538336 309.999594 285.501337 309.999594 C 282.460425 309.999594 279.998735 312.461284 279.998735 315.498282 C 279.998735 318.539194 282.460425 321.000885 285.501337 321.000885 C 288.538336 321.000885 291.000026 318.539194 291.000026 315.498282 " transform="matrix(0.998107, 0, 0, -0.998107, -55.195331, 424.143312)"/>
<path fill-rule="nonzero" fill="rgb(88.999939%, 97.599792%, 22.299194%)" fill-opacity="1" stroke-width="0.4" stroke-linecap="butt" stroke-linejoin="round" stroke="rgb(0%, 0%, 0%)" stroke-opacity="1" stroke-miterlimit="10" d="M 302.9993 338.999796 C 302.9993 332.330924 292.999905 332.330924 292.999905 338.999796 C 292.999905 345.668669 302.9993 345.668669 302.9993 338.999796 " transform="matrix(0.998107, 0, 0, -0.998107, -55.195331, 424.143312)"/>
<path fill-rule="nonzero" fill="rgb(16.398621%, 49.398804%, 28.199768%)" fill-opacity="1" stroke-width="0.4" stroke-linecap="butt" stroke-linejoin="round" stroke="rgb(0%, 0%, 0%)" stroke-opacity="1" stroke-miterlimit="10" d="M 285.000389 327.000522 C 285.000389 321.752307 280.746243 317.498161 275.501942 317.498161 C 270.253727 317.498161 265.999582 321.752307 265.999582 327.000522 C 265.999582 332.244823 270.253727 336.498969 275.501942 336.498969 C 280.746243 336.498969 285.000389 332.244823 285.000389 327.000522 " transform="matrix(0.998107, 0, 0, -0.998107, -55.195331, 424.143312)"/>
<path fill-rule="nonzero" fill="rgb(38.798523%, 50.099182%, 13.699341%)" fill-opacity="1" stroke-width="0.4" stroke-linecap="butt" stroke-linejoin="round" stroke="rgb(0%, 0%, 0%)" stroke-opacity="1" stroke-miterlimit="10" d="M 281.000631 344.999433 C 281.000631 340.029088 276.969564 336.001934 271.999219 336.001934 C 267.032787 336.001934 263.00172 340.029088 263.00172 344.999433 C 263.00172 349.969778 267.032787 354.000845 271.999219 354.000845 C 276.969564 354.000845 281.000631 349.969778 281.000631 344.999433 " transform="matrix(0.998107, 0, 0, -0.998107, -55.195331, 424.143312)"/>
<path fill-rule="nonzero" fill="rgb(70.498657%, 32.099915%, 90.098572%)" fill-opacity="1" stroke-width="0.4" stroke-linecap="butt" stroke-linejoin="round" stroke="rgb(0%, 0%, 0%)" stroke-opacity="1" stroke-miterlimit="10" d="M 172.001355 272.999875 C 172.001355 269.962877 169.539664 267.501186 166.498752 267.501186 C 163.461754 267.501186 161.000063 269.962877 161.000063 272.999875 C 161.000063 276.040787 163.461754 278.498564 166.498752 278.498564 C 169.539664 278.498564 172.001355 276.040787 172.001355 272.999875 " transform="matrix(0.998107, 0, 0, -0.998107, -55.195331, 424.143312)"/>
<path fill-rule="nonzero" fill="rgb(42.298889%, 76.399231%, 64.99939%)" fill-opacity="1" stroke-width="0.4" stroke-linecap="butt" stroke-linejoin="round" stroke="rgb(0%, 0%, 0%)" stroke-opacity="1" stroke-miterlimit="10" d="M 164.999821 241.999794 C 164.999821 236.477623 160.522597 232.000399 155.000426 232.000399 C 149.478255 232.000399 145.001031 236.477623 145.001031 241.999794 C 145.001031 247.521964 149.478255 251.999189 155.000426 251.999189 C 160.522597 251.999189 164.999821 247.521964 164.999821 241.999794 " transform="matrix(0.998107, 0, 0, -0.998107, -55.195331, 424.143312)"/>
<path fill-rule="nonzero" fill="rgb(21.499634%, 70.498657%, 59.199524%)" fill-opacity="1" stroke-width="0.4" stroke-linecap="butt" stroke-linejoin="round" stroke="rgb(0%, 0%, 0%)" stroke-opacity="1" stroke-miterlimit="10" d="M 176.001113 224.998865 C 176.001113 219.476694 171.523888 214.99947 166.001718 214.99947 C 160.475633 214.99947 155.998409 219.476694 155.998409 224.998865 C 155.998409 230.52495 160.475633 234.99826 166.001718 234.99826 C 171.523888 234.99826 176.001113 230.52495 176.001113 224.998865 " transform="matrix(0.998107, 0, 0, -0.998107, -55.195331, 424.143312)"/>
<path fill-rule="nonzero" fill="rgb(15.19928%, 98.399353%, 17.999268%)" fill-opacity="1" stroke-width="0.4" stroke-linecap="butt" stroke-linejoin="round" stroke="rgb(0%, 0%, 0%)" stroke-opacity="1" stroke-miterlimit="10" d="M 186.99849 210.001729 C 186.99849 205.031384 182.967423 201.000317 178.000992 201.000317 C 173.030647 201.000317 168.999579 205.031384 168.999579 210.001729 C 168.999579 214.968161 173.030647 218.999228 178.000992 218.999228 C 182.967423 218.999228 186.99849 214.968161 186.99849 210.001729 " transform="matrix(0.998107, 0, 0, -0.998107, -55.195331, 424.143312)"/>
<path fill-rule="nonzero" fill="rgb(86.999512%, 49.798584%, 5.39856%)" fill-opacity="1" stroke-width="0.4" stroke-linecap="butt" stroke-linejoin="round" stroke="rgb(0%, 0%, 0%)" stroke-opacity="1" stroke-miterlimit="10" d="M 205.999298 211.50066 C 205.999298 206.252445 201.745152 201.9983 196.500851 201.9983 C 191.252636 201.9983 186.99849 206.252445 186.99849 211.50066 C 186.99849 216.744961 191.252636 220.999107 196.500851 220.999107 C 201.745152 220.999107 205.999298 216.744961 205.999298 211.50066 " transform="matrix(0.998107, 0, 0, -0.998107, -55.195331, 424.143312)"/>
<path fill-rule="nonzero" fill="rgb(82.699585%, 73.699951%, 54.899597%)" fill-opacity="1" stroke-width="0.4" stroke-linecap="butt" stroke-linejoin="round" stroke="rgb(0%, 0%, 0%)" stroke-opacity="1" stroke-miterlimit="10" d="M 230.999742 221.500055 C 230.999742 217.081536 227.418746 213.500539 223.000226 213.500539 C 218.581707 213.500539 215.00071 217.081536 215.00071 221.500055 C 215.00071 225.918575 218.581707 229.499571 223.000226 229.499571 C 227.418746 229.499571 230.999742 225.918575 230.999742 221.500055 " transform="matrix(0.998107, 0, 0, -0.998107, -55.195331, 424.143312)"/>
<path fill-rule="nonzero" fill="rgb(84.298706%, 81.098938%, 36.399841%)" fill-opacity="1" stroke-width="0.4" stroke-linecap="butt" stroke-linejoin="round" stroke="rgb(0%, 0%, 0%)" stroke-opacity="1" stroke-miterlimit="10" d="M 213.000831 195.00068 C 213.000831 190.304291 209.196756 186.500216 204.500367 186.500216 C 199.803978 186.500216 195.999903 190.304291 195.999903 195.00068 C 195.999903 199.693155 199.803978 203.501144 204.500367 203.501144 C 209.196756 203.501144 213.000831 199.693155 213.000831 195.00068 " transform="matrix(0.998107, 0, 0, -0.998107, -55.195331, 424.143312)"/>
<path fill-rule="nonzero" fill="rgb(81.498718%, 3.09906%, 70.899963%)" fill-opacity="1" stroke-width="0.4" stroke-linecap="butt" stroke-linejoin="round" stroke="rgb(0%, 0%, 0%)" stroke-opacity="1" stroke-miterlimit="10" d="M 184.998611 183.999389 C 184.998611 180.688434 182.313842 177.999752 178.998974 177.999752 C 175.68802 177.999752 172.999337 180.688434 172.999337 183.999389 C 172.999337 187.310343 175.68802 189.999026 178.998974 189.999026 C 182.313842 189.999026 184.998611 187.310343 184.998611 183.999389 " transform="matrix(0.998107, 0, 0, -0.998107, -55.195331, 424.143312)"/>
<path fill-rule="nonzero" fill="rgb(30.499268%, 31.298828%, 59.599304%)" fill-opacity="1" stroke-width="0.4" stroke-linecap="butt" stroke-linejoin="round" stroke="rgb(0%, 0%, 0%)" stroke-opacity="1" stroke-miterlimit="10" d="M 172.999337 181.498561 C 172.999337 178.187607 170.310655 175.498924 166.9997 175.498924 C 163.688746 175.498924 161.000063 178.187607 161.000063 181.498561 C 161.000063 184.813429 163.688746 187.498198 166.9997 187.498198 C 170.310655 187.498198 172.999337 184.813429 172.999337 181.498561 " transform="matrix(0.998107, 0, 0, -0.998107, -55.195331, 424.143312)"/>
<path fill-rule="nonzero" fill="rgb(80.699158%, 44.999695%, 76.399231%)" fill-opacity="1" stroke-width="0.4" stroke-linecap="butt" stroke-linejoin="round" stroke="rgb(0%, 0%, 0%)" stroke-opacity="1" stroke-miterlimit="10" d="M 184.998611 169.499287 C 184.998611 164.806812 181.194536 160.998823 176.498147 160.998823 C 171.805672 160.998823 168.001597 164.806812 168.001597 169.499287 C 168.001597 174.195676 171.805672 177.999752 176.498147 177.999752 C 181.194536 177.999752 184.998611 174.195676 184.998611 169.499287 " transform="matrix(0.998107, 0, 0, -0.998107, -55.195331, 424.143312)"/>
<path fill-rule="nonzero" fill="rgb(12.5%, 34.899902%, 14.898682%)" fill-opacity="1" stroke-width="0.4" stroke-linecap="butt" stroke-linejoin="round" stroke="rgb(0%, 0%, 0%)" stroke-opacity="1" stroke-miterlimit="10" d="M 168.999579 159.499892 C 168.999579 143.763075 156.237142 131.000638 140.500325 131.000638 C 124.763508 131.000638 112.001071 143.763075 112.001071 159.499892 C 112.001071 175.236709 124.763508 187.999147 140.500325 187.999147 C 156.237142 187.999147 168.999579 175.236709 168.999579 159.499892 " transform="matrix(0.998107, 0, 0, -0.998107, -55.195331, 424.143312)"/>
<path fill-rule="nonzero" fill="rgb(88.999939%, 0%, 85.398865%)" fill-opacity="1" stroke-width="0.4" stroke-linecap="butt" stroke-linejoin="round" stroke="rgb(0%, 0%, 0%)" stroke-opacity="1" stroke-miterlimit="10" d="M 155.998409 222.501952 C 155.998409 215.04252 149.955722 208.999833 142.500204 208.999833 C 135.044686 208.999833 128.998085 215.04252 128.998085 222.501952 C 128.998085 229.957469 135.044686 236.000157 142.500204 236.000157 C 149.955722 236.000157 155.998409 229.957469 155.998409 222.501952 " transform="matrix(0.998107, 0, 0, -0.998107, -55.195331, 424.143312)"/>
<path fill-rule="nonzero" fill="rgb(59.199524%, 59.199524%, 27.799988%)" fill-opacity="1" stroke-width="0.4" stroke-linecap="butt" stroke-linejoin="round" stroke="rgb(0%, 0%, 0%)" stroke-opacity="1" stroke-miterlimit="10" d="M 145.999014 247.498482 C 145.999014 240.042965 139.956327 234.000278 132.500809 234.000278 C 125.041378 234.000278 118.99869 240.042965 118.99869 247.498482 C 118.99869 254.957914 125.041378 261.000601 132.500809 261.000601 C 139.956327 261.000601 145.999014 254.957914 145.999014 247.498482 " transform="matrix(0.998107, 0, 0, -0.998107, -55.195331, 424.143312)"/>
<path fill-rule="nonzero" fill="rgb(57.199097%, 77.198792%, 49.398804%)" fill-opacity="1" stroke-width="0.4" stroke-linecap="butt" stroke-linejoin="round" stroke="rgb(0%, 0%, 0%)" stroke-opacity="1" stroke-miterlimit="10" d="M 281.000631 146.001687 C 281.000631 128.601566 266.899723 114.500658 249.499601 114.500658 C 232.103394 114.500658 217.998572 128.601566 217.998572 146.001687 C 217.998572 163.397895 232.103394 177.498803 249.499601 177.498803 C 266.899723 177.498803 281.000631 163.397895 281.000631 146.001687 " transform="matrix(0.998107, 0, 0, -0.998107, -55.195331, 424.143312)"/>
<path fill-rule="nonzero" fill="rgb(6.999207%, 82.699585%, 64.99939%)" fill-opacity="1" stroke-width="0.4" stroke-linecap="butt" stroke-linejoin="round" stroke="rgb(0%, 0%, 0%)" stroke-opacity="1" stroke-miterlimit="10" d="M 228.001881 170.998218 C 228.001881 166.99846 221.99833 166.99846 221.99833 170.998218 C 221.99833 175.00189 228.001881 175.00189 228.001881 170.998218 " transform="matrix(0.998107, 0, 0, -0.998107, -55.195331, 424.143312)"/>
<path fill-rule="nonzero" fill="rgb(80.699158%, 37.199402%, 51.699829%)" fill-opacity="1" stroke-width="0.4" stroke-linecap="butt" stroke-linejoin="round" stroke="rgb(0%, 0%, 0%)" stroke-opacity="1" stroke-miterlimit="10" d="M 238.999258 181.498561 C 238.999258 176.53213 234.968191 172.501063 230.00176 172.501063 C 225.031414 172.501063 221.000347 176.53213 221.000347 181.498561 C 221.000347 186.468907 225.031414 190.499974 230.00176 190.499974 C 234.968191 190.499974 238.999258 186.468907 238.999258 181.498561 " transform="matrix(0.998107, 0, 0, -0.998107, -55.195331, 424.143312)"/>
<path fill-rule="nonzero" fill="rgb(61.499023%, 74.099731%, 34.098816%)" fill-opacity="1" stroke-width="0.4" stroke-linecap="butt" stroke-linejoin="round" stroke="rgb(0%, 0%, 0%)" stroke-opacity="1" stroke-miterlimit="10" d="M 256.000187 222.501952 C 256.000187 218.631344 252.865347 215.500418 248.998653 215.500418 C 245.13196 215.500418 242.001034 218.631344 242.001034 222.501952 C 242.001034 226.368645 245.13196 229.499571 248.998653 229.499571 C 252.865347 229.499571 256.000187 226.368645 256.000187 222.501952 " transform="matrix(0.998107, 0, 0, -0.998107, -55.195331, 424.143312)"/>
<path fill-rule="nonzero" fill="rgb(64.99939%, 44.699097%, 17.999268%)" fill-opacity="1" stroke-width="0.4" stroke-linecap="butt" stroke-linejoin="round" stroke="rgb(0%, 0%, 0%)" stroke-opacity="1" stroke-miterlimit="10" d="M 273.999098 241.001811 C 273.999098 236.857248 270.64118 233.499329 266.50053 233.499329 C 262.35988 233.499329 258.998048 236.857248 258.998048 241.001811 C 258.998048 245.142461 262.35988 248.500379 266.50053 248.500379 C 270.64118 248.500379 273.999098 245.142461 273.999098 241.001811 " transform="matrix(0.998107, 0, 0, -0.998107, -55.195331, 424.143312)"/>
<path fill-rule="nonzero" fill="rgb(96.398926%, 4.299927%, 100%)" fill-opacity="1" stroke-width="0.4" stroke-linecap="butt" stroke-linejoin="round" stroke="rgb(0%, 0%, 0%)" stroke-opacity="1" stroke-miterlimit="10" d="M 263.999703 213.500539 C 263.999703 210.459627 261.538012 208.00185 258.501014 208.00185 C 255.460102 208.00185 252.998411 210.459627 252.998411 213.500539 C 252.998411 216.537538 255.460102 218.999228 258.501014 218.999228 C 261.538012 218.999228 263.999703 216.537538 263.999703 213.500539 " transform="matrix(0.998107, 0, 0, -0.998107, -55.195331, 424.143312)"/>
<path fill-rule="nonzero" fill="rgb(41.499329%, 80.699158%, 30.099487%)" fill-opacity="1" stroke-width="0.4" stroke-linecap="butt" stroke-linejoin="round" stroke="rgb(0%, 0%, 0%)" stroke-opacity="1" stroke-miterlimit="10" d="M 254.000308 206.499006 C 254.000308 201.532574 249.96924 197.501507 244.998895 197.501507 C 240.032464 197.501507 236.001397 201.532574 236.001397 206.499006 C 236.001397 211.469351 240.032464 215.500418 244.998895 215.500418 C 249.96924 215.500418 254.000308 211.469351 254.000308 206.499006 " transform="matrix(0.998107, 0, 0, -0.998107, -55.195331, 424.143312)"/>
<path fill-rule="nonzero" fill="rgb(76.399231%, 95.599365%, 10.899353%)" fill-opacity="1" stroke-width="0.4" stroke-linecap="butt" stroke-linejoin="round" stroke="rgb(0%, 0%, 0%)" stroke-opacity="1" stroke-miterlimit="10" d="M 269.99934 199.998421 C 269.99934 195.305945 266.195265 191.50187 261.498876 191.50187 C 256.8064 191.50187 252.998411 195.305945 252.998411 199.998421 C 252.998411 204.69481 256.8064 208.498885 261.498876 208.498885 C 266.195265 208.498885 269.99934 204.69481 269.99934 199.998421 " transform="matrix(0.998107, 0, 0, -0.998107, -55.195331, 424.143312)"/>
<path fill-rule="nonzero" fill="rgb(76.399231%, 81.098938%, 23.498535%)" fill-opacity="1" stroke-width="0.4" stroke-linecap="butt" stroke-linejoin="round" stroke="rgb(0%, 0%, 0%)" stroke-opacity="1" stroke-miterlimit="10" d="M 277.000873 183.49844 C 277.000873 178.254139 272.746727 173.999994 267.498513 173.999994 C 262.254211 173.999994 258.000066 178.254139 258.000066 183.49844 C 258.000066 188.746655 262.254211 193.000801 267.498513 193.000801 C 272.746727 193.000801 277.000873 188.746655 277.000873 183.49844 " transform="matrix(0.998107, 0, 0, -0.998107, -55.195331, 424.143312)"/>
<path fill-rule="nonzero" fill="rgb(35.198975%, 8.599854%, 12.5%)" fill-opacity="1" stroke-width="0.4" stroke-linecap="butt" stroke-linejoin="round" stroke="rgb(0%, 0%, 0%)" stroke-opacity="1" stroke-miterlimit="10" d="M 306.001076 210.498764 C 306.001076 203.598986 300.400632 197.998542 293.500853 197.998542 C 286.597161 197.998542 281.000631 203.598986 281.000631 210.498764 C 281.000631 217.402456 286.597161 222.998986 293.500853 222.998986 C 300.400632 222.998986 306.001076 217.402456 306.001076 210.498764 " transform="matrix(0.998107, 0, 0, -0.998107, -55.195331, 424.143312)"/>
<path fill-rule="nonzero" fill="rgb(12.5%, 57.998657%, 71.699524%)" fill-opacity="1" stroke-width="0.4" stroke-linecap="butt" stroke-linejoin="round" stroke="rgb(0%, 0%, 0%)" stroke-opacity="1" stroke-miterlimit="10" d="M 320.998211 249.99931 C 320.998211 242.821662 315.178603 236.998139 308.000955 236.998139 C 300.819393 236.998139 294.999784 242.821662 294.999784 249.99931 C 294.999784 257.180871 300.819393 263.00048 308.000955 263.00048 C 315.178603 263.00048 320.998211 257.180871 320.998211 249.99931 " transform="matrix(0.998107, 0, 0, -0.998107, -55.195331, 424.143312)"/>
<path fill-rule="nonzero" fill="rgb(95.199585%, 22.698975%, 28.999329%)" fill-opacity="1" stroke-width="0.4" stroke-linecap="butt" stroke-linejoin="round" stroke="rgb(0%, 0%, 0%)" stroke-opacity="1" stroke-miterlimit="10" d="M 312.998695 269.000117 C 312.998695 265.689163 310.313926 263.00048 306.999058 263.00048 C 303.688104 263.00048 300.999421 265.689163 300.999421 269.000117 C 300.999421 272.311071 303.688104 274.999754 306.999058 274.999754 C 310.313926 274.999754 312.998695 272.311071 312.998695 269.000117 " transform="matrix(0.998107, 0, 0, -0.998107, -55.195331, 424.143312)"/>
<path fill-rule="nonzero" fill="rgb(32.499695%, 74.499512%, 35.998535%)" fill-opacity="1" stroke-width="0.4" stroke-linecap="butt" stroke-linejoin="round" stroke="rgb(0%, 0%, 0%)" stroke-opacity="1" stroke-miterlimit="10" d="M 320.000229 297.499371 C 320.000229 292.53294 315.969161 288.501873 310.998816 288.501873 C 306.032385 288.501873 302.001318 292.53294 302.001318 297.499371 C 302.001318 302.469716 306.032385 306.500784 310.998816 306.500784 C 315.969161 306.500784 320.000229 302.469716 320.000229 297.499371 " transform="matrix(0.998107, 0, 0, -0.998107, -55.195331, 424.143312)"/>
<path fill-rule="nonzero" fill="rgb(6.199646%, 8.198547%, 16.398621%)" fill-opacity="1" stroke-width="0.4" stroke-linecap="butt" stroke-linejoin="round" stroke="rgb(0%, 0%, 0%)" stroke-opacity="1" stroke-miterlimit="10" d="M 355.000068 329.000401 C 355.000068 314.363322 343.137772 302.501026 328.500693 302.501026 C 313.863614 302.501026 302.001318 314.363322 302.001318 329.000401 C 302.001318 343.63748 313.863614 355.499776 328.500693 355.499776 C 343.137772 355.499776 355.000068 343.63748 355.000068 329.000401 " transform="matrix(0.998107, 0, 0, -0.998107, -55.195331, 424.143312)"/>
<path fill-rule="nonzero" fill="rgb(50.898743%, 26.599121%, 77.999878%)" fill-opacity="1" stroke-width="0.4" stroke-linecap="butt" stroke-linejoin="round" stroke="rgb(0%, 0%, 0%)" stroke-opacity="1" stroke-miterlimit="10" d="M 271.999219 360.501431 C 271.999219 355.531086 267.968151 351.500018 263.00172 351.500018 C 258.031375 351.500018 254.000308 355.531086 254.000308 360.501431 C 254.000308 365.467862 258.031375 369.498929 263.00172 369.498929 C 267.968151 369.498929 271.999219 365.467862 271.999219 360.501431 " transform="matrix(0.998107, 0, 0, -0.998107, -55.195331, 424.143312)"/>
<path fill-rule="nonzero" fill="rgb(55.198669%, 26.199341%, 42.698669%)" fill-opacity="1" stroke-width="0.4" stroke-linecap="butt" stroke-linejoin="round" stroke="rgb(0%, 0%, 0%)" stroke-opacity="1" stroke-miterlimit="10" d="M 219.000468 342.001571 C 219.000468 336.475487 214.523244 331.998263 209.001073 331.998263 C 203.478902 331.998263 199.001678 336.475487 199.001678 342.001571 C 199.001678 347.523742 203.478902 352.000966 209.001073 352.000966 C 214.523244 352.000966 219.000468 347.523742 219.000468 342.001571 " transform="matrix(0.998107, 0, 0, -0.998107, -55.195331, 424.143312)"/>
<path fill-rule="nonzero" fill="rgb(35.598755%, 56.399536%, 39.199829%)" fill-opacity="1" stroke-width="0.4" stroke-linecap="butt" stroke-linejoin="round" stroke="rgb(0%, 0%, 0%)" stroke-opacity="1" stroke-miterlimit="10" d="M 194.000024 324.499695 C 194.000024 320.359045 190.642106 317.001127 186.501456 317.001127 C 182.360806 317.001127 178.998974 320.359045 178.998974 324.499695 C 178.998974 328.640345 182.360806 331.998263 186.501456 331.998263 C 190.642106 331.998263 194.000024 328.640345 194.000024 324.499695 " transform="matrix(0.998107, 0, 0, -0.998107, -55.195331, 424.143312)"/>
<path fill-rule="nonzero" fill="rgb(12.098694%, 91.299438%, 56.799316%)" fill-opacity="1" stroke-width="0.4" stroke-linecap="butt" stroke-linejoin="round" stroke="rgb(0%, 0%, 0%)" stroke-opacity="1" stroke-miterlimit="10" d="M 190.000266 294.998544 C 190.000266 291.68759 187.311583 288.998907 184.000629 288.998907 C 180.689674 288.998907 178.000992 291.68759 178.000992 294.998544 C 178.000992 298.313412 180.689674 300.998181 184.000629 300.998181 C 187.311583 300.998181 190.000266 298.313412 190.000266 294.998544 " transform="matrix(0.998107, 0, 0, -0.998107, -55.195331, 424.143312)"/>
<path fill-rule="nonzero" fill="rgb(20.698547%, 3.49884%, 33.299255%)" fill-opacity="1" stroke-width="0.4" stroke-linecap="butt" stroke-linejoin="round" stroke="rgb(0%, 0%, 0%)" stroke-opacity="1" stroke-miterlimit="10" d="M 217.000589 288.501873 C 217.000589 283.805484 213.196514 280.001408 208.500125 280.001408 C 203.803736 280.001408 199.999661 283.805484 199.999661 288.501873 C 199.999661 293.194348 203.803736 296.998423 208.500125 296.998423 C 213.196514 296.998423 217.000589 293.194348 217.000589 288.501873 " transform="matrix(0.998107, 0, 0, -0.998107, -55.195331, 424.143312)"/>
<path fill-rule="nonzero" fill="rgb(78.799438%, 75.19989%, 68.598938%)" fill-opacity="1" stroke-width="0.4" stroke-linecap="butt" stroke-linejoin="round" stroke="rgb(0%, 0%, 0%)" stroke-opacity="1" stroke-miterlimit="10" d="M 199.999661 284.498201 C 199.999661 280.357551 196.641743 276.999633 192.501093 276.999633 C 188.360443 276.999633 184.998611 280.357551 184.998611 284.498201 C 184.998611 288.642764 188.360443 292.000682 192.501093 292.000682 C 196.641743 292.000682 199.999661 288.642764 199.999661 284.498201 " transform="matrix(0.998107, 0, 0, -0.998107, -55.195331, 424.143312)"/>
<path fill-rule="nonzero" fill="rgb(1.499939%, 3.898621%, 81.098938%)" fill-opacity="1" stroke-width="0.4" stroke-linecap="butt" stroke-linejoin="round" stroke="rgb(0%, 0%, 0%)" stroke-opacity="1" stroke-miterlimit="10" d="M 186.000508 282.498322 C 186.000508 277.531891 181.96944 273.500823 176.999095 273.500823 C 172.032664 273.500823 168.001597 277.531891 168.001597 282.498322 C 168.001597 287.468667 172.032664 291.499734 176.999095 291.499734 C 181.96944 291.499734 186.000508 287.468667 186.000508 282.498322 " transform="matrix(0.998107, 0, 0, -0.998107, -55.195331, 424.143312)"/>
<path fill-rule="nonzero" fill="rgb(75.999451%, 39.898682%, 76.399231%)" fill-opacity="1" stroke-width="0.4" stroke-linecap="butt" stroke-linejoin="round" stroke="rgb(0%, 0%, 0%)" stroke-opacity="1" stroke-miterlimit="10" d="M 168.001597 284.498201 C 168.001597 280.083595 164.416686 276.498685 159.998167 276.498685 C 155.583561 276.498685 151.998651 280.083595 151.998651 284.498201 C 151.998651 288.91672 155.583561 292.501631 159.998167 292.501631 C 164.416686 292.501631 168.001597 288.91672 168.001597 284.498201 " transform="matrix(0.998107, 0, 0, -0.998107, -55.195331, 424.143312)"/>
<path fill-rule="nonzero" fill="rgb(84.698486%, 56.399536%, 8.599854%)" fill-opacity="1" stroke-width="0.4" stroke-linecap="butt" stroke-linejoin="round" stroke="rgb(0%, 0%, 0%)" stroke-opacity="1" stroke-miterlimit="10" d="M 159.998167 294.50151 C 159.998167 291.167073 155.000426 291.167073 155.000426 294.50151 C 155.000426 297.832032 159.998167 297.832032 159.998167 294.50151 " transform="matrix(0.998107, 0, 0, -0.998107, -55.195331, 424.143312)"/>
<path fill-rule="nonzero" fill="rgb(10.899353%, 34.498596%, 14.898682%)" fill-opacity="1" stroke-width="0.4" stroke-linecap="butt" stroke-linejoin="round" stroke="rgb(0%, 0%, 0%)" stroke-opacity="1" stroke-miterlimit="10" d="M 155.998409 292.998665 C 155.998409 286.333706 145.999014 286.333706 145.999014 292.998665 C 145.999014 299.667538 155.998409 299.667538 155.998409 292.998665 " transform="matrix(0.998107, 0, 0, -0.998107, -55.195331, 424.143312)"/>
<path fill-rule="nonzero" fill="rgb(37.199402%, 77.198792%, 65.79895%)" fill-opacity="1" stroke-width="0.4" stroke-linecap="butt" stroke-linejoin="round" stroke="rgb(0%, 0%, 0%)" stroke-opacity="1" stroke-miterlimit="10" d="M 153.000547 282.001287 C 153.000547 278.134594 149.865707 274.999754 145.999014 274.999754 C 142.13232 274.999754 139.001394 278.134594 139.001394 282.001287 C 139.001394 285.867981 142.13232 288.998907 145.999014 288.998907 C 149.865707 288.998907 153.000547 285.867981 153.000547 282.001287 " transform="matrix(0.998107, 0, 0, -0.998107, -55.195331, 424.143312)"/>
<path fill-rule="nonzero" fill="rgb(93.699646%, 15.99884%, 21.099854%)" fill-opacity="1" stroke-width="0.4" stroke-linecap="butt" stroke-linejoin="round" stroke="rgb(0%, 0%, 0%)" stroke-opacity="1" stroke-miterlimit="10" d="M 151.998651 302.99806 C 151.998651 299.687106 149.313882 296.998423 145.999014 296.998423 C 142.68806 296.998423 139.999377 299.687106 139.999377 302.99806 C 139.999377 306.312928 142.68806 309.001611 145.999014 309.001611 C 149.313882 309.001611 151.998651 306.312928 151.998651 302.99806 " transform="matrix(0.998107, 0, 0, -0.998107, -55.195331, 424.143312)"/>
<path fill-rule="nonzero" fill="rgb(61.099243%, 96.798706%, 56.799316%)" fill-opacity="1" stroke-width="0.4" stroke-linecap="butt" stroke-linejoin="round" stroke="rgb(0%, 0%, 0%)" stroke-opacity="1" stroke-miterlimit="10" d="M 159.000184 300.000199 C 159.000184 295.331205 151.998651 295.331205 151.998651 300.000199 C 151.998651 304.669192 159.000184 304.669192 159.000184 300.000199 " transform="matrix(0.998107, 0, 0, -0.998107, -55.195331, 424.143312)"/>
<path fill-rule="nonzero" fill="rgb(52.099609%, 53.69873%, 88.198853%)" fill-opacity="1" stroke-width="0.4" stroke-linecap="butt" stroke-linejoin="round" stroke="rgb(0%, 0%, 0%)" stroke-opacity="1" stroke-miterlimit="10" d="M 162.999942 310.500542 C 162.999942 306.911718 160.088181 303.999957 156.499357 303.999957 C 152.910533 303.999957 149.998772 306.911718 149.998772 310.500542 C 149.998772 314.089366 152.910533 317.001127 156.499357 317.001127 C 160.088181 317.001127 162.999942 314.089366 162.999942 310.500542 " transform="matrix(0.998107, 0, 0, -0.998107, -55.195331, 424.143312)"/>
<path fill-rule="nonzero" fill="rgb(55.599976%, 86.999512%, 0%)" fill-opacity="1" stroke-width="0.4" stroke-linecap="butt" stroke-linejoin="round" stroke="rgb(0%, 0%, 0%)" stroke-opacity="1" stroke-miterlimit="10" d="M 180.000871 319.501954 C 180.000871 313.97587 175.523646 309.498645 170.001476 309.498645 C 164.475391 309.498645 159.998167 313.97587 159.998167 319.501954 C 159.998167 325.024125 164.475391 329.501349 170.001476 329.501349 C 175.523646 329.501349 180.000871 325.024125 180.000871 319.501954 " transform="matrix(0.998107, 0, 0, -0.998107, -55.195331, 424.143312)"/>
<path fill-rule="nonzero" fill="rgb(30.499268%, 55.198669%, 20.698547%)" fill-opacity="1" stroke-width="0.4" stroke-linecap="butt" stroke-linejoin="round" stroke="rgb(0%, 0%, 0%)" stroke-opacity="1" stroke-miterlimit="10" d="M 182.998732 333.501107 C 182.998732 330.460195 180.540955 327.998505 177.500043 327.998505 C 174.459132 327.998505 172.001355 330.460195 172.001355 333.501107 C 172.001355 336.538105 174.459132 338.999796 177.500043 338.999796 C 180.540955 338.999796 182.998732 336.538105 182.998732 333.501107 " transform="matrix(0.998107, 0, 0, -0.998107, -55.195331, 424.143312)"/>
<path fill-rule="nonzero" fill="rgb(34.899902%, 36.399841%, 100%)" fill-opacity="1" stroke-width="0.4" stroke-linecap="butt" stroke-linejoin="round" stroke="rgb(0%, 0%, 0%)" stroke-opacity="1" stroke-miterlimit="10" d="M 161.000063 324.499695 C 161.000063 320.081175 157.419067 316.500179 153.000547 316.500179 C 148.582028 316.500179 145.001031 320.081175 145.001031 324.499695 C 145.001031 328.918214 148.582028 332.499211 153.000547 332.499211 C 157.419067 332.499211 161.000063 328.918214 161.000063 324.499695 " transform="matrix(0.998107, 0, 0, -0.998107, -55.195331, 424.143312)"/>
<path fill-rule="nonzero" fill="rgb(74.899292%, 12.5%, 1.098633%)" fill-opacity="1" stroke-width="0.4" stroke-linecap="butt" stroke-linejoin="round" stroke="rgb(0%, 0%, 0%)" stroke-opacity="1" stroke-miterlimit="10" d="M 170.001476 379.498324 C 170.001476 365.139115 158.358344 353.499897 143.999135 353.499897 C 129.639925 353.499897 118.000708 365.139115 118.000708 379.498324 C 118.000708 393.857534 129.639925 405.500665 143.999135 405.500665 C 158.358344 405.500665 170.001476 393.857534 170.001476 379.498324 " transform="matrix(0.998107, 0, 0, -0.998107, -55.195331, 424.143312)"/>
<path fill-rule="nonzero" fill="rgb(31.298828%, 21.099854%, 77.198792%)" fill-opacity="1" stroke-width="0.4" stroke-linecap="butt" stroke-linejoin="round" stroke="rgb(0%, 0%, 0%)" stroke-opacity="1" stroke-miterlimit="10" d="M 170.001476 351.500018 C 170.001476 347.081499 166.416565 343.500502 161.998046 343.500502 C 157.58344 343.500502 153.99853 347.081499 153.99853 351.500018 C 153.99853 355.918538 157.58344 359.499534 161.998046 359.499534 C 166.416565 359.499534 170.001476 355.918538 170.001476 351.500018 " transform="matrix(0.998107, 0, 0, -0.998107, -55.195331, 424.143312)"/>
<path fill-rule="nonzero" fill="rgb(65.79895%, 35.998535%, 61.499023%)" fill-opacity="1" stroke-width="0.4" stroke-linecap="butt" stroke-linejoin="round" stroke="rgb(0%, 0%, 0%)" stroke-opacity="1" stroke-miterlimit="10" d="M 133.99974 341.500623 C 133.99974 326.311718 121.687373 313.999352 106.498468 313.999352 C 91.313477 313.999352 79.00111 326.311718 79.00111 341.500623 C 79.00111 356.689528 91.313477 369.001895 106.498468 369.001895 C 121.687373 369.001895 133.99974 356.689528 133.99974 341.500623 " transform="matrix(0.998107, 0, 0, -0.998107, -55.195331, 424.143312)"/>
<path fill-rule="nonzero" fill="rgb(42.698669%, 1.499939%, 72.499084%)" fill-opacity="1" stroke-width="0.4" stroke-linecap="butt" stroke-linejoin="round" stroke="rgb(0%, 0%, 0%)" stroke-opacity="1" stroke-miterlimit="10" d="M 145.999014 292.998665 C 145.999014 289.961667 143.537323 287.499976 140.500325 287.499976 C 137.459413 287.499976 135.001636 289.961667 135.001636 292.998665 C 135.001636 296.039577 137.459413 298.501268 140.500325 298.501268 C 143.537323 298.501268 145.999014 296.039577 145.999014 292.998665 " transform="matrix(0.998107, 0, 0, -0.998107, -55.195331, 424.143312)"/>
<path fill-rule="nonzero" fill="rgb(59.199524%, 22.698975%, 9.399414%)" fill-opacity="1" stroke-width="0.4" stroke-linecap="butt" stroke-linejoin="round" stroke="rgb(0%, 0%, 0%)" stroke-opacity="1" stroke-miterlimit="10" d="M 139.001394 282.99927 C 139.001394 277.477099 134.52417 272.999875 128.998085 272.999875 C 123.475915 272.999875 118.99869 277.477099 118.99869 282.99927 C 118.99869 288.521441 123.475915 292.998665 128.998085 292.998665 C 134.52417 292.998665 139.001394 288.521441 139.001394 282.99927 " transform="matrix(0.998107, 0, 0, -0.998107, -55.195331, 424.143312)"/>
<path fill-rule="nonzero" fill="rgb(55.599976%, 79.899597%, 3.09906%)" fill-opacity="1" stroke-width="0.4" stroke-linecap="butt" stroke-linejoin="round" stroke="rgb(0%, 0%, 0%)" stroke-opacity="1" stroke-miterlimit="10" d="M 131.001878 266.49929 C 131.001878 261.806814 127.193889 257.998826 122.501414 257.998826 C 117.805025 257.998826 114.00095 261.806814 114.00095 266.49929 C 114.00095 271.195679 117.805025 274.999754 122.501414 274.999754 C 127.193889 274.999754 131.001878 271.195679 131.001878 266.49929 " transform="matrix(0.998107, 0, 0, -0.998107, -55.195331, 424.143312)"/>
<path fill-rule="nonzero" fill="rgb(8.999634%, 67.799377%, 64.299011%)" fill-opacity="1" stroke-width="0.4" stroke-linecap="butt" stroke-linejoin="round" stroke="rgb(0%, 0%, 0%)" stroke-opacity="1" stroke-miterlimit="10" d="M 120.000587 253.498119 C 120.000587 248.805644 116.196512 245.001569 111.500122 245.001569 C 106.803733 245.001569 102.999658 248.805644 102.999658 253.498119 C 102.999658 258.194509 106.803733 261.998584 111.500122 261.998584 C 116.196512 261.998584 120.000587 258.194509 120.000587 253.498119 " transform="matrix(0.998107, 0, 0, -0.998107, -55.195331, 424.143312)"/>
<path fill-rule="nonzero" fill="rgb(95.999146%, 68.199158%, 15.99884%)" fill-opacity="1" stroke-width="0.4" stroke-linecap="butt" stroke-linejoin="round" stroke="rgb(0%, 0%, 0%)" stroke-opacity="1" stroke-miterlimit="10" d="M 120.998569 240.500863 C 120.998569 233.83199 110.999174 233.83199 110.999174 240.500863 C 110.999174 247.169735 120.998569 247.169735 120.998569 240.500863 " transform="matrix(0.998107, 0, 0, -0.998107, -55.195331, 424.143312)"/>
<path fill-rule="nonzero" fill="rgb(51.298523%, 88.999939%, 71.699524%)" fill-opacity="1" stroke-width="0.4" stroke-linecap="butt" stroke-linejoin="round" stroke="rgb(0%, 0%, 0%)" stroke-opacity="1" stroke-miterlimit="10" d="M 129.999982 228.998623 C 129.999982 224.580104 126.418985 220.999107 122.000466 220.999107 C 117.581946 220.999107 114.00095 224.580104 114.00095 228.998623 C 114.00095 233.417143 117.581946 236.998139 122.000466 236.998139 C 126.418985 236.998139 129.999982 233.417143 129.999982 228.998623 " transform="matrix(0.998107, 0, 0, -0.998107, -55.195331, 424.143312)"/>
<path fill-rule="nonzero" fill="rgb(87.799072%, 88.598633%, 1.899719%)" fill-opacity="1" stroke-width="0.4" stroke-linecap="butt" stroke-linejoin="round" stroke="rgb(0%, 0%, 0%)" stroke-opacity="1" stroke-miterlimit="10" d="M 114.00095 228.000641 C 114.00095 213.363561 102.138654 201.501265 87.501574 201.501265 C 72.864495 201.501265 60.998285 213.363561 60.998285 228.000641 C 60.998285 242.63772 72.864495 254.500016 87.501574 254.500016 C 102.138654 254.500016 114.00095 242.63772 114.00095 228.000641 " transform="matrix(0.998107, 0, 0, -0.998107, -55.195331, 424.143312)"/>
<path fill-rule="nonzero" fill="rgb(0%, 89.7995%, 36.799622%)" fill-opacity="1" stroke-width="0.4" stroke-linecap="butt" stroke-linejoin="round" stroke="rgb(0%, 0%, 0%)" stroke-opacity="1" stroke-miterlimit="10" d="M 133.001757 208.498885 C 133.001757 201.869149 127.628305 196.499611 120.998569 196.499611 C 114.372747 196.499611 108.999295 201.869149 108.999295 208.498885 C 108.999295 215.128621 114.372747 220.498159 120.998569 220.498159 C 127.628305 220.498159 133.001757 215.128621 133.001757 208.498885 " transform="matrix(0.998107, 0, 0, -0.998107, -55.195331, 424.143312)"/>
<path fill-rule="nonzero" fill="rgb(9.399414%, 88.598633%, 4.699707%)" fill-opacity="1" stroke-width="0.4" stroke-linecap="butt" stroke-linejoin="round" stroke="rgb(0%, 0%, 0%)" stroke-opacity="1" stroke-miterlimit="10" d="M 192.000145 309.001611 C 192.000145 304.583092 188.419148 300.998181 184.000629 300.998181 C 179.582109 300.998181 176.001113 304.583092 176.001113 309.001611 C 176.001113 313.416217 179.582109 317.001127 184.000629 317.001127 C 188.419148 317.001127 192.000145 313.416217 192.000145 309.001611 " transform="matrix(0.998107, 0, 0, -0.998107, -55.195331, 424.143312)"/>
<path fill-rule="nonzero" fill="rgb(62.298584%, 33.299255%, 2.2995%)" fill-opacity="1" stroke-width="0.4" stroke-linecap="butt" stroke-linejoin="round" stroke="rgb(0%, 0%, 0%)" stroke-opacity="1" stroke-miterlimit="10" d="M 205.999298 329.000401 C 205.999298 325.689447 203.310615 323.000764 199.999661 323.000764 C 196.688706 323.000764 194.000024 325.689447 194.000024 329.000401 C 194.000024 332.311355 196.688706 335.000038 199.999661 335.000038 C 203.310615 335.000038 205.999298 332.311355 205.999298 329.000401 " transform="matrix(0.998107, 0, 0, -0.998107, -55.195331, 424.143312)"/>
<path fill-rule="nonzero" fill="rgb(39.199829%, 13.299561%, 59.899902%)" fill-opacity="1" stroke-width="0.4" stroke-linecap="butt" stroke-linejoin="round" stroke="rgb(0%, 0%, 0%)" stroke-opacity="1" stroke-miterlimit="10" d="M 242.001034 339.500744 C 242.001034 332.871008 236.627582 327.50147 230.00176 327.50147 C 223.372024 327.50147 217.998572 332.871008 217.998572 339.500744 C 217.998572 346.13048 223.372024 351.500018 230.00176 351.500018 C 236.627582 351.500018 242.001034 346.13048 242.001034 339.500744 " transform="matrix(0.998107, 0, 0, -0.998107, -55.195331, 424.143312)"/>
<path fill-rule="nonzero" fill="rgb(93.299866%, 1.899719%, 43.499756%)" fill-opacity="1" stroke-width="0.4" stroke-linecap="butt" stroke-linejoin="round" stroke="rgb(0%, 0%, 0%)" stroke-opacity="1" stroke-miterlimit="10" d="M 267.001478 333.998142 C 267.001478 329.857492 263.639646 326.499574 259.498997 326.499574 C 255.358347 326.499574 252.000429 329.857492 252.000429 333.998142 C 252.000429 338.142705 255.358347 341.500623 259.498997 341.500623 C 263.639646 341.500623 267.001478 338.142705 267.001478 333.998142 " transform="matrix(0.998107, 0, 0, -0.998107, -55.195331, 424.143312)"/>
<path fill-rule="nonzero" fill="rgb(30.099487%, 71.299744%, 79.199219%)" fill-opacity="1" stroke-width="0.4" stroke-linecap="butt" stroke-linejoin="round" stroke="rgb(0%, 0%, 0%)" stroke-opacity="1" stroke-miterlimit="10" d="M 275.998977 393.000443 C 275.998977 378.089408 263.909689 366.00012 248.998653 366.00012 C 234.091532 366.00012 221.99833 378.089408 221.99833 393.000443 C 221.99833 407.911478 234.091532 420.000766 248.998653 420.000766 C 263.909689 420.000766 275.998977 407.911478 275.998977 393.000443 " transform="matrix(0.998107, 0, 0, -0.998107, -55.195331, 424.143312)"/>
<path fill-rule="nonzero" fill="rgb(35.198975%, 43.099976%, 81.898499%)" fill-opacity="1" stroke-width="0.4" stroke-linecap="butt" stroke-linejoin="round" stroke="rgb(0%, 0%, 0%)" stroke-opacity="1" stroke-miterlimit="10" d="M 254.000308 356.501673 C 254.000308 350.975588 249.523083 346.498364 244.000913 346.498364 C 238.478742 346.498364 234.001518 350.975588 234.001518 356.501673 C 234.001518 362.023843 238.478742 366.501068 244.000913 366.501068 C 249.523083 366.501068 254.000308 362.023843 254.000308 356.501673 " transform="matrix(0.998107, 0, 0, -0.998107, -55.195331, 424.143312)"/>
<path fill-rule="nonzero" fill="rgb(63.09967%, 28.199768%, 8.599854%)" fill-opacity="1" stroke-width="0.4" stroke-linecap="butt" stroke-linejoin="round" stroke="rgb(0%, 0%, 0%)" stroke-opacity="1" stroke-miterlimit="10" d="M 252.998411 340.498727 C 252.998411 337.461729 250.540634 335.000038 247.499722 335.000038 C 244.462724 335.000038 242.001034 337.461729 242.001034 340.498727 C 242.001034 343.539639 244.462724 346.001329 247.499722 346.001329 C 250.540634 346.001329 252.998411 343.539639 252.998411 340.498727 " transform="matrix(0.998107, 0, 0, -0.998107, -55.195331, 424.143312)"/>
<path fill-rule="nonzero" fill="rgb(68.199158%, 24.699402%, 92.098999%)" fill-opacity="1" stroke-width="0.4" stroke-linecap="butt" stroke-linejoin="round" stroke="rgb(0%, 0%, 0%)" stroke-opacity="1" stroke-miterlimit="10" d="M 252.998411 327.000522 C 252.998411 322.582003 249.417415 319.001006 244.998895 319.001006 C 240.580376 319.001006 236.999379 322.582003 236.999379 327.000522 C 236.999379 331.419041 240.580376 335.000038 244.998895 335.000038 C 249.417415 335.000038 252.998411 331.419041 252.998411 327.000522 " transform="matrix(0.998107, 0, 0, -0.998107, -55.195331, 424.143312)"/>
<path fill-rule="nonzero" fill="rgb(50.099182%, 65.79895%, 26.199341%)" fill-opacity="1" stroke-width="0.4" stroke-linecap="butt" stroke-linejoin="round" stroke="rgb(0%, 0%, 0%)" stroke-opacity="1" stroke-miterlimit="10" d="M 267.999461 317.001127 C 267.999461 312.304738 264.195386 308.500663 259.498997 308.500663 C 254.806521 308.500663 250.998532 312.304738 250.998532 317.001127 C 250.998532 321.693602 254.806521 325.501591 259.498997 325.501591 C 264.195386 325.501591 267.999461 321.693602 267.999461 317.001127 " transform="matrix(0.998107, 0, 0, -0.998107, -55.195331, 424.143312)"/>
<path fill-rule="nonzero" fill="rgb(71.299744%, 8.599854%, 46.998596%)" fill-opacity="1" stroke-width="0.4" stroke-linecap="butt" stroke-linejoin="round" stroke="rgb(0%, 0%, 0%)" stroke-opacity="1" stroke-miterlimit="10" d="M 291.000026 304.500905 C 291.000026 301.459993 288.538336 298.998302 285.501337 298.998302 C 282.460425 298.998302 279.998735 301.459993 279.998735 304.500905 C 279.998735 307.537903 282.460425 309.999594 285.501337 309.999594 C 288.538336 309.999594 291.000026 307.537903 291.000026 304.500905 " transform="matrix(0.998107, 0, 0, -0.998107, -55.195331, 424.143312)"/>
<path fill-rule="nonzero" fill="rgb(59.599304%, 13.299561%, 92.89856%)" fill-opacity="1" stroke-width="0.4" stroke-linecap="butt" stroke-linejoin="round" stroke="rgb(0%, 0%, 0%)" stroke-opacity="1" stroke-miterlimit="10" d="M 281.000631 309.498645 C 281.000631 305.357996 277.642713 302.000078 273.49815 302.000078 C 269.3575 302.000078 265.999582 305.357996 265.999582 309.498645 C 265.999582 313.639295 269.3575 317.001127 273.49815 317.001127 C 277.642713 317.001127 281.000631 313.639295 281.000631 309.498645 " transform="matrix(0.998107, 0, 0, -0.998107, -55.195331, 424.143312)"/>
<path fill-rule="nonzero" fill="rgb(92.89856%, 15.59906%, 2.2995%)" fill-opacity="1" stroke-width="0.4" stroke-linecap="butt" stroke-linejoin="round" stroke="rgb(0%, 0%, 0%)" stroke-opacity="1" stroke-miterlimit="10" d="M 275.998977 283.500218 C 275.998977 279.359569 272.641059 276.00165 268.500409 276.00165 C 264.359759 276.00165 261.001841 279.359569 261.001841 283.500218 C 261.001841 287.640868 264.359759 290.998786 268.500409 290.998786 C 272.641059 290.998786 275.998977 287.640868 275.998977 283.500218 " transform="matrix(0.998107, 0, 0, -0.998107, -55.195331, 424.143312)"/>
<path fill-rule="nonzero" fill="rgb(5.799866%, 75.999451%, 64.698792%)" fill-opacity="1" stroke-width="0.4" stroke-linecap="butt" stroke-linejoin="round" stroke="rgb(0%, 0%, 0%)" stroke-opacity="1" stroke-miterlimit="10" d="M 287.000268 283.500218 C 287.000268 280.459306 284.538578 278.001529 281.501579 278.001529 C 278.460667 278.001529 275.998977 280.459306 275.998977 283.500218 C 275.998977 286.537217 278.460667 288.998907 281.501579 288.998907 C 284.538578 288.998907 287.000268 286.537217 287.000268 283.500218 " transform="matrix(0.998107, 0, 0, -0.998107, -55.195331, 424.143312)"/>
<path fill-rule="nonzero" fill="rgb(7.798767%, 19.198608%, 3.898621%)" fill-opacity="1" stroke-width="0.4" stroke-linecap="butt" stroke-linejoin="round" stroke="rgb(0%, 0%, 0%)" stroke-opacity="1" stroke-miterlimit="10" d="M 312.998695 282.001287 C 312.998695 278.134594 309.867769 274.999754 306.001076 274.999754 C 302.134382 274.999754 298.999542 278.134594 298.999542 282.001287 C 298.999542 285.867981 302.134382 288.998907 306.001076 288.998907 C 309.867769 288.998907 312.998695 285.867981 312.998695 282.001287 " transform="matrix(0.998107, 0, 0, -0.998107, -55.195331, 424.143312)"/>
<path fill-rule="nonzero" fill="rgb(79.598999%, 98.399353%, 97.198486%)" fill-opacity="1" stroke-width="0.4" stroke-linecap="butt" stroke-linejoin="round" stroke="rgb(0%, 0%, 0%)" stroke-opacity="1" stroke-miterlimit="10" d="M 302.9993 292.501631 C 302.9993 287.253416 298.745154 282.99927 293.500853 282.99927 C 288.252639 282.99927 283.998493 287.253416 283.998493 292.501631 C 283.998493 297.745932 288.252639 302.000078 293.500853 302.000078 C 298.745154 302.000078 302.9993 297.745932 302.9993 292.501631 " transform="matrix(0.998107, 0, 0, -0.998107, -55.195331, 424.143312)"/>
<path fill-rule="nonzero" fill="rgb(22.299194%, 79.899597%, 26.998901%)" fill-opacity="1" stroke-width="0.4" stroke-linecap="butt" stroke-linejoin="round" stroke="rgb(0%, 0%, 0%)" stroke-opacity="1" stroke-miterlimit="10" d="M 302.001318 274.498806 C 302.001318 269.532374 297.97025 265.501307 292.999905 265.501307 C 288.02956 265.501307 283.998493 269.532374 283.998493 274.498806 C 283.998493 279.469151 288.02956 283.500218 292.999905 283.500218 C 297.97025 283.500218 302.001318 279.469151 302.001318 274.498806 " transform="matrix(0.998107, 0, 0, -0.998107, -55.195331, 424.143312)"/>
<path fill-rule="nonzero" fill="rgb(50.498962%, 88.999939%, 62.298584%)" fill-opacity="1" stroke-width="0.4" stroke-linecap="butt" stroke-linejoin="round" stroke="rgb(0%, 0%, 0%)" stroke-opacity="1" stroke-miterlimit="10" d="M 296.999663 257.501791 C 296.999663 252.253576 292.745517 247.999431 287.501216 247.999431 C 282.253002 247.999431 277.998856 252.253576 277.998856 257.501791 C 277.998856 262.746092 282.253002 267.000238 287.501216 267.000238 C 292.745517 267.000238 296.999663 262.746092 296.999663 257.501791 " transform="matrix(0.998107, 0, 0, -0.998107, -55.195331, 424.143312)"/>
<path fill-rule="nonzero" fill="rgb(75.59967%, 80.699158%, 25%)" fill-opacity="1" stroke-width="0.4" stroke-linecap="butt" stroke-linejoin="round" stroke="rgb(0%, 0%, 0%)" stroke-opacity="1" stroke-miterlimit="10" d="M 277.998856 255.998947 C 277.998856 251.580427 274.417859 247.999431 269.99934 247.999431 C 265.58082 247.999431 261.999824 251.580427 261.999824 255.998947 C 261.999824 260.417466 265.58082 263.998463 269.99934 263.998463 C 274.417859 263.998463 277.998856 260.417466 277.998856 255.998947 " transform="matrix(0.998107, 0, 0, -0.998107, -55.195331, 424.143312)"/>
<path fill-rule="nonzero" fill="rgb(41.099548%, 6.599426%, 93.299866%)" fill-opacity="1" stroke-width="0.4" stroke-linecap="butt" stroke-linejoin="round" stroke="rgb(0%, 0%, 0%)" stroke-opacity="1" stroke-miterlimit="10" d="M 259.999945 235.499208 C 259.999945 231.910384 257.088183 228.998623 253.499359 228.998623 C 249.910536 228.998623 246.998774 231.910384 246.998774 235.499208 C 246.998774 239.091946 249.910536 241.999794 253.499359 241.999794 C 257.088183 241.999794 259.999945 239.091946 259.999945 235.499208 " transform="matrix(0.998107, 0, 0, -0.998107, -55.195331, 424.143312)"/>
<path fill-rule="nonzero" fill="rgb(50.099182%, 53.69873%, 43.099976%)" fill-opacity="1" stroke-width="0.4" stroke-linecap="butt" stroke-linejoin="round" stroke="rgb(0%, 0%, 0%)" stroke-opacity="1" stroke-miterlimit="10" d="M 291.000026 229.499571 C 291.000026 223.699531 286.299723 218.999228 280.499683 218.999228 C 274.699642 218.999228 269.99934 223.699531 269.99934 229.499571 C 269.99934 235.299612 274.699642 239.999915 280.499683 239.999915 C 286.299723 239.999915 291.000026 235.299612 291.000026 229.499571 " transform="matrix(0.998107, 0, 0, -0.998107, -55.195331, 424.143312)"/>
<path fill-rule="nonzero" fill="rgb(63.499451%, 46.598816%, 14.099121%)" fill-opacity="1" stroke-width="0.4" stroke-linecap="butt" stroke-linejoin="round" stroke="rgb(0%, 0%, 0%)" stroke-opacity="1" stroke-miterlimit="10" d="M 271.001236 225.499813 C 271.001236 221.359164 267.639404 218.001245 263.498755 218.001245 C 259.358105 218.001245 256.000187 221.359164 256.000187 225.499813 C 256.000187 229.640463 259.358105 232.998381 263.498755 232.998381 C 267.639404 232.998381 271.001236 229.640463 271.001236 225.499813 " transform="matrix(0.998107, 0, 0, -0.998107, -55.195331, 424.143312)"/>
<path fill-rule="nonzero" fill="rgb(79.598999%, 48.999023%, 73.699951%)" fill-opacity="1" stroke-width="0.4" stroke-linecap="butt" stroke-linejoin="round" stroke="rgb(0%, 0%, 0%)" stroke-opacity="1" stroke-miterlimit="10" d="M 306.999058 230.501468 C 306.999058 226.082948 303.418062 222.501952 298.999542 222.501952 C 294.581023 222.501952 291.000026 226.082948 291.000026 230.501468 C 291.000026 234.916073 294.581023 238.500984 298.999542 238.500984 C 303.418062 238.500984 306.999058 234.916073 306.999058 230.501468 " transform="matrix(0.998107, 0, 0, -0.998107, -55.195331, 424.143312)"/>
<path fill-rule="nonzero" fill="rgb(55.198669%, 13.299561%, 66.19873%)" fill-opacity="1" stroke-width="0.4" stroke-linecap="butt" stroke-linejoin="round" stroke="rgb(0%, 0%, 0%)" stroke-opacity="1" stroke-miterlimit="10" d="M 360.999705 218.001245 C 360.999705 202.534471 348.46426 189.999026 333.001399 189.999026 C 317.534624 189.999026 304.999179 202.534471 304.999179 218.001245 C 304.999179 233.464106 317.534624 245.999552 333.001399 245.999552 C 348.46426 245.999552 360.999705 233.464106 360.999705 218.001245 " transform="matrix(0.998107, 0, 0, -0.998107, -55.195331, 424.143312)"/>
<path fill-rule="nonzero" fill="rgb(74.499512%, 17.199707%, 72.499084%)" fill-opacity="1" stroke-width="0.4" stroke-linecap="butt" stroke-linejoin="round" stroke="rgb(0%, 0%, 0%)" stroke-opacity="1" stroke-miterlimit="10" d="M 296.999663 242.500742 C 296.999663 238.911918 294.091816 236.000157 290.499078 236.000157 C 286.910254 236.000157 283.998493 238.911918 283.998493 242.500742 C 283.998493 246.089566 286.910254 249.001327 290.499078 249.001327 C 294.091816 249.001327 296.999663 246.089566 296.999663 242.500742 " transform="matrix(0.998107, 0, 0, -0.998107, -55.195331, 424.143312)"/>
<path fill-rule="nonzero" fill="rgb(72.898865%, 14.099121%, 80.299377%)" fill-opacity="1" stroke-width="0.4" stroke-linecap="butt" stroke-linejoin="round" stroke="rgb(0%, 0%, 0%)" stroke-opacity="1" stroke-miterlimit="10" d="M 236.001397 208.00185 C 236.001397 204.131243 232.866557 201.000317 228.999863 201.000317 C 225.13317 201.000317 221.99833 204.131243 221.99833 208.00185 C 221.99833 211.868544 225.13317 214.99947 228.999863 214.99947 C 232.866557 214.99947 236.001397 211.868544 236.001397 208.00185 " transform="matrix(0.998107, 0, 0, -0.998107, -55.195331, 424.143312)"/>
<path fill-rule="nonzero" fill="rgb(52.49939%, 41.099548%, 59.599304%)" fill-opacity="1" stroke-width="0.4" stroke-linecap="butt" stroke-linejoin="round" stroke="rgb(0%, 0%, 0%)" stroke-opacity="1" stroke-miterlimit="10" d="M 242.001034 218.999228 C 242.001034 215.688274 239.312351 212.999591 236.001397 212.999591 C 232.686529 212.999591 230.00176 215.688274 230.00176 218.999228 C 230.00176 222.310182 232.686529 224.998865 236.001397 224.998865 C 239.312351 224.998865 242.001034 222.310182 242.001034 218.999228 " transform="matrix(0.998107, 0, 0, -0.998107, -55.195331, 424.143312)"/>
<path fill-rule="nonzero" fill="rgb(41.099548%, 3.09906%, 82.299805%)" fill-opacity="1" stroke-width="0.4" stroke-linecap="butt" stroke-linejoin="round" stroke="rgb(0%, 0%, 0%)" stroke-opacity="1" stroke-miterlimit="10" d="M 221.99833 208.999833 C 221.99833 204.581314 218.417333 201.000317 213.998814 201.000317 C 209.580294 201.000317 205.999298 204.581314 205.999298 208.999833 C 205.999298 213.418352 209.580294 216.999349 213.998814 216.999349 C 218.417333 216.999349 221.99833 213.418352 221.99833 208.999833 " transform="matrix(0.998107, 0, 0, -0.998107, -55.195331, 424.143312)"/>
<path fill-rule="nonzero" fill="rgb(21.499634%, 28.599548%, 32.499695%)" fill-opacity="1" stroke-width="0.4" stroke-linecap="butt" stroke-linejoin="round" stroke="rgb(0%, 0%, 0%)" stroke-opacity="1" stroke-miterlimit="10" d="M 215.00071 222.501952 C 215.00071 218.909214 212.088949 216.001366 208.500125 216.001366 C 204.911301 216.001366 201.99954 218.909214 201.99954 222.501952 C 201.99954 226.090776 204.911301 228.998623 208.500125 228.998623 C 212.088949 228.998623 215.00071 226.090776 215.00071 222.501952 " transform="matrix(0.998107, 0, 0, -0.998107, -55.195331, 424.143312)"/>
<path fill-rule="nonzero" fill="rgb(28.599548%, 21.499634%, 7.798767%)" fill-opacity="1" stroke-width="0.4" stroke-linecap="butt" stroke-linejoin="round" stroke="rgb(0%, 0%, 0%)" stroke-opacity="1" stroke-miterlimit="10" d="M 201.99954 224.000882 C 201.99954 219.331889 195.00192 219.331889 195.00192 224.000882 C 195.00192 228.669876 201.99954 228.669876 201.99954 224.000882 " transform="matrix(0.998107, 0, 0, -0.998107, -55.195331, 424.143312)"/>
<path fill-rule="nonzero" fill="rgb(82.299805%, 64.99939%, 49.398804%)" fill-opacity="1" stroke-width="0.4" stroke-linecap="butt" stroke-linejoin="round" stroke="rgb(0%, 0%, 0%)" stroke-opacity="1" stroke-miterlimit="10" d="M 195.999903 227.499692 C 195.999903 221.977522 191.522678 217.500297 186.000508 217.500297 C 180.478337 217.500297 176.001113 221.977522 176.001113 227.499692 C 176.001113 233.021863 180.478337 237.499087 186.000508 237.499087 C 191.522678 237.499087 195.999903 233.021863 195.999903 227.499692 " transform="matrix(0.998107, 0, 0, -0.998107, -55.195331, 424.143312)"/>
<path fill-rule="nonzero" fill="rgb(28.599548%, 79.199219%, 99.598694%)" fill-opacity="1" stroke-width="0.4" stroke-linecap="butt" stroke-linejoin="round" stroke="rgb(0%, 0%, 0%)" stroke-opacity="1" stroke-miterlimit="10" d="M 168.999579 206.499006 C 168.999579 201.254705 164.745433 197.000559 159.501132 197.000559 C 154.252918 197.000559 149.998772 201.254705 149.998772 206.499006 C 149.998772 211.747221 154.252918 216.001366 159.501132 216.001366 C 164.745433 216.001366 168.999579 211.747221 168.999579 206.499006 " transform="matrix(0.998107, 0, 0, -0.998107, -55.195331, 424.143312)"/>
<path fill-rule="nonzero" fill="rgb(77.598572%, 52.89917%, 62.69989%)" fill-opacity="1" stroke-width="0.4" stroke-linecap="butt" stroke-linejoin="round" stroke="rgb(0%, 0%, 0%)" stroke-opacity="1" stroke-miterlimit="10" d="M 164.001839 190.499974 C 164.001839 186.63328 160.866999 183.49844 157.000305 183.49844 C 153.133612 183.49844 149.998772 186.63328 149.998772 190.499974 C 149.998772 194.366667 153.133612 197.501507 157.000305 197.501507 C 160.866999 197.501507 164.001839 194.366667 164.001839 190.499974 " transform="matrix(0.998107, 0, 0, -0.998107, -55.195331, 424.143312)"/>
<path fill-rule="nonzero" fill="rgb(91.299438%, 18.798828%, 41.899109%)" fill-opacity="1" stroke-width="0.4" stroke-linecap="butt" stroke-linejoin="round" stroke="rgb(0%, 0%, 0%)" stroke-opacity="1" stroke-miterlimit="10" d="M 151.998651 198.49949 C 151.998651 192.425493 147.07527 187.498198 141.001273 187.498198 C 134.927277 187.498198 129.999982 192.425493 129.999982 198.49949 C 129.999982 204.573486 134.927277 209.500781 141.001273 209.500781 C 147.07527 209.500781 151.998651 204.573486 151.998651 198.49949 " transform="matrix(0.998107, 0, 0, -0.998107, -55.195331, 424.143312)"/>
<path fill-rule="nonzero" fill="rgb(8.198547%, 91.299438%, 97.198486%)" fill-opacity="1" stroke-width="0.4" stroke-linecap="butt" stroke-linejoin="round" stroke="rgb(0%, 0%, 0%)" stroke-opacity="1" stroke-miterlimit="10" d="M 131.999861 190.499974 C 131.999861 186.91115 129.0881 183.999389 125.499276 183.999389 C 121.910452 183.999389 118.99869 186.91115 118.99869 190.499974 C 118.99869 194.088798 121.910452 197.000559 125.499276 197.000559 C 129.0881 197.000559 131.999861 194.088798 131.999861 190.499974 " transform="matrix(0.998107, 0, 0, -0.998107, -55.195331, 424.143312)"/>
<path fill-rule="nonzero" fill="rgb(22.698975%, 71.699524%, 71.699524%)" fill-opacity="1" stroke-width="0.4" stroke-linecap="butt" stroke-linejoin="round" stroke="rgb(0%, 0%, 0%)" stroke-opacity="1" stroke-miterlimit="10" d="M 161.000063 270.499048 C 161.000063 266.632354 157.865224 263.501428 153.99853 263.501428 C 150.131836 263.501428 147.00091 266.632354 147.00091 270.499048 C 147.00091 274.365742 150.131836 277.500581 153.99853 277.500581 C 157.865224 277.500581 161.000063 274.365742 161.000063 270.499048 " transform="matrix(0.998107, 0, 0, -0.998107, -55.195331, 424.143312)"/>
<path fill-rule="nonzero" fill="rgb(63.899231%, 30.899048%, 44.299316%)" fill-opacity="1" stroke-width="0.4" stroke-linecap="butt" stroke-linejoin="round" stroke="rgb(0%, 0%, 0%)" stroke-opacity="1" stroke-miterlimit="10" d="M 147.00091 267.998221 C 147.00091 263.583615 143.419913 259.998705 139.001394 259.998705 C 134.582875 259.998705 131.001878 263.583615 131.001878 267.998221 C 131.001878 272.41674 134.582875 276.00165 139.001394 276.00165 C 143.419913 276.00165 147.00091 272.41674 147.00091 267.998221 " transform="matrix(0.998107, 0, 0, -0.998107, -55.195331, 424.143312)"/>
<path fill-rule="nonzero" fill="rgb(67.399597%, 12.89978%, 96.798706%)" fill-opacity="1" stroke-width="0.4" stroke-linecap="butt" stroke-linejoin="round" stroke="rgb(0%, 0%, 0%)" stroke-opacity="1" stroke-miterlimit="10" d="M 155.998409 257.501791 C 155.998409 253.909054 153.090561 251.001206 149.501737 251.001206 C 145.909 251.001206 143.001152 253.909054 143.001152 257.501791 C 143.001152 261.090615 145.909 263.998463 149.501737 263.998463 C 153.090561 263.998463 155.998409 261.090615 155.998409 257.501791 " transform="matrix(0.998107, 0, 0, -0.998107, -55.195331, 424.143312)"/>
<path fill-rule="nonzero" fill="rgb(95.999146%, 45.799255%, 37.998962%)" fill-opacity="1" stroke-width="0.4" stroke-linecap="butt" stroke-linejoin="round" stroke="rgb(0%, 0%, 0%)" stroke-opacity="1" stroke-miterlimit="10" d="M 174.001234 258.499774 C 174.001234 253.529429 169.970166 249.498361 164.999821 249.498361 C 160.029476 249.498361 155.998409 253.529429 155.998409 258.499774 C 155.998409 263.470119 160.029476 267.501186 164.999821 267.501186 C 169.970166 267.501186 174.001234 263.470119 174.001234 258.499774 " transform="matrix(0.998107, 0, 0, -0.998107, -55.195331, 424.143312)"/>
<path fill-rule="nonzero" fill="rgb(17.199707%, 53.69873%, 59.599304%)" fill-opacity="1" stroke-width="0.4" stroke-linecap="butt" stroke-linejoin="round" stroke="rgb(0%, 0%, 0%)" stroke-opacity="1" stroke-miterlimit="10" d="M 180.998853 268.499169 C 180.998853 261.830296 170.999458 261.830296 170.999458 268.499169 C 170.999458 275.168041 180.998853 275.168041 180.998853 268.499169 " transform="matrix(0.998107, 0, 0, -0.998107, -55.195331, 424.143312)"/>
<path fill-rule="nonzero" fill="rgb(82.299805%, 2.69928%, 88.198853%)" fill-opacity="1" stroke-width="0.4" stroke-linecap="butt" stroke-linejoin="round" stroke="rgb(0%, 0%, 0%)" stroke-opacity="1" stroke-miterlimit="10" d="M 141.001273 306.500784 C 141.001273 299.041352 134.958586 292.998665 127.499155 292.998665 C 120.043637 292.998665 114.00095 299.041352 114.00095 306.500784 C 114.00095 313.956301 120.043637 319.998989 127.499155 319.998989 C 134.958586 319.998989 141.001273 313.956301 141.001273 306.500784 " transform="matrix(0.998107, 0, 0, -0.998107, -55.195331, 424.143312)"/>
<path fill-rule="nonzero" fill="rgb(61.499023%, 1.899719%, 70.498657%)" fill-opacity="1" stroke-width="0.4" stroke-linecap="butt" stroke-linejoin="round" stroke="rgb(0%, 0%, 0%)" stroke-opacity="1" stroke-miterlimit="10" d="M 205.001315 299.49925 C 205.001315 295.080731 201.416405 291.499734 197.001799 291.499734 C 192.58328 291.499734 188.998369 295.080731 188.998369 299.49925 C 188.998369 303.91777 192.58328 307.498766 197.001799 307.498766 C 201.416405 307.498766 205.001315 303.91777 205.001315 299.49925 " transform="matrix(0.998107, 0, 0, -0.998107, -55.195331, 424.143312)"/>
<path fill-rule="nonzero" fill="rgb(14.099121%, 64.99939%, 99.198914%)" fill-opacity="1" stroke-width="0.4" stroke-linecap="butt" stroke-linejoin="round" stroke="rgb(0%, 0%, 0%)" stroke-opacity="1" stroke-miterlimit="10" d="M 219.998451 304.500905 C 219.998451 300.082385 216.417454 296.501389 211.998935 296.501389 C 207.580415 296.501389 203.999419 300.082385 203.999419 304.500905 C 203.999419 308.919424 207.580415 312.500421 211.998935 312.500421 C 216.417454 312.500421 219.998451 308.919424 219.998451 304.500905 " transform="matrix(0.998107, 0, 0, -0.998107, -55.195331, 424.143312)"/>
<path fill-rule="nonzero" fill="rgb(32.899475%, 6.599426%, 76.799011%)" fill-opacity="1" stroke-width="0.4" stroke-linecap="butt" stroke-linejoin="round" stroke="rgb(0%, 0%, 0%)" stroke-opacity="1" stroke-miterlimit="10" d="M 252.998411 308.500663 C 252.998411 302.700622 248.302022 298.00032 242.498068 298.00032 C 236.698028 298.00032 232.001639 302.700622 232.001639 308.500663 C 232.001639 314.300703 236.698028 319.001006 242.498068 319.001006 C 248.302022 319.001006 252.998411 314.300703 252.998411 308.500663 " transform="matrix(0.998107, 0, 0, -0.998107, -55.195331, 424.143312)"/>
<path fill-rule="nonzero" fill="rgb(24.299622%, 3.898621%, 67.799377%)" fill-opacity="1" stroke-width="0.4" stroke-linecap="butt" stroke-linejoin="round" stroke="rgb(0%, 0%, 0%)" stroke-opacity="1" stroke-miterlimit="10" d="M 225.998088 323.000764 C 225.998088 317.200723 221.301699 312.500421 215.501658 312.500421 C 209.697704 312.500421 205.001315 317.200723 205.001315 323.000764 C 205.001315 328.800804 209.697704 333.501107 215.501658 333.501107 C 221.301699 333.501107 225.998088 328.800804 225.998088 323.000764 " transform="matrix(0.998107, 0, 0, -0.998107, -55.195331, 424.143312)"/>
<path fill-rule="nonzero" fill="rgb(95.999146%, 75.59967%, 75.999451%)" fill-opacity="1" stroke-width="0.4" stroke-linecap="butt" stroke-linejoin="round" stroke="rgb(0%, 0%, 0%)" stroke-opacity="1" stroke-miterlimit="10" d="M 207.001194 358.501552 C 207.001194 352.697597 202.300891 348.001208 196.500851 348.001208 C 190.70081 348.001208 186.000508 352.697597 186.000508 358.501552 C 186.000508 364.301592 190.70081 369.001895 196.500851 369.001895 C 202.300891 369.001895 207.001194 364.301592 207.001194 358.501552 " transform="matrix(0.998107, 0, 0, -0.998107, -55.195331, 424.143312)"/>
<path fill-rule="nonzero" fill="rgb(26.599121%, 19.599915%, 98.799133%)" fill-opacity="1" stroke-width="0.4" stroke-linecap="butt" stroke-linejoin="round" stroke="rgb(0%, 0%, 0%)" stroke-opacity="1" stroke-miterlimit="10" d="M 186.99849 362.998344 C 186.99849 357.198304 182.302101 352.501915 176.498147 352.501915 C 170.698107 352.501915 166.001718 357.198304 166.001718 362.998344 C 166.001718 368.802298 170.698107 373.498687 176.498147 373.498687 C 182.302101 373.498687 186.99849 368.802298 186.99849 362.998344 " transform="matrix(0.998107, 0, 0, -0.998107, -55.195331, 424.143312)"/>
<path fill-rule="nonzero" fill="rgb(39.898682%, 15.99884%, 62.69989%)" fill-opacity="1" stroke-width="0.4" stroke-linecap="butt" stroke-linejoin="round" stroke="rgb(0%, 0%, 0%)" stroke-opacity="1" stroke-miterlimit="10" d="M 182.00075 346.001329 C 182.00075 342.134636 178.86591 338.999796 174.999216 338.999796 C 171.132523 338.999796 168.001597 342.134636 168.001597 346.001329 C 168.001597 349.868023 171.132523 352.998949 174.999216 352.998949 C 178.86591 352.998949 182.00075 349.868023 182.00075 346.001329 " transform="matrix(0.998107, 0, 0, -0.998107, -55.195331, 424.143312)"/>
<path fill-rule="nonzero" fill="rgb(85.798645%, 54.098511%, 29.798889%)" fill-opacity="1" stroke-width="0.4" stroke-linecap="butt" stroke-linejoin="round" stroke="rgb(0%, 0%, 0%)" stroke-opacity="1" stroke-miterlimit="10" d="M 188.000387 351.500018 C 188.000387 346.169617 180.000871 346.169617 180.000871 351.500018 C 180.000871 356.83042 188.000387 356.83042 188.000387 351.500018 " transform="matrix(0.998107, 0, 0, -0.998107, -55.195331, 424.143312)"/>
<path fill-rule="nonzero" fill="rgb(39.199829%, 13.699341%, 25.39978%)" fill-opacity="1" stroke-width="0.4" stroke-linecap="butt" stroke-linejoin="round" stroke="rgb(0%, 0%, 0%)" stroke-opacity="1" stroke-miterlimit="10" d="M 157.000305 342.498606 C 157.000305 336.14674 151.853846 331.00028 145.498066 331.00028 C 139.146199 331.00028 133.99974 336.14674 133.99974 342.498606 C 133.99974 348.850472 139.146199 354.000845 145.498066 354.000845 C 151.853846 354.000845 157.000305 348.850472 157.000305 342.498606 " transform="matrix(0.998107, 0, 0, -0.998107, -55.195331, 424.143312)"/>
<path fill-rule="nonzero" fill="rgb(42.298889%, 1.499939%, 42.698669%)" fill-opacity="1" stroke-width="0.4" stroke-linecap="butt" stroke-linejoin="round" stroke="rgb(0%, 0%, 0%)" stroke-opacity="1" stroke-miterlimit="10" d="M 292.999905 339.500744 C 292.999905 335.91192 290.088144 333.000159 286.49932 333.000159 C 282.910496 333.000159 279.998735 335.91192 279.998735 339.500744 C 279.998735 343.089568 282.910496 346.001329 286.49932 346.001329 C 290.088144 346.001329 292.999905 343.089568 292.999905 339.500744 " transform="matrix(0.998107, 0, 0, -0.998107, -55.195331, 424.143312)"/>
<path fill-rule="nonzero" fill="rgb(44.299316%, 72.099304%, 25%)" fill-opacity="1" stroke-width="0.4" stroke-linecap="butt" stroke-linejoin="round" stroke="rgb(0%, 0%, 0%)" stroke-opacity="1" stroke-miterlimit="10" d="M 302.001318 326.499574 C 302.001318 321.803185 298.193329 317.99911 293.500853 317.99911 C 288.804464 317.99911 285.000389 321.803185 285.000389 326.499574 C 285.000389 331.195963 288.804464 335.000038 293.500853 335.000038 C 298.193329 335.000038 302.001318 331.195963 302.001318 326.499574 " transform="matrix(0.998107, 0, 0, -0.998107, -55.195331, 424.143312)"/>
<path fill-rule="nonzero" fill="rgb(8.999634%, 71.299744%, 86.599731%)" fill-opacity="1" stroke-width="0.4" stroke-linecap="butt" stroke-linejoin="round" stroke="rgb(0%, 0%, 0%)" stroke-opacity="1" stroke-miterlimit="10" d="M 306.999058 309.999594 C 306.999058 305.303205 303.194983 301.499129 298.498594 301.499129 C 293.806119 301.499129 289.99813 305.303205 289.99813 309.999594 C 289.99813 314.695983 293.806119 318.500058 298.498594 318.500058 C 303.194983 318.500058 306.999058 314.695983 306.999058 309.999594 " transform="matrix(0.998107, 0, 0, -0.998107, -55.195331, 424.143312)"/>
<path fill-rule="nonzero" fill="rgb(15.99884%, 47.799683%, 0.299072%)" fill-opacity="1" stroke-width="0.4" stroke-linecap="butt" stroke-linejoin="round" stroke="rgb(0%, 0%, 0%)" stroke-opacity="1" stroke-miterlimit="10" d="M 302.001318 263.501428 C 302.001318 258.832435 294.999784 258.832435 294.999784 263.501428 C 294.999784 268.166508 302.001318 268.166508 302.001318 263.501428 " transform="matrix(0.998107, 0, 0, -0.998107, -55.195331, 424.143312)"/>
<path fill-rule="nonzero" fill="rgb(19.898987%, 15.19928%, 33.299255%)" fill-opacity="1" stroke-width="0.4" stroke-linecap="butt" stroke-linejoin="round" stroke="rgb(0%, 0%, 0%)" stroke-opacity="1" stroke-miterlimit="10" d="M 285.998372 197.000559 C 285.998372 192.58204 282.417375 189.001043 277.998856 189.001043 C 273.580336 189.001043 269.99934 192.58204 269.99934 197.000559 C 269.99934 201.419078 273.580336 205.000075 277.998856 205.000075 C 282.417375 205.000075 285.998372 201.419078 285.998372 197.000559 " transform="matrix(0.998107, 0, 0, -0.998107, -55.195331, 424.143312)"/>
<path fill-rule="nonzero" fill="rgb(95.599365%, 91.299438%, 57.598877%)" fill-opacity="1" stroke-width="0.4" stroke-linecap="butt" stroke-linejoin="round" stroke="rgb(0%, 0%, 0%)" stroke-opacity="1" stroke-miterlimit="10" d="M 240.001155 195.998663 C 240.001155 192.961664 237.539464 190.499974 234.498552 190.499974 C 231.461554 190.499974 228.999863 192.961664 228.999863 195.998663 C 228.999863 199.039575 231.461554 201.501265 234.498552 201.501265 C 237.539464 201.501265 240.001155 199.039575 240.001155 195.998663 " transform="matrix(0.998107, 0, 0, -0.998107, -55.195331, 424.143312)"/>
<path fill-rule="nonzero" fill="rgb(14.898682%, 90.098572%, 53.29895%)" fill-opacity="1" stroke-width="0.4" stroke-linecap="butt" stroke-linejoin="round" stroke="rgb(0%, 0%, 0%)" stroke-opacity="1" stroke-miterlimit="10" d="M 223.998209 175.00189 C 223.998209 170.998218 217.998572 170.998218 217.998572 175.00189 C 217.998572 179.001648 223.998209 179.001648 223.998209 175.00189 " transform="matrix(0.998107, 0, 0, -0.998107, -55.195331, 424.143312)"/>
<path fill-rule="nonzero" fill="rgb(85.398865%, 82.299805%, 19.898987%)" fill-opacity="1" stroke-width="0.4" stroke-linecap="butt" stroke-linejoin="round" stroke="rgb(0%, 0%, 0%)" stroke-opacity="1" stroke-miterlimit="10" d="M 195.999903 195.501628 C 195.999903 190.805239 192.195828 187.001164 187.499439 187.001164 C 182.803049 187.001164 178.998974 190.805239 178.998974 195.501628 C 178.998974 200.194104 182.803049 203.998179 187.499439 203.998179 C 192.195828 203.998179 195.999903 200.194104 195.999903 195.501628 " transform="matrix(0.998107, 0, 0, -0.998107, -55.195331, 424.143312)"/>
<path fill-rule="nonzero" fill="rgb(99.198914%, 7.398987%, 5.39856%)" fill-opacity="1" stroke-width="0.4" stroke-linecap="butt" stroke-linejoin="round" stroke="rgb(0%, 0%, 0%)" stroke-opacity="1" stroke-miterlimit="10" d="M 178.998974 194.499732 C 178.998974 190.359082 175.641056 187.001164 171.500406 187.001164 C 167.359757 187.001164 164.001839 190.359082 164.001839 194.499732 C 164.001839 198.640382 167.359757 201.9983 171.500406 201.9983 C 175.641056 201.9983 178.998974 198.640382 178.998974 194.499732 " transform="matrix(0.998107, 0, 0, -0.998107, -55.195331, 424.143312)"/>
<path fill-rule="nonzero" fill="rgb(0.299072%, 50.099182%, 44.699097%)" fill-opacity="1" stroke-width="0.4" stroke-linecap="butt" stroke-linejoin="round" stroke="rgb(0%, 0%, 0%)" stroke-opacity="1" stroke-miterlimit="10" d="M 223.000226 166.000478 C 223.000226 161.030132 218.969159 156.999065 213.998814 156.999065 C 209.032382 156.999065 205.001315 161.030132 205.001315 166.000478 C 205.001315 170.970823 209.032382 175.00189 213.998814 175.00189 C 218.969159 175.00189 223.000226 170.970823 223.000226 166.000478 " transform="matrix(0.998107, 0, 0, -0.998107, -55.195331, 424.143312)"/>
</svg>
