<?xml version="1.0" encoding="UTF-8"?>
<svg xmlns="http://www.w3.org/2000/svg" xmlns:xlink="http://www.w3.org/1999/xlink" width="259.523" height="263.5" viewBox="0 0 259.523 263.5">
<defs>
<clipPath id="clip-0">
<path clip-rule="nonzero" d="M 0.0078125 168 L 5 168 L 5 173 L 0.0078125 173 Z M 0.0078125 168 "/>
</clipPath>
<clipPath id="clip-1">
<path clip-rule="nonzero" d="M 0.0078125 111 L 5 111 L 5 116 L 0.0078125 116 Z M 0.0078125 111 "/>
</clipPath>
</defs>
<path fill-rule="evenodd" fill="rgb(0%, 0%, 0%)" fill-opacity="1" d="M 168.332031 146.722656 C 168.332031 145.730469 167.527344 144.925781 166.535156 144.925781 C 165.542969 144.925781 164.738281 145.730469 164.738281 146.722656 C 164.738281 147.714844 165.542969 148.519531 166.535156 148.519531 C 167.527344 148.519531 168.332031 147.714844 168.332031 146.722656 "/>
<path fill-rule="evenodd" fill="rgb(0%, 0%, 0%)" fill-opacity="1" d="M 182.621094 157.699219 C 182.621094 156.707031 181.816406 155.902344 180.824219 155.902344 C 179.832031 155.902344 179.027344 156.707031 179.027344 157.699219 C 179.027344 158.691406 179.832031 159.496094 180.824219 159.496094 C 181.816406 159.496094 182.621094 158.691406 182.621094 157.699219 "/>
<path fill-rule="evenodd" fill="rgb(0%, 0%, 0%)" fill-opacity="1" d="M 195.113281 153.210938 C 195.113281 152.21875 194.308594 151.414062 193.316406 151.414062 C 192.324219 151.414062 191.519531 152.21875 191.519531 153.210938 C 191.519531 154.203125 192.324219 155.007812 193.316406 155.007812 C 194.308594 155.007812 195.113281 154.203125 195.113281 153.210938 "/>
<path fill-rule="evenodd" fill="rgb(0%, 0%, 0%)" fill-opacity="1" d="M 186.265625 142.730469 C 186.265625 141.738281 185.460938 140.933594 184.46875 140.933594 C 183.476562 140.933594 182.671875 141.738281 182.671875 142.730469 C 182.671875 143.722656 183.476562 144.527344 184.46875 144.527344 C 185.460938 144.527344 186.265625 143.722656 186.265625 142.730469 "/>
<path fill-rule="evenodd" fill="rgb(0%, 0%, 0%)" fill-opacity="1" d="M 203.75 141.230469 C 203.75 140.238281 202.945312 139.433594 201.953125 139.433594 C 200.960938 139.433594 200.15625 140.238281 200.15625 141.230469 C 200.15625 142.222656 200.960938 143.027344 201.953125 143.027344 C 202.945312 143.027344 203.75 142.222656 203.75 141.230469 "/>
<path fill-rule="evenodd" fill="rgb(0%, 0%, 0%)" fill-opacity="1" d="M 193.097656 128.257812 C 193.097656 127.265625 192.292969 126.460938 191.300781 126.460938 C 190.308594 126.460938 189.503906 127.265625 189.503906 128.257812 C 189.503906 129.25 190.308594 130.054688 191.300781 130.054688 C 192.292969 130.054688 193.097656 129.25 193.097656 128.257812 "/>
<path fill-rule="evenodd" fill="rgb(0%, 0%, 0%)" fill-opacity="1" d="M 176.621094 129.253906 C 176.621094 128.261719 175.816406 127.457031 174.824219 127.457031 C 173.832031 127.457031 173.027344 128.261719 173.027344 129.253906 C 173.027344 130.246094 173.832031 131.050781 174.824219 131.050781 C 175.816406 131.050781 176.621094 130.246094 176.621094 129.253906 "/>
<path fill-rule="evenodd" fill="rgb(0%, 0%, 0%)" fill-opacity="1" d="M 155.621094 126.261719 C 155.621094 125.269531 154.816406 124.464844 153.824219 124.464844 C 152.832031 124.464844 152.027344 125.269531 152.027344 126.261719 C 152.027344 127.253906 152.832031 128.058594 153.824219 128.058594 C 154.816406 128.058594 155.621094 127.253906 155.621094 126.261719 "/>
<path fill-rule="evenodd" fill="rgb(0%, 0%, 0%)" fill-opacity="1" d="M 141.214844 136.242188 C 141.214844 135.25 140.410156 134.445312 139.417969 134.445312 C 138.425781 134.445312 137.621094 135.25 137.621094 136.242188 C 137.621094 137.234375 138.425781 138.039062 139.417969 138.039062 C 140.410156 138.039062 141.214844 137.234375 141.214844 136.242188 "/>
<path fill-rule="evenodd" fill="rgb(0%, 0%, 0%)" fill-opacity="1" d="M 127.726562 137.738281 C 127.726562 136.746094 126.921875 135.941406 125.929688 135.941406 C 124.9375 135.941406 124.132812 136.746094 124.132812 137.738281 C 124.132812 138.730469 124.9375 139.535156 125.929688 139.535156 C 126.921875 139.535156 127.726562 138.730469 127.726562 137.738281 "/>
<path fill-rule="evenodd" fill="rgb(0%, 0%, 0%)" fill-opacity="1" d="M 137.855469 149.21875 C 137.855469 148.226562 137.050781 147.421875 136.058594 147.421875 C 135.066406 147.421875 134.261719 148.226562 134.261719 149.21875 C 134.261719 150.207031 135.066406 151.011719 136.058594 151.011719 C 137.050781 151.011719 137.855469 150.207031 137.855469 149.21875 "/>
<path fill-rule="evenodd" fill="rgb(0%, 0%, 0%)" fill-opacity="1" d="M 122.734375 151.214844 C 122.734375 150.222656 121.929688 149.417969 120.9375 149.417969 C 119.945312 149.417969 119.140625 150.222656 119.140625 151.214844 C 119.140625 152.207031 119.945312 153.007812 120.9375 153.007812 C 121.929688 153.007812 122.734375 152.207031 122.734375 151.214844 "/>
<path fill-rule="evenodd" fill="rgb(0%, 0%, 0%)" fill-opacity="1" d="M 132.210938 163.6875 C 132.210938 162.699219 131.410156 161.894531 130.417969 161.894531 C 129.425781 161.894531 128.621094 162.699219 128.621094 163.6875 C 128.621094 164.679688 129.425781 165.484375 130.417969 165.484375 C 131.410156 165.484375 132.210938 164.679688 132.210938 163.6875 "/>
<path fill-rule="evenodd" fill="rgb(0%, 0%, 0%)" fill-opacity="1" d="M 117.390625 164.6875 C 117.390625 163.695312 116.585938 162.890625 115.59375 162.890625 C 114.601562 162.890625 113.796875 163.695312 113.796875 164.6875 C 113.796875 165.679688 114.601562 166.484375 115.59375 166.484375 C 116.585938 166.484375 117.390625 165.679688 117.390625 164.6875 "/>
<path fill-rule="evenodd" fill="rgb(0%, 0%, 0%)" fill-opacity="1" d="M 124.738281 176.164062 C 124.738281 175.171875 123.933594 174.367188 122.941406 174.367188 C 121.949219 174.367188 121.144531 175.171875 121.144531 176.164062 C 121.144531 177.15625 121.949219 177.960938 122.941406 177.960938 C 123.933594 177.960938 124.738281 177.15625 124.738281 176.164062 "/>
<path fill-rule="evenodd" fill="rgb(0%, 0%, 0%)" fill-opacity="1" d="M 114.859375 174.667969 C 114.859375 173.675781 114.054688 172.871094 113.0625 172.871094 C 112.070312 172.871094 111.265625 173.675781 111.265625 174.667969 C 111.265625 175.660156 112.070312 176.464844 113.0625 176.464844 C 114.054688 176.464844 114.859375 175.660156 114.859375 174.667969 "/>
<path fill-rule="evenodd" fill="rgb(0%, 0%, 0%)" fill-opacity="1" d="M 112.734375 187.144531 C 112.734375 186.152344 111.929688 185.347656 110.9375 185.347656 C 109.945312 185.347656 109.140625 186.152344 109.140625 187.144531 C 109.140625 188.136719 109.945312 188.941406 110.9375 188.941406 C 111.929688 188.941406 112.734375 188.136719 112.734375 187.144531 "/>
<path fill-rule="evenodd" fill="rgb(0%, 0%, 0%)" fill-opacity="1" d="M 130.371094 189.640625 C 130.371094 188.648438 129.566406 187.84375 128.574219 187.84375 C 127.582031 187.84375 126.777344 188.648438 126.777344 189.640625 C 126.777344 190.632812 127.582031 191.4375 128.574219 191.4375 C 129.566406 191.4375 130.371094 190.632812 130.371094 189.640625 "/>
<path fill-rule="evenodd" fill="rgb(0%, 0%, 0%)" fill-opacity="1" d="M 139.199219 177.164062 C 139.199219 176.171875 138.394531 175.367188 137.402344 175.367188 C 136.410156 175.367188 135.605469 176.171875 135.605469 177.164062 C 135.605469 178.15625 136.410156 178.960938 137.402344 178.960938 C 138.394531 178.960938 139.199219 178.15625 139.199219 177.164062 "/>
<path fill-rule="evenodd" fill="rgb(0%, 0%, 0%)" fill-opacity="1" d="M 152.195312 179.660156 C 152.195312 178.667969 151.390625 177.863281 150.398438 177.863281 C 149.40625 177.863281 148.601562 178.667969 148.601562 179.660156 C 148.601562 180.652344 149.40625 181.457031 150.398438 181.457031 C 151.390625 181.457031 152.195312 180.652344 152.195312 179.660156 "/>
<path fill-rule="evenodd" fill="rgb(0%, 0%, 0%)" fill-opacity="1" d="M 151.867188 162.191406 C 151.867188 161.199219 151.0625 160.394531 150.070312 160.394531 C 149.078125 160.394531 148.273438 161.199219 148.273438 162.191406 C 148.273438 163.183594 149.078125 163.988281 150.070312 163.988281 C 151.0625 163.988281 151.867188 163.183594 151.867188 162.191406 "/>
<path fill-rule="evenodd" fill="rgb(0%, 0%, 0%)" fill-opacity="1" d="M 165.160156 176.164062 C 165.160156 175.171875 164.355469 174.367188 163.363281 174.367188 C 162.371094 174.367188 161.566406 175.171875 161.566406 176.164062 C 161.566406 177.15625 162.371094 177.960938 163.363281 177.960938 C 164.355469 177.960938 165.160156 177.15625 165.160156 176.164062 "/>
<path fill-rule="evenodd" fill="rgb(0%, 0%, 0%)" fill-opacity="1" d="M 169.652344 163.191406 C 169.652344 162.199219 168.847656 161.394531 167.855469 161.394531 C 166.863281 161.394531 166.0625 162.199219 166.0625 163.191406 C 166.0625 164.183594 166.863281 164.988281 167.855469 164.988281 C 168.847656 164.988281 169.652344 164.183594 169.652344 163.191406 "/>
<path fill-rule="evenodd" fill="rgb(0%, 0%, 0%)" fill-opacity="1" d="M 179.625 173.171875 C 179.625 172.179688 178.824219 171.375 177.832031 171.375 C 176.839844 171.375 176.035156 172.179688 176.035156 173.171875 C 176.035156 174.164062 176.839844 174.96875 177.832031 174.96875 C 178.824219 174.96875 179.625 174.164062 179.625 173.171875 "/>
<path fill-rule="evenodd" fill="rgb(0%, 0%, 0%)" fill-opacity="1" d="M 196.5625 169.179688 C 196.5625 168.1875 195.757812 167.382812 194.765625 167.382812 C 193.773438 167.382812 192.96875 168.1875 192.96875 169.179688 C 192.96875 170.171875 193.773438 170.976562 194.765625 170.976562 C 195.757812 170.976562 196.5625 170.171875 196.5625 169.179688 "/>
<path fill-rule="evenodd" fill="rgb(0%, 0%, 0%)" fill-opacity="1" d="M 188.769531 186.148438 C 188.769531 185.15625 187.964844 184.351562 186.972656 184.351562 C 185.980469 184.351562 185.175781 185.15625 185.175781 186.148438 C 185.175781 187.140625 185.980469 187.945312 186.972656 187.945312 C 187.964844 187.945312 188.769531 187.140625 188.769531 186.148438 "/>
<path fill-rule="evenodd" fill="rgb(0%, 0%, 0%)" fill-opacity="1" d="M 174.65625 185.148438 C 174.65625 184.15625 173.851562 183.351562 172.859375 183.351562 C 171.867188 183.351562 171.0625 184.15625 171.0625 185.148438 C 171.0625 186.140625 171.867188 186.945312 172.859375 186.945312 C 173.851562 186.945312 174.65625 186.140625 174.65625 185.148438 "/>
<path fill-rule="evenodd" fill="rgb(0%, 0%, 0%)" fill-opacity="1" d="M 161.324219 192.136719 C 161.324219 191.144531 160.519531 190.339844 159.527344 190.339844 C 158.535156 190.339844 157.734375 191.144531 157.734375 192.136719 C 157.734375 193.128906 158.535156 193.933594 159.527344 193.933594 C 160.519531 193.933594 161.324219 193.128906 161.324219 192.136719 "/>
<path fill-rule="evenodd" fill="rgb(0%, 0%, 0%)" fill-opacity="1" d="M 145.195312 190.636719 C 145.195312 189.644531 144.390625 188.839844 143.398438 188.839844 C 142.40625 188.839844 141.601562 189.644531 141.601562 190.636719 C 141.601562 191.628906 142.40625 192.433594 143.398438 192.433594 C 144.390625 192.433594 145.195312 191.628906 145.195312 190.636719 "/>
<path fill-rule="evenodd" fill="rgb(0%, 0%, 0%)" fill-opacity="1" d="M 137.359375 203.113281 C 137.359375 202.121094 136.554688 201.316406 135.5625 201.316406 C 134.570312 201.316406 133.765625 202.121094 133.765625 203.113281 C 133.765625 204.105469 134.570312 204.910156 135.5625 204.910156 C 136.554688 204.910156 137.359375 204.105469 137.359375 203.113281 "/>
<path fill-rule="evenodd" fill="rgb(0%, 0%, 0%)" fill-opacity="1" d="M 150.699219 202.617188 C 150.699219 201.625 149.894531 200.820312 148.902344 200.820312 C 147.910156 200.820312 147.109375 201.625 147.109375 202.617188 C 147.109375 203.609375 147.910156 204.414062 148.902344 204.414062 C 149.894531 204.414062 150.699219 203.609375 150.699219 202.617188 "/>
<path fill-rule="evenodd" fill="rgb(0%, 0%, 0%)" fill-opacity="1" d="M 124.890625 110.289062 C 124.890625 109.296875 124.085938 108.492188 123.09375 108.492188 C 122.101562 108.492188 121.296875 109.296875 121.296875 110.289062 C 121.296875 111.28125 122.101562 112.085938 123.09375 112.085938 C 124.085938 112.085938 124.890625 111.28125 124.890625 110.289062 "/>
<path fill-rule="evenodd" fill="rgb(0%, 0%, 0%)" fill-opacity="1" d="M 134.871094 123.265625 C 134.871094 122.273438 134.066406 121.46875 133.074219 121.46875 C 132.082031 121.46875 131.277344 122.273438 131.277344 123.265625 C 131.277344 124.257812 132.082031 125.0625 133.074219 125.0625 C 134.066406 125.0625 134.871094 124.257812 134.871094 123.265625 "/>
<path fill-rule="evenodd" fill="rgb(0%, 0%, 0%)" fill-opacity="1" d="M 119.238281 125.761719 C 119.238281 124.769531 118.433594 123.964844 117.441406 123.964844 C 116.449219 123.964844 115.644531 124.769531 115.644531 125.761719 C 115.644531 126.753906 116.449219 127.558594 117.441406 127.558594 C 118.433594 127.558594 119.238281 126.753906 119.238281 125.761719 "/>
<path fill-rule="evenodd" fill="rgb(0%, 0%, 0%)" fill-opacity="1" d="M 104.414062 127.757812 C 104.414062 126.765625 103.609375 125.960938 102.617188 125.960938 C 101.625 125.960938 100.820312 126.765625 100.820312 127.757812 C 100.820312 128.75 101.625 129.554688 102.617188 129.554688 C 103.609375 129.554688 104.414062 128.75 104.414062 127.757812 "/>
<path fill-rule="evenodd" fill="rgb(0%, 0%, 0%)" fill-opacity="1" d="M 113.25 139.734375 C 113.25 138.742188 112.445312 137.9375 111.453125 137.9375 C 110.460938 137.9375 109.65625 138.742188 109.65625 139.734375 C 109.65625 140.726562 110.460938 141.53125 111.453125 141.53125 C 112.445312 141.53125 113.25 140.726562 113.25 139.734375 "/>
<path fill-rule="evenodd" fill="rgb(0%, 0%, 0%)" fill-opacity="1" d="M 98.277344 141.230469 C 98.277344 140.238281 97.472656 139.433594 96.480469 139.433594 C 95.488281 139.433594 94.683594 140.238281 94.683594 141.230469 C 94.683594 142.222656 95.488281 143.027344 96.480469 143.027344 C 97.472656 143.027344 98.277344 142.222656 98.277344 141.230469 "/>
<path fill-rule="evenodd" fill="rgb(0%, 0%, 0%)" fill-opacity="1" d="M 92.316406 130.253906 C 92.316406 129.261719 91.511719 128.457031 90.519531 128.457031 C 89.527344 128.457031 88.722656 129.261719 88.722656 130.253906 C 88.722656 131.246094 89.527344 132.050781 90.519531 132.050781 C 91.511719 132.050781 92.316406 131.246094 92.316406 130.253906 "/>
<path fill-rule="evenodd" fill="rgb(0%, 0%, 0%)" fill-opacity="1" d="M 82.828125 125.761719 C 82.828125 124.769531 82.023438 123.964844 81.03125 123.964844 C 80.039062 123.964844 79.238281 124.769531 79.238281 125.761719 C 79.238281 126.753906 80.039062 127.558594 81.03125 127.558594 C 82.023438 127.558594 82.828125 126.753906 82.828125 125.761719 "/>
<path fill-rule="evenodd" fill="rgb(0%, 0%, 0%)" fill-opacity="1" d="M 70.476562 128.257812 C 70.476562 127.265625 69.671875 126.460938 68.679688 126.460938 C 67.6875 126.460938 66.886719 127.265625 66.886719 128.257812 C 66.886719 129.25 67.6875 130.054688 68.679688 130.054688 C 69.671875 130.054688 70.476562 129.25 70.476562 128.257812 "/>
<path fill-rule="evenodd" fill="rgb(0%, 0%, 0%)" fill-opacity="1" d="M 55.515625 130.75 C 55.515625 129.761719 54.710938 128.957031 53.71875 128.957031 C 52.726562 128.957031 51.921875 129.761719 51.921875 130.75 C 51.921875 131.742188 52.726562 132.546875 53.71875 132.546875 C 54.710938 132.546875 55.515625 131.742188 55.515625 130.75 "/>
<path fill-rule="evenodd" fill="rgb(0%, 0%, 0%)" fill-opacity="1" d="M 38.882812 132.25 C 38.882812 131.257812 38.078125 130.453125 37.085938 130.453125 C 36.09375 130.453125 35.289062 131.257812 35.289062 132.25 C 35.289062 133.242188 36.09375 134.046875 37.085938 134.046875 C 38.078125 134.046875 38.882812 133.242188 38.882812 132.25 "/>
<path fill-rule="evenodd" fill="rgb(0%, 0%, 0%)" fill-opacity="1" d="M 28.074219 145.222656 C 28.074219 144.230469 27.269531 143.429688 26.277344 143.429688 C 25.285156 143.429688 24.480469 144.230469 24.480469 145.222656 C 24.480469 146.214844 25.285156 147.019531 26.277344 147.019531 C 27.269531 147.019531 28.074219 146.214844 28.074219 145.222656 "/>
<path fill-rule="evenodd" fill="rgb(0%, 0%, 0%)" fill-opacity="1" d="M 32.53125 158.199219 C 32.53125 157.207031 31.726562 156.402344 30.734375 156.402344 C 29.742188 156.402344 28.9375 157.207031 28.9375 158.199219 C 28.9375 159.191406 29.742188 159.996094 30.734375 159.996094 C 31.726562 159.996094 32.53125 159.191406 32.53125 158.199219 "/>
<path fill-rule="evenodd" fill="rgb(0%, 0%, 0%)" fill-opacity="1" d="M 48.8125 151.214844 C 48.8125 150.222656 48.007812 149.417969 47.015625 149.417969 C 46.023438 149.417969 45.21875 150.222656 45.21875 151.214844 C 45.21875 152.207031 46.023438 153.007812 47.015625 153.007812 C 48.007812 153.007812 48.8125 152.207031 48.8125 151.214844 "/>
<path fill-rule="evenodd" fill="rgb(0%, 0%, 0%)" fill-opacity="1" d="M 38.546875 169.679688 C 38.546875 168.6875 37.742188 167.882812 36.75 167.882812 C 35.757812 167.882812 34.953125 168.6875 34.953125 169.679688 C 34.953125 170.671875 35.757812 171.476562 36.75 171.476562 C 37.742188 171.476562 38.546875 170.671875 38.546875 169.679688 "/>
<path fill-rule="evenodd" fill="rgb(0%, 0%, 0%)" fill-opacity="1" d="M 58.792969 176.164062 C 58.792969 175.171875 57.988281 174.367188 56.996094 174.367188 C 56.003906 174.367188 55.199219 175.171875 55.199219 176.164062 C 55.199219 177.15625 56.003906 177.960938 56.996094 177.960938 C 57.988281 177.960938 58.792969 177.15625 58.792969 176.164062 "/>
<path fill-rule="evenodd" fill="rgb(0%, 0%, 0%)" fill-opacity="1" d="M 71.304688 156.703125 C 71.304688 155.710938 70.5 154.90625 69.507812 154.90625 C 68.515625 154.90625 67.710938 155.710938 67.710938 156.703125 C 67.710938 157.695312 68.515625 158.5 69.507812 158.5 C 70.5 158.5 71.304688 157.695312 71.304688 156.703125 "/>
<path fill-rule="evenodd" fill="rgb(0%, 0%, 0%)" fill-opacity="1" d="M 65.984375 141.230469 C 65.984375 140.238281 65.179688 139.433594 64.1875 139.433594 C 63.195312 139.433594 62.390625 140.238281 62.390625 141.230469 C 62.390625 142.222656 63.195312 143.027344 64.1875 143.027344 C 65.179688 143.027344 65.984375 142.222656 65.984375 141.230469 "/>
<path fill-rule="evenodd" fill="rgb(0%, 0%, 0%)" fill-opacity="1" d="M 81.296875 140.234375 C 81.296875 139.242188 80.492188 138.4375 79.5 138.4375 C 78.507812 138.4375 77.703125 139.242188 77.703125 140.234375 C 77.703125 141.226562 78.507812 142.03125 79.5 142.03125 C 80.492188 142.03125 81.296875 141.226562 81.296875 140.234375 "/>
<path fill-rule="evenodd" fill="rgb(0%, 0%, 0%)" fill-opacity="1" d="M 90.28125 155.703125 C 90.28125 154.710938 89.476562 153.90625 88.484375 153.90625 C 87.492188 153.90625 86.6875 154.710938 86.6875 155.703125 C 86.6875 156.695312 87.492188 157.5 88.484375 157.5 C 89.476562 157.5 90.28125 156.695312 90.28125 155.703125 "/>
<path fill-rule="evenodd" fill="rgb(0%, 0%, 0%)" fill-opacity="1" d="M 107.261719 153.707031 C 107.261719 152.714844 106.457031 151.910156 105.464844 151.910156 C 104.472656 151.910156 103.667969 152.714844 103.667969 153.707031 C 103.667969 154.699219 104.472656 155.503906 105.464844 155.503906 C 106.457031 155.503906 107.261719 154.699219 107.261719 153.707031 "/>
<path fill-rule="evenodd" fill="rgb(0%, 0%, 0%)" fill-opacity="1" d="M 102.449219 171.175781 C 102.449219 170.183594 101.644531 169.378906 100.652344 169.378906 C 99.660156 169.378906 98.855469 170.183594 98.855469 171.175781 C 98.855469 172.167969 99.660156 172.972656 100.652344 172.972656 C 101.644531 172.972656 102.449219 172.167969 102.449219 171.175781 "/>
<path fill-rule="evenodd" fill="rgb(0%, 0%, 0%)" fill-opacity="1" d="M 82.488281 173.671875 C 82.488281 172.679688 81.683594 171.875 80.691406 171.875 C 79.699219 171.875 78.894531 172.679688 78.894531 173.671875 C 78.894531 174.664062 79.699219 175.46875 80.691406 175.46875 C 81.683594 175.46875 82.488281 174.664062 82.488281 173.671875 "/>
<path fill-rule="evenodd" fill="rgb(0%, 0%, 0%)" fill-opacity="1" d="M 75.804688 192.136719 C 75.804688 191.144531 75 190.339844 74.007812 190.339844 C 73.015625 190.339844 72.210938 191.144531 72.210938 192.136719 C 72.210938 193.128906 73.015625 193.933594 74.007812 193.933594 C 75 193.933594 75.804688 193.128906 75.804688 192.136719 "/>
<path fill-rule="evenodd" fill="rgb(0%, 0%, 0%)" fill-opacity="1" d="M 94.273438 188.640625 C 94.273438 187.648438 93.46875 186.84375 92.476562 186.84375 C 91.484375 186.84375 90.679688 187.648438 90.679688 188.640625 C 90.679688 189.632812 91.484375 190.4375 92.476562 190.4375 C 93.46875 190.4375 94.273438 189.632812 94.273438 188.640625 "/>
<path fill-rule="evenodd" fill="rgb(0%, 0%, 0%)" fill-opacity="1" d="M 60.164062 19.464844 C 60.164062 18.472656 59.359375 17.667969 58.367188 17.667969 C 57.375 17.667969 56.574219 18.472656 56.574219 19.464844 C 56.574219 20.457031 57.375 21.257812 58.367188 21.257812 C 59.359375 21.257812 60.164062 20.457031 60.164062 19.464844 "/>
<path fill-rule="evenodd" fill="rgb(0%, 0%, 0%)" fill-opacity="1" d="M 23.269531 57.390625 C 23.269531 56.398438 22.464844 55.59375 21.472656 55.59375 C 20.480469 55.59375 19.675781 56.398438 19.675781 57.390625 C 19.675781 58.382812 20.480469 59.1875 21.472656 59.1875 C 22.464844 59.1875 23.269531 58.382812 23.269531 57.390625 "/>
<path fill-rule="evenodd" fill="rgb(0%, 0%, 0%)" fill-opacity="1" d="M 53.867188 73.859375 C 53.867188 72.867188 53.0625 72.0625 52.070312 72.0625 C 51.078125 72.0625 50.273438 72.867188 50.273438 73.859375 C 50.273438 74.851562 51.078125 75.65625 52.070312 75.65625 C 53.0625 75.65625 53.867188 74.851562 53.867188 73.859375 "/>
<path fill-rule="evenodd" fill="rgb(0%, 0%, 0%)" fill-opacity="1" d="M 69.332031 74.359375 C 69.332031 73.367188 68.527344 72.5625 67.535156 72.5625 C 66.542969 72.5625 65.738281 73.367188 65.738281 74.359375 C 65.738281 75.351562 66.542969 76.15625 67.535156 76.15625 C 68.527344 76.15625 69.332031 75.351562 69.332031 74.359375 "/>
<path fill-rule="evenodd" fill="rgb(0%, 0%, 0%)" fill-opacity="1" d="M 62.035156 56.394531 C 62.035156 55.402344 61.234375 54.597656 60.242188 54.597656 C 59.25 54.597656 58.445312 55.402344 58.445312 56.394531 C 58.445312 57.386719 59.25 58.191406 60.242188 58.191406 C 61.234375 58.191406 62.035156 57.386719 62.035156 56.394531 "/>
<path fill-rule="evenodd" fill="rgb(0%, 0%, 0%)" fill-opacity="1" d="M 78.316406 47.410156 C 78.316406 46.417969 77.511719 45.613281 76.519531 45.613281 C 75.527344 45.613281 74.722656 46.417969 74.722656 47.410156 C 74.722656 48.402344 75.527344 49.207031 76.519531 49.207031 C 77.511719 49.207031 78.316406 48.402344 78.316406 47.410156 "/>
<path fill-rule="evenodd" fill="rgb(0%, 0%, 0%)" fill-opacity="1" d="M 80.3125 62.878906 C 80.3125 61.886719 79.507812 61.085938 78.515625 61.085938 C 77.523438 61.085938 76.71875 61.886719 76.71875 62.878906 C 76.71875 63.871094 77.523438 64.675781 78.515625 64.675781 C 79.507812 64.675781 80.3125 63.871094 80.3125 62.878906 "/>
<path fill-rule="evenodd" fill="rgb(0%, 0%, 0%)" fill-opacity="1" d="M 91.4375 52.898438 C 91.4375 51.90625 90.632812 51.101562 89.640625 51.101562 C 88.648438 51.101562 87.84375 51.90625 87.84375 52.898438 C 87.84375 53.890625 88.648438 54.695312 89.640625 54.695312 C 90.632812 54.695312 91.4375 53.890625 91.4375 52.898438 "/>
<path fill-rule="evenodd" fill="rgb(0%, 0%, 0%)" fill-opacity="1" d="M 93.808594 65.375 C 93.808594 64.382812 93.003906 63.578125 92.011719 63.578125 C 91.019531 63.578125 90.214844 64.382812 90.214844 65.375 C 90.214844 66.367188 91.019531 67.171875 92.011719 67.171875 C 93.003906 67.171875 93.808594 66.367188 93.808594 65.375 "/>
<path fill-rule="evenodd" fill="rgb(0%, 0%, 0%)" fill-opacity="1" d="M 102.773438 74.359375 C 102.773438 73.367188 101.96875 72.5625 100.976562 72.5625 C 99.984375 72.5625 99.179688 73.367188 99.179688 74.359375 C 99.179688 75.351562 99.984375 76.15625 100.976562 76.15625 C 101.96875 76.15625 102.773438 75.351562 102.773438 74.359375 "/>
<path fill-rule="evenodd" fill="rgb(0%, 0%, 0%)" fill-opacity="1" d="M 86.277344 79.347656 C 86.277344 78.355469 85.472656 77.554688 84.480469 77.554688 C 83.488281 77.554688 82.683594 78.355469 82.683594 79.347656 C 82.683594 80.339844 83.488281 81.144531 84.480469 81.144531 C 85.472656 81.144531 86.277344 80.339844 86.277344 79.347656 "/>
<path fill-rule="evenodd" fill="rgb(0%, 0%, 0%)" fill-opacity="1" d="M 72.96875 88.332031 C 72.96875 87.339844 72.164062 86.535156 71.171875 86.535156 C 70.179688 86.535156 69.375 87.339844 69.375 88.332031 C 69.375 89.324219 70.179688 90.128906 71.171875 90.128906 C 72.164062 90.128906 72.96875 89.324219 72.96875 88.332031 "/>
<path fill-rule="evenodd" fill="rgb(0%, 0%, 0%)" fill-opacity="1" d="M 60.871094 85.339844 C 60.871094 84.347656 60.066406 83.542969 59.074219 83.542969 C 58.082031 83.542969 57.277344 84.347656 57.277344 85.339844 C 57.277344 86.332031 58.082031 87.132812 59.074219 87.132812 C 60.066406 87.132812 60.871094 86.332031 60.871094 85.339844 "/>
<path fill-rule="evenodd" fill="rgb(0%, 0%, 0%)" fill-opacity="1" d="M 62.363281 95.816406 C 62.363281 94.824219 61.558594 94.023438 60.566406 94.023438 C 59.574219 94.023438 58.769531 94.824219 58.769531 95.816406 C 58.769531 96.808594 59.574219 97.613281 60.566406 97.613281 C 61.558594 97.613281 62.363281 96.808594 62.363281 95.816406 "/>
<path fill-rule="evenodd" fill="rgb(0%, 0%, 0%)" fill-opacity="1" d="M 67.363281 105.800781 C 67.363281 104.808594 66.558594 104.003906 65.566406 104.003906 C 64.574219 104.003906 63.769531 104.808594 63.769531 105.800781 C 63.769531 106.792969 64.574219 107.597656 65.566406 107.597656 C 66.558594 107.597656 67.363281 106.792969 67.363281 105.800781 "/>
<path fill-rule="evenodd" fill="rgb(0%, 0%, 0%)" fill-opacity="1" d="M 73.925781 104.300781 C 73.925781 103.308594 73.121094 102.503906 72.128906 102.503906 C 71.136719 102.503906 70.332031 103.308594 70.332031 104.300781 C 70.332031 105.292969 71.136719 106.097656 72.128906 106.097656 C 73.121094 106.097656 73.925781 105.292969 73.925781 104.300781 "/>
<path fill-rule="evenodd" fill="rgb(0%, 0%, 0%)" fill-opacity="1" d="M 71.941406 98.8125 C 71.941406 97.820312 71.136719 97.015625 70.144531 97.015625 C 69.152344 97.015625 68.347656 97.820312 68.347656 98.8125 C 68.347656 99.804688 69.152344 100.609375 70.144531 100.609375 C 71.136719 100.609375 71.941406 99.804688 71.941406 98.8125 "/>
<path fill-rule="evenodd" fill="rgb(0%, 0%, 0%)" fill-opacity="1" d="M 85.480469 98.8125 C 85.480469 97.820312 84.675781 97.015625 83.683594 97.015625 C 82.691406 97.015625 81.886719 97.820312 81.886719 98.8125 C 81.886719 99.804688 82.691406 100.609375 83.683594 100.609375 C 84.675781 100.609375 85.480469 99.804688 85.480469 98.8125 "/>
<path fill-rule="evenodd" fill="rgb(0%, 0%, 0%)" fill-opacity="1" d="M 100.292969 103.804688 C 100.292969 102.8125 99.488281 102.007812 98.496094 102.007812 C 97.503906 102.007812 96.699219 102.8125 96.699219 103.804688 C 96.699219 104.796875 97.503906 105.601562 98.496094 105.601562 C 99.488281 105.601562 100.292969 104.796875 100.292969 103.804688 "/>
<path fill-rule="evenodd" fill="rgb(0%, 0%, 0%)" fill-opacity="1" d="M 100.429688 89.828125 C 100.429688 88.835938 99.625 88.03125 98.632812 88.03125 C 97.640625 88.03125 96.835938 88.835938 96.835938 89.828125 C 96.835938 90.820312 97.640625 91.625 98.632812 91.625 C 99.625 91.625 100.429688 90.820312 100.429688 89.828125 "/>
<path fill-rule="evenodd" fill="rgb(0%, 0%, 0%)" fill-opacity="1" d="M 113.40625 99.3125 C 113.40625 98.320312 112.601562 97.515625 111.609375 97.515625 C 110.617188 97.515625 109.8125 98.320312 109.8125 99.3125 C 109.8125 100.304688 110.617188 101.109375 111.609375 101.109375 C 112.601562 101.109375 113.40625 100.304688 113.40625 99.3125 "/>
<path fill-rule="evenodd" fill="rgb(0%, 0%, 0%)" fill-opacity="1" d="M 115.246094 83.839844 C 115.246094 82.847656 114.441406 82.042969 113.449219 82.042969 C 112.457031 82.042969 111.652344 82.847656 111.652344 83.839844 C 111.652344 84.832031 112.457031 85.636719 113.449219 85.636719 C 114.441406 85.636719 115.246094 84.832031 115.246094 83.839844 "/>
<path fill-rule="evenodd" fill="rgb(0%, 0%, 0%)" fill-opacity="1" d="M 128.375 94.320312 C 128.375 93.328125 127.570312 92.523438 126.578125 92.523438 C 125.585938 92.523438 124.78125 93.328125 124.78125 94.320312 C 124.78125 95.3125 125.585938 96.117188 126.578125 96.117188 C 127.570312 96.117188 128.375 95.3125 128.375 94.320312 "/>
<path fill-rule="evenodd" fill="rgb(0%, 0%, 0%)" fill-opacity="1" d="M 110.558594 2.496094 C 110.558594 1.503906 109.753906 0.699219 108.761719 0.699219 C 107.769531 0.699219 106.964844 1.503906 106.964844 2.496094 C 106.964844 3.488281 107.769531 4.292969 108.761719 4.292969 C 109.753906 4.292969 110.558594 3.488281 110.558594 2.496094 "/>
<path fill-rule="evenodd" fill="rgb(0%, 0%, 0%)" fill-opacity="1" d="M 92.761719 35.933594 C 92.761719 34.941406 91.957031 34.136719 90.964844 34.136719 C 89.972656 34.136719 89.167969 34.941406 89.167969 35.933594 C 89.167969 36.925781 89.972656 37.726562 90.964844 37.726562 C 91.957031 37.726562 92.761719 36.925781 92.761719 35.933594 "/>
<path fill-rule="evenodd" fill="rgb(0%, 0%, 0%)" fill-opacity="1" d="M 100.3125 47.410156 C 100.3125 46.417969 99.507812 45.613281 98.515625 45.613281 C 97.523438 45.613281 96.71875 46.417969 96.71875 47.410156 C 96.71875 48.402344 97.523438 49.207031 98.515625 49.207031 C 99.507812 49.207031 100.3125 48.402344 100.3125 47.410156 "/>
<path fill-rule="evenodd" fill="rgb(0%, 0%, 0%)" fill-opacity="1" d="M 112.722656 40.421875 C 112.722656 39.429688 111.917969 38.625 110.925781 38.625 C 109.933594 38.625 109.128906 39.429688 109.128906 40.421875 C 109.128906 41.414062 109.933594 42.21875 110.925781 42.21875 C 111.917969 42.21875 112.722656 41.414062 112.722656 40.421875 "/>
<path fill-rule="evenodd" fill="rgb(0%, 0%, 0%)" fill-opacity="1" d="M 164.957031 5.988281 C 164.957031 4.996094 164.152344 4.191406 163.164062 4.191406 C 162.171875 4.191406 161.367188 4.996094 161.367188 5.988281 C 161.367188 6.980469 162.171875 7.785156 163.164062 7.785156 C 164.152344 7.785156 164.957031 6.980469 164.957031 5.988281 "/>
<path fill-rule="evenodd" fill="rgb(0%, 0%, 0%)" fill-opacity="1" d="M 136.636719 35.433594 C 136.636719 34.441406 135.832031 33.636719 134.839844 33.636719 C 133.847656 33.636719 133.042969 34.441406 133.042969 35.433594 C 133.042969 36.425781 133.847656 37.230469 134.839844 37.230469 C 135.832031 37.230469 136.636719 36.425781 136.636719 35.433594 "/>
<path fill-rule="evenodd" fill="rgb(0%, 0%, 0%)" fill-opacity="1" d="M 125.40625 56.890625 C 125.40625 55.898438 124.601562 55.09375 123.609375 55.09375 C 122.617188 55.09375 121.8125 55.898438 121.8125 56.890625 C 121.8125 57.882812 122.617188 58.6875 123.609375 58.6875 C 124.601562 58.6875 125.40625 57.882812 125.40625 56.890625 "/>
<path fill-rule="evenodd" fill="rgb(0%, 0%, 0%)" fill-opacity="1" d="M 116.261719 69.867188 C 116.261719 68.875 115.457031 68.070312 114.464844 68.070312 C 113.472656 68.070312 112.667969 68.875 112.667969 69.867188 C 112.667969 70.859375 113.472656 71.664062 114.464844 71.664062 C 115.457031 71.664062 116.261719 70.859375 116.261719 69.867188 "/>
<path fill-rule="evenodd" fill="rgb(0%, 0%, 0%)" fill-opacity="1" d="M 106.25 58.886719 C 106.25 57.894531 105.445312 57.089844 104.453125 57.089844 C 103.460938 57.089844 102.65625 57.894531 102.65625 58.886719 C 102.65625 59.878906 103.460938 60.683594 104.453125 60.683594 C 105.445312 60.683594 106.25 59.878906 106.25 58.886719 "/>
<path fill-rule="evenodd" fill="rgb(0%, 0%, 0%)" fill-opacity="1" d="M 212.402344 28.945312 C 212.402344 27.953125 211.597656 27.148438 210.605469 27.148438 C 209.613281 27.148438 208.808594 27.953125 208.808594 28.945312 C 208.808594 29.9375 209.613281 30.742188 210.605469 30.742188 C 211.597656 30.742188 212.402344 29.9375 212.402344 28.945312 "/>
<path fill-rule="evenodd" fill="rgb(0%, 0%, 0%)" fill-opacity="1" d="M 179.292969 38.425781 C 179.292969 37.433594 178.488281 36.628906 177.496094 36.628906 C 176.503906 36.628906 175.699219 37.433594 175.699219 38.425781 C 175.699219 39.417969 176.503906 40.222656 177.496094 40.222656 C 178.488281 40.222656 179.292969 39.417969 179.292969 38.425781 "/>
<path fill-rule="evenodd" fill="rgb(0%, 0%, 0%)" fill-opacity="1" d="M 173.152344 51.902344 C 173.152344 50.910156 172.351562 50.105469 171.359375 50.105469 C 170.367188 50.105469 169.5625 50.910156 169.5625 51.902344 C 169.5625 52.894531 170.367188 53.699219 171.359375 53.699219 C 172.351562 53.699219 173.152344 52.894531 173.152344 51.902344 "/>
<path fill-rule="evenodd" fill="rgb(0%, 0%, 0%)" fill-opacity="1" d="M 160.339844 42.417969 C 160.339844 41.425781 159.535156 40.621094 158.542969 40.621094 C 157.550781 40.621094 156.746094 41.425781 156.746094 42.417969 C 156.746094 43.410156 157.550781 44.214844 158.542969 44.214844 C 159.535156 44.214844 160.339844 43.410156 160.339844 42.417969 "/>
<path fill-rule="evenodd" fill="rgb(0%, 0%, 0%)" fill-opacity="1" d="M 163.675781 58.390625 C 163.675781 57.398438 162.871094 56.59375 161.878906 56.59375 C 160.886719 56.59375 160.082031 57.398438 160.082031 58.390625 C 160.082031 59.382812 160.886719 60.1875 161.878906 60.1875 C 162.871094 60.1875 163.675781 59.382812 163.675781 58.390625 "/>
<path fill-rule="evenodd" fill="rgb(0%, 0%, 0%)" fill-opacity="1" d="M 146.144531 59.386719 C 146.144531 58.394531 145.339844 57.589844 144.347656 57.589844 C 143.355469 57.589844 142.550781 58.394531 142.550781 59.386719 C 142.550781 60.378906 143.355469 61.183594 144.347656 61.183594 C 145.339844 61.183594 146.144531 60.378906 146.144531 59.386719 "/>
<path fill-rule="evenodd" fill="rgb(0%, 0%, 0%)" fill-opacity="1" d="M 161.15625 71.863281 C 161.15625 70.871094 160.351562 70.066406 159.363281 70.066406 C 158.371094 70.066406 157.566406 70.871094 157.566406 71.863281 C 157.566406 72.855469 158.371094 73.660156 159.363281 73.660156 C 160.351562 73.660156 161.15625 72.855469 161.15625 71.863281 "/>
<path fill-rule="evenodd" fill="rgb(0%, 0%, 0%)" fill-opacity="1" d="M 175.632812 64.875 C 175.632812 63.886719 174.828125 63.082031 173.835938 63.082031 C 172.847656 63.082031 172.042969 63.886719 172.042969 64.875 C 172.042969 65.867188 172.847656 66.671875 173.835938 66.671875 C 174.828125 66.671875 175.632812 65.867188 175.632812 64.875 "/>
<path fill-rule="evenodd" fill="rgb(0%, 0%, 0%)" fill-opacity="1" d="M 188.273438 53.898438 C 188.273438 52.90625 187.46875 52.101562 186.476562 52.101562 C 185.484375 52.101562 184.679688 52.90625 184.679688 53.898438 C 184.679688 54.890625 185.484375 55.695312 186.476562 55.695312 C 187.46875 55.695312 188.273438 54.890625 188.273438 53.898438 "/>
<path fill-rule="evenodd" fill="rgb(0%, 0%, 0%)" fill-opacity="1" d="M 202.589844 59.386719 C 202.589844 58.394531 201.785156 57.589844 200.792969 57.589844 C 199.800781 57.589844 199 58.394531 199 59.386719 C 199 60.378906 199.800781 61.183594 200.792969 61.183594 C 201.785156 61.183594 202.589844 60.378906 202.589844 59.386719 "/>
<path fill-rule="evenodd" fill="rgb(0%, 0%, 0%)" fill-opacity="1" d="M 214.085938 59.886719 C 214.085938 58.894531 213.28125 58.089844 212.289062 58.089844 C 211.296875 58.089844 210.492188 58.894531 210.492188 59.886719 C 210.492188 60.878906 211.296875 61.683594 212.289062 61.683594 C 213.28125 61.683594 214.085938 60.878906 214.085938 59.886719 "/>
<path fill-rule="evenodd" fill="rgb(0%, 0%, 0%)" fill-opacity="1" d="M 244.84375 69.867188 C 244.84375 68.875 244.039062 68.070312 243.046875 68.070312 C 242.054688 68.070312 241.25 68.875 241.25 69.867188 C 241.25 70.859375 242.054688 71.664062 243.046875 71.664062 C 244.039062 71.664062 244.84375 70.859375 244.84375 69.867188 "/>
<path fill-rule="evenodd" fill="rgb(0%, 0%, 0%)" fill-opacity="1" d="M 209.730469 72.363281 C 209.730469 71.371094 208.925781 70.566406 207.933594 70.566406 C 206.941406 70.566406 206.136719 71.371094 206.136719 72.363281 C 206.136719 73.355469 206.941406 74.160156 207.933594 74.160156 C 208.925781 74.160156 209.730469 73.355469 209.730469 72.363281 "/>
<path fill-rule="evenodd" fill="rgb(0%, 0%, 0%)" fill-opacity="1" d="M 214.546875 88.832031 C 214.546875 87.839844 213.742188 87.035156 212.753906 87.035156 C 211.761719 87.035156 210.957031 87.839844 210.957031 88.832031 C 210.957031 89.824219 211.761719 90.628906 212.753906 90.628906 C 213.742188 90.628906 214.546875 89.824219 214.546875 88.832031 "/>
<path fill-rule="evenodd" fill="rgb(0%, 0%, 0%)" fill-opacity="1" d="M 227.019531 101.308594 C 227.019531 100.316406 226.214844 99.511719 225.222656 99.511719 C 224.230469 99.511719 223.429688 100.316406 223.429688 101.308594 C 223.429688 102.300781 224.230469 103.105469 225.222656 103.105469 C 226.214844 103.105469 227.019531 102.300781 227.019531 101.308594 "/>
<path fill-rule="evenodd" fill="rgb(0%, 0%, 0%)" fill-opacity="1" d="M 222.050781 116.777344 C 222.050781 115.785156 221.246094 114.980469 220.253906 114.980469 C 219.261719 114.980469 218.457031 115.785156 218.457031 116.777344 C 218.457031 117.769531 219.261719 118.574219 220.253906 118.574219 C 221.246094 118.574219 222.050781 117.769531 222.050781 116.777344 "/>
<path fill-rule="evenodd" fill="rgb(0%, 0%, 0%)" fill-opacity="1" d="M 209.738281 106.296875 C 209.738281 105.304688 208.933594 104.5 207.941406 104.5 C 206.949219 104.5 206.144531 105.304688 206.144531 106.296875 C 206.144531 107.289062 206.949219 108.09375 207.941406 108.09375 C 208.933594 108.09375 209.738281 107.289062 209.738281 106.296875 "/>
<path fill-rule="evenodd" fill="rgb(0%, 0%, 0%)" fill-opacity="1" d="M 201.605469 94.320312 C 201.605469 93.328125 200.800781 92.523438 199.808594 92.523438 C 198.816406 92.523438 198.011719 93.328125 198.011719 94.320312 C 198.011719 95.3125 198.816406 96.117188 199.808594 96.117188 C 200.800781 96.117188 201.605469 95.3125 201.605469 94.320312 "/>
<path fill-rule="evenodd" fill="rgb(0%, 0%, 0%)" fill-opacity="1" d="M 201.714844 83.34375 C 201.714844 82.351562 200.910156 81.546875 199.917969 81.546875 C 198.925781 81.546875 198.121094 82.351562 198.121094 83.34375 C 198.121094 84.332031 198.925781 85.136719 199.917969 85.136719 C 200.910156 85.136719 201.714844 84.332031 201.714844 83.34375 "/>
<path fill-rule="evenodd" fill="rgb(0%, 0%, 0%)" fill-opacity="1" d="M 191.585938 71.863281 C 191.585938 70.871094 190.78125 70.066406 189.789062 70.066406 C 188.796875 70.066406 187.992188 70.871094 187.992188 71.863281 C 187.992188 72.855469 188.796875 73.660156 189.789062 73.660156 C 190.78125 73.660156 191.585938 72.855469 191.585938 71.863281 "/>
<path fill-rule="evenodd" fill="rgb(0%, 0%, 0%)" fill-opacity="1" d="M 189.609375 89.332031 C 189.609375 88.339844 188.804688 87.535156 187.8125 87.535156 C 186.820312 87.535156 186.015625 88.339844 186.015625 89.332031 C 186.015625 90.324219 186.820312 91.128906 187.8125 91.128906 C 188.804688 91.128906 189.609375 90.324219 189.609375 89.332031 "/>
<path fill-rule="evenodd" fill="rgb(0%, 0%, 0%)" fill-opacity="1" d="M 175.621094 81.84375 C 175.621094 80.851562 174.816406 80.046875 173.824219 80.046875 C 172.832031 80.046875 172.027344 80.851562 172.027344 81.84375 C 172.027344 82.835938 172.832031 83.640625 173.824219 83.640625 C 174.816406 83.640625 175.621094 82.835938 175.621094 81.84375 "/>
<path fill-rule="evenodd" fill="rgb(0%, 0%, 0%)" fill-opacity="1" d="M 176.105469 99.8125 C 176.105469 98.820312 175.300781 98.015625 174.308594 98.015625 C 173.316406 98.015625 172.511719 98.820312 172.511719 99.8125 C 172.511719 100.800781 173.316406 101.605469 174.308594 101.605469 C 175.300781 101.605469 176.105469 100.800781 176.105469 99.8125 "/>
<path fill-rule="evenodd" fill="rgb(0%, 0%, 0%)" fill-opacity="1" d="M 193.246094 103.304688 C 193.246094 102.3125 192.441406 101.507812 191.449219 101.507812 C 190.457031 101.507812 189.652344 102.3125 189.652344 103.304688 C 189.652344 104.296875 190.457031 105.101562 191.449219 105.101562 C 192.441406 105.101562 193.246094 104.296875 193.246094 103.304688 "/>
<path fill-rule="evenodd" fill="rgb(0%, 0%, 0%)" fill-opacity="1" d="M 197.722656 115.28125 C 197.722656 114.289062 196.917969 113.484375 195.925781 113.484375 C 194.933594 113.484375 194.128906 114.289062 194.128906 115.28125 C 194.128906 116.273438 194.933594 117.078125 195.925781 117.078125 C 196.917969 117.078125 197.722656 116.273438 197.722656 115.28125 "/>
<path fill-rule="evenodd" fill="rgb(0%, 0%, 0%)" fill-opacity="1" d="M 184.765625 115.28125 C 184.765625 114.289062 183.960938 113.484375 182.96875 113.484375 C 181.976562 113.484375 181.171875 114.289062 181.171875 115.28125 C 181.171875 116.273438 181.976562 117.078125 182.96875 117.078125 C 183.960938 117.078125 184.765625 116.273438 184.765625 115.28125 "/>
<path fill-rule="evenodd" fill="rgb(0%, 0%, 0%)" fill-opacity="1" d="M 171.277344 115.78125 C 171.277344 114.789062 170.472656 113.984375 169.480469 113.984375 C 168.488281 113.984375 167.683594 114.789062 167.683594 115.78125 C 167.683594 116.773438 168.488281 117.578125 169.480469 117.578125 C 170.472656 117.578125 171.277344 116.773438 171.277344 115.78125 "/>
<path fill-rule="evenodd" fill="rgb(0%, 0%, 0%)" fill-opacity="1" d="M 161.304688 107.296875 C 161.304688 106.304688 160.5 105.5 159.507812 105.5 C 158.515625 105.5 157.710938 106.304688 157.710938 107.296875 C 157.710938 108.289062 158.515625 109.09375 159.507812 109.09375 C 160.5 109.09375 161.304688 108.289062 161.304688 107.296875 "/>
<path fill-rule="evenodd" fill="rgb(0%, 0%, 0%)" fill-opacity="1" d="M 158.636719 90.328125 C 158.636719 89.335938 157.832031 88.53125 156.839844 88.53125 C 155.847656 88.53125 155.042969 89.335938 155.042969 90.328125 C 155.042969 91.320312 155.847656 92.125 156.839844 92.125 C 157.832031 92.125 158.636719 91.320312 158.636719 90.328125 "/>
<path fill-rule="evenodd" fill="rgb(0%, 0%, 0%)" fill-opacity="1" d="M 147.828125 77.351562 C 147.828125 76.359375 147.023438 75.554688 146.03125 75.554688 C 145.039062 75.554688 144.234375 76.359375 144.234375 77.351562 C 144.234375 78.34375 145.039062 79.148438 146.03125 79.148438 C 147.023438 79.148438 147.828125 78.34375 147.828125 77.351562 "/>
<path fill-rule="evenodd" fill="rgb(0%, 0%, 0%)" fill-opacity="1" d="M 131.894531 75.855469 C 131.894531 74.863281 131.09375 74.058594 130.101562 74.058594 C 129.109375 74.058594 128.304688 74.863281 128.304688 75.855469 C 128.304688 76.847656 129.109375 77.652344 130.101562 77.652344 C 131.09375 77.652344 131.894531 76.847656 131.894531 75.855469 "/>
<path fill-rule="evenodd" fill="rgb(0%, 0%, 0%)" fill-opacity="1" d="M 141.839844 88.332031 C 141.839844 87.339844 141.035156 86.535156 140.042969 86.535156 C 139.050781 86.535156 138.246094 87.339844 138.246094 88.332031 C 138.246094 89.324219 139.050781 90.128906 140.042969 90.128906 C 141.035156 90.128906 141.839844 89.324219 141.839844 88.332031 "/>
<path fill-rule="evenodd" fill="rgb(0%, 0%, 0%)" fill-opacity="1" d="M 143.160156 105.800781 C 143.160156 104.808594 142.355469 104.003906 141.363281 104.003906 C 140.371094 104.003906 139.566406 104.808594 139.566406 105.800781 C 139.566406 106.792969 140.371094 107.597656 141.363281 107.597656 C 142.355469 107.597656 143.160156 106.792969 143.160156 105.800781 "/>
<path fill-rule="evenodd" fill="rgb(0%, 0%, 0%)" fill-opacity="1" d="M 258.339844 123.765625 C 258.339844 122.773438 257.535156 121.96875 256.542969 121.96875 C 255.550781 121.96875 254.746094 122.773438 254.746094 123.765625 C 254.746094 124.757812 255.550781 125.5625 256.542969 125.5625 C 257.535156 125.5625 258.339844 124.757812 258.339844 123.765625 "/>
<path fill-rule="evenodd" fill="rgb(0%, 0%, 0%)" fill-opacity="1" d="M 223.058594 129.753906 C 223.058594 128.761719 222.253906 127.957031 221.261719 127.957031 C 220.269531 127.957031 219.464844 128.761719 219.464844 129.753906 C 219.464844 130.746094 220.269531 131.550781 221.261719 131.550781 C 222.253906 131.550781 223.058594 130.746094 223.058594 129.753906 "/>
<path fill-rule="evenodd" fill="rgb(0%, 0%, 0%)" fill-opacity="1" d="M 214.667969 135.242188 C 214.667969 134.25 213.863281 133.445312 212.871094 133.445312 C 211.878906 133.445312 211.078125 134.25 211.078125 135.242188 C 211.078125 136.234375 211.878906 137.039062 212.871094 137.039062 C 213.863281 137.039062 214.667969 136.234375 214.667969 135.242188 "/>
<path fill-rule="evenodd" fill="rgb(0%, 0%, 0%)" fill-opacity="1" d="M 209.234375 124.265625 C 209.234375 123.273438 208.429688 122.46875 207.4375 122.46875 C 206.445312 122.46875 205.640625 123.273438 205.640625 124.265625 C 205.640625 125.257812 206.445312 126.0625 207.4375 126.0625 C 208.429688 126.0625 209.234375 125.257812 209.234375 124.265625 "/>
<path fill-rule="evenodd" fill="rgb(0%, 0%, 0%)" fill-opacity="1" d="M 249.347656 180.65625 C 249.347656 179.664062 248.546875 178.859375 247.554688 178.859375 C 246.5625 178.859375 245.757812 179.664062 245.757812 180.65625 C 245.757812 181.648438 246.5625 182.453125 247.554688 182.453125 C 248.546875 182.453125 249.347656 181.648438 249.347656 180.65625 "/>
<path fill-rule="evenodd" fill="rgb(0%, 0%, 0%)" fill-opacity="1" d="M 215.210938 168.179688 C 215.210938 167.1875 214.40625 166.382812 213.414062 166.382812 C 212.421875 166.382812 211.617188 167.1875 211.617188 168.179688 C 211.617188 169.171875 212.421875 169.976562 213.414062 169.976562 C 214.40625 169.976562 215.210938 169.171875 215.210938 168.179688 "/>
<path fill-rule="evenodd" fill="rgb(0%, 0%, 0%)" fill-opacity="1" d="M 206.582031 156.203125 C 206.582031 155.210938 205.777344 154.40625 204.789062 154.40625 C 203.796875 154.40625 202.992188 155.210938 202.992188 156.203125 C 202.992188 157.195312 203.796875 158 204.789062 158 C 205.777344 158 206.582031 157.195312 206.582031 156.203125 "/>
<path fill-rule="evenodd" fill="rgb(0%, 0%, 0%)" fill-opacity="1" d="M 209.769531 188.144531 C 209.769531 187.152344 208.964844 186.347656 207.972656 186.347656 C 206.980469 186.347656 206.175781 187.152344 206.175781 188.144531 C 206.175781 189.136719 206.980469 189.941406 207.972656 189.941406 C 208.964844 189.941406 209.769531 189.136719 209.769531 188.144531 "/>
<path fill-rule="evenodd" fill="rgb(0%, 0%, 0%)" fill-opacity="1" d="M 194.25 201.617188 C 194.25 200.625 193.445312 199.820312 192.453125 199.820312 C 191.460938 199.820312 190.65625 200.625 190.65625 201.617188 C 190.65625 202.609375 191.460938 203.414062 192.453125 203.414062 C 193.445312 203.414062 194.25 202.609375 194.25 201.617188 "/>
<path fill-rule="evenodd" fill="rgb(0%, 0%, 0%)" fill-opacity="1" d="M 177.789062 198.625 C 177.789062 197.632812 176.984375 196.828125 175.992188 196.828125 C 175 196.828125 174.195312 197.632812 174.195312 198.625 C 174.195312 199.613281 175 200.417969 175.992188 200.417969 C 176.984375 200.417969 177.789062 199.613281 177.789062 198.625 "/>
<path fill-rule="evenodd" fill="rgb(0%, 0%, 0%)" fill-opacity="1" d="M 183.785156 215.09375 C 183.785156 214.101562 182.984375 213.296875 181.992188 213.296875 C 181 213.296875 180.195312 214.101562 180.195312 215.09375 C 180.195312 216.082031 181 216.886719 181.992188 216.886719 C 182.984375 216.886719 183.785156 216.082031 183.785156 215.09375 "/>
<path fill-rule="evenodd" fill="rgb(0%, 0%, 0%)" fill-opacity="1" d="M 164.332031 210.601562 C 164.332031 209.609375 163.527344 208.804688 162.535156 208.804688 C 161.542969 208.804688 160.738281 209.609375 160.738281 210.601562 C 160.738281 211.59375 161.542969 212.398438 162.535156 212.398438 C 163.527344 212.398438 164.332031 211.59375 164.332031 210.601562 "/>
<path fill-rule="evenodd" fill="rgb(0%, 0%, 0%)" fill-opacity="1" d="M 223.988281 148.71875 C 223.988281 147.726562 223.183594 146.921875 222.191406 146.921875 C 221.199219 146.921875 220.394531 147.726562 220.394531 148.71875 C 220.394531 149.710938 221.199219 150.515625 222.191406 150.515625 C 223.183594 150.515625 223.988281 149.710938 223.988281 148.71875 "/>
<path fill-rule="evenodd" fill="rgb(0%, 0%, 0%)" fill-opacity="1" d="M 150.691406 144.226562 C 150.691406 143.234375 149.886719 142.429688 148.894531 142.429688 C 147.902344 142.429688 147.097656 143.234375 147.097656 144.226562 C 147.097656 145.21875 147.902344 146.023438 148.894531 146.023438 C 149.886719 146.023438 150.691406 145.21875 150.691406 144.226562 "/>
<path fill-rule="evenodd" fill="rgb(0%, 0%, 0%)" fill-opacity="1" d="M 146.175781 217.089844 C 146.175781 216.097656 145.371094 215.292969 144.378906 215.292969 C 143.386719 215.292969 142.582031 216.097656 142.582031 217.089844 C 142.582031 218.082031 143.386719 218.882812 144.378906 218.882812 C 145.371094 218.882812 146.175781 218.082031 146.175781 217.089844 "/>
<path fill-rule="evenodd" fill="rgb(0%, 0%, 0%)" fill-opacity="1" d="M 137.25 223.574219 C 137.25 222.582031 136.445312 221.777344 135.453125 221.777344 C 134.460938 221.777344 133.65625 222.582031 133.65625 223.574219 C 133.65625 224.566406 134.460938 225.371094 135.453125 225.371094 C 136.445312 225.371094 137.25 224.566406 137.25 223.574219 "/>
<path fill-rule="evenodd" fill="rgb(0%, 0%, 0%)" fill-opacity="1" d="M 141.304688 227.566406 C 141.304688 226.574219 140.5 225.773438 139.507812 225.773438 C 138.515625 225.773438 137.710938 226.574219 137.710938 227.566406 C 137.710938 228.558594 138.515625 229.363281 139.507812 229.363281 C 140.5 229.363281 141.304688 228.558594 141.304688 227.566406 "/>
<path fill-rule="evenodd" fill="rgb(0%, 0%, 0%)" fill-opacity="1" d="M 130.382812 232.558594 C 130.382812 231.566406 129.578125 230.761719 128.585938 230.761719 C 127.59375 230.761719 126.792969 231.566406 126.792969 232.558594 C 126.792969 233.550781 127.59375 234.355469 128.585938 234.355469 C 129.578125 234.355469 130.382812 233.550781 130.382812 232.558594 "/>
<path fill-rule="evenodd" fill="rgb(0%, 0%, 0%)" fill-opacity="1" d="M 130.226562 216.589844 C 130.226562 215.597656 129.421875 214.792969 128.429688 214.792969 C 127.4375 214.792969 126.632812 215.597656 126.632812 216.589844 C 126.632812 217.582031 127.4375 218.386719 128.429688 218.386719 C 129.421875 218.386719 130.226562 217.582031 130.226562 216.589844 "/>
<path fill-rule="evenodd" fill="rgb(0%, 0%, 0%)" fill-opacity="1" d="M 120.726562 203.613281 C 120.726562 202.621094 119.921875 201.816406 118.929688 201.816406 C 117.9375 201.816406 117.132812 202.621094 117.132812 203.613281 C 117.132812 204.605469 117.9375 205.410156 118.929688 205.410156 C 119.921875 205.410156 120.726562 204.605469 120.726562 203.613281 "/>
<path fill-rule="evenodd" fill="rgb(0%, 0%, 0%)" fill-opacity="1" d="M 103.757812 203.113281 C 103.757812 202.121094 102.953125 201.316406 101.960938 201.316406 C 100.96875 201.316406 100.164062 202.121094 100.164062 203.113281 C 100.164062 204.105469 100.96875 204.910156 101.960938 204.910156 C 102.953125 204.910156 103.757812 204.105469 103.757812 203.113281 "/>
<path fill-rule="evenodd" fill="rgb(0%, 0%, 0%)" fill-opacity="1" d="M 95.300781 214.59375 C 95.300781 213.601562 94.496094 212.796875 93.503906 212.796875 C 92.511719 212.796875 91.707031 213.601562 91.707031 214.59375 C 91.707031 215.585938 92.511719 216.390625 93.503906 216.390625 C 94.496094 216.390625 95.300781 215.585938 95.300781 214.59375 "/>
<path fill-rule="evenodd" fill="rgb(0%, 0%, 0%)" fill-opacity="1" d="M 92.78125 229.066406 C 92.78125 228.074219 91.976562 227.269531 90.984375 227.269531 C 89.992188 227.269531 89.1875 228.074219 89.1875 229.066406 C 89.1875 230.058594 89.992188 230.863281 90.984375 230.863281 C 91.976562 230.863281 92.78125 230.058594 92.78125 229.066406 "/>
<path fill-rule="evenodd" fill="rgb(0%, 0%, 0%)" fill-opacity="1" d="M 166.042969 252.519531 C 166.042969 251.527344 165.238281 250.722656 164.246094 250.722656 C 163.253906 250.722656 162.449219 251.527344 162.449219 252.519531 C 162.449219 253.511719 163.253906 254.316406 164.246094 254.316406 C 165.238281 254.316406 166.042969 253.511719 166.042969 252.519531 "/>
<path fill-rule="evenodd" fill="rgb(0%, 0%, 0%)" fill-opacity="1" d="M 108.101562 260.503906 C 108.101562 259.511719 107.296875 258.710938 106.304688 258.710938 C 105.3125 258.710938 104.507812 259.511719 104.507812 260.503906 C 104.507812 261.496094 105.3125 262.300781 106.304688 262.300781 C 107.296875 262.300781 108.101562 261.496094 108.101562 260.503906 "/>
<path fill-rule="evenodd" fill="rgb(0%, 0%, 0%)" fill-opacity="1" d="M 108.910156 114.28125 C 108.910156 113.292969 108.105469 112.488281 107.113281 112.488281 C 106.121094 112.488281 105.316406 113.292969 105.316406 114.28125 C 105.316406 115.273438 106.121094 116.078125 107.113281 116.078125 C 108.105469 116.078125 108.910156 115.273438 108.910156 114.28125 "/>
<path fill-rule="evenodd" fill="rgb(0%, 0%, 0%)" fill-opacity="1" d="M 93.453125 116.28125 C 93.453125 115.289062 92.648438 114.484375 91.65625 114.484375 C 90.664062 114.484375 89.859375 115.289062 89.859375 116.28125 C 89.859375 117.269531 90.664062 118.074219 91.65625 118.074219 C 92.648438 118.074219 93.453125 117.269531 93.453125 116.28125 "/>
<path fill-rule="evenodd" fill="rgb(0%, 0%, 0%)" fill-opacity="1" d="M 76.476562 114.28125 C 76.476562 113.292969 75.671875 112.488281 74.679688 112.488281 C 73.6875 112.488281 72.882812 113.292969 72.882812 114.28125 C 72.882812 115.273438 73.6875 116.078125 74.679688 116.078125 C 75.671875 116.078125 76.476562 115.273438 76.476562 114.28125 "/>
<path fill-rule="evenodd" fill="rgb(0%, 0%, 0%)" fill-opacity="1" d="M 62.351562 116.777344 C 62.351562 115.785156 61.550781 114.980469 60.558594 114.980469 C 59.566406 114.980469 58.761719 115.785156 58.761719 116.777344 C 58.761719 117.769531 59.566406 118.574219 60.558594 118.574219 C 61.550781 118.574219 62.351562 117.769531 62.351562 116.777344 "/>
<path fill-rule="evenodd" fill="rgb(0%, 0%, 0%)" fill-opacity="1" d="M 56.988281 105.800781 C 56.988281 104.808594 56.183594 104.003906 55.191406 104.003906 C 54.199219 104.003906 53.394531 104.808594 53.394531 105.800781 C 53.394531 106.792969 54.199219 107.597656 55.191406 107.597656 C 56.183594 107.597656 56.988281 106.792969 56.988281 105.800781 "/>
<path fill-rule="evenodd" fill="rgb(0%, 0%, 0%)" fill-opacity="1" d="M 43.820312 92.324219 C 43.820312 91.332031 43.015625 90.527344 42.023438 90.527344 C 41.03125 90.527344 40.226562 91.332031 40.226562 92.324219 C 40.226562 93.316406 41.03125 94.121094 42.023438 94.121094 C 43.015625 94.121094 43.820312 93.316406 43.820312 92.324219 "/>
<path fill-rule="evenodd" fill="rgb(0%, 0%, 0%)" fill-opacity="1" d="M 45.355469 115.78125 C 45.355469 114.789062 44.550781 113.984375 43.558594 113.984375 C 42.566406 113.984375 41.761719 114.789062 41.761719 115.78125 C 41.761719 116.773438 42.566406 117.578125 43.558594 117.578125 C 44.550781 117.578125 45.355469 116.773438 45.355469 115.78125 "/>
<path fill-rule="evenodd" fill="rgb(0%, 0%, 0%)" fill-opacity="1" d="M 73.472656 208.105469 C 73.472656 207.113281 72.667969 206.308594 71.675781 206.308594 C 70.683594 206.308594 69.878906 207.113281 69.878906 208.105469 C 69.878906 209.097656 70.683594 209.902344 71.675781 209.902344 C 72.667969 209.902344 73.472656 209.097656 73.472656 208.105469 "/>
<path fill-rule="evenodd" fill="rgb(0%, 0%, 0%)" fill-opacity="1" d="M 87.949219 204.113281 C 87.949219 203.121094 87.144531 202.316406 86.152344 202.316406 C 85.160156 202.316406 84.355469 203.121094 84.355469 204.113281 C 84.355469 205.105469 85.160156 205.910156 86.152344 205.910156 C 87.144531 205.910156 87.949219 205.105469 87.949219 204.113281 "/>
<path fill-rule="evenodd" fill="rgb(0%, 0%, 0%)" fill-opacity="1" d="M 83.324219 217.089844 C 83.324219 216.097656 82.519531 215.292969 81.527344 215.292969 C 80.535156 215.292969 79.730469 216.097656 79.730469 217.089844 C 79.730469 218.082031 80.535156 218.882812 81.527344 218.882812 C 82.519531 218.882812 83.324219 218.082031 83.324219 217.089844 "/>
<path fill-rule="evenodd" fill="rgb(0%, 0%, 0%)" fill-opacity="1" d="M 57.324219 200.121094 C 57.324219 199.128906 56.519531 198.324219 55.527344 198.324219 C 54.535156 198.324219 53.730469 199.128906 53.730469 200.121094 C 53.730469 201.113281 54.535156 201.917969 55.527344 201.917969 C 56.519531 201.917969 57.324219 201.113281 57.324219 200.121094 "/>
<path fill-rule="evenodd" fill="rgb(0%, 0%, 0%)" fill-opacity="1" d="M 42.027344 208.105469 C 42.027344 207.113281 41.222656 206.308594 40.230469 206.308594 C 39.238281 206.308594 38.433594 207.113281 38.433594 208.105469 C 38.433594 209.097656 39.238281 209.902344 40.230469 209.902344 C 41.222656 209.902344 42.027344 209.097656 42.027344 208.105469 "/>
<path fill-rule="evenodd" fill="rgb(0%, 0%, 0%)" fill-opacity="1" d="M 37.351562 190.140625 C 37.351562 189.148438 36.546875 188.34375 35.554688 188.34375 C 34.5625 188.34375 33.757812 189.148438 33.757812 190.140625 C 33.757812 191.132812 34.5625 191.9375 35.554688 191.9375 C 36.546875 191.9375 37.351562 191.132812 37.351562 190.140625 "/>
<path fill-rule="evenodd" fill="rgb(0%, 0%, 0%)" fill-opacity="1" d="M 56.648438 239.046875 C 56.648438 238.054688 55.84375 237.25 54.851562 237.25 C 53.859375 237.25 53.054688 238.054688 53.054688 239.046875 C 53.054688 240.039062 53.859375 240.84375 54.851562 240.84375 C 55.84375 240.84375 56.648438 240.039062 56.648438 239.046875 "/>
<path fill-rule="evenodd" fill="rgb(0%, 0%, 0%)" fill-opacity="1" d="M 218.355469 227.070312 C 218.355469 226.078125 217.550781 225.273438 216.558594 225.273438 C 215.566406 225.273438 214.761719 226.078125 214.761719 227.070312 C 214.761719 228.0625 215.566406 228.867188 216.558594 228.867188 C 217.550781 228.867188 218.355469 228.0625 218.355469 227.070312 "/>
<g clip-path="url(#clip-0)">
<path fill-rule="evenodd" fill="rgb(0%, 0%, 0%)" fill-opacity="1" d="M 4.300781 170.675781 C 4.300781 169.683594 3.496094 168.878906 2.503906 168.878906 C 1.511719 168.878906 0.707031 169.683594 0.707031 170.675781 C 0.707031 171.667969 1.511719 172.472656 2.503906 172.472656 C 3.496094 172.472656 4.300781 171.667969 4.300781 170.675781 "/>
</g>
<path fill-rule="evenodd" fill="rgb(0%, 0%, 0%)" fill-opacity="1" d="M 17.699219 213.59375 C 17.699219 212.601562 16.894531 211.796875 15.902344 211.796875 C 14.910156 211.796875 14.105469 212.601562 14.105469 213.59375 C 14.105469 214.585938 14.910156 215.390625 15.902344 215.390625 C 16.894531 215.390625 17.699219 214.585938 17.699219 213.59375 "/>
<g clip-path="url(#clip-1)">
<path fill-rule="evenodd" fill="rgb(0%, 0%, 0%)" fill-opacity="1" d="M 4.347656 113.285156 C 4.347656 112.292969 3.546875 111.488281 2.554688 111.488281 C 1.5625 111.488281 0.757812 112.292969 0.757812 113.285156 C 0.757812 114.277344 1.5625 115.082031 2.554688 115.082031 C 3.546875 115.082031 4.347656 114.277344 4.347656 113.285156 "/>
</g>
<path fill-rule="evenodd" fill="rgb(0%, 0%, 0%)" fill-opacity="1" d="M 111.953125 222.078125 C 111.953125 221.085938 111.148438 220.28125 110.15625 220.28125 C 109.164062 220.28125 108.359375 221.085938 108.359375 222.078125 C 108.359375 223.070312 109.164062 223.875 110.15625 223.875 C 111.148438 223.875 111.953125 223.070312 111.953125 222.078125 "/>
</svg>
