<?xml version="1.0" encoding="UTF-8"?>
<svg xmlns="http://www.w3.org/2000/svg" xmlns:xlink="http://www.w3.org/1999/xlink" width="283.7794" height="263.948" viewBox="0 0 283.7794 263.948">
<defs>
<clipPath id="clip-0">
<path clip-rule="nonzero" d="M 128 259 L 133 259 L 133 263.820312 L 128 263.820312 Z M 128 259 "/>
</clipPath>
<clipPath id="clip-1">
<path clip-rule="nonzero" d="M 171 259 L 176 259 L 176 263.820312 L 171 263.820312 Z M 171 259 "/>
</clipPath>
<clipPath id="clip-2">
<path clip-rule="nonzero" d="M 207 0.078125 L 212 0.078125 L 212 5 L 207 5 Z M 207 0.078125 "/>
</clipPath>
</defs>
<path fill-rule="evenodd" fill="rgb(67.799377%, 84.698486%, 90.19928%)" fill-opacity="1" stroke-width="0.4" stroke-linecap="butt" stroke-linejoin="round" stroke="rgb(0%, 0%, 100%)" stroke-opacity="1" stroke-miterlimit="10" d="M 293.295499 263.999173 C 293.295499 315.527479 251.524772 357.294297 200.000375 357.294297 C 148.472069 357.294297 106.705251 315.527479 106.705251 263.999173 C 106.705251 212.474775 148.472069 170.704048 200.000375 170.704048 C 251.524772 170.704048 293.295499 212.474775 293.295499 263.999173 " transform="matrix(0.999223, 0, 0, -0.999223, -60.96221, 399.204265)"/>
<path fill-rule="evenodd" fill="rgb(100%, 100%, 100%)" fill-opacity="1" stroke-width="2" stroke-linecap="butt" stroke-linejoin="round" stroke="rgb(0%, 0%, 100%)" stroke-opacity="1" stroke-miterlimit="10" d="M 246.649892 263.999173 C 246.649892 289.761371 225.762574 310.648689 200.000375 310.648689 C 174.238176 310.648689 153.350858 289.761371 153.350858 263.999173 C 153.350858 238.236974 174.238176 217.353565 200.000375 217.353565 C 225.762574 217.353565 246.649892 238.236974 246.649892 263.999173 " transform="matrix(0.999223, 0, 0, -0.999223, -60.96221, 399.204265)"/>
<path fill-rule="evenodd" fill="rgb(0%, 0%, 0%)" fill-opacity="1" d="M 192.75 147.398438 C 192.75 146.40625 191.945312 145.601562 190.949219 145.601562 C 189.957031 145.601562 189.152344 146.40625 189.152344 147.398438 C 189.152344 148.394531 189.957031 149.199219 190.949219 149.199219 C 191.945312 149.199219 192.75 148.394531 192.75 147.398438 "/>
<path fill-rule="evenodd" fill="rgb(0%, 0%, 0%)" fill-opacity="1" d="M 207.054688 158.390625 C 207.054688 157.398438 206.25 156.59375 205.257812 156.59375 C 204.261719 156.59375 203.457031 157.398438 203.457031 158.390625 C 203.457031 159.382812 204.261719 160.191406 205.257812 160.191406 C 206.25 160.191406 207.054688 159.382812 207.054688 158.390625 "/>
<path fill-rule="evenodd" fill="rgb(0%, 0%, 0%)" fill-opacity="1" d="M 219.5625 153.894531 C 219.5625 152.902344 218.753906 152.097656 217.761719 152.097656 C 216.769531 152.097656 215.964844 152.902344 215.964844 153.894531 C 215.964844 154.886719 216.769531 155.695312 217.761719 155.695312 C 218.753906 155.695312 219.5625 154.886719 219.5625 153.894531 "/>
<path fill-rule="evenodd" fill="rgb(0%, 0%, 0%)" fill-opacity="1" d="M 210.703125 143.402344 C 210.703125 142.410156 209.898438 141.605469 208.90625 141.605469 C 207.914062 141.605469 207.105469 142.410156 207.105469 143.402344 C 207.105469 144.394531 207.914062 145.203125 208.90625 145.203125 C 209.898438 145.203125 210.703125 144.394531 210.703125 143.402344 "/>
<path fill-rule="evenodd" fill="rgb(0%, 0%, 0%)" fill-opacity="1" d="M 228.207031 141.902344 C 228.207031 140.910156 227.402344 140.105469 226.410156 140.105469 C 225.414062 140.105469 224.609375 140.910156 224.609375 141.902344 C 224.609375 142.898438 225.414062 143.703125 226.410156 143.703125 C 227.402344 143.703125 228.207031 142.898438 228.207031 141.902344 "/>
<path fill-rule="evenodd" fill="rgb(0%, 0%, 0%)" fill-opacity="1" d="M 217.542969 128.914062 C 217.542969 127.921875 216.738281 127.117188 215.746094 127.117188 C 214.75 127.117188 213.945312 127.921875 213.945312 128.914062 C 213.945312 129.90625 214.75 130.714844 215.746094 130.714844 C 216.738281 130.714844 217.542969 129.90625 217.542969 128.914062 "/>
<path fill-rule="evenodd" fill="rgb(0%, 0%, 0%)" fill-opacity="1" d="M 201.046875 129.914062 C 201.046875 128.921875 200.242188 128.113281 199.25 128.113281 C 198.257812 128.113281 197.449219 128.921875 197.449219 129.914062 C 197.449219 130.90625 198.257812 131.710938 199.25 131.710938 C 200.242188 131.710938 201.046875 130.90625 201.046875 129.914062 "/>
<path fill-rule="evenodd" fill="rgb(0%, 0%, 0%)" fill-opacity="1" d="M 180.027344 126.914062 C 180.027344 125.921875 179.21875 125.117188 178.226562 125.117188 C 177.234375 125.117188 176.429688 125.921875 176.429688 126.914062 C 176.429688 127.910156 177.234375 128.714844 178.226562 128.714844 C 179.21875 128.714844 180.027344 127.910156 180.027344 126.914062 "/>
<path fill-rule="evenodd" fill="rgb(0%, 0%, 0%)" fill-opacity="1" d="M 165.601562 136.90625 C 165.601562 135.914062 164.796875 135.109375 163.804688 135.109375 C 162.8125 135.109375 162.003906 135.914062 162.003906 136.90625 C 162.003906 137.902344 162.8125 138.707031 163.804688 138.707031 C 164.796875 138.707031 165.601562 137.902344 165.601562 136.90625 "/>
<path fill-rule="evenodd" fill="rgb(0%, 0%, 0%)" fill-opacity="1" d="M 152.097656 138.40625 C 152.097656 137.414062 151.292969 136.609375 150.300781 136.609375 C 149.304688 136.609375 148.5 137.414062 148.5 138.40625 C 148.5 139.398438 149.304688 140.207031 150.300781 140.207031 C 151.292969 140.207031 152.097656 139.398438 152.097656 138.40625 "/>
<path fill-rule="evenodd" fill="rgb(0%, 0%, 0%)" fill-opacity="1" d="M 162.238281 149.898438 C 162.238281 148.90625 161.433594 148.097656 160.441406 148.097656 C 159.445312 148.097656 158.640625 148.90625 158.640625 149.898438 C 158.640625 150.890625 159.445312 151.695312 160.441406 151.695312 C 161.433594 151.695312 162.238281 150.890625 162.238281 149.898438 "/>
<path fill-rule="evenodd" fill="rgb(0%, 0%, 0%)" fill-opacity="1" d="M 147.101562 151.898438 C 147.101562 150.902344 146.296875 150.097656 145.304688 150.097656 C 144.308594 150.097656 143.503906 150.902344 143.503906 151.898438 C 143.503906 152.890625 144.308594 153.695312 145.304688 153.695312 C 146.296875 153.695312 147.101562 152.890625 147.101562 151.898438 "/>
<path fill-rule="evenodd" fill="rgb(0%, 0%, 0%)" fill-opacity="1" d="M 156.589844 164.386719 C 156.589844 163.394531 155.785156 162.589844 154.792969 162.589844 C 153.800781 162.589844 152.992188 163.394531 152.992188 164.386719 C 152.992188 165.378906 153.800781 166.183594 154.792969 166.183594 C 155.785156 166.183594 156.589844 165.378906 156.589844 164.386719 "/>
<path fill-rule="evenodd" fill="rgb(0%, 0%, 0%)" fill-opacity="1" d="M 141.75 165.386719 C 141.75 164.394531 140.945312 163.585938 139.953125 163.585938 C 138.957031 163.585938 138.152344 164.394531 138.152344 165.386719 C 138.152344 166.378906 138.957031 167.183594 139.953125 167.183594 C 140.945312 167.183594 141.75 166.378906 141.75 165.386719 "/>
<path fill-rule="evenodd" fill="rgb(0%, 0%, 0%)" fill-opacity="1" d="M 149.109375 176.878906 C 149.109375 175.882812 148.304688 175.078125 147.308594 175.078125 C 146.316406 175.078125 145.511719 175.882812 145.511719 176.878906 C 145.511719 177.871094 146.316406 178.675781 147.308594 178.675781 C 148.304688 178.675781 149.109375 177.871094 149.109375 176.878906 "/>
<path fill-rule="evenodd" fill="rgb(0%, 0%, 0%)" fill-opacity="1" d="M 139.21875 175.378906 C 139.21875 174.386719 138.410156 173.578125 137.417969 173.578125 C 136.425781 173.578125 135.621094 174.386719 135.621094 175.378906 C 135.621094 176.371094 136.425781 177.175781 137.417969 177.175781 C 138.410156 177.175781 139.21875 176.371094 139.21875 175.378906 "/>
<path fill-rule="evenodd" fill="rgb(0%, 0%, 0%)" fill-opacity="1" d="M 137.089844 187.867188 C 137.089844 186.875 136.285156 186.070312 135.292969 186.070312 C 134.296875 186.070312 133.492188 186.875 133.492188 187.867188 C 133.492188 188.863281 134.296875 189.667969 135.292969 189.667969 C 136.285156 189.667969 137.089844 188.863281 137.089844 187.867188 "/>
<path fill-rule="evenodd" fill="rgb(0%, 0%, 0%)" fill-opacity="1" d="M 154.75 190.367188 C 154.75 189.375 153.941406 188.566406 152.949219 188.566406 C 151.957031 188.566406 151.152344 189.375 151.152344 190.367188 C 151.152344 191.359375 151.957031 192.164062 152.949219 192.164062 C 153.941406 192.164062 154.75 191.359375 154.75 190.367188 "/>
<path fill-rule="evenodd" fill="rgb(0%, 0%, 0%)" fill-opacity="1" d="M 163.585938 177.875 C 163.585938 176.882812 162.78125 176.078125 161.785156 176.078125 C 160.792969 176.078125 159.988281 176.882812 159.988281 177.875 C 159.988281 178.871094 160.792969 179.675781 161.785156 179.675781 C 162.78125 179.675781 163.585938 178.871094 163.585938 177.875 "/>
<path fill-rule="evenodd" fill="rgb(0%, 0%, 0%)" fill-opacity="1" d="M 176.59375 180.375 C 176.59375 179.382812 175.789062 178.574219 174.796875 178.574219 C 173.800781 178.574219 172.996094 179.382812 172.996094 180.375 C 172.996094 181.367188 173.800781 182.171875 174.796875 182.171875 C 175.789062 182.171875 176.59375 181.367188 176.59375 180.375 "/>
<path fill-rule="evenodd" fill="rgb(0%, 0%, 0%)" fill-opacity="1" d="M 176.265625 162.886719 C 176.265625 161.894531 175.460938 161.089844 174.46875 161.089844 C 173.472656 161.089844 172.667969 161.894531 172.667969 162.886719 C 172.667969 163.882812 173.472656 164.6875 174.46875 164.6875 C 175.460938 164.6875 176.265625 163.882812 176.265625 162.886719 "/>
<path fill-rule="evenodd" fill="rgb(0%, 0%, 0%)" fill-opacity="1" d="M 189.574219 176.878906 C 189.574219 175.882812 188.769531 175.078125 187.773438 175.078125 C 186.78125 175.078125 185.976562 175.882812 185.976562 176.878906 C 185.976562 177.871094 186.78125 178.675781 187.773438 178.675781 C 188.769531 178.675781 189.574219 177.871094 189.574219 176.878906 "/>
<path fill-rule="evenodd" fill="rgb(0%, 0%, 0%)" fill-opacity="1" d="M 194.074219 163.886719 C 194.074219 162.894531 193.269531 162.089844 192.273438 162.089844 C 191.28125 162.089844 190.476562 162.894531 190.476562 163.886719 C 190.476562 164.878906 191.28125 165.6875 192.273438 165.6875 C 193.269531 165.6875 194.074219 164.878906 194.074219 163.886719 "/>
<path fill-rule="evenodd" fill="rgb(0%, 0%, 0%)" fill-opacity="1" d="M 204.058594 173.878906 C 204.058594 172.886719 203.253906 172.082031 202.257812 172.082031 C 201.265625 172.082031 200.460938 172.886719 200.460938 173.878906 C 200.460938 174.871094 201.265625 175.679688 202.257812 175.679688 C 203.253906 175.679688 204.058594 174.871094 204.058594 173.878906 "/>
<path fill-rule="evenodd" fill="rgb(0%, 0%, 0%)" fill-opacity="1" d="M 221.011719 169.882812 C 221.011719 168.890625 220.207031 168.082031 219.214844 168.082031 C 218.222656 168.082031 217.417969 168.890625 217.417969 169.882812 C 217.417969 170.875 218.222656 171.679688 219.214844 171.679688 C 220.207031 171.679688 221.011719 170.875 221.011719 169.882812 "/>
<path fill-rule="evenodd" fill="rgb(0%, 0%, 0%)" fill-opacity="1" d="M 213.210938 186.871094 C 213.210938 185.875 212.40625 185.070312 211.410156 185.070312 C 210.417969 185.070312 209.613281 185.875 209.613281 186.871094 C 209.613281 187.863281 210.417969 188.667969 211.410156 188.667969 C 212.40625 188.667969 213.210938 187.863281 213.210938 186.871094 "/>
<path fill-rule="evenodd" fill="rgb(0%, 0%, 0%)" fill-opacity="1" d="M 199.082031 185.871094 C 199.082031 184.875 198.273438 184.070312 197.28125 184.070312 C 196.289062 184.070312 195.484375 184.875 195.484375 185.871094 C 195.484375 186.863281 196.289062 187.667969 197.28125 187.667969 C 198.273438 187.667969 199.082031 186.863281 199.082031 185.871094 "/>
<path fill-rule="evenodd" fill="rgb(0%, 0%, 0%)" fill-opacity="1" d="M 185.734375 192.863281 C 185.734375 191.871094 184.929688 191.066406 183.9375 191.066406 C 182.945312 191.066406 182.140625 191.871094 182.140625 192.863281 C 182.140625 193.859375 182.945312 194.664062 183.9375 194.664062 C 184.929688 194.664062 185.734375 193.859375 185.734375 192.863281 "/>
<path fill-rule="evenodd" fill="rgb(0%, 0%, 0%)" fill-opacity="1" d="M 169.589844 191.367188 C 169.589844 190.371094 168.78125 189.566406 167.789062 189.566406 C 166.796875 189.566406 165.992188 190.371094 165.992188 191.367188 C 165.992188 192.359375 166.796875 193.164062 167.789062 193.164062 C 168.78125 193.164062 169.589844 192.359375 169.589844 191.367188 "/>
<path fill-rule="evenodd" fill="rgb(0%, 0%, 0%)" fill-opacity="1" d="M 161.742188 203.855469 C 161.742188 202.863281 160.9375 202.058594 159.945312 202.058594 C 158.949219 202.058594 158.144531 202.863281 158.144531 203.855469 C 158.144531 204.847656 158.949219 205.65625 159.945312 205.65625 C 160.9375 205.65625 161.742188 204.847656 161.742188 203.855469 "/>
<path fill-rule="evenodd" fill="rgb(0%, 0%, 0%)" fill-opacity="1" d="M 175.097656 203.355469 C 175.097656 202.363281 174.292969 201.558594 173.300781 201.558594 C 172.308594 201.558594 171.503906 202.363281 171.503906 203.355469 C 171.503906 204.351562 172.308594 205.15625 173.300781 205.15625 C 174.292969 205.15625 175.097656 204.351562 175.097656 203.355469 "/>
<path fill-rule="evenodd" fill="rgb(0%, 0%, 0%)" fill-opacity="1" d="M 149.261719 110.929688 C 149.261719 109.933594 148.453125 109.128906 147.460938 109.128906 C 146.46875 109.128906 145.664062 109.933594 145.664062 110.929688 C 145.664062 111.921875 146.46875 112.726562 147.460938 112.726562 C 148.453125 112.726562 149.261719 111.921875 149.261719 110.929688 "/>
<path fill-rule="evenodd" fill="rgb(0%, 0%, 0%)" fill-opacity="1" d="M 159.253906 123.917969 C 159.253906 122.925781 158.445312 122.121094 157.453125 122.121094 C 156.460938 122.121094 155.65625 122.925781 155.65625 123.917969 C 155.65625 124.910156 156.460938 125.71875 157.453125 125.71875 C 158.445312 125.71875 159.253906 124.910156 159.253906 123.917969 "/>
<path fill-rule="evenodd" fill="rgb(0%, 0%, 0%)" fill-opacity="1" d="M 143.601562 126.417969 C 143.601562 125.421875 142.796875 124.617188 141.800781 124.617188 C 140.808594 124.617188 140.003906 125.421875 140.003906 126.417969 C 140.003906 127.410156 140.808594 128.214844 141.800781 128.214844 C 142.796875 128.214844 143.601562 127.410156 143.601562 126.417969 "/>
<path fill-rule="evenodd" fill="rgb(0%, 0%, 0%)" fill-opacity="1" d="M 128.761719 128.414062 C 128.761719 127.421875 127.953125 126.617188 126.960938 126.617188 C 125.96875 126.617188 125.164062 127.421875 125.164062 128.414062 C 125.164062 129.40625 125.96875 130.214844 126.960938 130.214844 C 127.953125 130.214844 128.761719 129.40625 128.761719 128.414062 "/>
<path fill-rule="evenodd" fill="rgb(0%, 0%, 0%)" fill-opacity="1" d="M 137.605469 140.40625 C 137.605469 139.414062 136.800781 138.605469 135.808594 138.605469 C 134.8125 138.605469 134.007812 139.414062 134.007812 140.40625 C 134.007812 141.398438 134.8125 142.203125 135.808594 142.203125 C 136.800781 142.203125 137.605469 141.398438 137.605469 140.40625 "/>
<path fill-rule="evenodd" fill="rgb(0%, 0%, 0%)" fill-opacity="1" d="M 122.617188 141.902344 C 122.617188 140.910156 121.8125 140.105469 120.820312 140.105469 C 119.824219 140.105469 119.019531 140.910156 119.019531 141.902344 C 119.019531 142.898438 119.824219 143.703125 120.820312 143.703125 C 121.8125 143.703125 122.617188 142.898438 122.617188 141.902344 "/>
<path fill-rule="evenodd" fill="rgb(0%, 0%, 0%)" fill-opacity="1" d="M 116.648438 130.914062 C 116.648438 129.917969 115.84375 129.113281 114.851562 129.113281 C 113.855469 129.113281 113.050781 129.917969 113.050781 130.914062 C 113.050781 131.90625 113.855469 132.710938 114.851562 132.710938 C 115.84375 132.710938 116.648438 131.90625 116.648438 130.914062 "/>
<path fill-rule="evenodd" fill="rgb(0%, 0%, 0%)" fill-opacity="1" d="M 107.152344 126.417969 C 107.152344 125.421875 106.347656 124.617188 105.351562 124.617188 C 104.359375 124.617188 103.554688 125.421875 103.554688 126.417969 C 103.554688 127.410156 104.359375 128.214844 105.351562 128.214844 C 106.347656 128.214844 107.152344 127.410156 107.152344 126.417969 "/>
<path fill-rule="evenodd" fill="rgb(0%, 0%, 0%)" fill-opacity="1" d="M 94.785156 128.914062 C 94.785156 127.921875 93.980469 127.117188 92.988281 127.117188 C 91.996094 127.117188 91.191406 127.921875 91.191406 128.914062 C 91.191406 129.90625 91.996094 130.714844 92.988281 130.714844 C 93.980469 130.714844 94.785156 129.90625 94.785156 128.914062 "/>
<path fill-rule="evenodd" fill="rgb(0%, 0%, 0%)" fill-opacity="1" d="M 79.804688 131.414062 C 79.804688 130.417969 79 129.613281 78.007812 129.613281 C 77.015625 129.613281 76.210938 130.417969 76.210938 131.414062 C 76.210938 132.40625 77.015625 133.210938 78.007812 133.210938 C 79 133.210938 79.804688 132.40625 79.804688 131.414062 "/>
<path fill-rule="evenodd" fill="rgb(0%, 0%, 0%)" fill-opacity="1" d="M 63.15625 132.910156 C 63.15625 131.917969 62.351562 131.113281 61.355469 131.113281 C 60.363281 131.113281 59.558594 131.917969 59.558594 132.910156 C 59.558594 133.90625 60.363281 134.710938 61.355469 134.710938 C 62.351562 134.710938 63.15625 133.90625 63.15625 132.910156 "/>
<path fill-rule="evenodd" fill="rgb(0%, 0%, 0%)" fill-opacity="1" d="M 52.335938 145.902344 C 52.335938 144.90625 51.53125 144.101562 50.539062 144.101562 C 49.542969 144.101562 48.738281 144.90625 48.738281 145.902344 C 48.738281 146.894531 49.542969 147.699219 50.539062 147.699219 C 51.53125 147.699219 52.335938 146.894531 52.335938 145.902344 "/>
<path fill-rule="evenodd" fill="rgb(0%, 0%, 0%)" fill-opacity="1" d="M 56.796875 158.890625 C 56.796875 157.898438 55.992188 157.09375 55 157.09375 C 54.003906 157.09375 53.199219 157.898438 53.199219 158.890625 C 53.199219 159.882812 54.003906 160.691406 55 160.691406 C 55.992188 160.691406 56.796875 159.882812 56.796875 158.890625 "/>
<path fill-rule="evenodd" fill="rgb(0%, 0%, 0%)" fill-opacity="1" d="M 73.097656 151.898438 C 73.097656 150.902344 72.292969 150.097656 71.296875 150.097656 C 70.304688 150.097656 69.5 150.902344 69.5 151.898438 C 69.5 152.890625 70.304688 153.695312 71.296875 153.695312 C 72.292969 153.695312 73.097656 152.890625 73.097656 151.898438 "/>
<path fill-rule="evenodd" fill="rgb(0%, 0%, 0%)" fill-opacity="1" d="M 62.820312 170.382812 C 62.820312 169.390625 62.015625 168.582031 61.019531 168.582031 C 60.027344 168.582031 59.222656 169.390625 59.222656 170.382812 C 59.222656 171.375 60.027344 172.179688 61.019531 172.179688 C 62.015625 172.179688 62.820312 171.375 62.820312 170.382812 "/>
<path fill-rule="evenodd" fill="rgb(0%, 0%, 0%)" fill-opacity="1" d="M 83.089844 176.878906 C 83.089844 175.882812 82.285156 175.078125 81.289062 175.078125 C 80.296875 175.078125 79.492188 175.882812 79.492188 176.878906 C 79.492188 177.871094 80.296875 178.675781 81.289062 178.675781 C 82.285156 178.675781 83.089844 177.871094 83.089844 176.878906 "/>
<path fill-rule="evenodd" fill="rgb(0%, 0%, 0%)" fill-opacity="1" d="M 95.613281 157.390625 C 95.613281 156.398438 94.808594 155.59375 93.816406 155.59375 C 92.820312 155.59375 92.015625 156.398438 92.015625 157.390625 C 92.015625 158.386719 92.820312 159.191406 93.816406 159.191406 C 94.808594 159.191406 95.613281 158.386719 95.613281 157.390625 "/>
<path fill-rule="evenodd" fill="rgb(0%, 0%, 0%)" fill-opacity="1" d="M 90.285156 141.902344 C 90.285156 140.910156 89.480469 140.105469 88.488281 140.105469 C 87.496094 140.105469 86.6875 140.910156 86.6875 141.902344 C 86.6875 142.898438 87.496094 143.703125 88.488281 143.703125 C 89.480469 143.703125 90.285156 142.898438 90.285156 141.902344 "/>
<path fill-rule="evenodd" fill="rgb(0%, 0%, 0%)" fill-opacity="1" d="M 105.617188 140.90625 C 105.617188 139.910156 104.8125 139.105469 103.820312 139.105469 C 102.828125 139.105469 102.019531 139.910156 102.019531 140.90625 C 102.019531 141.898438 102.828125 142.703125 103.820312 142.703125 C 104.8125 142.703125 105.617188 141.898438 105.617188 140.90625 "/>
<path fill-rule="evenodd" fill="rgb(0%, 0%, 0%)" fill-opacity="1" d="M 114.609375 156.394531 C 114.609375 155.398438 113.804688 154.59375 112.8125 154.59375 C 111.820312 154.59375 111.015625 155.398438 111.015625 156.394531 C 111.015625 157.386719 111.820312 158.191406 112.8125 158.191406 C 113.804688 158.191406 114.609375 157.386719 114.609375 156.394531 "/>
<path fill-rule="evenodd" fill="rgb(0%, 0%, 0%)" fill-opacity="1" d="M 131.609375 154.394531 C 131.609375 153.402344 130.804688 152.597656 129.8125 152.597656 C 128.816406 152.597656 128.011719 153.402344 128.011719 154.394531 C 128.011719 155.386719 128.816406 156.191406 129.8125 156.191406 C 130.804688 156.191406 131.609375 155.386719 131.609375 154.394531 "/>
<path fill-rule="evenodd" fill="rgb(0%, 0%, 0%)" fill-opacity="1" d="M 126.792969 171.882812 C 126.792969 170.886719 125.988281 170.082031 124.996094 170.082031 C 124.003906 170.082031 123.195312 170.886719 123.195312 171.882812 C 123.195312 172.875 124.003906 173.679688 124.996094 173.679688 C 125.988281 173.679688 126.792969 172.875 126.792969 171.882812 "/>
<path fill-rule="evenodd" fill="rgb(0%, 0%, 0%)" fill-opacity="1" d="M 106.808594 174.378906 C 106.808594 173.386719 106.003906 172.582031 105.011719 172.582031 C 104.015625 172.582031 103.210938 173.386719 103.210938 174.378906 C 103.210938 175.371094 104.015625 176.175781 105.011719 176.175781 C 106.003906 176.175781 106.808594 175.371094 106.808594 174.378906 "/>
<path fill-rule="evenodd" fill="rgb(0%, 0%, 0%)" fill-opacity="1" d="M 100.117188 192.863281 C 100.117188 191.871094 99.3125 191.066406 98.320312 191.066406 C 97.328125 191.066406 96.519531 191.871094 96.519531 192.863281 C 96.519531 193.859375 97.328125 194.664062 98.320312 194.664062 C 99.3125 194.664062 100.117188 193.859375 100.117188 192.863281 "/>
<path fill-rule="evenodd" fill="rgb(0%, 0%, 0%)" fill-opacity="1" d="M 118.609375 189.367188 C 118.609375 188.375 117.804688 187.570312 116.808594 187.570312 C 115.816406 187.570312 115.011719 188.375 115.011719 189.367188 C 115.011719 190.359375 115.816406 191.164062 116.808594 191.164062 C 117.804688 191.164062 118.609375 190.359375 118.609375 189.367188 "/>
<path fill-rule="evenodd" fill="rgb(0%, 0%, 0%)" fill-opacity="1" d="M 84.460938 20 C 84.460938 19.003906 83.65625 18.199219 82.664062 18.199219 C 81.671875 18.199219 80.867188 19.003906 80.867188 20 C 80.867188 20.992188 81.671875 21.796875 82.664062 21.796875 C 83.65625 21.796875 84.460938 20.992188 84.460938 20 "/>
<path fill-rule="evenodd" fill="rgb(0%, 0%, 0%)" fill-opacity="1" d="M 47.527344 57.96875 C 47.527344 56.976562 46.722656 56.171875 45.726562 56.171875 C 44.734375 56.171875 43.929688 56.976562 43.929688 57.96875 C 43.929688 58.960938 44.734375 59.769531 45.726562 59.769531 C 46.722656 59.769531 47.527344 58.960938 47.527344 57.96875 "/>
<path fill-rule="evenodd" fill="rgb(0%, 0%, 0%)" fill-opacity="1" d="M 78.15625 74.457031 C 78.15625 73.464844 77.351562 72.65625 76.355469 72.65625 C 75.363281 72.65625 74.558594 73.464844 74.558594 74.457031 C 74.558594 75.449219 75.363281 76.253906 76.355469 76.253906 C 77.351562 76.253906 78.15625 75.449219 78.15625 74.457031 "/>
<path fill-rule="evenodd" fill="rgb(0%, 0%, 0%)" fill-opacity="1" d="M 93.640625 74.957031 C 93.640625 73.964844 92.835938 73.15625 91.839844 73.15625 C 90.847656 73.15625 90.042969 73.964844 90.042969 74.957031 C 90.042969 75.949219 90.847656 76.753906 91.839844 76.753906 C 92.835938 76.753906 93.640625 75.949219 93.640625 74.957031 "/>
<path fill-rule="evenodd" fill="rgb(0%, 0%, 0%)" fill-opacity="1" d="M 86.335938 56.96875 C 86.335938 55.976562 85.53125 55.171875 84.539062 55.171875 C 83.542969 55.171875 82.738281 55.976562 82.738281 56.96875 C 82.738281 57.964844 83.542969 58.769531 84.539062 58.769531 C 85.53125 58.769531 86.335938 57.964844 86.335938 56.96875 "/>
<path fill-rule="evenodd" fill="rgb(0%, 0%, 0%)" fill-opacity="1" d="M 102.632812 47.976562 C 102.632812 46.984375 101.828125 46.179688 100.835938 46.179688 C 99.839844 46.179688 99.035156 46.984375 99.035156 47.976562 C 99.035156 48.96875 99.839844 49.777344 100.835938 49.777344 C 101.828125 49.777344 102.632812 48.96875 102.632812 47.976562 "/>
<path fill-rule="evenodd" fill="rgb(0%, 0%, 0%)" fill-opacity="1" d="M 104.632812 63.464844 C 104.632812 62.472656 103.824219 61.667969 102.832031 61.667969 C 101.839844 61.667969 101.035156 62.472656 101.035156 63.464844 C 101.035156 64.457031 101.839844 65.265625 102.832031 65.265625 C 103.824219 65.265625 104.632812 64.457031 104.632812 63.464844 "/>
<path fill-rule="evenodd" fill="rgb(0%, 0%, 0%)" fill-opacity="1" d="M 115.769531 53.472656 C 115.769531 52.480469 114.964844 51.675781 113.972656 51.675781 C 112.980469 51.675781 112.171875 52.480469 112.171875 53.472656 C 112.171875 54.464844 112.980469 55.273438 113.972656 55.273438 C 114.964844 55.273438 115.769531 54.464844 115.769531 53.472656 "/>
<path fill-rule="evenodd" fill="rgb(0%, 0%, 0%)" fill-opacity="1" d="M 118.144531 65.964844 C 118.144531 64.96875 117.339844 64.164062 116.34375 64.164062 C 115.351562 64.164062 114.546875 64.96875 114.546875 65.964844 C 114.546875 66.957031 115.351562 67.761719 116.34375 67.761719 C 117.339844 67.761719 118.144531 66.957031 118.144531 65.964844 "/>
<path fill-rule="evenodd" fill="rgb(0%, 0%, 0%)" fill-opacity="1" d="M 127.117188 74.957031 C 127.117188 73.964844 126.3125 73.15625 125.320312 73.15625 C 124.324219 73.15625 123.519531 73.964844 123.519531 74.957031 C 123.519531 75.949219 124.324219 76.753906 125.320312 76.753906 C 126.3125 76.753906 127.117188 75.949219 127.117188 74.957031 "/>
<path fill-rule="evenodd" fill="rgb(0%, 0%, 0%)" fill-opacity="1" d="M 110.601562 79.953125 C 110.601562 78.960938 109.796875 78.152344 108.804688 78.152344 C 107.8125 78.152344 107.003906 78.960938 107.003906 79.953125 C 107.003906 80.945312 107.8125 81.75 108.804688 81.75 C 109.796875 81.75 110.601562 80.945312 110.601562 79.953125 "/>
<path fill-rule="evenodd" fill="rgb(0%, 0%, 0%)" fill-opacity="1" d="M 97.28125 88.945312 C 97.28125 87.953125 96.476562 87.148438 95.480469 87.148438 C 94.488281 87.148438 93.683594 87.953125 93.683594 88.945312 C 93.683594 89.9375 94.488281 90.742188 95.480469 90.742188 C 96.476562 90.742188 97.28125 89.9375 97.28125 88.945312 "/>
<path fill-rule="evenodd" fill="rgb(0%, 0%, 0%)" fill-opacity="1" d="M 85.167969 85.949219 C 85.167969 84.953125 84.363281 84.148438 83.371094 84.148438 C 82.378906 84.148438 81.570312 84.953125 81.570312 85.949219 C 81.570312 86.941406 82.378906 87.746094 83.371094 87.746094 C 84.363281 87.746094 85.167969 86.941406 85.167969 85.949219 "/>
<path fill-rule="evenodd" fill="rgb(0%, 0%, 0%)" fill-opacity="1" d="M 86.664062 96.441406 C 86.664062 95.445312 85.859375 94.640625 84.867188 94.640625 C 83.871094 94.640625 83.066406 95.445312 83.066406 96.441406 C 83.066406 97.433594 83.871094 98.238281 84.867188 98.238281 C 85.859375 98.238281 86.664062 97.433594 86.664062 96.441406 "/>
<path fill-rule="evenodd" fill="rgb(0%, 0%, 0%)" fill-opacity="1" d="M 91.667969 106.433594 C 91.667969 105.4375 90.863281 104.632812 89.871094 104.632812 C 88.875 104.632812 88.070312 105.4375 88.070312 106.433594 C 88.070312 107.425781 88.875 108.230469 89.871094 108.230469 C 90.863281 108.230469 91.667969 107.425781 91.667969 106.433594 "/>
<path fill-rule="evenodd" fill="rgb(0%, 0%, 0%)" fill-opacity="1" d="M 98.238281 104.933594 C 98.238281 103.941406 97.433594 103.132812 96.4375 103.132812 C 95.445312 103.132812 94.640625 103.941406 94.640625 104.933594 C 94.640625 105.925781 95.445312 106.730469 96.4375 106.730469 C 97.433594 106.730469 98.238281 105.925781 98.238281 104.933594 "/>
<path fill-rule="evenodd" fill="rgb(0%, 0%, 0%)" fill-opacity="1" d="M 96.25 99.4375 C 96.25 98.445312 95.445312 97.640625 94.453125 97.640625 C 93.457031 97.640625 92.652344 98.445312 92.652344 99.4375 C 92.652344 100.429688 93.457031 101.234375 94.453125 101.234375 C 95.445312 101.234375 96.25 100.429688 96.25 99.4375 "/>
<path fill-rule="evenodd" fill="rgb(0%, 0%, 0%)" fill-opacity="1" d="M 109.808594 99.4375 C 109.808594 98.445312 109 97.640625 108.007812 97.640625 C 107.015625 97.640625 106.210938 98.445312 106.210938 99.4375 C 106.210938 100.429688 107.015625 101.234375 108.007812 101.234375 C 109 101.234375 109.808594 100.429688 109.808594 99.4375 "/>
<path fill-rule="evenodd" fill="rgb(0%, 0%, 0%)" fill-opacity="1" d="M 124.632812 104.433594 C 124.632812 103.441406 123.828125 102.636719 122.835938 102.636719 C 121.84375 102.636719 121.039062 103.441406 121.039062 104.433594 C 121.039062 105.425781 121.84375 106.230469 122.835938 106.230469 C 123.828125 106.230469 124.632812 105.425781 124.632812 104.433594 "/>
<path fill-rule="evenodd" fill="rgb(0%, 0%, 0%)" fill-opacity="1" d="M 124.769531 90.445312 C 124.769531 89.449219 123.964844 88.644531 122.972656 88.644531 C 121.980469 88.644531 121.175781 89.449219 121.175781 90.445312 C 121.175781 91.4375 121.980469 92.242188 122.972656 92.242188 C 123.964844 92.242188 124.769531 91.4375 124.769531 90.445312 "/>
<path fill-rule="evenodd" fill="rgb(0%, 0%, 0%)" fill-opacity="1" d="M 137.761719 99.9375 C 137.761719 98.945312 136.957031 98.136719 135.960938 98.136719 C 134.96875 98.136719 134.164062 98.945312 134.164062 99.9375 C 134.164062 100.929688 134.96875 101.734375 135.960938 101.734375 C 136.957031 101.734375 137.761719 100.929688 137.761719 99.9375 "/>
<path fill-rule="evenodd" fill="rgb(0%, 0%, 0%)" fill-opacity="1" d="M 139.605469 84.449219 C 139.605469 83.457031 138.796875 82.648438 137.804688 82.648438 C 136.8125 82.648438 136.007812 83.457031 136.007812 84.449219 C 136.007812 85.441406 136.8125 86.246094 137.804688 86.246094 C 138.796875 86.246094 139.605469 85.441406 139.605469 84.449219 "/>
<path fill-rule="evenodd" fill="rgb(0%, 0%, 0%)" fill-opacity="1" d="M 152.75 94.941406 C 152.75 93.949219 151.945312 93.140625 150.949219 93.140625 C 149.957031 93.140625 149.152344 93.949219 149.152344 94.941406 C 149.152344 95.933594 149.957031 96.738281 150.949219 96.738281 C 151.945312 96.738281 152.75 95.933594 152.75 94.941406 "/>
<path fill-rule="evenodd" fill="rgb(0%, 0%, 0%)" fill-opacity="1" d="M 134.914062 3.011719 C 134.914062 2.019531 134.105469 1.214844 133.113281 1.214844 C 132.121094 1.214844 131.316406 2.019531 131.316406 3.011719 C 131.316406 4.003906 132.121094 4.8125 133.113281 4.8125 C 134.105469 4.8125 134.914062 4.003906 134.914062 3.011719 "/>
<path fill-rule="evenodd" fill="rgb(0%, 0%, 0%)" fill-opacity="1" d="M 117.09375 36.484375 C 117.09375 35.492188 116.289062 34.6875 115.296875 34.6875 C 114.300781 34.6875 113.496094 35.492188 113.496094 36.484375 C 113.496094 37.480469 114.300781 38.285156 115.296875 38.285156 C 116.289062 38.285156 117.09375 37.480469 117.09375 36.484375 "/>
<path fill-rule="evenodd" fill="rgb(0%, 0%, 0%)" fill-opacity="1" d="M 124.65625 47.976562 C 124.65625 46.984375 123.847656 46.179688 122.855469 46.179688 C 121.863281 46.179688 121.058594 46.984375 121.058594 47.976562 C 121.058594 48.96875 121.863281 49.777344 122.855469 49.777344 C 123.847656 49.777344 124.65625 48.96875 124.65625 47.976562 "/>
<path fill-rule="evenodd" fill="rgb(0%, 0%, 0%)" fill-opacity="1" d="M 137.078125 40.984375 C 137.078125 39.988281 136.273438 39.183594 135.28125 39.183594 C 134.285156 39.183594 133.480469 39.988281 133.480469 40.984375 C 133.480469 41.976562 134.285156 42.78125 135.28125 42.78125 C 136.273438 42.78125 137.078125 41.976562 137.078125 40.984375 "/>
<path fill-rule="evenodd" fill="rgb(0%, 0%, 0%)" fill-opacity="1" d="M 189.375 6.507812 C 189.375 5.515625 188.566406 4.710938 187.574219 4.710938 C 186.582031 4.710938 185.777344 5.515625 185.777344 6.507812 C 185.777344 7.503906 186.582031 8.308594 187.574219 8.308594 C 188.566406 8.308594 189.375 7.503906 189.375 6.507812 "/>
<path fill-rule="evenodd" fill="rgb(0%, 0%, 0%)" fill-opacity="1" d="M 161.019531 35.988281 C 161.019531 34.992188 160.214844 34.1875 159.222656 34.1875 C 158.226562 34.1875 157.421875 34.992188 157.421875 35.988281 C 157.421875 36.980469 158.226562 37.785156 159.222656 37.785156 C 160.214844 37.785156 161.019531 36.980469 161.019531 35.988281 "/>
<path fill-rule="evenodd" fill="rgb(0%, 0%, 0%)" fill-opacity="1" d="M 149.777344 57.46875 C 149.777344 56.476562 148.96875 55.671875 147.976562 55.671875 C 146.984375 55.671875 146.179688 56.476562 146.179688 57.46875 C 146.179688 58.464844 146.984375 59.269531 147.976562 59.269531 C 148.96875 59.269531 149.777344 58.464844 149.777344 57.46875 "/>
<path fill-rule="evenodd" fill="rgb(0%, 0%, 0%)" fill-opacity="1" d="M 140.621094 70.460938 C 140.621094 69.464844 139.816406 68.660156 138.824219 68.660156 C 137.832031 68.660156 137.023438 69.464844 137.023438 70.460938 C 137.023438 71.453125 137.832031 72.257812 138.824219 72.257812 C 139.816406 72.257812 140.621094 71.453125 140.621094 70.460938 "/>
<path fill-rule="evenodd" fill="rgb(0%, 0%, 0%)" fill-opacity="1" d="M 130.597656 59.46875 C 130.597656 58.476562 129.792969 57.667969 128.800781 57.667969 C 127.808594 57.667969 127 58.476562 127 59.46875 C 127 60.460938 127.808594 61.265625 128.800781 61.265625 C 129.792969 61.265625 130.597656 60.460938 130.597656 59.46875 "/>
<path fill-rule="evenodd" fill="rgb(0%, 0%, 0%)" fill-opacity="1" d="M 236.867188 29.492188 C 236.867188 28.5 236.0625 27.691406 235.070312 27.691406 C 234.078125 27.691406 233.269531 28.5 233.269531 29.492188 C 233.269531 30.484375 234.078125 31.289062 235.070312 31.289062 C 236.0625 31.289062 236.867188 30.484375 236.867188 29.492188 "/>
<path fill-rule="evenodd" fill="rgb(0%, 0%, 0%)" fill-opacity="1" d="M 203.722656 38.984375 C 203.722656 37.992188 202.917969 37.1875 201.921875 37.1875 C 200.929688 37.1875 200.125 37.992188 200.125 38.984375 C 200.125 39.976562 200.929688 40.78125 201.921875 40.78125 C 202.917969 40.78125 203.722656 39.976562 203.722656 38.984375 "/>
<path fill-rule="evenodd" fill="rgb(0%, 0%, 0%)" fill-opacity="1" d="M 197.578125 52.472656 C 197.578125 51.480469 196.773438 50.675781 195.777344 50.675781 C 194.785156 50.675781 193.980469 51.480469 193.980469 52.472656 C 193.980469 53.46875 194.785156 54.273438 195.777344 54.273438 C 196.773438 54.273438 197.578125 53.46875 197.578125 52.472656 "/>
<path fill-rule="evenodd" fill="rgb(0%, 0%, 0%)" fill-opacity="1" d="M 184.75 42.980469 C 184.75 41.988281 183.945312 41.183594 182.949219 41.183594 C 181.957031 41.183594 181.152344 41.988281 181.152344 42.980469 C 181.152344 43.972656 181.957031 44.78125 182.949219 44.78125 C 183.945312 44.78125 184.75 43.972656 184.75 42.980469 "/>
<path fill-rule="evenodd" fill="rgb(0%, 0%, 0%)" fill-opacity="1" d="M 188.089844 58.96875 C 188.089844 57.976562 187.285156 57.171875 186.289062 57.171875 C 185.296875 57.171875 184.492188 57.976562 184.492188 58.96875 C 184.492188 59.960938 185.296875 60.765625 186.289062 60.765625 C 187.285156 60.765625 188.089844 59.960938 188.089844 58.96875 "/>
<path fill-rule="evenodd" fill="rgb(0%, 0%, 0%)" fill-opacity="1" d="M 170.535156 59.96875 C 170.535156 58.976562 169.730469 58.167969 168.738281 58.167969 C 167.746094 58.167969 166.941406 58.976562 166.941406 59.96875 C 166.941406 60.960938 167.746094 61.765625 168.738281 61.765625 C 169.730469 61.765625 170.535156 60.960938 170.535156 59.96875 "/>
<path fill-rule="evenodd" fill="rgb(0%, 0%, 0%)" fill-opacity="1" d="M 185.566406 72.457031 C 185.566406 71.464844 184.761719 70.660156 183.769531 70.660156 C 182.777344 70.660156 181.972656 71.464844 181.972656 72.457031 C 181.972656 73.453125 182.777344 74.257812 183.769531 74.257812 C 184.761719 74.257812 185.566406 73.453125 185.566406 72.457031 "/>
<path fill-rule="evenodd" fill="rgb(0%, 0%, 0%)" fill-opacity="1" d="M 200.0625 65.464844 C 200.0625 64.46875 199.253906 63.664062 198.261719 63.664062 C 197.269531 63.664062 196.464844 64.46875 196.464844 65.464844 C 196.464844 66.457031 197.269531 67.261719 198.261719 67.261719 C 199.253906 67.261719 200.0625 66.457031 200.0625 65.464844 "/>
<path fill-rule="evenodd" fill="rgb(0%, 0%, 0%)" fill-opacity="1" d="M 212.714844 54.472656 C 212.714844 53.480469 211.910156 52.671875 210.917969 52.671875 C 209.921875 52.671875 209.117188 53.480469 209.117188 54.472656 C 209.117188 55.464844 209.921875 56.269531 210.917969 56.269531 C 211.910156 56.269531 212.714844 55.464844 212.714844 54.472656 "/>
<path fill-rule="evenodd" fill="rgb(0%, 0%, 0%)" fill-opacity="1" d="M 227.046875 59.96875 C 227.046875 58.976562 226.242188 58.167969 225.25 58.167969 C 224.257812 58.167969 223.449219 58.976562 223.449219 59.96875 C 223.449219 60.960938 224.257812 61.765625 225.25 61.765625 C 226.242188 61.765625 227.046875 60.960938 227.046875 59.96875 "/>
<path fill-rule="evenodd" fill="rgb(0%, 0%, 0%)" fill-opacity="1" d="M 238.554688 60.46875 C 238.554688 59.472656 237.75 58.667969 236.753906 58.667969 C 235.761719 58.667969 234.957031 59.472656 234.957031 60.46875 C 234.957031 61.460938 235.761719 62.265625 236.753906 62.265625 C 237.75 62.265625 238.554688 61.460938 238.554688 60.46875 "/>
<path fill-rule="evenodd" fill="rgb(0%, 0%, 0%)" fill-opacity="1" d="M 269.347656 70.460938 C 269.347656 69.464844 268.542969 68.660156 267.546875 68.660156 C 266.554688 68.660156 265.75 69.464844 265.75 70.460938 C 265.75 71.453125 266.554688 72.257812 267.546875 72.257812 C 268.542969 72.257812 269.347656 71.453125 269.347656 70.460938 "/>
<path fill-rule="evenodd" fill="rgb(0%, 0%, 0%)" fill-opacity="1" d="M 234.195312 72.957031 C 234.195312 71.964844 233.390625 71.160156 232.394531 71.160156 C 231.402344 71.160156 230.597656 71.964844 230.597656 72.957031 C 230.597656 73.949219 231.402344 74.757812 232.394531 74.757812 C 233.390625 74.757812 234.195312 73.949219 234.195312 72.957031 "/>
<path fill-rule="evenodd" fill="rgb(0%, 0%, 0%)" fill-opacity="1" d="M 239.019531 89.445312 C 239.019531 88.453125 238.214844 87.644531 237.21875 87.644531 C 236.226562 87.644531 235.421875 88.453125 235.421875 89.445312 C 235.421875 90.4375 236.226562 91.242188 237.21875 91.242188 C 238.214844 91.242188 239.019531 90.4375 239.019531 89.445312 "/>
<path fill-rule="evenodd" fill="rgb(0%, 0%, 0%)" fill-opacity="1" d="M 251.503906 101.933594 C 251.503906 100.941406 250.699219 100.136719 249.707031 100.136719 C 248.714844 100.136719 247.90625 100.941406 247.90625 101.933594 C 247.90625 102.929688 248.714844 103.734375 249.707031 103.734375 C 250.699219 103.734375 251.503906 102.929688 251.503906 101.933594 "/>
<path fill-rule="evenodd" fill="rgb(0%, 0%, 0%)" fill-opacity="1" d="M 246.527344 117.421875 C 246.527344 116.429688 245.722656 115.625 244.730469 115.625 C 243.738281 115.625 242.929688 116.429688 242.929688 117.421875 C 242.929688 118.417969 243.738281 119.222656 244.730469 119.222656 C 245.722656 119.222656 246.527344 118.417969 246.527344 117.421875 "/>
<path fill-rule="evenodd" fill="rgb(0%, 0%, 0%)" fill-opacity="1" d="M 234.203125 106.929688 C 234.203125 105.9375 233.398438 105.132812 232.402344 105.132812 C 231.410156 105.132812 230.605469 105.9375 230.605469 106.929688 C 230.605469 107.925781 231.410156 108.730469 232.402344 108.730469 C 233.398438 108.730469 234.203125 107.925781 234.203125 106.929688 "/>
<path fill-rule="evenodd" fill="rgb(0%, 0%, 0%)" fill-opacity="1" d="M 226.058594 94.941406 C 226.058594 93.949219 225.253906 93.140625 224.261719 93.140625 C 223.269531 93.140625 222.460938 93.949219 222.460938 94.941406 C 222.460938 95.933594 223.269531 96.738281 224.261719 96.738281 C 225.253906 96.738281 226.058594 95.933594 226.058594 94.941406 "/>
<path fill-rule="evenodd" fill="rgb(0%, 0%, 0%)" fill-opacity="1" d="M 226.167969 83.949219 C 226.167969 82.957031 225.363281 82.152344 224.371094 82.152344 C 223.378906 82.152344 222.574219 82.957031 222.574219 83.949219 C 222.574219 84.941406 223.378906 85.746094 224.371094 85.746094 C 225.363281 85.746094 226.167969 84.941406 226.167969 83.949219 "/>
<path fill-rule="evenodd" fill="rgb(0%, 0%, 0%)" fill-opacity="1" d="M 216.027344 72.457031 C 216.027344 71.464844 215.222656 70.660156 214.230469 70.660156 C 213.238281 70.660156 212.429688 71.464844 212.429688 72.457031 C 212.429688 73.453125 213.238281 74.257812 214.230469 74.257812 C 215.222656 74.257812 216.027344 73.453125 216.027344 72.457031 "/>
<path fill-rule="evenodd" fill="rgb(0%, 0%, 0%)" fill-opacity="1" d="M 214.050781 89.945312 C 214.050781 88.953125 213.246094 88.144531 212.25 88.144531 C 211.257812 88.144531 210.453125 88.953125 210.453125 89.945312 C 210.453125 90.9375 211.257812 91.742188 212.25 91.742188 C 213.246094 91.742188 214.050781 90.9375 214.050781 89.945312 "/>
<path fill-rule="evenodd" fill="rgb(0%, 0%, 0%)" fill-opacity="1" d="M 200.050781 82.449219 C 200.050781 81.457031 199.242188 80.652344 198.25 80.652344 C 197.257812 80.652344 196.453125 81.457031 196.453125 82.449219 C 196.453125 83.445312 197.257812 84.25 198.25 84.25 C 199.242188 84.25 200.050781 83.445312 200.050781 82.449219 "/>
<path fill-rule="evenodd" fill="rgb(0%, 0%, 0%)" fill-opacity="1" d="M 200.53125 100.4375 C 200.53125 99.441406 199.726562 98.636719 198.734375 98.636719 C 197.742188 98.636719 196.933594 99.441406 196.933594 100.4375 C 196.933594 101.429688 197.742188 102.234375 198.734375 102.234375 C 199.726562 102.234375 200.53125 101.429688 200.53125 100.4375 "/>
<path fill-rule="evenodd" fill="rgb(0%, 0%, 0%)" fill-opacity="1" d="M 217.691406 103.933594 C 217.691406 102.941406 216.886719 102.136719 215.890625 102.136719 C 214.898438 102.136719 214.09375 102.941406 214.09375 103.933594 C 214.09375 104.925781 214.898438 105.730469 215.890625 105.730469 C 216.886719 105.730469 217.691406 104.925781 217.691406 103.933594 "/>
<path fill-rule="evenodd" fill="rgb(0%, 0%, 0%)" fill-opacity="1" d="M 222.171875 115.925781 C 222.171875 114.929688 221.367188 114.125 220.375 114.125 C 219.382812 114.125 218.574219 114.929688 218.574219 115.925781 C 218.574219 116.917969 219.382812 117.722656 220.375 117.722656 C 221.367188 117.722656 222.171875 116.917969 222.171875 115.925781 "/>
<path fill-rule="evenodd" fill="rgb(0%, 0%, 0%)" fill-opacity="1" d="M 209.203125 115.925781 C 209.203125 114.929688 208.394531 114.125 207.402344 114.125 C 206.410156 114.125 205.605469 114.929688 205.605469 115.925781 C 205.605469 116.917969 206.410156 117.722656 207.402344 117.722656 C 208.394531 117.722656 209.203125 116.917969 209.203125 115.925781 "/>
<path fill-rule="evenodd" fill="rgb(0%, 0%, 0%)" fill-opacity="1" d="M 195.699219 116.425781 C 195.699219 115.429688 194.890625 114.625 193.898438 114.625 C 192.90625 114.625 192.101562 115.429688 192.101562 116.425781 C 192.101562 117.417969 192.90625 118.222656 193.898438 118.222656 C 194.890625 118.222656 195.699219 117.417969 195.699219 116.425781 "/>
<path fill-rule="evenodd" fill="rgb(0%, 0%, 0%)" fill-opacity="1" d="M 185.714844 107.929688 C 185.714844 106.9375 184.910156 106.132812 183.917969 106.132812 C 182.925781 106.132812 182.117188 106.9375 182.117188 107.929688 C 182.117188 108.925781 182.925781 109.730469 183.917969 109.730469 C 184.910156 109.730469 185.714844 108.925781 185.714844 107.929688 "/>
<path fill-rule="evenodd" fill="rgb(0%, 0%, 0%)" fill-opacity="1" d="M 183.042969 90.945312 C 183.042969 89.949219 182.238281 89.144531 181.246094 89.144531 C 180.25 89.144531 179.445312 89.949219 179.445312 90.945312 C 179.445312 91.9375 180.25 92.742188 181.246094 92.742188 C 182.238281 92.742188 183.042969 91.9375 183.042969 90.945312 "/>
<path fill-rule="evenodd" fill="rgb(0%, 0%, 0%)" fill-opacity="1" d="M 172.222656 77.953125 C 172.222656 76.960938 171.417969 76.15625 170.425781 76.15625 C 169.429688 76.15625 168.625 76.960938 168.625 77.953125 C 168.625 78.945312 169.429688 79.753906 170.425781 79.753906 C 171.417969 79.753906 172.222656 78.945312 172.222656 77.953125 "/>
<path fill-rule="evenodd" fill="rgb(0%, 0%, 0%)" fill-opacity="1" d="M 156.273438 76.457031 C 156.273438 75.460938 155.46875 74.65625 154.476562 74.65625 C 153.480469 74.65625 152.675781 75.460938 152.675781 76.457031 C 152.675781 77.449219 153.480469 78.253906 154.476562 78.253906 C 155.46875 78.253906 156.273438 77.449219 156.273438 76.457031 "/>
<path fill-rule="evenodd" fill="rgb(0%, 0%, 0%)" fill-opacity="1" d="M 166.226562 88.945312 C 166.226562 87.953125 165.421875 87.148438 164.429688 87.148438 C 163.433594 87.148438 162.628906 87.953125 162.628906 88.945312 C 162.628906 89.9375 163.433594 90.742188 164.429688 90.742188 C 165.421875 90.742188 166.226562 89.9375 166.226562 88.945312 "/>
<path fill-rule="evenodd" fill="rgb(0%, 0%, 0%)" fill-opacity="1" d="M 167.550781 106.433594 C 167.550781 105.4375 166.746094 104.632812 165.753906 104.632812 C 164.757812 104.632812 163.953125 105.4375 163.953125 106.433594 C 163.953125 107.425781 164.757812 108.230469 165.753906 108.230469 C 166.746094 108.230469 167.550781 107.425781 167.550781 106.433594 "/>
<path fill-rule="evenodd" fill="rgb(0%, 0%, 0%)" fill-opacity="1" d="M 282.859375 124.417969 C 282.859375 123.425781 282.054688 122.621094 281.0625 122.621094 C 280.066406 122.621094 279.261719 123.425781 279.261719 124.417969 C 279.261719 125.410156 280.066406 126.214844 281.0625 126.214844 C 282.054688 126.214844 282.859375 125.410156 282.859375 124.417969 "/>
<path fill-rule="evenodd" fill="rgb(0%, 0%, 0%)" fill-opacity="1" d="M 247.539062 130.414062 C 247.539062 129.421875 246.734375 128.613281 245.742188 128.613281 C 244.746094 128.613281 243.941406 129.421875 243.941406 130.414062 C 243.941406 131.40625 244.746094 132.210938 245.742188 132.210938 C 246.734375 132.210938 247.539062 131.40625 247.539062 130.414062 "/>
<path fill-rule="evenodd" fill="rgb(0%, 0%, 0%)" fill-opacity="1" d="M 239.140625 135.910156 C 239.140625 134.914062 238.335938 134.109375 237.339844 134.109375 C 236.347656 134.109375 235.542969 134.914062 235.542969 135.910156 C 235.542969 136.902344 236.347656 137.707031 237.339844 137.707031 C 238.335938 137.707031 239.140625 136.902344 239.140625 135.910156 "/>
<path fill-rule="evenodd" fill="rgb(0%, 0%, 0%)" fill-opacity="1" d="M 233.699219 124.917969 C 233.699219 123.925781 232.894531 123.117188 231.898438 123.117188 C 230.90625 123.117188 230.101562 123.925781 230.101562 124.917969 C 230.101562 125.910156 230.90625 126.714844 231.898438 126.714844 C 232.894531 126.714844 233.699219 125.910156 233.699219 124.917969 "/>
<path fill-rule="evenodd" fill="rgb(0%, 0%, 0%)" fill-opacity="1" d="M 273.859375 181.375 C 273.859375 180.378906 273.054688 179.574219 272.058594 179.574219 C 271.066406 179.574219 270.261719 180.378906 270.261719 181.375 C 270.261719 182.367188 271.066406 183.171875 272.058594 183.171875 C 273.054688 183.171875 273.859375 182.367188 273.859375 181.375 "/>
<path fill-rule="evenodd" fill="rgb(0%, 0%, 0%)" fill-opacity="1" d="M 239.683594 168.882812 C 239.683594 167.890625 238.875 167.085938 237.882812 167.085938 C 236.890625 167.085938 236.085938 167.890625 236.085938 168.882812 C 236.085938 169.875 236.890625 170.683594 237.882812 170.683594 C 238.875 170.683594 239.683594 169.875 239.683594 168.882812 "/>
<path fill-rule="evenodd" fill="rgb(0%, 0%, 0%)" fill-opacity="1" d="M 231.042969 156.894531 C 231.042969 155.898438 230.238281 155.09375 229.246094 155.09375 C 228.253906 155.09375 227.449219 155.898438 227.449219 156.894531 C 227.449219 157.886719 228.253906 158.691406 229.246094 158.691406 C 230.238281 158.691406 231.042969 157.886719 231.042969 156.894531 "/>
<path fill-rule="evenodd" fill="rgb(0%, 0%, 0%)" fill-opacity="1" d="M 234.234375 188.867188 C 234.234375 187.875 233.429688 187.070312 232.433594 187.070312 C 231.441406 187.070312 230.636719 187.875 230.636719 188.867188 C 230.636719 189.859375 231.441406 190.667969 232.433594 190.667969 C 233.429688 190.667969 234.234375 189.859375 234.234375 188.867188 "/>
<path fill-rule="evenodd" fill="rgb(0%, 0%, 0%)" fill-opacity="1" d="M 218.699219 202.355469 C 218.699219 201.363281 217.894531 200.558594 216.898438 200.558594 C 215.90625 200.558594 215.101562 201.363281 215.101562 202.355469 C 215.101562 203.351562 215.90625 204.15625 216.898438 204.15625 C 217.894531 204.15625 218.699219 203.351562 218.699219 202.355469 "/>
<path fill-rule="evenodd" fill="rgb(0%, 0%, 0%)" fill-opacity="1" d="M 202.21875 199.359375 C 202.21875 198.367188 201.414062 197.5625 200.421875 197.5625 C 199.425781 197.5625 198.621094 198.367188 198.621094 199.359375 C 198.621094 200.351562 199.425781 201.160156 200.421875 201.160156 C 201.414062 201.160156 202.21875 200.351562 202.21875 199.359375 "/>
<path fill-rule="evenodd" fill="rgb(0%, 0%, 0%)" fill-opacity="1" d="M 208.222656 215.847656 C 208.222656 214.855469 207.417969 214.046875 206.425781 214.046875 C 205.429688 214.046875 204.625 214.855469 204.625 215.847656 C 204.625 216.839844 205.429688 217.644531 206.425781 217.644531 C 207.417969 217.644531 208.222656 216.839844 208.222656 215.847656 "/>
<path fill-rule="evenodd" fill="rgb(0%, 0%, 0%)" fill-opacity="1" d="M 188.746094 211.351562 C 188.746094 210.355469 187.941406 209.550781 186.945312 209.550781 C 185.953125 209.550781 185.148438 210.355469 185.148438 211.351562 C 185.148438 212.34375 185.953125 213.148438 186.945312 213.148438 C 187.941406 213.148438 188.746094 212.34375 188.746094 211.351562 "/>
<path fill-rule="evenodd" fill="rgb(0%, 0%, 0%)" fill-opacity="1" d="M 248.46875 149.398438 C 248.46875 148.40625 247.664062 147.601562 246.667969 147.601562 C 245.675781 147.601562 244.871094 148.40625 244.871094 149.398438 C 244.871094 150.390625 245.675781 151.195312 246.667969 151.195312 C 247.664062 151.195312 248.46875 150.390625 248.46875 149.398438 "/>
<path fill-rule="evenodd" fill="rgb(0%, 0%, 0%)" fill-opacity="1" d="M 175.089844 144.902344 C 175.089844 143.910156 174.28125 143.101562 173.289062 143.101562 C 172.296875 143.101562 171.492188 143.910156 171.492188 144.902344 C 171.492188 145.894531 172.296875 146.699219 173.289062 146.699219 C 174.28125 146.699219 175.089844 145.894531 175.089844 144.902344 "/>
<path fill-rule="evenodd" fill="rgb(0%, 0%, 0%)" fill-opacity="1" d="M 170.566406 217.84375 C 170.566406 216.851562 169.761719 216.046875 168.769531 216.046875 C 167.777344 216.046875 166.96875 216.851562 166.96875 217.84375 C 166.96875 218.839844 167.777344 219.644531 168.769531 219.644531 C 169.761719 219.644531 170.566406 218.839844 170.566406 217.84375 "/>
<path fill-rule="evenodd" fill="rgb(0%, 0%, 0%)" fill-opacity="1" d="M 161.632812 224.339844 C 161.632812 223.347656 160.828125 222.542969 159.835938 222.542969 C 158.84375 222.542969 158.035156 223.347656 158.035156 224.339844 C 158.035156 225.332031 158.84375 226.140625 159.835938 226.140625 C 160.828125 226.140625 161.632812 225.332031 161.632812 224.339844 "/>
<path fill-rule="evenodd" fill="rgb(0%, 0%, 0%)" fill-opacity="1" d="M 165.691406 228.335938 C 165.691406 227.34375 164.886719 226.539062 163.894531 226.539062 C 162.902344 226.539062 162.09375 227.34375 162.09375 228.335938 C 162.09375 229.332031 162.902344 230.136719 163.894531 230.136719 C 164.886719 230.136719 165.691406 229.332031 165.691406 228.335938 "/>
<path fill-rule="evenodd" fill="rgb(0%, 0%, 0%)" fill-opacity="1" d="M 154.761719 233.332031 C 154.761719 232.339844 153.953125 231.535156 152.960938 231.535156 C 151.96875 231.535156 151.164062 232.339844 151.164062 233.332031 C 151.164062 234.328125 151.96875 235.132812 152.960938 235.132812 C 153.953125 235.132812 154.761719 234.328125 154.761719 233.332031 "/>
<path fill-rule="evenodd" fill="rgb(0%, 0%, 0%)" fill-opacity="1" d="M 154.601562 217.34375 C 154.601562 216.351562 153.792969 215.546875 152.800781 215.546875 C 151.808594 215.546875 151.003906 216.351562 151.003906 217.34375 C 151.003906 218.339844 151.808594 219.144531 152.800781 219.144531 C 153.792969 219.144531 154.601562 218.339844 154.601562 217.34375 "/>
<path fill-rule="evenodd" fill="rgb(0%, 0%, 0%)" fill-opacity="1" d="M 145.089844 204.355469 C 145.089844 203.363281 144.285156 202.558594 143.292969 202.558594 C 142.300781 202.558594 141.496094 203.363281 141.496094 204.355469 C 141.496094 205.347656 142.300781 206.15625 143.292969 206.15625 C 144.285156 206.15625 145.089844 205.347656 145.089844 204.355469 "/>
<path fill-rule="evenodd" fill="rgb(0%, 0%, 0%)" fill-opacity="1" d="M 128.105469 203.855469 C 128.105469 202.863281 127.300781 202.058594 126.304688 202.058594 C 125.3125 202.058594 124.507812 202.863281 124.507812 203.855469 C 124.507812 204.847656 125.3125 205.65625 126.304688 205.65625 C 127.300781 205.65625 128.105469 204.847656 128.105469 203.855469 "/>
<path fill-rule="evenodd" fill="rgb(0%, 0%, 0%)" fill-opacity="1" d="M 119.636719 215.347656 C 119.636719 214.355469 118.832031 213.546875 117.839844 213.546875 C 116.847656 213.546875 116.042969 214.355469 116.042969 215.347656 C 116.042969 216.339844 116.847656 217.144531 117.839844 217.144531 C 118.832031 217.144531 119.636719 216.339844 119.636719 215.347656 "/>
<path fill-rule="evenodd" fill="rgb(0%, 0%, 0%)" fill-opacity="1" d="M 117.113281 229.835938 C 117.113281 228.84375 116.308594 228.039062 115.316406 228.039062 C 114.320312 228.039062 113.515625 228.84375 113.515625 229.835938 C 113.515625 230.828125 114.320312 231.632812 115.316406 231.632812 C 116.308594 231.632812 117.113281 230.828125 117.113281 229.835938 "/>
<path fill-rule="evenodd" fill="rgb(0%, 0%, 0%)" fill-opacity="1" d="M 190.457031 253.316406 C 190.457031 252.324219 189.652344 251.519531 188.660156 251.519531 C 187.667969 251.519531 186.859375 252.324219 186.859375 253.316406 C 186.859375 254.3125 187.667969 255.117188 188.660156 255.117188 C 189.652344 255.117188 190.457031 254.3125 190.457031 253.316406 "/>
<g clip-path="url(#clip-0)">
<path fill-rule="evenodd" fill="rgb(0%, 0%, 0%)" fill-opacity="1" d="M 132.453125 261.3125 C 132.453125 260.316406 131.648438 259.511719 130.65625 259.511719 C 129.660156 259.511719 128.855469 260.316406 128.855469 261.3125 C 128.855469 262.304688 129.660156 263.109375 130.65625 263.109375 C 131.648438 263.109375 132.453125 262.304688 132.453125 261.3125 "/>
</g>
<path fill-rule="evenodd" fill="rgb(0%, 0%, 0%)" fill-opacity="1" d="M 133.261719 114.925781 C 133.261719 113.933594 132.457031 113.125 131.460938 113.125 C 130.46875 113.125 129.664062 113.933594 129.664062 114.925781 C 129.664062 115.917969 130.46875 116.722656 131.460938 116.722656 C 132.457031 116.722656 133.261719 115.917969 133.261719 114.925781 "/>
<path fill-rule="evenodd" fill="rgb(0%, 0%, 0%)" fill-opacity="1" d="M 117.789062 116.921875 C 117.789062 115.929688 116.984375 115.125 115.988281 115.125 C 114.996094 115.125 114.191406 115.929688 114.191406 116.921875 C 114.191406 117.917969 114.996094 118.722656 115.988281 118.722656 C 116.984375 118.722656 117.789062 117.917969 117.789062 116.921875 "/>
<path fill-rule="evenodd" fill="rgb(0%, 0%, 0%)" fill-opacity="1" d="M 100.789062 114.925781 C 100.789062 113.933594 99.984375 113.125 98.992188 113.125 C 98 113.125 97.191406 113.933594 97.191406 114.925781 C 97.191406 115.917969 98 116.722656 98.992188 116.722656 C 99.984375 116.722656 100.789062 115.917969 100.789062 114.925781 "/>
<path fill-rule="evenodd" fill="rgb(0%, 0%, 0%)" fill-opacity="1" d="M 86.652344 117.421875 C 86.652344 116.429688 85.847656 115.625 84.855469 115.625 C 83.859375 115.625 83.054688 116.429688 83.054688 117.421875 C 83.054688 118.417969 83.859375 119.222656 84.855469 119.222656 C 85.847656 119.222656 86.652344 118.417969 86.652344 117.421875 "/>
<path fill-rule="evenodd" fill="rgb(0%, 0%, 0%)" fill-opacity="1" d="M 81.28125 106.433594 C 81.28125 105.4375 80.476562 104.632812 79.484375 104.632812 C 78.492188 104.632812 77.683594 105.4375 77.683594 106.433594 C 77.683594 107.425781 78.492188 108.230469 79.484375 108.230469 C 80.476562 108.230469 81.28125 107.425781 81.28125 106.433594 "/>
<path fill-rule="evenodd" fill="rgb(0%, 0%, 0%)" fill-opacity="1" d="M 68.101562 92.941406 C 68.101562 91.949219 67.296875 91.144531 66.300781 91.144531 C 65.308594 91.144531 64.503906 91.949219 64.503906 92.941406 C 64.503906 93.9375 65.308594 94.742188 66.300781 94.742188 C 67.296875 94.742188 68.101562 93.9375 68.101562 92.941406 "/>
<path fill-rule="evenodd" fill="rgb(0%, 0%, 0%)" fill-opacity="1" d="M 69.632812 116.425781 C 69.632812 115.429688 68.828125 114.625 67.835938 114.625 C 66.84375 114.625 66.035156 115.429688 66.035156 116.425781 C 66.035156 117.417969 66.84375 118.222656 67.835938 118.222656 C 68.828125 118.222656 69.632812 117.417969 69.632812 116.425781 "/>
<path fill-rule="evenodd" fill="rgb(0%, 0%, 0%)" fill-opacity="1" d="M 97.785156 208.851562 C 97.785156 207.859375 96.980469 207.054688 95.984375 207.054688 C 94.992188 207.054688 94.1875 207.859375 94.1875 208.851562 C 94.1875 209.84375 94.992188 210.652344 95.984375 210.652344 C 96.980469 210.652344 97.785156 209.84375 97.785156 208.851562 "/>
<path fill-rule="evenodd" fill="rgb(0%, 0%, 0%)" fill-opacity="1" d="M 112.277344 204.855469 C 112.277344 203.863281 111.472656 203.058594 110.480469 203.058594 C 109.484375 203.058594 108.679688 203.863281 108.679688 204.855469 C 108.679688 205.847656 109.484375 206.652344 110.480469 206.652344 C 111.472656 206.652344 112.277344 205.847656 112.277344 204.855469 "/>
<path fill-rule="evenodd" fill="rgb(0%, 0%, 0%)" fill-opacity="1" d="M 107.648438 217.84375 C 107.648438 216.851562 106.84375 216.046875 105.847656 216.046875 C 104.855469 216.046875 104.050781 216.851562 104.050781 217.84375 C 104.050781 218.839844 104.855469 219.644531 105.847656 219.644531 C 106.84375 219.644531 107.648438 218.839844 107.648438 217.84375 "/>
<path fill-rule="evenodd" fill="rgb(0%, 0%, 0%)" fill-opacity="1" d="M 81.617188 200.859375 C 81.617188 199.863281 80.8125 199.058594 79.820312 199.058594 C 78.824219 199.058594 78.019531 199.863281 78.019531 200.859375 C 78.019531 201.851562 78.824219 202.65625 79.820312 202.65625 C 80.8125 202.65625 81.617188 201.851562 81.617188 200.859375 "/>
<path fill-rule="evenodd" fill="rgb(0%, 0%, 0%)" fill-opacity="1" d="M 66.304688 208.851562 C 66.304688 207.859375 65.5 207.054688 64.507812 207.054688 C 63.511719 207.054688 62.707031 207.859375 62.707031 208.851562 C 62.707031 209.84375 63.511719 210.652344 64.507812 210.652344 C 65.5 210.652344 66.304688 209.84375 66.304688 208.851562 "/>
<path fill-rule="evenodd" fill="rgb(0%, 0%, 0%)" fill-opacity="1" d="M 61.621094 190.867188 C 61.621094 189.871094 60.816406 189.066406 59.824219 189.066406 C 58.828125 189.066406 58.023438 189.871094 58.023438 190.867188 C 58.023438 191.859375 58.828125 192.664062 59.824219 192.664062 C 60.816406 192.664062 61.621094 191.859375 61.621094 190.867188 "/>
<path fill-rule="evenodd" fill="rgb(0%, 0%, 0%)" fill-opacity="1" d="M 80.941406 239.828125 C 80.941406 238.835938 80.136719 238.03125 79.144531 238.03125 C 78.152344 238.03125 77.34375 238.835938 77.34375 239.828125 C 77.34375 240.820312 78.152344 241.625 79.144531 241.625 C 80.136719 241.625 80.941406 240.820312 80.941406 239.828125 "/>
<path fill-rule="evenodd" fill="rgb(0%, 0%, 0%)" fill-opacity="1" d="M 242.828125 227.835938 C 242.828125 226.84375 242.023438 226.039062 241.03125 226.039062 C 240.035156 226.039062 239.230469 226.84375 239.230469 227.835938 C 239.230469 228.832031 240.035156 229.636719 241.03125 229.636719 C 242.023438 229.636719 242.828125 228.832031 242.828125 227.835938 "/>
<path fill-rule="evenodd" fill="rgb(0%, 0%, 0%)" fill-opacity="1" d="M 28.535156 171.382812 C 28.535156 170.386719 27.730469 169.582031 26.734375 169.582031 C 25.742188 169.582031 24.9375 170.386719 24.9375 171.382812 C 24.9375 172.375 25.742188 173.179688 26.734375 173.179688 C 27.730469 173.179688 28.535156 172.375 28.535156 171.382812 "/>
<path fill-rule="evenodd" fill="rgb(0%, 0%, 0%)" fill-opacity="1" d="M 41.949219 214.347656 C 41.949219 213.355469 41.144531 212.550781 40.148438 212.550781 C 39.15625 212.550781 38.351562 213.355469 38.351562 214.347656 C 38.351562 215.339844 39.15625 216.148438 40.148438 216.148438 C 41.144531 216.148438 41.949219 215.339844 41.949219 214.347656 "/>
<path fill-rule="evenodd" fill="rgb(0%, 0%, 0%)" fill-opacity="1" d="M 28.585938 113.925781 C 28.585938 112.933594 27.777344 112.128906 26.785156 112.128906 C 25.792969 112.128906 24.988281 112.933594 24.988281 113.925781 C 24.988281 114.917969 25.792969 115.726562 26.785156 115.726562 C 27.777344 115.726562 28.585938 114.917969 28.585938 113.925781 "/>
<path fill-rule="evenodd" fill="rgb(0%, 0%, 0%)" fill-opacity="1" d="M 136.308594 222.839844 C 136.308594 221.847656 135.503906 221.042969 134.511719 221.042969 C 133.519531 221.042969 132.710938 221.847656 132.710938 222.839844 C 132.710938 223.835938 133.519531 224.640625 134.511719 224.640625 C 135.503906 224.640625 136.308594 223.835938 136.308594 222.839844 "/>
<path fill-rule="evenodd" fill="rgb(0%, 0%, 0%)" fill-opacity="1" d="M 277.398438 194.980469 C 277.398438 193.988281 276.589844 193.179688 275.597656 193.179688 C 274.605469 193.179688 273.800781 193.988281 273.800781 194.980469 C 273.800781 195.972656 274.605469 196.777344 275.597656 196.777344 C 276.589844 196.777344 277.398438 195.972656 277.398438 194.980469 "/>
<path fill-rule="evenodd" fill="rgb(0%, 0%, 0%)" fill-opacity="1" d="M 139.480469 222.222656 C 139.480469 221.226562 138.671875 220.421875 137.679688 220.421875 C 136.6875 220.421875 135.882812 221.226562 135.882812 222.222656 C 135.882812 223.214844 136.6875 224.019531 137.679688 224.019531 C 138.671875 224.019531 139.480469 223.214844 139.480469 222.222656 "/>
<path fill-rule="evenodd" fill="rgb(0%, 0%, 0%)" fill-opacity="1" d="M 26.316406 237.226562 C 26.316406 236.234375 25.511719 235.429688 24.519531 235.429688 C 23.527344 235.429688 22.71875 236.234375 22.71875 237.226562 C 22.71875 238.21875 23.527344 239.027344 24.519531 239.027344 C 25.511719 239.027344 26.316406 238.21875 26.316406 237.226562 "/>
<path fill-rule="evenodd" fill="rgb(0%, 0%, 0%)" fill-opacity="1" d="M 20.371094 171.082031 C 20.371094 170.089844 19.566406 169.285156 18.574219 169.285156 C 17.578125 169.285156 16.773438 170.089844 16.773438 171.082031 C 16.773438 172.074219 17.578125 172.882812 18.574219 172.882812 C 19.566406 172.882812 20.371094 172.074219 20.371094 171.082031 "/>
<path fill-rule="evenodd" fill="rgb(0%, 0%, 0%)" fill-opacity="1" d="M 4.863281 108.613281 C 4.863281 107.617188 4.058594 106.8125 3.066406 106.8125 C 2.070312 106.8125 1.265625 107.617188 1.265625 108.613281 C 1.265625 109.605469 2.070312 110.410156 3.066406 110.410156 C 4.058594 110.410156 4.863281 109.605469 4.863281 108.613281 "/>
<path fill-rule="evenodd" fill="rgb(0%, 0%, 0%)" fill-opacity="1" d="M 16.015625 84.921875 C 16.015625 83.929688 15.210938 83.125 14.21875 83.125 C 13.222656 83.125 12.417969 83.929688 12.417969 84.921875 C 12.417969 85.917969 13.222656 86.722656 14.21875 86.722656 C 15.210938 86.722656 16.015625 85.917969 16.015625 84.921875 "/>
<path fill-rule="evenodd" fill="rgb(0%, 0%, 0%)" fill-opacity="1" d="M 57.949219 32.648438 C 57.949219 31.65625 57.144531 30.851562 56.152344 30.851562 C 55.15625 30.851562 54.351562 31.65625 54.351562 32.648438 C 54.351562 33.644531 55.15625 34.449219 56.152344 34.449219 C 57.144531 34.449219 57.949219 33.644531 57.949219 32.648438 "/>
<path fill-rule="evenodd" fill="rgb(0%, 0%, 0%)" fill-opacity="1" d="M 19.773438 57.96875 C 19.773438 56.976562 18.96875 56.171875 17.976562 56.171875 C 16.984375 56.171875 16.179688 56.976562 16.179688 57.96875 C 16.179688 58.960938 16.984375 59.769531 17.976562 59.769531 C 18.96875 59.769531 19.773438 58.960938 19.773438 57.96875 "/>
<path fill-rule="evenodd" fill="rgb(0%, 0%, 0%)" fill-opacity="1" d="M 25.945312 82.546875 C 25.945312 81.550781 25.140625 80.746094 24.144531 80.746094 C 23.152344 80.746094 22.347656 81.550781 22.347656 82.546875 C 22.347656 83.539062 23.152344 84.34375 24.144531 84.34375 C 25.140625 84.34375 25.945312 83.539062 25.945312 82.546875 "/>
<path fill-rule="evenodd" fill="rgb(0%, 0%, 0%)" fill-opacity="1" d="M 6.011719 136.183594 C 6.011719 135.191406 5.207031 134.382812 4.214844 134.382812 C 3.21875 134.382812 2.414062 135.191406 2.414062 136.183594 C 2.414062 137.175781 3.21875 137.980469 4.214844 137.980469 C 5.207031 137.980469 6.011719 137.175781 6.011719 136.183594 "/>
<path fill-rule="evenodd" fill="rgb(0%, 0%, 0%)" fill-opacity="1" d="M 44.625 75.167969 C 44.625 74.175781 43.820312 73.371094 42.824219 73.371094 C 41.832031 73.371094 41.027344 74.175781 41.027344 75.167969 C 41.027344 76.160156 41.832031 76.964844 42.824219 76.964844 C 43.820312 76.964844 44.625 76.160156 44.625 75.167969 "/>
<path fill-rule="evenodd" fill="rgb(0%, 0%, 0%)" fill-opacity="1" d="M 66.75 38.636719 C 66.75 37.640625 65.945312 36.835938 64.949219 36.835938 C 63.957031 36.835938 63.152344 37.640625 63.152344 38.636719 C 63.152344 39.628906 63.957031 40.433594 64.949219 40.433594 C 65.945312 40.433594 66.75 39.628906 66.75 38.636719 "/>
<path fill-rule="evenodd" fill="rgb(0%, 0%, 0%)" fill-opacity="1" d="M 98.664062 18.425781 C 98.664062 17.429688 97.859375 16.625 96.867188 16.625 C 95.875 16.625 95.070312 17.429688 95.070312 18.425781 C 95.070312 19.417969 95.875 20.222656 96.867188 20.222656 C 97.859375 20.222656 98.664062 19.417969 98.664062 18.425781 "/>
<path fill-rule="evenodd" fill="rgb(0%, 0%, 0%)" fill-opacity="1" d="M 133.101562 19.394531 C 133.101562 18.398438 132.296875 17.59375 131.304688 17.59375 C 130.308594 17.59375 129.503906 18.398438 129.503906 19.394531 C 129.503906 20.386719 130.308594 21.191406 131.304688 21.191406 C 132.296875 21.191406 133.101562 20.386719 133.101562 19.394531 "/>
<path fill-rule="evenodd" fill="rgb(0%, 0%, 0%)" fill-opacity="1" d="M 164.785156 17.011719 C 164.785156 16.015625 163.980469 15.210938 162.984375 15.210938 C 161.992188 15.210938 161.1875 16.015625 161.1875 17.011719 C 161.1875 18.003906 161.992188 18.808594 162.984375 18.808594 C 163.980469 18.808594 164.785156 18.003906 164.785156 17.011719 "/>
<path fill-rule="evenodd" fill="rgb(0%, 0%, 0%)" fill-opacity="1" d="M 208.71875 25.585938 C 208.71875 24.59375 207.914062 23.785156 206.921875 23.785156 C 205.929688 23.785156 205.121094 24.59375 205.121094 25.585938 C 205.121094 26.578125 205.929688 27.382812 206.921875 27.382812 C 207.914062 27.382812 208.71875 26.578125 208.71875 25.585938 "/>
<path fill-rule="evenodd" fill="rgb(0%, 0%, 0%)" fill-opacity="1" d="M 246.71875 53.429688 C 246.71875 52.4375 245.914062 51.632812 244.921875 51.632812 C 243.925781 51.632812 243.121094 52.4375 243.121094 53.429688 C 243.121094 54.421875 243.925781 55.230469 244.921875 55.230469 C 245.914062 55.230469 246.71875 54.421875 246.71875 53.429688 "/>
<path fill-rule="evenodd" fill="rgb(0%, 0%, 0%)" fill-opacity="1" d="M 269.402344 60.082031 C 269.402344 59.089844 268.59375 58.285156 267.601562 58.285156 C 266.609375 58.285156 265.804688 59.089844 265.804688 60.082031 C 265.804688 61.074219 266.609375 61.878906 267.601562 61.878906 C 268.59375 61.878906 269.402344 61.074219 269.402344 60.082031 "/>
<path fill-rule="evenodd" fill="rgb(0%, 0%, 0%)" fill-opacity="1" d="M 272.582031 118.617188 C 272.582031 117.625 271.777344 116.820312 270.785156 116.820312 C 269.789062 116.820312 268.984375 117.625 268.984375 118.617188 C 268.984375 119.613281 269.789062 120.417969 270.785156 120.417969 C 271.777344 120.417969 272.582031 119.613281 272.582031 118.617188 "/>
<path fill-rule="evenodd" fill="rgb(0%, 0%, 0%)" fill-opacity="1" d="M 46.636719 242.425781 C 46.636719 241.429688 45.828125 240.625 44.835938 240.625 C 43.84375 240.625 43.039062 241.429688 43.039062 242.425781 C 43.039062 243.417969 43.84375 244.222656 44.835938 244.222656 C 45.828125 244.222656 46.636719 243.417969 46.636719 242.425781 "/>
<path fill-rule="evenodd" fill="rgb(0%, 0%, 0%)" fill-opacity="1" d="M 67 236.425781 C 67 235.429688 66.195312 234.625 65.199219 234.625 C 64.207031 234.625 63.402344 235.429688 63.402344 236.425781 C 63.402344 237.417969 64.207031 238.222656 65.199219 238.222656 C 66.195312 238.222656 67 237.417969 67 236.425781 "/>
<path fill-rule="evenodd" fill="rgb(0%, 0%, 0%)" fill-opacity="1" d="M 199.660156 237.539062 C 199.660156 236.546875 198.855469 235.742188 197.859375 235.742188 C 196.867188 235.742188 196.0625 236.546875 196.0625 237.539062 C 196.0625 238.53125 196.867188 239.335938 197.859375 239.335938 C 198.855469 239.335938 199.660156 238.53125 199.660156 237.539062 "/>
<path fill-rule="evenodd" fill="rgb(0%, 0%, 0%)" fill-opacity="1" d="M 212.207031 235.558594 C 212.207031 234.566406 211.402344 233.761719 210.410156 233.761719 C 209.417969 233.761719 208.609375 234.566406 208.609375 235.558594 C 208.609375 236.554688 209.417969 237.359375 210.410156 237.359375 C 211.402344 237.359375 212.207031 236.554688 212.207031 235.558594 "/>
<path fill-rule="evenodd" fill="rgb(0%, 0%, 0%)" fill-opacity="1" d="M 210.808594 256.117188 C 210.808594 255.125 210.003906 254.320312 209.007812 254.320312 C 208.015625 254.320312 207.210938 255.125 207.210938 256.117188 C 207.210938 257.113281 208.015625 257.917969 209.007812 257.917969 C 210.003906 257.917969 210.808594 257.113281 210.808594 256.117188 "/>
<g clip-path="url(#clip-1)">
<path fill-rule="evenodd" fill="rgb(0%, 0%, 0%)" fill-opacity="1" d="M 175.132812 261.320312 C 175.132812 260.328125 174.328125 259.523438 173.335938 259.523438 C 172.339844 259.523438 171.535156 260.328125 171.535156 261.320312 C 171.535156 262.316406 172.339844 263.121094 173.335938 263.121094 C 174.328125 263.121094 175.132812 262.316406 175.132812 261.320312 "/>
</g>
<path fill-rule="evenodd" fill="rgb(0%, 0%, 0%)" fill-opacity="1" d="M 254.347656 123.417969 C 254.347656 122.425781 253.542969 121.621094 252.550781 121.621094 C 251.558594 121.621094 250.75 122.425781 250.75 123.417969 C 250.75 124.410156 251.558594 125.21875 252.550781 125.21875 C 253.542969 125.21875 254.347656 124.410156 254.347656 123.417969 "/>
<path fill-rule="evenodd" fill="rgb(0%, 0%, 0%)" fill-opacity="1" d="M 252.734375 135.421875 C 252.734375 134.429688 251.929688 133.625 250.933594 133.625 C 249.941406 133.625 249.136719 134.429688 249.136719 135.421875 C 249.136719 136.417969 249.941406 137.222656 250.933594 137.222656 C 251.929688 137.222656 252.734375 136.417969 252.734375 135.421875 "/>
<path fill-rule="evenodd" fill="rgb(0%, 0%, 0%)" fill-opacity="1" d="M 263.5 211.636719 C 263.5 210.644531 262.695312 209.835938 261.699219 209.835938 C 260.707031 209.835938 259.902344 210.644531 259.902344 211.636719 C 259.902344 212.628906 260.707031 213.433594 261.699219 213.433594 C 262.695312 213.433594 263.5 212.628906 263.5 211.636719 "/>
<path fill-rule="evenodd" fill="rgb(0%, 0%, 0%)" fill-opacity="1" d="M 223.03125 25.441406 C 223.03125 24.449219 222.226562 23.644531 221.230469 23.644531 C 220.238281 23.644531 219.433594 24.449219 219.433594 25.441406 C 219.433594 26.433594 220.238281 27.242188 221.230469 27.242188 C 222.226562 27.242188 223.03125 26.433594 223.03125 25.441406 "/>
<g clip-path="url(#clip-2)">
<path fill-rule="evenodd" fill="rgb(0%, 0%, 0%)" fill-opacity="1" d="M 211.023438 2.574219 C 211.023438 1.582031 210.21875 0.777344 209.226562 0.777344 C 208.234375 0.777344 207.425781 1.582031 207.425781 2.574219 C 207.425781 3.566406 208.234375 4.375 209.226562 4.375 C 210.21875 4.375 211.023438 3.566406 211.023438 2.574219 "/>
</g>
<path fill-rule="evenodd" fill="rgb(0%, 0%, 0%)" fill-opacity="1" d="M 84.9375 37.328125 C 84.9375 36.332031 84.132812 35.527344 83.140625 35.527344 C 82.148438 35.527344 81.339844 36.332031 81.339844 37.328125 C 81.339844 38.320312 82.148438 39.125 83.140625 39.125 C 84.132812 39.125 84.9375 38.320312 84.9375 37.328125 "/>
<path fill-rule="evenodd" fill="rgb(0%, 0%, 0%)" fill-opacity="1" d="M 60.785156 9.886719 C 60.785156 8.894531 59.980469 8.085938 58.988281 8.085938 C 57.996094 8.085938 57.1875 8.894531 57.1875 9.886719 C 57.1875 10.878906 57.996094 11.683594 58.988281 11.683594 C 59.980469 11.683594 60.785156 10.878906 60.785156 9.886719 "/>
<path fill-rule="evenodd" fill="rgb(0%, 0%, 0%)" fill-opacity="1" d="M 4.296875 80.351562 C 4.296875 79.355469 3.492188 78.550781 2.5 78.550781 C 1.503906 78.550781 0.699219 79.355469 0.699219 80.351562 C 0.699219 81.34375 1.503906 82.148438 2.5 82.148438 C 3.492188 82.148438 4.296875 81.34375 4.296875 80.351562 "/>
<path fill-rule="evenodd" fill="rgb(0%, 0%, 0%)" fill-opacity="1" d="M 36.558594 32.648438 C 36.558594 31.65625 35.753906 30.851562 34.757812 30.851562 C 33.765625 30.851562 32.960938 31.65625 32.960938 32.648438 C 32.960938 33.644531 33.765625 34.449219 34.757812 34.449219 C 35.753906 34.449219 36.558594 33.644531 36.558594 32.648438 "/>
</svg>
