<?xml version="1.0" encoding="UTF-8"?>
<svg xmlns="http://www.w3.org/2000/svg" xmlns:xlink="http://www.w3.org/1999/xlink" width="187.99" height="187.99" viewBox="0 0 187.99 187.99">
<defs>
<clipPath id="clip-0">
<path clip-rule="nonzero" d="M 0 0 L 187.980469 0 L 187.980469 187.980469 L 0 187.980469 Z M 0 0 "/>
</clipPath>
</defs>
<g clip-path="url(#clip-0)">
<path fill-rule="evenodd" fill="rgb(67.799377%, 84.698486%, 90.19928%)" fill-opacity="1" stroke-width="0.4" stroke-linecap="butt" stroke-linejoin="round" stroke="rgb(0%, 0%, 100%)" stroke-opacity="1" stroke-miterlimit="10" d="M 293.296212 264.001719 C 293.296212 315.527897 251.524459 357.295744 199.998281 357.295744 C 148.472103 357.295744 106.704256 315.527897 106.704256 264.001719 C 106.704256 212.475541 148.472103 170.703788 199.998281 170.703788 C 251.524459 170.703788 293.296212 212.475541 293.296212 264.001719 " transform="matrix(0.999947, 0, 0, -0.999947, -105.999361, 357.975958)"/>
</g>
<path fill-rule="evenodd" fill="rgb(100%, 100%, 100%)" fill-opacity="1" stroke-width="2" stroke-linecap="butt" stroke-linejoin="round" stroke="rgb(0%, 0%, 100%)" stroke-opacity="1" stroke-miterlimit="10" d="M 246.6492 264.001719 C 246.6492 289.764808 225.76137 310.648732 199.998281 310.648732 C 174.235192 310.648732 153.351268 289.764808 153.351268 264.001719 C 153.351268 238.23863 174.235192 217.3508 199.998281 217.3508 C 225.76137 217.3508 246.6492 238.23863 246.6492 264.001719 " transform="matrix(0.999947, 0, 0, -0.999947, -105.999361, 357.975958)"/>
<path fill="none" stroke-width="2" stroke-linecap="butt" stroke-linejoin="round" stroke="rgb(100%, 0%, 0%)" stroke-opacity="1" stroke-miterlimit="10" d="M 254.411331 264.001719 C 254.411331 294.050192 230.050661 318.410863 199.998281 318.410863 C 169.949808 318.410863 145.589137 294.050192 145.589137 264.001719 C 145.589137 233.949339 169.949808 209.588669 199.998281 209.588669 C 230.050661 209.588669 254.411331 233.949339 254.411331 264.001719 " transform="matrix(0.999947, 0, 0, -0.999947, -105.999361, 357.975958)"/>
</svg>
