<?xml version="1.0" encoding="UTF-8"?>
<svg xmlns="http://www.w3.org/2000/svg" xmlns:xlink="http://www.w3.org/1999/xlink" width="189.092" height="189.092" viewBox="0 0 189.092 189.092">
<path fill-rule="evenodd" fill="rgb(67.799377%, 84.698486%, 90.19928%)" fill-opacity="1" stroke-width="0.4" stroke-linecap="butt" stroke-linejoin="round" stroke="rgb(0%, 0%, 100%)" stroke-opacity="1" stroke-miterlimit="10" d="M 293.296004 263.999422 C 293.296004 315.526919 251.526076 357.296848 199.998578 357.296848 C 148.475006 357.296848 106.705077 315.526919 106.705077 263.999422 C 106.705077 212.475849 148.475006 170.705921 199.998578 170.705921 C 251.526076 170.705921 293.296004 212.475849 293.296004 263.999422 " transform="matrix(0.995221, 0, 0, -0.995221, -104.949046, 356.831532)"/>
<path fill-rule="evenodd" fill="rgb(100%, 100%, 100%)" fill-opacity="1" stroke-width="2" stroke-linecap="butt" stroke-linejoin="round" stroke="rgb(0%, 0%, 100%)" stroke-opacity="1" stroke-miterlimit="10" d="M 246.647291 263.999422 C 246.647291 289.76317 225.762327 310.648135 199.998578 310.648135 C 174.238755 310.648135 153.35379 289.76317 153.35379 263.999422 C 153.35379 238.235673 174.238755 217.350709 199.998578 217.350709 C 225.762327 217.350709 246.647291 238.235673 246.647291 263.999422 " transform="matrix(0.995221, 0, 0, -0.995221, -104.949046, 356.831532)"/>
<path fill="none" stroke-width="2" stroke-linecap="butt" stroke-linejoin="round" stroke="rgb(100%, 0%, 0%)" stroke-opacity="1" stroke-miterlimit="10" d="M 293.044804 263.999422 C 293.044804 315.385619 251.3887 357.045647 199.998578 357.045647 C 148.612381 357.045647 106.952353 315.385619 106.952353 263.999422 C 106.952353 212.6093 148.612381 170.953196 199.998578 170.953196 C 251.3887 170.953196 293.044804 212.6093 293.044804 263.999422 " transform="matrix(0.995221, 0, 0, -0.995221, -104.949046, 356.831532)"/>
</svg>
