<?xml version="1.0" encoding="UTF-8"?>
<svg xmlns="http://www.w3.org/2000/svg" xmlns:xlink="http://www.w3.org/1999/xlink" width="283.7794" height="264.382" viewBox="0 0 283.7794 264.382">
<defs>
<clipPath id="clip-0">
<path clip-rule="nonzero" d="M 91 168 L 187 168 L 187 263.765625 L 91 263.765625 Z M 91 168 "/>
</clipPath>
<clipPath id="clip-1">
<path clip-rule="nonzero" d="M 0.222656 78 L 5 78 L 5 82 L 0.222656 82 Z M 0.222656 78 "/>
</clipPath>
</defs>
<path fill-rule="evenodd" fill="rgb(67.799377%, 84.698486%, 90.19928%)" fill-opacity="1" stroke-width="0.4" stroke-linecap="butt" stroke-linejoin="round" stroke="rgb(0%, 0%, 100%)" stroke-opacity="1" stroke-miterlimit="10" d="M 293.295297 264.001057 C 293.295297 315.527471 251.526013 357.296755 199.999599 357.296755 C 148.473186 357.296755 106.703902 315.527471 106.703902 264.001057 C 106.703902 212.474644 148.473186 170.705359 199.999599 170.705359 C 251.526013 170.705359 293.295297 212.474644 293.295297 264.001057 " transform="matrix(0.997668, 0, 0, -0.997668, -60.646466, 398.50648)"/>
<path fill-rule="evenodd" fill="rgb(100%, 60.099792%, 60.099792%)" fill-opacity="1" d="M 138.886719 54.515625 L 162.15625 14.210938 L 185.425781 54.515625 Z M 138.886719 54.515625 "/>
<path fill-rule="evenodd" fill="rgb(100%, 60.099792%, 60.099792%)" fill-opacity="1" d="M 45.808594 54.515625 L 92.347656 54.515625 L 69.257812 94.820312 Z M 45.808594 54.515625 "/>
<path fill-rule="evenodd" fill="rgb(56.498718%, 93.299866%, 56.498718%)" fill-opacity="1" d="M 232.128906 54.796875 L 208.695312 94.820312 L 254.269531 94.644531 Z M 232.128906 54.796875 "/>
<path fill-rule="evenodd" fill="rgb(56.498718%, 93.299866%, 56.498718%)" fill-opacity="1" d="M 162.15625 14.210938 L 115.617188 14.210938 L 139.492188 53.910156 Z M 162.15625 14.210938 "/>
<path fill-rule="evenodd" fill="rgb(56.498718%, 93.299866%, 56.498718%)" fill-opacity="1" d="M 115.617188 256.035156 L 138.886719 215.730469 L 162.15625 256.035156 Z M 115.617188 256.035156 "/>
<path fill-rule="evenodd" fill="rgb(56.498718%, 93.299866%, 56.498718%)" fill-opacity="1" d="M 22.539062 175.425781 L 69.078125 175.425781 L 45.808594 215.730469 Z M 22.539062 175.425781 "/>
<path fill-rule="evenodd" fill="rgb(56.498718%, 93.299866%, 56.498718%)" fill-opacity="1" d="M 45.808594 54.515625 L 69.167969 94.664062 L 22.539062 94.820312 Z M 45.808594 54.515625 "/>
<path fill-rule="evenodd" fill="rgb(100%, 100%, 100%)" fill-opacity="1" stroke-width="2" stroke-linecap="butt" stroke-linejoin="round" stroke="rgb(0%, 0%, 100%)" stroke-opacity="1" stroke-miterlimit="10" d="M 246.647448 264.001057 C 246.647448 289.764264 225.762806 310.648906 199.999599 310.648906 C 174.236392 310.648906 153.35175 289.764264 153.35175 264.001057 C 153.35175 238.23785 174.236392 217.353208 199.999599 217.353208 C 225.762806 217.353208 246.647448 238.23785 246.647448 264.001057 " transform="matrix(0.997668, 0, 0, -0.997668, -60.646466, 398.50648)"/>
<path fill-rule="evenodd" fill="rgb(0%, 0%, 0%)" fill-opacity="1" d="M 192.671875 147.09375 C 192.671875 146.101562 191.867188 145.296875 190.875 145.296875 C 189.882812 145.296875 189.078125 146.101562 189.078125 147.09375 C 189.078125 148.085938 189.882812 148.890625 190.875 148.890625 C 191.867188 148.890625 192.671875 148.085938 192.671875 147.09375 "/>
<path fill-rule="evenodd" fill="rgb(0%, 0%, 0%)" fill-opacity="1" d="M 206.953125 158.070312 C 206.953125 157.078125 206.148438 156.273438 205.160156 156.273438 C 204.167969 156.273438 203.363281 157.078125 203.363281 158.070312 C 203.363281 159.058594 204.167969 159.863281 205.160156 159.863281 C 206.148438 159.863281 206.953125 159.058594 206.953125 158.070312 "/>
<path fill-rule="evenodd" fill="rgb(0%, 0%, 0%)" fill-opacity="1" d="M 219.441406 153.578125 C 219.441406 152.585938 218.636719 151.78125 217.644531 151.78125 C 216.652344 151.78125 215.847656 152.585938 215.847656 153.578125 C 215.847656 154.570312 216.652344 155.375 217.644531 155.375 C 218.636719 155.375 219.441406 154.570312 219.441406 153.578125 "/>
<path fill-rule="evenodd" fill="rgb(0%, 0%, 0%)" fill-opacity="1" d="M 210.597656 143.101562 C 210.597656 142.113281 209.792969 141.308594 208.800781 141.308594 C 207.808594 141.308594 207.007812 142.113281 207.007812 143.101562 C 207.007812 144.09375 207.808594 144.898438 208.800781 144.898438 C 209.792969 144.898438 210.597656 144.09375 210.597656 143.101562 "/>
<path fill-rule="evenodd" fill="rgb(0%, 0%, 0%)" fill-opacity="1" d="M 228.074219 141.605469 C 228.074219 140.617188 227.269531 139.8125 226.277344 139.8125 C 225.285156 139.8125 224.480469 140.617188 224.480469 141.605469 C 224.480469 142.597656 225.285156 143.402344 226.277344 143.402344 C 227.269531 143.402344 228.074219 142.597656 228.074219 141.605469 "/>
<path fill-rule="evenodd" fill="rgb(0%, 0%, 0%)" fill-opacity="1" d="M 217.425781 128.636719 C 217.425781 127.644531 216.621094 126.839844 215.628906 126.839844 C 214.636719 126.839844 213.832031 127.644531 213.832031 128.636719 C 213.832031 129.628906 214.636719 130.433594 215.628906 130.433594 C 216.621094 130.433594 217.425781 129.628906 217.425781 128.636719 "/>
<path fill-rule="evenodd" fill="rgb(0%, 0%, 0%)" fill-opacity="1" d="M 200.957031 129.636719 C 200.957031 128.644531 200.152344 127.839844 199.160156 127.839844 C 198.167969 127.839844 197.363281 128.644531 197.363281 129.636719 C 197.363281 130.625 198.167969 131.429688 199.160156 131.429688 C 200.152344 131.429688 200.957031 130.625 200.957031 129.636719 "/>
<path fill-rule="evenodd" fill="rgb(0%, 0%, 0%)" fill-opacity="1" d="M 179.964844 126.640625 C 179.964844 125.648438 179.160156 124.847656 178.171875 124.847656 C 177.179688 124.847656 176.375 125.648438 176.375 126.640625 C 176.375 127.632812 177.179688 128.4375 178.171875 128.4375 C 179.160156 128.4375 179.964844 127.632812 179.964844 126.640625 "/>
<path fill-rule="evenodd" fill="rgb(0%, 0%, 0%)" fill-opacity="1" d="M 165.566406 136.617188 C 165.566406 135.628906 164.761719 134.824219 163.769531 134.824219 C 162.777344 134.824219 161.972656 135.628906 161.972656 136.617188 C 161.972656 137.609375 162.777344 138.414062 163.769531 138.414062 C 164.761719 138.414062 165.566406 137.609375 165.566406 136.617188 "/>
<path fill-rule="evenodd" fill="rgb(0%, 0%, 0%)" fill-opacity="1" d="M 152.082031 138.113281 C 152.082031 137.125 151.277344 136.320312 150.285156 136.320312 C 149.292969 136.320312 148.492188 137.125 148.492188 138.113281 C 148.492188 139.105469 149.292969 139.910156 150.285156 139.910156 C 151.277344 139.910156 152.082031 139.105469 152.082031 138.113281 "/>
<path fill-rule="evenodd" fill="rgb(0%, 0%, 0%)" fill-opacity="1" d="M 162.207031 149.589844 C 162.207031 148.597656 161.402344 147.792969 160.410156 147.792969 C 159.417969 147.792969 158.613281 148.597656 158.613281 149.589844 C 158.613281 150.578125 159.417969 151.382812 160.410156 151.382812 C 161.402344 151.382812 162.207031 150.578125 162.207031 149.589844 "/>
<path fill-rule="evenodd" fill="rgb(0%, 0%, 0%)" fill-opacity="1" d="M 147.09375 151.582031 C 147.09375 150.59375 146.289062 149.789062 145.296875 149.789062 C 144.304688 149.789062 143.503906 150.59375 143.503906 151.582031 C 143.503906 152.574219 144.304688 153.378906 145.296875 153.378906 C 146.289062 153.378906 147.09375 152.574219 147.09375 151.582031 "/>
<path fill-rule="evenodd" fill="rgb(0%, 0%, 0%)" fill-opacity="1" d="M 156.566406 164.054688 C 156.566406 163.0625 155.761719 162.257812 154.773438 162.257812 C 153.78125 162.257812 152.976562 163.0625 152.976562 164.054688 C 152.976562 165.046875 153.78125 165.851562 154.773438 165.851562 C 155.761719 165.851562 156.566406 165.046875 156.566406 164.054688 "/>
<path fill-rule="evenodd" fill="rgb(0%, 0%, 0%)" fill-opacity="1" d="M 141.75 165.050781 C 141.75 164.058594 140.945312 163.257812 139.953125 163.257812 C 138.964844 163.257812 138.160156 164.058594 138.160156 165.050781 C 138.160156 166.042969 138.964844 166.847656 139.953125 166.847656 C 140.945312 166.847656 141.75 166.042969 141.75 165.050781 "/>
<path fill-rule="evenodd" fill="rgb(0%, 0%, 0%)" fill-opacity="1" d="M 149.097656 176.523438 C 149.097656 175.535156 148.292969 174.730469 147.300781 174.730469 C 146.308594 174.730469 145.503906 175.535156 145.503906 176.523438 C 145.503906 177.515625 146.308594 178.320312 147.300781 178.320312 C 148.292969 178.320312 149.097656 177.515625 149.097656 176.523438 "/>
<path fill-rule="evenodd" fill="rgb(0%, 0%, 0%)" fill-opacity="1" d="M 139.222656 175.027344 C 139.222656 174.039062 138.417969 173.234375 137.425781 173.234375 C 136.433594 173.234375 135.628906 174.039062 135.628906 175.027344 C 135.628906 176.019531 136.433594 176.824219 137.425781 176.824219 C 138.417969 176.824219 139.222656 176.019531 139.222656 175.027344 "/>
<path fill-rule="evenodd" fill="rgb(0%, 0%, 0%)" fill-opacity="1" d="M 137.097656 187.5 C 137.097656 186.507812 136.292969 185.703125 135.300781 185.703125 C 134.308594 185.703125 133.503906 186.507812 133.503906 187.5 C 133.503906 188.492188 134.308594 189.296875 135.300781 189.296875 C 136.292969 189.296875 137.097656 188.492188 137.097656 187.5 "/>
<path fill-rule="evenodd" fill="rgb(0%, 0%, 0%)" fill-opacity="1" d="M 154.726562 189.992188 C 154.726562 189.003906 153.925781 188.199219 152.933594 188.199219 C 151.941406 188.199219 151.136719 189.003906 151.136719 189.992188 C 151.136719 190.984375 151.941406 191.789062 152.933594 191.789062 C 153.925781 191.789062 154.726562 190.984375 154.726562 189.992188 "/>
<path fill-rule="evenodd" fill="rgb(0%, 0%, 0%)" fill-opacity="1" d="M 163.550781 177.523438 C 163.550781 176.53125 162.746094 175.726562 161.753906 175.726562 C 160.765625 175.726562 159.960938 176.53125 159.960938 177.523438 C 159.960938 178.515625 160.765625 179.320312 161.753906 179.320312 C 162.746094 179.320312 163.550781 178.515625 163.550781 177.523438 "/>
<path fill-rule="evenodd" fill="rgb(0%, 0%, 0%)" fill-opacity="1" d="M 176.539062 180.015625 C 176.539062 179.027344 175.734375 178.222656 174.746094 178.222656 C 173.753906 178.222656 172.949219 179.027344 172.949219 180.015625 C 172.949219 181.007812 173.753906 181.8125 174.746094 181.8125 C 175.734375 181.8125 176.539062 181.007812 176.539062 180.015625 "/>
<path fill-rule="evenodd" fill="rgb(0%, 0%, 0%)" fill-opacity="1" d="M 176.210938 162.558594 C 176.210938 161.566406 175.410156 160.761719 174.417969 160.761719 C 173.425781 160.761719 172.621094 161.566406 172.621094 162.558594 C 172.621094 163.550781 173.425781 164.355469 174.417969 164.355469 C 175.410156 164.355469 176.210938 163.550781 176.210938 162.558594 "/>
<path fill-rule="evenodd" fill="rgb(0%, 0%, 0%)" fill-opacity="1" d="M 189.5 176.523438 C 189.5 175.535156 188.695312 174.730469 187.703125 174.730469 C 186.710938 174.730469 185.90625 175.535156 185.90625 176.523438 C 185.90625 177.515625 186.710938 178.320312 187.703125 178.320312 C 188.695312 178.320312 189.5 177.515625 189.5 176.523438 "/>
<path fill-rule="evenodd" fill="rgb(0%, 0%, 0%)" fill-opacity="1" d="M 193.992188 163.554688 C 193.992188 162.5625 193.1875 161.761719 192.195312 161.761719 C 191.203125 161.761719 190.402344 162.5625 190.402344 163.554688 C 190.402344 164.546875 191.203125 165.351562 192.195312 165.351562 C 193.1875 165.351562 193.992188 164.546875 193.992188 163.554688 "/>
<path fill-rule="evenodd" fill="rgb(0%, 0%, 0%)" fill-opacity="1" d="M 203.960938 173.53125 C 203.960938 172.539062 203.15625 171.738281 202.164062 171.738281 C 201.171875 171.738281 200.371094 172.539062 200.371094 173.53125 C 200.371094 174.523438 201.171875 175.328125 202.164062 175.328125 C 203.15625 175.328125 203.960938 174.523438 203.960938 173.53125 "/>
<path fill-rule="evenodd" fill="rgb(0%, 0%, 0%)" fill-opacity="1" d="M 220.890625 169.542969 C 220.890625 168.550781 220.085938 167.746094 219.09375 167.746094 C 218.101562 167.746094 217.300781 168.550781 217.300781 169.542969 C 217.300781 170.535156 218.101562 171.335938 219.09375 171.335938 C 220.085938 171.335938 220.890625 170.535156 220.890625 169.542969 "/>
<path fill-rule="evenodd" fill="rgb(0%, 0%, 0%)" fill-opacity="1" d="M 213.101562 186.503906 C 213.101562 185.511719 212.296875 184.707031 211.304688 184.707031 C 210.3125 184.707031 209.507812 185.511719 209.507812 186.503906 C 209.507812 187.492188 210.3125 188.296875 211.304688 188.296875 C 212.296875 188.296875 213.101562 187.492188 213.101562 186.503906 "/>
<path fill-rule="evenodd" fill="rgb(0%, 0%, 0%)" fill-opacity="1" d="M 198.992188 185.503906 C 198.992188 184.511719 198.1875 183.707031 197.195312 183.707031 C 196.203125 183.707031 195.398438 184.511719 195.398438 185.503906 C 195.398438 186.496094 196.203125 187.300781 197.195312 187.300781 C 198.1875 187.300781 198.992188 186.496094 198.992188 185.503906 "/>
<path fill-rule="evenodd" fill="rgb(0%, 0%, 0%)" fill-opacity="1" d="M 185.667969 192.488281 C 185.667969 191.496094 184.863281 190.691406 183.871094 190.691406 C 182.878906 190.691406 182.074219 191.496094 182.074219 192.488281 C 182.074219 193.480469 182.878906 194.285156 183.871094 194.285156 C 184.863281 194.285156 185.667969 193.480469 185.667969 192.488281 "/>
<path fill-rule="evenodd" fill="rgb(0%, 0%, 0%)" fill-opacity="1" d="M 169.546875 190.992188 C 169.546875 190 168.742188 189.195312 167.75 189.195312 C 166.757812 189.195312 165.953125 190 165.953125 190.992188 C 165.953125 191.984375 166.757812 192.789062 167.75 192.789062 C 168.742188 192.789062 169.546875 191.984375 169.546875 190.992188 "/>
<path fill-rule="evenodd" fill="rgb(0%, 0%, 0%)" fill-opacity="1" d="M 161.710938 203.460938 C 161.710938 202.472656 160.90625 201.667969 159.914062 201.667969 C 158.925781 201.667969 158.121094 202.472656 158.121094 203.460938 C 158.121094 204.453125 158.925781 205.257812 159.914062 205.257812 C 160.90625 205.257812 161.710938 204.453125 161.710938 203.460938 "/>
<path fill-rule="evenodd" fill="rgb(0%, 0%, 0%)" fill-opacity="1" d="M 175.046875 202.964844 C 175.046875 201.972656 174.242188 201.167969 173.25 201.167969 C 172.261719 201.167969 171.457031 201.972656 171.457031 202.964844 C 171.457031 203.957031 172.261719 204.757812 173.25 204.757812 C 174.242188 204.757812 175.046875 203.957031 175.046875 202.964844 "/>
<path fill-rule="evenodd" fill="rgb(0%, 0%, 0%)" fill-opacity="1" d="M 149.25 110.679688 C 149.25 109.6875 148.445312 108.882812 147.453125 108.882812 C 146.460938 108.882812 145.65625 109.6875 145.65625 110.679688 C 145.65625 111.671875 146.460938 112.476562 147.453125 112.476562 C 148.445312 112.476562 149.25 111.671875 149.25 110.679688 "/>
<path fill-rule="evenodd" fill="rgb(0%, 0%, 0%)" fill-opacity="1" d="M 159.226562 123.648438 C 159.226562 122.65625 158.421875 121.851562 157.429688 121.851562 C 156.4375 121.851562 155.632812 122.65625 155.632812 123.648438 C 155.632812 124.640625 156.4375 125.445312 157.429688 125.445312 C 158.421875 125.445312 159.226562 124.640625 159.226562 123.648438 "/>
<path fill-rule="evenodd" fill="rgb(0%, 0%, 0%)" fill-opacity="1" d="M 143.597656 126.144531 C 143.597656 125.152344 142.792969 124.347656 141.800781 124.347656 C 140.8125 124.347656 140.007812 125.152344 140.007812 126.144531 C 140.007812 127.136719 140.8125 127.9375 141.800781 127.9375 C 142.792969 127.9375 143.597656 127.136719 143.597656 126.144531 "/>
<path fill-rule="evenodd" fill="rgb(0%, 0%, 0%)" fill-opacity="1" d="M 128.78125 128.136719 C 128.78125 127.148438 127.976562 126.34375 126.984375 126.34375 C 125.992188 126.34375 125.1875 127.148438 125.1875 128.136719 C 125.1875 129.128906 125.992188 129.933594 126.984375 129.933594 C 127.976562 129.933594 128.78125 129.128906 128.78125 128.136719 "/>
<path fill-rule="evenodd" fill="rgb(0%, 0%, 0%)" fill-opacity="1" d="M 137.613281 140.109375 C 137.613281 139.117188 136.808594 138.316406 135.816406 138.316406 C 134.824219 138.316406 134.019531 139.117188 134.019531 140.109375 C 134.019531 141.101562 134.824219 141.90625 135.816406 141.90625 C 136.808594 141.90625 137.613281 141.101562 137.613281 140.109375 "/>
<path fill-rule="evenodd" fill="rgb(0%, 0%, 0%)" fill-opacity="1" d="M 122.648438 141.605469 C 122.648438 140.617188 121.84375 139.8125 120.851562 139.8125 C 119.859375 139.8125 119.054688 140.617188 119.054688 141.605469 C 119.054688 142.597656 119.859375 143.402344 120.851562 143.402344 C 121.84375 143.402344 122.648438 142.597656 122.648438 141.605469 "/>
<path fill-rule="evenodd" fill="rgb(0%, 0%, 0%)" fill-opacity="1" d="M 116.6875 130.632812 C 116.6875 129.640625 115.882812 128.835938 114.890625 128.835938 C 113.902344 128.835938 113.097656 129.640625 113.097656 130.632812 C 113.097656 131.625 113.902344 132.429688 114.890625 132.429688 C 115.882812 132.429688 116.6875 131.625 116.6875 130.632812 "/>
<path fill-rule="evenodd" fill="rgb(0%, 0%, 0%)" fill-opacity="1" d="M 107.207031 126.144531 C 107.207031 125.152344 106.402344 124.347656 105.410156 124.347656 C 104.417969 124.347656 103.613281 125.152344 103.613281 126.144531 C 103.613281 127.136719 104.417969 127.9375 105.410156 127.9375 C 106.402344 127.9375 107.207031 127.136719 107.207031 126.144531 "/>
<path fill-rule="evenodd" fill="rgb(0%, 0%, 0%)" fill-opacity="1" d="M 94.859375 128.636719 C 94.859375 127.644531 94.054688 126.839844 93.0625 126.839844 C 92.074219 126.839844 91.269531 127.644531 91.269531 128.636719 C 91.269531 129.628906 92.074219 130.433594 93.0625 130.433594 C 94.054688 130.433594 94.859375 129.628906 94.859375 128.636719 "/>
<path fill-rule="evenodd" fill="rgb(0%, 0%, 0%)" fill-opacity="1" d="M 79.902344 131.132812 C 79.902344 130.140625 79.097656 129.335938 78.105469 129.335938 C 77.117188 129.335938 76.3125 130.140625 76.3125 131.132812 C 76.3125 132.125 77.117188 132.925781 78.105469 132.925781 C 79.097656 132.925781 79.902344 132.125 79.902344 131.132812 "/>
<path fill-rule="evenodd" fill="rgb(0%, 0%, 0%)" fill-opacity="1" d="M 63.277344 132.628906 C 63.277344 131.636719 62.472656 130.832031 61.480469 130.832031 C 60.492188 130.832031 59.6875 131.636719 59.6875 132.628906 C 59.6875 133.621094 60.492188 134.421875 61.480469 134.421875 C 62.472656 134.421875 63.277344 133.621094 63.277344 132.628906 "/>
<path fill-rule="evenodd" fill="rgb(0%, 0%, 0%)" fill-opacity="1" d="M 52.476562 145.597656 C 52.476562 144.605469 51.671875 143.800781 50.679688 143.800781 C 49.6875 143.800781 48.882812 144.605469 48.882812 145.597656 C 48.882812 146.589844 49.6875 147.394531 50.679688 147.394531 C 51.671875 147.394531 52.476562 146.589844 52.476562 145.597656 "/>
<path fill-rule="evenodd" fill="rgb(0%, 0%, 0%)" fill-opacity="1" d="M 56.929688 158.566406 C 56.929688 157.574219 56.125 156.773438 55.132812 156.773438 C 54.140625 156.773438 53.339844 157.574219 53.339844 158.566406 C 53.339844 159.558594 54.140625 160.363281 55.132812 160.363281 C 56.125 160.363281 56.929688 159.558594 56.929688 158.566406 "/>
<path fill-rule="evenodd" fill="rgb(0%, 0%, 0%)" fill-opacity="1" d="M 73.203125 151.582031 C 73.203125 150.59375 72.398438 149.789062 71.40625 149.789062 C 70.417969 149.789062 69.613281 150.59375 69.613281 151.582031 C 69.613281 152.574219 70.417969 153.378906 71.40625 153.378906 C 72.398438 153.378906 73.203125 152.574219 73.203125 151.582031 "/>
<path fill-rule="evenodd" fill="rgb(0%, 0%, 0%)" fill-opacity="1" d="M 62.941406 170.039062 C 62.941406 169.050781 62.136719 168.246094 61.148438 168.246094 C 60.15625 168.246094 59.351562 169.050781 59.351562 170.039062 C 59.351562 171.03125 60.15625 171.835938 61.148438 171.835938 C 62.136719 171.835938 62.941406 171.03125 62.941406 170.039062 "/>
<path fill-rule="evenodd" fill="rgb(0%, 0%, 0%)" fill-opacity="1" d="M 83.179688 176.523438 C 83.179688 175.535156 82.375 174.730469 81.382812 174.730469 C 80.394531 174.730469 79.589844 175.535156 79.589844 176.523438 C 79.589844 177.515625 80.394531 178.320312 81.382812 178.320312 C 82.375 178.320312 83.179688 177.515625 83.179688 176.523438 "/>
<path fill-rule="evenodd" fill="rgb(0%, 0%, 0%)" fill-opacity="1" d="M 95.6875 157.070312 C 95.6875 156.078125 94.882812 155.273438 93.890625 155.273438 C 92.898438 155.273438 92.09375 156.078125 92.09375 157.070312 C 92.09375 158.0625 92.898438 158.867188 93.890625 158.867188 C 94.882812 158.867188 95.6875 158.0625 95.6875 157.070312 "/>
<path fill-rule="evenodd" fill="rgb(0%, 0%, 0%)" fill-opacity="1" d="M 90.367188 141.605469 C 90.367188 140.617188 89.5625 139.8125 88.570312 139.8125 C 87.578125 139.8125 86.773438 140.617188 86.773438 141.605469 C 86.773438 142.597656 87.578125 143.402344 88.570312 143.402344 C 89.5625 143.402344 90.367188 142.597656 90.367188 141.605469 "/>
<path fill-rule="evenodd" fill="rgb(0%, 0%, 0%)" fill-opacity="1" d="M 105.675781 140.609375 C 105.675781 139.617188 104.871094 138.8125 103.878906 138.8125 C 102.886719 138.8125 102.082031 139.617188 102.082031 140.609375 C 102.082031 141.601562 102.886719 142.40625 103.878906 142.40625 C 104.871094 142.40625 105.675781 141.601562 105.675781 140.609375 "/>
<path fill-rule="evenodd" fill="rgb(0%, 0%, 0%)" fill-opacity="1" d="M 114.652344 156.074219 C 114.652344 155.082031 113.851562 154.277344 112.859375 154.277344 C 111.867188 154.277344 111.0625 155.082031 111.0625 156.074219 C 111.0625 157.066406 111.867188 157.867188 112.859375 157.867188 C 113.851562 157.867188 114.652344 157.066406 114.652344 156.074219 "/>
<path fill-rule="evenodd" fill="rgb(0%, 0%, 0%)" fill-opacity="1" d="M 131.625 154.078125 C 131.625 153.085938 130.820312 152.28125 129.832031 152.28125 C 128.839844 152.28125 128.035156 153.085938 128.035156 154.078125 C 128.035156 155.070312 128.839844 155.875 129.832031 155.875 C 130.820312 155.875 131.625 155.070312 131.625 154.078125 "/>
<path fill-rule="evenodd" fill="rgb(0%, 0%, 0%)" fill-opacity="1" d="M 126.816406 171.535156 C 126.816406 170.546875 126.011719 169.742188 125.023438 169.742188 C 124.03125 169.742188 123.226562 170.546875 123.226562 171.535156 C 123.226562 172.527344 124.03125 173.332031 125.023438 173.332031 C 126.011719 173.332031 126.816406 172.527344 126.816406 171.535156 "/>
<path fill-rule="evenodd" fill="rgb(0%, 0%, 0%)" fill-opacity="1" d="M 106.863281 174.03125 C 106.863281 173.039062 106.058594 172.234375 105.066406 172.234375 C 104.078125 172.234375 103.273438 173.039062 103.273438 174.03125 C 103.273438 175.023438 104.078125 175.828125 105.066406 175.828125 C 106.058594 175.828125 106.863281 175.023438 106.863281 174.03125 "/>
<path fill-rule="evenodd" fill="rgb(0%, 0%, 0%)" fill-opacity="1" d="M 100.183594 192.488281 C 100.183594 191.496094 99.378906 190.691406 98.386719 190.691406 C 97.394531 190.691406 96.59375 191.496094 96.59375 192.488281 C 96.59375 193.480469 97.394531 194.285156 98.386719 194.285156 C 99.378906 194.285156 100.183594 193.480469 100.183594 192.488281 "/>
<path fill-rule="evenodd" fill="rgb(0%, 0%, 0%)" fill-opacity="1" d="M 118.644531 188.996094 C 118.644531 188.003906 117.839844 187.199219 116.847656 187.199219 C 115.855469 187.199219 115.054688 188.003906 115.054688 188.996094 C 115.054688 189.988281 115.855469 190.792969 116.847656 190.792969 C 117.839844 190.792969 118.644531 189.988281 118.644531 188.996094 "/>
<path fill-rule="evenodd" fill="rgb(0%, 0%, 0%)" fill-opacity="1" d="M 84.550781 19.890625 C 84.550781 18.898438 83.746094 18.09375 82.757812 18.09375 C 81.765625 18.09375 80.960938 18.898438 80.960938 19.890625 C 80.960938 20.882812 81.765625 21.6875 82.757812 21.6875 C 83.746094 21.6875 84.550781 20.882812 84.550781 19.890625 "/>
<path fill-rule="evenodd" fill="rgb(0%, 0%, 0%)" fill-opacity="1" d="M 47.671875 57.804688 C 47.671875 56.8125 46.871094 56.007812 45.878906 56.007812 C 44.886719 56.007812 44.082031 56.8125 44.082031 57.804688 C 44.082031 58.792969 44.886719 59.597656 45.878906 59.597656 C 46.871094 59.597656 47.671875 58.792969 47.671875 57.804688 "/>
<path fill-rule="evenodd" fill="rgb(0%, 0%, 0%)" fill-opacity="1" d="M 78.253906 74.265625 C 78.253906 73.273438 77.449219 72.46875 76.460938 72.46875 C 75.46875 72.46875 74.664062 73.273438 74.664062 74.265625 C 74.664062 75.257812 75.46875 76.058594 76.460938 76.058594 C 77.449219 76.058594 78.253906 75.257812 78.253906 74.265625 "/>
<path fill-rule="evenodd" fill="rgb(0%, 0%, 0%)" fill-opacity="1" d="M 93.714844 74.761719 C 93.714844 73.773438 92.910156 72.96875 91.917969 72.96875 C 90.925781 72.96875 90.125 73.773438 90.125 74.761719 C 90.125 75.753906 90.925781 76.558594 91.917969 76.558594 C 92.910156 76.558594 93.714844 75.753906 93.714844 74.761719 "/>
<path fill-rule="evenodd" fill="rgb(0%, 0%, 0%)" fill-opacity="1" d="M 86.421875 56.804688 C 86.421875 55.8125 85.617188 55.007812 84.628906 55.007812 C 83.636719 55.007812 82.832031 55.8125 82.832031 56.804688 C 82.832031 57.796875 83.636719 58.601562 84.628906 58.601562 C 85.617188 58.601562 86.421875 57.796875 86.421875 56.804688 "/>
<path fill-rule="evenodd" fill="rgb(0%, 0%, 0%)" fill-opacity="1" d="M 102.695312 47.828125 C 102.695312 46.835938 101.890625 46.03125 100.898438 46.03125 C 99.90625 46.03125 99.101562 46.835938 99.101562 47.828125 C 99.101562 48.816406 99.90625 49.621094 100.898438 49.621094 C 101.890625 49.621094 102.695312 48.816406 102.695312 47.828125 "/>
<path fill-rule="evenodd" fill="rgb(0%, 0%, 0%)" fill-opacity="1" d="M 104.6875 63.289062 C 104.6875 62.296875 103.886719 61.496094 102.894531 61.496094 C 101.902344 61.496094 101.097656 62.296875 101.097656 63.289062 C 101.097656 64.28125 101.902344 65.085938 102.894531 65.085938 C 103.886719 65.085938 104.6875 64.28125 104.6875 63.289062 "/>
<path fill-rule="evenodd" fill="rgb(0%, 0%, 0%)" fill-opacity="1" d="M 115.8125 53.3125 C 115.8125 52.320312 115.007812 51.515625 114.015625 51.515625 C 113.023438 51.515625 112.21875 52.320312 112.21875 53.3125 C 112.21875 54.304688 113.023438 55.109375 114.015625 55.109375 C 115.007812 55.109375 115.8125 54.304688 115.8125 53.3125 "/>
<path fill-rule="evenodd" fill="rgb(0%, 0%, 0%)" fill-opacity="1" d="M 118.179688 65.785156 C 118.179688 64.792969 117.375 63.988281 116.382812 63.988281 C 115.394531 63.988281 114.589844 64.792969 114.589844 65.785156 C 114.589844 66.777344 115.394531 67.578125 116.382812 67.578125 C 117.375 67.578125 118.179688 66.777344 118.179688 65.785156 "/>
<path fill-rule="evenodd" fill="rgb(0%, 0%, 0%)" fill-opacity="1" d="M 127.140625 74.761719 C 127.140625 73.773438 126.335938 72.96875 125.34375 72.96875 C 124.351562 72.96875 123.550781 73.773438 123.550781 74.761719 C 123.550781 75.753906 124.351562 76.558594 125.34375 76.558594 C 126.335938 76.558594 127.140625 75.753906 127.140625 74.761719 "/>
<path fill-rule="evenodd" fill="rgb(0%, 0%, 0%)" fill-opacity="1" d="M 110.652344 79.75 C 110.652344 78.761719 109.847656 77.957031 108.855469 77.957031 C 107.863281 77.957031 107.058594 78.761719 107.058594 79.75 C 107.058594 80.742188 107.863281 81.546875 108.855469 81.546875 C 109.847656 81.546875 110.652344 80.742188 110.652344 79.75 "/>
<path fill-rule="evenodd" fill="rgb(0%, 0%, 0%)" fill-opacity="1" d="M 97.351562 88.730469 C 97.351562 87.738281 96.546875 86.933594 95.554688 86.933594 C 94.5625 86.933594 93.757812 87.738281 93.757812 88.730469 C 93.757812 89.722656 94.5625 90.527344 95.554688 90.527344 C 96.546875 90.527344 97.351562 89.722656 97.351562 88.730469 "/>
<path fill-rule="evenodd" fill="rgb(0%, 0%, 0%)" fill-opacity="1" d="M 85.257812 85.738281 C 85.257812 84.746094 84.453125 83.941406 83.460938 83.941406 C 82.46875 83.941406 81.664062 84.746094 81.664062 85.738281 C 81.664062 86.730469 82.46875 87.535156 83.460938 87.535156 C 84.453125 87.535156 85.257812 86.730469 85.257812 85.738281 "/>
<path fill-rule="evenodd" fill="rgb(0%, 0%, 0%)" fill-opacity="1" d="M 86.75 96.214844 C 86.75 95.222656 85.945312 94.417969 84.953125 94.417969 C 83.960938 94.417969 83.160156 95.222656 83.160156 96.214844 C 83.160156 97.203125 83.960938 98.007812 84.953125 98.007812 C 85.945312 98.007812 86.75 97.203125 86.75 96.214844 "/>
<path fill-rule="evenodd" fill="rgb(0%, 0%, 0%)" fill-opacity="1" d="M 91.746094 106.191406 C 91.746094 105.199219 90.941406 104.394531 89.949219 104.394531 C 88.957031 104.394531 88.15625 105.199219 88.15625 106.191406 C 88.15625 107.179688 88.957031 107.984375 89.949219 107.984375 C 90.941406 107.984375 91.746094 107.179688 91.746094 106.191406 "/>
<path fill-rule="evenodd" fill="rgb(0%, 0%, 0%)" fill-opacity="1" d="M 98.304688 104.691406 C 98.304688 103.703125 97.5 102.898438 96.507812 102.898438 C 95.515625 102.898438 94.714844 103.703125 94.714844 104.691406 C 94.714844 105.683594 95.515625 106.488281 96.507812 106.488281 C 97.5 106.488281 98.304688 105.683594 98.304688 104.691406 "/>
<path fill-rule="evenodd" fill="rgb(0%, 0%, 0%)" fill-opacity="1" d="M 96.320312 99.207031 C 96.320312 98.214844 95.515625 97.410156 94.527344 97.410156 C 93.535156 97.410156 92.730469 98.214844 92.730469 99.207031 C 92.730469 100.199219 93.535156 101 94.527344 101 C 95.515625 101 96.320312 100.199219 96.320312 99.207031 "/>
<path fill-rule="evenodd" fill="rgb(0%, 0%, 0%)" fill-opacity="1" d="M 109.855469 99.207031 C 109.855469 98.214844 109.054688 97.410156 108.0625 97.410156 C 107.070312 97.410156 106.265625 98.214844 106.265625 99.207031 C 106.265625 100.199219 107.070312 101 108.0625 101 C 109.054688 101 109.855469 100.199219 109.855469 99.207031 "/>
<path fill-rule="evenodd" fill="rgb(0%, 0%, 0%)" fill-opacity="1" d="M 124.660156 104.195312 C 124.660156 103.203125 123.855469 102.398438 122.867188 102.398438 C 121.875 102.398438 121.070312 103.203125 121.070312 104.195312 C 121.070312 105.1875 121.875 105.992188 122.867188 105.992188 C 123.855469 105.992188 124.660156 105.1875 124.660156 104.195312 "/>
<path fill-rule="evenodd" fill="rgb(0%, 0%, 0%)" fill-opacity="1" d="M 124.796875 90.226562 C 124.796875 89.234375 123.992188 88.429688 123.003906 88.429688 C 122.011719 88.429688 121.207031 89.234375 121.207031 90.226562 C 121.207031 91.21875 122.011719 92.023438 123.003906 92.023438 C 123.992188 92.023438 124.796875 91.21875 124.796875 90.226562 "/>
<path fill-rule="evenodd" fill="rgb(0%, 0%, 0%)" fill-opacity="1" d="M 137.769531 99.703125 C 137.769531 98.714844 136.964844 97.910156 135.972656 97.910156 C 134.980469 97.910156 134.175781 98.714844 134.175781 99.703125 C 134.175781 100.695312 134.980469 101.5 135.972656 101.5 C 136.964844 101.5 137.769531 100.695312 137.769531 99.703125 "/>
<path fill-rule="evenodd" fill="rgb(0%, 0%, 0%)" fill-opacity="1" d="M 139.609375 84.242188 C 139.609375 83.25 138.804688 82.445312 137.8125 82.445312 C 136.820312 82.445312 136.015625 83.25 136.015625 84.242188 C 136.015625 85.234375 136.820312 86.035156 137.8125 86.035156 C 138.804688 86.035156 139.609375 85.234375 139.609375 84.242188 "/>
<path fill-rule="evenodd" fill="rgb(0%, 0%, 0%)" fill-opacity="1" d="M 152.734375 94.714844 C 152.734375 93.726562 151.929688 92.921875 150.9375 92.921875 C 149.945312 92.921875 149.140625 93.726562 149.140625 94.714844 C 149.140625 95.707031 149.945312 96.511719 150.9375 96.511719 C 151.929688 96.511719 152.734375 95.707031 152.734375 94.714844 "/>
<path fill-rule="evenodd" fill="rgb(0%, 0%, 0%)" fill-opacity="1" d="M 134.921875 2.929688 C 134.921875 1.941406 134.121094 1.136719 133.128906 1.136719 C 132.136719 1.136719 131.332031 1.941406 131.332031 2.929688 C 131.332031 3.921875 132.136719 4.726562 133.128906 4.726562 C 134.121094 4.726562 134.921875 3.921875 134.921875 2.929688 "/>
<path fill-rule="evenodd" fill="rgb(0%, 0%, 0%)" fill-opacity="1" d="M 117.132812 36.351562 C 117.132812 35.363281 116.328125 34.558594 115.335938 34.558594 C 114.34375 34.558594 113.542969 35.363281 113.542969 36.351562 C 113.542969 37.34375 114.34375 38.148438 115.335938 38.148438 C 116.328125 38.148438 117.132812 37.34375 117.132812 36.351562 "/>
<path fill-rule="evenodd" fill="rgb(0%, 0%, 0%)" fill-opacity="1" d="M 124.679688 47.828125 C 124.679688 46.835938 123.878906 46.03125 122.886719 46.03125 C 121.894531 46.03125 121.089844 46.835938 121.089844 47.828125 C 121.089844 48.816406 121.894531 49.621094 122.886719 49.621094 C 123.878906 49.621094 124.679688 48.816406 124.679688 47.828125 "/>
<path fill-rule="evenodd" fill="rgb(0%, 0%, 0%)" fill-opacity="1" d="M 137.085938 40.84375 C 137.085938 39.851562 136.28125 39.046875 135.289062 39.046875 C 134.300781 39.046875 133.496094 39.851562 133.496094 40.84375 C 133.496094 41.835938 134.300781 42.636719 135.289062 42.636719 C 136.28125 42.636719 137.085938 41.835938 137.085938 40.84375 "/>
<path fill-rule="evenodd" fill="rgb(0%, 0%, 0%)" fill-opacity="1" d="M 189.300781 6.421875 C 189.300781 5.429688 188.496094 4.628906 187.503906 4.628906 C 186.511719 4.628906 185.707031 5.429688 185.707031 6.421875 C 185.707031 7.414062 186.511719 8.21875 187.503906 8.21875 C 188.496094 8.21875 189.300781 7.414062 189.300781 6.421875 "/>
<path fill-rule="evenodd" fill="rgb(0%, 0%, 0%)" fill-opacity="1" d="M 160.992188 35.855469 C 160.992188 34.863281 160.1875 34.058594 159.195312 34.058594 C 158.203125 34.058594 157.398438 34.863281 157.398438 35.855469 C 157.398438 36.847656 158.203125 37.648438 159.195312 37.648438 C 160.1875 37.648438 160.992188 36.847656 160.992188 35.855469 "/>
<path fill-rule="evenodd" fill="rgb(0%, 0%, 0%)" fill-opacity="1" d="M 149.765625 57.304688 C 149.765625 56.3125 148.960938 55.507812 147.96875 55.507812 C 146.976562 55.507812 146.171875 56.3125 146.171875 57.304688 C 146.171875 58.296875 146.976562 59.101562 147.96875 59.101562 C 148.960938 59.101562 149.765625 58.296875 149.765625 57.304688 "/>
<path fill-rule="evenodd" fill="rgb(0%, 0%, 0%)" fill-opacity="1" d="M 140.625 70.273438 C 140.625 69.28125 139.820312 68.476562 138.828125 68.476562 C 137.835938 68.476562 137.03125 69.28125 137.03125 70.273438 C 137.03125 71.265625 137.835938 72.070312 138.828125 72.070312 C 139.820312 72.070312 140.625 71.265625 140.625 70.273438 "/>
<path fill-rule="evenodd" fill="rgb(0%, 0%, 0%)" fill-opacity="1" d="M 130.617188 59.300781 C 130.617188 58.308594 129.8125 57.503906 128.820312 57.503906 C 127.828125 57.503906 127.023438 58.308594 127.023438 59.300781 C 127.023438 60.292969 127.828125 61.09375 128.820312 61.09375 C 129.8125 61.09375 130.617188 60.292969 130.617188 59.300781 "/>
<path fill-rule="evenodd" fill="rgb(0%, 0%, 0%)" fill-opacity="1" d="M 236.71875 29.371094 C 236.71875 28.378906 235.917969 27.574219 234.925781 27.574219 C 233.933594 27.574219 233.128906 28.378906 233.128906 29.371094 C 233.128906 30.359375 233.933594 31.164062 234.925781 31.164062 C 235.917969 31.164062 236.71875 30.359375 236.71875 29.371094 "/>
<path fill-rule="evenodd" fill="rgb(0%, 0%, 0%)" fill-opacity="1" d="M 203.625 38.847656 C 203.625 37.855469 202.820312 37.050781 201.828125 37.050781 C 200.839844 37.050781 200.035156 37.855469 200.035156 38.847656 C 200.035156 39.839844 200.839844 40.644531 201.828125 40.644531 C 202.820312 40.644531 203.625 39.839844 203.625 38.847656 "/>
<path fill-rule="evenodd" fill="rgb(0%, 0%, 0%)" fill-opacity="1" d="M 197.492188 52.316406 C 197.492188 51.324219 196.6875 50.519531 195.695312 50.519531 C 194.703125 50.519531 193.898438 51.324219 193.898438 52.316406 C 193.898438 53.308594 194.703125 54.113281 195.695312 54.113281 C 196.6875 54.113281 197.492188 53.308594 197.492188 52.316406 "/>
<path fill-rule="evenodd" fill="rgb(0%, 0%, 0%)" fill-opacity="1" d="M 184.683594 42.835938 C 184.683594 41.847656 183.878906 41.042969 182.886719 41.042969 C 181.894531 41.042969 181.089844 41.847656 181.089844 42.835938 C 181.089844 43.828125 181.894531 44.632812 182.886719 44.632812 C 183.878906 44.632812 184.683594 43.828125 184.683594 42.835938 "/>
<path fill-rule="evenodd" fill="rgb(0%, 0%, 0%)" fill-opacity="1" d="M 188.015625 58.800781 C 188.015625 57.808594 187.214844 57.003906 186.222656 57.003906 C 185.230469 57.003906 184.425781 57.808594 184.425781 58.800781 C 184.425781 59.792969 185.230469 60.597656 186.222656 60.597656 C 187.214844 60.597656 188.015625 59.792969 188.015625 58.800781 "/>
<path fill-rule="evenodd" fill="rgb(0%, 0%, 0%)" fill-opacity="1" d="M 170.492188 59.796875 C 170.492188 58.804688 169.6875 58.003906 168.695312 58.003906 C 167.703125 58.003906 166.902344 58.804688 166.902344 59.796875 C 166.902344 60.789062 167.703125 61.59375 168.695312 61.59375 C 169.6875 61.59375 170.492188 60.789062 170.492188 59.796875 "/>
<path fill-rule="evenodd" fill="rgb(0%, 0%, 0%)" fill-opacity="1" d="M 185.5 72.269531 C 185.5 71.277344 184.695312 70.472656 183.703125 70.472656 C 182.710938 70.472656 181.910156 71.277344 181.910156 72.269531 C 181.910156 73.261719 182.710938 74.066406 183.703125 74.066406 C 184.695312 74.066406 185.5 73.261719 185.5 72.269531 "/>
<path fill-rule="evenodd" fill="rgb(0%, 0%, 0%)" fill-opacity="1" d="M 199.96875 65.285156 C 199.96875 64.292969 199.167969 63.488281 198.175781 63.488281 C 197.183594 63.488281 196.378906 64.292969 196.378906 65.285156 C 196.378906 66.277344 197.183594 67.082031 198.175781 67.082031 C 199.167969 67.082031 199.96875 66.277344 199.96875 65.285156 "/>
<path fill-rule="evenodd" fill="rgb(0%, 0%, 0%)" fill-opacity="1" d="M 212.605469 54.3125 C 212.605469 53.320312 211.800781 52.515625 210.808594 52.515625 C 209.816406 52.515625 209.011719 53.320312 209.011719 54.3125 C 209.011719 55.300781 209.816406 56.105469 210.808594 56.105469 C 211.800781 56.105469 212.605469 55.300781 212.605469 54.3125 "/>
<path fill-rule="evenodd" fill="rgb(0%, 0%, 0%)" fill-opacity="1" d="M 226.914062 59.796875 C 226.914062 58.804688 226.109375 58.003906 225.121094 58.003906 C 224.128906 58.003906 223.324219 58.804688 223.324219 59.796875 C 223.324219 60.789062 224.128906 61.59375 225.121094 61.59375 C 226.109375 61.59375 226.914062 60.789062 226.914062 59.796875 "/>
<path fill-rule="evenodd" fill="rgb(0%, 0%, 0%)" fill-opacity="1" d="M 238.402344 60.296875 C 238.402344 59.304688 237.597656 58.5 236.609375 58.5 C 235.617188 58.5 234.8125 59.304688 234.8125 60.296875 C 234.8125 61.289062 235.617188 62.09375 236.609375 62.09375 C 237.597656 62.09375 238.402344 61.289062 238.402344 60.296875 "/>
<path fill-rule="evenodd" fill="rgb(0%, 0%, 0%)" fill-opacity="1" d="M 269.148438 70.273438 C 269.148438 69.28125 268.34375 68.476562 267.351562 68.476562 C 266.359375 68.476562 265.558594 69.28125 265.558594 70.273438 C 265.558594 71.265625 266.359375 72.070312 267.351562 72.070312 C 268.34375 72.070312 269.148438 71.265625 269.148438 70.273438 "/>
<path fill-rule="evenodd" fill="rgb(0%, 0%, 0%)" fill-opacity="1" d="M 234.050781 72.769531 C 234.050781 71.777344 233.246094 70.972656 232.253906 70.972656 C 231.261719 70.972656 230.460938 71.777344 230.460938 72.769531 C 230.460938 73.757812 231.261719 74.5625 232.253906 74.5625 C 233.246094 74.5625 234.050781 73.757812 234.050781 72.769531 "/>
<path fill-rule="evenodd" fill="rgb(0%, 0%, 0%)" fill-opacity="1" d="M 238.867188 89.230469 C 238.867188 88.238281 238.0625 87.433594 237.070312 87.433594 C 236.078125 87.433594 235.277344 88.238281 235.277344 89.230469 C 235.277344 90.222656 236.078125 91.023438 237.070312 91.023438 C 238.0625 91.023438 238.867188 90.222656 238.867188 89.230469 "/>
<path fill-rule="evenodd" fill="rgb(0%, 0%, 0%)" fill-opacity="1" d="M 251.335938 101.699219 C 251.335938 100.707031 250.53125 99.90625 249.539062 99.90625 C 248.546875 99.90625 247.742188 100.707031 247.742188 101.699219 C 247.742188 102.691406 248.546875 103.496094 249.539062 103.496094 C 250.53125 103.496094 251.335938 102.691406 251.335938 101.699219 "/>
<path fill-rule="evenodd" fill="rgb(0%, 0%, 0%)" fill-opacity="1" d="M 246.367188 117.164062 C 246.367188 116.171875 245.5625 115.367188 244.570312 115.367188 C 243.578125 115.367188 242.773438 116.171875 242.773438 117.164062 C 242.773438 118.15625 243.578125 118.960938 244.570312 118.960938 C 245.5625 118.960938 246.367188 118.15625 246.367188 117.164062 "/>
<path fill-rule="evenodd" fill="rgb(0%, 0%, 0%)" fill-opacity="1" d="M 234.058594 106.6875 C 234.058594 105.695312 233.253906 104.894531 232.261719 104.894531 C 231.269531 104.894531 230.46875 105.695312 230.46875 106.6875 C 230.46875 107.679688 231.269531 108.484375 232.261719 108.484375 C 233.253906 108.484375 234.058594 107.679688 234.058594 106.6875 "/>
<path fill-rule="evenodd" fill="rgb(0%, 0%, 0%)" fill-opacity="1" d="M 225.929688 94.714844 C 225.929688 93.726562 225.125 92.921875 224.132812 92.921875 C 223.140625 92.921875 222.335938 93.726562 222.335938 94.714844 C 222.335938 95.707031 223.140625 96.511719 224.132812 96.511719 C 225.125 96.511719 225.929688 95.707031 225.929688 94.714844 "/>
<path fill-rule="evenodd" fill="rgb(0%, 0%, 0%)" fill-opacity="1" d="M 226.039062 83.742188 C 226.039062 82.75 225.234375 81.945312 224.242188 81.945312 C 223.25 81.945312 222.445312 82.75 222.445312 83.742188 C 222.445312 84.734375 223.25 85.539062 224.242188 85.539062 C 225.234375 85.539062 226.039062 84.734375 226.039062 83.742188 "/>
<path fill-rule="evenodd" fill="rgb(0%, 0%, 0%)" fill-opacity="1" d="M 215.914062 72.269531 C 215.914062 71.277344 215.109375 70.472656 214.117188 70.472656 C 213.125 70.472656 212.320312 71.277344 212.320312 72.269531 C 212.320312 73.261719 213.125 74.066406 214.117188 74.066406 C 215.109375 74.066406 215.914062 73.261719 215.914062 72.269531 "/>
<path fill-rule="evenodd" fill="rgb(0%, 0%, 0%)" fill-opacity="1" d="M 213.9375 89.726562 C 213.9375 88.738281 213.132812 87.933594 212.140625 87.933594 C 211.148438 87.933594 210.347656 88.738281 210.347656 89.726562 C 210.347656 90.71875 211.148438 91.523438 212.140625 91.523438 C 213.132812 91.523438 213.9375 90.71875 213.9375 89.726562 "/>
<path fill-rule="evenodd" fill="rgb(0%, 0%, 0%)" fill-opacity="1" d="M 199.957031 82.246094 C 199.957031 81.253906 199.152344 80.449219 198.164062 80.449219 C 197.171875 80.449219 196.367188 81.253906 196.367188 82.246094 C 196.367188 83.238281 197.171875 84.042969 198.164062 84.042969 C 199.152344 84.042969 199.957031 83.238281 199.957031 82.246094 "/>
<path fill-rule="evenodd" fill="rgb(0%, 0%, 0%)" fill-opacity="1" d="M 200.441406 100.203125 C 200.441406 99.210938 199.636719 98.40625 198.644531 98.40625 C 197.652344 98.40625 196.851562 99.210938 196.851562 100.203125 C 196.851562 101.195312 197.652344 102 198.644531 102 C 199.636719 102 200.441406 101.195312 200.441406 100.203125 "/>
<path fill-rule="evenodd" fill="rgb(0%, 0%, 0%)" fill-opacity="1" d="M 217.574219 103.695312 C 217.574219 102.703125 216.769531 101.898438 215.777344 101.898438 C 214.785156 101.898438 213.980469 102.703125 213.980469 103.695312 C 213.980469 104.6875 214.785156 105.492188 215.777344 105.492188 C 216.769531 105.492188 217.574219 104.6875 217.574219 103.695312 "/>
<path fill-rule="evenodd" fill="rgb(0%, 0%, 0%)" fill-opacity="1" d="M 222.046875 115.667969 C 222.046875 114.675781 221.242188 113.871094 220.25 113.871094 C 219.261719 113.871094 218.457031 114.675781 218.457031 115.667969 C 218.457031 116.660156 219.261719 117.464844 220.25 117.464844 C 221.242188 117.464844 222.046875 116.660156 222.046875 115.667969 "/>
<path fill-rule="evenodd" fill="rgb(0%, 0%, 0%)" fill-opacity="1" d="M 209.097656 115.667969 C 209.097656 114.675781 208.292969 113.871094 207.300781 113.871094 C 206.308594 113.871094 205.503906 114.675781 205.503906 115.667969 C 205.503906 116.660156 206.308594 117.464844 207.300781 117.464844 C 208.292969 117.464844 209.097656 116.660156 209.097656 115.667969 "/>
<path fill-rule="evenodd" fill="rgb(0%, 0%, 0%)" fill-opacity="1" d="M 195.613281 116.167969 C 195.613281 115.175781 194.808594 114.371094 193.816406 114.371094 C 192.824219 114.371094 192.023438 115.175781 192.023438 116.167969 C 192.023438 117.15625 192.824219 117.960938 193.816406 117.960938 C 194.808594 117.960938 195.613281 117.15625 195.613281 116.167969 "/>
<path fill-rule="evenodd" fill="rgb(0%, 0%, 0%)" fill-opacity="1" d="M 185.648438 107.6875 C 185.648438 106.695312 184.84375 105.890625 183.851562 105.890625 C 182.859375 105.890625 182.054688 106.695312 182.054688 107.6875 C 182.054688 108.679688 182.859375 109.480469 183.851562 109.480469 C 184.84375 109.480469 185.648438 108.679688 185.648438 107.6875 "/>
<path fill-rule="evenodd" fill="rgb(0%, 0%, 0%)" fill-opacity="1" d="M 182.980469 90.726562 C 182.980469 89.734375 182.175781 88.929688 181.183594 88.929688 C 180.191406 88.929688 179.386719 89.734375 179.386719 90.726562 C 179.386719 91.71875 180.191406 92.523438 181.183594 92.523438 C 182.175781 92.523438 182.980469 91.71875 182.980469 90.726562 "/>
<path fill-rule="evenodd" fill="rgb(0%, 0%, 0%)" fill-opacity="1" d="M 172.175781 77.757812 C 172.175781 76.765625 171.371094 75.960938 170.378906 75.960938 C 169.386719 75.960938 168.582031 76.765625 168.582031 77.757812 C 168.582031 78.746094 169.386719 79.550781 170.378906 79.550781 C 171.371094 79.550781 172.175781 78.746094 172.175781 77.757812 "/>
<path fill-rule="evenodd" fill="rgb(0%, 0%, 0%)" fill-opacity="1" d="M 156.25 76.257812 C 156.25 75.269531 155.449219 74.464844 154.457031 74.464844 C 153.464844 74.464844 152.660156 75.269531 152.660156 76.257812 C 152.660156 77.25 153.464844 78.054688 154.457031 78.054688 C 155.449219 78.054688 156.25 77.25 156.25 76.257812 "/>
<path fill-rule="evenodd" fill="rgb(0%, 0%, 0%)" fill-opacity="1" d="M 166.1875 88.730469 C 166.1875 87.738281 165.386719 86.933594 164.394531 86.933594 C 163.402344 86.933594 162.597656 87.738281 162.597656 88.730469 C 162.597656 89.722656 163.402344 90.527344 164.394531 90.527344 C 165.386719 90.527344 166.1875 89.722656 166.1875 88.730469 "/>
<path fill-rule="evenodd" fill="rgb(0%, 0%, 0%)" fill-opacity="1" d="M 167.511719 106.191406 C 167.511719 105.199219 166.707031 104.394531 165.714844 104.394531 C 164.722656 104.394531 163.917969 105.199219 163.917969 106.191406 C 163.917969 107.179688 164.722656 107.984375 165.714844 107.984375 C 166.707031 107.984375 167.511719 107.179688 167.511719 106.191406 "/>
<path fill-rule="evenodd" fill="rgb(0%, 0%, 0%)" fill-opacity="1" d="M 282.640625 124.148438 C 282.640625 123.15625 281.835938 122.351562 280.84375 122.351562 C 279.851562 122.351562 279.046875 123.15625 279.046875 124.148438 C 279.046875 125.140625 279.851562 125.945312 280.84375 125.945312 C 281.835938 125.945312 282.640625 125.140625 282.640625 124.148438 "/>
<path fill-rule="evenodd" fill="rgb(0%, 0%, 0%)" fill-opacity="1" d="M 247.375 130.132812 C 247.375 129.140625 246.570312 128.339844 245.578125 128.339844 C 244.585938 128.339844 243.78125 129.140625 243.78125 130.132812 C 243.78125 131.125 244.585938 131.929688 245.578125 131.929688 C 246.570312 131.929688 247.375 131.125 247.375 130.132812 "/>
<path fill-rule="evenodd" fill="rgb(0%, 0%, 0%)" fill-opacity="1" d="M 238.988281 135.621094 C 238.988281 134.628906 238.183594 133.824219 237.191406 133.824219 C 236.199219 133.824219 235.398438 134.628906 235.398438 135.621094 C 235.398438 136.613281 236.199219 137.417969 237.191406 137.417969 C 238.183594 137.417969 238.988281 136.613281 238.988281 135.621094 "/>
<path fill-rule="evenodd" fill="rgb(0%, 0%, 0%)" fill-opacity="1" d="M 233.554688 124.648438 C 233.554688 123.65625 232.75 122.851562 231.761719 122.851562 C 230.769531 122.851562 229.964844 123.65625 229.964844 124.648438 C 229.964844 125.636719 230.769531 126.441406 231.761719 126.441406 C 232.75 126.441406 233.554688 125.636719 233.554688 124.648438 "/>
<path fill-rule="evenodd" fill="rgb(0%, 0%, 0%)" fill-opacity="1" d="M 273.652344 181.015625 C 273.652344 180.023438 272.847656 179.21875 271.855469 179.21875 C 270.867188 179.21875 270.0625 180.023438 270.0625 181.015625 C 270.0625 182.007812 270.867188 182.8125 271.855469 182.8125 C 272.847656 182.8125 273.652344 182.007812 273.652344 181.015625 "/>
<path fill-rule="evenodd" fill="rgb(0%, 0%, 0%)" fill-opacity="1" d="M 239.53125 168.542969 C 239.53125 167.550781 238.726562 166.75 237.734375 166.75 C 236.742188 166.75 235.9375 167.550781 235.9375 168.542969 C 235.9375 169.535156 236.742188 170.339844 237.734375 170.339844 C 238.726562 170.339844 239.53125 169.535156 239.53125 168.542969 "/>
<path fill-rule="evenodd" fill="rgb(0%, 0%, 0%)" fill-opacity="1" d="M 230.90625 156.570312 C 230.90625 155.582031 230.101562 154.777344 229.109375 154.777344 C 228.117188 154.777344 227.3125 155.582031 227.3125 156.570312 C 227.3125 157.5625 228.117188 158.367188 229.109375 158.367188 C 230.101562 158.367188 230.90625 157.5625 230.90625 156.570312 "/>
<path fill-rule="evenodd" fill="rgb(0%, 0%, 0%)" fill-opacity="1" d="M 234.089844 188.496094 C 234.089844 187.503906 233.285156 186.703125 232.292969 186.703125 C 231.300781 186.703125 230.496094 187.503906 230.496094 188.496094 C 230.496094 189.488281 231.300781 190.292969 232.292969 190.292969 C 233.285156 190.292969 234.089844 189.488281 234.089844 188.496094 "/>
<path fill-rule="evenodd" fill="rgb(0%, 0%, 0%)" fill-opacity="1" d="M 218.578125 201.964844 C 218.578125 200.972656 217.773438 200.171875 216.78125 200.171875 C 215.792969 200.171875 214.988281 200.972656 214.988281 201.964844 C 214.988281 202.957031 215.792969 203.761719 216.78125 203.761719 C 217.773438 203.761719 218.578125 202.957031 218.578125 201.964844 "/>
<path fill-rule="evenodd" fill="rgb(0%, 0%, 0%)" fill-opacity="1" d="M 202.125 198.972656 C 202.125 197.980469 201.320312 197.175781 200.328125 197.175781 C 199.335938 197.175781 198.535156 197.980469 198.535156 198.972656 C 198.535156 199.964844 199.335938 200.769531 200.328125 200.769531 C 201.320312 200.769531 202.125 199.964844 202.125 198.972656 "/>
<path fill-rule="evenodd" fill="rgb(0%, 0%, 0%)" fill-opacity="1" d="M 208.121094 215.433594 C 208.121094 214.441406 207.316406 213.636719 206.324219 213.636719 C 205.332031 213.636719 204.527344 214.441406 204.527344 215.433594 C 204.527344 216.425781 205.332031 217.230469 206.324219 217.230469 C 207.316406 217.230469 208.121094 216.425781 208.121094 215.433594 "/>
<path fill-rule="evenodd" fill="rgb(0%, 0%, 0%)" fill-opacity="1" d="M 188.671875 210.945312 C 188.671875 209.953125 187.867188 209.148438 186.875 209.148438 C 185.886719 209.148438 185.082031 209.953125 185.082031 210.945312 C 185.082031 211.9375 185.886719 212.742188 186.875 212.742188 C 187.867188 212.742188 188.671875 211.9375 188.671875 210.945312 "/>
<path fill-rule="evenodd" fill="rgb(0%, 0%, 0%)" fill-opacity="1" d="M 248.300781 149.089844 C 248.300781 148.097656 247.5 147.292969 246.507812 147.292969 C 245.515625 147.292969 244.710938 148.097656 244.710938 149.089844 C 244.710938 150.082031 245.515625 150.886719 246.507812 150.886719 C 247.5 150.886719 248.300781 150.082031 248.300781 149.089844 "/>
<path fill-rule="evenodd" fill="rgb(0%, 0%, 0%)" fill-opacity="1" d="M 175.035156 144.601562 C 175.035156 143.609375 174.234375 142.804688 173.242188 142.804688 C 172.25 142.804688 171.445312 143.609375 171.445312 144.601562 C 171.445312 145.589844 172.25 146.394531 173.242188 146.394531 C 174.234375 146.394531 175.035156 145.589844 175.035156 144.601562 "/>
<path fill-rule="evenodd" fill="rgb(0%, 0%, 0%)" fill-opacity="1" d="M 170.523438 217.429688 C 170.523438 216.4375 169.71875 215.632812 168.726562 215.632812 C 167.734375 215.632812 166.929688 216.4375 166.929688 217.429688 C 166.929688 218.421875 167.734375 219.226562 168.726562 219.226562 C 169.71875 219.226562 170.523438 218.421875 170.523438 217.429688 "/>
<path fill-rule="evenodd" fill="rgb(0%, 0%, 0%)" fill-opacity="1" d="M 161.601562 223.914062 C 161.601562 222.921875 160.800781 222.117188 159.808594 222.117188 C 158.816406 222.117188 158.011719 222.921875 158.011719 223.914062 C 158.011719 224.90625 158.816406 225.710938 159.808594 225.710938 C 160.800781 225.710938 161.601562 224.90625 161.601562 223.914062 "/>
<path fill-rule="evenodd" fill="rgb(0%, 0%, 0%)" fill-opacity="1" d="M 165.65625 227.90625 C 165.65625 226.914062 164.851562 226.109375 163.859375 226.109375 C 162.867188 226.109375 162.0625 226.914062 162.0625 227.90625 C 162.0625 228.898438 162.867188 229.699219 163.859375 229.699219 C 164.851562 229.699219 165.65625 228.898438 165.65625 227.90625 "/>
<path fill-rule="evenodd" fill="rgb(0%, 0%, 0%)" fill-opacity="1" d="M 154.738281 232.894531 C 154.738281 231.902344 153.9375 231.097656 152.945312 231.097656 C 151.953125 231.097656 151.148438 231.902344 151.148438 232.894531 C 151.148438 233.886719 151.953125 234.6875 152.945312 234.6875 C 153.9375 234.6875 154.738281 233.886719 154.738281 232.894531 "/>
<path fill-rule="evenodd" fill="rgb(0%, 0%, 0%)" fill-opacity="1" d="M 154.582031 216.929688 C 154.582031 215.9375 153.777344 215.136719 152.785156 215.136719 C 151.792969 215.136719 150.988281 215.9375 150.988281 216.929688 C 150.988281 217.921875 151.792969 218.726562 152.785156 218.726562 C 153.777344 218.726562 154.582031 217.921875 154.582031 216.929688 "/>
<path fill-rule="evenodd" fill="rgb(0%, 0%, 0%)" fill-opacity="1" d="M 145.085938 203.960938 C 145.085938 202.96875 144.28125 202.164062 143.289062 202.164062 C 142.300781 202.164062 141.496094 202.96875 141.496094 203.960938 C 141.496094 204.953125 142.300781 205.757812 143.289062 205.757812 C 144.28125 205.757812 145.085938 204.953125 145.085938 203.960938 "/>
<path fill-rule="evenodd" fill="rgb(0%, 0%, 0%)" fill-opacity="1" d="M 128.125 203.460938 C 128.125 202.472656 127.320312 201.667969 126.332031 201.667969 C 125.339844 201.667969 124.535156 202.472656 124.535156 203.460938 C 124.535156 204.453125 125.339844 205.257812 126.332031 205.257812 C 127.320312 205.257812 128.125 204.453125 128.125 203.460938 "/>
<path fill-rule="evenodd" fill="rgb(0%, 0%, 0%)" fill-opacity="1" d="M 119.671875 214.9375 C 119.671875 213.945312 118.867188 213.140625 117.878906 213.140625 C 116.886719 213.140625 116.082031 213.945312 116.082031 214.9375 C 116.082031 215.925781 116.886719 216.730469 117.878906 216.730469 C 118.867188 216.730469 119.671875 215.925781 119.671875 214.9375 "/>
<path fill-rule="evenodd" fill="rgb(0%, 0%, 0%)" fill-opacity="1" d="M 117.152344 229.402344 C 117.152344 228.410156 116.347656 227.605469 115.355469 227.605469 C 114.363281 227.605469 113.558594 228.410156 113.558594 229.402344 C 113.558594 230.394531 114.363281 231.199219 115.355469 231.199219 C 116.347656 231.199219 117.152344 230.394531 117.152344 229.402344 "/>
<path fill-rule="evenodd" fill="rgb(0%, 0%, 0%)" fill-opacity="1" d="M 190.382812 252.847656 C 190.382812 251.855469 189.578125 251.050781 188.585938 251.050781 C 187.59375 251.050781 186.792969 251.855469 186.792969 252.847656 C 186.792969 253.839844 187.59375 254.644531 188.585938 254.644531 C 189.578125 254.644531 190.382812 253.839844 190.382812 252.847656 "/>
<path fill-rule="evenodd" fill="rgb(0%, 0%, 0%)" fill-opacity="1" d="M 132.46875 260.828125 C 132.46875 259.835938 131.664062 259.03125 130.671875 259.03125 C 129.679688 259.03125 128.875 259.835938 128.875 260.828125 C 128.875 261.820312 129.679688 262.625 130.671875 262.625 C 131.664062 262.625 132.46875 261.820312 132.46875 260.828125 "/>
<path fill-rule="evenodd" fill="rgb(0%, 0%, 0%)" fill-opacity="1" d="M 133.273438 114.671875 C 133.273438 113.679688 132.46875 112.875 131.476562 112.875 C 130.488281 112.875 129.683594 113.679688 129.683594 114.671875 C 129.683594 115.660156 130.488281 116.464844 131.476562 116.464844 C 132.46875 116.464844 133.273438 115.660156 133.273438 114.671875 "/>
<path fill-rule="evenodd" fill="rgb(0%, 0%, 0%)" fill-opacity="1" d="M 117.828125 116.664062 C 117.828125 115.671875 117.023438 114.871094 116.03125 114.871094 C 115.039062 114.871094 114.234375 115.671875 114.234375 116.664062 C 114.234375 117.65625 115.039062 118.460938 116.03125 118.460938 C 117.023438 118.460938 117.828125 117.65625 117.828125 116.664062 "/>
<path fill-rule="evenodd" fill="rgb(0%, 0%, 0%)" fill-opacity="1" d="M 100.855469 114.671875 C 100.855469 113.679688 100.050781 112.875 99.058594 112.875 C 98.066406 112.875 97.261719 113.679688 97.261719 114.671875 C 97.261719 115.660156 98.066406 116.464844 99.058594 116.464844 C 100.050781 116.464844 100.855469 115.660156 100.855469 114.671875 "/>
<path fill-rule="evenodd" fill="rgb(0%, 0%, 0%)" fill-opacity="1" d="M 86.738281 117.164062 C 86.738281 116.171875 85.933594 115.367188 84.941406 115.367188 C 83.953125 115.367188 83.148438 116.171875 83.148438 117.164062 C 83.148438 118.15625 83.953125 118.960938 84.941406 118.960938 C 85.933594 118.960938 86.738281 118.15625 86.738281 117.164062 "/>
<path fill-rule="evenodd" fill="rgb(0%, 0%, 0%)" fill-opacity="1" d="M 81.375 106.191406 C 81.375 105.199219 80.574219 104.394531 79.582031 104.394531 C 78.589844 104.394531 77.785156 105.199219 77.785156 106.191406 C 77.785156 107.179688 78.589844 107.984375 79.582031 107.984375 C 80.574219 107.984375 81.375 107.179688 81.375 106.191406 "/>
<path fill-rule="evenodd" fill="rgb(0%, 0%, 0%)" fill-opacity="1" d="M 68.214844 92.722656 C 68.214844 91.730469 67.410156 90.925781 66.417969 90.925781 C 65.429688 90.925781 64.625 91.730469 64.625 92.722656 C 64.625 93.714844 65.429688 94.515625 66.417969 94.515625 C 67.410156 94.515625 68.214844 93.714844 68.214844 92.722656 "/>
<path fill-rule="evenodd" fill="rgb(0%, 0%, 0%)" fill-opacity="1" d="M 69.746094 116.167969 C 69.746094 115.175781 68.941406 114.371094 67.949219 114.371094 C 66.960938 114.371094 66.15625 115.175781 66.15625 116.167969 C 66.15625 117.15625 66.960938 117.960938 67.949219 117.960938 C 68.941406 117.960938 69.746094 117.15625 69.746094 116.167969 "/>
<path fill-rule="evenodd" fill="rgb(0%, 0%, 0%)" fill-opacity="1" d="M 97.851562 208.449219 C 97.851562 207.460938 97.050781 206.65625 96.058594 206.65625 C 95.066406 206.65625 94.261719 207.460938 94.261719 208.449219 C 94.261719 209.441406 95.066406 210.246094 96.058594 210.246094 C 97.050781 210.246094 97.851562 209.441406 97.851562 208.449219 "/>
<path fill-rule="evenodd" fill="rgb(0%, 0%, 0%)" fill-opacity="1" d="M 112.324219 204.460938 C 112.324219 203.46875 111.519531 202.664062 110.527344 202.664062 C 109.535156 202.664062 108.730469 203.46875 108.730469 204.460938 C 108.730469 205.453125 109.535156 206.257812 110.527344 206.257812 C 111.519531 206.257812 112.324219 205.453125 112.324219 204.460938 "/>
<path fill-rule="evenodd" fill="rgb(0%, 0%, 0%)" fill-opacity="1" d="M 107.699219 217.429688 C 107.699219 216.4375 106.898438 215.632812 105.90625 215.632812 C 104.914062 215.632812 104.109375 216.4375 104.109375 217.429688 C 104.109375 218.421875 104.914062 219.226562 105.90625 219.226562 C 106.898438 219.226562 107.699219 218.421875 107.699219 217.429688 "/>
<path fill-rule="evenodd" fill="rgb(0%, 0%, 0%)" fill-opacity="1" d="M 81.710938 200.46875 C 81.710938 199.476562 80.90625 198.671875 79.914062 198.671875 C 78.925781 198.671875 78.121094 199.476562 78.121094 200.46875 C 78.121094 201.460938 78.925781 202.265625 79.914062 202.265625 C 80.90625 202.265625 81.710938 201.460938 81.710938 200.46875 "/>
<path fill-rule="evenodd" fill="rgb(0%, 0%, 0%)" fill-opacity="1" d="M 66.421875 208.449219 C 66.421875 207.460938 65.617188 206.65625 64.625 206.65625 C 63.636719 206.65625 62.832031 207.460938 62.832031 208.449219 C 62.832031 209.441406 63.636719 210.246094 64.625 210.246094 C 65.617188 210.246094 66.421875 209.441406 66.421875 208.449219 "/>
<path fill-rule="evenodd" fill="rgb(0%, 0%, 0%)" fill-opacity="1" d="M 61.746094 190.492188 C 61.746094 189.5 60.941406 188.695312 59.949219 188.695312 C 58.957031 188.695312 58.15625 189.5 58.15625 190.492188 C 58.15625 191.484375 58.957031 192.289062 59.949219 192.289062 C 60.941406 192.289062 61.746094 191.484375 61.746094 190.492188 "/>
<path fill-rule="evenodd" fill="rgb(0%, 0%, 0%)" fill-opacity="1" d="M 81.039062 239.378906 C 81.039062 238.386719 80.234375 237.582031 79.242188 237.582031 C 78.25 237.582031 77.445312 238.386719 77.445312 239.378906 C 77.445312 240.371094 78.25 241.175781 79.242188 241.175781 C 80.234375 241.175781 81.039062 240.371094 81.039062 239.378906 "/>
<path fill-rule="evenodd" fill="rgb(0%, 0%, 0%)" fill-opacity="1" d="M 242.671875 227.40625 C 242.671875 226.414062 241.867188 225.609375 240.875 225.609375 C 239.882812 225.609375 239.078125 226.414062 239.078125 227.40625 C 239.078125 228.398438 239.882812 229.203125 240.875 229.203125 C 241.867188 229.203125 242.671875 228.398438 242.671875 227.40625 "/>
<path fill-rule="evenodd" fill="rgb(0%, 0%, 0%)" fill-opacity="1" d="M 28.710938 171.039062 C 28.710938 170.046875 27.90625 169.242188 26.914062 169.242188 C 25.921875 169.242188 25.117188 170.046875 25.117188 171.039062 C 25.117188 172.03125 25.921875 172.835938 26.914062 172.835938 C 27.90625 172.835938 28.710938 172.03125 28.710938 171.039062 "/>
<path fill-rule="evenodd" fill="rgb(0%, 0%, 0%)" fill-opacity="1" d="M 42.105469 213.9375 C 42.105469 212.945312 41.300781 212.140625 40.308594 212.140625 C 39.316406 212.140625 38.511719 212.945312 38.511719 213.9375 C 38.511719 214.929688 39.316406 215.734375 40.308594 215.734375 C 41.300781 215.734375 42.105469 214.929688 42.105469 213.9375 "/>
<path fill-rule="evenodd" fill="rgb(0%, 0%, 0%)" fill-opacity="1" d="M 28.761719 113.671875 C 28.761719 112.679688 27.957031 111.875 26.964844 111.875 C 25.972656 111.875 25.167969 112.679688 25.167969 113.671875 C 25.167969 114.664062 25.972656 115.46875 26.964844 115.46875 C 27.957031 115.46875 28.761719 114.664062 28.761719 113.671875 "/>
<path fill-rule="evenodd" fill="rgb(0%, 0%, 0%)" fill-opacity="1" d="M 136.316406 222.417969 C 136.316406 221.425781 135.515625 220.621094 134.523438 220.621094 C 133.53125 220.621094 132.726562 221.425781 132.726562 222.417969 C 132.726562 223.410156 133.53125 224.214844 134.523438 224.214844 C 135.515625 224.214844 136.316406 223.410156 136.316406 222.417969 "/>
<path fill-rule="evenodd" fill="rgb(56.498718%, 93.299866%, 56.498718%)" fill-opacity="1" d="M 209.695312 175.425781 L 255.234375 175.425781 L 231.964844 215.730469 Z M 209.695312 175.425781 "/>
<path fill-rule="evenodd" fill="rgb(100%, 60.099792%, 60.099792%)" fill-opacity="0.3" d="M 115.617188 175.425781 C 115.617188 149.722656 94.78125 128.886719 69.078125 128.886719 C 43.375 128.886719 22.539062 149.722656 22.539062 175.425781 C 22.539062 201.128906 43.375 221.964844 69.078125 221.964844 C 94.78125 221.964844 115.617188 201.128906 115.617188 175.425781 "/>
<path fill-rule="evenodd" fill="rgb(100%, 60.099792%, 60.099792%)" fill-opacity="0.3" d="M 255.234375 94.820312 C 255.234375 69.128906 234.410156 48.308594 208.722656 48.308594 C 183.035156 48.308594 162.210938 69.128906 162.210938 94.820312 C 162.210938 120.507812 183.035156 141.328125 208.722656 141.328125 C 234.410156 141.328125 255.234375 120.507812 255.234375 94.820312 "/>
<path fill-rule="evenodd" fill="rgb(100%, 60.099792%, 60.099792%)" fill-opacity="0.3" d="M 255.234375 175.425781 C 255.234375 149.722656 234.398438 128.886719 208.695312 128.886719 C 182.992188 128.886719 162.15625 149.722656 162.15625 175.425781 C 162.15625 201.128906 182.992188 221.964844 208.695312 221.964844 C 234.398438 221.964844 255.234375 201.128906 255.234375 175.425781 "/>
<path fill-rule="evenodd" fill="rgb(100%, 60.099792%, 60.099792%)" fill-opacity="0.3" d="M 185.425781 54.515625 C 185.425781 28.8125 164.589844 7.976562 138.886719 7.976562 C 113.183594 7.976562 92.347656 28.8125 92.347656 54.515625 C 92.347656 80.21875 113.183594 101.054688 138.886719 101.054688 C 164.589844 101.054688 185.425781 80.21875 185.425781 54.515625 "/>
<path fill-rule="evenodd" fill="rgb(100%, 60.099792%, 60.099792%)" fill-opacity="0.3" d="M 115.886719 94.820312 C 115.886719 69.066406 95.007812 48.191406 69.257812 48.191406 C 43.503906 48.191406 22.628906 69.066406 22.628906 94.820312 C 22.628906 120.570312 43.503906 141.445312 69.257812 141.445312 C 95.007812 141.445312 115.886719 120.570312 115.886719 94.820312 "/>
<path fill-rule="evenodd" fill="rgb(100%, 60.099792%, 60.099792%)" fill-opacity="0.3" d="M 185.425781 215.730469 C 185.425781 190.027344 164.589844 169.191406 138.886719 169.191406 C 113.183594 169.191406 92.347656 190.027344 92.347656 215.730469 C 92.347656 241.433594 113.183594 262.269531 138.886719 262.269531 C 164.589844 262.269531 185.425781 241.433594 185.425781 215.730469 "/>
<path fill="none" stroke-width="2" stroke-linecap="butt" stroke-linejoin="round" stroke="rgb(100%, 0%, 0%)" stroke-opacity="1" stroke-miterlimit="10" d="M 176.675675 223.602156 C 176.675675 249.365363 155.791033 270.250005 130.027826 270.250005 C 104.264619 270.250005 83.379977 249.365363 83.379977 223.602156 C 83.379977 197.83895 104.264619 176.954307 130.027826 176.954307 C 155.791033 176.954307 176.675675 197.83895 176.675675 223.602156 " transform="matrix(0.997668, 0, 0, -0.997668, -60.646466, 398.50648)"/>
<path fill="none" stroke-width="2" stroke-linecap="butt" stroke-linejoin="round" stroke="rgb(100%, 0%, 0%)" stroke-opacity="1" stroke-miterlimit="10" d="M 316.619221 304.396042 C 316.619221 330.147503 295.746325 351.016484 269.99878 351.016484 C 244.251235 351.016484 223.378339 330.147503 223.378339 304.396042 C 223.378339 278.648497 244.251235 257.779517 269.99878 257.779517 C 295.746325 257.779517 316.619221 278.648497 316.619221 304.396042 " transform="matrix(0.997668, 0, 0, -0.997668, -60.646466, 398.50648)"/>
<path fill="none" stroke-width="2" stroke-linecap="butt" stroke-linejoin="round" stroke="rgb(100%, 0%, 0%)" stroke-opacity="1" stroke-miterlimit="10" d="M 316.619221 223.602156 C 316.619221 249.365363 295.734579 270.250005 269.971372 270.250005 C 244.208166 270.250005 223.323524 249.365363 223.323524 223.602156 C 223.323524 197.83895 244.208166 176.954307 269.971372 176.954307 C 295.734579 176.954307 316.619221 197.83895 316.619221 223.602156 " transform="matrix(0.997668, 0, 0, -0.997668, -60.646466, 398.50648)"/>
<path fill="none" stroke-width="2" stroke-linecap="butt" stroke-linejoin="round" stroke="rgb(100%, 0%, 0%)" stroke-opacity="1" stroke-miterlimit="10" d="M 246.647448 344.794943 C 246.647448 370.55815 225.762806 391.442792 199.999599 391.442792 C 174.236392 391.442792 153.35175 370.55815 153.35175 344.794943 C 153.35175 319.031737 174.236392 298.147094 199.999599 298.147094 C 225.762806 298.147094 246.647448 319.031737 246.647448 344.794943 " transform="matrix(0.997668, 0, 0, -0.997668, -60.646466, 398.50648)"/>
<path fill="none" stroke-width="2" stroke-linecap="butt" stroke-linejoin="round" stroke="rgb(100%, 0%, 0%)" stroke-opacity="1" stroke-miterlimit="10" d="M 176.945836 304.396042 C 176.945836 330.210149 156.018125 351.133945 130.207934 351.133945 C 104.393827 351.133945 83.470031 330.210149 83.470031 304.396042 C 83.470031 278.585851 104.393827 257.662055 130.207934 257.662055 C 156.018125 257.662055 176.945836 278.585851 176.945836 304.396042 " transform="matrix(0.997668, 0, 0, -0.997668, -60.646466, 398.50648)"/>
<g clip-path="url(#clip-0)">
<path fill="none" stroke-width="2" stroke-linecap="butt" stroke-linejoin="round" stroke="rgb(100%, 0%, 0%)" stroke-opacity="1" stroke-miterlimit="10" d="M 246.647448 183.203256 C 246.647448 208.966462 225.762806 229.851104 199.999599 229.851104 C 174.236392 229.851104 153.35175 208.966462 153.35175 183.203256 C 153.35175 157.440049 174.236392 136.555407 199.999599 136.555407 C 225.762806 136.555407 246.647448 157.440049 246.647448 183.203256 " transform="matrix(0.997668, 0, 0, -0.997668, -60.646466, 398.50648)"/>
</g>
<path fill-rule="evenodd" fill="rgb(0%, 0%, 0%)" fill-opacity="1" d="M 277.1875 194.601562 C 277.1875 193.609375 276.382812 192.804688 275.390625 192.804688 C 274.398438 192.804688 273.59375 193.609375 273.59375 194.601562 C 273.59375 195.59375 274.398438 196.394531 275.390625 196.394531 C 276.382812 196.394531 277.1875 195.59375 277.1875 194.601562 "/>
<path fill-rule="evenodd" fill="rgb(0%, 0%, 0%)" fill-opacity="1" d="M 139.484375 221.796875 C 139.484375 220.808594 138.679688 220.003906 137.6875 220.003906 C 136.695312 220.003906 135.890625 220.808594 135.890625 221.796875 C 135.890625 222.789062 136.695312 223.59375 137.6875 223.59375 C 138.679688 223.59375 139.484375 222.789062 139.484375 221.796875 "/>
<path fill-rule="evenodd" fill="rgb(0%, 0%, 0%)" fill-opacity="1" d="M 26.496094 236.78125 C 26.496094 235.789062 25.695312 234.984375 24.703125 234.984375 C 23.710938 234.984375 22.90625 235.789062 22.90625 236.78125 C 22.90625 237.773438 23.710938 238.578125 24.703125 238.578125 C 25.695312 238.578125 26.496094 237.773438 26.496094 236.78125 "/>
<path fill-rule="evenodd" fill="rgb(0%, 0%, 0%)" fill-opacity="1" d="M 20.5625 170.738281 C 20.5625 169.75 19.757812 168.945312 18.765625 168.945312 C 17.773438 168.945312 16.96875 169.75 16.96875 170.738281 C 16.96875 171.730469 17.773438 172.535156 18.765625 172.535156 C 19.757812 172.535156 20.5625 171.730469 20.5625 170.738281 "/>
<path fill-rule="evenodd" fill="rgb(0%, 0%, 0%)" fill-opacity="1" d="M 5.078125 108.367188 C 5.078125 107.375 4.273438 106.570312 3.28125 106.570312 C 2.289062 106.570312 1.484375 107.375 1.484375 108.367188 C 1.484375 109.359375 2.289062 110.164062 3.28125 110.164062 C 4.273438 110.164062 5.078125 109.359375 5.078125 108.367188 "/>
<path fill-rule="evenodd" fill="rgb(0%, 0%, 0%)" fill-opacity="1" d="M 16.210938 84.714844 C 16.210938 83.722656 15.40625 82.917969 14.417969 82.917969 C 13.425781 82.917969 12.621094 83.722656 12.621094 84.714844 C 12.621094 85.707031 13.425781 86.511719 14.417969 86.511719 C 15.40625 86.511719 16.210938 85.707031 16.210938 84.714844 "/>
<path fill-rule="evenodd" fill="rgb(0%, 0%, 0%)" fill-opacity="1" d="M 58.078125 32.523438 C 58.078125 31.53125 57.277344 30.726562 56.285156 30.726562 C 55.292969 30.726562 54.488281 31.53125 54.488281 32.523438 C 54.488281 33.515625 55.292969 34.320312 56.285156 34.320312 C 57.277344 34.320312 58.078125 33.515625 58.078125 32.523438 "/>
<path fill-rule="evenodd" fill="rgb(0%, 0%, 0%)" fill-opacity="1" d="M 19.964844 57.804688 C 19.964844 56.8125 19.160156 56.007812 18.167969 56.007812 C 17.175781 56.007812 16.375 56.8125 16.375 57.804688 C 16.375 58.792969 17.175781 59.597656 18.167969 59.597656 C 19.160156 59.597656 19.964844 58.792969 19.964844 57.804688 "/>
<path fill-rule="evenodd" fill="rgb(0%, 0%, 0%)" fill-opacity="1" d="M 26.125 82.339844 C 26.125 81.347656 25.320312 80.542969 24.328125 80.542969 C 23.335938 80.542969 22.535156 81.347656 22.535156 82.339844 C 22.535156 83.332031 23.335938 84.136719 24.328125 84.136719 C 25.320312 84.136719 26.125 83.332031 26.125 82.339844 "/>
<path fill-rule="evenodd" fill="rgb(0%, 0%, 0%)" fill-opacity="1" d="M 6.222656 135.894531 C 6.222656 134.902344 5.417969 134.097656 4.425781 134.097656 C 3.433594 134.097656 2.632812 134.902344 2.632812 135.894531 C 2.632812 136.886719 3.433594 137.691406 4.425781 137.691406 C 5.417969 137.691406 6.222656 136.886719 6.222656 135.894531 "/>
<path fill-rule="evenodd" fill="rgb(0%, 0%, 0%)" fill-opacity="1" d="M 44.777344 74.976562 C 44.777344 73.984375 43.972656 73.179688 42.980469 73.179688 C 41.988281 73.179688 41.183594 73.984375 41.183594 74.976562 C 41.183594 75.964844 41.988281 76.769531 42.980469 76.769531 C 43.972656 76.769531 44.777344 75.964844 44.777344 74.976562 "/>
<path fill-rule="evenodd" fill="rgb(0%, 0%, 0%)" fill-opacity="1" d="M 66.867188 38.5 C 66.867188 37.507812 66.0625 36.703125 65.070312 36.703125 C 64.078125 36.703125 63.273438 37.507812 63.273438 38.5 C 63.273438 39.492188 64.078125 40.292969 65.070312 40.292969 C 66.0625 40.292969 66.867188 39.492188 66.867188 38.5 "/>
<path fill-rule="evenodd" fill="rgb(0%, 0%, 0%)" fill-opacity="1" d="M 98.734375 18.320312 C 98.734375 17.328125 97.929688 16.523438 96.9375 16.523438 C 95.945312 16.523438 95.140625 17.328125 95.140625 18.320312 C 95.140625 19.3125 95.945312 20.113281 96.9375 20.113281 C 97.929688 20.113281 98.734375 19.3125 98.734375 18.320312 "/>
<path fill-rule="evenodd" fill="rgb(0%, 0%, 0%)" fill-opacity="1" d="M 133.117188 19.285156 C 133.117188 18.296875 132.3125 17.492188 131.320312 17.492188 C 130.328125 17.492188 129.523438 18.296875 129.523438 19.285156 C 129.523438 20.277344 130.328125 21.082031 131.320312 21.082031 C 132.3125 21.082031 133.117188 20.277344 133.117188 19.285156 "/>
<path fill-rule="evenodd" fill="rgb(0%, 0%, 0%)" fill-opacity="1" d="M 164.75 16.90625 C 164.75 15.914062 163.945312 15.113281 162.953125 15.113281 C 161.960938 15.113281 161.15625 15.914062 161.15625 16.90625 C 161.15625 17.898438 161.960938 18.703125 162.953125 18.703125 C 163.945312 18.703125 164.75 17.898438 164.75 16.90625 "/>
<path fill-rule="evenodd" fill="rgb(0%, 0%, 0%)" fill-opacity="1" d="M 208.617188 25.46875 C 208.617188 24.476562 207.8125 23.671875 206.820312 23.671875 C 205.828125 23.671875 205.023438 24.476562 205.023438 25.46875 C 205.023438 26.460938 205.828125 27.265625 206.820312 27.265625 C 207.8125 27.265625 208.617188 26.460938 208.617188 25.46875 "/>
<path fill-rule="evenodd" fill="rgb(0%, 0%, 0%)" fill-opacity="1" d="M 246.554688 53.269531 C 246.554688 52.277344 245.75 51.476562 244.757812 51.476562 C 243.769531 51.476562 242.964844 52.277344 242.964844 53.269531 C 242.964844 54.261719 243.769531 55.066406 244.757812 55.066406 C 245.75 55.066406 246.554688 54.261719 246.554688 53.269531 "/>
<path fill-rule="evenodd" fill="rgb(0%, 0%, 0%)" fill-opacity="1" d="M 269.203125 59.910156 C 269.203125 58.921875 268.398438 58.117188 267.40625 58.117188 C 266.414062 58.117188 265.609375 58.921875 265.609375 59.910156 C 265.609375 60.902344 266.414062 61.707031 267.40625 61.707031 C 268.398438 61.707031 269.203125 60.902344 269.203125 59.910156 "/>
<path fill-rule="evenodd" fill="rgb(0%, 0%, 0%)" fill-opacity="1" d="M 272.378906 118.355469 C 272.378906 117.367188 271.574219 116.5625 270.582031 116.5625 C 269.589844 116.5625 268.789062 117.367188 268.789062 118.355469 C 268.789062 119.347656 269.589844 120.152344 270.582031 120.152344 C 271.574219 120.152344 272.378906 119.347656 272.378906 118.355469 "/>
<path fill-rule="evenodd" fill="rgb(0%, 0%, 0%)" fill-opacity="1" d="M 46.785156 241.972656 C 46.785156 240.980469 45.980469 240.175781 44.988281 240.175781 C 43.996094 240.175781 43.191406 240.980469 43.191406 241.972656 C 43.191406 242.964844 43.996094 243.765625 44.988281 243.765625 C 45.980469 243.765625 46.785156 242.964844 46.785156 241.972656 "/>
<path fill-rule="evenodd" fill="rgb(0%, 0%, 0%)" fill-opacity="1" d="M 67.117188 235.980469 C 67.117188 234.988281 66.3125 234.183594 65.320312 234.183594 C 64.328125 234.183594 63.523438 234.988281 63.523438 235.980469 C 63.523438 236.972656 64.328125 237.777344 65.320312 237.777344 C 66.3125 237.777344 67.117188 236.972656 67.117188 235.980469 "/>
<path fill-rule="evenodd" fill="rgb(0%, 0%, 0%)" fill-opacity="1" d="M 199.570312 237.09375 C 199.570312 236.101562 198.765625 235.296875 197.773438 235.296875 C 196.78125 235.296875 195.976562 236.101562 195.976562 237.09375 C 195.976562 238.085938 196.78125 238.886719 197.773438 238.886719 C 198.765625 238.886719 199.570312 238.085938 199.570312 237.09375 "/>
<path fill-rule="evenodd" fill="rgb(0%, 0%, 0%)" fill-opacity="1" d="M 212.097656 235.117188 C 212.097656 234.125 211.292969 233.320312 210.304688 233.320312 C 209.3125 233.320312 208.507812 234.125 208.507812 235.117188 C 208.507812 236.109375 209.3125 236.914062 210.304688 236.914062 C 211.292969 236.914062 212.097656 236.109375 212.097656 235.117188 "/>
<path fill-rule="evenodd" fill="rgb(0%, 0%, 0%)" fill-opacity="1" d="M 210.699219 255.644531 C 210.699219 254.652344 209.894531 253.847656 208.90625 253.847656 C 207.914062 253.847656 207.109375 254.652344 207.109375 255.644531 C 207.109375 256.636719 207.914062 257.4375 208.90625 257.4375 C 209.894531 257.4375 210.699219 256.636719 210.699219 255.644531 "/>
<path fill-rule="evenodd" fill="rgb(0%, 0%, 0%)" fill-opacity="1" d="M 175.082031 260.839844 C 175.082031 259.84375 174.277344 259.042969 173.285156 259.042969 C 172.292969 259.042969 171.492188 259.84375 171.492188 260.839844 C 171.492188 261.828125 172.292969 262.632812 173.285156 262.632812 C 174.277344 262.632812 175.082031 261.828125 175.082031 260.839844 "/>
<path fill-rule="evenodd" fill="rgb(0%, 0%, 0%)" fill-opacity="1" d="M 254.171875 123.148438 C 254.171875 122.160156 253.371094 121.355469 252.378906 121.355469 C 251.386719 121.355469 250.582031 122.160156 250.582031 123.148438 C 250.582031 124.140625 251.386719 124.945312 252.378906 124.945312 C 253.371094 124.945312 254.171875 124.140625 254.171875 123.148438 "/>
<path fill-rule="evenodd" fill="rgb(0%, 0%, 0%)" fill-opacity="1" d="M 252.5625 135.136719 C 252.5625 134.144531 251.757812 133.339844 250.765625 133.339844 C 249.773438 133.339844 248.96875 134.144531 248.96875 135.136719 C 248.96875 136.128906 249.773438 136.933594 250.765625 136.933594 C 251.757812 136.933594 252.5625 136.128906 252.5625 135.136719 "/>
<path fill-rule="evenodd" fill="rgb(0%, 0%, 0%)" fill-opacity="1" d="M 263.308594 211.230469 C 263.308594 210.238281 262.507812 209.433594 261.515625 209.433594 C 260.523438 209.433594 259.71875 210.238281 259.71875 211.230469 C 259.71875 212.222656 260.523438 213.027344 261.515625 213.027344 C 262.507812 213.027344 263.308594 212.222656 263.308594 211.230469 "/>
<path fill-rule="evenodd" fill="rgb(0%, 0%, 0%)" fill-opacity="1" d="M 222.902344 25.324219 C 222.902344 24.335938 222.097656 23.53125 221.109375 23.53125 C 220.117188 23.53125 219.3125 24.335938 219.3125 25.324219 C 219.3125 26.316406 220.117188 27.121094 221.109375 27.121094 C 222.097656 27.121094 222.902344 26.316406 222.902344 25.324219 "/>
<path fill-rule="evenodd" fill="rgb(0%, 0%, 0%)" fill-opacity="1" d="M 210.917969 2.496094 C 210.917969 1.503906 210.113281 0.699219 209.121094 0.699219 C 208.128906 0.699219 207.324219 1.503906 207.324219 2.496094 C 207.324219 3.484375 208.128906 4.289062 209.121094 4.289062 C 210.113281 4.289062 210.917969 3.484375 210.917969 2.496094 "/>
<path fill-rule="evenodd" fill="rgb(0%, 0%, 0%)" fill-opacity="1" d="M 85.027344 37.191406 C 85.027344 36.199219 84.222656 35.398438 83.230469 35.398438 C 82.238281 35.398438 81.433594 36.199219 81.433594 37.191406 C 81.433594 38.183594 82.238281 38.988281 83.230469 38.988281 C 84.222656 38.988281 85.027344 38.183594 85.027344 37.191406 "/>
<path fill-rule="evenodd" fill="rgb(0%, 0%, 0%)" fill-opacity="1" d="M 60.914062 9.792969 C 60.914062 8.800781 60.109375 8 59.117188 8 C 58.125 8 57.320312 8.800781 57.320312 9.792969 C 57.320312 10.785156 58.125 11.589844 59.117188 11.589844 C 60.109375 11.589844 60.914062 10.785156 60.914062 9.792969 "/>
<g clip-path="url(#clip-1)">
<path fill-rule="evenodd" fill="rgb(0%, 0%, 0%)" fill-opacity="1" d="M 4.511719 80.148438 C 4.511719 79.15625 3.707031 78.351562 2.714844 78.351562 C 1.722656 78.351562 0.917969 79.15625 0.917969 80.148438 C 0.917969 81.140625 1.722656 81.945312 2.714844 81.945312 C 3.707031 81.945312 4.511719 81.140625 4.511719 80.148438 "/>
</g>
<path fill-rule="evenodd" fill="rgb(0%, 0%, 0%)" fill-opacity="1" d="M 36.722656 32.523438 C 36.722656 31.53125 35.917969 30.726562 34.925781 30.726562 C 33.933594 30.726562 33.128906 31.53125 33.128906 32.523438 C 33.128906 33.515625 33.933594 34.320312 34.925781 34.320312 C 35.917969 34.320312 36.722656 33.515625 36.722656 32.523438 "/>
<path fill="none" stroke-width="2" stroke-linecap="butt" stroke-linejoin="round" stroke="rgb(0%, 0%, 100%)" stroke-opacity="1" stroke-miterlimit="10" d="M 293.295297 264.001057 C 293.295297 315.527471 251.526013 357.296755 199.999599 357.296755 C 148.473186 357.296755 106.703902 315.527471 106.703902 264.001057 C 106.703902 212.474644 148.473186 170.705359 199.999599 170.705359 C 251.526013 170.705359 293.295297 212.474644 293.295297 264.001057 " transform="matrix(0.997668, 0, 0, -0.997668, -60.646466, 398.50648)"/>
</svg>
