<?xml version="1.0" encoding="UTF-8"?>
<svg xmlns="http://www.w3.org/2000/svg" xmlns:xlink="http://www.w3.org/1999/xlink" width="386.137" height="496.45" viewBox="0 0 386.137 496.45">
<defs>
<clipPath id="clip-0">
<path clip-rule="nonzero" d="M 0 0.277344 L 385.277344 0.277344 L 385.277344 495.621094 L 0 495.621094 Z M 0 0.277344 "/>
</clipPath>
</defs>
<g clip-path="url(#clip-0)">
<path fill-rule="nonzero" fill="rgb(100%, 100%, 100%)" fill-opacity="1" d="M 0 0.480469 L 385.078125 0.480469 L 385.078125 495.621094 L 0 495.621094 Z M 0 0.480469 "/>
</g>
<path fill="none" stroke-width="2" stroke-linecap="butt" stroke-linejoin="round" stroke="rgb(0%, 0%, 100%)" stroke-opacity="1" stroke-miterlimit="10" d="M 160.619897 445.322166 C 156.630532 440.56155 151.513653 434.462011 147.520373 429.69748 " transform="matrix(0.99777, 0, 0, -0.99777, 0.000000000000008327, 495.622078)"/>
<path fill="none" stroke-width="2" stroke-linecap="butt" stroke-linejoin="round" stroke="rgb(0%, 0%, 100%)" stroke-opacity="1" stroke-miterlimit="10" d="M 173.441457 445.322166 C 177.434737 440.56155 182.547702 434.462011 186.540982 429.69748 " transform="matrix(0.99777, 0, 0, -0.99777, 0.000000000000008327, 495.622078)"/>
<path fill="none" stroke-width="2" stroke-linecap="butt" stroke-linejoin="round" stroke="rgb(0%, 0%, 100%)" stroke-opacity="1" stroke-miterlimit="10" d="M 186.556641 476.884737 C 182.567277 472.124121 177.450397 466.024582 173.457117 461.260051 " transform="matrix(0.99777, 0, 0, -0.99777, 0.000000000000008327, 495.622078)"/>
<path fill="none" stroke-width="2" stroke-linecap="butt" stroke-linejoin="round" stroke="rgb(0%, 0%, 100%)" stroke-opacity="1" stroke-miterlimit="10" d="M 199.378202 476.884737 C 203.371482 472.124121 208.484446 466.024582 212.477726 461.260051 " transform="matrix(0.99777, 0, 0, -0.99777, 0.000000000000008327, 495.622078)"/>
<path fill="none" stroke-width="2" stroke-linecap="butt" stroke-linejoin="round" stroke="rgb(0%, 0%, 100%)" stroke-opacity="1" stroke-miterlimit="10" d="M 212.493386 445.322166 C 208.504021 440.56155 203.391057 434.462011 199.397777 429.69748 " transform="matrix(0.99777, 0, 0, -0.99777, 0.000000000000008327, 495.622078)"/>
<path fill="none" stroke-width="2" stroke-linecap="butt" stroke-linejoin="round" stroke="rgb(0%, 0%, 100%)" stroke-opacity="1" stroke-miterlimit="10" d="M 225.318861 445.322166 C 229.308226 440.56155 234.421191 434.462011 238.414471 429.69748 " transform="matrix(0.99777, 0, 0, -0.99777, 0.000000000000008327, 495.622078)"/>
<path fill="none" stroke-width="2" stroke-linecap="butt" stroke-linejoin="round" stroke="rgb(54.499817%, 0%, 0%)" stroke-opacity="1" stroke-miterlimit="10" d="M 186.556641 445.322166 C 182.567277 440.56155 177.450397 434.462011 173.457117 429.69748 " transform="matrix(0.99777, 0, 0, -0.99777, 0.000000000000008327, 495.622078)"/>
<path fill="none" stroke-width="2" stroke-linecap="butt" stroke-linejoin="round" stroke="rgb(54.499817%, 0%, 0%)" stroke-opacity="1" stroke-miterlimit="10" d="M 199.378202 445.322166 C 203.371482 440.56155 208.484446 434.462011 212.477726 429.69748 " transform="matrix(0.99777, 0, 0, -0.99777, 0.000000000000008327, 495.622078)"/>
<path fill="none" stroke-width="2" stroke-linecap="butt" stroke-linejoin="round" stroke="rgb(0%, 0%, 100%)" stroke-opacity="1" stroke-miterlimit="10" d="M 134.683152 413.759595 C 130.689873 408.998979 125.576908 402.899439 121.583628 398.134908 " transform="matrix(0.99777, 0, 0, -0.99777, 0.000000000000008327, 495.622078)"/>
<path fill="none" stroke-width="2" stroke-linecap="butt" stroke-linejoin="round" stroke="rgb(0%, 0%, 100%)" stroke-opacity="1" stroke-miterlimit="10" d="M 147.504713 413.759595 C 151.494078 408.998979 156.610957 402.899439 160.604237 398.134908 " transform="matrix(0.99777, 0, 0, -0.99777, 0.000000000000008327, 495.622078)"/>
<path fill="none" stroke-width="2" stroke-linecap="butt" stroke-linejoin="round" stroke="rgb(0%, 0%, 100%)" stroke-opacity="1" stroke-miterlimit="10" d="M 186.556641 413.759595 C 182.567277 408.998979 177.450397 402.899439 173.457117 398.134908 " transform="matrix(0.99777, 0, 0, -0.99777, 0.000000000000008327, 495.622078)"/>
<path fill="none" stroke-width="2" stroke-linecap="butt" stroke-linejoin="round" stroke="rgb(0%, 0%, 100%)" stroke-opacity="1" stroke-miterlimit="10" d="M 199.378202 413.759595 C 203.371482 408.998979 208.484446 402.899439 212.477726 398.134908 " transform="matrix(0.99777, 0, 0, -0.99777, 0.000000000000008327, 495.622078)"/>
<path fill="none" stroke-width="2" stroke-linecap="butt" stroke-linejoin="round" stroke="rgb(54.499817%, 0%, 0%)" stroke-opacity="1" stroke-miterlimit="10" d="M 160.619897 413.759595 C 156.630532 408.998979 151.513653 402.899439 147.520373 398.134908 " transform="matrix(0.99777, 0, 0, -0.99777, 0.000000000000008327, 495.622078)"/>
<path fill="none" stroke-width="2" stroke-linecap="butt" stroke-linejoin="round" stroke="rgb(54.499817%, 0%, 0%)" stroke-opacity="1" stroke-miterlimit="10" d="M 173.441457 413.759595 C 177.434737 408.998979 182.547702 402.899439 186.540982 398.134908 " transform="matrix(0.99777, 0, 0, -0.99777, 0.000000000000008327, 495.622078)"/>
<path fill="none" stroke-width="2" stroke-linecap="butt" stroke-linejoin="round" stroke="rgb(0%, 0%, 100%)" stroke-opacity="1" stroke-miterlimit="10" d="M 108.746408 382.197024 C 104.753128 377.436408 99.640164 371.336868 95.646884 366.572337 " transform="matrix(0.99777, 0, 0, -0.99777, 0.000000000000008327, 495.622078)"/>
<path fill="none" stroke-width="2" stroke-linecap="butt" stroke-linejoin="round" stroke="rgb(0%, 0%, 100%)" stroke-opacity="1" stroke-miterlimit="10" d="M 121.567968 382.197024 C 125.557333 377.436408 130.674213 371.336868 134.667493 366.572337 " transform="matrix(0.99777, 0, 0, -0.99777, 0.000000000000008327, 495.622078)"/>
<path fill="none" stroke-width="2" stroke-linecap="butt" stroke-linejoin="round" stroke="rgb(0%, 0%, 100%)" stroke-opacity="1" stroke-miterlimit="10" d="M 160.619897 382.197024 C 156.630532 377.436408 151.513653 371.336868 147.520373 366.572337 " transform="matrix(0.99777, 0, 0, -0.99777, 0.000000000000008327, 495.622078)"/>
<path fill="none" stroke-width="2" stroke-linecap="butt" stroke-linejoin="round" stroke="rgb(0%, 0%, 100%)" stroke-opacity="1" stroke-miterlimit="10" d="M 173.441457 382.197024 C 177.434737 377.436408 182.547702 371.336868 186.540982 366.572337 " transform="matrix(0.99777, 0, 0, -0.99777, 0.000000000000008327, 495.622078)"/>
<path fill="none" stroke-width="2" stroke-linecap="butt" stroke-linejoin="round" stroke="rgb(54.499817%, 0%, 0%)" stroke-opacity="1" stroke-miterlimit="10" d="M 134.683152 382.197024 C 130.689873 377.436408 125.576908 371.336868 121.583628 366.572337 " transform="matrix(0.99777, 0, 0, -0.99777, 0.000000000000008327, 495.622078)"/>
<path fill="none" stroke-width="2" stroke-linecap="butt" stroke-linejoin="round" stroke="rgb(54.499817%, 0%, 0%)" stroke-opacity="1" stroke-miterlimit="10" d="M 147.504713 382.197024 C 151.494078 377.436408 156.610957 371.336868 160.604237 366.572337 " transform="matrix(0.99777, 0, 0, -0.99777, 0.000000000000008327, 495.622078)"/>
<path fill="none" stroke-width="2" stroke-linecap="butt" stroke-linejoin="round" stroke="rgb(0%, 0%, 100%)" stroke-opacity="1" stroke-miterlimit="10" d="M 82.805748 350.634452 C 78.816383 345.873836 73.703419 339.774297 69.710139 335.009766 " transform="matrix(0.99777, 0, 0, -0.99777, 0.000000000000008327, 495.622078)"/>
<path fill="none" stroke-width="2" stroke-linecap="butt" stroke-linejoin="round" stroke="rgb(0%, 0%, 100%)" stroke-opacity="1" stroke-miterlimit="10" d="M 95.631224 350.634452 C 99.620589 345.873836 104.733553 339.774297 108.726833 335.009766 " transform="matrix(0.99777, 0, 0, -0.99777, 0.000000000000008327, 495.622078)"/>
<path fill="none" stroke-width="2" stroke-linecap="butt" stroke-linejoin="round" stroke="rgb(0%, 0%, 100%)" stroke-opacity="1" stroke-miterlimit="10" d="M 134.683152 350.634452 C 130.689873 345.873836 125.576908 339.774297 121.583628 335.009766 " transform="matrix(0.99777, 0, 0, -0.99777, 0.000000000000008327, 495.622078)"/>
<path fill="none" stroke-width="2" stroke-linecap="butt" stroke-linejoin="round" stroke="rgb(0%, 0%, 100%)" stroke-opacity="1" stroke-miterlimit="10" d="M 147.504713 350.634452 C 151.494078 345.873836 156.610957 339.774297 160.604237 335.009766 " transform="matrix(0.99777, 0, 0, -0.99777, 0.000000000000008327, 495.622078)"/>
<path fill="none" stroke-width="2" stroke-linecap="butt" stroke-linejoin="round" stroke="rgb(54.499817%, 0%, 0%)" stroke-opacity="1" stroke-miterlimit="10" d="M 108.746408 350.634452 C 104.753128 345.873836 99.640164 339.774297 95.646884 335.009766 " transform="matrix(0.99777, 0, 0, -0.99777, 0.000000000000008327, 495.622078)"/>
<path fill="none" stroke-width="2" stroke-linecap="butt" stroke-linejoin="round" stroke="rgb(54.499817%, 0%, 0%)" stroke-opacity="1" stroke-miterlimit="10" d="M 121.567968 350.634452 C 125.557333 345.873836 130.674213 339.774297 134.667493 335.009766 " transform="matrix(0.99777, 0, 0, -0.99777, 0.000000000000008327, 495.622078)"/>
<path fill="none" stroke-width="2" stroke-linecap="butt" stroke-linejoin="round" stroke="rgb(0%, 0%, 100%)" stroke-opacity="1" stroke-miterlimit="10" d="M 56.869004 319.071881 C 52.879639 314.311265 47.76276 308.211726 43.773395 303.447195 " transform="matrix(0.99777, 0, 0, -0.99777, 0.000000000000008327, 495.622078)"/>
<path fill="none" stroke-width="2" stroke-linecap="butt" stroke-linejoin="round" stroke="rgb(0%, 0%, 100%)" stroke-opacity="1" stroke-miterlimit="10" d="M 69.690564 319.071881 C 73.683844 314.311265 78.796809 308.211726 82.790089 303.447195 " transform="matrix(0.99777, 0, 0, -0.99777, 0.000000000000008327, 495.622078)"/>
<path fill="none" stroke-width="2" stroke-linecap="butt" stroke-linejoin="round" stroke="rgb(0%, 0%, 100%)" stroke-opacity="1" stroke-miterlimit="10" d="M 108.746408 319.071881 C 104.753128 314.311265 99.640164 308.211726 95.646884 303.447195 " transform="matrix(0.99777, 0, 0, -0.99777, 0.000000000000008327, 495.622078)"/>
<path fill="none" stroke-width="2" stroke-linecap="butt" stroke-linejoin="round" stroke="rgb(0%, 0%, 100%)" stroke-opacity="1" stroke-miterlimit="10" d="M 121.567968 319.071881 C 125.557333 314.311265 130.674213 308.211726 134.667493 303.447195 " transform="matrix(0.99777, 0, 0, -0.99777, 0.000000000000008327, 495.622078)"/>
<path fill="none" stroke-width="2" stroke-linecap="butt" stroke-linejoin="round" stroke="rgb(54.499817%, 0%, 0%)" stroke-opacity="1" stroke-miterlimit="10" d="M 82.805748 319.071881 C 78.816383 314.311265 73.703419 308.211726 69.710139 303.447195 " transform="matrix(0.99777, 0, 0, -0.99777, 0.000000000000008327, 495.622078)"/>
<path fill="none" stroke-width="2" stroke-linecap="butt" stroke-linejoin="round" stroke="rgb(54.499817%, 0%, 0%)" stroke-opacity="1" stroke-miterlimit="10" d="M 95.631224 319.071881 C 99.620589 314.311265 104.733553 308.211726 108.726833 303.447195 " transform="matrix(0.99777, 0, 0, -0.99777, 0.000000000000008327, 495.622078)"/>
<path fill="none" stroke-width="2" stroke-linecap="butt" stroke-linejoin="round" stroke="rgb(0%, 0%, 100%)" stroke-opacity="1" stroke-miterlimit="10" d="M 30.932259 287.50931 C 26.942894 282.748694 21.826015 276.64524 17.832735 271.884624 " transform="matrix(0.99777, 0, 0, -0.99777, 0.000000000000008327, 495.622078)"/>
<path fill="none" stroke-width="2" stroke-linecap="butt" stroke-linejoin="round" stroke="rgb(0%, 0%, 100%)" stroke-opacity="1" stroke-miterlimit="10" d="M 43.75382 287.50931 C 47.7471 282.748694 52.860064 276.64524 56.853344 271.884624 " transform="matrix(0.99777, 0, 0, -0.99777, 0.000000000000008327, 495.622078)"/>
<path fill="none" stroke-width="2" stroke-linecap="butt" stroke-linejoin="round" stroke="rgb(0%, 0%, 100%)" stroke-opacity="1" stroke-miterlimit="10" d="M 82.805748 287.50931 C 78.816383 282.748694 73.703419 276.64524 69.710139 271.884624 " transform="matrix(0.99777, 0, 0, -0.99777, 0.000000000000008327, 495.622078)"/>
<path fill="none" stroke-width="2" stroke-linecap="butt" stroke-linejoin="round" stroke="rgb(0%, 0%, 100%)" stroke-opacity="1" stroke-miterlimit="10" d="M 95.631224 287.50931 C 99.620589 282.748694 104.733553 276.64524 108.726833 271.884624 " transform="matrix(0.99777, 0, 0, -0.99777, 0.000000000000008327, 495.622078)"/>
<path fill="none" stroke-width="2" stroke-linecap="butt" stroke-linejoin="round" stroke="rgb(54.499817%, 0%, 0%)" stroke-opacity="1" stroke-miterlimit="10" d="M 56.869004 287.50931 C 52.879639 282.748694 47.76276 276.64524 43.773395 271.884624 " transform="matrix(0.99777, 0, 0, -0.99777, 0.000000000000008327, 495.622078)"/>
<path fill="none" stroke-width="2" stroke-linecap="butt" stroke-linejoin="round" stroke="rgb(54.499817%, 0%, 0%)" stroke-opacity="1" stroke-miterlimit="10" d="M 69.690564 287.50931 C 73.683844 282.748694 78.796809 276.64524 82.790089 271.884624 " transform="matrix(0.99777, 0, 0, -0.99777, 0.000000000000008327, 495.622078)"/>
<path fill="none" stroke-width="2" stroke-linecap="butt" stroke-linejoin="round" stroke="rgb(0%, 0%, 100%)" stroke-opacity="1" stroke-miterlimit="10" d="M 17.817075 255.946739 C 21.810355 251.186123 26.92332 245.086583 30.916599 240.322052 " transform="matrix(0.99777, 0, 0, -0.99777, 0.000000000000008327, 495.622078)"/>
<path fill="none" stroke-width="2" stroke-linecap="butt" stroke-linejoin="round" stroke="rgb(0%, 0%, 100%)" stroke-opacity="1" stroke-miterlimit="10" d="M 56.869004 255.946739 C 52.879639 251.186123 47.76276 245.086583 43.773395 240.322052 " transform="matrix(0.99777, 0, 0, -0.99777, 0.000000000000008327, 495.622078)"/>
<path fill="none" stroke-width="2" stroke-linecap="butt" stroke-linejoin="round" stroke="rgb(0%, 0%, 100%)" stroke-opacity="1" stroke-miterlimit="10" d="M 69.690564 255.946739 C 73.683844 251.186123 78.796809 245.086583 82.790089 240.322052 " transform="matrix(0.99777, 0, 0, -0.99777, 0.000000000000008327, 495.622078)"/>
<path fill="none" stroke-width="2" stroke-linecap="butt" stroke-linejoin="round" stroke="rgb(54.499817%, 0%, 0%)" stroke-opacity="1" stroke-miterlimit="10" d="M 30.932259 255.946739 C 26.942894 251.186123 21.826015 245.086583 17.832735 240.322052 " transform="matrix(0.99777, 0, 0, -0.99777, 0.000000000000008327, 495.622078)"/>
<path fill="none" stroke-width="2" stroke-linecap="butt" stroke-linejoin="round" stroke="rgb(54.499817%, 0%, 0%)" stroke-opacity="1" stroke-miterlimit="10" d="M 43.75382 255.946739 C 47.7471 251.186123 52.860064 245.086583 56.853344 240.322052 " transform="matrix(0.99777, 0, 0, -0.99777, 0.000000000000008327, 495.622078)"/>
<path fill="none" stroke-width="2" stroke-linecap="butt" stroke-linejoin="round" stroke="rgb(0%, 0%, 100%)" stroke-opacity="1" stroke-miterlimit="10" d="M 43.75382 224.384168 C 47.7471 219.623552 52.860064 213.524012 56.853344 208.759481 " transform="matrix(0.99777, 0, 0, -0.99777, 0.000000000000008327, 495.622078)"/>
<path fill="none" stroke-width="2" stroke-linecap="butt" stroke-linejoin="round" stroke="rgb(54.499817%, 0%, 0%)" stroke-opacity="1" stroke-miterlimit="10" d="M 17.817075 224.384168 C 21.810355 219.623552 26.92332 213.524012 30.916599 208.759481 " transform="matrix(0.99777, 0, 0, -0.99777, 0.000000000000008327, 495.622078)"/>
<path fill="none" stroke-width="2" stroke-linecap="butt" stroke-linejoin="round" stroke="rgb(0%, 0%, 100%)" stroke-opacity="1" stroke-miterlimit="10" d="M 238.434046 413.759595 C 234.440766 408.998979 229.327801 402.899439 225.334521 398.134908 " transform="matrix(0.99777, 0, 0, -0.99777, 0.000000000000008327, 495.622078)"/>
<path fill="none" stroke-width="2" stroke-linecap="butt" stroke-linejoin="round" stroke="rgb(0%, 0%, 100%)" stroke-opacity="1" stroke-miterlimit="10" d="M 251.255606 413.759595 C 255.244971 408.998979 260.36185 402.899439 264.351215 398.134908 " transform="matrix(0.99777, 0, 0, -0.99777, 0.000000000000008327, 495.622078)"/>
<path fill="none" stroke-width="2" stroke-linecap="butt" stroke-linejoin="round" stroke="rgb(54.499817%, 0%, 0%)" stroke-opacity="1" stroke-miterlimit="10" d="M 212.493386 413.759595 C 208.504021 408.998979 203.391057 402.899439 199.397777 398.134908 " transform="matrix(0.99777, 0, 0, -0.99777, 0.000000000000008327, 495.622078)"/>
<path fill="none" stroke-width="2" stroke-linecap="butt" stroke-linejoin="round" stroke="rgb(54.499817%, 0%, 0%)" stroke-opacity="1" stroke-miterlimit="10" d="M 225.318861 413.759595 C 229.308226 408.998979 234.421191 402.899439 238.414471 398.134908 " transform="matrix(0.99777, 0, 0, -0.99777, 0.000000000000008327, 495.622078)"/>
<path fill="none" stroke-width="2" stroke-linecap="butt" stroke-linejoin="round" stroke="rgb(0%, 0%, 100%)" stroke-opacity="1" stroke-miterlimit="10" d="M 212.493386 382.197024 C 208.504021 377.436408 203.391057 371.336868 199.397777 366.572337 " transform="matrix(0.99777, 0, 0, -0.99777, 0.000000000000008327, 495.622078)"/>
<path fill="none" stroke-width="2" stroke-linecap="butt" stroke-linejoin="round" stroke="rgb(0%, 0%, 100%)" stroke-opacity="1" stroke-miterlimit="10" d="M 225.318861 382.197024 C 229.308226 377.436408 234.421191 371.336868 238.414471 366.572337 " transform="matrix(0.99777, 0, 0, -0.99777, 0.000000000000008327, 495.622078)"/>
<path fill="none" stroke-width="2" stroke-linecap="butt" stroke-linejoin="round" stroke="rgb(54.499817%, 0%, 0%)" stroke-opacity="1" stroke-miterlimit="10" d="M 186.556641 382.197024 C 182.567277 377.436408 177.450397 371.336868 173.457117 366.572337 " transform="matrix(0.99777, 0, 0, -0.99777, 0.000000000000008327, 495.622078)"/>
<path fill="none" stroke-width="2" stroke-linecap="butt" stroke-linejoin="round" stroke="rgb(54.499817%, 0%, 0%)" stroke-opacity="1" stroke-miterlimit="10" d="M 199.378202 382.197024 C 203.371482 377.436408 208.484446 371.336868 212.477726 366.572337 " transform="matrix(0.99777, 0, 0, -0.99777, 0.000000000000008327, 495.622078)"/>
<path fill="none" stroke-width="2" stroke-linecap="butt" stroke-linejoin="round" stroke="rgb(0%, 0%, 100%)" stroke-opacity="1" stroke-miterlimit="10" d="M 186.556641 350.634452 C 182.567277 345.873836 177.450397 339.774297 173.457117 335.009766 " transform="matrix(0.99777, 0, 0, -0.99777, 0.000000000000008327, 495.622078)"/>
<path fill="none" stroke-width="2" stroke-linecap="butt" stroke-linejoin="round" stroke="rgb(0%, 0%, 100%)" stroke-opacity="1" stroke-miterlimit="10" d="M 199.378202 350.634452 C 203.371482 345.873836 208.484446 339.774297 212.477726 335.009766 " transform="matrix(0.99777, 0, 0, -0.99777, 0.000000000000008327, 495.622078)"/>
<path fill="none" stroke-width="2" stroke-linecap="butt" stroke-linejoin="round" stroke="rgb(54.499817%, 0%, 0%)" stroke-opacity="1" stroke-miterlimit="10" d="M 160.619897 350.634452 C 156.630532 345.873836 151.513653 339.774297 147.520373 335.009766 " transform="matrix(0.99777, 0, 0, -0.99777, 0.000000000000008327, 495.622078)"/>
<path fill="none" stroke-width="2" stroke-linecap="butt" stroke-linejoin="round" stroke="rgb(54.499817%, 0%, 0%)" stroke-opacity="1" stroke-miterlimit="10" d="M 173.441457 350.634452 C 177.434737 345.873836 182.547702 339.774297 186.540982 335.009766 " transform="matrix(0.99777, 0, 0, -0.99777, 0.000000000000008327, 495.622078)"/>
<path fill="none" stroke-width="2" stroke-linecap="butt" stroke-linejoin="round" stroke="rgb(0%, 0%, 100%)" stroke-opacity="1" stroke-miterlimit="10" d="M 160.619897 319.071881 C 156.630532 314.311265 151.513653 308.211726 147.520373 303.447195 " transform="matrix(0.99777, 0, 0, -0.99777, 0.000000000000008327, 495.622078)"/>
<path fill="none" stroke-width="2" stroke-linecap="butt" stroke-linejoin="round" stroke="rgb(0%, 0%, 100%)" stroke-opacity="1" stroke-miterlimit="10" d="M 173.441457 319.071881 C 177.434737 314.311265 182.547702 308.211726 186.540982 303.447195 " transform="matrix(0.99777, 0, 0, -0.99777, 0.000000000000008327, 495.622078)"/>
<path fill="none" stroke-width="2" stroke-linecap="butt" stroke-linejoin="round" stroke="rgb(54.499817%, 0%, 0%)" stroke-opacity="1" stroke-miterlimit="10" d="M 134.683152 319.071881 C 130.689873 314.311265 125.576908 308.211726 121.583628 303.447195 " transform="matrix(0.99777, 0, 0, -0.99777, 0.000000000000008327, 495.622078)"/>
<path fill="none" stroke-width="2" stroke-linecap="butt" stroke-linejoin="round" stroke="rgb(54.499817%, 0%, 0%)" stroke-opacity="1" stroke-miterlimit="10" d="M 147.504713 319.071881 C 151.494078 314.311265 156.610957 308.211726 160.604237 303.447195 " transform="matrix(0.99777, 0, 0, -0.99777, 0.000000000000008327, 495.622078)"/>
<path fill="none" stroke-width="2" stroke-linecap="butt" stroke-linejoin="round" stroke="rgb(0%, 0%, 100%)" stroke-opacity="1" stroke-miterlimit="10" d="M 134.683152 287.50931 C 130.689873 282.748694 125.576908 276.64524 121.583628 271.884624 " transform="matrix(0.99777, 0, 0, -0.99777, 0.000000000000008327, 495.622078)"/>
<path fill="none" stroke-width="2" stroke-linecap="butt" stroke-linejoin="round" stroke="rgb(0%, 0%, 100%)" stroke-opacity="1" stroke-miterlimit="10" d="M 147.504713 287.50931 C 151.494078 282.748694 156.610957 276.64524 160.604237 271.884624 " transform="matrix(0.99777, 0, 0, -0.99777, 0.000000000000008327, 495.622078)"/>
<path fill="none" stroke-width="2" stroke-linecap="butt" stroke-linejoin="round" stroke="rgb(54.499817%, 0%, 0%)" stroke-opacity="1" stroke-miterlimit="10" d="M 108.746408 287.50931 C 104.753128 282.748694 99.640164 276.64524 95.646884 271.884624 " transform="matrix(0.99777, 0, 0, -0.99777, 0.000000000000008327, 495.622078)"/>
<path fill="none" stroke-width="2" stroke-linecap="butt" stroke-linejoin="round" stroke="rgb(54.499817%, 0%, 0%)" stroke-opacity="1" stroke-miterlimit="10" d="M 121.567968 287.50931 C 125.557333 282.748694 130.674213 276.64524 134.667493 271.884624 " transform="matrix(0.99777, 0, 0, -0.99777, 0.000000000000008327, 495.622078)"/>
<path fill="none" stroke-width="2" stroke-linecap="butt" stroke-linejoin="round" stroke="rgb(0%, 0%, 100%)" stroke-opacity="1" stroke-miterlimit="10" d="M 108.746408 255.946739 C 104.753128 251.186123 99.640164 245.086583 95.646884 240.322052 " transform="matrix(0.99777, 0, 0, -0.99777, 0.000000000000008327, 495.622078)"/>
<path fill="none" stroke-width="2" stroke-linecap="butt" stroke-linejoin="round" stroke="rgb(0%, 0%, 100%)" stroke-opacity="1" stroke-miterlimit="10" d="M 121.567968 255.946739 C 125.557333 251.186123 130.674213 245.086583 134.667493 240.322052 " transform="matrix(0.99777, 0, 0, -0.99777, 0.000000000000008327, 495.622078)"/>
<path fill="none" stroke-width="2" stroke-linecap="butt" stroke-linejoin="round" stroke="rgb(54.499817%, 0%, 0%)" stroke-opacity="1" stroke-miterlimit="10" d="M 82.805748 255.946739 C 78.816383 251.186123 73.703419 245.086583 69.710139 240.322052 " transform="matrix(0.99777, 0, 0, -0.99777, 0.000000000000008327, 495.622078)"/>
<path fill="none" stroke-width="2" stroke-linecap="butt" stroke-linejoin="round" stroke="rgb(54.499817%, 0%, 0%)" stroke-opacity="1" stroke-miterlimit="10" d="M 95.631224 255.946739 C 99.620589 251.186123 104.733553 245.086583 108.726833 240.322052 " transform="matrix(0.99777, 0, 0, -0.99777, 0.000000000000008327, 495.622078)"/>
<path fill="none" stroke-width="2" stroke-linecap="butt" stroke-linejoin="round" stroke="rgb(0%, 0%, 100%)" stroke-opacity="1" stroke-miterlimit="10" d="M 82.805748 224.384168 C 78.816383 219.623552 73.703419 213.524012 69.710139 208.759481 " transform="matrix(0.99777, 0, 0, -0.99777, 0.000000000000008327, 495.622078)"/>
<path fill="none" stroke-width="2" stroke-linecap="butt" stroke-linejoin="round" stroke="rgb(0%, 0%, 100%)" stroke-opacity="1" stroke-miterlimit="10" d="M 95.631224 224.384168 C 99.620589 219.623552 104.733553 213.524012 108.726833 208.759481 " transform="matrix(0.99777, 0, 0, -0.99777, 0.000000000000008327, 495.622078)"/>
<path fill="none" stroke-width="2" stroke-linecap="butt" stroke-linejoin="round" stroke="rgb(54.499817%, 0%, 0%)" stroke-opacity="1" stroke-miterlimit="10" d="M 56.869004 224.384168 C 52.879639 219.623552 47.76276 213.524012 43.773395 208.759481 " transform="matrix(0.99777, 0, 0, -0.99777, 0.000000000000008327, 495.622078)"/>
<path fill="none" stroke-width="2" stroke-linecap="butt" stroke-linejoin="round" stroke="rgb(54.499817%, 0%, 0%)" stroke-opacity="1" stroke-miterlimit="10" d="M 69.690564 224.384168 C 73.683844 219.623552 78.796809 213.524012 82.790089 208.759481 " transform="matrix(0.99777, 0, 0, -0.99777, 0.000000000000008327, 495.622078)"/>
<path fill="none" stroke-width="2" stroke-linecap="butt" stroke-linejoin="round" stroke="rgb(0%, 0%, 100%)" stroke-opacity="1" stroke-miterlimit="10" d="M 69.690564 192.821596 C 73.683844 188.06098 78.796809 181.961441 82.790089 177.19691 " transform="matrix(0.99777, 0, 0, -0.99777, 0.000000000000008327, 495.622078)"/>
<path fill="none" stroke-width="2" stroke-linecap="butt" stroke-linejoin="round" stroke="rgb(54.499817%, 0%, 0%)" stroke-opacity="1" stroke-miterlimit="10" d="M 43.75382 192.821596 C 47.7471 188.06098 52.860064 181.961441 56.853344 177.19691 " transform="matrix(0.99777, 0, 0, -0.99777, 0.000000000000008327, 495.622078)"/>
<path fill="none" stroke-width="2" stroke-linecap="butt" stroke-linejoin="round" stroke="rgb(0%, 0%, 100%)" stroke-opacity="1" stroke-miterlimit="10" d="M 264.37079 382.197024 C 260.381425 377.436408 255.264546 371.336868 251.271266 366.572337 " transform="matrix(0.99777, 0, 0, -0.99777, 0.000000000000008327, 495.622078)"/>
<path fill="none" stroke-width="2" stroke-linecap="butt" stroke-linejoin="round" stroke="rgb(0%, 0%, 100%)" stroke-opacity="1" stroke-miterlimit="10" d="M 277.192351 382.197024 C 281.181715 377.436408 286.298595 371.336868 290.291875 366.572337 " transform="matrix(0.99777, 0, 0, -0.99777, 0.000000000000008327, 495.622078)"/>
<path fill="none" stroke-width="2" stroke-linecap="butt" stroke-linejoin="round" stroke="rgb(54.499817%, 0%, 0%)" stroke-opacity="1" stroke-miterlimit="10" d="M 238.434046 382.197024 C 234.440766 377.436408 229.327801 371.336868 225.334521 366.572337 " transform="matrix(0.99777, 0, 0, -0.99777, 0.000000000000008327, 495.622078)"/>
<path fill="none" stroke-width="2" stroke-linecap="butt" stroke-linejoin="round" stroke="rgb(54.499817%, 0%, 0%)" stroke-opacity="1" stroke-miterlimit="10" d="M 251.255606 382.197024 C 255.244971 377.436408 260.36185 371.336868 264.351215 366.572337 " transform="matrix(0.99777, 0, 0, -0.99777, 0.000000000000008327, 495.622078)"/>
<path fill="none" stroke-width="2" stroke-linecap="butt" stroke-linejoin="round" stroke="rgb(0%, 0%, 100%)" stroke-opacity="1" stroke-miterlimit="10" d="M 238.434046 350.634452 C 234.440766 345.873836 229.327801 339.774297 225.334521 335.009766 " transform="matrix(0.99777, 0, 0, -0.99777, 0.000000000000008327, 495.622078)"/>
<path fill="none" stroke-width="2" stroke-linecap="butt" stroke-linejoin="round" stroke="rgb(0%, 0%, 100%)" stroke-opacity="1" stroke-miterlimit="10" d="M 251.255606 350.634452 C 255.244971 345.873836 260.36185 339.774297 264.351215 335.009766 " transform="matrix(0.99777, 0, 0, -0.99777, 0.000000000000008327, 495.622078)"/>
<path fill="none" stroke-width="2" stroke-linecap="butt" stroke-linejoin="round" stroke="rgb(54.499817%, 0%, 0%)" stroke-opacity="1" stroke-miterlimit="10" d="M 212.493386 350.634452 C 208.504021 345.873836 203.391057 339.774297 199.397777 335.009766 " transform="matrix(0.99777, 0, 0, -0.99777, 0.000000000000008327, 495.622078)"/>
<path fill="none" stroke-width="2" stroke-linecap="butt" stroke-linejoin="round" stroke="rgb(54.499817%, 0%, 0%)" stroke-opacity="1" stroke-miterlimit="10" d="M 225.318861 350.634452 C 229.308226 345.873836 234.421191 339.774297 238.414471 335.009766 " transform="matrix(0.99777, 0, 0, -0.99777, 0.000000000000008327, 495.622078)"/>
<path fill="none" stroke-width="2" stroke-linecap="butt" stroke-linejoin="round" stroke="rgb(0%, 0%, 100%)" stroke-opacity="1" stroke-miterlimit="10" d="M 212.493386 319.071881 C 208.504021 314.311265 203.391057 308.211726 199.397777 303.447195 " transform="matrix(0.99777, 0, 0, -0.99777, 0.000000000000008327, 495.622078)"/>
<path fill="none" stroke-width="2" stroke-linecap="butt" stroke-linejoin="round" stroke="rgb(0%, 0%, 100%)" stroke-opacity="1" stroke-miterlimit="10" d="M 225.318861 319.071881 C 229.308226 314.311265 234.421191 308.211726 238.414471 303.447195 " transform="matrix(0.99777, 0, 0, -0.99777, 0.000000000000008327, 495.622078)"/>
<path fill="none" stroke-width="2" stroke-linecap="butt" stroke-linejoin="round" stroke="rgb(54.499817%, 0%, 0%)" stroke-opacity="1" stroke-miterlimit="10" d="M 186.556641 319.071881 C 182.567277 314.311265 177.450397 308.211726 173.457117 303.447195 " transform="matrix(0.99777, 0, 0, -0.99777, 0.000000000000008327, 495.622078)"/>
<path fill="none" stroke-width="2" stroke-linecap="butt" stroke-linejoin="round" stroke="rgb(54.499817%, 0%, 0%)" stroke-opacity="1" stroke-miterlimit="10" d="M 199.378202 319.071881 C 203.371482 314.311265 208.484446 308.211726 212.477726 303.447195 " transform="matrix(0.99777, 0, 0, -0.99777, 0.000000000000008327, 495.622078)"/>
<path fill="none" stroke-width="2" stroke-linecap="butt" stroke-linejoin="round" stroke="rgb(0%, 0%, 100%)" stroke-opacity="1" stroke-miterlimit="10" d="M 186.556641 287.50931 C 182.567277 282.748694 177.450397 276.64524 173.457117 271.884624 " transform="matrix(0.99777, 0, 0, -0.99777, 0.000000000000008327, 495.622078)"/>
<path fill="none" stroke-width="2" stroke-linecap="butt" stroke-linejoin="round" stroke="rgb(0%, 0%, 100%)" stroke-opacity="1" stroke-miterlimit="10" d="M 199.378202 287.50931 C 203.371482 282.748694 208.484446 276.64524 212.477726 271.884624 " transform="matrix(0.99777, 0, 0, -0.99777, 0.000000000000008327, 495.622078)"/>
<path fill="none" stroke-width="2" stroke-linecap="butt" stroke-linejoin="round" stroke="rgb(54.499817%, 0%, 0%)" stroke-opacity="1" stroke-miterlimit="10" d="M 160.619897 287.50931 C 156.630532 282.748694 151.513653 276.64524 147.520373 271.884624 " transform="matrix(0.99777, 0, 0, -0.99777, 0.000000000000008327, 495.622078)"/>
<path fill="none" stroke-width="2" stroke-linecap="butt" stroke-linejoin="round" stroke="rgb(54.499817%, 0%, 0%)" stroke-opacity="1" stroke-miterlimit="10" d="M 173.441457 287.50931 C 177.434737 282.748694 182.547702 276.64524 186.540982 271.884624 " transform="matrix(0.99777, 0, 0, -0.99777, 0.000000000000008327, 495.622078)"/>
<path fill="none" stroke-width="2" stroke-linecap="butt" stroke-linejoin="round" stroke="rgb(0%, 0%, 100%)" stroke-opacity="1" stroke-miterlimit="10" d="M 160.619897 255.946739 C 156.630532 251.186123 151.513653 245.086583 147.520373 240.322052 " transform="matrix(0.99777, 0, 0, -0.99777, 0.000000000000008327, 495.622078)"/>
<path fill="none" stroke-width="2" stroke-linecap="butt" stroke-linejoin="round" stroke="rgb(0%, 0%, 100%)" stroke-opacity="1" stroke-miterlimit="10" d="M 173.441457 255.946739 C 177.434737 251.186123 182.547702 245.086583 186.540982 240.322052 " transform="matrix(0.99777, 0, 0, -0.99777, 0.000000000000008327, 495.622078)"/>
<path fill="none" stroke-width="2" stroke-linecap="butt" stroke-linejoin="round" stroke="rgb(54.499817%, 0%, 0%)" stroke-opacity="1" stroke-miterlimit="10" d="M 134.683152 255.946739 C 130.689873 251.186123 125.576908 245.086583 121.583628 240.322052 " transform="matrix(0.99777, 0, 0, -0.99777, 0.000000000000008327, 495.622078)"/>
<path fill="none" stroke-width="2" stroke-linecap="butt" stroke-linejoin="round" stroke="rgb(54.499817%, 0%, 0%)" stroke-opacity="1" stroke-miterlimit="10" d="M 147.504713 255.946739 C 151.494078 251.186123 156.610957 245.086583 160.604237 240.322052 " transform="matrix(0.99777, 0, 0, -0.99777, 0.000000000000008327, 495.622078)"/>
<path fill="none" stroke-width="2" stroke-linecap="butt" stroke-linejoin="round" stroke="rgb(0%, 0%, 100%)" stroke-opacity="1" stroke-miterlimit="10" d="M 134.683152 224.384168 C 130.689873 219.623552 125.576908 213.524012 121.583628 208.759481 " transform="matrix(0.99777, 0, 0, -0.99777, 0.000000000000008327, 495.622078)"/>
<path fill="none" stroke-width="2" stroke-linecap="butt" stroke-linejoin="round" stroke="rgb(0%, 0%, 100%)" stroke-opacity="1" stroke-miterlimit="10" d="M 147.504713 224.384168 C 151.494078 219.623552 156.610957 213.524012 160.604237 208.759481 " transform="matrix(0.99777, 0, 0, -0.99777, 0.000000000000008327, 495.622078)"/>
<path fill="none" stroke-width="2" stroke-linecap="butt" stroke-linejoin="round" stroke="rgb(54.499817%, 0%, 0%)" stroke-opacity="1" stroke-miterlimit="10" d="M 108.746408 224.384168 C 104.753128 219.623552 99.640164 213.524012 95.646884 208.759481 " transform="matrix(0.99777, 0, 0, -0.99777, 0.000000000000008327, 495.622078)"/>
<path fill="none" stroke-width="2" stroke-linecap="butt" stroke-linejoin="round" stroke="rgb(54.499817%, 0%, 0%)" stroke-opacity="1" stroke-miterlimit="10" d="M 121.567968 224.384168 C 125.557333 219.623552 130.674213 213.524012 134.667493 208.759481 " transform="matrix(0.99777, 0, 0, -0.99777, 0.000000000000008327, 495.622078)"/>
<path fill="none" stroke-width="2" stroke-linecap="butt" stroke-linejoin="round" stroke="rgb(0%, 0%, 100%)" stroke-opacity="1" stroke-miterlimit="10" d="M 108.746408 192.821596 C 104.753128 188.06098 99.640164 181.961441 95.646884 177.19691 " transform="matrix(0.99777, 0, 0, -0.99777, 0.000000000000008327, 495.622078)"/>
<path fill="none" stroke-width="2" stroke-linecap="butt" stroke-linejoin="round" stroke="rgb(0%, 0%, 100%)" stroke-opacity="1" stroke-miterlimit="10" d="M 121.567968 192.821596 C 125.557333 188.06098 130.674213 181.961441 134.667493 177.19691 " transform="matrix(0.99777, 0, 0, -0.99777, 0.000000000000008327, 495.622078)"/>
<path fill="none" stroke-width="2" stroke-linecap="butt" stroke-linejoin="round" stroke="rgb(54.499817%, 0%, 0%)" stroke-opacity="1" stroke-miterlimit="10" d="M 82.805748 192.821596 C 78.816383 188.06098 73.703419 181.961441 69.710139 177.19691 " transform="matrix(0.99777, 0, 0, -0.99777, 0.000000000000008327, 495.622078)"/>
<path fill="none" stroke-width="2" stroke-linecap="butt" stroke-linejoin="round" stroke="rgb(54.499817%, 0%, 0%)" stroke-opacity="1" stroke-miterlimit="10" d="M 95.631224 192.821596 C 99.620589 188.06098 104.733553 181.961441 108.726833 177.19691 " transform="matrix(0.99777, 0, 0, -0.99777, 0.000000000000008327, 495.622078)"/>
<path fill="none" stroke-width="2" stroke-linecap="butt" stroke-linejoin="round" stroke="rgb(0%, 0%, 100%)" stroke-opacity="1" stroke-miterlimit="10" d="M 95.631224 161.259025 C 99.620589 156.498409 104.733553 150.39887 108.726833 145.634339 " transform="matrix(0.99777, 0, 0, -0.99777, 0.000000000000008327, 495.622078)"/>
<path fill="none" stroke-width="2" stroke-linecap="butt" stroke-linejoin="round" stroke="rgb(54.499817%, 0%, 0%)" stroke-opacity="1" stroke-miterlimit="10" d="M 69.690564 161.259025 C 73.683844 156.498409 78.796809 150.39887 82.790089 145.634339 " transform="matrix(0.99777, 0, 0, -0.99777, 0.000000000000008327, 495.622078)"/>
<path fill="none" stroke-width="2" stroke-linecap="butt" stroke-linejoin="round" stroke="rgb(0%, 0%, 100%)" stroke-opacity="1" stroke-miterlimit="10" d="M 290.307535 350.634452 C 286.31817 345.873836 281.20129 339.774297 277.211925 335.009766 " transform="matrix(0.99777, 0, 0, -0.99777, 0.000000000000008327, 495.622078)"/>
<path fill="none" stroke-width="2" stroke-linecap="butt" stroke-linejoin="round" stroke="rgb(0%, 0%, 100%)" stroke-opacity="1" stroke-miterlimit="10" d="M 303.129095 350.634452 C 307.11846 345.873836 312.235339 339.774297 316.228619 335.009766 " transform="matrix(0.99777, 0, 0, -0.99777, 0.000000000000008327, 495.622078)"/>
<path fill="none" stroke-width="2" stroke-linecap="butt" stroke-linejoin="round" stroke="rgb(54.499817%, 0%, 0%)" stroke-opacity="1" stroke-miterlimit="10" d="M 264.37079 350.634452 C 260.381425 345.873836 255.264546 339.774297 251.271266 335.009766 " transform="matrix(0.99777, 0, 0, -0.99777, 0.000000000000008327, 495.622078)"/>
<path fill="none" stroke-width="2" stroke-linecap="butt" stroke-linejoin="round" stroke="rgb(54.499817%, 0%, 0%)" stroke-opacity="1" stroke-miterlimit="10" d="M 277.192351 350.634452 C 281.181715 345.873836 286.298595 339.774297 290.291875 335.009766 " transform="matrix(0.99777, 0, 0, -0.99777, 0.000000000000008327, 495.622078)"/>
<path fill="none" stroke-width="2" stroke-linecap="butt" stroke-linejoin="round" stroke="rgb(0%, 0%, 100%)" stroke-opacity="1" stroke-miterlimit="10" d="M 264.37079 319.071881 C 260.381425 314.311265 255.264546 308.211726 251.271266 303.447195 " transform="matrix(0.99777, 0, 0, -0.99777, 0.000000000000008327, 495.622078)"/>
<path fill="none" stroke-width="2" stroke-linecap="butt" stroke-linejoin="round" stroke="rgb(0%, 0%, 100%)" stroke-opacity="1" stroke-miterlimit="10" d="M 277.192351 319.071881 C 281.181715 314.311265 286.298595 308.211726 290.291875 303.447195 " transform="matrix(0.99777, 0, 0, -0.99777, 0.000000000000008327, 495.622078)"/>
<path fill="none" stroke-width="2" stroke-linecap="butt" stroke-linejoin="round" stroke="rgb(54.499817%, 0%, 0%)" stroke-opacity="1" stroke-miterlimit="10" d="M 238.434046 319.071881 C 234.440766 314.311265 229.327801 308.211726 225.334521 303.447195 " transform="matrix(0.99777, 0, 0, -0.99777, 0.000000000000008327, 495.622078)"/>
<path fill="none" stroke-width="2" stroke-linecap="butt" stroke-linejoin="round" stroke="rgb(54.499817%, 0%, 0%)" stroke-opacity="1" stroke-miterlimit="10" d="M 251.255606 319.071881 C 255.244971 314.311265 260.36185 308.211726 264.351215 303.447195 " transform="matrix(0.99777, 0, 0, -0.99777, 0.000000000000008327, 495.622078)"/>
<path fill="none" stroke-width="2" stroke-linecap="butt" stroke-linejoin="round" stroke="rgb(0%, 0%, 100%)" stroke-opacity="1" stroke-miterlimit="10" d="M 238.434046 287.50931 C 234.440766 282.748694 229.327801 276.64524 225.334521 271.884624 " transform="matrix(0.99777, 0, 0, -0.99777, 0.000000000000008327, 495.622078)"/>
<path fill="none" stroke-width="2" stroke-linecap="butt" stroke-linejoin="round" stroke="rgb(0%, 0%, 100%)" stroke-opacity="1" stroke-miterlimit="10" d="M 251.255606 287.50931 C 255.244971 282.748694 260.36185 276.64524 264.351215 271.884624 " transform="matrix(0.99777, 0, 0, -0.99777, 0.000000000000008327, 495.622078)"/>
<path fill="none" stroke-width="2" stroke-linecap="butt" stroke-linejoin="round" stroke="rgb(54.499817%, 0%, 0%)" stroke-opacity="1" stroke-miterlimit="10" d="M 212.493386 287.50931 C 208.504021 282.748694 203.391057 276.64524 199.397777 271.884624 " transform="matrix(0.99777, 0, 0, -0.99777, 0.000000000000008327, 495.622078)"/>
<path fill="none" stroke-width="2" stroke-linecap="butt" stroke-linejoin="round" stroke="rgb(54.499817%, 0%, 0%)" stroke-opacity="1" stroke-miterlimit="10" d="M 225.318861 287.50931 C 229.308226 282.748694 234.421191 276.64524 238.414471 271.884624 " transform="matrix(0.99777, 0, 0, -0.99777, 0.000000000000008327, 495.622078)"/>
<path fill="none" stroke-width="2" stroke-linecap="butt" stroke-linejoin="round" stroke="rgb(0%, 0%, 100%)" stroke-opacity="1" stroke-miterlimit="10" d="M 212.493386 255.946739 C 208.504021 251.186123 203.391057 245.086583 199.397777 240.322052 " transform="matrix(0.99777, 0, 0, -0.99777, 0.000000000000008327, 495.622078)"/>
<path fill="none" stroke-width="2" stroke-linecap="butt" stroke-linejoin="round" stroke="rgb(0%, 0%, 100%)" stroke-opacity="1" stroke-miterlimit="10" d="M 225.318861 255.946739 C 229.308226 251.186123 234.421191 245.086583 238.414471 240.322052 " transform="matrix(0.99777, 0, 0, -0.99777, 0.000000000000008327, 495.622078)"/>
<path fill="none" stroke-width="2" stroke-linecap="butt" stroke-linejoin="round" stroke="rgb(54.499817%, 0%, 0%)" stroke-opacity="1" stroke-miterlimit="10" d="M 186.556641 255.946739 C 182.567277 251.186123 177.450397 245.086583 173.457117 240.322052 " transform="matrix(0.99777, 0, 0, -0.99777, 0.000000000000008327, 495.622078)"/>
<path fill="none" stroke-width="2" stroke-linecap="butt" stroke-linejoin="round" stroke="rgb(54.499817%, 0%, 0%)" stroke-opacity="1" stroke-miterlimit="10" d="M 199.378202 255.946739 C 203.371482 251.186123 208.484446 245.086583 212.477726 240.322052 " transform="matrix(0.99777, 0, 0, -0.99777, 0.000000000000008327, 495.622078)"/>
<path fill="none" stroke-width="2" stroke-linecap="butt" stroke-linejoin="round" stroke="rgb(0%, 0%, 100%)" stroke-opacity="1" stroke-miterlimit="10" d="M 186.556641 224.384168 C 182.567277 219.623552 177.450397 213.524012 173.457117 208.759481 " transform="matrix(0.99777, 0, 0, -0.99777, 0.000000000000008327, 495.622078)"/>
<path fill="none" stroke-width="2" stroke-linecap="butt" stroke-linejoin="round" stroke="rgb(0%, 0%, 100%)" stroke-opacity="1" stroke-miterlimit="10" d="M 199.378202 224.384168 C 203.371482 219.623552 208.484446 213.524012 212.477726 208.759481 " transform="matrix(0.99777, 0, 0, -0.99777, 0.000000000000008327, 495.622078)"/>
<path fill="none" stroke-width="2" stroke-linecap="butt" stroke-linejoin="round" stroke="rgb(54.499817%, 0%, 0%)" stroke-opacity="1" stroke-miterlimit="10" d="M 160.619897 224.384168 C 156.630532 219.623552 151.513653 213.524012 147.520373 208.759481 " transform="matrix(0.99777, 0, 0, -0.99777, 0.000000000000008327, 495.622078)"/>
<path fill="none" stroke-width="2" stroke-linecap="butt" stroke-linejoin="round" stroke="rgb(54.499817%, 0%, 0%)" stroke-opacity="1" stroke-miterlimit="10" d="M 173.441457 224.384168 C 177.434737 219.623552 182.547702 213.524012 186.540982 208.759481 " transform="matrix(0.99777, 0, 0, -0.99777, 0.000000000000008327, 495.622078)"/>
<path fill="none" stroke-width="2" stroke-linecap="butt" stroke-linejoin="round" stroke="rgb(0%, 0%, 100%)" stroke-opacity="1" stroke-miterlimit="10" d="M 160.619897 192.821596 C 156.630532 188.06098 151.513653 181.961441 147.520373 177.19691 " transform="matrix(0.99777, 0, 0, -0.99777, 0.000000000000008327, 495.622078)"/>
<path fill="none" stroke-width="2" stroke-linecap="butt" stroke-linejoin="round" stroke="rgb(0%, 0%, 100%)" stroke-opacity="1" stroke-miterlimit="10" d="M 173.441457 192.821596 C 177.434737 188.06098 182.547702 181.961441 186.540982 177.19691 " transform="matrix(0.99777, 0, 0, -0.99777, 0.000000000000008327, 495.622078)"/>
<path fill="none" stroke-width="2" stroke-linecap="butt" stroke-linejoin="round" stroke="rgb(54.499817%, 0%, 0%)" stroke-opacity="1" stroke-miterlimit="10" d="M 134.683152 192.821596 C 130.689873 188.06098 125.576908 181.961441 121.583628 177.19691 " transform="matrix(0.99777, 0, 0, -0.99777, 0.000000000000008327, 495.622078)"/>
<path fill="none" stroke-width="2" stroke-linecap="butt" stroke-linejoin="round" stroke="rgb(54.499817%, 0%, 0%)" stroke-opacity="1" stroke-miterlimit="10" d="M 147.504713 192.821596 C 151.494078 188.06098 156.610957 181.961441 160.604237 177.19691 " transform="matrix(0.99777, 0, 0, -0.99777, 0.000000000000008327, 495.622078)"/>
<path fill="none" stroke-width="2" stroke-linecap="butt" stroke-linejoin="round" stroke="rgb(0%, 0%, 100%)" stroke-opacity="1" stroke-miterlimit="10" d="M 134.683152 161.259025 C 130.689873 156.498409 125.576908 150.39887 121.583628 145.634339 " transform="matrix(0.99777, 0, 0, -0.99777, 0.000000000000008327, 495.622078)"/>
<path fill="none" stroke-width="2" stroke-linecap="butt" stroke-linejoin="round" stroke="rgb(0%, 0%, 100%)" stroke-opacity="1" stroke-miterlimit="10" d="M 147.504713 161.259025 C 151.494078 156.498409 156.610957 150.39887 160.604237 145.634339 " transform="matrix(0.99777, 0, 0, -0.99777, 0.000000000000008327, 495.622078)"/>
<path fill="none" stroke-width="2" stroke-linecap="butt" stroke-linejoin="round" stroke="rgb(54.499817%, 0%, 0%)" stroke-opacity="1" stroke-miterlimit="10" d="M 108.746408 161.259025 C 104.753128 156.498409 99.640164 150.39887 95.646884 145.634339 " transform="matrix(0.99777, 0, 0, -0.99777, 0.000000000000008327, 495.622078)"/>
<path fill="none" stroke-width="2" stroke-linecap="butt" stroke-linejoin="round" stroke="rgb(54.499817%, 0%, 0%)" stroke-opacity="1" stroke-miterlimit="10" d="M 121.567968 161.259025 C 125.557333 156.498409 130.674213 150.39887 134.667493 145.634339 " transform="matrix(0.99777, 0, 0, -0.99777, 0.000000000000008327, 495.622078)"/>
<path fill="none" stroke-width="2" stroke-linecap="butt" stroke-linejoin="round" stroke="rgb(0%, 0%, 100%)" stroke-opacity="1" stroke-miterlimit="10" d="M 121.567968 129.696454 C 125.557333 124.935838 130.674213 118.836299 134.667493 114.071768 " transform="matrix(0.99777, 0, 0, -0.99777, 0.000000000000008327, 495.622078)"/>
<path fill="none" stroke-width="2" stroke-linecap="butt" stroke-linejoin="round" stroke="rgb(54.499817%, 0%, 0%)" stroke-opacity="1" stroke-miterlimit="10" d="M 95.631224 129.696454 C 99.620589 124.935838 104.733553 118.836299 108.726833 114.071768 " transform="matrix(0.99777, 0, 0, -0.99777, 0.000000000000008327, 495.622078)"/>
<path fill="none" stroke-width="2" stroke-linecap="butt" stroke-linejoin="round" stroke="rgb(0%, 0%, 100%)" stroke-opacity="1" stroke-miterlimit="10" d="M 316.244279 319.071881 C 312.254914 314.311265 307.14195 308.211726 303.14867 303.447195 " transform="matrix(0.99777, 0, 0, -0.99777, 0.000000000000008327, 495.622078)"/>
<path fill="none" stroke-width="2" stroke-linecap="butt" stroke-linejoin="round" stroke="rgb(0%, 0%, 100%)" stroke-opacity="1" stroke-miterlimit="10" d="M 329.06584 319.071881 C 333.059119 314.311265 338.172084 308.211726 342.165364 303.447195 " transform="matrix(0.99777, 0, 0, -0.99777, 0.000000000000008327, 495.622078)"/>
<path fill="none" stroke-width="2" stroke-linecap="butt" stroke-linejoin="round" stroke="rgb(54.499817%, 0%, 0%)" stroke-opacity="1" stroke-miterlimit="10" d="M 290.307535 319.071881 C 286.31817 314.311265 281.20129 308.211726 277.211925 303.447195 " transform="matrix(0.99777, 0, 0, -0.99777, 0.000000000000008327, 495.622078)"/>
<path fill="none" stroke-width="2" stroke-linecap="butt" stroke-linejoin="round" stroke="rgb(54.499817%, 0%, 0%)" stroke-opacity="1" stroke-miterlimit="10" d="M 303.129095 319.071881 C 307.11846 314.311265 312.235339 308.211726 316.228619 303.447195 " transform="matrix(0.99777, 0, 0, -0.99777, 0.000000000000008327, 495.622078)"/>
<path fill="none" stroke-width="2" stroke-linecap="butt" stroke-linejoin="round" stroke="rgb(0%, 0%, 100%)" stroke-opacity="1" stroke-miterlimit="10" d="M 290.307535 287.50931 C 286.31817 282.748694 281.20129 276.64524 277.211925 271.884624 " transform="matrix(0.99777, 0, 0, -0.99777, 0.000000000000008327, 495.622078)"/>
<path fill="none" stroke-width="2" stroke-linecap="butt" stroke-linejoin="round" stroke="rgb(0%, 0%, 100%)" stroke-opacity="1" stroke-miterlimit="10" d="M 303.129095 287.50931 C 307.11846 282.748694 312.235339 276.64524 316.228619 271.884624 " transform="matrix(0.99777, 0, 0, -0.99777, 0.000000000000008327, 495.622078)"/>
<path fill="none" stroke-width="2" stroke-linecap="butt" stroke-linejoin="round" stroke="rgb(54.499817%, 0%, 0%)" stroke-opacity="1" stroke-miterlimit="10" d="M 264.37079 287.50931 C 260.381425 282.748694 255.264546 276.64524 251.271266 271.884624 " transform="matrix(0.99777, 0, 0, -0.99777, 0.000000000000008327, 495.622078)"/>
<path fill="none" stroke-width="2" stroke-linecap="butt" stroke-linejoin="round" stroke="rgb(54.499817%, 0%, 0%)" stroke-opacity="1" stroke-miterlimit="10" d="M 277.192351 287.50931 C 281.181715 282.748694 286.298595 276.64524 290.291875 271.884624 " transform="matrix(0.99777, 0, 0, -0.99777, 0.000000000000008327, 495.622078)"/>
<path fill="none" stroke-width="2" stroke-linecap="butt" stroke-linejoin="round" stroke="rgb(0%, 0%, 100%)" stroke-opacity="1" stroke-miterlimit="10" d="M 264.37079 255.946739 C 260.381425 251.186123 255.264546 245.086583 251.271266 240.322052 " transform="matrix(0.99777, 0, 0, -0.99777, 0.000000000000008327, 495.622078)"/>
<path fill="none" stroke-width="2" stroke-linecap="butt" stroke-linejoin="round" stroke="rgb(0%, 0%, 100%)" stroke-opacity="1" stroke-miterlimit="10" d="M 277.192351 255.946739 C 281.181715 251.186123 286.298595 245.086583 290.291875 240.322052 " transform="matrix(0.99777, 0, 0, -0.99777, 0.000000000000008327, 495.622078)"/>
<path fill="none" stroke-width="2" stroke-linecap="butt" stroke-linejoin="round" stroke="rgb(54.499817%, 0%, 0%)" stroke-opacity="1" stroke-miterlimit="10" d="M 238.434046 255.946739 C 234.440766 251.186123 229.327801 245.086583 225.334521 240.322052 " transform="matrix(0.99777, 0, 0, -0.99777, 0.000000000000008327, 495.622078)"/>
<path fill="none" stroke-width="2" stroke-linecap="butt" stroke-linejoin="round" stroke="rgb(54.499817%, 0%, 0%)" stroke-opacity="1" stroke-miterlimit="10" d="M 251.255606 255.946739 C 255.244971 251.186123 260.36185 245.086583 264.351215 240.322052 " transform="matrix(0.99777, 0, 0, -0.99777, 0.000000000000008327, 495.622078)"/>
<path fill="none" stroke-width="2" stroke-linecap="butt" stroke-linejoin="round" stroke="rgb(0%, 0%, 100%)" stroke-opacity="1" stroke-miterlimit="10" d="M 238.434046 224.384168 C 234.440766 219.623552 229.327801 213.524012 225.334521 208.759481 " transform="matrix(0.99777, 0, 0, -0.99777, 0.000000000000008327, 495.622078)"/>
<path fill="none" stroke-width="2" stroke-linecap="butt" stroke-linejoin="round" stroke="rgb(0%, 0%, 100%)" stroke-opacity="1" stroke-miterlimit="10" d="M 251.255606 224.384168 C 255.244971 219.623552 260.36185 213.524012 264.351215 208.759481 " transform="matrix(0.99777, 0, 0, -0.99777, 0.000000000000008327, 495.622078)"/>
<path fill="none" stroke-width="2" stroke-linecap="butt" stroke-linejoin="round" stroke="rgb(54.499817%, 0%, 0%)" stroke-opacity="1" stroke-miterlimit="10" d="M 212.493386 224.384168 C 208.504021 219.623552 203.391057 213.524012 199.397777 208.759481 " transform="matrix(0.99777, 0, 0, -0.99777, 0.000000000000008327, 495.622078)"/>
<path fill="none" stroke-width="2" stroke-linecap="butt" stroke-linejoin="round" stroke="rgb(54.499817%, 0%, 0%)" stroke-opacity="1" stroke-miterlimit="10" d="M 225.318861 224.384168 C 229.308226 219.623552 234.421191 213.524012 238.414471 208.759481 " transform="matrix(0.99777, 0, 0, -0.99777, 0.000000000000008327, 495.622078)"/>
<path fill="none" stroke-width="2" stroke-linecap="butt" stroke-linejoin="round" stroke="rgb(0%, 0%, 100%)" stroke-opacity="1" stroke-miterlimit="10" d="M 212.493386 192.821596 C 208.504021 188.06098 203.391057 181.961441 199.397777 177.19691 " transform="matrix(0.99777, 0, 0, -0.99777, 0.000000000000008327, 495.622078)"/>
<path fill="none" stroke-width="2" stroke-linecap="butt" stroke-linejoin="round" stroke="rgb(0%, 0%, 100%)" stroke-opacity="1" stroke-miterlimit="10" d="M 225.318861 192.821596 C 229.308226 188.06098 234.421191 181.961441 238.414471 177.19691 " transform="matrix(0.99777, 0, 0, -0.99777, 0.000000000000008327, 495.622078)"/>
<path fill="none" stroke-width="2" stroke-linecap="butt" stroke-linejoin="round" stroke="rgb(54.499817%, 0%, 0%)" stroke-opacity="1" stroke-miterlimit="10" d="M 186.556641 192.821596 C 182.567277 188.06098 177.450397 181.961441 173.457117 177.19691 " transform="matrix(0.99777, 0, 0, -0.99777, 0.000000000000008327, 495.622078)"/>
<path fill="none" stroke-width="2" stroke-linecap="butt" stroke-linejoin="round" stroke="rgb(54.499817%, 0%, 0%)" stroke-opacity="1" stroke-miterlimit="10" d="M 199.378202 192.821596 C 203.371482 188.06098 208.484446 181.961441 212.477726 177.19691 " transform="matrix(0.99777, 0, 0, -0.99777, 0.000000000000008327, 495.622078)"/>
<path fill="none" stroke-width="2" stroke-linecap="butt" stroke-linejoin="round" stroke="rgb(54.499817%, 0%, 0%)" stroke-opacity="1" stroke-miterlimit="10" d="M 186.556641 161.259025 C 182.567277 156.498409 177.450397 150.39887 173.457117 145.634339 " transform="matrix(0.99777, 0, 0, -0.99777, 0.000000000000008327, 495.622078)"/>
<path fill="none" stroke-width="2" stroke-linecap="butt" stroke-linejoin="round" stroke="rgb(0%, 0%, 100%)" stroke-opacity="1" stroke-miterlimit="10" d="M 199.378202 161.259025 C 203.371482 156.498409 208.484446 150.39887 212.477726 145.634339 " transform="matrix(0.99777, 0, 0, -0.99777, 0.000000000000008327, 495.622078)"/>
<path fill="none" stroke-width="2" stroke-linecap="butt" stroke-linejoin="round" stroke="rgb(54.499817%, 0%, 0%)" stroke-opacity="1" stroke-miterlimit="10" d="M 160.619897 161.259025 C 156.630532 156.498409 151.513653 150.39887 147.520373 145.634339 " transform="matrix(0.99777, 0, 0, -0.99777, 0.000000000000008327, 495.622078)"/>
<path fill="none" stroke-width="2" stroke-linecap="butt" stroke-linejoin="round" stroke="rgb(0%, 0%, 100%)" stroke-opacity="1" stroke-miterlimit="10" d="M 173.441457 161.259025 C 177.434737 156.498409 182.547702 150.39887 186.540982 145.634339 " transform="matrix(0.99777, 0, 0, -0.99777, 0.000000000000008327, 495.622078)"/>
<path fill="none" stroke-width="2" stroke-linecap="butt" stroke-linejoin="round" stroke="rgb(0%, 0%, 100%)" stroke-opacity="1" stroke-miterlimit="10" d="M 160.619897 129.696454 C 156.630532 124.935838 151.513653 118.836299 147.520373 114.071768 " transform="matrix(0.99777, 0, 0, -0.99777, 0.000000000000008327, 495.622078)"/>
<path fill="none" stroke-width="2" stroke-linecap="butt" stroke-linejoin="round" stroke="rgb(0%, 0%, 100%)" stroke-opacity="1" stroke-miterlimit="10" d="M 173.441457 129.696454 C 177.434737 124.935838 182.547702 118.836299 186.540982 114.071768 " transform="matrix(0.99777, 0, 0, -0.99777, 0.000000000000008327, 495.622078)"/>
<path fill="none" stroke-width="2" stroke-linecap="butt" stroke-linejoin="round" stroke="rgb(54.499817%, 0%, 0%)" stroke-opacity="1" stroke-miterlimit="10" d="M 134.683152 129.696454 C 130.689873 124.935838 125.576908 118.836299 121.583628 114.071768 " transform="matrix(0.99777, 0, 0, -0.99777, 0.000000000000008327, 495.622078)"/>
<path fill="none" stroke-width="2" stroke-linecap="butt" stroke-linejoin="round" stroke="rgb(54.499817%, 0%, 0%)" stroke-opacity="1" stroke-miterlimit="10" d="M 147.504713 129.696454 C 151.494078 124.935838 156.610957 118.836299 160.604237 114.071768 " transform="matrix(0.99777, 0, 0, -0.99777, 0.000000000000008327, 495.622078)"/>
<path fill="none" stroke-width="2" stroke-linecap="butt" stroke-linejoin="round" stroke="rgb(0%, 0%, 100%)" stroke-opacity="1" stroke-miterlimit="10" d="M 147.504713 98.133883 C 151.494078 93.373267 156.610957 87.273727 160.604237 82.509196 " transform="matrix(0.99777, 0, 0, -0.99777, 0.000000000000008327, 495.622078)"/>
<path fill="none" stroke-width="2" stroke-linecap="butt" stroke-linejoin="round" stroke="rgb(54.499817%, 0%, 0%)" stroke-opacity="1" stroke-miterlimit="10" d="M 121.567968 98.133883 C 125.557333 93.373267 130.674213 87.273727 134.667493 82.509196 " transform="matrix(0.99777, 0, 0, -0.99777, 0.000000000000008327, 495.622078)"/>
<path fill="none" stroke-width="2" stroke-linecap="butt" stroke-linejoin="round" stroke="rgb(0%, 0%, 100%)" stroke-opacity="1" stroke-miterlimit="10" d="M 342.184939 287.50931 C 338.191659 282.748694 333.078694 276.64524 329.085414 271.884624 " transform="matrix(0.99777, 0, 0, -0.99777, 0.000000000000008327, 495.622078)"/>
<path fill="none" stroke-width="2" stroke-linecap="butt" stroke-linejoin="round" stroke="rgb(0%, 0%, 100%)" stroke-opacity="1" stroke-miterlimit="10" d="M 355.006499 287.50931 C 358.999779 282.748694 364.108828 276.64524 368.102108 271.884624 " transform="matrix(0.99777, 0, 0, -0.99777, 0.000000000000008327, 495.622078)"/>
<path fill="none" stroke-width="2" stroke-linecap="butt" stroke-linejoin="round" stroke="rgb(54.499817%, 0%, 0%)" stroke-opacity="1" stroke-miterlimit="10" d="M 316.244279 287.50931 C 312.254914 282.748694 307.14195 276.64524 303.14867 271.884624 " transform="matrix(0.99777, 0, 0, -0.99777, 0.000000000000008327, 495.622078)"/>
<path fill="none" stroke-width="2" stroke-linecap="butt" stroke-linejoin="round" stroke="rgb(54.499817%, 0%, 0%)" stroke-opacity="1" stroke-miterlimit="10" d="M 329.06584 287.50931 C 333.059119 282.748694 338.172084 276.64524 342.165364 271.884624 " transform="matrix(0.99777, 0, 0, -0.99777, 0.000000000000008327, 495.622078)"/>
<path fill="none" stroke-width="2" stroke-linecap="butt" stroke-linejoin="round" stroke="rgb(0%, 0%, 100%)" stroke-opacity="1" stroke-miterlimit="10" d="M 316.244279 255.946739 C 312.254914 251.186123 307.14195 245.086583 303.14867 240.322052 " transform="matrix(0.99777, 0, 0, -0.99777, 0.000000000000008327, 495.622078)"/>
<path fill="none" stroke-width="2" stroke-linecap="butt" stroke-linejoin="round" stroke="rgb(0%, 0%, 100%)" stroke-opacity="1" stroke-miterlimit="10" d="M 329.06584 255.946739 C 333.059119 251.186123 338.172084 245.086583 342.165364 240.322052 " transform="matrix(0.99777, 0, 0, -0.99777, 0.000000000000008327, 495.622078)"/>
<path fill="none" stroke-width="2" stroke-linecap="butt" stroke-linejoin="round" stroke="rgb(54.499817%, 0%, 0%)" stroke-opacity="1" stroke-miterlimit="10" d="M 290.307535 255.946739 C 286.31817 251.186123 281.20129 245.086583 277.211925 240.322052 " transform="matrix(0.99777, 0, 0, -0.99777, 0.000000000000008327, 495.622078)"/>
<path fill="none" stroke-width="2" stroke-linecap="butt" stroke-linejoin="round" stroke="rgb(54.499817%, 0%, 0%)" stroke-opacity="1" stroke-miterlimit="10" d="M 303.129095 255.946739 C 307.11846 251.186123 312.235339 245.086583 316.228619 240.322052 " transform="matrix(0.99777, 0, 0, -0.99777, 0.000000000000008327, 495.622078)"/>
<path fill="none" stroke-width="2" stroke-linecap="butt" stroke-linejoin="round" stroke="rgb(0%, 0%, 100%)" stroke-opacity="1" stroke-miterlimit="10" d="M 290.307535 224.384168 C 286.31817 219.623552 281.20129 213.524012 277.211925 208.759481 " transform="matrix(0.99777, 0, 0, -0.99777, 0.000000000000008327, 495.622078)"/>
<path fill="none" stroke-width="2" stroke-linecap="butt" stroke-linejoin="round" stroke="rgb(0%, 0%, 100%)" stroke-opacity="1" stroke-miterlimit="10" d="M 303.129095 224.384168 C 307.11846 219.623552 312.235339 213.524012 316.228619 208.759481 " transform="matrix(0.99777, 0, 0, -0.99777, 0.000000000000008327, 495.622078)"/>
<path fill="none" stroke-width="2" stroke-linecap="butt" stroke-linejoin="round" stroke="rgb(54.499817%, 0%, 0%)" stroke-opacity="1" stroke-miterlimit="10" d="M 264.37079 224.384168 C 260.381425 219.623552 255.264546 213.524012 251.271266 208.759481 " transform="matrix(0.99777, 0, 0, -0.99777, 0.000000000000008327, 495.622078)"/>
<path fill="none" stroke-width="2" stroke-linecap="butt" stroke-linejoin="round" stroke="rgb(54.499817%, 0%, 0%)" stroke-opacity="1" stroke-miterlimit="10" d="M 277.192351 224.384168 C 281.181715 219.623552 286.298595 213.524012 290.291875 208.759481 " transform="matrix(0.99777, 0, 0, -0.99777, 0.000000000000008327, 495.622078)"/>
<path fill="none" stroke-width="2" stroke-linecap="butt" stroke-linejoin="round" stroke="rgb(0%, 0%, 100%)" stroke-opacity="1" stroke-miterlimit="10" d="M 264.37079 192.821596 C 260.381425 188.06098 255.264546 181.961441 251.271266 177.19691 " transform="matrix(0.99777, 0, 0, -0.99777, 0.000000000000008327, 495.622078)"/>
<path fill="none" stroke-width="2" stroke-linecap="butt" stroke-linejoin="round" stroke="rgb(0%, 0%, 100%)" stroke-opacity="1" stroke-miterlimit="10" d="M 277.192351 192.821596 C 281.181715 188.06098 286.298595 181.961441 290.291875 177.19691 " transform="matrix(0.99777, 0, 0, -0.99777, 0.000000000000008327, 495.622078)"/>
<path fill="none" stroke-width="2" stroke-linecap="butt" stroke-linejoin="round" stroke="rgb(54.499817%, 0%, 0%)" stroke-opacity="1" stroke-miterlimit="10" d="M 238.434046 192.821596 C 234.440766 188.06098 229.327801 181.961441 225.334521 177.19691 " transform="matrix(0.99777, 0, 0, -0.99777, 0.000000000000008327, 495.622078)"/>
<path fill="none" stroke-width="2" stroke-linecap="butt" stroke-linejoin="round" stroke="rgb(54.499817%, 0%, 0%)" stroke-opacity="1" stroke-miterlimit="10" d="M 251.255606 192.821596 C 255.244971 188.06098 260.36185 181.961441 264.351215 177.19691 " transform="matrix(0.99777, 0, 0, -0.99777, 0.000000000000008327, 495.622078)"/>
<path fill="none" stroke-width="2" stroke-linecap="butt" stroke-linejoin="round" stroke="rgb(0%, 0%, 100%)" stroke-opacity="1" stroke-miterlimit="10" d="M 238.434046 161.259025 C 234.440766 156.498409 229.327801 150.39887 225.334521 145.634339 " transform="matrix(0.99777, 0, 0, -0.99777, 0.000000000000008327, 495.622078)"/>
<path fill="none" stroke-width="2" stroke-linecap="butt" stroke-linejoin="round" stroke="rgb(0%, 0%, 100%)" stroke-opacity="1" stroke-miterlimit="10" d="M 251.255606 161.259025 C 255.244971 156.498409 260.36185 150.39887 264.351215 145.634339 " transform="matrix(0.99777, 0, 0, -0.99777, 0.000000000000008327, 495.622078)"/>
<path fill="none" stroke-width="2" stroke-linecap="butt" stroke-linejoin="round" stroke="rgb(54.499817%, 0%, 0%)" stroke-opacity="1" stroke-miterlimit="10" d="M 212.493386 161.259025 C 208.504021 156.498409 203.391057 150.39887 199.397777 145.634339 " transform="matrix(0.99777, 0, 0, -0.99777, 0.000000000000008327, 495.622078)"/>
<path fill="none" stroke-width="2" stroke-linecap="butt" stroke-linejoin="round" stroke="rgb(54.499817%, 0%, 0%)" stroke-opacity="1" stroke-miterlimit="10" d="M 225.318861 161.259025 C 229.308226 156.498409 234.421191 150.39887 238.414471 145.634339 " transform="matrix(0.99777, 0, 0, -0.99777, 0.000000000000008327, 495.622078)"/>
<path fill="none" stroke-width="2" stroke-linecap="butt" stroke-linejoin="round" stroke="rgb(0%, 0%, 100%)" stroke-opacity="1" stroke-miterlimit="10" d="M 212.493386 129.696454 C 208.504021 124.935838 203.391057 118.836299 199.397777 114.071768 " transform="matrix(0.99777, 0, 0, -0.99777, 0.000000000000008327, 495.622078)"/>
<path fill="none" stroke-width="2" stroke-linecap="butt" stroke-linejoin="round" stroke="rgb(0%, 0%, 100%)" stroke-opacity="1" stroke-miterlimit="10" d="M 225.318861 129.696454 C 229.308226 124.935838 234.421191 118.836299 238.414471 114.071768 " transform="matrix(0.99777, 0, 0, -0.99777, 0.000000000000008327, 495.622078)"/>
<path fill="none" stroke-width="2" stroke-linecap="butt" stroke-linejoin="round" stroke="rgb(54.499817%, 0%, 0%)" stroke-opacity="1" stroke-miterlimit="10" d="M 186.556641 129.696454 C 182.567277 124.935838 177.450397 118.836299 173.457117 114.071768 " transform="matrix(0.99777, 0, 0, -0.99777, 0.000000000000008327, 495.622078)"/>
<path fill="none" stroke-width="2" stroke-linecap="butt" stroke-linejoin="round" stroke="rgb(54.499817%, 0%, 0%)" stroke-opacity="1" stroke-miterlimit="10" d="M 199.378202 129.696454 C 203.371482 124.935838 208.484446 118.836299 212.477726 114.071768 " transform="matrix(0.99777, 0, 0, -0.99777, 0.000000000000008327, 495.622078)"/>
<path fill="none" stroke-width="2" stroke-linecap="butt" stroke-linejoin="round" stroke="rgb(0%, 0%, 100%)" stroke-opacity="1" stroke-miterlimit="10" d="M 186.556641 98.133883 C 182.567277 93.373267 177.450397 87.273727 173.457117 82.509196 " transform="matrix(0.99777, 0, 0, -0.99777, 0.000000000000008327, 495.622078)"/>
<path fill="none" stroke-width="2" stroke-linecap="butt" stroke-linejoin="round" stroke="rgb(0%, 0%, 100%)" stroke-opacity="1" stroke-miterlimit="10" d="M 199.378202 98.133883 C 203.371482 93.373267 208.484446 87.273727 212.477726 82.509196 " transform="matrix(0.99777, 0, 0, -0.99777, 0.000000000000008327, 495.622078)"/>
<path fill="none" stroke-width="2" stroke-linecap="butt" stroke-linejoin="round" stroke="rgb(54.499817%, 0%, 0%)" stroke-opacity="1" stroke-miterlimit="10" d="M 160.619897 98.133883 C 156.630532 93.373267 151.513653 87.273727 147.520373 82.509196 " transform="matrix(0.99777, 0, 0, -0.99777, 0.000000000000008327, 495.622078)"/>
<path fill="none" stroke-width="2" stroke-linecap="butt" stroke-linejoin="round" stroke="rgb(54.499817%, 0%, 0%)" stroke-opacity="1" stroke-miterlimit="10" d="M 173.441457 98.133883 C 177.434737 93.373267 182.547702 87.273727 186.540982 82.509196 " transform="matrix(0.99777, 0, 0, -0.99777, 0.000000000000008327, 495.622078)"/>
<path fill="none" stroke-width="2" stroke-linecap="butt" stroke-linejoin="round" stroke="rgb(0%, 0%, 100%)" stroke-opacity="1" stroke-miterlimit="10" d="M 173.441457 66.571311 C 177.434737 61.810695 182.547702 55.711156 186.540982 50.946625 " transform="matrix(0.99777, 0, 0, -0.99777, 0.000000000000008327, 495.622078)"/>
<path fill="none" stroke-width="2" stroke-linecap="butt" stroke-linejoin="round" stroke="rgb(54.499817%, 0%, 0%)" stroke-opacity="1" stroke-miterlimit="10" d="M 147.504713 66.571311 C 151.494078 61.810695 156.610957 55.711156 160.604237 50.946625 " transform="matrix(0.99777, 0, 0, -0.99777, 0.000000000000008327, 495.622078)"/>
<path fill="none" stroke-width="2" stroke-linecap="butt" stroke-linejoin="round" stroke="rgb(0%, 0%, 100%)" stroke-opacity="1" stroke-miterlimit="10" d="M 368.121683 255.946739 C 364.128403 251.186123 359.015439 245.086583 355.022159 240.322052 " transform="matrix(0.99777, 0, 0, -0.99777, 0.000000000000008327, 495.622078)"/>
<path fill="none" stroke-width="2" stroke-linecap="butt" stroke-linejoin="round" stroke="rgb(54.499817%, 0%, 0%)" stroke-opacity="1" stroke-miterlimit="10" d="M 342.184939 255.946739 C 338.191659 251.186123 333.078694 245.086583 329.085414 240.322052 " transform="matrix(0.99777, 0, 0, -0.99777, 0.000000000000008327, 495.622078)"/>
<path fill="none" stroke-width="2" stroke-linecap="butt" stroke-linejoin="round" stroke="rgb(54.499817%, 0%, 0%)" stroke-opacity="1" stroke-miterlimit="10" d="M 355.006499 255.946739 C 358.999779 251.186123 364.108828 245.086583 368.102108 240.322052 " transform="matrix(0.99777, 0, 0, -0.99777, 0.000000000000008327, 495.622078)"/>
<path fill="none" stroke-width="2" stroke-linecap="butt" stroke-linejoin="round" stroke="rgb(0%, 0%, 100%)" stroke-opacity="1" stroke-miterlimit="10" d="M 342.184939 224.384168 C 338.191659 219.623552 333.078694 213.524012 329.085414 208.759481 " transform="matrix(0.99777, 0, 0, -0.99777, 0.000000000000008327, 495.622078)"/>
<path fill="none" stroke-width="2" stroke-linecap="butt" stroke-linejoin="round" stroke="rgb(54.499817%, 0%, 0%)" stroke-opacity="1" stroke-miterlimit="10" d="M 316.244279 224.384168 C 312.254914 219.623552 307.14195 213.524012 303.14867 208.759481 " transform="matrix(0.99777, 0, 0, -0.99777, 0.000000000000008327, 495.622078)"/>
<path fill="none" stroke-width="2" stroke-linecap="butt" stroke-linejoin="round" stroke="rgb(54.499817%, 0%, 0%)" stroke-opacity="1" stroke-miterlimit="10" d="M 329.06584 224.384168 C 333.059119 219.623552 338.172084 213.524012 342.165364 208.759481 " transform="matrix(0.99777, 0, 0, -0.99777, 0.000000000000008327, 495.622078)"/>
<path fill="none" stroke-width="2" stroke-linecap="butt" stroke-linejoin="round" stroke="rgb(0%, 0%, 100%)" stroke-opacity="1" stroke-miterlimit="10" d="M 316.244279 192.821596 C 312.254914 188.06098 307.14195 181.961441 303.14867 177.19691 " transform="matrix(0.99777, 0, 0, -0.99777, 0.000000000000008327, 495.622078)"/>
<path fill="none" stroke-width="2" stroke-linecap="butt" stroke-linejoin="round" stroke="rgb(54.499817%, 0%, 0%)" stroke-opacity="1" stroke-miterlimit="10" d="M 290.307535 192.821596 C 286.31817 188.06098 281.20129 181.961441 277.211925 177.19691 " transform="matrix(0.99777, 0, 0, -0.99777, 0.000000000000008327, 495.622078)"/>
<path fill="none" stroke-width="2" stroke-linecap="butt" stroke-linejoin="round" stroke="rgb(54.499817%, 0%, 0%)" stroke-opacity="1" stroke-miterlimit="10" d="M 303.129095 192.821596 C 307.11846 188.06098 312.235339 181.961441 316.228619 177.19691 " transform="matrix(0.99777, 0, 0, -0.99777, 0.000000000000008327, 495.622078)"/>
<path fill="none" stroke-width="2" stroke-linecap="butt" stroke-linejoin="round" stroke="rgb(0%, 0%, 100%)" stroke-opacity="1" stroke-miterlimit="10" d="M 290.307535 161.259025 C 286.31817 156.498409 281.20129 150.39887 277.211925 145.634339 " transform="matrix(0.99777, 0, 0, -0.99777, 0.000000000000008327, 495.622078)"/>
<path fill="none" stroke-width="2" stroke-linecap="butt" stroke-linejoin="round" stroke="rgb(54.499817%, 0%, 0%)" stroke-opacity="1" stroke-miterlimit="10" d="M 264.37079 161.259025 C 260.381425 156.498409 255.264546 150.39887 251.271266 145.634339 " transform="matrix(0.99777, 0, 0, -0.99777, 0.000000000000008327, 495.622078)"/>
<path fill="none" stroke-width="2" stroke-linecap="butt" stroke-linejoin="round" stroke="rgb(54.499817%, 0%, 0%)" stroke-opacity="1" stroke-miterlimit="10" d="M 277.192351 161.259025 C 281.181715 156.498409 286.298595 150.39887 290.291875 145.634339 " transform="matrix(0.99777, 0, 0, -0.99777, 0.000000000000008327, 495.622078)"/>
<path fill="none" stroke-width="2" stroke-linecap="butt" stroke-linejoin="round" stroke="rgb(0%, 0%, 100%)" stroke-opacity="1" stroke-miterlimit="10" d="M 264.37079 129.696454 C 260.381425 124.935838 255.264546 118.836299 251.271266 114.071768 " transform="matrix(0.99777, 0, 0, -0.99777, 0.000000000000008327, 495.622078)"/>
<path fill="none" stroke-width="2" stroke-linecap="butt" stroke-linejoin="round" stroke="rgb(54.499817%, 0%, 0%)" stroke-opacity="1" stroke-miterlimit="10" d="M 238.434046 129.696454 C 234.440766 124.935838 229.327801 118.836299 225.334521 114.071768 " transform="matrix(0.99777, 0, 0, -0.99777, 0.000000000000008327, 495.622078)"/>
<path fill="none" stroke-width="2" stroke-linecap="butt" stroke-linejoin="round" stroke="rgb(54.499817%, 0%, 0%)" stroke-opacity="1" stroke-miterlimit="10" d="M 251.255606 129.696454 C 255.244971 124.935838 260.36185 118.836299 264.351215 114.071768 " transform="matrix(0.99777, 0, 0, -0.99777, 0.000000000000008327, 495.622078)"/>
<path fill="none" stroke-width="2" stroke-linecap="butt" stroke-linejoin="round" stroke="rgb(0%, 0%, 100%)" stroke-opacity="1" stroke-miterlimit="10" d="M 238.434046 98.133883 C 234.440766 93.373267 229.327801 87.273727 225.334521 82.509196 " transform="matrix(0.99777, 0, 0, -0.99777, 0.000000000000008327, 495.622078)"/>
<path fill="none" stroke-width="2" stroke-linecap="butt" stroke-linejoin="round" stroke="rgb(54.499817%, 0%, 0%)" stroke-opacity="1" stroke-miterlimit="10" d="M 212.493386 98.133883 C 208.504021 93.373267 203.391057 87.273727 199.397777 82.509196 " transform="matrix(0.99777, 0, 0, -0.99777, 0.000000000000008327, 495.622078)"/>
<path fill="none" stroke-width="2" stroke-linecap="butt" stroke-linejoin="round" stroke="rgb(54.499817%, 0%, 0%)" stroke-opacity="1" stroke-miterlimit="10" d="M 225.318861 98.133883 C 229.308226 93.373267 234.421191 87.273727 238.414471 82.509196 " transform="matrix(0.99777, 0, 0, -0.99777, 0.000000000000008327, 495.622078)"/>
<path fill="none" stroke-width="2" stroke-linecap="butt" stroke-linejoin="round" stroke="rgb(0%, 0%, 100%)" stroke-opacity="1" stroke-miterlimit="10" d="M 212.493386 66.571311 C 208.504021 61.810695 203.391057 55.711156 199.397777 50.946625 " transform="matrix(0.99777, 0, 0, -0.99777, 0.000000000000008327, 495.622078)"/>
<path fill="none" stroke-width="2" stroke-linecap="butt" stroke-linejoin="round" stroke="rgb(54.499817%, 0%, 0%)" stroke-opacity="1" stroke-miterlimit="10" d="M 186.556641 66.571311 C 182.567277 61.810695 177.450397 55.711156 173.457117 50.946625 " transform="matrix(0.99777, 0, 0, -0.99777, 0.000000000000008327, 495.622078)"/>
<path fill="none" stroke-width="2" stroke-linecap="butt" stroke-linejoin="round" stroke="rgb(54.499817%, 0%, 0%)" stroke-opacity="1" stroke-miterlimit="10" d="M 199.378202 66.571311 C 203.371482 61.810695 208.484446 55.711156 212.477726 50.946625 " transform="matrix(0.99777, 0, 0, -0.99777, 0.000000000000008327, 495.622078)"/>
<path fill="none" stroke-width="2" stroke-linecap="butt" stroke-linejoin="round" stroke="rgb(54.499817%, 0%, 0%)" stroke-opacity="1" stroke-miterlimit="10" d="M 173.441457 35.00874 C 177.434737 30.248124 182.547702 24.148585 186.540982 19.384054 " transform="matrix(0.99777, 0, 0, -0.99777, 0.000000000000008327, 495.622078)"/>
<path fill="none" stroke-width="2" stroke-linecap="butt" stroke-linejoin="round" stroke="rgb(54.499817%, 0%, 0%)" stroke-opacity="1" stroke-miterlimit="10" d="M 368.121683 224.384168 C 364.128403 219.623552 359.015439 213.524012 355.022159 208.759481 " transform="matrix(0.99777, 0, 0, -0.99777, 0.000000000000008327, 495.622078)"/>
<path fill="none" stroke-width="2" stroke-linecap="butt" stroke-linejoin="round" stroke="rgb(54.499817%, 0%, 0%)" stroke-opacity="1" stroke-miterlimit="10" d="M 342.184939 192.821596 C 338.191659 188.06098 333.078694 181.961441 329.085414 177.19691 " transform="matrix(0.99777, 0, 0, -0.99777, 0.000000000000008327, 495.622078)"/>
<path fill="none" stroke-width="2" stroke-linecap="butt" stroke-linejoin="round" stroke="rgb(54.499817%, 0%, 0%)" stroke-opacity="1" stroke-miterlimit="10" d="M 316.244279 161.259025 C 312.254914 156.498409 307.14195 150.39887 303.14867 145.634339 " transform="matrix(0.99777, 0, 0, -0.99777, 0.000000000000008327, 495.622078)"/>
<path fill="none" stroke-width="2" stroke-linecap="butt" stroke-linejoin="round" stroke="rgb(54.499817%, 0%, 0%)" stroke-opacity="1" stroke-miterlimit="10" d="M 290.307535 129.696454 C 286.31817 124.935838 281.20129 118.836299 277.211925 114.071768 " transform="matrix(0.99777, 0, 0, -0.99777, 0.000000000000008327, 495.622078)"/>
<path fill="none" stroke-width="2" stroke-linecap="butt" stroke-linejoin="round" stroke="rgb(54.499817%, 0%, 0%)" stroke-opacity="1" stroke-miterlimit="10" d="M 264.37079 98.133883 C 260.381425 93.373267 255.264546 87.273727 251.271266 82.509196 " transform="matrix(0.99777, 0, 0, -0.99777, 0.000000000000008327, 495.622078)"/>
<path fill="none" stroke-width="2" stroke-linecap="butt" stroke-linejoin="round" stroke="rgb(54.499817%, 0%, 0%)" stroke-opacity="1" stroke-miterlimit="10" d="M 238.434046 66.571311 C 234.440766 61.810695 229.327801 55.711156 225.334521 50.946625 " transform="matrix(0.99777, 0, 0, -0.99777, 0.000000000000008327, 495.622078)"/>
<path fill="none" stroke-width="2" stroke-linecap="butt" stroke-linejoin="round" stroke="rgb(54.499817%, 0%, 0%)" stroke-opacity="1" stroke-miterlimit="10" d="M 212.493386 35.00874 C 208.504021 30.248124 203.391057 24.148585 199.397777 19.384054 " transform="matrix(0.99777, 0, 0, -0.99777, 0.000000000000008327, 495.622078)"/>
</svg>
