<?xml version="1.0" encoding="UTF-8"?>
<svg xmlns="http://www.w3.org/2000/svg" xmlns:xlink="http://www.w3.org/1999/xlink" width="353.3025" height="428.9367" viewBox="0 0 353.3025 428.9367">
<defs>
<clipPath id="clip-0">
<path clip-rule="nonzero" d="M 155 0.390625 L 171 0.390625 L 171 19 L 155 19 Z M 155 0.390625 "/>
</clipPath>
<clipPath id="clip-1">
<path clip-rule="nonzero" d="M 181 0.390625 L 197 0.390625 L 197 19 L 181 19 Z M 181 0.390625 "/>
</clipPath>
<clipPath id="clip-2">
<path clip-rule="nonzero" d="M 337 189 L 352.605469 189 L 352.605469 208 L 337 208 Z M 337 189 "/>
</clipPath>
<clipPath id="clip-3">
<path clip-rule="nonzero" d="M 337 221 L 352.605469 221 L 352.605469 239 L 337 239 Z M 337 221 "/>
</clipPath>
</defs>
<path fill="none" stroke-width="2" stroke-linecap="butt" stroke-linejoin="round" stroke="rgb(0%, 0%, 100%)" stroke-opacity="1" stroke-miterlimit="10" d="M 160.621359 445.320214 C 156.629118 440.56475 151.51357 434.462884 147.521329 429.695678 " transform="matrix(0.99803, 0, 0, -0.99803, -16.285349, 477.833407)"/>
<path fill="none" stroke-width="2" stroke-linecap="butt" stroke-linejoin="round" stroke="rgb(0%, 0%, 100%)" stroke-opacity="1" stroke-miterlimit="10" d="M 173.443498 445.320214 C 177.435739 440.56475 182.547373 434.462884 186.539614 429.695678 " transform="matrix(0.99803, 0, 0, -0.99803, -16.285349, 477.833407)"/>
<g clip-path="url(#clip-0)">
<path fill="none" stroke-width="2" stroke-linecap="butt" stroke-linejoin="round" stroke="rgb(0%, 0%, 100%)" stroke-opacity="1" stroke-miterlimit="10" d="M 186.559184 476.886316 C 182.566943 472.126938 177.451395 466.025072 173.459154 461.26178 " transform="matrix(0.99803, 0, 0, -0.99803, -16.285349, 477.833407)"/>
</g>
<g clip-path="url(#clip-1)">
<path fill="none" stroke-width="2" stroke-linecap="butt" stroke-linejoin="round" stroke="rgb(0%, 0%, 100%)" stroke-opacity="1" stroke-miterlimit="10" d="M 199.381323 476.886316 C 203.36965 472.126938 208.485198 466.025072 212.477439 461.26178 " transform="matrix(0.99803, 0, 0, -0.99803, -16.285349, 477.833407)"/>
</g>
<path fill="none" stroke-width="2" stroke-linecap="butt" stroke-linejoin="round" stroke="rgb(0%, 0%, 100%)" stroke-opacity="1" stroke-miterlimit="10" d="M 212.493095 445.320214 C 208.504768 440.56475 203.38922 434.462884 199.396979 429.695678 " transform="matrix(0.99803, 0, 0, -0.99803, -16.285349, 477.833407)"/>
<path fill="none" stroke-width="2" stroke-linecap="butt" stroke-linejoin="round" stroke="rgb(0%, 0%, 100%)" stroke-opacity="1" stroke-miterlimit="10" d="M 225.315234 445.320214 C 229.307475 440.56475 234.423023 434.462884 238.415264 429.695678 " transform="matrix(0.99803, 0, 0, -0.99803, -16.285349, 477.833407)"/>
<path fill="none" stroke-width="2" stroke-linecap="butt" stroke-linejoin="round" stroke="rgb(0%, 0%, 100%)" stroke-opacity="1" stroke-miterlimit="10" d="M 134.683534 413.76194 C 130.691293 408.998648 125.575745 402.900696 121.583503 398.13349 " transform="matrix(0.99803, 0, 0, -0.99803, -16.285349, 477.833407)"/>
<path fill="none" stroke-width="2" stroke-linecap="butt" stroke-linejoin="round" stroke="rgb(0%, 0%, 100%)" stroke-opacity="1" stroke-miterlimit="10" d="M 147.505673 413.76194 C 151.497914 408.998648 156.609548 402.900696 160.601789 398.13349 " transform="matrix(0.99803, 0, 0, -0.99803, -16.285349, 477.833407)"/>
<path fill="none" stroke-width="2" stroke-linecap="butt" stroke-linejoin="round" stroke="rgb(0%, 0%, 100%)" stroke-opacity="1" stroke-miterlimit="10" d="M 186.559184 413.76194 C 182.566943 408.998648 177.451395 402.900696 173.459154 398.13349 " transform="matrix(0.99803, 0, 0, -0.99803, -16.285349, 477.833407)"/>
<path fill="none" stroke-width="2" stroke-linecap="butt" stroke-linejoin="round" stroke="rgb(0%, 0%, 100%)" stroke-opacity="1" stroke-miterlimit="10" d="M 199.381323 413.76194 C 203.36965 408.998648 208.485198 402.900696 212.477439 398.13349 " transform="matrix(0.99803, 0, 0, -0.99803, -16.285349, 477.833407)"/>
<path fill="none" stroke-width="2" stroke-linecap="butt" stroke-linejoin="round" stroke="rgb(0%, 0%, 100%)" stroke-opacity="1" stroke-miterlimit="10" d="M 108.745709 382.195837 C 104.753468 377.43646 99.637919 371.338507 95.645678 366.571302 " transform="matrix(0.99803, 0, 0, -0.99803, -16.285349, 477.833407)"/>
<path fill="none" stroke-width="2" stroke-linecap="butt" stroke-linejoin="round" stroke="rgb(0%, 0%, 100%)" stroke-opacity="1" stroke-miterlimit="10" d="M 121.567848 382.195837 C 125.556175 377.43646 130.671723 371.338507 134.667878 366.571302 " transform="matrix(0.99803, 0, 0, -0.99803, -16.285349, 477.833407)"/>
<path fill="none" stroke-width="2" stroke-linecap="butt" stroke-linejoin="round" stroke="rgb(0%, 0%, 100%)" stroke-opacity="1" stroke-miterlimit="10" d="M 160.621359 382.195837 C 156.629118 377.43646 151.51357 371.338507 147.521329 366.571302 " transform="matrix(0.99803, 0, 0, -0.99803, -16.285349, 477.833407)"/>
<path fill="none" stroke-width="2" stroke-linecap="butt" stroke-linejoin="round" stroke="rgb(0%, 0%, 100%)" stroke-opacity="1" stroke-miterlimit="10" d="M 173.443498 382.195837 C 177.435739 377.43646 182.547373 371.338507 186.539614 366.571302 " transform="matrix(0.99803, 0, 0, -0.99803, -16.285349, 477.833407)"/>
<path fill="none" stroke-width="2" stroke-linecap="butt" stroke-linejoin="round" stroke="rgb(0%, 0%, 100%)" stroke-opacity="1" stroke-miterlimit="10" d="M 82.807884 350.633649 C 78.815643 345.874272 73.704008 339.776319 69.707853 335.009114 " transform="matrix(0.99803, 0, 0, -0.99803, -16.285349, 477.833407)"/>
<path fill="none" stroke-width="2" stroke-linecap="butt" stroke-linejoin="round" stroke="rgb(0%, 0%, 100%)" stroke-opacity="1" stroke-miterlimit="10" d="M 95.630023 350.633649 C 99.622264 345.874272 104.733898 339.776319 108.726139 335.009114 " transform="matrix(0.99803, 0, 0, -0.99803, -16.285349, 477.833407)"/>
<path fill="none" stroke-width="2" stroke-linecap="butt" stroke-linejoin="round" stroke="rgb(0%, 0%, 100%)" stroke-opacity="1" stroke-miterlimit="10" d="M 134.683534 350.633649 C 130.691293 345.874272 125.575745 339.776319 121.583503 335.009114 " transform="matrix(0.99803, 0, 0, -0.99803, -16.285349, 477.833407)"/>
<path fill="none" stroke-width="2" stroke-linecap="butt" stroke-linejoin="round" stroke="rgb(0%, 0%, 100%)" stroke-opacity="1" stroke-miterlimit="10" d="M 147.505673 350.633649 C 151.497914 345.874272 156.609548 339.776319 160.601789 335.009114 " transform="matrix(0.99803, 0, 0, -0.99803, -16.285349, 477.833407)"/>
<path fill="none" stroke-width="2" stroke-linecap="butt" stroke-linejoin="round" stroke="rgb(0%, 0%, 100%)" stroke-opacity="1" stroke-miterlimit="10" d="M 56.870059 319.071461 C 52.877817 314.312083 47.766183 308.210217 43.770028 303.446925 " transform="matrix(0.99803, 0, 0, -0.99803, -16.285349, 477.833407)"/>
<path fill="none" stroke-width="2" stroke-linecap="butt" stroke-linejoin="round" stroke="rgb(0%, 0%, 100%)" stroke-opacity="1" stroke-miterlimit="10" d="M 69.692197 319.071461 C 73.684439 314.312083 78.796073 308.210217 82.792228 303.446925 " transform="matrix(0.99803, 0, 0, -0.99803, -16.285349, 477.833407)"/>
<path fill="none" stroke-width="2" stroke-linecap="butt" stroke-linejoin="round" stroke="rgb(0%, 0%, 100%)" stroke-opacity="1" stroke-miterlimit="10" d="M 108.745709 319.071461 C 104.753468 314.312083 99.637919 308.210217 95.645678 303.446925 " transform="matrix(0.99803, 0, 0, -0.99803, -16.285349, 477.833407)"/>
<path fill="none" stroke-width="2" stroke-linecap="butt" stroke-linejoin="round" stroke="rgb(0%, 0%, 100%)" stroke-opacity="1" stroke-miterlimit="10" d="M 121.567848 319.071461 C 125.556175 314.312083 130.671723 308.210217 134.667878 303.446925 " transform="matrix(0.99803, 0, 0, -0.99803, -16.285349, 477.833407)"/>
<path fill="none" stroke-width="2" stroke-linecap="butt" stroke-linejoin="round" stroke="rgb(0%, 0%, 100%)" stroke-opacity="1" stroke-miterlimit="10" d="M 30.932233 287.509273 C 26.939992 282.749895 21.828358 276.648029 17.832203 271.884737 " transform="matrix(0.99803, 0, 0, -0.99803, -16.285349, 477.833407)"/>
<path fill="none" stroke-width="2" stroke-linecap="butt" stroke-linejoin="round" stroke="rgb(0%, 0%, 100%)" stroke-opacity="1" stroke-miterlimit="10" d="M 43.754372 287.509273 C 47.746614 282.749895 52.862162 276.648029 56.854403 271.884737 " transform="matrix(0.99803, 0, 0, -0.99803, -16.285349, 477.833407)"/>
<path fill="none" stroke-width="2" stroke-linecap="butt" stroke-linejoin="round" stroke="rgb(0%, 0%, 100%)" stroke-opacity="1" stroke-miterlimit="10" d="M 82.807884 287.509273 C 78.815643 282.749895 73.704008 276.648029 69.707853 271.884737 " transform="matrix(0.99803, 0, 0, -0.99803, -16.285349, 477.833407)"/>
<path fill="none" stroke-width="2" stroke-linecap="butt" stroke-linejoin="round" stroke="rgb(0%, 0%, 100%)" stroke-opacity="1" stroke-miterlimit="10" d="M 95.630023 287.509273 C 99.622264 282.749895 104.733898 276.648029 108.726139 271.884737 " transform="matrix(0.99803, 0, 0, -0.99803, -16.285349, 477.833407)"/>
<path fill="none" stroke-width="2" stroke-linecap="butt" stroke-linejoin="round" stroke="rgb(0%, 0%, 100%)" stroke-opacity="1" stroke-miterlimit="10" d="M 17.816547 255.943171 C 21.808788 251.187707 26.924337 245.085841 30.916578 240.322549 " transform="matrix(0.99803, 0, 0, -0.99803, -16.285349, 477.833407)"/>
<path fill="none" stroke-width="2" stroke-linecap="butt" stroke-linejoin="round" stroke="rgb(0%, 0%, 100%)" stroke-opacity="1" stroke-miterlimit="10" d="M 56.870059 255.943171 C 52.877817 251.187707 47.766183 245.085841 43.770028 240.322549 " transform="matrix(0.99803, 0, 0, -0.99803, -16.285349, 477.833407)"/>
<path fill="none" stroke-width="2" stroke-linecap="butt" stroke-linejoin="round" stroke="rgb(0%, 0%, 100%)" stroke-opacity="1" stroke-miterlimit="10" d="M 69.692197 255.943171 C 73.684439 251.187707 78.796073 245.085841 82.792228 240.322549 " transform="matrix(0.99803, 0, 0, -0.99803, -16.285349, 477.833407)"/>
<path fill="none" stroke-width="2" stroke-linecap="butt" stroke-linejoin="round" stroke="rgb(0%, 0%, 100%)" stroke-opacity="1" stroke-miterlimit="10" d="M 43.754372 224.384896 C 47.746614 219.625519 52.862162 213.523652 56.854403 208.760361 " transform="matrix(0.99803, 0, 0, -0.99803, -16.285349, 477.833407)"/>
<path fill="none" stroke-width="2" stroke-linecap="butt" stroke-linejoin="round" stroke="rgb(0%, 0%, 100%)" stroke-opacity="1" stroke-miterlimit="10" d="M 238.434834 413.76194 C 234.442593 408.998648 229.327045 402.900696 225.334804 398.13349 " transform="matrix(0.99803, 0, 0, -0.99803, -16.285349, 477.833407)"/>
<path fill="none" stroke-width="2" stroke-linecap="butt" stroke-linejoin="round" stroke="rgb(0%, 0%, 100%)" stroke-opacity="1" stroke-miterlimit="10" d="M 251.253059 413.76194 C 255.2453 408.998648 260.360848 402.900696 264.353089 398.13349 " transform="matrix(0.99803, 0, 0, -0.99803, -16.285349, 477.833407)"/>
<path fill="none" stroke-width="2" stroke-linecap="butt" stroke-linejoin="round" stroke="rgb(0%, 0%, 100%)" stroke-opacity="1" stroke-miterlimit="10" d="M 212.493095 382.195837 C 208.504768 377.43646 203.38922 371.338507 199.396979 366.571302 " transform="matrix(0.99803, 0, 0, -0.99803, -16.285349, 477.833407)"/>
<path fill="none" stroke-width="2" stroke-linecap="butt" stroke-linejoin="round" stroke="rgb(0%, 0%, 100%)" stroke-opacity="1" stroke-miterlimit="10" d="M 225.315234 382.195837 C 229.307475 377.43646 234.423023 371.338507 238.415264 366.571302 " transform="matrix(0.99803, 0, 0, -0.99803, -16.285349, 477.833407)"/>
<path fill="none" stroke-width="2" stroke-linecap="butt" stroke-linejoin="round" stroke="rgb(0%, 0%, 100%)" stroke-opacity="1" stroke-miterlimit="10" d="M 186.559184 350.633649 C 182.566943 345.874272 177.451395 339.776319 173.459154 335.009114 " transform="matrix(0.99803, 0, 0, -0.99803, -16.285349, 477.833407)"/>
<path fill="none" stroke-width="2" stroke-linecap="butt" stroke-linejoin="round" stroke="rgb(0%, 0%, 100%)" stroke-opacity="1" stroke-miterlimit="10" d="M 199.381323 350.633649 C 203.36965 345.874272 208.485198 339.776319 212.477439 335.009114 " transform="matrix(0.99803, 0, 0, -0.99803, -16.285349, 477.833407)"/>
<path fill="none" stroke-width="2" stroke-linecap="butt" stroke-linejoin="round" stroke="rgb(0%, 0%, 100%)" stroke-opacity="1" stroke-miterlimit="10" d="M 160.621359 319.071461 C 156.629118 314.312083 151.51357 308.210217 147.521329 303.446925 " transform="matrix(0.99803, 0, 0, -0.99803, -16.285349, 477.833407)"/>
<path fill="none" stroke-width="2" stroke-linecap="butt" stroke-linejoin="round" stroke="rgb(0%, 0%, 100%)" stroke-opacity="1" stroke-miterlimit="10" d="M 173.443498 319.071461 C 177.435739 314.312083 182.547373 308.210217 186.539614 303.446925 " transform="matrix(0.99803, 0, 0, -0.99803, -16.285349, 477.833407)"/>
<path fill="none" stroke-width="2" stroke-linecap="butt" stroke-linejoin="round" stroke="rgb(0%, 0%, 100%)" stroke-opacity="1" stroke-miterlimit="10" d="M 134.683534 287.509273 C 130.691293 282.749895 125.575745 276.648029 121.583503 271.884737 " transform="matrix(0.99803, 0, 0, -0.99803, -16.285349, 477.833407)"/>
<path fill="none" stroke-width="2" stroke-linecap="butt" stroke-linejoin="round" stroke="rgb(0%, 0%, 100%)" stroke-opacity="1" stroke-miterlimit="10" d="M 147.505673 287.509273 C 151.497914 282.749895 156.609548 276.648029 160.601789 271.884737 " transform="matrix(0.99803, 0, 0, -0.99803, -16.285349, 477.833407)"/>
<path fill="none" stroke-width="2" stroke-linecap="butt" stroke-linejoin="round" stroke="rgb(0%, 0%, 100%)" stroke-opacity="1" stroke-miterlimit="10" d="M 108.745709 255.943171 C 104.753468 251.187707 99.637919 245.085841 95.645678 240.322549 " transform="matrix(0.99803, 0, 0, -0.99803, -16.285349, 477.833407)"/>
<path fill="none" stroke-width="2" stroke-linecap="butt" stroke-linejoin="round" stroke="rgb(0%, 0%, 100%)" stroke-opacity="1" stroke-miterlimit="10" d="M 121.567848 255.943171 C 125.556175 251.187707 130.671723 245.085841 134.667878 240.322549 " transform="matrix(0.99803, 0, 0, -0.99803, -16.285349, 477.833407)"/>
<path fill="none" stroke-width="2" stroke-linecap="butt" stroke-linejoin="round" stroke="rgb(0%, 0%, 100%)" stroke-opacity="1" stroke-miterlimit="10" d="M 82.807884 224.384896 C 78.815643 219.625519 73.704008 213.523652 69.707853 208.760361 " transform="matrix(0.99803, 0, 0, -0.99803, -16.285349, 477.833407)"/>
<path fill="none" stroke-width="2" stroke-linecap="butt" stroke-linejoin="round" stroke="rgb(0%, 0%, 100%)" stroke-opacity="1" stroke-miterlimit="10" d="M 95.630023 224.384896 C 99.622264 219.625519 104.733898 213.523652 108.726139 208.760361 " transform="matrix(0.99803, 0, 0, -0.99803, -16.285349, 477.833407)"/>
<path fill="none" stroke-width="2" stroke-linecap="butt" stroke-linejoin="round" stroke="rgb(0%, 0%, 100%)" stroke-opacity="1" stroke-miterlimit="10" d="M 69.692197 192.822708 C 73.684439 188.059417 78.796073 181.961464 82.792228 177.198173 " transform="matrix(0.99803, 0, 0, -0.99803, -16.285349, 477.833407)"/>
<path fill="none" stroke-width="2" stroke-linecap="butt" stroke-linejoin="round" stroke="rgb(0%, 0%, 100%)" stroke-opacity="1" stroke-miterlimit="10" d="M 264.368745 382.195837 C 260.380418 377.43646 255.26487 371.338507 251.272629 366.571302 " transform="matrix(0.99803, 0, 0, -0.99803, -16.285349, 477.833407)"/>
<path fill="none" stroke-width="2" stroke-linecap="butt" stroke-linejoin="round" stroke="rgb(0%, 0%, 100%)" stroke-opacity="1" stroke-miterlimit="10" d="M 277.190884 382.195837 C 281.183125 377.43646 286.298673 371.338507 290.290914 366.571302 " transform="matrix(0.99803, 0, 0, -0.99803, -16.285349, 477.833407)"/>
<path fill="none" stroke-width="2" stroke-linecap="butt" stroke-linejoin="round" stroke="rgb(0%, 0%, 100%)" stroke-opacity="1" stroke-miterlimit="10" d="M 238.434834 350.633649 C 234.442593 345.874272 229.327045 339.776319 225.334804 335.009114 " transform="matrix(0.99803, 0, 0, -0.99803, -16.285349, 477.833407)"/>
<path fill="none" stroke-width="2" stroke-linecap="butt" stroke-linejoin="round" stroke="rgb(0%, 0%, 100%)" stroke-opacity="1" stroke-miterlimit="10" d="M 251.253059 350.633649 C 255.2453 345.874272 260.360848 339.776319 264.353089 335.009114 " transform="matrix(0.99803, 0, 0, -0.99803, -16.285349, 477.833407)"/>
<path fill="none" stroke-width="2" stroke-linecap="butt" stroke-linejoin="round" stroke="rgb(0%, 0%, 100%)" stroke-opacity="1" stroke-miterlimit="10" d="M 212.493095 319.071461 C 208.504768 314.312083 203.38922 308.210217 199.396979 303.446925 " transform="matrix(0.99803, 0, 0, -0.99803, -16.285349, 477.833407)"/>
<path fill="none" stroke-width="2" stroke-linecap="butt" stroke-linejoin="round" stroke="rgb(0%, 0%, 100%)" stroke-opacity="1" stroke-miterlimit="10" d="M 225.315234 319.071461 C 229.307475 314.312083 234.423023 308.210217 238.415264 303.446925 " transform="matrix(0.99803, 0, 0, -0.99803, -16.285349, 477.833407)"/>
<path fill="none" stroke-width="2" stroke-linecap="butt" stroke-linejoin="round" stroke="rgb(0%, 0%, 100%)" stroke-opacity="1" stroke-miterlimit="10" d="M 186.559184 287.509273 C 182.566943 282.749895 177.451395 276.648029 173.459154 271.884737 " transform="matrix(0.99803, 0, 0, -0.99803, -16.285349, 477.833407)"/>
<path fill="none" stroke-width="2" stroke-linecap="butt" stroke-linejoin="round" stroke="rgb(0%, 0%, 100%)" stroke-opacity="1" stroke-miterlimit="10" d="M 199.381323 287.509273 C 203.36965 282.749895 208.485198 276.648029 212.477439 271.884737 " transform="matrix(0.99803, 0, 0, -0.99803, -16.285349, 477.833407)"/>
<path fill="none" stroke-width="2" stroke-linecap="butt" stroke-linejoin="round" stroke="rgb(0%, 0%, 100%)" stroke-opacity="1" stroke-miterlimit="10" d="M 160.621359 255.943171 C 156.629118 251.187707 151.51357 245.085841 147.521329 240.322549 " transform="matrix(0.99803, 0, 0, -0.99803, -16.285349, 477.833407)"/>
<path fill="none" stroke-width="2" stroke-linecap="butt" stroke-linejoin="round" stroke="rgb(0%, 0%, 100%)" stroke-opacity="1" stroke-miterlimit="10" d="M 173.443498 255.943171 C 177.435739 251.187707 182.547373 245.085841 186.539614 240.322549 " transform="matrix(0.99803, 0, 0, -0.99803, -16.285349, 477.833407)"/>
<path fill="none" stroke-width="2" stroke-linecap="butt" stroke-linejoin="round" stroke="rgb(0%, 0%, 100%)" stroke-opacity="1" stroke-miterlimit="10" d="M 134.683534 224.384896 C 130.691293 219.625519 125.575745 213.523652 121.583503 208.760361 " transform="matrix(0.99803, 0, 0, -0.99803, -16.285349, 477.833407)"/>
<path fill="none" stroke-width="2" stroke-linecap="butt" stroke-linejoin="round" stroke="rgb(0%, 0%, 100%)" stroke-opacity="1" stroke-miterlimit="10" d="M 147.505673 224.384896 C 151.497914 219.625519 156.609548 213.523652 160.601789 208.760361 " transform="matrix(0.99803, 0, 0, -0.99803, -16.285349, 477.833407)"/>
<path fill="none" stroke-width="2" stroke-linecap="butt" stroke-linejoin="round" stroke="rgb(0%, 0%, 100%)" stroke-opacity="1" stroke-miterlimit="10" d="M 108.745709 192.822708 C 104.753468 188.059417 99.637919 181.961464 95.645678 177.198173 " transform="matrix(0.99803, 0, 0, -0.99803, -16.285349, 477.833407)"/>
<path fill="none" stroke-width="2" stroke-linecap="butt" stroke-linejoin="round" stroke="rgb(0%, 0%, 100%)" stroke-opacity="1" stroke-miterlimit="10" d="M 121.567848 192.822708 C 125.556175 188.059417 130.671723 181.961464 134.667878 177.198173 " transform="matrix(0.99803, 0, 0, -0.99803, -16.285349, 477.833407)"/>
<path fill="none" stroke-width="2" stroke-linecap="butt" stroke-linejoin="round" stroke="rgb(0%, 0%, 100%)" stroke-opacity="1" stroke-miterlimit="10" d="M 95.630023 161.26052 C 99.622264 156.497228 104.733898 150.399276 108.726139 145.635984 " transform="matrix(0.99803, 0, 0, -0.99803, -16.285349, 477.833407)"/>
<path fill="none" stroke-width="2" stroke-linecap="butt" stroke-linejoin="round" stroke="rgb(0%, 0%, 100%)" stroke-opacity="1" stroke-miterlimit="10" d="M 290.30657 350.633649 C 286.318243 345.874272 281.202695 339.776319 277.210454 335.009114 " transform="matrix(0.99803, 0, 0, -0.99803, -16.285349, 477.833407)"/>
<path fill="none" stroke-width="2" stroke-linecap="butt" stroke-linejoin="round" stroke="rgb(0%, 0%, 100%)" stroke-opacity="1" stroke-miterlimit="10" d="M 303.128709 350.633649 C 307.12095 345.874272 312.236498 339.776319 316.228739 335.009114 " transform="matrix(0.99803, 0, 0, -0.99803, -16.285349, 477.833407)"/>
<path fill="none" stroke-width="2" stroke-linecap="butt" stroke-linejoin="round" stroke="rgb(0%, 0%, 100%)" stroke-opacity="1" stroke-miterlimit="10" d="M 264.368745 319.071461 C 260.380418 314.312083 255.26487 308.210217 251.272629 303.446925 " transform="matrix(0.99803, 0, 0, -0.99803, -16.285349, 477.833407)"/>
<path fill="none" stroke-width="2" stroke-linecap="butt" stroke-linejoin="round" stroke="rgb(0%, 0%, 100%)" stroke-opacity="1" stroke-miterlimit="10" d="M 277.190884 319.071461 C 281.183125 314.312083 286.298673 308.210217 290.290914 303.446925 " transform="matrix(0.99803, 0, 0, -0.99803, -16.285349, 477.833407)"/>
<path fill="none" stroke-width="2" stroke-linecap="butt" stroke-linejoin="round" stroke="rgb(0%, 0%, 100%)" stroke-opacity="1" stroke-miterlimit="10" d="M 238.434834 287.509273 C 234.442593 282.749895 229.327045 276.648029 225.334804 271.884737 " transform="matrix(0.99803, 0, 0, -0.99803, -16.285349, 477.833407)"/>
<path fill="none" stroke-width="2" stroke-linecap="butt" stroke-linejoin="round" stroke="rgb(0%, 0%, 100%)" stroke-opacity="1" stroke-miterlimit="10" d="M 251.253059 287.509273 C 255.2453 282.749895 260.360848 276.648029 264.353089 271.884737 " transform="matrix(0.99803, 0, 0, -0.99803, -16.285349, 477.833407)"/>
<path fill="none" stroke-width="2" stroke-linecap="butt" stroke-linejoin="round" stroke="rgb(0%, 0%, 100%)" stroke-opacity="1" stroke-miterlimit="10" d="M 212.493095 255.943171 C 208.504768 251.187707 203.38922 245.085841 199.396979 240.322549 " transform="matrix(0.99803, 0, 0, -0.99803, -16.285349, 477.833407)"/>
<path fill="none" stroke-width="2" stroke-linecap="butt" stroke-linejoin="round" stroke="rgb(0%, 0%, 100%)" stroke-opacity="1" stroke-miterlimit="10" d="M 225.315234 255.943171 C 229.307475 251.187707 234.423023 245.085841 238.415264 240.322549 " transform="matrix(0.99803, 0, 0, -0.99803, -16.285349, 477.833407)"/>
<path fill="none" stroke-width="2" stroke-linecap="butt" stroke-linejoin="round" stroke="rgb(0%, 0%, 100%)" stroke-opacity="1" stroke-miterlimit="10" d="M 186.559184 224.384896 C 182.566943 219.625519 177.451395 213.523652 173.459154 208.760361 " transform="matrix(0.99803, 0, 0, -0.99803, -16.285349, 477.833407)"/>
<path fill="none" stroke-width="2" stroke-linecap="butt" stroke-linejoin="round" stroke="rgb(0%, 0%, 100%)" stroke-opacity="1" stroke-miterlimit="10" d="M 199.381323 224.384896 C 203.36965 219.625519 208.485198 213.523652 212.477439 208.760361 " transform="matrix(0.99803, 0, 0, -0.99803, -16.285349, 477.833407)"/>
<path fill="none" stroke-width="2" stroke-linecap="butt" stroke-linejoin="round" stroke="rgb(0%, 0%, 100%)" stroke-opacity="1" stroke-miterlimit="10" d="M 160.621359 192.822708 C 156.629118 188.059417 151.51357 181.961464 147.521329 177.198173 " transform="matrix(0.99803, 0, 0, -0.99803, -16.285349, 477.833407)"/>
<path fill="none" stroke-width="2" stroke-linecap="butt" stroke-linejoin="round" stroke="rgb(0%, 0%, 100%)" stroke-opacity="1" stroke-miterlimit="10" d="M 173.443498 192.822708 C 177.435739 188.059417 182.547373 181.961464 186.539614 177.198173 " transform="matrix(0.99803, 0, 0, -0.99803, -16.285349, 477.833407)"/>
<path fill="none" stroke-width="2" stroke-linecap="butt" stroke-linejoin="round" stroke="rgb(0%, 0%, 100%)" stroke-opacity="1" stroke-miterlimit="10" d="M 134.683534 161.26052 C 130.691293 156.497228 125.575745 150.399276 121.583503 145.635984 " transform="matrix(0.99803, 0, 0, -0.99803, -16.285349, 477.833407)"/>
<path fill="none" stroke-width="2" stroke-linecap="butt" stroke-linejoin="round" stroke="rgb(0%, 0%, 100%)" stroke-opacity="1" stroke-miterlimit="10" d="M 147.505673 161.26052 C 151.497914 156.497228 156.609548 150.399276 160.601789 145.635984 " transform="matrix(0.99803, 0, 0, -0.99803, -16.285349, 477.833407)"/>
<path fill="none" stroke-width="2" stroke-linecap="butt" stroke-linejoin="round" stroke="rgb(0%, 0%, 100%)" stroke-opacity="1" stroke-miterlimit="10" d="M 121.567848 129.694418 C 125.556175 124.93504 130.671723 118.837088 134.667878 114.073796 " transform="matrix(0.99803, 0, 0, -0.99803, -16.285349, 477.833407)"/>
<path fill="none" stroke-width="2" stroke-linecap="butt" stroke-linejoin="round" stroke="rgb(0%, 0%, 100%)" stroke-opacity="1" stroke-miterlimit="10" d="M 316.244395 319.071461 C 312.256068 314.312083 307.14052 308.210217 303.148279 303.446925 " transform="matrix(0.99803, 0, 0, -0.99803, -16.285349, 477.833407)"/>
<path fill="none" stroke-width="2" stroke-linecap="butt" stroke-linejoin="round" stroke="rgb(0%, 0%, 100%)" stroke-opacity="1" stroke-miterlimit="10" d="M 329.066534 319.071461 C 333.058775 314.312083 338.174323 308.210217 342.166564 303.446925 " transform="matrix(0.99803, 0, 0, -0.99803, -16.285349, 477.833407)"/>
<path fill="none" stroke-width="2" stroke-linecap="butt" stroke-linejoin="round" stroke="rgb(0%, 0%, 100%)" stroke-opacity="1" stroke-miterlimit="10" d="M 290.30657 287.509273 C 286.318243 282.749895 281.202695 276.648029 277.210454 271.884737 " transform="matrix(0.99803, 0, 0, -0.99803, -16.285349, 477.833407)"/>
<path fill="none" stroke-width="2" stroke-linecap="butt" stroke-linejoin="round" stroke="rgb(0%, 0%, 100%)" stroke-opacity="1" stroke-miterlimit="10" d="M 303.128709 287.509273 C 307.12095 282.749895 312.236498 276.648029 316.228739 271.884737 " transform="matrix(0.99803, 0, 0, -0.99803, -16.285349, 477.833407)"/>
<path fill="none" stroke-width="2" stroke-linecap="butt" stroke-linejoin="round" stroke="rgb(0%, 0%, 100%)" stroke-opacity="1" stroke-miterlimit="10" d="M 264.368745 255.943171 C 260.380418 251.187707 255.26487 245.085841 251.272629 240.322549 " transform="matrix(0.99803, 0, 0, -0.99803, -16.285349, 477.833407)"/>
<path fill="none" stroke-width="2" stroke-linecap="butt" stroke-linejoin="round" stroke="rgb(0%, 0%, 100%)" stroke-opacity="1" stroke-miterlimit="10" d="M 277.190884 255.943171 C 281.183125 251.187707 286.298673 245.085841 290.290914 240.322549 " transform="matrix(0.99803, 0, 0, -0.99803, -16.285349, 477.833407)"/>
<path fill="none" stroke-width="2" stroke-linecap="butt" stroke-linejoin="round" stroke="rgb(0%, 0%, 100%)" stroke-opacity="1" stroke-miterlimit="10" d="M 238.434834 224.384896 C 234.442593 219.625519 229.327045 213.523652 225.334804 208.760361 " transform="matrix(0.99803, 0, 0, -0.99803, -16.285349, 477.833407)"/>
<path fill="none" stroke-width="2" stroke-linecap="butt" stroke-linejoin="round" stroke="rgb(0%, 0%, 100%)" stroke-opacity="1" stroke-miterlimit="10" d="M 251.253059 224.384896 C 255.2453 219.625519 260.360848 213.523652 264.353089 208.760361 " transform="matrix(0.99803, 0, 0, -0.99803, -16.285349, 477.833407)"/>
<path fill="none" stroke-width="2" stroke-linecap="butt" stroke-linejoin="round" stroke="rgb(0%, 0%, 100%)" stroke-opacity="1" stroke-miterlimit="10" d="M 212.493095 192.822708 C 208.504768 188.059417 203.38922 181.961464 199.396979 177.198173 " transform="matrix(0.99803, 0, 0, -0.99803, -16.285349, 477.833407)"/>
<path fill="none" stroke-width="2" stroke-linecap="butt" stroke-linejoin="round" stroke="rgb(0%, 0%, 100%)" stroke-opacity="1" stroke-miterlimit="10" d="M 225.315234 192.822708 C 229.307475 188.059417 234.423023 181.961464 238.415264 177.198173 " transform="matrix(0.99803, 0, 0, -0.99803, -16.285349, 477.833407)"/>
<path fill="none" stroke-width="2" stroke-linecap="butt" stroke-linejoin="round" stroke="rgb(0%, 0%, 100%)" stroke-opacity="1" stroke-miterlimit="10" d="M 199.381323 161.26052 C 203.36965 156.497228 208.485198 150.399276 212.477439 145.635984 " transform="matrix(0.99803, 0, 0, -0.99803, -16.285349, 477.833407)"/>
<path fill="none" stroke-width="2" stroke-linecap="butt" stroke-linejoin="round" stroke="rgb(0%, 0%, 100%)" stroke-opacity="1" stroke-miterlimit="10" d="M 173.443498 161.26052 C 177.435739 156.497228 182.547373 150.399276 186.539614 145.635984 " transform="matrix(0.99803, 0, 0, -0.99803, -16.285349, 477.833407)"/>
<path fill="none" stroke-width="2" stroke-linecap="butt" stroke-linejoin="round" stroke="rgb(0%, 0%, 100%)" stroke-opacity="1" stroke-miterlimit="10" d="M 160.621359 129.694418 C 156.629118 124.93504 151.51357 118.837088 147.521329 114.073796 " transform="matrix(0.99803, 0, 0, -0.99803, -16.285349, 477.833407)"/>
<path fill="none" stroke-width="2" stroke-linecap="butt" stroke-linejoin="round" stroke="rgb(0%, 0%, 100%)" stroke-opacity="1" stroke-miterlimit="10" d="M 173.443498 129.694418 C 177.435739 124.93504 182.547373 118.837088 186.539614 114.073796 " transform="matrix(0.99803, 0, 0, -0.99803, -16.285349, 477.833407)"/>
<path fill="none" stroke-width="2" stroke-linecap="butt" stroke-linejoin="round" stroke="rgb(0%, 0%, 100%)" stroke-opacity="1" stroke-miterlimit="10" d="M 147.505673 98.13223 C 151.497914 93.372852 156.609548 87.274899 160.601789 82.511608 " transform="matrix(0.99803, 0, 0, -0.99803, -16.285349, 477.833407)"/>
<path fill="none" stroke-width="2" stroke-linecap="butt" stroke-linejoin="round" stroke="rgb(0%, 0%, 100%)" stroke-opacity="1" stroke-miterlimit="10" d="M 342.18222 287.509273 C 338.189979 282.749895 333.078345 276.648029 329.086104 271.884737 " transform="matrix(0.99803, 0, 0, -0.99803, -16.285349, 477.833407)"/>
<g clip-path="url(#clip-2)">
<path fill="none" stroke-width="2" stroke-linecap="butt" stroke-linejoin="round" stroke="rgb(0%, 0%, 100%)" stroke-opacity="1" stroke-miterlimit="10" d="M 355.004359 287.509273 C 358.9966 282.749895 364.108234 276.648029 368.104389 271.884737 " transform="matrix(0.99803, 0, 0, -0.99803, -16.285349, 477.833407)"/>
</g>
<path fill="none" stroke-width="2" stroke-linecap="butt" stroke-linejoin="round" stroke="rgb(0%, 0%, 100%)" stroke-opacity="1" stroke-miterlimit="10" d="M 316.244395 255.943171 C 312.256068 251.187707 307.14052 245.085841 303.148279 240.322549 " transform="matrix(0.99803, 0, 0, -0.99803, -16.285349, 477.833407)"/>
<path fill="none" stroke-width="2" stroke-linecap="butt" stroke-linejoin="round" stroke="rgb(0%, 0%, 100%)" stroke-opacity="1" stroke-miterlimit="10" d="M 329.066534 255.943171 C 333.058775 251.187707 338.174323 245.085841 342.166564 240.322549 " transform="matrix(0.99803, 0, 0, -0.99803, -16.285349, 477.833407)"/>
<path fill="none" stroke-width="2" stroke-linecap="butt" stroke-linejoin="round" stroke="rgb(0%, 0%, 100%)" stroke-opacity="1" stroke-miterlimit="10" d="M 290.30657 224.384896 C 286.318243 219.625519 281.202695 213.523652 277.210454 208.760361 " transform="matrix(0.99803, 0, 0, -0.99803, -16.285349, 477.833407)"/>
<path fill="none" stroke-width="2" stroke-linecap="butt" stroke-linejoin="round" stroke="rgb(0%, 0%, 100%)" stroke-opacity="1" stroke-miterlimit="10" d="M 303.128709 224.384896 C 307.12095 219.625519 312.236498 213.523652 316.228739 208.760361 " transform="matrix(0.99803, 0, 0, -0.99803, -16.285349, 477.833407)"/>
<path fill="none" stroke-width="2" stroke-linecap="butt" stroke-linejoin="round" stroke="rgb(0%, 0%, 100%)" stroke-opacity="1" stroke-miterlimit="10" d="M 264.368745 192.822708 C 260.380418 188.059417 255.26487 181.961464 251.272629 177.198173 " transform="matrix(0.99803, 0, 0, -0.99803, -16.285349, 477.833407)"/>
<path fill="none" stroke-width="2" stroke-linecap="butt" stroke-linejoin="round" stroke="rgb(0%, 0%, 100%)" stroke-opacity="1" stroke-miterlimit="10" d="M 277.190884 192.822708 C 281.183125 188.059417 286.298673 181.961464 290.290914 177.198173 " transform="matrix(0.99803, 0, 0, -0.99803, -16.285349, 477.833407)"/>
<path fill="none" stroke-width="2" stroke-linecap="butt" stroke-linejoin="round" stroke="rgb(0%, 0%, 100%)" stroke-opacity="1" stroke-miterlimit="10" d="M 238.434834 161.26052 C 234.442593 156.497228 229.327045 150.399276 225.334804 145.635984 " transform="matrix(0.99803, 0, 0, -0.99803, -16.285349, 477.833407)"/>
<path fill="none" stroke-width="2" stroke-linecap="butt" stroke-linejoin="round" stroke="rgb(0%, 0%, 100%)" stroke-opacity="1" stroke-miterlimit="10" d="M 251.253059 161.26052 C 255.2453 156.497228 260.360848 150.399276 264.353089 145.635984 " transform="matrix(0.99803, 0, 0, -0.99803, -16.285349, 477.833407)"/>
<path fill="none" stroke-width="2" stroke-linecap="butt" stroke-linejoin="round" stroke="rgb(0%, 0%, 100%)" stroke-opacity="1" stroke-miterlimit="10" d="M 212.493095 129.694418 C 208.504768 124.93504 203.38922 118.837088 199.396979 114.073796 " transform="matrix(0.99803, 0, 0, -0.99803, -16.285349, 477.833407)"/>
<path fill="none" stroke-width="2" stroke-linecap="butt" stroke-linejoin="round" stroke="rgb(0%, 0%, 100%)" stroke-opacity="1" stroke-miterlimit="10" d="M 225.315234 129.694418 C 229.307475 124.93504 234.423023 118.837088 238.415264 114.073796 " transform="matrix(0.99803, 0, 0, -0.99803, -16.285349, 477.833407)"/>
<path fill="none" stroke-width="2" stroke-linecap="butt" stroke-linejoin="round" stroke="rgb(0%, 0%, 100%)" stroke-opacity="1" stroke-miterlimit="10" d="M 186.559184 98.13223 C 182.566943 93.372852 177.451395 87.274899 173.459154 82.511608 " transform="matrix(0.99803, 0, 0, -0.99803, -16.285349, 477.833407)"/>
<path fill="none" stroke-width="2" stroke-linecap="butt" stroke-linejoin="round" stroke="rgb(0%, 0%, 100%)" stroke-opacity="1" stroke-miterlimit="10" d="M 199.381323 98.13223 C 203.36965 93.372852 208.485198 87.274899 212.477439 82.511608 " transform="matrix(0.99803, 0, 0, -0.99803, -16.285349, 477.833407)"/>
<path fill="none" stroke-width="2" stroke-linecap="butt" stroke-linejoin="round" stroke="rgb(0%, 0%, 100%)" stroke-opacity="1" stroke-miterlimit="10" d="M 173.443498 66.570041 C 177.435739 61.810664 182.547373 55.712711 186.539614 50.94942 " transform="matrix(0.99803, 0, 0, -0.99803, -16.285349, 477.833407)"/>
<g clip-path="url(#clip-3)">
<path fill="none" stroke-width="2" stroke-linecap="butt" stroke-linejoin="round" stroke="rgb(0%, 0%, 100%)" stroke-opacity="1" stroke-miterlimit="10" d="M 368.120045 255.943171 C 364.127804 251.187707 359.01617 245.085841 355.023929 240.322549 " transform="matrix(0.99803, 0, 0, -0.99803, -16.285349, 477.833407)"/>
</g>
<path fill="none" stroke-width="2" stroke-linecap="butt" stroke-linejoin="round" stroke="rgb(0%, 0%, 100%)" stroke-opacity="1" stroke-miterlimit="10" d="M 342.18222 224.384896 C 338.189979 219.625519 333.078345 213.523652 329.086104 208.760361 " transform="matrix(0.99803, 0, 0, -0.99803, -16.285349, 477.833407)"/>
<path fill="none" stroke-width="2" stroke-linecap="butt" stroke-linejoin="round" stroke="rgb(0%, 0%, 100%)" stroke-opacity="1" stroke-miterlimit="10" d="M 316.244395 192.822708 C 312.256068 188.059417 307.14052 181.961464 303.148279 177.198173 " transform="matrix(0.99803, 0, 0, -0.99803, -16.285349, 477.833407)"/>
<path fill="none" stroke-width="2" stroke-linecap="butt" stroke-linejoin="round" stroke="rgb(0%, 0%, 100%)" stroke-opacity="1" stroke-miterlimit="10" d="M 290.30657 161.26052 C 286.318243 156.497228 281.202695 150.399276 277.210454 145.635984 " transform="matrix(0.99803, 0, 0, -0.99803, -16.285349, 477.833407)"/>
<path fill="none" stroke-width="2" stroke-linecap="butt" stroke-linejoin="round" stroke="rgb(0%, 0%, 100%)" stroke-opacity="1" stroke-miterlimit="10" d="M 264.368745 129.694418 C 260.380418 124.93504 255.26487 118.837088 251.272629 114.073796 " transform="matrix(0.99803, 0, 0, -0.99803, -16.285349, 477.833407)"/>
<path fill="none" stroke-width="2" stroke-linecap="butt" stroke-linejoin="round" stroke="rgb(0%, 0%, 100%)" stroke-opacity="1" stroke-miterlimit="10" d="M 238.434834 98.13223 C 234.442593 93.372852 229.327045 87.274899 225.334804 82.511608 " transform="matrix(0.99803, 0, 0, -0.99803, -16.285349, 477.833407)"/>
<path fill="none" stroke-width="2" stroke-linecap="butt" stroke-linejoin="round" stroke="rgb(0%, 0%, 100%)" stroke-opacity="1" stroke-miterlimit="10" d="M 212.493095 66.570041 C 208.504768 61.810664 203.38922 55.712711 199.396979 50.94942 " transform="matrix(0.99803, 0, 0, -0.99803, -16.285349, 477.833407)"/>
</svg>
