<?xml version="1.0" encoding="UTF-8"?>
<svg xmlns="http://www.w3.org/2000/svg" xmlns:xlink="http://www.w3.org/1999/xlink" width="389.991" height="504" viewBox="0 0 389.991 504">
<defs>
<g>
<g id="glyph-0-0">
<path d="M 12.8125 -27.890625 C 12.8125 -28.9375 12.8125 -29.015625 11.8125 -29.015625 C 9.109375 -26.234375 5.265625 -26.234375 3.875 -26.234375 L 3.875 -24.890625 C 4.75 -24.890625 7.328125 -24.890625 9.59375 -26.015625 L 9.59375 -3.4375 C 9.59375 -1.875 9.453125 -1.34375 5.53125 -1.34375 L 4.140625 -1.34375 L 4.140625 0 C 5.671875 -0.125 9.453125 -0.125 11.203125 -0.125 C 12.9375 -0.125 16.734375 -0.125 18.265625 0 L 18.265625 -1.34375 L 16.859375 -1.34375 C 12.9375 -1.34375 12.8125 -1.828125 12.8125 -3.4375 Z M 12.8125 -27.890625 "/>
</g>
<g id="glyph-0-1">
<path d="M 5.53125 -3.359375 L 10.15625 -7.84375 C 16.953125 -13.859375 19.5625 -16.21875 19.5625 -20.5625 C 19.5625 -25.53125 15.640625 -29.015625 10.328125 -29.015625 C 5.40625 -29.015625 2.171875 -25.015625 2.171875 -21.140625 C 2.171875 -18.6875 4.359375 -18.6875 4.484375 -18.6875 C 5.234375 -18.6875 6.75 -19.21875 6.75 -21 C 6.75 -22.140625 5.96875 -23.265625 4.4375 -23.265625 C 4.09375 -23.265625 4.015625 -23.265625 3.875 -23.234375 C 4.875 -26.0625 7.234375 -27.671875 9.765625 -27.671875 C 13.734375 -27.671875 15.59375 -24.140625 15.59375 -20.5625 C 15.59375 -17.078125 13.421875 -13.640625 11.03125 -10.9375 L 2.65625 -1.609375 C 2.171875 -1.140625 2.171875 -1.046875 2.171875 0 L 18.34375 0 L 19.5625 -7.578125 L 18.484375 -7.578125 C 18.265625 -6.28125 17.953125 -4.359375 17.515625 -3.703125 C 17.21875 -3.359375 14.34375 -3.359375 13.375 -3.359375 Z M 5.53125 -3.359375 "/>
</g>
<g id="glyph-0-2">
<path d="M 16 -13.859375 L 16 -12.46875 C 16 -2.265625 11.46875 -0.265625 8.9375 -0.265625 C 8.1875 -0.265625 5.84375 -0.34375 4.65625 -1.828125 C 6.578125 -1.828125 6.921875 -3.09375 6.921875 -3.828125 C 6.921875 -5.1875 5.890625 -5.84375 4.921875 -5.84375 C 4.234375 -5.84375 2.921875 -5.453125 2.921875 -3.75 C 2.921875 -0.828125 5.265625 0.953125 8.984375 0.953125 C 14.59375 0.953125 19.921875 -4.96875 19.921875 -14.34375 C 19.921875 -26.0625 14.90625 -29.015625 11.03125 -29.015625 C 8.625 -29.015625 6.5 -28.234375 4.625 -26.28125 C 2.828125 -24.3125 1.828125 -22.484375 1.828125 -19.21875 C 1.828125 -13.765625 5.671875 -9.5 10.546875 -9.5 C 13.203125 -9.5 14.984375 -11.328125 16 -13.859375 Z M 10.59375 -10.5 C 9.890625 -10.5 7.890625 -10.5 6.53125 -13.25 C 5.75 -14.859375 5.75 -17.03125 5.75 -19.171875 C 5.75 -21.53125 5.75 -23.578125 6.671875 -25.1875 C 7.84375 -27.359375 9.5 -27.9375 11.03125 -27.9375 C 13.03125 -27.9375 14.46875 -26.453125 15.203125 -24.484375 C 15.734375 -23.09375 15.90625 -20.34375 15.90625 -18.34375 C 15.90625 -14.734375 14.421875 -10.5 10.59375 -10.5 Z M 10.59375 -10.5 "/>
</g>
<g id="glyph-0-3">
<path d="M 5.75 -14.296875 L 5.75 -15.34375 C 5.75 -26.359375 11.15625 -27.9375 13.375 -27.9375 C 14.421875 -27.9375 16.25 -27.671875 17.21875 -26.1875 C 16.5625 -26.1875 14.8125 -26.1875 14.8125 -24.234375 C 14.8125 -22.875 15.859375 -22.21875 16.828125 -22.21875 C 17.515625 -22.21875 18.828125 -22.609375 18.828125 -24.3125 C 18.828125 -26.9375 16.90625 -29.015625 13.296875 -29.015625 C 7.71875 -29.015625 1.828125 -23.40625 1.828125 -13.765625 C 1.828125 -2.140625 6.890625 0.953125 10.9375 0.953125 C 15.78125 0.953125 19.921875 -3.140625 19.921875 -8.890625 C 19.921875 -14.421875 16.03125 -18.609375 11.203125 -18.609375 C 8.234375 -18.609375 6.625 -16.390625 5.75 -14.296875 Z M 10.9375 -0.265625 C 8.1875 -0.265625 6.890625 -2.875 6.625 -3.53125 C 5.84375 -5.578125 5.84375 -9.0625 5.84375 -9.84375 C 5.84375 -13.25 7.234375 -17.609375 11.15625 -17.609375 C 11.859375 -17.609375 13.859375 -17.609375 15.203125 -14.90625 C 16 -13.296875 16 -11.0625 16 -8.9375 C 16 -6.84375 16 -4.65625 15.25 -3.09375 C 13.9375 -0.484375 11.9375 -0.265625 10.9375 -0.265625 Z M 10.9375 -0.265625 "/>
</g>
<g id="glyph-0-4">
<path d="M 19.5625 -8.765625 C 19.5625 -13.9375 16 -18.296875 11.28125 -18.296875 C 9.1875 -18.296875 7.328125 -17.609375 5.75 -16.078125 L 5.75 -24.578125 C 6.625 -24.3125 8.0625 -24.015625 9.453125 -24.015625 C 14.8125 -24.015625 17.859375 -27.984375 17.859375 -28.546875 C 17.859375 -28.8125 17.734375 -29.015625 17.4375 -29.015625 C 17.390625 -29.015625 17.296875 -29.015625 17.078125 -28.890625 C 16.21875 -28.5 14.078125 -27.625 11.15625 -27.625 C 9.40625 -27.625 7.40625 -27.9375 5.359375 -28.84375 C 5.015625 -28.984375 4.921875 -28.984375 4.84375 -28.984375 C 4.40625 -28.984375 4.40625 -28.625 4.40625 -27.9375 L 4.40625 -15.03125 C 4.40625 -14.25 4.40625 -13.90625 5.015625 -13.90625 C 5.3125 -13.90625 5.40625 -14.03125 5.578125 -14.296875 C 6.0625 -14.984375 7.671875 -17.34375 11.203125 -17.34375 C 13.46875 -17.34375 14.5625 -15.34375 14.90625 -14.5625 C 15.59375 -12.9375 15.6875 -11.25 15.6875 -9.0625 C 15.6875 -7.53125 15.6875 -4.921875 14.640625 -3.09375 C 13.59375 -1.390625 11.984375 -0.265625 9.984375 -0.265625 C 6.796875 -0.265625 4.3125 -2.578125 3.578125 -5.140625 C 3.703125 -5.09375 3.828125 -5.0625 4.3125 -5.0625 C 5.75 -5.0625 6.5 -6.140625 6.5 -7.1875 C 6.5 -8.234375 5.75 -9.328125 4.3125 -9.328125 C 3.703125 -9.328125 2.171875 -9.015625 2.171875 -7.015625 C 2.171875 -3.265625 5.1875 0.953125 10.0625 0.953125 C 15.125 0.953125 19.5625 -3.21875 19.5625 -8.765625 Z M 19.5625 -8.765625 "/>
</g>
<g id="glyph-0-5">
<path d="M 20.046875 -13.9375 C 20.046875 -17.4375 19.828125 -20.921875 18.296875 -24.140625 C 16.296875 -28.328125 12.71875 -29.015625 10.890625 -29.015625 C 8.28125 -29.015625 5.09375 -27.890625 3.3125 -23.84375 C 1.921875 -20.828125 1.703125 -17.4375 1.703125 -13.9375 C 1.703125 -10.671875 1.875 -6.75 3.65625 -3.4375 C 5.53125 0.09375 8.71875 0.953125 10.84375 0.953125 C 13.203125 0.953125 16.515625 0.046875 18.4375 -4.09375 C 19.828125 -7.109375 20.046875 -10.5 20.046875 -13.9375 Z M 10.84375 0 C 9.15625 0 6.578125 -1.09375 5.796875 -5.265625 C 5.3125 -7.890625 5.3125 -11.890625 5.3125 -14.46875 C 5.3125 -17.25 5.3125 -20.140625 5.671875 -22.484375 C 6.5 -27.671875 9.765625 -28.0625 10.84375 -28.0625 C 12.28125 -28.0625 15.171875 -27.28125 16 -22.96875 C 16.421875 -20.53125 16.421875 -17.21875 16.421875 -14.46875 C 16.421875 -11.203125 16.421875 -8.234375 15.953125 -5.453125 C 15.296875 -1.3125 12.8125 0 10.84375 0 Z M 10.84375 0 "/>
</g>
<g id="glyph-0-6">
<path d="M 7.109375 -19.921875 C 5.09375 -21.21875 4.921875 -22.703125 4.921875 -23.4375 C 4.921875 -26.109375 7.75 -27.9375 10.84375 -27.9375 C 14.03125 -27.9375 16.828125 -25.671875 16.828125 -22.53125 C 16.828125 -20.046875 15.125 -17.953125 12.5 -16.421875 Z M 13.46875 -15.78125 C 16.609375 -17.390625 18.734375 -19.65625 18.734375 -22.53125 C 18.734375 -26.546875 14.859375 -29.015625 10.890625 -29.015625 C 6.53125 -29.015625 3 -25.796875 3 -21.75 C 3 -20.96875 3.09375 -19 4.921875 -16.953125 C 5.40625 -16.421875 7.015625 -15.34375 8.109375 -14.59375 C 5.578125 -13.328125 1.828125 -10.890625 1.828125 -6.578125 C 1.828125 -1.96875 6.28125 0.953125 10.84375 0.953125 C 15.78125 0.953125 19.921875 -2.65625 19.921875 -7.328125 C 19.921875 -8.890625 19.4375 -10.84375 17.78125 -12.6875 C 16.953125 -13.59375 16.25 -14.03125 13.46875 -15.78125 Z M 9.109375 -13.9375 L 14.46875 -10.546875 C 15.6875 -9.71875 17.734375 -8.40625 17.734375 -5.75 C 17.734375 -2.53125 14.46875 -0.265625 10.890625 -0.265625 C 7.140625 -0.265625 4.015625 -2.96875 4.015625 -6.578125 C 4.015625 -9.109375 5.40625 -11.890625 9.109375 -13.9375 Z M 9.109375 -13.9375 "/>
</g>
<g id="glyph-0-7">
<path d="M 12.8125 -7.1875 L 12.8125 -3.40625 C 12.8125 -1.828125 12.71875 -1.34375 9.5 -1.34375 L 8.578125 -1.34375 L 8.578125 0 C 10.375 -0.125 12.640625 -0.125 14.46875 -0.125 C 16.296875 -0.125 18.609375 -0.125 20.390625 0 L 20.390625 -1.34375 L 19.484375 -1.34375 C 16.25 -1.34375 16.171875 -1.828125 16.171875 -3.40625 L 16.171875 -7.1875 L 20.53125 -7.1875 L 20.53125 -8.546875 L 16.171875 -8.546875 L 16.171875 -28.375 C 16.171875 -29.234375 16.171875 -29.5 15.46875 -29.5 C 15.078125 -29.5 14.953125 -29.5 14.59375 -28.984375 L 1.21875 -8.546875 L 1.21875 -7.1875 Z M 13.078125 -8.546875 L 2.4375 -8.546875 L 13.078125 -24.796875 Z M 13.078125 -8.546875 "/>
</g>
<g id="glyph-0-8">
<path d="M 20.75 -26.546875 C 21.140625 -27.0625 21.140625 -27.15625 21.140625 -28.0625 L 10.546875 -28.0625 C 5.234375 -28.0625 5.140625 -28.625 4.96875 -29.453125 L 3.875 -29.453125 L 2.4375 -20.484375 L 3.53125 -20.484375 C 3.65625 -21.171875 4.046875 -23.921875 4.625 -24.453125 C 4.921875 -24.703125 8.328125 -24.703125 8.890625 -24.703125 L 17.90625 -24.703125 C 17.4375 -24.015625 13.984375 -19.265625 13.03125 -17.828125 C 9.109375 -11.9375 7.671875 -5.890625 7.671875 -1.4375 C 7.671875 -1 7.671875 0.953125 9.671875 0.953125 C 11.671875 0.953125 11.671875 -1 11.671875 -1.4375 L 11.671875 -3.65625 C 11.671875 -6.0625 11.8125 -8.453125 12.15625 -10.8125 C 12.328125 -11.8125 12.9375 -15.5625 14.859375 -18.265625 Z M 20.75 -26.546875 "/>
</g>
<g id="glyph-0-9">
<path d="M 12.640625 -15.34375 C 16.21875 -16.515625 18.734375 -19.5625 18.734375 -23.015625 C 18.734375 -26.578125 14.90625 -29.015625 10.71875 -29.015625 C 6.3125 -29.015625 3 -26.40625 3 -23.09375 C 3 -21.65625 3.96875 -20.828125 5.234375 -20.828125 C 6.578125 -20.828125 7.453125 -21.796875 7.453125 -23.046875 C 7.453125 -25.234375 5.40625 -25.234375 4.75 -25.234375 C 6.09375 -27.359375 8.984375 -27.9375 10.546875 -27.9375 C 12.328125 -27.9375 14.734375 -26.96875 14.734375 -23.046875 C 14.734375 -22.53125 14.640625 -20 13.515625 -18.078125 C 12.203125 -16 10.71875 -15.859375 9.625 -15.8125 C 9.28125 -15.78125 8.234375 -15.6875 7.9375 -15.6875 C 7.578125 -15.640625 7.28125 -15.59375 7.28125 -15.171875 C 7.28125 -14.6875 7.578125 -14.6875 8.328125 -14.6875 L 10.234375 -14.6875 C 13.8125 -14.6875 15.421875 -11.71875 15.421875 -7.453125 C 15.421875 -1.53125 12.421875 -0.265625 10.5 -0.265625 C 8.625 -0.265625 5.359375 -1 3.828125 -3.578125 C 5.359375 -3.359375 6.71875 -4.3125 6.71875 -5.96875 C 6.71875 -7.53125 5.53125 -8.40625 4.265625 -8.40625 C 3.21875 -8.40625 1.828125 -7.796875 1.828125 -5.890625 C 1.828125 -1.921875 5.890625 0.953125 10.640625 0.953125 C 15.953125 0.953125 19.921875 -3 19.921875 -7.453125 C 19.921875 -11.03125 17.171875 -14.421875 12.640625 -15.34375 Z M 12.640625 -15.34375 "/>
</g>
</g>
<clipPath id="clip-0">
<path clip-rule="nonzero" d="M 0 7 L 386 7 L 386 503.992188 L 0 503.992188 Z M 0 7 "/>
</clipPath>
<clipPath id="clip-1">
<path clip-rule="nonzero" d="M 193 0.00390625 L 212 0.00390625 L 212 22 L 193 22 Z M 193 0.00390625 "/>
</clipPath>
</defs>
<g clip-path="url(#clip-0)">
<path fill-rule="nonzero" fill="rgb(100%, 100%, 100%)" fill-opacity="1" d="M 0 7.753906 L 385.929688 7.753906 L 385.929688 503.996094 L 0 503.996094 Z M 0 7.753906 "/>
</g>
<g fill="rgb(0%, 0%, 0%)" fill-opacity="1">
<use xlink:href="#glyph-0-0" x="165.934171" y="52.119613"/>
</g>
<g fill="rgb(0%, 0%, 0%)" fill-opacity="1">
<use xlink:href="#glyph-0-1" x="139.996769" y="83.681884"/>
</g>
<g fill="rgb(0%, 0%, 0%)" fill-opacity="1">
<use xlink:href="#glyph-0-2" x="191.870572" y="83.681884"/>
</g>
<g fill="rgb(0%, 0%, 0%)" fill-opacity="1">
<use xlink:href="#glyph-0-3" x="164.840196" y="83.681884"/>
<use xlink:href="#glyph-0-4" x="186.631635" y="83.681884"/>
</g>
<g clip-path="url(#clip-1)">
<g fill="rgb(0%, 0%, 0%)" fill-opacity="1">
<use xlink:href="#glyph-0-5" x="191.870572" y="20.558341"/>
</g>
</g>
<g fill="rgb(0%, 0%, 0%)" fill-opacity="1">
<use xlink:href="#glyph-0-6" x="217.807974" y="52.119613"/>
</g>
<g fill="rgb(0%, 0%, 0%)" fill-opacity="1">
<use xlink:href="#glyph-0-3" x="190.776597" y="52.119613"/>
<use xlink:href="#glyph-0-7" x="212.568037" y="52.119613"/>
</g>
<g fill="rgb(0%, 0%, 0%)" fill-opacity="1">
<use xlink:href="#glyph-0-0" x="242.6504" y="83.681884"/>
<use xlink:href="#glyph-0-3" x="264.44184" y="83.681884"/>
</g>
<g fill="rgb(0%, 0%, 0%)" fill-opacity="1">
<use xlink:href="#glyph-0-8" x="216.713999" y="83.681884"/>
<use xlink:href="#glyph-0-1" x="238.505438" y="83.681884"/>
</g>
<g fill="rgb(0%, 0%, 0%)" fill-opacity="1">
<use xlink:href="#glyph-0-9" x="114.060368" y="115.243156"/>
</g>
<g fill="rgb(0%, 0%, 0%)" fill-opacity="1">
<use xlink:href="#glyph-0-0" x="164.840196" y="115.243156"/>
<use xlink:href="#glyph-0-5" x="186.631635" y="115.243156"/>
</g>
<g fill="rgb(0%, 0%, 0%)" fill-opacity="1">
<use xlink:href="#glyph-0-3" x="138.902794" y="115.243156"/>
<use xlink:href="#glyph-0-3" x="160.694234" y="115.243156"/>
</g>
<g fill="rgb(0%, 0%, 0%)" fill-opacity="1">
<use xlink:href="#glyph-0-7" x="88.122966" y="146.805428"/>
</g>
<g fill="rgb(0%, 0%, 0%)" fill-opacity="1">
<use xlink:href="#glyph-0-0" x="138.902794" y="146.805428"/>
<use xlink:href="#glyph-0-0" x="160.694234" y="146.805428"/>
</g>
<g fill="rgb(0%, 0%, 0%)" fill-opacity="1">
<use xlink:href="#glyph-0-3" x="112.966393" y="146.805428"/>
<use xlink:href="#glyph-0-8" x="134.757832" y="146.805428"/>
</g>
<g fill="rgb(0%, 0%, 0%)" fill-opacity="1">
<use xlink:href="#glyph-0-8" x="164.840196" y="146.805428"/>
<use xlink:href="#glyph-0-7" x="186.631635" y="146.805428"/>
</g>
<g fill="rgb(0%, 0%, 0%)" fill-opacity="1">
<use xlink:href="#glyph-0-4" x="62.186065" y="178.366699"/>
</g>
<g fill="rgb(0%, 0%, 0%)" fill-opacity="1">
<use xlink:href="#glyph-0-0" x="164.840196" y="178.366699"/>
<use xlink:href="#glyph-0-2" x="186.631635" y="178.366699"/>
</g>
<g fill="rgb(0%, 0%, 0%)" fill-opacity="1">
<use xlink:href="#glyph-0-8" x="138.902794" y="178.366699"/>
<use xlink:href="#glyph-0-4" x="160.694234" y="178.366699"/>
</g>
<g fill="rgb(0%, 0%, 0%)" fill-opacity="1">
<use xlink:href="#glyph-0-0" x="87.029292" y="209.928971"/>
<use xlink:href="#glyph-0-9" x="108.820731" y="209.928971"/>
</g>
<g fill="rgb(0%, 0%, 0%)" fill-opacity="1">
<use xlink:href="#glyph-0-1" x="138.902794" y="209.928971"/>
<use xlink:href="#glyph-0-5" x="160.694234" y="209.928971"/>
</g>
<g fill="rgb(0%, 0%, 0%)" fill-opacity="1">
<use xlink:href="#glyph-0-0" x="61.09239" y="241.490243"/>
<use xlink:href="#glyph-0-7" x="82.883829" y="241.490243"/>
</g>
<g fill="rgb(0%, 0%, 0%)" fill-opacity="1">
<use xlink:href="#glyph-0-1" x="87.029292" y="273.052514"/>
<use xlink:href="#glyph-0-1" x="108.820731" y="273.052514"/>
</g>
<g fill="rgb(0%, 0%, 0%)" fill-opacity="1">
<use xlink:href="#glyph-0-8" x="61.09239" y="273.052514"/>
<use xlink:href="#glyph-0-6" x="82.883829" y="273.052514"/>
</g>
<g fill="rgb(0%, 0%, 0%)" fill-opacity="1">
<use xlink:href="#glyph-0-1" x="268.588802" y="115.243156"/>
<use xlink:href="#glyph-0-7" x="290.380241" y="115.243156"/>
</g>
<g fill="rgb(0%, 0%, 0%)" fill-opacity="1">
<use xlink:href="#glyph-0-6" x="242.6504" y="115.243156"/>
<use xlink:href="#glyph-0-5" x="264.44184" y="115.243156"/>
</g>
<g fill="rgb(0%, 0%, 0%)" fill-opacity="1">
<use xlink:href="#glyph-0-1" x="242.6504" y="146.805428"/>
<use xlink:href="#glyph-0-4" x="264.44184" y="146.805428"/>
</g>
<g fill="rgb(0%, 0%, 0%)" fill-opacity="1">
<use xlink:href="#glyph-0-6" x="190.776597" y="178.366699"/>
<use xlink:href="#glyph-0-1" x="212.568037" y="178.366699"/>
</g>
<g fill="rgb(0%, 0%, 0%)" fill-opacity="1">
<use xlink:href="#glyph-0-1" x="164.840196" y="241.490243"/>
<use xlink:href="#glyph-0-6" x="186.631635" y="241.490243"/>
</g>
<g fill="rgb(0%, 0%, 0%)" fill-opacity="1">
<use xlink:href="#glyph-0-6" x="138.902794" y="241.490243"/>
<use xlink:href="#glyph-0-7" x="160.694234" y="241.490243"/>
</g>
<g fill="rgb(0%, 0%, 0%)" fill-opacity="1">
<use xlink:href="#glyph-0-1" x="138.902794" y="273.052514"/>
<use xlink:href="#glyph-0-2" x="160.694234" y="273.052514"/>
</g>
<g fill="rgb(0%, 0%, 0%)" fill-opacity="1">
<use xlink:href="#glyph-0-6" x="112.966393" y="273.052514"/>
<use xlink:href="#glyph-0-4" x="134.757832" y="273.052514"/>
</g>
<g fill="rgb(0%, 0%, 0%)" fill-opacity="1">
<use xlink:href="#glyph-0-9" x="294.523203" y="146.805428"/>
<use xlink:href="#glyph-0-1" x="316.314642" y="146.805428"/>
</g>
<g fill="rgb(0%, 0%, 0%)" fill-opacity="1">
<use xlink:href="#glyph-0-6" x="268.588802" y="146.805428"/>
<use xlink:href="#glyph-0-6" x="290.380241" y="146.805428"/>
</g>
<g fill="rgb(0%, 0%, 0%)" fill-opacity="1">
<use xlink:href="#glyph-0-9" x="268.588802" y="178.366699"/>
<use xlink:href="#glyph-0-9" x="290.380241" y="178.366699"/>
</g>
<g fill="rgb(0%, 0%, 0%)" fill-opacity="1">
<use xlink:href="#glyph-0-6" x="242.6504" y="178.366699"/>
<use xlink:href="#glyph-0-2" x="264.44184" y="178.366699"/>
</g>
<g fill="rgb(0%, 0%, 0%)" fill-opacity="1">
<use xlink:href="#glyph-0-9" x="242.6504" y="209.928971"/>
<use xlink:href="#glyph-0-7" x="264.44184" y="209.928971"/>
</g>
<g fill="rgb(0%, 0%, 0%)" fill-opacity="1">
<use xlink:href="#glyph-0-2" x="216.713999" y="209.928971"/>
<use xlink:href="#glyph-0-5" x="238.505438" y="209.928971"/>
</g>
<g fill="rgb(0%, 0%, 0%)" fill-opacity="1">
<use xlink:href="#glyph-0-9" x="216.713999" y="241.490243"/>
<use xlink:href="#glyph-0-4" x="238.505438" y="241.490243"/>
</g>
<g fill="rgb(0%, 0%, 0%)" fill-opacity="1">
<use xlink:href="#glyph-0-2" x="268.588802" y="209.928971"/>
<use xlink:href="#glyph-0-8" x="290.380241" y="209.928971"/>
</g>
<g fill="rgb(0%, 0%, 0%)" fill-opacity="1">
<use xlink:href="#glyph-0-7" x="268.588802" y="241.490243"/>
<use xlink:href="#glyph-0-1" x="290.380241" y="241.490243"/>
</g>
<g fill="rgb(0%, 0%, 0%)" fill-opacity="1">
<use xlink:href="#glyph-0-7" x="242.6504" y="273.052514"/>
<use xlink:href="#glyph-0-9" x="264.44184" y="273.052514"/>
</g>
<g fill="rgb(0%, 0%, 0%)" fill-opacity="1">
<use xlink:href="#glyph-0-2" x="216.713999" y="273.052514"/>
<use xlink:href="#glyph-0-2" x="238.505438" y="273.052514"/>
</g>
<g fill="rgb(0%, 0%, 0%)" fill-opacity="1">
<use xlink:href="#glyph-0-7" x="216.713999" y="304.613786"/>
<use xlink:href="#glyph-0-7" x="238.505438" y="304.613786"/>
</g>
<g fill="rgb(0%, 0%, 0%)" fill-opacity="1">
<use xlink:href="#glyph-0-0" x="163.746221" y="336.176057"/>
<use xlink:href="#glyph-0-5" x="185.53766" y="336.176057"/>
<use xlink:href="#glyph-0-0" x="207.3291" y="336.176057"/>
</g>
<g fill="rgb(0%, 0%, 0%)" fill-opacity="1">
<use xlink:href="#glyph-0-7" x="346.397006" y="209.928971"/>
<use xlink:href="#glyph-0-6" x="368.188445" y="209.928971"/>
</g>
<g fill="rgb(0%, 0%, 0%)" fill-opacity="1">
<use xlink:href="#glyph-0-0" x="319.36763" y="209.928971"/>
<use xlink:href="#glyph-0-5" x="341.159069" y="209.928971"/>
<use xlink:href="#glyph-0-7" x="362.950508" y="209.928971"/>
</g>
<g fill="rgb(0%, 0%, 0%)" fill-opacity="1">
<use xlink:href="#glyph-0-7" x="320.462605" y="241.490243"/>
<use xlink:href="#glyph-0-2" x="342.254044" y="241.490243"/>
</g>
<g fill="rgb(0%, 0%, 0%)" fill-opacity="1">
<use xlink:href="#glyph-0-0" x="293.431228" y="241.490243"/>
<use xlink:href="#glyph-0-5" x="315.222668" y="241.490243"/>
<use xlink:href="#glyph-0-4" x="337.014107" y="241.490243"/>
</g>
<g fill="rgb(0%, 0%, 0%)" fill-opacity="1">
<use xlink:href="#glyph-0-4" x="294.523203" y="273.052514"/>
<use xlink:href="#glyph-0-5" x="316.314642" y="273.052514"/>
</g>
<g fill="rgb(0%, 0%, 0%)" fill-opacity="1">
<use xlink:href="#glyph-0-0" x="267.493827" y="273.052514"/>
<use xlink:href="#glyph-0-5" x="289.285266" y="273.052514"/>
<use xlink:href="#glyph-0-3" x="311.076705" y="273.052514"/>
</g>
<g fill="rgb(0%, 0%, 0%)" fill-opacity="1">
<use xlink:href="#glyph-0-4" x="268.588802" y="304.613786"/>
<use xlink:href="#glyph-0-0" x="290.380241" y="304.613786"/>
</g>
<g fill="rgb(0%, 0%, 0%)" fill-opacity="1">
<use xlink:href="#glyph-0-0" x="241.557425" y="304.613786"/>
<use xlink:href="#glyph-0-5" x="263.348865" y="304.613786"/>
<use xlink:href="#glyph-0-8" x="285.140304" y="304.613786"/>
</g>
<g fill="rgb(0%, 0%, 0%)" fill-opacity="1">
<use xlink:href="#glyph-0-4" x="242.6504" y="336.176057"/>
<use xlink:href="#glyph-0-1" x="264.44184" y="336.176057"/>
</g>
</svg>
