<?xml version="1.0" encoding="UTF-8"?>
<svg xmlns="http://www.w3.org/2000/svg" xmlns:xlink="http://www.w3.org/1999/xlink" width="386.188" height="496.5" viewBox="0 0 386.188 496.5">
<defs>
<clipPath id="clip-0">
<path clip-rule="nonzero" d="M 0 0.269531 L 385.378906 0.269531 L 385.378906 495.730469 L 0 495.730469 Z M 0 0.269531 "/>
</clipPath>
<clipPath id="clip-1">
<path clip-rule="nonzero" d="M 181 0.269531 L 204 0.269531 L 204 24 L 181 24 Z M 181 0.269531 "/>
</clipPath>
</defs>
<g clip-path="url(#clip-0)">
<path fill-rule="nonzero" fill="rgb(100%, 100%, 100%)" fill-opacity="1" d="M 0 0.519531 L 385.128906 0.519531 L 385.128906 495.730469 L 0 495.730469 Z M 0 0.519531 "/>
</g>
<path fill="none" stroke-width="2" stroke-linecap="butt" stroke-linejoin="round" stroke="rgb(0%, 0%, 0%)" stroke-opacity="1" stroke-miterlimit="10" d="M 177.188181 453.27837 C 177.188181 458.89171 172.639575 463.436402 167.030149 463.436402 C 161.420723 463.436402 156.876031 458.89171 156.876031 453.27837 C 156.876031 447.672858 161.420723 443.124252 167.030149 443.124252 C 172.639575 443.124252 177.188181 447.672858 177.188181 453.27837 Z M 177.188181 453.27837 " transform="matrix(0.997902, 0, 0, -0.997902, -0.000000000000002498, 495.729649)"/>
<path fill="none" stroke-width="2" stroke-linecap="butt" stroke-linejoin="round" stroke="rgb(0%, 0%, 0%)" stroke-opacity="1" stroke-miterlimit="10" d="M 151.250947 421.719966 C 151.250947 427.325478 146.702341 431.874084 141.092915 431.874084 C 135.483489 431.874084 130.938797 427.325478 130.938797 421.719966 C 130.938797 416.110541 135.483489 411.561934 141.092915 411.561934 C 146.702341 411.561934 151.250947 416.110541 151.250947 421.719966 Z M 151.250947 421.719966 " transform="matrix(0.997902, 0, 0, -0.997902, -0.000000000000002498, 495.729649)"/>
<path fill="none" stroke-width="2" stroke-linecap="butt" stroke-linejoin="round" stroke="rgb(0%, 0%, 0%)" stroke-opacity="1" stroke-miterlimit="10" d="M 203.125415 421.719966 C 203.125415 427.325478 198.576808 431.874084 192.967382 431.874084 C 187.357957 431.874084 182.813265 427.325478 182.813265 421.719966 C 182.813265 416.110541 187.357957 411.561934 192.967382 411.561934 C 198.576808 411.561934 203.125415 416.110541 203.125415 421.719966 Z M 203.125415 421.719966 " transform="matrix(0.997902, 0, 0, -0.997902, -0.000000000000002498, 495.729649)"/>
<g clip-path="url(#clip-1)">
<path fill="none" stroke-width="2" stroke-linecap="butt" stroke-linejoin="round" stroke="rgb(0%, 0%, 0%)" stroke-opacity="1" stroke-miterlimit="10" d="M 203.125415 484.844602 C 203.125415 490.450113 198.576808 494.998719 192.967382 494.998719 C 187.357957 494.998719 182.813265 490.450113 182.813265 484.844602 C 182.813265 479.235176 187.357957 474.686569 192.967382 474.686569 C 198.576808 474.686569 203.125415 479.235176 203.125415 484.844602 Z M 203.125415 484.844602 " transform="matrix(0.997902, 0, 0, -0.997902, -0.000000000000002498, 495.729649)"/>
</g>
<path fill="none" stroke-width="2" stroke-linecap="butt" stroke-linejoin="round" stroke="rgb(0%, 0%, 0%)" stroke-opacity="1" stroke-miterlimit="10" d="M 229.062648 453.27837 C 229.062648 458.89171 224.517957 463.436402 218.904616 463.436402 C 213.29519 463.436402 208.750498 458.89171 208.750498 453.27837 C 208.750498 447.672858 213.29519 443.124252 218.904616 443.124252 C 224.517957 443.124252 229.062648 447.672858 229.062648 453.27837 Z M 229.062648 453.27837 " transform="matrix(0.997902, 0, 0, -0.997902, -0.000000000000002498, 495.729649)"/>
<path fill="none" stroke-width="2" stroke-linecap="butt" stroke-linejoin="round" stroke="rgb(0%, 0%, 0%)" stroke-opacity="1" stroke-miterlimit="10" d="M 254.999882 421.719966 C 254.999882 427.325478 250.451276 431.874084 244.845764 431.874084 C 239.232424 431.874084 234.687732 427.325478 234.687732 421.719966 C 234.687732 416.110541 239.232424 411.561934 244.845764 411.561934 C 250.451276 411.561934 254.999882 416.110541 254.999882 421.719966 Z M 254.999882 421.719966 " transform="matrix(0.997902, 0, 0, -0.997902, -0.000000000000002498, 495.729649)"/>
<path fill="none" stroke-width="2" stroke-linecap="butt" stroke-linejoin="round" stroke="rgb(0%, 0%, 0%)" stroke-opacity="1" stroke-miterlimit="10" d="M 125.313713 390.153734 C 125.313713 395.76316 120.765107 400.311767 115.155681 400.311767 C 109.546255 400.311767 105.001563 395.76316 105.001563 390.153734 C 105.001563 384.548223 109.546255 379.999617 115.155681 379.999617 C 120.765107 379.999617 125.313713 384.548223 125.313713 390.153734 Z M 125.313713 390.153734 " transform="matrix(0.997902, 0, 0, -0.997902, -0.000000000000002498, 495.729649)"/>
<path fill="none" stroke-width="2" stroke-linecap="butt" stroke-linejoin="round" stroke="rgb(0%, 0%, 0%)" stroke-opacity="1" stroke-miterlimit="10" d="M 177.188181 390.153734 C 177.188181 395.76316 172.639575 400.311767 167.030149 400.311767 C 161.420723 400.311767 156.876031 395.76316 156.876031 390.153734 C 156.876031 384.548223 161.420723 379.999617 167.030149 379.999617 C 172.639575 379.999617 177.188181 384.548223 177.188181 390.153734 Z M 177.188181 390.153734 " transform="matrix(0.997902, 0, 0, -0.997902, -0.000000000000002498, 495.729649)"/>
<path fill="none" stroke-width="2" stroke-linecap="butt" stroke-linejoin="round" stroke="rgb(0%, 0%, 0%)" stroke-opacity="1" stroke-miterlimit="10" d="M 229.062648 390.153734 C 229.062648 395.76316 224.517957 400.311767 218.904616 400.311767 C 213.29519 400.311767 208.750498 395.76316 208.750498 390.153734 C 208.750498 384.548223 213.29519 379.999617 218.904616 379.999617 C 224.517957 379.999617 229.062648 384.548223 229.062648 390.153734 Z M 229.062648 390.153734 " transform="matrix(0.997902, 0, 0, -0.997902, -0.000000000000002498, 495.729649)"/>
<path fill="none" stroke-width="2" stroke-linecap="butt" stroke-linejoin="round" stroke="rgb(0%, 0%, 0%)" stroke-opacity="1" stroke-miterlimit="10" d="M 99.37648 358.595331 C 99.37648 364.200843 94.827873 368.749449 89.218447 368.749449 C 83.609021 368.749449 79.06433 364.200843 79.06433 358.595331 C 79.06433 352.985906 83.609021 348.437299 89.218447 348.437299 C 94.827873 348.437299 99.37648 352.985906 99.37648 358.595331 Z M 99.37648 358.595331 " transform="matrix(0.997902, 0, 0, -0.997902, -0.000000000000002498, 495.729649)"/>
<path fill="none" stroke-width="2" stroke-linecap="butt" stroke-linejoin="round" stroke="rgb(0%, 0%, 0%)" stroke-opacity="1" stroke-miterlimit="10" d="M 151.250947 358.595331 C 151.250947 364.200843 146.702341 368.749449 141.092915 368.749449 C 135.483489 368.749449 130.938797 364.200843 130.938797 358.595331 C 130.938797 352.985906 135.483489 348.437299 141.092915 348.437299 C 146.702341 348.437299 151.250947 352.985906 151.250947 358.595331 Z M 151.250947 358.595331 " transform="matrix(0.997902, 0, 0, -0.997902, -0.000000000000002498, 495.729649)"/>
<path fill="none" stroke-width="2" stroke-linecap="butt" stroke-linejoin="round" stroke="rgb(0%, 0%, 0%)" stroke-opacity="1" stroke-miterlimit="10" d="M 203.125415 358.595331 C 203.125415 364.200843 198.576808 368.749449 192.967382 368.749449 C 187.357957 368.749449 182.813265 364.200843 182.813265 358.595331 C 182.813265 352.985906 187.357957 348.437299 192.967382 348.437299 C 198.576808 348.437299 203.125415 352.985906 203.125415 358.595331 Z M 203.125415 358.595331 " transform="matrix(0.997902, 0, 0, -0.997902, -0.000000000000002498, 495.729649)"/>
<path fill="none" stroke-width="2" stroke-linecap="butt" stroke-linejoin="round" stroke="rgb(0%, 0%, 0%)" stroke-opacity="1" stroke-miterlimit="10" d="M 73.439246 327.029099 C 73.439246 332.638525 68.890639 337.187132 63.281214 337.187132 C 57.671788 337.187132 53.123181 332.638525 53.123181 327.029099 C 53.123181 321.423588 57.671788 316.874982 63.281214 316.874982 C 68.890639 316.874982 73.439246 321.423588 73.439246 327.029099 Z M 73.439246 327.029099 " transform="matrix(0.997902, 0, 0, -0.997902, -0.000000000000002498, 495.729649)"/>
<path fill="none" stroke-width="2" stroke-linecap="butt" stroke-linejoin="round" stroke="rgb(0%, 0%, 0%)" stroke-opacity="1" stroke-miterlimit="10" d="M 125.313713 327.029099 C 125.313713 332.638525 120.765107 337.187132 115.155681 337.187132 C 109.546255 337.187132 105.001563 332.638525 105.001563 327.029099 C 105.001563 321.423588 109.546255 316.874982 115.155681 316.874982 C 120.765107 316.874982 125.313713 321.423588 125.313713 327.029099 Z M 125.313713 327.029099 " transform="matrix(0.997902, 0, 0, -0.997902, -0.000000000000002498, 495.729649)"/>
<path fill="none" stroke-width="2" stroke-linecap="butt" stroke-linejoin="round" stroke="rgb(0%, 0%, 0%)" stroke-opacity="1" stroke-miterlimit="10" d="M 177.188181 327.029099 C 177.188181 332.638525 172.639575 337.187132 167.030149 337.187132 C 161.420723 337.187132 156.876031 332.638525 156.876031 327.029099 C 156.876031 321.423588 161.420723 316.874982 167.030149 316.874982 C 172.639575 316.874982 177.188181 321.423588 177.188181 327.029099 Z M 177.188181 327.029099 " transform="matrix(0.997902, 0, 0, -0.997902, -0.000000000000002498, 495.729649)"/>
<path fill="none" stroke-width="2" stroke-linecap="butt" stroke-linejoin="round" stroke="rgb(0%, 0%, 0%)" stroke-opacity="1" stroke-miterlimit="10" d="M 47.498098 295.470696 C 47.498098 301.076208 42.953406 305.624814 37.34398 305.624814 C 31.734554 305.624814 27.185948 301.076208 27.185948 295.470696 C 27.185948 289.86127 31.734554 285.312664 37.34398 285.312664 C 42.953406 285.312664 47.498098 289.86127 47.498098 295.470696 Z M 47.498098 295.470696 " transform="matrix(0.997902, 0, 0, -0.997902, -0.000000000000002498, 495.729649)"/>
<path fill="none" stroke-width="2" stroke-linecap="butt" stroke-linejoin="round" stroke="rgb(0%, 0%, 0%)" stroke-opacity="1" stroke-miterlimit="10" d="M 99.37648 295.470696 C 99.37648 301.076208 94.827873 305.624814 89.218447 305.624814 C 83.609021 305.624814 79.06433 301.076208 79.06433 295.470696 C 79.06433 289.86127 83.609021 285.312664 89.218447 285.312664 C 94.827873 285.312664 99.37648 289.86127 99.37648 295.470696 Z M 99.37648 295.470696 " transform="matrix(0.997902, 0, 0, -0.997902, -0.000000000000002498, 495.729649)"/>
<path fill="none" stroke-width="2" stroke-linecap="butt" stroke-linejoin="round" stroke="rgb(0%, 0%, 0%)" stroke-opacity="1" stroke-miterlimit="10" d="M 151.250947 295.470696 C 151.250947 301.076208 146.702341 305.624814 141.092915 305.624814 C 135.483489 305.624814 130.938797 301.076208 130.938797 295.470696 C 130.938797 289.86127 135.483489 285.312664 141.092915 285.312664 C 146.702341 285.312664 151.250947 289.86127 151.250947 295.470696 Z M 151.250947 295.470696 " transform="matrix(0.997902, 0, 0, -0.997902, -0.000000000000002498, 495.729649)"/>
<path fill="none" stroke-width="2" stroke-linecap="butt" stroke-linejoin="round" stroke="rgb(0%, 0%, 0%)" stroke-opacity="1" stroke-miterlimit="10" d="M 21.560864 263.904464 C 21.560864 269.51389 17.016172 274.062497 11.406746 274.062497 C 5.79732 274.062497 1.248714 269.51389 1.248714 263.904464 C 1.248714 258.298953 5.79732 253.750347 11.406746 253.750347 C 17.016172 253.750347 21.560864 258.298953 21.560864 263.904464 Z M 21.560864 263.904464 " transform="matrix(0.997902, 0, 0, -0.997902, -0.000000000000002498, 495.729649)"/>
<path fill="none" stroke-width="2" stroke-linecap="butt" stroke-linejoin="round" stroke="rgb(0%, 0%, 0%)" stroke-opacity="1" stroke-miterlimit="10" d="M 73.439246 263.904464 C 73.439246 269.51389 68.890639 274.062497 63.281214 274.062497 C 57.671788 274.062497 53.123181 269.51389 53.123181 263.904464 C 53.123181 258.298953 57.671788 253.750347 63.281214 253.750347 C 68.890639 253.750347 73.439246 258.298953 73.439246 263.904464 Z M 73.439246 263.904464 " transform="matrix(0.997902, 0, 0, -0.997902, -0.000000000000002498, 495.729649)"/>
<path fill="none" stroke-width="2" stroke-linecap="butt" stroke-linejoin="round" stroke="rgb(0%, 0%, 0%)" stroke-opacity="1" stroke-miterlimit="10" d="M 125.313713 263.904464 C 125.313713 269.51389 120.765107 274.062497 115.155681 274.062497 C 109.546255 274.062497 105.001563 269.51389 105.001563 263.904464 C 105.001563 258.298953 109.546255 253.750347 115.155681 253.750347 C 120.765107 253.750347 125.313713 258.298953 125.313713 263.904464 Z M 125.313713 263.904464 " transform="matrix(0.997902, 0, 0, -0.997902, -0.000000000000002498, 495.729649)"/>
<path fill="none" stroke-width="2" stroke-linecap="butt" stroke-linejoin="round" stroke="rgb(0%, 0%, 0%)" stroke-opacity="1" stroke-miterlimit="10" d="M 47.498098 232.342147 C 47.498098 237.951573 42.953406 242.500179 37.34398 242.500179 C 31.734554 242.500179 27.185948 237.951573 27.185948 232.342147 C 27.185948 226.732721 31.734554 222.188029 37.34398 222.188029 C 42.953406 222.188029 47.498098 226.732721 47.498098 232.342147 Z M 47.498098 232.342147 " transform="matrix(0.997902, 0, 0, -0.997902, -0.000000000000002498, 495.729649)"/>
<path fill="none" stroke-width="2" stroke-linecap="butt" stroke-linejoin="round" stroke="rgb(0%, 0%, 0%)" stroke-opacity="1" stroke-miterlimit="10" d="M 99.37648 232.342147 C 99.37648 237.951573 94.827873 242.500179 89.218447 242.500179 C 83.609021 242.500179 79.06433 237.951573 79.06433 232.342147 C 79.06433 226.732721 83.609021 222.188029 89.218447 222.188029 C 94.827873 222.188029 99.37648 226.732721 99.37648 232.342147 Z M 99.37648 232.342147 " transform="matrix(0.997902, 0, 0, -0.997902, -0.000000000000002498, 495.729649)"/>
<path fill="none" stroke-width="2" stroke-linecap="butt" stroke-linejoin="round" stroke="rgb(0%, 0%, 0%)" stroke-opacity="1" stroke-miterlimit="10" d="M 73.439246 200.779829 C 73.439246 206.389255 68.890639 210.937862 63.281214 210.937862 C 57.671788 210.937862 53.123181 206.389255 53.123181 200.779829 C 53.123181 195.170403 57.671788 190.625712 63.281214 190.625712 C 68.890639 190.625712 73.439246 195.170403 73.439246 200.779829 Z M 73.439246 200.779829 " transform="matrix(0.997902, 0, 0, -0.997902, -0.000000000000002498, 495.729649)"/>
<path fill="none" stroke-width="2" stroke-linecap="butt" stroke-linejoin="round" stroke="rgb(0%, 0%, 0%)" stroke-opacity="1" stroke-miterlimit="10" d="M 280.937116 390.153734 C 280.937116 395.76316 276.38851 400.311767 270.779084 400.311767 C 265.173572 400.311767 260.624966 395.76316 260.624966 390.153734 C 260.624966 384.548223 265.173572 379.999617 270.779084 379.999617 C 276.38851 379.999617 280.937116 384.548223 280.937116 390.153734 Z M 280.937116 390.153734 " transform="matrix(0.997902, 0, 0, -0.997902, -0.000000000000002498, 495.729649)"/>
<path fill="none" stroke-width="2" stroke-linecap="butt" stroke-linejoin="round" stroke="rgb(0%, 0%, 0%)" stroke-opacity="1" stroke-miterlimit="10" d="M 254.999882 358.595331 C 254.999882 364.200843 250.451276 368.749449 244.845764 368.749449 C 239.232424 368.749449 234.687732 364.200843 234.687732 358.595331 C 234.687732 352.985906 239.232424 348.437299 244.845764 348.437299 C 250.451276 348.437299 254.999882 352.985906 254.999882 358.595331 Z M 254.999882 358.595331 " transform="matrix(0.997902, 0, 0, -0.997902, -0.000000000000002498, 495.729649)"/>
<path fill="none" stroke-width="2" stroke-linecap="butt" stroke-linejoin="round" stroke="rgb(0%, 0%, 0%)" stroke-opacity="1" stroke-miterlimit="10" d="M 229.062648 327.029099 C 229.062648 332.638525 224.517957 337.187132 218.904616 337.187132 C 213.29519 337.187132 208.750498 332.638525 208.750498 327.029099 C 208.750498 321.423588 213.29519 316.874982 218.904616 316.874982 C 224.517957 316.874982 229.062648 321.423588 229.062648 327.029099 Z M 229.062648 327.029099 " transform="matrix(0.997902, 0, 0, -0.997902, -0.000000000000002498, 495.729649)"/>
<path fill="none" stroke-width="2" stroke-linecap="butt" stroke-linejoin="round" stroke="rgb(0%, 0%, 0%)" stroke-opacity="1" stroke-miterlimit="10" d="M 203.125415 295.470696 C 203.125415 301.076208 198.576808 305.624814 192.967382 305.624814 C 187.357957 305.624814 182.813265 301.076208 182.813265 295.470696 C 182.813265 289.86127 187.357957 285.312664 192.967382 285.312664 C 198.576808 285.312664 203.125415 289.86127 203.125415 295.470696 Z M 203.125415 295.470696 " transform="matrix(0.997902, 0, 0, -0.997902, -0.000000000000002498, 495.729649)"/>
<path fill="none" stroke-width="2" stroke-linecap="butt" stroke-linejoin="round" stroke="rgb(0%, 0%, 0%)" stroke-opacity="1" stroke-miterlimit="10" d="M 177.188181 263.904464 C 177.188181 269.51389 172.639575 274.062497 167.030149 274.062497 C 161.420723 274.062497 156.876031 269.51389 156.876031 263.904464 C 156.876031 258.298953 161.420723 253.750347 167.030149 253.750347 C 172.639575 253.750347 177.188181 258.298953 177.188181 263.904464 Z M 177.188181 263.904464 " transform="matrix(0.997902, 0, 0, -0.997902, -0.000000000000002498, 495.729649)"/>
<path fill="none" stroke-width="2" stroke-linecap="butt" stroke-linejoin="round" stroke="rgb(0%, 0%, 0%)" stroke-opacity="1" stroke-miterlimit="10" d="M 151.250947 232.342147 C 151.250947 237.951573 146.702341 242.500179 141.092915 242.500179 C 135.483489 242.500179 130.938797 237.951573 130.938797 232.342147 C 130.938797 226.732721 135.483489 222.188029 141.092915 222.188029 C 146.702341 222.188029 151.250947 226.732721 151.250947 232.342147 Z M 151.250947 232.342147 " transform="matrix(0.997902, 0, 0, -0.997902, -0.000000000000002498, 495.729649)"/>
<path fill="none" stroke-width="2" stroke-linecap="butt" stroke-linejoin="round" stroke="rgb(0%, 0%, 0%)" stroke-opacity="1" stroke-miterlimit="10" d="M 125.313713 200.779829 C 125.313713 206.389255 120.765107 210.937862 115.155681 210.937862 C 109.546255 210.937862 105.001563 206.389255 105.001563 200.779829 C 105.001563 195.170403 109.546255 190.625712 115.155681 190.625712 C 120.765107 190.625712 125.313713 195.170403 125.313713 200.779829 Z M 125.313713 200.779829 " transform="matrix(0.997902, 0, 0, -0.997902, -0.000000000000002498, 495.729649)"/>
<path fill="none" stroke-width="2" stroke-linecap="butt" stroke-linejoin="round" stroke="rgb(0%, 0%, 0%)" stroke-opacity="1" stroke-miterlimit="10" d="M 99.37648 169.217512 C 99.37648 174.826938 94.827873 179.375544 89.218447 179.375544 C 83.609021 179.375544 79.06433 174.826938 79.06433 169.217512 C 79.06433 163.608086 83.609021 159.063394 89.218447 159.063394 C 94.827873 159.063394 99.37648 163.608086 99.37648 169.217512 Z M 99.37648 169.217512 " transform="matrix(0.997902, 0, 0, -0.997902, -0.000000000000002498, 495.729649)"/>
<path fill="none" stroke-width="2" stroke-linecap="butt" stroke-linejoin="round" stroke="rgb(0%, 0%, 0%)" stroke-opacity="1" stroke-miterlimit="10" d="M 306.87435 358.595331 C 306.87435 364.200843 302.325743 368.749449 296.720232 368.749449 C 291.110806 368.749449 286.5622 364.200843 286.5622 358.595331 C 286.5622 352.985906 291.110806 348.437299 296.720232 348.437299 C 302.325743 348.437299 306.87435 352.985906 306.87435 358.595331 Z M 306.87435 358.595331 " transform="matrix(0.997902, 0, 0, -0.997902, -0.000000000000002498, 495.729649)"/>
<path fill="none" stroke-width="2" stroke-linecap="butt" stroke-linejoin="round" stroke="rgb(0%, 0%, 0%)" stroke-opacity="1" stroke-miterlimit="10" d="M 280.937116 327.029099 C 280.937116 332.638525 276.38851 337.187132 270.779084 337.187132 C 265.173572 337.187132 260.624966 332.638525 260.624966 327.029099 C 260.624966 321.423588 265.173572 316.874982 270.779084 316.874982 C 276.38851 316.874982 280.937116 321.423588 280.937116 327.029099 Z M 280.937116 327.029099 " transform="matrix(0.997902, 0, 0, -0.997902, -0.000000000000002498, 495.729649)"/>
<path fill="none" stroke-width="2" stroke-linecap="butt" stroke-linejoin="round" stroke="rgb(0%, 0%, 0%)" stroke-opacity="1" stroke-miterlimit="10" d="M 254.999882 295.470696 C 254.999882 301.076208 250.451276 305.624814 244.845764 305.624814 C 239.232424 305.624814 234.687732 301.076208 234.687732 295.470696 C 234.687732 289.86127 239.232424 285.312664 244.845764 285.312664 C 250.451276 285.312664 254.999882 289.86127 254.999882 295.470696 Z M 254.999882 295.470696 " transform="matrix(0.997902, 0, 0, -0.997902, -0.000000000000002498, 495.729649)"/>
<path fill="none" stroke-width="2" stroke-linecap="butt" stroke-linejoin="round" stroke="rgb(0%, 0%, 0%)" stroke-opacity="1" stroke-miterlimit="10" d="M 229.062648 263.904464 C 229.062648 269.51389 224.517957 274.062497 218.904616 274.062497 C 213.29519 274.062497 208.750498 269.51389 208.750498 263.904464 C 208.750498 258.298953 213.29519 253.750347 218.904616 253.750347 C 224.517957 253.750347 229.062648 258.298953 229.062648 263.904464 Z M 229.062648 263.904464 " transform="matrix(0.997902, 0, 0, -0.997902, -0.000000000000002498, 495.729649)"/>
<path fill="none" stroke-width="2" stroke-linecap="butt" stroke-linejoin="round" stroke="rgb(0%, 0%, 0%)" stroke-opacity="1" stroke-miterlimit="10" d="M 203.125415 232.342147 C 203.125415 237.951573 198.576808 242.500179 192.967382 242.500179 C 187.357957 242.500179 182.813265 237.951573 182.813265 232.342147 C 182.813265 226.732721 187.357957 222.188029 192.967382 222.188029 C 198.576808 222.188029 203.125415 226.732721 203.125415 232.342147 Z M 203.125415 232.342147 " transform="matrix(0.997902, 0, 0, -0.997902, -0.000000000000002498, 495.729649)"/>
<path fill="none" stroke-width="2" stroke-linecap="butt" stroke-linejoin="round" stroke="rgb(0%, 0%, 0%)" stroke-opacity="1" stroke-miterlimit="10" d="M 177.188181 200.779829 C 177.188181 206.389255 172.639575 210.937862 167.030149 210.937862 C 161.420723 210.937862 156.876031 206.389255 156.876031 200.779829 C 156.876031 195.170403 161.420723 190.625712 167.030149 190.625712 C 172.639575 190.625712 177.188181 195.170403 177.188181 200.779829 Z M 177.188181 200.779829 " transform="matrix(0.997902, 0, 0, -0.997902, -0.000000000000002498, 495.729649)"/>
<path fill="none" stroke-width="2" stroke-linecap="butt" stroke-linejoin="round" stroke="rgb(0%, 0%, 0%)" stroke-opacity="1" stroke-miterlimit="10" d="M 151.250947 169.217512 C 151.250947 174.826938 146.702341 179.375544 141.092915 179.375544 C 135.483489 179.375544 130.938797 174.826938 130.938797 169.217512 C 130.938797 163.608086 135.483489 159.063394 141.092915 159.063394 C 146.702341 159.063394 151.250947 163.608086 151.250947 169.217512 Z M 151.250947 169.217512 " transform="matrix(0.997902, 0, 0, -0.997902, -0.000000000000002498, 495.729649)"/>
<path fill="none" stroke-width="2" stroke-linecap="butt" stroke-linejoin="round" stroke="rgb(0%, 0%, 0%)" stroke-opacity="1" stroke-miterlimit="10" d="M 125.313713 137.655194 C 125.313713 143.26462 120.765107 147.813226 115.155681 147.813226 C 109.546255 147.813226 105.001563 143.26462 105.001563 137.655194 C 105.001563 132.045768 109.546255 127.501076 115.155681 127.501076 C 120.765107 127.501076 125.313713 132.045768 125.313713 137.655194 Z M 125.313713 137.655194 " transform="matrix(0.997902, 0, 0, -0.997902, -0.000000000000002498, 495.729649)"/>
<path fill="none" stroke-width="2" stroke-linecap="butt" stroke-linejoin="round" stroke="rgb(0%, 0%, 0%)" stroke-opacity="1" stroke-miterlimit="10" d="M 332.811584 327.029099 C 332.811584 332.638525 328.266892 337.187132 322.653551 337.187132 C 317.04804 337.187132 312.499434 332.638525 312.499434 327.029099 C 312.499434 321.423588 317.04804 316.874982 322.653551 316.874982 C 328.266892 316.874982 332.811584 321.423588 332.811584 327.029099 Z M 332.811584 327.029099 " transform="matrix(0.997902, 0, 0, -0.997902, -0.000000000000002498, 495.729649)"/>
<path fill="none" stroke-width="2" stroke-linecap="butt" stroke-linejoin="round" stroke="rgb(0%, 0%, 0%)" stroke-opacity="1" stroke-miterlimit="10" d="M 306.87435 295.470696 C 306.87435 301.076208 302.325743 305.624814 296.720232 305.624814 C 291.110806 305.624814 286.5622 301.076208 286.5622 295.470696 C 286.5622 289.86127 291.110806 285.312664 296.720232 285.312664 C 302.325743 285.312664 306.87435 289.86127 306.87435 295.470696 Z M 306.87435 295.470696 " transform="matrix(0.997902, 0, 0, -0.997902, -0.000000000000002498, 495.729649)"/>
<path fill="none" stroke-width="2" stroke-linecap="butt" stroke-linejoin="round" stroke="rgb(0%, 0%, 0%)" stroke-opacity="1" stroke-miterlimit="10" d="M 280.937116 263.904464 C 280.937116 269.51389 276.38851 274.062497 270.779084 274.062497 C 265.173572 274.062497 260.624966 269.51389 260.624966 263.904464 C 260.624966 258.298953 265.173572 253.750347 270.779084 253.750347 C 276.38851 253.750347 280.937116 258.298953 280.937116 263.904464 Z M 280.937116 263.904464 " transform="matrix(0.997902, 0, 0, -0.997902, -0.000000000000002498, 495.729649)"/>
<path fill="none" stroke-width="2" stroke-linecap="butt" stroke-linejoin="round" stroke="rgb(0%, 0%, 0%)" stroke-opacity="1" stroke-miterlimit="10" d="M 254.999882 232.342147 C 254.999882 237.951573 250.451276 242.500179 244.845764 242.500179 C 239.232424 242.500179 234.687732 237.951573 234.687732 232.342147 C 234.687732 226.732721 239.232424 222.188029 244.845764 222.188029 C 250.451276 222.188029 254.999882 226.732721 254.999882 232.342147 Z M 254.999882 232.342147 " transform="matrix(0.997902, 0, 0, -0.997902, -0.000000000000002498, 495.729649)"/>
<path fill="none" stroke-width="2" stroke-linecap="butt" stroke-linejoin="round" stroke="rgb(0%, 0%, 0%)" stroke-opacity="1" stroke-miterlimit="10" d="M 229.062648 200.779829 C 229.062648 206.389255 224.517957 210.937862 218.904616 210.937862 C 213.29519 210.937862 208.750498 206.389255 208.750498 200.779829 C 208.750498 195.170403 213.29519 190.625712 218.904616 190.625712 C 224.517957 190.625712 229.062648 195.170403 229.062648 200.779829 Z M 229.062648 200.779829 " transform="matrix(0.997902, 0, 0, -0.997902, -0.000000000000002498, 495.729649)"/>
<path fill="none" stroke-width="2" stroke-linecap="butt" stroke-linejoin="round" stroke="rgb(0%, 0%, 0%)" stroke-opacity="1" stroke-miterlimit="10" d="M 203.125415 169.217512 C 203.125415 174.826938 198.576808 179.375544 192.967382 179.375544 C 187.357957 179.375544 182.813265 174.826938 182.813265 169.217512 C 182.813265 163.608086 187.357957 159.063394 192.967382 159.063394 C 198.576808 159.063394 203.125415 163.608086 203.125415 169.217512 Z M 203.125415 169.217512 " transform="matrix(0.997902, 0, 0, -0.997902, -0.000000000000002498, 495.729649)"/>
<path fill="none" stroke-width="2" stroke-linecap="butt" stroke-linejoin="round" stroke="rgb(0%, 0%, 0%)" stroke-opacity="1" stroke-miterlimit="10" d="M 177.188181 137.655194 C 177.188181 143.26462 172.639575 147.813226 167.030149 147.813226 C 161.420723 147.813226 156.876031 143.26462 156.876031 137.655194 C 156.876031 132.045768 161.420723 127.501076 167.030149 127.501076 C 172.639575 127.501076 177.188181 132.045768 177.188181 137.655194 Z M 177.188181 137.655194 " transform="matrix(0.997902, 0, 0, -0.997902, -0.000000000000002498, 495.729649)"/>
<path fill="none" stroke-width="2" stroke-linecap="butt" stroke-linejoin="round" stroke="rgb(0%, 0%, 0%)" stroke-opacity="1" stroke-miterlimit="10" d="M 151.250947 106.092877 C 151.250947 111.702303 146.702341 116.250909 141.092915 116.250909 C 135.483489 116.250909 130.938797 111.702303 130.938797 106.092877 C 130.938797 100.483451 135.483489 95.938759 141.092915 95.938759 C 146.702341 95.938759 151.250947 100.483451 151.250947 106.092877 Z M 151.250947 106.092877 " transform="matrix(0.997902, 0, 0, -0.997902, -0.000000000000002498, 495.729649)"/>
<path fill="none" stroke-width="2" stroke-linecap="butt" stroke-linejoin="round" stroke="rgb(0%, 0%, 0%)" stroke-opacity="1" stroke-miterlimit="10" d="M 358.748817 295.470696 C 358.748817 301.076208 354.200211 305.624814 348.5947 305.624814 C 342.985274 305.624814 338.436667 301.076208 338.436667 295.470696 C 338.436667 289.86127 342.985274 285.312664 348.5947 285.312664 C 354.200211 285.312664 358.748817 289.86127 358.748817 295.470696 Z M 358.748817 295.470696 " transform="matrix(0.997902, 0, 0, -0.997902, -0.000000000000002498, 495.729649)"/>
<path fill="none" stroke-width="2" stroke-linecap="butt" stroke-linejoin="round" stroke="rgb(0%, 0%, 0%)" stroke-opacity="1" stroke-miterlimit="10" d="M 332.811584 263.904464 C 332.811584 269.51389 328.266892 274.062497 322.653551 274.062497 C 317.04804 274.062497 312.499434 269.51389 312.499434 263.904464 C 312.499434 258.298953 317.04804 253.750347 322.653551 253.750347 C 328.266892 253.750347 332.811584 258.298953 332.811584 263.904464 Z M 332.811584 263.904464 " transform="matrix(0.997902, 0, 0, -0.997902, -0.000000000000002498, 495.729649)"/>
<path fill="none" stroke-width="2" stroke-linecap="butt" stroke-linejoin="round" stroke="rgb(0%, 0%, 0%)" stroke-opacity="1" stroke-miterlimit="10" d="M 306.87435 232.342147 C 306.87435 237.951573 302.325743 242.500179 296.720232 242.500179 C 291.110806 242.500179 286.5622 237.951573 286.5622 232.342147 C 286.5622 226.732721 291.110806 222.188029 296.720232 222.188029 C 302.325743 222.188029 306.87435 226.732721 306.87435 232.342147 Z M 306.87435 232.342147 " transform="matrix(0.997902, 0, 0, -0.997902, -0.000000000000002498, 495.729649)"/>
<path fill="none" stroke-width="2" stroke-linecap="butt" stroke-linejoin="round" stroke="rgb(0%, 0%, 0%)" stroke-opacity="1" stroke-miterlimit="10" d="M 280.937116 200.779829 C 280.937116 206.389255 276.38851 210.937862 270.779084 210.937862 C 265.173572 210.937862 260.624966 206.389255 260.624966 200.779829 C 260.624966 195.170403 265.173572 190.625712 270.779084 190.625712 C 276.38851 190.625712 280.937116 195.170403 280.937116 200.779829 Z M 280.937116 200.779829 " transform="matrix(0.997902, 0, 0, -0.997902, -0.000000000000002498, 495.729649)"/>
<path fill="none" stroke-width="2" stroke-linecap="butt" stroke-linejoin="round" stroke="rgb(0%, 0%, 0%)" stroke-opacity="1" stroke-miterlimit="10" d="M 254.999882 169.217512 C 254.999882 174.826938 250.451276 179.375544 244.845764 179.375544 C 239.232424 179.375544 234.687732 174.826938 234.687732 169.217512 C 234.687732 163.608086 239.232424 159.063394 244.845764 159.063394 C 250.451276 159.063394 254.999882 163.608086 254.999882 169.217512 Z M 254.999882 169.217512 " transform="matrix(0.997902, 0, 0, -0.997902, -0.000000000000002498, 495.729649)"/>
<path fill="none" stroke-width="2" stroke-linecap="butt" stroke-linejoin="round" stroke="rgb(0%, 0%, 0%)" stroke-opacity="1" stroke-miterlimit="10" d="M 229.062648 137.655194 C 229.062648 143.26462 224.517957 147.813226 218.904616 147.813226 C 213.29519 147.813226 208.750498 143.26462 208.750498 137.655194 C 208.750498 132.045768 213.29519 127.501076 218.904616 127.501076 C 224.517957 127.501076 229.062648 132.045768 229.062648 137.655194 Z M 229.062648 137.655194 " transform="matrix(0.997902, 0, 0, -0.997902, -0.000000000000002498, 495.729649)"/>
<path fill="none" stroke-width="2" stroke-linecap="butt" stroke-linejoin="round" stroke="rgb(0%, 0%, 0%)" stroke-opacity="1" stroke-miterlimit="10" d="M 203.125415 106.092877 C 203.125415 111.702303 198.576808 116.250909 192.967382 116.250909 C 187.357957 116.250909 182.813265 111.702303 182.813265 106.092877 C 182.813265 100.483451 187.357957 95.938759 192.967382 95.938759 C 198.576808 95.938759 203.125415 100.483451 203.125415 106.092877 Z M 203.125415 106.092877 " transform="matrix(0.997902, 0, 0, -0.997902, -0.000000000000002498, 495.729649)"/>
<path fill="none" stroke-width="2" stroke-linecap="butt" stroke-linejoin="round" stroke="rgb(0%, 0%, 0%)" stroke-opacity="1" stroke-miterlimit="10" d="M 177.188181 74.530559 C 177.188181 80.139985 172.639575 84.688591 167.030149 84.688591 C 161.420723 84.688591 156.876031 80.139985 156.876031 74.530559 C 156.876031 68.921133 161.420723 64.376441 167.030149 64.376441 C 172.639575 64.376441 177.188181 68.921133 177.188181 74.530559 Z M 177.188181 74.530559 " transform="matrix(0.997902, 0, 0, -0.997902, -0.000000000000002498, 495.729649)"/>
<path fill="none" stroke-width="2" stroke-linecap="butt" stroke-linejoin="round" stroke="rgb(0%, 0%, 0%)" stroke-opacity="1" stroke-miterlimit="10" d="M 384.686051 263.904464 C 384.686051 269.51389 380.141359 274.062497 374.531933 274.062497 C 368.922507 274.062497 364.373901 269.51389 364.373901 263.904464 C 364.373901 258.298953 368.922507 253.750347 374.531933 253.750347 C 380.141359 253.750347 384.686051 258.298953 384.686051 263.904464 Z M 384.686051 263.904464 " transform="matrix(0.997902, 0, 0, -0.997902, -0.000000000000002498, 495.729649)"/>
<path fill="none" stroke-width="2" stroke-linecap="butt" stroke-linejoin="round" stroke="rgb(0%, 0%, 0%)" stroke-opacity="1" stroke-miterlimit="10" d="M 358.748817 232.342147 C 358.748817 237.951573 354.200211 242.500179 348.5947 242.500179 C 342.985274 242.500179 338.436667 237.951573 338.436667 232.342147 C 338.436667 226.732721 342.985274 222.188029 348.5947 222.188029 C 354.200211 222.188029 358.748817 226.732721 358.748817 232.342147 Z M 358.748817 232.342147 " transform="matrix(0.997902, 0, 0, -0.997902, -0.000000000000002498, 495.729649)"/>
<path fill="none" stroke-width="2" stroke-linecap="butt" stroke-linejoin="round" stroke="rgb(0%, 0%, 0%)" stroke-opacity="1" stroke-miterlimit="10" d="M 332.811584 200.779829 C 332.811584 206.389255 328.266892 210.937862 322.653551 210.937862 C 317.04804 210.937862 312.499434 206.389255 312.499434 200.779829 C 312.499434 195.170403 317.04804 190.625712 322.653551 190.625712 C 328.266892 190.625712 332.811584 195.170403 332.811584 200.779829 Z M 332.811584 200.779829 " transform="matrix(0.997902, 0, 0, -0.997902, -0.000000000000002498, 495.729649)"/>
<path fill="none" stroke-width="2" stroke-linecap="butt" stroke-linejoin="round" stroke="rgb(0%, 0%, 0%)" stroke-opacity="1" stroke-miterlimit="10" d="M 306.87435 169.217512 C 306.87435 174.826938 302.325743 179.375544 296.720232 179.375544 C 291.110806 179.375544 286.5622 174.826938 286.5622 169.217512 C 286.5622 163.608086 291.110806 159.063394 296.720232 159.063394 C 302.325743 159.063394 306.87435 163.608086 306.87435 169.217512 Z M 306.87435 169.217512 " transform="matrix(0.997902, 0, 0, -0.997902, -0.000000000000002498, 495.729649)"/>
<path fill="none" stroke-width="2" stroke-linecap="butt" stroke-linejoin="round" stroke="rgb(0%, 0%, 0%)" stroke-opacity="1" stroke-miterlimit="10" d="M 280.937116 137.655194 C 280.937116 143.26462 276.38851 147.813226 270.779084 147.813226 C 265.173572 147.813226 260.624966 143.26462 260.624966 137.655194 C 260.624966 132.045768 265.173572 127.501076 270.779084 127.501076 C 276.38851 127.501076 280.937116 132.045768 280.937116 137.655194 Z M 280.937116 137.655194 " transform="matrix(0.997902, 0, 0, -0.997902, -0.000000000000002498, 495.729649)"/>
<path fill="none" stroke-width="2" stroke-linecap="butt" stroke-linejoin="round" stroke="rgb(0%, 0%, 0%)" stroke-opacity="1" stroke-miterlimit="10" d="M 254.999882 106.092877 C 254.999882 111.702303 250.451276 116.250909 244.845764 116.250909 C 239.232424 116.250909 234.687732 111.702303 234.687732 106.092877 C 234.687732 100.483451 239.232424 95.938759 244.845764 95.938759 C 250.451276 95.938759 254.999882 100.483451 254.999882 106.092877 Z M 254.999882 106.092877 " transform="matrix(0.997902, 0, 0, -0.997902, -0.000000000000002498, 495.729649)"/>
<path fill="none" stroke-width="2" stroke-linecap="butt" stroke-linejoin="round" stroke="rgb(0%, 0%, 0%)" stroke-opacity="1" stroke-miterlimit="10" d="M 229.062648 74.530559 C 229.062648 80.139985 224.517957 84.688591 218.904616 84.688591 C 213.29519 84.688591 208.750498 80.139985 208.750498 74.530559 C 208.750498 68.921133 213.29519 64.376441 218.904616 64.376441 C 224.517957 64.376441 229.062648 68.921133 229.062648 74.530559 Z M 229.062648 74.530559 " transform="matrix(0.997902, 0, 0, -0.997902, -0.000000000000002498, 495.729649)"/>
<path fill="none" stroke-width="2" stroke-linecap="butt" stroke-linejoin="round" stroke="rgb(0%, 0%, 0%)" stroke-opacity="1" stroke-miterlimit="10" d="M 203.125415 42.968242 C 203.125415 48.577668 198.576808 53.126274 192.967382 53.126274 C 187.357957 53.126274 182.813265 48.577668 182.813265 42.968242 C 182.813265 37.358816 187.357957 32.814124 192.967382 32.814124 C 198.576808 32.814124 203.125415 37.358816 203.125415 42.968242 Z M 203.125415 42.968242 " transform="matrix(0.997902, 0, 0, -0.997902, -0.000000000000002498, 495.729649)"/>
</svg>
