<?xml version="1.0" encoding="UTF-8"?>
<svg xmlns="http://www.w3.org/2000/svg" xmlns:xlink="http://www.w3.org/1999/xlink" width="386.188" height="496.5" viewBox="0 0 386.188 496.5">
<defs>
<clipPath id="clip-0">
<path clip-rule="nonzero" d="M 0 0.269531 L 385.378906 0.269531 L 385.378906 495.730469 L 0 495.730469 Z M 0 0.269531 "/>
</clipPath>
<clipPath id="clip-1">
<path clip-rule="nonzero" d="M 181 0.269531 L 204 0.269531 L 204 24 L 181 24 Z M 181 0.269531 "/>
</clipPath>
</defs>
<g clip-path="url(#clip-0)">
<path fill-rule="nonzero" fill="rgb(100%, 100%, 100%)" fill-opacity="1" d="M 0 0.519531 L 385.128906 0.519531 L 385.128906 495.730469 L 0 495.730469 Z M 0 0.519531 "/>
</g>
<path fill="none" stroke-width="2" stroke-linecap="butt" stroke-linejoin="round" stroke="rgb(0%, 0%, 100%)" stroke-opacity="1" stroke-miterlimit="10" d="M 160.618258 445.320266 C 156.62942 440.564193 151.513216 434.461544 147.520464 429.697643 " transform="matrix(0.997902, 0, 0, -0.997902, -0.000000000000002498, 495.729649)"/>
<path fill="none" stroke-width="2" stroke-linecap="butt" stroke-linejoin="round" stroke="rgb(0%, 0%, 100%)" stroke-opacity="1" stroke-miterlimit="10" d="M 173.44204 445.320266 C 177.434792 440.564193 182.547081 434.461544 186.539834 429.697643 " transform="matrix(0.997902, 0, 0, -0.997902, -0.000000000000002498, 495.729649)"/>
<path fill="none" stroke-width="2" stroke-linecap="butt" stroke-linejoin="round" stroke="rgb(0%, 0%, 100%)" stroke-opacity="1" stroke-miterlimit="10" d="M 186.559406 476.886498 C 182.566653 472.12651 177.45045 466.023862 173.457697 461.25996 " transform="matrix(0.997902, 0, 0, -0.997902, -0.000000000000002498, 495.729649)"/>
<path fill="none" stroke-width="2" stroke-linecap="butt" stroke-linejoin="round" stroke="rgb(0%, 0%, 100%)" stroke-opacity="1" stroke-miterlimit="10" d="M 199.379273 476.886498 C 203.372026 472.12651 208.484315 466.023862 212.477068 461.25996 " transform="matrix(0.997902, 0, 0, -0.997902, -0.000000000000002498, 495.729649)"/>
<path fill="none" stroke-width="2" stroke-linecap="butt" stroke-linejoin="round" stroke="rgb(0%, 0%, 100%)" stroke-opacity="1" stroke-miterlimit="10" d="M 212.49664 445.320266 C 208.503887 440.564193 203.391598 434.461544 199.398846 429.697643 " transform="matrix(0.997902, 0, 0, -0.997902, -0.000000000000002498, 495.729649)"/>
<path fill="none" stroke-width="2" stroke-linecap="butt" stroke-linejoin="round" stroke="rgb(0%, 0%, 100%)" stroke-opacity="1" stroke-miterlimit="10" d="M 225.316507 445.320266 C 229.30926 440.564193 234.421549 434.461544 238.414301 429.697643 " transform="matrix(0.997902, 0, 0, -0.997902, -0.000000000000002498, 495.729649)"/>
<path fill="none" stroke-width="2" stroke-linecap="butt" stroke-linejoin="round" stroke="rgb(0%, 0%, 100%)" stroke-opacity="1" stroke-miterlimit="10" d="M 134.684939 413.761863 C 130.692186 409.001875 125.575982 402.899227 121.58323 398.135325 " transform="matrix(0.997902, 0, 0, -0.997902, -0.000000000000002498, 495.729649)"/>
<path fill="none" stroke-width="2" stroke-linecap="butt" stroke-linejoin="round" stroke="rgb(0%, 0%, 100%)" stroke-opacity="1" stroke-miterlimit="10" d="M 147.504806 413.761863 C 151.497558 409.001875 156.609847 402.899227 160.6026 398.135325 " transform="matrix(0.997902, 0, 0, -0.997902, -0.000000000000002498, 495.729649)"/>
<path fill="none" stroke-width="2" stroke-linecap="butt" stroke-linejoin="round" stroke="rgb(0%, 0%, 100%)" stroke-opacity="1" stroke-miterlimit="10" d="M 186.559406 413.761863 C 182.566653 409.001875 177.45045 402.899227 173.457697 398.135325 " transform="matrix(0.997902, 0, 0, -0.997902, -0.000000000000002498, 495.729649)"/>
<path fill="none" stroke-width="2" stroke-linecap="butt" stroke-linejoin="round" stroke="rgb(0%, 0%, 100%)" stroke-opacity="1" stroke-miterlimit="10" d="M 199.379273 413.761863 C 203.372026 409.001875 208.484315 402.899227 212.477068 398.135325 " transform="matrix(0.997902, 0, 0, -0.997902, -0.000000000000002498, 495.729649)"/>
<path fill="none" stroke-width="2" stroke-linecap="butt" stroke-linejoin="round" stroke="rgb(0%, 0%, 100%)" stroke-opacity="1" stroke-miterlimit="10" d="M 108.74379 382.195631 C 104.754952 377.439558 99.638749 371.336909 95.645996 366.573008 " transform="matrix(0.997902, 0, 0, -0.997902, -0.000000000000002498, 495.729649)"/>
<path fill="none" stroke-width="2" stroke-linecap="butt" stroke-linejoin="round" stroke="rgb(0%, 0%, 100%)" stroke-opacity="1" stroke-miterlimit="10" d="M 121.567572 382.195631 C 125.55641 377.439558 130.672614 371.336909 134.665366 366.573008 " transform="matrix(0.997902, 0, 0, -0.997902, -0.000000000000002498, 495.729649)"/>
<path fill="none" stroke-width="2" stroke-linecap="butt" stroke-linejoin="round" stroke="rgb(0%, 0%, 100%)" stroke-opacity="1" stroke-miterlimit="10" d="M 160.618258 382.195631 C 156.62942 377.439558 151.513216 371.336909 147.520464 366.573008 " transform="matrix(0.997902, 0, 0, -0.997902, -0.000000000000002498, 495.729649)"/>
<path fill="none" stroke-width="2" stroke-linecap="butt" stroke-linejoin="round" stroke="rgb(0%, 0%, 100%)" stroke-opacity="1" stroke-miterlimit="10" d="M 173.44204 382.195631 C 177.434792 377.439558 182.547081 371.336909 186.539834 366.573008 " transform="matrix(0.997902, 0, 0, -0.997902, -0.000000000000002498, 495.729649)"/>
<path fill="none" stroke-width="2" stroke-linecap="butt" stroke-linejoin="round" stroke="rgb(0%, 0%, 100%)" stroke-opacity="1" stroke-miterlimit="10" d="M 82.806556 350.633313 C 78.817718 345.873326 73.701515 339.774592 69.708762 335.01069 " transform="matrix(0.997902, 0, 0, -0.997902, -0.000000000000002498, 495.729649)"/>
<path fill="none" stroke-width="2" stroke-linecap="butt" stroke-linejoin="round" stroke="rgb(0%, 0%, 100%)" stroke-opacity="1" stroke-miterlimit="10" d="M 95.630338 350.633313 C 99.619176 345.873326 104.73538 339.774592 108.728132 335.01069 " transform="matrix(0.997902, 0, 0, -0.997902, -0.000000000000002498, 495.729649)"/>
<path fill="none" stroke-width="2" stroke-linecap="butt" stroke-linejoin="round" stroke="rgb(0%, 0%, 100%)" stroke-opacity="1" stroke-miterlimit="10" d="M 134.684939 350.633313 C 130.692186 345.873326 125.575982 339.774592 121.58323 335.01069 " transform="matrix(0.997902, 0, 0, -0.997902, -0.000000000000002498, 495.729649)"/>
<path fill="none" stroke-width="2" stroke-linecap="butt" stroke-linejoin="round" stroke="rgb(0%, 0%, 100%)" stroke-opacity="1" stroke-miterlimit="10" d="M 147.504806 350.633313 C 151.497558 345.873326 156.609847 339.774592 160.6026 335.01069 " transform="matrix(0.997902, 0, 0, -0.997902, -0.000000000000002498, 495.729649)"/>
<path fill="none" stroke-width="2" stroke-linecap="butt" stroke-linejoin="round" stroke="rgb(0%, 0%, 100%)" stroke-opacity="1" stroke-miterlimit="10" d="M 56.869323 319.070996 C 52.880485 314.314923 47.764281 308.20836 43.771529 303.448373 " transform="matrix(0.997902, 0, 0, -0.997902, -0.000000000000002498, 495.729649)"/>
<path fill="none" stroke-width="2" stroke-linecap="butt" stroke-linejoin="round" stroke="rgb(0%, 0%, 100%)" stroke-opacity="1" stroke-miterlimit="10" d="M 69.693104 319.070996 C 73.681943 314.314923 78.798146 308.20836 82.790899 303.448373 " transform="matrix(0.997902, 0, 0, -0.997902, -0.000000000000002498, 495.729649)"/>
<path fill="none" stroke-width="2" stroke-linecap="butt" stroke-linejoin="round" stroke="rgb(0%, 0%, 100%)" stroke-opacity="1" stroke-miterlimit="10" d="M 108.74379 319.070996 C 104.754952 314.314923 99.638749 308.20836 95.645996 303.448373 " transform="matrix(0.997902, 0, 0, -0.997902, -0.000000000000002498, 495.729649)"/>
<path fill="none" stroke-width="2" stroke-linecap="butt" stroke-linejoin="round" stroke="rgb(0%, 0%, 100%)" stroke-opacity="1" stroke-miterlimit="10" d="M 121.567572 319.070996 C 125.55641 314.314923 130.672614 308.20836 134.665366 303.448373 " transform="matrix(0.997902, 0, 0, -0.997902, -0.000000000000002498, 495.729649)"/>
<path fill="none" stroke-width="2" stroke-linecap="butt" stroke-linejoin="round" stroke="rgb(0%, 0%, 100%)" stroke-opacity="1" stroke-miterlimit="10" d="M 30.932089 287.508678 C 26.943251 282.748691 21.827047 276.646042 17.834295 271.886055 " transform="matrix(0.997902, 0, 0, -0.997902, -0.000000000000002498, 495.729649)"/>
<path fill="none" stroke-width="2" stroke-linecap="butt" stroke-linejoin="round" stroke="rgb(0%, 0%, 100%)" stroke-opacity="1" stroke-miterlimit="10" d="M 43.755871 287.508678 C 47.744709 282.748691 52.860912 276.646042 56.853665 271.886055 " transform="matrix(0.997902, 0, 0, -0.997902, -0.000000000000002498, 495.729649)"/>
<path fill="none" stroke-width="2" stroke-linecap="butt" stroke-linejoin="round" stroke="rgb(0%, 0%, 100%)" stroke-opacity="1" stroke-miterlimit="10" d="M 82.806556 287.508678 C 78.817718 282.748691 73.701515 276.646042 69.708762 271.886055 " transform="matrix(0.997902, 0, 0, -0.997902, -0.000000000000002498, 495.729649)"/>
<path fill="none" stroke-width="2" stroke-linecap="butt" stroke-linejoin="round" stroke="rgb(0%, 0%, 100%)" stroke-opacity="1" stroke-miterlimit="10" d="M 95.630338 287.508678 C 99.619176 282.748691 104.73538 276.646042 108.728132 271.886055 " transform="matrix(0.997902, 0, 0, -0.997902, -0.000000000000002498, 495.729649)"/>
<path fill="none" stroke-width="2" stroke-linecap="butt" stroke-linejoin="round" stroke="rgb(0%, 0%, 100%)" stroke-opacity="1" stroke-miterlimit="10" d="M 17.818637 255.94636 C 21.807475 251.186373 26.923679 245.087639 30.916431 240.323737 " transform="matrix(0.997902, 0, 0, -0.997902, -0.000000000000002498, 495.729649)"/>
<path fill="none" stroke-width="2" stroke-linecap="butt" stroke-linejoin="round" stroke="rgb(0%, 0%, 100%)" stroke-opacity="1" stroke-miterlimit="10" d="M 56.869323 255.94636 C 52.880485 251.186373 47.764281 245.087639 43.771529 240.323737 " transform="matrix(0.997902, 0, 0, -0.997902, -0.000000000000002498, 495.729649)"/>
<path fill="none" stroke-width="2" stroke-linecap="butt" stroke-linejoin="round" stroke="rgb(0%, 0%, 100%)" stroke-opacity="1" stroke-miterlimit="10" d="M 69.693104 255.94636 C 73.681943 251.186373 78.798146 245.087639 82.790899 240.323737 " transform="matrix(0.997902, 0, 0, -0.997902, -0.000000000000002498, 495.729649)"/>
<path fill="none" stroke-width="2" stroke-linecap="butt" stroke-linejoin="round" stroke="rgb(0%, 0%, 100%)" stroke-opacity="1" stroke-miterlimit="10" d="M 43.755871 224.384043 C 47.744709 219.624056 52.860912 213.525322 56.853665 208.76142 " transform="matrix(0.997902, 0, 0, -0.997902, -0.000000000000002498, 495.729649)"/>
<path fill="none" stroke-width="2" stroke-linecap="butt" stroke-linejoin="round" stroke="rgb(0%, 0%, 100%)" stroke-opacity="1" stroke-miterlimit="10" d="M 238.433874 413.761863 C 234.441121 409.001875 229.328832 402.899227 225.332165 398.135325 " transform="matrix(0.997902, 0, 0, -0.997902, -0.000000000000002498, 495.729649)"/>
<path fill="none" stroke-width="2" stroke-linecap="butt" stroke-linejoin="round" stroke="rgb(0%, 0%, 100%)" stroke-opacity="1" stroke-miterlimit="10" d="M 251.253741 413.761863 C 255.246493 409.001875 260.358783 402.899227 264.351535 398.135325 " transform="matrix(0.997902, 0, 0, -0.997902, -0.000000000000002498, 495.729649)"/>
<path fill="none" stroke-width="2" stroke-linecap="butt" stroke-linejoin="round" stroke="rgb(0%, 0%, 100%)" stroke-opacity="1" stroke-miterlimit="10" d="M 212.49664 382.195631 C 208.503887 377.439558 203.391598 371.336909 199.398846 366.573008 " transform="matrix(0.997902, 0, 0, -0.997902, -0.000000000000002498, 495.729649)"/>
<path fill="none" stroke-width="2" stroke-linecap="butt" stroke-linejoin="round" stroke="rgb(0%, 0%, 100%)" stroke-opacity="1" stroke-miterlimit="10" d="M 225.316507 382.195631 C 229.30926 377.439558 234.421549 371.336909 238.414301 366.573008 " transform="matrix(0.997902, 0, 0, -0.997902, -0.000000000000002498, 495.729649)"/>
<path fill="none" stroke-width="2" stroke-linecap="butt" stroke-linejoin="round" stroke="rgb(0%, 0%, 100%)" stroke-opacity="1" stroke-miterlimit="10" d="M 186.559406 350.633313 C 182.566653 345.873326 177.45045 339.774592 173.457697 335.01069 " transform="matrix(0.997902, 0, 0, -0.997902, -0.000000000000002498, 495.729649)"/>
<path fill="none" stroke-width="2" stroke-linecap="butt" stroke-linejoin="round" stroke="rgb(0%, 0%, 100%)" stroke-opacity="1" stroke-miterlimit="10" d="M 199.379273 350.633313 C 203.372026 345.873326 208.484315 339.774592 212.477068 335.01069 " transform="matrix(0.997902, 0, 0, -0.997902, -0.000000000000002498, 495.729649)"/>
<path fill="none" stroke-width="2" stroke-linecap="butt" stroke-linejoin="round" stroke="rgb(0%, 0%, 100%)" stroke-opacity="1" stroke-miterlimit="10" d="M 160.618258 319.070996 C 156.62942 314.314923 151.513216 308.20836 147.520464 303.448373 " transform="matrix(0.997902, 0, 0, -0.997902, -0.000000000000002498, 495.729649)"/>
<path fill="none" stroke-width="2" stroke-linecap="butt" stroke-linejoin="round" stroke="rgb(0%, 0%, 100%)" stroke-opacity="1" stroke-miterlimit="10" d="M 173.44204 319.070996 C 177.434792 314.314923 182.547081 308.20836 186.539834 303.448373 " transform="matrix(0.997902, 0, 0, -0.997902, -0.000000000000002498, 495.729649)"/>
<path fill="none" stroke-width="2" stroke-linecap="butt" stroke-linejoin="round" stroke="rgb(0%, 0%, 100%)" stroke-opacity="1" stroke-miterlimit="10" d="M 134.684939 287.508678 C 130.692186 282.748691 125.575982 276.646042 121.58323 271.886055 " transform="matrix(0.997902, 0, 0, -0.997902, -0.000000000000002498, 495.729649)"/>
<path fill="none" stroke-width="2" stroke-linecap="butt" stroke-linejoin="round" stroke="rgb(0%, 0%, 100%)" stroke-opacity="1" stroke-miterlimit="10" d="M 147.504806 287.508678 C 151.497558 282.748691 156.609847 276.646042 160.6026 271.886055 " transform="matrix(0.997902, 0, 0, -0.997902, -0.000000000000002498, 495.729649)"/>
<path fill="none" stroke-width="2" stroke-linecap="butt" stroke-linejoin="round" stroke="rgb(0%, 0%, 100%)" stroke-opacity="1" stroke-miterlimit="10" d="M 108.74379 255.94636 C 104.754952 251.186373 99.638749 245.087639 95.645996 240.323737 " transform="matrix(0.997902, 0, 0, -0.997902, -0.000000000000002498, 495.729649)"/>
<path fill="none" stroke-width="2" stroke-linecap="butt" stroke-linejoin="round" stroke="rgb(0%, 0%, 100%)" stroke-opacity="1" stroke-miterlimit="10" d="M 121.567572 255.94636 C 125.55641 251.186373 130.672614 245.087639 134.665366 240.323737 " transform="matrix(0.997902, 0, 0, -0.997902, -0.000000000000002498, 495.729649)"/>
<path fill="none" stroke-width="2" stroke-linecap="butt" stroke-linejoin="round" stroke="rgb(0%, 0%, 100%)" stroke-opacity="1" stroke-miterlimit="10" d="M 82.806556 224.384043 C 78.817718 219.624056 73.701515 213.525322 69.708762 208.76142 " transform="matrix(0.997902, 0, 0, -0.997902, -0.000000000000002498, 495.729649)"/>
<path fill="none" stroke-width="2" stroke-linecap="butt" stroke-linejoin="round" stroke="rgb(0%, 0%, 100%)" stroke-opacity="1" stroke-miterlimit="10" d="M 95.630338 224.384043 C 99.619176 219.624056 104.73538 213.525322 108.728132 208.76142 " transform="matrix(0.997902, 0, 0, -0.997902, -0.000000000000002498, 495.729649)"/>
<path fill="none" stroke-width="2" stroke-linecap="butt" stroke-linejoin="round" stroke="rgb(0%, 0%, 100%)" stroke-opacity="1" stroke-miterlimit="10" d="M 69.693104 192.821725 C 73.681943 188.061738 78.798146 181.95909 82.790899 177.199102 " transform="matrix(0.997902, 0, 0, -0.997902, -0.000000000000002498, 495.729649)"/>
<path fill="none" stroke-width="2" stroke-linecap="butt" stroke-linejoin="round" stroke="rgb(0%, 0%, 100%)" stroke-opacity="1" stroke-miterlimit="10" d="M 264.371107 382.195631 C 260.378355 377.439558 255.266066 371.336909 251.273313 366.573008 " transform="matrix(0.997902, 0, 0, -0.997902, -0.000000000000002498, 495.729649)"/>
<path fill="none" stroke-width="2" stroke-linecap="butt" stroke-linejoin="round" stroke="rgb(0%, 0%, 100%)" stroke-opacity="1" stroke-miterlimit="10" d="M 277.190975 382.195631 C 281.183727 377.439558 286.299931 371.336909 290.288769 366.573008 " transform="matrix(0.997902, 0, 0, -0.997902, -0.000000000000002498, 495.729649)"/>
<path fill="none" stroke-width="2" stroke-linecap="butt" stroke-linejoin="round" stroke="rgb(0%, 0%, 100%)" stroke-opacity="1" stroke-miterlimit="10" d="M 238.433874 350.633313 C 234.441121 345.873326 229.328832 339.774592 225.332165 335.01069 " transform="matrix(0.997902, 0, 0, -0.997902, -0.000000000000002498, 495.729649)"/>
<path fill="none" stroke-width="2" stroke-linecap="butt" stroke-linejoin="round" stroke="rgb(0%, 0%, 100%)" stroke-opacity="1" stroke-miterlimit="10" d="M 251.253741 350.633313 C 255.246493 345.873326 260.358783 339.774592 264.351535 335.01069 " transform="matrix(0.997902, 0, 0, -0.997902, -0.000000000000002498, 495.729649)"/>
<path fill="none" stroke-width="2" stroke-linecap="butt" stroke-linejoin="round" stroke="rgb(0%, 0%, 100%)" stroke-opacity="1" stroke-miterlimit="10" d="M 212.49664 319.070996 C 208.503887 314.314923 203.391598 308.20836 199.398846 303.448373 " transform="matrix(0.997902, 0, 0, -0.997902, -0.000000000000002498, 495.729649)"/>
<path fill="none" stroke-width="2" stroke-linecap="butt" stroke-linejoin="round" stroke="rgb(0%, 0%, 100%)" stroke-opacity="1" stroke-miterlimit="10" d="M 225.316507 319.070996 C 229.30926 314.314923 234.421549 308.20836 238.414301 303.448373 " transform="matrix(0.997902, 0, 0, -0.997902, -0.000000000000002498, 495.729649)"/>
<path fill="none" stroke-width="2" stroke-linecap="butt" stroke-linejoin="round" stroke="rgb(0%, 0%, 100%)" stroke-opacity="1" stroke-miterlimit="10" d="M 186.559406 287.508678 C 182.566653 282.748691 177.45045 276.646042 173.457697 271.886055 " transform="matrix(0.997902, 0, 0, -0.997902, -0.000000000000002498, 495.729649)"/>
<path fill="none" stroke-width="2" stroke-linecap="butt" stroke-linejoin="round" stroke="rgb(0%, 0%, 100%)" stroke-opacity="1" stroke-miterlimit="10" d="M 199.379273 287.508678 C 203.372026 282.748691 208.484315 276.646042 212.477068 271.886055 " transform="matrix(0.997902, 0, 0, -0.997902, -0.000000000000002498, 495.729649)"/>
<path fill="none" stroke-width="2" stroke-linecap="butt" stroke-linejoin="round" stroke="rgb(0%, 0%, 100%)" stroke-opacity="1" stroke-miterlimit="10" d="M 160.618258 255.94636 C 156.62942 251.186373 151.513216 245.087639 147.520464 240.323737 " transform="matrix(0.997902, 0, 0, -0.997902, -0.000000000000002498, 495.729649)"/>
<path fill="none" stroke-width="2" stroke-linecap="butt" stroke-linejoin="round" stroke="rgb(0%, 0%, 100%)" stroke-opacity="1" stroke-miterlimit="10" d="M 173.44204 255.94636 C 177.434792 251.186373 182.547081 245.087639 186.539834 240.323737 " transform="matrix(0.997902, 0, 0, -0.997902, -0.000000000000002498, 495.729649)"/>
<path fill="none" stroke-width="2" stroke-linecap="butt" stroke-linejoin="round" stroke="rgb(0%, 0%, 100%)" stroke-opacity="1" stroke-miterlimit="10" d="M 134.684939 224.384043 C 130.692186 219.624056 125.575982 213.525322 121.58323 208.76142 " transform="matrix(0.997902, 0, 0, -0.997902, -0.000000000000002498, 495.729649)"/>
<path fill="none" stroke-width="2" stroke-linecap="butt" stroke-linejoin="round" stroke="rgb(0%, 0%, 100%)" stroke-opacity="1" stroke-miterlimit="10" d="M 147.504806 224.384043 C 151.497558 219.624056 156.609847 213.525322 160.6026 208.76142 " transform="matrix(0.997902, 0, 0, -0.997902, -0.000000000000002498, 495.729649)"/>
<path fill="none" stroke-width="2" stroke-linecap="butt" stroke-linejoin="round" stroke="rgb(0%, 0%, 100%)" stroke-opacity="1" stroke-miterlimit="10" d="M 108.74379 192.821725 C 104.754952 188.061738 99.638749 181.95909 95.645996 177.199102 " transform="matrix(0.997902, 0, 0, -0.997902, -0.000000000000002498, 495.729649)"/>
<path fill="none" stroke-width="2" stroke-linecap="butt" stroke-linejoin="round" stroke="rgb(0%, 0%, 100%)" stroke-opacity="1" stroke-miterlimit="10" d="M 121.567572 192.821725 C 125.55641 188.061738 130.672614 181.95909 134.665366 177.199102 " transform="matrix(0.997902, 0, 0, -0.997902, -0.000000000000002498, 495.729649)"/>
<path fill="none" stroke-width="2" stroke-linecap="butt" stroke-linejoin="round" stroke="rgb(0%, 0%, 100%)" stroke-opacity="1" stroke-miterlimit="10" d="M 95.630338 161.259408 C 99.619176 156.499421 104.73538 150.400687 108.728132 145.636785 " transform="matrix(0.997902, 0, 0, -0.997902, -0.000000000000002498, 495.729649)"/>
<path fill="none" stroke-width="2" stroke-linecap="butt" stroke-linejoin="round" stroke="rgb(0%, 0%, 100%)" stroke-opacity="1" stroke-miterlimit="10" d="M 290.308341 350.633313 C 286.315589 345.873326 281.2033 339.774592 277.210547 335.01069 " transform="matrix(0.997902, 0, 0, -0.997902, -0.000000000000002498, 495.729649)"/>
<path fill="none" stroke-width="2" stroke-linecap="butt" stroke-linejoin="round" stroke="rgb(0%, 0%, 100%)" stroke-opacity="1" stroke-miterlimit="10" d="M 303.128208 350.633313 C 307.120961 345.873326 312.23325 339.774592 316.229917 335.01069 " transform="matrix(0.997902, 0, 0, -0.997902, -0.000000000000002498, 495.729649)"/>
<path fill="none" stroke-width="2" stroke-linecap="butt" stroke-linejoin="round" stroke="rgb(0%, 0%, 100%)" stroke-opacity="1" stroke-miterlimit="10" d="M 264.371107 319.070996 C 260.378355 314.314923 255.266066 308.20836 251.273313 303.448373 " transform="matrix(0.997902, 0, 0, -0.997902, -0.000000000000002498, 495.729649)"/>
<path fill="none" stroke-width="2" stroke-linecap="butt" stroke-linejoin="round" stroke="rgb(0%, 0%, 100%)" stroke-opacity="1" stroke-miterlimit="10" d="M 277.190975 319.070996 C 281.183727 314.314923 286.299931 308.20836 290.288769 303.448373 " transform="matrix(0.997902, 0, 0, -0.997902, -0.000000000000002498, 495.729649)"/>
<path fill="none" stroke-width="2" stroke-linecap="butt" stroke-linejoin="round" stroke="rgb(0%, 0%, 100%)" stroke-opacity="1" stroke-miterlimit="10" d="M 238.433874 287.508678 C 234.441121 282.748691 229.328832 276.646042 225.332165 271.886055 " transform="matrix(0.997902, 0, 0, -0.997902, -0.000000000000002498, 495.729649)"/>
<path fill="none" stroke-width="2" stroke-linecap="butt" stroke-linejoin="round" stroke="rgb(0%, 0%, 100%)" stroke-opacity="1" stroke-miterlimit="10" d="M 251.253741 287.508678 C 255.246493 282.748691 260.358783 276.646042 264.351535 271.886055 " transform="matrix(0.997902, 0, 0, -0.997902, -0.000000000000002498, 495.729649)"/>
<path fill="none" stroke-width="2" stroke-linecap="butt" stroke-linejoin="round" stroke="rgb(0%, 0%, 100%)" stroke-opacity="1" stroke-miterlimit="10" d="M 212.49664 255.94636 C 208.503887 251.186373 203.391598 245.087639 199.398846 240.323737 " transform="matrix(0.997902, 0, 0, -0.997902, -0.000000000000002498, 495.729649)"/>
<path fill="none" stroke-width="2" stroke-linecap="butt" stroke-linejoin="round" stroke="rgb(0%, 0%, 100%)" stroke-opacity="1" stroke-miterlimit="10" d="M 225.316507 255.94636 C 229.30926 251.186373 234.421549 245.087639 238.414301 240.323737 " transform="matrix(0.997902, 0, 0, -0.997902, -0.000000000000002498, 495.729649)"/>
<path fill="none" stroke-width="2" stroke-linecap="butt" stroke-linejoin="round" stroke="rgb(0%, 0%, 100%)" stroke-opacity="1" stroke-miterlimit="10" d="M 186.559406 224.384043 C 182.566653 219.624056 177.45045 213.525322 173.457697 208.76142 " transform="matrix(0.997902, 0, 0, -0.997902, -0.000000000000002498, 495.729649)"/>
<path fill="none" stroke-width="2" stroke-linecap="butt" stroke-linejoin="round" stroke="rgb(0%, 0%, 100%)" stroke-opacity="1" stroke-miterlimit="10" d="M 199.379273 224.384043 C 203.372026 219.624056 208.484315 213.525322 212.477068 208.76142 " transform="matrix(0.997902, 0, 0, -0.997902, -0.000000000000002498, 495.729649)"/>
<path fill="none" stroke-width="2" stroke-linecap="butt" stroke-linejoin="round" stroke="rgb(0%, 0%, 100%)" stroke-opacity="1" stroke-miterlimit="10" d="M 160.618258 192.821725 C 156.62942 188.061738 151.513216 181.95909 147.520464 177.199102 " transform="matrix(0.997902, 0, 0, -0.997902, -0.000000000000002498, 495.729649)"/>
<path fill="none" stroke-width="2" stroke-linecap="butt" stroke-linejoin="round" stroke="rgb(0%, 0%, 100%)" stroke-opacity="1" stroke-miterlimit="10" d="M 173.44204 192.821725 C 177.434792 188.061738 182.547081 181.95909 186.539834 177.199102 " transform="matrix(0.997902, 0, 0, -0.997902, -0.000000000000002498, 495.729649)"/>
<path fill="none" stroke-width="2" stroke-linecap="butt" stroke-linejoin="round" stroke="rgb(0%, 0%, 100%)" stroke-opacity="1" stroke-miterlimit="10" d="M 134.684939 161.259408 C 130.692186 156.499421 125.575982 150.400687 121.58323 145.636785 " transform="matrix(0.997902, 0, 0, -0.997902, -0.000000000000002498, 495.729649)"/>
<path fill="none" stroke-width="2" stroke-linecap="butt" stroke-linejoin="round" stroke="rgb(0%, 0%, 100%)" stroke-opacity="1" stroke-miterlimit="10" d="M 147.504806 161.259408 C 151.497558 156.499421 156.609847 150.400687 160.6026 145.636785 " transform="matrix(0.997902, 0, 0, -0.997902, -0.000000000000002498, 495.729649)"/>
<path fill="none" stroke-width="2" stroke-linecap="butt" stroke-linejoin="round" stroke="rgb(0%, 0%, 100%)" stroke-opacity="1" stroke-miterlimit="10" d="M 121.567572 129.69709 C 125.55641 124.937103 130.672614 118.834455 134.665366 114.074467 " transform="matrix(0.997902, 0, 0, -0.997902, -0.000000000000002498, 495.729649)"/>
<path fill="none" stroke-width="2" stroke-linecap="butt" stroke-linejoin="round" stroke="rgb(0%, 0%, 100%)" stroke-opacity="1" stroke-miterlimit="10" d="M 316.245575 319.070996 C 312.256737 314.314923 307.140533 308.20836 303.147781 303.448373 " transform="matrix(0.997902, 0, 0, -0.997902, -0.000000000000002498, 495.729649)"/>
<path fill="none" stroke-width="2" stroke-linecap="butt" stroke-linejoin="round" stroke="rgb(0%, 0%, 100%)" stroke-opacity="1" stroke-miterlimit="10" d="M 329.065442 319.070996 C 333.058195 314.314923 338.174398 308.20836 342.163236 303.448373 " transform="matrix(0.997902, 0, 0, -0.997902, -0.000000000000002498, 495.729649)"/>
<path fill="none" stroke-width="2" stroke-linecap="butt" stroke-linejoin="round" stroke="rgb(0%, 0%, 100%)" stroke-opacity="1" stroke-miterlimit="10" d="M 290.308341 287.508678 C 286.315589 282.748691 281.2033 276.646042 277.210547 271.886055 " transform="matrix(0.997902, 0, 0, -0.997902, -0.000000000000002498, 495.729649)"/>
<path fill="none" stroke-width="2" stroke-linecap="butt" stroke-linejoin="round" stroke="rgb(0%, 0%, 100%)" stroke-opacity="1" stroke-miterlimit="10" d="M 303.128208 287.508678 C 307.120961 282.748691 312.23325 276.646042 316.229917 271.886055 " transform="matrix(0.997902, 0, 0, -0.997902, -0.000000000000002498, 495.729649)"/>
<path fill="none" stroke-width="2" stroke-linecap="butt" stroke-linejoin="round" stroke="rgb(0%, 0%, 100%)" stroke-opacity="1" stroke-miterlimit="10" d="M 264.371107 255.94636 C 260.378355 251.186373 255.266066 245.087639 251.273313 240.323737 " transform="matrix(0.997902, 0, 0, -0.997902, -0.000000000000002498, 495.729649)"/>
<path fill="none" stroke-width="2" stroke-linecap="butt" stroke-linejoin="round" stroke="rgb(0%, 0%, 100%)" stroke-opacity="1" stroke-miterlimit="10" d="M 277.190975 255.94636 C 281.183727 251.186373 286.299931 245.087639 290.288769 240.323737 " transform="matrix(0.997902, 0, 0, -0.997902, -0.000000000000002498, 495.729649)"/>
<path fill="none" stroke-width="2" stroke-linecap="butt" stroke-linejoin="round" stroke="rgb(0%, 0%, 100%)" stroke-opacity="1" stroke-miterlimit="10" d="M 238.433874 224.384043 C 234.441121 219.624056 229.328832 213.525322 225.332165 208.76142 " transform="matrix(0.997902, 0, 0, -0.997902, -0.000000000000002498, 495.729649)"/>
<path fill="none" stroke-width="2" stroke-linecap="butt" stroke-linejoin="round" stroke="rgb(0%, 0%, 100%)" stroke-opacity="1" stroke-miterlimit="10" d="M 251.253741 224.384043 C 255.246493 219.624056 260.358783 213.525322 264.351535 208.76142 " transform="matrix(0.997902, 0, 0, -0.997902, -0.000000000000002498, 495.729649)"/>
<path fill="none" stroke-width="2" stroke-linecap="butt" stroke-linejoin="round" stroke="rgb(0%, 0%, 100%)" stroke-opacity="1" stroke-miterlimit="10" d="M 212.49664 192.821725 C 208.503887 188.061738 203.391598 181.95909 199.398846 177.199102 " transform="matrix(0.997902, 0, 0, -0.997902, -0.000000000000002498, 495.729649)"/>
<path fill="none" stroke-width="2" stroke-linecap="butt" stroke-linejoin="round" stroke="rgb(0%, 0%, 100%)" stroke-opacity="1" stroke-miterlimit="10" d="M 225.316507 192.821725 C 229.30926 188.061738 234.421549 181.95909 238.414301 177.199102 " transform="matrix(0.997902, 0, 0, -0.997902, -0.000000000000002498, 495.729649)"/>
<path fill="none" stroke-width="2" stroke-linecap="butt" stroke-linejoin="round" stroke="rgb(0%, 0%, 100%)" stroke-opacity="1" stroke-miterlimit="10" d="M 199.379273 161.259408 C 203.372026 156.499421 208.484315 150.400687 212.477068 145.636785 " transform="matrix(0.997902, 0, 0, -0.997902, -0.000000000000002498, 495.729649)"/>
<path fill="none" stroke-width="2" stroke-linecap="butt" stroke-linejoin="round" stroke="rgb(0%, 0%, 100%)" stroke-opacity="1" stroke-miterlimit="10" d="M 173.44204 161.259408 C 177.434792 156.499421 182.547081 150.400687 186.539834 145.636785 " transform="matrix(0.997902, 0, 0, -0.997902, -0.000000000000002498, 495.729649)"/>
<path fill="none" stroke-width="2" stroke-linecap="butt" stroke-linejoin="round" stroke="rgb(0%, 0%, 100%)" stroke-opacity="1" stroke-miterlimit="10" d="M 160.618258 129.69709 C 156.62942 124.937103 151.513216 118.834455 147.520464 114.074467 " transform="matrix(0.997902, 0, 0, -0.997902, -0.000000000000002498, 495.729649)"/>
<path fill="none" stroke-width="2" stroke-linecap="butt" stroke-linejoin="round" stroke="rgb(0%, 0%, 100%)" stroke-opacity="1" stroke-miterlimit="10" d="M 173.44204 129.69709 C 177.434792 124.937103 182.547081 118.834455 186.539834 114.074467 " transform="matrix(0.997902, 0, 0, -0.997902, -0.000000000000002498, 495.729649)"/>
<path fill="none" stroke-width="2" stroke-linecap="butt" stroke-linejoin="round" stroke="rgb(0%, 0%, 100%)" stroke-opacity="1" stroke-miterlimit="10" d="M 147.504806 98.134773 C 151.497558 93.374785 156.609847 87.272137 160.6026 82.51215 " transform="matrix(0.997902, 0, 0, -0.997902, -0.000000000000002498, 495.729649)"/>
<path fill="none" stroke-width="2" stroke-linecap="butt" stroke-linejoin="round" stroke="rgb(0%, 0%, 100%)" stroke-opacity="1" stroke-miterlimit="10" d="M 342.182809 287.508678 C 338.190056 282.748691 333.077767 276.646042 329.085015 271.886055 " transform="matrix(0.997902, 0, 0, -0.997902, -0.000000000000002498, 495.729649)"/>
<path fill="none" stroke-width="2" stroke-linecap="butt" stroke-linejoin="round" stroke="rgb(0%, 0%, 100%)" stroke-opacity="1" stroke-miterlimit="10" d="M 355.00659 287.508678 C 358.999343 282.748691 364.111632 276.646042 368.104385 271.886055 " transform="matrix(0.997902, 0, 0, -0.997902, -0.000000000000002498, 495.729649)"/>
<path fill="none" stroke-width="2" stroke-linecap="butt" stroke-linejoin="round" stroke="rgb(0%, 0%, 100%)" stroke-opacity="1" stroke-miterlimit="10" d="M 316.245575 255.94636 C 312.256737 251.186373 307.140533 245.087639 303.147781 240.323737 " transform="matrix(0.997902, 0, 0, -0.997902, -0.000000000000002498, 495.729649)"/>
<path fill="none" stroke-width="2" stroke-linecap="butt" stroke-linejoin="round" stroke="rgb(0%, 0%, 100%)" stroke-opacity="1" stroke-miterlimit="10" d="M 329.065442 255.94636 C 333.058195 251.186373 338.174398 245.087639 342.163236 240.323737 " transform="matrix(0.997902, 0, 0, -0.997902, -0.000000000000002498, 495.729649)"/>
<path fill="none" stroke-width="2" stroke-linecap="butt" stroke-linejoin="round" stroke="rgb(0%, 0%, 100%)" stroke-opacity="1" stroke-miterlimit="10" d="M 290.308341 224.384043 C 286.315589 219.624056 281.2033 213.525322 277.210547 208.76142 " transform="matrix(0.997902, 0, 0, -0.997902, -0.000000000000002498, 495.729649)"/>
<path fill="none" stroke-width="2" stroke-linecap="butt" stroke-linejoin="round" stroke="rgb(0%, 0%, 100%)" stroke-opacity="1" stroke-miterlimit="10" d="M 303.128208 224.384043 C 307.120961 219.624056 312.23325 213.525322 316.229917 208.76142 " transform="matrix(0.997902, 0, 0, -0.997902, -0.000000000000002498, 495.729649)"/>
<path fill="none" stroke-width="2" stroke-linecap="butt" stroke-linejoin="round" stroke="rgb(0%, 0%, 100%)" stroke-opacity="1" stroke-miterlimit="10" d="M 264.371107 192.821725 C 260.378355 188.061738 255.266066 181.95909 251.273313 177.199102 " transform="matrix(0.997902, 0, 0, -0.997902, -0.000000000000002498, 495.729649)"/>
<path fill="none" stroke-width="2" stroke-linecap="butt" stroke-linejoin="round" stroke="rgb(0%, 0%, 100%)" stroke-opacity="1" stroke-miterlimit="10" d="M 277.190975 192.821725 C 281.183727 188.061738 286.299931 181.95909 290.288769 177.199102 " transform="matrix(0.997902, 0, 0, -0.997902, -0.000000000000002498, 495.729649)"/>
<path fill="none" stroke-width="2" stroke-linecap="butt" stroke-linejoin="round" stroke="rgb(0%, 0%, 100%)" stroke-opacity="1" stroke-miterlimit="10" d="M 238.433874 161.259408 C 234.441121 156.499421 229.328832 150.400687 225.332165 145.636785 " transform="matrix(0.997902, 0, 0, -0.997902, -0.000000000000002498, 495.729649)"/>
<path fill="none" stroke-width="2" stroke-linecap="butt" stroke-linejoin="round" stroke="rgb(0%, 0%, 100%)" stroke-opacity="1" stroke-miterlimit="10" d="M 251.253741 161.259408 C 255.246493 156.499421 260.358783 150.400687 264.351535 145.636785 " transform="matrix(0.997902, 0, 0, -0.997902, -0.000000000000002498, 495.729649)"/>
<path fill="none" stroke-width="2" stroke-linecap="butt" stroke-linejoin="round" stroke="rgb(0%, 0%, 100%)" stroke-opacity="1" stroke-miterlimit="10" d="M 212.49664 129.69709 C 208.503887 124.937103 203.391598 118.834455 199.398846 114.074467 " transform="matrix(0.997902, 0, 0, -0.997902, -0.000000000000002498, 495.729649)"/>
<path fill="none" stroke-width="2" stroke-linecap="butt" stroke-linejoin="round" stroke="rgb(0%, 0%, 100%)" stroke-opacity="1" stroke-miterlimit="10" d="M 225.316507 129.69709 C 229.30926 124.937103 234.421549 118.834455 238.414301 114.074467 " transform="matrix(0.997902, 0, 0, -0.997902, -0.000000000000002498, 495.729649)"/>
<path fill="none" stroke-width="2" stroke-linecap="butt" stroke-linejoin="round" stroke="rgb(0%, 0%, 100%)" stroke-opacity="1" stroke-miterlimit="10" d="M 186.559406 98.134773 C 182.566653 93.374785 177.45045 87.272137 173.457697 82.51215 " transform="matrix(0.997902, 0, 0, -0.997902, -0.000000000000002498, 495.729649)"/>
<path fill="none" stroke-width="2" stroke-linecap="butt" stroke-linejoin="round" stroke="rgb(0%, 0%, 100%)" stroke-opacity="1" stroke-miterlimit="10" d="M 199.379273 98.134773 C 203.372026 93.374785 208.484315 87.272137 212.477068 82.51215 " transform="matrix(0.997902, 0, 0, -0.997902, -0.000000000000002498, 495.729649)"/>
<path fill="none" stroke-width="2" stroke-linecap="butt" stroke-linejoin="round" stroke="rgb(0%, 0%, 100%)" stroke-opacity="1" stroke-miterlimit="10" d="M 173.44204 66.572455 C 177.434792 61.812468 182.547081 55.70982 186.539834 50.949832 " transform="matrix(0.997902, 0, 0, -0.997902, -0.000000000000002498, 495.729649)"/>
<path fill="none" stroke-width="2" stroke-linecap="butt" stroke-linejoin="round" stroke="rgb(0%, 0%, 100%)" stroke-opacity="1" stroke-miterlimit="10" d="M 368.120042 255.94636 C 364.12729 251.186373 359.015001 245.087639 355.022248 240.323737 " transform="matrix(0.997902, 0, 0, -0.997902, -0.000000000000002498, 495.729649)"/>
<path fill="none" stroke-width="2" stroke-linecap="butt" stroke-linejoin="round" stroke="rgb(0%, 0%, 100%)" stroke-opacity="1" stroke-miterlimit="10" d="M 342.182809 224.384043 C 338.190056 219.624056 333.077767 213.525322 329.085015 208.76142 " transform="matrix(0.997902, 0, 0, -0.997902, -0.000000000000002498, 495.729649)"/>
<path fill="none" stroke-width="2" stroke-linecap="butt" stroke-linejoin="round" stroke="rgb(0%, 0%, 100%)" stroke-opacity="1" stroke-miterlimit="10" d="M 316.245575 192.821725 C 312.256737 188.061738 307.140533 181.95909 303.147781 177.199102 " transform="matrix(0.997902, 0, 0, -0.997902, -0.000000000000002498, 495.729649)"/>
<path fill="none" stroke-width="2" stroke-linecap="butt" stroke-linejoin="round" stroke="rgb(0%, 0%, 100%)" stroke-opacity="1" stroke-miterlimit="10" d="M 290.308341 161.259408 C 286.315589 156.499421 281.2033 150.400687 277.210547 145.636785 " transform="matrix(0.997902, 0, 0, -0.997902, -0.000000000000002498, 495.729649)"/>
<path fill="none" stroke-width="2" stroke-linecap="butt" stroke-linejoin="round" stroke="rgb(0%, 0%, 100%)" stroke-opacity="1" stroke-miterlimit="10" d="M 264.371107 129.69709 C 260.378355 124.937103 255.266066 118.834455 251.273313 114.074467 " transform="matrix(0.997902, 0, 0, -0.997902, -0.000000000000002498, 495.729649)"/>
<path fill="none" stroke-width="2" stroke-linecap="butt" stroke-linejoin="round" stroke="rgb(0%, 0%, 100%)" stroke-opacity="1" stroke-miterlimit="10" d="M 238.433874 98.134773 C 234.441121 93.374785 229.328832 87.272137 225.332165 82.51215 " transform="matrix(0.997902, 0, 0, -0.997902, -0.000000000000002498, 495.729649)"/>
<path fill="none" stroke-width="2" stroke-linecap="butt" stroke-linejoin="round" stroke="rgb(0%, 0%, 100%)" stroke-opacity="1" stroke-miterlimit="10" d="M 212.49664 66.572455 C 208.503887 61.812468 203.391598 55.70982 199.398846 50.949832 " transform="matrix(0.997902, 0, 0, -0.997902, -0.000000000000002498, 495.729649)"/>
<path fill="none" stroke-width="2" stroke-linecap="butt" stroke-linejoin="round" stroke="rgb(0%, 0%, 0%)" stroke-opacity="1" stroke-miterlimit="10" d="M 177.188181 453.27837 C 177.188181 458.89171 172.639575 463.436402 167.030149 463.436402 C 161.420723 463.436402 156.876031 458.89171 156.876031 453.27837 C 156.876031 447.672858 161.420723 443.124252 167.030149 443.124252 C 172.639575 443.124252 177.188181 447.672858 177.188181 453.27837 Z M 177.188181 453.27837 " transform="matrix(0.997902, 0, 0, -0.997902, -0.000000000000002498, 495.729649)"/>
<path fill="none" stroke-width="2" stroke-linecap="butt" stroke-linejoin="round" stroke="rgb(0%, 0%, 0%)" stroke-opacity="1" stroke-miterlimit="10" d="M 151.250947 421.719966 C 151.250947 427.325478 146.702341 431.874084 141.092915 431.874084 C 135.483489 431.874084 130.938797 427.325478 130.938797 421.719966 C 130.938797 416.110541 135.483489 411.561934 141.092915 411.561934 C 146.702341 411.561934 151.250947 416.110541 151.250947 421.719966 Z M 151.250947 421.719966 " transform="matrix(0.997902, 0, 0, -0.997902, -0.000000000000002498, 495.729649)"/>
<path fill="none" stroke-width="2" stroke-linecap="butt" stroke-linejoin="round" stroke="rgb(0%, 0%, 0%)" stroke-opacity="1" stroke-miterlimit="10" d="M 203.125415 421.719966 C 203.125415 427.325478 198.576808 431.874084 192.967382 431.874084 C 187.357957 431.874084 182.813265 427.325478 182.813265 421.719966 C 182.813265 416.110541 187.357957 411.561934 192.967382 411.561934 C 198.576808 411.561934 203.125415 416.110541 203.125415 421.719966 Z M 203.125415 421.719966 " transform="matrix(0.997902, 0, 0, -0.997902, -0.000000000000002498, 495.729649)"/>
<g clip-path="url(#clip-1)">
<path fill="none" stroke-width="2" stroke-linecap="butt" stroke-linejoin="round" stroke="rgb(0%, 0%, 0%)" stroke-opacity="1" stroke-miterlimit="10" d="M 203.125415 484.844602 C 203.125415 490.450113 198.576808 494.998719 192.967382 494.998719 C 187.357957 494.998719 182.813265 490.450113 182.813265 484.844602 C 182.813265 479.235176 187.357957 474.686569 192.967382 474.686569 C 198.576808 474.686569 203.125415 479.235176 203.125415 484.844602 Z M 203.125415 484.844602 " transform="matrix(0.997902, 0, 0, -0.997902, -0.000000000000002498, 495.729649)"/>
</g>
<path fill="none" stroke-width="2" stroke-linecap="butt" stroke-linejoin="round" stroke="rgb(0%, 0%, 0%)" stroke-opacity="1" stroke-miterlimit="10" d="M 229.062648 453.27837 C 229.062648 458.89171 224.517957 463.436402 218.904616 463.436402 C 213.29519 463.436402 208.750498 458.89171 208.750498 453.27837 C 208.750498 447.672858 213.29519 443.124252 218.904616 443.124252 C 224.517957 443.124252 229.062648 447.672858 229.062648 453.27837 Z M 229.062648 453.27837 " transform="matrix(0.997902, 0, 0, -0.997902, -0.000000000000002498, 495.729649)"/>
<path fill="none" stroke-width="2" stroke-linecap="butt" stroke-linejoin="round" stroke="rgb(0%, 0%, 0%)" stroke-opacity="1" stroke-miterlimit="10" d="M 254.999882 421.719966 C 254.999882 427.325478 250.451276 431.874084 244.845764 431.874084 C 239.232424 431.874084 234.687732 427.325478 234.687732 421.719966 C 234.687732 416.110541 239.232424 411.561934 244.845764 411.561934 C 250.451276 411.561934 254.999882 416.110541 254.999882 421.719966 Z M 254.999882 421.719966 " transform="matrix(0.997902, 0, 0, -0.997902, -0.000000000000002498, 495.729649)"/>
<path fill="none" stroke-width="2" stroke-linecap="butt" stroke-linejoin="round" stroke="rgb(0%, 0%, 0%)" stroke-opacity="1" stroke-miterlimit="10" d="M 125.313713 390.153734 C 125.313713 395.76316 120.765107 400.311767 115.155681 400.311767 C 109.546255 400.311767 105.001563 395.76316 105.001563 390.153734 C 105.001563 384.548223 109.546255 379.999617 115.155681 379.999617 C 120.765107 379.999617 125.313713 384.548223 125.313713 390.153734 Z M 125.313713 390.153734 " transform="matrix(0.997902, 0, 0, -0.997902, -0.000000000000002498, 495.729649)"/>
<path fill="none" stroke-width="2" stroke-linecap="butt" stroke-linejoin="round" stroke="rgb(0%, 0%, 0%)" stroke-opacity="1" stroke-miterlimit="10" d="M 177.188181 390.153734 C 177.188181 395.76316 172.639575 400.311767 167.030149 400.311767 C 161.420723 400.311767 156.876031 395.76316 156.876031 390.153734 C 156.876031 384.548223 161.420723 379.999617 167.030149 379.999617 C 172.639575 379.999617 177.188181 384.548223 177.188181 390.153734 Z M 177.188181 390.153734 " transform="matrix(0.997902, 0, 0, -0.997902, -0.000000000000002498, 495.729649)"/>
<path fill="none" stroke-width="2" stroke-linecap="butt" stroke-linejoin="round" stroke="rgb(0%, 0%, 0%)" stroke-opacity="1" stroke-miterlimit="10" d="M 229.062648 390.153734 C 229.062648 395.76316 224.517957 400.311767 218.904616 400.311767 C 213.29519 400.311767 208.750498 395.76316 208.750498 390.153734 C 208.750498 384.548223 213.29519 379.999617 218.904616 379.999617 C 224.517957 379.999617 229.062648 384.548223 229.062648 390.153734 Z M 229.062648 390.153734 " transform="matrix(0.997902, 0, 0, -0.997902, -0.000000000000002498, 495.729649)"/>
<path fill="none" stroke-width="2" stroke-linecap="butt" stroke-linejoin="round" stroke="rgb(0%, 0%, 0%)" stroke-opacity="1" stroke-miterlimit="10" d="M 99.37648 358.595331 C 99.37648 364.200843 94.827873 368.749449 89.218447 368.749449 C 83.609021 368.749449 79.06433 364.200843 79.06433 358.595331 C 79.06433 352.985906 83.609021 348.437299 89.218447 348.437299 C 94.827873 348.437299 99.37648 352.985906 99.37648 358.595331 Z M 99.37648 358.595331 " transform="matrix(0.997902, 0, 0, -0.997902, -0.000000000000002498, 495.729649)"/>
<path fill="none" stroke-width="2" stroke-linecap="butt" stroke-linejoin="round" stroke="rgb(0%, 0%, 0%)" stroke-opacity="1" stroke-miterlimit="10" d="M 151.250947 358.595331 C 151.250947 364.200843 146.702341 368.749449 141.092915 368.749449 C 135.483489 368.749449 130.938797 364.200843 130.938797 358.595331 C 130.938797 352.985906 135.483489 348.437299 141.092915 348.437299 C 146.702341 348.437299 151.250947 352.985906 151.250947 358.595331 Z M 151.250947 358.595331 " transform="matrix(0.997902, 0, 0, -0.997902, -0.000000000000002498, 495.729649)"/>
<path fill="none" stroke-width="2" stroke-linecap="butt" stroke-linejoin="round" stroke="rgb(0%, 0%, 0%)" stroke-opacity="1" stroke-miterlimit="10" d="M 203.125415 358.595331 C 203.125415 364.200843 198.576808 368.749449 192.967382 368.749449 C 187.357957 368.749449 182.813265 364.200843 182.813265 358.595331 C 182.813265 352.985906 187.357957 348.437299 192.967382 348.437299 C 198.576808 348.437299 203.125415 352.985906 203.125415 358.595331 Z M 203.125415 358.595331 " transform="matrix(0.997902, 0, 0, -0.997902, -0.000000000000002498, 495.729649)"/>
<path fill="none" stroke-width="2" stroke-linecap="butt" stroke-linejoin="round" stroke="rgb(0%, 0%, 0%)" stroke-opacity="1" stroke-miterlimit="10" d="M 73.439246 327.029099 C 73.439246 332.638525 68.890639 337.187132 63.281214 337.187132 C 57.671788 337.187132 53.123181 332.638525 53.123181 327.029099 C 53.123181 321.423588 57.671788 316.874982 63.281214 316.874982 C 68.890639 316.874982 73.439246 321.423588 73.439246 327.029099 Z M 73.439246 327.029099 " transform="matrix(0.997902, 0, 0, -0.997902, -0.000000000000002498, 495.729649)"/>
<path fill="none" stroke-width="2" stroke-linecap="butt" stroke-linejoin="round" stroke="rgb(0%, 0%, 0%)" stroke-opacity="1" stroke-miterlimit="10" d="M 125.313713 327.029099 C 125.313713 332.638525 120.765107 337.187132 115.155681 337.187132 C 109.546255 337.187132 105.001563 332.638525 105.001563 327.029099 C 105.001563 321.423588 109.546255 316.874982 115.155681 316.874982 C 120.765107 316.874982 125.313713 321.423588 125.313713 327.029099 Z M 125.313713 327.029099 " transform="matrix(0.997902, 0, 0, -0.997902, -0.000000000000002498, 495.729649)"/>
<path fill="none" stroke-width="2" stroke-linecap="butt" stroke-linejoin="round" stroke="rgb(0%, 0%, 0%)" stroke-opacity="1" stroke-miterlimit="10" d="M 177.188181 327.029099 C 177.188181 332.638525 172.639575 337.187132 167.030149 337.187132 C 161.420723 337.187132 156.876031 332.638525 156.876031 327.029099 C 156.876031 321.423588 161.420723 316.874982 167.030149 316.874982 C 172.639575 316.874982 177.188181 321.423588 177.188181 327.029099 Z M 177.188181 327.029099 " transform="matrix(0.997902, 0, 0, -0.997902, -0.000000000000002498, 495.729649)"/>
<path fill="none" stroke-width="2" stroke-linecap="butt" stroke-linejoin="round" stroke="rgb(0%, 0%, 0%)" stroke-opacity="1" stroke-miterlimit="10" d="M 47.498098 295.470696 C 47.498098 301.076208 42.953406 305.624814 37.34398 305.624814 C 31.734554 305.624814 27.185948 301.076208 27.185948 295.470696 C 27.185948 289.86127 31.734554 285.312664 37.34398 285.312664 C 42.953406 285.312664 47.498098 289.86127 47.498098 295.470696 Z M 47.498098 295.470696 " transform="matrix(0.997902, 0, 0, -0.997902, -0.000000000000002498, 495.729649)"/>
<path fill="none" stroke-width="2" stroke-linecap="butt" stroke-linejoin="round" stroke="rgb(0%, 0%, 0%)" stroke-opacity="1" stroke-miterlimit="10" d="M 99.37648 295.470696 C 99.37648 301.076208 94.827873 305.624814 89.218447 305.624814 C 83.609021 305.624814 79.06433 301.076208 79.06433 295.470696 C 79.06433 289.86127 83.609021 285.312664 89.218447 285.312664 C 94.827873 285.312664 99.37648 289.86127 99.37648 295.470696 Z M 99.37648 295.470696 " transform="matrix(0.997902, 0, 0, -0.997902, -0.000000000000002498, 495.729649)"/>
<path fill="none" stroke-width="2" stroke-linecap="butt" stroke-linejoin="round" stroke="rgb(0%, 0%, 0%)" stroke-opacity="1" stroke-miterlimit="10" d="M 151.250947 295.470696 C 151.250947 301.076208 146.702341 305.624814 141.092915 305.624814 C 135.483489 305.624814 130.938797 301.076208 130.938797 295.470696 C 130.938797 289.86127 135.483489 285.312664 141.092915 285.312664 C 146.702341 285.312664 151.250947 289.86127 151.250947 295.470696 Z M 151.250947 295.470696 " transform="matrix(0.997902, 0, 0, -0.997902, -0.000000000000002498, 495.729649)"/>
<path fill="none" stroke-width="2" stroke-linecap="butt" stroke-linejoin="round" stroke="rgb(0%, 0%, 0%)" stroke-opacity="1" stroke-miterlimit="10" d="M 21.560864 263.904464 C 21.560864 269.51389 17.016172 274.062497 11.406746 274.062497 C 5.79732 274.062497 1.248714 269.51389 1.248714 263.904464 C 1.248714 258.298953 5.79732 253.750347 11.406746 253.750347 C 17.016172 253.750347 21.560864 258.298953 21.560864 263.904464 Z M 21.560864 263.904464 " transform="matrix(0.997902, 0, 0, -0.997902, -0.000000000000002498, 495.729649)"/>
<path fill="none" stroke-width="2" stroke-linecap="butt" stroke-linejoin="round" stroke="rgb(0%, 0%, 0%)" stroke-opacity="1" stroke-miterlimit="10" d="M 73.439246 263.904464 C 73.439246 269.51389 68.890639 274.062497 63.281214 274.062497 C 57.671788 274.062497 53.123181 269.51389 53.123181 263.904464 C 53.123181 258.298953 57.671788 253.750347 63.281214 253.750347 C 68.890639 253.750347 73.439246 258.298953 73.439246 263.904464 Z M 73.439246 263.904464 " transform="matrix(0.997902, 0, 0, -0.997902, -0.000000000000002498, 495.729649)"/>
<path fill="none" stroke-width="2" stroke-linecap="butt" stroke-linejoin="round" stroke="rgb(0%, 0%, 0%)" stroke-opacity="1" stroke-miterlimit="10" d="M 125.313713 263.904464 C 125.313713 269.51389 120.765107 274.062497 115.155681 274.062497 C 109.546255 274.062497 105.001563 269.51389 105.001563 263.904464 C 105.001563 258.298953 109.546255 253.750347 115.155681 253.750347 C 120.765107 253.750347 125.313713 258.298953 125.313713 263.904464 Z M 125.313713 263.904464 " transform="matrix(0.997902, 0, 0, -0.997902, -0.000000000000002498, 495.729649)"/>
<path fill="none" stroke-width="2" stroke-linecap="butt" stroke-linejoin="round" stroke="rgb(0%, 0%, 0%)" stroke-opacity="1" stroke-miterlimit="10" d="M 47.498098 232.342147 C 47.498098 237.951573 42.953406 242.500179 37.34398 242.500179 C 31.734554 242.500179 27.185948 237.951573 27.185948 232.342147 C 27.185948 226.732721 31.734554 222.188029 37.34398 222.188029 C 42.953406 222.188029 47.498098 226.732721 47.498098 232.342147 Z M 47.498098 232.342147 " transform="matrix(0.997902, 0, 0, -0.997902, -0.000000000000002498, 495.729649)"/>
<path fill="none" stroke-width="2" stroke-linecap="butt" stroke-linejoin="round" stroke="rgb(0%, 0%, 0%)" stroke-opacity="1" stroke-miterlimit="10" d="M 99.37648 232.342147 C 99.37648 237.951573 94.827873 242.500179 89.218447 242.500179 C 83.609021 242.500179 79.06433 237.951573 79.06433 232.342147 C 79.06433 226.732721 83.609021 222.188029 89.218447 222.188029 C 94.827873 222.188029 99.37648 226.732721 99.37648 232.342147 Z M 99.37648 232.342147 " transform="matrix(0.997902, 0, 0, -0.997902, -0.000000000000002498, 495.729649)"/>
<path fill="none" stroke-width="2" stroke-linecap="butt" stroke-linejoin="round" stroke="rgb(0%, 0%, 0%)" stroke-opacity="1" stroke-miterlimit="10" d="M 73.439246 200.779829 C 73.439246 206.389255 68.890639 210.937862 63.281214 210.937862 C 57.671788 210.937862 53.123181 206.389255 53.123181 200.779829 C 53.123181 195.170403 57.671788 190.625712 63.281214 190.625712 C 68.890639 190.625712 73.439246 195.170403 73.439246 200.779829 Z M 73.439246 200.779829 " transform="matrix(0.997902, 0, 0, -0.997902, -0.000000000000002498, 495.729649)"/>
<path fill="none" stroke-width="2" stroke-linecap="butt" stroke-linejoin="round" stroke="rgb(0%, 0%, 0%)" stroke-opacity="1" stroke-miterlimit="10" d="M 280.937116 390.153734 C 280.937116 395.76316 276.38851 400.311767 270.779084 400.311767 C 265.173572 400.311767 260.624966 395.76316 260.624966 390.153734 C 260.624966 384.548223 265.173572 379.999617 270.779084 379.999617 C 276.38851 379.999617 280.937116 384.548223 280.937116 390.153734 Z M 280.937116 390.153734 " transform="matrix(0.997902, 0, 0, -0.997902, -0.000000000000002498, 495.729649)"/>
<path fill="none" stroke-width="2" stroke-linecap="butt" stroke-linejoin="round" stroke="rgb(0%, 0%, 0%)" stroke-opacity="1" stroke-miterlimit="10" d="M 254.999882 358.595331 C 254.999882 364.200843 250.451276 368.749449 244.845764 368.749449 C 239.232424 368.749449 234.687732 364.200843 234.687732 358.595331 C 234.687732 352.985906 239.232424 348.437299 244.845764 348.437299 C 250.451276 348.437299 254.999882 352.985906 254.999882 358.595331 Z M 254.999882 358.595331 " transform="matrix(0.997902, 0, 0, -0.997902, -0.000000000000002498, 495.729649)"/>
<path fill="none" stroke-width="2" stroke-linecap="butt" stroke-linejoin="round" stroke="rgb(0%, 0%, 0%)" stroke-opacity="1" stroke-miterlimit="10" d="M 229.062648 327.029099 C 229.062648 332.638525 224.517957 337.187132 218.904616 337.187132 C 213.29519 337.187132 208.750498 332.638525 208.750498 327.029099 C 208.750498 321.423588 213.29519 316.874982 218.904616 316.874982 C 224.517957 316.874982 229.062648 321.423588 229.062648 327.029099 Z M 229.062648 327.029099 " transform="matrix(0.997902, 0, 0, -0.997902, -0.000000000000002498, 495.729649)"/>
<path fill="none" stroke-width="2" stroke-linecap="butt" stroke-linejoin="round" stroke="rgb(0%, 0%, 0%)" stroke-opacity="1" stroke-miterlimit="10" d="M 203.125415 295.470696 C 203.125415 301.076208 198.576808 305.624814 192.967382 305.624814 C 187.357957 305.624814 182.813265 301.076208 182.813265 295.470696 C 182.813265 289.86127 187.357957 285.312664 192.967382 285.312664 C 198.576808 285.312664 203.125415 289.86127 203.125415 295.470696 Z M 203.125415 295.470696 " transform="matrix(0.997902, 0, 0, -0.997902, -0.000000000000002498, 495.729649)"/>
<path fill="none" stroke-width="2" stroke-linecap="butt" stroke-linejoin="round" stroke="rgb(0%, 0%, 0%)" stroke-opacity="1" stroke-miterlimit="10" d="M 177.188181 263.904464 C 177.188181 269.51389 172.639575 274.062497 167.030149 274.062497 C 161.420723 274.062497 156.876031 269.51389 156.876031 263.904464 C 156.876031 258.298953 161.420723 253.750347 167.030149 253.750347 C 172.639575 253.750347 177.188181 258.298953 177.188181 263.904464 Z M 177.188181 263.904464 " transform="matrix(0.997902, 0, 0, -0.997902, -0.000000000000002498, 495.729649)"/>
<path fill="none" stroke-width="2" stroke-linecap="butt" stroke-linejoin="round" stroke="rgb(0%, 0%, 0%)" stroke-opacity="1" stroke-miterlimit="10" d="M 151.250947 232.342147 C 151.250947 237.951573 146.702341 242.500179 141.092915 242.500179 C 135.483489 242.500179 130.938797 237.951573 130.938797 232.342147 C 130.938797 226.732721 135.483489 222.188029 141.092915 222.188029 C 146.702341 222.188029 151.250947 226.732721 151.250947 232.342147 Z M 151.250947 232.342147 " transform="matrix(0.997902, 0, 0, -0.997902, -0.000000000000002498, 495.729649)"/>
<path fill="none" stroke-width="2" stroke-linecap="butt" stroke-linejoin="round" stroke="rgb(0%, 0%, 0%)" stroke-opacity="1" stroke-miterlimit="10" d="M 125.313713 200.779829 C 125.313713 206.389255 120.765107 210.937862 115.155681 210.937862 C 109.546255 210.937862 105.001563 206.389255 105.001563 200.779829 C 105.001563 195.170403 109.546255 190.625712 115.155681 190.625712 C 120.765107 190.625712 125.313713 195.170403 125.313713 200.779829 Z M 125.313713 200.779829 " transform="matrix(0.997902, 0, 0, -0.997902, -0.000000000000002498, 495.729649)"/>
<path fill="none" stroke-width="2" stroke-linecap="butt" stroke-linejoin="round" stroke="rgb(0%, 0%, 0%)" stroke-opacity="1" stroke-miterlimit="10" d="M 99.37648 169.217512 C 99.37648 174.826938 94.827873 179.375544 89.218447 179.375544 C 83.609021 179.375544 79.06433 174.826938 79.06433 169.217512 C 79.06433 163.608086 83.609021 159.063394 89.218447 159.063394 C 94.827873 159.063394 99.37648 163.608086 99.37648 169.217512 Z M 99.37648 169.217512 " transform="matrix(0.997902, 0, 0, -0.997902, -0.000000000000002498, 495.729649)"/>
<path fill="none" stroke-width="2" stroke-linecap="butt" stroke-linejoin="round" stroke="rgb(0%, 0%, 0%)" stroke-opacity="1" stroke-miterlimit="10" d="M 306.87435 358.595331 C 306.87435 364.200843 302.325743 368.749449 296.720232 368.749449 C 291.110806 368.749449 286.5622 364.200843 286.5622 358.595331 C 286.5622 352.985906 291.110806 348.437299 296.720232 348.437299 C 302.325743 348.437299 306.87435 352.985906 306.87435 358.595331 Z M 306.87435 358.595331 " transform="matrix(0.997902, 0, 0, -0.997902, -0.000000000000002498, 495.729649)"/>
<path fill="none" stroke-width="2" stroke-linecap="butt" stroke-linejoin="round" stroke="rgb(0%, 0%, 0%)" stroke-opacity="1" stroke-miterlimit="10" d="M 280.937116 327.029099 C 280.937116 332.638525 276.38851 337.187132 270.779084 337.187132 C 265.173572 337.187132 260.624966 332.638525 260.624966 327.029099 C 260.624966 321.423588 265.173572 316.874982 270.779084 316.874982 C 276.38851 316.874982 280.937116 321.423588 280.937116 327.029099 Z M 280.937116 327.029099 " transform="matrix(0.997902, 0, 0, -0.997902, -0.000000000000002498, 495.729649)"/>
<path fill="none" stroke-width="2" stroke-linecap="butt" stroke-linejoin="round" stroke="rgb(0%, 0%, 0%)" stroke-opacity="1" stroke-miterlimit="10" d="M 254.999882 295.470696 C 254.999882 301.076208 250.451276 305.624814 244.845764 305.624814 C 239.232424 305.624814 234.687732 301.076208 234.687732 295.470696 C 234.687732 289.86127 239.232424 285.312664 244.845764 285.312664 C 250.451276 285.312664 254.999882 289.86127 254.999882 295.470696 Z M 254.999882 295.470696 " transform="matrix(0.997902, 0, 0, -0.997902, -0.000000000000002498, 495.729649)"/>
<path fill="none" stroke-width="2" stroke-linecap="butt" stroke-linejoin="round" stroke="rgb(0%, 0%, 0%)" stroke-opacity="1" stroke-miterlimit="10" d="M 229.062648 263.904464 C 229.062648 269.51389 224.517957 274.062497 218.904616 274.062497 C 213.29519 274.062497 208.750498 269.51389 208.750498 263.904464 C 208.750498 258.298953 213.29519 253.750347 218.904616 253.750347 C 224.517957 253.750347 229.062648 258.298953 229.062648 263.904464 Z M 229.062648 263.904464 " transform="matrix(0.997902, 0, 0, -0.997902, -0.000000000000002498, 495.729649)"/>
<path fill="none" stroke-width="2" stroke-linecap="butt" stroke-linejoin="round" stroke="rgb(0%, 0%, 0%)" stroke-opacity="1" stroke-miterlimit="10" d="M 203.125415 232.342147 C 203.125415 237.951573 198.576808 242.500179 192.967382 242.500179 C 187.357957 242.500179 182.813265 237.951573 182.813265 232.342147 C 182.813265 226.732721 187.357957 222.188029 192.967382 222.188029 C 198.576808 222.188029 203.125415 226.732721 203.125415 232.342147 Z M 203.125415 232.342147 " transform="matrix(0.997902, 0, 0, -0.997902, -0.000000000000002498, 495.729649)"/>
<path fill="none" stroke-width="2" stroke-linecap="butt" stroke-linejoin="round" stroke="rgb(0%, 0%, 0%)" stroke-opacity="1" stroke-miterlimit="10" d="M 177.188181 200.779829 C 177.188181 206.389255 172.639575 210.937862 167.030149 210.937862 C 161.420723 210.937862 156.876031 206.389255 156.876031 200.779829 C 156.876031 195.170403 161.420723 190.625712 167.030149 190.625712 C 172.639575 190.625712 177.188181 195.170403 177.188181 200.779829 Z M 177.188181 200.779829 " transform="matrix(0.997902, 0, 0, -0.997902, -0.000000000000002498, 495.729649)"/>
<path fill="none" stroke-width="2" stroke-linecap="butt" stroke-linejoin="round" stroke="rgb(0%, 0%, 0%)" stroke-opacity="1" stroke-miterlimit="10" d="M 151.250947 169.217512 C 151.250947 174.826938 146.702341 179.375544 141.092915 179.375544 C 135.483489 179.375544 130.938797 174.826938 130.938797 169.217512 C 130.938797 163.608086 135.483489 159.063394 141.092915 159.063394 C 146.702341 159.063394 151.250947 163.608086 151.250947 169.217512 Z M 151.250947 169.217512 " transform="matrix(0.997902, 0, 0, -0.997902, -0.000000000000002498, 495.729649)"/>
<path fill="none" stroke-width="2" stroke-linecap="butt" stroke-linejoin="round" stroke="rgb(0%, 0%, 0%)" stroke-opacity="1" stroke-miterlimit="10" d="M 125.313713 137.655194 C 125.313713 143.26462 120.765107 147.813226 115.155681 147.813226 C 109.546255 147.813226 105.001563 143.26462 105.001563 137.655194 C 105.001563 132.045768 109.546255 127.501076 115.155681 127.501076 C 120.765107 127.501076 125.313713 132.045768 125.313713 137.655194 Z M 125.313713 137.655194 " transform="matrix(0.997902, 0, 0, -0.997902, -0.000000000000002498, 495.729649)"/>
<path fill="none" stroke-width="2" stroke-linecap="butt" stroke-linejoin="round" stroke="rgb(0%, 0%, 0%)" stroke-opacity="1" stroke-miterlimit="10" d="M 332.811584 327.029099 C 332.811584 332.638525 328.266892 337.187132 322.653551 337.187132 C 317.04804 337.187132 312.499434 332.638525 312.499434 327.029099 C 312.499434 321.423588 317.04804 316.874982 322.653551 316.874982 C 328.266892 316.874982 332.811584 321.423588 332.811584 327.029099 Z M 332.811584 327.029099 " transform="matrix(0.997902, 0, 0, -0.997902, -0.000000000000002498, 495.729649)"/>
<path fill="none" stroke-width="2" stroke-linecap="butt" stroke-linejoin="round" stroke="rgb(0%, 0%, 0%)" stroke-opacity="1" stroke-miterlimit="10" d="M 306.87435 295.470696 C 306.87435 301.076208 302.325743 305.624814 296.720232 305.624814 C 291.110806 305.624814 286.5622 301.076208 286.5622 295.470696 C 286.5622 289.86127 291.110806 285.312664 296.720232 285.312664 C 302.325743 285.312664 306.87435 289.86127 306.87435 295.470696 Z M 306.87435 295.470696 " transform="matrix(0.997902, 0, 0, -0.997902, -0.000000000000002498, 495.729649)"/>
<path fill="none" stroke-width="2" stroke-linecap="butt" stroke-linejoin="round" stroke="rgb(0%, 0%, 0%)" stroke-opacity="1" stroke-miterlimit="10" d="M 280.937116 263.904464 C 280.937116 269.51389 276.38851 274.062497 270.779084 274.062497 C 265.173572 274.062497 260.624966 269.51389 260.624966 263.904464 C 260.624966 258.298953 265.173572 253.750347 270.779084 253.750347 C 276.38851 253.750347 280.937116 258.298953 280.937116 263.904464 Z M 280.937116 263.904464 " transform="matrix(0.997902, 0, 0, -0.997902, -0.000000000000002498, 495.729649)"/>
<path fill="none" stroke-width="2" stroke-linecap="butt" stroke-linejoin="round" stroke="rgb(0%, 0%, 0%)" stroke-opacity="1" stroke-miterlimit="10" d="M 254.999882 232.342147 C 254.999882 237.951573 250.451276 242.500179 244.845764 242.500179 C 239.232424 242.500179 234.687732 237.951573 234.687732 232.342147 C 234.687732 226.732721 239.232424 222.188029 244.845764 222.188029 C 250.451276 222.188029 254.999882 226.732721 254.999882 232.342147 Z M 254.999882 232.342147 " transform="matrix(0.997902, 0, 0, -0.997902, -0.000000000000002498, 495.729649)"/>
<path fill="none" stroke-width="2" stroke-linecap="butt" stroke-linejoin="round" stroke="rgb(0%, 0%, 0%)" stroke-opacity="1" stroke-miterlimit="10" d="M 229.062648 200.779829 C 229.062648 206.389255 224.517957 210.937862 218.904616 210.937862 C 213.29519 210.937862 208.750498 206.389255 208.750498 200.779829 C 208.750498 195.170403 213.29519 190.625712 218.904616 190.625712 C 224.517957 190.625712 229.062648 195.170403 229.062648 200.779829 Z M 229.062648 200.779829 " transform="matrix(0.997902, 0, 0, -0.997902, -0.000000000000002498, 495.729649)"/>
<path fill="none" stroke-width="2" stroke-linecap="butt" stroke-linejoin="round" stroke="rgb(0%, 0%, 0%)" stroke-opacity="1" stroke-miterlimit="10" d="M 203.125415 169.217512 C 203.125415 174.826938 198.576808 179.375544 192.967382 179.375544 C 187.357957 179.375544 182.813265 174.826938 182.813265 169.217512 C 182.813265 163.608086 187.357957 159.063394 192.967382 159.063394 C 198.576808 159.063394 203.125415 163.608086 203.125415 169.217512 Z M 203.125415 169.217512 " transform="matrix(0.997902, 0, 0, -0.997902, -0.000000000000002498, 495.729649)"/>
<path fill="none" stroke-width="2" stroke-linecap="butt" stroke-linejoin="round" stroke="rgb(0%, 0%, 0%)" stroke-opacity="1" stroke-miterlimit="10" d="M 177.188181 137.655194 C 177.188181 143.26462 172.639575 147.813226 167.030149 147.813226 C 161.420723 147.813226 156.876031 143.26462 156.876031 137.655194 C 156.876031 132.045768 161.420723 127.501076 167.030149 127.501076 C 172.639575 127.501076 177.188181 132.045768 177.188181 137.655194 Z M 177.188181 137.655194 " transform="matrix(0.997902, 0, 0, -0.997902, -0.000000000000002498, 495.729649)"/>
<path fill="none" stroke-width="2" stroke-linecap="butt" stroke-linejoin="round" stroke="rgb(0%, 0%, 0%)" stroke-opacity="1" stroke-miterlimit="10" d="M 151.250947 106.092877 C 151.250947 111.702303 146.702341 116.250909 141.092915 116.250909 C 135.483489 116.250909 130.938797 111.702303 130.938797 106.092877 C 130.938797 100.483451 135.483489 95.938759 141.092915 95.938759 C 146.702341 95.938759 151.250947 100.483451 151.250947 106.092877 Z M 151.250947 106.092877 " transform="matrix(0.997902, 0, 0, -0.997902, -0.000000000000002498, 495.729649)"/>
<path fill="none" stroke-width="2" stroke-linecap="butt" stroke-linejoin="round" stroke="rgb(0%, 0%, 0%)" stroke-opacity="1" stroke-miterlimit="10" d="M 358.748817 295.470696 C 358.748817 301.076208 354.200211 305.624814 348.5947 305.624814 C 342.985274 305.624814 338.436667 301.076208 338.436667 295.470696 C 338.436667 289.86127 342.985274 285.312664 348.5947 285.312664 C 354.200211 285.312664 358.748817 289.86127 358.748817 295.470696 Z M 358.748817 295.470696 " transform="matrix(0.997902, 0, 0, -0.997902, -0.000000000000002498, 495.729649)"/>
<path fill="none" stroke-width="2" stroke-linecap="butt" stroke-linejoin="round" stroke="rgb(0%, 0%, 0%)" stroke-opacity="1" stroke-miterlimit="10" d="M 332.811584 263.904464 C 332.811584 269.51389 328.266892 274.062497 322.653551 274.062497 C 317.04804 274.062497 312.499434 269.51389 312.499434 263.904464 C 312.499434 258.298953 317.04804 253.750347 322.653551 253.750347 C 328.266892 253.750347 332.811584 258.298953 332.811584 263.904464 Z M 332.811584 263.904464 " transform="matrix(0.997902, 0, 0, -0.997902, -0.000000000000002498, 495.729649)"/>
<path fill="none" stroke-width="2" stroke-linecap="butt" stroke-linejoin="round" stroke="rgb(0%, 0%, 0%)" stroke-opacity="1" stroke-miterlimit="10" d="M 306.87435 232.342147 C 306.87435 237.951573 302.325743 242.500179 296.720232 242.500179 C 291.110806 242.500179 286.5622 237.951573 286.5622 232.342147 C 286.5622 226.732721 291.110806 222.188029 296.720232 222.188029 C 302.325743 222.188029 306.87435 226.732721 306.87435 232.342147 Z M 306.87435 232.342147 " transform="matrix(0.997902, 0, 0, -0.997902, -0.000000000000002498, 495.729649)"/>
<path fill="none" stroke-width="2" stroke-linecap="butt" stroke-linejoin="round" stroke="rgb(0%, 0%, 0%)" stroke-opacity="1" stroke-miterlimit="10" d="M 280.937116 200.779829 C 280.937116 206.389255 276.38851 210.937862 270.779084 210.937862 C 265.173572 210.937862 260.624966 206.389255 260.624966 200.779829 C 260.624966 195.170403 265.173572 190.625712 270.779084 190.625712 C 276.38851 190.625712 280.937116 195.170403 280.937116 200.779829 Z M 280.937116 200.779829 " transform="matrix(0.997902, 0, 0, -0.997902, -0.000000000000002498, 495.729649)"/>
<path fill="none" stroke-width="2" stroke-linecap="butt" stroke-linejoin="round" stroke="rgb(0%, 0%, 0%)" stroke-opacity="1" stroke-miterlimit="10" d="M 254.999882 169.217512 C 254.999882 174.826938 250.451276 179.375544 244.845764 179.375544 C 239.232424 179.375544 234.687732 174.826938 234.687732 169.217512 C 234.687732 163.608086 239.232424 159.063394 244.845764 159.063394 C 250.451276 159.063394 254.999882 163.608086 254.999882 169.217512 Z M 254.999882 169.217512 " transform="matrix(0.997902, 0, 0, -0.997902, -0.000000000000002498, 495.729649)"/>
<path fill="none" stroke-width="2" stroke-linecap="butt" stroke-linejoin="round" stroke="rgb(0%, 0%, 0%)" stroke-opacity="1" stroke-miterlimit="10" d="M 229.062648 137.655194 C 229.062648 143.26462 224.517957 147.813226 218.904616 147.813226 C 213.29519 147.813226 208.750498 143.26462 208.750498 137.655194 C 208.750498 132.045768 213.29519 127.501076 218.904616 127.501076 C 224.517957 127.501076 229.062648 132.045768 229.062648 137.655194 Z M 229.062648 137.655194 " transform="matrix(0.997902, 0, 0, -0.997902, -0.000000000000002498, 495.729649)"/>
<path fill="none" stroke-width="2" stroke-linecap="butt" stroke-linejoin="round" stroke="rgb(0%, 0%, 0%)" stroke-opacity="1" stroke-miterlimit="10" d="M 203.125415 106.092877 C 203.125415 111.702303 198.576808 116.250909 192.967382 116.250909 C 187.357957 116.250909 182.813265 111.702303 182.813265 106.092877 C 182.813265 100.483451 187.357957 95.938759 192.967382 95.938759 C 198.576808 95.938759 203.125415 100.483451 203.125415 106.092877 Z M 203.125415 106.092877 " transform="matrix(0.997902, 0, 0, -0.997902, -0.000000000000002498, 495.729649)"/>
<path fill="none" stroke-width="2" stroke-linecap="butt" stroke-linejoin="round" stroke="rgb(0%, 0%, 0%)" stroke-opacity="1" stroke-miterlimit="10" d="M 177.188181 74.530559 C 177.188181 80.139985 172.639575 84.688591 167.030149 84.688591 C 161.420723 84.688591 156.876031 80.139985 156.876031 74.530559 C 156.876031 68.921133 161.420723 64.376441 167.030149 64.376441 C 172.639575 64.376441 177.188181 68.921133 177.188181 74.530559 Z M 177.188181 74.530559 " transform="matrix(0.997902, 0, 0, -0.997902, -0.000000000000002498, 495.729649)"/>
<path fill="none" stroke-width="2" stroke-linecap="butt" stroke-linejoin="round" stroke="rgb(0%, 0%, 0%)" stroke-opacity="1" stroke-miterlimit="10" d="M 384.686051 263.904464 C 384.686051 269.51389 380.141359 274.062497 374.531933 274.062497 C 368.922507 274.062497 364.373901 269.51389 364.373901 263.904464 C 364.373901 258.298953 368.922507 253.750347 374.531933 253.750347 C 380.141359 253.750347 384.686051 258.298953 384.686051 263.904464 Z M 384.686051 263.904464 " transform="matrix(0.997902, 0, 0, -0.997902, -0.000000000000002498, 495.729649)"/>
<path fill="none" stroke-width="2" stroke-linecap="butt" stroke-linejoin="round" stroke="rgb(0%, 0%, 0%)" stroke-opacity="1" stroke-miterlimit="10" d="M 358.748817 232.342147 C 358.748817 237.951573 354.200211 242.500179 348.5947 242.500179 C 342.985274 242.500179 338.436667 237.951573 338.436667 232.342147 C 338.436667 226.732721 342.985274 222.188029 348.5947 222.188029 C 354.200211 222.188029 358.748817 226.732721 358.748817 232.342147 Z M 358.748817 232.342147 " transform="matrix(0.997902, 0, 0, -0.997902, -0.000000000000002498, 495.729649)"/>
<path fill="none" stroke-width="2" stroke-linecap="butt" stroke-linejoin="round" stroke="rgb(0%, 0%, 0%)" stroke-opacity="1" stroke-miterlimit="10" d="M 332.811584 200.779829 C 332.811584 206.389255 328.266892 210.937862 322.653551 210.937862 C 317.04804 210.937862 312.499434 206.389255 312.499434 200.779829 C 312.499434 195.170403 317.04804 190.625712 322.653551 190.625712 C 328.266892 190.625712 332.811584 195.170403 332.811584 200.779829 Z M 332.811584 200.779829 " transform="matrix(0.997902, 0, 0, -0.997902, -0.000000000000002498, 495.729649)"/>
<path fill="none" stroke-width="2" stroke-linecap="butt" stroke-linejoin="round" stroke="rgb(0%, 0%, 0%)" stroke-opacity="1" stroke-miterlimit="10" d="M 306.87435 169.217512 C 306.87435 174.826938 302.325743 179.375544 296.720232 179.375544 C 291.110806 179.375544 286.5622 174.826938 286.5622 169.217512 C 286.5622 163.608086 291.110806 159.063394 296.720232 159.063394 C 302.325743 159.063394 306.87435 163.608086 306.87435 169.217512 Z M 306.87435 169.217512 " transform="matrix(0.997902, 0, 0, -0.997902, -0.000000000000002498, 495.729649)"/>
<path fill="none" stroke-width="2" stroke-linecap="butt" stroke-linejoin="round" stroke="rgb(0%, 0%, 0%)" stroke-opacity="1" stroke-miterlimit="10" d="M 280.937116 137.655194 C 280.937116 143.26462 276.38851 147.813226 270.779084 147.813226 C 265.173572 147.813226 260.624966 143.26462 260.624966 137.655194 C 260.624966 132.045768 265.173572 127.501076 270.779084 127.501076 C 276.38851 127.501076 280.937116 132.045768 280.937116 137.655194 Z M 280.937116 137.655194 " transform="matrix(0.997902, 0, 0, -0.997902, -0.000000000000002498, 495.729649)"/>
<path fill="none" stroke-width="2" stroke-linecap="butt" stroke-linejoin="round" stroke="rgb(0%, 0%, 0%)" stroke-opacity="1" stroke-miterlimit="10" d="M 254.999882 106.092877 C 254.999882 111.702303 250.451276 116.250909 244.845764 116.250909 C 239.232424 116.250909 234.687732 111.702303 234.687732 106.092877 C 234.687732 100.483451 239.232424 95.938759 244.845764 95.938759 C 250.451276 95.938759 254.999882 100.483451 254.999882 106.092877 Z M 254.999882 106.092877 " transform="matrix(0.997902, 0, 0, -0.997902, -0.000000000000002498, 495.729649)"/>
<path fill="none" stroke-width="2" stroke-linecap="butt" stroke-linejoin="round" stroke="rgb(0%, 0%, 0%)" stroke-opacity="1" stroke-miterlimit="10" d="M 229.062648 74.530559 C 229.062648 80.139985 224.517957 84.688591 218.904616 84.688591 C 213.29519 84.688591 208.750498 80.139985 208.750498 74.530559 C 208.750498 68.921133 213.29519 64.376441 218.904616 64.376441 C 224.517957 64.376441 229.062648 68.921133 229.062648 74.530559 Z M 229.062648 74.530559 " transform="matrix(0.997902, 0, 0, -0.997902, -0.000000000000002498, 495.729649)"/>
<path fill="none" stroke-width="2" stroke-linecap="butt" stroke-linejoin="round" stroke="rgb(0%, 0%, 0%)" stroke-opacity="1" stroke-miterlimit="10" d="M 203.125415 42.968242 C 203.125415 48.577668 198.576808 53.126274 192.967382 53.126274 C 187.357957 53.126274 182.813265 48.577668 182.813265 42.968242 C 182.813265 37.358816 187.357957 32.814124 192.967382 32.814124 C 198.576808 32.814124 203.125415 37.358816 203.125415 42.968242 Z M 203.125415 42.968242 " transform="matrix(0.997902, 0, 0, -0.997902, -0.000000000000002498, 495.729649)"/>
</svg>
