<?xml version="1.0" encoding="UTF-8"?>
<svg xmlns="http://www.w3.org/2000/svg" xmlns:xlink="http://www.w3.org/1999/xlink" width="436.626" height="504" viewBox="0 0 436.626 504">
<defs>
<clipPath id="clip-0">
<path clip-rule="nonzero" d="M 0 7 L 386 7 L 386 503.785156 L 0 503.785156 Z M 0 7 "/>
</clipPath>
</defs>
<g clip-path="url(#clip-0)">
<path fill-rule="nonzero" fill="rgb(100%, 100%, 100%)" fill-opacity="1" d="M 0 7.960938 L 385.609375 7.960938 L 385.609375 503.785156 L 0 503.785156 Z M 0 7.960938 "/>
</g>
<path fill="none" stroke-width="16" stroke-linecap="butt" stroke-linejoin="round" stroke="rgb(54.499817%, 0%, 0%)" stroke-opacity="1" stroke-miterlimit="10" d="M 199.381575 445.321702 C 203.369363 440.563723 208.483115 434.460844 212.478722 429.695046 " transform="matrix(0.999144, 0, 0, -0.999144, 0.000000000000001499, 503.78433)"/>
<path fill="none" stroke-width="16" stroke-linecap="butt" stroke-linejoin="round" stroke="rgb(54.499817%, 0%, 0%)" stroke-opacity="1" stroke-miterlimit="10" d="M 251.254095 382.197365 C 255.245792 377.439387 260.359544 371.336507 264.351241 366.57071 " transform="matrix(0.999144, 0, 0, -0.999144, 0.000000000000001499, 503.78433)"/>
<path fill="none" stroke-width="16" stroke-linecap="butt" stroke-linejoin="round" stroke="rgb(54.499817%, 0%, 0%)" stroke-opacity="1" stroke-miterlimit="10" d="M 303.130524 319.073028 C 307.118311 314.311141 312.235973 308.208261 316.22767 303.446373 " transform="matrix(0.999144, 0, 0, -0.999144, 0.000000000000001499, 503.78433)"/>
<path fill="none" stroke-width="16" stroke-linecap="butt" stroke-linejoin="round" stroke="rgb(54.499817%, 0%, 0%)" stroke-opacity="1" stroke-miterlimit="10" d="M 355.006952 255.944782 C 358.99865 251.186804 364.108492 245.087834 368.104099 240.322037 " transform="matrix(0.999144, 0, 0, -0.999144, 0.000000000000001499, 503.78433)"/>
</svg>
