<?xml version="1.0" encoding="UTF-8"?>
<svg xmlns="http://www.w3.org/2000/svg" xmlns:xlink="http://www.w3.org/1999/xlink" width="313.9372" height="280.0867" viewBox="0 0 313.9372 280.0867">
<path fill-rule="evenodd" fill="rgb(100%, 0%, 0%)" fill-opacity="0.3" stroke-width="2" stroke-linecap="butt" stroke-linejoin="round" stroke="rgb(0%, 0%, 100%)" stroke-opacity="1" stroke-miterlimit="10" d="M 360.552755 261.315279 C 339.601849 329.219574 267.57086 367.276861 199.670484 346.325954 C 131.76619 325.371129 93.708903 253.34014 114.65981 185.439764 C 135.614635 117.539389 207.641705 79.478183 275.546 100.433008 C 343.446375 121.383915 381.507581 193.414904 360.552755 261.315279 " transform="matrix(0.99675, 0, 0, -0.99675, -53.216832, 352.430802)"/>
<path fill-rule="evenodd" fill="rgb(100%, 100%, 0%)" fill-opacity="0.4" d="M 244.378906 110.332031 C 233.988281 76.667969 198.277344 57.796875 164.613281 68.1875 C 130.945312 78.574219 112.078125 114.289062 122.464844 147.953125 C 132.851562 181.617188 168.566406 200.488281 202.230469 190.097656 C 235.894531 179.710938 254.765625 144 244.378906 110.332031 "/>
<path fill-rule="evenodd" fill="rgb(100%, 100%, 100%)" fill-opacity="0.7" d="M 224.742188 114.933594 C 230.527344 119.632812 232.132812 127.109375 230.96875 131.847656 C 229.804688 136.589844 225.867188 138.601562 220.039062 137.835938 C 214.214844 137.074219 206.496094 133.535156 201.3125 129.761719 C 196.128906 125.980469 193.480469 121.964844 192.152344 119.953125 C 190.828125 117.945312 190.828125 117.945312 192.191406 116.019531 C 193.558594 114.089844 196.292969 110.230469 202.640625 109.265625 C 208.988281 108.304688 218.953125 110.230469 224.742188 114.933594 Z M 224.742188 114.933594 "/>
</svg>
