<?xml version="1.0" encoding="UTF-8"?>
<svg xmlns="http://www.w3.org/2000/svg" xmlns:xlink="http://www.w3.org/1999/xlink" width="313.9372" height="280.0867" viewBox="0 0 313.9372 280.0867">
<path fill-rule="evenodd" fill="rgb(100%, 0%, 0%)" fill-opacity="0.3" d="M 306.164062 91.964844 C 285.28125 24.28125 213.484375 -13.652344 145.804688 7.230469 C 78.121094 28.117188 40.1875 99.914062 61.070312 167.59375 C 81.957031 235.273438 153.75 273.210938 221.433594 252.324219 C 289.113281 231.441406 327.050781 159.644531 306.164062 91.964844 "/>
<path fill-rule="evenodd" fill="rgb(100%, 100%, 100%)" fill-opacity="1" stroke-width="0.4" stroke-linecap="butt" stroke-linejoin="round" stroke="rgb(100%, 49.798584%, 31.399536%)" stroke-opacity="1" stroke-miterlimit="10" d="M 199.670484 346.325954 L 149.260549 129.837171 L 363.299966 195.883866 Z M 199.670484 346.325954 " transform="matrix(0.99675, 0, 0, -0.99675, -53.216832, 352.430802)"/>
<path fill-rule="evenodd" fill="rgb(100%, 49.798584%, 31.399536%)" fill-opacity="0.2" stroke-width="0.4" stroke-linecap="butt" stroke-linejoin="round" stroke="rgb(100%, 49.798584%, 31.399536%)" stroke-opacity="0.2" stroke-miterlimit="10" d="M 199.670484 346.325954 L 149.260549 129.837171 L 363.299966 195.883866 Z M 199.670484 346.325954 " transform="matrix(0.99675, 0, 0, -0.99675, -53.216832, 352.430802)"/>
<path fill-rule="evenodd" fill="rgb(100%, 100%, 100%)" fill-opacity="0.7" d="M 224.742188 114.933594 C 230.527344 119.632812 232.132812 127.109375 230.96875 131.847656 C 229.804688 136.589844 225.867188 138.601562 220.039062 137.835938 C 214.214844 137.074219 206.496094 133.535156 201.3125 129.761719 C 196.128906 125.980469 193.480469 121.964844 192.152344 119.953125 C 190.828125 117.945312 190.828125 117.945312 192.191406 116.019531 C 193.558594 114.089844 196.292969 110.230469 202.640625 109.265625 C 208.988281 108.304688 218.953125 110.230469 224.742188 114.933594 Z M 224.742188 114.933594 "/>
</svg>
