<?xml version="1.0" encoding="UTF-8"?>
<svg xmlns="http://www.w3.org/2000/svg" xmlns:xlink="http://www.w3.org/1999/xlink" width="700" height="700" viewBox="0 0 700 700">
<path fill="none" stroke-width="2" stroke-linecap="butt" stroke-linejoin="miter" stroke="rgb(0%, 50%, 0%)" stroke-opacity="0.6" stroke-miterlimit="10" d="M 350 350 L 375 350 Z M 350 350 " transform="matrix(1, 0, 0, -1, 0, 700)"/>
<path fill="none" stroke-width="2" stroke-linecap="butt" stroke-linejoin="miter" stroke="rgb(0%, 50%, 0%)" stroke-opacity="0.6" stroke-miterlimit="10" d="M 350 350 L 375 350 L 374.800781 337 Z M 350 350 " transform="matrix(1, 0, 0, -1, 0, 700)"/>
<path fill="none" stroke-width="2" stroke-linecap="butt" stroke-linejoin="miter" stroke="rgb(0%, 50%, 0%)" stroke-opacity="0.6" stroke-miterlimit="10" d="M 350 350 L 374.800781 337 L 363.203125 321.953125 Z M 350 350 " transform="matrix(1, 0, 0, -1, 0, 700)"/>
<path fill="none" stroke-width="2" stroke-linecap="butt" stroke-linejoin="miter" stroke="rgb(0%, 50%, 0%)" stroke-opacity="0.6" stroke-miterlimit="10" d="M 350 350 L 363.203125 321.953125 L 338.515625 317.996094 Z M 350 350 " transform="matrix(1, 0, 0, -1, 0, 700)"/>
<path fill="none" stroke-width="2" stroke-linecap="butt" stroke-linejoin="miter" stroke="rgb(0%, 50%, 0%)" stroke-opacity="0.6" stroke-miterlimit="10" d="M 350 350 L 338.515625 317.996094 L 314.953125 338.140625 Z M 350 350 " transform="matrix(1, 0, 0, -1, 0, 700)"/>
<path fill="none" stroke-width="2" stroke-linecap="butt" stroke-linejoin="miter" stroke="rgb(0%, 50%, 0%)" stroke-opacity="0.6" stroke-miterlimit="10" d="M 350 350 L 314.953125 338.140625 L 318.730469 374.945312 Z M 350 350 " transform="matrix(1, 0, 0, -1, 0, 700)"/>
<path fill="none" stroke-width="2" stroke-linecap="butt" stroke-linejoin="miter" stroke="rgb(0%, 50%, 0%)" stroke-opacity="0.6" stroke-miterlimit="10" d="M 350 350 L 318.730469 374.945312 L 358.105469 392.230469 Z M 350 350 " transform="matrix(1, 0, 0, -1, 0, 700)"/>
<path fill="none" stroke-width="2" stroke-linecap="butt" stroke-linejoin="miter" stroke="rgb(0%, 50%, 0%)" stroke-opacity="0.6" stroke-miterlimit="10" d="M 350 350 L 358.105469 392.230469 L 394.921875 359.894531 Z M 350 350 " transform="matrix(1, 0, 0, -1, 0, 700)"/>
<path fill="none" stroke-width="2" stroke-linecap="butt" stroke-linejoin="miter" stroke="rgb(0%, 50%, 0%)" stroke-opacity="0.6" stroke-miterlimit="10" d="M 350 350 L 394.921875 359.894531 L 375.785156 308.332031 Z M 350 350 " transform="matrix(1, 0, 0, -1, 0, 700)"/>
<path fill="none" stroke-width="2" stroke-linecap="butt" stroke-linejoin="miter" stroke="rgb(0%, 50%, 0%)" stroke-opacity="0.6" stroke-miterlimit="10" d="M 350 350 L 375.785156 308.332031 L 314.875 311.65625 Z M 350 350 " transform="matrix(1, 0, 0, -1, 0, 700)"/>
<path fill="none" stroke-width="2" stroke-linecap="butt" stroke-linejoin="miter" stroke="rgb(0%, 50%, 0%)" stroke-opacity="0.6" stroke-miterlimit="10" d="M 350 350 L 314.875 311.65625 L 302.355469 377.476562 Z M 350 350 " transform="matrix(1, 0, 0, -1, 0, 700)"/>
<path fill="none" stroke-width="2" stroke-linecap="butt" stroke-linejoin="miter" stroke="rgb(0%, 50%, 0%)" stroke-opacity="0.6" stroke-miterlimit="10" d="M 350 350 L 302.355469 377.476562 L 370.226562 404.359375 Z M 350 350 " transform="matrix(1, 0, 0, -1, 0, 700)"/>
<path fill="none" stroke-width="2" stroke-linecap="butt" stroke-linejoin="miter" stroke="rgb(0%, 50%, 0%)" stroke-opacity="0.6" stroke-miterlimit="10" d="M 350 350 L 370.226562 404.359375 L 409.300781 335.699219 Z M 350 350 " transform="matrix(1, 0, 0, -1, 0, 700)"/>
<path fill="none" stroke-width="2" stroke-linecap="butt" stroke-linejoin="miter" stroke="rgb(0%, 50%, 0%)" stroke-opacity="0.6" stroke-miterlimit="10" d="M 350 350 L 409.300781 335.699219 L 339.757812 286.824219 Z M 350 350 " transform="matrix(1, 0, 0, -1, 0, 700)"/>
<path fill="none" stroke-width="2" stroke-linecap="butt" stroke-linejoin="miter" stroke="rgb(0%, 50%, 0%)" stroke-opacity="0.6" stroke-miterlimit="10" d="M 350 350 L 339.757812 286.824219 L 283.523438 358.371094 Z M 350 350 " transform="matrix(1, 0, 0, -1, 0, 700)"/>
<path fill="none" stroke-width="2" stroke-linecap="butt" stroke-linejoin="miter" stroke="rgb(0%, 50%, 0%)" stroke-opacity="0.6" stroke-miterlimit="10" d="M 350 350 L 283.523438 358.371094 L 334.324219 369.476562 Z M 350 350 " transform="matrix(1, 0, 0, -1, 0, 700)"/>
<path fill="none" stroke-width="4" stroke-linecap="butt" stroke-linejoin="miter" stroke="rgb(0%, 0%, 0%)" stroke-opacity="1" stroke-miterlimit="10" d="M 370 350 C 370 338.953125 361.046875 330 350 330 C 338.953125 330 330 338.953125 330 350 C 330 361.046875 338.953125 370 350 370 C 361.046875 370 370 361.046875 370 350 " transform="matrix(1, 0, 0, -1, 0, 700)"/>
<path fill-rule="nonzero" fill="rgb(0%, 0%, 0%)" fill-opacity="0.3" d="M 370 350 C 370 361.046875 361.046875 370 350 370 C 338.953125 370 330 361.046875 330 350 C 330 338.953125 338.953125 330 350 330 C 361.046875 330 370 338.953125 370 350 "/>
<path fill="none" stroke-width="2" stroke-linecap="butt" stroke-linejoin="miter" stroke="rgb(69.999695%, 29.998779%, 9.999084%)" stroke-opacity="1" stroke-miterlimit="10" d="M 380 350 C 380 343.332031 370 343.332031 370 350 C 370 356.667969 380 356.667969 380 350 " transform="matrix(1, 0, 0, -1, 0, 700)"/>
<path fill-rule="nonzero" fill="rgb(69.999695%, 29.998779%, 9.999084%)" fill-opacity="0.3" d="M 380 350 C 380 356.667969 370 356.667969 370 350 C 370 343.332031 380 343.332031 380 350 "/>
<path fill="none" stroke-width="2" stroke-linecap="butt" stroke-linejoin="miter" stroke="rgb(81.999207%, 40.99884%, 10.998535%)" stroke-opacity="1" stroke-miterlimit="10" d="M 382.800781 337 C 382.800781 332.582031 379.21875 329 374.800781 329 C 370.382812 329 366.800781 332.582031 366.800781 337 C 366.800781 341.417969 370.382812 345 374.800781 345 C 379.21875 345 382.800781 341.417969 382.800781 337 " transform="matrix(1, 0, 0, -1, 0, 700)"/>
<path fill-rule="nonzero" fill="rgb(81.999207%, 40.99884%, 10.998535%)" fill-opacity="0.3" d="M 382.800781 363 C 382.800781 367.417969 379.21875 371 374.800781 371 C 370.382812 371 366.800781 367.417969 366.800781 363 C 366.800781 358.582031 370.382812 355 374.800781 355 C 379.21875 355 382.800781 358.582031 382.800781 363 "/>
<path fill="none" stroke-width="2" stroke-linecap="butt" stroke-linejoin="miter" stroke="rgb(100%, 53.999329%, 0%)" stroke-opacity="1" stroke-miterlimit="10" d="M 374.203125 321.953125 C 374.203125 315.875 369.277344 310.953125 363.203125 310.953125 C 357.128906 310.953125 352.203125 315.875 352.203125 321.953125 C 352.203125 328.027344 357.128906 332.953125 363.203125 332.953125 C 369.277344 332.953125 374.203125 328.027344 374.203125 321.953125 " transform="matrix(1, 0, 0, -1, 0, 700)"/>
<path fill-rule="nonzero" fill="rgb(100%, 53.999329%, 0%)" fill-opacity="0.3" d="M 374.203125 378.046875 C 374.203125 384.125 369.277344 389.046875 363.203125 389.046875 C 357.128906 389.046875 352.203125 384.125 352.203125 378.046875 C 352.203125 371.972656 357.128906 367.046875 363.203125 367.046875 C 369.277344 367.046875 374.203125 371.972656 374.203125 378.046875 "/>
<path fill="none" stroke-width="2" stroke-linecap="butt" stroke-linejoin="miter" stroke="rgb(100%, 6.999207%, 56.999207%)" stroke-opacity="1" stroke-miterlimit="10" d="M 352.515625 317.996094 C 352.515625 310.265625 346.25 303.996094 338.515625 303.996094 C 330.785156 303.996094 324.515625 310.265625 324.515625 317.996094 C 324.515625 325.730469 330.785156 331.996094 338.515625 331.996094 C 346.25 331.996094 352.515625 325.730469 352.515625 317.996094 " transform="matrix(1, 0, 0, -1, 0, 700)"/>
<path fill-rule="nonzero" fill="rgb(100%, 6.999207%, 56.999207%)" fill-opacity="0.3" d="M 352.515625 382.003906 C 352.515625 389.734375 346.25 396.003906 338.515625 396.003906 C 330.785156 396.003906 324.515625 389.734375 324.515625 382.003906 C 324.515625 374.269531 330.785156 368.003906 338.515625 368.003906 C 346.25 368.003906 352.515625 374.269531 352.515625 382.003906 "/>
<path fill="none" stroke-width="2" stroke-linecap="butt" stroke-linejoin="miter" stroke="rgb(0%, 0%, 50%)" stroke-opacity="1" stroke-miterlimit="10" d="M 331.953125 338.140625 C 331.953125 328.75 324.339844 321.140625 314.953125 321.140625 C 305.5625 321.140625 297.953125 328.75 297.953125 338.140625 C 297.953125 347.527344 305.5625 355.140625 314.953125 355.140625 C 324.339844 355.140625 331.953125 347.527344 331.953125 338.140625 " transform="matrix(1, 0, 0, -1, 0, 700)"/>
<path fill-rule="nonzero" fill="rgb(0%, 0%, 50%)" fill-opacity="0.3" d="M 331.953125 361.859375 C 331.953125 371.25 324.339844 378.859375 314.953125 378.859375 C 305.5625 378.859375 297.953125 371.25 297.953125 361.859375 C 297.953125 352.472656 305.5625 344.859375 314.953125 344.859375 C 324.339844 344.859375 331.953125 352.472656 331.953125 361.859375 "/>
<path fill="none" stroke-width="2" stroke-linecap="butt" stroke-linejoin="miter" stroke="rgb(0%, 50%, 50%)" stroke-opacity="1" stroke-miterlimit="10" d="M 338.730469 374.945312 C 338.730469 363.902344 329.777344 354.945312 318.730469 354.945312 C 307.6875 354.945312 298.730469 363.902344 298.730469 374.945312 C 298.730469 385.992188 307.6875 394.945312 318.730469 394.945312 C 329.777344 394.945312 338.730469 385.992188 338.730469 374.945312 " transform="matrix(1, 0, 0, -1, 0, 700)"/>
<path fill-rule="nonzero" fill="rgb(0%, 50%, 50%)" fill-opacity="0.3" d="M 338.730469 325.054688 C 338.730469 336.097656 329.777344 345.054688 318.730469 345.054688 C 307.6875 345.054688 298.730469 336.097656 298.730469 325.054688 C 298.730469 314.007812 307.6875 305.054688 318.730469 305.054688 C 329.777344 305.054688 338.730469 314.007812 338.730469 325.054688 "/>
<path fill="none" stroke-width="2" stroke-linecap="butt" stroke-linejoin="miter" stroke="rgb(50%, 0%, 50%)" stroke-opacity="1" stroke-miterlimit="10" d="M 381.105469 392.230469 C 381.105469 379.527344 370.808594 369.230469 358.105469 369.230469 C 345.402344 369.230469 335.105469 379.527344 335.105469 392.230469 C 335.105469 404.929688 345.402344 415.230469 358.105469 415.230469 C 370.808594 415.230469 381.105469 404.929688 381.105469 392.230469 " transform="matrix(1, 0, 0, -1, 0, 700)"/>
<path fill-rule="nonzero" fill="rgb(50%, 0%, 50%)" fill-opacity="0.3" d="M 381.105469 307.769531 C 381.105469 320.472656 370.808594 330.769531 358.105469 330.769531 C 345.402344 330.769531 335.105469 320.472656 335.105469 307.769531 C 335.105469 295.070312 345.402344 284.769531 358.105469 284.769531 C 370.808594 284.769531 381.105469 295.070312 381.105469 307.769531 "/>
<path fill="none" stroke-width="2" stroke-linecap="butt" stroke-linejoin="miter" stroke="rgb(0%, 50%, 0%)" stroke-opacity="1" stroke-miterlimit="10" d="M 420.921875 359.894531 C 420.921875 345.535156 409.28125 333.894531 394.921875 333.894531 C 380.5625 333.894531 368.921875 345.535156 368.921875 359.894531 C 368.921875 374.253906 380.5625 385.894531 394.921875 385.894531 C 409.28125 385.894531 420.921875 374.253906 420.921875 359.894531 " transform="matrix(1, 0, 0, -1, 0, 700)"/>
<path fill-rule="nonzero" fill="rgb(0%, 50%, 0%)" fill-opacity="0.3" d="M 420.921875 340.105469 C 420.921875 354.464844 409.28125 366.105469 394.921875 366.105469 C 380.5625 366.105469 368.921875 354.464844 368.921875 340.105469 C 368.921875 325.746094 380.5625 314.105469 394.921875 314.105469 C 409.28125 314.105469 420.921875 325.746094 420.921875 340.105469 "/>
<path fill="none" stroke-width="2" stroke-linecap="butt" stroke-linejoin="miter" stroke="rgb(50%, 0%, 0%)" stroke-opacity="1" stroke-miterlimit="10" d="M 404.785156 308.332031 C 404.785156 292.316406 391.800781 279.332031 375.785156 279.332031 C 359.765625 279.332031 346.785156 292.316406 346.785156 308.332031 C 346.785156 324.347656 359.765625 337.332031 375.785156 337.332031 C 391.800781 337.332031 404.785156 324.347656 404.785156 308.332031 " transform="matrix(1, 0, 0, -1, 0, 700)"/>
<path fill-rule="nonzero" fill="rgb(50%, 0%, 0%)" fill-opacity="0.3" d="M 404.785156 391.667969 C 404.785156 407.683594 391.800781 420.667969 375.785156 420.667969 C 359.765625 420.667969 346.785156 407.683594 346.785156 391.667969 C 346.785156 375.652344 359.765625 362.667969 375.785156 362.667969 C 391.800781 362.667969 404.785156 375.652344 404.785156 391.667969 "/>
<path fill="none" stroke-width="2" stroke-linecap="butt" stroke-linejoin="miter" stroke="rgb(100%, 0%, 100%)" stroke-opacity="1" stroke-miterlimit="10" d="M 346.875 311.65625 C 346.875 293.984375 332.546875 279.65625 314.875 279.65625 C 297.203125 279.65625 282.875 293.984375 282.875 311.65625 C 282.875 329.328125 297.203125 343.65625 314.875 343.65625 C 332.546875 343.65625 346.875 329.328125 346.875 311.65625 " transform="matrix(1, 0, 0, -1, 0, 700)"/>
<path fill-rule="nonzero" fill="rgb(100%, 0%, 100%)" fill-opacity="0.3" d="M 346.875 388.34375 C 346.875 406.015625 332.546875 420.34375 314.875 420.34375 C 297.203125 420.34375 282.875 406.015625 282.875 388.34375 C 282.875 370.671875 297.203125 356.34375 314.875 356.34375 C 332.546875 356.34375 346.875 370.671875 346.875 388.34375 "/>
<path fill="none" stroke-width="2" stroke-linecap="butt" stroke-linejoin="miter" stroke="rgb(0%, 100%, 100%)" stroke-opacity="1" stroke-miterlimit="10" d="M 337.355469 377.476562 C 337.355469 358.148438 321.683594 342.476562 302.355469 342.476562 C 283.023438 342.476562 267.355469 358.148438 267.355469 377.476562 C 267.355469 396.808594 283.023438 412.476562 302.355469 412.476562 C 321.683594 412.476562 337.355469 396.808594 337.355469 377.476562 " transform="matrix(1, 0, 0, -1, 0, 700)"/>
<path fill-rule="nonzero" fill="rgb(0%, 100%, 100%)" fill-opacity="0.3" d="M 337.355469 322.523438 C 337.355469 341.851562 321.683594 357.523438 302.355469 357.523438 C 283.023438 357.523438 267.355469 341.851562 267.355469 322.523438 C 267.355469 303.191406 283.023438 287.523438 302.355469 287.523438 C 321.683594 287.523438 337.355469 303.191406 337.355469 322.523438 "/>
<path fill="none" stroke-width="2" stroke-linecap="butt" stroke-linejoin="miter" stroke="rgb(100%, 100%, 0%)" stroke-opacity="1" stroke-miterlimit="10" d="M 408.226562 404.359375 C 408.226562 383.371094 391.210938 366.359375 370.226562 366.359375 C 349.238281 366.359375 332.226562 383.371094 332.226562 404.359375 C 332.226562 425.347656 349.238281 442.359375 370.226562 442.359375 C 391.210938 442.359375 408.226562 425.347656 408.226562 404.359375 " transform="matrix(1, 0, 0, -1, 0, 700)"/>
<path fill-rule="nonzero" fill="rgb(100%, 100%, 0%)" fill-opacity="0.3" d="M 408.226562 295.640625 C 408.226562 316.628906 391.210938 333.640625 370.226562 333.640625 C 349.238281 333.640625 332.226562 316.628906 332.226562 295.640625 C 332.226562 274.652344 349.238281 257.640625 370.226562 257.640625 C 391.210938 257.640625 408.226562 274.652344 408.226562 295.640625 "/>
<path fill="none" stroke-width="2" stroke-linecap="butt" stroke-linejoin="miter" stroke="rgb(0%, 0%, 100%)" stroke-opacity="1" stroke-miterlimit="10" d="M 450.300781 335.699219 C 450.300781 313.054688 431.945312 294.699219 409.300781 294.699219 C 386.65625 294.699219 368.300781 313.054688 368.300781 335.699219 C 368.300781 358.34375 386.65625 376.699219 409.300781 376.699219 C 431.945312 376.699219 450.300781 358.34375 450.300781 335.699219 " transform="matrix(1, 0, 0, -1, 0, 700)"/>
<path fill-rule="nonzero" fill="rgb(0%, 0%, 100%)" fill-opacity="0.3" d="M 450.300781 364.300781 C 450.300781 386.945312 431.945312 405.300781 409.300781 405.300781 C 386.65625 405.300781 368.300781 386.945312 368.300781 364.300781 C 368.300781 341.65625 386.65625 323.300781 409.300781 323.300781 C 431.945312 323.300781 450.300781 341.65625 450.300781 364.300781 "/>
<path fill="none" stroke-width="2" stroke-linecap="butt" stroke-linejoin="miter" stroke="rgb(0%, 100%, 0%)" stroke-opacity="1" stroke-miterlimit="10" d="M 383.757812 286.824219 C 383.757812 262.523438 364.058594 242.824219 339.757812 242.824219 C 315.457031 242.824219 295.757812 262.523438 295.757812 286.824219 C 295.757812 311.125 315.457031 330.824219 339.757812 330.824219 C 364.058594 330.824219 383.757812 311.125 383.757812 286.824219 " transform="matrix(1, 0, 0, -1, 0, 700)"/>
<path fill-rule="nonzero" fill="rgb(0%, 100%, 0%)" fill-opacity="0.3" d="M 383.757812 413.175781 C 383.757812 437.476562 364.058594 457.175781 339.757812 457.175781 C 315.457031 457.175781 295.757812 437.476562 295.757812 413.175781 C 295.757812 388.875 315.457031 369.175781 339.757812 369.175781 C 364.058594 369.175781 383.757812 388.875 383.757812 413.175781 "/>
<path fill="none" stroke-width="2" stroke-linecap="butt" stroke-linejoin="miter" stroke="rgb(100%, 0%, 0%)" stroke-opacity="1" stroke-miterlimit="10" d="M 330.523438 358.371094 C 330.523438 332.414062 309.484375 311.371094 283.523438 311.371094 C 257.566406 311.371094 236.523438 332.414062 236.523438 358.371094 C 236.523438 384.328125 257.566406 405.371094 283.523438 405.371094 C 309.484375 405.371094 330.523438 384.328125 330.523438 358.371094 " transform="matrix(1, 0, 0, -1, 0, 700)"/>
<path fill-rule="nonzero" fill="rgb(100%, 0%, 0%)" fill-opacity="0.3" d="M 330.523438 341.628906 C 330.523438 367.585938 309.484375 388.628906 283.523438 388.628906 C 257.566406 388.628906 236.523438 367.585938 236.523438 341.628906 C 236.523438 315.671875 257.566406 294.628906 283.523438 294.628906 C 309.484375 294.628906 330.523438 315.671875 330.523438 341.628906 "/>
<path fill="none" stroke-width="2" stroke-linecap="butt" stroke-linejoin="miter" stroke="rgb(0%, 0%, 29.998779%)" stroke-opacity="1" stroke-miterlimit="10" d="M 339.324219 369.476562 C 339.324219 362.808594 329.324219 362.808594 329.324219 369.476562 C 329.324219 376.144531 339.324219 376.144531 339.324219 369.476562 " transform="matrix(1, 0, 0, -1, 0, 700)"/>
<path fill-rule="nonzero" fill="rgb(0%, 0%, 29.998779%)" fill-opacity="0.3" d="M 339.324219 330.523438 C 339.324219 337.191406 329.324219 337.191406 329.324219 330.523438 C 329.324219 323.855469 339.324219 323.855469 339.324219 330.523438 "/>
</svg>
