<?xml version="1.0" encoding="UTF-8"?>
<svg xmlns="http://www.w3.org/2000/svg" xmlns:xlink="http://www.w3.org/1999/xlink" width="700" height="700" viewBox="0 0 700 700">
<path fill="none" stroke-width="2" stroke-linecap="butt" stroke-linejoin="miter" stroke="rgb(0%, 50%, 0%)" stroke-opacity="0.6" stroke-miterlimit="10" d="M 350 350 L 375.398438 350 Z M 350 350 " transform="matrix(1, 0, 0, -1, 0, 700)"/>
<path fill="none" stroke-width="2" stroke-linecap="butt" stroke-linejoin="miter" stroke="rgb(0%, 50%, 0%)" stroke-opacity="0.6" stroke-miterlimit="10" d="M 350 350 L 375.398438 350 L 375.25 337 Z M 350 350 " transform="matrix(1, 0, 0, -1, 0, 700)"/>
<path fill="none" stroke-width="2" stroke-linecap="butt" stroke-linejoin="miter" stroke="rgb(0%, 50%, 0%)" stroke-opacity="0.6" stroke-miterlimit="10" d="M 350 350 L 375.25 337 L 363.835938 321.8125 Z M 350 350 " transform="matrix(1, 0, 0, -1, 0, 700)"/>
<path fill="none" stroke-width="2" stroke-linecap="butt" stroke-linejoin="miter" stroke="rgb(0%, 50%, 0%)" stroke-opacity="0.6" stroke-miterlimit="10" d="M 350 350 L 363.835938 321.8125 L 339.242188 317.324219 Z M 350 350 " transform="matrix(1, 0, 0, -1, 0, 700)"/>
<path fill="none" stroke-width="2" stroke-linecap="butt" stroke-linejoin="miter" stroke="rgb(0%, 50%, 0%)" stroke-opacity="0.6" stroke-miterlimit="10" d="M 350 350 L 339.242188 317.324219 L 315.042969 336.703125 Z M 350 350 " transform="matrix(1, 0, 0, -1, 0, 700)"/>
<path fill="none" stroke-width="2" stroke-linecap="butt" stroke-linejoin="miter" stroke="rgb(0%, 50%, 0%)" stroke-opacity="0.6" stroke-miterlimit="10" d="M 350 350 L 315.042969 336.703125 L 317.238281 373.636719 Z M 350 350 " transform="matrix(1, 0, 0, -1, 0, 700)"/>
<path fill="none" stroke-width="2" stroke-linecap="butt" stroke-linejoin="miter" stroke="rgb(0%, 50%, 0%)" stroke-opacity="0.6" stroke-miterlimit="10" d="M 350 350 L 317.238281 373.636719 L 355.613281 393.035156 Z M 350 350 " transform="matrix(1, 0, 0, -1, 0, 700)"/>
<path fill="none" stroke-width="2" stroke-linecap="butt" stroke-linejoin="miter" stroke="rgb(0%, 50%, 0%)" stroke-opacity="0.6" stroke-miterlimit="10" d="M 350 350 L 355.613281 393.035156 L 394.484375 363.199219 Z M 350 350 " transform="matrix(1, 0, 0, -1, 0, 700)"/>
<path fill="none" stroke-width="2" stroke-linecap="butt" stroke-linejoin="miter" stroke="rgb(0%, 50%, 0%)" stroke-opacity="0.6" stroke-miterlimit="10" d="M 350 350 L 394.484375 363.199219 L 379.40625 310.304688 Z M 350 350 " transform="matrix(1, 0, 0, -1, 0, 700)"/>
<path fill="none" stroke-width="2" stroke-linecap="butt" stroke-linejoin="miter" stroke="rgb(0%, 50%, 0%)" stroke-opacity="0.6" stroke-miterlimit="10" d="M 350 350 L 379.40625 310.304688 L 318.445312 308.167969 Z M 350 350 " transform="matrix(1, 0, 0, -1, 0, 700)"/>
<path fill="none" stroke-width="2" stroke-linecap="butt" stroke-linejoin="miter" stroke="rgb(0%, 50%, 0%)" stroke-opacity="0.6" stroke-miterlimit="10" d="M 350 350 L 318.445312 308.167969 L 299.320312 372.378906 Z M 350 350 " transform="matrix(1, 0, 0, -1, 0, 700)"/>
<path fill="none" stroke-width="2" stroke-linecap="butt" stroke-linejoin="miter" stroke="rgb(0%, 50%, 0%)" stroke-opacity="0.6" stroke-miterlimit="10" d="M 350 350 L 299.320312 372.378906 L 363.714844 406.765625 Z M 350 350 " transform="matrix(1, 0, 0, -1, 0, 700)"/>
<path fill="none" stroke-width="2" stroke-linecap="butt" stroke-linejoin="miter" stroke="rgb(0%, 50%, 0%)" stroke-opacity="0.6" stroke-miterlimit="10" d="M 350 350 L 363.714844 406.765625 L 411.058594 343.523438 Z M 350 350 " transform="matrix(1, 0, 0, -1, 0, 700)"/>
<path fill="none" stroke-width="2" stroke-linecap="butt" stroke-linejoin="miter" stroke="rgb(0%, 50%, 0%)" stroke-opacity="0.6" stroke-miterlimit="10" d="M 350 350 L 411.058594 343.523438 L 348.839844 285.609375 Z M 350 350 " transform="matrix(1, 0, 0, -1, 0, 700)"/>
<path fill="none" stroke-width="2" stroke-linecap="butt" stroke-linejoin="miter" stroke="rgb(0%, 50%, 0%)" stroke-opacity="0.6" stroke-miterlimit="10" d="M 350 350 L 348.839844 285.609375 L 282.628906 348.039062 Z M 350 350 " transform="matrix(1, 0, 0, -1, 0, 700)"/>
<path fill="none" stroke-width="2" stroke-linecap="butt" stroke-linejoin="miter" stroke="rgb(0%, 50%, 0%)" stroke-opacity="0.6" stroke-miterlimit="10" d="M 350 350 L 282.628906 348.039062 L 331.070312 366.9375 Z M 350 350 " transform="matrix(1, 0, 0, -1, 0, 700)"/>
<path fill="none" stroke-width="4" stroke-linecap="butt" stroke-linejoin="miter" stroke="rgb(0%, 0%, 0%)" stroke-opacity="1" stroke-miterlimit="10" d="M 370.398438 350 C 370.398438 338.734375 361.265625 329.601562 350 329.601562 C 338.734375 329.601562 329.601562 338.734375 329.601562 350 C 329.601562 361.265625 338.734375 370.398438 350 370.398438 C 361.265625 370.398438 370.398438 361.265625 370.398438 350 " transform="matrix(1, 0, 0, -1, 0, 700)"/>
<path fill-rule="nonzero" fill="rgb(0%, 0%, 0%)" fill-opacity="0.3" d="M 370.398438 350 C 370.398438 361.265625 361.265625 370.398438 350 370.398438 C 338.734375 370.398438 329.601562 361.265625 329.601562 350 C 329.601562 338.734375 338.734375 329.601562 350 329.601562 C 361.265625 329.601562 370.398438 338.734375 370.398438 350 "/>
<path fill="none" stroke-width="2" stroke-linecap="butt" stroke-linejoin="miter" stroke="rgb(69.999695%, 29.998779%, 9.999084%)" stroke-opacity="1" stroke-miterlimit="10" d="M 380.398438 350 C 380.398438 343.332031 370.398438 343.332031 370.398438 350 C 370.398438 356.667969 380.398438 356.667969 380.398438 350 " transform="matrix(1, 0, 0, -1, 0, 700)"/>
<path fill-rule="nonzero" fill="rgb(69.999695%, 29.998779%, 9.999084%)" fill-opacity="0.3" d="M 380.398438 350 C 380.398438 356.667969 370.398438 356.667969 370.398438 350 C 370.398438 343.332031 380.398438 343.332031 380.398438 350 "/>
<path fill="none" stroke-width="2" stroke-linecap="butt" stroke-linejoin="miter" stroke="rgb(81.999207%, 40.99884%, 10.998535%)" stroke-opacity="1" stroke-miterlimit="10" d="M 383.25 337 C 383.25 332.582031 379.667969 329 375.25 329 C 370.832031 329 367.25 332.582031 367.25 337 C 367.25 341.417969 370.832031 345 375.25 345 C 379.667969 345 383.25 341.417969 383.25 337 " transform="matrix(1, 0, 0, -1, 0, 700)"/>
<path fill-rule="nonzero" fill="rgb(81.999207%, 40.99884%, 10.998535%)" fill-opacity="0.3" d="M 383.25 363 C 383.25 367.417969 379.667969 371 375.25 371 C 370.832031 371 367.25 367.417969 367.25 363 C 367.25 358.582031 370.832031 355 375.25 355 C 379.667969 355 383.25 358.582031 383.25 363 "/>
<path fill="none" stroke-width="2" stroke-linecap="butt" stroke-linejoin="miter" stroke="rgb(100%, 53.999329%, 0%)" stroke-opacity="1" stroke-miterlimit="10" d="M 374.835938 321.8125 C 374.835938 315.738281 369.910156 310.8125 363.835938 310.8125 C 357.761719 310.8125 352.835938 315.738281 352.835938 321.8125 C 352.835938 327.886719 357.761719 332.8125 363.835938 332.8125 C 369.910156 332.8125 374.835938 327.886719 374.835938 321.8125 " transform="matrix(1, 0, 0, -1, 0, 700)"/>
<path fill-rule="nonzero" fill="rgb(100%, 53.999329%, 0%)" fill-opacity="0.3" d="M 374.835938 378.1875 C 374.835938 384.261719 369.910156 389.1875 363.835938 389.1875 C 357.761719 389.1875 352.835938 384.261719 352.835938 378.1875 C 352.835938 372.113281 357.761719 367.1875 363.835938 367.1875 C 369.910156 367.1875 374.835938 372.113281 374.835938 378.1875 "/>
<path fill="none" stroke-width="2" stroke-linecap="butt" stroke-linejoin="miter" stroke="rgb(100%, 6.999207%, 56.999207%)" stroke-opacity="1" stroke-miterlimit="10" d="M 353.242188 317.324219 C 353.242188 309.59375 346.972656 303.324219 339.242188 303.324219 C 331.507812 303.324219 325.242188 309.59375 325.242188 317.324219 C 325.242188 325.058594 331.507812 331.324219 339.242188 331.324219 C 346.972656 331.324219 353.242188 325.058594 353.242188 317.324219 " transform="matrix(1, 0, 0, -1, 0, 700)"/>
<path fill-rule="nonzero" fill="rgb(100%, 6.999207%, 56.999207%)" fill-opacity="0.3" d="M 353.242188 382.675781 C 353.242188 390.40625 346.972656 396.675781 339.242188 396.675781 C 331.507812 396.675781 325.242188 390.40625 325.242188 382.675781 C 325.242188 374.941406 331.507812 368.675781 339.242188 368.675781 C 346.972656 368.675781 353.242188 374.941406 353.242188 382.675781 "/>
<path fill="none" stroke-width="2" stroke-linecap="butt" stroke-linejoin="miter" stroke="rgb(0%, 0%, 50%)" stroke-opacity="1" stroke-miterlimit="10" d="M 332.042969 336.703125 C 332.042969 327.3125 324.433594 319.703125 315.042969 319.703125 C 305.65625 319.703125 298.042969 327.3125 298.042969 336.703125 C 298.042969 346.09375 305.65625 353.703125 315.042969 353.703125 C 324.433594 353.703125 332.042969 346.09375 332.042969 336.703125 " transform="matrix(1, 0, 0, -1, 0, 700)"/>
<path fill-rule="nonzero" fill="rgb(0%, 0%, 50%)" fill-opacity="0.3" d="M 332.042969 363.296875 C 332.042969 372.6875 324.433594 380.296875 315.042969 380.296875 C 305.65625 380.296875 298.042969 372.6875 298.042969 363.296875 C 298.042969 353.90625 305.65625 346.296875 315.042969 346.296875 C 324.433594 346.296875 332.042969 353.90625 332.042969 363.296875 "/>
<path fill="none" stroke-width="2" stroke-linecap="butt" stroke-linejoin="miter" stroke="rgb(0%, 50%, 50%)" stroke-opacity="1" stroke-miterlimit="10" d="M 337.238281 373.636719 C 337.238281 362.59375 328.28125 353.636719 317.238281 353.636719 C 306.191406 353.636719 297.238281 362.59375 297.238281 373.636719 C 297.238281 384.683594 306.191406 393.636719 317.238281 393.636719 C 328.28125 393.636719 337.238281 384.683594 337.238281 373.636719 " transform="matrix(1, 0, 0, -1, 0, 700)"/>
<path fill-rule="nonzero" fill="rgb(0%, 50%, 50%)" fill-opacity="0.3" d="M 337.238281 326.363281 C 337.238281 337.40625 328.28125 346.363281 317.238281 346.363281 C 306.191406 346.363281 297.238281 337.40625 297.238281 326.363281 C 297.238281 315.316406 306.191406 306.363281 317.238281 306.363281 C 328.28125 306.363281 337.238281 315.316406 337.238281 326.363281 "/>
<path fill="none" stroke-width="2" stroke-linecap="butt" stroke-linejoin="miter" stroke="rgb(50%, 0%, 50%)" stroke-opacity="1" stroke-miterlimit="10" d="M 378.613281 393.035156 C 378.613281 380.332031 368.316406 370.035156 355.613281 370.035156 C 342.910156 370.035156 332.613281 380.332031 332.613281 393.035156 C 332.613281 405.738281 342.910156 416.035156 355.613281 416.035156 C 368.316406 416.035156 378.613281 405.738281 378.613281 393.035156 " transform="matrix(1, 0, 0, -1, 0, 700)"/>
<path fill-rule="nonzero" fill="rgb(50%, 0%, 50%)" fill-opacity="0.3" d="M 378.613281 306.964844 C 378.613281 319.667969 368.316406 329.964844 355.613281 329.964844 C 342.910156 329.964844 332.613281 319.667969 332.613281 306.964844 C 332.613281 294.261719 342.910156 283.964844 355.613281 283.964844 C 368.316406 283.964844 378.613281 294.261719 378.613281 306.964844 "/>
<path fill="none" stroke-width="2" stroke-linecap="butt" stroke-linejoin="miter" stroke="rgb(0%, 50%, 0%)" stroke-opacity="1" stroke-miterlimit="10" d="M 420.484375 363.199219 C 420.484375 348.839844 408.84375 337.199219 394.484375 337.199219 C 380.125 337.199219 368.484375 348.839844 368.484375 363.199219 C 368.484375 377.558594 380.125 389.199219 394.484375 389.199219 C 408.84375 389.199219 420.484375 377.558594 420.484375 363.199219 " transform="matrix(1, 0, 0, -1, 0, 700)"/>
<path fill-rule="nonzero" fill="rgb(0%, 50%, 0%)" fill-opacity="0.3" d="M 420.484375 336.800781 C 420.484375 351.160156 408.84375 362.800781 394.484375 362.800781 C 380.125 362.800781 368.484375 351.160156 368.484375 336.800781 C 368.484375 322.441406 380.125 310.800781 394.484375 310.800781 C 408.84375 310.800781 420.484375 322.441406 420.484375 336.800781 "/>
<path fill="none" stroke-width="2" stroke-linecap="butt" stroke-linejoin="miter" stroke="rgb(50%, 0%, 0%)" stroke-opacity="1" stroke-miterlimit="10" d="M 408.40625 310.304688 C 408.40625 294.289062 395.421875 281.304688 379.40625 281.304688 C 363.390625 281.304688 350.40625 294.289062 350.40625 310.304688 C 350.40625 326.324219 363.390625 339.304688 379.40625 339.304688 C 395.421875 339.304688 408.40625 326.324219 408.40625 310.304688 " transform="matrix(1, 0, 0, -1, 0, 700)"/>
<path fill-rule="nonzero" fill="rgb(50%, 0%, 0%)" fill-opacity="0.3" d="M 408.40625 389.695312 C 408.40625 405.710938 395.421875 418.695312 379.40625 418.695312 C 363.390625 418.695312 350.40625 405.710938 350.40625 389.695312 C 350.40625 373.675781 363.390625 360.695312 379.40625 360.695312 C 395.421875 360.695312 408.40625 373.675781 408.40625 389.695312 "/>
<path fill="none" stroke-width="2" stroke-linecap="butt" stroke-linejoin="miter" stroke="rgb(100%, 0%, 100%)" stroke-opacity="1" stroke-miterlimit="10" d="M 350.445312 308.167969 C 350.445312 290.492188 336.117188 276.167969 318.445312 276.167969 C 300.769531 276.167969 286.445312 290.492188 286.445312 308.167969 C 286.445312 325.839844 300.769531 340.167969 318.445312 340.167969 C 336.117188 340.167969 350.445312 325.839844 350.445312 308.167969 " transform="matrix(1, 0, 0, -1, 0, 700)"/>
<path fill-rule="nonzero" fill="rgb(100%, 0%, 100%)" fill-opacity="0.3" d="M 350.445312 391.832031 C 350.445312 409.507812 336.117188 423.832031 318.445312 423.832031 C 300.769531 423.832031 286.445312 409.507812 286.445312 391.832031 C 286.445312 374.160156 300.769531 359.832031 318.445312 359.832031 C 336.117188 359.832031 350.445312 374.160156 350.445312 391.832031 "/>
<path fill="none" stroke-width="2" stroke-linecap="butt" stroke-linejoin="miter" stroke="rgb(0%, 100%, 100%)" stroke-opacity="1" stroke-miterlimit="10" d="M 334.320312 372.378906 C 334.320312 353.050781 318.652344 337.378906 299.320312 337.378906 C 279.992188 337.378906 264.320312 353.050781 264.320312 372.378906 C 264.320312 391.710938 279.992188 407.378906 299.320312 407.378906 C 318.652344 407.378906 334.320312 391.710938 334.320312 372.378906 " transform="matrix(1, 0, 0, -1, 0, 700)"/>
<path fill-rule="nonzero" fill="rgb(0%, 100%, 100%)" fill-opacity="0.3" d="M 334.320312 327.621094 C 334.320312 346.949219 318.652344 362.621094 299.320312 362.621094 C 279.992188 362.621094 264.320312 346.949219 264.320312 327.621094 C 264.320312 308.289062 279.992188 292.621094 299.320312 292.621094 C 318.652344 292.621094 334.320312 308.289062 334.320312 327.621094 "/>
<path fill="none" stroke-width="2" stroke-linecap="butt" stroke-linejoin="miter" stroke="rgb(100%, 100%, 0%)" stroke-opacity="1" stroke-miterlimit="10" d="M 401.714844 406.765625 C 401.714844 385.78125 384.703125 368.765625 363.714844 368.765625 C 342.730469 368.765625 325.714844 385.78125 325.714844 406.765625 C 325.714844 427.753906 342.730469 444.765625 363.714844 444.765625 C 384.703125 444.765625 401.714844 427.753906 401.714844 406.765625 " transform="matrix(1, 0, 0, -1, 0, 700)"/>
<path fill-rule="nonzero" fill="rgb(100%, 100%, 0%)" fill-opacity="0.3" d="M 401.714844 293.234375 C 401.714844 314.21875 384.703125 331.234375 363.714844 331.234375 C 342.730469 331.234375 325.714844 314.21875 325.714844 293.234375 C 325.714844 272.246094 342.730469 255.234375 363.714844 255.234375 C 384.703125 255.234375 401.714844 272.246094 401.714844 293.234375 "/>
<path fill="none" stroke-width="2" stroke-linecap="butt" stroke-linejoin="miter" stroke="rgb(0%, 0%, 100%)" stroke-opacity="1" stroke-miterlimit="10" d="M 452.058594 343.523438 C 452.058594 320.878906 433.699219 302.523438 411.058594 302.523438 C 388.414062 302.523438 370.058594 320.878906 370.058594 343.523438 C 370.058594 366.167969 388.414062 384.523438 411.058594 384.523438 C 433.699219 384.523438 452.058594 366.167969 452.058594 343.523438 " transform="matrix(1, 0, 0, -1, 0, 700)"/>
<path fill-rule="nonzero" fill="rgb(0%, 0%, 100%)" fill-opacity="0.3" d="M 452.058594 356.476562 C 452.058594 379.121094 433.699219 397.476562 411.058594 397.476562 C 388.414062 397.476562 370.058594 379.121094 370.058594 356.476562 C 370.058594 333.832031 388.414062 315.476562 411.058594 315.476562 C 433.699219 315.476562 452.058594 333.832031 452.058594 356.476562 "/>
<path fill="none" stroke-width="2" stroke-linecap="butt" stroke-linejoin="miter" stroke="rgb(0%, 100%, 0%)" stroke-opacity="1" stroke-miterlimit="10" d="M 392.839844 285.609375 C 392.839844 261.308594 373.140625 241.609375 348.839844 241.609375 C 324.539062 241.609375 304.839844 261.308594 304.839844 285.609375 C 304.839844 309.910156 324.539062 329.609375 348.839844 329.609375 C 373.140625 329.609375 392.839844 309.910156 392.839844 285.609375 " transform="matrix(1, 0, 0, -1, 0, 700)"/>
<path fill-rule="nonzero" fill="rgb(0%, 100%, 0%)" fill-opacity="0.3" d="M 392.839844 414.390625 C 392.839844 438.691406 373.140625 458.390625 348.839844 458.390625 C 324.539062 458.390625 304.839844 438.691406 304.839844 414.390625 C 304.839844 390.089844 324.539062 370.390625 348.839844 370.390625 C 373.140625 370.390625 392.839844 390.089844 392.839844 414.390625 "/>
<path fill="none" stroke-width="2" stroke-linecap="butt" stroke-linejoin="miter" stroke="rgb(100%, 0%, 0%)" stroke-opacity="1" stroke-miterlimit="10" d="M 329.628906 348.039062 C 329.628906 322.082031 308.585938 301.039062 282.628906 301.039062 C 256.671875 301.039062 235.628906 322.082031 235.628906 348.039062 C 235.628906 373.996094 256.671875 395.039062 282.628906 395.039062 C 308.585938 395.039062 329.628906 373.996094 329.628906 348.039062 " transform="matrix(1, 0, 0, -1, 0, 700)"/>
<path fill-rule="nonzero" fill="rgb(100%, 0%, 0%)" fill-opacity="0.3" d="M 329.628906 351.960938 C 329.628906 377.917969 308.585938 398.960938 282.628906 398.960938 C 256.671875 398.960938 235.628906 377.917969 235.628906 351.960938 C 235.628906 326.003906 256.671875 304.960938 282.628906 304.960938 C 308.585938 304.960938 329.628906 326.003906 329.628906 351.960938 "/>
<path fill="none" stroke-width="2" stroke-linecap="butt" stroke-linejoin="miter" stroke="rgb(0%, 0%, 29.998779%)" stroke-opacity="1" stroke-miterlimit="10" d="M 336.070312 366.9375 C 336.070312 360.269531 326.070312 360.269531 326.070312 366.9375 C 326.070312 373.605469 336.070312 373.605469 336.070312 366.9375 " transform="matrix(1, 0, 0, -1, 0, 700)"/>
<path fill-rule="nonzero" fill="rgb(0%, 0%, 29.998779%)" fill-opacity="0.3" d="M 336.070312 333.0625 C 336.070312 339.730469 326.070312 339.730469 326.070312 333.0625 C 326.070312 326.394531 336.070312 326.394531 336.070312 333.0625 "/>
</svg>
