<?xml version="1.0" encoding="UTF-8"?>
<svg xmlns="http://www.w3.org/2000/svg" xmlns:xlink="http://www.w3.org/1999/xlink" width="700" height="700" viewBox="0 0 700 700">
<path fill="none" stroke-width="2" stroke-linecap="butt" stroke-linejoin="miter" stroke="rgb(0%, 50%, 0%)" stroke-opacity="0.6" stroke-miterlimit="10" d="M 350 350 L 375.808594 350 Z M 350 350 " transform="matrix(1, 0, 0, -1, 0, 700)"/>
<path fill="none" stroke-width="2" stroke-linecap="butt" stroke-linejoin="miter" stroke="rgb(0%, 50%, 0%)" stroke-opacity="0.6" stroke-miterlimit="10" d="M 350 350 L 375.808594 350 L 375.707031 337 Z M 350 350 " transform="matrix(1, 0, 0, -1, 0, 700)"/>
<path fill="none" stroke-width="2" stroke-linecap="butt" stroke-linejoin="miter" stroke="rgb(0%, 50%, 0%)" stroke-opacity="0.6" stroke-miterlimit="10" d="M 350 350 L 375.707031 337 L 364.476562 321.675781 Z M 350 350 " transform="matrix(1, 0, 0, -1, 0, 700)"/>
<path fill="none" stroke-width="2" stroke-linecap="butt" stroke-linejoin="miter" stroke="rgb(0%, 50%, 0%)" stroke-opacity="0.6" stroke-miterlimit="10" d="M 350 350 L 364.476562 321.675781 L 339.984375 316.664062 Z M 350 350 " transform="matrix(1, 0, 0, -1, 0, 700)"/>
<path fill="none" stroke-width="2" stroke-linecap="butt" stroke-linejoin="miter" stroke="rgb(0%, 50%, 0%)" stroke-opacity="0.6" stroke-miterlimit="10" d="M 350 350 L 339.984375 316.664062 L 315.183594 335.265625 Z M 350 350 " transform="matrix(1, 0, 0, -1, 0, 700)"/>
<path fill="none" stroke-width="2" stroke-linecap="butt" stroke-linejoin="miter" stroke="rgb(0%, 50%, 0%)" stroke-opacity="0.6" stroke-miterlimit="10" d="M 350 350 L 315.183594 335.265625 L 315.796875 372.257812 Z M 350 350 " transform="matrix(1, 0, 0, -1, 0, 700)"/>
<path fill="none" stroke-width="2" stroke-linecap="butt" stroke-linejoin="miter" stroke="rgb(0%, 50%, 0%)" stroke-opacity="0.6" stroke-miterlimit="10" d="M 350 350 L 315.796875 372.257812 L 353.070312 393.699219 Z M 350 350 " transform="matrix(1, 0, 0, -1, 0, 700)"/>
<path fill="none" stroke-width="2" stroke-linecap="butt" stroke-linejoin="miter" stroke="rgb(0%, 50%, 0%)" stroke-opacity="0.6" stroke-miterlimit="10" d="M 350 350 L 353.070312 393.699219 L 393.8125 366.476562 Z M 350 350 " transform="matrix(1, 0, 0, -1, 0, 700)"/>
<path fill="none" stroke-width="2" stroke-linecap="butt" stroke-linejoin="miter" stroke="rgb(0%, 50%, 0%)" stroke-opacity="0.6" stroke-miterlimit="10" d="M 350 350 L 393.8125 366.476562 L 382.867188 312.578125 Z M 350 350 " transform="matrix(1, 0, 0, -1, 0, 700)"/>
<path fill="none" stroke-width="2" stroke-linecap="butt" stroke-linejoin="miter" stroke="rgb(0%, 50%, 0%)" stroke-opacity="0.6" stroke-miterlimit="10" d="M 350 350 L 382.867188 312.578125 L 322.339844 305.015625 Z M 350 350 " transform="matrix(1, 0, 0, -1, 0, 700)"/>
<path fill="none" stroke-width="2" stroke-linecap="butt" stroke-linejoin="miter" stroke="rgb(0%, 50%, 0%)" stroke-opacity="0.6" stroke-miterlimit="10" d="M 350 350 L 322.339844 305.015625 L 296.835938 366.972656 Z M 350 350 " transform="matrix(1, 0, 0, -1, 0, 700)"/>
<path fill="none" stroke-width="2" stroke-linecap="butt" stroke-linejoin="miter" stroke="rgb(0%, 50%, 0%)" stroke-opacity="0.6" stroke-miterlimit="10" d="M 350 350 L 296.835938 366.972656 L 356.941406 408.398438 Z M 350 350 " transform="matrix(1, 0, 0, -1, 0, 700)"/>
<path fill="none" stroke-width="2" stroke-linecap="butt" stroke-linejoin="miter" stroke="rgb(0%, 50%, 0%)" stroke-opacity="0.6" stroke-miterlimit="10" d="M 350 350 L 356.941406 408.398438 L 411.789062 351.539062 Z M 350 350 " transform="matrix(1, 0, 0, -1, 0, 700)"/>
<path fill="none" stroke-width="2" stroke-linecap="butt" stroke-linejoin="miter" stroke="rgb(0%, 50%, 0%)" stroke-opacity="0.6" stroke-miterlimit="10" d="M 350 350 L 411.789062 351.539062 L 358.035156 285.691406 Z M 350 350 " transform="matrix(1, 0, 0, -1, 0, 700)"/>
<path fill="none" stroke-width="2" stroke-linecap="butt" stroke-linejoin="miter" stroke="rgb(0%, 50%, 0%)" stroke-opacity="0.6" stroke-miterlimit="10" d="M 350 350 L 358.035156 285.691406 L 283.328125 337.648438 Z M 350 350 " transform="matrix(1, 0, 0, -1, 0, 700)"/>
<path fill="none" stroke-width="2" stroke-linecap="butt" stroke-linejoin="miter" stroke="rgb(0%, 50%, 0%)" stroke-opacity="0.6" stroke-miterlimit="10" d="M 350 350 L 283.328125 337.648438 L 328.234375 363.867188 Z M 350 350 " transform="matrix(1, 0, 0, -1, 0, 700)"/>
<path fill="none" stroke-width="4" stroke-linecap="butt" stroke-linejoin="miter" stroke="rgb(0%, 0%, 0%)" stroke-opacity="1" stroke-miterlimit="10" d="M 370.808594 350 C 370.808594 338.507812 361.492188 329.191406 350 329.191406 C 338.507812 329.191406 329.191406 338.507812 329.191406 350 C 329.191406 361.492188 338.507812 370.808594 350 370.808594 C 361.492188 370.808594 370.808594 361.492188 370.808594 350 " transform="matrix(1, 0, 0, -1, 0, 700)"/>
<path fill-rule="nonzero" fill="rgb(0%, 0%, 0%)" fill-opacity="0.3" d="M 370.808594 350 C 370.808594 361.492188 361.492188 370.808594 350 370.808594 C 338.507812 370.808594 329.191406 361.492188 329.191406 350 C 329.191406 338.507812 338.507812 329.191406 350 329.191406 C 361.492188 329.191406 370.808594 338.507812 370.808594 350 "/>
<path fill="none" stroke-width="2" stroke-linecap="butt" stroke-linejoin="miter" stroke="rgb(69.999695%, 29.998779%, 9.999084%)" stroke-opacity="1" stroke-miterlimit="10" d="M 380.808594 350 C 380.808594 343.332031 370.808594 343.332031 370.808594 350 C 370.808594 356.667969 380.808594 356.667969 380.808594 350 " transform="matrix(1, 0, 0, -1, 0, 700)"/>
<path fill-rule="nonzero" fill="rgb(69.999695%, 29.998779%, 9.999084%)" fill-opacity="0.3" d="M 380.808594 350 C 380.808594 356.667969 370.808594 356.667969 370.808594 350 C 370.808594 343.332031 380.808594 343.332031 380.808594 350 "/>
<path fill="none" stroke-width="2" stroke-linecap="butt" stroke-linejoin="miter" stroke="rgb(81.999207%, 40.99884%, 10.998535%)" stroke-opacity="1" stroke-miterlimit="10" d="M 383.707031 337 C 383.707031 332.582031 380.125 329 375.707031 329 C 371.289062 329 367.707031 332.582031 367.707031 337 C 367.707031 341.417969 371.289062 345 375.707031 345 C 380.125 345 383.707031 341.417969 383.707031 337 " transform="matrix(1, 0, 0, -1, 0, 700)"/>
<path fill-rule="nonzero" fill="rgb(81.999207%, 40.99884%, 10.998535%)" fill-opacity="0.3" d="M 383.707031 363 C 383.707031 367.417969 380.125 371 375.707031 371 C 371.289062 371 367.707031 367.417969 367.707031 363 C 367.707031 358.582031 371.289062 355 375.707031 355 C 380.125 355 383.707031 358.582031 383.707031 363 "/>
<path fill="none" stroke-width="2" stroke-linecap="butt" stroke-linejoin="miter" stroke="rgb(100%, 53.999329%, 0%)" stroke-opacity="1" stroke-miterlimit="10" d="M 375.476562 321.675781 C 375.476562 315.601562 370.550781 310.675781 364.476562 310.675781 C 358.398438 310.675781 353.476562 315.601562 353.476562 321.675781 C 353.476562 327.75 358.398438 332.675781 364.476562 332.675781 C 370.550781 332.675781 375.476562 327.75 375.476562 321.675781 " transform="matrix(1, 0, 0, -1, 0, 700)"/>
<path fill-rule="nonzero" fill="rgb(100%, 53.999329%, 0%)" fill-opacity="0.3" d="M 375.476562 378.324219 C 375.476562 384.398438 370.550781 389.324219 364.476562 389.324219 C 358.398438 389.324219 353.476562 384.398438 353.476562 378.324219 C 353.476562 372.25 358.398438 367.324219 364.476562 367.324219 C 370.550781 367.324219 375.476562 372.25 375.476562 378.324219 "/>
<path fill="none" stroke-width="2" stroke-linecap="butt" stroke-linejoin="miter" stroke="rgb(100%, 6.999207%, 56.999207%)" stroke-opacity="1" stroke-miterlimit="10" d="M 353.984375 316.664062 C 353.984375 308.933594 347.714844 302.664062 339.984375 302.664062 C 332.25 302.664062 325.984375 308.933594 325.984375 316.664062 C 325.984375 324.398438 332.25 330.664062 339.984375 330.664062 C 347.714844 330.664062 353.984375 324.398438 353.984375 316.664062 " transform="matrix(1, 0, 0, -1, 0, 700)"/>
<path fill-rule="nonzero" fill="rgb(100%, 6.999207%, 56.999207%)" fill-opacity="0.3" d="M 353.984375 383.335938 C 353.984375 391.066406 347.714844 397.335938 339.984375 397.335938 C 332.25 397.335938 325.984375 391.066406 325.984375 383.335938 C 325.984375 375.601562 332.25 369.335938 339.984375 369.335938 C 347.714844 369.335938 353.984375 375.601562 353.984375 383.335938 "/>
<path fill="none" stroke-width="2" stroke-linecap="butt" stroke-linejoin="miter" stroke="rgb(0%, 0%, 50%)" stroke-opacity="1" stroke-miterlimit="10" d="M 332.183594 335.265625 C 332.183594 325.875 324.570312 318.265625 315.183594 318.265625 C 305.792969 318.265625 298.183594 325.875 298.183594 335.265625 C 298.183594 344.652344 305.792969 352.265625 315.183594 352.265625 C 324.570312 352.265625 332.183594 344.652344 332.183594 335.265625 " transform="matrix(1, 0, 0, -1, 0, 700)"/>
<path fill-rule="nonzero" fill="rgb(0%, 0%, 50%)" fill-opacity="0.3" d="M 332.183594 364.734375 C 332.183594 374.125 324.570312 381.734375 315.183594 381.734375 C 305.792969 381.734375 298.183594 374.125 298.183594 364.734375 C 298.183594 355.347656 305.792969 347.734375 315.183594 347.734375 C 324.570312 347.734375 332.183594 355.347656 332.183594 364.734375 "/>
<path fill="none" stroke-width="2" stroke-linecap="butt" stroke-linejoin="miter" stroke="rgb(0%, 50%, 50%)" stroke-opacity="1" stroke-miterlimit="10" d="M 335.796875 372.257812 C 335.796875 361.214844 326.84375 352.257812 315.796875 352.257812 C 304.75 352.257812 295.796875 361.214844 295.796875 372.257812 C 295.796875 383.304688 304.75 392.257812 315.796875 392.257812 C 326.84375 392.257812 335.796875 383.304688 335.796875 372.257812 " transform="matrix(1, 0, 0, -1, 0, 700)"/>
<path fill-rule="nonzero" fill="rgb(0%, 50%, 50%)" fill-opacity="0.3" d="M 335.796875 327.742188 C 335.796875 338.785156 326.84375 347.742188 315.796875 347.742188 C 304.75 347.742188 295.796875 338.785156 295.796875 327.742188 C 295.796875 316.695312 304.75 307.742188 315.796875 307.742188 C 326.84375 307.742188 335.796875 316.695312 335.796875 327.742188 "/>
<path fill="none" stroke-width="2" stroke-linecap="butt" stroke-linejoin="miter" stroke="rgb(50%, 0%, 50%)" stroke-opacity="1" stroke-miterlimit="10" d="M 376.070312 393.699219 C 376.070312 380.996094 365.773438 370.699219 353.070312 370.699219 C 340.367188 370.699219 330.070312 380.996094 330.070312 393.699219 C 330.070312 406.402344 340.367188 416.699219 353.070312 416.699219 C 365.773438 416.699219 376.070312 406.402344 376.070312 393.699219 " transform="matrix(1, 0, 0, -1, 0, 700)"/>
<path fill-rule="nonzero" fill="rgb(50%, 0%, 50%)" fill-opacity="0.3" d="M 376.070312 306.300781 C 376.070312 319.003906 365.773438 329.300781 353.070312 329.300781 C 340.367188 329.300781 330.070312 319.003906 330.070312 306.300781 C 330.070312 293.597656 340.367188 283.300781 353.070312 283.300781 C 365.773438 283.300781 376.070312 293.597656 376.070312 306.300781 "/>
<path fill="none" stroke-width="2" stroke-linecap="butt" stroke-linejoin="miter" stroke="rgb(0%, 50%, 0%)" stroke-opacity="1" stroke-miterlimit="10" d="M 419.8125 366.476562 C 419.8125 352.117188 408.171875 340.476562 393.8125 340.476562 C 379.453125 340.476562 367.8125 352.117188 367.8125 366.476562 C 367.8125 380.835938 379.453125 392.476562 393.8125 392.476562 C 408.171875 392.476562 419.8125 380.835938 419.8125 366.476562 " transform="matrix(1, 0, 0, -1, 0, 700)"/>
<path fill-rule="nonzero" fill="rgb(0%, 50%, 0%)" fill-opacity="0.3" d="M 419.8125 333.523438 C 419.8125 347.882812 408.171875 359.523438 393.8125 359.523438 C 379.453125 359.523438 367.8125 347.882812 367.8125 333.523438 C 367.8125 319.164062 379.453125 307.523438 393.8125 307.523438 C 408.171875 307.523438 419.8125 319.164062 419.8125 333.523438 "/>
<path fill="none" stroke-width="2" stroke-linecap="butt" stroke-linejoin="miter" stroke="rgb(50%, 0%, 0%)" stroke-opacity="1" stroke-miterlimit="10" d="M 411.867188 312.578125 C 411.867188 296.5625 398.886719 283.578125 382.867188 283.578125 C 366.851562 283.578125 353.867188 296.5625 353.867188 312.578125 C 353.867188 328.59375 366.851562 341.578125 382.867188 341.578125 C 398.886719 341.578125 411.867188 328.59375 411.867188 312.578125 " transform="matrix(1, 0, 0, -1, 0, 700)"/>
<path fill-rule="nonzero" fill="rgb(50%, 0%, 0%)" fill-opacity="0.3" d="M 411.867188 387.421875 C 411.867188 403.4375 398.886719 416.421875 382.867188 416.421875 C 366.851562 416.421875 353.867188 403.4375 353.867188 387.421875 C 353.867188 371.40625 366.851562 358.421875 382.867188 358.421875 C 398.886719 358.421875 411.867188 371.40625 411.867188 387.421875 "/>
<path fill="none" stroke-width="2" stroke-linecap="butt" stroke-linejoin="miter" stroke="rgb(100%, 0%, 100%)" stroke-opacity="1" stroke-miterlimit="10" d="M 354.339844 305.015625 C 354.339844 287.34375 340.011719 273.015625 322.339844 273.015625 C 304.667969 273.015625 290.339844 287.34375 290.339844 305.015625 C 290.339844 322.6875 304.667969 337.015625 322.339844 337.015625 C 340.011719 337.015625 354.339844 322.6875 354.339844 305.015625 " transform="matrix(1, 0, 0, -1, 0, 700)"/>
<path fill-rule="nonzero" fill="rgb(100%, 0%, 100%)" fill-opacity="0.3" d="M 354.339844 394.984375 C 354.339844 412.65625 340.011719 426.984375 322.339844 426.984375 C 304.667969 426.984375 290.339844 412.65625 290.339844 394.984375 C 290.339844 377.3125 304.667969 362.984375 322.339844 362.984375 C 340.011719 362.984375 354.339844 377.3125 354.339844 394.984375 "/>
<path fill="none" stroke-width="2" stroke-linecap="butt" stroke-linejoin="miter" stroke="rgb(0%, 100%, 100%)" stroke-opacity="1" stroke-miterlimit="10" d="M 331.835938 366.972656 C 331.835938 347.640625 316.164062 331.972656 296.835938 331.972656 C 277.503906 331.972656 261.835938 347.640625 261.835938 366.972656 C 261.835938 386.300781 277.503906 401.972656 296.835938 401.972656 C 316.164062 401.972656 331.835938 386.300781 331.835938 366.972656 " transform="matrix(1, 0, 0, -1, 0, 700)"/>
<path fill-rule="nonzero" fill="rgb(0%, 100%, 100%)" fill-opacity="0.3" d="M 331.835938 333.027344 C 331.835938 352.359375 316.164062 368.027344 296.835938 368.027344 C 277.503906 368.027344 261.835938 352.359375 261.835938 333.027344 C 261.835938 313.699219 277.503906 298.027344 296.835938 298.027344 C 316.164062 298.027344 331.835938 313.699219 331.835938 333.027344 "/>
<path fill="none" stroke-width="2" stroke-linecap="butt" stroke-linejoin="miter" stroke="rgb(100%, 100%, 0%)" stroke-opacity="1" stroke-miterlimit="10" d="M 394.941406 408.398438 C 394.941406 387.410156 377.929688 370.398438 356.941406 370.398438 C 335.957031 370.398438 318.941406 387.410156 318.941406 408.398438 C 318.941406 429.382812 335.957031 446.398438 356.941406 446.398438 C 377.929688 446.398438 394.941406 429.382812 394.941406 408.398438 " transform="matrix(1, 0, 0, -1, 0, 700)"/>
<path fill-rule="nonzero" fill="rgb(100%, 100%, 0%)" fill-opacity="0.3" d="M 394.941406 291.601562 C 394.941406 312.589844 377.929688 329.601562 356.941406 329.601562 C 335.957031 329.601562 318.941406 312.589844 318.941406 291.601562 C 318.941406 270.617188 335.957031 253.601562 356.941406 253.601562 C 377.929688 253.601562 394.941406 270.617188 394.941406 291.601562 "/>
<path fill="none" stroke-width="2" stroke-linecap="butt" stroke-linejoin="miter" stroke="rgb(0%, 0%, 100%)" stroke-opacity="1" stroke-miterlimit="10" d="M 452.789062 351.539062 C 452.789062 328.894531 434.433594 310.539062 411.789062 310.539062 C 389.144531 310.539062 370.789062 328.894531 370.789062 351.539062 C 370.789062 374.179688 389.144531 392.539062 411.789062 392.539062 C 434.433594 392.539062 452.789062 374.179688 452.789062 351.539062 " transform="matrix(1, 0, 0, -1, 0, 700)"/>
<path fill-rule="nonzero" fill="rgb(0%, 0%, 100%)" fill-opacity="0.3" d="M 452.789062 348.460938 C 452.789062 371.105469 434.433594 389.460938 411.789062 389.460938 C 389.144531 389.460938 370.789062 371.105469 370.789062 348.460938 C 370.789062 325.820312 389.144531 307.460938 411.789062 307.460938 C 434.433594 307.460938 452.789062 325.820312 452.789062 348.460938 "/>
<path fill="none" stroke-width="2" stroke-linecap="butt" stroke-linejoin="miter" stroke="rgb(0%, 100%, 0%)" stroke-opacity="1" stroke-miterlimit="10" d="M 402.035156 285.691406 C 402.035156 261.390625 382.335938 241.691406 358.035156 241.691406 C 333.734375 241.691406 314.035156 261.390625 314.035156 285.691406 C 314.035156 309.992188 333.734375 329.691406 358.035156 329.691406 C 382.335938 329.691406 402.035156 309.992188 402.035156 285.691406 " transform="matrix(1, 0, 0, -1, 0, 700)"/>
<path fill-rule="nonzero" fill="rgb(0%, 100%, 0%)" fill-opacity="0.3" d="M 402.035156 414.308594 C 402.035156 438.609375 382.335938 458.308594 358.035156 458.308594 C 333.734375 458.308594 314.035156 438.609375 314.035156 414.308594 C 314.035156 390.007812 333.734375 370.308594 358.035156 370.308594 C 382.335938 370.308594 402.035156 390.007812 402.035156 414.308594 "/>
<path fill="none" stroke-width="2" stroke-linecap="butt" stroke-linejoin="miter" stroke="rgb(100%, 0%, 0%)" stroke-opacity="1" stroke-miterlimit="10" d="M 330.328125 337.648438 C 330.328125 311.691406 309.285156 290.648438 283.328125 290.648438 C 257.367188 290.648438 236.328125 311.691406 236.328125 337.648438 C 236.328125 363.605469 257.367188 384.648438 283.328125 384.648438 C 309.285156 384.648438 330.328125 363.605469 330.328125 337.648438 " transform="matrix(1, 0, 0, -1, 0, 700)"/>
<path fill-rule="nonzero" fill="rgb(100%, 0%, 0%)" fill-opacity="0.3" d="M 330.328125 362.351562 C 330.328125 388.308594 309.285156 409.351562 283.328125 409.351562 C 257.367188 409.351562 236.328125 388.308594 236.328125 362.351562 C 236.328125 336.394531 257.367188 315.351562 283.328125 315.351562 C 309.285156 315.351562 330.328125 336.394531 330.328125 362.351562 "/>
<path fill="none" stroke-width="2" stroke-linecap="butt" stroke-linejoin="miter" stroke="rgb(0%, 0%, 29.998779%)" stroke-opacity="1" stroke-miterlimit="10" d="M 333.234375 363.867188 C 333.234375 357.199219 323.234375 357.199219 323.234375 363.867188 C 323.234375 370.53125 333.234375 370.53125 333.234375 363.867188 " transform="matrix(1, 0, 0, -1, 0, 700)"/>
<path fill-rule="nonzero" fill="rgb(0%, 0%, 29.998779%)" fill-opacity="0.3" d="M 333.234375 336.132812 C 333.234375 342.800781 323.234375 342.800781 323.234375 336.132812 C 323.234375 329.46875 333.234375 329.46875 333.234375 336.132812 "/>
</svg>
