<?xml version="1.0" encoding="UTF-8"?>
<svg xmlns="http://www.w3.org/2000/svg" xmlns:xlink="http://www.w3.org/1999/xlink" width="700" height="700" viewBox="0 0 700 700">
<path fill="none" stroke-width="2" stroke-linecap="butt" stroke-linejoin="miter" stroke="rgb(0%, 50%, 0%)" stroke-opacity="0.6" stroke-miterlimit="10" d="M 350 350 L 376.222656 350 Z M 350 350 " transform="matrix(1, 0, 0, -1, 0, 700)"/>
<path fill="none" stroke-width="2" stroke-linecap="butt" stroke-linejoin="miter" stroke="rgb(0%, 50%, 0%)" stroke-opacity="0.6" stroke-miterlimit="10" d="M 350 350 L 376.222656 350 L 376.171875 337 Z M 350 350 " transform="matrix(1, 0, 0, -1, 0, 700)"/>
<path fill="none" stroke-width="2" stroke-linecap="butt" stroke-linejoin="miter" stroke="rgb(0%, 50%, 0%)" stroke-opacity="0.6" stroke-miterlimit="10" d="M 350 350 L 376.171875 337 L 365.121094 321.542969 Z M 350 350 " transform="matrix(1, 0, 0, -1, 0, 700)"/>
<path fill="none" stroke-width="2" stroke-linecap="butt" stroke-linejoin="miter" stroke="rgb(0%, 50%, 0%)" stroke-opacity="0.6" stroke-miterlimit="10" d="M 350 350 L 365.121094 321.542969 L 340.742188 316.015625 Z M 350 350 " transform="matrix(1, 0, 0, -1, 0, 700)"/>
<path fill="none" stroke-width="2" stroke-linecap="butt" stroke-linejoin="miter" stroke="rgb(0%, 50%, 0%)" stroke-opacity="0.6" stroke-miterlimit="10" d="M 350 350 L 340.742188 316.015625 L 315.367188 333.824219 Z M 350 350 " transform="matrix(1, 0, 0, -1, 0, 700)"/>
<path fill="none" stroke-width="2" stroke-linecap="butt" stroke-linejoin="miter" stroke="rgb(0%, 50%, 0%)" stroke-opacity="0.6" stroke-miterlimit="10" d="M 350 350 L 315.367188 333.824219 L 314.414062 370.8125 Z M 350 350 " transform="matrix(1, 0, 0, -1, 0, 700)"/>
<path fill="none" stroke-width="2" stroke-linecap="butt" stroke-linejoin="miter" stroke="rgb(0%, 50%, 0%)" stroke-opacity="0.6" stroke-miterlimit="10" d="M 350 350 L 314.414062 370.8125 L 350.484375 394.222656 Z M 350 350 " transform="matrix(1, 0, 0, -1, 0, 700)"/>
<path fill="none" stroke-width="2" stroke-linecap="butt" stroke-linejoin="miter" stroke="rgb(0%, 50%, 0%)" stroke-opacity="0.6" stroke-miterlimit="10" d="M 350 350 L 350.484375 394.222656 L 392.914062 369.710938 Z M 350 350 " transform="matrix(1, 0, 0, -1, 0, 700)"/>
<path fill="none" stroke-width="2" stroke-linecap="butt" stroke-linejoin="miter" stroke="rgb(0%, 50%, 0%)" stroke-opacity="0.6" stroke-miterlimit="10" d="M 350 350 L 392.914062 369.710938 L 386.148438 315.128906 Z M 350 350 " transform="matrix(1, 0, 0, -1, 0, 700)"/>
<path fill="none" stroke-width="2" stroke-linecap="butt" stroke-linejoin="miter" stroke="rgb(0%, 50%, 0%)" stroke-opacity="0.6" stroke-miterlimit="10" d="M 350 350 L 386.148438 315.128906 L 326.527344 302.230469 Z M 350 350 " transform="matrix(1, 0, 0, -1, 0, 700)"/>
<path fill="none" stroke-width="2" stroke-linecap="butt" stroke-linejoin="miter" stroke="rgb(0%, 50%, 0%)" stroke-opacity="0.6" stroke-miterlimit="10" d="M 350 350 L 326.527344 302.230469 L 294.925781 361.3125 Z M 350 350 " transform="matrix(1, 0, 0, -1, 0, 700)"/>
<path fill="none" stroke-width="2" stroke-linecap="butt" stroke-linejoin="miter" stroke="rgb(0%, 50%, 0%)" stroke-opacity="0.6" stroke-miterlimit="10" d="M 350 350 L 294.925781 361.3125 L 350 409.222656 Z M 350 350 " transform="matrix(1, 0, 0, -1, 0, 700)"/>
<path fill="none" stroke-width="2" stroke-linecap="butt" stroke-linejoin="miter" stroke="rgb(0%, 50%, 0%)" stroke-opacity="0.6" stroke-miterlimit="10" d="M 350 350 L 350 409.222656 L 411.476562 359.609375 Z M 350 350 " transform="matrix(1, 0, 0, -1, 0, 700)"/>
<path fill="none" stroke-width="2" stroke-linecap="butt" stroke-linejoin="miter" stroke="rgb(0%, 50%, 0%)" stroke-opacity="0.6" stroke-miterlimit="10" d="M 350 350 L 411.476562 359.609375 L 367.164062 287.074219 Z M 350 350 " transform="matrix(1, 0, 0, -1, 0, 700)"/>
<path fill="none" stroke-width="2" stroke-linecap="butt" stroke-linejoin="miter" stroke="rgb(0%, 50%, 0%)" stroke-opacity="0.6" stroke-miterlimit="10" d="M 350 350 L 367.164062 287.074219 L 285.609375 327.449219 Z M 350 350 " transform="matrix(1, 0, 0, -1, 0, 700)"/>
<path fill="none" stroke-width="2" stroke-linecap="butt" stroke-linejoin="miter" stroke="rgb(0%, 50%, 0%)" stroke-opacity="0.6" stroke-miterlimit="10" d="M 350 350 L 285.609375 327.449219 L 325.894531 360.328125 Z M 350 350 " transform="matrix(1, 0, 0, -1, 0, 700)"/>
<path fill="none" stroke-width="4" stroke-linecap="butt" stroke-linejoin="miter" stroke="rgb(0%, 0%, 0%)" stroke-opacity="1" stroke-miterlimit="10" d="M 371.222656 350 C 371.222656 338.277344 361.722656 328.777344 350 328.777344 C 338.277344 328.777344 328.777344 338.277344 328.777344 350 C 328.777344 361.722656 338.277344 371.222656 350 371.222656 C 361.722656 371.222656 371.222656 361.722656 371.222656 350 " transform="matrix(1, 0, 0, -1, 0, 700)"/>
<path fill-rule="nonzero" fill="rgb(0%, 0%, 0%)" fill-opacity="0.3" d="M 371.222656 350 C 371.222656 361.722656 361.722656 371.222656 350 371.222656 C 338.277344 371.222656 328.777344 361.722656 328.777344 350 C 328.777344 338.277344 338.277344 328.777344 350 328.777344 C 361.722656 328.777344 371.222656 338.277344 371.222656 350 "/>
<path fill="none" stroke-width="2" stroke-linecap="butt" stroke-linejoin="miter" stroke="rgb(69.999695%, 29.998779%, 9.999084%)" stroke-opacity="1" stroke-miterlimit="10" d="M 381.222656 350 C 381.222656 343.332031 371.222656 343.332031 371.222656 350 C 371.222656 356.667969 381.222656 356.667969 381.222656 350 " transform="matrix(1, 0, 0, -1, 0, 700)"/>
<path fill-rule="nonzero" fill="rgb(69.999695%, 29.998779%, 9.999084%)" fill-opacity="0.3" d="M 381.222656 350 C 381.222656 356.667969 371.222656 356.667969 371.222656 350 C 371.222656 343.332031 381.222656 343.332031 381.222656 350 "/>
<path fill="none" stroke-width="2" stroke-linecap="butt" stroke-linejoin="miter" stroke="rgb(81.999207%, 40.99884%, 10.998535%)" stroke-opacity="1" stroke-miterlimit="10" d="M 384.171875 337 C 384.171875 332.582031 380.59375 329 376.171875 329 C 371.753906 329 368.171875 332.582031 368.171875 337 C 368.171875 341.417969 371.753906 345 376.171875 345 C 380.59375 345 384.171875 341.417969 384.171875 337 " transform="matrix(1, 0, 0, -1, 0, 700)"/>
<path fill-rule="nonzero" fill="rgb(81.999207%, 40.99884%, 10.998535%)" fill-opacity="0.3" d="M 384.171875 363 C 384.171875 367.417969 380.59375 371 376.171875 371 C 371.753906 371 368.171875 367.417969 368.171875 363 C 368.171875 358.582031 371.753906 355 376.171875 355 C 380.59375 355 384.171875 358.582031 384.171875 363 "/>
<path fill="none" stroke-width="2" stroke-linecap="butt" stroke-linejoin="miter" stroke="rgb(100%, 53.999329%, 0%)" stroke-opacity="1" stroke-miterlimit="10" d="M 376.121094 321.542969 C 376.121094 315.46875 371.199219 310.542969 365.121094 310.542969 C 359.046875 310.542969 354.121094 315.46875 354.121094 321.542969 C 354.121094 327.621094 359.046875 332.542969 365.121094 332.542969 C 371.199219 332.542969 376.121094 327.621094 376.121094 321.542969 " transform="matrix(1, 0, 0, -1, 0, 700)"/>
<path fill-rule="nonzero" fill="rgb(100%, 53.999329%, 0%)" fill-opacity="0.3" d="M 376.121094 378.457031 C 376.121094 384.53125 371.199219 389.457031 365.121094 389.457031 C 359.046875 389.457031 354.121094 384.53125 354.121094 378.457031 C 354.121094 372.378906 359.046875 367.457031 365.121094 367.457031 C 371.199219 367.457031 376.121094 372.378906 376.121094 378.457031 "/>
<path fill="none" stroke-width="2" stroke-linecap="butt" stroke-linejoin="miter" stroke="rgb(100%, 6.999207%, 56.999207%)" stroke-opacity="1" stroke-miterlimit="10" d="M 354.742188 316.015625 C 354.742188 308.28125 348.472656 302.015625 340.742188 302.015625 C 333.007812 302.015625 326.742188 308.28125 326.742188 316.015625 C 326.742188 323.746094 333.007812 330.015625 340.742188 330.015625 C 348.472656 330.015625 354.742188 323.746094 354.742188 316.015625 " transform="matrix(1, 0, 0, -1, 0, 700)"/>
<path fill-rule="nonzero" fill="rgb(100%, 6.999207%, 56.999207%)" fill-opacity="0.3" d="M 354.742188 383.984375 C 354.742188 391.71875 348.472656 397.984375 340.742188 397.984375 C 333.007812 397.984375 326.742188 391.71875 326.742188 383.984375 C 326.742188 376.253906 333.007812 369.984375 340.742188 369.984375 C 348.472656 369.984375 354.742188 376.253906 354.742188 383.984375 "/>
<path fill="none" stroke-width="2" stroke-linecap="butt" stroke-linejoin="miter" stroke="rgb(0%, 0%, 50%)" stroke-opacity="1" stroke-miterlimit="10" d="M 332.367188 333.824219 C 332.367188 324.433594 324.757812 316.824219 315.367188 316.824219 C 305.980469 316.824219 298.367188 324.433594 298.367188 333.824219 C 298.367188 343.210938 305.980469 350.824219 315.367188 350.824219 C 324.757812 350.824219 332.367188 343.210938 332.367188 333.824219 " transform="matrix(1, 0, 0, -1, 0, 700)"/>
<path fill-rule="nonzero" fill="rgb(0%, 0%, 50%)" fill-opacity="0.3" d="M 332.367188 366.175781 C 332.367188 375.566406 324.757812 383.175781 315.367188 383.175781 C 305.980469 383.175781 298.367188 375.566406 298.367188 366.175781 C 298.367188 356.789062 305.980469 349.175781 315.367188 349.175781 C 324.757812 349.175781 332.367188 356.789062 332.367188 366.175781 "/>
<path fill="none" stroke-width="2" stroke-linecap="butt" stroke-linejoin="miter" stroke="rgb(0%, 50%, 50%)" stroke-opacity="1" stroke-miterlimit="10" d="M 334.414062 370.8125 C 334.414062 359.765625 325.460938 350.8125 314.414062 350.8125 C 303.367188 350.8125 294.414062 359.765625 294.414062 370.8125 C 294.414062 381.855469 303.367188 390.8125 314.414062 390.8125 C 325.460938 390.8125 334.414062 381.855469 334.414062 370.8125 " transform="matrix(1, 0, 0, -1, 0, 700)"/>
<path fill-rule="nonzero" fill="rgb(0%, 50%, 50%)" fill-opacity="0.3" d="M 334.414062 329.1875 C 334.414062 340.234375 325.460938 349.1875 314.414062 349.1875 C 303.367188 349.1875 294.414062 340.234375 294.414062 329.1875 C 294.414062 318.144531 303.367188 309.1875 314.414062 309.1875 C 325.460938 309.1875 334.414062 318.144531 334.414062 329.1875 "/>
<path fill="none" stroke-width="2" stroke-linecap="butt" stroke-linejoin="miter" stroke="rgb(50%, 0%, 50%)" stroke-opacity="1" stroke-miterlimit="10" d="M 373.484375 394.222656 C 373.484375 381.519531 363.183594 371.222656 350.484375 371.222656 C 337.78125 371.222656 327.484375 381.519531 327.484375 394.222656 C 327.484375 406.925781 337.78125 417.222656 350.484375 417.222656 C 363.183594 417.222656 373.484375 406.925781 373.484375 394.222656 " transform="matrix(1, 0, 0, -1, 0, 700)"/>
<path fill-rule="nonzero" fill="rgb(50%, 0%, 50%)" fill-opacity="0.3" d="M 373.484375 305.777344 C 373.484375 318.480469 363.183594 328.777344 350.484375 328.777344 C 337.78125 328.777344 327.484375 318.480469 327.484375 305.777344 C 327.484375 293.074219 337.78125 282.777344 350.484375 282.777344 C 363.183594 282.777344 373.484375 293.074219 373.484375 305.777344 "/>
<path fill="none" stroke-width="2" stroke-linecap="butt" stroke-linejoin="miter" stroke="rgb(0%, 50%, 0%)" stroke-opacity="1" stroke-miterlimit="10" d="M 418.914062 369.710938 C 418.914062 355.351562 407.273438 343.710938 392.914062 343.710938 C 378.554688 343.710938 366.914062 355.351562 366.914062 369.710938 C 366.914062 384.070312 378.554688 395.710938 392.914062 395.710938 C 407.273438 395.710938 418.914062 384.070312 418.914062 369.710938 " transform="matrix(1, 0, 0, -1, 0, 700)"/>
<path fill-rule="nonzero" fill="rgb(0%, 50%, 0%)" fill-opacity="0.3" d="M 418.914062 330.289062 C 418.914062 344.648438 407.273438 356.289062 392.914062 356.289062 C 378.554688 356.289062 366.914062 344.648438 366.914062 330.289062 C 366.914062 315.929688 378.554688 304.289062 392.914062 304.289062 C 407.273438 304.289062 418.914062 315.929688 418.914062 330.289062 "/>
<path fill="none" stroke-width="2" stroke-linecap="butt" stroke-linejoin="miter" stroke="rgb(50%, 0%, 0%)" stroke-opacity="1" stroke-miterlimit="10" d="M 415.148438 315.128906 C 415.148438 299.113281 402.164062 286.128906 386.148438 286.128906 C 370.128906 286.128906 357.148438 299.113281 357.148438 315.128906 C 357.148438 331.148438 370.128906 344.128906 386.148438 344.128906 C 402.164062 344.128906 415.148438 331.148438 415.148438 315.128906 " transform="matrix(1, 0, 0, -1, 0, 700)"/>
<path fill-rule="nonzero" fill="rgb(50%, 0%, 0%)" fill-opacity="0.3" d="M 415.148438 384.871094 C 415.148438 400.886719 402.164062 413.871094 386.148438 413.871094 C 370.128906 413.871094 357.148438 400.886719 357.148438 384.871094 C 357.148438 368.851562 370.128906 355.871094 386.148438 355.871094 C 402.164062 355.871094 415.148438 368.851562 415.148438 384.871094 "/>
<path fill="none" stroke-width="2" stroke-linecap="butt" stroke-linejoin="miter" stroke="rgb(100%, 0%, 100%)" stroke-opacity="1" stroke-miterlimit="10" d="M 358.527344 302.230469 C 358.527344 284.558594 344.199219 270.230469 326.527344 270.230469 C 308.851562 270.230469 294.527344 284.558594 294.527344 302.230469 C 294.527344 319.90625 308.851562 334.230469 326.527344 334.230469 C 344.199219 334.230469 358.527344 319.90625 358.527344 302.230469 " transform="matrix(1, 0, 0, -1, 0, 700)"/>
<path fill-rule="nonzero" fill="rgb(100%, 0%, 100%)" fill-opacity="0.3" d="M 358.527344 397.769531 C 358.527344 415.441406 344.199219 429.769531 326.527344 429.769531 C 308.851562 429.769531 294.527344 415.441406 294.527344 397.769531 C 294.527344 380.09375 308.851562 365.769531 326.527344 365.769531 C 344.199219 365.769531 358.527344 380.09375 358.527344 397.769531 "/>
<path fill="none" stroke-width="2" stroke-linecap="butt" stroke-linejoin="miter" stroke="rgb(0%, 100%, 100%)" stroke-opacity="1" stroke-miterlimit="10" d="M 329.925781 361.3125 C 329.925781 341.980469 314.253906 326.3125 294.925781 326.3125 C 275.59375 326.3125 259.925781 341.980469 259.925781 361.3125 C 259.925781 380.640625 275.59375 396.3125 294.925781 396.3125 C 314.253906 396.3125 329.925781 380.640625 329.925781 361.3125 " transform="matrix(1, 0, 0, -1, 0, 700)"/>
<path fill-rule="nonzero" fill="rgb(0%, 100%, 100%)" fill-opacity="0.3" d="M 329.925781 338.6875 C 329.925781 358.019531 314.253906 373.6875 294.925781 373.6875 C 275.59375 373.6875 259.925781 358.019531 259.925781 338.6875 C 259.925781 319.359375 275.59375 303.6875 294.925781 303.6875 C 314.253906 303.6875 329.925781 319.359375 329.925781 338.6875 "/>
<path fill="none" stroke-width="2" stroke-linecap="butt" stroke-linejoin="miter" stroke="rgb(100%, 100%, 0%)" stroke-opacity="1" stroke-miterlimit="10" d="M 388 409.222656 C 388 388.238281 370.988281 371.222656 350 371.222656 C 329.015625 371.222656 312 388.238281 312 409.222656 C 312 430.210938 329.015625 447.222656 350 447.222656 C 370.988281 447.222656 388 430.210938 388 409.222656 " transform="matrix(1, 0, 0, -1, 0, 700)"/>
<path fill-rule="nonzero" fill="rgb(100%, 100%, 0%)" fill-opacity="0.3" d="M 388 290.777344 C 388 311.761719 370.988281 328.777344 350 328.777344 C 329.015625 328.777344 312 311.761719 312 290.777344 C 312 269.789062 329.015625 252.777344 350 252.777344 C 370.988281 252.777344 388 269.789062 388 290.777344 "/>
<path fill="none" stroke-width="2" stroke-linecap="butt" stroke-linejoin="miter" stroke="rgb(0%, 0%, 100%)" stroke-opacity="1" stroke-miterlimit="10" d="M 452.476562 359.609375 C 452.476562 336.964844 434.121094 318.609375 411.476562 318.609375 C 388.835938 318.609375 370.476562 336.964844 370.476562 359.609375 C 370.476562 382.253906 388.835938 400.609375 411.476562 400.609375 C 434.121094 400.609375 452.476562 382.253906 452.476562 359.609375 " transform="matrix(1, 0, 0, -1, 0, 700)"/>
<path fill-rule="nonzero" fill="rgb(0%, 0%, 100%)" fill-opacity="0.3" d="M 452.476562 340.390625 C 452.476562 363.035156 434.121094 381.390625 411.476562 381.390625 C 388.835938 381.390625 370.476562 363.035156 370.476562 340.390625 C 370.476562 317.746094 388.835938 299.390625 411.476562 299.390625 C 434.121094 299.390625 452.476562 317.746094 452.476562 340.390625 "/>
<path fill="none" stroke-width="2" stroke-linecap="butt" stroke-linejoin="miter" stroke="rgb(0%, 100%, 0%)" stroke-opacity="1" stroke-miterlimit="10" d="M 411.164062 287.074219 C 411.164062 262.773438 391.464844 243.074219 367.164062 243.074219 C 342.863281 243.074219 323.164062 262.773438 323.164062 287.074219 C 323.164062 311.375 342.863281 331.074219 367.164062 331.074219 C 391.464844 331.074219 411.164062 311.375 411.164062 287.074219 " transform="matrix(1, 0, 0, -1, 0, 700)"/>
<path fill-rule="nonzero" fill="rgb(0%, 100%, 0%)" fill-opacity="0.3" d="M 411.164062 412.925781 C 411.164062 437.226562 391.464844 456.925781 367.164062 456.925781 C 342.863281 456.925781 323.164062 437.226562 323.164062 412.925781 C 323.164062 388.625 342.863281 368.925781 367.164062 368.925781 C 391.464844 368.925781 411.164062 388.625 411.164062 412.925781 "/>
<path fill="none" stroke-width="2" stroke-linecap="butt" stroke-linejoin="miter" stroke="rgb(100%, 0%, 0%)" stroke-opacity="1" stroke-miterlimit="10" d="M 332.609375 327.449219 C 332.609375 301.492188 311.566406 280.449219 285.609375 280.449219 C 259.652344 280.449219 238.609375 301.492188 238.609375 327.449219 C 238.609375 353.40625 259.652344 374.449219 285.609375 374.449219 C 311.566406 374.449219 332.609375 353.40625 332.609375 327.449219 " transform="matrix(1, 0, 0, -1, 0, 700)"/>
<path fill-rule="nonzero" fill="rgb(100%, 0%, 0%)" fill-opacity="0.3" d="M 332.609375 372.550781 C 332.609375 398.507812 311.566406 419.550781 285.609375 419.550781 C 259.652344 419.550781 238.609375 398.507812 238.609375 372.550781 C 238.609375 346.59375 259.652344 325.550781 285.609375 325.550781 C 311.566406 325.550781 332.609375 346.59375 332.609375 372.550781 "/>
<path fill="none" stroke-width="2" stroke-linecap="butt" stroke-linejoin="miter" stroke="rgb(0%, 0%, 29.998779%)" stroke-opacity="1" stroke-miterlimit="10" d="M 330.894531 360.328125 C 330.894531 353.664062 320.894531 353.664062 320.894531 360.328125 C 320.894531 366.996094 330.894531 366.996094 330.894531 360.328125 " transform="matrix(1, 0, 0, -1, 0, 700)"/>
<path fill-rule="nonzero" fill="rgb(0%, 0%, 29.998779%)" fill-opacity="0.3" d="M 330.894531 339.671875 C 330.894531 346.335938 320.894531 346.335938 320.894531 339.671875 C 320.894531 333.003906 330.894531 333.003906 330.894531 339.671875 "/>
</svg>
