<?xml version="1.0" encoding="UTF-8"?>
<svg xmlns="http://www.w3.org/2000/svg" xmlns:xlink="http://www.w3.org/1999/xlink" width="700" height="700" viewBox="0 0 700 700">
<path fill="none" stroke-width="2" stroke-linecap="butt" stroke-linejoin="miter" stroke="rgb(0%, 50%, 0%)" stroke-opacity="0.6" stroke-miterlimit="10" d="M 350 350 L 376.648438 350 Z M 350 350 " transform="matrix(1, 0, 0, -1, 0, 700)"/>
<path fill="none" stroke-width="2" stroke-linecap="butt" stroke-linejoin="miter" stroke="rgb(0%, 50%, 0%)" stroke-opacity="0.6" stroke-miterlimit="10" d="M 350 350 L 376.648438 350 L 376.648438 337 Z M 350 350 " transform="matrix(1, 0, 0, -1, 0, 700)"/>
<path fill="none" stroke-width="2" stroke-linecap="butt" stroke-linejoin="miter" stroke="rgb(0%, 50%, 0%)" stroke-opacity="0.6" stroke-miterlimit="10" d="M 350 350 L 376.648438 337 L 365.777344 321.417969 Z M 350 350 " transform="matrix(1, 0, 0, -1, 0, 700)"/>
<path fill="none" stroke-width="2" stroke-linecap="butt" stroke-linejoin="miter" stroke="rgb(0%, 50%, 0%)" stroke-opacity="0.6" stroke-miterlimit="10" d="M 350 350 L 365.777344 321.417969 L 341.519531 315.375 Z M 350 350 " transform="matrix(1, 0, 0, -1, 0, 700)"/>
<path fill="none" stroke-width="2" stroke-linecap="butt" stroke-linejoin="miter" stroke="rgb(0%, 50%, 0%)" stroke-opacity="0.6" stroke-miterlimit="10" d="M 350 350 L 341.519531 315.375 L 315.601562 332.382812 Z M 350 350 " transform="matrix(1, 0, 0, -1, 0, 700)"/>
<path fill="none" stroke-width="2" stroke-linecap="butt" stroke-linejoin="miter" stroke="rgb(0%, 50%, 0%)" stroke-opacity="0.6" stroke-miterlimit="10" d="M 350 350 L 315.601562 332.382812 L 313.09375 369.296875 Z M 350 350 " transform="matrix(1, 0, 0, -1, 0, 700)"/>
<path fill="none" stroke-width="2" stroke-linecap="butt" stroke-linejoin="miter" stroke="rgb(0%, 50%, 0%)" stroke-opacity="0.6" stroke-miterlimit="10" d="M 350 350 L 313.09375 369.296875 L 347.863281 394.597656 Z M 350 350 " transform="matrix(1, 0, 0, -1, 0, 700)"/>
<path fill="none" stroke-width="2" stroke-linecap="butt" stroke-linejoin="miter" stroke="rgb(0%, 50%, 0%)" stroke-opacity="0.6" stroke-miterlimit="10" d="M 350 350 L 347.863281 394.597656 L 391.789062 372.890625 Z M 350 350 " transform="matrix(1, 0, 0, -1, 0, 700)"/>
<path fill="none" stroke-width="2" stroke-linecap="butt" stroke-linejoin="miter" stroke="rgb(0%, 50%, 0%)" stroke-opacity="0.6" stroke-miterlimit="10" d="M 350 350 L 391.789062 372.890625 L 389.21875 317.949219 Z M 350 350 " transform="matrix(1, 0, 0, -1, 0, 700)"/>
<path fill="none" stroke-width="2" stroke-linecap="butt" stroke-linejoin="miter" stroke="rgb(0%, 50%, 0%)" stroke-opacity="0.6" stroke-miterlimit="10" d="M 350 350 L 389.21875 317.949219 L 330.96875 299.839844 Z M 350 350 " transform="matrix(1, 0, 0, -1, 0, 700)"/>
<path fill="none" stroke-width="2" stroke-linecap="butt" stroke-linejoin="miter" stroke="rgb(0%, 50%, 0%)" stroke-opacity="0.6" stroke-miterlimit="10" d="M 350 350 L 330.96875 299.839844 L 293.617188 355.460938 Z M 350 350 " transform="matrix(1, 0, 0, -1, 0, 700)"/>
<path fill="none" stroke-width="2" stroke-linecap="butt" stroke-linejoin="miter" stroke="rgb(0%, 50%, 0%)" stroke-opacity="0.6" stroke-miterlimit="10" d="M 350 350 L 293.617188 355.460938 L 342.988281 409.234375 Z M 350 350 " transform="matrix(1, 0, 0, -1, 0, 700)"/>
<path fill="none" stroke-width="2" stroke-linecap="butt" stroke-linejoin="miter" stroke="rgb(0%, 50%, 0%)" stroke-opacity="0.6" stroke-miterlimit="10" d="M 350 350 L 342.988281 409.234375 L 410.125 367.601562 Z M 350 350 " transform="matrix(1, 0, 0, -1, 0, 700)"/>
<path fill="none" stroke-width="2" stroke-linecap="butt" stroke-linejoin="miter" stroke="rgb(0%, 50%, 0%)" stroke-opacity="0.6" stroke-miterlimit="10" d="M 350 350 L 410.125 367.601562 L 376.039062 289.734375 Z M 350 350 " transform="matrix(1, 0, 0, -1, 0, 700)"/>
<path fill="none" stroke-width="2" stroke-linecap="butt" stroke-linejoin="miter" stroke="rgb(0%, 50%, 0%)" stroke-opacity="0.6" stroke-miterlimit="10" d="M 350 350 L 376.039062 289.734375 L 289.433594 317.679688 Z M 350 350 " transform="matrix(1, 0, 0, -1, 0, 700)"/>
<path fill="none" stroke-width="2" stroke-linecap="butt" stroke-linejoin="miter" stroke="rgb(0%, 50%, 0%)" stroke-opacity="0.6" stroke-miterlimit="10" d="M 350 350 L 289.433594 317.679688 L 324.132812 356.410156 Z M 350 350 " transform="matrix(1, 0, 0, -1, 0, 700)"/>
<path fill="none" stroke-width="4" stroke-linecap="butt" stroke-linejoin="miter" stroke="rgb(0%, 0%, 0%)" stroke-opacity="1" stroke-miterlimit="10" d="M 371.648438 350 C 371.648438 338.042969 361.957031 328.351562 350 328.351562 C 338.042969 328.351562 328.351562 338.042969 328.351562 350 C 328.351562 361.957031 338.042969 371.648438 350 371.648438 C 361.957031 371.648438 371.648438 361.957031 371.648438 350 " transform="matrix(1, 0, 0, -1, 0, 700)"/>
<path fill-rule="nonzero" fill="rgb(0%, 0%, 0%)" fill-opacity="0.3" d="M 371.648438 350 C 371.648438 361.957031 361.957031 371.648438 350 371.648438 C 338.042969 371.648438 328.351562 361.957031 328.351562 350 C 328.351562 338.042969 338.042969 328.351562 350 328.351562 C 361.957031 328.351562 371.648438 338.042969 371.648438 350 "/>
<path fill="none" stroke-width="2" stroke-linecap="butt" stroke-linejoin="miter" stroke="rgb(69.999695%, 29.998779%, 9.999084%)" stroke-opacity="1" stroke-miterlimit="10" d="M 381.648438 350 C 381.648438 343.332031 371.648438 343.332031 371.648438 350 C 371.648438 356.667969 381.648438 356.667969 381.648438 350 " transform="matrix(1, 0, 0, -1, 0, 700)"/>
<path fill-rule="nonzero" fill="rgb(69.999695%, 29.998779%, 9.999084%)" fill-opacity="0.3" d="M 381.648438 350 C 381.648438 356.667969 371.648438 356.667969 371.648438 350 C 371.648438 343.332031 381.648438 343.332031 381.648438 350 "/>
<path fill="none" stroke-width="2" stroke-linecap="butt" stroke-linejoin="miter" stroke="rgb(81.999207%, 40.99884%, 10.998535%)" stroke-opacity="1" stroke-miterlimit="10" d="M 384.648438 337 C 384.648438 332.582031 381.066406 329 376.648438 329 C 372.226562 329 368.648438 332.582031 368.648438 337 C 368.648438 341.417969 372.226562 345 376.648438 345 C 381.066406 345 384.648438 341.417969 384.648438 337 " transform="matrix(1, 0, 0, -1, 0, 700)"/>
<path fill-rule="nonzero" fill="rgb(81.999207%, 40.99884%, 10.998535%)" fill-opacity="0.3" d="M 384.648438 363 C 384.648438 367.417969 381.066406 371 376.648438 371 C 372.226562 371 368.648438 367.417969 368.648438 363 C 368.648438 358.582031 372.226562 355 376.648438 355 C 381.066406 355 384.648438 358.582031 384.648438 363 "/>
<path fill="none" stroke-width="2" stroke-linecap="butt" stroke-linejoin="miter" stroke="rgb(100%, 53.999329%, 0%)" stroke-opacity="1" stroke-miterlimit="10" d="M 376.777344 321.417969 C 376.777344 315.339844 371.851562 310.417969 365.777344 310.417969 C 359.703125 310.417969 354.777344 315.339844 354.777344 321.417969 C 354.777344 327.492188 359.703125 332.417969 365.777344 332.417969 C 371.851562 332.417969 376.777344 327.492188 376.777344 321.417969 " transform="matrix(1, 0, 0, -1, 0, 700)"/>
<path fill-rule="nonzero" fill="rgb(100%, 53.999329%, 0%)" fill-opacity="0.3" d="M 376.777344 378.582031 C 376.777344 384.660156 371.851562 389.582031 365.777344 389.582031 C 359.703125 389.582031 354.777344 384.660156 354.777344 378.582031 C 354.777344 372.507812 359.703125 367.582031 365.777344 367.582031 C 371.851562 367.582031 376.777344 372.507812 376.777344 378.582031 "/>
<path fill="none" stroke-width="2" stroke-linecap="butt" stroke-linejoin="miter" stroke="rgb(100%, 6.999207%, 56.999207%)" stroke-opacity="1" stroke-miterlimit="10" d="M 355.519531 315.375 C 355.519531 307.644531 349.25 301.375 341.519531 301.375 C 333.785156 301.375 327.519531 307.644531 327.519531 315.375 C 327.519531 323.105469 333.785156 329.375 341.519531 329.375 C 349.25 329.375 355.519531 323.105469 355.519531 315.375 " transform="matrix(1, 0, 0, -1, 0, 700)"/>
<path fill-rule="nonzero" fill="rgb(100%, 6.999207%, 56.999207%)" fill-opacity="0.3" d="M 355.519531 384.625 C 355.519531 392.355469 349.25 398.625 341.519531 398.625 C 333.785156 398.625 327.519531 392.355469 327.519531 384.625 C 327.519531 376.894531 333.785156 370.625 341.519531 370.625 C 349.25 370.625 355.519531 376.894531 355.519531 384.625 "/>
<path fill="none" stroke-width="2" stroke-linecap="butt" stroke-linejoin="miter" stroke="rgb(0%, 0%, 50%)" stroke-opacity="1" stroke-miterlimit="10" d="M 332.601562 332.382812 C 332.601562 322.996094 324.988281 315.382812 315.601562 315.382812 C 306.210938 315.382812 298.601562 322.996094 298.601562 332.382812 C 298.601562 341.773438 306.210938 349.382812 315.601562 349.382812 C 324.988281 349.382812 332.601562 341.773438 332.601562 332.382812 " transform="matrix(1, 0, 0, -1, 0, 700)"/>
<path fill-rule="nonzero" fill="rgb(0%, 0%, 50%)" fill-opacity="0.3" d="M 332.601562 367.617188 C 332.601562 377.003906 324.988281 384.617188 315.601562 384.617188 C 306.210938 384.617188 298.601562 377.003906 298.601562 367.617188 C 298.601562 358.226562 306.210938 350.617188 315.601562 350.617188 C 324.988281 350.617188 332.601562 358.226562 332.601562 367.617188 "/>
<path fill="none" stroke-width="2" stroke-linecap="butt" stroke-linejoin="miter" stroke="rgb(0%, 50%, 50%)" stroke-opacity="1" stroke-miterlimit="10" d="M 333.09375 369.296875 C 333.09375 358.253906 324.136719 349.296875 313.09375 349.296875 C 302.046875 349.296875 293.09375 358.253906 293.09375 369.296875 C 293.09375 380.34375 302.046875 389.296875 313.09375 389.296875 C 324.136719 389.296875 333.09375 380.34375 333.09375 369.296875 " transform="matrix(1, 0, 0, -1, 0, 700)"/>
<path fill-rule="nonzero" fill="rgb(0%, 50%, 50%)" fill-opacity="0.3" d="M 333.09375 330.703125 C 333.09375 341.746094 324.136719 350.703125 313.09375 350.703125 C 302.046875 350.703125 293.09375 341.746094 293.09375 330.703125 C 293.09375 319.65625 302.046875 310.703125 313.09375 310.703125 C 324.136719 310.703125 333.09375 319.65625 333.09375 330.703125 "/>
<path fill="none" stroke-width="2" stroke-linecap="butt" stroke-linejoin="miter" stroke="rgb(50%, 0%, 50%)" stroke-opacity="1" stroke-miterlimit="10" d="M 370.863281 394.597656 C 370.863281 381.894531 360.5625 371.597656 347.863281 371.597656 C 335.160156 371.597656 324.863281 381.894531 324.863281 394.597656 C 324.863281 407.300781 335.160156 417.597656 347.863281 417.597656 C 360.5625 417.597656 370.863281 407.300781 370.863281 394.597656 " transform="matrix(1, 0, 0, -1, 0, 700)"/>
<path fill-rule="nonzero" fill="rgb(50%, 0%, 50%)" fill-opacity="0.3" d="M 370.863281 305.402344 C 370.863281 318.105469 360.5625 328.402344 347.863281 328.402344 C 335.160156 328.402344 324.863281 318.105469 324.863281 305.402344 C 324.863281 292.699219 335.160156 282.402344 347.863281 282.402344 C 360.5625 282.402344 370.863281 292.699219 370.863281 305.402344 "/>
<path fill="none" stroke-width="2" stroke-linecap="butt" stroke-linejoin="miter" stroke="rgb(0%, 50%, 0%)" stroke-opacity="1" stroke-miterlimit="10" d="M 417.789062 372.890625 C 417.789062 358.53125 406.148438 346.890625 391.789062 346.890625 C 377.429688 346.890625 365.789062 358.53125 365.789062 372.890625 C 365.789062 387.25 377.429688 398.890625 391.789062 398.890625 C 406.148438 398.890625 417.789062 387.25 417.789062 372.890625 " transform="matrix(1, 0, 0, -1, 0, 700)"/>
<path fill-rule="nonzero" fill="rgb(0%, 50%, 0%)" fill-opacity="0.3" d="M 417.789062 327.109375 C 417.789062 341.46875 406.148438 353.109375 391.789062 353.109375 C 377.429688 353.109375 365.789062 341.46875 365.789062 327.109375 C 365.789062 312.75 377.429688 301.109375 391.789062 301.109375 C 406.148438 301.109375 417.789062 312.75 417.789062 327.109375 "/>
<path fill="none" stroke-width="2" stroke-linecap="butt" stroke-linejoin="miter" stroke="rgb(50%, 0%, 0%)" stroke-opacity="1" stroke-miterlimit="10" d="M 418.21875 317.949219 C 418.21875 301.933594 405.234375 288.949219 389.21875 288.949219 C 373.203125 288.949219 360.21875 301.933594 360.21875 317.949219 C 360.21875 333.964844 373.203125 346.949219 389.21875 346.949219 C 405.234375 346.949219 418.21875 333.964844 418.21875 317.949219 " transform="matrix(1, 0, 0, -1, 0, 700)"/>
<path fill-rule="nonzero" fill="rgb(50%, 0%, 0%)" fill-opacity="0.3" d="M 418.21875 382.050781 C 418.21875 398.066406 405.234375 411.050781 389.21875 411.050781 C 373.203125 411.050781 360.21875 398.066406 360.21875 382.050781 C 360.21875 366.035156 373.203125 353.050781 389.21875 353.050781 C 405.234375 353.050781 418.21875 366.035156 418.21875 382.050781 "/>
<path fill="none" stroke-width="2" stroke-linecap="butt" stroke-linejoin="miter" stroke="rgb(100%, 0%, 100%)" stroke-opacity="1" stroke-miterlimit="10" d="M 362.96875 299.839844 C 362.96875 282.167969 348.640625 267.839844 330.96875 267.839844 C 313.292969 267.839844 298.96875 282.167969 298.96875 299.839844 C 298.96875 317.515625 313.292969 331.839844 330.96875 331.839844 C 348.640625 331.839844 362.96875 317.515625 362.96875 299.839844 " transform="matrix(1, 0, 0, -1, 0, 700)"/>
<path fill-rule="nonzero" fill="rgb(100%, 0%, 100%)" fill-opacity="0.3" d="M 362.96875 400.160156 C 362.96875 417.832031 348.640625 432.160156 330.96875 432.160156 C 313.292969 432.160156 298.96875 417.832031 298.96875 400.160156 C 298.96875 382.484375 313.292969 368.160156 330.96875 368.160156 C 348.640625 368.160156 362.96875 382.484375 362.96875 400.160156 "/>
<path fill="none" stroke-width="2" stroke-linecap="butt" stroke-linejoin="miter" stroke="rgb(0%, 100%, 100%)" stroke-opacity="1" stroke-miterlimit="10" d="M 328.617188 355.460938 C 328.617188 336.132812 312.945312 320.460938 293.617188 320.460938 C 274.285156 320.460938 258.617188 336.132812 258.617188 355.460938 C 258.617188 374.792969 274.285156 390.460938 293.617188 390.460938 C 312.945312 390.460938 328.617188 374.792969 328.617188 355.460938 " transform="matrix(1, 0, 0, -1, 0, 700)"/>
<path fill-rule="nonzero" fill="rgb(0%, 100%, 100%)" fill-opacity="0.3" d="M 328.617188 344.539062 C 328.617188 363.867188 312.945312 379.539062 293.617188 379.539062 C 274.285156 379.539062 258.617188 363.867188 258.617188 344.539062 C 258.617188 325.207031 274.285156 309.539062 293.617188 309.539062 C 312.945312 309.539062 328.617188 325.207031 328.617188 344.539062 "/>
<path fill="none" stroke-width="2" stroke-linecap="butt" stroke-linejoin="miter" stroke="rgb(100%, 100%, 0%)" stroke-opacity="1" stroke-miterlimit="10" d="M 380.988281 409.234375 C 380.988281 388.25 363.972656 371.234375 342.988281 371.234375 C 322 371.234375 304.988281 388.25 304.988281 409.234375 C 304.988281 430.222656 322 447.234375 342.988281 447.234375 C 363.972656 447.234375 380.988281 430.222656 380.988281 409.234375 " transform="matrix(1, 0, 0, -1, 0, 700)"/>
<path fill-rule="nonzero" fill="rgb(100%, 100%, 0%)" fill-opacity="0.3" d="M 380.988281 290.765625 C 380.988281 311.75 363.972656 328.765625 342.988281 328.765625 C 322 328.765625 304.988281 311.75 304.988281 290.765625 C 304.988281 269.777344 322 252.765625 342.988281 252.765625 C 363.972656 252.765625 380.988281 269.777344 380.988281 290.765625 "/>
<path fill="none" stroke-width="2" stroke-linecap="butt" stroke-linejoin="miter" stroke="rgb(0%, 0%, 100%)" stroke-opacity="1" stroke-miterlimit="10" d="M 451.125 367.601562 C 451.125 344.957031 432.769531 326.601562 410.125 326.601562 C 387.480469 326.601562 369.125 344.957031 369.125 367.601562 C 369.125 390.246094 387.480469 408.601562 410.125 408.601562 C 432.769531 408.601562 451.125 390.246094 451.125 367.601562 " transform="matrix(1, 0, 0, -1, 0, 700)"/>
<path fill-rule="nonzero" fill="rgb(0%, 0%, 100%)" fill-opacity="0.3" d="M 451.125 332.398438 C 451.125 355.042969 432.769531 373.398438 410.125 373.398438 C 387.480469 373.398438 369.125 355.042969 369.125 332.398438 C 369.125 309.753906 387.480469 291.398438 410.125 291.398438 C 432.769531 291.398438 451.125 309.753906 451.125 332.398438 "/>
<path fill="none" stroke-width="2" stroke-linecap="butt" stroke-linejoin="miter" stroke="rgb(0%, 100%, 0%)" stroke-opacity="1" stroke-miterlimit="10" d="M 420.039062 289.734375 C 420.039062 265.433594 400.339844 245.734375 376.039062 245.734375 C 351.738281 245.734375 332.039062 265.433594 332.039062 289.734375 C 332.039062 314.035156 351.738281 333.734375 376.039062 333.734375 C 400.339844 333.734375 420.039062 314.035156 420.039062 289.734375 " transform="matrix(1, 0, 0, -1, 0, 700)"/>
<path fill-rule="nonzero" fill="rgb(0%, 100%, 0%)" fill-opacity="0.3" d="M 420.039062 410.265625 C 420.039062 434.566406 400.339844 454.265625 376.039062 454.265625 C 351.738281 454.265625 332.039062 434.566406 332.039062 410.265625 C 332.039062 385.964844 351.738281 366.265625 376.039062 366.265625 C 400.339844 366.265625 420.039062 385.964844 420.039062 410.265625 "/>
<path fill="none" stroke-width="2" stroke-linecap="butt" stroke-linejoin="miter" stroke="rgb(100%, 0%, 0%)" stroke-opacity="1" stroke-miterlimit="10" d="M 336.433594 317.679688 C 336.433594 291.722656 315.390625 270.679688 289.433594 270.679688 C 263.476562 270.679688 242.433594 291.722656 242.433594 317.679688 C 242.433594 343.640625 263.476562 364.679688 289.433594 364.679688 C 315.390625 364.679688 336.433594 343.640625 336.433594 317.679688 " transform="matrix(1, 0, 0, -1, 0, 700)"/>
<path fill-rule="nonzero" fill="rgb(100%, 0%, 0%)" fill-opacity="0.3" d="M 336.433594 382.320312 C 336.433594 408.277344 315.390625 429.320312 289.433594 429.320312 C 263.476562 429.320312 242.433594 408.277344 242.433594 382.320312 C 242.433594 356.359375 263.476562 335.320312 289.433594 335.320312 C 315.390625 335.320312 336.433594 356.359375 336.433594 382.320312 "/>
<path fill="none" stroke-width="2" stroke-linecap="butt" stroke-linejoin="miter" stroke="rgb(0%, 0%, 29.998779%)" stroke-opacity="1" stroke-miterlimit="10" d="M 329.132812 356.410156 C 329.132812 349.746094 319.132812 349.746094 319.132812 356.410156 C 319.132812 363.078125 329.132812 363.078125 329.132812 356.410156 " transform="matrix(1, 0, 0, -1, 0, 700)"/>
<path fill-rule="nonzero" fill="rgb(0%, 0%, 29.998779%)" fill-opacity="0.3" d="M 329.132812 343.589844 C 329.132812 350.253906 319.132812 350.253906 319.132812 343.589844 C 319.132812 336.921875 329.132812 336.921875 329.132812 343.589844 "/>
</svg>
