<?xml version="1.0" encoding="UTF-8"?>
<svg xmlns="http://www.w3.org/2000/svg" xmlns:xlink="http://www.w3.org/1999/xlink" width="700" height="700" viewBox="0 0 700 700">
<path fill="none" stroke-width="2" stroke-linecap="butt" stroke-linejoin="miter" stroke="rgb(0%, 50%, 0%)" stroke-opacity="0.6" stroke-miterlimit="10" d="M 350 350 L 377.082031 350 Z M 350 350 " transform="matrix(1, 0, 0, -1, 0, 700)"/>
<path fill="none" stroke-width="2" stroke-linecap="butt" stroke-linejoin="miter" stroke="rgb(0%, 50%, 0%)" stroke-opacity="0.6" stroke-miterlimit="10" d="M 350 350 L 377.082031 350 L 377.128906 337 Z M 350 350 " transform="matrix(1, 0, 0, -1, 0, 700)"/>
<path fill="none" stroke-width="2" stroke-linecap="butt" stroke-linejoin="miter" stroke="rgb(0%, 50%, 0%)" stroke-opacity="0.6" stroke-miterlimit="10" d="M 350 350 L 377.128906 337 L 366.4375 321.292969 Z M 350 350 " transform="matrix(1, 0, 0, -1, 0, 700)"/>
<path fill="none" stroke-width="2" stroke-linecap="butt" stroke-linejoin="miter" stroke="rgb(0%, 50%, 0%)" stroke-opacity="0.6" stroke-miterlimit="10" d="M 350 350 L 366.4375 321.292969 L 342.3125 314.746094 Z M 350 350 " transform="matrix(1, 0, 0, -1, 0, 700)"/>
<path fill="none" stroke-width="2" stroke-linecap="butt" stroke-linejoin="miter" stroke="rgb(0%, 50%, 0%)" stroke-opacity="0.6" stroke-miterlimit="10" d="M 350 350 L 342.3125 314.746094 L 315.878906 330.945312 Z M 350 350 " transform="matrix(1, 0, 0, -1, 0, 700)"/>
<path fill="none" stroke-width="2" stroke-linecap="butt" stroke-linejoin="miter" stroke="rgb(0%, 50%, 0%)" stroke-opacity="0.6" stroke-miterlimit="10" d="M 350 350 L 315.878906 330.945312 L 311.832031 367.722656 Z M 350 350 " transform="matrix(1, 0, 0, -1, 0, 700)"/>
<path fill="none" stroke-width="2" stroke-linecap="butt" stroke-linejoin="miter" stroke="rgb(0%, 50%, 0%)" stroke-opacity="0.6" stroke-miterlimit="10" d="M 350 350 L 311.832031 367.722656 L 345.214844 394.828125 Z M 350 350 " transform="matrix(1, 0, 0, -1, 0, 700)"/>
<path fill="none" stroke-width="2" stroke-linecap="butt" stroke-linejoin="miter" stroke="rgb(0%, 50%, 0%)" stroke-opacity="0.6" stroke-miterlimit="10" d="M 350 350 L 345.214844 394.828125 L 390.449219 375.992188 Z M 350 350 " transform="matrix(1, 0, 0, -1, 0, 700)"/>
<path fill="none" stroke-width="2" stroke-linecap="butt" stroke-linejoin="miter" stroke="rgb(0%, 50%, 0%)" stroke-opacity="0.6" stroke-miterlimit="10" d="M 350 350 L 390.449219 375.992188 L 392.0625 321.015625 Z M 350 350 " transform="matrix(1, 0, 0, -1, 0, 700)"/>
<path fill="none" stroke-width="2" stroke-linecap="butt" stroke-linejoin="miter" stroke="rgb(0%, 50%, 0%)" stroke-opacity="0.6" stroke-miterlimit="10" d="M 350 350 L 392.0625 321.015625 L 335.628906 297.863281 Z M 350 350 " transform="matrix(1, 0, 0, -1, 0, 700)"/>
<path fill="none" stroke-width="2" stroke-linecap="butt" stroke-linejoin="miter" stroke="rgb(0%, 50%, 0%)" stroke-opacity="0.6" stroke-miterlimit="10" d="M 350 350 L 335.628906 297.863281 L 292.921875 349.488281 Z M 350 350 " transform="matrix(1, 0, 0, -1, 0, 700)"/>
<path fill="none" stroke-width="2" stroke-linecap="butt" stroke-linejoin="miter" stroke="rgb(0%, 50%, 0%)" stroke-opacity="0.6" stroke-miterlimit="10" d="M 350 350 L 292.921875 349.488281 L 335.992188 408.425781 Z M 350 350 " transform="matrix(1, 0, 0, -1, 0, 700)"/>
<path fill="none" stroke-width="2" stroke-linecap="butt" stroke-linejoin="miter" stroke="rgb(0%, 50%, 0%)" stroke-opacity="0.6" stroke-miterlimit="10" d="M 350 350 L 335.992188 408.425781 L 407.75 375.382812 Z M 350 350 " transform="matrix(1, 0, 0, -1, 0, 700)"/>
<path fill="none" stroke-width="2" stroke-linecap="butt" stroke-linejoin="miter" stroke="rgb(0%, 50%, 0%)" stroke-opacity="0.6" stroke-miterlimit="10" d="M 350 350 L 407.75 375.382812 L 384.480469 293.628906 Z M 350 350 " transform="matrix(1, 0, 0, -1, 0, 700)"/>
<path fill="none" stroke-width="2" stroke-linecap="butt" stroke-linejoin="miter" stroke="rgb(0%, 50%, 0%)" stroke-opacity="0.6" stroke-miterlimit="10" d="M 350 350 L 384.480469 293.628906 L 294.71875 308.574219 Z M 350 350 " transform="matrix(1, 0, 0, -1, 0, 700)"/>
<path fill="none" stroke-width="2" stroke-linecap="butt" stroke-linejoin="miter" stroke="rgb(0%, 50%, 0%)" stroke-opacity="0.6" stroke-miterlimit="10" d="M 350 350 L 294.71875 308.574219 L 323.007812 352.203125 Z M 350 350 " transform="matrix(1, 0, 0, -1, 0, 700)"/>
<path fill="none" stroke-width="4" stroke-linecap="butt" stroke-linejoin="miter" stroke="rgb(0%, 0%, 0%)" stroke-opacity="1" stroke-miterlimit="10" d="M 372.082031 350 C 372.082031 337.804688 362.195312 327.917969 350 327.917969 C 337.804688 327.917969 327.917969 337.804688 327.917969 350 C 327.917969 362.195312 337.804688 372.082031 350 372.082031 C 362.195312 372.082031 372.082031 362.195312 372.082031 350 " transform="matrix(1, 0, 0, -1, 0, 700)"/>
<path fill-rule="nonzero" fill="rgb(0%, 0%, 0%)" fill-opacity="0.3" d="M 372.082031 350 C 372.082031 362.195312 362.195312 372.082031 350 372.082031 C 337.804688 372.082031 327.917969 362.195312 327.917969 350 C 327.917969 337.804688 337.804688 327.917969 350 327.917969 C 362.195312 327.917969 372.082031 337.804688 372.082031 350 "/>
<path fill="none" stroke-width="2" stroke-linecap="butt" stroke-linejoin="miter" stroke="rgb(69.999695%, 29.998779%, 9.999084%)" stroke-opacity="1" stroke-miterlimit="10" d="M 382.082031 350 C 382.082031 343.332031 372.082031 343.332031 372.082031 350 C 372.082031 356.667969 382.082031 356.667969 382.082031 350 " transform="matrix(1, 0, 0, -1, 0, 700)"/>
<path fill-rule="nonzero" fill="rgb(69.999695%, 29.998779%, 9.999084%)" fill-opacity="0.3" d="M 382.082031 350 C 382.082031 356.667969 372.082031 356.667969 372.082031 350 C 372.082031 343.332031 382.082031 343.332031 382.082031 350 "/>
<path fill="none" stroke-width="2" stroke-linecap="butt" stroke-linejoin="miter" stroke="rgb(81.999207%, 40.99884%, 10.998535%)" stroke-opacity="1" stroke-miterlimit="10" d="M 385.128906 337 C 385.128906 332.582031 381.546875 329 377.128906 329 C 372.710938 329 369.128906 332.582031 369.128906 337 C 369.128906 341.417969 372.710938 345 377.128906 345 C 381.546875 345 385.128906 341.417969 385.128906 337 " transform="matrix(1, 0, 0, -1, 0, 700)"/>
<path fill-rule="nonzero" fill="rgb(81.999207%, 40.99884%, 10.998535%)" fill-opacity="0.3" d="M 385.128906 363 C 385.128906 367.417969 381.546875 371 377.128906 371 C 372.710938 371 369.128906 367.417969 369.128906 363 C 369.128906 358.582031 372.710938 355 377.128906 355 C 381.546875 355 385.128906 358.582031 385.128906 363 "/>
<path fill="none" stroke-width="2" stroke-linecap="butt" stroke-linejoin="miter" stroke="rgb(100%, 53.999329%, 0%)" stroke-opacity="1" stroke-miterlimit="10" d="M 377.4375 321.292969 C 377.4375 315.214844 372.515625 310.292969 366.4375 310.292969 C 360.363281 310.292969 355.4375 315.214844 355.4375 321.292969 C 355.4375 327.367188 360.363281 332.292969 366.4375 332.292969 C 372.515625 332.292969 377.4375 327.367188 377.4375 321.292969 " transform="matrix(1, 0, 0, -1, 0, 700)"/>
<path fill-rule="nonzero" fill="rgb(100%, 53.999329%, 0%)" fill-opacity="0.3" d="M 377.4375 378.707031 C 377.4375 384.785156 372.515625 389.707031 366.4375 389.707031 C 360.363281 389.707031 355.4375 384.785156 355.4375 378.707031 C 355.4375 372.632812 360.363281 367.707031 366.4375 367.707031 C 372.515625 367.707031 377.4375 372.632812 377.4375 378.707031 "/>
<path fill="none" stroke-width="2" stroke-linecap="butt" stroke-linejoin="miter" stroke="rgb(100%, 6.999207%, 56.999207%)" stroke-opacity="1" stroke-miterlimit="10" d="M 356.3125 314.746094 C 356.3125 307.015625 350.042969 300.746094 342.3125 300.746094 C 334.578125 300.746094 328.3125 307.015625 328.3125 314.746094 C 328.3125 322.480469 334.578125 328.746094 342.3125 328.746094 C 350.042969 328.746094 356.3125 322.480469 356.3125 314.746094 " transform="matrix(1, 0, 0, -1, 0, 700)"/>
<path fill-rule="nonzero" fill="rgb(100%, 6.999207%, 56.999207%)" fill-opacity="0.3" d="M 356.3125 385.253906 C 356.3125 392.984375 350.042969 399.253906 342.3125 399.253906 C 334.578125 399.253906 328.3125 392.984375 328.3125 385.253906 C 328.3125 377.519531 334.578125 371.253906 342.3125 371.253906 C 350.042969 371.253906 356.3125 377.519531 356.3125 385.253906 "/>
<path fill="none" stroke-width="2" stroke-linecap="butt" stroke-linejoin="miter" stroke="rgb(0%, 0%, 50%)" stroke-opacity="1" stroke-miterlimit="10" d="M 332.878906 330.945312 C 332.878906 321.554688 325.265625 313.945312 315.878906 313.945312 C 306.488281 313.945312 298.878906 321.554688 298.878906 330.945312 C 298.878906 340.332031 306.488281 347.945312 315.878906 347.945312 C 325.265625 347.945312 332.878906 340.332031 332.878906 330.945312 " transform="matrix(1, 0, 0, -1, 0, 700)"/>
<path fill-rule="nonzero" fill="rgb(0%, 0%, 50%)" fill-opacity="0.3" d="M 332.878906 369.054688 C 332.878906 378.445312 325.265625 386.054688 315.878906 386.054688 C 306.488281 386.054688 298.878906 378.445312 298.878906 369.054688 C 298.878906 359.667969 306.488281 352.054688 315.878906 352.054688 C 325.265625 352.054688 332.878906 359.667969 332.878906 369.054688 "/>
<path fill="none" stroke-width="2" stroke-linecap="butt" stroke-linejoin="miter" stroke="rgb(0%, 50%, 50%)" stroke-opacity="1" stroke-miterlimit="10" d="M 331.832031 367.722656 C 331.832031 356.675781 322.878906 347.722656 311.832031 347.722656 C 300.785156 347.722656 291.832031 356.675781 291.832031 367.722656 C 291.832031 378.769531 300.785156 387.722656 311.832031 387.722656 C 322.878906 387.722656 331.832031 378.769531 331.832031 367.722656 " transform="matrix(1, 0, 0, -1, 0, 700)"/>
<path fill-rule="nonzero" fill="rgb(0%, 50%, 50%)" fill-opacity="0.3" d="M 331.832031 332.277344 C 331.832031 343.324219 322.878906 352.277344 311.832031 352.277344 C 300.785156 352.277344 291.832031 343.324219 291.832031 332.277344 C 291.832031 321.230469 300.785156 312.277344 311.832031 312.277344 C 322.878906 312.277344 331.832031 321.230469 331.832031 332.277344 "/>
<path fill="none" stroke-width="2" stroke-linecap="butt" stroke-linejoin="miter" stroke="rgb(50%, 0%, 50%)" stroke-opacity="1" stroke-miterlimit="10" d="M 368.214844 394.828125 C 368.214844 382.125 357.917969 371.828125 345.214844 371.828125 C 332.511719 371.828125 322.214844 382.125 322.214844 394.828125 C 322.214844 407.53125 332.511719 417.828125 345.214844 417.828125 C 357.917969 417.828125 368.214844 407.53125 368.214844 394.828125 " transform="matrix(1, 0, 0, -1, 0, 700)"/>
<path fill-rule="nonzero" fill="rgb(50%, 0%, 50%)" fill-opacity="0.3" d="M 368.214844 305.171875 C 368.214844 317.875 357.917969 328.171875 345.214844 328.171875 C 332.511719 328.171875 322.214844 317.875 322.214844 305.171875 C 322.214844 292.46875 332.511719 282.171875 345.214844 282.171875 C 357.917969 282.171875 368.214844 292.46875 368.214844 305.171875 "/>
<path fill="none" stroke-width="2" stroke-linecap="butt" stroke-linejoin="miter" stroke="rgb(0%, 50%, 0%)" stroke-opacity="1" stroke-miterlimit="10" d="M 416.449219 375.992188 C 416.449219 361.632812 404.808594 349.992188 390.449219 349.992188 C 376.089844 349.992188 364.449219 361.632812 364.449219 375.992188 C 364.449219 390.351562 376.089844 401.992188 390.449219 401.992188 C 404.808594 401.992188 416.449219 390.351562 416.449219 375.992188 " transform="matrix(1, 0, 0, -1, 0, 700)"/>
<path fill-rule="nonzero" fill="rgb(0%, 50%, 0%)" fill-opacity="0.3" d="M 416.449219 324.007812 C 416.449219 338.367188 404.808594 350.007812 390.449219 350.007812 C 376.089844 350.007812 364.449219 338.367188 364.449219 324.007812 C 364.449219 309.648438 376.089844 298.007812 390.449219 298.007812 C 404.808594 298.007812 416.449219 309.648438 416.449219 324.007812 "/>
<path fill="none" stroke-width="2" stroke-linecap="butt" stroke-linejoin="miter" stroke="rgb(50%, 0%, 0%)" stroke-opacity="1" stroke-miterlimit="10" d="M 421.0625 321.015625 C 421.0625 305 408.078125 292.015625 392.0625 292.015625 C 376.046875 292.015625 363.0625 305 363.0625 321.015625 C 363.0625 337.03125 376.046875 350.015625 392.0625 350.015625 C 408.078125 350.015625 421.0625 337.03125 421.0625 321.015625 " transform="matrix(1, 0, 0, -1, 0, 700)"/>
<path fill-rule="nonzero" fill="rgb(50%, 0%, 0%)" fill-opacity="0.3" d="M 421.0625 378.984375 C 421.0625 395 408.078125 407.984375 392.0625 407.984375 C 376.046875 407.984375 363.0625 395 363.0625 378.984375 C 363.0625 362.96875 376.046875 349.984375 392.0625 349.984375 C 408.078125 349.984375 421.0625 362.96875 421.0625 378.984375 "/>
<path fill="none" stroke-width="2" stroke-linecap="butt" stroke-linejoin="miter" stroke="rgb(100%, 0%, 100%)" stroke-opacity="1" stroke-miterlimit="10" d="M 367.628906 297.863281 C 367.628906 280.191406 353.300781 265.863281 335.628906 265.863281 C 317.953125 265.863281 303.628906 280.191406 303.628906 297.863281 C 303.628906 315.535156 317.953125 329.863281 335.628906 329.863281 C 353.300781 329.863281 367.628906 315.535156 367.628906 297.863281 " transform="matrix(1, 0, 0, -1, 0, 700)"/>
<path fill-rule="nonzero" fill="rgb(100%, 0%, 100%)" fill-opacity="0.3" d="M 367.628906 402.136719 C 367.628906 419.808594 353.300781 434.136719 335.628906 434.136719 C 317.953125 434.136719 303.628906 419.808594 303.628906 402.136719 C 303.628906 384.464844 317.953125 370.136719 335.628906 370.136719 C 353.300781 370.136719 367.628906 384.464844 367.628906 402.136719 "/>
<path fill="none" stroke-width="2" stroke-linecap="butt" stroke-linejoin="miter" stroke="rgb(0%, 100%, 100%)" stroke-opacity="1" stroke-miterlimit="10" d="M 327.921875 349.488281 C 327.921875 330.15625 312.25 314.488281 292.921875 314.488281 C 273.589844 314.488281 257.921875 330.15625 257.921875 349.488281 C 257.921875 368.816406 273.589844 384.488281 292.921875 384.488281 C 312.25 384.488281 327.921875 368.816406 327.921875 349.488281 " transform="matrix(1, 0, 0, -1, 0, 700)"/>
<path fill-rule="nonzero" fill="rgb(0%, 100%, 100%)" fill-opacity="0.3" d="M 327.921875 350.511719 C 327.921875 369.84375 312.25 385.511719 292.921875 385.511719 C 273.589844 385.511719 257.921875 369.84375 257.921875 350.511719 C 257.921875 331.183594 273.589844 315.511719 292.921875 315.511719 C 312.25 315.511719 327.921875 331.183594 327.921875 350.511719 "/>
<path fill="none" stroke-width="2" stroke-linecap="butt" stroke-linejoin="miter" stroke="rgb(100%, 100%, 0%)" stroke-opacity="1" stroke-miterlimit="10" d="M 373.992188 408.425781 C 373.992188 387.4375 356.980469 370.425781 335.992188 370.425781 C 315.007812 370.425781 297.992188 387.4375 297.992188 408.425781 C 297.992188 429.414062 315.007812 446.425781 335.992188 446.425781 C 356.980469 446.425781 373.992188 429.414062 373.992188 408.425781 " transform="matrix(1, 0, 0, -1, 0, 700)"/>
<path fill-rule="nonzero" fill="rgb(100%, 100%, 0%)" fill-opacity="0.3" d="M 373.992188 291.574219 C 373.992188 312.5625 356.980469 329.574219 335.992188 329.574219 C 315.007812 329.574219 297.992188 312.5625 297.992188 291.574219 C 297.992188 270.585938 315.007812 253.574219 335.992188 253.574219 C 356.980469 253.574219 373.992188 270.585938 373.992188 291.574219 "/>
<path fill="none" stroke-width="2" stroke-linecap="butt" stroke-linejoin="miter" stroke="rgb(0%, 0%, 100%)" stroke-opacity="1" stroke-miterlimit="10" d="M 448.75 375.382812 C 448.75 352.738281 430.394531 334.382812 407.75 334.382812 C 385.105469 334.382812 366.75 352.738281 366.75 375.382812 C 366.75 398.023438 385.105469 416.382812 407.75 416.382812 C 430.394531 416.382812 448.75 398.023438 448.75 375.382812 " transform="matrix(1, 0, 0, -1, 0, 700)"/>
<path fill-rule="nonzero" fill="rgb(0%, 0%, 100%)" fill-opacity="0.3" d="M 448.75 324.617188 C 448.75 347.261719 430.394531 365.617188 407.75 365.617188 C 385.105469 365.617188 366.75 347.261719 366.75 324.617188 C 366.75 301.976562 385.105469 283.617188 407.75 283.617188 C 430.394531 283.617188 448.75 301.976562 448.75 324.617188 "/>
<path fill="none" stroke-width="2" stroke-linecap="butt" stroke-linejoin="miter" stroke="rgb(0%, 100%, 0%)" stroke-opacity="1" stroke-miterlimit="10" d="M 428.480469 293.628906 C 428.480469 269.328125 408.78125 249.628906 384.480469 249.628906 C 360.179688 249.628906 340.480469 269.328125 340.480469 293.628906 C 340.480469 317.929688 360.179688 337.628906 384.480469 337.628906 C 408.78125 337.628906 428.480469 317.929688 428.480469 293.628906 " transform="matrix(1, 0, 0, -1, 0, 700)"/>
<path fill-rule="nonzero" fill="rgb(0%, 100%, 0%)" fill-opacity="0.3" d="M 428.480469 406.371094 C 428.480469 430.671875 408.78125 450.371094 384.480469 450.371094 C 360.179688 450.371094 340.480469 430.671875 340.480469 406.371094 C 340.480469 382.070312 360.179688 362.371094 384.480469 362.371094 C 408.78125 362.371094 428.480469 382.070312 428.480469 406.371094 "/>
<path fill="none" stroke-width="2" stroke-linecap="butt" stroke-linejoin="miter" stroke="rgb(100%, 0%, 0%)" stroke-opacity="1" stroke-miterlimit="10" d="M 341.71875 308.574219 C 341.71875 282.617188 320.675781 261.574219 294.71875 261.574219 C 268.761719 261.574219 247.71875 282.617188 247.71875 308.574219 C 247.71875 334.53125 268.761719 355.574219 294.71875 355.574219 C 320.675781 355.574219 341.71875 334.53125 341.71875 308.574219 " transform="matrix(1, 0, 0, -1, 0, 700)"/>
<path fill-rule="nonzero" fill="rgb(100%, 0%, 0%)" fill-opacity="0.3" d="M 341.71875 391.425781 C 341.71875 417.382812 320.675781 438.425781 294.71875 438.425781 C 268.761719 438.425781 247.71875 417.382812 247.71875 391.425781 C 247.71875 365.46875 268.761719 344.425781 294.71875 344.425781 C 320.675781 344.425781 341.71875 365.46875 341.71875 391.425781 "/>
<path fill="none" stroke-width="2" stroke-linecap="butt" stroke-linejoin="miter" stroke="rgb(0%, 0%, 29.998779%)" stroke-opacity="1" stroke-miterlimit="10" d="M 328.007812 352.203125 C 328.007812 345.539062 318.007812 345.539062 318.007812 352.203125 C 318.007812 358.871094 328.007812 358.871094 328.007812 352.203125 " transform="matrix(1, 0, 0, -1, 0, 700)"/>
<path fill-rule="nonzero" fill="rgb(0%, 0%, 29.998779%)" fill-opacity="0.3" d="M 328.007812 347.796875 C 328.007812 354.460938 318.007812 354.460938 318.007812 347.796875 C 318.007812 341.128906 328.007812 341.128906 328.007812 347.796875 "/>
</svg>
