<?xml version="1.0" encoding="UTF-8"?>
<svg xmlns="http://www.w3.org/2000/svg" xmlns:xlink="http://www.w3.org/1999/xlink" width="700" height="700" viewBox="0 0 700 700">
<path fill="none" stroke-width="2" stroke-linecap="butt" stroke-linejoin="miter" stroke="rgb(0%, 50%, 0%)" stroke-opacity="0.6" stroke-miterlimit="10" d="M 350 350 L 377.523438 350 Z M 350 350 " transform="matrix(1, 0, 0, -1, 0, 700)"/>
<path fill="none" stroke-width="2" stroke-linecap="butt" stroke-linejoin="miter" stroke="rgb(0%, 50%, 0%)" stroke-opacity="0.6" stroke-miterlimit="10" d="M 350 350 L 377.523438 350 L 377.617188 337 Z M 350 350 " transform="matrix(1, 0, 0, -1, 0, 700)"/>
<path fill="none" stroke-width="2" stroke-linecap="butt" stroke-linejoin="miter" stroke="rgb(0%, 50%, 0%)" stroke-opacity="0.6" stroke-miterlimit="10" d="M 350 350 L 377.617188 337 L 367.109375 321.171875 Z M 350 350 " transform="matrix(1, 0, 0, -1, 0, 700)"/>
<path fill="none" stroke-width="2" stroke-linecap="butt" stroke-linejoin="miter" stroke="rgb(0%, 50%, 0%)" stroke-opacity="0.6" stroke-miterlimit="10" d="M 350 350 L 367.109375 321.171875 L 343.121094 314.128906 Z M 350 350 " transform="matrix(1, 0, 0, -1, 0, 700)"/>
<path fill="none" stroke-width="2" stroke-linecap="butt" stroke-linejoin="miter" stroke="rgb(0%, 50%, 0%)" stroke-opacity="0.6" stroke-miterlimit="10" d="M 350 350 L 343.121094 314.128906 L 316.203125 329.507812 Z M 350 350 " transform="matrix(1, 0, 0, -1, 0, 700)"/>
<path fill="none" stroke-width="2" stroke-linecap="butt" stroke-linejoin="miter" stroke="rgb(0%, 50%, 0%)" stroke-opacity="0.6" stroke-miterlimit="10" d="M 350 350 L 316.203125 329.507812 L 310.636719 366.089844 Z M 350 350 " transform="matrix(1, 0, 0, -1, 0, 700)"/>
<path fill="none" stroke-width="2" stroke-linecap="butt" stroke-linejoin="miter" stroke="rgb(0%, 50%, 0%)" stroke-opacity="0.6" stroke-miterlimit="10" d="M 350 350 L 310.636719 366.089844 L 342.550781 394.910156 Z M 350 350 " transform="matrix(1, 0, 0, -1, 0, 700)"/>
<path fill="none" stroke-width="2" stroke-linecap="butt" stroke-linejoin="miter" stroke="rgb(0%, 50%, 0%)" stroke-opacity="0.6" stroke-miterlimit="10" d="M 350 350 L 342.550781 394.910156 L 388.898438 379.007812 Z M 350 350 " transform="matrix(1, 0, 0, -1, 0, 700)"/>
<path fill="none" stroke-width="2" stroke-linecap="butt" stroke-linejoin="miter" stroke="rgb(0%, 50%, 0%)" stroke-opacity="0.6" stroke-miterlimit="10" d="M 350 350 L 388.898438 379.007812 L 394.664062 324.3125 Z M 350 350 " transform="matrix(1, 0, 0, -1, 0, 700)"/>
<path fill="none" stroke-width="2" stroke-linecap="butt" stroke-linejoin="miter" stroke="rgb(0%, 50%, 0%)" stroke-opacity="0.6" stroke-miterlimit="10" d="M 350 350 L 394.664062 324.3125 L 340.464844 296.316406 Z M 350 350 " transform="matrix(1, 0, 0, -1, 0, 700)"/>
<path fill="none" stroke-width="2" stroke-linecap="butt" stroke-linejoin="miter" stroke="rgb(0%, 50%, 0%)" stroke-opacity="0.6" stroke-miterlimit="10" d="M 350 350 L 340.464844 296.316406 L 292.851562 343.453125 Z M 350 350 " transform="matrix(1, 0, 0, -1, 0, 700)"/>
<path fill="none" stroke-width="2" stroke-linecap="butt" stroke-linejoin="miter" stroke="rgb(0%, 50%, 0%)" stroke-opacity="0.6" stroke-miterlimit="10" d="M 350 350 L 292.851562 343.453125 L 329.117188 406.804688 Z M 350 350 " transform="matrix(1, 0, 0, -1, 0, 700)"/>
<path fill="none" stroke-width="2" stroke-linecap="butt" stroke-linejoin="miter" stroke="rgb(0%, 50%, 0%)" stroke-opacity="0.6" stroke-miterlimit="10" d="M 350 350 L 329.117188 406.804688 L 404.386719 382.820312 Z M 350 350 " transform="matrix(1, 0, 0, -1, 0, 700)"/>
<path fill="none" stroke-width="2" stroke-linecap="butt" stroke-linejoin="miter" stroke="rgb(0%, 50%, 0%)" stroke-opacity="0.6" stroke-miterlimit="10" d="M 350 350 L 404.386719 382.820312 L 392.328125 298.679688 Z M 350 350 " transform="matrix(1, 0, 0, -1, 0, 700)"/>
<path fill="none" stroke-width="2" stroke-linecap="butt" stroke-linejoin="miter" stroke="rgb(0%, 50%, 0%)" stroke-opacity="0.6" stroke-miterlimit="10" d="M 350 350 L 392.328125 298.679688 L 301.34375 300.339844 Z M 350 350 " transform="matrix(1, 0, 0, -1, 0, 700)"/>
<path fill="none" stroke-width="2" stroke-linecap="butt" stroke-linejoin="miter" stroke="rgb(0%, 50%, 0%)" stroke-opacity="0.6" stroke-miterlimit="10" d="M 350 350 L 301.34375 300.339844 L 322.5625 347.816406 Z M 350 350 " transform="matrix(1, 0, 0, -1, 0, 700)"/>
<path fill="none" stroke-width="4" stroke-linecap="butt" stroke-linejoin="miter" stroke="rgb(0%, 0%, 0%)" stroke-opacity="1" stroke-miterlimit="10" d="M 372.523438 350 C 372.523438 337.5625 362.4375 327.476562 350 327.476562 C 337.5625 327.476562 327.476562 337.5625 327.476562 350 C 327.476562 362.4375 337.5625 372.523438 350 372.523438 C 362.4375 372.523438 372.523438 362.4375 372.523438 350 " transform="matrix(1, 0, 0, -1, 0, 700)"/>
<path fill-rule="nonzero" fill="rgb(0%, 0%, 0%)" fill-opacity="0.3" d="M 372.523438 350 C 372.523438 362.4375 362.4375 372.523438 350 372.523438 C 337.5625 372.523438 327.476562 362.4375 327.476562 350 C 327.476562 337.5625 337.5625 327.476562 350 327.476562 C 362.4375 327.476562 372.523438 337.5625 372.523438 350 "/>
<path fill="none" stroke-width="2" stroke-linecap="butt" stroke-linejoin="miter" stroke="rgb(69.999695%, 29.998779%, 9.999084%)" stroke-opacity="1" stroke-miterlimit="10" d="M 382.523438 350 C 382.523438 343.332031 372.523438 343.332031 372.523438 350 C 372.523438 356.667969 382.523438 356.667969 382.523438 350 " transform="matrix(1, 0, 0, -1, 0, 700)"/>
<path fill-rule="nonzero" fill="rgb(69.999695%, 29.998779%, 9.999084%)" fill-opacity="0.3" d="M 382.523438 350 C 382.523438 356.667969 372.523438 356.667969 372.523438 350 C 372.523438 343.332031 382.523438 343.332031 382.523438 350 "/>
<path fill="none" stroke-width="2" stroke-linecap="butt" stroke-linejoin="miter" stroke="rgb(81.999207%, 40.99884%, 10.998535%)" stroke-opacity="1" stroke-miterlimit="10" d="M 385.617188 337 C 385.617188 332.582031 382.035156 329 377.617188 329 C 373.199219 329 369.617188 332.582031 369.617188 337 C 369.617188 341.417969 373.199219 345 377.617188 345 C 382.035156 345 385.617188 341.417969 385.617188 337 " transform="matrix(1, 0, 0, -1, 0, 700)"/>
<path fill-rule="nonzero" fill="rgb(81.999207%, 40.99884%, 10.998535%)" fill-opacity="0.3" d="M 385.617188 363 C 385.617188 367.417969 382.035156 371 377.617188 371 C 373.199219 371 369.617188 367.417969 369.617188 363 C 369.617188 358.582031 373.199219 355 377.617188 355 C 382.035156 355 385.617188 358.582031 385.617188 363 "/>
<path fill="none" stroke-width="2" stroke-linecap="butt" stroke-linejoin="miter" stroke="rgb(100%, 53.999329%, 0%)" stroke-opacity="1" stroke-miterlimit="10" d="M 378.109375 321.171875 C 378.109375 315.097656 373.183594 310.171875 367.109375 310.171875 C 361.03125 310.171875 356.109375 315.097656 356.109375 321.171875 C 356.109375 327.246094 361.03125 332.171875 367.109375 332.171875 C 373.183594 332.171875 378.109375 327.246094 378.109375 321.171875 " transform="matrix(1, 0, 0, -1, 0, 700)"/>
<path fill-rule="nonzero" fill="rgb(100%, 53.999329%, 0%)" fill-opacity="0.3" d="M 378.109375 378.828125 C 378.109375 384.902344 373.183594 389.828125 367.109375 389.828125 C 361.03125 389.828125 356.109375 384.902344 356.109375 378.828125 C 356.109375 372.753906 361.03125 367.828125 367.109375 367.828125 C 373.183594 367.828125 378.109375 372.753906 378.109375 378.828125 "/>
<path fill="none" stroke-width="2" stroke-linecap="butt" stroke-linejoin="miter" stroke="rgb(100%, 6.999207%, 56.999207%)" stroke-opacity="1" stroke-miterlimit="10" d="M 357.121094 314.128906 C 357.121094 306.398438 350.851562 300.128906 343.121094 300.128906 C 335.386719 300.128906 329.121094 306.398438 329.121094 314.128906 C 329.121094 321.863281 335.386719 328.128906 343.121094 328.128906 C 350.851562 328.128906 357.121094 321.863281 357.121094 314.128906 " transform="matrix(1, 0, 0, -1, 0, 700)"/>
<path fill-rule="nonzero" fill="rgb(100%, 6.999207%, 56.999207%)" fill-opacity="0.3" d="M 357.121094 385.871094 C 357.121094 393.601562 350.851562 399.871094 343.121094 399.871094 C 335.386719 399.871094 329.121094 393.601562 329.121094 385.871094 C 329.121094 378.136719 335.386719 371.871094 343.121094 371.871094 C 350.851562 371.871094 357.121094 378.136719 357.121094 385.871094 "/>
<path fill="none" stroke-width="2" stroke-linecap="butt" stroke-linejoin="miter" stroke="rgb(0%, 0%, 50%)" stroke-opacity="1" stroke-miterlimit="10" d="M 333.203125 329.507812 C 333.203125 320.121094 325.59375 312.507812 316.203125 312.507812 C 306.816406 312.507812 299.203125 320.121094 299.203125 329.507812 C 299.203125 338.898438 306.816406 346.507812 316.203125 346.507812 C 325.59375 346.507812 333.203125 338.898438 333.203125 329.507812 " transform="matrix(1, 0, 0, -1, 0, 700)"/>
<path fill-rule="nonzero" fill="rgb(0%, 0%, 50%)" fill-opacity="0.3" d="M 333.203125 370.492188 C 333.203125 379.878906 325.59375 387.492188 316.203125 387.492188 C 306.816406 387.492188 299.203125 379.878906 299.203125 370.492188 C 299.203125 361.101562 306.816406 353.492188 316.203125 353.492188 C 325.59375 353.492188 333.203125 361.101562 333.203125 370.492188 "/>
<path fill="none" stroke-width="2" stroke-linecap="butt" stroke-linejoin="miter" stroke="rgb(0%, 50%, 50%)" stroke-opacity="1" stroke-miterlimit="10" d="M 330.636719 366.089844 C 330.636719 355.042969 321.683594 346.089844 310.636719 346.089844 C 299.59375 346.089844 290.636719 355.042969 290.636719 366.089844 C 290.636719 377.132812 299.59375 386.089844 310.636719 386.089844 C 321.683594 386.089844 330.636719 377.132812 330.636719 366.089844 " transform="matrix(1, 0, 0, -1, 0, 700)"/>
<path fill-rule="nonzero" fill="rgb(0%, 50%, 50%)" fill-opacity="0.3" d="M 330.636719 333.910156 C 330.636719 344.957031 321.683594 353.910156 310.636719 353.910156 C 299.59375 353.910156 290.636719 344.957031 290.636719 333.910156 C 290.636719 322.867188 299.59375 313.910156 310.636719 313.910156 C 321.683594 313.910156 330.636719 322.867188 330.636719 333.910156 "/>
<path fill="none" stroke-width="2" stroke-linecap="butt" stroke-linejoin="miter" stroke="rgb(50%, 0%, 50%)" stroke-opacity="1" stroke-miterlimit="10" d="M 365.550781 394.910156 C 365.550781 382.207031 355.25 371.910156 342.550781 371.910156 C 329.847656 371.910156 319.550781 382.207031 319.550781 394.910156 C 319.550781 407.613281 329.847656 417.910156 342.550781 417.910156 C 355.25 417.910156 365.550781 407.613281 365.550781 394.910156 " transform="matrix(1, 0, 0, -1, 0, 700)"/>
<path fill-rule="nonzero" fill="rgb(50%, 0%, 50%)" fill-opacity="0.3" d="M 365.550781 305.089844 C 365.550781 317.792969 355.25 328.089844 342.550781 328.089844 C 329.847656 328.089844 319.550781 317.792969 319.550781 305.089844 C 319.550781 292.386719 329.847656 282.089844 342.550781 282.089844 C 355.25 282.089844 365.550781 292.386719 365.550781 305.089844 "/>
<path fill="none" stroke-width="2" stroke-linecap="butt" stroke-linejoin="miter" stroke="rgb(0%, 50%, 0%)" stroke-opacity="1" stroke-miterlimit="10" d="M 414.898438 379.007812 C 414.898438 364.648438 403.257812 353.007812 388.898438 353.007812 C 374.539062 353.007812 362.898438 364.648438 362.898438 379.007812 C 362.898438 393.367188 374.539062 405.007812 388.898438 405.007812 C 403.257812 405.007812 414.898438 393.367188 414.898438 379.007812 " transform="matrix(1, 0, 0, -1, 0, 700)"/>
<path fill-rule="nonzero" fill="rgb(0%, 50%, 0%)" fill-opacity="0.3" d="M 414.898438 320.992188 C 414.898438 335.351562 403.257812 346.992188 388.898438 346.992188 C 374.539062 346.992188 362.898438 335.351562 362.898438 320.992188 C 362.898438 306.632812 374.539062 294.992188 388.898438 294.992188 C 403.257812 294.992188 414.898438 306.632812 414.898438 320.992188 "/>
<path fill="none" stroke-width="2" stroke-linecap="butt" stroke-linejoin="miter" stroke="rgb(50%, 0%, 0%)" stroke-opacity="1" stroke-miterlimit="10" d="M 423.664062 324.3125 C 423.664062 308.296875 410.679688 295.3125 394.664062 295.3125 C 378.644531 295.3125 365.664062 308.296875 365.664062 324.3125 C 365.664062 340.328125 378.644531 353.3125 394.664062 353.3125 C 410.679688 353.3125 423.664062 340.328125 423.664062 324.3125 " transform="matrix(1, 0, 0, -1, 0, 700)"/>
<path fill-rule="nonzero" fill="rgb(50%, 0%, 0%)" fill-opacity="0.3" d="M 423.664062 375.6875 C 423.664062 391.703125 410.679688 404.6875 394.664062 404.6875 C 378.644531 404.6875 365.664062 391.703125 365.664062 375.6875 C 365.664062 359.671875 378.644531 346.6875 394.664062 346.6875 C 410.679688 346.6875 423.664062 359.671875 423.664062 375.6875 "/>
<path fill="none" stroke-width="2" stroke-linecap="butt" stroke-linejoin="miter" stroke="rgb(100%, 0%, 100%)" stroke-opacity="1" stroke-miterlimit="10" d="M 372.464844 296.316406 C 372.464844 278.644531 358.140625 264.316406 340.464844 264.316406 C 322.792969 264.316406 308.464844 278.644531 308.464844 296.316406 C 308.464844 313.988281 322.792969 328.316406 340.464844 328.316406 C 358.140625 328.316406 372.464844 313.988281 372.464844 296.316406 " transform="matrix(1, 0, 0, -1, 0, 700)"/>
<path fill-rule="nonzero" fill="rgb(100%, 0%, 100%)" fill-opacity="0.3" d="M 372.464844 403.683594 C 372.464844 421.355469 358.140625 435.683594 340.464844 435.683594 C 322.792969 435.683594 308.464844 421.355469 308.464844 403.683594 C 308.464844 386.011719 322.792969 371.683594 340.464844 371.683594 C 358.140625 371.683594 372.464844 386.011719 372.464844 403.683594 "/>
<path fill="none" stroke-width="2" stroke-linecap="butt" stroke-linejoin="miter" stroke="rgb(0%, 100%, 100%)" stroke-opacity="1" stroke-miterlimit="10" d="M 327.851562 343.453125 C 327.851562 324.121094 312.179688 308.453125 292.851562 308.453125 C 273.519531 308.453125 257.851562 324.121094 257.851562 343.453125 C 257.851562 362.78125 273.519531 378.453125 292.851562 378.453125 C 312.179688 378.453125 327.851562 362.78125 327.851562 343.453125 " transform="matrix(1, 0, 0, -1, 0, 700)"/>
<path fill-rule="nonzero" fill="rgb(0%, 100%, 100%)" fill-opacity="0.3" d="M 327.851562 356.546875 C 327.851562 375.878906 312.179688 391.546875 292.851562 391.546875 C 273.519531 391.546875 257.851562 375.878906 257.851562 356.546875 C 257.851562 337.21875 273.519531 321.546875 292.851562 321.546875 C 312.179688 321.546875 327.851562 337.21875 327.851562 356.546875 "/>
<path fill="none" stroke-width="2" stroke-linecap="butt" stroke-linejoin="miter" stroke="rgb(100%, 100%, 0%)" stroke-opacity="1" stroke-miterlimit="10" d="M 367.117188 406.804688 C 367.117188 385.820312 350.105469 368.804688 329.117188 368.804688 C 308.128906 368.804688 291.117188 385.820312 291.117188 406.804688 C 291.117188 427.792969 308.128906 444.804688 329.117188 444.804688 C 350.105469 444.804688 367.117188 427.792969 367.117188 406.804688 " transform="matrix(1, 0, 0, -1, 0, 700)"/>
<path fill-rule="nonzero" fill="rgb(100%, 100%, 0%)" fill-opacity="0.3" d="M 367.117188 293.195312 C 367.117188 314.179688 350.105469 331.195312 329.117188 331.195312 C 308.128906 331.195312 291.117188 314.179688 291.117188 293.195312 C 291.117188 272.207031 308.128906 255.195312 329.117188 255.195312 C 350.105469 255.195312 367.117188 272.207031 367.117188 293.195312 "/>
<path fill="none" stroke-width="2" stroke-linecap="butt" stroke-linejoin="miter" stroke="rgb(0%, 0%, 100%)" stroke-opacity="1" stroke-miterlimit="10" d="M 445.386719 382.820312 C 445.386719 360.175781 427.03125 341.820312 404.386719 341.820312 C 381.746094 341.820312 363.386719 360.175781 363.386719 382.820312 C 363.386719 405.464844 381.746094 423.820312 404.386719 423.820312 C 427.03125 423.820312 445.386719 405.464844 445.386719 382.820312 " transform="matrix(1, 0, 0, -1, 0, 700)"/>
<path fill-rule="nonzero" fill="rgb(0%, 0%, 100%)" fill-opacity="0.3" d="M 445.386719 317.179688 C 445.386719 339.824219 427.03125 358.179688 404.386719 358.179688 C 381.746094 358.179688 363.386719 339.824219 363.386719 317.179688 C 363.386719 294.535156 381.746094 276.179688 404.386719 276.179688 C 427.03125 276.179688 445.386719 294.535156 445.386719 317.179688 "/>
<path fill="none" stroke-width="2" stroke-linecap="butt" stroke-linejoin="miter" stroke="rgb(0%, 100%, 0%)" stroke-opacity="1" stroke-miterlimit="10" d="M 436.328125 298.679688 C 436.328125 274.378906 416.628906 254.679688 392.328125 254.679688 C 368.027344 254.679688 348.328125 274.378906 348.328125 298.679688 C 348.328125 322.980469 368.027344 342.679688 392.328125 342.679688 C 416.628906 342.679688 436.328125 322.980469 436.328125 298.679688 " transform="matrix(1, 0, 0, -1, 0, 700)"/>
<path fill-rule="nonzero" fill="rgb(0%, 100%, 0%)" fill-opacity="0.3" d="M 436.328125 401.320312 C 436.328125 425.621094 416.628906 445.320312 392.328125 445.320312 C 368.027344 445.320312 348.328125 425.621094 348.328125 401.320312 C 348.328125 377.019531 368.027344 357.320312 392.328125 357.320312 C 416.628906 357.320312 436.328125 377.019531 436.328125 401.320312 "/>
<path fill="none" stroke-width="2" stroke-linecap="butt" stroke-linejoin="miter" stroke="rgb(100%, 0%, 0%)" stroke-opacity="1" stroke-miterlimit="10" d="M 348.34375 300.339844 C 348.34375 274.382812 327.300781 253.339844 301.34375 253.339844 C 275.386719 253.339844 254.34375 274.382812 254.34375 300.339844 C 254.34375 326.300781 275.386719 347.339844 301.34375 347.339844 C 327.300781 347.339844 348.34375 326.300781 348.34375 300.339844 " transform="matrix(1, 0, 0, -1, 0, 700)"/>
<path fill-rule="nonzero" fill="rgb(100%, 0%, 0%)" fill-opacity="0.3" d="M 348.34375 399.660156 C 348.34375 425.617188 327.300781 446.660156 301.34375 446.660156 C 275.386719 446.660156 254.34375 425.617188 254.34375 399.660156 C 254.34375 373.699219 275.386719 352.660156 301.34375 352.660156 C 327.300781 352.660156 348.34375 373.699219 348.34375 399.660156 "/>
<path fill="none" stroke-width="2" stroke-linecap="butt" stroke-linejoin="miter" stroke="rgb(0%, 0%, 29.998779%)" stroke-opacity="1" stroke-miterlimit="10" d="M 327.5625 347.816406 C 327.5625 341.148438 317.5625 341.148438 317.5625 347.816406 C 317.5625 354.480469 327.5625 354.480469 327.5625 347.816406 " transform="matrix(1, 0, 0, -1, 0, 700)"/>
<path fill-rule="nonzero" fill="rgb(0%, 0%, 29.998779%)" fill-opacity="0.3" d="M 327.5625 352.183594 C 327.5625 358.851562 317.5625 358.851562 317.5625 352.183594 C 317.5625 345.519531 327.5625 345.519531 327.5625 352.183594 "/>
</svg>
