<?xml version="1.0" encoding="UTF-8"?>
<svg xmlns="http://www.w3.org/2000/svg" xmlns:xlink="http://www.w3.org/1999/xlink" width="700" height="700" viewBox="0 0 700 700">
<path fill="none" stroke-width="2" stroke-linecap="butt" stroke-linejoin="miter" stroke="rgb(0%, 50%, 0%)" stroke-opacity="0.6" stroke-miterlimit="10" d="M 350 350 L 377.972656 350 Z M 350 350 " transform="matrix(1, 0, 0, -1, 0, 700)"/>
<path fill="none" stroke-width="2" stroke-linecap="butt" stroke-linejoin="miter" stroke="rgb(0%, 50%, 0%)" stroke-opacity="0.6" stroke-miterlimit="10" d="M 350 350 L 377.972656 350 L 378.113281 337 Z M 350 350 " transform="matrix(1, 0, 0, -1, 0, 700)"/>
<path fill="none" stroke-width="2" stroke-linecap="butt" stroke-linejoin="miter" stroke="rgb(0%, 50%, 0%)" stroke-opacity="0.6" stroke-miterlimit="10" d="M 350 350 L 378.113281 337 L 367.785156 321.054688 Z M 350 350 " transform="matrix(1, 0, 0, -1, 0, 700)"/>
<path fill="none" stroke-width="2" stroke-linecap="butt" stroke-linejoin="miter" stroke="rgb(0%, 50%, 0%)" stroke-opacity="0.6" stroke-miterlimit="10" d="M 350 350 L 367.785156 321.054688 L 343.945312 313.523438 Z M 350 350 " transform="matrix(1, 0, 0, -1, 0, 700)"/>
<path fill="none" stroke-width="2" stroke-linecap="butt" stroke-linejoin="miter" stroke="rgb(0%, 50%, 0%)" stroke-opacity="0.6" stroke-miterlimit="10" d="M 350 350 L 343.945312 313.523438 L 316.574219 328.078125 Z M 350 350 " transform="matrix(1, 0, 0, -1, 0, 700)"/>
<path fill="none" stroke-width="2" stroke-linecap="butt" stroke-linejoin="miter" stroke="rgb(0%, 50%, 0%)" stroke-opacity="0.6" stroke-miterlimit="10" d="M 350 350 L 316.574219 328.078125 L 309.511719 364.398438 Z M 350 350 " transform="matrix(1, 0, 0, -1, 0, 700)"/>
<path fill="none" stroke-width="2" stroke-linecap="butt" stroke-linejoin="miter" stroke="rgb(0%, 50%, 0%)" stroke-opacity="0.6" stroke-miterlimit="10" d="M 350 350 L 309.511719 364.398438 L 339.875 394.84375 Z M 350 350 " transform="matrix(1, 0, 0, -1, 0, 700)"/>
<path fill="none" stroke-width="2" stroke-linecap="butt" stroke-linejoin="miter" stroke="rgb(0%, 50%, 0%)" stroke-opacity="0.6" stroke-miterlimit="10" d="M 350 350 L 339.875 394.84375 L 387.140625 381.921875 Z M 350 350 " transform="matrix(1, 0, 0, -1, 0, 700)"/>
<path fill="none" stroke-width="2" stroke-linecap="butt" stroke-linejoin="miter" stroke="rgb(0%, 50%, 0%)" stroke-opacity="0.6" stroke-miterlimit="10" d="M 350 350 L 387.140625 381.921875 L 397 327.816406 Z M 350 350 " transform="matrix(1, 0, 0, -1, 0, 700)"/>
<path fill="none" stroke-width="2" stroke-linecap="butt" stroke-linejoin="miter" stroke="rgb(0%, 50%, 0%)" stroke-opacity="0.6" stroke-miterlimit="10" d="M 350 350 L 397 327.816406 L 345.441406 295.214844 Z M 350 350 " transform="matrix(1, 0, 0, -1, 0, 700)"/>
<path fill="none" stroke-width="2" stroke-linecap="butt" stroke-linejoin="miter" stroke="rgb(0%, 50%, 0%)" stroke-opacity="0.6" stroke-miterlimit="10" d="M 350 350 L 345.441406 295.214844 L 293.40625 337.421875 Z M 350 350 " transform="matrix(1, 0, 0, -1, 0, 700)"/>
<path fill="none" stroke-width="2" stroke-linecap="butt" stroke-linejoin="miter" stroke="rgb(0%, 50%, 0%)" stroke-opacity="0.6" stroke-miterlimit="10" d="M 350 350 L 293.40625 337.421875 L 322.453125 404.394531 Z M 350 350 " transform="matrix(1, 0, 0, -1, 0, 700)"/>
<path fill="none" stroke-width="2" stroke-linecap="butt" stroke-linejoin="miter" stroke="rgb(0%, 50%, 0%)" stroke-opacity="0.6" stroke-miterlimit="10" d="M 350 350 L 322.453125 404.394531 L 400.089844 389.792969 Z M 350 350 " transform="matrix(1, 0, 0, -1, 0, 700)"/>
<path fill="none" stroke-width="2" stroke-linecap="butt" stroke-linejoin="miter" stroke="rgb(0%, 50%, 0%)" stroke-opacity="0.6" stroke-miterlimit="10" d="M 350 350 L 400.089844 389.792969 L 399.417969 304.796875 Z M 350 350 " transform="matrix(1, 0, 0, -1, 0, 700)"/>
<path fill="none" stroke-width="2" stroke-linecap="butt" stroke-linejoin="miter" stroke="rgb(0%, 50%, 0%)" stroke-opacity="0.6" stroke-miterlimit="10" d="M 350 350 L 399.417969 304.796875 L 309.164062 293.179688 Z M 350 350 " transform="matrix(1, 0, 0, -1, 0, 700)"/>
<path fill="none" stroke-width="2" stroke-linecap="butt" stroke-linejoin="miter" stroke="rgb(0%, 50%, 0%)" stroke-opacity="0.6" stroke-miterlimit="10" d="M 350 350 L 309.164062 293.179688 L 322.828125 343.351562 Z M 350 350 " transform="matrix(1, 0, 0, -1, 0, 700)"/>
<path fill="none" stroke-width="4" stroke-linecap="butt" stroke-linejoin="miter" stroke="rgb(0%, 0%, 0%)" stroke-opacity="1" stroke-miterlimit="10" d="M 372.972656 350 C 372.972656 337.3125 362.6875 327.027344 350 327.027344 C 337.3125 327.027344 327.027344 337.3125 327.027344 350 C 327.027344 362.6875 337.3125 372.972656 350 372.972656 C 362.6875 372.972656 372.972656 362.6875 372.972656 350 " transform="matrix(1, 0, 0, -1, 0, 700)"/>
<path fill-rule="nonzero" fill="rgb(0%, 0%, 0%)" fill-opacity="0.3" d="M 372.972656 350 C 372.972656 362.6875 362.6875 372.972656 350 372.972656 C 337.3125 372.972656 327.027344 362.6875 327.027344 350 C 327.027344 337.3125 337.3125 327.027344 350 327.027344 C 362.6875 327.027344 372.972656 337.3125 372.972656 350 "/>
<path fill="none" stroke-width="2" stroke-linecap="butt" stroke-linejoin="miter" stroke="rgb(69.999695%, 29.998779%, 9.999084%)" stroke-opacity="1" stroke-miterlimit="10" d="M 382.972656 350 C 382.972656 343.332031 372.972656 343.332031 372.972656 350 C 372.972656 356.667969 382.972656 356.667969 382.972656 350 " transform="matrix(1, 0, 0, -1, 0, 700)"/>
<path fill-rule="nonzero" fill="rgb(69.999695%, 29.998779%, 9.999084%)" fill-opacity="0.3" d="M 382.972656 350 C 382.972656 356.667969 372.972656 356.667969 372.972656 350 C 372.972656 343.332031 382.972656 343.332031 382.972656 350 "/>
<path fill="none" stroke-width="2" stroke-linecap="butt" stroke-linejoin="miter" stroke="rgb(81.999207%, 40.99884%, 10.998535%)" stroke-opacity="1" stroke-miterlimit="10" d="M 386.113281 337 C 386.113281 332.582031 382.53125 329 378.113281 329 C 373.695312 329 370.113281 332.582031 370.113281 337 C 370.113281 341.417969 373.695312 345 378.113281 345 C 382.53125 345 386.113281 341.417969 386.113281 337 " transform="matrix(1, 0, 0, -1, 0, 700)"/>
<path fill-rule="nonzero" fill="rgb(81.999207%, 40.99884%, 10.998535%)" fill-opacity="0.3" d="M 386.113281 363 C 386.113281 367.417969 382.53125 371 378.113281 371 C 373.695312 371 370.113281 367.417969 370.113281 363 C 370.113281 358.582031 373.695312 355 378.113281 355 C 382.53125 355 386.113281 358.582031 386.113281 363 "/>
<path fill="none" stroke-width="2" stroke-linecap="butt" stroke-linejoin="miter" stroke="rgb(100%, 53.999329%, 0%)" stroke-opacity="1" stroke-miterlimit="10" d="M 378.785156 321.054688 C 378.785156 314.976562 373.859375 310.054688 367.785156 310.054688 C 361.710938 310.054688 356.785156 314.976562 356.785156 321.054688 C 356.785156 327.128906 361.710938 332.054688 367.785156 332.054688 C 373.859375 332.054688 378.785156 327.128906 378.785156 321.054688 " transform="matrix(1, 0, 0, -1, 0, 700)"/>
<path fill-rule="nonzero" fill="rgb(100%, 53.999329%, 0%)" fill-opacity="0.3" d="M 378.785156 378.945312 C 378.785156 385.023438 373.859375 389.945312 367.785156 389.945312 C 361.710938 389.945312 356.785156 385.023438 356.785156 378.945312 C 356.785156 372.871094 361.710938 367.945312 367.785156 367.945312 C 373.859375 367.945312 378.785156 372.871094 378.785156 378.945312 "/>
<path fill="none" stroke-width="2" stroke-linecap="butt" stroke-linejoin="miter" stroke="rgb(100%, 6.999207%, 56.999207%)" stroke-opacity="1" stroke-miterlimit="10" d="M 357.945312 313.523438 C 357.945312 305.792969 351.675781 299.523438 343.945312 299.523438 C 336.214844 299.523438 329.945312 305.792969 329.945312 313.523438 C 329.945312 321.257812 336.214844 327.523438 343.945312 327.523438 C 351.675781 327.523438 357.945312 321.257812 357.945312 313.523438 " transform="matrix(1, 0, 0, -1, 0, 700)"/>
<path fill-rule="nonzero" fill="rgb(100%, 6.999207%, 56.999207%)" fill-opacity="0.3" d="M 357.945312 386.476562 C 357.945312 394.207031 351.675781 400.476562 343.945312 400.476562 C 336.214844 400.476562 329.945312 394.207031 329.945312 386.476562 C 329.945312 378.742188 336.214844 372.476562 343.945312 372.476562 C 351.675781 372.476562 357.945312 378.742188 357.945312 386.476562 "/>
<path fill="none" stroke-width="2" stroke-linecap="butt" stroke-linejoin="miter" stroke="rgb(0%, 0%, 50%)" stroke-opacity="1" stroke-miterlimit="10" d="M 333.574219 328.078125 C 333.574219 318.6875 325.960938 311.078125 316.574219 311.078125 C 307.183594 311.078125 299.574219 318.6875 299.574219 328.078125 C 299.574219 337.46875 307.183594 345.078125 316.574219 345.078125 C 325.960938 345.078125 333.574219 337.46875 333.574219 328.078125 " transform="matrix(1, 0, 0, -1, 0, 700)"/>
<path fill-rule="nonzero" fill="rgb(0%, 0%, 50%)" fill-opacity="0.3" d="M 333.574219 371.921875 C 333.574219 381.3125 325.960938 388.921875 316.574219 388.921875 C 307.183594 388.921875 299.574219 381.3125 299.574219 371.921875 C 299.574219 362.53125 307.183594 354.921875 316.574219 354.921875 C 325.960938 354.921875 333.574219 362.53125 333.574219 371.921875 "/>
<path fill="none" stroke-width="2" stroke-linecap="butt" stroke-linejoin="miter" stroke="rgb(0%, 50%, 50%)" stroke-opacity="1" stroke-miterlimit="10" d="M 329.511719 364.398438 C 329.511719 353.351562 320.554688 344.398438 309.511719 344.398438 C 298.464844 344.398438 289.511719 353.351562 289.511719 364.398438 C 289.511719 375.441406 298.464844 384.398438 309.511719 384.398438 C 320.554688 384.398438 329.511719 375.441406 329.511719 364.398438 " transform="matrix(1, 0, 0, -1, 0, 700)"/>
<path fill-rule="nonzero" fill="rgb(0%, 50%, 50%)" fill-opacity="0.3" d="M 329.511719 335.601562 C 329.511719 346.648438 320.554688 355.601562 309.511719 355.601562 C 298.464844 355.601562 289.511719 346.648438 289.511719 335.601562 C 289.511719 324.558594 298.464844 315.601562 309.511719 315.601562 C 320.554688 315.601562 329.511719 324.558594 329.511719 335.601562 "/>
<path fill="none" stroke-width="2" stroke-linecap="butt" stroke-linejoin="miter" stroke="rgb(50%, 0%, 50%)" stroke-opacity="1" stroke-miterlimit="10" d="M 362.875 394.84375 C 362.875 382.140625 352.578125 371.84375 339.875 371.84375 C 327.171875 371.84375 316.875 382.140625 316.875 394.84375 C 316.875 407.546875 327.171875 417.84375 339.875 417.84375 C 352.578125 417.84375 362.875 407.546875 362.875 394.84375 " transform="matrix(1, 0, 0, -1, 0, 700)"/>
<path fill-rule="nonzero" fill="rgb(50%, 0%, 50%)" fill-opacity="0.3" d="M 362.875 305.15625 C 362.875 317.859375 352.578125 328.15625 339.875 328.15625 C 327.171875 328.15625 316.875 317.859375 316.875 305.15625 C 316.875 292.453125 327.171875 282.15625 339.875 282.15625 C 352.578125 282.15625 362.875 292.453125 362.875 305.15625 "/>
<path fill="none" stroke-width="2" stroke-linecap="butt" stroke-linejoin="miter" stroke="rgb(0%, 50%, 0%)" stroke-opacity="1" stroke-miterlimit="10" d="M 413.140625 381.921875 C 413.140625 367.5625 401.5 355.921875 387.140625 355.921875 C 372.78125 355.921875 361.140625 367.5625 361.140625 381.921875 C 361.140625 396.28125 372.78125 407.921875 387.140625 407.921875 C 401.5 407.921875 413.140625 396.28125 413.140625 381.921875 " transform="matrix(1, 0, 0, -1, 0, 700)"/>
<path fill-rule="nonzero" fill="rgb(0%, 50%, 0%)" fill-opacity="0.3" d="M 413.140625 318.078125 C 413.140625 332.4375 401.5 344.078125 387.140625 344.078125 C 372.78125 344.078125 361.140625 332.4375 361.140625 318.078125 C 361.140625 303.71875 372.78125 292.078125 387.140625 292.078125 C 401.5 292.078125 413.140625 303.71875 413.140625 318.078125 "/>
<path fill="none" stroke-width="2" stroke-linecap="butt" stroke-linejoin="miter" stroke="rgb(50%, 0%, 0%)" stroke-opacity="1" stroke-miterlimit="10" d="M 426 327.816406 C 426 311.796875 413.015625 298.816406 397 298.816406 C 380.984375 298.816406 368 311.796875 368 327.816406 C 368 343.832031 380.984375 356.816406 397 356.816406 C 413.015625 356.816406 426 343.832031 426 327.816406 " transform="matrix(1, 0, 0, -1, 0, 700)"/>
<path fill-rule="nonzero" fill="rgb(50%, 0%, 0%)" fill-opacity="0.3" d="M 426 372.183594 C 426 388.203125 413.015625 401.183594 397 401.183594 C 380.984375 401.183594 368 388.203125 368 372.183594 C 368 356.167969 380.984375 343.183594 397 343.183594 C 413.015625 343.183594 426 356.167969 426 372.183594 "/>
<path fill="none" stroke-width="2" stroke-linecap="butt" stroke-linejoin="miter" stroke="rgb(100%, 0%, 100%)" stroke-opacity="1" stroke-miterlimit="10" d="M 377.441406 295.214844 C 377.441406 277.542969 363.113281 263.214844 345.441406 263.214844 C 327.769531 263.214844 313.441406 277.542969 313.441406 295.214844 C 313.441406 312.890625 327.769531 327.214844 345.441406 327.214844 C 363.113281 327.214844 377.441406 312.890625 377.441406 295.214844 " transform="matrix(1, 0, 0, -1, 0, 700)"/>
<path fill-rule="nonzero" fill="rgb(100%, 0%, 100%)" fill-opacity="0.3" d="M 377.441406 404.785156 C 377.441406 422.457031 363.113281 436.785156 345.441406 436.785156 C 327.769531 436.785156 313.441406 422.457031 313.441406 404.785156 C 313.441406 387.109375 327.769531 372.785156 345.441406 372.785156 C 363.113281 372.785156 377.441406 387.109375 377.441406 404.785156 "/>
<path fill="none" stroke-width="2" stroke-linecap="butt" stroke-linejoin="miter" stroke="rgb(0%, 100%, 100%)" stroke-opacity="1" stroke-miterlimit="10" d="M 328.40625 337.421875 C 328.40625 318.09375 312.738281 302.421875 293.40625 302.421875 C 274.078125 302.421875 258.40625 318.09375 258.40625 337.421875 C 258.40625 356.753906 274.078125 372.421875 293.40625 372.421875 C 312.738281 372.421875 328.40625 356.753906 328.40625 337.421875 " transform="matrix(1, 0, 0, -1, 0, 700)"/>
<path fill-rule="nonzero" fill="rgb(0%, 100%, 100%)" fill-opacity="0.3" d="M 328.40625 362.578125 C 328.40625 381.90625 312.738281 397.578125 293.40625 397.578125 C 274.078125 397.578125 258.40625 381.90625 258.40625 362.578125 C 258.40625 343.246094 274.078125 327.578125 293.40625 327.578125 C 312.738281 327.578125 328.40625 343.246094 328.40625 362.578125 "/>
<path fill="none" stroke-width="2" stroke-linecap="butt" stroke-linejoin="miter" stroke="rgb(100%, 100%, 0%)" stroke-opacity="1" stroke-miterlimit="10" d="M 360.453125 404.394531 C 360.453125 383.410156 343.4375 366.394531 322.453125 366.394531 C 301.464844 366.394531 284.453125 383.410156 284.453125 404.394531 C 284.453125 425.382812 301.464844 442.394531 322.453125 442.394531 C 343.4375 442.394531 360.453125 425.382812 360.453125 404.394531 " transform="matrix(1, 0, 0, -1, 0, 700)"/>
<path fill-rule="nonzero" fill="rgb(100%, 100%, 0%)" fill-opacity="0.3" d="M 360.453125 295.605469 C 360.453125 316.589844 343.4375 333.605469 322.453125 333.605469 C 301.464844 333.605469 284.453125 316.589844 284.453125 295.605469 C 284.453125 274.617188 301.464844 257.605469 322.453125 257.605469 C 343.4375 257.605469 360.453125 274.617188 360.453125 295.605469 "/>
<path fill="none" stroke-width="2" stroke-linecap="butt" stroke-linejoin="miter" stroke="rgb(0%, 0%, 100%)" stroke-opacity="1" stroke-miterlimit="10" d="M 441.089844 389.792969 C 441.089844 367.152344 422.734375 348.792969 400.089844 348.792969 C 377.445312 348.792969 359.089844 367.152344 359.089844 389.792969 C 359.089844 412.4375 377.445312 430.792969 400.089844 430.792969 C 422.734375 430.792969 441.089844 412.4375 441.089844 389.792969 " transform="matrix(1, 0, 0, -1, 0, 700)"/>
<path fill-rule="nonzero" fill="rgb(0%, 0%, 100%)" fill-opacity="0.3" d="M 441.089844 310.207031 C 441.089844 332.847656 422.734375 351.207031 400.089844 351.207031 C 377.445312 351.207031 359.089844 332.847656 359.089844 310.207031 C 359.089844 287.5625 377.445312 269.207031 400.089844 269.207031 C 422.734375 269.207031 441.089844 287.5625 441.089844 310.207031 "/>
<path fill="none" stroke-width="2" stroke-linecap="butt" stroke-linejoin="miter" stroke="rgb(0%, 100%, 0%)" stroke-opacity="1" stroke-miterlimit="10" d="M 443.417969 304.796875 C 443.417969 280.496094 423.71875 260.796875 399.417969 260.796875 C 375.117188 260.796875 355.417969 280.496094 355.417969 304.796875 C 355.417969 329.097656 375.117188 348.796875 399.417969 348.796875 C 423.71875 348.796875 443.417969 329.097656 443.417969 304.796875 " transform="matrix(1, 0, 0, -1, 0, 700)"/>
<path fill-rule="nonzero" fill="rgb(0%, 100%, 0%)" fill-opacity="0.3" d="M 443.417969 395.203125 C 443.417969 419.503906 423.71875 439.203125 399.417969 439.203125 C 375.117188 439.203125 355.417969 419.503906 355.417969 395.203125 C 355.417969 370.902344 375.117188 351.203125 399.417969 351.203125 C 423.71875 351.203125 443.417969 370.902344 443.417969 395.203125 "/>
<path fill="none" stroke-width="2" stroke-linecap="butt" stroke-linejoin="miter" stroke="rgb(100%, 0%, 0%)" stroke-opacity="1" stroke-miterlimit="10" d="M 356.164062 293.179688 C 356.164062 267.222656 335.121094 246.179688 309.164062 246.179688 C 283.207031 246.179688 262.164062 267.222656 262.164062 293.179688 C 262.164062 319.136719 283.207031 340.179688 309.164062 340.179688 C 335.121094 340.179688 356.164062 319.136719 356.164062 293.179688 " transform="matrix(1, 0, 0, -1, 0, 700)"/>
<path fill-rule="nonzero" fill="rgb(100%, 0%, 0%)" fill-opacity="0.3" d="M 356.164062 406.820312 C 356.164062 432.777344 335.121094 453.820312 309.164062 453.820312 C 283.207031 453.820312 262.164062 432.777344 262.164062 406.820312 C 262.164062 380.863281 283.207031 359.820312 309.164062 359.820312 C 335.121094 359.820312 356.164062 380.863281 356.164062 406.820312 "/>
<path fill="none" stroke-width="2" stroke-linecap="butt" stroke-linejoin="miter" stroke="rgb(0%, 0%, 29.998779%)" stroke-opacity="1" stroke-miterlimit="10" d="M 327.828125 343.351562 C 327.828125 336.683594 317.828125 336.683594 317.828125 343.351562 C 317.828125 350.019531 327.828125 350.019531 327.828125 343.351562 " transform="matrix(1, 0, 0, -1, 0, 700)"/>
<path fill-rule="nonzero" fill="rgb(0%, 0%, 29.998779%)" fill-opacity="0.3" d="M 327.828125 356.648438 C 327.828125 363.316406 317.828125 363.316406 317.828125 356.648438 C 317.828125 349.980469 327.828125 349.980469 327.828125 356.648438 "/>
</svg>
