<?xml version="1.0" encoding="UTF-8"?>
<svg xmlns="http://www.w3.org/2000/svg" xmlns:xlink="http://www.w3.org/1999/xlink" width="700" height="700" viewBox="0 0 700 700">
<path fill="none" stroke-width="2" stroke-linecap="butt" stroke-linejoin="miter" stroke="rgb(0%, 50%, 0%)" stroke-opacity="0.6" stroke-miterlimit="10" d="M 350 350 L 378.433594 350 Z M 350 350 " transform="matrix(1, 0, 0, -1, 0, 700)"/>
<path fill="none" stroke-width="2" stroke-linecap="butt" stroke-linejoin="miter" stroke="rgb(0%, 50%, 0%)" stroke-opacity="0.6" stroke-miterlimit="10" d="M 350 350 L 378.433594 350 L 378.621094 337 Z M 350 350 " transform="matrix(1, 0, 0, -1, 0, 700)"/>
<path fill="none" stroke-width="2" stroke-linecap="butt" stroke-linejoin="miter" stroke="rgb(0%, 50%, 0%)" stroke-opacity="0.6" stroke-miterlimit="10" d="M 350 350 L 378.621094 337 L 368.46875 320.941406 Z M 350 350 " transform="matrix(1, 0, 0, -1, 0, 700)"/>
<path fill="none" stroke-width="2" stroke-linecap="butt" stroke-linejoin="miter" stroke="rgb(0%, 50%, 0%)" stroke-opacity="0.6" stroke-miterlimit="10" d="M 350 350 L 368.46875 320.941406 L 344.785156 312.929688 Z M 350 350 " transform="matrix(1, 0, 0, -1, 0, 700)"/>
<path fill="none" stroke-width="2" stroke-linecap="butt" stroke-linejoin="miter" stroke="rgb(0%, 50%, 0%)" stroke-opacity="0.6" stroke-miterlimit="10" d="M 350 350 L 344.785156 312.929688 L 316.988281 326.652344 Z M 350 350 " transform="matrix(1, 0, 0, -1, 0, 700)"/>
<path fill="none" stroke-width="2" stroke-linecap="butt" stroke-linejoin="miter" stroke="rgb(0%, 50%, 0%)" stroke-opacity="0.6" stroke-miterlimit="10" d="M 350 350 L 316.988281 326.652344 L 308.449219 362.652344 Z M 350 350 " transform="matrix(1, 0, 0, -1, 0, 700)"/>
<path fill="none" stroke-width="2" stroke-linecap="butt" stroke-linejoin="miter" stroke="rgb(0%, 50%, 0%)" stroke-opacity="0.6" stroke-miterlimit="10" d="M 350 350 L 308.449219 362.652344 L 337.195312 394.632812 Z M 350 350 " transform="matrix(1, 0, 0, -1, 0, 700)"/>
<path fill="none" stroke-width="2" stroke-linecap="butt" stroke-linejoin="miter" stroke="rgb(0%, 50%, 0%)" stroke-opacity="0.6" stroke-miterlimit="10" d="M 350 350 L 337.195312 394.632812 L 385.183594 384.722656 Z M 350 350 " transform="matrix(1, 0, 0, -1, 0, 700)"/>
<path fill="none" stroke-width="2" stroke-linecap="butt" stroke-linejoin="miter" stroke="rgb(0%, 50%, 0%)" stroke-opacity="0.6" stroke-miterlimit="10" d="M 350 350 L 385.183594 384.722656 L 399.0625 331.503906 Z M 350 350 " transform="matrix(1, 0, 0, -1, 0, 700)"/>
<path fill="none" stroke-width="2" stroke-linecap="butt" stroke-linejoin="miter" stroke="rgb(0%, 50%, 0%)" stroke-opacity="0.6" stroke-miterlimit="10" d="M 350 350 L 399.0625 331.503906 L 350.515625 294.570312 Z M 350 350 " transform="matrix(1, 0, 0, -1, 0, 700)"/>
<path fill="none" stroke-width="2" stroke-linecap="butt" stroke-linejoin="miter" stroke="rgb(0%, 50%, 0%)" stroke-opacity="0.6" stroke-miterlimit="10" d="M 350 350 L 350.515625 294.570312 L 294.585938 331.460938 Z M 350 350 " transform="matrix(1, 0, 0, -1, 0, 700)"/>
<path fill="none" stroke-width="2" stroke-linecap="butt" stroke-linejoin="miter" stroke="rgb(0%, 50%, 0%)" stroke-opacity="0.6" stroke-miterlimit="10" d="M 350 350 L 294.585938 331.460938 L 316.085938 401.222656 Z M 350 350 " transform="matrix(1, 0, 0, -1, 0, 700)"/>
<path fill="none" stroke-width="2" stroke-linecap="butt" stroke-linejoin="miter" stroke="rgb(0%, 50%, 0%)" stroke-opacity="0.6" stroke-miterlimit="10" d="M 350 350 L 316.085938 401.222656 L 394.925781 396.1875 Z M 350 350 " transform="matrix(1, 0, 0, -1, 0, 700)"/>
<path fill="none" stroke-width="2" stroke-linecap="butt" stroke-linejoin="miter" stroke="rgb(0%, 50%, 0%)" stroke-opacity="0.6" stroke-miterlimit="10" d="M 350 350 L 394.925781 396.1875 L 405.613281 311.863281 Z M 350 350 " transform="matrix(1, 0, 0, -1, 0, 700)"/>
<path fill="none" stroke-width="2" stroke-linecap="butt" stroke-linejoin="miter" stroke="rgb(0%, 50%, 0%)" stroke-opacity="0.6" stroke-miterlimit="10" d="M 350 350 L 405.613281 311.863281 L 318.003906 287.253906 Z M 350 350 " transform="matrix(1, 0, 0, -1, 0, 700)"/>
<path fill="none" stroke-width="2" stroke-linecap="butt" stroke-linejoin="miter" stroke="rgb(0%, 50%, 0%)" stroke-opacity="0.6" stroke-miterlimit="10" d="M 350 350 L 318.003906 287.253906 L 323.8125 338.929688 Z M 350 350 " transform="matrix(1, 0, 0, -1, 0, 700)"/>
<path fill="none" stroke-width="4" stroke-linecap="butt" stroke-linejoin="miter" stroke="rgb(0%, 0%, 0%)" stroke-opacity="1" stroke-miterlimit="10" d="M 373.433594 350 C 373.433594 337.058594 362.941406 326.566406 350 326.566406 C 337.058594 326.566406 326.566406 337.058594 326.566406 350 C 326.566406 362.941406 337.058594 373.433594 350 373.433594 C 362.941406 373.433594 373.433594 362.941406 373.433594 350 " transform="matrix(1, 0, 0, -1, 0, 700)"/>
<path fill-rule="nonzero" fill="rgb(0%, 0%, 0%)" fill-opacity="0.3" d="M 373.433594 350 C 373.433594 362.941406 362.941406 373.433594 350 373.433594 C 337.058594 373.433594 326.566406 362.941406 326.566406 350 C 326.566406 337.058594 337.058594 326.566406 350 326.566406 C 362.941406 326.566406 373.433594 337.058594 373.433594 350 "/>
<path fill="none" stroke-width="2" stroke-linecap="butt" stroke-linejoin="miter" stroke="rgb(69.999695%, 29.998779%, 9.999084%)" stroke-opacity="1" stroke-miterlimit="10" d="M 383.433594 350 C 383.433594 343.332031 373.433594 343.332031 373.433594 350 C 373.433594 356.667969 383.433594 356.667969 383.433594 350 " transform="matrix(1, 0, 0, -1, 0, 700)"/>
<path fill-rule="nonzero" fill="rgb(69.999695%, 29.998779%, 9.999084%)" fill-opacity="0.3" d="M 383.433594 350 C 383.433594 356.667969 373.433594 356.667969 373.433594 350 C 373.433594 343.332031 383.433594 343.332031 383.433594 350 "/>
<path fill="none" stroke-width="2" stroke-linecap="butt" stroke-linejoin="miter" stroke="rgb(81.999207%, 40.99884%, 10.998535%)" stroke-opacity="1" stroke-miterlimit="10" d="M 386.621094 337 C 386.621094 332.582031 383.039062 329 378.621094 329 C 374.203125 329 370.621094 332.582031 370.621094 337 C 370.621094 341.417969 374.203125 345 378.621094 345 C 383.039062 345 386.621094 341.417969 386.621094 337 " transform="matrix(1, 0, 0, -1, 0, 700)"/>
<path fill-rule="nonzero" fill="rgb(81.999207%, 40.99884%, 10.998535%)" fill-opacity="0.3" d="M 386.621094 363 C 386.621094 367.417969 383.039062 371 378.621094 371 C 374.203125 371 370.621094 367.417969 370.621094 363 C 370.621094 358.582031 374.203125 355 378.621094 355 C 383.039062 355 386.621094 358.582031 386.621094 363 "/>
<path fill="none" stroke-width="2" stroke-linecap="butt" stroke-linejoin="miter" stroke="rgb(100%, 53.999329%, 0%)" stroke-opacity="1" stroke-miterlimit="10" d="M 379.46875 320.941406 C 379.46875 314.863281 374.542969 309.941406 368.46875 309.941406 C 362.394531 309.941406 357.46875 314.863281 357.46875 320.941406 C 357.46875 327.015625 362.394531 331.941406 368.46875 331.941406 C 374.542969 331.941406 379.46875 327.015625 379.46875 320.941406 " transform="matrix(1, 0, 0, -1, 0, 700)"/>
<path fill-rule="nonzero" fill="rgb(100%, 53.999329%, 0%)" fill-opacity="0.3" d="M 379.46875 379.058594 C 379.46875 385.136719 374.542969 390.058594 368.46875 390.058594 C 362.394531 390.058594 357.46875 385.136719 357.46875 379.058594 C 357.46875 372.984375 362.394531 368.058594 368.46875 368.058594 C 374.542969 368.058594 379.46875 372.984375 379.46875 379.058594 "/>
<path fill="none" stroke-width="2" stroke-linecap="butt" stroke-linejoin="miter" stroke="rgb(100%, 6.999207%, 56.999207%)" stroke-opacity="1" stroke-miterlimit="10" d="M 358.785156 312.929688 C 358.785156 305.199219 352.519531 298.929688 344.785156 298.929688 C 337.054688 298.929688 330.785156 305.199219 330.785156 312.929688 C 330.785156 320.664062 337.054688 326.929688 344.785156 326.929688 C 352.519531 326.929688 358.785156 320.664062 358.785156 312.929688 " transform="matrix(1, 0, 0, -1, 0, 700)"/>
<path fill-rule="nonzero" fill="rgb(100%, 6.999207%, 56.999207%)" fill-opacity="0.3" d="M 358.785156 387.070312 C 358.785156 394.800781 352.519531 401.070312 344.785156 401.070312 C 337.054688 401.070312 330.785156 394.800781 330.785156 387.070312 C 330.785156 379.335938 337.054688 373.070312 344.785156 373.070312 C 352.519531 373.070312 358.785156 379.335938 358.785156 387.070312 "/>
<path fill="none" stroke-width="2" stroke-linecap="butt" stroke-linejoin="miter" stroke="rgb(0%, 0%, 50%)" stroke-opacity="1" stroke-miterlimit="10" d="M 333.988281 326.652344 C 333.988281 317.261719 326.378906 309.652344 316.988281 309.652344 C 307.601562 309.652344 299.988281 317.261719 299.988281 326.652344 C 299.988281 336.042969 307.601562 343.652344 316.988281 343.652344 C 326.378906 343.652344 333.988281 336.042969 333.988281 326.652344 " transform="matrix(1, 0, 0, -1, 0, 700)"/>
<path fill-rule="nonzero" fill="rgb(0%, 0%, 50%)" fill-opacity="0.3" d="M 333.988281 373.347656 C 333.988281 382.738281 326.378906 390.347656 316.988281 390.347656 C 307.601562 390.347656 299.988281 382.738281 299.988281 373.347656 C 299.988281 363.957031 307.601562 356.347656 316.988281 356.347656 C 326.378906 356.347656 333.988281 363.957031 333.988281 373.347656 "/>
<path fill="none" stroke-width="2" stroke-linecap="butt" stroke-linejoin="miter" stroke="rgb(0%, 50%, 50%)" stroke-opacity="1" stroke-miterlimit="10" d="M 328.449219 362.652344 C 328.449219 351.609375 319.496094 342.652344 308.449219 342.652344 C 297.40625 342.652344 288.449219 351.609375 288.449219 362.652344 C 288.449219 373.699219 297.40625 382.652344 308.449219 382.652344 C 319.496094 382.652344 328.449219 373.699219 328.449219 362.652344 " transform="matrix(1, 0, 0, -1, 0, 700)"/>
<path fill-rule="nonzero" fill="rgb(0%, 50%, 50%)" fill-opacity="0.3" d="M 328.449219 337.347656 C 328.449219 348.390625 319.496094 357.347656 308.449219 357.347656 C 297.40625 357.347656 288.449219 348.390625 288.449219 337.347656 C 288.449219 326.300781 297.40625 317.347656 308.449219 317.347656 C 319.496094 317.347656 328.449219 326.300781 328.449219 337.347656 "/>
<path fill="none" stroke-width="2" stroke-linecap="butt" stroke-linejoin="miter" stroke="rgb(50%, 0%, 50%)" stroke-opacity="1" stroke-miterlimit="10" d="M 360.195312 394.632812 C 360.195312 381.929688 349.898438 371.632812 337.195312 371.632812 C 324.496094 371.632812 314.195312 381.929688 314.195312 394.632812 C 314.195312 407.335938 324.496094 417.632812 337.195312 417.632812 C 349.898438 417.632812 360.195312 407.335938 360.195312 394.632812 " transform="matrix(1, 0, 0, -1, 0, 700)"/>
<path fill-rule="nonzero" fill="rgb(50%, 0%, 50%)" fill-opacity="0.3" d="M 360.195312 305.367188 C 360.195312 318.070312 349.898438 328.367188 337.195312 328.367188 C 324.496094 328.367188 314.195312 318.070312 314.195312 305.367188 C 314.195312 292.664062 324.496094 282.367188 337.195312 282.367188 C 349.898438 282.367188 360.195312 292.664062 360.195312 305.367188 "/>
<path fill="none" stroke-width="2" stroke-linecap="butt" stroke-linejoin="miter" stroke="rgb(0%, 50%, 0%)" stroke-opacity="1" stroke-miterlimit="10" d="M 411.183594 384.722656 C 411.183594 370.363281 399.542969 358.722656 385.183594 358.722656 C 370.824219 358.722656 359.183594 370.363281 359.183594 384.722656 C 359.183594 399.082031 370.824219 410.722656 385.183594 410.722656 C 399.542969 410.722656 411.183594 399.082031 411.183594 384.722656 " transform="matrix(1, 0, 0, -1, 0, 700)"/>
<path fill-rule="nonzero" fill="rgb(0%, 50%, 0%)" fill-opacity="0.3" d="M 411.183594 315.277344 C 411.183594 329.636719 399.542969 341.277344 385.183594 341.277344 C 370.824219 341.277344 359.183594 329.636719 359.183594 315.277344 C 359.183594 300.917969 370.824219 289.277344 385.183594 289.277344 C 399.542969 289.277344 411.183594 300.917969 411.183594 315.277344 "/>
<path fill="none" stroke-width="2" stroke-linecap="butt" stroke-linejoin="miter" stroke="rgb(50%, 0%, 0%)" stroke-opacity="1" stroke-miterlimit="10" d="M 428.0625 331.503906 C 428.0625 315.488281 415.078125 302.503906 399.0625 302.503906 C 383.046875 302.503906 370.0625 315.488281 370.0625 331.503906 C 370.0625 347.519531 383.046875 360.503906 399.0625 360.503906 C 415.078125 360.503906 428.0625 347.519531 428.0625 331.503906 " transform="matrix(1, 0, 0, -1, 0, 700)"/>
<path fill-rule="nonzero" fill="rgb(50%, 0%, 0%)" fill-opacity="0.3" d="M 428.0625 368.496094 C 428.0625 384.511719 415.078125 397.496094 399.0625 397.496094 C 383.046875 397.496094 370.0625 384.511719 370.0625 368.496094 C 370.0625 352.480469 383.046875 339.496094 399.0625 339.496094 C 415.078125 339.496094 428.0625 352.480469 428.0625 368.496094 "/>
<path fill="none" stroke-width="2" stroke-linecap="butt" stroke-linejoin="miter" stroke="rgb(100%, 0%, 100%)" stroke-opacity="1" stroke-miterlimit="10" d="M 382.515625 294.570312 C 382.515625 276.894531 368.1875 262.570312 350.515625 262.570312 C 332.839844 262.570312 318.515625 276.894531 318.515625 294.570312 C 318.515625 312.242188 332.839844 326.570312 350.515625 326.570312 C 368.1875 326.570312 382.515625 312.242188 382.515625 294.570312 " transform="matrix(1, 0, 0, -1, 0, 700)"/>
<path fill-rule="nonzero" fill="rgb(100%, 0%, 100%)" fill-opacity="0.3" d="M 382.515625 405.429688 C 382.515625 423.105469 368.1875 437.429688 350.515625 437.429688 C 332.839844 437.429688 318.515625 423.105469 318.515625 405.429688 C 318.515625 387.757812 332.839844 373.429688 350.515625 373.429688 C 368.1875 373.429688 382.515625 387.757812 382.515625 405.429688 "/>
<path fill="none" stroke-width="2" stroke-linecap="butt" stroke-linejoin="miter" stroke="rgb(0%, 100%, 100%)" stroke-opacity="1" stroke-miterlimit="10" d="M 329.585938 331.460938 C 329.585938 312.132812 313.914062 296.460938 294.585938 296.460938 C 275.253906 296.460938 259.585938 312.132812 259.585938 331.460938 C 259.585938 350.789062 275.253906 366.460938 294.585938 366.460938 C 313.914062 366.460938 329.585938 350.789062 329.585938 331.460938 " transform="matrix(1, 0, 0, -1, 0, 700)"/>
<path fill-rule="nonzero" fill="rgb(0%, 100%, 100%)" fill-opacity="0.3" d="M 329.585938 368.539062 C 329.585938 387.867188 313.914062 403.539062 294.585938 403.539062 C 275.253906 403.539062 259.585938 387.867188 259.585938 368.539062 C 259.585938 349.210938 275.253906 333.539062 294.585938 333.539062 C 313.914062 333.539062 329.585938 349.210938 329.585938 368.539062 "/>
<path fill="none" stroke-width="2" stroke-linecap="butt" stroke-linejoin="miter" stroke="rgb(100%, 100%, 0%)" stroke-opacity="1" stroke-miterlimit="10" d="M 354.085938 401.222656 C 354.085938 380.238281 337.070312 363.222656 316.085938 363.222656 C 295.097656 363.222656 278.085938 380.238281 278.085938 401.222656 C 278.085938 422.210938 295.097656 439.222656 316.085938 439.222656 C 337.070312 439.222656 354.085938 422.210938 354.085938 401.222656 " transform="matrix(1, 0, 0, -1, 0, 700)"/>
<path fill-rule="nonzero" fill="rgb(100%, 100%, 0%)" fill-opacity="0.3" d="M 354.085938 298.777344 C 354.085938 319.761719 337.070312 336.777344 316.085938 336.777344 C 295.097656 336.777344 278.085938 319.761719 278.085938 298.777344 C 278.085938 277.789062 295.097656 260.777344 316.085938 260.777344 C 337.070312 260.777344 354.085938 277.789062 354.085938 298.777344 "/>
<path fill="none" stroke-width="2" stroke-linecap="butt" stroke-linejoin="miter" stroke="rgb(0%, 0%, 100%)" stroke-opacity="1" stroke-miterlimit="10" d="M 435.925781 396.1875 C 435.925781 373.546875 417.566406 355.1875 394.925781 355.1875 C 372.28125 355.1875 353.925781 373.546875 353.925781 396.1875 C 353.925781 418.832031 372.28125 437.1875 394.925781 437.1875 C 417.566406 437.1875 435.925781 418.832031 435.925781 396.1875 " transform="matrix(1, 0, 0, -1, 0, 700)"/>
<path fill-rule="nonzero" fill="rgb(0%, 0%, 100%)" fill-opacity="0.3" d="M 435.925781 303.8125 C 435.925781 326.453125 417.566406 344.8125 394.925781 344.8125 C 372.28125 344.8125 353.925781 326.453125 353.925781 303.8125 C 353.925781 281.167969 372.28125 262.8125 394.925781 262.8125 C 417.566406 262.8125 435.925781 281.167969 435.925781 303.8125 "/>
<path fill="none" stroke-width="2" stroke-linecap="butt" stroke-linejoin="miter" stroke="rgb(0%, 100%, 0%)" stroke-opacity="1" stroke-miterlimit="10" d="M 449.613281 311.863281 C 449.613281 287.5625 429.914062 267.863281 405.613281 267.863281 C 381.3125 267.863281 361.613281 287.5625 361.613281 311.863281 C 361.613281 336.164062 381.3125 355.863281 405.613281 355.863281 C 429.914062 355.863281 449.613281 336.164062 449.613281 311.863281 " transform="matrix(1, 0, 0, -1, 0, 700)"/>
<path fill-rule="nonzero" fill="rgb(0%, 100%, 0%)" fill-opacity="0.3" d="M 449.613281 388.136719 C 449.613281 412.4375 429.914062 432.136719 405.613281 432.136719 C 381.3125 432.136719 361.613281 412.4375 361.613281 388.136719 C 361.613281 363.835938 381.3125 344.136719 405.613281 344.136719 C 429.914062 344.136719 449.613281 363.835938 449.613281 388.136719 "/>
<path fill="none" stroke-width="2" stroke-linecap="butt" stroke-linejoin="miter" stroke="rgb(100%, 0%, 0%)" stroke-opacity="1" stroke-miterlimit="10" d="M 365.003906 287.253906 C 365.003906 261.296875 343.960938 240.253906 318.003906 240.253906 C 292.046875 240.253906 271.003906 261.296875 271.003906 287.253906 C 271.003906 313.210938 292.046875 334.253906 318.003906 334.253906 C 343.960938 334.253906 365.003906 313.210938 365.003906 287.253906 " transform="matrix(1, 0, 0, -1, 0, 700)"/>
<path fill-rule="nonzero" fill="rgb(100%, 0%, 0%)" fill-opacity="0.3" d="M 365.003906 412.746094 C 365.003906 438.703125 343.960938 459.746094 318.003906 459.746094 C 292.046875 459.746094 271.003906 438.703125 271.003906 412.746094 C 271.003906 386.789062 292.046875 365.746094 318.003906 365.746094 C 343.960938 365.746094 365.003906 386.789062 365.003906 412.746094 "/>
<path fill="none" stroke-width="2" stroke-linecap="butt" stroke-linejoin="miter" stroke="rgb(0%, 0%, 29.998779%)" stroke-opacity="1" stroke-miterlimit="10" d="M 328.8125 338.929688 C 328.8125 332.261719 318.8125 332.261719 318.8125 338.929688 C 318.8125 345.59375 328.8125 345.59375 328.8125 338.929688 " transform="matrix(1, 0, 0, -1, 0, 700)"/>
<path fill-rule="nonzero" fill="rgb(0%, 0%, 29.998779%)" fill-opacity="0.3" d="M 328.8125 361.070312 C 328.8125 367.738281 318.8125 367.738281 318.8125 361.070312 C 318.8125 354.40625 328.8125 354.40625 328.8125 361.070312 "/>
</svg>
