<?xml version="1.0" encoding="UTF-8"?>
<svg xmlns="http://www.w3.org/2000/svg" xmlns:xlink="http://www.w3.org/1999/xlink" width="700" height="700" viewBox="0 0 700 700">
<path fill="none" stroke-width="2" stroke-linecap="butt" stroke-linejoin="miter" stroke="rgb(0%, 50%, 0%)" stroke-opacity="0.6" stroke-miterlimit="10" d="M 350 350 L 378.902344 350 Z M 350 350 " transform="matrix(1, 0, 0, -1, 0, 700)"/>
<path fill="none" stroke-width="2" stroke-linecap="butt" stroke-linejoin="miter" stroke="rgb(0%, 50%, 0%)" stroke-opacity="0.6" stroke-miterlimit="10" d="M 350 350 L 378.902344 350 L 379.132812 337.003906 Z M 350 350 " transform="matrix(1, 0, 0, -1, 0, 700)"/>
<path fill="none" stroke-width="2" stroke-linecap="butt" stroke-linejoin="miter" stroke="rgb(0%, 50%, 0%)" stroke-opacity="0.6" stroke-miterlimit="10" d="M 350 350 L 379.132812 337.003906 L 369.164062 320.828125 Z M 350 350 " transform="matrix(1, 0, 0, -1, 0, 700)"/>
<path fill="none" stroke-width="2" stroke-linecap="butt" stroke-linejoin="miter" stroke="rgb(0%, 50%, 0%)" stroke-opacity="0.6" stroke-miterlimit="10" d="M 350 350 L 369.164062 320.828125 L 345.644531 312.347656 Z M 350 350 " transform="matrix(1, 0, 0, -1, 0, 700)"/>
<path fill="none" stroke-width="2" stroke-linecap="butt" stroke-linejoin="miter" stroke="rgb(0%, 50%, 0%)" stroke-opacity="0.6" stroke-miterlimit="10" d="M 350 350 L 345.644531 312.347656 L 317.449219 325.234375 Z M 350 350 " transform="matrix(1, 0, 0, -1, 0, 700)"/>
<path fill="none" stroke-width="2" stroke-linecap="butt" stroke-linejoin="miter" stroke="rgb(0%, 50%, 0%)" stroke-opacity="0.6" stroke-miterlimit="10" d="M 350 350 L 317.449219 325.234375 L 307.460938 360.859375 Z M 350 350 " transform="matrix(1, 0, 0, -1, 0, 700)"/>
<path fill="none" stroke-width="2" stroke-linecap="butt" stroke-linejoin="miter" stroke="rgb(0%, 50%, 0%)" stroke-opacity="0.6" stroke-miterlimit="10" d="M 350 350 L 307.460938 360.859375 L 334.527344 394.277344 Z M 350 350 " transform="matrix(1, 0, 0, -1, 0, 700)"/>
<path fill="none" stroke-width="2" stroke-linecap="butt" stroke-linejoin="miter" stroke="rgb(0%, 50%, 0%)" stroke-opacity="0.6" stroke-miterlimit="10" d="M 350 350 L 334.527344 394.277344 L 383.039062 387.398438 Z M 350 350 " transform="matrix(1, 0, 0, -1, 0, 700)"/>
<path fill="none" stroke-width="2" stroke-linecap="butt" stroke-linejoin="miter" stroke="rgb(0%, 50%, 0%)" stroke-opacity="0.6" stroke-miterlimit="10" d="M 350 350 L 383.039062 387.398438 L 400.835938 335.355469 Z M 350 350 " transform="matrix(1, 0, 0, -1, 0, 700)"/>
<path fill="none" stroke-width="2" stroke-linecap="butt" stroke-linejoin="miter" stroke="rgb(0%, 50%, 0%)" stroke-opacity="0.6" stroke-miterlimit="10" d="M 350 350 L 400.835938 335.355469 L 355.640625 294.382812 Z M 350 350 " transform="matrix(1, 0, 0, -1, 0, 700)"/>
<path fill="none" stroke-width="2" stroke-linecap="butt" stroke-linejoin="miter" stroke="rgb(0%, 50%, 0%)" stroke-opacity="0.6" stroke-miterlimit="10" d="M 350 350 L 355.640625 294.382812 L 296.375 325.632812 Z M 350 350 " transform="matrix(1, 0, 0, -1, 0, 700)"/>
<path fill="none" stroke-width="2" stroke-linecap="butt" stroke-linejoin="miter" stroke="rgb(0%, 50%, 0%)" stroke-opacity="0.6" stroke-miterlimit="10" d="M 350 350 L 296.375 325.632812 L 310.105469 397.328125 Z M 350 350 " transform="matrix(1, 0, 0, -1, 0, 700)"/>
<path fill="none" stroke-width="2" stroke-linecap="butt" stroke-linejoin="miter" stroke="rgb(0%, 50%, 0%)" stroke-opacity="0.6" stroke-miterlimit="10" d="M 350 350 L 310.105469 397.328125 L 388.972656 401.898438 Z M 350 350 " transform="matrix(1, 0, 0, -1, 0, 700)"/>
<path fill="none" stroke-width="2" stroke-linecap="butt" stroke-linejoin="miter" stroke="rgb(0%, 50%, 0%)" stroke-opacity="0.6" stroke-miterlimit="10" d="M 350 350 L 388.972656 401.898438 L 410.789062 319.746094 Z M 350 350 " transform="matrix(1, 0, 0, -1, 0, 700)"/>
<path fill="none" stroke-width="2" stroke-linecap="butt" stroke-linejoin="miter" stroke="rgb(0%, 50%, 0%)" stroke-opacity="0.6" stroke-miterlimit="10" d="M 350 350 L 410.789062 319.746094 L 327.667969 282.707031 Z M 350 350 " transform="matrix(1, 0, 0, -1, 0, 700)"/>
<path fill="none" stroke-width="2" stroke-linecap="butt" stroke-linejoin="miter" stroke="rgb(0%, 50%, 0%)" stroke-opacity="0.6" stroke-miterlimit="10" d="M 350 350 L 327.667969 282.707031 L 325.503906 334.660156 Z M 350 350 " transform="matrix(1, 0, 0, -1, 0, 700)"/>
<path fill="none" stroke-width="4" stroke-linecap="butt" stroke-linejoin="miter" stroke="rgb(0%, 0%, 0%)" stroke-opacity="1" stroke-miterlimit="10" d="M 373.902344 350 C 373.902344 336.800781 363.199219 326.097656 350 326.097656 C 336.800781 326.097656 326.097656 336.800781 326.097656 350 C 326.097656 363.199219 336.800781 373.902344 350 373.902344 C 363.199219 373.902344 373.902344 363.199219 373.902344 350 " transform="matrix(1, 0, 0, -1, 0, 700)"/>
<path fill-rule="nonzero" fill="rgb(0%, 0%, 0%)" fill-opacity="0.3" d="M 373.902344 350 C 373.902344 363.199219 363.199219 373.902344 350 373.902344 C 336.800781 373.902344 326.097656 363.199219 326.097656 350 C 326.097656 336.800781 336.800781 326.097656 350 326.097656 C 363.199219 326.097656 373.902344 336.800781 373.902344 350 "/>
<path fill="none" stroke-width="2" stroke-linecap="butt" stroke-linejoin="miter" stroke="rgb(69.999695%, 29.998779%, 9.999084%)" stroke-opacity="1" stroke-miterlimit="10" d="M 383.902344 350 C 383.902344 343.332031 373.902344 343.332031 373.902344 350 C 373.902344 356.667969 383.902344 356.667969 383.902344 350 " transform="matrix(1, 0, 0, -1, 0, 700)"/>
<path fill-rule="nonzero" fill="rgb(69.999695%, 29.998779%, 9.999084%)" fill-opacity="0.3" d="M 383.902344 350 C 383.902344 356.667969 373.902344 356.667969 373.902344 350 C 373.902344 343.332031 383.902344 343.332031 383.902344 350 "/>
<path fill="none" stroke-width="2" stroke-linecap="butt" stroke-linejoin="miter" stroke="rgb(81.999207%, 40.99884%, 10.998535%)" stroke-opacity="1" stroke-miterlimit="10" d="M 387.132812 337.003906 C 387.132812 332.582031 383.550781 329.003906 379.132812 329.003906 C 374.714844 329.003906 371.132812 332.582031 371.132812 337.003906 C 371.132812 341.421875 374.714844 345.003906 379.132812 345.003906 C 383.550781 345.003906 387.132812 341.421875 387.132812 337.003906 " transform="matrix(1, 0, 0, -1, 0, 700)"/>
<path fill-rule="nonzero" fill="rgb(81.999207%, 40.99884%, 10.998535%)" fill-opacity="0.3" d="M 387.132812 362.996094 C 387.132812 367.417969 383.550781 370.996094 379.132812 370.996094 C 374.714844 370.996094 371.132812 367.417969 371.132812 362.996094 C 371.132812 358.578125 374.714844 354.996094 379.132812 354.996094 C 383.550781 354.996094 387.132812 358.578125 387.132812 362.996094 "/>
<path fill="none" stroke-width="2" stroke-linecap="butt" stroke-linejoin="miter" stroke="rgb(100%, 53.999329%, 0%)" stroke-opacity="1" stroke-miterlimit="10" d="M 380.164062 320.828125 C 380.164062 314.753906 375.238281 309.828125 369.164062 309.828125 C 363.085938 309.828125 358.164062 314.753906 358.164062 320.828125 C 358.164062 326.902344 363.085938 331.828125 369.164062 331.828125 C 375.238281 331.828125 380.164062 326.902344 380.164062 320.828125 " transform="matrix(1, 0, 0, -1, 0, 700)"/>
<path fill-rule="nonzero" fill="rgb(100%, 53.999329%, 0%)" fill-opacity="0.3" d="M 380.164062 379.171875 C 380.164062 385.246094 375.238281 390.171875 369.164062 390.171875 C 363.085938 390.171875 358.164062 385.246094 358.164062 379.171875 C 358.164062 373.097656 363.085938 368.171875 369.164062 368.171875 C 375.238281 368.171875 380.164062 373.097656 380.164062 379.171875 "/>
<path fill="none" stroke-width="2" stroke-linecap="butt" stroke-linejoin="miter" stroke="rgb(100%, 6.999207%, 56.999207%)" stroke-opacity="1" stroke-miterlimit="10" d="M 359.644531 312.347656 C 359.644531 304.617188 353.375 298.347656 345.644531 298.347656 C 337.914062 298.347656 331.644531 304.617188 331.644531 312.347656 C 331.644531 320.082031 337.914062 326.347656 345.644531 326.347656 C 353.375 326.347656 359.644531 320.082031 359.644531 312.347656 " transform="matrix(1, 0, 0, -1, 0, 700)"/>
<path fill-rule="nonzero" fill="rgb(100%, 6.999207%, 56.999207%)" fill-opacity="0.3" d="M 359.644531 387.652344 C 359.644531 395.382812 353.375 401.652344 345.644531 401.652344 C 337.914062 401.652344 331.644531 395.382812 331.644531 387.652344 C 331.644531 379.917969 337.914062 373.652344 345.644531 373.652344 C 353.375 373.652344 359.644531 379.917969 359.644531 387.652344 "/>
<path fill="none" stroke-width="2" stroke-linecap="butt" stroke-linejoin="miter" stroke="rgb(0%, 0%, 50%)" stroke-opacity="1" stroke-miterlimit="10" d="M 334.449219 325.234375 C 334.449219 315.84375 326.835938 308.234375 317.449219 308.234375 C 308.058594 308.234375 300.449219 315.84375 300.449219 325.234375 C 300.449219 334.621094 308.058594 342.234375 317.449219 342.234375 C 326.835938 342.234375 334.449219 334.621094 334.449219 325.234375 " transform="matrix(1, 0, 0, -1, 0, 700)"/>
<path fill-rule="nonzero" fill="rgb(0%, 0%, 50%)" fill-opacity="0.3" d="M 334.449219 374.765625 C 334.449219 384.15625 326.835938 391.765625 317.449219 391.765625 C 308.058594 391.765625 300.449219 384.15625 300.449219 374.765625 C 300.449219 365.378906 308.058594 357.765625 317.449219 357.765625 C 326.835938 357.765625 334.449219 365.378906 334.449219 374.765625 "/>
<path fill="none" stroke-width="2" stroke-linecap="butt" stroke-linejoin="miter" stroke="rgb(0%, 50%, 50%)" stroke-opacity="1" stroke-miterlimit="10" d="M 327.460938 360.859375 C 327.460938 349.816406 318.507812 340.859375 307.460938 340.859375 C 296.417969 340.859375 287.460938 349.816406 287.460938 360.859375 C 287.460938 371.90625 296.417969 380.859375 307.460938 380.859375 C 318.507812 380.859375 327.460938 371.90625 327.460938 360.859375 " transform="matrix(1, 0, 0, -1, 0, 700)"/>
<path fill-rule="nonzero" fill="rgb(0%, 50%, 50%)" fill-opacity="0.3" d="M 327.460938 339.140625 C 327.460938 350.183594 318.507812 359.140625 307.460938 359.140625 C 296.417969 359.140625 287.460938 350.183594 287.460938 339.140625 C 287.460938 328.09375 296.417969 319.140625 307.460938 319.140625 C 318.507812 319.140625 327.460938 328.09375 327.460938 339.140625 "/>
<path fill="none" stroke-width="2" stroke-linecap="butt" stroke-linejoin="miter" stroke="rgb(50%, 0%, 50%)" stroke-opacity="1" stroke-miterlimit="10" d="M 357.527344 394.277344 C 357.527344 381.574219 347.230469 371.277344 334.527344 371.277344 C 321.824219 371.277344 311.527344 381.574219 311.527344 394.277344 C 311.527344 406.976562 321.824219 417.277344 334.527344 417.277344 C 347.230469 417.277344 357.527344 406.976562 357.527344 394.277344 " transform="matrix(1, 0, 0, -1, 0, 700)"/>
<path fill-rule="nonzero" fill="rgb(50%, 0%, 50%)" fill-opacity="0.3" d="M 357.527344 305.722656 C 357.527344 318.425781 347.230469 328.722656 334.527344 328.722656 C 321.824219 328.722656 311.527344 318.425781 311.527344 305.722656 C 311.527344 293.023438 321.824219 282.722656 334.527344 282.722656 C 347.230469 282.722656 357.527344 293.023438 357.527344 305.722656 "/>
<path fill="none" stroke-width="2" stroke-linecap="butt" stroke-linejoin="miter" stroke="rgb(0%, 50%, 0%)" stroke-opacity="1" stroke-miterlimit="10" d="M 409.039062 387.398438 C 409.039062 373.039062 397.398438 361.398438 383.039062 361.398438 C 368.679688 361.398438 357.039062 373.039062 357.039062 387.398438 C 357.039062 401.757812 368.679688 413.398438 383.039062 413.398438 C 397.398438 413.398438 409.039062 401.757812 409.039062 387.398438 " transform="matrix(1, 0, 0, -1, 0, 700)"/>
<path fill-rule="nonzero" fill="rgb(0%, 50%, 0%)" fill-opacity="0.3" d="M 409.039062 312.601562 C 409.039062 326.960938 397.398438 338.601562 383.039062 338.601562 C 368.679688 338.601562 357.039062 326.960938 357.039062 312.601562 C 357.039062 298.242188 368.679688 286.601562 383.039062 286.601562 C 397.398438 286.601562 409.039062 298.242188 409.039062 312.601562 "/>
<path fill="none" stroke-width="2" stroke-linecap="butt" stroke-linejoin="miter" stroke="rgb(50%, 0%, 0%)" stroke-opacity="1" stroke-miterlimit="10" d="M 429.835938 335.355469 C 429.835938 319.339844 416.851562 306.355469 400.835938 306.355469 C 384.816406 306.355469 371.835938 319.339844 371.835938 335.355469 C 371.835938 351.371094 384.816406 364.355469 400.835938 364.355469 C 416.851562 364.355469 429.835938 351.371094 429.835938 335.355469 " transform="matrix(1, 0, 0, -1, 0, 700)"/>
<path fill-rule="nonzero" fill="rgb(50%, 0%, 0%)" fill-opacity="0.3" d="M 429.835938 364.644531 C 429.835938 380.660156 416.851562 393.644531 400.835938 393.644531 C 384.816406 393.644531 371.835938 380.660156 371.835938 364.644531 C 371.835938 348.628906 384.816406 335.644531 400.835938 335.644531 C 416.851562 335.644531 429.835938 348.628906 429.835938 364.644531 "/>
<path fill="none" stroke-width="2" stroke-linecap="butt" stroke-linejoin="miter" stroke="rgb(100%, 0%, 100%)" stroke-opacity="1" stroke-miterlimit="10" d="M 387.640625 294.382812 C 387.640625 276.710938 373.3125 262.382812 355.640625 262.382812 C 337.96875 262.382812 323.640625 276.710938 323.640625 294.382812 C 323.640625 312.054688 337.96875 326.382812 355.640625 326.382812 C 373.3125 326.382812 387.640625 312.054688 387.640625 294.382812 " transform="matrix(1, 0, 0, -1, 0, 700)"/>
<path fill-rule="nonzero" fill="rgb(100%, 0%, 100%)" fill-opacity="0.3" d="M 387.640625 405.617188 C 387.640625 423.289062 373.3125 437.617188 355.640625 437.617188 C 337.96875 437.617188 323.640625 423.289062 323.640625 405.617188 C 323.640625 387.945312 337.96875 373.617188 355.640625 373.617188 C 373.3125 373.617188 387.640625 387.945312 387.640625 405.617188 "/>
<path fill="none" stroke-width="2" stroke-linecap="butt" stroke-linejoin="miter" stroke="rgb(0%, 100%, 100%)" stroke-opacity="1" stroke-miterlimit="10" d="M 331.375 325.632812 C 331.375 306.300781 315.703125 290.632812 296.375 290.632812 C 277.046875 290.632812 261.375 306.300781 261.375 325.632812 C 261.375 344.960938 277.046875 360.632812 296.375 360.632812 C 315.703125 360.632812 331.375 344.960938 331.375 325.632812 " transform="matrix(1, 0, 0, -1, 0, 700)"/>
<path fill-rule="nonzero" fill="rgb(0%, 100%, 100%)" fill-opacity="0.3" d="M 331.375 374.367188 C 331.375 393.699219 315.703125 409.367188 296.375 409.367188 C 277.046875 409.367188 261.375 393.699219 261.375 374.367188 C 261.375 355.039062 277.046875 339.367188 296.375 339.367188 C 315.703125 339.367188 331.375 355.039062 331.375 374.367188 "/>
<path fill="none" stroke-width="2" stroke-linecap="butt" stroke-linejoin="miter" stroke="rgb(100%, 100%, 0%)" stroke-opacity="1" stroke-miterlimit="10" d="M 348.105469 397.328125 C 348.105469 376.34375 331.089844 359.328125 310.105469 359.328125 C 289.117188 359.328125 272.105469 376.34375 272.105469 397.328125 C 272.105469 418.316406 289.117188 435.328125 310.105469 435.328125 C 331.089844 435.328125 348.105469 418.316406 348.105469 397.328125 " transform="matrix(1, 0, 0, -1, 0, 700)"/>
<path fill-rule="nonzero" fill="rgb(100%, 100%, 0%)" fill-opacity="0.3" d="M 348.105469 302.671875 C 348.105469 323.65625 331.089844 340.671875 310.105469 340.671875 C 289.117188 340.671875 272.105469 323.65625 272.105469 302.671875 C 272.105469 281.683594 289.117188 264.671875 310.105469 264.671875 C 331.089844 264.671875 348.105469 281.683594 348.105469 302.671875 "/>
<path fill="none" stroke-width="2" stroke-linecap="butt" stroke-linejoin="miter" stroke="rgb(0%, 0%, 100%)" stroke-opacity="1" stroke-miterlimit="10" d="M 429.972656 401.898438 C 429.972656 379.253906 411.613281 360.898438 388.972656 360.898438 C 366.328125 360.898438 347.972656 379.253906 347.972656 401.898438 C 347.972656 424.542969 366.328125 442.898438 388.972656 442.898438 C 411.613281 442.898438 429.972656 424.542969 429.972656 401.898438 " transform="matrix(1, 0, 0, -1, 0, 700)"/>
<path fill-rule="nonzero" fill="rgb(0%, 0%, 100%)" fill-opacity="0.3" d="M 429.972656 298.101562 C 429.972656 320.746094 411.613281 339.101562 388.972656 339.101562 C 366.328125 339.101562 347.972656 320.746094 347.972656 298.101562 C 347.972656 275.457031 366.328125 257.101562 388.972656 257.101562 C 411.613281 257.101562 429.972656 275.457031 429.972656 298.101562 "/>
<path fill="none" stroke-width="2" stroke-linecap="butt" stroke-linejoin="miter" stroke="rgb(0%, 100%, 0%)" stroke-opacity="1" stroke-miterlimit="10" d="M 454.789062 319.746094 C 454.789062 295.445312 435.089844 275.746094 410.789062 275.746094 C 386.488281 275.746094 366.789062 295.445312 366.789062 319.746094 C 366.789062 344.046875 386.488281 363.746094 410.789062 363.746094 C 435.089844 363.746094 454.789062 344.046875 454.789062 319.746094 " transform="matrix(1, 0, 0, -1, 0, 700)"/>
<path fill-rule="nonzero" fill="rgb(0%, 100%, 0%)" fill-opacity="0.3" d="M 454.789062 380.253906 C 454.789062 404.554688 435.089844 424.253906 410.789062 424.253906 C 386.488281 424.253906 366.789062 404.554688 366.789062 380.253906 C 366.789062 355.953125 386.488281 336.253906 410.789062 336.253906 C 435.089844 336.253906 454.789062 355.953125 454.789062 380.253906 "/>
<path fill="none" stroke-width="2" stroke-linecap="butt" stroke-linejoin="miter" stroke="rgb(100%, 0%, 0%)" stroke-opacity="1" stroke-miterlimit="10" d="M 374.667969 282.707031 C 374.667969 256.75 353.625 235.707031 327.667969 235.707031 C 301.710938 235.707031 280.667969 256.75 280.667969 282.707031 C 280.667969 308.664062 301.710938 329.707031 327.667969 329.707031 C 353.625 329.707031 374.667969 308.664062 374.667969 282.707031 " transform="matrix(1, 0, 0, -1, 0, 700)"/>
<path fill-rule="nonzero" fill="rgb(100%, 0%, 0%)" fill-opacity="0.3" d="M 374.667969 417.292969 C 374.667969 443.25 353.625 464.292969 327.667969 464.292969 C 301.710938 464.292969 280.667969 443.25 280.667969 417.292969 C 280.667969 391.335938 301.710938 370.292969 327.667969 370.292969 C 353.625 370.292969 374.667969 391.335938 374.667969 417.292969 "/>
<path fill="none" stroke-width="2" stroke-linecap="butt" stroke-linejoin="miter" stroke="rgb(0%, 0%, 29.998779%)" stroke-opacity="1" stroke-miterlimit="10" d="M 330.503906 334.660156 C 330.503906 327.996094 320.503906 327.996094 320.503906 334.660156 C 320.503906 341.328125 330.503906 341.328125 330.503906 334.660156 " transform="matrix(1, 0, 0, -1, 0, 700)"/>
<path fill-rule="nonzero" fill="rgb(0%, 0%, 29.998779%)" fill-opacity="0.3" d="M 330.503906 365.339844 C 330.503906 372.003906 320.503906 372.003906 320.503906 365.339844 C 320.503906 358.671875 330.503906 358.671875 330.503906 365.339844 "/>
</svg>
