<?xml version="1.0" encoding="UTF-8"?>
<svg xmlns="http://www.w3.org/2000/svg" xmlns:xlink="http://www.w3.org/1999/xlink" width="700" height="700" viewBox="0 0 700 700">
<path fill="none" stroke-width="2" stroke-linecap="butt" stroke-linejoin="miter" stroke="rgb(0%, 50%, 0%)" stroke-opacity="0.6" stroke-miterlimit="10" d="M 350 350 L 379.378906 350 Z M 350 350 " transform="matrix(1, 0, 0, -1, 0, 700)"/>
<path fill="none" stroke-width="2" stroke-linecap="butt" stroke-linejoin="miter" stroke="rgb(0%, 50%, 0%)" stroke-opacity="0.6" stroke-miterlimit="10" d="M 350 350 L 379.378906 350 L 379.65625 337.003906 Z M 350 350 " transform="matrix(1, 0, 0, -1, 0, 700)"/>
<path fill="none" stroke-width="2" stroke-linecap="butt" stroke-linejoin="miter" stroke="rgb(0%, 50%, 0%)" stroke-opacity="0.6" stroke-miterlimit="10" d="M 350 350 L 379.65625 337.003906 L 369.863281 320.722656 Z M 350 350 " transform="matrix(1, 0, 0, -1, 0, 700)"/>
<path fill="none" stroke-width="2" stroke-linecap="butt" stroke-linejoin="miter" stroke="rgb(0%, 50%, 0%)" stroke-opacity="0.6" stroke-miterlimit="10" d="M 350 350 L 369.863281 320.722656 L 346.515625 311.777344 Z M 350 350 " transform="matrix(1, 0, 0, -1, 0, 700)"/>
<path fill="none" stroke-width="2" stroke-linecap="butt" stroke-linejoin="miter" stroke="rgb(0%, 50%, 0%)" stroke-opacity="0.6" stroke-miterlimit="10" d="M 350 350 L 346.515625 311.777344 L 317.953125 323.824219 Z M 350 350 " transform="matrix(1, 0, 0, -1, 0, 700)"/>
<path fill="none" stroke-width="2" stroke-linecap="butt" stroke-linejoin="miter" stroke="rgb(0%, 50%, 0%)" stroke-opacity="0.6" stroke-miterlimit="10" d="M 350 350 L 317.953125 323.824219 L 306.546875 359.019531 Z M 350 350 " transform="matrix(1, 0, 0, -1, 0, 700)"/>
<path fill="none" stroke-width="2" stroke-linecap="butt" stroke-linejoin="miter" stroke="rgb(0%, 50%, 0%)" stroke-opacity="0.6" stroke-miterlimit="10" d="M 350 350 L 306.546875 359.019531 L 331.871094 393.773438 Z M 350 350 " transform="matrix(1, 0, 0, -1, 0, 700)"/>
<path fill="none" stroke-width="2" stroke-linecap="butt" stroke-linejoin="miter" stroke="rgb(0%, 50%, 0%)" stroke-opacity="0.6" stroke-miterlimit="10" d="M 350 350 L 331.871094 393.773438 L 380.71875 389.929688 Z M 350 350 " transform="matrix(1, 0, 0, -1, 0, 700)"/>
<path fill="none" stroke-width="2" stroke-linecap="butt" stroke-linejoin="miter" stroke="rgb(0%, 50%, 0%)" stroke-opacity="0.6" stroke-miterlimit="10" d="M 350 350 L 380.71875 389.929688 L 402.304688 339.34375 Z M 350 350 " transform="matrix(1, 0, 0, -1, 0, 700)"/>
<path fill="none" stroke-width="2" stroke-linecap="butt" stroke-linejoin="miter" stroke="rgb(0%, 50%, 0%)" stroke-opacity="0.6" stroke-miterlimit="10" d="M 350 350 L 402.304688 339.34375 L 360.78125 294.660156 Z M 350 350 " transform="matrix(1, 0, 0, -1, 0, 700)"/>
<path fill="none" stroke-width="2" stroke-linecap="butt" stroke-linejoin="miter" stroke="rgb(0%, 50%, 0%)" stroke-opacity="0.6" stroke-miterlimit="10" d="M 350 350 L 360.78125 294.660156 L 298.757812 320 Z M 350 350 " transform="matrix(1, 0, 0, -1, 0, 700)"/>
<path fill="none" stroke-width="2" stroke-linecap="butt" stroke-linejoin="miter" stroke="rgb(0%, 50%, 0%)" stroke-opacity="0.6" stroke-miterlimit="10" d="M 350 350 L 298.757812 320 L 304.585938 392.765625 Z M 350 350 " transform="matrix(1, 0, 0, -1, 0, 700)"/>
<path fill="none" stroke-width="2" stroke-linecap="butt" stroke-linejoin="miter" stroke="rgb(0%, 50%, 0%)" stroke-opacity="0.6" stroke-miterlimit="10" d="M 350 350 L 304.585938 392.765625 L 382.324219 406.832031 Z M 350 350 " transform="matrix(1, 0, 0, -1, 0, 700)"/>
<path fill="none" stroke-width="2" stroke-linecap="butt" stroke-linejoin="miter" stroke="rgb(0%, 50%, 0%)" stroke-opacity="0.6" stroke-miterlimit="10" d="M 350 350 L 382.324219 406.832031 L 414.84375 328.296875 Z M 350 350 " transform="matrix(1, 0, 0, -1, 0, 700)"/>
<path fill="none" stroke-width="2" stroke-linecap="butt" stroke-linejoin="miter" stroke="rgb(0%, 50%, 0%)" stroke-opacity="0.6" stroke-miterlimit="10" d="M 350 350 L 414.84375 328.296875 L 337.941406 279.644531 Z M 350 350 " transform="matrix(1, 0, 0, -1, 0, 700)"/>
<path fill="none" stroke-width="2" stroke-linecap="butt" stroke-linejoin="miter" stroke="rgb(0%, 50%, 0%)" stroke-opacity="0.6" stroke-miterlimit="10" d="M 350 350 L 337.941406 279.644531 L 327.878906 330.664062 Z M 350 350 " transform="matrix(1, 0, 0, -1, 0, 700)"/>
<path fill="none" stroke-width="4" stroke-linecap="butt" stroke-linejoin="miter" stroke="rgb(0%, 0%, 0%)" stroke-opacity="1" stroke-miterlimit="10" d="M 374.378906 350 C 374.378906 336.535156 363.464844 325.621094 350 325.621094 C 336.535156 325.621094 325.621094 336.535156 325.621094 350 C 325.621094 363.464844 336.535156 374.378906 350 374.378906 C 363.464844 374.378906 374.378906 363.464844 374.378906 350 " transform="matrix(1, 0, 0, -1, 0, 700)"/>
<path fill-rule="nonzero" fill="rgb(0%, 0%, 0%)" fill-opacity="0.3" d="M 374.378906 350 C 374.378906 363.464844 363.464844 374.378906 350 374.378906 C 336.535156 374.378906 325.621094 363.464844 325.621094 350 C 325.621094 336.535156 336.535156 325.621094 350 325.621094 C 363.464844 325.621094 374.378906 336.535156 374.378906 350 "/>
<path fill="none" stroke-width="2" stroke-linecap="butt" stroke-linejoin="miter" stroke="rgb(69.999695%, 29.998779%, 9.999084%)" stroke-opacity="1" stroke-miterlimit="10" d="M 384.378906 350 C 384.378906 343.332031 374.378906 343.332031 374.378906 350 C 374.378906 356.667969 384.378906 356.667969 384.378906 350 " transform="matrix(1, 0, 0, -1, 0, 700)"/>
<path fill-rule="nonzero" fill="rgb(69.999695%, 29.998779%, 9.999084%)" fill-opacity="0.3" d="M 384.378906 350 C 384.378906 356.667969 374.378906 356.667969 374.378906 350 C 374.378906 343.332031 384.378906 343.332031 384.378906 350 "/>
<path fill="none" stroke-width="2" stroke-linecap="butt" stroke-linejoin="miter" stroke="rgb(81.999207%, 40.99884%, 10.998535%)" stroke-opacity="1" stroke-miterlimit="10" d="M 387.65625 337.003906 C 387.65625 332.585938 384.074219 329.003906 379.65625 329.003906 C 375.238281 329.003906 371.65625 332.585938 371.65625 337.003906 C 371.65625 341.421875 375.238281 345.003906 379.65625 345.003906 C 384.074219 345.003906 387.65625 341.421875 387.65625 337.003906 " transform="matrix(1, 0, 0, -1, 0, 700)"/>
<path fill-rule="nonzero" fill="rgb(81.999207%, 40.99884%, 10.998535%)" fill-opacity="0.3" d="M 387.65625 362.996094 C 387.65625 367.414062 384.074219 370.996094 379.65625 370.996094 C 375.238281 370.996094 371.65625 367.414062 371.65625 362.996094 C 371.65625 358.578125 375.238281 354.996094 379.65625 354.996094 C 384.074219 354.996094 387.65625 358.578125 387.65625 362.996094 "/>
<path fill="none" stroke-width="2" stroke-linecap="butt" stroke-linejoin="miter" stroke="rgb(100%, 53.999329%, 0%)" stroke-opacity="1" stroke-miterlimit="10" d="M 380.863281 320.722656 C 380.863281 314.648438 375.9375 309.722656 369.863281 309.722656 C 363.789062 309.722656 358.863281 314.648438 358.863281 320.722656 C 358.863281 326.796875 363.789062 331.722656 369.863281 331.722656 C 375.9375 331.722656 380.863281 326.796875 380.863281 320.722656 " transform="matrix(1, 0, 0, -1, 0, 700)"/>
<path fill-rule="nonzero" fill="rgb(100%, 53.999329%, 0%)" fill-opacity="0.3" d="M 380.863281 379.277344 C 380.863281 385.351562 375.9375 390.277344 369.863281 390.277344 C 363.789062 390.277344 358.863281 385.351562 358.863281 379.277344 C 358.863281 373.203125 363.789062 368.277344 369.863281 368.277344 C 375.9375 368.277344 380.863281 373.203125 380.863281 379.277344 "/>
<path fill="none" stroke-width="2" stroke-linecap="butt" stroke-linejoin="miter" stroke="rgb(100%, 6.999207%, 56.999207%)" stroke-opacity="1" stroke-miterlimit="10" d="M 360.515625 311.777344 C 360.515625 304.046875 354.25 297.777344 346.515625 297.777344 C 338.785156 297.777344 332.515625 304.046875 332.515625 311.777344 C 332.515625 319.511719 338.785156 325.777344 346.515625 325.777344 C 354.25 325.777344 360.515625 319.511719 360.515625 311.777344 " transform="matrix(1, 0, 0, -1, 0, 700)"/>
<path fill-rule="nonzero" fill="rgb(100%, 6.999207%, 56.999207%)" fill-opacity="0.3" d="M 360.515625 388.222656 C 360.515625 395.953125 354.25 402.222656 346.515625 402.222656 C 338.785156 402.222656 332.515625 395.953125 332.515625 388.222656 C 332.515625 380.488281 338.785156 374.222656 346.515625 374.222656 C 354.25 374.222656 360.515625 380.488281 360.515625 388.222656 "/>
<path fill="none" stroke-width="2" stroke-linecap="butt" stroke-linejoin="miter" stroke="rgb(0%, 0%, 50%)" stroke-opacity="1" stroke-miterlimit="10" d="M 334.953125 323.824219 C 334.953125 314.433594 327.339844 306.824219 317.953125 306.824219 C 308.5625 306.824219 300.953125 314.433594 300.953125 323.824219 C 300.953125 333.210938 308.5625 340.824219 317.953125 340.824219 C 327.339844 340.824219 334.953125 333.210938 334.953125 323.824219 " transform="matrix(1, 0, 0, -1, 0, 700)"/>
<path fill-rule="nonzero" fill="rgb(0%, 0%, 50%)" fill-opacity="0.3" d="M 334.953125 376.175781 C 334.953125 385.566406 327.339844 393.175781 317.953125 393.175781 C 308.5625 393.175781 300.953125 385.566406 300.953125 376.175781 C 300.953125 366.789062 308.5625 359.175781 317.953125 359.175781 C 327.339844 359.175781 334.953125 366.789062 334.953125 376.175781 "/>
<path fill="none" stroke-width="2" stroke-linecap="butt" stroke-linejoin="miter" stroke="rgb(0%, 50%, 50%)" stroke-opacity="1" stroke-miterlimit="10" d="M 326.546875 359.019531 C 326.546875 347.976562 317.59375 339.019531 306.546875 339.019531 C 295.5 339.019531 286.546875 347.976562 286.546875 359.019531 C 286.546875 370.066406 295.5 379.019531 306.546875 379.019531 C 317.59375 379.019531 326.546875 370.066406 326.546875 359.019531 " transform="matrix(1, 0, 0, -1, 0, 700)"/>
<path fill-rule="nonzero" fill="rgb(0%, 50%, 50%)" fill-opacity="0.3" d="M 326.546875 340.980469 C 326.546875 352.023438 317.59375 360.980469 306.546875 360.980469 C 295.5 360.980469 286.546875 352.023438 286.546875 340.980469 C 286.546875 329.933594 295.5 320.980469 306.546875 320.980469 C 317.59375 320.980469 326.546875 329.933594 326.546875 340.980469 "/>
<path fill="none" stroke-width="2" stroke-linecap="butt" stroke-linejoin="miter" stroke="rgb(50%, 0%, 50%)" stroke-opacity="1" stroke-miterlimit="10" d="M 354.871094 393.773438 C 354.871094 381.070312 344.570312 370.773438 331.871094 370.773438 C 319.167969 370.773438 308.871094 381.070312 308.871094 393.773438 C 308.871094 406.476562 319.167969 416.773438 331.871094 416.773438 C 344.570312 416.773438 354.871094 406.476562 354.871094 393.773438 " transform="matrix(1, 0, 0, -1, 0, 700)"/>
<path fill-rule="nonzero" fill="rgb(50%, 0%, 50%)" fill-opacity="0.3" d="M 354.871094 306.226562 C 354.871094 318.929688 344.570312 329.226562 331.871094 329.226562 C 319.167969 329.226562 308.871094 318.929688 308.871094 306.226562 C 308.871094 293.523438 319.167969 283.226562 331.871094 283.226562 C 344.570312 283.226562 354.871094 293.523438 354.871094 306.226562 "/>
<path fill="none" stroke-width="2" stroke-linecap="butt" stroke-linejoin="miter" stroke="rgb(0%, 50%, 0%)" stroke-opacity="1" stroke-miterlimit="10" d="M 406.71875 389.929688 C 406.71875 375.570312 395.078125 363.929688 380.71875 363.929688 C 366.359375 363.929688 354.71875 375.570312 354.71875 389.929688 C 354.71875 404.289062 366.359375 415.929688 380.71875 415.929688 C 395.078125 415.929688 406.71875 404.289062 406.71875 389.929688 " transform="matrix(1, 0, 0, -1, 0, 700)"/>
<path fill-rule="nonzero" fill="rgb(0%, 50%, 0%)" fill-opacity="0.3" d="M 406.71875 310.070312 C 406.71875 324.429688 395.078125 336.070312 380.71875 336.070312 C 366.359375 336.070312 354.71875 324.429688 354.71875 310.070312 C 354.71875 295.710938 366.359375 284.070312 380.71875 284.070312 C 395.078125 284.070312 406.71875 295.710938 406.71875 310.070312 "/>
<path fill="none" stroke-width="2" stroke-linecap="butt" stroke-linejoin="miter" stroke="rgb(50%, 0%, 0%)" stroke-opacity="1" stroke-miterlimit="10" d="M 431.304688 339.34375 C 431.304688 323.328125 418.320312 310.34375 402.304688 310.34375 C 386.289062 310.34375 373.304688 323.328125 373.304688 339.34375 C 373.304688 355.359375 386.289062 368.34375 402.304688 368.34375 C 418.320312 368.34375 431.304688 355.359375 431.304688 339.34375 " transform="matrix(1, 0, 0, -1, 0, 700)"/>
<path fill-rule="nonzero" fill="rgb(50%, 0%, 0%)" fill-opacity="0.3" d="M 431.304688 360.65625 C 431.304688 376.671875 418.320312 389.65625 402.304688 389.65625 C 386.289062 389.65625 373.304688 376.671875 373.304688 360.65625 C 373.304688 344.640625 386.289062 331.65625 402.304688 331.65625 C 418.320312 331.65625 431.304688 344.640625 431.304688 360.65625 "/>
<path fill="none" stroke-width="2" stroke-linecap="butt" stroke-linejoin="miter" stroke="rgb(100%, 0%, 100%)" stroke-opacity="1" stroke-miterlimit="10" d="M 392.78125 294.660156 C 392.78125 276.988281 378.453125 262.660156 360.78125 262.660156 C 343.109375 262.660156 328.78125 276.988281 328.78125 294.660156 C 328.78125 312.332031 343.109375 326.660156 360.78125 326.660156 C 378.453125 326.660156 392.78125 312.332031 392.78125 294.660156 " transform="matrix(1, 0, 0, -1, 0, 700)"/>
<path fill-rule="nonzero" fill="rgb(100%, 0%, 100%)" fill-opacity="0.3" d="M 392.78125 405.339844 C 392.78125 423.011719 378.453125 437.339844 360.78125 437.339844 C 343.109375 437.339844 328.78125 423.011719 328.78125 405.339844 C 328.78125 387.667969 343.109375 373.339844 360.78125 373.339844 C 378.453125 373.339844 392.78125 387.667969 392.78125 405.339844 "/>
<path fill="none" stroke-width="2" stroke-linecap="butt" stroke-linejoin="miter" stroke="rgb(0%, 100%, 100%)" stroke-opacity="1" stroke-miterlimit="10" d="M 333.757812 320 C 333.757812 300.667969 318.085938 285 298.757812 285 C 279.425781 285 263.757812 300.667969 263.757812 320 C 263.757812 339.328125 279.425781 355 298.757812 355 C 318.085938 355 333.757812 339.328125 333.757812 320 " transform="matrix(1, 0, 0, -1, 0, 700)"/>
<path fill-rule="nonzero" fill="rgb(0%, 100%, 100%)" fill-opacity="0.3" d="M 333.757812 380 C 333.757812 399.332031 318.085938 415 298.757812 415 C 279.425781 415 263.757812 399.332031 263.757812 380 C 263.757812 360.671875 279.425781 345 298.757812 345 C 318.085938 345 333.757812 360.671875 333.757812 380 "/>
<path fill="none" stroke-width="2" stroke-linecap="butt" stroke-linejoin="miter" stroke="rgb(100%, 100%, 0%)" stroke-opacity="1" stroke-miterlimit="10" d="M 342.585938 392.765625 C 342.585938 371.777344 325.574219 354.765625 304.585938 354.765625 C 283.597656 354.765625 266.585938 371.777344 266.585938 392.765625 C 266.585938 413.75 283.597656 430.765625 304.585938 430.765625 C 325.574219 430.765625 342.585938 413.75 342.585938 392.765625 " transform="matrix(1, 0, 0, -1, 0, 700)"/>
<path fill-rule="nonzero" fill="rgb(100%, 100%, 0%)" fill-opacity="0.3" d="M 342.585938 307.234375 C 342.585938 328.222656 325.574219 345.234375 304.585938 345.234375 C 283.597656 345.234375 266.585938 328.222656 266.585938 307.234375 C 266.585938 286.25 283.597656 269.234375 304.585938 269.234375 C 325.574219 269.234375 342.585938 286.25 342.585938 307.234375 "/>
<path fill="none" stroke-width="2" stroke-linecap="butt" stroke-linejoin="miter" stroke="rgb(0%, 0%, 100%)" stroke-opacity="1" stroke-miterlimit="10" d="M 423.324219 406.832031 C 423.324219 384.1875 404.96875 365.832031 382.324219 365.832031 C 359.679688 365.832031 341.324219 384.1875 341.324219 406.832031 C 341.324219 429.472656 359.679688 447.832031 382.324219 447.832031 C 404.96875 447.832031 423.324219 429.472656 423.324219 406.832031 " transform="matrix(1, 0, 0, -1, 0, 700)"/>
<path fill-rule="nonzero" fill="rgb(0%, 0%, 100%)" fill-opacity="0.3" d="M 423.324219 293.167969 C 423.324219 315.8125 404.96875 334.167969 382.324219 334.167969 C 359.679688 334.167969 341.324219 315.8125 341.324219 293.167969 C 341.324219 270.527344 359.679688 252.167969 382.324219 252.167969 C 404.96875 252.167969 423.324219 270.527344 423.324219 293.167969 "/>
<path fill="none" stroke-width="2" stroke-linecap="butt" stroke-linejoin="miter" stroke="rgb(0%, 100%, 0%)" stroke-opacity="1" stroke-miterlimit="10" d="M 458.84375 328.296875 C 458.84375 303.996094 439.144531 284.296875 414.84375 284.296875 C 390.542969 284.296875 370.84375 303.996094 370.84375 328.296875 C 370.84375 352.597656 390.542969 372.296875 414.84375 372.296875 C 439.144531 372.296875 458.84375 352.597656 458.84375 328.296875 " transform="matrix(1, 0, 0, -1, 0, 700)"/>
<path fill-rule="nonzero" fill="rgb(0%, 100%, 0%)" fill-opacity="0.3" d="M 458.84375 371.703125 C 458.84375 396.003906 439.144531 415.703125 414.84375 415.703125 C 390.542969 415.703125 370.84375 396.003906 370.84375 371.703125 C 370.84375 347.402344 390.542969 327.703125 414.84375 327.703125 C 439.144531 327.703125 458.84375 347.402344 458.84375 371.703125 "/>
<path fill="none" stroke-width="2" stroke-linecap="butt" stroke-linejoin="miter" stroke="rgb(100%, 0%, 0%)" stroke-opacity="1" stroke-miterlimit="10" d="M 384.941406 279.644531 C 384.941406 253.6875 363.898438 232.644531 337.941406 232.644531 C 311.984375 232.644531 290.941406 253.6875 290.941406 279.644531 C 290.941406 305.601562 311.984375 326.644531 337.941406 326.644531 C 363.898438 326.644531 384.941406 305.601562 384.941406 279.644531 " transform="matrix(1, 0, 0, -1, 0, 700)"/>
<path fill-rule="nonzero" fill="rgb(100%, 0%, 0%)" fill-opacity="0.3" d="M 384.941406 420.355469 C 384.941406 446.3125 363.898438 467.355469 337.941406 467.355469 C 311.984375 467.355469 290.941406 446.3125 290.941406 420.355469 C 290.941406 394.398438 311.984375 373.355469 337.941406 373.355469 C 363.898438 373.355469 384.941406 394.398438 384.941406 420.355469 "/>
<path fill="none" stroke-width="2" stroke-linecap="butt" stroke-linejoin="miter" stroke="rgb(0%, 0%, 29.998779%)" stroke-opacity="1" stroke-miterlimit="10" d="M 332.878906 330.664062 C 332.878906 323.996094 322.878906 323.996094 322.878906 330.664062 C 322.878906 337.332031 332.878906 337.332031 332.878906 330.664062 " transform="matrix(1, 0, 0, -1, 0, 700)"/>
<path fill-rule="nonzero" fill="rgb(0%, 0%, 29.998779%)" fill-opacity="0.3" d="M 332.878906 369.335938 C 332.878906 376.003906 322.878906 376.003906 322.878906 369.335938 C 322.878906 362.667969 332.878906 362.667969 332.878906 369.335938 "/>
</svg>
