<?xml version="1.0" encoding="UTF-8"?>
<svg xmlns="http://www.w3.org/2000/svg" xmlns:xlink="http://www.w3.org/1999/xlink" width="700" height="700" viewBox="0 0 700 700">
<path fill="none" stroke-width="2" stroke-linecap="butt" stroke-linejoin="miter" stroke="rgb(0%, 50%, 0%)" stroke-opacity="0.6" stroke-miterlimit="10" d="M 350 350 L 379.867188 350 Z M 350 350 " transform="matrix(1, 0, 0, -1, 0, 700)"/>
<path fill="none" stroke-width="2" stroke-linecap="butt" stroke-linejoin="miter" stroke="rgb(0%, 50%, 0%)" stroke-opacity="0.6" stroke-miterlimit="10" d="M 350 350 L 379.867188 350 L 380.1875 337.003906 Z M 350 350 " transform="matrix(1, 0, 0, -1, 0, 700)"/>
<path fill="none" stroke-width="2" stroke-linecap="butt" stroke-linejoin="miter" stroke="rgb(0%, 50%, 0%)" stroke-opacity="0.6" stroke-miterlimit="10" d="M 350 350 L 380.1875 337.003906 L 370.570312 320.617188 Z M 350 350 " transform="matrix(1, 0, 0, -1, 0, 700)"/>
<path fill="none" stroke-width="2" stroke-linecap="butt" stroke-linejoin="miter" stroke="rgb(0%, 50%, 0%)" stroke-opacity="0.6" stroke-miterlimit="10" d="M 350 350 L 370.570312 320.617188 L 347.40625 311.21875 Z M 350 350 " transform="matrix(1, 0, 0, -1, 0, 700)"/>
<path fill="none" stroke-width="2" stroke-linecap="butt" stroke-linejoin="miter" stroke="rgb(0%, 50%, 0%)" stroke-opacity="0.6" stroke-miterlimit="10" d="M 350 350 L 347.40625 311.21875 L 318.5 322.421875 Z M 350 350 " transform="matrix(1, 0, 0, -1, 0, 700)"/>
<path fill="none" stroke-width="2" stroke-linecap="butt" stroke-linejoin="miter" stroke="rgb(0%, 50%, 0%)" stroke-opacity="0.6" stroke-miterlimit="10" d="M 350 350 L 318.5 322.421875 L 305.703125 357.136719 Z M 350 350 " transform="matrix(1, 0, 0, -1, 0, 700)"/>
<path fill="none" stroke-width="2" stroke-linecap="butt" stroke-linejoin="miter" stroke="rgb(0%, 50%, 0%)" stroke-opacity="0.6" stroke-miterlimit="10" d="M 350 350 L 305.703125 357.136719 L 329.234375 393.128906 Z M 350 350 " transform="matrix(1, 0, 0, -1, 0, 700)"/>
<path fill="none" stroke-width="2" stroke-linecap="butt" stroke-linejoin="miter" stroke="rgb(0%, 50%, 0%)" stroke-opacity="0.6" stroke-miterlimit="10" d="M 350 350 L 329.234375 393.128906 L 378.226562 392.316406 Z M 350 350 " transform="matrix(1, 0, 0, -1, 0, 700)"/>
<path fill="none" stroke-width="2" stroke-linecap="butt" stroke-linejoin="miter" stroke="rgb(0%, 50%, 0%)" stroke-opacity="0.6" stroke-miterlimit="10" d="M 350 350 L 378.226562 392.316406 L 403.46875 343.449219 Z M 350 350 " transform="matrix(1, 0, 0, -1, 0, 700)"/>
<path fill="none" stroke-width="2" stroke-linecap="butt" stroke-linejoin="miter" stroke="rgb(0%, 50%, 0%)" stroke-opacity="0.6" stroke-miterlimit="10" d="M 350 350 L 403.46875 343.449219 L 365.890625 295.398438 Z M 350 350 " transform="matrix(1, 0, 0, -1, 0, 700)"/>
<path fill="none" stroke-width="2" stroke-linecap="butt" stroke-linejoin="miter" stroke="rgb(0%, 50%, 0%)" stroke-opacity="0.6" stroke-miterlimit="10" d="M 350 350 L 365.890625 295.398438 L 301.707031 314.617188 Z M 350 350 " transform="matrix(1, 0, 0, -1, 0, 700)"/>
<path fill="none" stroke-width="2" stroke-linecap="butt" stroke-linejoin="miter" stroke="rgb(0%, 50%, 0%)" stroke-opacity="0.6" stroke-miterlimit="10" d="M 350 350 L 301.707031 314.617188 L 299.605469 387.585938 Z M 350 350 " transform="matrix(1, 0, 0, -1, 0, 700)"/>
<path fill="none" stroke-width="2" stroke-linecap="butt" stroke-linejoin="miter" stroke="rgb(0%, 50%, 0%)" stroke-opacity="0.6" stroke-miterlimit="10" d="M 350 350 L 299.605469 387.585938 L 375.085938 410.902344 Z M 350 350 " transform="matrix(1, 0, 0, -1, 0, 700)"/>
<path fill="none" stroke-width="2" stroke-linecap="butt" stroke-linejoin="miter" stroke="rgb(0%, 50%, 0%)" stroke-opacity="0.6" stroke-miterlimit="10" d="M 350 350 L 375.085938 410.902344 L 417.695312 337.355469 Z M 350 350 " transform="matrix(1, 0, 0, -1, 0, 700)"/>
<path fill="none" stroke-width="2" stroke-linecap="butt" stroke-linejoin="miter" stroke="rgb(0%, 50%, 0%)" stroke-opacity="0.6" stroke-miterlimit="10" d="M 350 350 L 417.695312 337.355469 L 348.59375 278.144531 Z M 350 350 " transform="matrix(1, 0, 0, -1, 0, 700)"/>
<path fill="none" stroke-width="2" stroke-linecap="butt" stroke-linejoin="miter" stroke="rgb(0%, 50%, 0%)" stroke-opacity="0.6" stroke-miterlimit="10" d="M 350 350 L 348.59375 278.144531 L 330.894531 327.042969 Z M 350 350 " transform="matrix(1, 0, 0, -1, 0, 700)"/>
<path fill="none" stroke-width="4" stroke-linecap="butt" stroke-linejoin="miter" stroke="rgb(0%, 0%, 0%)" stroke-opacity="1" stroke-miterlimit="10" d="M 374.867188 350 C 374.867188 336.265625 363.734375 325.132812 350 325.132812 C 336.265625 325.132812 325.132812 336.265625 325.132812 350 C 325.132812 363.734375 336.265625 374.867188 350 374.867188 C 363.734375 374.867188 374.867188 363.734375 374.867188 350 " transform="matrix(1, 0, 0, -1, 0, 700)"/>
<path fill-rule="nonzero" fill="rgb(0%, 0%, 0%)" fill-opacity="0.3" d="M 374.867188 350 C 374.867188 363.734375 363.734375 374.867188 350 374.867188 C 336.265625 374.867188 325.132812 363.734375 325.132812 350 C 325.132812 336.265625 336.265625 325.132812 350 325.132812 C 363.734375 325.132812 374.867188 336.265625 374.867188 350 "/>
<path fill="none" stroke-width="2" stroke-linecap="butt" stroke-linejoin="miter" stroke="rgb(69.999695%, 29.998779%, 9.999084%)" stroke-opacity="1" stroke-miterlimit="10" d="M 384.867188 350 C 384.867188 343.332031 374.867188 343.332031 374.867188 350 C 374.867188 356.667969 384.867188 356.667969 384.867188 350 " transform="matrix(1, 0, 0, -1, 0, 700)"/>
<path fill-rule="nonzero" fill="rgb(69.999695%, 29.998779%, 9.999084%)" fill-opacity="0.3" d="M 384.867188 350 C 384.867188 356.667969 374.867188 356.667969 374.867188 350 C 374.867188 343.332031 384.867188 343.332031 384.867188 350 "/>
<path fill="none" stroke-width="2" stroke-linecap="butt" stroke-linejoin="miter" stroke="rgb(81.999207%, 40.99884%, 10.998535%)" stroke-opacity="1" stroke-miterlimit="10" d="M 388.1875 337.003906 C 388.1875 332.585938 384.605469 329.003906 380.1875 329.003906 C 375.769531 329.003906 372.1875 332.585938 372.1875 337.003906 C 372.1875 341.421875 375.769531 345.003906 380.1875 345.003906 C 384.605469 345.003906 388.1875 341.421875 388.1875 337.003906 " transform="matrix(1, 0, 0, -1, 0, 700)"/>
<path fill-rule="nonzero" fill="rgb(81.999207%, 40.99884%, 10.998535%)" fill-opacity="0.3" d="M 388.1875 362.996094 C 388.1875 367.414062 384.605469 370.996094 380.1875 370.996094 C 375.769531 370.996094 372.1875 367.414062 372.1875 362.996094 C 372.1875 358.578125 375.769531 354.996094 380.1875 354.996094 C 384.605469 354.996094 388.1875 358.578125 388.1875 362.996094 "/>
<path fill="none" stroke-width="2" stroke-linecap="butt" stroke-linejoin="miter" stroke="rgb(100%, 53.999329%, 0%)" stroke-opacity="1" stroke-miterlimit="10" d="M 381.570312 320.617188 C 381.570312 314.542969 376.644531 309.617188 370.570312 309.617188 C 364.496094 309.617188 359.570312 314.542969 359.570312 320.617188 C 359.570312 326.691406 364.496094 331.617188 370.570312 331.617188 C 376.644531 331.617188 381.570312 326.691406 381.570312 320.617188 " transform="matrix(1, 0, 0, -1, 0, 700)"/>
<path fill-rule="nonzero" fill="rgb(100%, 53.999329%, 0%)" fill-opacity="0.3" d="M 381.570312 379.382812 C 381.570312 385.457031 376.644531 390.382812 370.570312 390.382812 C 364.496094 390.382812 359.570312 385.457031 359.570312 379.382812 C 359.570312 373.308594 364.496094 368.382812 370.570312 368.382812 C 376.644531 368.382812 381.570312 373.308594 381.570312 379.382812 "/>
<path fill="none" stroke-width="2" stroke-linecap="butt" stroke-linejoin="miter" stroke="rgb(100%, 6.999207%, 56.999207%)" stroke-opacity="1" stroke-miterlimit="10" d="M 361.40625 311.21875 C 361.40625 303.488281 355.136719 297.21875 347.40625 297.21875 C 339.671875 297.21875 333.40625 303.488281 333.40625 311.21875 C 333.40625 318.953125 339.671875 325.21875 347.40625 325.21875 C 355.136719 325.21875 361.40625 318.953125 361.40625 311.21875 " transform="matrix(1, 0, 0, -1, 0, 700)"/>
<path fill-rule="nonzero" fill="rgb(100%, 6.999207%, 56.999207%)" fill-opacity="0.3" d="M 361.40625 388.78125 C 361.40625 396.511719 355.136719 402.78125 347.40625 402.78125 C 339.671875 402.78125 333.40625 396.511719 333.40625 388.78125 C 333.40625 381.046875 339.671875 374.78125 347.40625 374.78125 C 355.136719 374.78125 361.40625 381.046875 361.40625 388.78125 "/>
<path fill="none" stroke-width="2" stroke-linecap="butt" stroke-linejoin="miter" stroke="rgb(0%, 0%, 50%)" stroke-opacity="1" stroke-miterlimit="10" d="M 335.5 322.421875 C 335.5 313.03125 327.886719 305.421875 318.5 305.421875 C 309.109375 305.421875 301.5 313.03125 301.5 322.421875 C 301.5 331.808594 309.109375 339.421875 318.5 339.421875 C 327.886719 339.421875 335.5 331.808594 335.5 322.421875 " transform="matrix(1, 0, 0, -1, 0, 700)"/>
<path fill-rule="nonzero" fill="rgb(0%, 0%, 50%)" fill-opacity="0.3" d="M 335.5 377.578125 C 335.5 386.96875 327.886719 394.578125 318.5 394.578125 C 309.109375 394.578125 301.5 386.96875 301.5 377.578125 C 301.5 368.191406 309.109375 360.578125 318.5 360.578125 C 327.886719 360.578125 335.5 368.191406 335.5 377.578125 "/>
<path fill="none" stroke-width="2" stroke-linecap="butt" stroke-linejoin="miter" stroke="rgb(0%, 50%, 50%)" stroke-opacity="1" stroke-miterlimit="10" d="M 325.703125 357.136719 C 325.703125 346.09375 316.75 337.136719 305.703125 337.136719 C 294.65625 337.136719 285.703125 346.09375 285.703125 357.136719 C 285.703125 368.183594 294.65625 377.136719 305.703125 377.136719 C 316.75 377.136719 325.703125 368.183594 325.703125 357.136719 " transform="matrix(1, 0, 0, -1, 0, 700)"/>
<path fill-rule="nonzero" fill="rgb(0%, 50%, 50%)" fill-opacity="0.3" d="M 325.703125 342.863281 C 325.703125 353.90625 316.75 362.863281 305.703125 362.863281 C 294.65625 362.863281 285.703125 353.90625 285.703125 342.863281 C 285.703125 331.816406 294.65625 322.863281 305.703125 322.863281 C 316.75 322.863281 325.703125 331.816406 325.703125 342.863281 "/>
<path fill="none" stroke-width="2" stroke-linecap="butt" stroke-linejoin="miter" stroke="rgb(50%, 0%, 50%)" stroke-opacity="1" stroke-miterlimit="10" d="M 352.234375 393.128906 C 352.234375 380.425781 341.9375 370.128906 329.234375 370.128906 C 316.53125 370.128906 306.234375 380.425781 306.234375 393.128906 C 306.234375 405.832031 316.53125 416.128906 329.234375 416.128906 C 341.9375 416.128906 352.234375 405.832031 352.234375 393.128906 " transform="matrix(1, 0, 0, -1, 0, 700)"/>
<path fill-rule="nonzero" fill="rgb(50%, 0%, 50%)" fill-opacity="0.3" d="M 352.234375 306.871094 C 352.234375 319.574219 341.9375 329.871094 329.234375 329.871094 C 316.53125 329.871094 306.234375 319.574219 306.234375 306.871094 C 306.234375 294.167969 316.53125 283.871094 329.234375 283.871094 C 341.9375 283.871094 352.234375 294.167969 352.234375 306.871094 "/>
<path fill="none" stroke-width="2" stroke-linecap="butt" stroke-linejoin="miter" stroke="rgb(0%, 50%, 0%)" stroke-opacity="1" stroke-miterlimit="10" d="M 404.226562 392.316406 C 404.226562 377.957031 392.585938 366.316406 378.226562 366.316406 C 363.867188 366.316406 352.226562 377.957031 352.226562 392.316406 C 352.226562 406.675781 363.867188 418.316406 378.226562 418.316406 C 392.585938 418.316406 404.226562 406.675781 404.226562 392.316406 " transform="matrix(1, 0, 0, -1, 0, 700)"/>
<path fill-rule="nonzero" fill="rgb(0%, 50%, 0%)" fill-opacity="0.3" d="M 404.226562 307.683594 C 404.226562 322.042969 392.585938 333.683594 378.226562 333.683594 C 363.867188 333.683594 352.226562 322.042969 352.226562 307.683594 C 352.226562 293.324219 363.867188 281.683594 378.226562 281.683594 C 392.585938 281.683594 404.226562 293.324219 404.226562 307.683594 "/>
<path fill="none" stroke-width="2" stroke-linecap="butt" stroke-linejoin="miter" stroke="rgb(50%, 0%, 0%)" stroke-opacity="1" stroke-miterlimit="10" d="M 432.46875 343.449219 C 432.46875 327.433594 419.484375 314.449219 403.46875 314.449219 C 387.453125 314.449219 374.46875 327.433594 374.46875 343.449219 C 374.46875 359.46875 387.453125 372.449219 403.46875 372.449219 C 419.484375 372.449219 432.46875 359.46875 432.46875 343.449219 " transform="matrix(1, 0, 0, -1, 0, 700)"/>
<path fill-rule="nonzero" fill="rgb(50%, 0%, 0%)" fill-opacity="0.3" d="M 432.46875 356.550781 C 432.46875 372.566406 419.484375 385.550781 403.46875 385.550781 C 387.453125 385.550781 374.46875 372.566406 374.46875 356.550781 C 374.46875 340.53125 387.453125 327.550781 403.46875 327.550781 C 419.484375 327.550781 432.46875 340.53125 432.46875 356.550781 "/>
<path fill="none" stroke-width="2" stroke-linecap="butt" stroke-linejoin="miter" stroke="rgb(100%, 0%, 100%)" stroke-opacity="1" stroke-miterlimit="10" d="M 397.890625 295.398438 C 397.890625 277.726562 383.566406 263.398438 365.890625 263.398438 C 348.21875 263.398438 333.890625 277.726562 333.890625 295.398438 C 333.890625 313.070312 348.21875 327.398438 365.890625 327.398438 C 383.566406 327.398438 397.890625 313.070312 397.890625 295.398438 " transform="matrix(1, 0, 0, -1, 0, 700)"/>
<path fill-rule="nonzero" fill="rgb(100%, 0%, 100%)" fill-opacity="0.3" d="M 397.890625 404.601562 C 397.890625 422.273438 383.566406 436.601562 365.890625 436.601562 C 348.21875 436.601562 333.890625 422.273438 333.890625 404.601562 C 333.890625 386.929688 348.21875 372.601562 365.890625 372.601562 C 383.566406 372.601562 397.890625 386.929688 397.890625 404.601562 "/>
<path fill="none" stroke-width="2" stroke-linecap="butt" stroke-linejoin="miter" stroke="rgb(0%, 100%, 100%)" stroke-opacity="1" stroke-miterlimit="10" d="M 336.707031 314.617188 C 336.707031 295.285156 321.039062 279.617188 301.707031 279.617188 C 282.378906 279.617188 266.707031 295.285156 266.707031 314.617188 C 266.707031 333.945312 282.378906 349.617188 301.707031 349.617188 C 321.039062 349.617188 336.707031 333.945312 336.707031 314.617188 " transform="matrix(1, 0, 0, -1, 0, 700)"/>
<path fill-rule="nonzero" fill="rgb(0%, 100%, 100%)" fill-opacity="0.3" d="M 336.707031 385.382812 C 336.707031 404.714844 321.039062 420.382812 301.707031 420.382812 C 282.378906 420.382812 266.707031 404.714844 266.707031 385.382812 C 266.707031 366.054688 282.378906 350.382812 301.707031 350.382812 C 321.039062 350.382812 336.707031 366.054688 336.707031 385.382812 "/>
<path fill="none" stroke-width="2" stroke-linecap="butt" stroke-linejoin="miter" stroke="rgb(100%, 100%, 0%)" stroke-opacity="1" stroke-miterlimit="10" d="M 337.605469 387.585938 C 337.605469 366.601562 320.59375 349.585938 299.605469 349.585938 C 278.617188 349.585938 261.605469 366.601562 261.605469 387.585938 C 261.605469 408.574219 278.617188 425.585938 299.605469 425.585938 C 320.59375 425.585938 337.605469 408.574219 337.605469 387.585938 " transform="matrix(1, 0, 0, -1, 0, 700)"/>
<path fill-rule="nonzero" fill="rgb(100%, 100%, 0%)" fill-opacity="0.3" d="M 337.605469 312.414062 C 337.605469 333.398438 320.59375 350.414062 299.605469 350.414062 C 278.617188 350.414062 261.605469 333.398438 261.605469 312.414062 C 261.605469 291.425781 278.617188 274.414062 299.605469 274.414062 C 320.59375 274.414062 337.605469 291.425781 337.605469 312.414062 "/>
<path fill="none" stroke-width="2" stroke-linecap="butt" stroke-linejoin="miter" stroke="rgb(0%, 0%, 100%)" stroke-opacity="1" stroke-miterlimit="10" d="M 416.085938 410.902344 C 416.085938 388.257812 397.730469 369.902344 375.085938 369.902344 C 352.441406 369.902344 334.085938 388.257812 334.085938 410.902344 C 334.085938 433.546875 352.441406 451.902344 375.085938 451.902344 C 397.730469 451.902344 416.085938 433.546875 416.085938 410.902344 " transform="matrix(1, 0, 0, -1, 0, 700)"/>
<path fill-rule="nonzero" fill="rgb(0%, 0%, 100%)" fill-opacity="0.3" d="M 416.085938 289.097656 C 416.085938 311.742188 397.730469 330.097656 375.085938 330.097656 C 352.441406 330.097656 334.085938 311.742188 334.085938 289.097656 C 334.085938 266.453125 352.441406 248.097656 375.085938 248.097656 C 397.730469 248.097656 416.085938 266.453125 416.085938 289.097656 "/>
<path fill="none" stroke-width="2" stroke-linecap="butt" stroke-linejoin="miter" stroke="rgb(0%, 100%, 0%)" stroke-opacity="1" stroke-miterlimit="10" d="M 461.695312 337.355469 C 461.695312 313.054688 441.996094 293.355469 417.695312 293.355469 C 393.394531 293.355469 373.695312 313.054688 373.695312 337.355469 C 373.695312 361.65625 393.394531 381.355469 417.695312 381.355469 C 441.996094 381.355469 461.695312 361.65625 461.695312 337.355469 " transform="matrix(1, 0, 0, -1, 0, 700)"/>
<path fill-rule="nonzero" fill="rgb(0%, 100%, 0%)" fill-opacity="0.3" d="M 461.695312 362.644531 C 461.695312 386.945312 441.996094 406.644531 417.695312 406.644531 C 393.394531 406.644531 373.695312 386.945312 373.695312 362.644531 C 373.695312 338.34375 393.394531 318.644531 417.695312 318.644531 C 441.996094 318.644531 461.695312 338.34375 461.695312 362.644531 "/>
<path fill="none" stroke-width="2" stroke-linecap="butt" stroke-linejoin="miter" stroke="rgb(100%, 0%, 0%)" stroke-opacity="1" stroke-miterlimit="10" d="M 395.59375 278.144531 C 395.59375 252.1875 374.550781 231.144531 348.59375 231.144531 C 322.636719 231.144531 301.59375 252.1875 301.59375 278.144531 C 301.59375 304.105469 322.636719 325.144531 348.59375 325.144531 C 374.550781 325.144531 395.59375 304.105469 395.59375 278.144531 " transform="matrix(1, 0, 0, -1, 0, 700)"/>
<path fill-rule="nonzero" fill="rgb(100%, 0%, 0%)" fill-opacity="0.3" d="M 395.59375 421.855469 C 395.59375 447.8125 374.550781 468.855469 348.59375 468.855469 C 322.636719 468.855469 301.59375 447.8125 301.59375 421.855469 C 301.59375 395.894531 322.636719 374.855469 348.59375 374.855469 C 374.550781 374.855469 395.59375 395.894531 395.59375 421.855469 "/>
<path fill="none" stroke-width="2" stroke-linecap="butt" stroke-linejoin="miter" stroke="rgb(0%, 0%, 29.998779%)" stroke-opacity="1" stroke-miterlimit="10" d="M 335.894531 327.042969 C 335.894531 320.375 325.894531 320.375 325.894531 327.042969 C 325.894531 333.707031 335.894531 333.707031 335.894531 327.042969 " transform="matrix(1, 0, 0, -1, 0, 700)"/>
<path fill-rule="nonzero" fill="rgb(0%, 0%, 29.998779%)" fill-opacity="0.3" d="M 335.894531 372.957031 C 335.894531 379.625 325.894531 379.625 325.894531 372.957031 C 325.894531 366.292969 335.894531 366.292969 335.894531 372.957031 "/>
</svg>
