<?xml version="1.0" encoding="UTF-8"?>
<svg xmlns="http://www.w3.org/2000/svg" xmlns:xlink="http://www.w3.org/1999/xlink" width="700" height="700" viewBox="0 0 700 700">
<path fill="none" stroke-width="2" stroke-linecap="butt" stroke-linejoin="miter" stroke="rgb(0%, 50%, 0%)" stroke-opacity="0.6" stroke-miterlimit="10" d="M 350 350 L 380.363281 350 Z M 350 350 " transform="matrix(1, 0, 0, -1, 0, 700)"/>
<path fill="none" stroke-width="2" stroke-linecap="butt" stroke-linejoin="miter" stroke="rgb(0%, 50%, 0%)" stroke-opacity="0.6" stroke-miterlimit="10" d="M 350 350 L 380.363281 350 L 380.730469 337.003906 Z M 350 350 " transform="matrix(1, 0, 0, -1, 0, 700)"/>
<path fill="none" stroke-width="2" stroke-linecap="butt" stroke-linejoin="miter" stroke="rgb(0%, 50%, 0%)" stroke-opacity="0.6" stroke-miterlimit="10" d="M 350 350 L 380.730469 337.003906 L 371.289062 320.515625 Z M 350 350 " transform="matrix(1, 0, 0, -1, 0, 700)"/>
<path fill="none" stroke-width="2" stroke-linecap="butt" stroke-linejoin="miter" stroke="rgb(0%, 50%, 0%)" stroke-opacity="0.6" stroke-miterlimit="10" d="M 350 350 L 371.289062 320.515625 L 348.308594 310.671875 Z M 350 350 " transform="matrix(1, 0, 0, -1, 0, 700)"/>
<path fill="none" stroke-width="2" stroke-linecap="butt" stroke-linejoin="miter" stroke="rgb(0%, 50%, 0%)" stroke-opacity="0.6" stroke-miterlimit="10" d="M 350 350 L 348.308594 310.671875 L 319.089844 321.027344 Z M 350 350 " transform="matrix(1, 0, 0, -1, 0, 700)"/>
<path fill="none" stroke-width="2" stroke-linecap="butt" stroke-linejoin="miter" stroke="rgb(0%, 50%, 0%)" stroke-opacity="0.6" stroke-miterlimit="10" d="M 350 350 L 319.089844 321.027344 L 304.9375 355.214844 Z M 350 350 " transform="matrix(1, 0, 0, -1, 0, 700)"/>
<path fill="none" stroke-width="2" stroke-linecap="butt" stroke-linejoin="miter" stroke="rgb(0%, 50%, 0%)" stroke-opacity="0.6" stroke-miterlimit="10" d="M 350 350 L 304.9375 355.214844 L 326.628906 392.34375 Z M 350 350 " transform="matrix(1, 0, 0, -1, 0, 700)"/>
<path fill="none" stroke-width="2" stroke-linecap="butt" stroke-linejoin="miter" stroke="rgb(0%, 50%, 0%)" stroke-opacity="0.6" stroke-miterlimit="10" d="M 350 350 L 326.628906 392.34375 L 375.578125 394.542969 Z M 350 350 " transform="matrix(1, 0, 0, -1, 0, 700)"/>
<path fill="none" stroke-width="2" stroke-linecap="butt" stroke-linejoin="miter" stroke="rgb(0%, 50%, 0%)" stroke-opacity="0.6" stroke-miterlimit="10" d="M 350 350 L 375.578125 394.542969 L 404.3125 347.648438 Z M 350 350 " transform="matrix(1, 0, 0, -1, 0, 700)"/>
<path fill="none" stroke-width="2" stroke-linecap="butt" stroke-linejoin="miter" stroke="rgb(0%, 50%, 0%)" stroke-opacity="0.6" stroke-miterlimit="10" d="M 350 350 L 404.3125 347.648438 L 370.933594 296.589844 Z M 350 350 " transform="matrix(1, 0, 0, -1, 0, 700)"/>
<path fill="none" stroke-width="2" stroke-linecap="butt" stroke-linejoin="miter" stroke="rgb(0%, 50%, 0%)" stroke-opacity="0.6" stroke-miterlimit="10" d="M 350 350 L 370.933594 296.589844 L 305.199219 309.542969 Z M 350 350 " transform="matrix(1, 0, 0, -1, 0, 700)"/>
<path fill="none" stroke-width="2" stroke-linecap="butt" stroke-linejoin="miter" stroke="rgb(0%, 50%, 0%)" stroke-opacity="0.6" stroke-miterlimit="10" d="M 350 350 L 305.199219 309.542969 L 295.226562 381.859375 Z M 350 350 " transform="matrix(1, 0, 0, -1, 0, 700)"/>
<path fill="none" stroke-width="2" stroke-linecap="butt" stroke-linejoin="miter" stroke="rgb(0%, 50%, 0%)" stroke-opacity="0.6" stroke-miterlimit="10" d="M 350 350 L 295.226562 381.859375 L 367.371094 414.050781 Z M 350 350 " transform="matrix(1, 0, 0, -1, 0, 700)"/>
<path fill="none" stroke-width="2" stroke-linecap="butt" stroke-linejoin="miter" stroke="rgb(0%, 50%, 0%)" stroke-opacity="0.6" stroke-miterlimit="10" d="M 350 350 L 367.371094 414.050781 L 419.289062 346.75 Z M 350 350 " transform="matrix(1, 0, 0, -1, 0, 700)"/>
<path fill="none" stroke-width="2" stroke-linecap="butt" stroke-linejoin="miter" stroke="rgb(0%, 50%, 0%)" stroke-opacity="0.6" stroke-miterlimit="10" d="M 350 350 L 419.289062 346.75 L 359.386719 278.246094 Z M 350 350 " transform="matrix(1, 0, 0, -1, 0, 700)"/>
<path fill="none" stroke-width="2" stroke-linecap="butt" stroke-linejoin="miter" stroke="rgb(0%, 50%, 0%)" stroke-opacity="0.6" stroke-miterlimit="10" d="M 350 350 L 359.386719 278.246094 L 334.484375 323.898438 Z M 350 350 " transform="matrix(1, 0, 0, -1, 0, 700)"/>
<path fill="none" stroke-width="4" stroke-linecap="butt" stroke-linejoin="miter" stroke="rgb(0%, 0%, 0%)" stroke-opacity="1" stroke-miterlimit="10" d="M 375.363281 350 C 375.363281 335.992188 364.007812 324.636719 350 324.636719 C 335.992188 324.636719 324.636719 335.992188 324.636719 350 C 324.636719 364.007812 335.992188 375.363281 350 375.363281 C 364.007812 375.363281 375.363281 364.007812 375.363281 350 " transform="matrix(1, 0, 0, -1, 0, 700)"/>
<path fill-rule="nonzero" fill="rgb(0%, 0%, 0%)" fill-opacity="0.3" d="M 375.363281 350 C 375.363281 364.007812 364.007812 375.363281 350 375.363281 C 335.992188 375.363281 324.636719 364.007812 324.636719 350 C 324.636719 335.992188 335.992188 324.636719 350 324.636719 C 364.007812 324.636719 375.363281 335.992188 375.363281 350 "/>
<path fill="none" stroke-width="2" stroke-linecap="butt" stroke-linejoin="miter" stroke="rgb(69.999695%, 29.998779%, 9.999084%)" stroke-opacity="1" stroke-miterlimit="10" d="M 385.363281 350 C 385.363281 343.332031 375.363281 343.332031 375.363281 350 C 375.363281 356.667969 385.363281 356.667969 385.363281 350 " transform="matrix(1, 0, 0, -1, 0, 700)"/>
<path fill-rule="nonzero" fill="rgb(69.999695%, 29.998779%, 9.999084%)" fill-opacity="0.3" d="M 385.363281 350 C 385.363281 356.667969 375.363281 356.667969 375.363281 350 C 375.363281 343.332031 385.363281 343.332031 385.363281 350 "/>
<path fill="none" stroke-width="2" stroke-linecap="butt" stroke-linejoin="miter" stroke="rgb(81.999207%, 40.99884%, 10.998535%)" stroke-opacity="1" stroke-miterlimit="10" d="M 388.730469 337.003906 C 388.730469 332.585938 385.148438 329.003906 380.730469 329.003906 C 376.3125 329.003906 372.730469 332.585938 372.730469 337.003906 C 372.730469 341.421875 376.3125 345.003906 380.730469 345.003906 C 385.148438 345.003906 388.730469 341.421875 388.730469 337.003906 " transform="matrix(1, 0, 0, -1, 0, 700)"/>
<path fill-rule="nonzero" fill="rgb(81.999207%, 40.99884%, 10.998535%)" fill-opacity="0.3" d="M 388.730469 362.996094 C 388.730469 367.414062 385.148438 370.996094 380.730469 370.996094 C 376.3125 370.996094 372.730469 367.414062 372.730469 362.996094 C 372.730469 358.578125 376.3125 354.996094 380.730469 354.996094 C 385.148438 354.996094 388.730469 358.578125 388.730469 362.996094 "/>
<path fill="none" stroke-width="2" stroke-linecap="butt" stroke-linejoin="miter" stroke="rgb(100%, 53.999329%, 0%)" stroke-opacity="1" stroke-miterlimit="10" d="M 382.289062 320.515625 C 382.289062 314.441406 377.363281 309.515625 371.289062 309.515625 C 365.210938 309.515625 360.289062 314.441406 360.289062 320.515625 C 360.289062 326.59375 365.210938 331.515625 371.289062 331.515625 C 377.363281 331.515625 382.289062 326.59375 382.289062 320.515625 " transform="matrix(1, 0, 0, -1, 0, 700)"/>
<path fill-rule="nonzero" fill="rgb(100%, 53.999329%, 0%)" fill-opacity="0.3" d="M 382.289062 379.484375 C 382.289062 385.558594 377.363281 390.484375 371.289062 390.484375 C 365.210938 390.484375 360.289062 385.558594 360.289062 379.484375 C 360.289062 373.40625 365.210938 368.484375 371.289062 368.484375 C 377.363281 368.484375 382.289062 373.40625 382.289062 379.484375 "/>
<path fill="none" stroke-width="2" stroke-linecap="butt" stroke-linejoin="miter" stroke="rgb(100%, 6.999207%, 56.999207%)" stroke-opacity="1" stroke-miterlimit="10" d="M 362.308594 310.671875 C 362.308594 302.941406 356.039062 296.671875 348.308594 296.671875 C 340.578125 296.671875 334.308594 302.941406 334.308594 310.671875 C 334.308594 318.402344 340.578125 324.671875 348.308594 324.671875 C 356.039062 324.671875 362.308594 318.402344 362.308594 310.671875 " transform="matrix(1, 0, 0, -1, 0, 700)"/>
<path fill-rule="nonzero" fill="rgb(100%, 6.999207%, 56.999207%)" fill-opacity="0.3" d="M 362.308594 389.328125 C 362.308594 397.058594 356.039062 403.328125 348.308594 403.328125 C 340.578125 403.328125 334.308594 397.058594 334.308594 389.328125 C 334.308594 381.597656 340.578125 375.328125 348.308594 375.328125 C 356.039062 375.328125 362.308594 381.597656 362.308594 389.328125 "/>
<path fill="none" stroke-width="2" stroke-linecap="butt" stroke-linejoin="miter" stroke="rgb(0%, 0%, 50%)" stroke-opacity="1" stroke-miterlimit="10" d="M 336.089844 321.027344 C 336.089844 311.640625 328.480469 304.027344 319.089844 304.027344 C 309.699219 304.027344 302.089844 311.640625 302.089844 321.027344 C 302.089844 330.417969 309.699219 338.027344 319.089844 338.027344 C 328.480469 338.027344 336.089844 330.417969 336.089844 321.027344 " transform="matrix(1, 0, 0, -1, 0, 700)"/>
<path fill-rule="nonzero" fill="rgb(0%, 0%, 50%)" fill-opacity="0.3" d="M 336.089844 378.972656 C 336.089844 388.359375 328.480469 395.972656 319.089844 395.972656 C 309.699219 395.972656 302.089844 388.359375 302.089844 378.972656 C 302.089844 369.582031 309.699219 361.972656 319.089844 361.972656 C 328.480469 361.972656 336.089844 369.582031 336.089844 378.972656 "/>
<path fill="none" stroke-width="2" stroke-linecap="butt" stroke-linejoin="miter" stroke="rgb(0%, 50%, 50%)" stroke-opacity="1" stroke-miterlimit="10" d="M 324.9375 355.214844 C 324.9375 344.167969 315.980469 335.214844 304.9375 335.214844 C 293.890625 335.214844 284.9375 344.167969 284.9375 355.214844 C 284.9375 366.261719 293.890625 375.214844 304.9375 375.214844 C 315.980469 375.214844 324.9375 366.261719 324.9375 355.214844 " transform="matrix(1, 0, 0, -1, 0, 700)"/>
<path fill-rule="nonzero" fill="rgb(0%, 50%, 50%)" fill-opacity="0.3" d="M 324.9375 344.785156 C 324.9375 355.832031 315.980469 364.785156 304.9375 364.785156 C 293.890625 364.785156 284.9375 355.832031 284.9375 344.785156 C 284.9375 333.738281 293.890625 324.785156 304.9375 324.785156 C 315.980469 324.785156 324.9375 333.738281 324.9375 344.785156 "/>
<path fill="none" stroke-width="2" stroke-linecap="butt" stroke-linejoin="miter" stroke="rgb(50%, 0%, 50%)" stroke-opacity="1" stroke-miterlimit="10" d="M 349.628906 392.34375 C 349.628906 379.640625 339.328125 369.34375 326.628906 369.34375 C 313.925781 369.34375 303.628906 379.640625 303.628906 392.34375 C 303.628906 405.042969 313.925781 415.34375 326.628906 415.34375 C 339.328125 415.34375 349.628906 405.042969 349.628906 392.34375 " transform="matrix(1, 0, 0, -1, 0, 700)"/>
<path fill-rule="nonzero" fill="rgb(50%, 0%, 50%)" fill-opacity="0.3" d="M 349.628906 307.65625 C 349.628906 320.359375 339.328125 330.65625 326.628906 330.65625 C 313.925781 330.65625 303.628906 320.359375 303.628906 307.65625 C 303.628906 294.957031 313.925781 284.65625 326.628906 284.65625 C 339.328125 284.65625 349.628906 294.957031 349.628906 307.65625 "/>
<path fill="none" stroke-width="2" stroke-linecap="butt" stroke-linejoin="miter" stroke="rgb(0%, 50%, 0%)" stroke-opacity="1" stroke-miterlimit="10" d="M 401.578125 394.542969 C 401.578125 380.183594 389.9375 368.542969 375.578125 368.542969 C 361.21875 368.542969 349.578125 380.183594 349.578125 394.542969 C 349.578125 408.902344 361.21875 420.542969 375.578125 420.542969 C 389.9375 420.542969 401.578125 408.902344 401.578125 394.542969 " transform="matrix(1, 0, 0, -1, 0, 700)"/>
<path fill-rule="nonzero" fill="rgb(0%, 50%, 0%)" fill-opacity="0.3" d="M 401.578125 305.457031 C 401.578125 319.816406 389.9375 331.457031 375.578125 331.457031 C 361.21875 331.457031 349.578125 319.816406 349.578125 305.457031 C 349.578125 291.097656 361.21875 279.457031 375.578125 279.457031 C 389.9375 279.457031 401.578125 291.097656 401.578125 305.457031 "/>
<path fill="none" stroke-width="2" stroke-linecap="butt" stroke-linejoin="miter" stroke="rgb(50%, 0%, 0%)" stroke-opacity="1" stroke-miterlimit="10" d="M 433.3125 347.648438 C 433.3125 331.632812 420.332031 318.648438 404.3125 318.648438 C 388.296875 318.648438 375.3125 331.632812 375.3125 347.648438 C 375.3125 363.664062 388.296875 376.648438 404.3125 376.648438 C 420.332031 376.648438 433.3125 363.664062 433.3125 347.648438 " transform="matrix(1, 0, 0, -1, 0, 700)"/>
<path fill-rule="nonzero" fill="rgb(50%, 0%, 0%)" fill-opacity="0.3" d="M 433.3125 352.351562 C 433.3125 368.367188 420.332031 381.351562 404.3125 381.351562 C 388.296875 381.351562 375.3125 368.367188 375.3125 352.351562 C 375.3125 336.335938 388.296875 323.351562 404.3125 323.351562 C 420.332031 323.351562 433.3125 336.335938 433.3125 352.351562 "/>
<path fill="none" stroke-width="2" stroke-linecap="butt" stroke-linejoin="miter" stroke="rgb(100%, 0%, 100%)" stroke-opacity="1" stroke-miterlimit="10" d="M 402.933594 296.589844 C 402.933594 278.917969 388.605469 264.589844 370.933594 264.589844 C 353.261719 264.589844 338.933594 278.917969 338.933594 296.589844 C 338.933594 314.265625 353.261719 328.589844 370.933594 328.589844 C 388.605469 328.589844 402.933594 314.265625 402.933594 296.589844 " transform="matrix(1, 0, 0, -1, 0, 700)"/>
<path fill-rule="nonzero" fill="rgb(100%, 0%, 100%)" fill-opacity="0.3" d="M 402.933594 403.410156 C 402.933594 421.082031 388.605469 435.410156 370.933594 435.410156 C 353.261719 435.410156 338.933594 421.082031 338.933594 403.410156 C 338.933594 385.734375 353.261719 371.410156 370.933594 371.410156 C 388.605469 371.410156 402.933594 385.734375 402.933594 403.410156 "/>
<path fill="none" stroke-width="2" stroke-linecap="butt" stroke-linejoin="miter" stroke="rgb(0%, 100%, 100%)" stroke-opacity="1" stroke-miterlimit="10" d="M 340.199219 309.542969 C 340.199219 290.214844 324.527344 274.542969 305.199219 274.542969 C 285.867188 274.542969 270.199219 290.214844 270.199219 309.542969 C 270.199219 328.875 285.867188 344.542969 305.199219 344.542969 C 324.527344 344.542969 340.199219 328.875 340.199219 309.542969 " transform="matrix(1, 0, 0, -1, 0, 700)"/>
<path fill-rule="nonzero" fill="rgb(0%, 100%, 100%)" fill-opacity="0.3" d="M 340.199219 390.457031 C 340.199219 409.785156 324.527344 425.457031 305.199219 425.457031 C 285.867188 425.457031 270.199219 409.785156 270.199219 390.457031 C 270.199219 371.125 285.867188 355.457031 305.199219 355.457031 C 324.527344 355.457031 340.199219 371.125 340.199219 390.457031 "/>
<path fill="none" stroke-width="2" stroke-linecap="butt" stroke-linejoin="miter" stroke="rgb(100%, 100%, 0%)" stroke-opacity="1" stroke-miterlimit="10" d="M 333.226562 381.859375 C 333.226562 360.875 316.214844 343.859375 295.226562 343.859375 C 274.242188 343.859375 257.226562 360.875 257.226562 381.859375 C 257.226562 402.847656 274.242188 419.859375 295.226562 419.859375 C 316.214844 419.859375 333.226562 402.847656 333.226562 381.859375 " transform="matrix(1, 0, 0, -1, 0, 700)"/>
<path fill-rule="nonzero" fill="rgb(100%, 100%, 0%)" fill-opacity="0.3" d="M 333.226562 318.140625 C 333.226562 339.125 316.214844 356.140625 295.226562 356.140625 C 274.242188 356.140625 257.226562 339.125 257.226562 318.140625 C 257.226562 297.152344 274.242188 280.140625 295.226562 280.140625 C 316.214844 280.140625 333.226562 297.152344 333.226562 318.140625 "/>
<path fill="none" stroke-width="2" stroke-linecap="butt" stroke-linejoin="miter" stroke="rgb(0%, 0%, 100%)" stroke-opacity="1" stroke-miterlimit="10" d="M 408.371094 414.050781 C 408.371094 391.40625 390.015625 373.050781 367.371094 373.050781 C 344.726562 373.050781 326.371094 391.40625 326.371094 414.050781 C 326.371094 436.695312 344.726562 455.050781 367.371094 455.050781 C 390.015625 455.050781 408.371094 436.695312 408.371094 414.050781 " transform="matrix(1, 0, 0, -1, 0, 700)"/>
<path fill-rule="nonzero" fill="rgb(0%, 0%, 100%)" fill-opacity="0.3" d="M 408.371094 285.949219 C 408.371094 308.59375 390.015625 326.949219 367.371094 326.949219 C 344.726562 326.949219 326.371094 308.59375 326.371094 285.949219 C 326.371094 263.304688 344.726562 244.949219 367.371094 244.949219 C 390.015625 244.949219 408.371094 263.304688 408.371094 285.949219 "/>
<path fill="none" stroke-width="2" stroke-linecap="butt" stroke-linejoin="miter" stroke="rgb(0%, 100%, 0%)" stroke-opacity="1" stroke-miterlimit="10" d="M 463.289062 346.75 C 463.289062 322.449219 443.589844 302.75 419.289062 302.75 C 394.988281 302.75 375.289062 322.449219 375.289062 346.75 C 375.289062 371.050781 394.988281 390.75 419.289062 390.75 C 443.589844 390.75 463.289062 371.050781 463.289062 346.75 " transform="matrix(1, 0, 0, -1, 0, 700)"/>
<path fill-rule="nonzero" fill="rgb(0%, 100%, 0%)" fill-opacity="0.3" d="M 463.289062 353.25 C 463.289062 377.550781 443.589844 397.25 419.289062 397.25 C 394.988281 397.25 375.289062 377.550781 375.289062 353.25 C 375.289062 328.949219 394.988281 309.25 419.289062 309.25 C 443.589844 309.25 463.289062 328.949219 463.289062 353.25 "/>
<path fill="none" stroke-width="2" stroke-linecap="butt" stroke-linejoin="miter" stroke="rgb(100%, 0%, 0%)" stroke-opacity="1" stroke-miterlimit="10" d="M 406.386719 278.246094 C 406.386719 252.289062 385.34375 231.246094 359.386719 231.246094 C 333.425781 231.246094 312.386719 252.289062 312.386719 278.246094 C 312.386719 304.203125 333.425781 325.246094 359.386719 325.246094 C 385.34375 325.246094 406.386719 304.203125 406.386719 278.246094 " transform="matrix(1, 0, 0, -1, 0, 700)"/>
<path fill-rule="nonzero" fill="rgb(100%, 0%, 0%)" fill-opacity="0.3" d="M 406.386719 421.753906 C 406.386719 447.710938 385.34375 468.753906 359.386719 468.753906 C 333.425781 468.753906 312.386719 447.710938 312.386719 421.753906 C 312.386719 395.796875 333.425781 374.753906 359.386719 374.753906 C 385.34375 374.753906 406.386719 395.796875 406.386719 421.753906 "/>
<path fill="none" stroke-width="2" stroke-linecap="butt" stroke-linejoin="miter" stroke="rgb(0%, 0%, 29.998779%)" stroke-opacity="1" stroke-miterlimit="10" d="M 339.484375 323.898438 C 339.484375 317.230469 329.484375 317.230469 329.484375 323.898438 C 329.484375 330.5625 339.484375 330.5625 339.484375 323.898438 " transform="matrix(1, 0, 0, -1, 0, 700)"/>
<path fill-rule="nonzero" fill="rgb(0%, 0%, 29.998779%)" fill-opacity="0.3" d="M 339.484375 376.101562 C 339.484375 382.769531 329.484375 382.769531 329.484375 376.101562 C 329.484375 369.4375 339.484375 369.4375 339.484375 376.101562 "/>
</svg>
