<?xml version="1.0" encoding="UTF-8"?>
<svg xmlns="http://www.w3.org/2000/svg" xmlns:xlink="http://www.w3.org/1999/xlink" width="700" height="700" viewBox="0 0 700 700">
<path fill="none" stroke-width="2" stroke-linecap="butt" stroke-linejoin="miter" stroke="rgb(0%, 50%, 0%)" stroke-opacity="0.6" stroke-miterlimit="10" d="M 350 350 L 380.871094 350 Z M 350 350 " transform="matrix(1, 0, 0, -1, 0, 700)"/>
<path fill="none" stroke-width="2" stroke-linecap="butt" stroke-linejoin="miter" stroke="rgb(0%, 50%, 0%)" stroke-opacity="0.6" stroke-miterlimit="10" d="M 350 350 L 380.871094 350 L 381.28125 337.007812 Z M 350 350 " transform="matrix(1, 0, 0, -1, 0, 700)"/>
<path fill="none" stroke-width="2" stroke-linecap="butt" stroke-linejoin="miter" stroke="rgb(0%, 50%, 0%)" stroke-opacity="0.6" stroke-miterlimit="10" d="M 350 350 L 381.28125 337.007812 L 372.011719 320.421875 Z M 350 350 " transform="matrix(1, 0, 0, -1, 0, 700)"/>
<path fill="none" stroke-width="2" stroke-linecap="butt" stroke-linejoin="miter" stroke="rgb(0%, 50%, 0%)" stroke-opacity="0.6" stroke-miterlimit="10" d="M 350 350 L 372.011719 320.421875 L 349.226562 310.136719 Z M 350 350 " transform="matrix(1, 0, 0, -1, 0, 700)"/>
<path fill="none" stroke-width="2" stroke-linecap="butt" stroke-linejoin="miter" stroke="rgb(0%, 50%, 0%)" stroke-opacity="0.6" stroke-miterlimit="10" d="M 350 350 L 349.226562 310.136719 L 319.722656 319.648438 Z M 350 350 " transform="matrix(1, 0, 0, -1, 0, 700)"/>
<path fill="none" stroke-width="2" stroke-linecap="butt" stroke-linejoin="miter" stroke="rgb(0%, 50%, 0%)" stroke-opacity="0.6" stroke-miterlimit="10" d="M 350 350 L 319.722656 319.648438 L 304.242188 353.253906 Z M 350 350 " transform="matrix(1, 0, 0, -1, 0, 700)"/>
<path fill="none" stroke-width="2" stroke-linecap="butt" stroke-linejoin="miter" stroke="rgb(0%, 50%, 0%)" stroke-opacity="0.6" stroke-miterlimit="10" d="M 350 350 L 304.242188 353.253906 L 324.054688 391.417969 Z M 350 350 " transform="matrix(1, 0, 0, -1, 0, 700)"/>
<path fill="none" stroke-width="2" stroke-linecap="butt" stroke-linejoin="miter" stroke="rgb(0%, 50%, 0%)" stroke-opacity="0.6" stroke-miterlimit="10" d="M 350 350 L 324.054688 391.417969 L 372.78125 396.601562 Z M 350 350 " transform="matrix(1, 0, 0, -1, 0, 700)"/>
<path fill="none" stroke-width="2" stroke-linecap="butt" stroke-linejoin="miter" stroke="rgb(0%, 50%, 0%)" stroke-opacity="0.6" stroke-miterlimit="10" d="M 350 350 L 372.78125 396.601562 L 404.839844 351.910156 Z M 350 350 " transform="matrix(1, 0, 0, -1, 0, 700)"/>
<path fill="none" stroke-width="2" stroke-linecap="butt" stroke-linejoin="miter" stroke="rgb(0%, 50%, 0%)" stroke-opacity="0.6" stroke-miterlimit="10" d="M 350 350 L 404.839844 351.910156 L 375.867188 298.230469 Z M 350 350 " transform="matrix(1, 0, 0, -1, 0, 700)"/>
<path fill="none" stroke-width="2" stroke-linecap="butt" stroke-linejoin="miter" stroke="rgb(0%, 50%, 0%)" stroke-opacity="0.6" stroke-miterlimit="10" d="M 350 350 L 375.867188 298.230469 L 309.191406 304.832031 Z M 350 350 " transform="matrix(1, 0, 0, -1, 0, 700)"/>
<path fill="none" stroke-width="2" stroke-linecap="butt" stroke-linejoin="miter" stroke="rgb(0%, 50%, 0%)" stroke-opacity="0.6" stroke-miterlimit="10" d="M 350 350 L 309.191406 304.832031 L 291.507812 375.65625 Z M 350 350 " transform="matrix(1, 0, 0, -1, 0, 700)"/>
<path fill="none" stroke-width="2" stroke-linecap="butt" stroke-linejoin="miter" stroke="rgb(0%, 50%, 0%)" stroke-opacity="0.6" stroke-miterlimit="10" d="M 350 350 L 291.507812 375.65625 L 359.296875 416.222656 Z M 350 350 " transform="matrix(1, 0, 0, -1, 0, 700)"/>
<path fill="none" stroke-width="2" stroke-linecap="butt" stroke-linejoin="miter" stroke="rgb(0%, 50%, 0%)" stroke-opacity="0.6" stroke-miterlimit="10" d="M 350 350 L 359.296875 416.222656 L 419.585938 356.304688 Z M 350 350 " transform="matrix(1, 0, 0, -1, 0, 700)"/>
<path fill="none" stroke-width="2" stroke-linecap="butt" stroke-linejoin="miter" stroke="rgb(0%, 50%, 0%)" stroke-opacity="0.6" stroke-miterlimit="10" d="M 350 350 L 419.585938 356.304688 L 370.082031 279.949219 Z M 350 350 " transform="matrix(1, 0, 0, -1, 0, 700)"/>
<path fill="none" stroke-width="2" stroke-linecap="butt" stroke-linejoin="miter" stroke="rgb(0%, 50%, 0%)" stroke-opacity="0.6" stroke-miterlimit="10" d="M 350 350 L 370.082031 279.949219 L 338.574219 321.320312 Z M 350 350 " transform="matrix(1, 0, 0, -1, 0, 700)"/>
<path fill="none" stroke-width="4" stroke-linecap="butt" stroke-linejoin="miter" stroke="rgb(0%, 0%, 0%)" stroke-opacity="1" stroke-miterlimit="10" d="M 375.871094 350 C 375.871094 335.710938 364.289062 324.128906 350 324.128906 C 335.710938 324.128906 324.128906 335.710938 324.128906 350 C 324.128906 364.289062 335.710938 375.871094 350 375.871094 C 364.289062 375.871094 375.871094 364.289062 375.871094 350 " transform="matrix(1, 0, 0, -1, 0, 700)"/>
<path fill-rule="nonzero" fill="rgb(0%, 0%, 0%)" fill-opacity="0.3" d="M 375.871094 350 C 375.871094 364.289062 364.289062 375.871094 350 375.871094 C 335.710938 375.871094 324.128906 364.289062 324.128906 350 C 324.128906 335.710938 335.710938 324.128906 350 324.128906 C 364.289062 324.128906 375.871094 335.710938 375.871094 350 "/>
<path fill="none" stroke-width="2" stroke-linecap="butt" stroke-linejoin="miter" stroke="rgb(69.999695%, 29.998779%, 9.999084%)" stroke-opacity="1" stroke-miterlimit="10" d="M 385.871094 350 C 385.871094 343.332031 375.871094 343.332031 375.871094 350 C 375.871094 356.667969 385.871094 356.667969 385.871094 350 " transform="matrix(1, 0, 0, -1, 0, 700)"/>
<path fill-rule="nonzero" fill="rgb(69.999695%, 29.998779%, 9.999084%)" fill-opacity="0.3" d="M 385.871094 350 C 385.871094 356.667969 375.871094 356.667969 375.871094 350 C 375.871094 343.332031 385.871094 343.332031 385.871094 350 "/>
<path fill="none" stroke-width="2" stroke-linecap="butt" stroke-linejoin="miter" stroke="rgb(81.999207%, 40.99884%, 10.998535%)" stroke-opacity="1" stroke-miterlimit="10" d="M 389.28125 337.007812 C 389.28125 332.589844 385.699219 329.007812 381.28125 329.007812 C 376.863281 329.007812 373.28125 332.589844 373.28125 337.007812 C 373.28125 341.425781 376.863281 345.007812 381.28125 345.007812 C 385.699219 345.007812 389.28125 341.425781 389.28125 337.007812 " transform="matrix(1, 0, 0, -1, 0, 700)"/>
<path fill-rule="nonzero" fill="rgb(81.999207%, 40.99884%, 10.998535%)" fill-opacity="0.3" d="M 389.28125 362.992188 C 389.28125 367.410156 385.699219 370.992188 381.28125 370.992188 C 376.863281 370.992188 373.28125 367.410156 373.28125 362.992188 C 373.28125 358.574219 376.863281 354.992188 381.28125 354.992188 C 385.699219 354.992188 389.28125 358.574219 389.28125 362.992188 "/>
<path fill="none" stroke-width="2" stroke-linecap="butt" stroke-linejoin="miter" stroke="rgb(100%, 53.999329%, 0%)" stroke-opacity="1" stroke-miterlimit="10" d="M 383.011719 320.421875 C 383.011719 314.34375 378.089844 309.421875 372.011719 309.421875 C 365.9375 309.421875 361.011719 314.34375 361.011719 320.421875 C 361.011719 326.496094 365.9375 331.421875 372.011719 331.421875 C 378.089844 331.421875 383.011719 326.496094 383.011719 320.421875 " transform="matrix(1, 0, 0, -1, 0, 700)"/>
<path fill-rule="nonzero" fill="rgb(100%, 53.999329%, 0%)" fill-opacity="0.3" d="M 383.011719 379.578125 C 383.011719 385.65625 378.089844 390.578125 372.011719 390.578125 C 365.9375 390.578125 361.011719 385.65625 361.011719 379.578125 C 361.011719 373.503906 365.9375 368.578125 372.011719 368.578125 C 378.089844 368.578125 383.011719 373.503906 383.011719 379.578125 "/>
<path fill="none" stroke-width="2" stroke-linecap="butt" stroke-linejoin="miter" stroke="rgb(100%, 6.999207%, 56.999207%)" stroke-opacity="1" stroke-miterlimit="10" d="M 363.226562 310.136719 C 363.226562 302.402344 356.957031 296.136719 349.226562 296.136719 C 341.496094 296.136719 335.226562 302.402344 335.226562 310.136719 C 335.226562 317.867188 341.496094 324.136719 349.226562 324.136719 C 356.957031 324.136719 363.226562 317.867188 363.226562 310.136719 " transform="matrix(1, 0, 0, -1, 0, 700)"/>
<path fill-rule="nonzero" fill="rgb(100%, 6.999207%, 56.999207%)" fill-opacity="0.3" d="M 363.226562 389.863281 C 363.226562 397.597656 356.957031 403.863281 349.226562 403.863281 C 341.496094 403.863281 335.226562 397.597656 335.226562 389.863281 C 335.226562 382.132812 341.496094 375.863281 349.226562 375.863281 C 356.957031 375.863281 363.226562 382.132812 363.226562 389.863281 "/>
<path fill="none" stroke-width="2" stroke-linecap="butt" stroke-linejoin="miter" stroke="rgb(0%, 0%, 50%)" stroke-opacity="1" stroke-miterlimit="10" d="M 336.722656 319.648438 C 336.722656 310.257812 329.109375 302.648438 319.722656 302.648438 C 310.332031 302.648438 302.722656 310.257812 302.722656 319.648438 C 302.722656 329.035156 310.332031 336.648438 319.722656 336.648438 C 329.109375 336.648438 336.722656 329.035156 336.722656 319.648438 " transform="matrix(1, 0, 0, -1, 0, 700)"/>
<path fill-rule="nonzero" fill="rgb(0%, 0%, 50%)" fill-opacity="0.3" d="M 336.722656 380.351562 C 336.722656 389.742188 329.109375 397.351562 319.722656 397.351562 C 310.332031 397.351562 302.722656 389.742188 302.722656 380.351562 C 302.722656 370.964844 310.332031 363.351562 319.722656 363.351562 C 329.109375 363.351562 336.722656 370.964844 336.722656 380.351562 "/>
<path fill="none" stroke-width="2" stroke-linecap="butt" stroke-linejoin="miter" stroke="rgb(0%, 50%, 50%)" stroke-opacity="1" stroke-miterlimit="10" d="M 324.242188 353.253906 C 324.242188 342.207031 315.289062 333.253906 304.242188 333.253906 C 293.199219 333.253906 284.242188 342.207031 284.242188 353.253906 C 284.242188 364.300781 293.199219 373.253906 304.242188 373.253906 C 315.289062 373.253906 324.242188 364.300781 324.242188 353.253906 " transform="matrix(1, 0, 0, -1, 0, 700)"/>
<path fill-rule="nonzero" fill="rgb(0%, 50%, 50%)" fill-opacity="0.3" d="M 324.242188 346.746094 C 324.242188 357.792969 315.289062 366.746094 304.242188 366.746094 C 293.199219 366.746094 284.242188 357.792969 284.242188 346.746094 C 284.242188 335.699219 293.199219 326.746094 304.242188 326.746094 C 315.289062 326.746094 324.242188 335.699219 324.242188 346.746094 "/>
<path fill="none" stroke-width="2" stroke-linecap="butt" stroke-linejoin="miter" stroke="rgb(50%, 0%, 50%)" stroke-opacity="1" stroke-miterlimit="10" d="M 347.054688 391.417969 C 347.054688 378.714844 336.757812 368.417969 324.054688 368.417969 C 311.355469 368.417969 301.054688 378.714844 301.054688 391.417969 C 301.054688 404.121094 311.355469 414.417969 324.054688 414.417969 C 336.757812 414.417969 347.054688 404.121094 347.054688 391.417969 " transform="matrix(1, 0, 0, -1, 0, 700)"/>
<path fill-rule="nonzero" fill="rgb(50%, 0%, 50%)" fill-opacity="0.3" d="M 347.054688 308.582031 C 347.054688 321.285156 336.757812 331.582031 324.054688 331.582031 C 311.355469 331.582031 301.054688 321.285156 301.054688 308.582031 C 301.054688 295.878906 311.355469 285.582031 324.054688 285.582031 C 336.757812 285.582031 347.054688 295.878906 347.054688 308.582031 "/>
<path fill="none" stroke-width="2" stroke-linecap="butt" stroke-linejoin="miter" stroke="rgb(0%, 50%, 0%)" stroke-opacity="1" stroke-miterlimit="10" d="M 398.78125 396.601562 C 398.78125 382.242188 387.140625 370.601562 372.78125 370.601562 C 358.421875 370.601562 346.78125 382.242188 346.78125 396.601562 C 346.78125 410.960938 358.421875 422.601562 372.78125 422.601562 C 387.140625 422.601562 398.78125 410.960938 398.78125 396.601562 " transform="matrix(1, 0, 0, -1, 0, 700)"/>
<path fill-rule="nonzero" fill="rgb(0%, 50%, 0%)" fill-opacity="0.3" d="M 398.78125 303.398438 C 398.78125 317.757812 387.140625 329.398438 372.78125 329.398438 C 358.421875 329.398438 346.78125 317.757812 346.78125 303.398438 C 346.78125 289.039062 358.421875 277.398438 372.78125 277.398438 C 387.140625 277.398438 398.78125 289.039062 398.78125 303.398438 "/>
<path fill="none" stroke-width="2" stroke-linecap="butt" stroke-linejoin="miter" stroke="rgb(50%, 0%, 0%)" stroke-opacity="1" stroke-miterlimit="10" d="M 433.839844 351.910156 C 433.839844 335.894531 420.855469 322.910156 404.839844 322.910156 C 388.824219 322.910156 375.839844 335.894531 375.839844 351.910156 C 375.839844 367.925781 388.824219 380.910156 404.839844 380.910156 C 420.855469 380.910156 433.839844 367.925781 433.839844 351.910156 " transform="matrix(1, 0, 0, -1, 0, 700)"/>
<path fill-rule="nonzero" fill="rgb(50%, 0%, 0%)" fill-opacity="0.3" d="M 433.839844 348.089844 C 433.839844 364.105469 420.855469 377.089844 404.839844 377.089844 C 388.824219 377.089844 375.839844 364.105469 375.839844 348.089844 C 375.839844 332.074219 388.824219 319.089844 404.839844 319.089844 C 420.855469 319.089844 433.839844 332.074219 433.839844 348.089844 "/>
<path fill="none" stroke-width="2" stroke-linecap="butt" stroke-linejoin="miter" stroke="rgb(100%, 0%, 100%)" stroke-opacity="1" stroke-miterlimit="10" d="M 407.867188 298.230469 C 407.867188 280.558594 393.539062 266.230469 375.867188 266.230469 C 358.191406 266.230469 343.867188 280.558594 343.867188 298.230469 C 343.867188 315.902344 358.191406 330.230469 375.867188 330.230469 C 393.539062 330.230469 407.867188 315.902344 407.867188 298.230469 " transform="matrix(1, 0, 0, -1, 0, 700)"/>
<path fill-rule="nonzero" fill="rgb(100%, 0%, 100%)" fill-opacity="0.3" d="M 407.867188 401.769531 C 407.867188 419.441406 393.539062 433.769531 375.867188 433.769531 C 358.191406 433.769531 343.867188 419.441406 343.867188 401.769531 C 343.867188 384.097656 358.191406 369.769531 375.867188 369.769531 C 393.539062 369.769531 407.867188 384.097656 407.867188 401.769531 "/>
<path fill="none" stroke-width="2" stroke-linecap="butt" stroke-linejoin="miter" stroke="rgb(0%, 100%, 100%)" stroke-opacity="1" stroke-miterlimit="10" d="M 344.191406 304.832031 C 344.191406 285.503906 328.523438 269.832031 309.191406 269.832031 C 289.863281 269.832031 274.191406 285.503906 274.191406 304.832031 C 274.191406 324.164062 289.863281 339.832031 309.191406 339.832031 C 328.523438 339.832031 344.191406 324.164062 344.191406 304.832031 " transform="matrix(1, 0, 0, -1, 0, 700)"/>
<path fill-rule="nonzero" fill="rgb(0%, 100%, 100%)" fill-opacity="0.3" d="M 344.191406 395.167969 C 344.191406 414.496094 328.523438 430.167969 309.191406 430.167969 C 289.863281 430.167969 274.191406 414.496094 274.191406 395.167969 C 274.191406 375.835938 289.863281 360.167969 309.191406 360.167969 C 328.523438 360.167969 344.191406 375.835938 344.191406 395.167969 "/>
<path fill="none" stroke-width="2" stroke-linecap="butt" stroke-linejoin="miter" stroke="rgb(100%, 100%, 0%)" stroke-opacity="1" stroke-miterlimit="10" d="M 329.507812 375.65625 C 329.507812 354.671875 312.496094 337.65625 291.507812 337.65625 C 270.519531 337.65625 253.507812 354.671875 253.507812 375.65625 C 253.507812 396.644531 270.519531 413.65625 291.507812 413.65625 C 312.496094 413.65625 329.507812 396.644531 329.507812 375.65625 " transform="matrix(1, 0, 0, -1, 0, 700)"/>
<path fill-rule="nonzero" fill="rgb(100%, 100%, 0%)" fill-opacity="0.3" d="M 329.507812 324.34375 C 329.507812 345.328125 312.496094 362.34375 291.507812 362.34375 C 270.519531 362.34375 253.507812 345.328125 253.507812 324.34375 C 253.507812 303.355469 270.519531 286.34375 291.507812 286.34375 C 312.496094 286.34375 329.507812 303.355469 329.507812 324.34375 "/>
<path fill="none" stroke-width="2" stroke-linecap="butt" stroke-linejoin="miter" stroke="rgb(0%, 0%, 100%)" stroke-opacity="1" stroke-miterlimit="10" d="M 400.296875 416.222656 C 400.296875 393.578125 381.941406 375.222656 359.296875 375.222656 C 336.65625 375.222656 318.296875 393.578125 318.296875 416.222656 C 318.296875 438.867188 336.65625 457.222656 359.296875 457.222656 C 381.941406 457.222656 400.296875 438.867188 400.296875 416.222656 " transform="matrix(1, 0, 0, -1, 0, 700)"/>
<path fill-rule="nonzero" fill="rgb(0%, 0%, 100%)" fill-opacity="0.3" d="M 400.296875 283.777344 C 400.296875 306.421875 381.941406 324.777344 359.296875 324.777344 C 336.65625 324.777344 318.296875 306.421875 318.296875 283.777344 C 318.296875 261.132812 336.65625 242.777344 359.296875 242.777344 C 381.941406 242.777344 400.296875 261.132812 400.296875 283.777344 "/>
<path fill="none" stroke-width="2" stroke-linecap="butt" stroke-linejoin="miter" stroke="rgb(0%, 100%, 0%)" stroke-opacity="1" stroke-miterlimit="10" d="M 463.585938 356.304688 C 463.585938 332.003906 443.886719 312.304688 419.585938 312.304688 C 395.285156 312.304688 375.585938 332.003906 375.585938 356.304688 C 375.585938 380.605469 395.285156 400.304688 419.585938 400.304688 C 443.886719 400.304688 463.585938 380.605469 463.585938 356.304688 " transform="matrix(1, 0, 0, -1, 0, 700)"/>
<path fill-rule="nonzero" fill="rgb(0%, 100%, 0%)" fill-opacity="0.3" d="M 463.585938 343.695312 C 463.585938 367.996094 443.886719 387.695312 419.585938 387.695312 C 395.285156 387.695312 375.585938 367.996094 375.585938 343.695312 C 375.585938 319.394531 395.285156 299.695312 419.585938 299.695312 C 443.886719 299.695312 463.585938 319.394531 463.585938 343.695312 "/>
<path fill="none" stroke-width="2" stroke-linecap="butt" stroke-linejoin="miter" stroke="rgb(100%, 0%, 0%)" stroke-opacity="1" stroke-miterlimit="10" d="M 417.082031 279.949219 C 417.082031 253.992188 396.039062 232.949219 370.082031 232.949219 C 344.121094 232.949219 323.082031 253.992188 323.082031 279.949219 C 323.082031 305.90625 344.121094 326.949219 370.082031 326.949219 C 396.039062 326.949219 417.082031 305.90625 417.082031 279.949219 " transform="matrix(1, 0, 0, -1, 0, 700)"/>
<path fill-rule="nonzero" fill="rgb(100%, 0%, 0%)" fill-opacity="0.3" d="M 417.082031 420.050781 C 417.082031 446.007812 396.039062 467.050781 370.082031 467.050781 C 344.121094 467.050781 323.082031 446.007812 323.082031 420.050781 C 323.082031 394.09375 344.121094 373.050781 370.082031 373.050781 C 396.039062 373.050781 417.082031 394.09375 417.082031 420.050781 "/>
<path fill="none" stroke-width="2" stroke-linecap="butt" stroke-linejoin="miter" stroke="rgb(0%, 0%, 29.998779%)" stroke-opacity="1" stroke-miterlimit="10" d="M 343.574219 321.320312 C 343.574219 314.652344 333.574219 314.652344 333.574219 321.320312 C 333.574219 327.984375 343.574219 327.984375 343.574219 321.320312 " transform="matrix(1, 0, 0, -1, 0, 700)"/>
<path fill-rule="nonzero" fill="rgb(0%, 0%, 29.998779%)" fill-opacity="0.3" d="M 343.574219 378.679688 C 343.574219 385.347656 333.574219 385.347656 333.574219 378.679688 C 333.574219 372.015625 343.574219 372.015625 343.574219 378.679688 "/>
</svg>
