<?xml version="1.0" encoding="UTF-8"?>
<svg xmlns="http://www.w3.org/2000/svg" xmlns:xlink="http://www.w3.org/1999/xlink" width="700" height="700" viewBox="0 0 700 700">
<path fill="none" stroke-width="2" stroke-linecap="butt" stroke-linejoin="miter" stroke="rgb(0%, 50%, 0%)" stroke-opacity="0.6" stroke-miterlimit="10" d="M 350 350 L 381.390625 350 Z M 350 350 " transform="matrix(1, 0, 0, -1, 0, 700)"/>
<path fill="none" stroke-width="2" stroke-linecap="butt" stroke-linejoin="miter" stroke="rgb(0%, 50%, 0%)" stroke-opacity="0.6" stroke-miterlimit="10" d="M 350 350 L 381.390625 350 L 381.839844 337.007812 Z M 350 350 " transform="matrix(1, 0, 0, -1, 0, 700)"/>
<path fill="none" stroke-width="2" stroke-linecap="butt" stroke-linejoin="miter" stroke="rgb(0%, 50%, 0%)" stroke-opacity="0.6" stroke-miterlimit="10" d="M 350 350 L 381.839844 337.007812 L 372.746094 320.324219 Z M 350 350 " transform="matrix(1, 0, 0, -1, 0, 700)"/>
<path fill="none" stroke-width="2" stroke-linecap="butt" stroke-linejoin="miter" stroke="rgb(0%, 50%, 0%)" stroke-opacity="0.6" stroke-miterlimit="10" d="M 350 350 L 372.746094 320.324219 L 350.160156 309.609375 Z M 350 350 " transform="matrix(1, 0, 0, -1, 0, 700)"/>
<path fill="none" stroke-width="2" stroke-linecap="butt" stroke-linejoin="miter" stroke="rgb(0%, 50%, 0%)" stroke-opacity="0.6" stroke-miterlimit="10" d="M 350 350 L 350.160156 309.609375 L 320.394531 318.277344 Z M 350 350 " transform="matrix(1, 0, 0, -1, 0, 700)"/>
<path fill="none" stroke-width="2" stroke-linecap="butt" stroke-linejoin="miter" stroke="rgb(0%, 50%, 0%)" stroke-opacity="0.6" stroke-miterlimit="10" d="M 350 350 L 320.394531 318.277344 L 303.628906 351.261719 Z M 350 350 " transform="matrix(1, 0, 0, -1, 0, 700)"/>
<path fill="none" stroke-width="2" stroke-linecap="butt" stroke-linejoin="miter" stroke="rgb(0%, 50%, 0%)" stroke-opacity="0.6" stroke-miterlimit="10" d="M 350 350 L 303.628906 351.261719 L 321.527344 390.359375 Z M 350 350 " transform="matrix(1, 0, 0, -1, 0, 700)"/>
<path fill="none" stroke-width="2" stroke-linecap="butt" stroke-linejoin="miter" stroke="rgb(0%, 50%, 0%)" stroke-opacity="0.6" stroke-miterlimit="10" d="M 350 350 L 321.527344 390.359375 L 369.851562 398.484375 Z M 350 350 " transform="matrix(1, 0, 0, -1, 0, 700)"/>
<path fill="none" stroke-width="2" stroke-linecap="butt" stroke-linejoin="miter" stroke="rgb(0%, 50%, 0%)" stroke-opacity="0.6" stroke-miterlimit="10" d="M 350 350 L 369.851562 398.484375 L 405.039062 356.214844 Z M 350 350 " transform="matrix(1, 0, 0, -1, 0, 700)"/>
<path fill="none" stroke-width="2" stroke-linecap="butt" stroke-linejoin="miter" stroke="rgb(0%, 50%, 0%)" stroke-opacity="0.6" stroke-miterlimit="10" d="M 350 350 L 405.039062 356.214844 L 380.652344 300.300781 Z M 350 350 " transform="matrix(1, 0, 0, -1, 0, 700)"/>
<path fill="none" stroke-width="2" stroke-linecap="butt" stroke-linejoin="miter" stroke="rgb(0%, 50%, 0%)" stroke-opacity="0.6" stroke-miterlimit="10" d="M 350 350 L 380.652344 300.300781 L 313.652344 300.527344 Z M 350 350 " transform="matrix(1, 0, 0, -1, 0, 700)"/>
<path fill="none" stroke-width="2" stroke-linecap="butt" stroke-linejoin="miter" stroke="rgb(0%, 50%, 0%)" stroke-opacity="0.6" stroke-miterlimit="10" d="M 350 350 L 313.652344 300.527344 L 288.496094 369.058594 Z M 350 350 " transform="matrix(1, 0, 0, -1, 0, 700)"/>
<path fill="none" stroke-width="2" stroke-linecap="butt" stroke-linejoin="miter" stroke="rgb(0%, 50%, 0%)" stroke-opacity="0.6" stroke-miterlimit="10" d="M 350 350 L 288.496094 369.058594 L 350.992188 417.382812 Z M 350 350 " transform="matrix(1, 0, 0, -1, 0, 700)"/>
<path fill="none" stroke-width="2" stroke-linecap="butt" stroke-linejoin="miter" stroke="rgb(0%, 50%, 0%)" stroke-opacity="0.6" stroke-miterlimit="10" d="M 350 350 L 350.992188 417.382812 L 418.582031 365.84375 Z M 350 350 " transform="matrix(1, 0, 0, -1, 0, 700)"/>
<path fill="none" stroke-width="2" stroke-linecap="butt" stroke-linejoin="miter" stroke="rgb(0%, 50%, 0%)" stroke-opacity="0.6" stroke-miterlimit="10" d="M 350 350 L 418.582031 365.84375 L 380.441406 283.222656 Z M 350 350 " transform="matrix(1, 0, 0, -1, 0, 700)"/>
<path fill="none" stroke-width="2" stroke-linecap="butt" stroke-linejoin="miter" stroke="rgb(0%, 50%, 0%)" stroke-opacity="0.6" stroke-miterlimit="10" d="M 350 350 L 380.441406 283.222656 L 343.074219 319.382812 Z M 350 350 " transform="matrix(1, 0, 0, -1, 0, 700)"/>
<path fill="none" stroke-width="4" stroke-linecap="butt" stroke-linejoin="miter" stroke="rgb(0%, 0%, 0%)" stroke-opacity="1" stroke-miterlimit="10" d="M 376.390625 350 C 376.390625 335.425781 364.574219 323.609375 350 323.609375 C 335.425781 323.609375 323.609375 335.425781 323.609375 350 C 323.609375 364.574219 335.425781 376.390625 350 376.390625 C 364.574219 376.390625 376.390625 364.574219 376.390625 350 " transform="matrix(1, 0, 0, -1, 0, 700)"/>
<path fill-rule="nonzero" fill="rgb(0%, 0%, 0%)" fill-opacity="0.3" d="M 376.390625 350 C 376.390625 364.574219 364.574219 376.390625 350 376.390625 C 335.425781 376.390625 323.609375 364.574219 323.609375 350 C 323.609375 335.425781 335.425781 323.609375 350 323.609375 C 364.574219 323.609375 376.390625 335.425781 376.390625 350 "/>
<path fill="none" stroke-width="2" stroke-linecap="butt" stroke-linejoin="miter" stroke="rgb(69.999695%, 29.998779%, 9.999084%)" stroke-opacity="1" stroke-miterlimit="10" d="M 386.390625 350 C 386.390625 343.332031 376.390625 343.332031 376.390625 350 C 376.390625 356.667969 386.390625 356.667969 386.390625 350 " transform="matrix(1, 0, 0, -1, 0, 700)"/>
<path fill-rule="nonzero" fill="rgb(69.999695%, 29.998779%, 9.999084%)" fill-opacity="0.3" d="M 386.390625 350 C 386.390625 356.667969 376.390625 356.667969 376.390625 350 C 376.390625 343.332031 386.390625 343.332031 386.390625 350 "/>
<path fill="none" stroke-width="2" stroke-linecap="butt" stroke-linejoin="miter" stroke="rgb(81.999207%, 40.99884%, 10.998535%)" stroke-opacity="1" stroke-miterlimit="10" d="M 389.839844 337.007812 C 389.839844 332.589844 386.257812 329.007812 381.839844 329.007812 C 377.421875 329.007812 373.839844 332.589844 373.839844 337.007812 C 373.839844 341.425781 377.421875 345.007812 381.839844 345.007812 C 386.257812 345.007812 389.839844 341.425781 389.839844 337.007812 " transform="matrix(1, 0, 0, -1, 0, 700)"/>
<path fill-rule="nonzero" fill="rgb(81.999207%, 40.99884%, 10.998535%)" fill-opacity="0.3" d="M 389.839844 362.992188 C 389.839844 367.410156 386.257812 370.992188 381.839844 370.992188 C 377.421875 370.992188 373.839844 367.410156 373.839844 362.992188 C 373.839844 358.574219 377.421875 354.992188 381.839844 354.992188 C 386.257812 354.992188 389.839844 358.574219 389.839844 362.992188 "/>
<path fill="none" stroke-width="2" stroke-linecap="butt" stroke-linejoin="miter" stroke="rgb(100%, 53.999329%, 0%)" stroke-opacity="1" stroke-miterlimit="10" d="M 383.746094 320.324219 C 383.746094 314.25 378.820312 309.324219 372.746094 309.324219 C 366.671875 309.324219 361.746094 314.25 361.746094 320.324219 C 361.746094 326.402344 366.671875 331.324219 372.746094 331.324219 C 378.820312 331.324219 383.746094 326.402344 383.746094 320.324219 " transform="matrix(1, 0, 0, -1, 0, 700)"/>
<path fill-rule="nonzero" fill="rgb(100%, 53.999329%, 0%)" fill-opacity="0.3" d="M 383.746094 379.675781 C 383.746094 385.75 378.820312 390.675781 372.746094 390.675781 C 366.671875 390.675781 361.746094 385.75 361.746094 379.675781 C 361.746094 373.597656 366.671875 368.675781 372.746094 368.675781 C 378.820312 368.675781 383.746094 373.597656 383.746094 379.675781 "/>
<path fill="none" stroke-width="2" stroke-linecap="butt" stroke-linejoin="miter" stroke="rgb(100%, 6.999207%, 56.999207%)" stroke-opacity="1" stroke-miterlimit="10" d="M 364.160156 309.609375 C 364.160156 301.878906 357.890625 295.609375 350.160156 295.609375 C 342.425781 295.609375 336.160156 301.878906 336.160156 309.609375 C 336.160156 317.34375 342.425781 323.609375 350.160156 323.609375 C 357.890625 323.609375 364.160156 317.34375 364.160156 309.609375 " transform="matrix(1, 0, 0, -1, 0, 700)"/>
<path fill-rule="nonzero" fill="rgb(100%, 6.999207%, 56.999207%)" fill-opacity="0.3" d="M 364.160156 390.390625 C 364.160156 398.121094 357.890625 404.390625 350.160156 404.390625 C 342.425781 404.390625 336.160156 398.121094 336.160156 390.390625 C 336.160156 382.65625 342.425781 376.390625 350.160156 376.390625 C 357.890625 376.390625 364.160156 382.65625 364.160156 390.390625 "/>
<path fill="none" stroke-width="2" stroke-linecap="butt" stroke-linejoin="miter" stroke="rgb(0%, 0%, 50%)" stroke-opacity="1" stroke-miterlimit="10" d="M 337.394531 318.277344 C 337.394531 308.890625 329.785156 301.277344 320.394531 301.277344 C 311.007812 301.277344 303.394531 308.890625 303.394531 318.277344 C 303.394531 327.667969 311.007812 335.277344 320.394531 335.277344 C 329.785156 335.277344 337.394531 327.667969 337.394531 318.277344 " transform="matrix(1, 0, 0, -1, 0, 700)"/>
<path fill-rule="nonzero" fill="rgb(0%, 0%, 50%)" fill-opacity="0.3" d="M 337.394531 381.722656 C 337.394531 391.109375 329.785156 398.722656 320.394531 398.722656 C 311.007812 398.722656 303.394531 391.109375 303.394531 381.722656 C 303.394531 372.332031 311.007812 364.722656 320.394531 364.722656 C 329.785156 364.722656 337.394531 372.332031 337.394531 381.722656 "/>
<path fill="none" stroke-width="2" stroke-linecap="butt" stroke-linejoin="miter" stroke="rgb(0%, 50%, 50%)" stroke-opacity="1" stroke-miterlimit="10" d="M 323.628906 351.261719 C 323.628906 340.214844 314.671875 331.261719 303.628906 331.261719 C 292.582031 331.261719 283.628906 340.214844 283.628906 351.261719 C 283.628906 362.304688 292.582031 371.261719 303.628906 371.261719 C 314.671875 371.261719 323.628906 362.304688 323.628906 351.261719 " transform="matrix(1, 0, 0, -1, 0, 700)"/>
<path fill-rule="nonzero" fill="rgb(0%, 50%, 50%)" fill-opacity="0.3" d="M 323.628906 348.738281 C 323.628906 359.785156 314.671875 368.738281 303.628906 368.738281 C 292.582031 368.738281 283.628906 359.785156 283.628906 348.738281 C 283.628906 337.695312 292.582031 328.738281 303.628906 328.738281 C 314.671875 328.738281 323.628906 337.695312 323.628906 348.738281 "/>
<path fill="none" stroke-width="2" stroke-linecap="butt" stroke-linejoin="miter" stroke="rgb(50%, 0%, 50%)" stroke-opacity="1" stroke-miterlimit="10" d="M 344.527344 390.359375 C 344.527344 377.65625 334.230469 367.359375 321.527344 367.359375 C 308.828125 367.359375 298.527344 377.65625 298.527344 390.359375 C 298.527344 403.058594 308.828125 413.359375 321.527344 413.359375 C 334.230469 413.359375 344.527344 403.058594 344.527344 390.359375 " transform="matrix(1, 0, 0, -1, 0, 700)"/>
<path fill-rule="nonzero" fill="rgb(50%, 0%, 50%)" fill-opacity="0.3" d="M 344.527344 309.640625 C 344.527344 322.34375 334.230469 332.640625 321.527344 332.640625 C 308.828125 332.640625 298.527344 322.34375 298.527344 309.640625 C 298.527344 296.941406 308.828125 286.640625 321.527344 286.640625 C 334.230469 286.640625 344.527344 296.941406 344.527344 309.640625 "/>
<path fill="none" stroke-width="2" stroke-linecap="butt" stroke-linejoin="miter" stroke="rgb(0%, 50%, 0%)" stroke-opacity="1" stroke-miterlimit="10" d="M 395.851562 398.484375 C 395.851562 384.125 384.210938 372.484375 369.851562 372.484375 C 355.492188 372.484375 343.851562 384.125 343.851562 398.484375 C 343.851562 412.84375 355.492188 424.484375 369.851562 424.484375 C 384.210938 424.484375 395.851562 412.84375 395.851562 398.484375 " transform="matrix(1, 0, 0, -1, 0, 700)"/>
<path fill-rule="nonzero" fill="rgb(0%, 50%, 0%)" fill-opacity="0.3" d="M 395.851562 301.515625 C 395.851562 315.875 384.210938 327.515625 369.851562 327.515625 C 355.492188 327.515625 343.851562 315.875 343.851562 301.515625 C 343.851562 287.15625 355.492188 275.515625 369.851562 275.515625 C 384.210938 275.515625 395.851562 287.15625 395.851562 301.515625 "/>
<path fill="none" stroke-width="2" stroke-linecap="butt" stroke-linejoin="miter" stroke="rgb(50%, 0%, 0%)" stroke-opacity="1" stroke-miterlimit="10" d="M 434.039062 356.214844 C 434.039062 340.199219 421.054688 327.214844 405.039062 327.214844 C 389.023438 327.214844 376.039062 340.199219 376.039062 356.214844 C 376.039062 372.230469 389.023438 385.214844 405.039062 385.214844 C 421.054688 385.214844 434.039062 372.230469 434.039062 356.214844 " transform="matrix(1, 0, 0, -1, 0, 700)"/>
<path fill-rule="nonzero" fill="rgb(50%, 0%, 0%)" fill-opacity="0.3" d="M 434.039062 343.785156 C 434.039062 359.800781 421.054688 372.785156 405.039062 372.785156 C 389.023438 372.785156 376.039062 359.800781 376.039062 343.785156 C 376.039062 327.769531 389.023438 314.785156 405.039062 314.785156 C 421.054688 314.785156 434.039062 327.769531 434.039062 343.785156 "/>
<path fill="none" stroke-width="2" stroke-linecap="butt" stroke-linejoin="miter" stroke="rgb(100%, 0%, 100%)" stroke-opacity="1" stroke-miterlimit="10" d="M 412.652344 300.300781 C 412.652344 282.628906 398.324219 268.300781 380.652344 268.300781 C 362.976562 268.300781 348.652344 282.628906 348.652344 300.300781 C 348.652344 317.976562 362.976562 332.300781 380.652344 332.300781 C 398.324219 332.300781 412.652344 317.976562 412.652344 300.300781 " transform="matrix(1, 0, 0, -1, 0, 700)"/>
<path fill-rule="nonzero" fill="rgb(100%, 0%, 100%)" fill-opacity="0.3" d="M 412.652344 399.699219 C 412.652344 417.371094 398.324219 431.699219 380.652344 431.699219 C 362.976562 431.699219 348.652344 417.371094 348.652344 399.699219 C 348.652344 382.023438 362.976562 367.699219 380.652344 367.699219 C 398.324219 367.699219 412.652344 382.023438 412.652344 399.699219 "/>
<path fill="none" stroke-width="2" stroke-linecap="butt" stroke-linejoin="miter" stroke="rgb(0%, 100%, 100%)" stroke-opacity="1" stroke-miterlimit="10" d="M 348.652344 300.527344 C 348.652344 281.199219 332.980469 265.527344 313.652344 265.527344 C 294.320312 265.527344 278.652344 281.199219 278.652344 300.527344 C 278.652344 319.859375 294.320312 335.527344 313.652344 335.527344 C 332.980469 335.527344 348.652344 319.859375 348.652344 300.527344 " transform="matrix(1, 0, 0, -1, 0, 700)"/>
<path fill-rule="nonzero" fill="rgb(0%, 100%, 100%)" fill-opacity="0.3" d="M 348.652344 399.472656 C 348.652344 418.800781 332.980469 434.472656 313.652344 434.472656 C 294.320312 434.472656 278.652344 418.800781 278.652344 399.472656 C 278.652344 380.140625 294.320312 364.472656 313.652344 364.472656 C 332.980469 364.472656 348.652344 380.140625 348.652344 399.472656 "/>
<path fill="none" stroke-width="2" stroke-linecap="butt" stroke-linejoin="miter" stroke="rgb(100%, 100%, 0%)" stroke-opacity="1" stroke-miterlimit="10" d="M 326.496094 369.058594 C 326.496094 348.070312 309.480469 331.058594 288.496094 331.058594 C 267.507812 331.058594 250.496094 348.070312 250.496094 369.058594 C 250.496094 390.042969 267.507812 407.058594 288.496094 407.058594 C 309.480469 407.058594 326.496094 390.042969 326.496094 369.058594 " transform="matrix(1, 0, 0, -1, 0, 700)"/>
<path fill-rule="nonzero" fill="rgb(100%, 100%, 0%)" fill-opacity="0.3" d="M 326.496094 330.941406 C 326.496094 351.929688 309.480469 368.941406 288.496094 368.941406 C 267.507812 368.941406 250.496094 351.929688 250.496094 330.941406 C 250.496094 309.957031 267.507812 292.941406 288.496094 292.941406 C 309.480469 292.941406 326.496094 309.957031 326.496094 330.941406 "/>
<path fill="none" stroke-width="2" stroke-linecap="butt" stroke-linejoin="miter" stroke="rgb(0%, 0%, 100%)" stroke-opacity="1" stroke-miterlimit="10" d="M 391.992188 417.382812 C 391.992188 394.738281 373.632812 376.382812 350.992188 376.382812 C 328.347656 376.382812 309.992188 394.738281 309.992188 417.382812 C 309.992188 440.027344 328.347656 458.382812 350.992188 458.382812 C 373.632812 458.382812 391.992188 440.027344 391.992188 417.382812 " transform="matrix(1, 0, 0, -1, 0, 700)"/>
<path fill-rule="nonzero" fill="rgb(0%, 0%, 100%)" fill-opacity="0.3" d="M 391.992188 282.617188 C 391.992188 305.261719 373.632812 323.617188 350.992188 323.617188 C 328.347656 323.617188 309.992188 305.261719 309.992188 282.617188 C 309.992188 259.972656 328.347656 241.617188 350.992188 241.617188 C 373.632812 241.617188 391.992188 259.972656 391.992188 282.617188 "/>
<path fill="none" stroke-width="2" stroke-linecap="butt" stroke-linejoin="miter" stroke="rgb(0%, 100%, 0%)" stroke-opacity="1" stroke-miterlimit="10" d="M 462.582031 365.84375 C 462.582031 341.542969 442.882812 321.84375 418.582031 321.84375 C 394.28125 321.84375 374.582031 341.542969 374.582031 365.84375 C 374.582031 390.144531 394.28125 409.84375 418.582031 409.84375 C 442.882812 409.84375 462.582031 390.144531 462.582031 365.84375 " transform="matrix(1, 0, 0, -1, 0, 700)"/>
<path fill-rule="nonzero" fill="rgb(0%, 100%, 0%)" fill-opacity="0.3" d="M 462.582031 334.15625 C 462.582031 358.457031 442.882812 378.15625 418.582031 378.15625 C 394.28125 378.15625 374.582031 358.457031 374.582031 334.15625 C 374.582031 309.855469 394.28125 290.15625 418.582031 290.15625 C 442.882812 290.15625 462.582031 309.855469 462.582031 334.15625 "/>
<path fill="none" stroke-width="2" stroke-linecap="butt" stroke-linejoin="miter" stroke="rgb(100%, 0%, 0%)" stroke-opacity="1" stroke-miterlimit="10" d="M 427.441406 283.222656 C 427.441406 257.265625 406.398438 236.222656 380.441406 236.222656 C 354.484375 236.222656 333.441406 257.265625 333.441406 283.222656 C 333.441406 309.179688 354.484375 330.222656 380.441406 330.222656 C 406.398438 330.222656 427.441406 309.179688 427.441406 283.222656 " transform="matrix(1, 0, 0, -1, 0, 700)"/>
<path fill-rule="nonzero" fill="rgb(100%, 0%, 0%)" fill-opacity="0.3" d="M 427.441406 416.777344 C 427.441406 442.734375 406.398438 463.777344 380.441406 463.777344 C 354.484375 463.777344 333.441406 442.734375 333.441406 416.777344 C 333.441406 390.820312 354.484375 369.777344 380.441406 369.777344 C 406.398438 369.777344 427.441406 390.820312 427.441406 416.777344 "/>
<path fill="none" stroke-width="2" stroke-linecap="butt" stroke-linejoin="miter" stroke="rgb(0%, 0%, 29.998779%)" stroke-opacity="1" stroke-miterlimit="10" d="M 348.074219 319.382812 C 348.074219 312.71875 338.074219 312.71875 338.074219 319.382812 C 338.074219 326.050781 348.074219 326.050781 348.074219 319.382812 " transform="matrix(1, 0, 0, -1, 0, 700)"/>
<path fill-rule="nonzero" fill="rgb(0%, 0%, 29.998779%)" fill-opacity="0.3" d="M 348.074219 380.617188 C 348.074219 387.28125 338.074219 387.28125 338.074219 380.617188 C 338.074219 373.949219 348.074219 373.949219 348.074219 380.617188 "/>
</svg>
