<?xml version="1.0" encoding="UTF-8"?>
<svg xmlns="http://www.w3.org/2000/svg" xmlns:xlink="http://www.w3.org/1999/xlink" width="700" height="700" viewBox="0 0 700 700">
<path fill="none" stroke-width="2" stroke-linecap="butt" stroke-linejoin="miter" stroke="rgb(0%, 50%, 0%)" stroke-opacity="0.6" stroke-miterlimit="10" d="M 350 350 L 381.917969 350 Z M 350 350 " transform="matrix(1, 0, 0, -1, 0, 700)"/>
<path fill="none" stroke-width="2" stroke-linecap="butt" stroke-linejoin="miter" stroke="rgb(0%, 50%, 0%)" stroke-opacity="0.6" stroke-miterlimit="10" d="M 350 350 L 381.917969 350 L 382.410156 337.007812 Z M 350 350 " transform="matrix(1, 0, 0, -1, 0, 700)"/>
<path fill="none" stroke-width="2" stroke-linecap="butt" stroke-linejoin="miter" stroke="rgb(0%, 50%, 0%)" stroke-opacity="0.6" stroke-miterlimit="10" d="M 350 350 L 382.410156 337.007812 L 373.488281 320.234375 Z M 350 350 " transform="matrix(1, 0, 0, -1, 0, 700)"/>
<path fill="none" stroke-width="2" stroke-linecap="butt" stroke-linejoin="miter" stroke="rgb(0%, 50%, 0%)" stroke-opacity="0.6" stroke-miterlimit="10" d="M 350 350 L 373.488281 320.234375 L 351.105469 309.097656 Z M 350 350 " transform="matrix(1, 0, 0, -1, 0, 700)"/>
<path fill="none" stroke-width="2" stroke-linecap="butt" stroke-linejoin="miter" stroke="rgb(0%, 50%, 0%)" stroke-opacity="0.6" stroke-miterlimit="10" d="M 350 350 L 351.105469 309.097656 L 321.109375 316.921875 Z M 350 350 " transform="matrix(1, 0, 0, -1, 0, 700)"/>
<path fill="none" stroke-width="2" stroke-linecap="butt" stroke-linejoin="miter" stroke="rgb(0%, 50%, 0%)" stroke-opacity="0.6" stroke-miterlimit="10" d="M 350 350 L 321.109375 316.921875 L 303.089844 349.238281 Z M 350 350 " transform="matrix(1, 0, 0, -1, 0, 700)"/>
<path fill="none" stroke-width="2" stroke-linecap="butt" stroke-linejoin="miter" stroke="rgb(0%, 50%, 0%)" stroke-opacity="0.6" stroke-miterlimit="10" d="M 350 350 L 303.089844 349.238281 L 319.050781 389.164062 Z M 350 350 " transform="matrix(1, 0, 0, -1, 0, 700)"/>
<path fill="none" stroke-width="2" stroke-linecap="butt" stroke-linejoin="miter" stroke="rgb(0%, 50%, 0%)" stroke-opacity="0.6" stroke-miterlimit="10" d="M 350 350 L 319.050781 389.164062 L 366.796875 400.179688 Z M 350 350 " transform="matrix(1, 0, 0, -1, 0, 700)"/>
<path fill="none" stroke-width="2" stroke-linecap="butt" stroke-linejoin="miter" stroke="rgb(0%, 50%, 0%)" stroke-opacity="0.6" stroke-miterlimit="10" d="M 350 350 L 366.796875 400.179688 L 404.917969 360.535156 Z M 350 350 " transform="matrix(1, 0, 0, -1, 0, 700)"/>
<path fill="none" stroke-width="2" stroke-linecap="butt" stroke-linejoin="miter" stroke="rgb(0%, 50%, 0%)" stroke-opacity="0.6" stroke-miterlimit="10" d="M 350 350 L 404.917969 360.535156 L 385.25 302.792969 Z M 350 350 " transform="matrix(1, 0, 0, -1, 0, 700)"/>
<path fill="none" stroke-width="2" stroke-linecap="butt" stroke-linejoin="miter" stroke="rgb(0%, 50%, 0%)" stroke-opacity="0.6" stroke-miterlimit="10" d="M 350 350 L 385.25 302.792969 L 318.53125 296.675781 Z M 350 350 " transform="matrix(1, 0, 0, -1, 0, 700)"/>
<path fill="none" stroke-width="2" stroke-linecap="butt" stroke-linejoin="miter" stroke="rgb(0%, 50%, 0%)" stroke-opacity="0.6" stroke-miterlimit="10" d="M 350 350 L 318.53125 296.675781 L 286.226562 362.140625 Z M 350 350 " transform="matrix(1, 0, 0, -1, 0, 700)"/>
<path fill="none" stroke-width="2" stroke-linecap="butt" stroke-linejoin="miter" stroke="rgb(0%, 50%, 0%)" stroke-opacity="0.6" stroke-miterlimit="10" d="M 350 350 L 286.226562 362.140625 L 342.578125 417.511719 Z M 350 350 " transform="matrix(1, 0, 0, -1, 0, 700)"/>
<path fill="none" stroke-width="2" stroke-linecap="butt" stroke-linejoin="miter" stroke="rgb(0%, 50%, 0%)" stroke-opacity="0.6" stroke-miterlimit="10" d="M 350 350 L 342.578125 417.511719 L 416.292969 375.191406 Z M 350 350 " transform="matrix(1, 0, 0, -1, 0, 700)"/>
<path fill="none" stroke-width="2" stroke-linecap="butt" stroke-linejoin="miter" stroke="rgb(0%, 50%, 0%)" stroke-opacity="0.6" stroke-miterlimit="10" d="M 350 350 L 416.292969 375.191406 L 390.242188 288 Z M 350 350 " transform="matrix(1, 0, 0, -1, 0, 700)"/>
<path fill="none" stroke-width="2" stroke-linecap="butt" stroke-linejoin="miter" stroke="rgb(0%, 50%, 0%)" stroke-opacity="0.6" stroke-miterlimit="10" d="M 350 350 L 390.242188 288 L 347.878906 318.152344 Z M 350 350 " transform="matrix(1, 0, 0, -1, 0, 700)"/>
<path fill="none" stroke-width="4" stroke-linecap="butt" stroke-linejoin="miter" stroke="rgb(0%, 0%, 0%)" stroke-opacity="1" stroke-miterlimit="10" d="M 376.917969 350 C 376.917969 335.132812 364.867188 323.082031 350 323.082031 C 335.132812 323.082031 323.082031 335.132812 323.082031 350 C 323.082031 364.867188 335.132812 376.917969 350 376.917969 C 364.867188 376.917969 376.917969 364.867188 376.917969 350 " transform="matrix(1, 0, 0, -1, 0, 700)"/>
<path fill-rule="nonzero" fill="rgb(0%, 0%, 0%)" fill-opacity="0.3" d="M 376.917969 350 C 376.917969 364.867188 364.867188 376.917969 350 376.917969 C 335.132812 376.917969 323.082031 364.867188 323.082031 350 C 323.082031 335.132812 335.132812 323.082031 350 323.082031 C 364.867188 323.082031 376.917969 335.132812 376.917969 350 "/>
<path fill="none" stroke-width="2" stroke-linecap="butt" stroke-linejoin="miter" stroke="rgb(69.999695%, 29.998779%, 9.999084%)" stroke-opacity="1" stroke-miterlimit="10" d="M 386.917969 350 C 386.917969 343.332031 376.917969 343.332031 376.917969 350 C 376.917969 356.667969 386.917969 356.667969 386.917969 350 " transform="matrix(1, 0, 0, -1, 0, 700)"/>
<path fill-rule="nonzero" fill="rgb(69.999695%, 29.998779%, 9.999084%)" fill-opacity="0.3" d="M 386.917969 350 C 386.917969 356.667969 376.917969 356.667969 376.917969 350 C 376.917969 343.332031 386.917969 343.332031 386.917969 350 "/>
<path fill="none" stroke-width="2" stroke-linecap="butt" stroke-linejoin="miter" stroke="rgb(81.999207%, 40.99884%, 10.998535%)" stroke-opacity="1" stroke-miterlimit="10" d="M 390.410156 337.007812 C 390.410156 332.589844 386.828125 329.007812 382.410156 329.007812 C 377.992188 329.007812 374.410156 332.589844 374.410156 337.007812 C 374.410156 341.425781 377.992188 345.007812 382.410156 345.007812 C 386.828125 345.007812 390.410156 341.425781 390.410156 337.007812 " transform="matrix(1, 0, 0, -1, 0, 700)"/>
<path fill-rule="nonzero" fill="rgb(81.999207%, 40.99884%, 10.998535%)" fill-opacity="0.3" d="M 390.410156 362.992188 C 390.410156 367.410156 386.828125 370.992188 382.410156 370.992188 C 377.992188 370.992188 374.410156 367.410156 374.410156 362.992188 C 374.410156 358.574219 377.992188 354.992188 382.410156 354.992188 C 386.828125 354.992188 390.410156 358.574219 390.410156 362.992188 "/>
<path fill="none" stroke-width="2" stroke-linecap="butt" stroke-linejoin="miter" stroke="rgb(100%, 53.999329%, 0%)" stroke-opacity="1" stroke-miterlimit="10" d="M 384.488281 320.234375 C 384.488281 314.160156 379.5625 309.234375 373.488281 309.234375 C 367.414062 309.234375 362.488281 314.160156 362.488281 320.234375 C 362.488281 326.308594 367.414062 331.234375 373.488281 331.234375 C 379.5625 331.234375 384.488281 326.308594 384.488281 320.234375 " transform="matrix(1, 0, 0, -1, 0, 700)"/>
<path fill-rule="nonzero" fill="rgb(100%, 53.999329%, 0%)" fill-opacity="0.3" d="M 384.488281 379.765625 C 384.488281 385.839844 379.5625 390.765625 373.488281 390.765625 C 367.414062 390.765625 362.488281 385.839844 362.488281 379.765625 C 362.488281 373.691406 367.414062 368.765625 373.488281 368.765625 C 379.5625 368.765625 384.488281 373.691406 384.488281 379.765625 "/>
<path fill="none" stroke-width="2" stroke-linecap="butt" stroke-linejoin="miter" stroke="rgb(100%, 6.999207%, 56.999207%)" stroke-opacity="1" stroke-miterlimit="10" d="M 365.105469 309.097656 C 365.105469 301.367188 358.839844 295.097656 351.105469 295.097656 C 343.375 295.097656 337.105469 301.367188 337.105469 309.097656 C 337.105469 316.828125 343.375 323.097656 351.105469 323.097656 C 358.839844 323.097656 365.105469 316.828125 365.105469 309.097656 " transform="matrix(1, 0, 0, -1, 0, 700)"/>
<path fill-rule="nonzero" fill="rgb(100%, 6.999207%, 56.999207%)" fill-opacity="0.3" d="M 365.105469 390.902344 C 365.105469 398.632812 358.839844 404.902344 351.105469 404.902344 C 343.375 404.902344 337.105469 398.632812 337.105469 390.902344 C 337.105469 383.171875 343.375 376.902344 351.105469 376.902344 C 358.839844 376.902344 365.105469 383.171875 365.105469 390.902344 "/>
<path fill="none" stroke-width="2" stroke-linecap="butt" stroke-linejoin="miter" stroke="rgb(0%, 0%, 50%)" stroke-opacity="1" stroke-miterlimit="10" d="M 338.109375 316.921875 C 338.109375 307.535156 330.5 299.921875 321.109375 299.921875 C 311.722656 299.921875 304.109375 307.535156 304.109375 316.921875 C 304.109375 326.3125 311.722656 333.921875 321.109375 333.921875 C 330.5 333.921875 338.109375 326.3125 338.109375 316.921875 " transform="matrix(1, 0, 0, -1, 0, 700)"/>
<path fill-rule="nonzero" fill="rgb(0%, 0%, 50%)" fill-opacity="0.3" d="M 338.109375 383.078125 C 338.109375 392.464844 330.5 400.078125 321.109375 400.078125 C 311.722656 400.078125 304.109375 392.464844 304.109375 383.078125 C 304.109375 373.6875 311.722656 366.078125 321.109375 366.078125 C 330.5 366.078125 338.109375 373.6875 338.109375 383.078125 "/>
<path fill="none" stroke-width="2" stroke-linecap="butt" stroke-linejoin="miter" stroke="rgb(0%, 50%, 50%)" stroke-opacity="1" stroke-miterlimit="10" d="M 323.089844 349.238281 C 323.089844 338.191406 314.132812 329.238281 303.089844 329.238281 C 292.042969 329.238281 283.089844 338.191406 283.089844 349.238281 C 283.089844 360.28125 292.042969 369.238281 303.089844 369.238281 C 314.132812 369.238281 323.089844 360.28125 323.089844 349.238281 " transform="matrix(1, 0, 0, -1, 0, 700)"/>
<path fill-rule="nonzero" fill="rgb(0%, 50%, 50%)" fill-opacity="0.3" d="M 323.089844 350.761719 C 323.089844 361.808594 314.132812 370.761719 303.089844 370.761719 C 292.042969 370.761719 283.089844 361.808594 283.089844 350.761719 C 283.089844 339.71875 292.042969 330.761719 303.089844 330.761719 C 314.132812 330.761719 323.089844 339.71875 323.089844 350.761719 "/>
<path fill="none" stroke-width="2" stroke-linecap="butt" stroke-linejoin="miter" stroke="rgb(50%, 0%, 50%)" stroke-opacity="1" stroke-miterlimit="10" d="M 342.050781 389.164062 C 342.050781 376.460938 331.753906 366.164062 319.050781 366.164062 C 306.347656 366.164062 296.050781 376.460938 296.050781 389.164062 C 296.050781 401.867188 306.347656 412.164062 319.050781 412.164062 C 331.753906 412.164062 342.050781 401.867188 342.050781 389.164062 " transform="matrix(1, 0, 0, -1, 0, 700)"/>
<path fill-rule="nonzero" fill="rgb(50%, 0%, 50%)" fill-opacity="0.3" d="M 342.050781 310.835938 C 342.050781 323.539062 331.753906 333.835938 319.050781 333.835938 C 306.347656 333.835938 296.050781 323.539062 296.050781 310.835938 C 296.050781 298.132812 306.347656 287.835938 319.050781 287.835938 C 331.753906 287.835938 342.050781 298.132812 342.050781 310.835938 "/>
<path fill="none" stroke-width="2" stroke-linecap="butt" stroke-linejoin="miter" stroke="rgb(0%, 50%, 0%)" stroke-opacity="1" stroke-miterlimit="10" d="M 392.796875 400.179688 C 392.796875 385.820312 381.15625 374.179688 366.796875 374.179688 C 352.4375 374.179688 340.796875 385.820312 340.796875 400.179688 C 340.796875 414.539062 352.4375 426.179688 366.796875 426.179688 C 381.15625 426.179688 392.796875 414.539062 392.796875 400.179688 " transform="matrix(1, 0, 0, -1, 0, 700)"/>
<path fill-rule="nonzero" fill="rgb(0%, 50%, 0%)" fill-opacity="0.3" d="M 392.796875 299.820312 C 392.796875 314.179688 381.15625 325.820312 366.796875 325.820312 C 352.4375 325.820312 340.796875 314.179688 340.796875 299.820312 C 340.796875 285.460938 352.4375 273.820312 366.796875 273.820312 C 381.15625 273.820312 392.796875 285.460938 392.796875 299.820312 "/>
<path fill="none" stroke-width="2" stroke-linecap="butt" stroke-linejoin="miter" stroke="rgb(50%, 0%, 0%)" stroke-opacity="1" stroke-miterlimit="10" d="M 433.917969 360.535156 C 433.917969 344.519531 420.933594 331.535156 404.917969 331.535156 C 388.898438 331.535156 375.917969 344.519531 375.917969 360.535156 C 375.917969 376.550781 388.898438 389.535156 404.917969 389.535156 C 420.933594 389.535156 433.917969 376.550781 433.917969 360.535156 " transform="matrix(1, 0, 0, -1, 0, 700)"/>
<path fill-rule="nonzero" fill="rgb(50%, 0%, 0%)" fill-opacity="0.3" d="M 433.917969 339.464844 C 433.917969 355.480469 420.933594 368.464844 404.917969 368.464844 C 388.898438 368.464844 375.917969 355.480469 375.917969 339.464844 C 375.917969 323.449219 388.898438 310.464844 404.917969 310.464844 C 420.933594 310.464844 433.917969 323.449219 433.917969 339.464844 "/>
<path fill="none" stroke-width="2" stroke-linecap="butt" stroke-linejoin="miter" stroke="rgb(100%, 0%, 100%)" stroke-opacity="1" stroke-miterlimit="10" d="M 417.25 302.792969 C 417.25 285.117188 402.921875 270.792969 385.25 270.792969 C 367.578125 270.792969 353.25 285.117188 353.25 302.792969 C 353.25 320.464844 367.578125 334.792969 385.25 334.792969 C 402.921875 334.792969 417.25 320.464844 417.25 302.792969 " transform="matrix(1, 0, 0, -1, 0, 700)"/>
<path fill-rule="nonzero" fill="rgb(100%, 0%, 100%)" fill-opacity="0.3" d="M 417.25 397.207031 C 417.25 414.882812 402.921875 429.207031 385.25 429.207031 C 367.578125 429.207031 353.25 414.882812 353.25 397.207031 C 353.25 379.535156 367.578125 365.207031 385.25 365.207031 C 402.921875 365.207031 417.25 379.535156 417.25 397.207031 "/>
<path fill="none" stroke-width="2" stroke-linecap="butt" stroke-linejoin="miter" stroke="rgb(0%, 100%, 100%)" stroke-opacity="1" stroke-miterlimit="10" d="M 353.53125 296.675781 C 353.53125 277.347656 337.859375 261.675781 318.53125 261.675781 C 299.199219 261.675781 283.53125 277.347656 283.53125 296.675781 C 283.53125 316.007812 299.199219 331.675781 318.53125 331.675781 C 337.859375 331.675781 353.53125 316.007812 353.53125 296.675781 " transform="matrix(1, 0, 0, -1, 0, 700)"/>
<path fill-rule="nonzero" fill="rgb(0%, 100%, 100%)" fill-opacity="0.3" d="M 353.53125 403.324219 C 353.53125 422.652344 337.859375 438.324219 318.53125 438.324219 C 299.199219 438.324219 283.53125 422.652344 283.53125 403.324219 C 283.53125 383.992188 299.199219 368.324219 318.53125 368.324219 C 337.859375 368.324219 353.53125 383.992188 353.53125 403.324219 "/>
<path fill="none" stroke-width="2" stroke-linecap="butt" stroke-linejoin="miter" stroke="rgb(100%, 100%, 0%)" stroke-opacity="1" stroke-miterlimit="10" d="M 324.226562 362.140625 C 324.226562 341.152344 307.214844 324.140625 286.226562 324.140625 C 265.242188 324.140625 248.226562 341.152344 248.226562 362.140625 C 248.226562 383.128906 265.242188 400.140625 286.226562 400.140625 C 307.214844 400.140625 324.226562 383.128906 324.226562 362.140625 " transform="matrix(1, 0, 0, -1, 0, 700)"/>
<path fill-rule="nonzero" fill="rgb(100%, 100%, 0%)" fill-opacity="0.3" d="M 324.226562 337.859375 C 324.226562 358.847656 307.214844 375.859375 286.226562 375.859375 C 265.242188 375.859375 248.226562 358.847656 248.226562 337.859375 C 248.226562 316.871094 265.242188 299.859375 286.226562 299.859375 C 307.214844 299.859375 324.226562 316.871094 324.226562 337.859375 "/>
<path fill="none" stroke-width="2" stroke-linecap="butt" stroke-linejoin="miter" stroke="rgb(0%, 0%, 100%)" stroke-opacity="1" stroke-miterlimit="10" d="M 383.578125 417.511719 C 383.578125 394.867188 365.21875 376.511719 342.578125 376.511719 C 319.933594 376.511719 301.578125 394.867188 301.578125 417.511719 C 301.578125 440.152344 319.933594 458.511719 342.578125 458.511719 C 365.21875 458.511719 383.578125 440.152344 383.578125 417.511719 " transform="matrix(1, 0, 0, -1, 0, 700)"/>
<path fill-rule="nonzero" fill="rgb(0%, 0%, 100%)" fill-opacity="0.3" d="M 383.578125 282.488281 C 383.578125 305.132812 365.21875 323.488281 342.578125 323.488281 C 319.933594 323.488281 301.578125 305.132812 301.578125 282.488281 C 301.578125 259.847656 319.933594 241.488281 342.578125 241.488281 C 365.21875 241.488281 383.578125 259.847656 383.578125 282.488281 "/>
<path fill="none" stroke-width="2" stroke-linecap="butt" stroke-linejoin="miter" stroke="rgb(0%, 100%, 0%)" stroke-opacity="1" stroke-miterlimit="10" d="M 460.292969 375.191406 C 460.292969 350.890625 440.59375 331.191406 416.292969 331.191406 C 391.992188 331.191406 372.292969 350.890625 372.292969 375.191406 C 372.292969 399.492188 391.992188 419.191406 416.292969 419.191406 C 440.59375 419.191406 460.292969 399.492188 460.292969 375.191406 " transform="matrix(1, 0, 0, -1, 0, 700)"/>
<path fill-rule="nonzero" fill="rgb(0%, 100%, 0%)" fill-opacity="0.3" d="M 460.292969 324.808594 C 460.292969 349.109375 440.59375 368.808594 416.292969 368.808594 C 391.992188 368.808594 372.292969 349.109375 372.292969 324.808594 C 372.292969 300.507812 391.992188 280.808594 416.292969 280.808594 C 440.59375 280.808594 460.292969 300.507812 460.292969 324.808594 "/>
<path fill="none" stroke-width="2" stroke-linecap="butt" stroke-linejoin="miter" stroke="rgb(100%, 0%, 0%)" stroke-opacity="1" stroke-miterlimit="10" d="M 437.242188 288 C 437.242188 262.042969 416.203125 241 390.242188 241 C 364.285156 241 343.242188 262.042969 343.242188 288 C 343.242188 313.957031 364.285156 335 390.242188 335 C 416.203125 335 437.242188 313.957031 437.242188 288 " transform="matrix(1, 0, 0, -1, 0, 700)"/>
<path fill-rule="nonzero" fill="rgb(100%, 0%, 0%)" fill-opacity="0.3" d="M 437.242188 412 C 437.242188 437.957031 416.203125 459 390.242188 459 C 364.285156 459 343.242188 437.957031 343.242188 412 C 343.242188 386.042969 364.285156 365 390.242188 365 C 416.203125 365 437.242188 386.042969 437.242188 412 "/>
<path fill="none" stroke-width="2" stroke-linecap="butt" stroke-linejoin="miter" stroke="rgb(0%, 0%, 29.998779%)" stroke-opacity="1" stroke-miterlimit="10" d="M 352.878906 318.152344 C 352.878906 311.488281 342.878906 311.488281 342.878906 318.152344 C 342.878906 324.820312 352.878906 324.820312 352.878906 318.152344 " transform="matrix(1, 0, 0, -1, 0, 700)"/>
<path fill-rule="nonzero" fill="rgb(0%, 0%, 29.998779%)" fill-opacity="0.3" d="M 352.878906 381.847656 C 352.878906 388.511719 342.878906 388.511719 342.878906 381.847656 C 342.878906 375.179688 352.878906 375.179688 352.878906 381.847656 "/>
</svg>
