<?xml version="1.0" encoding="UTF-8"?>
<svg xmlns="http://www.w3.org/2000/svg" xmlns:xlink="http://www.w3.org/1999/xlink" width="700" height="700" viewBox="0 0 700 700">
<path fill="none" stroke-width="2" stroke-linecap="butt" stroke-linejoin="miter" stroke="rgb(0%, 50%, 0%)" stroke-opacity="0.6" stroke-miterlimit="10" d="M 350 350 L 382.457031 350 Z M 350 350 " transform="matrix(1, 0, 0, -1, 0, 700)"/>
<path fill="none" stroke-width="2" stroke-linecap="butt" stroke-linejoin="miter" stroke="rgb(0%, 50%, 0%)" stroke-opacity="0.6" stroke-miterlimit="10" d="M 350 350 L 382.457031 350 L 382.992188 337.011719 Z M 350 350 " transform="matrix(1, 0, 0, -1, 0, 700)"/>
<path fill="none" stroke-width="2" stroke-linecap="butt" stroke-linejoin="miter" stroke="rgb(0%, 50%, 0%)" stroke-opacity="0.6" stroke-miterlimit="10" d="M 350 350 L 382.992188 337.011719 L 374.238281 320.144531 Z M 350 350 " transform="matrix(1, 0, 0, -1, 0, 700)"/>
<path fill="none" stroke-width="2" stroke-linecap="butt" stroke-linejoin="miter" stroke="rgb(0%, 50%, 0%)" stroke-opacity="0.6" stroke-miterlimit="10" d="M 350 350 L 374.238281 320.144531 L 352.066406 308.597656 Z M 350 350 " transform="matrix(1, 0, 0, -1, 0, 700)"/>
<path fill="none" stroke-width="2" stroke-linecap="butt" stroke-linejoin="miter" stroke="rgb(0%, 50%, 0%)" stroke-opacity="0.6" stroke-miterlimit="10" d="M 350 350 L 352.066406 308.597656 L 321.863281 315.578125 Z M 350 350 " transform="matrix(1, 0, 0, -1, 0, 700)"/>
<path fill="none" stroke-width="2" stroke-linecap="butt" stroke-linejoin="miter" stroke="rgb(0%, 50%, 0%)" stroke-opacity="0.6" stroke-miterlimit="10" d="M 350 350 L 321.863281 315.578125 L 302.628906 347.1875 Z M 350 350 " transform="matrix(1, 0, 0, -1, 0, 700)"/>
<path fill="none" stroke-width="2" stroke-linecap="butt" stroke-linejoin="miter" stroke="rgb(0%, 50%, 0%)" stroke-opacity="0.6" stroke-miterlimit="10" d="M 350 350 L 302.628906 347.1875 L 316.628906 387.84375 Z M 350 350 " transform="matrix(1, 0, 0, -1, 0, 700)"/>
<path fill="none" stroke-width="2" stroke-linecap="butt" stroke-linejoin="miter" stroke="rgb(0%, 50%, 0%)" stroke-opacity="0.6" stroke-miterlimit="10" d="M 350 350 L 316.628906 387.84375 L 363.632812 401.6875 Z M 350 350 " transform="matrix(1, 0, 0, -1, 0, 700)"/>
<path fill="none" stroke-width="2" stroke-linecap="butt" stroke-linejoin="miter" stroke="rgb(0%, 50%, 0%)" stroke-opacity="0.6" stroke-miterlimit="10" d="M 350 350 L 363.632812 401.6875 L 404.46875 364.847656 Z M 350 350 " transform="matrix(1, 0, 0, -1, 0, 700)"/>
<path fill="none" stroke-width="2" stroke-linecap="butt" stroke-linejoin="miter" stroke="rgb(0%, 50%, 0%)" stroke-opacity="0.6" stroke-miterlimit="10" d="M 350 350 L 404.46875 364.847656 L 389.632812 305.679688 Z M 350 350 " transform="matrix(1, 0, 0, -1, 0, 700)"/>
<path fill="none" stroke-width="2" stroke-linecap="butt" stroke-linejoin="miter" stroke="rgb(0%, 50%, 0%)" stroke-opacity="0.6" stroke-miterlimit="10" d="M 350 350 L 389.632812 305.679688 L 323.78125 293.3125 Z M 350 350 " transform="matrix(1, 0, 0, -1, 0, 700)"/>
<path fill="none" stroke-width="2" stroke-linecap="butt" stroke-linejoin="miter" stroke="rgb(0%, 50%, 0%)" stroke-opacity="0.6" stroke-miterlimit="10" d="M 350 350 L 323.78125 293.3125 L 284.734375 354.992188 Z M 350 350 " transform="matrix(1, 0, 0, -1, 0, 700)"/>
<path fill="none" stroke-width="2" stroke-linecap="butt" stroke-linejoin="miter" stroke="rgb(0%, 50%, 0%)" stroke-opacity="0.6" stroke-miterlimit="10" d="M 350 350 L 284.734375 354.992188 L 334.183594 416.601562 Z M 350 350 " transform="matrix(1, 0, 0, -1, 0, 700)"/>
<path fill="none" stroke-width="2" stroke-linecap="butt" stroke-linejoin="miter" stroke="rgb(0%, 50%, 0%)" stroke-opacity="0.6" stroke-miterlimit="10" d="M 350 350 L 334.183594 416.601562 L 412.753906 384.175781 Z M 350 350 " transform="matrix(1, 0, 0, -1, 0, 700)"/>
<path fill="none" stroke-width="2" stroke-linecap="butt" stroke-linejoin="miter" stroke="rgb(0%, 50%, 0%)" stroke-opacity="0.6" stroke-miterlimit="10" d="M 350 350 L 412.753906 384.175781 L 399.269531 294.179688 Z M 350 350 " transform="matrix(1, 0, 0, -1, 0, 700)"/>
<path fill="none" stroke-width="2" stroke-linecap="butt" stroke-linejoin="miter" stroke="rgb(0%, 50%, 0%)" stroke-opacity="0.6" stroke-miterlimit="10" d="M 350 350 L 399.269531 294.179688 L 352.878906 317.671875 Z M 350 350 " transform="matrix(1, 0, 0, -1, 0, 700)"/>
<path fill="none" stroke-width="4" stroke-linecap="butt" stroke-linejoin="miter" stroke="rgb(0%, 0%, 0%)" stroke-opacity="1" stroke-miterlimit="10" d="M 377.457031 350 C 377.457031 334.835938 365.164062 322.542969 350 322.542969 C 334.835938 322.542969 322.542969 334.835938 322.542969 350 C 322.542969 365.164062 334.835938 377.457031 350 377.457031 C 365.164062 377.457031 377.457031 365.164062 377.457031 350 " transform="matrix(1, 0, 0, -1, 0, 700)"/>
<path fill-rule="nonzero" fill="rgb(0%, 0%, 0%)" fill-opacity="0.3" d="M 377.457031 350 C 377.457031 365.164062 365.164062 377.457031 350 377.457031 C 334.835938 377.457031 322.542969 365.164062 322.542969 350 C 322.542969 334.835938 334.835938 322.542969 350 322.542969 C 365.164062 322.542969 377.457031 334.835938 377.457031 350 "/>
<path fill="none" stroke-width="2" stroke-linecap="butt" stroke-linejoin="miter" stroke="rgb(69.999695%, 29.998779%, 9.999084%)" stroke-opacity="1" stroke-miterlimit="10" d="M 387.457031 350 C 387.457031 343.332031 377.457031 343.332031 377.457031 350 C 377.457031 356.667969 387.457031 356.667969 387.457031 350 " transform="matrix(1, 0, 0, -1, 0, 700)"/>
<path fill-rule="nonzero" fill="rgb(69.999695%, 29.998779%, 9.999084%)" fill-opacity="0.3" d="M 387.457031 350 C 387.457031 356.667969 377.457031 356.667969 377.457031 350 C 377.457031 343.332031 387.457031 343.332031 387.457031 350 "/>
<path fill="none" stroke-width="2" stroke-linecap="butt" stroke-linejoin="miter" stroke="rgb(81.999207%, 40.99884%, 10.998535%)" stroke-opacity="1" stroke-miterlimit="10" d="M 390.992188 337.011719 C 390.992188 332.59375 387.410156 329.011719 382.992188 329.011719 C 378.574219 329.011719 374.992188 332.59375 374.992188 337.011719 C 374.992188 341.429688 378.574219 345.011719 382.992188 345.011719 C 387.410156 345.011719 390.992188 341.429688 390.992188 337.011719 " transform="matrix(1, 0, 0, -1, 0, 700)"/>
<path fill-rule="nonzero" fill="rgb(81.999207%, 40.99884%, 10.998535%)" fill-opacity="0.3" d="M 390.992188 362.988281 C 390.992188 367.40625 387.410156 370.988281 382.992188 370.988281 C 378.574219 370.988281 374.992188 367.40625 374.992188 362.988281 C 374.992188 358.570312 378.574219 354.988281 382.992188 354.988281 C 387.410156 354.988281 390.992188 358.570312 390.992188 362.988281 "/>
<path fill="none" stroke-width="2" stroke-linecap="butt" stroke-linejoin="miter" stroke="rgb(100%, 53.999329%, 0%)" stroke-opacity="1" stroke-miterlimit="10" d="M 385.238281 320.144531 C 385.238281 314.070312 380.316406 309.144531 374.238281 309.144531 C 368.164062 309.144531 363.238281 314.070312 363.238281 320.144531 C 363.238281 326.222656 368.164062 331.144531 374.238281 331.144531 C 380.316406 331.144531 385.238281 326.222656 385.238281 320.144531 " transform="matrix(1, 0, 0, -1, 0, 700)"/>
<path fill-rule="nonzero" fill="rgb(100%, 53.999329%, 0%)" fill-opacity="0.3" d="M 385.238281 379.855469 C 385.238281 385.929688 380.316406 390.855469 374.238281 390.855469 C 368.164062 390.855469 363.238281 385.929688 363.238281 379.855469 C 363.238281 373.777344 368.164062 368.855469 374.238281 368.855469 C 380.316406 368.855469 385.238281 373.777344 385.238281 379.855469 "/>
<path fill="none" stroke-width="2" stroke-linecap="butt" stroke-linejoin="miter" stroke="rgb(100%, 6.999207%, 56.999207%)" stroke-opacity="1" stroke-miterlimit="10" d="M 366.066406 308.597656 C 366.066406 300.863281 359.800781 294.597656 352.066406 294.597656 C 344.335938 294.597656 338.066406 300.863281 338.066406 308.597656 C 338.066406 316.328125 344.335938 322.597656 352.066406 322.597656 C 359.800781 322.597656 366.066406 316.328125 366.066406 308.597656 " transform="matrix(1, 0, 0, -1, 0, 700)"/>
<path fill-rule="nonzero" fill="rgb(100%, 6.999207%, 56.999207%)" fill-opacity="0.3" d="M 366.066406 391.402344 C 366.066406 399.136719 359.800781 405.402344 352.066406 405.402344 C 344.335938 405.402344 338.066406 399.136719 338.066406 391.402344 C 338.066406 383.671875 344.335938 377.402344 352.066406 377.402344 C 359.800781 377.402344 366.066406 383.671875 366.066406 391.402344 "/>
<path fill="none" stroke-width="2" stroke-linecap="butt" stroke-linejoin="miter" stroke="rgb(0%, 0%, 50%)" stroke-opacity="1" stroke-miterlimit="10" d="M 338.863281 315.578125 C 338.863281 306.191406 331.253906 298.578125 321.863281 298.578125 C 312.476562 298.578125 304.863281 306.191406 304.863281 315.578125 C 304.863281 324.96875 312.476562 332.578125 321.863281 332.578125 C 331.253906 332.578125 338.863281 324.96875 338.863281 315.578125 " transform="matrix(1, 0, 0, -1, 0, 700)"/>
<path fill-rule="nonzero" fill="rgb(0%, 0%, 50%)" fill-opacity="0.3" d="M 338.863281 384.421875 C 338.863281 393.808594 331.253906 401.421875 321.863281 401.421875 C 312.476562 401.421875 304.863281 393.808594 304.863281 384.421875 C 304.863281 375.03125 312.476562 367.421875 321.863281 367.421875 C 331.253906 367.421875 338.863281 375.03125 338.863281 384.421875 "/>
<path fill="none" stroke-width="2" stroke-linecap="butt" stroke-linejoin="miter" stroke="rgb(0%, 50%, 50%)" stroke-opacity="1" stroke-miterlimit="10" d="M 322.628906 347.1875 C 322.628906 336.140625 313.671875 327.1875 302.628906 327.1875 C 291.582031 327.1875 282.628906 336.140625 282.628906 347.1875 C 282.628906 358.230469 291.582031 367.1875 302.628906 367.1875 C 313.671875 367.1875 322.628906 358.230469 322.628906 347.1875 " transform="matrix(1, 0, 0, -1, 0, 700)"/>
<path fill-rule="nonzero" fill="rgb(0%, 50%, 50%)" fill-opacity="0.3" d="M 322.628906 352.8125 C 322.628906 363.859375 313.671875 372.8125 302.628906 372.8125 C 291.582031 372.8125 282.628906 363.859375 282.628906 352.8125 C 282.628906 341.769531 291.582031 332.8125 302.628906 332.8125 C 313.671875 332.8125 322.628906 341.769531 322.628906 352.8125 "/>
<path fill="none" stroke-width="2" stroke-linecap="butt" stroke-linejoin="miter" stroke="rgb(50%, 0%, 50%)" stroke-opacity="1" stroke-miterlimit="10" d="M 339.628906 387.84375 C 339.628906 375.140625 329.332031 364.84375 316.628906 364.84375 C 303.925781 364.84375 293.628906 375.140625 293.628906 387.84375 C 293.628906 400.546875 303.925781 410.84375 316.628906 410.84375 C 329.332031 410.84375 339.628906 400.546875 339.628906 387.84375 " transform="matrix(1, 0, 0, -1, 0, 700)"/>
<path fill-rule="nonzero" fill="rgb(50%, 0%, 50%)" fill-opacity="0.3" d="M 339.628906 312.15625 C 339.628906 324.859375 329.332031 335.15625 316.628906 335.15625 C 303.925781 335.15625 293.628906 324.859375 293.628906 312.15625 C 293.628906 299.453125 303.925781 289.15625 316.628906 289.15625 C 329.332031 289.15625 339.628906 299.453125 339.628906 312.15625 "/>
<path fill="none" stroke-width="2" stroke-linecap="butt" stroke-linejoin="miter" stroke="rgb(0%, 50%, 0%)" stroke-opacity="1" stroke-miterlimit="10" d="M 389.632812 401.6875 C 389.632812 387.328125 377.992188 375.6875 363.632812 375.6875 C 349.269531 375.6875 337.632812 387.328125 337.632812 401.6875 C 337.632812 416.046875 349.269531 427.6875 363.632812 427.6875 C 377.992188 427.6875 389.632812 416.046875 389.632812 401.6875 " transform="matrix(1, 0, 0, -1, 0, 700)"/>
<path fill-rule="nonzero" fill="rgb(0%, 50%, 0%)" fill-opacity="0.3" d="M 389.632812 298.3125 C 389.632812 312.671875 377.992188 324.3125 363.632812 324.3125 C 349.269531 324.3125 337.632812 312.671875 337.632812 298.3125 C 337.632812 283.953125 349.269531 272.3125 363.632812 272.3125 C 377.992188 272.3125 389.632812 283.953125 389.632812 298.3125 "/>
<path fill="none" stroke-width="2" stroke-linecap="butt" stroke-linejoin="miter" stroke="rgb(50%, 0%, 0%)" stroke-opacity="1" stroke-miterlimit="10" d="M 433.46875 364.847656 C 433.46875 348.832031 420.484375 335.847656 404.46875 335.847656 C 388.453125 335.847656 375.46875 348.832031 375.46875 364.847656 C 375.46875 380.863281 388.453125 393.847656 404.46875 393.847656 C 420.484375 393.847656 433.46875 380.863281 433.46875 364.847656 " transform="matrix(1, 0, 0, -1, 0, 700)"/>
<path fill-rule="nonzero" fill="rgb(50%, 0%, 0%)" fill-opacity="0.3" d="M 433.46875 335.152344 C 433.46875 351.167969 420.484375 364.152344 404.46875 364.152344 C 388.453125 364.152344 375.46875 351.167969 375.46875 335.152344 C 375.46875 319.136719 388.453125 306.152344 404.46875 306.152344 C 420.484375 306.152344 433.46875 319.136719 433.46875 335.152344 "/>
<path fill="none" stroke-width="2" stroke-linecap="butt" stroke-linejoin="miter" stroke="rgb(100%, 0%, 100%)" stroke-opacity="1" stroke-miterlimit="10" d="M 421.632812 305.679688 C 421.632812 288.007812 407.304688 273.679688 389.632812 273.679688 C 371.957031 273.679688 357.632812 288.007812 357.632812 305.679688 C 357.632812 323.351562 371.957031 337.679688 389.632812 337.679688 C 407.304688 337.679688 421.632812 323.351562 421.632812 305.679688 " transform="matrix(1, 0, 0, -1, 0, 700)"/>
<path fill-rule="nonzero" fill="rgb(100%, 0%, 100%)" fill-opacity="0.3" d="M 421.632812 394.320312 C 421.632812 411.992188 407.304688 426.320312 389.632812 426.320312 C 371.957031 426.320312 357.632812 411.992188 357.632812 394.320312 C 357.632812 376.648438 371.957031 362.320312 389.632812 362.320312 C 407.304688 362.320312 421.632812 376.648438 421.632812 394.320312 "/>
<path fill="none" stroke-width="2" stroke-linecap="butt" stroke-linejoin="miter" stroke="rgb(0%, 100%, 100%)" stroke-opacity="1" stroke-miterlimit="10" d="M 358.78125 293.3125 C 358.78125 273.984375 343.113281 258.3125 323.78125 258.3125 C 304.453125 258.3125 288.78125 273.984375 288.78125 293.3125 C 288.78125 312.644531 304.453125 328.3125 323.78125 328.3125 C 343.113281 328.3125 358.78125 312.644531 358.78125 293.3125 " transform="matrix(1, 0, 0, -1, 0, 700)"/>
<path fill-rule="nonzero" fill="rgb(0%, 100%, 100%)" fill-opacity="0.3" d="M 358.78125 406.6875 C 358.78125 426.015625 343.113281 441.6875 323.78125 441.6875 C 304.453125 441.6875 288.78125 426.015625 288.78125 406.6875 C 288.78125 387.355469 304.453125 371.6875 323.78125 371.6875 C 343.113281 371.6875 358.78125 387.355469 358.78125 406.6875 "/>
<path fill="none" stroke-width="2" stroke-linecap="butt" stroke-linejoin="miter" stroke="rgb(100%, 100%, 0%)" stroke-opacity="1" stroke-miterlimit="10" d="M 322.734375 354.992188 C 322.734375 334.007812 305.722656 316.992188 284.734375 316.992188 C 263.75 316.992188 246.734375 334.007812 246.734375 354.992188 C 246.734375 375.980469 263.75 392.992188 284.734375 392.992188 C 305.722656 392.992188 322.734375 375.980469 322.734375 354.992188 " transform="matrix(1, 0, 0, -1, 0, 700)"/>
<path fill-rule="nonzero" fill="rgb(100%, 100%, 0%)" fill-opacity="0.3" d="M 322.734375 345.007812 C 322.734375 365.992188 305.722656 383.007812 284.734375 383.007812 C 263.75 383.007812 246.734375 365.992188 246.734375 345.007812 C 246.734375 324.019531 263.75 307.007812 284.734375 307.007812 C 305.722656 307.007812 322.734375 324.019531 322.734375 345.007812 "/>
<path fill="none" stroke-width="2" stroke-linecap="butt" stroke-linejoin="miter" stroke="rgb(0%, 0%, 100%)" stroke-opacity="1" stroke-miterlimit="10" d="M 375.183594 416.601562 C 375.183594 393.960938 356.828125 375.601562 334.183594 375.601562 C 311.539062 375.601562 293.183594 393.960938 293.183594 416.601562 C 293.183594 439.246094 311.539062 457.601562 334.183594 457.601562 C 356.828125 457.601562 375.183594 439.246094 375.183594 416.601562 " transform="matrix(1, 0, 0, -1, 0, 700)"/>
<path fill-rule="nonzero" fill="rgb(0%, 0%, 100%)" fill-opacity="0.3" d="M 375.183594 283.398438 C 375.183594 306.039062 356.828125 324.398438 334.183594 324.398438 C 311.539062 324.398438 293.183594 306.039062 293.183594 283.398438 C 293.183594 260.753906 311.539062 242.398438 334.183594 242.398438 C 356.828125 242.398438 375.183594 260.753906 375.183594 283.398438 "/>
<path fill="none" stroke-width="2" stroke-linecap="butt" stroke-linejoin="miter" stroke="rgb(0%, 100%, 0%)" stroke-opacity="1" stroke-miterlimit="10" d="M 456.753906 384.175781 C 456.753906 359.875 437.054688 340.175781 412.753906 340.175781 C 388.453125 340.175781 368.753906 359.875 368.753906 384.175781 C 368.753906 408.476562 388.453125 428.175781 412.753906 428.175781 C 437.054688 428.175781 456.753906 408.476562 456.753906 384.175781 " transform="matrix(1, 0, 0, -1, 0, 700)"/>
<path fill-rule="nonzero" fill="rgb(0%, 100%, 0%)" fill-opacity="0.3" d="M 456.753906 315.824219 C 456.753906 340.125 437.054688 359.824219 412.753906 359.824219 C 388.453125 359.824219 368.753906 340.125 368.753906 315.824219 C 368.753906 291.523438 388.453125 271.824219 412.753906 271.824219 C 437.054688 271.824219 456.753906 291.523438 456.753906 315.824219 "/>
<path fill="none" stroke-width="2" stroke-linecap="butt" stroke-linejoin="miter" stroke="rgb(100%, 0%, 0%)" stroke-opacity="1" stroke-miterlimit="10" d="M 446.269531 294.179688 C 446.269531 268.222656 425.226562 247.179688 399.269531 247.179688 C 373.3125 247.179688 352.269531 268.222656 352.269531 294.179688 C 352.269531 320.136719 373.3125 341.179688 399.269531 341.179688 C 425.226562 341.179688 446.269531 320.136719 446.269531 294.179688 " transform="matrix(1, 0, 0, -1, 0, 700)"/>
<path fill-rule="nonzero" fill="rgb(100%, 0%, 0%)" fill-opacity="0.3" d="M 446.269531 405.820312 C 446.269531 431.777344 425.226562 452.820312 399.269531 452.820312 C 373.3125 452.820312 352.269531 431.777344 352.269531 405.820312 C 352.269531 379.863281 373.3125 358.820312 399.269531 358.820312 C 425.226562 358.820312 446.269531 379.863281 446.269531 405.820312 "/>
<path fill="none" stroke-width="2" stroke-linecap="butt" stroke-linejoin="miter" stroke="rgb(0%, 0%, 29.998779%)" stroke-opacity="1" stroke-miterlimit="10" d="M 357.878906 317.671875 C 357.878906 311.003906 347.878906 311.003906 347.878906 317.671875 C 347.878906 324.339844 357.878906 324.339844 357.878906 317.671875 " transform="matrix(1, 0, 0, -1, 0, 700)"/>
<path fill-rule="nonzero" fill="rgb(0%, 0%, 29.998779%)" fill-opacity="0.3" d="M 357.878906 382.328125 C 357.878906 388.996094 347.878906 388.996094 347.878906 382.328125 C 347.878906 375.660156 357.878906 375.660156 357.878906 382.328125 "/>
</svg>
