<?xml version="1.0" encoding="UTF-8"?>
<svg xmlns="http://www.w3.org/2000/svg" xmlns:xlink="http://www.w3.org/1999/xlink" width="700" height="700" viewBox="0 0 700 700">
<path fill="none" stroke-width="2" stroke-linecap="butt" stroke-linejoin="miter" stroke="rgb(0%, 50%, 0%)" stroke-opacity="0.6" stroke-miterlimit="10" d="M 350 350 L 383.003906 350 Z M 350 350 " transform="matrix(1, 0, 0, -1, 0, 700)"/>
<path fill="none" stroke-width="2" stroke-linecap="butt" stroke-linejoin="miter" stroke="rgb(0%, 50%, 0%)" stroke-opacity="0.6" stroke-miterlimit="10" d="M 350 350 L 383.003906 350 L 383.582031 337.011719 Z M 350 350 " transform="matrix(1, 0, 0, -1, 0, 700)"/>
<path fill="none" stroke-width="2" stroke-linecap="butt" stroke-linejoin="miter" stroke="rgb(0%, 50%, 0%)" stroke-opacity="0.6" stroke-miterlimit="10" d="M 350 350 L 383.582031 337.011719 L 375 320.0625 Z M 350 350 " transform="matrix(1, 0, 0, -1, 0, 700)"/>
<path fill="none" stroke-width="2" stroke-linecap="butt" stroke-linejoin="miter" stroke="rgb(0%, 50%, 0%)" stroke-opacity="0.6" stroke-miterlimit="10" d="M 350 350 L 375 320.0625 L 353.042969 308.105469 Z M 350 350 " transform="matrix(1, 0, 0, -1, 0, 700)"/>
<path fill="none" stroke-width="2" stroke-linecap="butt" stroke-linejoin="miter" stroke="rgb(0%, 50%, 0%)" stroke-opacity="0.6" stroke-miterlimit="10" d="M 350 350 L 353.042969 308.105469 L 322.660156 314.25 Z M 350 350 " transform="matrix(1, 0, 0, -1, 0, 700)"/>
<path fill="none" stroke-width="2" stroke-linecap="butt" stroke-linejoin="miter" stroke="rgb(0%, 50%, 0%)" stroke-opacity="0.6" stroke-miterlimit="10" d="M 350 350 L 322.660156 314.25 L 302.246094 345.109375 Z M 350 350 " transform="matrix(1, 0, 0, -1, 0, 700)"/>
<path fill="none" stroke-width="2" stroke-linecap="butt" stroke-linejoin="miter" stroke="rgb(0%, 50%, 0%)" stroke-opacity="0.6" stroke-miterlimit="10" d="M 350 350 L 302.246094 345.109375 L 314.265625 386.394531 Z M 350 350 " transform="matrix(1, 0, 0, -1, 0, 700)"/>
<path fill="none" stroke-width="2" stroke-linecap="butt" stroke-linejoin="miter" stroke="rgb(0%, 50%, 0%)" stroke-opacity="0.6" stroke-miterlimit="10" d="M 350 350 L 314.265625 386.394531 L 360.367188 403 Z M 350 350 " transform="matrix(1, 0, 0, -1, 0, 700)"/>
<path fill="none" stroke-width="2" stroke-linecap="butt" stroke-linejoin="miter" stroke="rgb(0%, 50%, 0%)" stroke-opacity="0.6" stroke-miterlimit="10" d="M 350 350 L 360.367188 403 L 403.699219 369.128906 Z M 350 350 " transform="matrix(1, 0, 0, -1, 0, 700)"/>
<path fill="none" stroke-width="2" stroke-linecap="butt" stroke-linejoin="miter" stroke="rgb(0%, 50%, 0%)" stroke-opacity="0.6" stroke-miterlimit="10" d="M 350 350 L 403.699219 369.128906 L 393.761719 308.945312 Z M 350 350 " transform="matrix(1, 0, 0, -1, 0, 700)"/>
<path fill="none" stroke-width="2" stroke-linecap="butt" stroke-linejoin="miter" stroke="rgb(0%, 50%, 0%)" stroke-opacity="0.6" stroke-miterlimit="10" d="M 350 350 L 393.761719 308.945312 L 329.355469 290.472656 Z M 350 350 " transform="matrix(1, 0, 0, -1, 0, 700)"/>
<path fill="none" stroke-width="2" stroke-linecap="butt" stroke-linejoin="miter" stroke="rgb(0%, 50%, 0%)" stroke-opacity="0.6" stroke-miterlimit="10" d="M 350 350 L 329.355469 290.472656 L 284.035156 347.699219 Z M 350 350 " transform="matrix(1, 0, 0, -1, 0, 700)"/>
<path fill="none" stroke-width="2" stroke-linecap="butt" stroke-linejoin="miter" stroke="rgb(0%, 50%, 0%)" stroke-opacity="0.6" stroke-miterlimit="10" d="M 350 350 L 284.035156 347.699219 L 325.9375 414.671875 Z M 350 350 " transform="matrix(1, 0, 0, -1, 0, 700)"/>
<path fill="none" stroke-width="2" stroke-linecap="butt" stroke-linejoin="miter" stroke="rgb(0%, 50%, 0%)" stroke-opacity="0.6" stroke-miterlimit="10" d="M 350 350 L 325.9375 414.671875 L 408.027344 392.628906 Z M 350 350 " transform="matrix(1, 0, 0, -1, 0, 700)"/>
<path fill="none" stroke-width="2" stroke-linecap="butt" stroke-linejoin="miter" stroke="rgb(0%, 50%, 0%)" stroke-opacity="0.6" stroke-miterlimit="10" d="M 350 350 L 408.027344 392.628906 L 407.328125 301.632812 Z M 350 350 " transform="matrix(1, 0, 0, -1, 0, 700)"/>
<path fill="none" stroke-width="2" stroke-linecap="butt" stroke-linejoin="miter" stroke="rgb(0%, 50%, 0%)" stroke-opacity="0.6" stroke-miterlimit="10" d="M 350 350 L 407.328125 301.632812 L 357.960938 317.96875 Z M 350 350 " transform="matrix(1, 0, 0, -1, 0, 700)"/>
<path fill="none" stroke-width="4" stroke-linecap="butt" stroke-linejoin="miter" stroke="rgb(0%, 0%, 0%)" stroke-opacity="1" stroke-miterlimit="10" d="M 378.003906 350 C 378.003906 334.535156 365.464844 321.996094 350 321.996094 C 334.535156 321.996094 321.996094 334.535156 321.996094 350 C 321.996094 365.464844 334.535156 378.003906 350 378.003906 C 365.464844 378.003906 378.003906 365.464844 378.003906 350 " transform="matrix(1, 0, 0, -1, 0, 700)"/>
<path fill-rule="nonzero" fill="rgb(0%, 0%, 0%)" fill-opacity="0.3" d="M 378.003906 350 C 378.003906 365.464844 365.464844 378.003906 350 378.003906 C 334.535156 378.003906 321.996094 365.464844 321.996094 350 C 321.996094 334.535156 334.535156 321.996094 350 321.996094 C 365.464844 321.996094 378.003906 334.535156 378.003906 350 "/>
<path fill="none" stroke-width="2" stroke-linecap="butt" stroke-linejoin="miter" stroke="rgb(69.999695%, 29.998779%, 9.999084%)" stroke-opacity="1" stroke-miterlimit="10" d="M 388.003906 350 C 388.003906 343.332031 378.003906 343.332031 378.003906 350 C 378.003906 356.667969 388.003906 356.667969 388.003906 350 " transform="matrix(1, 0, 0, -1, 0, 700)"/>
<path fill-rule="nonzero" fill="rgb(69.999695%, 29.998779%, 9.999084%)" fill-opacity="0.3" d="M 388.003906 350 C 388.003906 356.667969 378.003906 356.667969 378.003906 350 C 378.003906 343.332031 388.003906 343.332031 388.003906 350 "/>
<path fill="none" stroke-width="2" stroke-linecap="butt" stroke-linejoin="miter" stroke="rgb(81.999207%, 40.99884%, 10.998535%)" stroke-opacity="1" stroke-miterlimit="10" d="M 391.582031 337.011719 C 391.582031 332.59375 388 329.011719 383.582031 329.011719 C 379.164062 329.011719 375.582031 332.59375 375.582031 337.011719 C 375.582031 341.429688 379.164062 345.011719 383.582031 345.011719 C 388 345.011719 391.582031 341.429688 391.582031 337.011719 " transform="matrix(1, 0, 0, -1, 0, 700)"/>
<path fill-rule="nonzero" fill="rgb(81.999207%, 40.99884%, 10.998535%)" fill-opacity="0.3" d="M 391.582031 362.988281 C 391.582031 367.40625 388 370.988281 383.582031 370.988281 C 379.164062 370.988281 375.582031 367.40625 375.582031 362.988281 C 375.582031 358.570312 379.164062 354.988281 383.582031 354.988281 C 388 354.988281 391.582031 358.570312 391.582031 362.988281 "/>
<path fill="none" stroke-width="2" stroke-linecap="butt" stroke-linejoin="miter" stroke="rgb(100%, 53.999329%, 0%)" stroke-opacity="1" stroke-miterlimit="10" d="M 386 320.0625 C 386 313.984375 381.074219 309.0625 375 309.0625 C 368.925781 309.0625 364 313.984375 364 320.0625 C 364 326.136719 368.925781 331.0625 375 331.0625 C 381.074219 331.0625 386 326.136719 386 320.0625 " transform="matrix(1, 0, 0, -1, 0, 700)"/>
<path fill-rule="nonzero" fill="rgb(100%, 53.999329%, 0%)" fill-opacity="0.3" d="M 386 379.9375 C 386 386.015625 381.074219 390.9375 375 390.9375 C 368.925781 390.9375 364 386.015625 364 379.9375 C 364 373.863281 368.925781 368.9375 375 368.9375 C 381.074219 368.9375 386 373.863281 386 379.9375 "/>
<path fill="none" stroke-width="2" stroke-linecap="butt" stroke-linejoin="miter" stroke="rgb(100%, 6.999207%, 56.999207%)" stroke-opacity="1" stroke-miterlimit="10" d="M 367.042969 308.105469 C 367.042969 300.375 360.777344 294.105469 353.042969 294.105469 C 345.3125 294.105469 339.042969 300.375 339.042969 308.105469 C 339.042969 315.835938 345.3125 322.105469 353.042969 322.105469 C 360.777344 322.105469 367.042969 315.835938 367.042969 308.105469 " transform="matrix(1, 0, 0, -1, 0, 700)"/>
<path fill-rule="nonzero" fill="rgb(100%, 6.999207%, 56.999207%)" fill-opacity="0.3" d="M 367.042969 391.894531 C 367.042969 399.625 360.777344 405.894531 353.042969 405.894531 C 345.3125 405.894531 339.042969 399.625 339.042969 391.894531 C 339.042969 384.164062 345.3125 377.894531 353.042969 377.894531 C 360.777344 377.894531 367.042969 384.164062 367.042969 391.894531 "/>
<path fill="none" stroke-width="2" stroke-linecap="butt" stroke-linejoin="miter" stroke="rgb(0%, 0%, 50%)" stroke-opacity="1" stroke-miterlimit="10" d="M 339.660156 314.25 C 339.660156 304.863281 332.046875 297.25 322.660156 297.25 C 313.269531 297.25 305.660156 304.863281 305.660156 314.25 C 305.660156 323.640625 313.269531 331.25 322.660156 331.25 C 332.046875 331.25 339.660156 323.640625 339.660156 314.25 " transform="matrix(1, 0, 0, -1, 0, 700)"/>
<path fill-rule="nonzero" fill="rgb(0%, 0%, 50%)" fill-opacity="0.3" d="M 339.660156 385.75 C 339.660156 395.136719 332.046875 402.75 322.660156 402.75 C 313.269531 402.75 305.660156 395.136719 305.660156 385.75 C 305.660156 376.359375 313.269531 368.75 322.660156 368.75 C 332.046875 368.75 339.660156 376.359375 339.660156 385.75 "/>
<path fill="none" stroke-width="2" stroke-linecap="butt" stroke-linejoin="miter" stroke="rgb(0%, 50%, 50%)" stroke-opacity="1" stroke-miterlimit="10" d="M 322.246094 345.109375 C 322.246094 334.066406 313.289062 325.109375 302.246094 325.109375 C 291.199219 325.109375 282.246094 334.066406 282.246094 345.109375 C 282.246094 356.15625 291.199219 365.109375 302.246094 365.109375 C 313.289062 365.109375 322.246094 356.15625 322.246094 345.109375 " transform="matrix(1, 0, 0, -1, 0, 700)"/>
<path fill-rule="nonzero" fill="rgb(0%, 50%, 50%)" fill-opacity="0.3" d="M 322.246094 354.890625 C 322.246094 365.933594 313.289062 374.890625 302.246094 374.890625 C 291.199219 374.890625 282.246094 365.933594 282.246094 354.890625 C 282.246094 343.84375 291.199219 334.890625 302.246094 334.890625 C 313.289062 334.890625 322.246094 343.84375 322.246094 354.890625 "/>
<path fill="none" stroke-width="2" stroke-linecap="butt" stroke-linejoin="miter" stroke="rgb(50%, 0%, 50%)" stroke-opacity="1" stroke-miterlimit="10" d="M 337.265625 386.394531 C 337.265625 373.691406 326.96875 363.394531 314.265625 363.394531 C 301.5625 363.394531 291.265625 373.691406 291.265625 386.394531 C 291.265625 399.097656 301.5625 409.394531 314.265625 409.394531 C 326.96875 409.394531 337.265625 399.097656 337.265625 386.394531 " transform="matrix(1, 0, 0, -1, 0, 700)"/>
<path fill-rule="nonzero" fill="rgb(50%, 0%, 50%)" fill-opacity="0.3" d="M 337.265625 313.605469 C 337.265625 326.308594 326.96875 336.605469 314.265625 336.605469 C 301.5625 336.605469 291.265625 326.308594 291.265625 313.605469 C 291.265625 300.902344 301.5625 290.605469 314.265625 290.605469 C 326.96875 290.605469 337.265625 300.902344 337.265625 313.605469 "/>
<path fill="none" stroke-width="2" stroke-linecap="butt" stroke-linejoin="miter" stroke="rgb(0%, 50%, 0%)" stroke-opacity="1" stroke-miterlimit="10" d="M 386.367188 403 C 386.367188 388.640625 374.726562 377 360.367188 377 C 346.007812 377 334.367188 388.640625 334.367188 403 C 334.367188 417.359375 346.007812 429 360.367188 429 C 374.726562 429 386.367188 417.359375 386.367188 403 " transform="matrix(1, 0, 0, -1, 0, 700)"/>
<path fill-rule="nonzero" fill="rgb(0%, 50%, 0%)" fill-opacity="0.3" d="M 386.367188 297 C 386.367188 311.359375 374.726562 323 360.367188 323 C 346.007812 323 334.367188 311.359375 334.367188 297 C 334.367188 282.640625 346.007812 271 360.367188 271 C 374.726562 271 386.367188 282.640625 386.367188 297 "/>
<path fill="none" stroke-width="2" stroke-linecap="butt" stroke-linejoin="miter" stroke="rgb(50%, 0%, 0%)" stroke-opacity="1" stroke-miterlimit="10" d="M 432.699219 369.128906 C 432.699219 353.113281 419.714844 340.128906 403.699219 340.128906 C 387.683594 340.128906 374.699219 353.113281 374.699219 369.128906 C 374.699219 385.144531 387.683594 398.128906 403.699219 398.128906 C 419.714844 398.128906 432.699219 385.144531 432.699219 369.128906 " transform="matrix(1, 0, 0, -1, 0, 700)"/>
<path fill-rule="nonzero" fill="rgb(50%, 0%, 0%)" fill-opacity="0.3" d="M 432.699219 330.871094 C 432.699219 346.886719 419.714844 359.871094 403.699219 359.871094 C 387.683594 359.871094 374.699219 346.886719 374.699219 330.871094 C 374.699219 314.855469 387.683594 301.871094 403.699219 301.871094 C 419.714844 301.871094 432.699219 314.855469 432.699219 330.871094 "/>
<path fill="none" stroke-width="2" stroke-linecap="butt" stroke-linejoin="miter" stroke="rgb(100%, 0%, 100%)" stroke-opacity="1" stroke-miterlimit="10" d="M 425.761719 308.945312 C 425.761719 291.269531 411.433594 276.945312 393.761719 276.945312 C 376.085938 276.945312 361.761719 291.269531 361.761719 308.945312 C 361.761719 326.617188 376.085938 340.945312 393.761719 340.945312 C 411.433594 340.945312 425.761719 326.617188 425.761719 308.945312 " transform="matrix(1, 0, 0, -1, 0, 700)"/>
<path fill-rule="nonzero" fill="rgb(100%, 0%, 100%)" fill-opacity="0.3" d="M 425.761719 391.054688 C 425.761719 408.730469 411.433594 423.054688 393.761719 423.054688 C 376.085938 423.054688 361.761719 408.730469 361.761719 391.054688 C 361.761719 373.382812 376.085938 359.054688 393.761719 359.054688 C 411.433594 359.054688 425.761719 373.382812 425.761719 391.054688 "/>
<path fill="none" stroke-width="2" stroke-linecap="butt" stroke-linejoin="miter" stroke="rgb(0%, 100%, 100%)" stroke-opacity="1" stroke-miterlimit="10" d="M 364.355469 290.472656 C 364.355469 271.144531 348.6875 255.472656 329.355469 255.472656 C 310.027344 255.472656 294.355469 271.144531 294.355469 290.472656 C 294.355469 309.804688 310.027344 325.472656 329.355469 325.472656 C 348.6875 325.472656 364.355469 309.804688 364.355469 290.472656 " transform="matrix(1, 0, 0, -1, 0, 700)"/>
<path fill-rule="nonzero" fill="rgb(0%, 100%, 100%)" fill-opacity="0.3" d="M 364.355469 409.527344 C 364.355469 428.855469 348.6875 444.527344 329.355469 444.527344 C 310.027344 444.527344 294.355469 428.855469 294.355469 409.527344 C 294.355469 390.195312 310.027344 374.527344 329.355469 374.527344 C 348.6875 374.527344 364.355469 390.195312 364.355469 409.527344 "/>
<path fill="none" stroke-width="2" stroke-linecap="butt" stroke-linejoin="miter" stroke="rgb(100%, 100%, 0%)" stroke-opacity="1" stroke-miterlimit="10" d="M 322.035156 347.699219 C 322.035156 326.714844 305.023438 309.699219 284.035156 309.699219 C 263.046875 309.699219 246.035156 326.714844 246.035156 347.699219 C 246.035156 368.6875 263.046875 385.699219 284.035156 385.699219 C 305.023438 385.699219 322.035156 368.6875 322.035156 347.699219 " transform="matrix(1, 0, 0, -1, 0, 700)"/>
<path fill-rule="nonzero" fill="rgb(100%, 100%, 0%)" fill-opacity="0.3" d="M 322.035156 352.300781 C 322.035156 373.285156 305.023438 390.300781 284.035156 390.300781 C 263.046875 390.300781 246.035156 373.285156 246.035156 352.300781 C 246.035156 331.3125 263.046875 314.300781 284.035156 314.300781 C 305.023438 314.300781 322.035156 331.3125 322.035156 352.300781 "/>
<path fill="none" stroke-width="2" stroke-linecap="butt" stroke-linejoin="miter" stroke="rgb(0%, 0%, 100%)" stroke-opacity="1" stroke-miterlimit="10" d="M 366.9375 414.671875 C 366.9375 392.03125 348.582031 373.671875 325.9375 373.671875 C 303.292969 373.671875 284.9375 392.03125 284.9375 414.671875 C 284.9375 437.316406 303.292969 455.671875 325.9375 455.671875 C 348.582031 455.671875 366.9375 437.316406 366.9375 414.671875 " transform="matrix(1, 0, 0, -1, 0, 700)"/>
<path fill-rule="nonzero" fill="rgb(0%, 0%, 100%)" fill-opacity="0.3" d="M 366.9375 285.328125 C 366.9375 307.96875 348.582031 326.328125 325.9375 326.328125 C 303.292969 326.328125 284.9375 307.96875 284.9375 285.328125 C 284.9375 262.683594 303.292969 244.328125 325.9375 244.328125 C 348.582031 244.328125 366.9375 262.683594 366.9375 285.328125 "/>
<path fill="none" stroke-width="2" stroke-linecap="butt" stroke-linejoin="miter" stroke="rgb(0%, 100%, 0%)" stroke-opacity="1" stroke-miterlimit="10" d="M 452.027344 392.628906 C 452.027344 368.328125 432.328125 348.628906 408.027344 348.628906 C 383.726562 348.628906 364.027344 368.328125 364.027344 392.628906 C 364.027344 416.929688 383.726562 436.628906 408.027344 436.628906 C 432.328125 436.628906 452.027344 416.929688 452.027344 392.628906 " transform="matrix(1, 0, 0, -1, 0, 700)"/>
<path fill-rule="nonzero" fill="rgb(0%, 100%, 0%)" fill-opacity="0.3" d="M 452.027344 307.371094 C 452.027344 331.671875 432.328125 351.371094 408.027344 351.371094 C 383.726562 351.371094 364.027344 331.671875 364.027344 307.371094 C 364.027344 283.070312 383.726562 263.371094 408.027344 263.371094 C 432.328125 263.371094 452.027344 283.070312 452.027344 307.371094 "/>
<path fill="none" stroke-width="2" stroke-linecap="butt" stroke-linejoin="miter" stroke="rgb(100%, 0%, 0%)" stroke-opacity="1" stroke-miterlimit="10" d="M 454.328125 301.632812 C 454.328125 275.675781 433.285156 254.632812 407.328125 254.632812 C 381.371094 254.632812 360.328125 275.675781 360.328125 301.632812 C 360.328125 327.589844 381.371094 348.632812 407.328125 348.632812 C 433.285156 348.632812 454.328125 327.589844 454.328125 301.632812 " transform="matrix(1, 0, 0, -1, 0, 700)"/>
<path fill-rule="nonzero" fill="rgb(100%, 0%, 0%)" fill-opacity="0.3" d="M 454.328125 398.367188 C 454.328125 424.324219 433.285156 445.367188 407.328125 445.367188 C 381.371094 445.367188 360.328125 424.324219 360.328125 398.367188 C 360.328125 372.410156 381.371094 351.367188 407.328125 351.367188 C 433.285156 351.367188 454.328125 372.410156 454.328125 398.367188 "/>
<path fill="none" stroke-width="2" stroke-linecap="butt" stroke-linejoin="miter" stroke="rgb(0%, 0%, 29.998779%)" stroke-opacity="1" stroke-miterlimit="10" d="M 362.960938 317.96875 C 362.960938 311.300781 352.960938 311.300781 352.960938 317.96875 C 352.960938 324.636719 362.960938 324.636719 362.960938 317.96875 " transform="matrix(1, 0, 0, -1, 0, 700)"/>
<path fill-rule="nonzero" fill="rgb(0%, 0%, 29.998779%)" fill-opacity="0.3" d="M 362.960938 382.03125 C 362.960938 388.699219 352.960938 388.699219 352.960938 382.03125 C 352.960938 375.363281 362.960938 375.363281 362.960938 382.03125 "/>
</svg>
