<?xml version="1.0" encoding="UTF-8"?>
<svg xmlns="http://www.w3.org/2000/svg" xmlns:xlink="http://www.w3.org/1999/xlink" width="700" height="700" viewBox="0 0 700 700">
<path fill="none" stroke-width="2" stroke-linecap="butt" stroke-linejoin="miter" stroke="rgb(0%, 50%, 0%)" stroke-opacity="0.6" stroke-miterlimit="10" d="M 350 350 L 383.566406 350 Z M 350 350 " transform="matrix(1, 0, 0, -1, 0, 700)"/>
<path fill="none" stroke-width="2" stroke-linecap="butt" stroke-linejoin="miter" stroke="rgb(0%, 50%, 0%)" stroke-opacity="0.6" stroke-miterlimit="10" d="M 350 350 L 383.566406 350 L 384.179688 337.015625 Z M 350 350 " transform="matrix(1, 0, 0, -1, 0, 700)"/>
<path fill="none" stroke-width="2" stroke-linecap="butt" stroke-linejoin="miter" stroke="rgb(0%, 50%, 0%)" stroke-opacity="0.6" stroke-miterlimit="10" d="M 350 350 L 384.179688 337.015625 L 375.769531 319.976562 Z M 350 350 " transform="matrix(1, 0, 0, -1, 0, 700)"/>
<path fill="none" stroke-width="2" stroke-linecap="butt" stroke-linejoin="miter" stroke="rgb(0%, 50%, 0%)" stroke-opacity="0.6" stroke-miterlimit="10" d="M 350 350 L 375.769531 319.976562 L 354.035156 307.625 Z M 350 350 " transform="matrix(1, 0, 0, -1, 0, 700)"/>
<path fill="none" stroke-width="2" stroke-linecap="butt" stroke-linejoin="miter" stroke="rgb(0%, 50%, 0%)" stroke-opacity="0.6" stroke-miterlimit="10" d="M 350 350 L 354.035156 307.625 L 323.492188 312.9375 Z M 350 350 " transform="matrix(1, 0, 0, -1, 0, 700)"/>
<path fill="none" stroke-width="2" stroke-linecap="butt" stroke-linejoin="miter" stroke="rgb(0%, 50%, 0%)" stroke-opacity="0.6" stroke-miterlimit="10" d="M 350 350 L 323.492188 312.9375 L 301.941406 343.015625 Z M 350 350 " transform="matrix(1, 0, 0, -1, 0, 700)"/>
<path fill="none" stroke-width="2" stroke-linecap="butt" stroke-linejoin="miter" stroke="rgb(0%, 50%, 0%)" stroke-opacity="0.6" stroke-miterlimit="10" d="M 350 350 L 301.941406 343.015625 L 311.972656 384.828125 Z M 350 350 " transform="matrix(1, 0, 0, -1, 0, 700)"/>
<path fill="none" stroke-width="2" stroke-linecap="butt" stroke-linejoin="miter" stroke="rgb(0%, 50%, 0%)" stroke-opacity="0.6" stroke-miterlimit="10" d="M 350 350 L 311.972656 384.828125 L 357.019531 404.113281 Z M 350 350 " transform="matrix(1, 0, 0, -1, 0, 700)"/>
<path fill="none" stroke-width="2" stroke-linecap="butt" stroke-linejoin="miter" stroke="rgb(0%, 50%, 0%)" stroke-opacity="0.6" stroke-miterlimit="10" d="M 350 350 L 357.019531 404.113281 L 402.613281 373.355469 Z M 350 350 " transform="matrix(1, 0, 0, -1, 0, 700)"/>
<path fill="none" stroke-width="2" stroke-linecap="butt" stroke-linejoin="miter" stroke="rgb(0%, 50%, 0%)" stroke-opacity="0.6" stroke-miterlimit="10" d="M 350 350 L 402.613281 373.355469 L 397.605469 312.558594 Z M 350 350 " transform="matrix(1, 0, 0, -1, 0, 700)"/>
<path fill="none" stroke-width="2" stroke-linecap="butt" stroke-linejoin="miter" stroke="rgb(0%, 50%, 0%)" stroke-opacity="0.6" stroke-miterlimit="10" d="M 350 350 L 397.605469 312.558594 L 335.199219 288.183594 Z M 350 350 " transform="matrix(1, 0, 0, -1, 0, 700)"/>
<path fill="none" stroke-width="2" stroke-linecap="butt" stroke-linejoin="miter" stroke="rgb(0%, 50%, 0%)" stroke-opacity="0.6" stroke-miterlimit="10" d="M 350 350 L 335.199219 288.183594 L 284.136719 340.351562 Z M 350 350 " transform="matrix(1, 0, 0, -1, 0, 700)"/>
<path fill="none" stroke-width="2" stroke-linecap="butt" stroke-linejoin="miter" stroke="rgb(0%, 50%, 0%)" stroke-opacity="0.6" stroke-miterlimit="10" d="M 350 350 L 284.136719 340.351562 L 317.960938 411.746094 Z M 350 350 " transform="matrix(1, 0, 0, -1, 0, 700)"/>
<path fill="none" stroke-width="2" stroke-linecap="butt" stroke-linejoin="miter" stroke="rgb(0%, 50%, 0%)" stroke-opacity="0.6" stroke-miterlimit="10" d="M 350 350 L 317.960938 411.746094 L 402.199219 400.40625 Z M 350 350 " transform="matrix(1, 0, 0, -1, 0, 700)"/>
<path fill="none" stroke-width="2" stroke-linecap="butt" stroke-linejoin="miter" stroke="rgb(0%, 50%, 0%)" stroke-opacity="0.6" stroke-miterlimit="10" d="M 350 350 L 402.199219 400.40625 L 414.238281 310.207031 Z M 350 350 " transform="matrix(1, 0, 0, -1, 0, 700)"/>
<path fill="none" stroke-width="2" stroke-linecap="butt" stroke-linejoin="miter" stroke="rgb(0%, 50%, 0%)" stroke-opacity="0.6" stroke-miterlimit="10" d="M 350 350 L 414.238281 310.207031 L 362.996094 319.054688 Z M 350 350 " transform="matrix(1, 0, 0, -1, 0, 700)"/>
<path fill="none" stroke-width="4" stroke-linecap="butt" stroke-linejoin="miter" stroke="rgb(0%, 0%, 0%)" stroke-opacity="1" stroke-miterlimit="10" d="M 378.566406 350 C 378.566406 334.222656 365.777344 321.433594 350 321.433594 C 334.222656 321.433594 321.433594 334.222656 321.433594 350 C 321.433594 365.777344 334.222656 378.566406 350 378.566406 C 365.777344 378.566406 378.566406 365.777344 378.566406 350 " transform="matrix(1, 0, 0, -1, 0, 700)"/>
<path fill-rule="nonzero" fill="rgb(0%, 0%, 0%)" fill-opacity="0.3" d="M 378.566406 350 C 378.566406 365.777344 365.777344 378.566406 350 378.566406 C 334.222656 378.566406 321.433594 365.777344 321.433594 350 C 321.433594 334.222656 334.222656 321.433594 350 321.433594 C 365.777344 321.433594 378.566406 334.222656 378.566406 350 "/>
<path fill="none" stroke-width="2" stroke-linecap="butt" stroke-linejoin="miter" stroke="rgb(69.999695%, 29.998779%, 9.999084%)" stroke-opacity="1" stroke-miterlimit="10" d="M 388.566406 350 C 388.566406 343.332031 378.566406 343.332031 378.566406 350 C 378.566406 356.667969 388.566406 356.667969 388.566406 350 " transform="matrix(1, 0, 0, -1, 0, 700)"/>
<path fill-rule="nonzero" fill="rgb(69.999695%, 29.998779%, 9.999084%)" fill-opacity="0.3" d="M 388.566406 350 C 388.566406 356.667969 378.566406 356.667969 378.566406 350 C 378.566406 343.332031 388.566406 343.332031 388.566406 350 "/>
<path fill="none" stroke-width="2" stroke-linecap="butt" stroke-linejoin="miter" stroke="rgb(81.999207%, 40.99884%, 10.998535%)" stroke-opacity="1" stroke-miterlimit="10" d="M 392.179688 337.015625 C 392.179688 332.597656 388.601562 329.015625 384.179688 329.015625 C 379.761719 329.015625 376.179688 332.597656 376.179688 337.015625 C 376.179688 341.433594 379.761719 345.015625 384.179688 345.015625 C 388.601562 345.015625 392.179688 341.433594 392.179688 337.015625 " transform="matrix(1, 0, 0, -1, 0, 700)"/>
<path fill-rule="nonzero" fill="rgb(81.999207%, 40.99884%, 10.998535%)" fill-opacity="0.3" d="M 392.179688 362.984375 C 392.179688 367.402344 388.601562 370.984375 384.179688 370.984375 C 379.761719 370.984375 376.179688 367.402344 376.179688 362.984375 C 376.179688 358.566406 379.761719 354.984375 384.179688 354.984375 C 388.601562 354.984375 392.179688 358.566406 392.179688 362.984375 "/>
<path fill="none" stroke-width="2" stroke-linecap="butt" stroke-linejoin="miter" stroke="rgb(100%, 53.999329%, 0%)" stroke-opacity="1" stroke-miterlimit="10" d="M 386.769531 319.976562 C 386.769531 313.902344 381.84375 308.976562 375.769531 308.976562 C 369.695312 308.976562 364.769531 313.902344 364.769531 319.976562 C 364.769531 326.054688 369.695312 330.976562 375.769531 330.976562 C 381.84375 330.976562 386.769531 326.054688 386.769531 319.976562 " transform="matrix(1, 0, 0, -1, 0, 700)"/>
<path fill-rule="nonzero" fill="rgb(100%, 53.999329%, 0%)" fill-opacity="0.3" d="M 386.769531 380.023438 C 386.769531 386.097656 381.84375 391.023438 375.769531 391.023438 C 369.695312 391.023438 364.769531 386.097656 364.769531 380.023438 C 364.769531 373.945312 369.695312 369.023438 375.769531 369.023438 C 381.84375 369.023438 386.769531 373.945312 386.769531 380.023438 "/>
<path fill="none" stroke-width="2" stroke-linecap="butt" stroke-linejoin="miter" stroke="rgb(100%, 6.999207%, 56.999207%)" stroke-opacity="1" stroke-miterlimit="10" d="M 368.035156 307.625 C 368.035156 299.894531 361.765625 293.625 354.035156 293.625 C 346.300781 293.625 340.035156 299.894531 340.035156 307.625 C 340.035156 315.359375 346.300781 321.625 354.035156 321.625 C 361.765625 321.625 368.035156 315.359375 368.035156 307.625 " transform="matrix(1, 0, 0, -1, 0, 700)"/>
<path fill-rule="nonzero" fill="rgb(100%, 6.999207%, 56.999207%)" fill-opacity="0.3" d="M 368.035156 392.375 C 368.035156 400.105469 361.765625 406.375 354.035156 406.375 C 346.300781 406.375 340.035156 400.105469 340.035156 392.375 C 340.035156 384.640625 346.300781 378.375 354.035156 378.375 C 361.765625 378.375 368.035156 384.640625 368.035156 392.375 "/>
<path fill="none" stroke-width="2" stroke-linecap="butt" stroke-linejoin="miter" stroke="rgb(0%, 0%, 50%)" stroke-opacity="1" stroke-miterlimit="10" d="M 340.492188 312.9375 C 340.492188 303.550781 332.882812 295.9375 323.492188 295.9375 C 314.105469 295.9375 306.492188 303.550781 306.492188 312.9375 C 306.492188 322.328125 314.105469 329.9375 323.492188 329.9375 C 332.882812 329.9375 340.492188 322.328125 340.492188 312.9375 " transform="matrix(1, 0, 0, -1, 0, 700)"/>
<path fill-rule="nonzero" fill="rgb(0%, 0%, 50%)" fill-opacity="0.3" d="M 340.492188 387.0625 C 340.492188 396.449219 332.882812 404.0625 323.492188 404.0625 C 314.105469 404.0625 306.492188 396.449219 306.492188 387.0625 C 306.492188 377.671875 314.105469 370.0625 323.492188 370.0625 C 332.882812 370.0625 340.492188 377.671875 340.492188 387.0625 "/>
<path fill="none" stroke-width="2" stroke-linecap="butt" stroke-linejoin="miter" stroke="rgb(0%, 50%, 50%)" stroke-opacity="1" stroke-miterlimit="10" d="M 321.941406 343.015625 C 321.941406 331.96875 312.984375 323.015625 301.941406 323.015625 C 290.894531 323.015625 281.941406 331.96875 281.941406 343.015625 C 281.941406 354.058594 290.894531 363.015625 301.941406 363.015625 C 312.984375 363.015625 321.941406 354.058594 321.941406 343.015625 " transform="matrix(1, 0, 0, -1, 0, 700)"/>
<path fill-rule="nonzero" fill="rgb(0%, 50%, 50%)" fill-opacity="0.3" d="M 321.941406 356.984375 C 321.941406 368.03125 312.984375 376.984375 301.941406 376.984375 C 290.894531 376.984375 281.941406 368.03125 281.941406 356.984375 C 281.941406 345.941406 290.894531 336.984375 301.941406 336.984375 C 312.984375 336.984375 321.941406 345.941406 321.941406 356.984375 "/>
<path fill="none" stroke-width="2" stroke-linecap="butt" stroke-linejoin="miter" stroke="rgb(50%, 0%, 50%)" stroke-opacity="1" stroke-miterlimit="10" d="M 334.972656 384.828125 C 334.972656 372.125 324.675781 361.828125 311.972656 361.828125 C 299.269531 361.828125 288.972656 372.125 288.972656 384.828125 C 288.972656 397.53125 299.269531 407.828125 311.972656 407.828125 C 324.675781 407.828125 334.972656 397.53125 334.972656 384.828125 " transform="matrix(1, 0, 0, -1, 0, 700)"/>
<path fill-rule="nonzero" fill="rgb(50%, 0%, 50%)" fill-opacity="0.3" d="M 334.972656 315.171875 C 334.972656 327.875 324.675781 338.171875 311.972656 338.171875 C 299.269531 338.171875 288.972656 327.875 288.972656 315.171875 C 288.972656 302.46875 299.269531 292.171875 311.972656 292.171875 C 324.675781 292.171875 334.972656 302.46875 334.972656 315.171875 "/>
<path fill="none" stroke-width="2" stroke-linecap="butt" stroke-linejoin="miter" stroke="rgb(0%, 50%, 0%)" stroke-opacity="1" stroke-miterlimit="10" d="M 383.019531 404.113281 C 383.019531 389.753906 371.378906 378.113281 357.019531 378.113281 C 342.660156 378.113281 331.019531 389.753906 331.019531 404.113281 C 331.019531 418.472656 342.660156 430.113281 357.019531 430.113281 C 371.378906 430.113281 383.019531 418.472656 383.019531 404.113281 " transform="matrix(1, 0, 0, -1, 0, 700)"/>
<path fill-rule="nonzero" fill="rgb(0%, 50%, 0%)" fill-opacity="0.3" d="M 383.019531 295.886719 C 383.019531 310.246094 371.378906 321.886719 357.019531 321.886719 C 342.660156 321.886719 331.019531 310.246094 331.019531 295.886719 C 331.019531 281.527344 342.660156 269.886719 357.019531 269.886719 C 371.378906 269.886719 383.019531 281.527344 383.019531 295.886719 "/>
<path fill="none" stroke-width="2" stroke-linecap="butt" stroke-linejoin="miter" stroke="rgb(50%, 0%, 0%)" stroke-opacity="1" stroke-miterlimit="10" d="M 431.613281 373.355469 C 431.613281 357.335938 418.632812 344.355469 402.613281 344.355469 C 386.597656 344.355469 373.613281 357.335938 373.613281 373.355469 C 373.613281 389.371094 386.597656 402.355469 402.613281 402.355469 C 418.632812 402.355469 431.613281 389.371094 431.613281 373.355469 " transform="matrix(1, 0, 0, -1, 0, 700)"/>
<path fill-rule="nonzero" fill="rgb(50%, 0%, 0%)" fill-opacity="0.3" d="M 431.613281 326.644531 C 431.613281 342.664062 418.632812 355.644531 402.613281 355.644531 C 386.597656 355.644531 373.613281 342.664062 373.613281 326.644531 C 373.613281 310.628906 386.597656 297.644531 402.613281 297.644531 C 418.632812 297.644531 431.613281 310.628906 431.613281 326.644531 "/>
<path fill="none" stroke-width="2" stroke-linecap="butt" stroke-linejoin="miter" stroke="rgb(100%, 0%, 100%)" stroke-opacity="1" stroke-miterlimit="10" d="M 429.605469 312.558594 C 429.605469 294.886719 415.28125 280.558594 397.605469 280.558594 C 379.933594 280.558594 365.605469 294.886719 365.605469 312.558594 C 365.605469 330.234375 379.933594 344.558594 397.605469 344.558594 C 415.28125 344.558594 429.605469 330.234375 429.605469 312.558594 " transform="matrix(1, 0, 0, -1, 0, 700)"/>
<path fill-rule="nonzero" fill="rgb(100%, 0%, 100%)" fill-opacity="0.3" d="M 429.605469 387.441406 C 429.605469 405.113281 415.28125 419.441406 397.605469 419.441406 C 379.933594 419.441406 365.605469 405.113281 365.605469 387.441406 C 365.605469 369.765625 379.933594 355.441406 397.605469 355.441406 C 415.28125 355.441406 429.605469 369.765625 429.605469 387.441406 "/>
<path fill="none" stroke-width="2" stroke-linecap="butt" stroke-linejoin="miter" stroke="rgb(0%, 100%, 100%)" stroke-opacity="1" stroke-miterlimit="10" d="M 370.199219 288.183594 C 370.199219 268.851562 354.527344 253.183594 335.199219 253.183594 C 315.867188 253.183594 300.199219 268.851562 300.199219 288.183594 C 300.199219 307.511719 315.867188 323.183594 335.199219 323.183594 C 354.527344 323.183594 370.199219 307.511719 370.199219 288.183594 " transform="matrix(1, 0, 0, -1, 0, 700)"/>
<path fill-rule="nonzero" fill="rgb(0%, 100%, 100%)" fill-opacity="0.3" d="M 370.199219 411.816406 C 370.199219 431.148438 354.527344 446.816406 335.199219 446.816406 C 315.867188 446.816406 300.199219 431.148438 300.199219 411.816406 C 300.199219 392.488281 315.867188 376.816406 335.199219 376.816406 C 354.527344 376.816406 370.199219 392.488281 370.199219 411.816406 "/>
<path fill="none" stroke-width="2" stroke-linecap="butt" stroke-linejoin="miter" stroke="rgb(100%, 100%, 0%)" stroke-opacity="1" stroke-miterlimit="10" d="M 322.136719 340.351562 C 322.136719 319.367188 305.125 302.351562 284.136719 302.351562 C 263.152344 302.351562 246.136719 319.367188 246.136719 340.351562 C 246.136719 361.339844 263.152344 378.351562 284.136719 378.351562 C 305.125 378.351562 322.136719 361.339844 322.136719 340.351562 " transform="matrix(1, 0, 0, -1, 0, 700)"/>
<path fill-rule="nonzero" fill="rgb(100%, 100%, 0%)" fill-opacity="0.3" d="M 322.136719 359.648438 C 322.136719 380.632812 305.125 397.648438 284.136719 397.648438 C 263.152344 397.648438 246.136719 380.632812 246.136719 359.648438 C 246.136719 338.660156 263.152344 321.648438 284.136719 321.648438 C 305.125 321.648438 322.136719 338.660156 322.136719 359.648438 "/>
<path fill="none" stroke-width="2" stroke-linecap="butt" stroke-linejoin="miter" stroke="rgb(0%, 0%, 100%)" stroke-opacity="1" stroke-miterlimit="10" d="M 358.960938 411.746094 C 358.960938 389.101562 340.601562 370.746094 317.960938 370.746094 C 295.316406 370.746094 276.960938 389.101562 276.960938 411.746094 C 276.960938 434.390625 295.316406 452.746094 317.960938 452.746094 C 340.601562 452.746094 358.960938 434.390625 358.960938 411.746094 " transform="matrix(1, 0, 0, -1, 0, 700)"/>
<path fill-rule="nonzero" fill="rgb(0%, 0%, 100%)" fill-opacity="0.3" d="M 358.960938 288.253906 C 358.960938 310.898438 340.601562 329.253906 317.960938 329.253906 C 295.316406 329.253906 276.960938 310.898438 276.960938 288.253906 C 276.960938 265.609375 295.316406 247.253906 317.960938 247.253906 C 340.601562 247.253906 358.960938 265.609375 358.960938 288.253906 "/>
<path fill="none" stroke-width="2" stroke-linecap="butt" stroke-linejoin="miter" stroke="rgb(0%, 100%, 0%)" stroke-opacity="1" stroke-miterlimit="10" d="M 446.199219 400.40625 C 446.199219 376.105469 426.5 356.40625 402.199219 356.40625 C 377.898438 356.40625 358.199219 376.105469 358.199219 400.40625 C 358.199219 424.707031 377.898438 444.40625 402.199219 444.40625 C 426.5 444.40625 446.199219 424.707031 446.199219 400.40625 " transform="matrix(1, 0, 0, -1, 0, 700)"/>
<path fill-rule="nonzero" fill="rgb(0%, 100%, 0%)" fill-opacity="0.3" d="M 446.199219 299.59375 C 446.199219 323.894531 426.5 343.59375 402.199219 343.59375 C 377.898438 343.59375 358.199219 323.894531 358.199219 299.59375 C 358.199219 275.292969 377.898438 255.59375 402.199219 255.59375 C 426.5 255.59375 446.199219 275.292969 446.199219 299.59375 "/>
<path fill="none" stroke-width="2" stroke-linecap="butt" stroke-linejoin="miter" stroke="rgb(100%, 0%, 0%)" stroke-opacity="1" stroke-miterlimit="10" d="M 461.238281 310.207031 C 461.238281 284.25 440.195312 263.207031 414.238281 263.207031 C 388.28125 263.207031 367.238281 284.25 367.238281 310.207031 C 367.238281 336.164062 388.28125 357.207031 414.238281 357.207031 C 440.195312 357.207031 461.238281 336.164062 461.238281 310.207031 " transform="matrix(1, 0, 0, -1, 0, 700)"/>
<path fill-rule="nonzero" fill="rgb(100%, 0%, 0%)" fill-opacity="0.3" d="M 461.238281 389.792969 C 461.238281 415.75 440.195312 436.792969 414.238281 436.792969 C 388.28125 436.792969 367.238281 415.75 367.238281 389.792969 C 367.238281 363.835938 388.28125 342.792969 414.238281 342.792969 C 440.195312 342.792969 461.238281 363.835938 461.238281 389.792969 "/>
<path fill="none" stroke-width="2" stroke-linecap="butt" stroke-linejoin="miter" stroke="rgb(0%, 0%, 29.998779%)" stroke-opacity="1" stroke-miterlimit="10" d="M 367.996094 319.054688 C 367.996094 312.386719 357.996094 312.386719 357.996094 319.054688 C 357.996094 325.71875 367.996094 325.71875 367.996094 319.054688 " transform="matrix(1, 0, 0, -1, 0, 700)"/>
<path fill-rule="nonzero" fill="rgb(0%, 0%, 29.998779%)" fill-opacity="0.3" d="M 367.996094 380.945312 C 367.996094 387.613281 357.996094 387.613281 357.996094 380.945312 C 357.996094 374.28125 367.996094 374.28125 367.996094 380.945312 "/>
</svg>
