<?xml version="1.0" encoding="UTF-8"?>
<svg xmlns="http://www.w3.org/2000/svg" xmlns:xlink="http://www.w3.org/1999/xlink" width="700" height="700" viewBox="0 0 700 700">
<path fill="none" stroke-width="2" stroke-linecap="butt" stroke-linejoin="miter" stroke="rgb(0%, 50%, 0%)" stroke-opacity="0.6" stroke-miterlimit="10" d="M 350 350 L 384.136719 350 Z M 350 350 " transform="matrix(1, 0, 0, -1, 0, 700)"/>
<path fill="none" stroke-width="2" stroke-linecap="butt" stroke-linejoin="miter" stroke="rgb(0%, 50%, 0%)" stroke-opacity="0.6" stroke-miterlimit="10" d="M 350 350 L 384.136719 350 L 384.792969 337.015625 Z M 350 350 " transform="matrix(1, 0, 0, -1, 0, 700)"/>
<path fill="none" stroke-width="2" stroke-linecap="butt" stroke-linejoin="miter" stroke="rgb(0%, 50%, 0%)" stroke-opacity="0.6" stroke-miterlimit="10" d="M 350 350 L 384.792969 337.015625 L 376.546875 319.898438 Z M 350 350 " transform="matrix(1, 0, 0, -1, 0, 700)"/>
<path fill="none" stroke-width="2" stroke-linecap="butt" stroke-linejoin="miter" stroke="rgb(0%, 50%, 0%)" stroke-opacity="0.6" stroke-miterlimit="10" d="M 350 350 L 376.546875 319.898438 L 355.039062 307.160156 Z M 350 350 " transform="matrix(1, 0, 0, -1, 0, 700)"/>
<path fill="none" stroke-width="2" stroke-linecap="butt" stroke-linejoin="miter" stroke="rgb(0%, 50%, 0%)" stroke-opacity="0.6" stroke-miterlimit="10" d="M 350 350 L 355.039062 307.160156 L 324.363281 311.640625 Z M 350 350 " transform="matrix(1, 0, 0, -1, 0, 700)"/>
<path fill="none" stroke-width="2" stroke-linecap="butt" stroke-linejoin="miter" stroke="rgb(0%, 50%, 0%)" stroke-opacity="0.6" stroke-miterlimit="10" d="M 350 350 L 324.363281 311.640625 L 301.714844 340.898438 Z M 350 350 " transform="matrix(1, 0, 0, -1, 0, 700)"/>
<path fill="none" stroke-width="2" stroke-linecap="butt" stroke-linejoin="miter" stroke="rgb(0%, 50%, 0%)" stroke-opacity="0.6" stroke-miterlimit="10" d="M 350 350 L 301.714844 340.898438 L 309.753906 383.140625 Z M 350 350 " transform="matrix(1, 0, 0, -1, 0, 700)"/>
<path fill="none" stroke-width="2" stroke-linecap="butt" stroke-linejoin="miter" stroke="rgb(0%, 50%, 0%)" stroke-opacity="0.6" stroke-miterlimit="10" d="M 350 350 L 309.753906 383.140625 L 353.597656 405.019531 Z M 350 350 " transform="matrix(1, 0, 0, -1, 0, 700)"/>
<path fill="none" stroke-width="2" stroke-linecap="butt" stroke-linejoin="miter" stroke="rgb(0%, 50%, 0%)" stroke-opacity="0.6" stroke-miterlimit="10" d="M 350 350 L 353.597656 405.019531 L 401.21875 377.503906 Z M 350 350 " transform="matrix(1, 0, 0, -1, 0, 700)"/>
<path fill="none" stroke-width="2" stroke-linecap="butt" stroke-linejoin="miter" stroke="rgb(0%, 50%, 0%)" stroke-opacity="0.6" stroke-miterlimit="10" d="M 350 350 L 401.21875 377.503906 L 401.140625 316.503906 Z M 350 350 " transform="matrix(1, 0, 0, -1, 0, 700)"/>
<path fill="none" stroke-width="2" stroke-linecap="butt" stroke-linejoin="miter" stroke="rgb(0%, 50%, 0%)" stroke-opacity="0.6" stroke-miterlimit="10" d="M 350 350 L 401.140625 316.503906 L 341.253906 286.464844 Z M 350 350 " transform="matrix(1, 0, 0, -1, 0, 700)"/>
<path fill="none" stroke-width="2" stroke-linecap="butt" stroke-linejoin="miter" stroke="rgb(0%, 50%, 0%)" stroke-opacity="0.6" stroke-miterlimit="10" d="M 350 350 L 341.253906 286.464844 L 285.042969 333.039062 Z M 350 350 " transform="matrix(1, 0, 0, -1, 0, 700)"/>
<path fill="none" stroke-width="2" stroke-linecap="butt" stroke-linejoin="miter" stroke="rgb(0%, 50%, 0%)" stroke-opacity="0.6" stroke-miterlimit="10" d="M 350 350 L 285.042969 333.039062 L 310.371094 407.867188 Z M 350 350 " transform="matrix(1, 0, 0, -1, 0, 700)"/>
<path fill="none" stroke-width="2" stroke-linecap="butt" stroke-linejoin="miter" stroke="rgb(0%, 50%, 0%)" stroke-opacity="0.6" stroke-miterlimit="10" d="M 350 350 L 310.371094 407.867188 L 395.371094 407.363281 Z M 350 350 " transform="matrix(1, 0, 0, -1, 0, 700)"/>
<path fill="none" stroke-width="2" stroke-linecap="butt" stroke-linejoin="miter" stroke="rgb(0%, 50%, 0%)" stroke-opacity="0.6" stroke-miterlimit="10" d="M 350 350 L 395.371094 407.363281 L 419.855469 319.71875 Z M 350 350 " transform="matrix(1, 0, 0, -1, 0, 700)"/>
<path fill="none" stroke-width="2" stroke-linecap="butt" stroke-linejoin="miter" stroke="rgb(0%, 50%, 0%)" stroke-opacity="0.6" stroke-miterlimit="10" d="M 350 350 L 419.855469 319.71875 L 367.871094 320.914062 Z M 350 350 " transform="matrix(1, 0, 0, -1, 0, 700)"/>
<path fill="none" stroke-width="4" stroke-linecap="butt" stroke-linejoin="miter" stroke="rgb(0%, 0%, 0%)" stroke-opacity="1" stroke-miterlimit="10" d="M 379.136719 350 C 379.136719 333.910156 366.089844 320.863281 350 320.863281 C 333.910156 320.863281 320.863281 333.910156 320.863281 350 C 320.863281 366.089844 333.910156 379.136719 350 379.136719 C 366.089844 379.136719 379.136719 366.089844 379.136719 350 " transform="matrix(1, 0, 0, -1, 0, 700)"/>
<path fill-rule="nonzero" fill="rgb(0%, 0%, 0%)" fill-opacity="0.3" d="M 379.136719 350 C 379.136719 366.089844 366.089844 379.136719 350 379.136719 C 333.910156 379.136719 320.863281 366.089844 320.863281 350 C 320.863281 333.910156 333.910156 320.863281 350 320.863281 C 366.089844 320.863281 379.136719 333.910156 379.136719 350 "/>
<path fill="none" stroke-width="2" stroke-linecap="butt" stroke-linejoin="miter" stroke="rgb(69.999695%, 29.998779%, 9.999084%)" stroke-opacity="1" stroke-miterlimit="10" d="M 389.136719 350 C 389.136719 343.332031 379.136719 343.332031 379.136719 350 C 379.136719 356.667969 389.136719 356.667969 389.136719 350 " transform="matrix(1, 0, 0, -1, 0, 700)"/>
<path fill-rule="nonzero" fill="rgb(69.999695%, 29.998779%, 9.999084%)" fill-opacity="0.3" d="M 389.136719 350 C 389.136719 356.667969 379.136719 356.667969 379.136719 350 C 379.136719 343.332031 389.136719 343.332031 389.136719 350 "/>
<path fill="none" stroke-width="2" stroke-linecap="butt" stroke-linejoin="miter" stroke="rgb(81.999207%, 40.99884%, 10.998535%)" stroke-opacity="1" stroke-miterlimit="10" d="M 392.792969 337.015625 C 392.792969 332.597656 389.210938 329.015625 384.792969 329.015625 C 380.375 329.015625 376.792969 332.597656 376.792969 337.015625 C 376.792969 341.433594 380.375 345.015625 384.792969 345.015625 C 389.210938 345.015625 392.792969 341.433594 392.792969 337.015625 " transform="matrix(1, 0, 0, -1, 0, 700)"/>
<path fill-rule="nonzero" fill="rgb(81.999207%, 40.99884%, 10.998535%)" fill-opacity="0.3" d="M 392.792969 362.984375 C 392.792969 367.402344 389.210938 370.984375 384.792969 370.984375 C 380.375 370.984375 376.792969 367.402344 376.792969 362.984375 C 376.792969 358.566406 380.375 354.984375 384.792969 354.984375 C 389.210938 354.984375 392.792969 358.566406 392.792969 362.984375 "/>
<path fill="none" stroke-width="2" stroke-linecap="butt" stroke-linejoin="miter" stroke="rgb(100%, 53.999329%, 0%)" stroke-opacity="1" stroke-miterlimit="10" d="M 387.546875 319.898438 C 387.546875 313.824219 382.625 308.898438 376.546875 308.898438 C 370.472656 308.898438 365.546875 313.824219 365.546875 319.898438 C 365.546875 325.972656 370.472656 330.898438 376.546875 330.898438 C 382.625 330.898438 387.546875 325.972656 387.546875 319.898438 " transform="matrix(1, 0, 0, -1, 0, 700)"/>
<path fill-rule="nonzero" fill="rgb(100%, 53.999329%, 0%)" fill-opacity="0.3" d="M 387.546875 380.101562 C 387.546875 386.175781 382.625 391.101562 376.546875 391.101562 C 370.472656 391.101562 365.546875 386.175781 365.546875 380.101562 C 365.546875 374.027344 370.472656 369.101562 376.546875 369.101562 C 382.625 369.101562 387.546875 374.027344 387.546875 380.101562 "/>
<path fill="none" stroke-width="2" stroke-linecap="butt" stroke-linejoin="miter" stroke="rgb(100%, 6.999207%, 56.999207%)" stroke-opacity="1" stroke-miterlimit="10" d="M 369.039062 307.160156 C 369.039062 299.425781 362.769531 293.160156 355.039062 293.160156 C 347.304688 293.160156 341.039062 299.425781 341.039062 307.160156 C 341.039062 314.890625 347.304688 321.160156 355.039062 321.160156 C 362.769531 321.160156 369.039062 314.890625 369.039062 307.160156 " transform="matrix(1, 0, 0, -1, 0, 700)"/>
<path fill-rule="nonzero" fill="rgb(100%, 6.999207%, 56.999207%)" fill-opacity="0.3" d="M 369.039062 392.839844 C 369.039062 400.574219 362.769531 406.839844 355.039062 406.839844 C 347.304688 406.839844 341.039062 400.574219 341.039062 392.839844 C 341.039062 385.109375 347.304688 378.839844 355.039062 378.839844 C 362.769531 378.839844 369.039062 385.109375 369.039062 392.839844 "/>
<path fill="none" stroke-width="2" stroke-linecap="butt" stroke-linejoin="miter" stroke="rgb(0%, 0%, 50%)" stroke-opacity="1" stroke-miterlimit="10" d="M 341.363281 311.640625 C 341.363281 302.253906 333.753906 294.640625 324.363281 294.640625 C 314.976562 294.640625 307.363281 302.253906 307.363281 311.640625 C 307.363281 321.03125 314.976562 328.640625 324.363281 328.640625 C 333.753906 328.640625 341.363281 321.03125 341.363281 311.640625 " transform="matrix(1, 0, 0, -1, 0, 700)"/>
<path fill-rule="nonzero" fill="rgb(0%, 0%, 50%)" fill-opacity="0.3" d="M 341.363281 388.359375 C 341.363281 397.746094 333.753906 405.359375 324.363281 405.359375 C 314.976562 405.359375 307.363281 397.746094 307.363281 388.359375 C 307.363281 378.96875 314.976562 371.359375 324.363281 371.359375 C 333.753906 371.359375 341.363281 378.96875 341.363281 388.359375 "/>
<path fill="none" stroke-width="2" stroke-linecap="butt" stroke-linejoin="miter" stroke="rgb(0%, 50%, 50%)" stroke-opacity="1" stroke-miterlimit="10" d="M 321.714844 340.898438 C 321.714844 329.855469 312.757812 320.898438 301.714844 320.898438 C 290.667969 320.898438 281.714844 329.855469 281.714844 340.898438 C 281.714844 351.945312 290.667969 360.898438 301.714844 360.898438 C 312.757812 360.898438 321.714844 351.945312 321.714844 340.898438 " transform="matrix(1, 0, 0, -1, 0, 700)"/>
<path fill-rule="nonzero" fill="rgb(0%, 50%, 50%)" fill-opacity="0.3" d="M 321.714844 359.101562 C 321.714844 370.144531 312.757812 379.101562 301.714844 379.101562 C 290.667969 379.101562 281.714844 370.144531 281.714844 359.101562 C 281.714844 348.054688 290.667969 339.101562 301.714844 339.101562 C 312.757812 339.101562 321.714844 348.054688 321.714844 359.101562 "/>
<path fill="none" stroke-width="2" stroke-linecap="butt" stroke-linejoin="miter" stroke="rgb(50%, 0%, 50%)" stroke-opacity="1" stroke-miterlimit="10" d="M 332.753906 383.140625 C 332.753906 370.4375 322.457031 360.140625 309.753906 360.140625 C 297.050781 360.140625 286.753906 370.4375 286.753906 383.140625 C 286.753906 395.84375 297.050781 406.140625 309.753906 406.140625 C 322.457031 406.140625 332.753906 395.84375 332.753906 383.140625 " transform="matrix(1, 0, 0, -1, 0, 700)"/>
<path fill-rule="nonzero" fill="rgb(50%, 0%, 50%)" fill-opacity="0.3" d="M 332.753906 316.859375 C 332.753906 329.5625 322.457031 339.859375 309.753906 339.859375 C 297.050781 339.859375 286.753906 329.5625 286.753906 316.859375 C 286.753906 304.15625 297.050781 293.859375 309.753906 293.859375 C 322.457031 293.859375 332.753906 304.15625 332.753906 316.859375 "/>
<path fill="none" stroke-width="2" stroke-linecap="butt" stroke-linejoin="miter" stroke="rgb(0%, 50%, 0%)" stroke-opacity="1" stroke-miterlimit="10" d="M 379.597656 405.019531 C 379.597656 390.660156 367.957031 379.019531 353.597656 379.019531 C 339.238281 379.019531 327.597656 390.660156 327.597656 405.019531 C 327.597656 419.378906 339.238281 431.019531 353.597656 431.019531 C 367.957031 431.019531 379.597656 419.378906 379.597656 405.019531 " transform="matrix(1, 0, 0, -1, 0, 700)"/>
<path fill-rule="nonzero" fill="rgb(0%, 50%, 0%)" fill-opacity="0.3" d="M 379.597656 294.980469 C 379.597656 309.339844 367.957031 320.980469 353.597656 320.980469 C 339.238281 320.980469 327.597656 309.339844 327.597656 294.980469 C 327.597656 280.621094 339.238281 268.980469 353.597656 268.980469 C 367.957031 268.980469 379.597656 280.621094 379.597656 294.980469 "/>
<path fill="none" stroke-width="2" stroke-linecap="butt" stroke-linejoin="miter" stroke="rgb(50%, 0%, 0%)" stroke-opacity="1" stroke-miterlimit="10" d="M 430.21875 377.503906 C 430.21875 361.484375 417.234375 348.503906 401.21875 348.503906 C 385.203125 348.503906 372.21875 361.484375 372.21875 377.503906 C 372.21875 393.519531 385.203125 406.503906 401.21875 406.503906 C 417.234375 406.503906 430.21875 393.519531 430.21875 377.503906 " transform="matrix(1, 0, 0, -1, 0, 700)"/>
<path fill-rule="nonzero" fill="rgb(50%, 0%, 0%)" fill-opacity="0.3" d="M 430.21875 322.496094 C 430.21875 338.515625 417.234375 351.496094 401.21875 351.496094 C 385.203125 351.496094 372.21875 338.515625 372.21875 322.496094 C 372.21875 306.480469 385.203125 293.496094 401.21875 293.496094 C 417.234375 293.496094 430.21875 306.480469 430.21875 322.496094 "/>
<path fill="none" stroke-width="2" stroke-linecap="butt" stroke-linejoin="miter" stroke="rgb(100%, 0%, 100%)" stroke-opacity="1" stroke-miterlimit="10" d="M 433.140625 316.503906 C 433.140625 298.828125 418.816406 284.503906 401.140625 284.503906 C 383.46875 284.503906 369.140625 298.828125 369.140625 316.503906 C 369.140625 334.175781 383.46875 348.503906 401.140625 348.503906 C 418.816406 348.503906 433.140625 334.175781 433.140625 316.503906 " transform="matrix(1, 0, 0, -1, 0, 700)"/>
<path fill-rule="nonzero" fill="rgb(100%, 0%, 100%)" fill-opacity="0.3" d="M 433.140625 383.496094 C 433.140625 401.171875 418.816406 415.496094 401.140625 415.496094 C 383.46875 415.496094 369.140625 401.171875 369.140625 383.496094 C 369.140625 365.824219 383.46875 351.496094 401.140625 351.496094 C 418.816406 351.496094 433.140625 365.824219 433.140625 383.496094 "/>
<path fill="none" stroke-width="2" stroke-linecap="butt" stroke-linejoin="miter" stroke="rgb(0%, 100%, 100%)" stroke-opacity="1" stroke-miterlimit="10" d="M 376.253906 286.464844 C 376.253906 267.132812 360.582031 251.464844 341.253906 251.464844 C 321.925781 251.464844 306.253906 267.132812 306.253906 286.464844 C 306.253906 305.792969 321.925781 321.464844 341.253906 321.464844 C 360.582031 321.464844 376.253906 305.792969 376.253906 286.464844 " transform="matrix(1, 0, 0, -1, 0, 700)"/>
<path fill-rule="nonzero" fill="rgb(0%, 100%, 100%)" fill-opacity="0.3" d="M 376.253906 413.535156 C 376.253906 432.867188 360.582031 448.535156 341.253906 448.535156 C 321.925781 448.535156 306.253906 432.867188 306.253906 413.535156 C 306.253906 394.207031 321.925781 378.535156 341.253906 378.535156 C 360.582031 378.535156 376.253906 394.207031 376.253906 413.535156 "/>
<path fill="none" stroke-width="2" stroke-linecap="butt" stroke-linejoin="miter" stroke="rgb(100%, 100%, 0%)" stroke-opacity="1" stroke-miterlimit="10" d="M 323.042969 333.039062 C 323.042969 312.050781 306.027344 295.039062 285.042969 295.039062 C 264.054688 295.039062 247.042969 312.050781 247.042969 333.039062 C 247.042969 354.023438 264.054688 371.039062 285.042969 371.039062 C 306.027344 371.039062 323.042969 354.023438 323.042969 333.039062 " transform="matrix(1, 0, 0, -1, 0, 700)"/>
<path fill-rule="nonzero" fill="rgb(100%, 100%, 0%)" fill-opacity="0.3" d="M 323.042969 366.960938 C 323.042969 387.949219 306.027344 404.960938 285.042969 404.960938 C 264.054688 404.960938 247.042969 387.949219 247.042969 366.960938 C 247.042969 345.976562 264.054688 328.960938 285.042969 328.960938 C 306.027344 328.960938 323.042969 345.976562 323.042969 366.960938 "/>
<path fill="none" stroke-width="2" stroke-linecap="butt" stroke-linejoin="miter" stroke="rgb(0%, 0%, 100%)" stroke-opacity="1" stroke-miterlimit="10" d="M 351.371094 407.867188 C 351.371094 385.222656 333.015625 366.867188 310.371094 366.867188 C 287.726562 366.867188 269.371094 385.222656 269.371094 407.867188 C 269.371094 430.511719 287.726562 448.867188 310.371094 448.867188 C 333.015625 448.867188 351.371094 430.511719 351.371094 407.867188 " transform="matrix(1, 0, 0, -1, 0, 700)"/>
<path fill-rule="nonzero" fill="rgb(0%, 0%, 100%)" fill-opacity="0.3" d="M 351.371094 292.132812 C 351.371094 314.777344 333.015625 333.132812 310.371094 333.132812 C 287.726562 333.132812 269.371094 314.777344 269.371094 292.132812 C 269.371094 269.488281 287.726562 251.132812 310.371094 251.132812 C 333.015625 251.132812 351.371094 269.488281 351.371094 292.132812 "/>
<path fill="none" stroke-width="2" stroke-linecap="butt" stroke-linejoin="miter" stroke="rgb(0%, 100%, 0%)" stroke-opacity="1" stroke-miterlimit="10" d="M 439.371094 407.363281 C 439.371094 383.0625 419.667969 363.363281 395.371094 363.363281 C 371.070312 363.363281 351.371094 383.0625 351.371094 407.363281 C 351.371094 431.664062 371.070312 451.363281 395.371094 451.363281 C 419.667969 451.363281 439.371094 431.664062 439.371094 407.363281 " transform="matrix(1, 0, 0, -1, 0, 700)"/>
<path fill-rule="nonzero" fill="rgb(0%, 100%, 0%)" fill-opacity="0.3" d="M 439.371094 292.636719 C 439.371094 316.9375 419.667969 336.636719 395.371094 336.636719 C 371.070312 336.636719 351.371094 316.9375 351.371094 292.636719 C 351.371094 268.335938 371.070312 248.636719 395.371094 248.636719 C 419.667969 248.636719 439.371094 268.335938 439.371094 292.636719 "/>
<path fill="none" stroke-width="2" stroke-linecap="butt" stroke-linejoin="miter" stroke="rgb(100%, 0%, 0%)" stroke-opacity="1" stroke-miterlimit="10" d="M 466.855469 319.71875 C 466.855469 293.761719 445.8125 272.71875 419.855469 272.71875 C 393.898438 272.71875 372.855469 293.761719 372.855469 319.71875 C 372.855469 345.675781 393.898438 366.71875 419.855469 366.71875 C 445.8125 366.71875 466.855469 345.675781 466.855469 319.71875 " transform="matrix(1, 0, 0, -1, 0, 700)"/>
<path fill-rule="nonzero" fill="rgb(100%, 0%, 0%)" fill-opacity="0.3" d="M 466.855469 380.28125 C 466.855469 406.238281 445.8125 427.28125 419.855469 427.28125 C 393.898438 427.28125 372.855469 406.238281 372.855469 380.28125 C 372.855469 354.324219 393.898438 333.28125 419.855469 333.28125 C 445.8125 333.28125 466.855469 354.324219 466.855469 380.28125 "/>
<path fill="none" stroke-width="2" stroke-linecap="butt" stroke-linejoin="miter" stroke="rgb(0%, 0%, 29.998779%)" stroke-opacity="1" stroke-miterlimit="10" d="M 372.871094 320.914062 C 372.871094 314.246094 362.871094 314.246094 362.871094 320.914062 C 362.871094 327.582031 372.871094 327.582031 372.871094 320.914062 " transform="matrix(1, 0, 0, -1, 0, 700)"/>
<path fill-rule="nonzero" fill="rgb(0%, 0%, 29.998779%)" fill-opacity="0.3" d="M 372.871094 379.085938 C 372.871094 385.753906 362.871094 385.753906 362.871094 379.085938 C 362.871094 372.417969 372.871094 372.417969 372.871094 379.085938 "/>
</svg>
