<?xml version="1.0" encoding="UTF-8"?>
<svg xmlns="http://www.w3.org/2000/svg" xmlns:xlink="http://www.w3.org/1999/xlink" width="700" height="700" viewBox="0 0 700 700">
<path fill="none" stroke-width="2" stroke-linecap="butt" stroke-linejoin="miter" stroke="rgb(0%, 50%, 0%)" stroke-opacity="0.6" stroke-miterlimit="10" d="M 350 350 L 384.71875 350 Z M 350 350 " transform="matrix(1, 0, 0, -1, 0, 700)"/>
<path fill="none" stroke-width="2" stroke-linecap="butt" stroke-linejoin="miter" stroke="rgb(0%, 50%, 0%)" stroke-opacity="0.6" stroke-miterlimit="10" d="M 350 350 L 384.71875 350 L 385.414062 337.019531 Z M 350 350 " transform="matrix(1, 0, 0, -1, 0, 700)"/>
<path fill="none" stroke-width="2" stroke-linecap="butt" stroke-linejoin="miter" stroke="rgb(0%, 50%, 0%)" stroke-opacity="0.6" stroke-miterlimit="10" d="M 350 350 L 385.414062 337.019531 L 377.335938 319.820312 Z M 350 350 " transform="matrix(1, 0, 0, -1, 0, 700)"/>
<path fill="none" stroke-width="2" stroke-linecap="butt" stroke-linejoin="miter" stroke="rgb(0%, 50%, 0%)" stroke-opacity="0.6" stroke-miterlimit="10" d="M 350 350 L 377.335938 319.820312 L 356.054688 306.703125 Z M 350 350 " transform="matrix(1, 0, 0, -1, 0, 700)"/>
<path fill="none" stroke-width="2" stroke-linecap="butt" stroke-linejoin="miter" stroke="rgb(0%, 50%, 0%)" stroke-opacity="0.6" stroke-miterlimit="10" d="M 350 350 L 356.054688 306.703125 L 325.273438 310.363281 Z M 350 350 " transform="matrix(1, 0, 0, -1, 0, 700)"/>
<path fill="none" stroke-width="2" stroke-linecap="butt" stroke-linejoin="miter" stroke="rgb(0%, 50%, 0%)" stroke-opacity="0.6" stroke-miterlimit="10" d="M 350 350 L 325.273438 310.363281 L 301.566406 338.769531 Z M 350 350 " transform="matrix(1, 0, 0, -1, 0, 700)"/>
<path fill="none" stroke-width="2" stroke-linecap="butt" stroke-linejoin="miter" stroke="rgb(0%, 50%, 0%)" stroke-opacity="0.6" stroke-miterlimit="10" d="M 350 350 L 301.566406 338.769531 L 307.609375 381.34375 Z M 350 350 " transform="matrix(1, 0, 0, -1, 0, 700)"/>
<path fill="none" stroke-width="2" stroke-linecap="butt" stroke-linejoin="miter" stroke="rgb(0%, 50%, 0%)" stroke-opacity="0.6" stroke-miterlimit="10" d="M 350 350 L 307.609375 381.34375 L 350.117188 405.71875 Z M 350 350 " transform="matrix(1, 0, 0, -1, 0, 700)"/>
<path fill="none" stroke-width="2" stroke-linecap="butt" stroke-linejoin="miter" stroke="rgb(0%, 50%, 0%)" stroke-opacity="0.6" stroke-miterlimit="10" d="M 350 350 L 350.117188 405.71875 L 399.523438 381.550781 Z M 350 350 " transform="matrix(1, 0, 0, -1, 0, 700)"/>
<path fill="none" stroke-width="2" stroke-linecap="butt" stroke-linejoin="miter" stroke="rgb(0%, 50%, 0%)" stroke-opacity="0.6" stroke-miterlimit="10" d="M 350 350 L 399.523438 381.550781 L 404.34375 320.742188 Z M 350 350 " transform="matrix(1, 0, 0, -1, 0, 700)"/>
<path fill="none" stroke-width="2" stroke-linecap="butt" stroke-linejoin="miter" stroke="rgb(0%, 50%, 0%)" stroke-opacity="0.6" stroke-miterlimit="10" d="M 350 350 L 404.34375 320.742188 L 347.464844 285.332031 Z M 350 350 " transform="matrix(1, 0, 0, -1, 0, 700)"/>
<path fill="none" stroke-width="2" stroke-linecap="butt" stroke-linejoin="miter" stroke="rgb(0%, 50%, 0%)" stroke-opacity="0.6" stroke-miterlimit="10" d="M 350 350 L 347.464844 285.332031 L 286.738281 325.839844 Z M 350 350 " transform="matrix(1, 0, 0, -1, 0, 700)"/>
<path fill="none" stroke-width="2" stroke-linecap="butt" stroke-linejoin="miter" stroke="rgb(0%, 50%, 0%)" stroke-opacity="0.6" stroke-miterlimit="10" d="M 350 350 L 286.738281 325.839844 L 303.28125 403.089844 Z M 350 350 " transform="matrix(1, 0, 0, -1, 0, 700)"/>
<path fill="none" stroke-width="2" stroke-linecap="butt" stroke-linejoin="miter" stroke="rgb(0%, 50%, 0%)" stroke-opacity="0.6" stroke-miterlimit="10" d="M 350 350 L 303.28125 403.089844 L 387.65625 413.375 Z M 350 350 " transform="matrix(1, 0, 0, -1, 0, 700)"/>
<path fill="none" stroke-width="2" stroke-linecap="butt" stroke-linejoin="miter" stroke="rgb(0%, 50%, 0%)" stroke-opacity="0.6" stroke-miterlimit="10" d="M 350 350 L 387.65625 413.375 L 424.058594 329.976562 Z M 350 350 " transform="matrix(1, 0, 0, -1, 0, 700)"/>
<path fill="none" stroke-width="2" stroke-linecap="butt" stroke-linejoin="miter" stroke="rgb(0%, 50%, 0%)" stroke-opacity="0.6" stroke-miterlimit="10" d="M 350 350 L 424.058594 329.976562 L 372.460938 323.523438 Z M 350 350 " transform="matrix(1, 0, 0, -1, 0, 700)"/>
<path fill="none" stroke-width="4" stroke-linecap="butt" stroke-linejoin="miter" stroke="rgb(0%, 0%, 0%)" stroke-opacity="1" stroke-miterlimit="10" d="M 379.71875 350 C 379.71875 333.585938 366.414062 320.28125 350 320.28125 C 333.585938 320.28125 320.28125 333.585938 320.28125 350 C 320.28125 366.414062 333.585938 379.71875 350 379.71875 C 366.414062 379.71875 379.71875 366.414062 379.71875 350 " transform="matrix(1, 0, 0, -1, 0, 700)"/>
<path fill-rule="nonzero" fill="rgb(0%, 0%, 0%)" fill-opacity="0.3" d="M 379.71875 350 C 379.71875 366.414062 366.414062 379.71875 350 379.71875 C 333.585938 379.71875 320.28125 366.414062 320.28125 350 C 320.28125 333.585938 333.585938 320.28125 350 320.28125 C 366.414062 320.28125 379.71875 333.585938 379.71875 350 "/>
<path fill="none" stroke-width="2" stroke-linecap="butt" stroke-linejoin="miter" stroke="rgb(69.999695%, 29.998779%, 9.999084%)" stroke-opacity="1" stroke-miterlimit="10" d="M 389.71875 350 C 389.71875 343.332031 379.71875 343.332031 379.71875 350 C 379.71875 356.667969 389.71875 356.667969 389.71875 350 " transform="matrix(1, 0, 0, -1, 0, 700)"/>
<path fill-rule="nonzero" fill="rgb(69.999695%, 29.998779%, 9.999084%)" fill-opacity="0.3" d="M 389.71875 350 C 389.71875 356.667969 379.71875 356.667969 379.71875 350 C 379.71875 343.332031 389.71875 343.332031 389.71875 350 "/>
<path fill="none" stroke-width="2" stroke-linecap="butt" stroke-linejoin="miter" stroke="rgb(81.999207%, 40.99884%, 10.998535%)" stroke-opacity="1" stroke-miterlimit="10" d="M 393.414062 337.019531 C 393.414062 332.601562 389.832031 329.019531 385.414062 329.019531 C 380.996094 329.019531 377.414062 332.601562 377.414062 337.019531 C 377.414062 341.4375 380.996094 345.019531 385.414062 345.019531 C 389.832031 345.019531 393.414062 341.4375 393.414062 337.019531 " transform="matrix(1, 0, 0, -1, 0, 700)"/>
<path fill-rule="nonzero" fill="rgb(81.999207%, 40.99884%, 10.998535%)" fill-opacity="0.3" d="M 393.414062 362.980469 C 393.414062 367.398438 389.832031 370.980469 385.414062 370.980469 C 380.996094 370.980469 377.414062 367.398438 377.414062 362.980469 C 377.414062 358.5625 380.996094 354.980469 385.414062 354.980469 C 389.832031 354.980469 393.414062 358.5625 393.414062 362.980469 "/>
<path fill="none" stroke-width="2" stroke-linecap="butt" stroke-linejoin="miter" stroke="rgb(100%, 53.999329%, 0%)" stroke-opacity="1" stroke-miterlimit="10" d="M 388.335938 319.820312 C 388.335938 313.746094 383.410156 308.820312 377.335938 308.820312 C 371.261719 308.820312 366.335938 313.746094 366.335938 319.820312 C 366.335938 325.898438 371.261719 330.820312 377.335938 330.820312 C 383.410156 330.820312 388.335938 325.898438 388.335938 319.820312 " transform="matrix(1, 0, 0, -1, 0, 700)"/>
<path fill-rule="nonzero" fill="rgb(100%, 53.999329%, 0%)" fill-opacity="0.3" d="M 388.335938 380.179688 C 388.335938 386.253906 383.410156 391.179688 377.335938 391.179688 C 371.261719 391.179688 366.335938 386.253906 366.335938 380.179688 C 366.335938 374.101562 371.261719 369.179688 377.335938 369.179688 C 383.410156 369.179688 388.335938 374.101562 388.335938 380.179688 "/>
<path fill="none" stroke-width="2" stroke-linecap="butt" stroke-linejoin="miter" stroke="rgb(100%, 6.999207%, 56.999207%)" stroke-opacity="1" stroke-miterlimit="10" d="M 370.054688 306.703125 C 370.054688 298.96875 363.789062 292.703125 356.054688 292.703125 C 348.324219 292.703125 342.054688 298.96875 342.054688 306.703125 C 342.054688 314.433594 348.324219 320.703125 356.054688 320.703125 C 363.789062 320.703125 370.054688 314.433594 370.054688 306.703125 " transform="matrix(1, 0, 0, -1, 0, 700)"/>
<path fill-rule="nonzero" fill="rgb(100%, 6.999207%, 56.999207%)" fill-opacity="0.3" d="M 370.054688 393.296875 C 370.054688 401.03125 363.789062 407.296875 356.054688 407.296875 C 348.324219 407.296875 342.054688 401.03125 342.054688 393.296875 C 342.054688 385.566406 348.324219 379.296875 356.054688 379.296875 C 363.789062 379.296875 370.054688 385.566406 370.054688 393.296875 "/>
<path fill="none" stroke-width="2" stroke-linecap="butt" stroke-linejoin="miter" stroke="rgb(0%, 0%, 50%)" stroke-opacity="1" stroke-miterlimit="10" d="M 342.273438 310.363281 C 342.273438 300.972656 334.660156 293.363281 325.273438 293.363281 C 315.882812 293.363281 308.273438 300.972656 308.273438 310.363281 C 308.273438 319.75 315.882812 327.363281 325.273438 327.363281 C 334.660156 327.363281 342.273438 319.75 342.273438 310.363281 " transform="matrix(1, 0, 0, -1, 0, 700)"/>
<path fill-rule="nonzero" fill="rgb(0%, 0%, 50%)" fill-opacity="0.3" d="M 342.273438 389.636719 C 342.273438 399.027344 334.660156 406.636719 325.273438 406.636719 C 315.882812 406.636719 308.273438 399.027344 308.273438 389.636719 C 308.273438 380.25 315.882812 372.636719 325.273438 372.636719 C 334.660156 372.636719 342.273438 380.25 342.273438 389.636719 "/>
<path fill="none" stroke-width="2" stroke-linecap="butt" stroke-linejoin="miter" stroke="rgb(0%, 50%, 50%)" stroke-opacity="1" stroke-miterlimit="10" d="M 321.566406 338.769531 C 321.566406 327.722656 312.613281 318.769531 301.566406 318.769531 C 290.519531 318.769531 281.566406 327.722656 281.566406 338.769531 C 281.566406 349.816406 290.519531 358.769531 301.566406 358.769531 C 312.613281 358.769531 321.566406 349.816406 321.566406 338.769531 " transform="matrix(1, 0, 0, -1, 0, 700)"/>
<path fill-rule="nonzero" fill="rgb(0%, 50%, 50%)" fill-opacity="0.3" d="M 321.566406 361.230469 C 321.566406 372.277344 312.613281 381.230469 301.566406 381.230469 C 290.519531 381.230469 281.566406 372.277344 281.566406 361.230469 C 281.566406 350.183594 290.519531 341.230469 301.566406 341.230469 C 312.613281 341.230469 321.566406 350.183594 321.566406 361.230469 "/>
<path fill="none" stroke-width="2" stroke-linecap="butt" stroke-linejoin="miter" stroke="rgb(50%, 0%, 50%)" stroke-opacity="1" stroke-miterlimit="10" d="M 330.609375 381.34375 C 330.609375 368.640625 320.3125 358.34375 307.609375 358.34375 C 294.90625 358.34375 284.609375 368.640625 284.609375 381.34375 C 284.609375 394.046875 294.90625 404.34375 307.609375 404.34375 C 320.3125 404.34375 330.609375 394.046875 330.609375 381.34375 " transform="matrix(1, 0, 0, -1, 0, 700)"/>
<path fill-rule="nonzero" fill="rgb(50%, 0%, 50%)" fill-opacity="0.3" d="M 330.609375 318.65625 C 330.609375 331.359375 320.3125 341.65625 307.609375 341.65625 C 294.90625 341.65625 284.609375 331.359375 284.609375 318.65625 C 284.609375 305.953125 294.90625 295.65625 307.609375 295.65625 C 320.3125 295.65625 330.609375 305.953125 330.609375 318.65625 "/>
<path fill="none" stroke-width="2" stroke-linecap="butt" stroke-linejoin="miter" stroke="rgb(0%, 50%, 0%)" stroke-opacity="1" stroke-miterlimit="10" d="M 376.117188 405.71875 C 376.117188 391.359375 364.476562 379.71875 350.117188 379.71875 C 335.757812 379.71875 324.117188 391.359375 324.117188 405.71875 C 324.117188 420.078125 335.757812 431.71875 350.117188 431.71875 C 364.476562 431.71875 376.117188 420.078125 376.117188 405.71875 " transform="matrix(1, 0, 0, -1, 0, 700)"/>
<path fill-rule="nonzero" fill="rgb(0%, 50%, 0%)" fill-opacity="0.3" d="M 376.117188 294.28125 C 376.117188 308.640625 364.476562 320.28125 350.117188 320.28125 C 335.757812 320.28125 324.117188 308.640625 324.117188 294.28125 C 324.117188 279.921875 335.757812 268.28125 350.117188 268.28125 C 364.476562 268.28125 376.117188 279.921875 376.117188 294.28125 "/>
<path fill="none" stroke-width="2" stroke-linecap="butt" stroke-linejoin="miter" stroke="rgb(50%, 0%, 0%)" stroke-opacity="1" stroke-miterlimit="10" d="M 428.523438 381.550781 C 428.523438 365.535156 415.539062 352.550781 399.523438 352.550781 C 383.507812 352.550781 370.523438 365.535156 370.523438 381.550781 C 370.523438 397.566406 383.507812 410.550781 399.523438 410.550781 C 415.539062 410.550781 428.523438 397.566406 428.523438 381.550781 " transform="matrix(1, 0, 0, -1, 0, 700)"/>
<path fill-rule="nonzero" fill="rgb(50%, 0%, 0%)" fill-opacity="0.3" d="M 428.523438 318.449219 C 428.523438 334.464844 415.539062 347.449219 399.523438 347.449219 C 383.507812 347.449219 370.523438 334.464844 370.523438 318.449219 C 370.523438 302.433594 383.507812 289.449219 399.523438 289.449219 C 415.539062 289.449219 428.523438 302.433594 428.523438 318.449219 "/>
<path fill="none" stroke-width="2" stroke-linecap="butt" stroke-linejoin="miter" stroke="rgb(100%, 0%, 100%)" stroke-opacity="1" stroke-miterlimit="10" d="M 436.34375 320.742188 C 436.34375 303.070312 422.015625 288.742188 404.34375 288.742188 C 386.671875 288.742188 372.34375 303.070312 372.34375 320.742188 C 372.34375 338.414062 386.671875 352.742188 404.34375 352.742188 C 422.015625 352.742188 436.34375 338.414062 436.34375 320.742188 " transform="matrix(1, 0, 0, -1, 0, 700)"/>
<path fill-rule="nonzero" fill="rgb(100%, 0%, 100%)" fill-opacity="0.3" d="M 436.34375 379.257812 C 436.34375 396.929688 422.015625 411.257812 404.34375 411.257812 C 386.671875 411.257812 372.34375 396.929688 372.34375 379.257812 C 372.34375 361.585938 386.671875 347.257812 404.34375 347.257812 C 422.015625 347.257812 436.34375 361.585938 436.34375 379.257812 "/>
<path fill="none" stroke-width="2" stroke-linecap="butt" stroke-linejoin="miter" stroke="rgb(0%, 100%, 100%)" stroke-opacity="1" stroke-miterlimit="10" d="M 382.464844 285.332031 C 382.464844 266 366.796875 250.332031 347.464844 250.332031 C 328.136719 250.332031 312.464844 266 312.464844 285.332031 C 312.464844 304.660156 328.136719 320.332031 347.464844 320.332031 C 366.796875 320.332031 382.464844 304.660156 382.464844 285.332031 " transform="matrix(1, 0, 0, -1, 0, 700)"/>
<path fill-rule="nonzero" fill="rgb(0%, 100%, 100%)" fill-opacity="0.3" d="M 382.464844 414.667969 C 382.464844 434 366.796875 449.667969 347.464844 449.667969 C 328.136719 449.667969 312.464844 434 312.464844 414.667969 C 312.464844 395.339844 328.136719 379.667969 347.464844 379.667969 C 366.796875 379.667969 382.464844 395.339844 382.464844 414.667969 "/>
<path fill="none" stroke-width="2" stroke-linecap="butt" stroke-linejoin="miter" stroke="rgb(100%, 100%, 0%)" stroke-opacity="1" stroke-miterlimit="10" d="M 324.738281 325.839844 C 324.738281 304.855469 307.722656 287.839844 286.738281 287.839844 C 265.75 287.839844 248.738281 304.855469 248.738281 325.839844 C 248.738281 346.828125 265.75 363.839844 286.738281 363.839844 C 307.722656 363.839844 324.738281 346.828125 324.738281 325.839844 " transform="matrix(1, 0, 0, -1, 0, 700)"/>
<path fill-rule="nonzero" fill="rgb(100%, 100%, 0%)" fill-opacity="0.3" d="M 324.738281 374.160156 C 324.738281 395.144531 307.722656 412.160156 286.738281 412.160156 C 265.75 412.160156 248.738281 395.144531 248.738281 374.160156 C 248.738281 353.171875 265.75 336.160156 286.738281 336.160156 C 307.722656 336.160156 324.738281 353.171875 324.738281 374.160156 "/>
<path fill="none" stroke-width="2" stroke-linecap="butt" stroke-linejoin="miter" stroke="rgb(0%, 0%, 100%)" stroke-opacity="1" stroke-miterlimit="10" d="M 344.28125 403.089844 C 344.28125 380.445312 325.925781 362.089844 303.28125 362.089844 C 280.636719 362.089844 262.28125 380.445312 262.28125 403.089844 C 262.28125 425.734375 280.636719 444.089844 303.28125 444.089844 C 325.925781 444.089844 344.28125 425.734375 344.28125 403.089844 " transform="matrix(1, 0, 0, -1, 0, 700)"/>
<path fill-rule="nonzero" fill="rgb(0%, 0%, 100%)" fill-opacity="0.3" d="M 344.28125 296.910156 C 344.28125 319.554688 325.925781 337.910156 303.28125 337.910156 C 280.636719 337.910156 262.28125 319.554688 262.28125 296.910156 C 262.28125 274.265625 280.636719 255.910156 303.28125 255.910156 C 325.925781 255.910156 344.28125 274.265625 344.28125 296.910156 "/>
<path fill="none" stroke-width="2" stroke-linecap="butt" stroke-linejoin="miter" stroke="rgb(0%, 100%, 0%)" stroke-opacity="1" stroke-miterlimit="10" d="M 431.65625 413.375 C 431.65625 389.074219 411.957031 369.375 387.65625 369.375 C 363.355469 369.375 343.65625 389.074219 343.65625 413.375 C 343.65625 437.675781 363.355469 457.375 387.65625 457.375 C 411.957031 457.375 431.65625 437.675781 431.65625 413.375 " transform="matrix(1, 0, 0, -1, 0, 700)"/>
<path fill-rule="nonzero" fill="rgb(0%, 100%, 0%)" fill-opacity="0.3" d="M 431.65625 286.625 C 431.65625 310.925781 411.957031 330.625 387.65625 330.625 C 363.355469 330.625 343.65625 310.925781 343.65625 286.625 C 343.65625 262.324219 363.355469 242.625 387.65625 242.625 C 411.957031 242.625 431.65625 262.324219 431.65625 286.625 "/>
<path fill="none" stroke-width="2" stroke-linecap="butt" stroke-linejoin="miter" stroke="rgb(100%, 0%, 0%)" stroke-opacity="1" stroke-miterlimit="10" d="M 471.058594 329.976562 C 471.058594 304.015625 450.015625 282.976562 424.058594 282.976562 C 398.101562 282.976562 377.058594 304.015625 377.058594 329.976562 C 377.058594 355.933594 398.101562 376.976562 424.058594 376.976562 C 450.015625 376.976562 471.058594 355.933594 471.058594 329.976562 " transform="matrix(1, 0, 0, -1, 0, 700)"/>
<path fill-rule="nonzero" fill="rgb(100%, 0%, 0%)" fill-opacity="0.3" d="M 471.058594 370.023438 C 471.058594 395.984375 450.015625 417.023438 424.058594 417.023438 C 398.101562 417.023438 377.058594 395.984375 377.058594 370.023438 C 377.058594 344.066406 398.101562 323.023438 424.058594 323.023438 C 450.015625 323.023438 471.058594 344.066406 471.058594 370.023438 "/>
<path fill="none" stroke-width="2" stroke-linecap="butt" stroke-linejoin="miter" stroke="rgb(0%, 0%, 29.998779%)" stroke-opacity="1" stroke-miterlimit="10" d="M 377.460938 323.523438 C 377.460938 316.859375 367.460938 316.859375 367.460938 323.523438 C 367.460938 330.191406 377.460938 330.191406 377.460938 323.523438 " transform="matrix(1, 0, 0, -1, 0, 700)"/>
<path fill-rule="nonzero" fill="rgb(0%, 0%, 29.998779%)" fill-opacity="0.3" d="M 377.460938 376.476562 C 377.460938 383.140625 367.460938 383.140625 367.460938 376.476562 C 367.460938 369.808594 377.460938 369.808594 377.460938 376.476562 "/>
</svg>
