<?xml version="1.0" encoding="UTF-8"?>
<svg xmlns="http://www.w3.org/2000/svg" xmlns:xlink="http://www.w3.org/1999/xlink" width="700" height="700" viewBox="0 0 700 700">
<path fill="none" stroke-width="2" stroke-linecap="butt" stroke-linejoin="miter" stroke="rgb(0%, 50%, 0%)" stroke-opacity="0.6" stroke-miterlimit="10" d="M 350 350 L 385.3125 350 Z M 350 350 " transform="matrix(1, 0, 0, -1, 0, 700)"/>
<path fill="none" stroke-width="2" stroke-linecap="butt" stroke-linejoin="miter" stroke="rgb(0%, 50%, 0%)" stroke-opacity="0.6" stroke-miterlimit="10" d="M 350 350 L 385.3125 350 L 386.046875 337.019531 Z M 350 350 " transform="matrix(1, 0, 0, -1, 0, 700)"/>
<path fill="none" stroke-width="2" stroke-linecap="butt" stroke-linejoin="miter" stroke="rgb(0%, 50%, 0%)" stroke-opacity="0.6" stroke-miterlimit="10" d="M 350 350 L 386.046875 337.019531 L 378.132812 319.746094 Z M 350 350 " transform="matrix(1, 0, 0, -1, 0, 700)"/>
<path fill="none" stroke-width="2" stroke-linecap="butt" stroke-linejoin="miter" stroke="rgb(0%, 50%, 0%)" stroke-opacity="0.6" stroke-miterlimit="10" d="M 350 350 L 378.132812 319.746094 L 357.085938 306.257812 Z M 350 350 " transform="matrix(1, 0, 0, -1, 0, 700)"/>
<path fill="none" stroke-width="2" stroke-linecap="butt" stroke-linejoin="miter" stroke="rgb(0%, 50%, 0%)" stroke-opacity="0.6" stroke-miterlimit="10" d="M 350 350 L 357.085938 306.257812 L 326.21875 309.097656 Z M 350 350 " transform="matrix(1, 0, 0, -1, 0, 700)"/>
<path fill="none" stroke-width="2" stroke-linecap="butt" stroke-linejoin="miter" stroke="rgb(0%, 50%, 0%)" stroke-opacity="0.6" stroke-miterlimit="10" d="M 350 350 L 326.21875 309.097656 L 301.496094 336.628906 Z M 350 350 " transform="matrix(1, 0, 0, -1, 0, 700)"/>
<path fill="none" stroke-width="2" stroke-linecap="butt" stroke-linejoin="miter" stroke="rgb(0%, 50%, 0%)" stroke-opacity="0.6" stroke-miterlimit="10" d="M 350 350 L 301.496094 336.628906 L 305.550781 379.4375 Z M 350 350 " transform="matrix(1, 0, 0, -1, 0, 700)"/>
<path fill="none" stroke-width="2" stroke-linecap="butt" stroke-linejoin="miter" stroke="rgb(0%, 50%, 0%)" stroke-opacity="0.6" stroke-miterlimit="10" d="M 350 350 L 305.550781 379.4375 L 346.589844 406.210938 Z M 350 350 " transform="matrix(1, 0, 0, -1, 0, 700)"/>
<path fill="none" stroke-width="2" stroke-linecap="butt" stroke-linejoin="miter" stroke="rgb(0%, 50%, 0%)" stroke-opacity="0.6" stroke-miterlimit="10" d="M 350 350 L 346.589844 406.210938 L 397.53125 385.480469 Z M 350 350 " transform="matrix(1, 0, 0, -1, 0, 700)"/>
<path fill="none" stroke-width="2" stroke-linecap="butt" stroke-linejoin="miter" stroke="rgb(0%, 50%, 0%)" stroke-opacity="0.6" stroke-miterlimit="10" d="M 350 350 L 397.53125 385.480469 L 407.1875 325.246094 Z M 350 350 " transform="matrix(1, 0, 0, -1, 0, 700)"/>
<path fill="none" stroke-width="2" stroke-linecap="butt" stroke-linejoin="miter" stroke="rgb(0%, 50%, 0%)" stroke-opacity="0.6" stroke-miterlimit="10" d="M 350 350 L 407.1875 325.246094 L 353.777344 284.796875 Z M 350 350 " transform="matrix(1, 0, 0, -1, 0, 700)"/>
<path fill="none" stroke-width="2" stroke-linecap="butt" stroke-linejoin="miter" stroke="rgb(0%, 50%, 0%)" stroke-opacity="0.6" stroke-miterlimit="10" d="M 350 350 L 353.777344 284.796875 L 289.203125 318.847656 Z M 350 350 " transform="matrix(1, 0, 0, -1, 0, 700)"/>
<path fill="none" stroke-width="2" stroke-linecap="butt" stroke-linejoin="miter" stroke="rgb(0%, 50%, 0%)" stroke-opacity="0.6" stroke-miterlimit="10" d="M 350 350 L 289.203125 318.847656 L 296.792969 397.480469 Z M 350 350 " transform="matrix(1, 0, 0, -1, 0, 700)"/>
<path fill="none" stroke-width="2" stroke-linecap="butt" stroke-linejoin="miter" stroke="rgb(0%, 50%, 0%)" stroke-opacity="0.6" stroke-miterlimit="10" d="M 350 350 L 296.792969 397.480469 L 379.191406 418.339844 Z M 350 350 " transform="matrix(1, 0, 0, -1, 0, 700)"/>
<path fill="none" stroke-width="2" stroke-linecap="butt" stroke-linejoin="miter" stroke="rgb(0%, 50%, 0%)" stroke-opacity="0.6" stroke-miterlimit="10" d="M 350 350 L 379.191406 418.339844 L 426.757812 340.761719 Z M 350 350 " transform="matrix(1, 0, 0, -1, 0, 700)"/>
<path fill="none" stroke-width="2" stroke-linecap="butt" stroke-linejoin="miter" stroke="rgb(0%, 50%, 0%)" stroke-opacity="0.6" stroke-miterlimit="10" d="M 350 350 L 426.757812 340.761719 L 376.65625 326.839844 Z M 350 350 " transform="matrix(1, 0, 0, -1, 0, 700)"/>
<path fill="none" stroke-width="4" stroke-linecap="butt" stroke-linejoin="miter" stroke="rgb(0%, 0%, 0%)" stroke-opacity="1" stroke-miterlimit="10" d="M 380.3125 350 C 380.3125 333.257812 366.742188 319.6875 350 319.6875 C 333.257812 319.6875 319.6875 333.257812 319.6875 350 C 319.6875 366.742188 333.257812 380.3125 350 380.3125 C 366.742188 380.3125 380.3125 366.742188 380.3125 350 " transform="matrix(1, 0, 0, -1, 0, 700)"/>
<path fill-rule="nonzero" fill="rgb(0%, 0%, 0%)" fill-opacity="0.3" d="M 380.3125 350 C 380.3125 366.742188 366.742188 380.3125 350 380.3125 C 333.257812 380.3125 319.6875 366.742188 319.6875 350 C 319.6875 333.257812 333.257812 319.6875 350 319.6875 C 366.742188 319.6875 380.3125 333.257812 380.3125 350 "/>
<path fill="none" stroke-width="2" stroke-linecap="butt" stroke-linejoin="miter" stroke="rgb(69.999695%, 29.998779%, 9.999084%)" stroke-opacity="1" stroke-miterlimit="10" d="M 390.3125 350 C 390.3125 343.332031 380.3125 343.332031 380.3125 350 C 380.3125 356.667969 390.3125 356.667969 390.3125 350 " transform="matrix(1, 0, 0, -1, 0, 700)"/>
<path fill-rule="nonzero" fill="rgb(69.999695%, 29.998779%, 9.999084%)" fill-opacity="0.3" d="M 390.3125 350 C 390.3125 356.667969 380.3125 356.667969 380.3125 350 C 380.3125 343.332031 390.3125 343.332031 390.3125 350 "/>
<path fill="none" stroke-width="2" stroke-linecap="butt" stroke-linejoin="miter" stroke="rgb(81.999207%, 40.99884%, 10.998535%)" stroke-opacity="1" stroke-miterlimit="10" d="M 394.046875 337.019531 C 394.046875 332.601562 390.464844 329.019531 386.046875 329.019531 C 381.628906 329.019531 378.046875 332.601562 378.046875 337.019531 C 378.046875 341.4375 381.628906 345.019531 386.046875 345.019531 C 390.464844 345.019531 394.046875 341.4375 394.046875 337.019531 " transform="matrix(1, 0, 0, -1, 0, 700)"/>
<path fill-rule="nonzero" fill="rgb(81.999207%, 40.99884%, 10.998535%)" fill-opacity="0.3" d="M 394.046875 362.980469 C 394.046875 367.398438 390.464844 370.980469 386.046875 370.980469 C 381.628906 370.980469 378.046875 367.398438 378.046875 362.980469 C 378.046875 358.5625 381.628906 354.980469 386.046875 354.980469 C 390.464844 354.980469 394.046875 358.5625 394.046875 362.980469 "/>
<path fill="none" stroke-width="2" stroke-linecap="butt" stroke-linejoin="miter" stroke="rgb(100%, 53.999329%, 0%)" stroke-opacity="1" stroke-miterlimit="10" d="M 389.132812 319.746094 C 389.132812 313.671875 384.210938 308.746094 378.132812 308.746094 C 372.058594 308.746094 367.132812 313.671875 367.132812 319.746094 C 367.132812 325.820312 372.058594 330.746094 378.132812 330.746094 C 384.210938 330.746094 389.132812 325.820312 389.132812 319.746094 " transform="matrix(1, 0, 0, -1, 0, 700)"/>
<path fill-rule="nonzero" fill="rgb(100%, 53.999329%, 0%)" fill-opacity="0.3" d="M 389.132812 380.253906 C 389.132812 386.328125 384.210938 391.253906 378.132812 391.253906 C 372.058594 391.253906 367.132812 386.328125 367.132812 380.253906 C 367.132812 374.179688 372.058594 369.253906 378.132812 369.253906 C 384.210938 369.253906 389.132812 374.179688 389.132812 380.253906 "/>
<path fill="none" stroke-width="2" stroke-linecap="butt" stroke-linejoin="miter" stroke="rgb(100%, 6.999207%, 56.999207%)" stroke-opacity="1" stroke-miterlimit="10" d="M 371.085938 306.257812 C 371.085938 298.523438 364.820312 292.257812 357.085938 292.257812 C 349.355469 292.257812 343.085938 298.523438 343.085938 306.257812 C 343.085938 313.988281 349.355469 320.257812 357.085938 320.257812 C 364.820312 320.257812 371.085938 313.988281 371.085938 306.257812 " transform="matrix(1, 0, 0, -1, 0, 700)"/>
<path fill-rule="nonzero" fill="rgb(100%, 6.999207%, 56.999207%)" fill-opacity="0.3" d="M 371.085938 393.742188 C 371.085938 401.476562 364.820312 407.742188 357.085938 407.742188 C 349.355469 407.742188 343.085938 401.476562 343.085938 393.742188 C 343.085938 386.011719 349.355469 379.742188 357.085938 379.742188 C 364.820312 379.742188 371.085938 386.011719 371.085938 393.742188 "/>
<path fill="none" stroke-width="2" stroke-linecap="butt" stroke-linejoin="miter" stroke="rgb(0%, 0%, 50%)" stroke-opacity="1" stroke-miterlimit="10" d="M 343.21875 309.097656 C 343.21875 299.710938 335.605469 292.097656 326.21875 292.097656 C 316.828125 292.097656 309.21875 299.710938 309.21875 309.097656 C 309.21875 318.488281 316.828125 326.097656 326.21875 326.097656 C 335.605469 326.097656 343.21875 318.488281 343.21875 309.097656 " transform="matrix(1, 0, 0, -1, 0, 700)"/>
<path fill-rule="nonzero" fill="rgb(0%, 0%, 50%)" fill-opacity="0.3" d="M 343.21875 390.902344 C 343.21875 400.289062 335.605469 407.902344 326.21875 407.902344 C 316.828125 407.902344 309.21875 400.289062 309.21875 390.902344 C 309.21875 381.511719 316.828125 373.902344 326.21875 373.902344 C 335.605469 373.902344 343.21875 381.511719 343.21875 390.902344 "/>
<path fill="none" stroke-width="2" stroke-linecap="butt" stroke-linejoin="miter" stroke="rgb(0%, 50%, 50%)" stroke-opacity="1" stroke-miterlimit="10" d="M 321.496094 336.628906 C 321.496094 325.582031 312.542969 316.628906 301.496094 316.628906 C 290.449219 316.628906 281.496094 325.582031 281.496094 336.628906 C 281.496094 347.671875 290.449219 356.628906 301.496094 356.628906 C 312.542969 356.628906 321.496094 347.671875 321.496094 336.628906 " transform="matrix(1, 0, 0, -1, 0, 700)"/>
<path fill-rule="nonzero" fill="rgb(0%, 50%, 50%)" fill-opacity="0.3" d="M 321.496094 363.371094 C 321.496094 374.417969 312.542969 383.371094 301.496094 383.371094 C 290.449219 383.371094 281.496094 374.417969 281.496094 363.371094 C 281.496094 352.328125 290.449219 343.371094 301.496094 343.371094 C 312.542969 343.371094 321.496094 352.328125 321.496094 363.371094 "/>
<path fill="none" stroke-width="2" stroke-linecap="butt" stroke-linejoin="miter" stroke="rgb(50%, 0%, 50%)" stroke-opacity="1" stroke-miterlimit="10" d="M 328.550781 379.4375 C 328.550781 366.734375 318.253906 356.4375 305.550781 356.4375 C 292.847656 356.4375 282.550781 366.734375 282.550781 379.4375 C 282.550781 392.140625 292.847656 402.4375 305.550781 402.4375 C 318.253906 402.4375 328.550781 392.140625 328.550781 379.4375 " transform="matrix(1, 0, 0, -1, 0, 700)"/>
<path fill-rule="nonzero" fill="rgb(50%, 0%, 50%)" fill-opacity="0.3" d="M 328.550781 320.5625 C 328.550781 333.265625 318.253906 343.5625 305.550781 343.5625 C 292.847656 343.5625 282.550781 333.265625 282.550781 320.5625 C 282.550781 307.859375 292.847656 297.5625 305.550781 297.5625 C 318.253906 297.5625 328.550781 307.859375 328.550781 320.5625 "/>
<path fill="none" stroke-width="2" stroke-linecap="butt" stroke-linejoin="miter" stroke="rgb(0%, 50%, 0%)" stroke-opacity="1" stroke-miterlimit="10" d="M 372.589844 406.210938 C 372.589844 391.851562 360.949219 380.210938 346.589844 380.210938 C 332.230469 380.210938 320.589844 391.851562 320.589844 406.210938 C 320.589844 420.570312 332.230469 432.210938 346.589844 432.210938 C 360.949219 432.210938 372.589844 420.570312 372.589844 406.210938 " transform="matrix(1, 0, 0, -1, 0, 700)"/>
<path fill-rule="nonzero" fill="rgb(0%, 50%, 0%)" fill-opacity="0.3" d="M 372.589844 293.789062 C 372.589844 308.148438 360.949219 319.789062 346.589844 319.789062 C 332.230469 319.789062 320.589844 308.148438 320.589844 293.789062 C 320.589844 279.429688 332.230469 267.789062 346.589844 267.789062 C 360.949219 267.789062 372.589844 279.429688 372.589844 293.789062 "/>
<path fill="none" stroke-width="2" stroke-linecap="butt" stroke-linejoin="miter" stroke="rgb(50%, 0%, 0%)" stroke-opacity="1" stroke-miterlimit="10" d="M 426.53125 385.480469 C 426.53125 369.460938 413.546875 356.480469 397.53125 356.480469 C 381.515625 356.480469 368.53125 369.460938 368.53125 385.480469 C 368.53125 401.496094 381.515625 414.480469 397.53125 414.480469 C 413.546875 414.480469 426.53125 401.496094 426.53125 385.480469 " transform="matrix(1, 0, 0, -1, 0, 700)"/>
<path fill-rule="nonzero" fill="rgb(50%, 0%, 0%)" fill-opacity="0.3" d="M 426.53125 314.519531 C 426.53125 330.539062 413.546875 343.519531 397.53125 343.519531 C 381.515625 343.519531 368.53125 330.539062 368.53125 314.519531 C 368.53125 298.503906 381.515625 285.519531 397.53125 285.519531 C 413.546875 285.519531 426.53125 298.503906 426.53125 314.519531 "/>
<path fill="none" stroke-width="2" stroke-linecap="butt" stroke-linejoin="miter" stroke="rgb(100%, 0%, 100%)" stroke-opacity="1" stroke-miterlimit="10" d="M 439.1875 325.246094 C 439.1875 307.574219 424.859375 293.246094 407.1875 293.246094 C 389.511719 293.246094 375.1875 307.574219 375.1875 325.246094 C 375.1875 342.921875 389.511719 357.246094 407.1875 357.246094 C 424.859375 357.246094 439.1875 342.921875 439.1875 325.246094 " transform="matrix(1, 0, 0, -1, 0, 700)"/>
<path fill-rule="nonzero" fill="rgb(100%, 0%, 100%)" fill-opacity="0.3" d="M 439.1875 374.753906 C 439.1875 392.425781 424.859375 406.753906 407.1875 406.753906 C 389.511719 406.753906 375.1875 392.425781 375.1875 374.753906 C 375.1875 357.078125 389.511719 342.753906 407.1875 342.753906 C 424.859375 342.753906 439.1875 357.078125 439.1875 374.753906 "/>
<path fill="none" stroke-width="2" stroke-linecap="butt" stroke-linejoin="miter" stroke="rgb(0%, 100%, 100%)" stroke-opacity="1" stroke-miterlimit="10" d="M 388.777344 284.796875 C 388.777344 265.464844 373.105469 249.796875 353.777344 249.796875 C 334.445312 249.796875 318.777344 265.464844 318.777344 284.796875 C 318.777344 304.125 334.445312 319.796875 353.777344 319.796875 C 373.105469 319.796875 388.777344 304.125 388.777344 284.796875 " transform="matrix(1, 0, 0, -1, 0, 700)"/>
<path fill-rule="nonzero" fill="rgb(0%, 100%, 100%)" fill-opacity="0.3" d="M 388.777344 415.203125 C 388.777344 434.535156 373.105469 450.203125 353.777344 450.203125 C 334.445312 450.203125 318.777344 434.535156 318.777344 415.203125 C 318.777344 395.875 334.445312 380.203125 353.777344 380.203125 C 373.105469 380.203125 388.777344 395.875 388.777344 415.203125 "/>
<path fill="none" stroke-width="2" stroke-linecap="butt" stroke-linejoin="miter" stroke="rgb(100%, 100%, 0%)" stroke-opacity="1" stroke-miterlimit="10" d="M 327.203125 318.847656 C 327.203125 297.859375 310.191406 280.847656 289.203125 280.847656 C 268.21875 280.847656 251.203125 297.859375 251.203125 318.847656 C 251.203125 339.832031 268.21875 356.847656 289.203125 356.847656 C 310.191406 356.847656 327.203125 339.832031 327.203125 318.847656 " transform="matrix(1, 0, 0, -1, 0, 700)"/>
<path fill-rule="nonzero" fill="rgb(100%, 100%, 0%)" fill-opacity="0.3" d="M 327.203125 381.152344 C 327.203125 402.140625 310.191406 419.152344 289.203125 419.152344 C 268.21875 419.152344 251.203125 402.140625 251.203125 381.152344 C 251.203125 360.167969 268.21875 343.152344 289.203125 343.152344 C 310.191406 343.152344 327.203125 360.167969 327.203125 381.152344 "/>
<path fill="none" stroke-width="2" stroke-linecap="butt" stroke-linejoin="miter" stroke="rgb(0%, 0%, 100%)" stroke-opacity="1" stroke-miterlimit="10" d="M 337.792969 397.480469 C 337.792969 374.835938 319.433594 356.480469 296.792969 356.480469 C 274.148438 356.480469 255.792969 374.835938 255.792969 397.480469 C 255.792969 420.125 274.148438 438.480469 296.792969 438.480469 C 319.433594 438.480469 337.792969 420.125 337.792969 397.480469 " transform="matrix(1, 0, 0, -1, 0, 700)"/>
<path fill-rule="nonzero" fill="rgb(0%, 0%, 100%)" fill-opacity="0.3" d="M 337.792969 302.519531 C 337.792969 325.164062 319.433594 343.519531 296.792969 343.519531 C 274.148438 343.519531 255.792969 325.164062 255.792969 302.519531 C 255.792969 279.875 274.148438 261.519531 296.792969 261.519531 C 319.433594 261.519531 337.792969 279.875 337.792969 302.519531 "/>
<path fill="none" stroke-width="2" stroke-linecap="butt" stroke-linejoin="miter" stroke="rgb(0%, 100%, 0%)" stroke-opacity="1" stroke-miterlimit="10" d="M 423.191406 418.339844 C 423.191406 394.039062 403.492188 374.339844 379.191406 374.339844 C 354.890625 374.339844 335.191406 394.039062 335.191406 418.339844 C 335.191406 442.640625 354.890625 462.339844 379.191406 462.339844 C 403.492188 462.339844 423.191406 442.640625 423.191406 418.339844 " transform="matrix(1, 0, 0, -1, 0, 700)"/>
<path fill-rule="nonzero" fill="rgb(0%, 100%, 0%)" fill-opacity="0.3" d="M 423.191406 281.660156 C 423.191406 305.960938 403.492188 325.660156 379.191406 325.660156 C 354.890625 325.660156 335.191406 305.960938 335.191406 281.660156 C 335.191406 257.359375 354.890625 237.660156 379.191406 237.660156 C 403.492188 237.660156 423.191406 257.359375 423.191406 281.660156 "/>
<path fill="none" stroke-width="2" stroke-linecap="butt" stroke-linejoin="miter" stroke="rgb(100%, 0%, 0%)" stroke-opacity="1" stroke-miterlimit="10" d="M 473.757812 340.761719 C 473.757812 314.804688 452.714844 293.761719 426.757812 293.761719 C 400.800781 293.761719 379.757812 314.804688 379.757812 340.761719 C 379.757812 366.71875 400.800781 387.761719 426.757812 387.761719 C 452.714844 387.761719 473.757812 366.71875 473.757812 340.761719 " transform="matrix(1, 0, 0, -1, 0, 700)"/>
<path fill-rule="nonzero" fill="rgb(100%, 0%, 0%)" fill-opacity="0.3" d="M 473.757812 359.238281 C 473.757812 385.195312 452.714844 406.238281 426.757812 406.238281 C 400.800781 406.238281 379.757812 385.195312 379.757812 359.238281 C 379.757812 333.28125 400.800781 312.238281 426.757812 312.238281 C 452.714844 312.238281 473.757812 333.28125 473.757812 359.238281 "/>
<path fill="none" stroke-width="2" stroke-linecap="butt" stroke-linejoin="miter" stroke="rgb(0%, 0%, 29.998779%)" stroke-opacity="1" stroke-miterlimit="10" d="M 381.65625 326.839844 C 381.65625 320.171875 371.65625 320.171875 371.65625 326.839844 C 371.65625 333.507812 381.65625 333.507812 381.65625 326.839844 " transform="matrix(1, 0, 0, -1, 0, 700)"/>
<path fill-rule="nonzero" fill="rgb(0%, 0%, 29.998779%)" fill-opacity="0.3" d="M 381.65625 373.160156 C 381.65625 379.828125 371.65625 379.828125 371.65625 373.160156 C 371.65625 366.492188 381.65625 366.492188 381.65625 373.160156 "/>
</svg>
