<?xml version="1.0" encoding="UTF-8"?>
<svg xmlns="http://www.w3.org/2000/svg" xmlns:xlink="http://www.w3.org/1999/xlink" width="700" height="700" viewBox="0 0 700 700">
<path fill="none" stroke-width="2" stroke-linecap="butt" stroke-linejoin="miter" stroke="rgb(0%, 50%, 0%)" stroke-opacity="0.6" stroke-miterlimit="10" d="M 350 350 L 385.917969 350 Z M 350 350 " transform="matrix(1, 0, 0, -1, 0, 700)"/>
<path fill="none" stroke-width="2" stroke-linecap="butt" stroke-linejoin="miter" stroke="rgb(0%, 50%, 0%)" stroke-opacity="0.6" stroke-miterlimit="10" d="M 350 350 L 385.917969 350 L 386.691406 337.023438 Z M 350 350 " transform="matrix(1, 0, 0, -1, 0, 700)"/>
<path fill="none" stroke-width="2" stroke-linecap="butt" stroke-linejoin="miter" stroke="rgb(0%, 50%, 0%)" stroke-opacity="0.6" stroke-miterlimit="10" d="M 350 350 L 386.691406 337.023438 L 378.941406 319.675781 Z M 350 350 " transform="matrix(1, 0, 0, -1, 0, 700)"/>
<path fill="none" stroke-width="2" stroke-linecap="butt" stroke-linejoin="miter" stroke="rgb(0%, 50%, 0%)" stroke-opacity="0.6" stroke-miterlimit="10" d="M 350 350 L 378.941406 319.675781 L 358.132812 305.824219 Z M 350 350 " transform="matrix(1, 0, 0, -1, 0, 700)"/>
<path fill="none" stroke-width="2" stroke-linecap="butt" stroke-linejoin="miter" stroke="rgb(0%, 50%, 0%)" stroke-opacity="0.6" stroke-miterlimit="10" d="M 350 350 L 358.132812 305.824219 L 327.199219 307.851562 Z M 350 350 " transform="matrix(1, 0, 0, -1, 0, 700)"/>
<path fill="none" stroke-width="2" stroke-linecap="butt" stroke-linejoin="miter" stroke="rgb(0%, 50%, 0%)" stroke-opacity="0.6" stroke-miterlimit="10" d="M 350 350 L 327.199219 307.851562 L 301.503906 334.476562 Z M 350 350 " transform="matrix(1, 0, 0, -1, 0, 700)"/>
<path fill="none" stroke-width="2" stroke-linecap="butt" stroke-linejoin="miter" stroke="rgb(0%, 50%, 0%)" stroke-opacity="0.6" stroke-miterlimit="10" d="M 350 350 L 301.503906 334.476562 L 303.578125 377.425781 Z M 350 350 " transform="matrix(1, 0, 0, -1, 0, 700)"/>
<path fill="none" stroke-width="2" stroke-linecap="butt" stroke-linejoin="miter" stroke="rgb(0%, 50%, 0%)" stroke-opacity="0.6" stroke-miterlimit="10" d="M 350 350 L 303.578125 377.425781 L 343.027344 406.492188 Z M 350 350 " transform="matrix(1, 0, 0, -1, 0, 700)"/>
<path fill="none" stroke-width="2" stroke-linecap="butt" stroke-linejoin="miter" stroke="rgb(0%, 50%, 0%)" stroke-opacity="0.6" stroke-miterlimit="10" d="M 350 350 L 343.027344 406.492188 L 395.261719 389.265625 Z M 350 350 " transform="matrix(1, 0, 0, -1, 0, 700)"/>
<path fill="none" stroke-width="2" stroke-linecap="butt" stroke-linejoin="miter" stroke="rgb(0%, 50%, 0%)" stroke-opacity="0.6" stroke-miterlimit="10" d="M 350 350 L 395.261719 389.265625 L 409.652344 329.988281 Z M 350 350 " transform="matrix(1, 0, 0, -1, 0, 700)"/>
<path fill="none" stroke-width="2" stroke-linecap="butt" stroke-linejoin="miter" stroke="rgb(0%, 50%, 0%)" stroke-opacity="0.6" stroke-miterlimit="10" d="M 350 350 L 409.652344 329.988281 L 360.128906 284.863281 Z M 350 350 " transform="matrix(1, 0, 0, -1, 0, 700)"/>
<path fill="none" stroke-width="2" stroke-linecap="butt" stroke-linejoin="miter" stroke="rgb(0%, 50%, 0%)" stroke-opacity="0.6" stroke-miterlimit="10" d="M 350 350 L 360.128906 284.863281 L 292.414062 312.136719 Z M 350 350 " transform="matrix(1, 0, 0, -1, 0, 700)"/>
<path fill="none" stroke-width="2" stroke-linecap="butt" stroke-linejoin="miter" stroke="rgb(0%, 50%, 0%)" stroke-opacity="0.6" stroke-miterlimit="10" d="M 350 350 L 292.414062 312.136719 L 290.996094 391.121094 Z M 350 350 " transform="matrix(1, 0, 0, -1, 0, 700)"/>
<path fill="none" stroke-width="2" stroke-linecap="butt" stroke-linejoin="miter" stroke="rgb(0%, 50%, 0%)" stroke-opacity="0.6" stroke-miterlimit="10" d="M 350 350 L 290.996094 391.121094 L 370.125 422.164062 Z M 350 350 " transform="matrix(1, 0, 0, -1, 0, 700)"/>
<path fill="none" stroke-width="2" stroke-linecap="butt" stroke-linejoin="miter" stroke="rgb(0%, 50%, 0%)" stroke-opacity="0.6" stroke-miterlimit="10" d="M 350 350 L 370.125 422.164062 L 427.898438 351.855469 Z M 350 350 " transform="matrix(1, 0, 0, -1, 0, 700)"/>
<path fill="none" stroke-width="2" stroke-linecap="butt" stroke-linejoin="miter" stroke="rgb(0%, 50%, 0%)" stroke-opacity="0.6" stroke-miterlimit="10" d="M 350 350 L 427.898438 351.855469 L 380.355469 330.792969 Z M 350 350 " transform="matrix(1, 0, 0, -1, 0, 700)"/>
<path fill="none" stroke-width="4" stroke-linecap="butt" stroke-linejoin="miter" stroke="rgb(0%, 0%, 0%)" stroke-opacity="1" stroke-miterlimit="10" d="M 380.917969 350 C 380.917969 332.921875 367.078125 319.082031 350 319.082031 C 332.921875 319.082031 319.082031 332.921875 319.082031 350 C 319.082031 367.078125 332.921875 380.917969 350 380.917969 C 367.078125 380.917969 380.917969 367.078125 380.917969 350 " transform="matrix(1, 0, 0, -1, 0, 700)"/>
<path fill-rule="nonzero" fill="rgb(0%, 0%, 0%)" fill-opacity="0.3" d="M 380.917969 350 C 380.917969 367.078125 367.078125 380.917969 350 380.917969 C 332.921875 380.917969 319.082031 367.078125 319.082031 350 C 319.082031 332.921875 332.921875 319.082031 350 319.082031 C 367.078125 319.082031 380.917969 332.921875 380.917969 350 "/>
<path fill="none" stroke-width="2" stroke-linecap="butt" stroke-linejoin="miter" stroke="rgb(69.999695%, 29.998779%, 9.999084%)" stroke-opacity="1" stroke-miterlimit="10" d="M 390.917969 350 C 390.917969 343.332031 380.917969 343.332031 380.917969 350 C 380.917969 356.667969 390.917969 356.667969 390.917969 350 " transform="matrix(1, 0, 0, -1, 0, 700)"/>
<path fill-rule="nonzero" fill="rgb(69.999695%, 29.998779%, 9.999084%)" fill-opacity="0.3" d="M 390.917969 350 C 390.917969 356.667969 380.917969 356.667969 380.917969 350 C 380.917969 343.332031 390.917969 343.332031 390.917969 350 "/>
<path fill="none" stroke-width="2" stroke-linecap="butt" stroke-linejoin="miter" stroke="rgb(81.999207%, 40.99884%, 10.998535%)" stroke-opacity="1" stroke-miterlimit="10" d="M 394.691406 337.023438 C 394.691406 332.605469 391.109375 329.023438 386.691406 329.023438 C 382.273438 329.023438 378.691406 332.605469 378.691406 337.023438 C 378.691406 341.441406 382.273438 345.023438 386.691406 345.023438 C 391.109375 345.023438 394.691406 341.441406 394.691406 337.023438 " transform="matrix(1, 0, 0, -1, 0, 700)"/>
<path fill-rule="nonzero" fill="rgb(81.999207%, 40.99884%, 10.998535%)" fill-opacity="0.3" d="M 394.691406 362.976562 C 394.691406 367.394531 391.109375 370.976562 386.691406 370.976562 C 382.273438 370.976562 378.691406 367.394531 378.691406 362.976562 C 378.691406 358.558594 382.273438 354.976562 386.691406 354.976562 C 391.109375 354.976562 394.691406 358.558594 394.691406 362.976562 "/>
<path fill="none" stroke-width="2" stroke-linecap="butt" stroke-linejoin="miter" stroke="rgb(100%, 53.999329%, 0%)" stroke-opacity="1" stroke-miterlimit="10" d="M 389.941406 319.675781 C 389.941406 313.601562 385.019531 308.675781 378.941406 308.675781 C 372.867188 308.675781 367.941406 313.601562 367.941406 319.675781 C 367.941406 325.75 372.867188 330.675781 378.941406 330.675781 C 385.019531 330.675781 389.941406 325.75 389.941406 319.675781 " transform="matrix(1, 0, 0, -1, 0, 700)"/>
<path fill-rule="nonzero" fill="rgb(100%, 53.999329%, 0%)" fill-opacity="0.3" d="M 389.941406 380.324219 C 389.941406 386.398438 385.019531 391.324219 378.941406 391.324219 C 372.867188 391.324219 367.941406 386.398438 367.941406 380.324219 C 367.941406 374.25 372.867188 369.324219 378.941406 369.324219 C 385.019531 369.324219 389.941406 374.25 389.941406 380.324219 "/>
<path fill="none" stroke-width="2" stroke-linecap="butt" stroke-linejoin="miter" stroke="rgb(100%, 6.999207%, 56.999207%)" stroke-opacity="1" stroke-miterlimit="10" d="M 372.132812 305.824219 C 372.132812 298.089844 365.863281 291.824219 358.132812 291.824219 C 350.398438 291.824219 344.132812 298.089844 344.132812 305.824219 C 344.132812 313.554688 350.398438 319.824219 358.132812 319.824219 C 365.863281 319.824219 372.132812 313.554688 372.132812 305.824219 " transform="matrix(1, 0, 0, -1, 0, 700)"/>
<path fill-rule="nonzero" fill="rgb(100%, 6.999207%, 56.999207%)" fill-opacity="0.3" d="M 372.132812 394.175781 C 372.132812 401.910156 365.863281 408.175781 358.132812 408.175781 C 350.398438 408.175781 344.132812 401.910156 344.132812 394.175781 C 344.132812 386.445312 350.398438 380.175781 358.132812 380.175781 C 365.863281 380.175781 372.132812 386.445312 372.132812 394.175781 "/>
<path fill="none" stroke-width="2" stroke-linecap="butt" stroke-linejoin="miter" stroke="rgb(0%, 0%, 50%)" stroke-opacity="1" stroke-miterlimit="10" d="M 344.199219 307.851562 C 344.199219 298.464844 336.585938 290.851562 327.199219 290.851562 C 317.808594 290.851562 310.199219 298.464844 310.199219 307.851562 C 310.199219 317.242188 317.808594 324.851562 327.199219 324.851562 C 336.585938 324.851562 344.199219 317.242188 344.199219 307.851562 " transform="matrix(1, 0, 0, -1, 0, 700)"/>
<path fill-rule="nonzero" fill="rgb(0%, 0%, 50%)" fill-opacity="0.3" d="M 344.199219 392.148438 C 344.199219 401.535156 336.585938 409.148438 327.199219 409.148438 C 317.808594 409.148438 310.199219 401.535156 310.199219 392.148438 C 310.199219 382.757812 317.808594 375.148438 327.199219 375.148438 C 336.585938 375.148438 344.199219 382.757812 344.199219 392.148438 "/>
<path fill="none" stroke-width="2" stroke-linecap="butt" stroke-linejoin="miter" stroke="rgb(0%, 50%, 50%)" stroke-opacity="1" stroke-miterlimit="10" d="M 321.503906 334.476562 C 321.503906 323.429688 312.550781 314.476562 301.503906 314.476562 C 290.457031 314.476562 281.503906 323.429688 281.503906 334.476562 C 281.503906 345.523438 290.457031 354.476562 301.503906 354.476562 C 312.550781 354.476562 321.503906 345.523438 321.503906 334.476562 " transform="matrix(1, 0, 0, -1, 0, 700)"/>
<path fill-rule="nonzero" fill="rgb(0%, 50%, 50%)" fill-opacity="0.3" d="M 321.503906 365.523438 C 321.503906 376.570312 312.550781 385.523438 301.503906 385.523438 C 290.457031 385.523438 281.503906 376.570312 281.503906 365.523438 C 281.503906 354.476562 290.457031 345.523438 301.503906 345.523438 C 312.550781 345.523438 321.503906 354.476562 321.503906 365.523438 "/>
<path fill="none" stroke-width="2" stroke-linecap="butt" stroke-linejoin="miter" stroke="rgb(50%, 0%, 50%)" stroke-opacity="1" stroke-miterlimit="10" d="M 326.578125 377.425781 C 326.578125 364.722656 316.28125 354.425781 303.578125 354.425781 C 290.875 354.425781 280.578125 364.722656 280.578125 377.425781 C 280.578125 390.128906 290.875 400.425781 303.578125 400.425781 C 316.28125 400.425781 326.578125 390.128906 326.578125 377.425781 " transform="matrix(1, 0, 0, -1, 0, 700)"/>
<path fill-rule="nonzero" fill="rgb(50%, 0%, 50%)" fill-opacity="0.3" d="M 326.578125 322.574219 C 326.578125 335.277344 316.28125 345.574219 303.578125 345.574219 C 290.875 345.574219 280.578125 335.277344 280.578125 322.574219 C 280.578125 309.871094 290.875 299.574219 303.578125 299.574219 C 316.28125 299.574219 326.578125 309.871094 326.578125 322.574219 "/>
<path fill="none" stroke-width="2" stroke-linecap="butt" stroke-linejoin="miter" stroke="rgb(0%, 50%, 0%)" stroke-opacity="1" stroke-miterlimit="10" d="M 369.027344 406.492188 C 369.027344 392.132812 357.386719 380.492188 343.027344 380.492188 C 328.667969 380.492188 317.027344 392.132812 317.027344 406.492188 C 317.027344 420.851562 328.667969 432.492188 343.027344 432.492188 C 357.386719 432.492188 369.027344 420.851562 369.027344 406.492188 " transform="matrix(1, 0, 0, -1, 0, 700)"/>
<path fill-rule="nonzero" fill="rgb(0%, 50%, 0%)" fill-opacity="0.3" d="M 369.027344 293.507812 C 369.027344 307.867188 357.386719 319.507812 343.027344 319.507812 C 328.667969 319.507812 317.027344 307.867188 317.027344 293.507812 C 317.027344 279.148438 328.667969 267.507812 343.027344 267.507812 C 357.386719 267.507812 369.027344 279.148438 369.027344 293.507812 "/>
<path fill="none" stroke-width="2" stroke-linecap="butt" stroke-linejoin="miter" stroke="rgb(50%, 0%, 0%)" stroke-opacity="1" stroke-miterlimit="10" d="M 424.261719 389.265625 C 424.261719 373.25 411.277344 360.265625 395.261719 360.265625 C 379.242188 360.265625 366.261719 373.25 366.261719 389.265625 C 366.261719 405.28125 379.242188 418.265625 395.261719 418.265625 C 411.277344 418.265625 424.261719 405.28125 424.261719 389.265625 " transform="matrix(1, 0, 0, -1, 0, 700)"/>
<path fill-rule="nonzero" fill="rgb(50%, 0%, 0%)" fill-opacity="0.3" d="M 424.261719 310.734375 C 424.261719 326.75 411.277344 339.734375 395.261719 339.734375 C 379.242188 339.734375 366.261719 326.75 366.261719 310.734375 C 366.261719 294.71875 379.242188 281.734375 395.261719 281.734375 C 411.277344 281.734375 424.261719 294.71875 424.261719 310.734375 "/>
<path fill="none" stroke-width="2" stroke-linecap="butt" stroke-linejoin="miter" stroke="rgb(100%, 0%, 100%)" stroke-opacity="1" stroke-miterlimit="10" d="M 441.652344 329.988281 C 441.652344 312.316406 427.324219 297.988281 409.652344 297.988281 C 391.980469 297.988281 377.652344 312.316406 377.652344 329.988281 C 377.652344 347.660156 391.980469 361.988281 409.652344 361.988281 C 427.324219 361.988281 441.652344 347.660156 441.652344 329.988281 " transform="matrix(1, 0, 0, -1, 0, 700)"/>
<path fill-rule="nonzero" fill="rgb(100%, 0%, 100%)" fill-opacity="0.3" d="M 441.652344 370.011719 C 441.652344 387.683594 427.324219 402.011719 409.652344 402.011719 C 391.980469 402.011719 377.652344 387.683594 377.652344 370.011719 C 377.652344 352.339844 391.980469 338.011719 409.652344 338.011719 C 427.324219 338.011719 441.652344 352.339844 441.652344 370.011719 "/>
<path fill="none" stroke-width="2" stroke-linecap="butt" stroke-linejoin="miter" stroke="rgb(0%, 100%, 100%)" stroke-opacity="1" stroke-miterlimit="10" d="M 395.128906 284.863281 C 395.128906 265.53125 379.457031 249.863281 360.128906 249.863281 C 340.796875 249.863281 325.128906 265.53125 325.128906 284.863281 C 325.128906 304.191406 340.796875 319.863281 360.128906 319.863281 C 379.457031 319.863281 395.128906 304.191406 395.128906 284.863281 " transform="matrix(1, 0, 0, -1, 0, 700)"/>
<path fill-rule="nonzero" fill="rgb(0%, 100%, 100%)" fill-opacity="0.3" d="M 395.128906 415.136719 C 395.128906 434.46875 379.457031 450.136719 360.128906 450.136719 C 340.796875 450.136719 325.128906 434.46875 325.128906 415.136719 C 325.128906 395.808594 340.796875 380.136719 360.128906 380.136719 C 379.457031 380.136719 395.128906 395.808594 395.128906 415.136719 "/>
<path fill="none" stroke-width="2" stroke-linecap="butt" stroke-linejoin="miter" stroke="rgb(100%, 100%, 0%)" stroke-opacity="1" stroke-miterlimit="10" d="M 330.414062 312.136719 C 330.414062 291.148438 313.402344 274.136719 292.414062 274.136719 C 271.425781 274.136719 254.414062 291.148438 254.414062 312.136719 C 254.414062 333.121094 271.425781 350.136719 292.414062 350.136719 C 313.402344 350.136719 330.414062 333.121094 330.414062 312.136719 " transform="matrix(1, 0, 0, -1, 0, 700)"/>
<path fill-rule="nonzero" fill="rgb(100%, 100%, 0%)" fill-opacity="0.3" d="M 330.414062 387.863281 C 330.414062 408.851562 313.402344 425.863281 292.414062 425.863281 C 271.425781 425.863281 254.414062 408.851562 254.414062 387.863281 C 254.414062 366.878906 271.425781 349.863281 292.414062 349.863281 C 313.402344 349.863281 330.414062 366.878906 330.414062 387.863281 "/>
<path fill="none" stroke-width="2" stroke-linecap="butt" stroke-linejoin="miter" stroke="rgb(0%, 0%, 100%)" stroke-opacity="1" stroke-miterlimit="10" d="M 331.996094 391.121094 C 331.996094 368.480469 313.640625 350.121094 290.996094 350.121094 C 268.351562 350.121094 249.996094 368.480469 249.996094 391.121094 C 249.996094 413.765625 268.351562 432.121094 290.996094 432.121094 C 313.640625 432.121094 331.996094 413.765625 331.996094 391.121094 " transform="matrix(1, 0, 0, -1, 0, 700)"/>
<path fill-rule="nonzero" fill="rgb(0%, 0%, 100%)" fill-opacity="0.3" d="M 331.996094 308.878906 C 331.996094 331.519531 313.640625 349.878906 290.996094 349.878906 C 268.351562 349.878906 249.996094 331.519531 249.996094 308.878906 C 249.996094 286.234375 268.351562 267.878906 290.996094 267.878906 C 313.640625 267.878906 331.996094 286.234375 331.996094 308.878906 "/>
<path fill="none" stroke-width="2" stroke-linecap="butt" stroke-linejoin="miter" stroke="rgb(0%, 100%, 0%)" stroke-opacity="1" stroke-miterlimit="10" d="M 414.125 422.164062 C 414.125 397.867188 394.425781 378.164062 370.125 378.164062 C 345.824219 378.164062 326.125 397.867188 326.125 422.164062 C 326.125 446.464844 345.824219 466.164062 370.125 466.164062 C 394.425781 466.164062 414.125 446.464844 414.125 422.164062 " transform="matrix(1, 0, 0, -1, 0, 700)"/>
<path fill-rule="nonzero" fill="rgb(0%, 100%, 0%)" fill-opacity="0.3" d="M 414.125 277.835938 C 414.125 302.132812 394.425781 321.835938 370.125 321.835938 C 345.824219 321.835938 326.125 302.132812 326.125 277.835938 C 326.125 253.535156 345.824219 233.835938 370.125 233.835938 C 394.425781 233.835938 414.125 253.535156 414.125 277.835938 "/>
<path fill="none" stroke-width="2" stroke-linecap="butt" stroke-linejoin="miter" stroke="rgb(100%, 0%, 0%)" stroke-opacity="1" stroke-miterlimit="10" d="M 474.898438 351.855469 C 474.898438 325.898438 453.855469 304.855469 427.898438 304.855469 C 401.941406 304.855469 380.898438 325.898438 380.898438 351.855469 C 380.898438 377.8125 401.941406 398.855469 427.898438 398.855469 C 453.855469 398.855469 474.898438 377.8125 474.898438 351.855469 " transform="matrix(1, 0, 0, -1, 0, 700)"/>
<path fill-rule="nonzero" fill="rgb(100%, 0%, 0%)" fill-opacity="0.3" d="M 474.898438 348.144531 C 474.898438 374.101562 453.855469 395.144531 427.898438 395.144531 C 401.941406 395.144531 380.898438 374.101562 380.898438 348.144531 C 380.898438 322.1875 401.941406 301.144531 427.898438 301.144531 C 453.855469 301.144531 474.898438 322.1875 474.898438 348.144531 "/>
<path fill="none" stroke-width="2" stroke-linecap="butt" stroke-linejoin="miter" stroke="rgb(0%, 0%, 29.998779%)" stroke-opacity="1" stroke-miterlimit="10" d="M 385.355469 330.792969 C 385.355469 324.128906 375.355469 324.128906 375.355469 330.792969 C 375.355469 337.460938 385.355469 337.460938 385.355469 330.792969 " transform="matrix(1, 0, 0, -1, 0, 700)"/>
<path fill-rule="nonzero" fill="rgb(0%, 0%, 29.998779%)" fill-opacity="0.3" d="M 385.355469 369.207031 C 385.355469 375.871094 375.355469 375.871094 375.355469 369.207031 C 375.355469 362.539062 385.355469 362.539062 385.355469 369.207031 "/>
</svg>
