<?xml version="1.0" encoding="UTF-8"?>
<svg xmlns="http://www.w3.org/2000/svg" xmlns:xlink="http://www.w3.org/1999/xlink" width="700" height="700" viewBox="0 0 700 700">
<path fill="none" stroke-width="2" stroke-linecap="butt" stroke-linejoin="miter" stroke="rgb(0%, 50%, 0%)" stroke-opacity="0.6" stroke-miterlimit="10" d="M 350 350 L 386.539062 350 Z M 350 350 " transform="matrix(1, 0, 0, -1, 0, 700)"/>
<path fill="none" stroke-width="2" stroke-linecap="butt" stroke-linejoin="miter" stroke="rgb(0%, 50%, 0%)" stroke-opacity="0.6" stroke-miterlimit="10" d="M 350 350 L 386.539062 350 L 387.347656 337.023438 Z M 350 350 " transform="matrix(1, 0, 0, -1, 0, 700)"/>
<path fill="none" stroke-width="2" stroke-linecap="butt" stroke-linejoin="miter" stroke="rgb(0%, 50%, 0%)" stroke-opacity="0.6" stroke-miterlimit="10" d="M 350 350 L 387.347656 337.023438 L 379.761719 319.605469 Z M 350 350 " transform="matrix(1, 0, 0, -1, 0, 700)"/>
<path fill="none" stroke-width="2" stroke-linecap="butt" stroke-linejoin="miter" stroke="rgb(0%, 50%, 0%)" stroke-opacity="0.6" stroke-miterlimit="10" d="M 350 350 L 379.761719 319.605469 L 359.191406 305.398438 Z M 350 350 " transform="matrix(1, 0, 0, -1, 0, 700)"/>
<path fill="none" stroke-width="2" stroke-linecap="butt" stroke-linejoin="miter" stroke="rgb(0%, 50%, 0%)" stroke-opacity="0.6" stroke-miterlimit="10" d="M 350 350 L 359.191406 305.398438 L 328.214844 306.625 Z M 350 350 " transform="matrix(1, 0, 0, -1, 0, 700)"/>
<path fill="none" stroke-width="2" stroke-linecap="butt" stroke-linejoin="miter" stroke="rgb(0%, 50%, 0%)" stroke-opacity="0.6" stroke-miterlimit="10" d="M 350 350 L 328.214844 306.625 L 301.589844 332.320312 Z M 350 350 " transform="matrix(1, 0, 0, -1, 0, 700)"/>
<path fill="none" stroke-width="2" stroke-linecap="butt" stroke-linejoin="miter" stroke="rgb(0%, 50%, 0%)" stroke-opacity="0.6" stroke-miterlimit="10" d="M 350 350 L 301.589844 332.320312 L 301.695312 375.320312 Z M 350 350 " transform="matrix(1, 0, 0, -1, 0, 700)"/>
<path fill="none" stroke-width="2" stroke-linecap="butt" stroke-linejoin="miter" stroke="rgb(0%, 50%, 0%)" stroke-opacity="0.6" stroke-miterlimit="10" d="M 350 350 L 301.695312 375.320312 L 339.441406 406.5625 Z M 350 350 " transform="matrix(1, 0, 0, -1, 0, 700)"/>
<path fill="none" stroke-width="2" stroke-linecap="butt" stroke-linejoin="miter" stroke="rgb(0%, 50%, 0%)" stroke-opacity="0.6" stroke-miterlimit="10" d="M 350 350 L 339.441406 406.5625 L 392.71875 392.894531 Z M 350 350 " transform="matrix(1, 0, 0, -1, 0, 700)"/>
<path fill="none" stroke-width="2" stroke-linecap="butt" stroke-linejoin="miter" stroke="rgb(0%, 50%, 0%)" stroke-opacity="0.6" stroke-miterlimit="10" d="M 350 350 L 392.71875 392.894531 L 411.726562 334.933594 Z M 350 350 " transform="matrix(1, 0, 0, -1, 0, 700)"/>
<path fill="none" stroke-width="2" stroke-linecap="butt" stroke-linejoin="miter" stroke="rgb(0%, 50%, 0%)" stroke-opacity="0.6" stroke-miterlimit="10" d="M 350 350 L 411.726562 334.933594 L 366.464844 285.53125 Z M 350 350 " transform="matrix(1, 0, 0, -1, 0, 700)"/>
<path fill="none" stroke-width="2" stroke-linecap="butt" stroke-linejoin="miter" stroke="rgb(0%, 50%, 0%)" stroke-opacity="0.6" stroke-miterlimit="10" d="M 350 350 L 366.464844 285.53125 L 296.328125 305.785156 Z M 350 350 " transform="matrix(1, 0, 0, -1, 0, 700)"/>
<path fill="none" stroke-width="2" stroke-linecap="butt" stroke-linejoin="miter" stroke="rgb(0%, 50%, 0%)" stroke-opacity="0.6" stroke-miterlimit="10" d="M 350 350 L 296.328125 305.785156 L 285.976562 384.101562 Z M 350 350 " transform="matrix(1, 0, 0, -1, 0, 700)"/>
<path fill="none" stroke-width="2" stroke-linecap="butt" stroke-linejoin="miter" stroke="rgb(0%, 50%, 0%)" stroke-opacity="0.6" stroke-miterlimit="10" d="M 350 350 L 285.976562 384.101562 L 360.609375 424.789062 Z M 350 350 " transform="matrix(1, 0, 0, -1, 0, 700)"/>
<path fill="none" stroke-width="2" stroke-linecap="butt" stroke-linejoin="miter" stroke="rgb(0%, 50%, 0%)" stroke-opacity="0.6" stroke-miterlimit="10" d="M 350 350 L 360.609375 424.789062 L 427.449219 363.035156 Z M 350 350 " transform="matrix(1, 0, 0, -1, 0, 700)"/>
<path fill="none" stroke-width="2" stroke-linecap="butt" stroke-linejoin="miter" stroke="rgb(0%, 50%, 0%)" stroke-opacity="0.6" stroke-miterlimit="10" d="M 350 350 L 427.449219 363.035156 L 383.457031 335.3125 Z M 350 350 " transform="matrix(1, 0, 0, -1, 0, 700)"/>
<path fill="none" stroke-width="4" stroke-linecap="butt" stroke-linejoin="miter" stroke="rgb(0%, 0%, 0%)" stroke-opacity="1" stroke-miterlimit="10" d="M 381.539062 350 C 381.539062 332.582031 367.417969 318.460938 350 318.460938 C 332.582031 318.460938 318.460938 332.582031 318.460938 350 C 318.460938 367.417969 332.582031 381.539062 350 381.539062 C 367.417969 381.539062 381.539062 367.417969 381.539062 350 " transform="matrix(1, 0, 0, -1, 0, 700)"/>
<path fill-rule="nonzero" fill="rgb(0%, 0%, 0%)" fill-opacity="0.3" d="M 381.539062 350 C 381.539062 367.417969 367.417969 381.539062 350 381.539062 C 332.582031 381.539062 318.460938 367.417969 318.460938 350 C 318.460938 332.582031 332.582031 318.460938 350 318.460938 C 367.417969 318.460938 381.539062 332.582031 381.539062 350 "/>
<path fill="none" stroke-width="2" stroke-linecap="butt" stroke-linejoin="miter" stroke="rgb(69.999695%, 29.998779%, 9.999084%)" stroke-opacity="1" stroke-miterlimit="10" d="M 391.539062 350 C 391.539062 343.332031 381.539062 343.332031 381.539062 350 C 381.539062 356.667969 391.539062 356.667969 391.539062 350 " transform="matrix(1, 0, 0, -1, 0, 700)"/>
<path fill-rule="nonzero" fill="rgb(69.999695%, 29.998779%, 9.999084%)" fill-opacity="0.3" d="M 391.539062 350 C 391.539062 356.667969 381.539062 356.667969 381.539062 350 C 381.539062 343.332031 391.539062 343.332031 391.539062 350 "/>
<path fill="none" stroke-width="2" stroke-linecap="butt" stroke-linejoin="miter" stroke="rgb(81.999207%, 40.99884%, 10.998535%)" stroke-opacity="1" stroke-miterlimit="10" d="M 395.347656 337.023438 C 395.347656 332.605469 391.765625 329.023438 387.347656 329.023438 C 382.929688 329.023438 379.347656 332.605469 379.347656 337.023438 C 379.347656 341.445312 382.929688 345.023438 387.347656 345.023438 C 391.765625 345.023438 395.347656 341.445312 395.347656 337.023438 " transform="matrix(1, 0, 0, -1, 0, 700)"/>
<path fill-rule="nonzero" fill="rgb(81.999207%, 40.99884%, 10.998535%)" fill-opacity="0.3" d="M 395.347656 362.976562 C 395.347656 367.394531 391.765625 370.976562 387.347656 370.976562 C 382.929688 370.976562 379.347656 367.394531 379.347656 362.976562 C 379.347656 358.554688 382.929688 354.976562 387.347656 354.976562 C 391.765625 354.976562 395.347656 358.554688 395.347656 362.976562 "/>
<path fill="none" stroke-width="2" stroke-linecap="butt" stroke-linejoin="miter" stroke="rgb(100%, 53.999329%, 0%)" stroke-opacity="1" stroke-miterlimit="10" d="M 390.761719 319.605469 C 390.761719 313.53125 385.835938 308.605469 379.761719 308.605469 C 373.683594 308.605469 368.761719 313.53125 368.761719 319.605469 C 368.761719 325.679688 373.683594 330.605469 379.761719 330.605469 C 385.835938 330.605469 390.761719 325.679688 390.761719 319.605469 " transform="matrix(1, 0, 0, -1, 0, 700)"/>
<path fill-rule="nonzero" fill="rgb(100%, 53.999329%, 0%)" fill-opacity="0.3" d="M 390.761719 380.394531 C 390.761719 386.46875 385.835938 391.394531 379.761719 391.394531 C 373.683594 391.394531 368.761719 386.46875 368.761719 380.394531 C 368.761719 374.320312 373.683594 369.394531 379.761719 369.394531 C 385.835938 369.394531 390.761719 374.320312 390.761719 380.394531 "/>
<path fill="none" stroke-width="2" stroke-linecap="butt" stroke-linejoin="miter" stroke="rgb(100%, 6.999207%, 56.999207%)" stroke-opacity="1" stroke-miterlimit="10" d="M 373.191406 305.398438 C 373.191406 297.667969 366.921875 291.398438 359.191406 291.398438 C 351.457031 291.398438 345.191406 297.667969 345.191406 305.398438 C 345.191406 313.132812 351.457031 319.398438 359.191406 319.398438 C 366.921875 319.398438 373.191406 313.132812 373.191406 305.398438 " transform="matrix(1, 0, 0, -1, 0, 700)"/>
<path fill-rule="nonzero" fill="rgb(100%, 6.999207%, 56.999207%)" fill-opacity="0.3" d="M 373.191406 394.601562 C 373.191406 402.332031 366.921875 408.601562 359.191406 408.601562 C 351.457031 408.601562 345.191406 402.332031 345.191406 394.601562 C 345.191406 386.867188 351.457031 380.601562 359.191406 380.601562 C 366.921875 380.601562 373.191406 386.867188 373.191406 394.601562 "/>
<path fill="none" stroke-width="2" stroke-linecap="butt" stroke-linejoin="miter" stroke="rgb(0%, 0%, 50%)" stroke-opacity="1" stroke-miterlimit="10" d="M 345.214844 306.625 C 345.214844 297.238281 337.601562 289.625 328.214844 289.625 C 318.824219 289.625 311.214844 297.238281 311.214844 306.625 C 311.214844 316.015625 318.824219 323.625 328.214844 323.625 C 337.601562 323.625 345.214844 316.015625 345.214844 306.625 " transform="matrix(1, 0, 0, -1, 0, 700)"/>
<path fill-rule="nonzero" fill="rgb(0%, 0%, 50%)" fill-opacity="0.3" d="M 345.214844 393.375 C 345.214844 402.761719 337.601562 410.375 328.214844 410.375 C 318.824219 410.375 311.214844 402.761719 311.214844 393.375 C 311.214844 383.984375 318.824219 376.375 328.214844 376.375 C 337.601562 376.375 345.214844 383.984375 345.214844 393.375 "/>
<path fill="none" stroke-width="2" stroke-linecap="butt" stroke-linejoin="miter" stroke="rgb(0%, 50%, 50%)" stroke-opacity="1" stroke-miterlimit="10" d="M 321.589844 332.320312 C 321.589844 321.273438 312.636719 312.320312 301.589844 312.320312 C 290.542969 312.320312 281.589844 321.273438 281.589844 332.320312 C 281.589844 343.363281 290.542969 352.320312 301.589844 352.320312 C 312.636719 352.320312 321.589844 343.363281 321.589844 332.320312 " transform="matrix(1, 0, 0, -1, 0, 700)"/>
<path fill-rule="nonzero" fill="rgb(0%, 50%, 50%)" fill-opacity="0.3" d="M 321.589844 367.679688 C 321.589844 378.726562 312.636719 387.679688 301.589844 387.679688 C 290.542969 387.679688 281.589844 378.726562 281.589844 367.679688 C 281.589844 356.636719 290.542969 347.679688 301.589844 347.679688 C 312.636719 347.679688 321.589844 356.636719 321.589844 367.679688 "/>
<path fill="none" stroke-width="2" stroke-linecap="butt" stroke-linejoin="miter" stroke="rgb(50%, 0%, 50%)" stroke-opacity="1" stroke-miterlimit="10" d="M 324.695312 375.320312 C 324.695312 362.617188 314.398438 352.320312 301.695312 352.320312 C 288.992188 352.320312 278.695312 362.617188 278.695312 375.320312 C 278.695312 388.019531 288.992188 398.320312 301.695312 398.320312 C 314.398438 398.320312 324.695312 388.019531 324.695312 375.320312 " transform="matrix(1, 0, 0, -1, 0, 700)"/>
<path fill-rule="nonzero" fill="rgb(50%, 0%, 50%)" fill-opacity="0.3" d="M 324.695312 324.679688 C 324.695312 337.382812 314.398438 347.679688 301.695312 347.679688 C 288.992188 347.679688 278.695312 337.382812 278.695312 324.679688 C 278.695312 311.980469 288.992188 301.679688 301.695312 301.679688 C 314.398438 301.679688 324.695312 311.980469 324.695312 324.679688 "/>
<path fill="none" stroke-width="2" stroke-linecap="butt" stroke-linejoin="miter" stroke="rgb(0%, 50%, 0%)" stroke-opacity="1" stroke-miterlimit="10" d="M 365.441406 406.5625 C 365.441406 392.203125 353.804688 380.5625 339.441406 380.5625 C 325.082031 380.5625 313.441406 392.203125 313.441406 406.5625 C 313.441406 420.921875 325.082031 432.5625 339.441406 432.5625 C 353.804688 432.5625 365.441406 420.921875 365.441406 406.5625 " transform="matrix(1, 0, 0, -1, 0, 700)"/>
<path fill-rule="nonzero" fill="rgb(0%, 50%, 0%)" fill-opacity="0.3" d="M 365.441406 293.4375 C 365.441406 307.796875 353.804688 319.4375 339.441406 319.4375 C 325.082031 319.4375 313.441406 307.796875 313.441406 293.4375 C 313.441406 279.078125 325.082031 267.4375 339.441406 267.4375 C 353.804688 267.4375 365.441406 279.078125 365.441406 293.4375 "/>
<path fill="none" stroke-width="2" stroke-linecap="butt" stroke-linejoin="miter" stroke="rgb(50%, 0%, 0%)" stroke-opacity="1" stroke-miterlimit="10" d="M 421.71875 392.894531 C 421.71875 376.878906 408.734375 363.894531 392.71875 363.894531 C 376.703125 363.894531 363.71875 376.878906 363.71875 392.894531 C 363.71875 408.910156 376.703125 421.894531 392.71875 421.894531 C 408.734375 421.894531 421.71875 408.910156 421.71875 392.894531 " transform="matrix(1, 0, 0, -1, 0, 700)"/>
<path fill-rule="nonzero" fill="rgb(50%, 0%, 0%)" fill-opacity="0.3" d="M 421.71875 307.105469 C 421.71875 323.121094 408.734375 336.105469 392.71875 336.105469 C 376.703125 336.105469 363.71875 323.121094 363.71875 307.105469 C 363.71875 291.089844 376.703125 278.105469 392.71875 278.105469 C 408.734375 278.105469 421.71875 291.089844 421.71875 307.105469 "/>
<path fill="none" stroke-width="2" stroke-linecap="butt" stroke-linejoin="miter" stroke="rgb(100%, 0%, 100%)" stroke-opacity="1" stroke-miterlimit="10" d="M 443.726562 334.933594 C 443.726562 317.257812 429.398438 302.933594 411.726562 302.933594 C 394.050781 302.933594 379.726562 317.257812 379.726562 334.933594 C 379.726562 352.605469 394.050781 366.933594 411.726562 366.933594 C 429.398438 366.933594 443.726562 352.605469 443.726562 334.933594 " transform="matrix(1, 0, 0, -1, 0, 700)"/>
<path fill-rule="nonzero" fill="rgb(100%, 0%, 100%)" fill-opacity="0.3" d="M 443.726562 365.066406 C 443.726562 382.742188 429.398438 397.066406 411.726562 397.066406 C 394.050781 397.066406 379.726562 382.742188 379.726562 365.066406 C 379.726562 347.394531 394.050781 333.066406 411.726562 333.066406 C 429.398438 333.066406 443.726562 347.394531 443.726562 365.066406 "/>
<path fill="none" stroke-width="2" stroke-linecap="butt" stroke-linejoin="miter" stroke="rgb(0%, 100%, 100%)" stroke-opacity="1" stroke-miterlimit="10" d="M 401.464844 285.53125 C 401.464844 266.203125 385.792969 250.53125 366.464844 250.53125 C 347.132812 250.53125 331.464844 266.203125 331.464844 285.53125 C 331.464844 304.859375 347.132812 320.53125 366.464844 320.53125 C 385.792969 320.53125 401.464844 304.859375 401.464844 285.53125 " transform="matrix(1, 0, 0, -1, 0, 700)"/>
<path fill-rule="nonzero" fill="rgb(0%, 100%, 100%)" fill-opacity="0.3" d="M 401.464844 414.46875 C 401.464844 433.796875 385.792969 449.46875 366.464844 449.46875 C 347.132812 449.46875 331.464844 433.796875 331.464844 414.46875 C 331.464844 395.140625 347.132812 379.46875 366.464844 379.46875 C 385.792969 379.46875 401.464844 395.140625 401.464844 414.46875 "/>
<path fill="none" stroke-width="2" stroke-linecap="butt" stroke-linejoin="miter" stroke="rgb(100%, 100%, 0%)" stroke-opacity="1" stroke-miterlimit="10" d="M 334.328125 305.785156 C 334.328125 284.796875 317.316406 267.785156 296.328125 267.785156 C 275.34375 267.785156 258.328125 284.796875 258.328125 305.785156 C 258.328125 326.769531 275.34375 343.785156 296.328125 343.785156 C 317.316406 343.785156 334.328125 326.769531 334.328125 305.785156 " transform="matrix(1, 0, 0, -1, 0, 700)"/>
<path fill-rule="nonzero" fill="rgb(100%, 100%, 0%)" fill-opacity="0.3" d="M 334.328125 394.214844 C 334.328125 415.203125 317.316406 432.214844 296.328125 432.214844 C 275.34375 432.214844 258.328125 415.203125 258.328125 394.214844 C 258.328125 373.230469 275.34375 356.214844 296.328125 356.214844 C 317.316406 356.214844 334.328125 373.230469 334.328125 394.214844 "/>
<path fill="none" stroke-width="2" stroke-linecap="butt" stroke-linejoin="miter" stroke="rgb(0%, 0%, 100%)" stroke-opacity="1" stroke-miterlimit="10" d="M 326.976562 384.101562 C 326.976562 361.460938 308.621094 343.101562 285.976562 343.101562 C 263.335938 343.101562 244.976562 361.460938 244.976562 384.101562 C 244.976562 406.746094 263.335938 425.101562 285.976562 425.101562 C 308.621094 425.101562 326.976562 406.746094 326.976562 384.101562 " transform="matrix(1, 0, 0, -1, 0, 700)"/>
<path fill-rule="nonzero" fill="rgb(0%, 0%, 100%)" fill-opacity="0.3" d="M 326.976562 315.898438 C 326.976562 338.539062 308.621094 356.898438 285.976562 356.898438 C 263.335938 356.898438 244.976562 338.539062 244.976562 315.898438 C 244.976562 293.253906 263.335938 274.898438 285.976562 274.898438 C 308.621094 274.898438 326.976562 293.253906 326.976562 315.898438 "/>
<path fill="none" stroke-width="2" stroke-linecap="butt" stroke-linejoin="miter" stroke="rgb(0%, 100%, 0%)" stroke-opacity="1" stroke-miterlimit="10" d="M 404.609375 424.789062 C 404.609375 400.488281 384.910156 380.789062 360.609375 380.789062 C 336.308594 380.789062 316.609375 400.488281 316.609375 424.789062 C 316.609375 449.089844 336.308594 468.789062 360.609375 468.789062 C 384.910156 468.789062 404.609375 449.089844 404.609375 424.789062 " transform="matrix(1, 0, 0, -1, 0, 700)"/>
<path fill-rule="nonzero" fill="rgb(0%, 100%, 0%)" fill-opacity="0.3" d="M 404.609375 275.210938 C 404.609375 299.511719 384.910156 319.210938 360.609375 319.210938 C 336.308594 319.210938 316.609375 299.511719 316.609375 275.210938 C 316.609375 250.910156 336.308594 231.210938 360.609375 231.210938 C 384.910156 231.210938 404.609375 250.910156 404.609375 275.210938 "/>
<path fill="none" stroke-width="2" stroke-linecap="butt" stroke-linejoin="miter" stroke="rgb(100%, 0%, 0%)" stroke-opacity="1" stroke-miterlimit="10" d="M 474.449219 363.035156 C 474.449219 337.078125 453.40625 316.035156 427.449219 316.035156 C 401.492188 316.035156 380.449219 337.078125 380.449219 363.035156 C 380.449219 388.992188 401.492188 410.035156 427.449219 410.035156 C 453.40625 410.035156 474.449219 388.992188 474.449219 363.035156 " transform="matrix(1, 0, 0, -1, 0, 700)"/>
<path fill-rule="nonzero" fill="rgb(100%, 0%, 0%)" fill-opacity="0.3" d="M 474.449219 336.964844 C 474.449219 362.921875 453.40625 383.964844 427.449219 383.964844 C 401.492188 383.964844 380.449219 362.921875 380.449219 336.964844 C 380.449219 311.007812 401.492188 289.964844 427.449219 289.964844 C 453.40625 289.964844 474.449219 311.007812 474.449219 336.964844 "/>
<path fill="none" stroke-width="2" stroke-linecap="butt" stroke-linejoin="miter" stroke="rgb(0%, 0%, 29.998779%)" stroke-opacity="1" stroke-miterlimit="10" d="M 388.457031 335.3125 C 388.457031 328.644531 378.457031 328.644531 378.457031 335.3125 C 378.457031 341.980469 388.457031 341.980469 388.457031 335.3125 " transform="matrix(1, 0, 0, -1, 0, 700)"/>
<path fill-rule="nonzero" fill="rgb(0%, 0%, 29.998779%)" fill-opacity="0.3" d="M 388.457031 364.6875 C 388.457031 371.355469 378.457031 371.355469 378.457031 364.6875 C 378.457031 358.019531 388.457031 358.019531 388.457031 364.6875 "/>
</svg>
