<?xml version="1.0" encoding="UTF-8"?>
<svg xmlns="http://www.w3.org/2000/svg" xmlns:xlink="http://www.w3.org/1999/xlink" width="700" height="700" viewBox="0 0 700 700">
<path fill="none" stroke-width="2" stroke-linecap="butt" stroke-linejoin="miter" stroke="rgb(0%, 50%, 0%)" stroke-opacity="0.6" stroke-miterlimit="10" d="M 350 350 L 387.167969 350 Z M 350 350 " transform="matrix(1, 0, 0, -1, 0, 700)"/>
<path fill="none" stroke-width="2" stroke-linecap="butt" stroke-linejoin="miter" stroke="rgb(0%, 50%, 0%)" stroke-opacity="0.6" stroke-miterlimit="10" d="M 350 350 L 387.167969 350 L 388.015625 337.027344 Z M 350 350 " transform="matrix(1, 0, 0, -1, 0, 700)"/>
<path fill="none" stroke-width="2" stroke-linecap="butt" stroke-linejoin="miter" stroke="rgb(0%, 50%, 0%)" stroke-opacity="0.6" stroke-miterlimit="10" d="M 350 350 L 388.015625 337.027344 L 380.589844 319.539062 Z M 350 350 " transform="matrix(1, 0, 0, -1, 0, 700)"/>
<path fill="none" stroke-width="2" stroke-linecap="butt" stroke-linejoin="miter" stroke="rgb(0%, 50%, 0%)" stroke-opacity="0.6" stroke-miterlimit="10" d="M 350 350 L 380.589844 319.539062 L 360.261719 304.984375 Z M 350 350 " transform="matrix(1, 0, 0, -1, 0, 700)"/>
<path fill="none" stroke-width="2" stroke-linecap="butt" stroke-linejoin="miter" stroke="rgb(0%, 50%, 0%)" stroke-opacity="0.6" stroke-miterlimit="10" d="M 350 350 L 360.261719 304.984375 L 329.265625 305.417969 Z M 350 350 " transform="matrix(1, 0, 0, -1, 0, 700)"/>
<path fill="none" stroke-width="2" stroke-linecap="butt" stroke-linejoin="miter" stroke="rgb(0%, 50%, 0%)" stroke-opacity="0.6" stroke-miterlimit="10" d="M 350 350 L 329.265625 305.417969 L 301.753906 330.15625 Z M 350 350 " transform="matrix(1, 0, 0, -1, 0, 700)"/>
<path fill="none" stroke-width="2" stroke-linecap="butt" stroke-linejoin="miter" stroke="rgb(0%, 50%, 0%)" stroke-opacity="0.6" stroke-miterlimit="10" d="M 350 350 L 301.753906 330.15625 L 299.910156 373.117188 Z M 350 350 " transform="matrix(1, 0, 0, -1, 0, 700)"/>
<path fill="none" stroke-width="2" stroke-linecap="butt" stroke-linejoin="miter" stroke="rgb(0%, 50%, 0%)" stroke-opacity="0.6" stroke-miterlimit="10" d="M 350 350 L 299.910156 373.117188 L 335.851562 406.421875 Z M 350 350 " transform="matrix(1, 0, 0, -1, 0, 700)"/>
<path fill="none" stroke-width="2" stroke-linecap="butt" stroke-linejoin="miter" stroke="rgb(0%, 50%, 0%)" stroke-opacity="0.6" stroke-miterlimit="10" d="M 350 350 L 335.851562 406.421875 L 389.921875 396.347656 Z M 350 350 " transform="matrix(1, 0, 0, -1, 0, 700)"/>
<path fill="none" stroke-width="2" stroke-linecap="butt" stroke-linejoin="miter" stroke="rgb(0%, 50%, 0%)" stroke-opacity="0.6" stroke-miterlimit="10" d="M 350 350 L 389.921875 396.347656 L 413.390625 340.042969 Z M 350 350 " transform="matrix(1, 0, 0, -1, 0, 700)"/>
<path fill="none" stroke-width="2" stroke-linecap="butt" stroke-linejoin="miter" stroke="rgb(0%, 50%, 0%)" stroke-opacity="0.6" stroke-miterlimit="10" d="M 350 350 L 413.390625 340.042969 L 372.730469 286.792969 Z M 350 350 " transform="matrix(1, 0, 0, -1, 0, 700)"/>
<path fill="none" stroke-width="2" stroke-linecap="butt" stroke-linejoin="miter" stroke="rgb(0%, 50%, 0%)" stroke-opacity="0.6" stroke-miterlimit="10" d="M 350 350 L 372.730469 286.792969 L 300.90625 299.863281 Z M 350 350 " transform="matrix(1, 0, 0, -1, 0, 700)"/>
<path fill="none" stroke-width="2" stroke-linecap="butt" stroke-linejoin="miter" stroke="rgb(0%, 50%, 0%)" stroke-opacity="0.6" stroke-miterlimit="10" d="M 350 350 L 300.90625 299.863281 L 281.804688 376.519531 Z M 350 350 " transform="matrix(1, 0, 0, -1, 0, 700)"/>
<path fill="none" stroke-width="2" stroke-linecap="butt" stroke-linejoin="miter" stroke="rgb(0%, 50%, 0%)" stroke-opacity="0.6" stroke-miterlimit="10" d="M 350 350 L 281.804688 376.519531 L 350.800781 426.164062 Z M 350 350 " transform="matrix(1, 0, 0, -1, 0, 700)"/>
<path fill="none" stroke-width="2" stroke-linecap="butt" stroke-linejoin="miter" stroke="rgb(0%, 50%, 0%)" stroke-opacity="0.6" stroke-miterlimit="10" d="M 350 350 L 350.800781 426.164062 L 425.417969 374.074219 Z M 350 350 " transform="matrix(1, 0, 0, -1, 0, 700)"/>
<path fill="none" stroke-width="2" stroke-linecap="butt" stroke-linejoin="miter" stroke="rgb(0%, 50%, 0%)" stroke-opacity="0.6" stroke-miterlimit="10" d="M 350 350 L 425.417969 374.074219 L 385.882812 340.300781 Z M 350 350 " transform="matrix(1, 0, 0, -1, 0, 700)"/>
<path fill="none" stroke-width="4" stroke-linecap="butt" stroke-linejoin="miter" stroke="rgb(0%, 0%, 0%)" stroke-opacity="1" stroke-miterlimit="10" d="M 382.167969 350 C 382.167969 332.234375 367.765625 317.832031 350 317.832031 C 332.234375 317.832031 317.832031 332.234375 317.832031 350 C 317.832031 367.765625 332.234375 382.167969 350 382.167969 C 367.765625 382.167969 382.167969 367.765625 382.167969 350 " transform="matrix(1, 0, 0, -1, 0, 700)"/>
<path fill-rule="nonzero" fill="rgb(0%, 0%, 0%)" fill-opacity="0.3" d="M 382.167969 350 C 382.167969 367.765625 367.765625 382.167969 350 382.167969 C 332.234375 382.167969 317.832031 367.765625 317.832031 350 C 317.832031 332.234375 332.234375 317.832031 350 317.832031 C 367.765625 317.832031 382.167969 332.234375 382.167969 350 "/>
<path fill="none" stroke-width="2" stroke-linecap="butt" stroke-linejoin="miter" stroke="rgb(69.999695%, 29.998779%, 9.999084%)" stroke-opacity="1" stroke-miterlimit="10" d="M 392.167969 350 C 392.167969 343.332031 382.167969 343.332031 382.167969 350 C 382.167969 356.667969 392.167969 356.667969 392.167969 350 " transform="matrix(1, 0, 0, -1, 0, 700)"/>
<path fill-rule="nonzero" fill="rgb(69.999695%, 29.998779%, 9.999084%)" fill-opacity="0.3" d="M 392.167969 350 C 392.167969 356.667969 382.167969 356.667969 382.167969 350 C 382.167969 343.332031 392.167969 343.332031 392.167969 350 "/>
<path fill="none" stroke-width="2" stroke-linecap="butt" stroke-linejoin="miter" stroke="rgb(81.999207%, 40.99884%, 10.998535%)" stroke-opacity="1" stroke-miterlimit="10" d="M 396.015625 337.027344 C 396.015625 332.609375 392.433594 329.027344 388.015625 329.027344 C 383.597656 329.027344 380.015625 332.609375 380.015625 337.027344 C 380.015625 341.445312 383.597656 345.027344 388.015625 345.027344 C 392.433594 345.027344 396.015625 341.445312 396.015625 337.027344 " transform="matrix(1, 0, 0, -1, 0, 700)"/>
<path fill-rule="nonzero" fill="rgb(81.999207%, 40.99884%, 10.998535%)" fill-opacity="0.3" d="M 396.015625 362.972656 C 396.015625 367.390625 392.433594 370.972656 388.015625 370.972656 C 383.597656 370.972656 380.015625 367.390625 380.015625 362.972656 C 380.015625 358.554688 383.597656 354.972656 388.015625 354.972656 C 392.433594 354.972656 396.015625 358.554688 396.015625 362.972656 "/>
<path fill="none" stroke-width="2" stroke-linecap="butt" stroke-linejoin="miter" stroke="rgb(100%, 53.999329%, 0%)" stroke-opacity="1" stroke-miterlimit="10" d="M 391.589844 319.539062 C 391.589844 313.464844 386.664062 308.539062 380.589844 308.539062 C 374.515625 308.539062 369.589844 313.464844 369.589844 319.539062 C 369.589844 325.613281 374.515625 330.539062 380.589844 330.539062 C 386.664062 330.539062 391.589844 325.613281 391.589844 319.539062 " transform="matrix(1, 0, 0, -1, 0, 700)"/>
<path fill-rule="nonzero" fill="rgb(100%, 53.999329%, 0%)" fill-opacity="0.3" d="M 391.589844 380.460938 C 391.589844 386.535156 386.664062 391.460938 380.589844 391.460938 C 374.515625 391.460938 369.589844 386.535156 369.589844 380.460938 C 369.589844 374.386719 374.515625 369.460938 380.589844 369.460938 C 386.664062 369.460938 391.589844 374.386719 391.589844 380.460938 "/>
<path fill="none" stroke-width="2" stroke-linecap="butt" stroke-linejoin="miter" stroke="rgb(100%, 6.999207%, 56.999207%)" stroke-opacity="1" stroke-miterlimit="10" d="M 374.261719 304.984375 C 374.261719 297.253906 367.992188 290.984375 360.261719 290.984375 C 352.53125 290.984375 346.261719 297.253906 346.261719 304.984375 C 346.261719 312.71875 352.53125 318.984375 360.261719 318.984375 C 367.992188 318.984375 374.261719 312.71875 374.261719 304.984375 " transform="matrix(1, 0, 0, -1, 0, 700)"/>
<path fill-rule="nonzero" fill="rgb(100%, 6.999207%, 56.999207%)" fill-opacity="0.3" d="M 374.261719 395.015625 C 374.261719 402.746094 367.992188 409.015625 360.261719 409.015625 C 352.53125 409.015625 346.261719 402.746094 346.261719 395.015625 C 346.261719 387.28125 352.53125 381.015625 360.261719 381.015625 C 367.992188 381.015625 374.261719 387.28125 374.261719 395.015625 "/>
<path fill="none" stroke-width="2" stroke-linecap="butt" stroke-linejoin="miter" stroke="rgb(0%, 0%, 50%)" stroke-opacity="1" stroke-miterlimit="10" d="M 346.265625 305.417969 C 346.265625 296.027344 338.652344 288.417969 329.265625 288.417969 C 319.875 288.417969 312.265625 296.027344 312.265625 305.417969 C 312.265625 314.804688 319.875 322.417969 329.265625 322.417969 C 338.652344 322.417969 346.265625 314.804688 346.265625 305.417969 " transform="matrix(1, 0, 0, -1, 0, 700)"/>
<path fill-rule="nonzero" fill="rgb(0%, 0%, 50%)" fill-opacity="0.3" d="M 346.265625 394.582031 C 346.265625 403.972656 338.652344 411.582031 329.265625 411.582031 C 319.875 411.582031 312.265625 403.972656 312.265625 394.582031 C 312.265625 385.195312 319.875 377.582031 329.265625 377.582031 C 338.652344 377.582031 346.265625 385.195312 346.265625 394.582031 "/>
<path fill="none" stroke-width="2" stroke-linecap="butt" stroke-linejoin="miter" stroke="rgb(0%, 50%, 50%)" stroke-opacity="1" stroke-miterlimit="10" d="M 321.753906 330.15625 C 321.753906 319.113281 312.796875 310.15625 301.753906 310.15625 C 290.707031 310.15625 281.753906 319.113281 281.753906 330.15625 C 281.753906 341.203125 290.707031 350.15625 301.753906 350.15625 C 312.796875 350.15625 321.753906 341.203125 321.753906 330.15625 " transform="matrix(1, 0, 0, -1, 0, 700)"/>
<path fill-rule="nonzero" fill="rgb(0%, 50%, 50%)" fill-opacity="0.3" d="M 321.753906 369.84375 C 321.753906 380.886719 312.796875 389.84375 301.753906 389.84375 C 290.707031 389.84375 281.753906 380.886719 281.753906 369.84375 C 281.753906 358.796875 290.707031 349.84375 301.753906 349.84375 C 312.796875 349.84375 321.753906 358.796875 321.753906 369.84375 "/>
<path fill="none" stroke-width="2" stroke-linecap="butt" stroke-linejoin="miter" stroke="rgb(50%, 0%, 50%)" stroke-opacity="1" stroke-miterlimit="10" d="M 322.910156 373.117188 C 322.910156 360.414062 312.609375 350.117188 299.910156 350.117188 C 287.207031 350.117188 276.910156 360.414062 276.910156 373.117188 C 276.910156 385.820312 287.207031 396.117188 299.910156 396.117188 C 312.609375 396.117188 322.910156 385.820312 322.910156 373.117188 " transform="matrix(1, 0, 0, -1, 0, 700)"/>
<path fill-rule="nonzero" fill="rgb(50%, 0%, 50%)" fill-opacity="0.3" d="M 322.910156 326.882812 C 322.910156 339.585938 312.609375 349.882812 299.910156 349.882812 C 287.207031 349.882812 276.910156 339.585938 276.910156 326.882812 C 276.910156 314.179688 287.207031 303.882812 299.910156 303.882812 C 312.609375 303.882812 322.910156 314.179688 322.910156 326.882812 "/>
<path fill="none" stroke-width="2" stroke-linecap="butt" stroke-linejoin="miter" stroke="rgb(0%, 50%, 0%)" stroke-opacity="1" stroke-miterlimit="10" d="M 361.851562 406.421875 C 361.851562 392.0625 350.210938 380.421875 335.851562 380.421875 C 321.492188 380.421875 309.851562 392.0625 309.851562 406.421875 C 309.851562 420.78125 321.492188 432.421875 335.851562 432.421875 C 350.210938 432.421875 361.851562 420.78125 361.851562 406.421875 " transform="matrix(1, 0, 0, -1, 0, 700)"/>
<path fill-rule="nonzero" fill="rgb(0%, 50%, 0%)" fill-opacity="0.3" d="M 361.851562 293.578125 C 361.851562 307.9375 350.210938 319.578125 335.851562 319.578125 C 321.492188 319.578125 309.851562 307.9375 309.851562 293.578125 C 309.851562 279.21875 321.492188 267.578125 335.851562 267.578125 C 350.210938 267.578125 361.851562 279.21875 361.851562 293.578125 "/>
<path fill="none" stroke-width="2" stroke-linecap="butt" stroke-linejoin="miter" stroke="rgb(50%, 0%, 0%)" stroke-opacity="1" stroke-miterlimit="10" d="M 418.921875 396.347656 C 418.921875 380.332031 405.9375 367.347656 389.921875 367.347656 C 373.902344 367.347656 360.921875 380.332031 360.921875 396.347656 C 360.921875 412.363281 373.902344 425.347656 389.921875 425.347656 C 405.9375 425.347656 418.921875 412.363281 418.921875 396.347656 " transform="matrix(1, 0, 0, -1, 0, 700)"/>
<path fill-rule="nonzero" fill="rgb(50%, 0%, 0%)" fill-opacity="0.3" d="M 418.921875 303.652344 C 418.921875 319.667969 405.9375 332.652344 389.921875 332.652344 C 373.902344 332.652344 360.921875 319.667969 360.921875 303.652344 C 360.921875 287.636719 373.902344 274.652344 389.921875 274.652344 C 405.9375 274.652344 418.921875 287.636719 418.921875 303.652344 "/>
<path fill="none" stroke-width="2" stroke-linecap="butt" stroke-linejoin="miter" stroke="rgb(100%, 0%, 100%)" stroke-opacity="1" stroke-miterlimit="10" d="M 445.390625 340.042969 C 445.390625 322.371094 431.066406 308.042969 413.390625 308.042969 C 395.71875 308.042969 381.390625 322.371094 381.390625 340.042969 C 381.390625 357.714844 395.71875 372.042969 413.390625 372.042969 C 431.066406 372.042969 445.390625 357.714844 445.390625 340.042969 " transform="matrix(1, 0, 0, -1, 0, 700)"/>
<path fill-rule="nonzero" fill="rgb(100%, 0%, 100%)" fill-opacity="0.3" d="M 445.390625 359.957031 C 445.390625 377.628906 431.066406 391.957031 413.390625 391.957031 C 395.71875 391.957031 381.390625 377.628906 381.390625 359.957031 C 381.390625 342.285156 395.71875 327.957031 413.390625 327.957031 C 431.066406 327.957031 445.390625 342.285156 445.390625 359.957031 "/>
<path fill="none" stroke-width="2" stroke-linecap="butt" stroke-linejoin="miter" stroke="rgb(0%, 100%, 100%)" stroke-opacity="1" stroke-miterlimit="10" d="M 407.730469 286.792969 C 407.730469 267.464844 392.058594 251.792969 372.730469 251.792969 C 353.398438 251.792969 337.730469 267.464844 337.730469 286.792969 C 337.730469 306.125 353.398438 321.792969 372.730469 321.792969 C 392.058594 321.792969 407.730469 306.125 407.730469 286.792969 " transform="matrix(1, 0, 0, -1, 0, 700)"/>
<path fill-rule="nonzero" fill="rgb(0%, 100%, 100%)" fill-opacity="0.3" d="M 407.730469 413.207031 C 407.730469 432.535156 392.058594 448.207031 372.730469 448.207031 C 353.398438 448.207031 337.730469 432.535156 337.730469 413.207031 C 337.730469 393.875 353.398438 378.207031 372.730469 378.207031 C 392.058594 378.207031 407.730469 393.875 407.730469 413.207031 "/>
<path fill="none" stroke-width="2" stroke-linecap="butt" stroke-linejoin="miter" stroke="rgb(100%, 100%, 0%)" stroke-opacity="1" stroke-miterlimit="10" d="M 338.90625 299.863281 C 338.90625 278.878906 321.894531 261.863281 300.90625 261.863281 C 279.921875 261.863281 262.90625 278.878906 262.90625 299.863281 C 262.90625 320.851562 279.921875 337.863281 300.90625 337.863281 C 321.894531 337.863281 338.90625 320.851562 338.90625 299.863281 " transform="matrix(1, 0, 0, -1, 0, 700)"/>
<path fill-rule="nonzero" fill="rgb(100%, 100%, 0%)" fill-opacity="0.3" d="M 338.90625 400.136719 C 338.90625 421.121094 321.894531 438.136719 300.90625 438.136719 C 279.921875 438.136719 262.90625 421.121094 262.90625 400.136719 C 262.90625 379.148438 279.921875 362.136719 300.90625 362.136719 C 321.894531 362.136719 338.90625 379.148438 338.90625 400.136719 "/>
<path fill="none" stroke-width="2" stroke-linecap="butt" stroke-linejoin="miter" stroke="rgb(0%, 0%, 100%)" stroke-opacity="1" stroke-miterlimit="10" d="M 322.804688 376.519531 C 322.804688 353.875 304.449219 335.519531 281.804688 335.519531 C 259.164062 335.519531 240.804688 353.875 240.804688 376.519531 C 240.804688 399.164062 259.164062 417.519531 281.804688 417.519531 C 304.449219 417.519531 322.804688 399.164062 322.804688 376.519531 " transform="matrix(1, 0, 0, -1, 0, 700)"/>
<path fill-rule="nonzero" fill="rgb(0%, 0%, 100%)" fill-opacity="0.3" d="M 322.804688 323.480469 C 322.804688 346.125 304.449219 364.480469 281.804688 364.480469 C 259.164062 364.480469 240.804688 346.125 240.804688 323.480469 C 240.804688 300.835938 259.164062 282.480469 281.804688 282.480469 C 304.449219 282.480469 322.804688 300.835938 322.804688 323.480469 "/>
<path fill="none" stroke-width="2" stroke-linecap="butt" stroke-linejoin="miter" stroke="rgb(0%, 100%, 0%)" stroke-opacity="1" stroke-miterlimit="10" d="M 394.800781 426.164062 C 394.800781 401.863281 375.101562 382.164062 350.800781 382.164062 C 326.5 382.164062 306.800781 401.863281 306.800781 426.164062 C 306.800781 450.464844 326.5 470.164062 350.800781 470.164062 C 375.101562 470.164062 394.800781 450.464844 394.800781 426.164062 " transform="matrix(1, 0, 0, -1, 0, 700)"/>
<path fill-rule="nonzero" fill="rgb(0%, 100%, 0%)" fill-opacity="0.3" d="M 394.800781 273.835938 C 394.800781 298.136719 375.101562 317.835938 350.800781 317.835938 C 326.5 317.835938 306.800781 298.136719 306.800781 273.835938 C 306.800781 249.535156 326.5 229.835938 350.800781 229.835938 C 375.101562 229.835938 394.800781 249.535156 394.800781 273.835938 "/>
<path fill="none" stroke-width="2" stroke-linecap="butt" stroke-linejoin="miter" stroke="rgb(100%, 0%, 0%)" stroke-opacity="1" stroke-miterlimit="10" d="M 472.417969 374.074219 C 472.417969 348.117188 451.375 327.074219 425.417969 327.074219 C 399.460938 327.074219 378.417969 348.117188 378.417969 374.074219 C 378.417969 400.03125 399.460938 421.074219 425.417969 421.074219 C 451.375 421.074219 472.417969 400.03125 472.417969 374.074219 " transform="matrix(1, 0, 0, -1, 0, 700)"/>
<path fill-rule="nonzero" fill="rgb(100%, 0%, 0%)" fill-opacity="0.3" d="M 472.417969 325.925781 C 472.417969 351.882812 451.375 372.925781 425.417969 372.925781 C 399.460938 372.925781 378.417969 351.882812 378.417969 325.925781 C 378.417969 299.96875 399.460938 278.925781 425.417969 278.925781 C 451.375 278.925781 472.417969 299.96875 472.417969 325.925781 "/>
<path fill="none" stroke-width="2" stroke-linecap="butt" stroke-linejoin="miter" stroke="rgb(0%, 0%, 29.998779%)" stroke-opacity="1" stroke-miterlimit="10" d="M 390.882812 340.300781 C 390.882812 333.632812 380.882812 333.632812 380.882812 340.300781 C 380.882812 346.96875 390.882812 346.96875 390.882812 340.300781 " transform="matrix(1, 0, 0, -1, 0, 700)"/>
<path fill-rule="nonzero" fill="rgb(0%, 0%, 29.998779%)" fill-opacity="0.3" d="M 390.882812 359.699219 C 390.882812 366.367188 380.882812 366.367188 380.882812 359.699219 C 380.882812 353.03125 390.882812 353.03125 390.882812 359.699219 "/>
</svg>
