<?xml version="1.0" encoding="UTF-8"?>
<svg xmlns="http://www.w3.org/2000/svg" xmlns:xlink="http://www.w3.org/1999/xlink" width="110.4813" height="113.85184" viewBox="0 0 110.4813 113.85184">
<defs>
<clipPath id="clip-0">
<path clip-rule="nonzero" d="M 5 1 L 109.964844 1 L 109.964844 113 L 5 113 Z M 5 1 "/>
</clipPath>
<clipPath id="clip-1">
<path clip-rule="nonzero" d="M 4 0.191406 L 109.964844 0.191406 L 109.964844 113.511719 L 4 113.511719 Z M 4 0.191406 "/>
</clipPath>
</defs>
<g clip-path="url(#clip-0)">
<path fill-rule="evenodd" fill="rgb(79.098511%, 100%, 43.798828%)" fill-opacity="0.4" d="M 62.21875 33.902344 C 80.136719 35.230469 90.75 37.882812 93.40625 43.191406 C 96.058594 48.5 90.75 56.464844 90.089844 62.433594 C 89.425781 68.40625 93.40625 72.386719 94.070312 77.035156 C 94.734375 81.679688 92.078125 86.988281 90.75 91.632812 C 89.425781 96.277344 89.425781 100.257812 88.761719 103.574219 C 88.097656 106.894531 86.769531 109.546875 90.089844 111.539062 C 93.40625 113.527344 101.367188 114.855469 106.011719 96.941406 C 110.65625 79.023438 111.984375 41.863281 95.394531 22.621094 C 78.808594 3.378906 44.304688 2.050781 27.714844 1.386719 C 11.125 0.726562 12.453125 0.726562 9.796875 6.035156 C 7.144531 11.34375 0.507812 21.957031 9.796875 27.265625 C 19.089844 32.574219 44.304688 32.574219 62.21875 33.902344 Z M 62.21875 33.902344 "/>
</g>
<path fill-rule="evenodd" fill="rgb(56.399536%, 93.199158%, 56.399536%)" fill-opacity="0.4" d="M 45.628906 44.519531 L 65.535156 44.519531 L 65.535156 24.613281 L 45.628906 24.613281 Z M 45.628906 44.519531 "/>
<path fill-rule="evenodd" fill="rgb(100%, 84.199524%, 0%)" fill-opacity="0.4" d="M 18.699219 72.386719 C 18.699219 67.472656 14.714844 63.484375 9.796875 63.484375 C 4.882812 63.484375 0.894531 67.472656 0.894531 72.386719 C 0.894531 77.304688 4.882812 81.289062 9.796875 81.289062 C 14.714844 81.289062 18.699219 77.304688 18.699219 72.386719 Z M 18.699219 72.386719 "/>
<path fill="none" stroke-width="0.8" stroke-linecap="butt" stroke-linejoin="round" stroke="rgb(0%, 39.099121%, 0%)" stroke-opacity="1" stroke-miterlimit="10" d="M 64.79883 74.996636 L 84.798538 74.996636 L 84.798538 94.996344 L 64.79883 94.996344 Z M 64.79883 74.996636 " transform="matrix(0.995327, 0, 0, -0.995327, -18.867121, 119.16571)"/>
<g clip-path="url(#clip-1)">
<path fill="none" stroke-width="0.8" stroke-linecap="butt" stroke-linejoin="round" stroke="rgb(59.899902%, 19.499207%, 79.899597%)" stroke-opacity="1" stroke-miterlimit="10" d="M 81.466562 85.66367 C 99.468654 84.329309 110.131763 81.664513 112.800484 76.330996 C 115.46528 70.997479 110.131763 62.995241 109.468508 56.998468 C 108.801327 50.997771 112.800484 46.998614 113.467664 42.328353 C 114.134845 37.662016 111.466124 32.328499 110.131763 27.662162 C 108.801327 22.995825 108.801327 18.996668 108.134147 15.664692 C 107.466967 12.328791 106.132607 9.663994 109.468508 7.662454 C 112.800484 5.664838 120.798798 4.330477 125.465134 22.328645 C 130.131471 40.330737 131.465832 77.665357 114.7981 96.997884 C 98.134293 116.330412 63.468394 117.664773 46.800663 118.331953 C 30.132931 118.995209 31.467291 118.995209 28.79857 113.661691 C 26.133774 108.328174 19.465897 97.665065 28.79857 92.331547 C 38.135169 86.99803 63.468394 86.99803 81.466562 85.66367 Z M 81.466562 85.66367 " transform="matrix(0.995327, 0, 0, -0.995327, -18.867121, 119.16571)"/>
</g>
<path fill="none" stroke-width="0.8" stroke-linecap="butt" stroke-linejoin="round" stroke="rgb(100%, 49.699402%, 31.298828%)" stroke-opacity="1" stroke-miterlimit="10" d="M 37.74271 46.998614 C 37.74271 51.935748 33.739629 55.942754 28.79857 55.942754 C 23.861437 55.942754 19.854431 51.935748 19.854431 46.998614 C 19.854431 42.057556 23.861437 38.054475 28.79857 38.054475 C 33.739629 38.054475 37.74271 42.057556 37.74271 46.998614 Z M 37.74271 46.998614 " transform="matrix(0.995327, 0, 0, -0.995327, -18.867121, 119.16571)"/>
<path fill="none" stroke-width="0.8" stroke-linecap="butt" stroke-linejoin="round" stroke="rgb(0%, 0%, 0%)" stroke-opacity="1" stroke-miterlimit="10" d="M 40.799965 70.330299 C 42.134326 72.331839 43.464761 73.662275 47.467843 76.330996 C 51.466999 78.995792 58.134877 82.994949 70.799527 76.330996 C 83.468102 69.663119 102.13345 52.332131 110.131763 41.665097 C 118.134001 30.998063 115.46528 26.994981 112.133304 24.997365 C 108.801327 22.995825 104.798246 22.995825 96.799933 22.328645 C 88.801619 21.665389 76.800225 20.331029 64.79883 20.331029 C 52.80136 20.331029 40.799965 21.665389 35.466448 27.662162 C 30.132931 33.662859 31.467291 44.329893 34.799268 51.664951 C 38.135169 58.996084 43.464761 62.995241 48.798279 64.996782 C 54.131796 66.998322 59.465313 66.998322 63.468394 66.998322 C 67.467551 66.998322 70.132347 66.998322 74.798684 62.995241 C 79.465021 58.996084 86.132898 50.997771 90.132055 44.997074 C 94.135136 38.996376 95.465572 34.997219 92.800776 32.995679 C 90.132055 30.998063 83.468102 30.998063 75.465864 30.998063 C 67.467551 30.998063 58.134877 30.998063 52.80136 32.328499 C 47.467843 33.662859 46.133482 36.33158 49.465459 36.99876 C 52.80136 37.662016 60.799673 36.33158 66.800371 36.33158 C 72.801068 36.33158 76.800225 37.662016 78.801765 39.663556 C 80.799381 41.665097 80.799381 44.329893 77.467405 46.331434 C 74.131504 48.32905 67.467551 49.66341 62.134034 49.66341 C 56.800517 49.66341 52.80136 48.32905 49.465459 45.664254 C 46.133482 42.995533 43.464761 38.996376 42.801506 36.33158 C 42.134326 33.662859 43.464761 32.328499 46.800663 30.998063 C 50.132639 29.663702 55.466156 28.329342 63.468394 26.994981 C 71.466708 25.664546 82.133742 24.330185 90.799235 24.330185 C 99.468654 24.330185 106.132607 25.664546 107.466967 29.663702 C 108.801327 33.662859 104.798246 40.330737 99.468654 46.331434 C 94.135136 52.332131 87.467259 57.661724 81.466562 61.664805 C 75.465864 65.663962 70.132347 68.328758 64.79883 70.330299 C 59.465313 72.331839 54.131796 73.662275 51.466999 72.995095 C 48.798279 72.331839 48.798279 69.663119 46.800663 67.661578 C 44.799122 65.663962 40.799965 64.329601 39.465605 64.996782 C 38.135169 65.663962 39.465605 68.328758 40.799965 70.330299 Z M 40.799965 70.330299 " transform="matrix(0.995327, 0, 0, -0.995327, -18.867121, 119.16571)"/>
<path fill-rule="evenodd" fill="rgb(67.698669%, 84.599304%, 90.098572%)" fill-opacity="0.4" d="M 21.742188 49.164062 C 23.070312 47.171875 24.394531 45.847656 28.378906 43.191406 C 32.359375 40.539062 38.996094 36.558594 51.601562 43.191406 C 64.210938 49.828125 82.789062 67.078125 90.75 77.695312 C 98.714844 88.3125 96.058594 92.296875 92.742188 94.285156 C 89.425781 96.277344 85.441406 96.277344 77.480469 96.941406 C 69.519531 97.601562 57.574219 98.929688 45.628906 98.929688 C 33.6875 98.929688 21.742188 97.601562 16.433594 91.632812 C 11.125 85.660156 12.453125 75.042969 15.769531 67.742188 C 19.089844 60.445312 24.394531 56.464844 29.703125 54.472656 C 35.011719 52.480469 40.320312 52.480469 44.304688 52.480469 C 48.285156 52.480469 50.9375 52.480469 55.582031 56.464844 C 60.226562 60.445312 66.863281 68.40625 70.84375 74.378906 C 74.828125 80.351562 76.152344 84.332031 73.5 86.324219 C 70.84375 88.3125 64.210938 88.3125 56.246094 88.3125 C 48.285156 88.3125 38.996094 88.3125 33.6875 86.988281 C 28.378906 85.660156 27.050781 83.003906 30.367188 82.339844 C 33.6875 81.679688 41.648438 83.003906 47.621094 83.003906 C 53.59375 83.003906 57.574219 81.679688 59.566406 79.6875 C 61.554688 77.695312 61.554688 75.042969 58.238281 73.050781 C 54.917969 71.0625 48.285156 69.734375 42.976562 69.734375 C 37.667969 69.734375 33.6875 71.0625 30.367188 73.714844 C 27.050781 76.371094 24.394531 80.351562 23.734375 83.003906 C 23.070312 85.660156 24.394531 86.988281 27.714844 88.3125 C 31.03125 89.640625 36.339844 90.96875 44.304688 92.296875 C 52.265625 93.621094 62.882812 94.949219 71.507812 94.949219 C 80.136719 94.949219 86.769531 93.621094 88.097656 89.640625 C 89.425781 85.660156 85.441406 79.023438 80.136719 73.050781 C 74.828125 67.078125 68.191406 61.773438 62.21875 57.789062 C 56.246094 53.808594 50.9375 51.15625 45.628906 49.164062 C 40.320312 47.171875 35.011719 45.847656 32.359375 46.511719 C 29.703125 47.171875 29.703125 49.828125 27.714844 51.820312 C 25.722656 53.808594 21.742188 55.136719 20.414062 54.472656 C 19.089844 53.808594 20.414062 51.15625 21.742188 49.164062 Z M 21.742188 49.164062 "/>
</svg>
