<?xml version="1.0" encoding="UTF-8"?>
<svg xmlns="http://www.w3.org/2000/svg" xmlns:xlink="http://www.w3.org/1999/xlink" width="139.224" height="126.997" viewBox="0 0 139.224 126.997">
<defs>
<clipPath id="clip-0">
<path clip-rule="nonzero" d="M 0 0.351562 L 138.453125 0.351562 L 138.453125 126.644531 L 0 126.644531 Z M 0 0.351562 "/>
</clipPath>
</defs>
<path fill-rule="evenodd" fill="rgb(79.098511%, 100%, 43.798828%)" fill-opacity="1" stroke-width="0.4" stroke-linecap="butt" stroke-linejoin="round" stroke="rgb(0%, 100%, 0%)" stroke-opacity="1" stroke-miterlimit="10" d="M 81.466528 85.664592 C 99.468655 84.329065 110.133236 81.661937 112.800363 76.331611 C 115.46749 70.997356 110.133236 62.995974 109.465472 56.997884 C 108.801636 50.995866 112.800363 46.997139 113.468127 42.330648 C 114.131963 37.664158 111.468763 32.329903 110.133236 27.663412 C 108.801636 22.996922 108.801636 18.998195 108.133872 15.663304 C 107.466108 12.328413 106.134509 9.665213 109.465472 7.661922 C 112.800363 5.662559 120.801745 4.330959 125.468235 22.329158 C 130.134726 40.331285 131.466326 77.66321 114.799726 96.996937 C 98.133127 116.330664 63.468329 117.662263 46.801729 118.330027 C 30.13513 118.997791 31.46673 118.997791 28.799602 113.663536 C 26.132475 108.329282 19.466621 97.664701 28.799602 92.330446 C 38.132584 86.996192 63.468329 86.996192 81.466528 85.664592 Z M 81.466528 85.664592 " transform="matrix(0.994457, 0, 0, -0.994457, -0.397783, 127.041328)"/>
<path fill-rule="evenodd" fill="rgb(56.399536%, 93.199158%, 56.399536%)" fill-opacity="1" stroke-width="0.4" stroke-linecap="butt" stroke-linejoin="round" stroke="rgb(0%, 39.099121%, 0%)" stroke-opacity="1" stroke-miterlimit="10" d="M 64.799928 74.996083 L 84.801419 74.996083 L 84.801419 94.997574 L 64.799928 94.997574 Z M 64.799928 74.996083 " transform="matrix(0.994457, 0, 0, -0.994457, -0.397783, 127.041328)"/>
<path fill-rule="evenodd" fill="rgb(67.698669%, 84.599304%, 90.098572%)" fill-opacity="1" stroke-width="0.4" stroke-linecap="butt" stroke-linejoin="round" stroke="rgb(0%, 0%, 0%)" stroke-opacity="1" stroke-miterlimit="10" d="M 40.799711 70.329592 C 42.135239 72.328956 43.466838 73.664484 47.465565 76.331611 C 51.46822 78.998738 58.134074 82.997465 70.801947 76.331611 C 83.465891 69.661829 102.131854 52.331393 110.133236 41.662884 C 118.134617 30.998303 115.46749 26.995649 112.132599 24.996285 C 108.801636 22.996922 104.798981 22.996922 96.801527 22.329158 C 88.800146 21.665322 76.800037 20.329794 64.799928 20.329794 C 52.79982 20.329794 40.799711 21.665322 35.465457 27.663412 C 30.13513 33.665431 31.46673 44.330012 34.801621 51.66363 C 38.132584 58.997248 43.466838 62.995974 48.801093 64.995338 C 54.131419 66.998629 59.465674 66.998629 63.468329 66.998629 C 67.467056 66.998629 70.134183 66.998629 74.800674 62.995974 C 79.467164 58.997248 86.133018 50.995866 90.131745 44.997776 C 94.1344 38.995757 95.466 34.99703 92.798873 32.997667 C 90.131745 30.998303 83.465891 30.998303 75.468437 30.998303 C 67.467056 30.998303 58.134074 30.998303 52.79982 32.329903 C 47.465565 33.665431 46.133966 36.32863 49.464929 36.996394 C 52.79982 37.664158 60.801201 36.32863 66.799292 36.32863 C 72.80131 36.32863 76.800037 37.664158 78.7994 39.663521 C 80.798764 41.662884 80.798764 44.330012 77.467801 46.329375 C 74.13291 48.328739 67.467056 49.664266 62.132801 49.664266 C 56.798547 49.664266 52.79982 48.328739 49.464929 45.661611 C 46.133966 42.998412 43.466838 38.995757 42.799075 36.32863 C 42.135239 33.665431 43.466838 32.329903 46.801729 30.998303 C 50.132692 29.662776 55.466947 28.331176 63.468329 26.995649 C 71.465782 25.664049 82.134292 24.328521 90.799509 24.328521 C 99.468655 24.328521 106.134509 25.664049 107.466108 29.662776 C 108.801636 33.665431 104.798981 40.331285 99.468655 46.329375 C 94.1344 52.331393 87.468546 57.66172 81.466528 61.664375 C 75.468437 65.663102 70.134183 68.330229 64.799928 70.329592 C 59.465674 72.328956 54.131419 73.664484 51.46822 72.99672 C 48.801093 72.328956 48.801093 69.661829 46.801729 67.662465 C 44.798438 65.663102 40.799711 64.331502 39.468111 64.995338 C 38.132584 65.663102 39.468111 68.330229 40.799711 70.329592 Z M 40.799711 70.329592 " transform="matrix(0.994457, 0, 0, -0.994457, -0.397783, 127.041328)"/>
<path fill-rule="evenodd" fill="rgb(100%, 84.199524%, 0%)" fill-opacity="1" stroke-width="0.4" stroke-linecap="butt" stroke-linejoin="round" stroke="rgb(100%, 49.699402%, 31.298828%)" stroke-opacity="1" stroke-miterlimit="10" d="M 37.74371 46.997139 C 37.74371 51.934663 33.741055 55.941246 28.799602 55.941246 C 23.862078 55.941246 19.855495 51.934663 19.855495 46.997139 C 19.855495 42.055687 23.862078 38.053032 28.799602 38.053032 C 33.741055 38.053032 37.74371 42.055687 37.74371 46.997139 Z M 37.74371 46.997139 " transform="matrix(0.994457, 0, 0, -0.994457, -0.397783, 127.041328)"/>
<path fill="none" stroke-width="0.8" stroke-linecap="butt" stroke-linejoin="round" stroke="rgb(0%, 39.099121%, 0%)" stroke-opacity="1" stroke-miterlimit="10" d="M 64.799928 74.996083 L 84.801419 74.996083 L 84.801419 94.997574 L 64.799928 94.997574 Z M 64.799928 74.996083 " transform="matrix(0.994457, 0, 0, -0.994457, -0.397783, 127.041328)"/>
<path fill="none" stroke-width="0.8" stroke-linecap="butt" stroke-linejoin="round" stroke="rgb(100%, 49.699402%, 31.298828%)" stroke-opacity="1" stroke-miterlimit="10" d="M 37.74371 46.997139 C 37.74371 51.934663 33.741055 55.941246 28.799602 55.941246 C 23.862078 55.941246 19.855495 51.934663 19.855495 46.997139 C 19.855495 42.055687 23.862078 38.053032 28.799602 38.053032 C 33.741055 38.053032 37.74371 42.055687 37.74371 46.997139 Z M 37.74371 46.997139 " transform="matrix(0.994457, 0, 0, -0.994457, -0.397783, 127.041328)"/>
<path fill="none" stroke-width="0.8" stroke-linecap="butt" stroke-linejoin="round" stroke="rgb(0%, 0%, 100%)" stroke-opacity="1" stroke-miterlimit="10" d="M 40.799711 70.329592 C 42.135239 72.328956 43.466838 73.664484 47.465565 76.331611 C 51.46822 78.998738 58.134074 82.997465 70.801947 76.331611 C 83.465891 69.661829 102.131854 52.331393 110.133236 41.662884 C 118.134617 30.998303 115.46749 26.995649 112.132599 24.996285 C 108.801636 22.996922 104.798981 22.996922 96.801527 22.329158 C 88.800146 21.665322 76.800037 20.329794 64.799928 20.329794 C 52.79982 20.329794 40.799711 21.665322 35.465457 27.663412 C 30.13513 33.665431 31.46673 44.330012 34.801621 51.66363 C 38.132584 58.997248 43.466838 62.995974 48.801093 64.995338 C 54.131419 66.998629 59.465674 66.998629 63.468329 66.998629 C 67.467056 66.998629 70.134183 66.998629 74.800674 62.995974 C 79.467164 58.997248 86.133018 50.995866 90.131745 44.997776 C 94.1344 38.995757 95.466 34.99703 92.798873 32.997667 C 90.131745 30.998303 83.465891 30.998303 75.468437 30.998303 C 67.467056 30.998303 58.134074 30.998303 52.79982 32.329903 C 47.465565 33.665431 46.133966 36.32863 49.464929 36.996394 C 52.79982 37.664158 60.801201 36.32863 66.799292 36.32863 C 72.80131 36.32863 76.800037 37.664158 78.7994 39.663521 C 80.798764 41.662884 80.798764 44.330012 77.467801 46.329375 C 74.13291 48.328739 67.467056 49.664266 62.132801 49.664266 C 56.798547 49.664266 52.79982 48.328739 49.464929 45.661611 C 46.133966 42.998412 43.466838 38.995757 42.799075 36.32863 C 42.135239 33.665431 43.466838 32.329903 46.801729 30.998303 C 50.132692 29.662776 55.466947 28.331176 63.468329 26.995649 C 71.465782 25.664049 82.134292 24.328521 90.799509 24.328521 C 99.468655 24.328521 106.134509 25.664049 107.466108 29.662776 C 108.801636 33.665431 104.798981 40.331285 99.468655 46.329375 C 94.1344 52.331393 87.468546 57.66172 81.466528 61.664375 C 75.468437 65.663102 70.134183 68.330229 64.799928 70.329592 C 59.465674 72.328956 54.131419 73.664484 51.46822 72.99672 C 48.801093 72.328956 48.801093 69.661829 46.801729 67.662465 C 44.798438 65.663102 40.799711 64.331502 39.468111 64.995338 C 38.132584 65.663102 39.468111 68.330229 40.799711 70.329592 Z M 40.799711 70.329592 " transform="matrix(0.994457, 0, 0, -0.994457, -0.397783, 127.041328)"/>
<path fill="none" stroke-width="0.8" stroke-linecap="butt" stroke-linejoin="round" stroke="rgb(59.899902%, 19.499207%, 79.899597%)" stroke-opacity="1" stroke-miterlimit="10" d="M 81.466528 85.664592 C 99.468655 84.329065 110.133236 81.661937 112.800363 76.331611 C 115.46749 70.997356 110.133236 62.995974 109.465472 56.997884 C 108.801636 50.995866 112.800363 46.997139 113.468127 42.330648 C 114.131963 37.664158 111.468763 32.329903 110.133236 27.663412 C 108.801636 22.996922 108.801636 18.998195 108.133872 15.663304 C 107.466108 12.328413 106.134509 9.665213 109.465472 7.661922 C 112.800363 5.662559 120.801745 4.330959 125.468235 22.329158 C 130.134726 40.331285 131.466326 77.66321 114.799726 96.996937 C 98.133127 116.330664 63.468329 117.662263 46.801729 118.330027 C 30.13513 118.997791 31.46673 118.997791 28.799602 113.663536 C 26.132475 108.329282 19.466621 97.664701 28.799602 92.330446 C 38.132584 86.996192 63.468329 86.996192 81.466528 85.664592 Z M 81.466528 85.664592 " transform="matrix(0.994457, 0, 0, -0.994457, -0.397783, 127.041328)"/>
<g clip-path="url(#clip-0)">
<path fill="none" stroke-width="0.8" stroke-linecap="butt" stroke-linejoin="round" stroke="rgb(100%, 100%, 100%)" stroke-opacity="1" stroke-miterlimit="10" d="M 0.800658 0.799667 L 139.22417 0.799667 L 139.22417 126.995245 L 0.800658 126.995245 Z M 0.800658 0.799667 " transform="matrix(0.994457, 0, 0, -0.994457, -0.397783, 127.041328)"/>
</g>
<path fill-rule="evenodd" fill="rgb(100%, 0%, 0%)" fill-opacity="1" stroke-width="0.6" stroke-linecap="butt" stroke-linejoin="round" stroke="rgb(0%, 0%, 0%)" stroke-opacity="1" stroke-miterlimit="10" d="M 27.817597 48.14805 C 27.817597 48.976862 27.145905 49.648554 26.317092 49.648554 C 25.488279 49.648554 24.820516 48.976862 24.820516 48.14805 C 24.820516 47.319237 25.488279 46.647545 26.317092 46.647545 C 27.145905 46.647545 27.817597 47.319237 27.817597 48.14805 Z M 27.817597 48.14805 " transform="matrix(0.994457, 0, 0, -0.994457, -0.397783, 127.041328)"/>
<path fill-rule="evenodd" fill="rgb(100%, 0%, 0%)" fill-opacity="1" stroke-width="0.6" stroke-linecap="butt" stroke-linejoin="round" stroke="rgb(0%, 0%, 0%)" stroke-opacity="1" stroke-miterlimit="10" d="M 36.793128 45.469138 C 36.793128 46.297951 36.121436 46.969643 35.292624 46.969643 C 34.463811 46.969643 33.792119 46.297951 33.792119 45.469138 C 33.792119 44.640326 34.463811 43.968634 35.292624 43.968634 C 36.121436 43.968634 36.793128 44.640326 36.793128 45.469138 Z M 36.793128 45.469138 " transform="matrix(0.994457, 0, 0, -0.994457, -0.397783, 127.041328)"/>
<path fill-rule="evenodd" fill="rgb(100%, 0%, 0%)" fill-opacity="1" stroke-width="0.6" stroke-linecap="butt" stroke-linejoin="round" stroke="rgb(0%, 0%, 0%)" stroke-opacity="1" stroke-miterlimit="10" d="M 50.737608 54.334685 C 50.737608 55.163498 50.065916 55.83519 49.237103 55.83519 C 48.408291 55.83519 47.736599 55.163498 47.736599 54.334685 C 47.736599 53.5098 48.408291 52.838108 49.237103 52.838108 C 50.065916 52.838108 50.737608 53.5098 50.737608 54.334685 Z M 50.737608 54.334685 " transform="matrix(0.994457, 0, 0, -0.994457, -0.397783, 127.041328)"/>
<path fill-rule="evenodd" fill="rgb(100%, 0%, 0%)" fill-opacity="1" stroke-width="0.6" stroke-linecap="butt" stroke-linejoin="round" stroke="rgb(0%, 0%, 0%)" stroke-opacity="1" stroke-miterlimit="10" d="M 114.575829 29.949521 C 114.575829 30.778334 113.904137 31.450026 113.075324 31.450026 C 112.246512 31.450026 111.57482 30.778334 111.57482 29.949521 C 111.57482 29.120709 112.246512 28.449017 113.075324 28.449017 C 113.904137 28.449017 114.575829 29.120709 114.575829 29.949521 Z M 114.575829 29.949521 " transform="matrix(0.994457, 0, 0, -0.994457, -0.397783, 127.041328)"/>
<path fill-rule="evenodd" fill="rgb(100%, 0%, 0%)" fill-opacity="1" stroke-width="0.6" stroke-linecap="butt" stroke-linejoin="round" stroke="rgb(0%, 0%, 0%)" stroke-opacity="1" stroke-miterlimit="10" d="M 120.97065 36.128301 C 120.97065 36.957114 120.298958 37.628805 119.470145 37.628805 C 118.641332 37.628805 117.96964 36.957114 117.96964 36.128301 C 117.96964 35.299488 118.641332 34.627796 119.470145 34.627796 C 120.298958 34.627796 120.97065 35.299488 120.97065 36.128301 Z M 120.97065 36.128301 " transform="matrix(0.994457, 0, 0, -0.994457, -0.397783, 127.041328)"/>
<path fill-rule="evenodd" fill="rgb(100%, 0%, 0%)" fill-opacity="1" stroke-width="0.6" stroke-linecap="butt" stroke-linejoin="round" stroke="rgb(0%, 0%, 0%)" stroke-opacity="1" stroke-miterlimit="10" d="M 79.675349 91.077407 C 79.675349 91.90622 79.003658 92.577912 78.174845 92.577912 C 77.346032 92.577912 76.67434 91.90622 76.67434 91.077407 C 76.67434 90.248594 77.346032 89.576903 78.174845 89.576903 C 79.003658 89.576903 79.675349 90.248594 79.675349 91.077407 Z M 79.675349 91.077407 " transform="matrix(0.994457, 0, 0, -0.994457, -0.397783, 127.041328)"/>
<path fill-rule="evenodd" fill="rgb(100%, 0%, 0%)" fill-opacity="1" stroke-width="0.6" stroke-linecap="butt" stroke-linejoin="round" stroke="rgb(0%, 0%, 0%)" stroke-opacity="1" stroke-miterlimit="10" d="M 74.148622 82.408262 C 74.148622 83.237074 73.47693 83.908766 72.648117 83.908766 C 71.819305 83.908766 71.147613 83.237074 71.147613 82.408262 C 71.147613 81.579449 71.819305 80.907757 72.648117 80.907757 C 73.47693 80.907757 74.148622 81.579449 74.148622 82.408262 Z M 74.148622 82.408262 " transform="matrix(0.994457, 0, 0, -0.994457, -0.397783, 127.041328)"/>
<path fill-rule="evenodd" fill="rgb(100%, 0%, 0%)" fill-opacity="1" stroke-width="0.6" stroke-linecap="butt" stroke-linejoin="round" stroke="rgb(0%, 0%, 0%)" stroke-opacity="1" stroke-miterlimit="10" d="M 67.53776 76.555508 C 67.53776 77.384321 66.866068 78.056013 66.037255 78.056013 C 65.208443 78.056013 64.536751 77.384321 64.536751 76.555508 C 64.536751 75.726695 65.208443 75.055003 66.037255 75.055003 C 66.866068 75.055003 67.53776 75.726695 67.53776 76.555508 Z M 67.53776 76.555508 " transform="matrix(0.994457, 0, 0, -0.994457, -0.397783, 127.041328)"/>
</svg>
