<?xml version="1.0" encoding="UTF-8"?>
<svg xmlns="http://www.w3.org/2000/svg" xmlns:xlink="http://www.w3.org/1999/xlink" width="110.481" height="113.852001" viewBox="0 0 110.481 113.852001">
<defs>
<clipPath id="clip-0">
<path clip-rule="nonzero" d="M 4 0.191406 L 109.964844 0.191406 L 109.964844 113.511719 L 4 113.511719 Z M 4 0.191406 "/>
</clipPath>
</defs>
<path fill="none" stroke-width="0.8" stroke-linecap="butt" stroke-linejoin="round" stroke="rgb(0%, 39.099121%, 0%)" stroke-opacity="1" stroke-miterlimit="10" d="M 46.243254 69.71675 L 66.243017 69.71675 L 66.243017 89.716513 L 46.243254 89.716513 Z M 46.243254 69.71675 " transform="matrix(0.995324, 0, 0, -0.995324, -0.39813, 113.910309)"/>
<path fill="none" stroke-width="0.8" stroke-linecap="butt" stroke-linejoin="round" stroke="rgb(100%, 49.699402%, 31.298828%)" stroke-opacity="1" stroke-miterlimit="10" d="M 19.187061 41.718653 C 19.187061 46.6558 15.183969 50.662817 10.242897 50.662817 C 5.30575 50.662817 1.298733 46.6558 1.298733 41.718653 C 1.298733 36.777581 5.30575 32.770564 10.242897 32.770564 C 15.183969 32.770564 19.187061 36.777581 19.187061 41.718653 Z M 19.187061 41.718653 " transform="matrix(0.995324, 0, 0, -0.995324, -0.39813, 113.910309)"/>
<path fill="none" stroke-width="0.8" stroke-linecap="butt" stroke-linejoin="round" stroke="rgb(0%, 0%, 100%)" stroke-opacity="1" stroke-miterlimit="10" d="M 22.244324 65.050401 C 23.578689 67.051947 24.909128 68.382386 28.91222 71.051114 C 32.911388 73.715918 39.579283 77.715086 52.243968 71.051114 C 64.912577 64.383219 83.577976 47.04826 91.576311 36.385121 C 99.578571 25.718058 96.909842 21.714966 93.577857 19.717344 C 90.245871 17.715798 86.242779 17.715798 78.244444 17.048616 C 70.246109 16.381434 58.244682 15.050995 46.243254 15.050995 C 34.245752 15.050995 22.244324 16.381434 16.910793 22.382148 C 11.577261 28.382862 12.911625 39.049925 16.243611 46.385002 C 19.579521 53.716156 24.909128 57.715323 30.24266 59.716869 C 35.576191 61.718415 40.909723 61.718415 44.912815 61.718415 C 48.911983 61.718415 51.576786 61.718415 56.243136 57.715323 C 60.909485 53.716156 67.577381 45.71782 71.576548 39.717107 C 75.575716 33.716393 76.91008 29.717226 74.245277 27.715679 C 71.576548 25.718058 64.912577 25.718058 56.910318 25.718058 C 48.911983 25.718058 39.579283 25.718058 34.245752 27.048497 C 28.91222 28.382862 27.577856 31.05159 30.909842 31.714847 C 34.245752 32.382029 42.244087 31.05159 48.244801 31.05159 C 54.245514 31.05159 58.244682 32.382029 60.246228 34.383575 C 62.243849 36.385121 62.243849 39.049925 58.911864 41.051471 C 55.575954 43.049092 48.911983 44.383456 43.578451 44.383456 C 38.244919 44.383456 34.245752 43.049092 30.909842 40.384289 C 27.577856 37.715561 24.909128 33.716393 24.245871 31.05159 C 23.578689 28.382862 24.909128 27.048497 28.245038 25.718058 C 31.577024 24.383694 36.910555 23.04933 44.912815 21.714966 C 52.91115 20.384526 63.578213 19.050162 72.24373 19.050162 C 80.909248 19.050162 87.577143 20.384526 88.911507 24.383694 C 90.245871 28.382862 86.242779 35.050757 80.909248 41.051471 C 75.575716 47.04826 68.911745 52.381791 62.911031 56.384884 C 56.910318 60.384051 51.576786 63.048855 46.243254 65.050401 C 40.909723 67.051947 35.576191 68.382386 32.911388 67.715204 C 30.24266 67.051947 30.24266 64.383219 28.245038 62.381673 C 26.243492 60.384051 22.244324 59.049687 20.90996 59.716869 C 19.579521 60.384051 20.90996 63.048855 22.244324 65.050401 Z M 22.244324 65.050401 " transform="matrix(0.995324, 0, 0, -0.995324, -0.39813, 113.910309)"/>
<g clip-path="url(#clip-0)">
<path fill="none" stroke-width="0.8" stroke-linecap="butt" stroke-linejoin="round" stroke="rgb(59.899902%, 19.499207%, 79.899597%)" stroke-opacity="1" stroke-miterlimit="10" d="M 62.911031 80.383814 C 80.909248 79.04945 91.576311 76.384646 94.245039 71.051114 C 96.909842 65.717583 91.576311 57.715323 90.909129 51.718534 C 90.245871 45.71782 94.245039 41.718653 94.912221 37.048379 C 95.579403 32.382029 92.910675 27.048497 91.576311 22.382148 C 90.245871 17.715798 90.245871 13.716631 89.578689 10.384645 C 88.911507 7.048735 87.577143 4.383932 90.909129 2.382385 C 94.245039 0.384764 102.243374 -0.9496 106.909724 17.048616 C 111.576073 35.050757 112.910437 72.381554 96.24266 91.718059 C 79.578808 111.050639 44.912815 112.381079 28.245038 113.048261 C 11.577261 113.715443 12.911625 113.715443 10.242897 108.381911 C 7.578094 103.04838 0.910198 92.385241 10.242897 87.051709 C 19.579521 81.718178 44.912815 81.718178 62.911031 80.383814 Z M 62.911031 80.383814 " transform="matrix(0.995324, 0, 0, -0.995324, -0.39813, 113.910309)"/>
</g>
<path fill-rule="evenodd" fill="rgb(100%, 0%, 0%)" fill-opacity="1" stroke-width="0.6" stroke-linecap="butt" stroke-linejoin="round" stroke="rgb(0%, 0%, 0%)" stroke-opacity="1" stroke-miterlimit="10" d="M 9.261747 42.868561 C 9.261747 43.696651 8.590641 44.367758 7.76255 44.367758 C 6.934459 44.367758 6.263353 43.696651 6.263353 42.868561 C 6.263353 42.04047 6.934459 41.365439 7.76255 41.365439 C 8.590641 41.365439 9.261747 42.04047 9.261747 42.868561 Z M 9.261747 42.868561 " transform="matrix(0.995324, 0, 0, -0.995324, -0.39813, 113.910309)"/>
<path fill-rule="evenodd" fill="rgb(100%, 0%, 0%)" fill-opacity="1" stroke-width="0.6" stroke-linecap="butt" stroke-linejoin="round" stroke="rgb(0%, 0%, 0%)" stroke-opacity="1" stroke-miterlimit="10" d="M 18.237308 40.191983 C 18.237308 41.020074 17.566201 41.691181 16.73811 41.691181 C 15.91002 41.691181 15.238913 41.020074 15.238913 40.191983 C 15.238913 39.359968 15.91002 38.688862 16.73811 38.688862 C 17.566201 38.688862 18.237308 39.359968 18.237308 40.191983 Z M 18.237308 40.191983 " transform="matrix(0.995324, 0, 0, -0.995324, -0.39813, 113.910309)"/>
<path fill-rule="evenodd" fill="rgb(100%, 0%, 0%)" fill-opacity="1" stroke-width="0.6" stroke-linecap="butt" stroke-linejoin="round" stroke="rgb(0%, 0%, 0%)" stroke-opacity="1" stroke-miterlimit="10" d="M 32.181412 49.057655 C 32.181412 49.885746 31.510305 50.556852 30.682215 50.556852 C 29.854124 50.556852 29.179093 49.885746 29.179093 49.057655 C 29.179093 48.229565 29.854124 47.554533 30.682215 47.554533 C 31.510305 47.554533 32.181412 48.229565 32.181412 49.057655 Z M 32.181412 49.057655 " transform="matrix(0.995324, 0, 0, -0.995324, -0.39813, 113.910309)"/>
<path fill-rule="evenodd" fill="rgb(100%, 0%, 0%)" fill-opacity="1" stroke-width="0.6" stroke-linecap="butt" stroke-linejoin="round" stroke="rgb(0%, 0%, 0%)" stroke-opacity="1" stroke-miterlimit="10" d="M 96.018958 24.67019 C 96.018958 25.49828 95.347852 26.169387 94.519761 26.169387 C 93.69167 26.169387 93.020564 25.49828 93.020564 24.67019 C 93.020564 23.842099 93.69167 23.170993 94.519761 23.170993 C 95.347852 23.170993 96.018958 23.842099 96.018958 24.67019 Z M 96.018958 24.67019 " transform="matrix(0.995324, 0, 0, -0.995324, -0.39813, 113.910309)"/>
<path fill-rule="evenodd" fill="rgb(100%, 0%, 0%)" fill-opacity="1" stroke-width="0.6" stroke-linecap="butt" stroke-linejoin="round" stroke="rgb(0%, 0%, 0%)" stroke-opacity="1" stroke-miterlimit="10" d="M 102.412132 30.84751 C 102.412132 31.675601 101.74495 32.346708 100.912935 32.346708 C 100.084844 32.346708 99.413737 31.675601 99.413737 30.84751 C 99.413737 30.01942 100.084844 29.348313 100.912935 29.348313 C 101.74495 29.348313 102.412132 30.01942 102.412132 30.84751 Z M 102.412132 30.84751 " transform="matrix(0.995324, 0, 0, -0.995324, -0.39813, 113.910309)"/>
<path fill-rule="evenodd" fill="rgb(100%, 0%, 0%)" fill-opacity="1" stroke-width="0.6" stroke-linecap="butt" stroke-linejoin="round" stroke="rgb(0%, 0%, 0%)" stroke-opacity="1" stroke-miterlimit="10" d="M 61.121414 85.799762 C 61.121414 86.627852 60.446382 87.298959 59.618292 87.298959 C 58.790201 87.298959 58.119095 86.627852 58.119095 85.799762 C 58.119095 84.971671 58.790201 84.29664 59.618292 84.29664 C 60.446382 84.29664 61.121414 84.971671 61.121414 85.799762 Z M 61.121414 85.799762 " transform="matrix(0.995324, 0, 0, -0.995324, -0.39813, 113.910309)"/>
<path fill-rule="evenodd" fill="rgb(100%, 0%, 0%)" fill-opacity="1" stroke-width="0.6" stroke-linecap="butt" stroke-linejoin="round" stroke="rgb(0%, 0%, 0%)" stroke-opacity="1" stroke-miterlimit="10" d="M 55.591652 77.126395 C 55.591652 77.954486 54.920545 78.629517 54.092455 78.629517 C 53.264364 78.629517 52.593257 77.954486 52.593257 77.126395 C 52.593257 76.298305 53.264364 75.627198 54.092455 75.627198 C 54.920545 75.627198 55.591652 76.298305 55.591652 77.126395 Z M 55.591652 77.126395 " transform="matrix(0.995324, 0, 0, -0.995324, -0.39813, 113.910309)"/>
<path fill-rule="evenodd" fill="rgb(100%, 0%, 0%)" fill-opacity="1" stroke-width="0.6" stroke-linecap="butt" stroke-linejoin="round" stroke="rgb(0%, 0%, 0%)" stroke-opacity="1" stroke-miterlimit="10" d="M 48.978701 71.274817 C 48.978701 72.102907 48.307594 72.774014 47.479503 72.774014 C 46.651413 72.774014 45.980306 72.102907 45.980306 71.274817 C 45.980306 70.446726 46.651413 69.775619 47.479503 69.775619 C 48.307594 69.775619 48.978701 70.446726 48.978701 71.274817 Z M 48.978701 71.274817 " transform="matrix(0.995324, 0, 0, -0.995324, -0.39813, 113.910309)"/>
</svg>
