<?xml version="1.0" encoding="UTF-8"?>
<svg xmlns="http://www.w3.org/2000/svg" xmlns:xlink="http://www.w3.org/1999/xlink" width="1000" height="1000" viewBox="0 0 1000 1000">
<rect x="-100" y="-100" width="1200" height="1200" fill="rgb(100%, 100%, 100%)" fill-opacity="1"/>
<path fill-rule="nonzero" fill="rgb(81.358337%, 89.99939%, 17.999268%)" fill-opacity="0.25" stroke-width="6" stroke-linecap="butt" stroke-linejoin="miter" stroke="rgb(81.358337%, 89.99939%, 17.999268%)" stroke-opacity="1" stroke-miterlimit="10" d="M 583.226562 627 C 583.226562 769.613281 467.613281 885.226562 325 885.226562 C 182.386719 885.226562 66.773438 769.613281 66.773438 627 C 66.773438 484.386719 182.386719 368.773438 325 368.773438 C 467.613281 368.773438 583.226562 484.386719 583.226562 627 "/>
<path fill-rule="nonzero" fill="rgb(89.99939%, 29.866028%, 17.999268%)" fill-opacity="0.25" stroke-width="6" stroke-linecap="butt" stroke-linejoin="miter" stroke="rgb(89.99939%, 29.866028%, 17.999268%)" stroke-opacity="1" stroke-miterlimit="10" d="M 795.035156 674 C 795.035156 826.449219 671.449219 950.035156 519 950.035156 C 366.550781 950.035156 242.964844 826.449219 242.964844 674 C 242.964844 521.550781 366.550781 397.964844 519 397.964844 C 671.449219 397.964844 795.035156 521.550781 795.035156 674 "/>
<path fill-rule="nonzero" fill="rgb(17.999268%, 35.961914%, 89.99939%)" fill-opacity="0.25" stroke-width="6" stroke-linecap="butt" stroke-linejoin="miter" stroke="rgb(17.999268%, 35.961914%, 89.99939%)" stroke-opacity="1" stroke-miterlimit="10" d="M 896.066406 627 C 896.066406 786.648438 766.648438 916.066406 607 916.066406 C 447.351562 916.066406 317.933594 786.648438 317.933594 627 C 317.933594 467.351562 447.351562 337.933594 607 337.933594 C 766.648438 337.933594 896.066406 467.351562 896.066406 627 "/>
<path fill-rule="nonzero" fill="rgb(52.958679%, 17.999268%, 89.99939%)" fill-opacity="0.25" stroke-width="6" stroke-linecap="butt" stroke-linejoin="miter" stroke="rgb(52.958679%, 17.999268%, 89.99939%)" stroke-opacity="1" stroke-miterlimit="10" d="M 889.609375 567 C 889.609375 707.0625 776.0625 820.609375 636 820.609375 C 495.9375 820.609375 382.390625 707.0625 382.390625 567 C 382.390625 426.9375 495.9375 313.390625 636 313.390625 C 776.0625 313.390625 889.609375 426.9375 889.609375 567 "/>
<path fill-rule="nonzero" fill="rgb(89.99939%, 39.483643%, 17.999268%)" fill-opacity="0.25" stroke-width="6" stroke-linecap="butt" stroke-linejoin="miter" stroke="rgb(89.99939%, 39.483643%, 17.999268%)" stroke-opacity="1" stroke-miterlimit="10" d="M 831.035156 264 C 831.035156 449.035156 681.035156 599.035156 496 599.035156 C 310.964844 599.035156 160.964844 449.035156 160.964844 264 C 160.964844 78.964844 310.964844 -71.035156 496 -71.035156 C 681.035156 -71.035156 831.035156 78.964844 831.035156 264 "/>
<path fill-rule="nonzero" fill="rgb(60.215759%, 89.99939%, 17.999268%)" fill-opacity="0.25" stroke-width="6" stroke-linecap="butt" stroke-linejoin="miter" stroke="rgb(60.215759%, 89.99939%, 17.999268%)" stroke-opacity="1" stroke-miterlimit="10" d="M 930.019531 648 C 930.019531 815.355469 794.355469 951.019531 627 951.019531 C 459.644531 951.019531 323.980469 815.355469 323.980469 648 C 323.980469 480.644531 459.644531 344.980469 627 344.980469 C 794.355469 344.980469 930.019531 480.644531 930.019531 648 "/>
<path fill-rule="nonzero" fill="rgb(85.423279%, 89.99939%, 17.999268%)" fill-opacity="0.25" stroke-width="6" stroke-linecap="butt" stroke-linejoin="miter" stroke="rgb(85.423279%, 89.99939%, 17.999268%)" stroke-opacity="1" stroke-miterlimit="10" d="M 817.308594 391 C 817.308594 524.824219 708.824219 633.308594 575 633.308594 C 441.175781 633.308594 332.691406 524.824219 332.691406 391 C 332.691406 257.175781 441.175781 148.691406 575 148.691406 C 708.824219 148.691406 817.308594 257.175781 817.308594 391 "/>
<path fill-rule="nonzero" fill="rgb(21.69342%, 89.99939%, 17.999268%)" fill-opacity="0.25" stroke-width="6" stroke-linecap="butt" stroke-linejoin="miter" stroke="rgb(21.69342%, 89.99939%, 17.999268%)" stroke-opacity="1" stroke-miterlimit="10" d="M 1111.503906 342 C 1111.503906 475.082031 1040.503906 598.058594 925.253906 664.597656 C 810 731.140625 668 731.140625 552.746094 664.597656 C 437.496094 598.058594 366.496094 475.082031 366.496094 342 C 366.496094 208.917969 437.496094 85.941406 552.746094 19.402344 C 668 -47.140625 810 -47.140625 925.253906 19.402344 C 1040.503906 85.941406 1111.503906 208.917969 1111.503906 342 "/>
<path fill-rule="nonzero" fill="rgb(49.89624%, 89.99939%, 17.999268%)" fill-opacity="0.25" stroke-width="6" stroke-linecap="butt" stroke-linejoin="miter" stroke="rgb(49.89624%, 89.99939%, 17.999268%)" stroke-opacity="1" stroke-miterlimit="10" d="M 1097.835938 641 C 1097.835938 774.917969 1026.394531 898.660156 910.417969 965.617188 C 794.445312 1032.578125 651.554688 1032.578125 535.582031 965.617188 C 419.605469 898.660156 348.164062 774.917969 348.164062 641 C 348.164062 507.082031 419.605469 383.339844 535.582031 316.382812 C 651.554688 249.421875 794.445312 249.421875 910.417969 316.382812 C 1026.394531 383.339844 1097.835938 507.082031 1097.835938 641 "/>
<path fill-rule="nonzero" fill="rgb(89.99939%, 33.384705%, 17.999268%)" fill-opacity="0.25" stroke-width="6" stroke-linecap="butt" stroke-linejoin="miter" stroke="rgb(89.99939%, 33.384705%, 17.999268%)" stroke-opacity="1" stroke-miterlimit="10" d="M 600.09375 494 C 600.09375 656.421875 468.421875 788.09375 306 788.09375 C 143.578125 788.09375 11.90625 656.421875 11.90625 494 C 11.90625 331.578125 143.578125 199.90625 306 199.90625 C 468.421875 199.90625 600.09375 331.578125 600.09375 494 "/>
<path fill-rule="nonzero" fill="rgb(39.109802%, 17.999268%, 89.99939%)" fill-opacity="0.25" stroke-width="6" stroke-linecap="butt" stroke-linejoin="miter" stroke="rgb(39.109802%, 17.999268%, 89.99939%)" stroke-opacity="1" stroke-miterlimit="10" d="M 1126.832031 687 C 1126.832031 824.488281 1053.484375 951.53125 934.414062 1020.273438 C 815.347656 1089.015625 668.652344 1089.015625 549.585938 1020.273438 C 430.515625 951.53125 357.167969 824.488281 357.167969 687 C 357.167969 549.511719 430.515625 422.46875 549.585938 353.726562 C 668.652344 284.984375 815.347656 284.984375 934.414062 353.726562 C 1053.484375 422.46875 1126.832031 549.511719 1126.832031 687 "/>
<path fill-rule="nonzero" fill="rgb(43.547058%, 17.999268%, 89.99939%)" fill-opacity="0.25" stroke-width="6" stroke-linecap="butt" stroke-linejoin="miter" stroke="rgb(43.547058%, 17.999268%, 89.99939%)" stroke-opacity="1" stroke-miterlimit="10" d="M 1066.925781 314 C 1066.925781 502.839844 913.839844 655.925781 725 655.925781 C 536.160156 655.925781 383.074219 502.839844 383.074219 314 C 383.074219 125.160156 536.160156 -27.925781 725 -27.925781 C 913.839844 -27.925781 1066.925781 125.160156 1066.925781 314 "/>
<path fill-rule="nonzero" fill="rgb(0%, 0%, 0%)" fill-opacity="1" d="M 516 500 C 516 508.835938 508.835938 516 500 516 C 491.164062 516 484 508.835938 484 500 C 484 491.164062 491.164062 484 500 484 C 508.835938 484 516 491.164062 516 500 "/>
</svg>
