<?xml version="1.0" encoding="UTF-8"?>
<svg xmlns="http://www.w3.org/2000/svg" xmlns:xlink="http://www.w3.org/1999/xlink" width="421.4" height="415.4" viewBox="0 0 421.4 415.4">
<defs>
<clipPath id="clip-0">
<path clip-rule="nonzero" d="M 109 251 L 354 251 L 354 414.800781 L 109 414.800781 Z M 109 251 "/>
</clipPath>
<clipPath id="clip-1">
<path clip-rule="nonzero" d="M 263 119 L 420.796875 119 L 420.796875 367 L 263 367 Z M 263 119 "/>
</clipPath>
<clipPath id="clip-2">
<path clip-rule="nonzero" d="M 0.00390625 32 L 169 32 L 169 271 L 0.00390625 271 Z M 0.00390625 32 "/>
</clipPath>
<clipPath id="clip-3">
<path clip-rule="nonzero" d="M 0.00390625 238 L 145 238 L 145 408 L 0.00390625 408 Z M 0.00390625 238 "/>
</clipPath>
</defs>
<g clip-path="url(#clip-0)">
<path fill-rule="evenodd" fill="rgb(100%, 0%, 0%)" fill-opacity="0.4" d="M 109.046875 270.808594 L 162.789062 282.792969 L 192.835938 251.835938 L 209.722656 269.808594 L 245.757812 253.832031 L 263.644531 279.796875 L 281.796875 300.765625 L 304.585938 320.738281 L 308.757812 344.703125 L 353.695312 366.671875 L 237.679688 414.601562 L 122.027344 407.609375 L 142 365.671875 L 142.996094 340.707031 L 144.816406 320.738281 Z M 109.046875 270.808594 "/>
</g>
<g clip-path="url(#clip-1)">
<path fill-rule="evenodd" fill="rgb(74.899292%, 24.299622%, 100%)" fill-opacity="0.4" d="M 402.441406 119.027344 L 369.492188 142.992188 L 350.519531 151.980469 L 323.054688 156.472656 L 305.761719 180.4375 L 290.695312 208.898438 L 280.707031 243.847656 L 263.644531 279.796875 L 281.617188 300.765625 L 304.585938 320.738281 L 308.757812 344.703125 L 353.695312 366.671875 L 353.515625 366.671875 L 396.925781 327.054688 L 420.597656 205.902344 L 402.621094 119.027344 Z M 402.441406 119.027344 "/>
</g>
<path fill-rule="evenodd" fill="rgb(0%, 39.199829%, 0%)" fill-opacity="0.4" d="M 216.890625 0.199219 L 257.832031 6.191406 L 315.75 11.183594 L 371.667969 44.136719 L 402.621094 119.027344 L 369.492188 142.992188 L 350.699219 151.980469 L 323.054688 156.472656 L 305.671875 180.9375 L 299.769531 143.992188 L 271.8125 121.523438 L 246.667969 119.027344 L 226.195312 102.050781 L 198.738281 100.054688 L 218.886719 74.09375 L 219.886719 34.152344 L 216.710938 0.199219 Z M 216.890625 0.199219 "/>
<path fill-rule="evenodd" fill="rgb(100%, 49.798584%, 31.399536%)" fill-opacity="0.4" d="M 263.824219 279.796875 L 280.117188 243.847656 L 290.785156 208.398438 L 305.582031 180.4375 L 299.589844 143.992188 L 271.632812 121.523438 L 246.667969 119.027344 L 226.785156 102.050781 L 198.828125 100.054688 L 168.871094 127.015625 L 153.980469 148.984375 L 150.804688 177.941406 L 131.015625 182.9375 L 139.824219 216.886719 L 115.855469 227.871094 L 121.847656 249.839844 L 108.867188 270.808594 L 162.96875 282.792969 L 192.925781 251.335938 L 209.902344 269.808594 L 245.757812 253.832031 L 246.164062 253.335938 Z M 263.824219 279.796875 "/>
<path fill-rule="evenodd" fill="rgb(0%, 0%, 54.499817%)" fill-opacity="0.4" d="M 47.136719 32.152344 L 41.964844 68.101562 L 45.957031 96.0625 L 72.101562 114.035156 L 97.0625 104.050781 L 136.007812 99.058594 L 168.871094 127.015625 L 198.917969 100.054688 L 218.886719 74.09375 L 219.886719 34.152344 L 216.890625 0.199219 L 170.777344 1.199219 L 74.097656 7.191406 Z M 47.136719 32.152344 "/>
<g clip-path="url(#clip-2)">
<path fill-rule="evenodd" fill="rgb(0%, 100%, 100%)" fill-opacity="0.4" d="M 0.203125 238.855469 L 35.152344 252.835938 L 67.105469 244.847656 L 80.90625 259.824219 L 109.046875 270.808594 L 122.027344 249.839844 L 116.035156 227.871094 L 139.824219 216.886719 L 131.015625 182.9375 L 150.984375 177.941406 L 153.980469 148.984375 L 168.871094 127.015625 L 136.007812 99.058594 L 97.0625 104.050781 L 72.101562 114.035156 L 46.136719 96.0625 L 42.144531 68.101562 L 46.957031 32.152344 Z M 0.203125 238.855469 "/>
</g>
<g clip-path="url(#clip-3)">
<path fill-rule="evenodd" fill="rgb(54.499817%, 48.199463%, 54.499817%)" fill-opacity="0.4" d="M 0.203125 238.855469 L 35.152344 252.835938 L 67.105469 244.847656 L 81.085938 259.824219 L 108.867188 270.808594 L 144.996094 320.738281 L 142.90625 340.707031 L 141.820312 365.671875 L 121.847656 407.609375 L 65.929688 387.640625 L 30.980469 355.6875 Z M 0.203125 238.855469 "/>
</g>
</svg>
