<?xml version="1.0" encoding="UTF-8"?>
<svg xmlns="http://www.w3.org/2000/svg" xmlns:xlink="http://www.w3.org/1999/xlink" width="473" height="481" viewBox="0 0 473 481">
<path fill-rule="evenodd" fill="rgb(100%, 0%, 0%)" fill-opacity="0.4" d="M 131.089844 304 L 184.910156 316 L 215 285 L 231.910156 303 L 268 287 L 285.910156 313 L 304.089844 334 L 326.910156 354 L 331.089844 378 L 376.089844 400 L 259.910156 448 L 144.089844 441 L 164.089844 399 L 165.089844 374 L 166.910156 354 Z M 131.089844 304 "/>
<path fill-rule="evenodd" fill="rgb(74.899292%, 24.299622%, 100%)" fill-opacity="0.4" d="M 424.910156 152 L 391.910156 176 L 372.910156 185 L 345.40625 189.5 L 328.089844 213.5 L 313 242 L 303 277 L 285.910156 313 L 303.910156 334 L 326.910156 354 L 331.089844 378 L 376.089844 400 L 375.910156 400 L 419.382812 360.324219 L 443.089844 239 L 425.089844 152 Z M 424.910156 152 "/>
<path fill-rule="evenodd" fill="rgb(0%, 39.199829%, 0%)" fill-opacity="0.4" d="M 239.089844 33 L 280.089844 39 L 338.089844 44 L 394.089844 77 L 425.089844 152 L 391.910156 176 L 373.089844 185 L 345.40625 189.5 L 328 214 L 322.089844 177 L 294.089844 154.5 L 268.910156 152 L 248.40625 135 L 220.910156 133 L 241.089844 107 L 242.089844 67 L 238.910156 33 Z M 239.089844 33 "/>
<path fill-rule="evenodd" fill="rgb(100%, 49.798584%, 31.399536%)" fill-opacity="0.4" d="M 286.089844 313 L 302.40625 277 L 313.089844 241.5 L 327.910156 213.5 L 321.910156 177 L 293.910156 154.5 L 268.910156 152 L 249 135 L 221 133 L 191 160 L 176.089844 182 L 172.910156 211 L 153.089844 216 L 161.910156 250 L 137.910156 261 L 143.910156 283 L 130.910156 304 L 185.089844 316 L 215.089844 284.5 L 232.089844 303 L 268 287 L 268.40625 286.5 Z M 286.089844 313 "/>
<path fill-rule="evenodd" fill="rgb(0%, 0%, 54.499817%)" fill-opacity="0.4" d="M 69.089844 65 L 63.910156 101 L 67.910156 129 L 94.089844 147 L 119.089844 137 L 158.089844 132 L 191 160 L 221.089844 133 L 241.089844 107 L 242.089844 67 L 239.089844 33 L 192.910156 34 L 96.089844 40 Z M 69.089844 65 "/>
<path fill-rule="evenodd" fill="rgb(0%, 100%, 100%)" fill-opacity="0.4" d="M 22.089844 272 L 57.089844 286 L 89.089844 278 L 102.910156 293 L 131.089844 304 L 144.089844 283 L 138.089844 261 L 161.910156 250 L 153.089844 216 L 173.089844 211 L 176.089844 182 L 191 160 L 158.089844 132 L 119.089844 137 L 94.089844 147 L 68.089844 129 L 64.089844 101 L 68.910156 65 Z M 22.089844 272 "/>
<path fill-rule="evenodd" fill="rgb(54.499817%, 48.199463%, 54.499817%)" fill-opacity="0.4" d="M 22.089844 272 L 57.089844 286 L 89.089844 278 L 103.089844 293 L 130.910156 304 L 167.089844 354 L 165 374 L 163.910156 399 L 143.910156 441 L 87.910156 421 L 52.910156 389 Z M 22.089844 272 "/>
</svg>
