<?xml version="1.0" encoding="UTF-8"?>
<svg xmlns="http://www.w3.org/2000/svg" xmlns:xlink="http://www.w3.org/1999/xlink" width="473" height="481" viewBox="0 0 473 481">
<path fill-rule="evenodd" fill="rgb(100%, 100%, 100%)" fill-opacity="0.7" stroke-width="8" stroke-linecap="butt" stroke-linejoin="round" stroke="rgb(100%, 100%, 100%)" stroke-opacity="0.7" stroke-miterlimit="10" d="M 162.089844 177 L 215.910156 165 L 246 196 L 262.910156 178 L 299 194 L 316.910156 168 L 335.089844 147 L 357.910156 127 L 362.089844 103 L 407.089844 81 L 290.910156 33 L 175.089844 40 L 195.089844 82 L 196.089844 107 L 197.910156 127 Z M 162.089844 177 " transform="matrix(1, 0, 0, -1, -31, 481)"/>
<path fill-rule="evenodd" fill="rgb(100%, 100%, 100%)" fill-opacity="0.7" stroke-width="8" stroke-linecap="butt" stroke-linejoin="round" stroke="rgb(100%, 100%, 100%)" stroke-opacity="0.7" stroke-miterlimit="10" d="M 455.910156 329 L 422.910156 305 L 403.910156 296 L 376.40625 291.5 L 359.089844 267.5 L 344 239 L 334 204 L 316.910156 168 L 334.910156 147 L 357.910156 127 L 362.089844 103 L 407.089844 81 L 406.910156 81 L 450.382812 120.675781 L 474.089844 242 L 456.089844 329 Z M 455.910156 329 " transform="matrix(1, 0, 0, -1, -31, 481)"/>
<path fill-rule="evenodd" fill="rgb(100%, 100%, 100%)" fill-opacity="0.7" stroke-width="8" stroke-linecap="butt" stroke-linejoin="round" stroke="rgb(100%, 100%, 100%)" stroke-opacity="0.7" stroke-miterlimit="10" d="M 270.089844 448 L 311.089844 442 L 369.089844 437 L 425.089844 404 L 456.089844 329 L 422.910156 305 L 404.089844 296 L 376.40625 291.5 L 359 267 L 353.089844 304 L 325.089844 326.5 L 299.910156 329 L 279.40625 346 L 251.910156 348 L 272.089844 374 L 273.089844 414 L 269.910156 448 Z M 270.089844 448 " transform="matrix(1, 0, 0, -1, -31, 481)"/>
<path fill-rule="evenodd" fill="rgb(100%, 100%, 100%)" fill-opacity="0.7" stroke-width="8" stroke-linecap="butt" stroke-linejoin="round" stroke="rgb(100%, 100%, 100%)" stroke-opacity="0.7" stroke-miterlimit="10" d="M 100.089844 416 L 94.910156 380 L 98.910156 352 L 125.089844 334 L 150.089844 344 L 189.089844 349 L 222 321 L 252.089844 348 L 272.089844 374 L 273.089844 414 L 270.089844 448 L 223.910156 447 L 127.089844 441 Z M 100.089844 416 " transform="matrix(1, 0, 0, -1, -31, 481)"/>
<path fill-rule="evenodd" fill="rgb(100%, 100%, 100%)" fill-opacity="0.7" stroke-width="8" stroke-linecap="butt" stroke-linejoin="round" stroke="rgb(100%, 100%, 100%)" stroke-opacity="0.7" stroke-miterlimit="10" d="M 53.089844 209 L 88.089844 195 L 120.089844 203 L 133.910156 188 L 162.089844 177 L 175.089844 198 L 169.089844 220 L 192.910156 231 L 184.089844 265 L 204.089844 270 L 207.089844 299 L 222 321 L 189.089844 349 L 150.089844 344 L 125.089844 334 L 99.089844 352 L 95.089844 380 L 99.910156 416 Z M 53.089844 209 " transform="matrix(1, 0, 0, -1, -31, 481)"/>
<path fill-rule="evenodd" fill="rgb(100%, 100%, 100%)" fill-opacity="0.7" stroke-width="8" stroke-linecap="butt" stroke-linejoin="round" stroke="rgb(100%, 100%, 100%)" stroke-opacity="0.7" stroke-miterlimit="10" d="M 53.089844 209 L 88.089844 195 L 120.089844 203 L 134.089844 188 L 161.910156 177 L 198.089844 127 L 196 107 L 194.910156 82 L 174.910156 40 L 118.910156 60 L 83.910156 92 Z M 53.089844 209 " transform="matrix(1, 0, 0, -1, -31, 481)"/>
</svg>
