<?xml version="1.0" encoding="UTF-8"?>
<svg xmlns="http://www.w3.org/2000/svg" xmlns:xlink="http://www.w3.org/1999/xlink" width="473" height="481" viewBox="0 0 473 481">
<path fill-rule="evenodd" fill="rgb(100%, 60.099792%, 60.099792%)" fill-opacity="1" d="M 228.589844 133 C 228.589844 128.859375 225.230469 125.5 221.089844 125.5 C 216.949219 125.5 213.589844 128.859375 213.589844 133 C 213.589844 137.140625 216.949219 140.5 221.089844 140.5 C 225.230469 140.5 228.589844 137.140625 228.589844 133 "/>
<path fill-rule="evenodd" fill="rgb(100%, 0%, 0%)" fill-opacity="1" d="M 230.089844 133 C 230.089844 128.027344 226.0625 124 221.089844 124 C 216.117188 124 212.089844 128.027344 212.089844 133 C 212.089844 137.972656 216.117188 142 221.089844 142 C 226.0625 142 230.089844 137.972656 230.089844 133 M 227.089844 133 C 227.089844 129.6875 224.402344 127 221.089844 127 C 217.777344 127 215.089844 129.6875 215.089844 133 C 215.089844 136.3125 217.777344 139 221.089844 139 C 224.402344 139 227.089844 136.3125 227.089844 133 "/>
<path fill-rule="evenodd" fill="rgb(100%, 60.099792%, 60.099792%)" fill-opacity="1" d="M 256.5 135 C 256.5 130.859375 253.140625 127.5 249 127.5 C 244.859375 127.5 241.5 130.859375 241.5 135 C 241.5 139.140625 244.859375 142.5 249 142.5 C 253.140625 142.5 256.5 139.140625 256.5 135 "/>
<path fill-rule="evenodd" fill="rgb(100%, 0%, 0%)" fill-opacity="1" d="M 258 135 C 258 130.027344 253.972656 126 249 126 C 244.027344 126 240 130.027344 240 135 C 240 139.972656 244.027344 144 249 144 C 253.972656 144 258 139.972656 258 135 M 255 135 C 255 131.6875 252.3125 129 249 129 C 245.6875 129 243 131.6875 243 135 C 243 138.3125 245.6875 141 249 141 C 252.3125 141 255 138.3125 255 135 "/>
<path fill-rule="evenodd" fill="rgb(100%, 60.099792%, 60.099792%)" fill-opacity="1" d="M 276.589844 152 C 276.589844 147.859375 273.230469 144.5 269.089844 144.5 C 264.949219 144.5 261.589844 147.859375 261.589844 152 C 261.589844 156.140625 264.949219 159.5 269.089844 159.5 C 273.230469 159.5 276.589844 156.140625 276.589844 152 "/>
<path fill-rule="evenodd" fill="rgb(100%, 0%, 0%)" fill-opacity="1" d="M 278.089844 152 C 278.089844 147.027344 274.0625 143 269.089844 143 C 264.117188 143 260.089844 147.027344 260.089844 152 C 260.089844 156.972656 264.117188 161 269.089844 161 C 274.0625 161 278.089844 156.972656 278.089844 152 M 275.089844 152 C 275.089844 148.6875 272.402344 146 269.089844 146 C 265.777344 146 263.089844 148.6875 263.089844 152 C 263.089844 155.3125 265.777344 158 269.089844 158 C 272.402344 158 275.089844 155.3125 275.089844 152 "/>
<path fill-rule="evenodd" fill="rgb(100%, 60.099792%, 60.099792%)" fill-opacity="1" d="M 301.410156 154.5 C 301.410156 150.359375 298.050781 147 293.910156 147 C 289.769531 147 286.410156 150.359375 286.410156 154.5 C 286.410156 158.640625 289.769531 162 293.910156 162 C 298.050781 162 301.410156 158.640625 301.410156 154.5 "/>
<path fill-rule="evenodd" fill="rgb(100%, 0%, 0%)" fill-opacity="1" d="M 302.910156 154.5 C 302.910156 149.527344 298.882812 145.5 293.910156 145.5 C 288.9375 145.5 284.910156 149.527344 284.910156 154.5 C 284.910156 159.472656 288.9375 163.5 293.910156 163.5 C 298.882812 163.5 302.910156 159.472656 302.910156 154.5 M 299.910156 154.5 C 299.910156 151.1875 297.222656 148.5 293.910156 148.5 C 290.597656 148.5 287.910156 151.1875 287.910156 154.5 C 287.910156 157.8125 290.597656 160.5 293.910156 160.5 C 297.222656 160.5 299.910156 157.8125 299.910156 154.5 "/>
<path fill-rule="evenodd" fill="rgb(100%, 60.099792%, 60.099792%)" fill-opacity="1" d="M 329.410156 177 C 329.410156 172.859375 326.050781 169.5 321.910156 169.5 C 317.769531 169.5 314.410156 172.859375 314.410156 177 C 314.410156 181.140625 317.769531 184.5 321.910156 184.5 C 326.050781 184.5 329.410156 181.140625 329.410156 177 "/>
<path fill-rule="evenodd" fill="rgb(100%, 0%, 0%)" fill-opacity="1" d="M 330.910156 177 C 330.910156 172.027344 326.882812 168 321.910156 168 C 316.9375 168 312.910156 172.027344 312.910156 177 C 312.910156 181.972656 316.9375 186 321.910156 186 C 326.882812 186 330.910156 181.972656 330.910156 177 M 327.910156 177 C 327.910156 173.6875 325.222656 171 321.910156 171 C 318.597656 171 315.910156 173.6875 315.910156 177 C 315.910156 180.3125 318.597656 183 321.910156 183 C 325.222656 183 327.910156 180.3125 327.910156 177 "/>
<path fill-rule="evenodd" fill="rgb(100%, 60.099792%, 60.099792%)" fill-opacity="1" d="M 335.5 214 C 335.5 209.859375 332.140625 206.5 328 206.5 C 323.859375 206.5 320.5 209.859375 320.5 214 C 320.5 218.140625 323.859375 221.5 328 221.5 C 332.140625 221.5 335.5 218.140625 335.5 214 "/>
<path fill-rule="evenodd" fill="rgb(100%, 0%, 0%)" fill-opacity="1" d="M 337 214 C 337 209.027344 332.972656 205 328 205 C 323.027344 205 319 209.027344 319 214 C 319 218.972656 323.027344 223 328 223 C 332.972656 223 337 218.972656 337 214 M 334 214 C 334 210.6875 331.3125 208 328 208 C 324.6875 208 322 210.6875 322 214 C 322 217.3125 324.6875 220 328 220 C 331.3125 220 334 217.3125 334 214 "/>
<path fill-rule="evenodd" fill="rgb(100%, 60.099792%, 60.099792%)" fill-opacity="1" d="M 320.5 242 C 320.5 237.859375 317.140625 234.5 313 234.5 C 308.859375 234.5 305.5 237.859375 305.5 242 C 305.5 246.140625 308.859375 249.5 313 249.5 C 317.140625 249.5 320.5 246.140625 320.5 242 "/>
<path fill-rule="evenodd" fill="rgb(100%, 0%, 0%)" fill-opacity="1" d="M 322 242 C 322 237.027344 317.972656 233 313 233 C 308.027344 233 304 237.027344 304 242 C 304 246.972656 308.027344 251 313 251 C 317.972656 251 322 246.972656 322 242 M 319 242 C 319 238.6875 316.3125 236 313 236 C 309.6875 236 307 238.6875 307 242 C 307 245.3125 309.6875 248 313 248 C 316.3125 248 319 245.3125 319 242 "/>
<path fill-rule="evenodd" fill="rgb(100%, 60.099792%, 60.099792%)" fill-opacity="1" d="M 310.5 277 C 310.5 272.859375 307.140625 269.5 303 269.5 C 298.859375 269.5 295.5 272.859375 295.5 277 C 295.5 281.140625 298.859375 284.5 303 284.5 C 307.140625 284.5 310.5 281.140625 310.5 277 "/>
<path fill-rule="evenodd" fill="rgb(100%, 0%, 0%)" fill-opacity="1" d="M 312 277 C 312 272.027344 307.972656 268 303 268 C 298.027344 268 294 272.027344 294 277 C 294 281.972656 298.027344 286 303 286 C 307.972656 286 312 281.972656 312 277 M 309 277 C 309 273.6875 306.3125 271 303 271 C 299.6875 271 297 273.6875 297 277 C 297 280.3125 299.6875 283 303 283 C 306.3125 283 309 280.3125 309 277 "/>
<path fill-rule="evenodd" fill="rgb(100%, 60.099792%, 60.099792%)" fill-opacity="1" d="M 293.589844 313 C 293.589844 308.859375 290.230469 305.5 286.089844 305.5 C 281.949219 305.5 278.589844 308.859375 278.589844 313 C 278.589844 317.140625 281.949219 320.5 286.089844 320.5 C 290.230469 320.5 293.589844 317.140625 293.589844 313 "/>
<path fill-rule="evenodd" fill="rgb(100%, 0%, 0%)" fill-opacity="1" d="M 295.089844 313 C 295.089844 308.027344 291.0625 304 286.089844 304 C 281.117188 304 277.089844 308.027344 277.089844 313 C 277.089844 317.972656 281.117188 322 286.089844 322 C 291.0625 322 295.089844 317.972656 295.089844 313 M 292.089844 313 C 292.089844 309.6875 289.402344 307 286.089844 307 C 282.777344 307 280.089844 309.6875 280.089844 313 C 280.089844 316.3125 282.777344 319 286.089844 319 C 289.402344 319 292.089844 316.3125 292.089844 313 "/>
<path fill-rule="evenodd" fill="rgb(100%, 60.099792%, 60.099792%)" fill-opacity="1" d="M 276.09375 286.5 C 276.09375 282.359375 272.734375 279 268.59375 279 C 264.453125 279 261.09375 282.359375 261.09375 286.5 C 261.09375 290.640625 264.453125 294 268.59375 294 C 272.734375 294 276.09375 290.640625 276.09375 286.5 "/>
<path fill-rule="evenodd" fill="rgb(100%, 0%, 0%)" fill-opacity="1" d="M 277.59375 286.5 C 277.59375 281.527344 273.566406 277.5 268.59375 277.5 C 263.621094 277.5 259.59375 281.527344 259.59375 286.5 C 259.59375 291.472656 263.621094 295.5 268.59375 295.5 C 273.566406 295.5 277.59375 291.472656 277.59375 286.5 M 274.59375 286.5 C 274.59375 283.1875 271.90625 280.5 268.59375 280.5 C 265.28125 280.5 262.59375 283.1875 262.59375 286.5 C 262.59375 289.8125 265.28125 292.5 268.59375 292.5 C 271.90625 292.5 274.59375 289.8125 274.59375 286.5 "/>
<path fill-rule="evenodd" fill="rgb(100%, 60.099792%, 60.099792%)" fill-opacity="1" d="M 239.589844 303 C 239.589844 298.859375 236.230469 295.5 232.089844 295.5 C 227.949219 295.5 224.589844 298.859375 224.589844 303 C 224.589844 307.140625 227.949219 310.5 232.089844 310.5 C 236.230469 310.5 239.589844 307.140625 239.589844 303 "/>
<path fill-rule="evenodd" fill="rgb(100%, 0%, 0%)" fill-opacity="1" d="M 241.089844 303 C 241.089844 298.027344 237.0625 294 232.089844 294 C 227.117188 294 223.089844 298.027344 223.089844 303 C 223.089844 307.972656 227.117188 312 232.089844 312 C 237.0625 312 241.089844 307.972656 241.089844 303 M 238.089844 303 C 238.089844 299.6875 235.402344 297 232.089844 297 C 228.777344 297 226.089844 299.6875 226.089844 303 C 226.089844 306.3125 228.777344 309 232.089844 309 C 235.402344 309 238.089844 306.3125 238.089844 303 "/>
<path fill-rule="evenodd" fill="rgb(100%, 60.099792%, 60.099792%)" fill-opacity="1" d="M 222.589844 284.5 C 222.589844 280.359375 219.230469 277 215.089844 277 C 210.949219 277 207.589844 280.359375 207.589844 284.5 C 207.589844 288.640625 210.949219 292 215.089844 292 C 219.230469 292 222.589844 288.640625 222.589844 284.5 "/>
<path fill-rule="evenodd" fill="rgb(100%, 0%, 0%)" fill-opacity="1" d="M 224.089844 284.5 C 224.089844 279.527344 220.0625 275.5 215.089844 275.5 C 210.117188 275.5 206.089844 279.527344 206.089844 284.5 C 206.089844 289.472656 210.117188 293.5 215.089844 293.5 C 220.0625 293.5 224.089844 289.472656 224.089844 284.5 M 221.089844 284.5 C 221.089844 281.1875 218.402344 278.5 215.089844 278.5 C 211.777344 278.5 209.089844 281.1875 209.089844 284.5 C 209.089844 287.8125 211.777344 290.5 215.089844 290.5 C 218.402344 290.5 221.089844 287.8125 221.089844 284.5 "/>
<path fill-rule="evenodd" fill="rgb(100%, 60.099792%, 60.099792%)" fill-opacity="1" d="M 192.410156 316 C 192.410156 311.859375 189.050781 308.5 184.910156 308.5 C 180.769531 308.5 177.410156 311.859375 177.410156 316 C 177.410156 320.140625 180.769531 323.5 184.910156 323.5 C 189.050781 323.5 192.410156 320.140625 192.410156 316 "/>
<path fill-rule="evenodd" fill="rgb(100%, 0%, 0%)" fill-opacity="1" d="M 193.910156 316 C 193.910156 311.027344 189.882812 307 184.910156 307 C 179.9375 307 175.910156 311.027344 175.910156 316 C 175.910156 320.972656 179.9375 325 184.910156 325 C 189.882812 325 193.910156 320.972656 193.910156 316 M 190.910156 316 C 190.910156 312.6875 188.222656 310 184.910156 310 C 181.597656 310 178.910156 312.6875 178.910156 316 C 178.910156 319.3125 181.597656 322 184.910156 322 C 188.222656 322 190.910156 319.3125 190.910156 316 "/>
<path fill-rule="evenodd" fill="rgb(100%, 60.099792%, 60.099792%)" fill-opacity="1" d="M 151.410156 283 C 151.410156 278.859375 148.050781 275.5 143.910156 275.5 C 139.769531 275.5 136.410156 278.859375 136.410156 283 C 136.410156 287.140625 139.769531 290.5 143.910156 290.5 C 148.050781 290.5 151.410156 287.140625 151.410156 283 "/>
<path fill-rule="evenodd" fill="rgb(100%, 0%, 0%)" fill-opacity="1" d="M 152.910156 283 C 152.910156 278.027344 148.882812 274 143.910156 274 C 138.9375 274 134.910156 278.027344 134.910156 283 C 134.910156 287.972656 138.9375 292 143.910156 292 C 148.882812 292 152.910156 287.972656 152.910156 283 M 149.910156 283 C 149.910156 279.6875 147.222656 277 143.910156 277 C 140.597656 277 137.910156 279.6875 137.910156 283 C 137.910156 286.3125 140.597656 289 143.910156 289 C 147.222656 289 149.910156 286.3125 149.910156 283 "/>
<path fill-rule="evenodd" fill="rgb(100%, 60.099792%, 60.099792%)" fill-opacity="1" d="M 169.410156 250 C 169.410156 245.859375 166.050781 242.5 161.910156 242.5 C 157.769531 242.5 154.410156 245.859375 154.410156 250 C 154.410156 254.140625 157.769531 257.5 161.910156 257.5 C 166.050781 257.5 169.410156 254.140625 169.410156 250 "/>
<path fill-rule="evenodd" fill="rgb(100%, 0%, 0%)" fill-opacity="1" d="M 170.910156 250 C 170.910156 245.027344 166.882812 241 161.910156 241 C 156.9375 241 152.910156 245.027344 152.910156 250 C 152.910156 254.972656 156.9375 259 161.910156 259 C 166.882812 259 170.910156 254.972656 170.910156 250 M 167.910156 250 C 167.910156 246.6875 165.222656 244 161.910156 244 C 158.597656 244 155.910156 246.6875 155.910156 250 C 155.910156 253.3125 158.597656 256 161.910156 256 C 165.222656 256 167.910156 253.3125 167.910156 250 "/>
<path fill-rule="evenodd" fill="rgb(100%, 60.099792%, 60.099792%)" fill-opacity="1" d="M 160.589844 216 C 160.589844 211.859375 157.230469 208.5 153.089844 208.5 C 148.949219 208.5 145.589844 211.859375 145.589844 216 C 145.589844 220.140625 148.949219 223.5 153.089844 223.5 C 157.230469 223.5 160.589844 220.140625 160.589844 216 "/>
<path fill-rule="evenodd" fill="rgb(100%, 0%, 0%)" fill-opacity="1" d="M 162.089844 216 C 162.089844 211.027344 158.0625 207 153.089844 207 C 148.117188 207 144.089844 211.027344 144.089844 216 C 144.089844 220.972656 148.117188 225 153.089844 225 C 158.0625 225 162.089844 220.972656 162.089844 216 M 159.089844 216 C 159.089844 212.6875 156.402344 210 153.089844 210 C 149.777344 210 147.089844 212.6875 147.089844 216 C 147.089844 219.3125 149.777344 222 153.089844 222 C 156.402344 222 159.089844 219.3125 159.089844 216 "/>
<path fill-rule="evenodd" fill="rgb(100%, 60.099792%, 60.099792%)" fill-opacity="1" d="M 180.589844 211 C 180.589844 206.859375 177.230469 203.5 173.089844 203.5 C 168.949219 203.5 165.589844 206.859375 165.589844 211 C 165.589844 215.140625 168.949219 218.5 173.089844 218.5 C 177.230469 218.5 180.589844 215.140625 180.589844 211 "/>
<path fill-rule="evenodd" fill="rgb(100%, 0%, 0%)" fill-opacity="1" d="M 182.089844 211 C 182.089844 206.027344 178.0625 202 173.089844 202 C 168.117188 202 164.089844 206.027344 164.089844 211 C 164.089844 215.972656 168.117188 220 173.089844 220 C 178.0625 220 182.089844 215.972656 182.089844 211 M 179.089844 211 C 179.089844 207.6875 176.402344 205 173.089844 205 C 169.777344 205 167.089844 207.6875 167.089844 211 C 167.089844 214.3125 169.777344 217 173.089844 217 C 176.402344 217 179.089844 214.3125 179.089844 211 "/>
<path fill-rule="evenodd" fill="rgb(100%, 60.099792%, 60.099792%)" fill-opacity="1" d="M 183.589844 182 C 183.589844 177.859375 180.230469 174.5 176.089844 174.5 C 171.949219 174.5 168.589844 177.859375 168.589844 182 C 168.589844 186.140625 171.949219 189.5 176.089844 189.5 C 180.230469 189.5 183.589844 186.140625 183.589844 182 "/>
<path fill-rule="evenodd" fill="rgb(100%, 0%, 0%)" fill-opacity="1" d="M 185.089844 182 C 185.089844 177.027344 181.0625 173 176.089844 173 C 171.117188 173 167.089844 177.027344 167.089844 182 C 167.089844 186.972656 171.117188 191 176.089844 191 C 181.0625 191 185.089844 186.972656 185.089844 182 M 182.089844 182 C 182.089844 178.6875 179.402344 176 176.089844 176 C 172.777344 176 170.089844 178.6875 170.089844 182 C 170.089844 185.3125 172.777344 188 176.089844 188 C 179.402344 188 182.089844 185.3125 182.089844 182 "/>
<path fill-rule="evenodd" fill="rgb(100%, 60.099792%, 60.099792%)" fill-opacity="1" d="M 197.90625 159.5 C 197.90625 155.359375 194.546875 152 190.40625 152 C 186.265625 152 182.90625 155.359375 182.90625 159.5 C 182.90625 163.640625 186.265625 167 190.40625 167 C 194.546875 167 197.90625 163.640625 197.90625 159.5 "/>
<path fill-rule="evenodd" fill="rgb(100%, 0%, 0%)" fill-opacity="1" d="M 199.40625 159.5 C 199.40625 154.527344 195.378906 150.5 190.40625 150.5 C 185.433594 150.5 181.40625 154.527344 181.40625 159.5 C 181.40625 164.472656 185.433594 168.5 190.40625 168.5 C 195.378906 168.5 199.40625 164.472656 199.40625 159.5 M 196.40625 159.5 C 196.40625 156.1875 193.71875 153.5 190.40625 153.5 C 187.09375 153.5 184.40625 156.1875 184.40625 159.5 C 184.40625 162.8125 187.09375 165.5 190.40625 165.5 C 193.71875 165.5 196.40625 162.8125 196.40625 159.5 "/>
<path fill-rule="evenodd" fill="rgb(100%, 60.099792%, 60.099792%)" fill-opacity="1" d="M 138.410156 304 C 138.410156 299.859375 135.050781 296.5 130.910156 296.5 C 126.769531 296.5 123.410156 299.859375 123.410156 304 C 123.410156 308.140625 126.769531 311.5 130.910156 311.5 C 135.050781 311.5 138.410156 308.140625 138.410156 304 "/>
<path fill-rule="evenodd" fill="rgb(100%, 0%, 0%)" fill-opacity="1" d="M 139.910156 304 C 139.910156 299.027344 135.882812 295 130.910156 295 C 125.9375 295 121.910156 299.027344 121.910156 304 C 121.910156 308.972656 125.9375 313 130.910156 313 C 135.882812 313 139.910156 308.972656 139.910156 304 M 136.910156 304 C 136.910156 300.6875 134.222656 298 130.910156 298 C 127.597656 298 124.910156 300.6875 124.910156 304 C 124.910156 307.3125 127.597656 310 130.910156 310 C 134.222656 310 136.910156 307.3125 136.910156 304 "/>
<path fill-rule="evenodd" fill="rgb(100%, 60.099792%, 60.099792%)" fill-opacity="1" d="M 145.410156 261 C 145.410156 256.859375 142.050781 253.5 137.910156 253.5 C 133.769531 253.5 130.410156 256.859375 130.410156 261 C 130.410156 265.140625 133.769531 268.5 137.910156 268.5 C 142.050781 268.5 145.410156 265.140625 145.410156 261 "/>
<path fill-rule="evenodd" fill="rgb(100%, 0%, 0%)" fill-opacity="1" d="M 146.910156 261 C 146.910156 256.027344 142.882812 252 137.910156 252 C 132.9375 252 128.910156 256.027344 128.910156 261 C 128.910156 265.972656 132.9375 270 137.910156 270 C 142.882812 270 146.910156 265.972656 146.910156 261 M 143.910156 261 C 143.910156 257.6875 141.222656 255 137.910156 255 C 134.597656 255 131.910156 257.6875 131.910156 261 C 131.910156 264.3125 134.597656 267 137.910156 267 C 141.222656 267 143.910156 264.3125 143.910156 261 "/>
</svg>
