<?xml version="1.0" encoding="UTF-8"?>
<svg xmlns="http://www.w3.org/2000/svg" xmlns:xlink="http://www.w3.org/1999/xlink" width="518.275" height="268.603" viewBox="0 0 518.275 268.603">
<defs>
<clipPath id="clip-0">
<path clip-rule="nonzero" d="M 339 0 L 517.53125 0 L 517.53125 92 L 339 92 Z M 339 0 "/>
</clipPath>
<clipPath id="clip-1">
<path clip-rule="nonzero" d="M 0.0195312 180 L 113 180 L 113 267 L 0.0195312 267 Z M 0.0195312 180 "/>
</clipPath>
<clipPath id="clip-2">
<path clip-rule="nonzero" d="M 0.0195312 180 L 114 180 L 114 267 L 0.0195312 267 Z M 0.0195312 180 "/>
</clipPath>
</defs>
<path fill-rule="evenodd" fill="rgb(100%, 0%, 0%)" fill-opacity="0.2" stroke-width="0.4" stroke-linecap="butt" stroke-linejoin="round" stroke="rgb(100%, 60.099792%, 60.099792%)" stroke-opacity="0.2" stroke-miterlimit="10" d="M 90.667309 711.9987 C 106.667485 730.666876 133.331837 741.331052 157.332102 727.998876 C 181.332366 714.6667 202.668542 677.334259 202.668542 650.665995 C 202.668542 624.001643 181.332366 608.001467 162.668102 610.665555 C 143.999925 613.333555 127.999749 634.665819 111.999573 642.665907 C 95.999397 650.665995 79.999221 645.333907 74.667133 655.998083 C 69.335045 666.666171 74.667133 693.334436 90.667309 711.9987 Z M 90.667309 711.9987 " transform="matrix(0.998524, 0, 0, -0.998524, -42.217093, 812.701812)"/>
<path fill-rule="evenodd" fill="rgb(100%, 0%, 0%)" fill-opacity="0.2" stroke-width="0.4" stroke-linecap="butt" stroke-linejoin="round" stroke="rgb(100%, 60.099792%, 60.099792%)" stroke-opacity="0.2" stroke-miterlimit="10" d="M 205.33263 805.331756 C 234.668894 805.331756 277.333423 794.66758 288.001511 773.331404 C 298.665687 751.99914 277.333423 719.998788 256.001158 709.334612 C 234.668894 698.666524 213.332718 709.334612 189.332454 719.998788 C 165.33219 730.666876 138.667837 741.331052 130.667749 751.99914 C 122.667661 762.667228 133.331837 773.331404 146.667925 783.999492 C 160.000102 794.66758 176.000278 805.331756 205.33263 805.331756 Z M 205.33263 805.331756 " transform="matrix(0.998524, 0, 0, -0.998524, -42.217093, 812.701812)"/>
<path fill-rule="evenodd" fill="rgb(100%, 0%, 0%)" fill-opacity="0.2" stroke-width="0.4" stroke-linecap="butt" stroke-linejoin="round" stroke="rgb(100%, 60.099792%, 60.099792%)" stroke-opacity="0.2" stroke-miterlimit="10" d="M 245.33307 663.998171 C 261.333246 693.334436 298.665687 714.6667 322.665951 693.334436 C 346.666215 671.998259 357.334303 608.001467 341.334127 578.665202 C 325.333951 549.33285 282.665511 554.66885 258.665246 576.001114 C 234.668894 597.333379 229.332894 634.665819 245.33307 663.998171 Z M 245.33307 663.998171 " transform="matrix(0.998524, 0, 0, -0.998524, -42.217093, 812.701812)"/>
<path fill-rule="evenodd" fill="rgb(100%, 0%, 0%)" fill-opacity="0.2" stroke-width="0.4" stroke-linecap="butt" stroke-linejoin="round" stroke="rgb(100%, 60.099792%, 60.099792%)" stroke-opacity="0.2" stroke-miterlimit="10" d="M 402.666832 658.666083 C 431.999184 655.998083 463.999536 687.998435 471.999624 711.9987 C 479.999712 735.998964 463.999536 751.99914 434.667184 754.66714 C 405.334832 757.331228 362.666391 746.667052 354.666303 722.666788 C 346.666215 698.666524 373.334479 661.334083 402.666832 658.666083 Z M 402.666832 658.666083 " transform="matrix(0.998524, 0, 0, -0.998524, -42.217093, 812.701812)"/>
<path fill-rule="evenodd" fill="rgb(100%, 0%, 0%)" fill-opacity="0.2" stroke-width="0.4" stroke-linecap="butt" stroke-linejoin="round" stroke="rgb(100%, 60.099792%, 60.099792%)" stroke-opacity="0.2" stroke-miterlimit="10" d="M 216.000718 655.998083 C 224.000806 655.998083 240.000982 671.998259 240.000982 679.998347 C 240.000982 687.998435 224.000806 687.998435 216.000718 679.998347 C 208.00063 671.998259 208.00063 655.998083 216.000718 655.998083 Z M 216.000718 655.998083 " transform="matrix(0.998524, 0, 0, -0.998524, -42.217093, 812.701812)"/>
<path fill-rule="evenodd" fill="rgb(100%, 0%, 0%)" fill-opacity="0.2" stroke-width="0.4" stroke-linecap="butt" stroke-linejoin="round" stroke="rgb(100%, 60.099792%, 60.099792%)" stroke-opacity="0.2" stroke-miterlimit="10" d="M 330.666039 706.666612 C 341.334127 709.334612 346.666215 730.666876 341.334127 743.999052 C 335.998127 757.331228 320.001863 762.667228 309.333775 759.999228 C 298.665687 757.331228 293.333599 746.667052 298.665687 733.334876 C 304.001687 719.998788 320.001863 703.998612 330.666039 706.666612 Z M 330.666039 706.666612 " transform="matrix(0.998524, 0, 0, -0.998524, -42.217093, 812.701812)"/>
<path fill-rule="evenodd" fill="rgb(100%, 0%, 0%)" fill-opacity="0.2" stroke-width="0.4" stroke-linecap="butt" stroke-linejoin="round" stroke="rgb(100%, 60.099792%, 60.099792%)" stroke-opacity="0.2" stroke-miterlimit="10" d="M 58.666957 725.334788 C 69.335045 719.998788 90.667309 735.998964 98.667397 749.33114 C 106.667485 762.667228 101.331485 773.331404 90.667309 778.667404 C 79.999221 783.999492 63.999045 783.999492 55.998957 770.667316 C 47.998869 757.331228 47.998869 730.666876 58.666957 725.334788 Z M 58.666957 725.334788 " transform="matrix(0.998524, 0, 0, -0.998524, -42.217093, 812.701812)"/>
<path fill-rule="evenodd" fill="rgb(100%, 0%, 0%)" fill-opacity="0.2" stroke-width="0.4" stroke-linecap="butt" stroke-linejoin="round" stroke="rgb(100%, 60.099792%, 60.099792%)" stroke-opacity="0.2" stroke-miterlimit="10" d="M 381.334568 637.333819 C 399.998832 650.665995 431.999184 645.333907 445.33136 632.001731 C 458.667448 618.665643 453.331448 597.333379 434.667184 584.001203 C 415.999008 570.665114 383.998656 565.333026 370.666479 578.665202 C 357.334303 592.001291 362.666391 624.001643 381.334568 637.333819 Z M 381.334568 637.333819 " transform="matrix(0.998524, 0, 0, -0.998524, -42.217093, 812.701812)"/>
<path fill-rule="evenodd" fill="rgb(100%, 0%, 0%)" fill-opacity="0.2" stroke-width="0.4" stroke-linecap="butt" stroke-linejoin="round" stroke="rgb(100%, 60.099792%, 60.099792%)" stroke-opacity="0.2" stroke-miterlimit="10" d="M 490.6678 677.334259 C 501.331977 703.998612 522.668153 719.998788 538.668329 703.998612 C 554.668505 687.998435 565.332681 640.001819 554.668505 613.333555 C 544.000417 586.665291 512.000065 581.333203 495.999889 597.333379 C 479.999712 613.333555 479.999712 650.665995 490.6678 677.334259 Z M 490.6678 677.334259 " transform="matrix(0.998524, 0, 0, -0.998524, -42.217093, 812.701812)"/>
<path fill-rule="evenodd" fill="rgb(100%, 0%, 0%)" fill-opacity="0.2" d="M 383.820312 5.894531 C 415.773438 -2.09375 458.375 -2.09375 485.003906 13.882812 C 511.632812 29.859375 522.28125 61.8125 514.292969 77.789062 C 506.304688 93.765625 479.679688 93.765625 466.363281 85.777344 C 453.050781 77.789062 453.050781 61.8125 429.085938 53.824219 C 405.121094 45.835938 357.191406 45.835938 343.878906 37.847656 C 330.566406 29.859375 351.867188 13.882812 383.820312 5.894531 Z M 383.820312 5.894531 "/>
<g clip-path="url(#clip-0)">
<path fill="none" stroke-width="0.4" stroke-linecap="butt" stroke-linejoin="round" stroke="rgb(100%, 60.099792%, 60.099792%)" stroke-opacity="0.2" stroke-miterlimit="10" d="M 426.667096 807.999757 C 458.667448 815.999845 501.331977 815.999845 528.000241 799.999668 C 554.668505 783.999492 565.332681 751.99914 557.332593 735.998964 C 549.332505 719.998788 522.668153 719.998788 509.332065 727.998876 C 495.999889 735.998964 495.999889 751.99914 471.999624 759.999228 C 447.99936 767.999316 399.998832 767.999316 386.666656 775.999404 C 373.334479 783.999492 394.666744 799.999668 426.667096 807.999757 Z M 426.667096 807.999757 " transform="matrix(0.998524, 0, 0, -0.998524, -42.217093, 812.701812)"/>
</g>
<g clip-path="url(#clip-1)">
<path fill-rule="evenodd" fill="rgb(100%, 0%, 0%)" fill-opacity="0.2" d="M 13.699219 256.191406 C 32.339844 269.503906 74.941406 269.503906 96.246094 258.851562 C 117.546875 248.203125 117.546875 226.902344 101.570312 210.925781 C 85.59375 194.949219 53.640625 184.296875 35.003906 181.632812 C 16.363281 178.972656 11.039062 184.296875 5.710938 200.273438 C 0.386719 216.25 -4.9375 242.878906 13.699219 256.191406 Z M 13.699219 256.191406 "/>
</g>
<g clip-path="url(#clip-2)">
<path fill="none" stroke-width="0.4" stroke-linecap="butt" stroke-linejoin="round" stroke="rgb(100%, 60.099792%, 60.099792%)" stroke-opacity="0.2" stroke-miterlimit="10" d="M 55.998957 557.332938 C 74.667133 544.000762 117.331661 544.000762 138.667837 554.66885 C 160.000102 565.333026 160.000102 586.665291 143.999925 602.665467 C 127.999749 618.665643 95.999397 629.333731 77.335133 632.001731 C 58.666957 634.665819 53.334869 629.333731 47.998869 613.333555 C 42.666781 597.333379 37.334692 570.665114 55.998957 557.332938 Z M 55.998957 557.332938 " transform="matrix(0.998524, 0, 0, -0.998524, -42.217093, 812.701812)"/>
</g>
<path fill-rule="evenodd" fill="rgb(100%, 0%, 0%)" fill-opacity="0.2" stroke-width="0.4" stroke-linecap="butt" stroke-linejoin="round" stroke="rgb(100%, 60.099792%, 60.099792%)" stroke-opacity="0.2" stroke-miterlimit="10" d="M 192.000454 602.665467 C 181.332366 586.665291 170.66819 565.333026 178.668278 554.66885 C 186.668366 544.000762 213.332718 544.000762 226.668806 549.33285 C 240.000982 554.66885 240.000982 565.333026 237.332982 581.333203 C 234.668894 597.333379 229.332894 618.665643 221.332806 624.001643 C 213.332718 629.333731 202.668542 618.665643 192.000454 602.665467 Z M 192.000454 602.665467 " transform="matrix(0.998524, 0, 0, -0.998524, -42.217093, 812.701812)"/>
</svg>
