<?xml version="1.0" encoding="UTF-8"?>
<svg xmlns="http://www.w3.org/2000/svg" xmlns:xlink="http://www.w3.org/1999/xlink" width="518.675" height="269.003" viewBox="0 0 518.675 269.003">
<defs>
<clipPath id="clip-0">
<path clip-rule="nonzero" d="M 339 0 L 517.554688 0 L 517.554688 92 L 339 92 Z M 339 0 "/>
</clipPath>
</defs>
<path fill="none" stroke-width="0.8" stroke-linecap="butt" stroke-linejoin="round" stroke="rgb(100%, 0%, 0%)" stroke-opacity="1" stroke-miterlimit="10" d="M 90.667205 711.999411 C 106.667694 730.665995 133.332563 741.334295 157.331337 727.9999 C 181.334032 714.665505 202.666711 677.332337 202.666711 650.667468 C 202.666711 623.998678 181.334032 607.998189 162.667447 610.668204 C 144.000863 613.334299 128.000374 634.666978 111.999884 642.665263 C 95.999394 650.667468 79.998905 645.331358 74.666715 655.999658 C 69.334526 666.667957 74.666715 693.332826 90.667205 711.999411 Z M 90.667205 711.999411 " transform="matrix(0.996307, 0, 0, -0.996307, -41.148814, 811.096849)"/>
<path fill="none" stroke-width="0.8" stroke-linecap="butt" stroke-linejoin="round" stroke="rgb(100%, 0%, 0%)" stroke-opacity="1" stroke-miterlimit="10" d="M 205.332806 805.332332 C 234.66769 805.332332 277.333048 794.667953 288.001348 773.331353 C 298.665727 751.998674 277.333048 720.001616 256.000369 709.333316 C 234.66769 698.668937 213.33109 709.333316 189.332316 720.001616 C 165.333542 730.665995 138.668673 741.334295 130.666468 751.998674 C 122.668184 762.666974 133.332563 773.331353 146.666958 783.999653 C 160.001353 794.667953 176.001842 805.332332 205.332806 805.332332 Z M 205.332806 805.332332 " transform="matrix(0.996307, 0, 0, -0.996307, -41.148814, 811.096849)"/>
<path fill="none" stroke-width="0.8" stroke-linecap="butt" stroke-linejoin="round" stroke="rgb(100%, 0%, 0%)" stroke-opacity="1" stroke-miterlimit="10" d="M 245.332069 664.001863 C 261.332559 693.332826 298.665727 714.665505 322.668422 693.332826 C 346.667196 672.000147 357.331575 607.998189 341.331086 578.667225 C 325.334517 549.332341 282.665238 554.668451 258.666464 576.001131 C 234.66769 597.33381 229.33158 634.666978 245.332069 664.001863 Z M 245.332069 664.001863 " transform="matrix(0.996307, 0, 0, -0.996307, -41.148814, 811.096849)"/>
<path fill="none" stroke-width="0.8" stroke-linecap="butt" stroke-linejoin="round" stroke="rgb(100%, 0%, 0%)" stroke-opacity="1" stroke-miterlimit="10" d="M 402.666949 658.665752 C 432.001833 655.999658 463.998892 688.000637 472.001097 711.999411 C 479.999381 735.998184 463.998892 751.998674 434.667928 754.66869 C 405.333044 757.334784 362.667686 746.666484 354.66548 722.66771 C 346.667196 698.668937 373.332065 661.331847 402.666949 658.665752 Z M 402.666949 658.665752 " transform="matrix(0.996307, 0, 0, -0.996307, -41.148814, 811.096849)"/>
<path fill="none" stroke-width="0.8" stroke-linecap="butt" stroke-linejoin="round" stroke="rgb(100%, 0%, 0%)" stroke-opacity="1" stroke-miterlimit="10" d="M 216.001106 655.999658 C 223.99939 655.999658 239.99988 672.000147 239.99988 679.998431 C 239.99988 688.000637 223.99939 688.000637 216.001106 679.998431 C 207.998901 672.000147 207.998901 655.999658 216.001106 655.999658 Z M 216.001106 655.999658 " transform="matrix(0.996307, 0, 0, -0.996307, -41.148814, 811.096849)"/>
<path fill="none" stroke-width="0.8" stroke-linecap="butt" stroke-linejoin="round" stroke="rgb(100%, 0%, 0%)" stroke-opacity="1" stroke-miterlimit="10" d="M 330.666707 706.667221 C 341.331086 709.333316 346.667196 730.665995 341.331086 744.00039 C 335.998896 757.334784 319.998407 762.666974 309.334027 760.000879 C 298.665727 757.334784 293.333538 746.666484 298.665727 733.33209 C 304.001838 720.001616 319.998407 704.001126 330.666707 706.667221 Z M 330.666707 706.667221 " transform="matrix(0.996307, 0, 0, -0.996307, -41.148814, 811.096849)"/>
<path fill="none" stroke-width="0.8" stroke-linecap="butt" stroke-linejoin="round" stroke="rgb(100%, 0%, 0%)" stroke-opacity="1" stroke-miterlimit="10" d="M 58.666226 725.333805 C 69.334526 720.001616 90.667205 735.998184 98.665489 749.332579 C 106.667694 762.666974 101.331584 773.331353 90.667205 778.667464 C 79.998905 783.999653 63.998415 783.999653 56.000131 770.665258 C 48.001847 757.334784 48.001847 730.665995 58.666226 725.333805 Z M 58.666226 725.333805 " transform="matrix(0.996307, 0, 0, -0.996307, -41.148814, 811.096849)"/>
<path fill="none" stroke-width="0.8" stroke-linecap="butt" stroke-linejoin="round" stroke="rgb(100%, 0%, 0%)" stroke-opacity="1" stroke-miterlimit="10" d="M 381.33427 637.333073 C 400.000854 650.667468 432.001833 645.331358 445.332307 632.000884 C 458.666702 618.666489 453.334512 597.33381 434.667928 583.999415 C 416.001344 570.668941 384.000365 565.332831 370.66597 578.667225 C 357.331575 592.00162 362.667686 623.998678 381.33427 637.333073 Z M 381.33427 637.333073 " transform="matrix(0.996307, 0, 0, -0.996307, -41.148814, 811.096849)"/>
<path fill="none" stroke-width="0.8" stroke-linecap="butt" stroke-linejoin="round" stroke="rgb(100%, 0%, 0%)" stroke-opacity="1" stroke-miterlimit="10" d="M 490.667681 677.332337 C 501.33206 704.001126 522.66866 720.001616 538.665229 704.001126 C 554.665719 688.000637 565.334019 639.999168 554.665719 613.334299 C 544.001339 586.66551 512.00036 581.33332 495.999871 597.33381 C 479.999381 613.334299 479.999381 650.667468 490.667681 677.332337 Z M 490.667681 677.332337 " transform="matrix(0.996307, 0, 0, -0.996307, -41.148814, 811.096849)"/>
<g clip-path="url(#clip-0)">
<path fill="none" stroke-width="0.8" stroke-linecap="butt" stroke-linejoin="round" stroke="rgb(100%, 0%, 0%)" stroke-opacity="1" stroke-miterlimit="10" d="M 426.665723 807.998427 C 458.666702 816.000632 501.33206 816.000632 528.00085 800.000143 C 554.665719 783.999653 565.334019 751.998674 557.331813 735.998184 C 549.333529 720.001616 522.66866 720.001616 509.334266 727.9999 C 495.999871 735.998184 495.999871 751.998674 472.001097 760.000879 C 447.998402 767.999164 400.000854 767.999164 386.66646 776.001369 C 373.332065 783.999653 394.668665 800.000143 426.665723 807.998427 Z M 426.665723 807.998427 " transform="matrix(0.996307, 0, 0, -0.996307, -41.148814, 811.096849)"/>
</g>
<path fill="none" stroke-width="0.8" stroke-linecap="butt" stroke-linejoin="round" stroke="rgb(100%, 0%, 0%)" stroke-opacity="1" stroke-miterlimit="10" d="M 56.000131 557.334546 C 74.666715 544.000151 117.332074 544.000151 138.668673 554.668451 C 160.001353 565.332831 160.001353 586.66551 144.000863 602.665999 C 128.000374 618.666489 95.999394 629.334789 77.33281 632.000884 C 58.666226 634.666978 53.334036 629.334789 48.001847 613.334299 C 42.665736 597.33381 37.333547 570.668941 56.000131 557.334546 Z M 56.000131 557.334546 " transform="matrix(0.996307, 0, 0, -0.996307, -41.148814, 811.096849)"/>
<path fill="none" stroke-width="0.8" stroke-linecap="butt" stroke-linejoin="round" stroke="rgb(100%, 0%, 0%)" stroke-opacity="1" stroke-miterlimit="10" d="M 191.998411 602.665999 C 181.334032 586.66551 170.665732 565.332831 178.667937 554.668451 C 186.666221 544.000151 213.33109 544.000151 226.665485 549.332341 C 239.99988 554.668451 239.99988 565.332831 237.333785 581.33332 C 234.66769 597.33381 229.33158 618.666489 221.333295 623.998678 C 213.33109 629.334789 202.666711 618.666489 191.998411 602.665999 Z M 191.998411 602.665999 " transform="matrix(0.996307, 0, 0, -0.996307, -41.148814, 811.096849)"/>
</svg>
