<?xml version="1.0" encoding="UTF-8"?>
<svg xmlns="http://www.w3.org/2000/svg" xmlns:xlink="http://www.w3.org/1999/xlink" width="558.1033" height="253.4" viewBox="0 0 558.1033 253.4">
<defs>
<clipPath id="clip-0">
<path clip-rule="nonzero" d="M 61 176 L 226 176 L 226 252.800781 L 61 252.800781 Z M 61 176 "/>
</clipPath>
<clipPath id="clip-1">
<path clip-rule="nonzero" d="M 60 176 L 226 176 L 226 252.800781 L 60 252.800781 Z M 60 176 "/>
</clipPath>
<clipPath id="clip-2">
<path clip-rule="nonzero" d="M 0.210938 82 L 63 82 L 63 130 L 0.210938 130 Z M 0.210938 82 "/>
</clipPath>
<clipPath id="clip-3">
<path clip-rule="nonzero" d="M 0.210938 82 L 63 82 L 63 131 L 0.210938 131 Z M 0.210938 82 "/>
</clipPath>
<clipPath id="clip-4">
<path clip-rule="nonzero" d="M 494 9 L 556.996094 9 L 556.996094 143 L 494 143 Z M 494 9 "/>
</clipPath>
</defs>
<path fill-rule="evenodd" fill="rgb(0%, 0%, 100%)" fill-opacity="0.2" stroke-width="0.4" stroke-linecap="butt" stroke-linejoin="round" stroke="rgb(67.799377%, 84.698486%, 90.19928%)" stroke-opacity="0.2" stroke-miterlimit="10" d="M 82.664798 720.000186 C 79.998343 752.001561 127.998448 783.999021 173.332098 791.998386 C 218.665748 800.001666 261.332943 783.999021 263.999398 752.001561 C 266.665853 720.000186 229.331568 672.000081 184.001833 664.000717 C 138.668183 656.001352 85.335169 687.998811 82.664798 720.000186 Z M 82.664798 720.000186 " transform="matrix(0.997638, 0, 0, -0.997638, -16.340621, 830.732992)"/>
<path fill-rule="evenodd" fill="rgb(0%, 0%, 100%)" fill-opacity="0.2" stroke-width="0.4" stroke-linecap="butt" stroke-linejoin="round" stroke="rgb(67.799377%, 84.698486%, 90.19928%)" stroke-opacity="0.2" stroke-miterlimit="10" d="M 290.667863 597.331511 C 309.333048 613.334157 330.668603 682.665901 330.668603 722.666641 C 330.668603 762.667381 309.333048 773.333201 290.667863 757.334471 C 271.998763 741.331826 256.000033 698.668547 256.000033 658.667807 C 256.000033 618.667067 271.998763 581.332782 290.667863 597.331511 Z M 290.667863 597.331511 " transform="matrix(0.997638, 0, 0, -0.997638, -16.340621, 830.732992)"/>
<g clip-path="url(#clip-0)">
<path fill-rule="evenodd" fill="rgb(0%, 0%, 100%)" fill-opacity="0.2" d="M 212.449219 181.601562 C 196.488281 170.960938 169.886719 181.601562 143.28125 181.601562 C 116.675781 181.601562 90.074219 170.960938 74.113281 181.601562 C 58.148438 192.246094 52.828125 224.167969 82.09375 240.132812 C 111.355469 256.09375 175.207031 256.09375 204.46875 240.132812 C 233.734375 224.167969 228.414062 192.246094 212.449219 181.601562 Z M 212.449219 181.601562 "/>
</g>
<g clip-path="url(#clip-1)">
<path fill="none" stroke-width="0.4" stroke-linecap="butt" stroke-linejoin="round" stroke="rgb(67.799377%, 84.698486%, 90.19928%)" stroke-opacity="0.2" stroke-miterlimit="10" d="M 229.331568 650.668442 C 213.332838 661.334262 186.668288 650.668442 159.999823 650.668442 C 133.331358 650.668442 106.666808 661.334262 90.668079 650.668442 C 74.665433 639.998706 69.332523 608.001247 98.667443 591.998602 C 127.998448 575.999872 192.001198 575.999872 221.332203 591.998602 C 250.667123 608.001247 245.334213 639.998706 229.331568 650.668442 Z M 229.331568 650.668442 " transform="matrix(0.997638, 0, 0, -0.997638, -16.340621, 830.732992)"/>
</g>
<path fill-rule="evenodd" fill="rgb(0%, 0%, 100%)" fill-opacity="0.2" stroke-width="0.4" stroke-linecap="butt" stroke-linejoin="round" stroke="rgb(67.799377%, 84.698486%, 90.19928%)" stroke-opacity="0.2" stroke-miterlimit="10" d="M 341.334423 645.331616 C 362.666062 661.334262 389.334527 666.667171 407.999712 653.334897 C 426.668812 639.998706 437.334632 608.001247 426.668812 594.665056 C 415.999077 581.332782 384.001617 586.665692 357.333152 586.665692 C 330.668603 586.665692 309.333048 581.332782 306.666593 591.998602 C 304.000138 602.668337 319.998867 629.332886 341.334423 645.331616 Z M 341.334423 645.331616 " transform="matrix(0.997638, 0, 0, -0.997638, -16.340621, 830.732992)"/>
<path fill-rule="evenodd" fill="rgb(0%, 0%, 100%)" fill-opacity="0.2" stroke-width="0.4" stroke-linecap="butt" stroke-linejoin="round" stroke="rgb(67.799377%, 84.698486%, 90.19928%)" stroke-opacity="0.2" stroke-miterlimit="10" d="M 373.331882 706.667911 C 357.333152 730.666006 362.666062 773.333201 373.331882 794.668756 C 384.001617 816.000396 400.000347 816.000396 415.999077 791.998386 C 432.001722 768.000291 448.000452 720.000186 437.334632 698.668547 C 426.668812 677.332991 389.334527 682.665901 373.331882 706.667911 Z M 373.331882 706.667911 " transform="matrix(0.997638, 0, 0, -0.997638, -16.340621, 830.732992)"/>
<path fill-rule="evenodd" fill="rgb(0%, 0%, 100%)" fill-opacity="0.2" stroke-width="0.4" stroke-linecap="butt" stroke-linejoin="round" stroke="rgb(67.799377%, 84.698486%, 90.19928%)" stroke-opacity="0.2" stroke-miterlimit="10" d="M 330.668603 656.001352 C 336.001513 650.668442 352.000242 661.334262 359.999607 672.000081 C 367.998972 682.665901 367.998972 693.331721 362.666062 698.668547 C 357.333152 704.001456 346.667332 704.001456 338.667968 693.331721 C 330.668603 682.665901 325.331777 661.334262 330.668603 656.001352 Z M 330.668603 656.001352 " transform="matrix(0.997638, 0, 0, -0.997638, -16.340621, 830.732992)"/>
<path fill-rule="evenodd" fill="rgb(0%, 0%, 100%)" fill-opacity="0.2" stroke-width="0.4" stroke-linecap="butt" stroke-linejoin="round" stroke="rgb(67.799377%, 84.698486%, 90.19928%)" stroke-opacity="0.2" stroke-miterlimit="10" d="M 336.001513 730.666006 C 341.334423 720.000186 346.667332 720.000186 352.000242 733.332461 C 357.333152 746.668651 362.666062 773.333201 359.999607 786.665476 C 357.333152 800.001666 346.667332 800.001666 338.667968 797.331296 C 330.668603 794.668756 325.331777 789.331931 325.331777 775.999656 C 325.331777 762.667381 330.668603 741.331826 336.001513 730.666006 Z M 336.001513 730.666006 " transform="matrix(0.997638, 0, 0, -0.997638, -16.340621, 830.732992)"/>
<path fill-rule="evenodd" fill="rgb(0%, 0%, 100%)" fill-opacity="0.2" stroke-width="0.4" stroke-linecap="butt" stroke-linejoin="round" stroke="rgb(67.799377%, 84.698486%, 90.19928%)" stroke-opacity="0.2" stroke-miterlimit="10" d="M 306.666593 800.001666 C 309.333048 810.667486 298.667228 821.333306 282.668498 823.999761 C 266.665853 826.666216 245.334213 821.333306 242.667758 810.667486 C 240.001303 800.001666 256.000033 783.999021 271.998763 781.332566 C 288.001408 778.666111 304.000138 789.331931 306.666593 800.001666 Z M 306.666593 800.001666 " transform="matrix(0.997638, 0, 0, -0.997638, -16.340621, 830.732992)"/>
<path fill-rule="evenodd" fill="rgb(0%, 0%, 100%)" fill-opacity="0.2" stroke-width="0.4" stroke-linecap="butt" stroke-linejoin="round" stroke="rgb(67.799377%, 84.698486%, 90.19928%)" stroke-opacity="0.2" stroke-miterlimit="10" d="M 458.666272 618.667067 C 480.001827 608.001247 511.999287 608.001247 528.001932 618.667067 C 544.000662 629.332886 544.000662 650.668442 528.001932 664.000717 C 511.999287 677.332991 480.001827 682.665901 458.666272 682.665901 C 437.334632 682.665901 426.668812 677.332991 426.668812 664.000717 C 426.668812 650.668442 437.334632 629.332886 458.666272 618.667067 Z M 458.666272 618.667067 " transform="matrix(0.997638, 0, 0, -0.997638, -16.340621, 830.732992)"/>
<path fill-rule="evenodd" fill="rgb(0%, 0%, 100%)" fill-opacity="0.2" stroke-width="0.4" stroke-linecap="butt" stroke-linejoin="round" stroke="rgb(67.799377%, 84.698486%, 90.19928%)" stroke-opacity="0.2" stroke-miterlimit="10" d="M 461.332727 712.000821 C 442.667542 730.666006 437.334632 757.334471 440.001087 775.999656 C 442.667542 794.668756 453.333362 805.334576 466.665637 810.667486 C 480.001827 816.000396 496.000557 816.000396 509.332832 791.998386 C 522.665107 768.000291 533.334842 720.000186 522.665107 701.331086 C 511.999287 682.665901 480.001827 693.331721 461.332727 712.000821 Z M 461.332727 712.000821 " transform="matrix(0.997638, 0, 0, -0.997638, -16.340621, 830.732992)"/>
<path fill-rule="evenodd" fill="rgb(0%, 0%, 100%)" fill-opacity="0.2" stroke-width="0.4" stroke-linecap="butt" stroke-linejoin="round" stroke="rgb(67.799377%, 84.698486%, 90.19928%)" stroke-opacity="0.2" stroke-miterlimit="10" d="M 69.332523 637.332251 C 74.665433 650.668442 85.335169 661.334262 85.335169 672.000081 C 85.335169 682.665901 74.665433 693.331721 61.333159 698.668547 C 48.000884 704.001456 31.998238 704.001456 23.998874 682.665901 C 15.999509 661.334262 15.999509 618.667067 23.998874 600.001882 C 31.998238 581.332782 48.000884 586.665692 56.000249 597.331511 C 63.999613 608.001247 63.999613 623.999977 69.332523 637.332251 Z M 69.332523 637.332251 " transform="matrix(0.997638, 0, 0, -0.997638, -16.340621, 830.732992)"/>
<g clip-path="url(#clip-2)">
<path fill-rule="evenodd" fill="rgb(0%, 0%, 100%)" fill-opacity="0.2" d="M 60.808594 109.773438 C 63.46875 101.792969 63.46875 91.152344 52.828125 85.828125 C 42.1875 80.507812 20.90625 80.507812 10.261719 91.152344 C -0.378906 101.792969 -0.378906 123.074219 2.28125 128.394531 C 4.941406 133.714844 10.261719 123.074219 18.246094 120.414062 C 26.226562 117.753906 36.867188 123.074219 44.847656 123.074219 C 52.828125 123.074219 58.148438 117.753906 60.808594 109.773438 Z M 60.808594 109.773438 "/>
</g>
<g clip-path="url(#clip-3)">
<path fill="none" stroke-width="0.4" stroke-linecap="butt" stroke-linejoin="round" stroke="rgb(67.799377%, 84.698486%, 90.19928%)" stroke-opacity="0.2" stroke-miterlimit="10" d="M 77.331888 722.666641 C 79.998343 730.666006 79.998343 741.331826 69.332523 746.668651 C 58.666704 752.001561 37.335064 752.001561 26.665329 741.331826 C 15.999509 730.666006 15.999509 709.334366 18.665964 704.001456 C 21.332419 698.668547 26.665329 709.334366 34.668609 712.000821 C 42.667974 714.667276 53.333794 709.334366 61.333159 709.334366 C 69.332523 709.334366 74.665433 714.667276 77.331888 722.666641 Z M 77.331888 722.666641 " transform="matrix(0.997638, 0, 0, -0.997638, -16.340621, 830.732992)"/>
</g>
<path fill-rule="evenodd" fill="rgb(0%, 0%, 100%)" fill-opacity="0.2" stroke-width="0.4" stroke-linecap="butt" stroke-linejoin="round" stroke="rgb(67.799377%, 84.698486%, 90.19928%)" stroke-opacity="0.2" stroke-miterlimit="10" d="M 50.667339 762.667381 C 63.999613 762.667381 79.998343 757.334471 93.334534 760.000926 C 106.666808 762.667381 117.332628 773.333201 117.332628 783.999021 C 117.332628 794.668756 106.666808 805.334576 88.001624 813.333941 C 69.332523 821.333306 42.667974 826.666216 29.331783 816.000396 C 15.999509 805.334576 15.999509 778.666111 21.332419 768.000291 C 26.665329 757.334471 37.335064 762.667381 50.667339 762.667381 Z M 50.667339 762.667381 " transform="matrix(0.997638, 0, 0, -0.997638, -16.340621, 830.732992)"/>
<path fill-rule="evenodd" fill="rgb(0%, 0%, 100%)" fill-opacity="0.2" stroke-width="0.4" stroke-linecap="butt" stroke-linejoin="round" stroke="rgb(67.799377%, 84.698486%, 90.19928%)" stroke-opacity="0.2" stroke-miterlimit="10" d="M 109.333263 813.333941 C 117.332628 805.334576 122.665538 794.668756 133.331358 791.998386 C 144.001093 789.331931 159.999823 794.668756 178.668923 802.668121 C 197.334108 810.667486 218.665748 821.333306 202.667018 826.666216 C 186.668288 831.999126 133.331358 831.999126 111.999718 829.332671 C 90.668079 826.666216 101.333898 821.333306 109.333263 813.333941 Z M 109.333263 813.333941 " transform="matrix(0.997638, 0, 0, -0.997638, -16.340621, 830.732992)"/>
<path fill-rule="evenodd" fill="rgb(0%, 0%, 100%)" fill-opacity="0.2" stroke-width="0.4" stroke-linecap="butt" stroke-linejoin="round" stroke="rgb(67.799377%, 84.698486%, 90.19928%)" stroke-opacity="0.2" stroke-miterlimit="10" d="M 234.668393 805.334576 C 240.001303 810.667486 240.001303 821.333306 237.334848 826.666216 C 234.668393 831.999126 229.331568 831.999126 223.998658 826.666216 C 218.665748 821.333306 213.332838 810.667486 215.999293 805.334576 C 218.665748 800.001666 229.331568 800.001666 234.668393 805.334576 Z M 234.668393 805.334576 " transform="matrix(0.997638, 0, 0, -0.997638, -16.340621, 830.732992)"/>
<path fill-rule="evenodd" fill="rgb(0%, 0%, 100%)" fill-opacity="0.2" stroke-width="0.4" stroke-linecap="butt" stroke-linejoin="round" stroke="rgb(67.799377%, 84.698486%, 90.19928%)" stroke-opacity="0.2" stroke-miterlimit="10" d="M 327.998232 808.001031 C 336.001513 805.334576 352.000242 810.667486 359.999607 816.000396 C 367.998972 821.333306 367.998972 826.666216 359.999607 829.332671 C 352.000242 831.999126 336.001513 831.999126 327.998232 826.666216 C 319.998867 821.333306 319.998867 810.667486 327.998232 808.001031 Z M 327.998232 808.001031 " transform="matrix(0.997638, 0, 0, -0.997638, -16.340621, 830.732992)"/>
<g clip-path="url(#clip-4)">
<path fill-rule="evenodd" fill="rgb(0%, 0%, 100%)" fill-opacity="0.2" stroke-width="0.4" stroke-linecap="butt" stroke-linejoin="round" stroke="rgb(67.799377%, 84.698486%, 90.19928%)" stroke-opacity="0.2" stroke-miterlimit="10" d="M 525.331561 773.333201 C 533.334842 746.668651 538.667752 709.334366 546.667117 695.998176 C 554.666482 682.665901 565.332301 693.331721 570.665211 717.333731 C 575.998121 741.331826 575.998121 778.666111 562.665846 800.001666 C 549.333572 821.333306 522.665107 826.666216 514.665742 821.333306 C 506.666377 816.000396 517.332197 800.001666 525.331561 773.333201 Z M 525.331561 773.333201 " transform="matrix(0.997638, 0, 0, -0.997638, -16.340621, 830.732992)"/>
</g>
<path fill-rule="evenodd" fill="rgb(0%, 0%, 100%)" fill-opacity="0.2" stroke-width="0.4" stroke-linecap="butt" stroke-linejoin="round" stroke="rgb(67.799377%, 84.698486%, 90.19928%)" stroke-opacity="0.2" stroke-miterlimit="10" d="M 432.001722 797.331296 C 442.667542 794.668756 453.333362 805.334576 455.999817 813.333941 C 458.666272 821.333306 453.333362 826.666216 445.333997 829.332671 C 437.334632 831.999126 426.668812 831.999126 418.665532 831.999126 C 410.666167 831.999126 405.333257 831.999126 407.999712 823.999761 C 410.666167 816.000396 421.331987 800.001666 432.001722 797.331296 Z M 432.001722 797.331296 " transform="matrix(0.997638, 0, 0, -0.997638, -16.340621, 830.732992)"/>
</svg>
