<?xml version="1.0" encoding="UTF-8"?>
<svg xmlns="http://www.w3.org/2000/svg" xmlns:xlink="http://www.w3.org/1999/xlink" width="261.785" height="189.193" viewBox="0 0 261.785 189.193">
<defs>
<clipPath id="clip-0">
<path clip-rule="nonzero" d="M 0.449219 48 L 79 48 L 79 188 L 0.449219 188 Z M 0.449219 48 "/>
</clipPath>
<clipPath id="clip-1">
<path clip-rule="nonzero" d="M 0.449219 48 L 79 48 L 79 188 L 0.449219 188 Z M 0.449219 48 "/>
</clipPath>
</defs>
<path fill-rule="evenodd" fill="rgb(60.798645%, 18.798828%, 100%)" fill-opacity="0.3" stroke-width="2" stroke-linecap="butt" stroke-linejoin="round" stroke="rgb(60.798645%, 18.798828%, 100%)" stroke-opacity="0.3" stroke-miterlimit="10" d="M 260.333071 227.756298 C 294.999844 220.420453 353.000099 226.422508 376.667027 242.420144 C 400.333956 258.421702 389.667558 284.422763 366.00063 288.42021 C 342.333701 292.421581 305.666242 274.42326 275.000839 274.089813 C 244.331512 273.756365 219.668164 291.087791 208.668319 294.422266 C 197.668473 297.756741 200.332131 287.090343 207.334529 271.422232 C 214.333004 255.754122 225.666297 235.088221 260.333071 227.756298 Z M 260.333071 227.756298 " transform="matrix(0.995753, 0, 0, -0.995753, -145.461715, 410.644402)"/>
<path fill-rule="evenodd" fill="rgb(39.199829%, 58.399963%, 92.89856%)" fill-opacity="0.3" stroke-width="2" stroke-linecap="butt" stroke-linejoin="round" stroke="rgb(39.199829%, 58.399963%, 92.89856%)" stroke-opacity="0.3" stroke-miterlimit="10" d="M 211.998871 408.42209 C 234.998905 409.088985 268.998783 395.755007 275.000839 376.089449 C 280.998971 356.423891 258.99928 330.42283 235.999247 329.755935 C 212.999214 329.08904 188.998838 353.756311 183.000705 373.421869 C 176.99865 393.087427 188.998838 407.755195 211.998871 408.42209 Z M 211.998871 408.42209 " transform="matrix(0.995753, 0, 0, -0.995753, -145.461715, 410.644402)"/>
<path fill-rule="evenodd" fill="rgb(67.799377%, 84.698486%, 90.19928%)" fill-opacity="0.3" stroke-width="2" stroke-linecap="butt" stroke-linejoin="round" stroke="rgb(67.799377%, 84.698486%, 90.19928%)" stroke-opacity="0.3" stroke-miterlimit="10" d="M 269.999126 311.420244 C 289.668607 297.089846 314.331955 247.755304 305.332795 232.087193 C 296.333634 216.423005 253.668043 234.421326 233.998562 248.755647 C 214.333004 263.089967 217.667479 273.756365 226.666639 289.420553 C 235.6658 305.088664 250.333568 325.754564 269.999126 311.420244 Z M 269.999126 311.420244 " transform="matrix(0.995753, 0, 0, -0.995753, -145.461715, 410.644402)"/>
<path fill-rule="evenodd" fill="rgb(100%, 60.099792%, 60.099792%)" fill-opacity="0.3" stroke-width="2" stroke-linecap="butt" stroke-linejoin="round" stroke="rgb(100%, 60.099792%, 60.099792%)" stroke-opacity="0.3" stroke-miterlimit="10" d="M 243.33117 325.754564 C 255.001833 311.757614 255.001833 289.087105 239.66717 278.420708 C 224.332507 267.75431 193.667103 269.0881 182.000363 283.088973 C 170.333622 297.089846 177.665545 323.757802 193.000208 334.420277 C 208.334871 345.090598 231.668352 339.755438 243.33117 325.754564 Z M 243.33117 325.754564 " transform="matrix(0.995753, 0, 0, -0.995753, -145.461715, 410.644402)"/>
<path fill-rule="evenodd" fill="rgb(51.799011%, 43.899536%, 100%)" fill-opacity="0.3" stroke-width="2" stroke-linecap="butt" stroke-linejoin="round" stroke="rgb(51.799011%, 43.899536%, 100%)" stroke-opacity="0.3" stroke-miterlimit="10" d="M 225.999744 333.09041 C 235.6658 349.75494 264.334441 361.088233 287.334474 361.421681 C 310.334508 361.755128 327.665933 351.08873 323.668486 347.08736 C 319.667115 343.089913 294.332949 345.757493 276.001181 334.420277 C 257.66549 323.090907 246.332197 297.756741 235.999247 296.089503 C 225.666297 294.422266 216.333689 316.421957 225.999744 333.09041 Z M 225.999744 333.09041 " transform="matrix(0.995753, 0, 0, -0.995753, -145.461715, 410.644402)"/>
<path fill-rule="evenodd" fill="rgb(56.098938%, 73.699951%, 56.098938%)" fill-opacity="0.3" stroke-width="2" stroke-linecap="butt" stroke-linejoin="round" stroke="rgb(56.098938%, 73.699951%, 56.098938%)" stroke-opacity="0.3" stroke-miterlimit="10" d="M 307.33348 390.757217 C 304.332452 367.090289 259.666176 319.756432 244.668883 310.423824 C 229.667667 301.087293 244.331512 329.755935 247.33254 353.422863 C 250.333568 377.089792 241.667855 395.755007 256.665148 405.087615 C 271.666363 414.420223 310.334508 414.420223 307.33348 390.757217 Z M 307.33348 390.757217 " transform="matrix(0.995753, 0, 0, -0.995753, -145.461715, 410.644402)"/>
<path fill-rule="evenodd" fill="rgb(56.498718%, 93.299866%, 56.498718%)" fill-opacity="0.3" stroke-width="2" stroke-linecap="butt" stroke-linejoin="round" stroke="rgb(56.498718%, 93.299866%, 56.498718%)" stroke-opacity="0.3" stroke-miterlimit="10" d="M 269.999126 277.420365 C 253.001148 297.089846 253.001148 327.75525 276.334629 340.75578 C 299.66811 353.756311 346.331149 349.088045 363.333049 329.422487 C 380.33495 309.756929 367.667867 275.090155 344.334386 262.089625 C 321.000905 249.089094 287.001027 257.754807 269.999126 277.420365 Z M 269.999126 277.420365 " transform="matrix(0.995753, 0, 0, -0.995753, -145.461715, 410.644402)"/>
<path fill-rule="evenodd" fill="rgb(100%, 49.798584%, 31.399536%)" fill-opacity="0.3" stroke-width="2" stroke-linecap="butt" stroke-linejoin="round" stroke="rgb(100%, 49.798584%, 31.399536%)" stroke-opacity="0.3" stroke-miterlimit="10" d="M 406.332088 320.756774 C 409.666564 303.087979 396.332586 279.754498 374.332895 269.754995 C 352.333204 259.755492 321.667801 263.089967 318.333325 280.75484 C 314.99885 298.423636 338.999226 330.42283 360.998917 340.422333 C 382.998608 350.421835 403.001536 338.421647 406.332088 320.756774 Z M 406.332088 320.756774 " transform="matrix(0.995753, 0, 0, -0.995753, -145.461715, 410.644402)"/>
<path fill-rule="evenodd" fill="rgb(100%, 0%, 0%)" fill-opacity="0.3" stroke-width="2" stroke-linecap="butt" stroke-linejoin="round" stroke="rgb(100%, 0%, 0%)" stroke-opacity="0.3" stroke-miterlimit="10" d="M 314.331955 329.422487 C 324.998353 321.757117 333.001093 301.087293 324.331458 294.755713 C 315.665745 288.42021 290.331579 296.422951 279.665181 303.087979 C 268.998783 309.756929 273.000154 315.088167 275.000839 318.756089 C 277.001524 322.420089 277.001524 324.420774 277.001524 325.421117 C 277.001524 326.421459 277.001524 326.421459 283.666551 329.08904 C 290.331579 331.75662 303.665557 337.087857 314.331955 329.422487 Z M 314.331955 329.422487 " transform="matrix(0.995753, 0, 0, -0.995753, -145.461715, 410.644402)"/>
<path fill-rule="evenodd" fill="rgb(100%, 100%, 0%)" fill-opacity="0.3" stroke-width="2" stroke-linecap="butt" stroke-linejoin="round" stroke="rgb(100%, 100%, 0%)" stroke-opacity="0.3" stroke-miterlimit="10" d="M 396.332586 393.087427 C 408.332774 376.422896 395.665691 348.42115 372.999105 337.087857 C 350.332519 325.754564 317.66643 331.089725 305.666242 347.754255 C 293.666054 364.422709 302.331767 392.420532 324.998353 403.757748 C 347.668862 415.087118 384.332398 409.75588 396.332586 393.087427 Z M 396.332586 393.087427 " transform="matrix(0.995753, 0, 0, -0.995753, -145.461715, 410.644402)"/>
<path fill-rule="evenodd" fill="rgb(67.799377%, 100%, 18.399048%)" fill-opacity="0.3" d="M 77.253906 99.214844 C 77.253906 79.632812 63.976562 61.710938 48.046875 53.746094 C 32.113281 45.777344 13.527344 47.769531 5.894531 72 C -1.742188 96.230469 1.578125 142.699219 16.183594 165.933594 C 30.785156 189.167969 56.675781 189.167969 64.308594 184.519531 C 71.945312 179.871094 61.324219 170.578125 62.652344 155.3125 C 63.976562 140.042969 77.253906 118.800781 77.253906 99.214844 Z M 77.253906 99.214844 "/>
<g clip-path="url(#clip-0)">
<path fill="none" stroke-width="2" stroke-linecap="butt" stroke-linejoin="round" stroke="rgb(67.799377%, 100%, 18.399048%)" stroke-opacity="0.3" stroke-miterlimit="10" d="M 223.665612 312.757957 C 223.665612 332.423515 210.331634 350.421835 194.333998 358.420653 C 178.33244 366.423394 159.667224 364.422709 152.001854 340.088885 C 144.332561 315.755062 147.667036 269.0881 162.334805 245.754619 C 176.99865 222.421138 202.999711 222.421138 210.665081 227.089403 C 218.334374 231.757669 207.667976 241.090276 209.001766 256.421017 C 210.331634 271.75568 223.665612 293.088476 223.665612 312.757957 Z M 223.665612 312.757957 " transform="matrix(0.995753, 0, 0, -0.995753, -145.461715, 410.644402)"/>
</g>
<path fill="none" stroke-width="2" stroke-linecap="butt" stroke-linejoin="round" stroke="rgb(60.798645%, 18.798828%, 100%)" stroke-opacity="1" stroke-miterlimit="10" d="M 260.333071 227.756298 C 294.999844 220.420453 353.000099 226.422508 376.667027 242.420144 C 400.333956 258.421702 389.667558 284.422763 366.00063 288.42021 C 342.333701 292.421581 305.666242 274.42326 275.000839 274.089813 C 244.331512 273.756365 219.668164 291.087791 208.668319 294.422266 C 197.668473 297.756741 200.332131 287.090343 207.334529 271.422232 C 214.333004 255.754122 225.666297 235.088221 260.333071 227.756298 Z M 260.333071 227.756298 " transform="matrix(0.995753, 0, 0, -0.995753, -145.461715, 410.644402)"/>
<path fill="none" stroke-width="2" stroke-linecap="butt" stroke-linejoin="round" stroke="rgb(39.199829%, 58.399963%, 92.89856%)" stroke-opacity="1" stroke-miterlimit="10" d="M 211.998871 408.42209 C 234.998905 409.088985 268.998783 395.755007 275.000839 376.089449 C 280.998971 356.423891 258.99928 330.42283 235.999247 329.755935 C 212.999214 329.08904 188.998838 353.756311 183.000705 373.421869 C 176.99865 393.087427 188.998838 407.755195 211.998871 408.42209 Z M 211.998871 408.42209 " transform="matrix(0.995753, 0, 0, -0.995753, -145.461715, 410.644402)"/>
<path fill="none" stroke-width="2" stroke-linecap="butt" stroke-linejoin="round" stroke="rgb(54.499817%, 3.898621%, 31.399536%)" stroke-opacity="1" stroke-miterlimit="10" d="M 269.999126 311.420244 C 289.668607 297.089846 314.331955 247.755304 305.332795 232.087193 C 296.333634 216.423005 253.668043 234.421326 233.998562 248.755647 C 214.333004 263.089967 217.667479 273.756365 226.666639 289.420553 C 235.6658 305.088664 250.333568 325.754564 269.999126 311.420244 Z M 269.999126 311.420244 " transform="matrix(0.995753, 0, 0, -0.995753, -145.461715, 410.644402)"/>
<path fill="none" stroke-width="2" stroke-linecap="butt" stroke-linejoin="round" stroke="rgb(100%, 0%, 0%)" stroke-opacity="1" stroke-miterlimit="10" d="M 243.33117 325.754564 C 255.001833 311.757614 255.001833 289.087105 239.66717 278.420708 C 224.332507 267.75431 193.667103 269.0881 182.000363 283.088973 C 170.333622 297.089846 177.665545 323.757802 193.000208 334.420277 C 208.334871 345.090598 231.668352 339.755438 243.33117 325.754564 Z M 243.33117 325.754564 " transform="matrix(0.995753, 0, 0, -0.995753, -145.461715, 410.644402)"/>
<path fill="none" stroke-width="2" stroke-linecap="butt" stroke-linejoin="round" stroke="rgb(51.799011%, 43.899536%, 100%)" stroke-opacity="1" stroke-miterlimit="10" d="M 225.999744 333.09041 C 235.6658 349.75494 264.334441 361.088233 287.334474 361.421681 C 310.334508 361.755128 327.665933 351.08873 323.668486 347.08736 C 319.667115 343.089913 294.332949 345.757493 276.001181 334.420277 C 257.66549 323.090907 246.332197 297.756741 235.999247 296.089503 C 225.666297 294.422266 216.333689 316.421957 225.999744 333.09041 Z M 225.999744 333.09041 " transform="matrix(0.995753, 0, 0, -0.995753, -145.461715, 410.644402)"/>
<path fill="none" stroke-width="2" stroke-linecap="butt" stroke-linejoin="round" stroke="rgb(54.499817%, 27.099609%, 0%)" stroke-opacity="1" stroke-miterlimit="10" d="M 307.33348 390.757217 C 304.332452 367.090289 259.666176 319.756432 244.668883 310.423824 C 229.667667 301.087293 244.331512 329.755935 247.33254 353.422863 C 250.333568 377.089792 241.667855 395.755007 256.665148 405.087615 C 271.666363 414.420223 310.334508 414.420223 307.33348 390.757217 Z M 307.33348 390.757217 " transform="matrix(0.995753, 0, 0, -0.995753, -145.461715, 410.644402)"/>
<path fill="none" stroke-width="2" stroke-linecap="butt" stroke-linejoin="round" stroke="rgb(32.199097%, 54.499817%, 54.499817%)" stroke-opacity="1" stroke-miterlimit="10" d="M 269.999126 277.420365 C 253.001148 297.089846 253.001148 327.75525 276.334629 340.75578 C 299.66811 353.756311 346.331149 349.088045 363.333049 329.422487 C 380.33495 309.756929 367.667867 275.090155 344.334386 262.089625 C 321.000905 249.089094 287.001027 257.754807 269.999126 277.420365 Z M 269.999126 277.420365 " transform="matrix(0.995753, 0, 0, -0.995753, -145.461715, 410.644402)"/>
<path fill="none" stroke-width="2" stroke-linecap="butt" stroke-linejoin="round" stroke="rgb(54.499817%, 45.899963%, 0%)" stroke-opacity="1" stroke-miterlimit="10" d="M 406.332088 320.756774 C 409.666564 303.087979 396.332586 279.754498 374.332895 269.754995 C 352.333204 259.755492 321.667801 263.089967 318.333325 280.75484 C 314.99885 298.423636 338.999226 330.42283 360.998917 340.422333 C 382.998608 350.421835 403.001536 338.421647 406.332088 320.756774 Z M 406.332088 320.756774 " transform="matrix(0.995753, 0, 0, -0.995753, -145.461715, 410.644402)"/>
<path fill="none" stroke-width="2" stroke-linecap="butt" stroke-linejoin="round" stroke="rgb(100%, 0%, 0%)" stroke-opacity="1" stroke-miterlimit="10" d="M 314.331955 329.422487 C 324.998353 321.757117 333.001093 301.087293 324.331458 294.755713 C 315.665745 288.42021 290.331579 296.422951 279.665181 303.087979 C 268.998783 309.756929 273.000154 315.088167 275.000839 318.756089 C 277.001524 322.420089 277.001524 324.420774 277.001524 325.421117 C 277.001524 326.421459 277.001524 326.421459 283.666551 329.08904 C 290.331579 331.75662 303.665557 337.087857 314.331955 329.422487 Z M 314.331955 329.422487 " transform="matrix(0.995753, 0, 0, -0.995753, -145.461715, 410.644402)"/>
<path fill="none" stroke-width="2" stroke-linecap="butt" stroke-linejoin="round" stroke="rgb(13.299561%, 54.499817%, 13.299561%)" stroke-opacity="1" stroke-miterlimit="10" d="M 396.332586 393.087427 C 408.332774 376.422896 395.665691 348.42115 372.999105 337.087857 C 350.332519 325.754564 317.66643 331.089725 305.666242 347.754255 C 293.666054 364.422709 302.331767 392.420532 324.998353 403.757748 C 347.668862 415.087118 384.332398 409.75588 396.332586 393.087427 Z M 396.332586 393.087427 " transform="matrix(0.995753, 0, 0, -0.995753, -145.461715, 410.644402)"/>
<g clip-path="url(#clip-1)">
<path fill="none" stroke-width="2" stroke-linecap="butt" stroke-linejoin="round" stroke="rgb(0%, 0%, 54.499817%)" stroke-opacity="1" stroke-miterlimit="10" d="M 223.665612 312.757957 C 223.665612 332.423515 210.331634 350.421835 194.333998 358.420653 C 178.33244 366.423394 159.667224 364.422709 152.001854 340.088885 C 144.332561 315.755062 147.667036 269.0881 162.334805 245.754619 C 176.99865 222.421138 202.999711 222.421138 210.665081 227.089403 C 218.334374 231.757669 207.667976 241.090276 209.001766 256.421017 C 210.331634 271.75568 223.665612 293.088476 223.665612 312.757957 Z M 223.665612 312.757957 " transform="matrix(0.995753, 0, 0, -0.995753, -145.461715, 410.644402)"/>
</g>
</svg>
