<?xml version="1.0" encoding="UTF-8"?>
<svg xmlns="http://www.w3.org/2000/svg" xmlns:xlink="http://www.w3.org/1999/xlink" width="261.785" height="277.563" viewBox="0 0 261.785 277.563">
<defs>
<clipPath id="clip-0">
<path clip-rule="nonzero" d="M 0.0976562 136 L 79 136 L 79 277 L 0.0976562 277 Z M 0.0976562 136 "/>
</clipPath>
</defs>
<path fill-rule="evenodd" fill="rgb(60.798645%, 18.798828%, 100%)" fill-opacity="0.3" stroke-width="2" stroke-linecap="butt" stroke-linejoin="round" stroke="rgb(60.798645%, 18.798828%, 100%)" stroke-opacity="0.3" stroke-miterlimit="10" d="M 260.332211 227.754811 C 294.999988 220.422973 353.001319 226.420682 376.667427 242.422399 C 400.333535 258.420203 389.668333 284.422013 365.998312 288.420486 C 342.332204 292.422872 305.665191 274.421919 274.999799 274.089365 C 244.334407 273.756811 219.666725 291.088743 208.665056 294.422108 C 197.667299 297.755473 200.331644 287.09027 207.33484 271.421108 C 214.334124 255.755858 225.668347 235.090561 260.332211 227.754811 Z M 260.332211 227.754811 " transform="matrix(0.998428, 0, 0, -0.998428, -146.204234, 499.978825)"/>
<path fill-rule="evenodd" fill="rgb(39.199829%, 58.399963%, 92.89856%)" fill-opacity="0.3" stroke-width="2" stroke-linecap="butt" stroke-linejoin="round" stroke="rgb(39.199829%, 58.399963%, 92.89856%)" stroke-opacity="0.3" stroke-miterlimit="10" d="M 211.998421 408.421621 C 234.999421 409.090642 268.998178 395.757182 274.999799 376.089547 C 281.001421 356.421912 258.998083 330.420101 236.000995 329.754993 C 212.999995 329.089885 189.001333 353.757567 182.999712 373.42129 C 176.99809 393.088925 189.001333 407.756513 211.998421 408.421621 Z M 211.998421 408.421621 " transform="matrix(0.998428, 0, 0, -0.998428, -146.204234, 499.978825)"/>
<path fill-rule="evenodd" fill="rgb(67.799377%, 84.698486%, 90.19928%)" fill-opacity="0.3" stroke-width="2" stroke-linecap="butt" stroke-linejoin="round" stroke="rgb(67.799377%, 84.698486%, 90.19928%)" stroke-opacity="0.3" stroke-miterlimit="10" d="M 269.999752 311.421486 C 289.667387 297.090365 314.331157 247.755 305.332637 232.08975 C 296.334117 216.420588 253.665482 234.421541 234.001759 248.756574 C 214.334124 263.087696 217.667489 273.756811 226.666009 289.422061 C 235.668441 305.087311 250.332117 325.75652 269.999752 311.421486 Z M 269.999752 311.421486 " transform="matrix(0.998428, 0, 0, -0.998428, -146.204234, 499.978825)"/>
<path fill-rule="evenodd" fill="rgb(100%, 60.099792%, 60.099792%)" fill-opacity="0.3" stroke-width="2" stroke-linecap="butt" stroke-linejoin="round" stroke="rgb(100%, 60.099792%, 60.099792%)" stroke-opacity="0.3" stroke-miterlimit="10" d="M 243.332833 325.75652 C 254.99961 311.757953 254.99961 289.089507 239.666914 278.420392 C 224.334218 267.755189 193.668827 269.089318 181.998137 283.087885 C 170.33136 297.090365 177.66711 323.757284 192.999806 334.422486 C 208.332502 345.087689 231.666056 339.755088 243.332833 325.75652 Z M 243.332833 325.75652 " transform="matrix(0.998428, 0, 0, -0.998428, -146.204234, 499.978825)"/>
<path fill-rule="evenodd" fill="rgb(51.799011%, 43.899536%, 100%)" fill-opacity="0.3" stroke-width="2" stroke-linecap="butt" stroke-linejoin="round" stroke="rgb(51.799011%, 43.899536%, 100%)" stroke-opacity="0.3" stroke-miterlimit="10" d="M 226.000901 333.088358 C 235.668441 349.755182 264.334597 361.089405 287.331684 361.421959 C 310.332684 361.754513 327.668529 351.089311 323.666144 347.090838 C 319.667671 343.088452 294.33488 345.756709 276.001374 334.422486 C 257.667867 323.088263 246.333644 297.755473 236.000995 296.08879 C 225.668347 294.422108 216.33336 316.421534 226.000901 333.088358 Z M 226.000901 333.088358 " transform="matrix(0.998428, 0, 0, -0.998428, -146.204234, 499.978825)"/>
<path fill-rule="evenodd" fill="rgb(56.098938%, 73.699951%, 56.098938%)" fill-opacity="0.3" stroke-width="2" stroke-linecap="butt" stroke-linejoin="round" stroke="rgb(56.098938%, 73.699951%, 56.098938%)" stroke-opacity="0.3" stroke-miterlimit="10" d="M 307.331873 390.757135 C 304.331063 367.087114 259.667103 319.754898 244.666961 310.423824 C 229.66682 301.088838 244.334407 329.754993 247.331306 353.421101 C 250.332117 377.087209 241.666151 395.757182 256.666292 405.088256 C 271.666434 414.423243 310.332684 414.423243 307.331873 390.757135 Z M 307.331873 390.757135 " transform="matrix(0.998428, 0, 0, -0.998428, -146.204234, 499.978825)"/>
<path fill-rule="evenodd" fill="rgb(56.498718%, 93.299866%, 56.498718%)" fill-opacity="0.3" stroke-width="2" stroke-linecap="butt" stroke-linejoin="round" stroke="rgb(56.498718%, 93.299866%, 56.498718%)" stroke-opacity="0.3" stroke-miterlimit="10" d="M 269.999752 277.42273 C 253.000374 297.090365 253.000374 327.755757 276.333928 340.756662 C 299.667482 353.757567 346.33459 349.090074 363.333968 329.422439 C 380.333346 309.754804 367.668907 275.090939 344.331441 262.090034 C 321.001799 249.089128 286.99913 257.755095 269.999752 277.42273 Z M 269.999752 277.42273 " transform="matrix(0.998428, 0, 0, -0.998428, -146.204234, 499.978825)"/>
<path fill-rule="evenodd" fill="rgb(100%, 49.798584%, 31.399536%)" fill-opacity="0.3" stroke-width="2" stroke-linecap="butt" stroke-linejoin="round" stroke="rgb(100%, 49.798584%, 31.399536%)" stroke-opacity="0.3" stroke-miterlimit="10" d="M 406.331245 320.756473 C 409.668522 303.088074 396.33115 279.75452 374.331725 269.754426 C 352.332299 259.754331 321.666907 263.087696 318.333542 280.756095 C 315.000177 298.420581 338.99884 330.420101 360.998265 340.420196 C 383.001603 350.42029 403.001792 338.420959 406.331245 320.756473 Z M 406.331245 320.756473 " transform="matrix(0.998428, 0, 0, -0.998428, -146.204234, 499.978825)"/>
<path fill-rule="evenodd" fill="rgb(100%, 0%, 0%)" fill-opacity="0.3" stroke-width="2" stroke-linecap="butt" stroke-linejoin="round" stroke="rgb(100%, 0%, 0%)" stroke-opacity="0.3" stroke-miterlimit="10" d="M 314.331157 329.422439 C 325.000272 321.754135 333.00113 301.088838 324.331252 294.754662 C 315.665286 288.420486 290.332495 296.421344 279.667292 303.088074 C 268.998178 309.754804 273.000563 315.087405 274.999799 318.757236 C 276.999036 322.423155 276.999036 324.422392 276.999036 325.420054 C 276.999036 326.421628 276.999036 326.421628 283.665765 329.089885 C 290.332495 331.754229 303.665955 337.090743 314.331157 329.422439 Z M 314.331157 329.422439 " transform="matrix(0.998428, 0, 0, -0.998428, -146.204234, 499.978825)"/>
<path fill-rule="evenodd" fill="rgb(100%, 100%, 0%)" fill-opacity="0.3" stroke-width="2" stroke-linecap="butt" stroke-linejoin="round" stroke="rgb(100%, 100%, 0%)" stroke-opacity="0.3" stroke-miterlimit="10" d="M 396.33115 393.088925 C 408.334394 376.422101 395.666042 348.421054 373.001509 337.090743 C 350.333063 325.75652 317.668434 331.089121 305.665191 347.755946 C 293.66586 364.42277 302.331826 392.423817 325.000272 403.754128 C 347.668718 415.088351 384.331819 409.75575 396.33115 393.088925 Z M 396.33115 393.088925 " transform="matrix(0.998428, 0, 0, -0.998428, -146.204234, 499.978825)"/>
<path fill="none" stroke-width="2" stroke-linecap="butt" stroke-linejoin="round" stroke="rgb(0%, 0%, 0%)" stroke-opacity="1" stroke-dasharray="4" stroke-miterlimit="10" d="M 337.844681 470.421425 C 337.844681 486.352718 324.929849 499.267551 308.998556 499.267551 C 293.071175 499.267551 280.156342 486.352718 280.156342 470.421425 C 280.156342 454.490132 293.071175 441.579212 308.998556 441.579212 C 324.929849 441.579212 337.844681 454.490132 337.844681 470.421425 " transform="matrix(0.998428, 0, 0, -0.998428, -146.204234, 499.978825)"/>
<path fill-rule="evenodd" fill="rgb(67.799377%, 100%, 18.399048%)" fill-opacity="0.3" d="M 77.109375 187.714844 C 77.109375 168.078125 63.796875 150.109375 47.824219 142.121094 C 31.847656 134.132812 13.210938 136.128906 5.558594 160.425781 C -2.097656 184.71875 1.230469 231.3125 15.875 254.609375 C 30.515625 277.90625 56.476562 277.90625 64.132812 273.246094 C 71.785156 268.585938 61.136719 259.269531 62.46875 243.960938 C 63.796875 228.648438 77.109375 207.351562 77.109375 187.714844 Z M 77.109375 187.714844 "/>
<g clip-path="url(#clip-0)">
<path fill="none" stroke-width="2" stroke-linecap="butt" stroke-linejoin="round" stroke="rgb(67.799377%, 100%, 18.399048%)" stroke-opacity="0.3" stroke-miterlimit="10" d="M 223.665198 312.755615 C 223.665198 332.42325 210.331738 350.42029 194.333935 358.421148 C 178.332218 366.422006 159.666158 364.42277 152.001766 340.087642 C 144.333462 315.756426 147.666827 269.089318 162.334414 245.755764 C 176.99809 222.42221 202.999901 222.42221 210.668205 227.089703 C 218.332597 231.757196 207.667394 241.08827 209.001522 256.420966 C 210.331738 271.757574 223.665198 293.08798 223.665198 312.755615 Z M 223.665198 312.755615 " transform="matrix(0.998428, 0, 0, -0.998428, -146.204234, 499.978825)"/>
</g>
</svg>
