<?xml version="1.0" encoding="UTF-8"?>
<svg xmlns="http://www.w3.org/2000/svg" xmlns:xlink="http://www.w3.org/1999/xlink" width="138.8" height="138.8" viewBox="0 0 138.8 138.8">
<path fill-rule="evenodd" fill="rgb(0%, 0%, 0%)" fill-opacity="0.1" d="M 32.152344 9.386719 L 32.152344 14.976562 L 56.117188 14.976562 L 56.117188 9.386719 Z M 32.152344 9.386719 "/>
<path fill-rule="evenodd" fill="rgb(0%, 0%, 0%)" fill-opacity="0.1" d="M 64.109375 9.386719 L 64.109375 14.976562 L 88.074219 14.976562 L 88.074219 9.386719 Z M 64.109375 9.386719 "/>
<path fill-rule="evenodd" fill="rgb(0%, 0%, 0%)" fill-opacity="0.1" d="M 96.0625 9.386719 L 96.0625 14.976562 L 120.027344 14.976562 L 120.027344 9.386719 Z M 96.0625 9.386719 "/>
<path fill-rule="evenodd" fill="rgb(0%, 0%, 0%)" fill-opacity="0.1" d="M 32.152344 25.363281 L 32.152344 30.957031 L 56.117188 30.957031 L 56.117188 25.363281 Z M 32.152344 25.363281 "/>
<path fill-rule="evenodd" fill="rgb(0%, 0%, 0%)" fill-opacity="0.1" d="M 64.109375 25.363281 L 64.109375 30.957031 L 88.074219 30.957031 L 88.074219 25.363281 Z M 64.109375 25.363281 "/>
<path fill-rule="evenodd" fill="rgb(0%, 0%, 0%)" fill-opacity="0.1" d="M 96.0625 25.363281 L 96.0625 30.957031 L 120.027344 30.957031 L 120.027344 25.363281 Z M 96.0625 25.363281 "/>
<path fill-rule="evenodd" fill="rgb(0%, 0%, 0%)" fill-opacity="0.1" d="M 32.152344 41.339844 L 32.152344 46.933594 L 56.117188 46.933594 L 56.117188 41.339844 Z M 32.152344 41.339844 "/>
<path fill-rule="evenodd" fill="rgb(0%, 0%, 0%)" fill-opacity="0.1" d="M 64.109375 41.339844 L 64.109375 46.933594 L 88.074219 46.933594 L 88.074219 41.339844 Z M 64.109375 41.339844 "/>
<path fill-rule="evenodd" fill="rgb(0%, 0%, 0%)" fill-opacity="0.1" d="M 96.0625 41.339844 L 96.0625 46.933594 L 120.027344 46.933594 L 120.027344 41.339844 Z M 96.0625 41.339844 "/>
<path fill-rule="evenodd" fill="rgb(0%, 0%, 0%)" fill-opacity="0.1" d="M 32.152344 57.316406 L 32.152344 62.910156 L 56.117188 62.910156 L 56.117188 57.316406 Z M 32.152344 57.316406 "/>
<path fill-rule="evenodd" fill="rgb(0%, 0%, 0%)" fill-opacity="0.1" d="M 64.109375 57.316406 L 64.109375 62.910156 L 88.074219 62.910156 L 88.074219 57.316406 Z M 64.109375 57.316406 "/>
<path fill-rule="evenodd" fill="rgb(0%, 0%, 0%)" fill-opacity="0.1" d="M 96.0625 57.316406 L 96.0625 62.910156 L 120.027344 62.910156 L 120.027344 57.316406 Z M 96.0625 57.316406 "/>
<path fill-rule="evenodd" fill="rgb(0%, 0%, 0%)" fill-opacity="0.1" d="M 32.152344 73.292969 L 32.152344 78.886719 L 56.117188 78.886719 L 56.117188 73.292969 Z M 32.152344 73.292969 "/>
<path fill-rule="evenodd" fill="rgb(0%, 0%, 0%)" fill-opacity="0.1" d="M 64.109375 73.292969 L 64.109375 78.886719 L 88.074219 78.886719 L 88.074219 73.292969 Z M 64.109375 73.292969 "/>
<path fill-rule="evenodd" fill="rgb(0%, 0%, 0%)" fill-opacity="0.1" d="M 96.0625 73.292969 L 96.0625 78.886719 L 120.027344 78.886719 L 120.027344 73.292969 Z M 96.0625 73.292969 "/>
<path fill-rule="evenodd" fill="rgb(0%, 0%, 0%)" fill-opacity="0.1" d="M 32.152344 89.269531 L 32.152344 94.863281 L 56.117188 94.863281 L 56.117188 89.269531 Z M 32.152344 89.269531 "/>
<path fill-rule="evenodd" fill="rgb(0%, 0%, 0%)" fill-opacity="0.1" d="M 64.109375 89.269531 L 64.109375 94.863281 L 88.074219 94.863281 L 88.074219 89.269531 Z M 64.109375 89.269531 "/>
<path fill-rule="evenodd" fill="rgb(0%, 0%, 0%)" fill-opacity="0.1" d="M 96.0625 89.269531 L 96.0625 94.863281 L 120.027344 94.863281 L 120.027344 89.269531 Z M 96.0625 89.269531 "/>
<path fill-rule="evenodd" fill="rgb(0%, 0%, 0%)" fill-opacity="0.1" d="M 32.152344 105.25 L 32.152344 110.839844 L 56.117188 110.839844 L 56.117188 105.25 Z M 32.152344 105.25 "/>
<path fill-rule="evenodd" fill="rgb(0%, 0%, 0%)" fill-opacity="0.1" d="M 64.109375 105.25 L 64.109375 110.839844 L 88.074219 110.839844 L 88.074219 105.25 Z M 64.109375 105.25 "/>
<path fill-rule="evenodd" fill="rgb(0%, 0%, 0%)" fill-opacity="0.1" d="M 96.0625 105.25 L 96.0625 110.839844 L 120.027344 110.839844 L 120.027344 105.25 Z M 96.0625 105.25 "/>
<path fill-rule="evenodd" fill="rgb(0%, 0%, 0%)" fill-opacity="0.1" d="M 32.152344 121.226562 L 32.152344 126.816406 L 56.117188 126.816406 L 56.117188 121.226562 Z M 32.152344 121.226562 "/>
<path fill-rule="evenodd" fill="rgb(0%, 0%, 0%)" fill-opacity="0.1" d="M 64.109375 121.226562 L 64.109375 126.816406 L 88.074219 126.816406 L 88.074219 121.226562 Z M 64.109375 121.226562 "/>
<path fill-rule="evenodd" fill="rgb(0%, 0%, 0%)" fill-opacity="0.1" d="M 96.0625 121.226562 L 96.0625 126.816406 L 120.027344 126.816406 L 120.027344 121.226562 Z M 96.0625 121.226562 "/>
<path fill-rule="evenodd" fill="rgb(0%, 0%, 0%)" fill-opacity="0.1" d="M 0.199219 25.363281 L 0.199219 30.957031 L 24.164062 30.957031 L 24.164062 25.363281 Z M 0.199219 25.363281 "/>
<path fill-rule="evenodd" fill="rgb(0%, 0%, 0%)" fill-opacity="0.1" d="M 0.199219 41.339844 L 0.199219 46.933594 L 24.164062 46.933594 L 24.164062 41.339844 Z M 0.199219 41.339844 "/>
<path fill-rule="evenodd" fill="rgb(0%, 0%, 0%)" fill-opacity="0.1" d="M 0.199219 57.316406 L 0.199219 62.910156 L 24.164062 62.910156 L 24.164062 57.316406 Z M 0.199219 57.316406 "/>
<path fill-rule="evenodd" fill="rgb(0%, 0%, 0%)" fill-opacity="0.1" d="M 0.199219 73.292969 L 0.199219 78.886719 L 24.164062 78.886719 L 24.164062 73.292969 Z M 0.199219 73.292969 "/>
<path fill-rule="evenodd" fill="rgb(0%, 0%, 0%)" fill-opacity="0.1" d="M 0.199219 89.269531 L 0.199219 94.863281 L 24.164062 94.863281 L 24.164062 89.269531 Z M 0.199219 89.269531 "/>
<path fill-rule="evenodd" fill="rgb(0%, 0%, 0%)" fill-opacity="0.1" d="M 0.199219 105.25 L 0.199219 110.839844 L 24.164062 110.839844 L 24.164062 105.25 Z M 0.199219 105.25 "/>
<path fill-rule="evenodd" fill="rgb(0%, 0%, 0%)" fill-opacity="0.1" d="M 0.199219 121.226562 L 0.199219 126.816406 L 24.164062 126.816406 L 24.164062 121.226562 Z M 0.199219 121.226562 "/>
<path fill-rule="evenodd" fill="rgb(0%, 0%, 0%)" fill-opacity="0.1" d="M 0.199219 9.386719 L 0.199219 14.976562 L 24.164062 14.976562 L 24.164062 9.386719 Z M 0.199219 9.386719 "/>
<path fill="none" stroke-width="0.4" stroke-linecap="butt" stroke-linejoin="round" stroke="rgb(0%, 0%, 0%)" stroke-opacity="1" stroke-miterlimit="10" d="M 39.998673 134.799756 L 39.998673 129.201857 L 63.998048 129.201857 L 63.998048 134.799756 Z M 39.998673 134.799756 " transform="matrix(0.998561, 0, 0, -0.998561, -7.788777, 143.992518)"/>
<path fill="none" stroke-width="0.4" stroke-linecap="butt" stroke-linejoin="round" stroke="rgb(0%, 0%, 0%)" stroke-opacity="1" stroke-miterlimit="10" d="M 72.001752 134.799756 L 72.001752 129.201857 L 96.001127 129.201857 L 96.001127 134.799756 Z M 72.001752 134.799756 " transform="matrix(0.998561, 0, 0, -0.998561, -7.788777, 143.992518)"/>
<path fill="none" stroke-width="0.4" stroke-linecap="butt" stroke-linejoin="round" stroke="rgb(0%, 0%, 0%)" stroke-opacity="1" stroke-miterlimit="10" d="M 104.000919 134.799756 L 104.000919 129.201857 L 128.000294 129.201857 L 128.000294 134.799756 Z M 104.000919 134.799756 " transform="matrix(0.998561, 0, 0, -0.998561, -7.788777, 143.992518)"/>
<path fill="none" stroke-width="0.4" stroke-linecap="butt" stroke-linejoin="round" stroke="rgb(0%, 0%, 0%)" stroke-opacity="1" stroke-miterlimit="10" d="M 39.998673 118.800172 L 39.998673 113.198362 L 63.998048 113.198362 L 63.998048 118.800172 Z M 39.998673 118.800172 " transform="matrix(0.998561, 0, 0, -0.998561, -7.788777, 143.992518)"/>
<path fill="none" stroke-width="0.4" stroke-linecap="butt" stroke-linejoin="round" stroke="rgb(0%, 0%, 0%)" stroke-opacity="1" stroke-miterlimit="10" d="M 72.001752 118.800172 L 72.001752 113.198362 L 96.001127 113.198362 L 96.001127 118.800172 Z M 72.001752 118.800172 " transform="matrix(0.998561, 0, 0, -0.998561, -7.788777, 143.992518)"/>
<path fill="none" stroke-width="0.4" stroke-linecap="butt" stroke-linejoin="round" stroke="rgb(0%, 0%, 0%)" stroke-opacity="1" stroke-miterlimit="10" d="M 104.000919 118.800172 L 104.000919 113.198362 L 128.000294 113.198362 L 128.000294 118.800172 Z M 104.000919 118.800172 " transform="matrix(0.998561, 0, 0, -0.998561, -7.788777, 143.992518)"/>
<path fill="none" stroke-width="0.4" stroke-linecap="butt" stroke-linejoin="round" stroke="rgb(0%, 0%, 0%)" stroke-opacity="1" stroke-miterlimit="10" d="M 39.998673 102.800589 L 39.998673 97.198779 L 63.998048 97.198779 L 63.998048 102.800589 Z M 39.998673 102.800589 " transform="matrix(0.998561, 0, 0, -0.998561, -7.788777, 143.992518)"/>
<path fill="none" stroke-width="0.4" stroke-linecap="butt" stroke-linejoin="round" stroke="rgb(0%, 0%, 0%)" stroke-opacity="1" stroke-miterlimit="10" d="M 72.001752 102.800589 L 72.001752 97.198779 L 96.001127 97.198779 L 96.001127 102.800589 Z M 72.001752 102.800589 " transform="matrix(0.998561, 0, 0, -0.998561, -7.788777, 143.992518)"/>
<path fill="none" stroke-width="0.4" stroke-linecap="butt" stroke-linejoin="round" stroke="rgb(0%, 0%, 0%)" stroke-opacity="1" stroke-miterlimit="10" d="M 104.000919 102.800589 L 104.000919 97.198779 L 128.000294 97.198779 L 128.000294 102.800589 Z M 104.000919 102.800589 " transform="matrix(0.998561, 0, 0, -0.998561, -7.788777, 143.992518)"/>
<path fill="none" stroke-width="0.4" stroke-linecap="butt" stroke-linejoin="round" stroke="rgb(0%, 0%, 0%)" stroke-opacity="1" stroke-miterlimit="10" d="M 39.998673 86.801005 L 39.998673 81.199195 L 63.998048 81.199195 L 63.998048 86.801005 Z M 39.998673 86.801005 " transform="matrix(0.998561, 0, 0, -0.998561, -7.788777, 143.992518)"/>
<path fill="none" stroke-width="0.4" stroke-linecap="butt" stroke-linejoin="round" stroke="rgb(0%, 0%, 0%)" stroke-opacity="1" stroke-miterlimit="10" d="M 72.001752 86.801005 L 72.001752 81.199195 L 96.001127 81.199195 L 96.001127 86.801005 Z M 72.001752 86.801005 " transform="matrix(0.998561, 0, 0, -0.998561, -7.788777, 143.992518)"/>
<path fill="none" stroke-width="0.4" stroke-linecap="butt" stroke-linejoin="round" stroke="rgb(0%, 0%, 0%)" stroke-opacity="1" stroke-miterlimit="10" d="M 104.000919 86.801005 L 104.000919 81.199195 L 128.000294 81.199195 L 128.000294 86.801005 Z M 104.000919 86.801005 " transform="matrix(0.998561, 0, 0, -0.998561, -7.788777, 143.992518)"/>
<path fill="none" stroke-width="0.4" stroke-linecap="butt" stroke-linejoin="round" stroke="rgb(0%, 0%, 0%)" stroke-opacity="1" stroke-miterlimit="10" d="M 39.998673 70.801422 L 39.998673 65.199612 L 63.998048 65.199612 L 63.998048 70.801422 Z M 39.998673 70.801422 " transform="matrix(0.998561, 0, 0, -0.998561, -7.788777, 143.992518)"/>
<path fill="none" stroke-width="0.4" stroke-linecap="butt" stroke-linejoin="round" stroke="rgb(0%, 0%, 0%)" stroke-opacity="1" stroke-miterlimit="10" d="M 72.001752 70.801422 L 72.001752 65.199612 L 96.001127 65.199612 L 96.001127 70.801422 Z M 72.001752 70.801422 " transform="matrix(0.998561, 0, 0, -0.998561, -7.788777, 143.992518)"/>
<path fill="none" stroke-width="0.4" stroke-linecap="butt" stroke-linejoin="round" stroke="rgb(0%, 0%, 0%)" stroke-opacity="1" stroke-miterlimit="10" d="M 104.000919 70.801422 L 104.000919 65.199612 L 128.000294 65.199612 L 128.000294 70.801422 Z M 104.000919 70.801422 " transform="matrix(0.998561, 0, 0, -0.998561, -7.788777, 143.992518)"/>
<path fill="none" stroke-width="0.4" stroke-linecap="butt" stroke-linejoin="round" stroke="rgb(0%, 0%, 0%)" stroke-opacity="1" stroke-miterlimit="10" d="M 39.998673 54.801838 L 39.998673 49.200028 L 63.998048 49.200028 L 63.998048 54.801838 Z M 39.998673 54.801838 " transform="matrix(0.998561, 0, 0, -0.998561, -7.788777, 143.992518)"/>
<path fill="none" stroke-width="0.4" stroke-linecap="butt" stroke-linejoin="round" stroke="rgb(0%, 0%, 0%)" stroke-opacity="1" stroke-miterlimit="10" d="M 72.001752 54.801838 L 72.001752 49.200028 L 96.001127 49.200028 L 96.001127 54.801838 Z M 72.001752 54.801838 " transform="matrix(0.998561, 0, 0, -0.998561, -7.788777, 143.992518)"/>
<path fill="none" stroke-width="0.4" stroke-linecap="butt" stroke-linejoin="round" stroke="rgb(0%, 0%, 0%)" stroke-opacity="1" stroke-miterlimit="10" d="M 104.000919 54.801838 L 104.000919 49.200028 L 128.000294 49.200028 L 128.000294 54.801838 Z M 104.000919 54.801838 " transform="matrix(0.998561, 0, 0, -0.998561, -7.788777, 143.992518)"/>
<path fill="none" stroke-width="0.4" stroke-linecap="butt" stroke-linejoin="round" stroke="rgb(0%, 0%, 0%)" stroke-opacity="1" stroke-miterlimit="10" d="M 39.998673 38.798343 L 39.998673 33.200445 L 63.998048 33.200445 L 63.998048 38.798343 Z M 39.998673 38.798343 " transform="matrix(0.998561, 0, 0, -0.998561, -7.788777, 143.992518)"/>
<path fill="none" stroke-width="0.4" stroke-linecap="butt" stroke-linejoin="round" stroke="rgb(0%, 0%, 0%)" stroke-opacity="1" stroke-miterlimit="10" d="M 72.001752 38.798343 L 72.001752 33.200445 L 96.001127 33.200445 L 96.001127 38.798343 Z M 72.001752 38.798343 " transform="matrix(0.998561, 0, 0, -0.998561, -7.788777, 143.992518)"/>
<path fill="none" stroke-width="0.4" stroke-linecap="butt" stroke-linejoin="round" stroke="rgb(0%, 0%, 0%)" stroke-opacity="1" stroke-miterlimit="10" d="M 104.000919 38.798343 L 104.000919 33.200445 L 128.000294 33.200445 L 128.000294 38.798343 Z M 104.000919 38.798343 " transform="matrix(0.998561, 0, 0, -0.998561, -7.788777, 143.992518)"/>
<path fill="none" stroke-width="0.4" stroke-linecap="butt" stroke-linejoin="round" stroke="rgb(0%, 0%, 0%)" stroke-opacity="1" stroke-miterlimit="10" d="M 39.998673 22.798759 L 39.998673 17.200861 L 63.998048 17.200861 L 63.998048 22.798759 Z M 39.998673 22.798759 " transform="matrix(0.998561, 0, 0, -0.998561, -7.788777, 143.992518)"/>
<path fill="none" stroke-width="0.4" stroke-linecap="butt" stroke-linejoin="round" stroke="rgb(0%, 0%, 0%)" stroke-opacity="1" stroke-miterlimit="10" d="M 72.001752 22.798759 L 72.001752 17.200861 L 96.001127 17.200861 L 96.001127 22.798759 Z M 72.001752 22.798759 " transform="matrix(0.998561, 0, 0, -0.998561, -7.788777, 143.992518)"/>
<path fill="none" stroke-width="0.4" stroke-linecap="butt" stroke-linejoin="round" stroke="rgb(0%, 0%, 0%)" stroke-opacity="1" stroke-miterlimit="10" d="M 104.000919 22.798759 L 104.000919 17.200861 L 128.000294 17.200861 L 128.000294 22.798759 Z M 104.000919 22.798759 " transform="matrix(0.998561, 0, 0, -0.998561, -7.788777, 143.992518)"/>
<path fill="none" stroke-width="0.4" stroke-linecap="butt" stroke-linejoin="round" stroke="rgb(0%, 0%, 0%)" stroke-opacity="1" stroke-miterlimit="10" d="M 7.999506 134.799756 L 7.999506 129.201857 L 31.998881 129.201857 L 31.998881 134.799756 Z M 7.999506 134.799756 " transform="matrix(0.998561, 0, 0, -0.998561, -7.788777, 143.992518)"/>
<path fill="none" stroke-width="0.4" stroke-linecap="butt" stroke-linejoin="round" stroke="rgb(0%, 0%, 0%)" stroke-opacity="1" stroke-miterlimit="10" d="M 7.999506 118.800172 L 7.999506 113.198362 L 31.998881 113.198362 L 31.998881 118.800172 Z M 7.999506 118.800172 " transform="matrix(0.998561, 0, 0, -0.998561, -7.788777, 143.992518)"/>
<path fill="none" stroke-width="0.4" stroke-linecap="butt" stroke-linejoin="round" stroke="rgb(0%, 0%, 0%)" stroke-opacity="1" stroke-miterlimit="10" d="M 7.999506 102.800589 L 7.999506 97.198779 L 31.998881 97.198779 L 31.998881 102.800589 Z M 7.999506 102.800589 " transform="matrix(0.998561, 0, 0, -0.998561, -7.788777, 143.992518)"/>
<path fill="none" stroke-width="0.4" stroke-linecap="butt" stroke-linejoin="round" stroke="rgb(0%, 0%, 0%)" stroke-opacity="1" stroke-miterlimit="10" d="M 7.999506 86.801005 L 7.999506 81.199195 L 31.998881 81.199195 L 31.998881 86.801005 Z M 7.999506 86.801005 " transform="matrix(0.998561, 0, 0, -0.998561, -7.788777, 143.992518)"/>
<path fill="none" stroke-width="0.4" stroke-linecap="butt" stroke-linejoin="round" stroke="rgb(0%, 0%, 0%)" stroke-opacity="1" stroke-miterlimit="10" d="M 7.999506 70.801422 L 7.999506 65.199612 L 31.998881 65.199612 L 31.998881 70.801422 Z M 7.999506 70.801422 " transform="matrix(0.998561, 0, 0, -0.998561, -7.788777, 143.992518)"/>
<path fill="none" stroke-width="0.4" stroke-linecap="butt" stroke-linejoin="round" stroke="rgb(0%, 0%, 0%)" stroke-opacity="1" stroke-miterlimit="10" d="M 7.999506 54.801838 L 7.999506 49.200028 L 31.998881 49.200028 L 31.998881 54.801838 Z M 7.999506 54.801838 " transform="matrix(0.998561, 0, 0, -0.998561, -7.788777, 143.992518)"/>
<path fill="none" stroke-width="0.4" stroke-linecap="butt" stroke-linejoin="round" stroke="rgb(0%, 0%, 0%)" stroke-opacity="1" stroke-miterlimit="10" d="M 7.999506 38.798343 L 7.999506 33.200445 L 31.998881 33.200445 L 31.998881 38.798343 Z M 7.999506 38.798343 " transform="matrix(0.998561, 0, 0, -0.998561, -7.788777, 143.992518)"/>
<path fill="none" stroke-width="0.4" stroke-linecap="butt" stroke-linejoin="round" stroke="rgb(0%, 0%, 0%)" stroke-opacity="1" stroke-miterlimit="10" d="M 7.999506 22.798759 L 7.999506 17.200861 L 31.998881 17.200861 L 31.998881 22.798759 Z M 7.999506 22.798759 " transform="matrix(0.998561, 0, 0, -0.998561, -7.788777, 143.992518)"/>
</svg>
