<?xml version="1.0" encoding="UTF-8"?>
<svg xmlns="http://www.w3.org/2000/svg" xmlns:xlink="http://www.w3.org/1999/xlink" width="138.8" height="138.8" viewBox="0 0 138.8 138.8">
<defs>
<clipPath id="clip-0">
<path clip-rule="nonzero" d="M 109 7 L 138.601562 7 L 138.601562 17 L 109 17 Z M 109 7 "/>
</clipPath>
<clipPath id="clip-1">
<path clip-rule="nonzero" d="M 109 23 L 138.601562 23 L 138.601562 33 L 109 33 Z M 109 23 "/>
</clipPath>
<clipPath id="clip-2">
<path clip-rule="nonzero" d="M 109 39 L 138.601562 39 L 138.601562 49 L 109 49 Z M 109 39 "/>
</clipPath>
<clipPath id="clip-3">
<path clip-rule="nonzero" d="M 109 55 L 138.601562 55 L 138.601562 65 L 109 65 Z M 109 55 "/>
</clipPath>
<clipPath id="clip-4">
<path clip-rule="nonzero" d="M 109 71 L 138.601562 71 L 138.601562 81 L 109 81 Z M 109 71 "/>
</clipPath>
<clipPath id="clip-5">
<path clip-rule="nonzero" d="M 109 87 L 138.601562 87 L 138.601562 97 L 109 97 Z M 109 87 "/>
</clipPath>
<clipPath id="clip-6">
<path clip-rule="nonzero" d="M 109 103 L 138.601562 103 L 138.601562 113 L 109 113 Z M 109 103 "/>
</clipPath>
<clipPath id="clip-7">
<path clip-rule="nonzero" d="M 109 119 L 138.601562 119 L 138.601562 129 L 109 129 Z M 109 119 "/>
</clipPath>
<clipPath id="clip-8">
<path clip-rule="nonzero" d="M 109 7 L 138.601562 7 L 138.601562 18 L 109 18 Z M 109 7 "/>
</clipPath>
<clipPath id="clip-9">
<path clip-rule="nonzero" d="M 109 23 L 138.601562 23 L 138.601562 34 L 109 34 Z M 109 23 "/>
</clipPath>
<clipPath id="clip-10">
<path clip-rule="nonzero" d="M 109 39 L 138.601562 39 L 138.601562 50 L 109 50 Z M 109 39 "/>
</clipPath>
<clipPath id="clip-11">
<path clip-rule="nonzero" d="M 109 55 L 138.601562 55 L 138.601562 66 L 109 66 Z M 109 55 "/>
</clipPath>
<clipPath id="clip-12">
<path clip-rule="nonzero" d="M 109 71 L 138.601562 71 L 138.601562 82 L 109 82 Z M 109 71 "/>
</clipPath>
<clipPath id="clip-13">
<path clip-rule="nonzero" d="M 109 87 L 138.601562 87 L 138.601562 98 L 109 98 Z M 109 87 "/>
</clipPath>
<clipPath id="clip-14">
<path clip-rule="nonzero" d="M 109 103 L 138.601562 103 L 138.601562 114 L 109 114 Z M 109 103 "/>
</clipPath>
<clipPath id="clip-15">
<path clip-rule="nonzero" d="M 109 119 L 138.601562 119 L 138.601562 130 L 109 130 Z M 109 119 "/>
</clipPath>
</defs>
<path fill-rule="evenodd" fill="rgb(0%, 0%, 100%)" fill-opacity="0.1" d="M 13.78125 7.390625 L 13.78125 16.976562 L 42.539062 16.976562 L 42.539062 7.390625 Z M 13.78125 7.390625 "/>
<path fill-rule="evenodd" fill="rgb(0%, 0%, 100%)" fill-opacity="0.1" d="M 45.734375 7.390625 L 45.734375 16.976562 L 74.492188 16.976562 L 74.492188 7.390625 Z M 45.734375 7.390625 "/>
<path fill-rule="evenodd" fill="rgb(0%, 0%, 100%)" fill-opacity="0.1" d="M 77.6875 7.390625 L 77.6875 16.976562 L 106.445312 16.976562 L 106.445312 7.390625 Z M 77.6875 7.390625 "/>
<g clip-path="url(#clip-0)">
<path fill-rule="evenodd" fill="rgb(0%, 0%, 100%)" fill-opacity="0.1" d="M 109.640625 7.390625 L 109.640625 16.976562 L 138.402344 16.976562 L 138.402344 7.390625 Z M 109.640625 7.390625 "/>
</g>
<path fill-rule="evenodd" fill="rgb(0%, 0%, 100%)" fill-opacity="0.1" d="M 13.78125 23.367188 L 13.78125 32.953125 L 42.539062 32.953125 L 42.539062 23.367188 Z M 13.78125 23.367188 "/>
<path fill-rule="evenodd" fill="rgb(0%, 0%, 100%)" fill-opacity="0.1" d="M 45.734375 23.367188 L 45.734375 32.953125 L 74.492188 32.953125 L 74.492188 23.367188 Z M 45.734375 23.367188 "/>
<path fill-rule="evenodd" fill="rgb(0%, 0%, 100%)" fill-opacity="0.1" d="M 77.6875 23.367188 L 77.6875 32.953125 L 106.445312 32.953125 L 106.445312 23.367188 Z M 77.6875 23.367188 "/>
<g clip-path="url(#clip-1)">
<path fill-rule="evenodd" fill="rgb(0%, 0%, 100%)" fill-opacity="0.1" d="M 109.640625 23.367188 L 109.640625 32.953125 L 138.402344 32.953125 L 138.402344 23.367188 Z M 109.640625 23.367188 "/>
</g>
<path fill-rule="evenodd" fill="rgb(0%, 0%, 100%)" fill-opacity="0.1" d="M 13.78125 39.34375 L 13.78125 48.929688 L 42.539062 48.929688 L 42.539062 39.34375 Z M 13.78125 39.34375 "/>
<path fill-rule="evenodd" fill="rgb(0%, 0%, 100%)" fill-opacity="0.1" d="M 45.734375 39.34375 L 45.734375 48.929688 L 74.492188 48.929688 L 74.492188 39.34375 Z M 45.734375 39.34375 "/>
<path fill-rule="evenodd" fill="rgb(0%, 0%, 100%)" fill-opacity="0.1" d="M 77.6875 39.34375 L 77.6875 48.929688 L 106.445312 48.929688 L 106.445312 39.34375 Z M 77.6875 39.34375 "/>
<g clip-path="url(#clip-2)">
<path fill-rule="evenodd" fill="rgb(0%, 0%, 100%)" fill-opacity="0.1" d="M 109.640625 39.34375 L 109.640625 48.929688 L 138.402344 48.929688 L 138.402344 39.34375 Z M 109.640625 39.34375 "/>
</g>
<path fill-rule="evenodd" fill="rgb(0%, 0%, 100%)" fill-opacity="0.1" d="M 13.78125 55.320312 L 13.78125 64.90625 L 42.539062 64.90625 L 42.539062 55.320312 Z M 13.78125 55.320312 "/>
<path fill-rule="evenodd" fill="rgb(0%, 0%, 100%)" fill-opacity="0.1" d="M 45.734375 55.320312 L 45.734375 64.90625 L 74.492188 64.90625 L 74.492188 55.320312 Z M 45.734375 55.320312 "/>
<path fill-rule="evenodd" fill="rgb(0%, 0%, 100%)" fill-opacity="0.1" d="M 77.6875 55.320312 L 77.6875 64.90625 L 106.445312 64.90625 L 106.445312 55.320312 Z M 77.6875 55.320312 "/>
<g clip-path="url(#clip-3)">
<path fill-rule="evenodd" fill="rgb(0%, 0%, 100%)" fill-opacity="0.1" d="M 109.640625 55.320312 L 109.640625 64.90625 L 138.402344 64.90625 L 138.402344 55.320312 Z M 109.640625 55.320312 "/>
</g>
<path fill-rule="evenodd" fill="rgb(0%, 0%, 100%)" fill-opacity="0.1" d="M 13.78125 71.296875 L 13.78125 80.882812 L 42.539062 80.882812 L 42.539062 71.296875 Z M 13.78125 71.296875 "/>
<path fill-rule="evenodd" fill="rgb(0%, 0%, 100%)" fill-opacity="0.1" d="M 45.734375 71.296875 L 45.734375 80.882812 L 74.492188 80.882812 L 74.492188 71.296875 Z M 45.734375 71.296875 "/>
<path fill-rule="evenodd" fill="rgb(0%, 0%, 100%)" fill-opacity="0.1" d="M 77.6875 71.296875 L 77.6875 80.882812 L 106.445312 80.882812 L 106.445312 71.296875 Z M 77.6875 71.296875 "/>
<g clip-path="url(#clip-4)">
<path fill-rule="evenodd" fill="rgb(0%, 0%, 100%)" fill-opacity="0.1" d="M 109.640625 71.296875 L 109.640625 80.882812 L 138.402344 80.882812 L 138.402344 71.296875 Z M 109.640625 71.296875 "/>
</g>
<path fill-rule="evenodd" fill="rgb(0%, 0%, 100%)" fill-opacity="0.1" d="M 13.78125 87.273438 L 13.78125 96.859375 L 42.539062 96.859375 L 42.539062 87.273438 Z M 13.78125 87.273438 "/>
<path fill-rule="evenodd" fill="rgb(0%, 0%, 100%)" fill-opacity="0.1" d="M 45.734375 87.273438 L 45.734375 96.859375 L 74.492188 96.859375 L 74.492188 87.273438 Z M 45.734375 87.273438 "/>
<path fill-rule="evenodd" fill="rgb(0%, 0%, 100%)" fill-opacity="0.1" d="M 77.6875 87.273438 L 77.6875 96.859375 L 106.445312 96.859375 L 106.445312 87.273438 Z M 77.6875 87.273438 "/>
<g clip-path="url(#clip-5)">
<path fill-rule="evenodd" fill="rgb(0%, 0%, 100%)" fill-opacity="0.1" d="M 109.640625 87.273438 L 109.640625 96.859375 L 138.402344 96.859375 L 138.402344 87.273438 Z M 109.640625 87.273438 "/>
</g>
<path fill-rule="evenodd" fill="rgb(0%, 0%, 100%)" fill-opacity="0.1" d="M 13.78125 103.25 L 13.78125 112.835938 L 42.539062 112.835938 L 42.539062 103.25 Z M 13.78125 103.25 "/>
<path fill-rule="evenodd" fill="rgb(0%, 0%, 100%)" fill-opacity="0.1" d="M 45.734375 103.25 L 45.734375 112.835938 L 74.492188 112.835938 L 74.492188 103.25 Z M 45.734375 103.25 "/>
<path fill-rule="evenodd" fill="rgb(0%, 0%, 100%)" fill-opacity="0.1" d="M 77.6875 103.25 L 77.6875 112.835938 L 106.445312 112.835938 L 106.445312 103.25 Z M 77.6875 103.25 "/>
<g clip-path="url(#clip-6)">
<path fill-rule="evenodd" fill="rgb(0%, 0%, 100%)" fill-opacity="0.1" d="M 109.640625 103.25 L 109.640625 112.835938 L 138.402344 112.835938 L 138.402344 103.25 Z M 109.640625 103.25 "/>
</g>
<path fill-rule="evenodd" fill="rgb(0%, 0%, 100%)" fill-opacity="0.1" d="M 13.78125 119.226562 L 13.78125 128.8125 L 42.539062 128.8125 L 42.539062 119.226562 Z M 13.78125 119.226562 "/>
<path fill-rule="evenodd" fill="rgb(0%, 0%, 100%)" fill-opacity="0.1" d="M 45.734375 119.226562 L 45.734375 128.8125 L 74.492188 128.8125 L 74.492188 119.226562 Z M 45.734375 119.226562 "/>
<path fill-rule="evenodd" fill="rgb(0%, 0%, 100%)" fill-opacity="0.1" d="M 77.6875 119.226562 L 77.6875 128.8125 L 106.445312 128.8125 L 106.445312 119.226562 Z M 77.6875 119.226562 "/>
<g clip-path="url(#clip-7)">
<path fill-rule="evenodd" fill="rgb(0%, 0%, 100%)" fill-opacity="0.1" d="M 109.640625 119.226562 L 109.640625 128.8125 L 138.402344 128.8125 L 138.402344 119.226562 Z M 109.640625 119.226562 "/>
</g>
<path fill="none" stroke-width="0.4" stroke-linecap="butt" stroke-linejoin="round" stroke="rgb(0%, 0%, 54.499817%)" stroke-opacity="1" stroke-miterlimit="10" d="M 21.601108 136.798726 L 21.601108 127.198976 L 50.400358 127.198976 L 50.400358 136.798726 Z M 21.601108 136.798726 " transform="matrix(0.998561, 0, 0, -0.998561, -7.788777, 143.992518)"/>
<path fill="none" stroke-width="0.4" stroke-linecap="butt" stroke-linejoin="round" stroke="rgb(0%, 0%, 54.499817%)" stroke-opacity="1" stroke-miterlimit="10" d="M 53.600275 136.798726 L 53.600275 127.198976 L 82.399525 127.198976 L 82.399525 136.798726 Z M 53.600275 136.798726 " transform="matrix(0.998561, 0, 0, -0.998561, -7.788777, 143.992518)"/>
<path fill="none" stroke-width="0.4" stroke-linecap="butt" stroke-linejoin="round" stroke="rgb(0%, 0%, 54.499817%)" stroke-opacity="1" stroke-miterlimit="10" d="M 85.599442 136.798726 L 85.599442 127.198976 L 114.398692 127.198976 L 114.398692 136.798726 Z M 85.599442 136.798726 " transform="matrix(0.998561, 0, 0, -0.998561, -7.788777, 143.992518)"/>
<g clip-path="url(#clip-8)">
<path fill="none" stroke-width="0.4" stroke-linecap="butt" stroke-linejoin="round" stroke="rgb(0%, 0%, 54.499817%)" stroke-opacity="1" stroke-miterlimit="10" d="M 117.598609 136.798726 L 117.598609 127.198976 L 146.401771 127.198976 L 146.401771 136.798726 Z M 117.598609 136.798726 " transform="matrix(0.998561, 0, 0, -0.998561, -7.788777, 143.992518)"/>
</g>
<path fill="none" stroke-width="0.4" stroke-linecap="butt" stroke-linejoin="round" stroke="rgb(0%, 0%, 54.499817%)" stroke-opacity="1" stroke-miterlimit="10" d="M 21.601108 120.799142 L 21.601108 111.199392 L 50.400358 111.199392 L 50.400358 120.799142 Z M 21.601108 120.799142 " transform="matrix(0.998561, 0, 0, -0.998561, -7.788777, 143.992518)"/>
<path fill="none" stroke-width="0.4" stroke-linecap="butt" stroke-linejoin="round" stroke="rgb(0%, 0%, 54.499817%)" stroke-opacity="1" stroke-miterlimit="10" d="M 53.600275 120.799142 L 53.600275 111.199392 L 82.399525 111.199392 L 82.399525 120.799142 Z M 53.600275 120.799142 " transform="matrix(0.998561, 0, 0, -0.998561, -7.788777, 143.992518)"/>
<path fill="none" stroke-width="0.4" stroke-linecap="butt" stroke-linejoin="round" stroke="rgb(0%, 0%, 54.499817%)" stroke-opacity="1" stroke-miterlimit="10" d="M 85.599442 120.799142 L 85.599442 111.199392 L 114.398692 111.199392 L 114.398692 120.799142 Z M 85.599442 120.799142 " transform="matrix(0.998561, 0, 0, -0.998561, -7.788777, 143.992518)"/>
<g clip-path="url(#clip-9)">
<path fill="none" stroke-width="0.4" stroke-linecap="butt" stroke-linejoin="round" stroke="rgb(0%, 0%, 54.499817%)" stroke-opacity="1" stroke-miterlimit="10" d="M 117.598609 120.799142 L 117.598609 111.199392 L 146.401771 111.199392 L 146.401771 120.799142 Z M 117.598609 120.799142 " transform="matrix(0.998561, 0, 0, -0.998561, -7.788777, 143.992518)"/>
</g>
<path fill="none" stroke-width="0.4" stroke-linecap="butt" stroke-linejoin="round" stroke="rgb(0%, 0%, 54.499817%)" stroke-opacity="1" stroke-miterlimit="10" d="M 21.601108 104.799559 L 21.601108 95.199809 L 50.400358 95.199809 L 50.400358 104.799559 Z M 21.601108 104.799559 " transform="matrix(0.998561, 0, 0, -0.998561, -7.788777, 143.992518)"/>
<path fill="none" stroke-width="0.4" stroke-linecap="butt" stroke-linejoin="round" stroke="rgb(0%, 0%, 54.499817%)" stroke-opacity="1" stroke-miterlimit="10" d="M 53.600275 104.799559 L 53.600275 95.199809 L 82.399525 95.199809 L 82.399525 104.799559 Z M 53.600275 104.799559 " transform="matrix(0.998561, 0, 0, -0.998561, -7.788777, 143.992518)"/>
<path fill="none" stroke-width="0.4" stroke-linecap="butt" stroke-linejoin="round" stroke="rgb(0%, 0%, 54.499817%)" stroke-opacity="1" stroke-miterlimit="10" d="M 85.599442 104.799559 L 85.599442 95.199809 L 114.398692 95.199809 L 114.398692 104.799559 Z M 85.599442 104.799559 " transform="matrix(0.998561, 0, 0, -0.998561, -7.788777, 143.992518)"/>
<g clip-path="url(#clip-10)">
<path fill="none" stroke-width="0.4" stroke-linecap="butt" stroke-linejoin="round" stroke="rgb(0%, 0%, 54.499817%)" stroke-opacity="1" stroke-miterlimit="10" d="M 117.598609 104.799559 L 117.598609 95.199809 L 146.401771 95.199809 L 146.401771 104.799559 Z M 117.598609 104.799559 " transform="matrix(0.998561, 0, 0, -0.998561, -7.788777, 143.992518)"/>
</g>
<path fill="none" stroke-width="0.4" stroke-linecap="butt" stroke-linejoin="round" stroke="rgb(0%, 0%, 54.499817%)" stroke-opacity="1" stroke-miterlimit="10" d="M 21.601108 88.799975 L 21.601108 79.200225 L 50.400358 79.200225 L 50.400358 88.799975 Z M 21.601108 88.799975 " transform="matrix(0.998561, 0, 0, -0.998561, -7.788777, 143.992518)"/>
<path fill="none" stroke-width="0.4" stroke-linecap="butt" stroke-linejoin="round" stroke="rgb(0%, 0%, 54.499817%)" stroke-opacity="1" stroke-miterlimit="10" d="M 53.600275 88.799975 L 53.600275 79.200225 L 82.399525 79.200225 L 82.399525 88.799975 Z M 53.600275 88.799975 " transform="matrix(0.998561, 0, 0, -0.998561, -7.788777, 143.992518)"/>
<path fill="none" stroke-width="0.4" stroke-linecap="butt" stroke-linejoin="round" stroke="rgb(0%, 0%, 54.499817%)" stroke-opacity="1" stroke-miterlimit="10" d="M 85.599442 88.799975 L 85.599442 79.200225 L 114.398692 79.200225 L 114.398692 88.799975 Z M 85.599442 88.799975 " transform="matrix(0.998561, 0, 0, -0.998561, -7.788777, 143.992518)"/>
<g clip-path="url(#clip-11)">
<path fill="none" stroke-width="0.4" stroke-linecap="butt" stroke-linejoin="round" stroke="rgb(0%, 0%, 54.499817%)" stroke-opacity="1" stroke-miterlimit="10" d="M 117.598609 88.799975 L 117.598609 79.200225 L 146.401771 79.200225 L 146.401771 88.799975 Z M 117.598609 88.799975 " transform="matrix(0.998561, 0, 0, -0.998561, -7.788777, 143.992518)"/>
</g>
<path fill="none" stroke-width="0.4" stroke-linecap="butt" stroke-linejoin="round" stroke="rgb(0%, 0%, 54.499817%)" stroke-opacity="1" stroke-miterlimit="10" d="M 21.601108 72.800392 L 21.601108 63.200642 L 50.400358 63.200642 L 50.400358 72.800392 Z M 21.601108 72.800392 " transform="matrix(0.998561, 0, 0, -0.998561, -7.788777, 143.992518)"/>
<path fill="none" stroke-width="0.4" stroke-linecap="butt" stroke-linejoin="round" stroke="rgb(0%, 0%, 54.499817%)" stroke-opacity="1" stroke-miterlimit="10" d="M 53.600275 72.800392 L 53.600275 63.200642 L 82.399525 63.200642 L 82.399525 72.800392 Z M 53.600275 72.800392 " transform="matrix(0.998561, 0, 0, -0.998561, -7.788777, 143.992518)"/>
<path fill="none" stroke-width="0.4" stroke-linecap="butt" stroke-linejoin="round" stroke="rgb(0%, 0%, 54.499817%)" stroke-opacity="1" stroke-miterlimit="10" d="M 85.599442 72.800392 L 85.599442 63.200642 L 114.398692 63.200642 L 114.398692 72.800392 Z M 85.599442 72.800392 " transform="matrix(0.998561, 0, 0, -0.998561, -7.788777, 143.992518)"/>
<g clip-path="url(#clip-12)">
<path fill="none" stroke-width="0.4" stroke-linecap="butt" stroke-linejoin="round" stroke="rgb(0%, 0%, 54.499817%)" stroke-opacity="1" stroke-miterlimit="10" d="M 117.598609 72.800392 L 117.598609 63.200642 L 146.401771 63.200642 L 146.401771 72.800392 Z M 117.598609 72.800392 " transform="matrix(0.998561, 0, 0, -0.998561, -7.788777, 143.992518)"/>
</g>
<path fill="none" stroke-width="0.4" stroke-linecap="butt" stroke-linejoin="round" stroke="rgb(0%, 0%, 54.499817%)" stroke-opacity="1" stroke-miterlimit="10" d="M 21.601108 56.800808 L 21.601108 47.201058 L 50.400358 47.201058 L 50.400358 56.800808 Z M 21.601108 56.800808 " transform="matrix(0.998561, 0, 0, -0.998561, -7.788777, 143.992518)"/>
<path fill="none" stroke-width="0.4" stroke-linecap="butt" stroke-linejoin="round" stroke="rgb(0%, 0%, 54.499817%)" stroke-opacity="1" stroke-miterlimit="10" d="M 53.600275 56.800808 L 53.600275 47.201058 L 82.399525 47.201058 L 82.399525 56.800808 Z M 53.600275 56.800808 " transform="matrix(0.998561, 0, 0, -0.998561, -7.788777, 143.992518)"/>
<path fill="none" stroke-width="0.4" stroke-linecap="butt" stroke-linejoin="round" stroke="rgb(0%, 0%, 54.499817%)" stroke-opacity="1" stroke-miterlimit="10" d="M 85.599442 56.800808 L 85.599442 47.201058 L 114.398692 47.201058 L 114.398692 56.800808 Z M 85.599442 56.800808 " transform="matrix(0.998561, 0, 0, -0.998561, -7.788777, 143.992518)"/>
<g clip-path="url(#clip-13)">
<path fill="none" stroke-width="0.4" stroke-linecap="butt" stroke-linejoin="round" stroke="rgb(0%, 0%, 54.499817%)" stroke-opacity="1" stroke-miterlimit="10" d="M 117.598609 56.800808 L 117.598609 47.201058 L 146.401771 47.201058 L 146.401771 56.800808 Z M 117.598609 56.800808 " transform="matrix(0.998561, 0, 0, -0.998561, -7.788777, 143.992518)"/>
</g>
<path fill="none" stroke-width="0.4" stroke-linecap="butt" stroke-linejoin="round" stroke="rgb(0%, 0%, 54.499817%)" stroke-opacity="1" stroke-miterlimit="10" d="M 21.601108 40.801225 L 21.601108 31.201475 L 50.400358 31.201475 L 50.400358 40.801225 Z M 21.601108 40.801225 " transform="matrix(0.998561, 0, 0, -0.998561, -7.788777, 143.992518)"/>
<path fill="none" stroke-width="0.4" stroke-linecap="butt" stroke-linejoin="round" stroke="rgb(0%, 0%, 54.499817%)" stroke-opacity="1" stroke-miterlimit="10" d="M 53.600275 40.801225 L 53.600275 31.201475 L 82.399525 31.201475 L 82.399525 40.801225 Z M 53.600275 40.801225 " transform="matrix(0.998561, 0, 0, -0.998561, -7.788777, 143.992518)"/>
<path fill="none" stroke-width="0.4" stroke-linecap="butt" stroke-linejoin="round" stroke="rgb(0%, 0%, 54.499817%)" stroke-opacity="1" stroke-miterlimit="10" d="M 85.599442 40.801225 L 85.599442 31.201475 L 114.398692 31.201475 L 114.398692 40.801225 Z M 85.599442 40.801225 " transform="matrix(0.998561, 0, 0, -0.998561, -7.788777, 143.992518)"/>
<g clip-path="url(#clip-14)">
<path fill="none" stroke-width="0.4" stroke-linecap="butt" stroke-linejoin="round" stroke="rgb(0%, 0%, 54.499817%)" stroke-opacity="1" stroke-miterlimit="10" d="M 117.598609 40.801225 L 117.598609 31.201475 L 146.401771 31.201475 L 146.401771 40.801225 Z M 117.598609 40.801225 " transform="matrix(0.998561, 0, 0, -0.998561, -7.788777, 143.992518)"/>
</g>
<path fill="none" stroke-width="0.4" stroke-linecap="butt" stroke-linejoin="round" stroke="rgb(0%, 0%, 54.499817%)" stroke-opacity="1" stroke-miterlimit="10" d="M 21.601108 24.801641 L 21.601108 15.201891 L 50.400358 15.201891 L 50.400358 24.801641 Z M 21.601108 24.801641 " transform="matrix(0.998561, 0, 0, -0.998561, -7.788777, 143.992518)"/>
<path fill="none" stroke-width="0.4" stroke-linecap="butt" stroke-linejoin="round" stroke="rgb(0%, 0%, 54.499817%)" stroke-opacity="1" stroke-miterlimit="10" d="M 53.600275 24.801641 L 53.600275 15.201891 L 82.399525 15.201891 L 82.399525 24.801641 Z M 53.600275 24.801641 " transform="matrix(0.998561, 0, 0, -0.998561, -7.788777, 143.992518)"/>
<path fill="none" stroke-width="0.4" stroke-linecap="butt" stroke-linejoin="round" stroke="rgb(0%, 0%, 54.499817%)" stroke-opacity="1" stroke-miterlimit="10" d="M 85.599442 24.801641 L 85.599442 15.201891 L 114.398692 15.201891 L 114.398692 24.801641 Z M 85.599442 24.801641 " transform="matrix(0.998561, 0, 0, -0.998561, -7.788777, 143.992518)"/>
<g clip-path="url(#clip-15)">
<path fill="none" stroke-width="0.4" stroke-linecap="butt" stroke-linejoin="round" stroke="rgb(0%, 0%, 54.499817%)" stroke-opacity="1" stroke-miterlimit="10" d="M 117.598609 24.801641 L 117.598609 15.201891 L 146.401771 15.201891 L 146.401771 24.801641 Z M 117.598609 24.801641 " transform="matrix(0.998561, 0, 0, -0.998561, -7.788777, 143.992518)"/>
</g>
</svg>
