<?xml version="1.0" encoding="UTF-8"?>
<svg xmlns="http://www.w3.org/2000/svg" xmlns:xlink="http://www.w3.org/1999/xlink" width="138.8" height="138.8" viewBox="0 0 138.8 138.8">
<defs>
<clipPath id="clip-0">
<path clip-rule="nonzero" d="M 7 109 L 17 109 L 17 138.601562 L 7 138.601562 Z M 7 109 "/>
</clipPath>
<clipPath id="clip-1">
<path clip-rule="nonzero" d="M 23 109 L 33 109 L 33 138.601562 L 23 138.601562 Z M 23 109 "/>
</clipPath>
<clipPath id="clip-2">
<path clip-rule="nonzero" d="M 39 109 L 49 109 L 49 138.601562 L 39 138.601562 Z M 39 109 "/>
</clipPath>
<clipPath id="clip-3">
<path clip-rule="nonzero" d="M 55 109 L 65 109 L 65 138.601562 L 55 138.601562 Z M 55 109 "/>
</clipPath>
<clipPath id="clip-4">
<path clip-rule="nonzero" d="M 71 109 L 81 109 L 81 138.601562 L 71 138.601562 Z M 71 109 "/>
</clipPath>
<clipPath id="clip-5">
<path clip-rule="nonzero" d="M 87 109 L 97 109 L 97 138.601562 L 87 138.601562 Z M 87 109 "/>
</clipPath>
<clipPath id="clip-6">
<path clip-rule="nonzero" d="M 103 109 L 113 109 L 113 138.601562 L 103 138.601562 Z M 103 109 "/>
</clipPath>
<clipPath id="clip-7">
<path clip-rule="nonzero" d="M 119 109 L 129 109 L 129 138.601562 L 119 138.601562 Z M 119 109 "/>
</clipPath>
<clipPath id="clip-8">
<path clip-rule="nonzero" d="M 7 109 L 18 109 L 18 138.601562 L 7 138.601562 Z M 7 109 "/>
</clipPath>
<clipPath id="clip-9">
<path clip-rule="nonzero" d="M 23 109 L 34 109 L 34 138.601562 L 23 138.601562 Z M 23 109 "/>
</clipPath>
<clipPath id="clip-10">
<path clip-rule="nonzero" d="M 39 109 L 50 109 L 50 138.601562 L 39 138.601562 Z M 39 109 "/>
</clipPath>
<clipPath id="clip-11">
<path clip-rule="nonzero" d="M 55 109 L 66 109 L 66 138.601562 L 55 138.601562 Z M 55 109 "/>
</clipPath>
<clipPath id="clip-12">
<path clip-rule="nonzero" d="M 71 109 L 82 109 L 82 138.601562 L 71 138.601562 Z M 71 109 "/>
</clipPath>
<clipPath id="clip-13">
<path clip-rule="nonzero" d="M 87 109 L 98 109 L 98 138.601562 L 87 138.601562 Z M 87 109 "/>
</clipPath>
<clipPath id="clip-14">
<path clip-rule="nonzero" d="M 103 109 L 114 109 L 114 138.601562 L 103 138.601562 Z M 103 109 "/>
</clipPath>
<clipPath id="clip-15">
<path clip-rule="nonzero" d="M 119 109 L 130 109 L 130 138.601562 L 119 138.601562 Z M 119 109 "/>
</clipPath>
</defs>
<path fill-rule="evenodd" fill="rgb(0%, 100%, 0%)" fill-opacity="0.3" d="M 9.386719 120.027344 L 14.976562 120.027344 L 14.976562 96.0625 L 9.386719 96.0625 Z M 9.386719 120.027344 "/>
<path fill-rule="evenodd" fill="rgb(0%, 100%, 0%)" fill-opacity="0.3" d="M 9.386719 88.074219 L 14.976562 88.074219 L 14.976562 64.109375 L 9.386719 64.109375 Z M 9.386719 88.074219 "/>
<path fill-rule="evenodd" fill="rgb(0%, 100%, 0%)" fill-opacity="0.3" d="M 9.386719 56.117188 L 14.976562 56.117188 L 14.976562 32.152344 L 9.386719 32.152344 Z M 9.386719 56.117188 "/>
<path fill-rule="evenodd" fill="rgb(0%, 100%, 0%)" fill-opacity="0.3" d="M 9.386719 24.164062 L 14.976562 24.164062 L 14.976562 0.199219 L 9.386719 0.199219 Z M 9.386719 24.164062 "/>
<path fill-rule="evenodd" fill="rgb(0%, 100%, 0%)" fill-opacity="0.3" d="M 25.363281 120.027344 L 30.957031 120.027344 L 30.957031 96.0625 L 25.363281 96.0625 Z M 25.363281 120.027344 "/>
<path fill-rule="evenodd" fill="rgb(0%, 100%, 0%)" fill-opacity="0.3" d="M 25.363281 88.074219 L 30.957031 88.074219 L 30.957031 64.109375 L 25.363281 64.109375 Z M 25.363281 88.074219 "/>
<path fill-rule="evenodd" fill="rgb(0%, 100%, 0%)" fill-opacity="0.3" d="M 25.363281 56.117188 L 30.957031 56.117188 L 30.957031 32.152344 L 25.363281 32.152344 Z M 25.363281 56.117188 "/>
<path fill-rule="evenodd" fill="rgb(0%, 100%, 0%)" fill-opacity="0.3" d="M 25.363281 24.164062 L 30.957031 24.164062 L 30.957031 0.199219 L 25.363281 0.199219 Z M 25.363281 24.164062 "/>
<path fill-rule="evenodd" fill="rgb(0%, 100%, 0%)" fill-opacity="0.3" d="M 41.339844 120.027344 L 46.933594 120.027344 L 46.933594 96.0625 L 41.339844 96.0625 Z M 41.339844 120.027344 "/>
<path fill-rule="evenodd" fill="rgb(0%, 100%, 0%)" fill-opacity="0.3" d="M 41.339844 88.074219 L 46.933594 88.074219 L 46.933594 64.109375 L 41.339844 64.109375 Z M 41.339844 88.074219 "/>
<path fill-rule="evenodd" fill="rgb(0%, 100%, 0%)" fill-opacity="0.3" d="M 41.339844 56.117188 L 46.933594 56.117188 L 46.933594 32.152344 L 41.339844 32.152344 Z M 41.339844 56.117188 "/>
<path fill-rule="evenodd" fill="rgb(0%, 100%, 0%)" fill-opacity="0.3" d="M 41.339844 24.164062 L 46.933594 24.164062 L 46.933594 0.199219 L 41.339844 0.199219 Z M 41.339844 24.164062 "/>
<path fill-rule="evenodd" fill="rgb(0%, 100%, 0%)" fill-opacity="0.3" d="M 57.316406 120.027344 L 62.910156 120.027344 L 62.910156 96.0625 L 57.316406 96.0625 Z M 57.316406 120.027344 "/>
<path fill-rule="evenodd" fill="rgb(0%, 100%, 0%)" fill-opacity="0.3" d="M 57.316406 88.074219 L 62.910156 88.074219 L 62.910156 64.109375 L 57.316406 64.109375 Z M 57.316406 88.074219 "/>
<path fill-rule="evenodd" fill="rgb(0%, 100%, 0%)" fill-opacity="0.3" d="M 57.316406 56.117188 L 62.910156 56.117188 L 62.910156 32.152344 L 57.316406 32.152344 Z M 57.316406 56.117188 "/>
<path fill-rule="evenodd" fill="rgb(0%, 100%, 0%)" fill-opacity="0.3" d="M 57.316406 24.164062 L 62.910156 24.164062 L 62.910156 0.199219 L 57.316406 0.199219 Z M 57.316406 24.164062 "/>
<path fill-rule="evenodd" fill="rgb(0%, 100%, 0%)" fill-opacity="0.3" d="M 73.292969 120.027344 L 78.886719 120.027344 L 78.886719 96.0625 L 73.292969 96.0625 Z M 73.292969 120.027344 "/>
<path fill-rule="evenodd" fill="rgb(0%, 100%, 0%)" fill-opacity="0.3" d="M 73.292969 88.074219 L 78.886719 88.074219 L 78.886719 64.109375 L 73.292969 64.109375 Z M 73.292969 88.074219 "/>
<path fill-rule="evenodd" fill="rgb(0%, 100%, 0%)" fill-opacity="0.3" d="M 73.292969 56.117188 L 78.886719 56.117188 L 78.886719 32.152344 L 73.292969 32.152344 Z M 73.292969 56.117188 "/>
<path fill-rule="evenodd" fill="rgb(0%, 100%, 0%)" fill-opacity="0.3" d="M 73.292969 24.164062 L 78.886719 24.164062 L 78.886719 0.199219 L 73.292969 0.199219 Z M 73.292969 24.164062 "/>
<path fill-rule="evenodd" fill="rgb(0%, 100%, 0%)" fill-opacity="0.3" d="M 89.269531 120.027344 L 94.863281 120.027344 L 94.863281 96.0625 L 89.269531 96.0625 Z M 89.269531 120.027344 "/>
<path fill-rule="evenodd" fill="rgb(0%, 100%, 0%)" fill-opacity="0.3" d="M 89.269531 88.074219 L 94.863281 88.074219 L 94.863281 64.109375 L 89.269531 64.109375 Z M 89.269531 88.074219 "/>
<path fill-rule="evenodd" fill="rgb(0%, 100%, 0%)" fill-opacity="0.3" d="M 89.269531 56.117188 L 94.863281 56.117188 L 94.863281 32.152344 L 89.269531 32.152344 Z M 89.269531 56.117188 "/>
<path fill-rule="evenodd" fill="rgb(0%, 100%, 0%)" fill-opacity="0.3" d="M 89.269531 24.164062 L 94.863281 24.164062 L 94.863281 0.199219 L 89.269531 0.199219 Z M 89.269531 24.164062 "/>
<path fill-rule="evenodd" fill="rgb(0%, 100%, 0%)" fill-opacity="0.3" d="M 105.25 120.027344 L 110.839844 120.027344 L 110.839844 96.0625 L 105.25 96.0625 Z M 105.25 120.027344 "/>
<path fill-rule="evenodd" fill="rgb(0%, 100%, 0%)" fill-opacity="0.3" d="M 105.25 88.074219 L 110.839844 88.074219 L 110.839844 64.109375 L 105.25 64.109375 Z M 105.25 88.074219 "/>
<path fill-rule="evenodd" fill="rgb(0%, 100%, 0%)" fill-opacity="0.3" d="M 105.25 56.117188 L 110.839844 56.117188 L 110.839844 32.152344 L 105.25 32.152344 Z M 105.25 56.117188 "/>
<path fill-rule="evenodd" fill="rgb(0%, 100%, 0%)" fill-opacity="0.3" d="M 105.25 24.164062 L 110.839844 24.164062 L 110.839844 0.199219 L 105.25 0.199219 Z M 105.25 24.164062 "/>
<path fill-rule="evenodd" fill="rgb(0%, 100%, 0%)" fill-opacity="0.3" d="M 121.226562 120.027344 L 126.816406 120.027344 L 126.816406 96.0625 L 121.226562 96.0625 Z M 121.226562 120.027344 "/>
<path fill-rule="evenodd" fill="rgb(0%, 100%, 0%)" fill-opacity="0.3" d="M 121.226562 88.074219 L 126.816406 88.074219 L 126.816406 64.109375 L 121.226562 64.109375 Z M 121.226562 88.074219 "/>
<path fill-rule="evenodd" fill="rgb(0%, 100%, 0%)" fill-opacity="0.3" d="M 121.226562 56.117188 L 126.816406 56.117188 L 126.816406 32.152344 L 121.226562 32.152344 Z M 121.226562 56.117188 "/>
<path fill-rule="evenodd" fill="rgb(0%, 100%, 0%)" fill-opacity="0.3" d="M 121.226562 24.164062 L 126.816406 24.164062 L 126.816406 0.199219 L 121.226562 0.199219 Z M 121.226562 24.164062 "/>
<path fill-rule="evenodd" fill="rgb(100%, 0%, 0%)" fill-opacity="0.2" d="M 7.390625 106.445312 L 16.976562 106.445312 L 16.976562 77.6875 L 7.390625 77.6875 Z M 7.390625 106.445312 "/>
<path fill-rule="evenodd" fill="rgb(100%, 0%, 0%)" fill-opacity="0.2" d="M 7.390625 74.492188 L 16.976562 74.492188 L 16.976562 45.734375 L 7.390625 45.734375 Z M 7.390625 74.492188 "/>
<path fill-rule="evenodd" fill="rgb(100%, 0%, 0%)" fill-opacity="0.2" d="M 7.390625 42.539062 L 16.976562 42.539062 L 16.976562 13.78125 L 7.390625 13.78125 Z M 7.390625 42.539062 "/>
<path fill-rule="evenodd" fill="rgb(100%, 0%, 0%)" fill-opacity="0.2" d="M 23.367188 106.445312 L 32.953125 106.445312 L 32.953125 77.6875 L 23.367188 77.6875 Z M 23.367188 106.445312 "/>
<path fill-rule="evenodd" fill="rgb(100%, 0%, 0%)" fill-opacity="0.2" d="M 23.367188 74.492188 L 32.953125 74.492188 L 32.953125 45.734375 L 23.367188 45.734375 Z M 23.367188 74.492188 "/>
<path fill-rule="evenodd" fill="rgb(100%, 0%, 0%)" fill-opacity="0.2" d="M 39.34375 106.445312 L 48.929688 106.445312 L 48.929688 77.6875 L 39.34375 77.6875 Z M 39.34375 106.445312 "/>
<path fill-rule="evenodd" fill="rgb(100%, 0%, 0%)" fill-opacity="0.2" d="M 39.34375 74.492188 L 48.929688 74.492188 L 48.929688 45.734375 L 39.34375 45.734375 Z M 39.34375 74.492188 "/>
<path fill-rule="evenodd" fill="rgb(100%, 0%, 0%)" fill-opacity="0.2" d="M 39.34375 42.539062 L 48.929688 42.539062 L 48.929688 13.78125 L 39.34375 13.78125 Z M 39.34375 42.539062 "/>
<path fill-rule="evenodd" fill="rgb(100%, 0%, 0%)" fill-opacity="0.2" d="M 55.320312 106.445312 L 64.90625 106.445312 L 64.90625 77.6875 L 55.320312 77.6875 Z M 55.320312 106.445312 "/>
<path fill-rule="evenodd" fill="rgb(100%, 0%, 0%)" fill-opacity="0.2" d="M 55.320312 74.492188 L 64.90625 74.492188 L 64.90625 45.734375 L 55.320312 45.734375 Z M 55.320312 74.492188 "/>
<path fill-rule="evenodd" fill="rgb(100%, 0%, 0%)" fill-opacity="0.2" d="M 55.320312 42.539062 L 64.90625 42.539062 L 64.90625 13.78125 L 55.320312 13.78125 Z M 55.320312 42.539062 "/>
<path fill-rule="evenodd" fill="rgb(100%, 0%, 0%)" fill-opacity="0.2" d="M 71.296875 106.445312 L 80.882812 106.445312 L 80.882812 77.6875 L 71.296875 77.6875 Z M 71.296875 106.445312 "/>
<path fill-rule="evenodd" fill="rgb(100%, 0%, 0%)" fill-opacity="0.2" d="M 71.296875 74.492188 L 80.882812 74.492188 L 80.882812 45.734375 L 71.296875 45.734375 Z M 71.296875 74.492188 "/>
<path fill-rule="evenodd" fill="rgb(100%, 0%, 0%)" fill-opacity="0.2" d="M 71.296875 42.539062 L 80.882812 42.539062 L 80.882812 13.78125 L 71.296875 13.78125 Z M 71.296875 42.539062 "/>
<path fill-rule="evenodd" fill="rgb(100%, 0%, 0%)" fill-opacity="0.2" d="M 87.273438 106.445312 L 96.859375 106.445312 L 96.859375 77.6875 L 87.273438 77.6875 Z M 87.273438 106.445312 "/>
<path fill-rule="evenodd" fill="rgb(100%, 0%, 0%)" fill-opacity="0.2" d="M 87.273438 74.492188 L 96.859375 74.492188 L 96.859375 45.734375 L 87.273438 45.734375 Z M 87.273438 74.492188 "/>
<path fill-rule="evenodd" fill="rgb(100%, 0%, 0%)" fill-opacity="0.2" d="M 87.273438 42.539062 L 96.859375 42.539062 L 96.859375 13.78125 L 87.273438 13.78125 Z M 87.273438 42.539062 "/>
<path fill-rule="evenodd" fill="rgb(100%, 0%, 0%)" fill-opacity="0.2" d="M 103.25 106.445312 L 112.835938 106.445312 L 112.835938 77.6875 L 103.25 77.6875 Z M 103.25 106.445312 "/>
<path fill-rule="evenodd" fill="rgb(100%, 0%, 0%)" fill-opacity="0.2" d="M 103.25 74.492188 L 112.835938 74.492188 L 112.835938 45.734375 L 103.25 45.734375 Z M 103.25 74.492188 "/>
<path fill-rule="evenodd" fill="rgb(100%, 0%, 0%)" fill-opacity="0.2" d="M 103.25 42.539062 L 112.835938 42.539062 L 112.835938 13.78125 L 103.25 13.78125 Z M 103.25 42.539062 "/>
<path fill-rule="evenodd" fill="rgb(100%, 0%, 0%)" fill-opacity="0.2" d="M 119.226562 106.445312 L 128.8125 106.445312 L 128.8125 77.6875 L 119.226562 77.6875 Z M 119.226562 106.445312 "/>
<path fill-rule="evenodd" fill="rgb(100%, 0%, 0%)" fill-opacity="0.2" d="M 119.226562 74.492188 L 128.8125 74.492188 L 128.8125 45.734375 L 119.226562 45.734375 Z M 119.226562 74.492188 "/>
<path fill-rule="evenodd" fill="rgb(100%, 0%, 0%)" fill-opacity="0.2" d="M 119.226562 42.539062 L 128.8125 42.539062 L 128.8125 13.78125 L 119.226562 13.78125 Z M 119.226562 42.539062 "/>
<path fill-rule="evenodd" fill="rgb(100%, 0%, 0%)" fill-opacity="0.2" d="M 23.367188 42.539062 L 32.953125 42.539062 L 32.953125 13.78125 L 23.367188 13.78125 Z M 23.367188 42.539062 "/>
<g clip-path="url(#clip-0)">
<path fill-rule="evenodd" fill="rgb(100%, 0%, 0%)" fill-opacity="0.2" d="M 7.390625 138.402344 L 16.976562 138.402344 L 16.976562 109.640625 L 7.390625 109.640625 Z M 7.390625 138.402344 "/>
</g>
<g clip-path="url(#clip-1)">
<path fill-rule="evenodd" fill="rgb(100%, 0%, 0%)" fill-opacity="0.2" d="M 23.367188 138.402344 L 32.953125 138.402344 L 32.953125 109.640625 L 23.367188 109.640625 Z M 23.367188 138.402344 "/>
</g>
<g clip-path="url(#clip-2)">
<path fill-rule="evenodd" fill="rgb(100%, 0%, 0%)" fill-opacity="0.2" d="M 39.34375 138.402344 L 48.929688 138.402344 L 48.929688 109.640625 L 39.34375 109.640625 Z M 39.34375 138.402344 "/>
</g>
<g clip-path="url(#clip-3)">
<path fill-rule="evenodd" fill="rgb(100%, 0%, 0%)" fill-opacity="0.2" d="M 55.320312 138.402344 L 64.90625 138.402344 L 64.90625 109.640625 L 55.320312 109.640625 Z M 55.320312 138.402344 "/>
</g>
<g clip-path="url(#clip-4)">
<path fill-rule="evenodd" fill="rgb(100%, 0%, 0%)" fill-opacity="0.2" d="M 71.296875 138.402344 L 80.882812 138.402344 L 80.882812 109.640625 L 71.296875 109.640625 Z M 71.296875 138.402344 "/>
</g>
<g clip-path="url(#clip-5)">
<path fill-rule="evenodd" fill="rgb(100%, 0%, 0%)" fill-opacity="0.2" d="M 87.273438 138.402344 L 96.859375 138.402344 L 96.859375 109.640625 L 87.273438 109.640625 Z M 87.273438 138.402344 "/>
</g>
<g clip-path="url(#clip-6)">
<path fill-rule="evenodd" fill="rgb(100%, 0%, 0%)" fill-opacity="0.2" d="M 103.25 138.402344 L 112.835938 138.402344 L 112.835938 109.640625 L 103.25 109.640625 Z M 103.25 138.402344 "/>
</g>
<g clip-path="url(#clip-7)">
<path fill-rule="evenodd" fill="rgb(100%, 0%, 0%)" fill-opacity="0.2" d="M 119.226562 138.402344 L 128.8125 138.402344 L 128.8125 109.640625 L 119.226562 109.640625 Z M 119.226562 138.402344 "/>
</g>
<path fill="none" stroke-width="0.4" stroke-linecap="butt" stroke-linejoin="round" stroke="rgb(0%, 39.199829%, 0%)" stroke-opacity="1" stroke-miterlimit="10" d="M 17.200244 23.999706 L 22.798143 23.999706 L 22.798143 47.999081 L 17.200244 47.999081 Z M 17.200244 23.999706 " transform="matrix(0.998561, 0, 0, -0.998561, -7.788777, 143.992518)"/>
<path fill="none" stroke-width="0.4" stroke-linecap="butt" stroke-linejoin="round" stroke="rgb(0%, 39.199829%, 0%)" stroke-opacity="1" stroke-miterlimit="10" d="M 17.200244 55.998873 L 22.798143 55.998873 L 22.798143 79.998248 L 17.200244 79.998248 Z M 17.200244 55.998873 " transform="matrix(0.998561, 0, 0, -0.998561, -7.788777, 143.992518)"/>
<path fill="none" stroke-width="0.4" stroke-linecap="butt" stroke-linejoin="round" stroke="rgb(0%, 39.199829%, 0%)" stroke-opacity="1" stroke-miterlimit="10" d="M 17.200244 88.001952 L 22.798143 88.001952 L 22.798143 112.001327 L 17.200244 112.001327 Z M 17.200244 88.001952 " transform="matrix(0.998561, 0, 0, -0.998561, -7.788777, 143.992518)"/>
<path fill="none" stroke-width="0.4" stroke-linecap="butt" stroke-linejoin="round" stroke="rgb(0%, 39.199829%, 0%)" stroke-opacity="1" stroke-miterlimit="10" d="M 17.200244 120.001119 L 22.798143 120.001119 L 22.798143 144.000494 L 17.200244 144.000494 Z M 17.200244 120.001119 " transform="matrix(0.998561, 0, 0, -0.998561, -7.788777, 143.992518)"/>
<path fill="none" stroke-width="0.4" stroke-linecap="butt" stroke-linejoin="round" stroke="rgb(0%, 39.199829%, 0%)" stroke-opacity="1" stroke-miterlimit="10" d="M 33.199828 23.999706 L 38.801638 23.999706 L 38.801638 47.999081 L 33.199828 47.999081 Z M 33.199828 23.999706 " transform="matrix(0.998561, 0, 0, -0.998561, -7.788777, 143.992518)"/>
<path fill="none" stroke-width="0.4" stroke-linecap="butt" stroke-linejoin="round" stroke="rgb(0%, 39.199829%, 0%)" stroke-opacity="1" stroke-miterlimit="10" d="M 33.199828 55.998873 L 38.801638 55.998873 L 38.801638 79.998248 L 33.199828 79.998248 Z M 33.199828 55.998873 " transform="matrix(0.998561, 0, 0, -0.998561, -7.788777, 143.992518)"/>
<path fill="none" stroke-width="0.4" stroke-linecap="butt" stroke-linejoin="round" stroke="rgb(0%, 39.199829%, 0%)" stroke-opacity="1" stroke-miterlimit="10" d="M 33.199828 88.001952 L 38.801638 88.001952 L 38.801638 112.001327 L 33.199828 112.001327 Z M 33.199828 88.001952 " transform="matrix(0.998561, 0, 0, -0.998561, -7.788777, 143.992518)"/>
<path fill="none" stroke-width="0.4" stroke-linecap="butt" stroke-linejoin="round" stroke="rgb(0%, 39.199829%, 0%)" stroke-opacity="1" stroke-miterlimit="10" d="M 33.199828 120.001119 L 38.801638 120.001119 L 38.801638 144.000494 L 33.199828 144.000494 Z M 33.199828 120.001119 " transform="matrix(0.998561, 0, 0, -0.998561, -7.788777, 143.992518)"/>
<path fill="none" stroke-width="0.4" stroke-linecap="butt" stroke-linejoin="round" stroke="rgb(0%, 39.199829%, 0%)" stroke-opacity="1" stroke-miterlimit="10" d="M 49.199411 23.999706 L 54.801221 23.999706 L 54.801221 47.999081 L 49.199411 47.999081 Z M 49.199411 23.999706 " transform="matrix(0.998561, 0, 0, -0.998561, -7.788777, 143.992518)"/>
<path fill="none" stroke-width="0.4" stroke-linecap="butt" stroke-linejoin="round" stroke="rgb(0%, 39.199829%, 0%)" stroke-opacity="1" stroke-miterlimit="10" d="M 49.199411 55.998873 L 54.801221 55.998873 L 54.801221 79.998248 L 49.199411 79.998248 Z M 49.199411 55.998873 " transform="matrix(0.998561, 0, 0, -0.998561, -7.788777, 143.992518)"/>
<path fill="none" stroke-width="0.4" stroke-linecap="butt" stroke-linejoin="round" stroke="rgb(0%, 39.199829%, 0%)" stroke-opacity="1" stroke-miterlimit="10" d="M 49.199411 88.001952 L 54.801221 88.001952 L 54.801221 112.001327 L 49.199411 112.001327 Z M 49.199411 88.001952 " transform="matrix(0.998561, 0, 0, -0.998561, -7.788777, 143.992518)"/>
<path fill="none" stroke-width="0.4" stroke-linecap="butt" stroke-linejoin="round" stroke="rgb(0%, 39.199829%, 0%)" stroke-opacity="1" stroke-miterlimit="10" d="M 49.199411 120.001119 L 54.801221 120.001119 L 54.801221 144.000494 L 49.199411 144.000494 Z M 49.199411 120.001119 " transform="matrix(0.998561, 0, 0, -0.998561, -7.788777, 143.992518)"/>
<path fill="none" stroke-width="0.4" stroke-linecap="butt" stroke-linejoin="round" stroke="rgb(0%, 39.199829%, 0%)" stroke-opacity="1" stroke-miterlimit="10" d="M 65.198995 23.999706 L 70.800805 23.999706 L 70.800805 47.999081 L 65.198995 47.999081 Z M 65.198995 23.999706 " transform="matrix(0.998561, 0, 0, -0.998561, -7.788777, 143.992518)"/>
<path fill="none" stroke-width="0.4" stroke-linecap="butt" stroke-linejoin="round" stroke="rgb(0%, 39.199829%, 0%)" stroke-opacity="1" stroke-miterlimit="10" d="M 65.198995 55.998873 L 70.800805 55.998873 L 70.800805 79.998248 L 65.198995 79.998248 Z M 65.198995 55.998873 " transform="matrix(0.998561, 0, 0, -0.998561, -7.788777, 143.992518)"/>
<path fill="none" stroke-width="0.4" stroke-linecap="butt" stroke-linejoin="round" stroke="rgb(0%, 39.199829%, 0%)" stroke-opacity="1" stroke-miterlimit="10" d="M 65.198995 88.001952 L 70.800805 88.001952 L 70.800805 112.001327 L 65.198995 112.001327 Z M 65.198995 88.001952 " transform="matrix(0.998561, 0, 0, -0.998561, -7.788777, 143.992518)"/>
<path fill="none" stroke-width="0.4" stroke-linecap="butt" stroke-linejoin="round" stroke="rgb(0%, 39.199829%, 0%)" stroke-opacity="1" stroke-miterlimit="10" d="M 65.198995 120.001119 L 70.800805 120.001119 L 70.800805 144.000494 L 65.198995 144.000494 Z M 65.198995 120.001119 " transform="matrix(0.998561, 0, 0, -0.998561, -7.788777, 143.992518)"/>
<path fill="none" stroke-width="0.4" stroke-linecap="butt" stroke-linejoin="round" stroke="rgb(0%, 39.199829%, 0%)" stroke-opacity="1" stroke-miterlimit="10" d="M 81.198578 23.999706 L 86.800388 23.999706 L 86.800388 47.999081 L 81.198578 47.999081 Z M 81.198578 23.999706 " transform="matrix(0.998561, 0, 0, -0.998561, -7.788777, 143.992518)"/>
<path fill="none" stroke-width="0.4" stroke-linecap="butt" stroke-linejoin="round" stroke="rgb(0%, 39.199829%, 0%)" stroke-opacity="1" stroke-miterlimit="10" d="M 81.198578 55.998873 L 86.800388 55.998873 L 86.800388 79.998248 L 81.198578 79.998248 Z M 81.198578 55.998873 " transform="matrix(0.998561, 0, 0, -0.998561, -7.788777, 143.992518)"/>
<path fill="none" stroke-width="0.4" stroke-linecap="butt" stroke-linejoin="round" stroke="rgb(0%, 39.199829%, 0%)" stroke-opacity="1" stroke-miterlimit="10" d="M 81.198578 88.001952 L 86.800388 88.001952 L 86.800388 112.001327 L 81.198578 112.001327 Z M 81.198578 88.001952 " transform="matrix(0.998561, 0, 0, -0.998561, -7.788777, 143.992518)"/>
<path fill="none" stroke-width="0.4" stroke-linecap="butt" stroke-linejoin="round" stroke="rgb(0%, 39.199829%, 0%)" stroke-opacity="1" stroke-miterlimit="10" d="M 81.198578 120.001119 L 86.800388 120.001119 L 86.800388 144.000494 L 81.198578 144.000494 Z M 81.198578 120.001119 " transform="matrix(0.998561, 0, 0, -0.998561, -7.788777, 143.992518)"/>
<path fill="none" stroke-width="0.4" stroke-linecap="butt" stroke-linejoin="round" stroke="rgb(0%, 39.199829%, 0%)" stroke-opacity="1" stroke-miterlimit="10" d="M 97.198162 23.999706 L 102.799972 23.999706 L 102.799972 47.999081 L 97.198162 47.999081 Z M 97.198162 23.999706 " transform="matrix(0.998561, 0, 0, -0.998561, -7.788777, 143.992518)"/>
<path fill="none" stroke-width="0.4" stroke-linecap="butt" stroke-linejoin="round" stroke="rgb(0%, 39.199829%, 0%)" stroke-opacity="1" stroke-miterlimit="10" d="M 97.198162 55.998873 L 102.799972 55.998873 L 102.799972 79.998248 L 97.198162 79.998248 Z M 97.198162 55.998873 " transform="matrix(0.998561, 0, 0, -0.998561, -7.788777, 143.992518)"/>
<path fill="none" stroke-width="0.4" stroke-linecap="butt" stroke-linejoin="round" stroke="rgb(0%, 39.199829%, 0%)" stroke-opacity="1" stroke-miterlimit="10" d="M 97.198162 88.001952 L 102.799972 88.001952 L 102.799972 112.001327 L 97.198162 112.001327 Z M 97.198162 88.001952 " transform="matrix(0.998561, 0, 0, -0.998561, -7.788777, 143.992518)"/>
<path fill="none" stroke-width="0.4" stroke-linecap="butt" stroke-linejoin="round" stroke="rgb(0%, 39.199829%, 0%)" stroke-opacity="1" stroke-miterlimit="10" d="M 97.198162 120.001119 L 102.799972 120.001119 L 102.799972 144.000494 L 97.198162 144.000494 Z M 97.198162 120.001119 " transform="matrix(0.998561, 0, 0, -0.998561, -7.788777, 143.992518)"/>
<path fill="none" stroke-width="0.4" stroke-linecap="butt" stroke-linejoin="round" stroke="rgb(0%, 39.199829%, 0%)" stroke-opacity="1" stroke-miterlimit="10" d="M 113.201657 23.999706 L 118.799555 23.999706 L 118.799555 47.999081 L 113.201657 47.999081 Z M 113.201657 23.999706 " transform="matrix(0.998561, 0, 0, -0.998561, -7.788777, 143.992518)"/>
<path fill="none" stroke-width="0.4" stroke-linecap="butt" stroke-linejoin="round" stroke="rgb(0%, 39.199829%, 0%)" stroke-opacity="1" stroke-miterlimit="10" d="M 113.201657 55.998873 L 118.799555 55.998873 L 118.799555 79.998248 L 113.201657 79.998248 Z M 113.201657 55.998873 " transform="matrix(0.998561, 0, 0, -0.998561, -7.788777, 143.992518)"/>
<path fill="none" stroke-width="0.4" stroke-linecap="butt" stroke-linejoin="round" stroke="rgb(0%, 39.199829%, 0%)" stroke-opacity="1" stroke-miterlimit="10" d="M 113.201657 88.001952 L 118.799555 88.001952 L 118.799555 112.001327 L 113.201657 112.001327 Z M 113.201657 88.001952 " transform="matrix(0.998561, 0, 0, -0.998561, -7.788777, 143.992518)"/>
<path fill="none" stroke-width="0.4" stroke-linecap="butt" stroke-linejoin="round" stroke="rgb(0%, 39.199829%, 0%)" stroke-opacity="1" stroke-miterlimit="10" d="M 113.201657 120.001119 L 118.799555 120.001119 L 118.799555 144.000494 L 113.201657 144.000494 Z M 113.201657 120.001119 " transform="matrix(0.998561, 0, 0, -0.998561, -7.788777, 143.992518)"/>
<path fill="none" stroke-width="0.4" stroke-linecap="butt" stroke-linejoin="round" stroke="rgb(0%, 39.199829%, 0%)" stroke-opacity="1" stroke-miterlimit="10" d="M 129.201241 23.999706 L 134.799139 23.999706 L 134.799139 47.999081 L 129.201241 47.999081 Z M 129.201241 23.999706 " transform="matrix(0.998561, 0, 0, -0.998561, -7.788777, 143.992518)"/>
<path fill="none" stroke-width="0.4" stroke-linecap="butt" stroke-linejoin="round" stroke="rgb(0%, 39.199829%, 0%)" stroke-opacity="1" stroke-miterlimit="10" d="M 129.201241 55.998873 L 134.799139 55.998873 L 134.799139 79.998248 L 129.201241 79.998248 Z M 129.201241 55.998873 " transform="matrix(0.998561, 0, 0, -0.998561, -7.788777, 143.992518)"/>
<path fill="none" stroke-width="0.4" stroke-linecap="butt" stroke-linejoin="round" stroke="rgb(0%, 39.199829%, 0%)" stroke-opacity="1" stroke-miterlimit="10" d="M 129.201241 88.001952 L 134.799139 88.001952 L 134.799139 112.001327 L 129.201241 112.001327 Z M 129.201241 88.001952 " transform="matrix(0.998561, 0, 0, -0.998561, -7.788777, 143.992518)"/>
<path fill="none" stroke-width="0.4" stroke-linecap="butt" stroke-linejoin="round" stroke="rgb(0%, 39.199829%, 0%)" stroke-opacity="1" stroke-miterlimit="10" d="M 129.201241 120.001119 L 134.799139 120.001119 L 134.799139 144.000494 L 129.201241 144.000494 Z M 129.201241 120.001119 " transform="matrix(0.998561, 0, 0, -0.998561, -7.788777, 143.992518)"/>
<path fill="none" stroke-width="0.4" stroke-linecap="butt" stroke-linejoin="round" stroke="rgb(100%, 0%, 0%)" stroke-opacity="1" stroke-miterlimit="10" d="M 15.201274 37.601308 L 24.801024 37.601308 L 24.801024 66.400558 L 15.201274 66.400558 Z M 15.201274 37.601308 " transform="matrix(0.998561, 0, 0, -0.998561, -7.788777, 143.992518)"/>
<path fill="none" stroke-width="0.4" stroke-linecap="butt" stroke-linejoin="round" stroke="rgb(100%, 0%, 0%)" stroke-opacity="1" stroke-miterlimit="10" d="M 15.201274 69.600475 L 24.801024 69.600475 L 24.801024 98.399725 L 15.201274 98.399725 Z M 15.201274 69.600475 " transform="matrix(0.998561, 0, 0, -0.998561, -7.788777, 143.992518)"/>
<path fill="none" stroke-width="0.4" stroke-linecap="butt" stroke-linejoin="round" stroke="rgb(100%, 0%, 0%)" stroke-opacity="1" stroke-miterlimit="10" d="M 15.201274 101.599642 L 24.801024 101.599642 L 24.801024 130.398892 L 15.201274 130.398892 Z M 15.201274 101.599642 " transform="matrix(0.998561, 0, 0, -0.998561, -7.788777, 143.992518)"/>
<path fill="none" stroke-width="0.4" stroke-linecap="butt" stroke-linejoin="round" stroke="rgb(100%, 0%, 0%)" stroke-opacity="1" stroke-miterlimit="10" d="M 31.200858 37.601308 L 40.800608 37.601308 L 40.800608 66.400558 L 31.200858 66.400558 Z M 31.200858 37.601308 " transform="matrix(0.998561, 0, 0, -0.998561, -7.788777, 143.992518)"/>
<path fill="none" stroke-width="0.4" stroke-linecap="butt" stroke-linejoin="round" stroke="rgb(100%, 0%, 0%)" stroke-opacity="1" stroke-miterlimit="10" d="M 31.200858 69.600475 L 40.800608 69.600475 L 40.800608 98.399725 L 31.200858 98.399725 Z M 31.200858 69.600475 " transform="matrix(0.998561, 0, 0, -0.998561, -7.788777, 143.992518)"/>
<path fill="none" stroke-width="0.4" stroke-linecap="butt" stroke-linejoin="round" stroke="rgb(100%, 0%, 0%)" stroke-opacity="1" stroke-miterlimit="10" d="M 47.200441 37.601308 L 56.800191 37.601308 L 56.800191 66.400558 L 47.200441 66.400558 Z M 47.200441 37.601308 " transform="matrix(0.998561, 0, 0, -0.998561, -7.788777, 143.992518)"/>
<path fill="none" stroke-width="0.4" stroke-linecap="butt" stroke-linejoin="round" stroke="rgb(100%, 0%, 0%)" stroke-opacity="1" stroke-miterlimit="10" d="M 47.200441 69.600475 L 56.800191 69.600475 L 56.800191 98.399725 L 47.200441 98.399725 Z M 47.200441 69.600475 " transform="matrix(0.998561, 0, 0, -0.998561, -7.788777, 143.992518)"/>
<path fill="none" stroke-width="0.4" stroke-linecap="butt" stroke-linejoin="round" stroke="rgb(100%, 0%, 0%)" stroke-opacity="1" stroke-miterlimit="10" d="M 47.200441 101.599642 L 56.800191 101.599642 L 56.800191 130.398892 L 47.200441 130.398892 Z M 47.200441 101.599642 " transform="matrix(0.998561, 0, 0, -0.998561, -7.788777, 143.992518)"/>
<path fill="none" stroke-width="0.4" stroke-linecap="butt" stroke-linejoin="round" stroke="rgb(100%, 0%, 0%)" stroke-opacity="1" stroke-miterlimit="10" d="M 63.200025 37.601308 L 72.799775 37.601308 L 72.799775 66.400558 L 63.200025 66.400558 Z M 63.200025 37.601308 " transform="matrix(0.998561, 0, 0, -0.998561, -7.788777, 143.992518)"/>
<path fill="none" stroke-width="0.4" stroke-linecap="butt" stroke-linejoin="round" stroke="rgb(100%, 0%, 0%)" stroke-opacity="1" stroke-miterlimit="10" d="M 63.200025 69.600475 L 72.799775 69.600475 L 72.799775 98.399725 L 63.200025 98.399725 Z M 63.200025 69.600475 " transform="matrix(0.998561, 0, 0, -0.998561, -7.788777, 143.992518)"/>
<path fill="none" stroke-width="0.4" stroke-linecap="butt" stroke-linejoin="round" stroke="rgb(100%, 0%, 0%)" stroke-opacity="1" stroke-miterlimit="10" d="M 63.200025 101.599642 L 72.799775 101.599642 L 72.799775 130.398892 L 63.200025 130.398892 Z M 63.200025 101.599642 " transform="matrix(0.998561, 0, 0, -0.998561, -7.788777, 143.992518)"/>
<path fill="none" stroke-width="0.4" stroke-linecap="butt" stroke-linejoin="round" stroke="rgb(100%, 0%, 0%)" stroke-opacity="1" stroke-miterlimit="10" d="M 79.199608 37.601308 L 88.799358 37.601308 L 88.799358 66.400558 L 79.199608 66.400558 Z M 79.199608 37.601308 " transform="matrix(0.998561, 0, 0, -0.998561, -7.788777, 143.992518)"/>
<path fill="none" stroke-width="0.4" stroke-linecap="butt" stroke-linejoin="round" stroke="rgb(100%, 0%, 0%)" stroke-opacity="1" stroke-miterlimit="10" d="M 79.199608 69.600475 L 88.799358 69.600475 L 88.799358 98.399725 L 79.199608 98.399725 Z M 79.199608 69.600475 " transform="matrix(0.998561, 0, 0, -0.998561, -7.788777, 143.992518)"/>
<path fill="none" stroke-width="0.4" stroke-linecap="butt" stroke-linejoin="round" stroke="rgb(100%, 0%, 0%)" stroke-opacity="1" stroke-miterlimit="10" d="M 79.199608 101.599642 L 88.799358 101.599642 L 88.799358 130.398892 L 79.199608 130.398892 Z M 79.199608 101.599642 " transform="matrix(0.998561, 0, 0, -0.998561, -7.788777, 143.992518)"/>
<path fill="none" stroke-width="0.4" stroke-linecap="butt" stroke-linejoin="round" stroke="rgb(100%, 0%, 0%)" stroke-opacity="1" stroke-miterlimit="10" d="M 95.199192 37.601308 L 104.798942 37.601308 L 104.798942 66.400558 L 95.199192 66.400558 Z M 95.199192 37.601308 " transform="matrix(0.998561, 0, 0, -0.998561, -7.788777, 143.992518)"/>
<path fill="none" stroke-width="0.4" stroke-linecap="butt" stroke-linejoin="round" stroke="rgb(100%, 0%, 0%)" stroke-opacity="1" stroke-miterlimit="10" d="M 95.199192 69.600475 L 104.798942 69.600475 L 104.798942 98.399725 L 95.199192 98.399725 Z M 95.199192 69.600475 " transform="matrix(0.998561, 0, 0, -0.998561, -7.788777, 143.992518)"/>
<path fill="none" stroke-width="0.4" stroke-linecap="butt" stroke-linejoin="round" stroke="rgb(100%, 0%, 0%)" stroke-opacity="1" stroke-miterlimit="10" d="M 95.199192 101.599642 L 104.798942 101.599642 L 104.798942 130.398892 L 95.199192 130.398892 Z M 95.199192 101.599642 " transform="matrix(0.998561, 0, 0, -0.998561, -7.788777, 143.992518)"/>
<path fill="none" stroke-width="0.4" stroke-linecap="butt" stroke-linejoin="round" stroke="rgb(100%, 0%, 0%)" stroke-opacity="1" stroke-miterlimit="10" d="M 111.198775 37.601308 L 120.798525 37.601308 L 120.798525 66.400558 L 111.198775 66.400558 Z M 111.198775 37.601308 " transform="matrix(0.998561, 0, 0, -0.998561, -7.788777, 143.992518)"/>
<path fill="none" stroke-width="0.4" stroke-linecap="butt" stroke-linejoin="round" stroke="rgb(100%, 0%, 0%)" stroke-opacity="1" stroke-miterlimit="10" d="M 111.198775 69.600475 L 120.798525 69.600475 L 120.798525 98.399725 L 111.198775 98.399725 Z M 111.198775 69.600475 " transform="matrix(0.998561, 0, 0, -0.998561, -7.788777, 143.992518)"/>
<path fill="none" stroke-width="0.4" stroke-linecap="butt" stroke-linejoin="round" stroke="rgb(100%, 0%, 0%)" stroke-opacity="1" stroke-miterlimit="10" d="M 111.198775 101.599642 L 120.798525 101.599642 L 120.798525 130.398892 L 111.198775 130.398892 Z M 111.198775 101.599642 " transform="matrix(0.998561, 0, 0, -0.998561, -7.788777, 143.992518)"/>
<path fill="none" stroke-width="0.4" stroke-linecap="butt" stroke-linejoin="round" stroke="rgb(100%, 0%, 0%)" stroke-opacity="1" stroke-miterlimit="10" d="M 127.198359 37.601308 L 136.798109 37.601308 L 136.798109 66.400558 L 127.198359 66.400558 Z M 127.198359 37.601308 " transform="matrix(0.998561, 0, 0, -0.998561, -7.788777, 143.992518)"/>
<path fill="none" stroke-width="0.4" stroke-linecap="butt" stroke-linejoin="round" stroke="rgb(100%, 0%, 0%)" stroke-opacity="1" stroke-miterlimit="10" d="M 127.198359 69.600475 L 136.798109 69.600475 L 136.798109 98.399725 L 127.198359 98.399725 Z M 127.198359 69.600475 " transform="matrix(0.998561, 0, 0, -0.998561, -7.788777, 143.992518)"/>
<path fill="none" stroke-width="0.4" stroke-linecap="butt" stroke-linejoin="round" stroke="rgb(100%, 0%, 0%)" stroke-opacity="1" stroke-miterlimit="10" d="M 127.198359 101.599642 L 136.798109 101.599642 L 136.798109 130.398892 L 127.198359 130.398892 Z M 127.198359 101.599642 " transform="matrix(0.998561, 0, 0, -0.998561, -7.788777, 143.992518)"/>
<path fill="none" stroke-width="0.4" stroke-linecap="butt" stroke-linejoin="round" stroke="rgb(100%, 0%, 0%)" stroke-opacity="1" stroke-miterlimit="10" d="M 31.200858 101.599642 L 40.800608 101.599642 L 40.800608 130.398892 L 31.200858 130.398892 Z M 31.200858 101.599642 " transform="matrix(0.998561, 0, 0, -0.998561, -7.788777, 143.992518)"/>
<g clip-path="url(#clip-8)">
<path fill="none" stroke-width="0.4" stroke-linecap="butt" stroke-linejoin="round" stroke="rgb(100%, 0%, 0%)" stroke-opacity="1" stroke-miterlimit="10" d="M 15.201274 5.598229 L 24.801024 5.598229 L 24.801024 34.401391 L 15.201274 34.401391 Z M 15.201274 5.598229 " transform="matrix(0.998561, 0, 0, -0.998561, -7.788777, 143.992518)"/>
</g>
<g clip-path="url(#clip-9)">
<path fill="none" stroke-width="0.4" stroke-linecap="butt" stroke-linejoin="round" stroke="rgb(100%, 0%, 0%)" stroke-opacity="1" stroke-miterlimit="10" d="M 31.200858 5.598229 L 40.800608 5.598229 L 40.800608 34.401391 L 31.200858 34.401391 Z M 31.200858 5.598229 " transform="matrix(0.998561, 0, 0, -0.998561, -7.788777, 143.992518)"/>
</g>
<g clip-path="url(#clip-10)">
<path fill="none" stroke-width="0.4" stroke-linecap="butt" stroke-linejoin="round" stroke="rgb(100%, 0%, 0%)" stroke-opacity="1" stroke-miterlimit="10" d="M 47.200441 5.598229 L 56.800191 5.598229 L 56.800191 34.401391 L 47.200441 34.401391 Z M 47.200441 5.598229 " transform="matrix(0.998561, 0, 0, -0.998561, -7.788777, 143.992518)"/>
</g>
<g clip-path="url(#clip-11)">
<path fill="none" stroke-width="0.4" stroke-linecap="butt" stroke-linejoin="round" stroke="rgb(100%, 0%, 0%)" stroke-opacity="1" stroke-miterlimit="10" d="M 63.200025 5.598229 L 72.799775 5.598229 L 72.799775 34.401391 L 63.200025 34.401391 Z M 63.200025 5.598229 " transform="matrix(0.998561, 0, 0, -0.998561, -7.788777, 143.992518)"/>
</g>
<g clip-path="url(#clip-12)">
<path fill="none" stroke-width="0.4" stroke-linecap="butt" stroke-linejoin="round" stroke="rgb(100%, 0%, 0%)" stroke-opacity="1" stroke-miterlimit="10" d="M 79.199608 5.598229 L 88.799358 5.598229 L 88.799358 34.401391 L 79.199608 34.401391 Z M 79.199608 5.598229 " transform="matrix(0.998561, 0, 0, -0.998561, -7.788777, 143.992518)"/>
</g>
<g clip-path="url(#clip-13)">
<path fill="none" stroke-width="0.4" stroke-linecap="butt" stroke-linejoin="round" stroke="rgb(100%, 0%, 0%)" stroke-opacity="1" stroke-miterlimit="10" d="M 95.199192 5.598229 L 104.798942 5.598229 L 104.798942 34.401391 L 95.199192 34.401391 Z M 95.199192 5.598229 " transform="matrix(0.998561, 0, 0, -0.998561, -7.788777, 143.992518)"/>
</g>
<g clip-path="url(#clip-14)">
<path fill="none" stroke-width="0.4" stroke-linecap="butt" stroke-linejoin="round" stroke="rgb(100%, 0%, 0%)" stroke-opacity="1" stroke-miterlimit="10" d="M 111.198775 5.598229 L 120.798525 5.598229 L 120.798525 34.401391 L 111.198775 34.401391 Z M 111.198775 5.598229 " transform="matrix(0.998561, 0, 0, -0.998561, -7.788777, 143.992518)"/>
</g>
<g clip-path="url(#clip-15)">
<path fill="none" stroke-width="0.4" stroke-linecap="butt" stroke-linejoin="round" stroke="rgb(100%, 0%, 0%)" stroke-opacity="1" stroke-miterlimit="10" d="M 127.198359 5.598229 L 136.798109 5.598229 L 136.798109 34.401391 L 127.198359 34.401391 Z M 127.198359 5.598229 " transform="matrix(0.998561, 0, 0, -0.998561, -7.788777, 143.992518)"/>
</g>
</svg>
