<?xml version="1.0" encoding="UTF-8"?>
<svg xmlns="http://www.w3.org/2000/svg" xmlns:xlink="http://www.w3.org/1999/xlink" width="138.8" height="138.8" viewBox="0 0 138.8 138.8">
<defs>
<clipPath id="clip-0">
<path clip-rule="nonzero" d="M 109 7 L 138.601562 7 L 138.601562 17 L 109 17 Z M 109 7 "/>
</clipPath>
<clipPath id="clip-1">
<path clip-rule="nonzero" d="M 109 23 L 138.601562 23 L 138.601562 33 L 109 33 Z M 109 23 "/>
</clipPath>
<clipPath id="clip-2">
<path clip-rule="nonzero" d="M 109 39 L 138.601562 39 L 138.601562 49 L 109 49 Z M 109 39 "/>
</clipPath>
<clipPath id="clip-3">
<path clip-rule="nonzero" d="M 109 55 L 138.601562 55 L 138.601562 65 L 109 65 Z M 109 55 "/>
</clipPath>
<clipPath id="clip-4">
<path clip-rule="nonzero" d="M 109 71 L 138.601562 71 L 138.601562 81 L 109 81 Z M 109 71 "/>
</clipPath>
<clipPath id="clip-5">
<path clip-rule="nonzero" d="M 109 87 L 138.601562 87 L 138.601562 97 L 109 97 Z M 109 87 "/>
</clipPath>
<clipPath id="clip-6">
<path clip-rule="nonzero" d="M 109 103 L 138.601562 103 L 138.601562 113 L 109 113 Z M 109 103 "/>
</clipPath>
<clipPath id="clip-7">
<path clip-rule="nonzero" d="M 109 119 L 138.601562 119 L 138.601562 129 L 109 129 Z M 109 119 "/>
</clipPath>
</defs>
<path fill-rule="evenodd" fill="rgb(0%, 0%, 100%)" fill-opacity="0.1" d="M 13.78125 7.390625 L 13.78125 16.976562 L 42.539062 16.976562 L 42.539062 7.390625 Z M 13.78125 7.390625 "/>
<path fill-rule="evenodd" fill="rgb(0%, 0%, 100%)" fill-opacity="0.1" d="M 45.734375 7.390625 L 45.734375 16.976562 L 74.492188 16.976562 L 74.492188 7.390625 Z M 45.734375 7.390625 "/>
<path fill-rule="evenodd" fill="rgb(0%, 0%, 100%)" fill-opacity="0.1" d="M 77.6875 7.390625 L 77.6875 16.976562 L 106.445312 16.976562 L 106.445312 7.390625 Z M 77.6875 7.390625 "/>
<g clip-path="url(#clip-0)">
<path fill-rule="evenodd" fill="rgb(0%, 0%, 100%)" fill-opacity="0.1" d="M 109.640625 7.390625 L 109.640625 16.976562 L 138.402344 16.976562 L 138.402344 7.390625 Z M 109.640625 7.390625 "/>
</g>
<path fill-rule="evenodd" fill="rgb(0%, 0%, 100%)" fill-opacity="0.1" d="M 13.78125 23.367188 L 13.78125 32.953125 L 42.539062 32.953125 L 42.539062 23.367188 Z M 13.78125 23.367188 "/>
<path fill-rule="evenodd" fill="rgb(0%, 0%, 100%)" fill-opacity="0.1" d="M 45.734375 23.367188 L 45.734375 32.953125 L 74.492188 32.953125 L 74.492188 23.367188 Z M 45.734375 23.367188 "/>
<path fill-rule="evenodd" fill="rgb(0%, 0%, 100%)" fill-opacity="0.1" d="M 77.6875 23.367188 L 77.6875 32.953125 L 106.445312 32.953125 L 106.445312 23.367188 Z M 77.6875 23.367188 "/>
<g clip-path="url(#clip-1)">
<path fill-rule="evenodd" fill="rgb(0%, 0%, 100%)" fill-opacity="0.1" d="M 109.640625 23.367188 L 109.640625 32.953125 L 138.402344 32.953125 L 138.402344 23.367188 Z M 109.640625 23.367188 "/>
</g>
<path fill-rule="evenodd" fill="rgb(0%, 0%, 100%)" fill-opacity="0.1" d="M 13.78125 39.34375 L 13.78125 48.929688 L 42.539062 48.929688 L 42.539062 39.34375 Z M 13.78125 39.34375 "/>
<path fill-rule="evenodd" fill="rgb(0%, 0%, 100%)" fill-opacity="0.1" d="M 45.734375 39.34375 L 45.734375 48.929688 L 74.492188 48.929688 L 74.492188 39.34375 Z M 45.734375 39.34375 "/>
<path fill-rule="evenodd" fill="rgb(0%, 0%, 100%)" fill-opacity="0.1" d="M 77.6875 39.34375 L 77.6875 48.929688 L 106.445312 48.929688 L 106.445312 39.34375 Z M 77.6875 39.34375 "/>
<g clip-path="url(#clip-2)">
<path fill-rule="evenodd" fill="rgb(0%, 0%, 100%)" fill-opacity="0.1" d="M 109.640625 39.34375 L 109.640625 48.929688 L 138.402344 48.929688 L 138.402344 39.34375 Z M 109.640625 39.34375 "/>
</g>
<path fill-rule="evenodd" fill="rgb(0%, 0%, 100%)" fill-opacity="0.1" d="M 13.78125 55.320312 L 13.78125 64.90625 L 42.539062 64.90625 L 42.539062 55.320312 Z M 13.78125 55.320312 "/>
<path fill-rule="evenodd" fill="rgb(0%, 0%, 100%)" fill-opacity="0.1" d="M 45.734375 55.320312 L 45.734375 64.90625 L 74.492188 64.90625 L 74.492188 55.320312 Z M 45.734375 55.320312 "/>
<path fill-rule="evenodd" fill="rgb(0%, 0%, 100%)" fill-opacity="0.1" d="M 77.6875 55.320312 L 77.6875 64.90625 L 106.445312 64.90625 L 106.445312 55.320312 Z M 77.6875 55.320312 "/>
<g clip-path="url(#clip-3)">
<path fill-rule="evenodd" fill="rgb(0%, 0%, 100%)" fill-opacity="0.1" d="M 109.640625 55.320312 L 109.640625 64.90625 L 138.402344 64.90625 L 138.402344 55.320312 Z M 109.640625 55.320312 "/>
</g>
<path fill-rule="evenodd" fill="rgb(0%, 0%, 100%)" fill-opacity="0.1" d="M 13.78125 71.296875 L 13.78125 80.882812 L 42.539062 80.882812 L 42.539062 71.296875 Z M 13.78125 71.296875 "/>
<path fill-rule="evenodd" fill="rgb(0%, 0%, 100%)" fill-opacity="0.1" d="M 45.734375 71.296875 L 45.734375 80.882812 L 74.492188 80.882812 L 74.492188 71.296875 Z M 45.734375 71.296875 "/>
<path fill-rule="evenodd" fill="rgb(0%, 0%, 100%)" fill-opacity="0.1" d="M 77.6875 71.296875 L 77.6875 80.882812 L 106.445312 80.882812 L 106.445312 71.296875 Z M 77.6875 71.296875 "/>
<g clip-path="url(#clip-4)">
<path fill-rule="evenodd" fill="rgb(0%, 0%, 100%)" fill-opacity="0.1" d="M 109.640625 71.296875 L 109.640625 80.882812 L 138.402344 80.882812 L 138.402344 71.296875 Z M 109.640625 71.296875 "/>
</g>
<path fill-rule="evenodd" fill="rgb(0%, 0%, 100%)" fill-opacity="0.1" d="M 13.78125 87.273438 L 13.78125 96.859375 L 42.539062 96.859375 L 42.539062 87.273438 Z M 13.78125 87.273438 "/>
<path fill-rule="evenodd" fill="rgb(0%, 0%, 100%)" fill-opacity="0.1" d="M 45.734375 87.273438 L 45.734375 96.859375 L 74.492188 96.859375 L 74.492188 87.273438 Z M 45.734375 87.273438 "/>
<path fill-rule="evenodd" fill="rgb(0%, 0%, 100%)" fill-opacity="0.1" d="M 77.6875 87.273438 L 77.6875 96.859375 L 106.445312 96.859375 L 106.445312 87.273438 Z M 77.6875 87.273438 "/>
<g clip-path="url(#clip-5)">
<path fill-rule="evenodd" fill="rgb(0%, 0%, 100%)" fill-opacity="0.1" d="M 109.640625 87.273438 L 109.640625 96.859375 L 138.402344 96.859375 L 138.402344 87.273438 Z M 109.640625 87.273438 "/>
</g>
<path fill-rule="evenodd" fill="rgb(0%, 0%, 100%)" fill-opacity="0.1" d="M 13.78125 103.25 L 13.78125 112.835938 L 42.539062 112.835938 L 42.539062 103.25 Z M 13.78125 103.25 "/>
<path fill-rule="evenodd" fill="rgb(0%, 0%, 100%)" fill-opacity="0.1" d="M 45.734375 103.25 L 45.734375 112.835938 L 74.492188 112.835938 L 74.492188 103.25 Z M 45.734375 103.25 "/>
<path fill-rule="evenodd" fill="rgb(0%, 0%, 100%)" fill-opacity="0.1" d="M 77.6875 103.25 L 77.6875 112.835938 L 106.445312 112.835938 L 106.445312 103.25 Z M 77.6875 103.25 "/>
<g clip-path="url(#clip-6)">
<path fill-rule="evenodd" fill="rgb(0%, 0%, 100%)" fill-opacity="0.1" d="M 109.640625 103.25 L 109.640625 112.835938 L 138.402344 112.835938 L 138.402344 103.25 Z M 109.640625 103.25 "/>
</g>
<path fill-rule="evenodd" fill="rgb(0%, 0%, 100%)" fill-opacity="0.1" d="M 13.78125 119.226562 L 13.78125 128.8125 L 42.539062 128.8125 L 42.539062 119.226562 Z M 13.78125 119.226562 "/>
<path fill-rule="evenodd" fill="rgb(0%, 0%, 100%)" fill-opacity="0.1" d="M 45.734375 119.226562 L 45.734375 128.8125 L 74.492188 128.8125 L 74.492188 119.226562 Z M 45.734375 119.226562 "/>
<path fill-rule="evenodd" fill="rgb(0%, 0%, 100%)" fill-opacity="0.1" d="M 77.6875 119.226562 L 77.6875 128.8125 L 106.445312 128.8125 L 106.445312 119.226562 Z M 77.6875 119.226562 "/>
<g clip-path="url(#clip-7)">
<path fill-rule="evenodd" fill="rgb(0%, 0%, 100%)" fill-opacity="0.1" d="M 109.640625 119.226562 L 109.640625 128.8125 L 138.402344 128.8125 L 138.402344 119.226562 Z M 109.640625 119.226562 "/>
</g>
</svg>
