<?xml version="1.0" encoding="UTF-8"?>
<svg xmlns="http://www.w3.org/2000/svg" xmlns:xlink="http://www.w3.org/1999/xlink" width="138.8" height="138.8" viewBox="0 0 138.8 138.8">
<path fill-rule="evenodd" fill="rgb(0%, 100%, 0%)" fill-opacity="0.3" d="M 9.386719 120.027344 L 14.976562 120.027344 L 14.976562 96.0625 L 9.386719 96.0625 Z M 9.386719 120.027344 "/>
<path fill-rule="evenodd" fill="rgb(0%, 100%, 0%)" fill-opacity="0.3" d="M 9.386719 88.074219 L 14.976562 88.074219 L 14.976562 64.109375 L 9.386719 64.109375 Z M 9.386719 88.074219 "/>
<path fill-rule="evenodd" fill="rgb(0%, 100%, 0%)" fill-opacity="0.3" d="M 9.386719 56.117188 L 14.976562 56.117188 L 14.976562 32.152344 L 9.386719 32.152344 Z M 9.386719 56.117188 "/>
<path fill-rule="evenodd" fill="rgb(0%, 100%, 0%)" fill-opacity="0.3" d="M 9.386719 24.164062 L 14.976562 24.164062 L 14.976562 0.199219 L 9.386719 0.199219 Z M 9.386719 24.164062 "/>
<path fill-rule="evenodd" fill="rgb(0%, 100%, 0%)" fill-opacity="0.3" d="M 25.363281 120.027344 L 30.957031 120.027344 L 30.957031 96.0625 L 25.363281 96.0625 Z M 25.363281 120.027344 "/>
<path fill-rule="evenodd" fill="rgb(0%, 100%, 0%)" fill-opacity="0.3" d="M 25.363281 88.074219 L 30.957031 88.074219 L 30.957031 64.109375 L 25.363281 64.109375 Z M 25.363281 88.074219 "/>
<path fill-rule="evenodd" fill="rgb(0%, 100%, 0%)" fill-opacity="0.3" d="M 25.363281 56.117188 L 30.957031 56.117188 L 30.957031 32.152344 L 25.363281 32.152344 Z M 25.363281 56.117188 "/>
<path fill-rule="evenodd" fill="rgb(0%, 100%, 0%)" fill-opacity="0.3" d="M 25.363281 24.164062 L 30.957031 24.164062 L 30.957031 0.199219 L 25.363281 0.199219 Z M 25.363281 24.164062 "/>
<path fill-rule="evenodd" fill="rgb(0%, 100%, 0%)" fill-opacity="0.3" d="M 41.339844 120.027344 L 46.933594 120.027344 L 46.933594 96.0625 L 41.339844 96.0625 Z M 41.339844 120.027344 "/>
<path fill-rule="evenodd" fill="rgb(0%, 100%, 0%)" fill-opacity="0.3" d="M 41.339844 88.074219 L 46.933594 88.074219 L 46.933594 64.109375 L 41.339844 64.109375 Z M 41.339844 88.074219 "/>
<path fill-rule="evenodd" fill="rgb(0%, 100%, 0%)" fill-opacity="0.3" d="M 41.339844 56.117188 L 46.933594 56.117188 L 46.933594 32.152344 L 41.339844 32.152344 Z M 41.339844 56.117188 "/>
<path fill-rule="evenodd" fill="rgb(0%, 100%, 0%)" fill-opacity="0.3" d="M 41.339844 24.164062 L 46.933594 24.164062 L 46.933594 0.199219 L 41.339844 0.199219 Z M 41.339844 24.164062 "/>
<path fill-rule="evenodd" fill="rgb(0%, 100%, 0%)" fill-opacity="0.3" d="M 57.316406 120.027344 L 62.910156 120.027344 L 62.910156 96.0625 L 57.316406 96.0625 Z M 57.316406 120.027344 "/>
<path fill-rule="evenodd" fill="rgb(0%, 100%, 0%)" fill-opacity="0.3" d="M 57.316406 88.074219 L 62.910156 88.074219 L 62.910156 64.109375 L 57.316406 64.109375 Z M 57.316406 88.074219 "/>
<path fill-rule="evenodd" fill="rgb(0%, 100%, 0%)" fill-opacity="0.3" d="M 57.316406 56.117188 L 62.910156 56.117188 L 62.910156 32.152344 L 57.316406 32.152344 Z M 57.316406 56.117188 "/>
<path fill-rule="evenodd" fill="rgb(0%, 100%, 0%)" fill-opacity="0.3" d="M 57.316406 24.164062 L 62.910156 24.164062 L 62.910156 0.199219 L 57.316406 0.199219 Z M 57.316406 24.164062 "/>
<path fill-rule="evenodd" fill="rgb(0%, 100%, 0%)" fill-opacity="0.3" d="M 73.292969 120.027344 L 78.886719 120.027344 L 78.886719 96.0625 L 73.292969 96.0625 Z M 73.292969 120.027344 "/>
<path fill-rule="evenodd" fill="rgb(0%, 100%, 0%)" fill-opacity="0.3" d="M 73.292969 88.074219 L 78.886719 88.074219 L 78.886719 64.109375 L 73.292969 64.109375 Z M 73.292969 88.074219 "/>
<path fill-rule="evenodd" fill="rgb(0%, 100%, 0%)" fill-opacity="0.3" d="M 73.292969 56.117188 L 78.886719 56.117188 L 78.886719 32.152344 L 73.292969 32.152344 Z M 73.292969 56.117188 "/>
<path fill-rule="evenodd" fill="rgb(0%, 100%, 0%)" fill-opacity="0.3" d="M 73.292969 24.164062 L 78.886719 24.164062 L 78.886719 0.199219 L 73.292969 0.199219 Z M 73.292969 24.164062 "/>
<path fill-rule="evenodd" fill="rgb(0%, 100%, 0%)" fill-opacity="0.3" d="M 89.269531 120.027344 L 94.863281 120.027344 L 94.863281 96.0625 L 89.269531 96.0625 Z M 89.269531 120.027344 "/>
<path fill-rule="evenodd" fill="rgb(0%, 100%, 0%)" fill-opacity="0.3" d="M 89.269531 88.074219 L 94.863281 88.074219 L 94.863281 64.109375 L 89.269531 64.109375 Z M 89.269531 88.074219 "/>
<path fill-rule="evenodd" fill="rgb(0%, 100%, 0%)" fill-opacity="0.3" d="M 89.269531 56.117188 L 94.863281 56.117188 L 94.863281 32.152344 L 89.269531 32.152344 Z M 89.269531 56.117188 "/>
<path fill-rule="evenodd" fill="rgb(0%, 100%, 0%)" fill-opacity="0.3" d="M 89.269531 24.164062 L 94.863281 24.164062 L 94.863281 0.199219 L 89.269531 0.199219 Z M 89.269531 24.164062 "/>
<path fill-rule="evenodd" fill="rgb(0%, 100%, 0%)" fill-opacity="0.3" d="M 105.25 120.027344 L 110.839844 120.027344 L 110.839844 96.0625 L 105.25 96.0625 Z M 105.25 120.027344 "/>
<path fill-rule="evenodd" fill="rgb(0%, 100%, 0%)" fill-opacity="0.3" d="M 105.25 88.074219 L 110.839844 88.074219 L 110.839844 64.109375 L 105.25 64.109375 Z M 105.25 88.074219 "/>
<path fill-rule="evenodd" fill="rgb(0%, 100%, 0%)" fill-opacity="0.3" d="M 105.25 56.117188 L 110.839844 56.117188 L 110.839844 32.152344 L 105.25 32.152344 Z M 105.25 56.117188 "/>
<path fill-rule="evenodd" fill="rgb(0%, 100%, 0%)" fill-opacity="0.3" d="M 105.25 24.164062 L 110.839844 24.164062 L 110.839844 0.199219 L 105.25 0.199219 Z M 105.25 24.164062 "/>
<path fill-rule="evenodd" fill="rgb(0%, 100%, 0%)" fill-opacity="0.3" d="M 121.226562 120.027344 L 126.816406 120.027344 L 126.816406 96.0625 L 121.226562 96.0625 Z M 121.226562 120.027344 "/>
<path fill-rule="evenodd" fill="rgb(0%, 100%, 0%)" fill-opacity="0.3" d="M 121.226562 88.074219 L 126.816406 88.074219 L 126.816406 64.109375 L 121.226562 64.109375 Z M 121.226562 88.074219 "/>
<path fill-rule="evenodd" fill="rgb(0%, 100%, 0%)" fill-opacity="0.3" d="M 121.226562 56.117188 L 126.816406 56.117188 L 126.816406 32.152344 L 121.226562 32.152344 Z M 121.226562 56.117188 "/>
<path fill-rule="evenodd" fill="rgb(0%, 100%, 0%)" fill-opacity="0.3" d="M 121.226562 24.164062 L 126.816406 24.164062 L 126.816406 0.199219 L 121.226562 0.199219 Z M 121.226562 24.164062 "/>
</svg>
