<?xml version="1.0" encoding="UTF-8"?>
<svg xmlns="http://www.w3.org/2000/svg" xmlns:xlink="http://www.w3.org/1999/xlink" width="345.4" height="352.9" viewBox="0 0 345.4 352.9">
<defs>
<clipPath id="clip-0">
<path clip-rule="nonzero" d="M 100 0.257812 L 228 0.257812 L 228 128 L 100 128 Z M 100 0.257812 "/>
</clipPath>
<clipPath id="clip-1">
<path clip-rule="nonzero" d="M 258 160 L 344.800781 160 L 344.800781 247 L 258 247 Z M 258 160 "/>
</clipPath>
<clipPath id="clip-2">
<path clip-rule="nonzero" d="M 258 159 L 344.800781 159 L 344.800781 247 L 258 247 Z M 258 159 "/>
</clipPath>
<clipPath id="clip-3">
<path clip-rule="nonzero" d="M 75 254 L 173 254 L 173 352.542969 L 75 352.542969 Z M 75 254 "/>
</clipPath>
</defs>
<path fill-rule="nonzero" fill="rgb(78.399658%, 48.599243%, 75.19989%)" fill-opacity="1" stroke-width="0.4" stroke-linecap="butt" stroke-linejoin="round" stroke="rgb(0%, 0%, 0%)" stroke-opacity="1" stroke-miterlimit="10" d="M 156.001935 264.001118 C 156.001935 231.413358 129.585032 205.000367 97.001184 205.000367 C 64.413424 205.000367 38.000433 231.413358 38.000433 264.001118 C 38.000433 296.584966 64.413424 323.001869 97.001184 323.001869 C 129.585032 323.001869 156.001935 296.584966 156.001935 264.001118 " transform="matrix(0.998266, 0, 0, -0.998266, -37.235318, 390.777688)"/>
<path fill-rule="nonzero" fill="rgb(86.199951%, 88.198853%, 17.199707%)" fill-opacity="1" stroke-width="0.4" stroke-linecap="butt" stroke-linejoin="round" stroke="rgb(0%, 0%, 0%)" stroke-opacity="1" stroke-miterlimit="10" d="M 124.00113 202.499938 C 124.00113 199.189509 121.312875 196.501254 117.998533 196.501254 C 114.688105 196.501254 111.99985 199.189509 111.99985 202.499938 C 111.99985 205.810366 114.688105 208.498621 117.998533 208.498621 C 121.312875 208.498621 124.00113 205.810366 124.00113 202.499938 " transform="matrix(0.998266, 0, 0, -0.998266, -37.235318, 390.777688)"/>
<path fill-rule="nonzero" fill="rgb(54.098511%, 22.299194%, 82.299805%)" fill-opacity="1" stroke-width="0.4" stroke-linecap="butt" stroke-linejoin="round" stroke="rgb(0%, 0%, 0%)" stroke-opacity="1" stroke-miterlimit="10" d="M 164.00018 199.498639 C 164.00018 188.178227 154.820199 178.998246 143.499786 178.998246 C 132.179374 178.998246 122.999393 188.178227 122.999393 199.498639 C 122.999393 210.819051 132.179374 219.999033 143.499786 219.999033 C 154.820199 219.999033 164.00018 210.819051 164.00018 199.498639 " transform="matrix(0.998266, 0, 0, -0.998266, -37.235318, 390.777688)"/>
<path fill-rule="nonzero" fill="rgb(19.898987%, 63.09967%, 75.999451%)" fill-opacity="1" stroke-width="0.4" stroke-linecap="butt" stroke-linejoin="round" stroke="rgb(0%, 0%, 0%)" stroke-opacity="1" stroke-miterlimit="10" d="M 214.000949 234.500743 C 214.000949 217.103386 199.898369 203.000806 182.501012 203.000806 C 165.103656 203.000806 151.001076 217.103386 151.001076 234.500743 C 151.001076 251.898099 165.103656 266.000679 182.501012 266.000679 C 199.898369 266.000679 214.000949 251.898099 214.000949 234.500743 " transform="matrix(0.998266, 0, 0, -0.998266, -37.235318, 390.777688)"/>
<path fill-rule="nonzero" fill="rgb(20.698547%, 92.89856%, 35.198975%)" fill-opacity="1" stroke-width="0.4" stroke-linecap="butt" stroke-linejoin="round" stroke="rgb(0%, 0%, 0%)" stroke-opacity="1" stroke-miterlimit="10" d="M 241.000895 221.998594 C 241.000895 213.992523 234.509169 207.500797 226.499185 207.500797 C 218.493114 207.500797 212.001388 213.992523 212.001388 221.998594 C 212.001388 230.008578 218.493114 236.500304 226.499185 236.500304 C 234.509169 236.500304 241.000895 230.008578 241.000895 221.998594 " transform="matrix(0.998266, 0, 0, -0.998266, -37.235318, 390.777688)"/>
<path fill-rule="nonzero" fill="rgb(41.499329%, 86.999512%, 49.398804%)" fill-opacity="1" stroke-width="0.4" stroke-linecap="butt" stroke-linejoin="round" stroke="rgb(0%, 0%, 0%)" stroke-opacity="1" stroke-miterlimit="10" d="M 243.000456 251.999838 C 243.000456 243.164204 235.835688 235.999435 227.000053 235.999435 C 218.164419 235.999435 210.999651 243.164204 210.999651 251.999838 C 210.999651 260.835472 218.164419 268.000241 227.000053 268.000241 C 235.835688 268.000241 243.000456 260.835472 243.000456 251.999838 " transform="matrix(0.998266, 0, 0, -0.998266, -37.235318, 390.777688)"/>
<g clip-path="url(#clip-0)">
<path fill-rule="nonzero" fill="rgb(51.298523%, 10.499573%, 3.898621%)" fill-opacity="1" stroke-width="0.4" stroke-linecap="butt" stroke-linejoin="round" stroke="rgb(0%, 0%, 0%)" stroke-opacity="1" stroke-miterlimit="10" d="M 264.999542 327.000992 C 264.999542 291.928453 236.571338 263.50025 201.4988 263.50025 C 166.430175 263.50025 137.998058 291.928453 137.998058 327.000992 C 137.998058 362.069617 166.430175 390.501733 201.4988 390.501733 C 236.571338 390.501733 264.999542 362.069617 264.999542 327.000992 " transform="matrix(0.998266, 0, 0, -0.998266, -37.235318, 390.777688)"/>
</g>
<path fill-rule="nonzero" fill="rgb(20.298767%, 25%, 26.599121%)" fill-opacity="1" stroke-width="0.4" stroke-linecap="butt" stroke-linejoin="round" stroke="rgb(0%, 0%, 0%)" stroke-opacity="1" stroke-miterlimit="10" d="M 331.998538 322.501001 C 331.998538 304.000168 316.999872 289.001503 298.49904 289.001503 C 279.998208 289.001503 264.999542 304.000168 264.999542 322.501001 C 264.999542 341.001833 279.998208 356.000499 298.49904 356.000499 C 316.999872 356.000499 331.998538 341.001833 331.998538 322.501001 " transform="matrix(0.998266, 0, 0, -0.998266, -37.235318, 390.777688)"/>
<path fill-rule="nonzero" fill="rgb(100%, 100%, 0%)" fill-opacity="1" stroke-width="0.4" stroke-linecap="butt" stroke-linejoin="round" stroke="rgb(0%, 0%, 0%)" stroke-opacity="1" stroke-miterlimit="10" d="M 372.999325 266.501548 C 372.999325 246.893327 357.104574 230.998576 337.500266 230.998576 C 317.895958 230.998576 302.001207 246.893327 302.001207 266.501548 C 302.001207 286.105856 317.895958 302.000607 337.500266 302.000607 C 357.104574 302.000607 372.999325 286.105856 372.999325 266.501548 " transform="matrix(0.998266, 0, 0, -0.998266, -37.235318, 390.777688)"/>
<path fill-rule="nonzero" fill="rgb(100%, 12.098694%, 23.498535%)" fill-opacity="1" stroke-width="0.4" stroke-linecap="butt" stroke-linejoin="round" stroke="rgb(0%, 0%, 0%)" stroke-opacity="1" stroke-miterlimit="10" d="M 140.001533 154.49873 C 140.001533 126.610525 117.392013 104.001005 89.499895 104.001005 C 61.607777 104.001005 38.998257 126.610525 38.998257 154.49873 C 38.998257 182.390848 61.607777 205.000367 89.499895 205.000367 C 117.392013 205.000367 140.001533 182.390848 140.001533 154.49873 " transform="matrix(0.998266, 0, 0, -0.998266, -37.235318, 390.777688)"/>
<path fill-rule="nonzero" fill="rgb(48.599243%, 87.799072%, 17.599487%)" fill-opacity="1" stroke-width="0.4" stroke-linecap="butt" stroke-linejoin="round" stroke="rgb(0%, 0%, 0%)" stroke-opacity="1" stroke-miterlimit="10" d="M 185.001442 192.999087 C 185.001442 186.926056 180.07493 181.999544 174.001899 181.999544 C 167.924955 181.999544 162.998443 186.926056 162.998443 192.999087 C 162.998443 199.072118 167.924955 203.99863 174.001899 203.99863 C 180.07493 203.99863 185.001442 199.072118 185.001442 192.999087 " transform="matrix(0.998266, 0, 0, -0.998266, -37.235318, 390.777688)"/>
<path fill-rule="nonzero" fill="rgb(36.399841%, 4.699707%, 96.398926%)" fill-opacity="1" stroke-width="0.4" stroke-linecap="butt" stroke-linejoin="round" stroke="rgb(0%, 0%, 0%)" stroke-opacity="1" stroke-miterlimit="10" d="M 253.999999 235.498567 C 253.999999 230.532925 249.969572 226.498585 245.000017 226.498585 C 240.030462 226.498585 236.000035 230.532925 236.000035 235.498567 C 236.000035 240.468122 240.030462 244.498549 245.000017 244.498549 C 249.969572 244.498549 253.999999 240.468122 253.999999 235.498567 " transform="matrix(0.998266, 0, 0, -0.998266, -37.235318, 390.777688)"/>
<path fill-rule="nonzero" fill="rgb(58.799744%, 86.999512%, 82.299805%)" fill-opacity="1" stroke-width="0.4" stroke-linecap="butt" stroke-linejoin="round" stroke="rgb(0%, 0%, 0%)" stroke-opacity="1" stroke-miterlimit="10" d="M 302.001207 264.498074 C 302.001207 247.656369 288.344713 233.999874 271.499094 233.999874 C 254.657389 233.999874 241.000895 247.656369 241.000895 264.498074 C 241.000895 281.343692 254.657389 295.000186 271.499094 295.000186 C 288.344713 295.000186 302.001207 281.343692 302.001207 264.498074 " transform="matrix(0.998266, 0, 0, -0.998266, -37.235318, 390.777688)"/>
<g clip-path="url(#clip-1)">
<path fill-rule="nonzero" fill="rgb(21.499634%, 63.09967%, 35.998535%)" fill-opacity="1" d="M 344.101562 203.105469 C 344.101562 226.8125 324.886719 246.027344 301.175781 246.027344 C 277.46875 246.027344 258.25 226.8125 258.25 203.105469 C 258.25 179.394531 277.46875 160.179688 301.175781 160.179688 C 324.886719 160.179688 344.101562 179.394531 344.101562 203.105469 "/>
</g>
<g clip-path="url(#clip-2)">
<path fill="none" stroke-width="0.4" stroke-linecap="butt" stroke-linejoin="round" stroke="rgb(0%, 0%, 0%)" stroke-opacity="1" stroke-miterlimit="10" d="M 381.999307 187.998228 C 381.999307 164.250014 362.751085 145.001792 338.998959 145.001792 C 315.250746 145.001792 295.99861 164.250014 295.99861 187.998228 C 295.99861 211.750354 315.250746 230.998576 338.998959 230.998576 C 362.751085 230.998576 381.999307 211.750354 381.999307 187.998228 " transform="matrix(0.998266, 0, 0, -0.998266, -37.235318, 390.777688)"/>
</g>
<path fill-rule="nonzero" fill="rgb(14.099121%, 98.399353%, 56.399536%)" fill-opacity="1" stroke-width="0.4" stroke-linecap="butt" stroke-linejoin="round" stroke="rgb(0%, 0%, 0%)" stroke-opacity="1" stroke-miterlimit="10" d="M 316.999872 231.499444 C 316.999872 223.493374 310.508146 217.001648 302.498162 217.001648 C 294.492092 217.001648 288.000366 223.493374 288.000366 231.499444 C 288.000366 239.509428 294.492092 246.001154 302.498162 246.001154 C 310.508146 246.001154 316.999872 239.509428 316.999872 231.499444 " transform="matrix(0.998266, 0, 0, -0.998266, -37.235318, 390.777688)"/>
<path fill-rule="nonzero" fill="rgb(1.098633%, 47.399902%, 77.198792%)" fill-opacity="1" stroke-width="0.4" stroke-linecap="butt" stroke-linejoin="round" stroke="rgb(0%, 0%, 0%)" stroke-opacity="1" stroke-miterlimit="10" d="M 297.998172 203.000806 C 297.998172 186.155188 284.34559 172.498694 267.499972 172.498694 C 250.654354 172.498694 237.001772 186.155188 237.001772 203.000806 C 237.001772 219.842511 250.654354 233.499006 267.499972 233.499006 C 284.34559 233.499006 297.998172 219.842511 297.998172 203.000806 " transform="matrix(0.998266, 0, 0, -0.998266, -37.235318, 390.777688)"/>
<path fill-rule="nonzero" fill="rgb(11.698914%, 51.298523%, 18.399048%)" fill-opacity="1" stroke-width="0.4" stroke-linecap="butt" stroke-linejoin="round" stroke="rgb(0%, 0%, 0%)" stroke-opacity="1" stroke-miterlimit="10" d="M 241.000895 181.498675 C 241.000895 165.482621 228.017443 152.499169 212.001388 152.499169 C 195.985333 152.499169 183.001881 165.482621 183.001881 181.498675 C 183.001881 197.51473 195.985333 210.498182 212.001388 210.498182 C 228.017443 210.498182 241.000895 197.51473 241.000895 181.498675 " transform="matrix(0.998266, 0, 0, -0.998266, -37.235318, 390.777688)"/>
<path fill-rule="nonzero" fill="rgb(36.799622%, 77.999878%, 69.799805%)" fill-opacity="1" stroke-width="0.4" stroke-linecap="butt" stroke-linejoin="round" stroke="rgb(0%, 0%, 0%)" stroke-opacity="1" stroke-miterlimit="10" d="M 187.998827 160.000458 C 187.998827 146.469181 177.030589 135.500942 163.499311 135.500942 C 149.968034 135.500942 138.999796 146.469181 138.999796 160.000458 C 138.999796 173.531735 149.968034 184.499974 163.499311 184.499974 C 177.030589 184.499974 187.998827 173.531735 187.998827 160.000458 " transform="matrix(0.998266, 0, 0, -0.998266, -37.235318, 390.777688)"/>
<path fill-rule="nonzero" fill="rgb(62.298584%, 97.198486%, 90.499878%)" fill-opacity="1" stroke-width="0.4" stroke-linecap="butt" stroke-linejoin="round" stroke="rgb(0%, 0%, 0%)" stroke-opacity="1" stroke-miterlimit="10" d="M 329.998977 111.001426 C 329.998977 77.036277 302.466858 49.500245 268.501709 49.500245 C 234.53656 49.500245 207.000528 77.036277 207.000528 111.001426 C 207.000528 144.966575 234.53656 172.498694 268.501709 172.498694 C 302.466858 172.498694 329.998977 144.966575 329.998977 111.001426 " transform="matrix(0.998266, 0, 0, -0.998266, -37.235318, 390.777688)"/>
<path fill-rule="nonzero" fill="rgb(74.499512%, 20.298767%, 99.198914%)" fill-opacity="1" stroke-width="0.4" stroke-linecap="butt" stroke-linejoin="round" stroke="rgb(0%, 0%, 0%)" stroke-opacity="1" stroke-miterlimit="10" d="M 212.999212 140.000933 C 212.999212 131.439211 206.057487 124.501399 197.499678 124.501399 C 188.941869 124.501399 182.000144 131.439211 182.000144 140.000933 C 182.000144 148.558742 188.941869 155.500467 197.499678 155.500467 C 206.057487 155.500467 212.999212 148.558742 212.999212 140.000933 " transform="matrix(0.998266, 0, 0, -0.998266, -37.235318, 390.777688)"/>
<path fill-rule="nonzero" fill="rgb(0%, 0%, 100%)" fill-opacity="1" d="M 172.402344 303.429688 C 172.402344 330.167969 150.722656 351.84375 123.984375 351.84375 C 97.246094 351.84375 75.570312 330.167969 75.570312 303.429688 C 75.570312 276.691406 97.246094 255.011719 123.984375 255.011719 C 150.722656 255.011719 172.402344 276.691406 172.402344 303.429688 "/>
<g clip-path="url(#clip-3)">
<path fill="none" stroke-width="0.4" stroke-linecap="butt" stroke-linejoin="round" stroke="rgb(0%, 0%, 0%)" stroke-opacity="1" stroke-miterlimit="10" d="M 210.001827 87.499734 C 210.001827 60.715005 188.284479 39.001571 161.49975 39.001571 C 134.715022 39.001571 113.001587 60.715005 113.001587 87.499734 C 113.001587 114.284463 134.715022 136.00181 161.49975 136.00181 C 188.284479 136.00181 210.001827 114.284463 210.001827 87.499734 " transform="matrix(0.998266, 0, 0, -0.998266, -37.235318, 390.777688)"/>
</g>
</svg>
