<?xml version="1.0" encoding="UTF-8"?>
<svg xmlns="http://www.w3.org/2000/svg" xmlns:xlink="http://www.w3.org/1999/xlink" width="243.308" height="105.91" viewBox="0 0 243.308 105.91">
<defs>
<clipPath id="clip-0">
<path clip-rule="nonzero" d="M 0 0.105469 L 79 0.105469 L 79 89 L 0 89 Z M 0 0.105469 "/>
</clipPath>
<clipPath id="clip-1">
<path clip-rule="nonzero" d="M 33 53 L 198 53 L 198 105.714844 L 33 105.714844 Z M 33 53 "/>
</clipPath>
<clipPath id="clip-2">
<path clip-rule="nonzero" d="M 173 40 L 242.617188 40 L 242.617188 90 L 173 90 Z M 173 40 "/>
</clipPath>
<clipPath id="clip-3">
<path clip-rule="nonzero" d="M 173 40 L 242.617188 40 L 242.617188 90 L 173 90 Z M 173 40 "/>
</clipPath>
</defs>
<path fill="none" stroke-width="0.8" stroke-linecap="butt" stroke-linejoin="round" stroke="rgb(0%, 0%, 0%)" stroke-opacity="1" stroke-miterlimit="10" d="M 198.001038 308.001298 L 238.0012 312.000923 " transform="matrix(0.997164, 0, 0, -0.997164, -135.709026, 377.448099)"/>
<path fill="none" stroke-width="0.8" stroke-linecap="butt" stroke-linejoin="round" stroke="rgb(0%, 0%, 0%)" stroke-opacity="1" stroke-miterlimit="10" d="M 198.001038 308.001298 L 191.999643 344.001836 " transform="matrix(0.997164, 0, 0, -0.997164, -135.709026, 377.448099)"/>
<path fill="none" stroke-width="0.8" stroke-linecap="butt" stroke-linejoin="round" stroke="rgb(0%, 0%, 0%)" stroke-opacity="1" stroke-miterlimit="10" d="M 213.999536 363.999958 C 213.999536 363.999958 213.999536 363.999958 216.334283 357.332611 C 218.665112 350.665265 223.334605 337.334489 225.332458 323.999796 C 227.334229 310.665103 226.668278 297.334327 226.331385 290.666981 C 225.998409 283.999634 225.998409 283.999634 225.998409 283.999634 " transform="matrix(0.997164, 0, 0, -0.997164, -135.709026, 377.448099)"/>
<path fill="none" stroke-width="0.8" stroke-linecap="butt" stroke-linejoin="round" stroke="rgb(0%, 0%, 0%)" stroke-opacity="1" stroke-miterlimit="10" d="M 191.999643 344.001836 C 191.999643 344.001836 191.999643 344.001836 196.998194 340.668162 C 202.000663 337.334489 212.001683 330.667143 217.666185 320.666123 C 223.334605 310.665103 224.666507 297.334327 225.332458 290.666981 C 225.998409 283.999634 225.998409 283.999634 225.998409 283.999634 " transform="matrix(0.997164, 0, 0, -0.997164, -135.709026, 377.448099)"/>
<g clip-path="url(#clip-0)">
<path fill="none" stroke-width="0.8" stroke-linecap="butt" stroke-linejoin="round" stroke="rgb(0%, 0%, 0%)" stroke-opacity="1" stroke-miterlimit="10" d="M 155.999106 290.00103 C 155.999106 290.00103 155.999106 290.00103 151.999481 298.66623 C 147.999857 307.33143 140.000608 324.665747 137.665861 338.999367 C 135.331115 353.332987 138.668705 364.665909 148.665808 371.00028 C 158.666828 377.334651 175.331277 378.666553 187.334067 376.6687 C 199.332941 374.666929 206.666238 369.331485 210.332887 366.66768 C 213.999536 363.999958 213.999536 363.999958 213.999536 363.999958 " transform="matrix(0.997164, 0, 0, -0.997164, -135.709026, 377.448099)"/>
</g>
<path fill="none" stroke-width="0.8" stroke-linecap="butt" stroke-linejoin="round" stroke="rgb(0%, 0%, 0%)" stroke-opacity="1" stroke-miterlimit="10" d="M 155.999106 290.00103 C 155.999106 290.00103 155.999106 290.00103 154.667203 295.665532 C 153.331384 301.333952 150.667579 312.666874 151.33353 323.66682 C 151.999481 334.666767 155.999106 345.333738 158.000877 350.665265 C 159.99873 356.000709 159.99873 356.000709 159.99873 356.000709 " transform="matrix(0.997164, 0, 0, -0.997164, -135.709026, 377.448099)"/>
<path fill-rule="evenodd" fill="rgb(100%, 49.798584%, 31.399536%)" fill-opacity="0.3" stroke-width="0.4" stroke-linecap="butt" stroke-linejoin="round" stroke="rgb(100%, 49.798584%, 31.399536%)" stroke-opacity="0.3" stroke-miterlimit="10" d="M 173.999374 286.667356 C 181.998623 290.00103 190.001789 294.000654 198.334014 291.665908 C 206.666238 289.331161 215.331438 280.665961 223.001629 279.001083 C 230.667902 277.332288 237.331332 282.667732 235.000502 290.999956 C 232.665756 299.332181 221.332834 310.665103 210.998838 315.667572 C 200.66876 320.666123 191.333692 319.33422 179.667794 314.668645 C 168.001896 309.999152 154.001252 301.999903 148.665808 295.332556 C 143.334281 288.66521 146.667954 283.333683 152.332457 282.001781 C 158.000877 280.665961 166.000125 283.333683 173.999374 286.667356 Z M 173.999374 286.667356 " transform="matrix(0.997164, 0, 0, -0.997164, -135.709026, 377.448099)"/>
<path fill="none" stroke-width="0.8" stroke-linecap="butt" stroke-linejoin="round" stroke="rgb(0%, 0%, 0%)" stroke-opacity="1" stroke-miterlimit="10" d="M 238.0012 312.000923 L 274.001738 327.99942 " transform="matrix(0.997164, 0, 0, -0.997164, -135.709026, 377.448099)"/>
<path fill="none" stroke-width="0.8" stroke-linecap="butt" stroke-linejoin="round" stroke="rgb(0%, 0%, 0%)" stroke-opacity="1" stroke-miterlimit="10" d="M 274.001738 327.99942 L 318.001524 330.001191 " transform="matrix(0.997164, 0, 0, -0.997164, -135.709026, 377.448099)"/>
<path fill="none" stroke-width="0.8" stroke-linecap="butt" stroke-linejoin="round" stroke="rgb(0%, 0%, 0%)" stroke-opacity="1" stroke-miterlimit="10" d="M 318.001524 330.001191 L 334.000022 298.000278 " transform="matrix(0.997164, 0, 0, -0.997164, -135.709026, 377.448099)"/>
<path fill="none" stroke-width="0.8" stroke-linecap="butt" stroke-linejoin="round" stroke="rgb(0%, 0%, 0%)" stroke-opacity="1" stroke-miterlimit="10" d="M 334.000022 298.000278 L 366.000935 327.99942 " transform="matrix(0.997164, 0, 0, -0.997164, -135.709026, 377.448099)"/>
<path fill="none" stroke-width="0.8" stroke-linecap="butt" stroke-linejoin="round" stroke="rgb(0%, 0%, 0%)" stroke-opacity="1" stroke-miterlimit="10" d="M 274.001738 327.99942 L 271.999967 298.000278 " transform="matrix(0.997164, 0, 0, -0.997164, -135.709026, 377.448099)"/>
<path fill="none" stroke-width="0.8" stroke-linecap="butt" stroke-linejoin="round" stroke="rgb(0%, 0%, 0%)" stroke-opacity="1" stroke-miterlimit="10" d="M 191.999643 344.001836 L 169.99975 323.999796 " transform="matrix(0.997164, 0, 0, -0.997164, -135.709026, 377.448099)"/>
<path fill="none" stroke-width="0.8" stroke-linecap="butt" stroke-linejoin="round" stroke="rgb(0%, 0%, 0%)" stroke-opacity="1" stroke-miterlimit="10" d="M 155.999106 290.00103 L 198.001038 308.001298 " transform="matrix(0.997164, 0, 0, -0.997164, -135.709026, 377.448099)"/>
<path fill="none" stroke-width="0.8" stroke-linecap="butt" stroke-linejoin="round" stroke="rgb(0%, 0%, 0%)" stroke-opacity="1" stroke-miterlimit="10" d="M 159.99873 356.000709 L 191.999643 344.001836 " transform="matrix(0.997164, 0, 0, -0.997164, -135.709026, 377.448099)"/>
<path fill="none" stroke-width="0.8" stroke-linecap="butt" stroke-linejoin="round" stroke="rgb(0%, 0%, 0%)" stroke-opacity="1" stroke-miterlimit="10" d="M 159.99873 356.000709 L 169.99975 323.999796 " transform="matrix(0.997164, 0, 0, -0.997164, -135.709026, 377.448099)"/>
<path fill="none" stroke-width="0.8" stroke-linecap="butt" stroke-linejoin="round" stroke="rgb(0%, 0%, 0%)" stroke-opacity="1" stroke-miterlimit="10" d="M 191.999643 344.001836 L 213.999536 363.999958 " transform="matrix(0.997164, 0, 0, -0.997164, -135.709026, 377.448099)"/>
<path fill="none" stroke-width="0.8" stroke-linecap="butt" stroke-linejoin="round" stroke="rgb(0%, 0%, 0%)" stroke-opacity="1" stroke-miterlimit="10" d="M 213.999536 363.999958 L 243.998678 352.001085 " transform="matrix(0.997164, 0, 0, -0.997164, -135.709026, 377.448099)"/>
<path fill="none" stroke-width="0.8" stroke-linecap="butt" stroke-linejoin="round" stroke="rgb(0%, 0%, 0%)" stroke-opacity="1" stroke-miterlimit="10" d="M 243.998678 352.001085 L 238.0012 312.000923 " transform="matrix(0.997164, 0, 0, -0.997164, -135.709026, 377.448099)"/>
<path fill="none" stroke-width="0.8" stroke-linecap="butt" stroke-linejoin="round" stroke="rgb(0%, 0%, 0%)" stroke-opacity="1" stroke-miterlimit="10" d="M 225.998409 283.999634 L 198.001038 308.001298 " transform="matrix(0.997164, 0, 0, -0.997164, -135.709026, 377.448099)"/>
<path fill="none" stroke-width="0.8" stroke-linecap="butt" stroke-linejoin="round" stroke="rgb(0%, 0%, 0%)" stroke-opacity="1" stroke-miterlimit="10" d="M 225.998409 283.999634 L 271.999967 298.000278 " transform="matrix(0.997164, 0, 0, -0.997164, -135.709026, 377.448099)"/>
<path fill="none" stroke-width="0.8" stroke-linecap="butt" stroke-linejoin="round" stroke="rgb(0%, 0%, 0%)" stroke-opacity="1" stroke-miterlimit="10" d="M 243.998678 352.001085 L 296.001631 353.998938 " transform="matrix(0.997164, 0, 0, -0.997164, -135.709026, 377.448099)"/>
<path fill="none" stroke-width="0.8" stroke-linecap="butt" stroke-linejoin="round" stroke="rgb(0%, 0%, 0%)" stroke-opacity="1" stroke-miterlimit="10" d="M 296.001631 353.998938 L 352.00029 352.001085 " transform="matrix(0.997164, 0, 0, -0.997164, -135.709026, 377.448099)"/>
<path fill="none" stroke-width="0.8" stroke-linecap="butt" stroke-linejoin="round" stroke="rgb(0%, 0%, 0%)" stroke-opacity="1" stroke-miterlimit="10" d="M 352.00029 352.001085 L 366.000935 327.99942 " transform="matrix(0.997164, 0, 0, -0.997164, -135.709026, 377.448099)"/>
<path fill="none" stroke-width="0.8" stroke-linecap="butt" stroke-linejoin="round" stroke="rgb(0%, 0%, 0%)" stroke-opacity="1" stroke-miterlimit="10" d="M 274.001738 327.99942 L 296.001631 353.998938 " transform="matrix(0.997164, 0, 0, -0.997164, -135.709026, 377.448099)"/>
<path fill="none" stroke-width="0.8" stroke-linecap="butt" stroke-linejoin="round" stroke="rgb(0%, 0%, 0%)" stroke-opacity="1" stroke-miterlimit="10" d="M 366.000935 327.99942 L 318.001524 330.001191 " transform="matrix(0.997164, 0, 0, -0.997164, -135.709026, 377.448099)"/>
<path fill="none" stroke-width="0.8" stroke-linecap="butt" stroke-linejoin="round" stroke="rgb(0%, 0%, 0%)" stroke-opacity="1" stroke-miterlimit="10" d="M 296.001631 353.998938 C 296.001631 353.998938 296.001631 353.998938 296.001631 348.00146 C 296.001631 342.000065 296.001631 330.001191 302.332084 320.666123 C 308.666455 311.331054 321.33128 304.667625 327.665651 301.333952 C 334.000022 298.000278 334.000022 298.000278 334.000022 298.000278 " transform="matrix(0.997164, 0, 0, -0.997164, -135.709026, 377.448099)"/>
<path fill="none" stroke-width="0.8" stroke-linecap="butt" stroke-linejoin="round" stroke="rgb(0%, 0%, 0%)" stroke-opacity="1" stroke-miterlimit="10" d="M 274.001738 327.99942 L 352.00029 352.001085 " transform="matrix(0.997164, 0, 0, -0.997164, -135.709026, 377.448099)"/>
<path fill="none" stroke-width="0.8" stroke-linecap="butt" stroke-linejoin="round" stroke="rgb(0%, 0%, 0%)" stroke-opacity="1" stroke-miterlimit="10" d="M 243.998678 352.001085 L 271.999967 298.000278 " transform="matrix(0.997164, 0, 0, -0.997164, -135.709026, 377.448099)"/>
<path fill="none" stroke-width="0.8" stroke-linecap="butt" stroke-linejoin="round" stroke="rgb(0%, 0%, 0%)" stroke-opacity="1" stroke-miterlimit="10" d="M 169.99975 323.999796 C 169.99975 323.999796 169.99975 323.999796 178.331974 323.999796 C 186.668116 323.999796 203.332565 323.999796 217.000234 324.665747 C 230.667902 325.331698 241.334873 326.667518 253.999698 331.666069 C 266.66844 336.668538 281.331118 345.333738 288.668333 349.666338 C 296.001631 353.998938 296.001631 353.998938 296.001631 353.998938 " transform="matrix(0.997164, 0, 0, -0.997164, -135.709026, 377.448099)"/>
<g clip-path="url(#clip-1)">
<path fill="none" stroke-width="0.8" stroke-linecap="butt" stroke-linejoin="round" stroke="rgb(0%, 0%, 0%)" stroke-opacity="1" stroke-miterlimit="10" d="M 169.99975 323.999796 C 169.99975 323.999796 169.99975 323.999796 172.001521 316.333523 C 173.999374 308.667249 177.998999 293.334703 191.666667 283.999634 C 205.334336 274.668483 228.666132 271.33481 253.999698 274.668483 C 279.333264 277.998239 306.668602 287.999259 320.332353 293.001727 C 334.000022 298.000278 334.000022 298.000278 334.000022 298.000278 " transform="matrix(0.997164, 0, 0, -0.997164, -135.709026, 377.448099)"/>
</g>
<path fill-rule="evenodd" fill="rgb(67.799377%, 84.698486%, 90.19928%)" fill-opacity="0.3" stroke-width="0.4" stroke-linecap="butt" stroke-linejoin="round" stroke="rgb(67.799377%, 84.698486%, 90.19928%)" stroke-opacity="0.3" stroke-miterlimit="10" d="M 349.665544 363.001031 C 342.665222 362.668056 333.33407 359.334382 326.999699 356.333685 C 320.665329 353.332987 317.331655 350.665265 313.332031 348.00146 C 309.332406 345.333738 304.666831 342.666016 300.001255 341.001138 C 295.331762 339.332343 290.666187 338.666391 286.333586 338.333416 C 282.000986 338.00044 278.001362 338.00044 274.667689 337.667465 C 271.334015 337.334489 268.666293 336.668538 266.331547 334.999743 C 264.000718 333.334865 261.998947 330.667143 260.667044 327.000494 C 259.331225 323.333845 258.665274 318.668269 258.665274 313.998776 C 258.665274 309.333201 259.331225 304.667625 260.001093 300.331108 C 260.667044 295.998508 261.332996 291.998883 263.667742 289.668054 C 265.998571 287.333307 269.998196 286.667356 274.001738 287.000332 C 278.001362 287.333307 282.000986 288.66521 284.331816 290.666981 C 286.666562 292.668752 287.332513 295.332556 286.666562 299.332181 C 286.000611 303.331805 283.99884 308.667249 283.665864 312.999849 C 283.332889 317.33245 284.668709 320.666123 290.000235 323.999796 C 295.331762 327.333469 304.666831 330.667143 315.333802 333.66784 C 326.000773 336.668538 337.999646 339.332343 347.334715 341.667089 C 356.665866 344.001836 363.333212 345.999689 365.667959 348.334436 C 367.998788 350.665265 366.000935 353.332987 365.331066 355.001782 C 364.665115 356.66666 365.331066 357.332611 363.333212 359.001407 C 361.331442 360.666285 356.665866 363.334007 349.665544 363.001031 Z M 349.665544 363.001031 " transform="matrix(0.997164, 0, 0, -0.997164, -135.709026, 377.448099)"/>
<path fill-rule="evenodd" fill="rgb(93.299866%, 50.999451%, 93.299866%)" fill-opacity="0.3" stroke-width="0.4" stroke-linecap="butt" stroke-linejoin="round" stroke="rgb(93.299866%, 50.999451%, 93.299866%)" stroke-opacity="0.3" stroke-miterlimit="10" d="M 198.66699 346.66564 C 203.332565 340.668162 198.66699 335.332718 192.99857 330.334167 C 187.334067 325.331698 180.666721 320.666123 173.999374 317.998401 C 167.332028 315.334596 160.668599 314.668645 156.332081 323.000869 C 151.999481 331.333094 150.001628 348.667411 151.999481 357.332611 C 154.001252 366.001729 159.99873 366.001729 169.99975 362.668056 C 180.00077 359.334382 194.001414 352.667036 198.66699 346.66564 Z M 198.66699 346.66564 " transform="matrix(0.997164, 0, 0, -0.997164, -135.709026, 377.448099)"/>
<path fill-rule="evenodd" fill="rgb(56.498718%, 93.299866%, 56.498718%)" fill-opacity="0.3" stroke-width="0.4" stroke-linecap="butt" stroke-linejoin="round" stroke="rgb(56.498718%, 93.299866%, 56.498718%)" stroke-opacity="0.3" stroke-miterlimit="10" d="M 250.333049 366.334704 C 265.998571 364.665909 286.000611 365.33186 296.334606 361.665211 C 306.668602 357.998563 307.334553 349.999314 301.999109 345.999689 C 296.667582 342.000065 285.33466 342.000065 276.332567 341.667089 C 267.334391 341.334114 260.667044 340.668162 256.66742 335.332718 C 252.667796 330.001191 251.331976 320.000172 248.668171 312.999849 C 246.000449 305.999527 242.000825 301.999903 237.331332 301.999903 C 232.665756 301.999903 227.334229 305.999527 225.665434 312.000923 C 224.000556 317.998401 225.998409 326.001567 227.334229 331.999045 C 228.666132 338.00044 229.332083 342.000065 225.665434 345.333738 C 221.998785 348.667411 213.999536 351.331216 208.331116 355.334758 C 202.666614 359.334382 199.332941 364.665909 200.331867 368.332558 C 201.334712 371.999207 206.666238 374.000978 214.998463 372.998134 C 223.334605 371.999207 234.667527 367.999582 250.333049 366.334704 Z M 250.333049 366.334704 " transform="matrix(0.997164, 0, 0, -0.997164, -135.709026, 377.448099)"/>
<g clip-path="url(#clip-2)">
<path fill-rule="evenodd" fill="rgb(100%, 60.099792%, 60.099792%)" fill-opacity="0.3" stroke-width="0.4" stroke-linecap="butt" stroke-linejoin="round" stroke="rgb(100%, 60.099792%, 60.099792%)" stroke-opacity="0.3" stroke-miterlimit="10" d="M 362.334286 309.000225 C 370.66651 316.000547 377.333857 322.001943 378.665759 327.000494 C 380.001579 331.999045 376.001954 335.998669 369.001632 337.334489 C 362.00131 338.666391 352.00029 337.334489 341.666295 336.668538 C 331.3323 335.998669 320.665329 335.998669 315.000826 331.999045 C 309.332406 327.99942 308.666455 320.000172 312.000128 312.333898 C 315.333802 304.667625 322.667099 297.334327 326.999699 293.001727 C 331.3323 288.66521 332.668119 287.333307 338.332622 290.666981 C 344.001041 294.000654 353.998144 301.999903 362.334286 309.000225 Z M 362.334286 309.000225 " transform="matrix(0.997164, 0, 0, -0.997164, -135.709026, 377.448099)"/>
</g>
<path fill="none" stroke-width="2" stroke-linecap="round" stroke-linejoin="round" stroke="rgb(100%, 49.798584%, 31.399536%)" stroke-opacity="0.5" stroke-miterlimit="10" d="M 225.998409 283.999634 L 198.001038 308.001298 " transform="matrix(0.997164, 0, 0, -0.997164, -135.709026, 377.448099)"/>
<path fill="none" stroke-width="2" stroke-linecap="round" stroke-linejoin="round" stroke="rgb(62.69989%, 12.5%, 94.099426%)" stroke-opacity="0.5" stroke-miterlimit="10" d="M 159.99873 356.000709 L 169.99975 323.999796 " transform="matrix(0.997164, 0, 0, -0.997164, -135.709026, 377.448099)"/>
<path fill="none" stroke-width="2" stroke-linecap="round" stroke-linejoin="round" stroke="rgb(62.69989%, 12.5%, 94.099426%)" stroke-opacity="0.5" stroke-miterlimit="10" d="M 159.99873 356.000709 L 191.999643 344.001836 " transform="matrix(0.997164, 0, 0, -0.997164, -135.709026, 377.448099)"/>
<path fill="none" stroke-width="2" stroke-linecap="round" stroke-linejoin="round" stroke="rgb(0%, 39.199829%, 0%)" stroke-opacity="0.5" stroke-miterlimit="10" d="M 213.999536 363.999958 L 243.998678 352.001085 " transform="matrix(0.997164, 0, 0, -0.997164, -135.709026, 377.448099)"/>
<path fill="none" stroke-width="2" stroke-linecap="round" stroke-linejoin="round" stroke="rgb(0%, 39.199829%, 0%)" stroke-opacity="0.5" stroke-miterlimit="10" d="M 243.998678 352.001085 L 238.0012 312.000923 " transform="matrix(0.997164, 0, 0, -0.997164, -135.709026, 377.448099)"/>
<path fill="none" stroke-width="2" stroke-linecap="round" stroke-linejoin="round" stroke="rgb(0%, 39.199829%, 0%)" stroke-opacity="0.5" stroke-miterlimit="10" d="M 243.998678 352.001085 L 296.001631 353.998938 " transform="matrix(0.997164, 0, 0, -0.997164, -135.709026, 377.448099)"/>
<path fill="none" stroke-width="2" stroke-linecap="round" stroke-linejoin="round" stroke="rgb(0%, 0%, 54.499817%)" stroke-opacity="0.5" stroke-miterlimit="10" d="M 274.001738 327.99942 L 352.00029 352.001085 " transform="matrix(0.997164, 0, 0, -0.997164, -135.709026, 377.448099)"/>
<path fill="none" stroke-width="2" stroke-linecap="round" stroke-linejoin="round" stroke="rgb(0%, 0%, 54.499817%)" stroke-opacity="0.5" stroke-miterlimit="10" d="M 274.001738 327.99942 L 271.999967 298.000278 " transform="matrix(0.997164, 0, 0, -0.997164, -135.709026, 377.448099)"/>
<path fill="none" stroke-width="2" stroke-linecap="round" stroke-linejoin="round" stroke="rgb(54.499817%, 0%, 0%)" stroke-opacity="0.5" stroke-miterlimit="10" d="M 366.000935 327.99942 L 318.001524 330.001191 " transform="matrix(0.997164, 0, 0, -0.997164, -135.709026, 377.448099)"/>
<path fill="none" stroke-width="2" stroke-linecap="round" stroke-linejoin="round" stroke="rgb(54.499817%, 0%, 0%)" stroke-opacity="0.5" stroke-miterlimit="10" d="M 334.000022 298.000278 L 366.000935 327.99942 " transform="matrix(0.997164, 0, 0, -0.997164, -135.709026, 377.448099)"/>
<path fill="none" stroke-width="2" stroke-linecap="round" stroke-linejoin="round" stroke="rgb(100%, 49.798584%, 31.399536%)" stroke-opacity="0.5" stroke-miterlimit="10" d="M 155.999106 290.00103 L 198.001038 308.001298 " transform="matrix(0.997164, 0, 0, -0.997164, -135.709026, 377.448099)"/>
<path fill-rule="evenodd" fill="rgb(100%, 100%, 0%)" fill-opacity="1" d="M 64.222656 70.320312 C 64.222656 68.945312 63.105469 67.828125 61.730469 67.828125 C 60.351562 67.828125 59.238281 68.945312 59.238281 70.320312 C 59.238281 71.699219 60.351562 72.816406 61.730469 72.816406 C 63.105469 72.816406 64.222656 71.699219 64.222656 70.320312 "/>
<path fill-rule="evenodd" fill="rgb(54.499817%, 0%, 54.499817%)" fill-opacity="1" d="M 64.722656 70.320312 C 64.722656 68.667969 63.382812 67.332031 61.730469 67.332031 C 60.078125 67.332031 58.738281 68.667969 58.738281 70.320312 C 58.738281 71.972656 60.078125 73.3125 61.730469 73.3125 C 63.382812 73.3125 64.722656 71.972656 64.722656 70.320312 M 63.722656 70.320312 C 63.722656 69.21875 62.832031 68.328125 61.730469 68.328125 C 60.628906 68.328125 59.734375 69.21875 59.734375 70.320312 C 59.734375 71.421875 60.628906 72.316406 61.730469 72.316406 C 62.832031 72.316406 63.722656 71.421875 63.722656 70.320312 "/>
<path fill-rule="evenodd" fill="rgb(100%, 100%, 0%)" fill-opacity="1" d="M 110.09375 26.445312 C 110.09375 25.070312 108.976562 23.953125 107.597656 23.953125 C 106.222656 23.953125 105.105469 25.070312 105.105469 26.445312 C 105.105469 27.824219 106.222656 28.9375 107.597656 28.9375 C 108.976562 28.9375 110.09375 27.824219 110.09375 26.445312 "/>
<path fill-rule="evenodd" fill="rgb(54.499817%, 0%, 54.499817%)" fill-opacity="1" d="M 110.589844 26.445312 C 110.589844 24.792969 109.25 23.453125 107.597656 23.453125 C 105.945312 23.453125 104.609375 24.792969 104.609375 26.445312 C 104.609375 28.097656 105.945312 29.4375 107.597656 29.4375 C 109.25 29.4375 110.589844 28.097656 110.589844 26.445312 M 109.59375 26.445312 C 109.59375 25.34375 108.699219 24.453125 107.597656 24.453125 C 106.496094 24.453125 105.605469 25.34375 105.605469 26.445312 C 105.605469 27.546875 106.496094 28.441406 107.597656 28.441406 C 108.699219 28.441406 109.59375 27.546875 109.59375 26.445312 "/>
<path fill-rule="evenodd" fill="rgb(100%, 100%, 0%)" fill-opacity="1" d="M 104.109375 66.332031 C 104.109375 64.957031 102.992188 63.839844 101.617188 63.839844 C 100.238281 63.839844 99.125 64.957031 99.125 66.332031 C 99.125 67.710938 100.238281 68.824219 101.617188 68.824219 C 102.992188 68.824219 104.109375 67.710938 104.109375 66.332031 "/>
<path fill-rule="evenodd" fill="rgb(54.499817%, 0%, 54.499817%)" fill-opacity="1" d="M 104.609375 66.332031 C 104.609375 64.679688 103.269531 63.339844 101.617188 63.339844 C 99.964844 63.339844 98.625 64.679688 98.625 66.332031 C 98.625 67.984375 99.964844 69.324219 101.617188 69.324219 C 103.269531 69.324219 104.609375 67.984375 104.609375 66.332031 M 103.609375 66.332031 C 103.609375 65.230469 102.71875 64.339844 101.617188 64.339844 C 100.515625 64.339844 99.621094 65.230469 99.621094 66.332031 C 99.621094 67.433594 100.515625 68.328125 101.617188 68.328125 C 102.71875 68.328125 103.609375 67.433594 103.609375 66.332031 "/>
<path fill-rule="evenodd" fill="rgb(100%, 100%, 0%)" fill-opacity="1" d="M 138.011719 80.292969 C 138.011719 78.917969 136.898438 77.800781 135.519531 77.800781 C 134.140625 77.800781 133.027344 78.917969 133.027344 80.292969 C 133.027344 81.671875 134.140625 82.785156 135.519531 82.785156 C 136.898438 82.785156 138.011719 81.671875 138.011719 80.292969 "/>
<path fill-rule="evenodd" fill="rgb(54.499817%, 0%, 54.499817%)" fill-opacity="1" d="M 138.511719 80.292969 C 138.511719 78.640625 137.171875 77.300781 135.519531 77.300781 C 133.867188 77.300781 132.527344 78.640625 132.527344 80.292969 C 132.527344 81.945312 133.867188 83.285156 135.519531 83.285156 C 137.171875 83.285156 138.511719 81.945312 138.511719 80.292969 M 137.515625 80.292969 C 137.515625 79.191406 136.621094 78.300781 135.519531 78.300781 C 134.417969 78.300781 133.523438 79.191406 133.523438 80.292969 C 133.523438 81.394531 134.417969 82.289062 135.519531 82.289062 C 136.621094 82.289062 137.515625 81.394531 137.515625 80.292969 "/>
<path fill-rule="evenodd" fill="rgb(100%, 100%, 0%)" fill-opacity="1" d="M 140.007812 50.378906 C 140.007812 49 138.890625 47.886719 137.515625 47.886719 C 136.136719 47.886719 135.019531 49 135.019531 50.378906 C 135.019531 51.753906 136.136719 52.871094 137.515625 52.871094 C 138.890625 52.871094 140.007812 51.753906 140.007812 50.378906 "/>
<path fill-rule="evenodd" fill="rgb(54.499817%, 0%, 54.499817%)" fill-opacity="1" d="M 140.503906 50.378906 C 140.503906 48.726562 139.167969 47.386719 137.515625 47.386719 C 135.863281 47.386719 134.523438 48.726562 134.523438 50.378906 C 134.523438 52.03125 135.863281 53.371094 137.515625 53.371094 C 139.167969 53.371094 140.503906 52.03125 140.503906 50.378906 M 139.507812 50.378906 C 139.507812 49.277344 138.617188 48.382812 137.515625 48.382812 C 136.410156 48.382812 135.519531 49.277344 135.519531 50.378906 C 135.519531 51.480469 136.410156 52.371094 137.515625 52.371094 C 138.617188 52.371094 139.507812 51.480469 139.507812 50.378906 "/>
<path fill-rule="evenodd" fill="rgb(100%, 100%, 0%)" fill-opacity="1" d="M 161.945312 24.453125 C 161.945312 23.074219 160.828125 21.960938 159.453125 21.960938 C 158.074219 21.960938 156.957031 23.074219 156.957031 24.453125 C 156.957031 25.828125 158.074219 26.945312 159.453125 26.945312 C 160.828125 26.945312 161.945312 25.828125 161.945312 24.453125 "/>
<path fill-rule="evenodd" fill="rgb(54.499817%, 0%, 54.499817%)" fill-opacity="1" d="M 162.441406 24.453125 C 162.441406 22.800781 161.105469 21.460938 159.453125 21.460938 C 157.800781 21.460938 156.460938 22.800781 156.460938 24.453125 C 156.460938 26.105469 157.800781 27.445312 159.453125 27.445312 C 161.105469 27.445312 162.441406 26.105469 162.441406 24.453125 M 161.445312 24.453125 C 161.445312 23.351562 160.554688 22.457031 159.453125 22.457031 C 158.351562 22.457031 157.457031 23.351562 157.457031 24.453125 C 157.457031 25.554688 158.351562 26.445312 159.453125 26.445312 C 160.554688 26.445312 161.445312 25.554688 161.445312 24.453125 "/>
<path fill-rule="evenodd" fill="rgb(100%, 100%, 0%)" fill-opacity="1" d="M 183.882812 48.382812 C 183.882812 47.007812 182.765625 45.890625 181.390625 45.890625 C 180.011719 45.890625 178.894531 47.007812 178.894531 48.382812 C 178.894531 49.761719 180.011719 50.875 181.390625 50.875 C 182.765625 50.875 183.882812 49.761719 183.882812 48.382812 "/>
<path fill-rule="evenodd" fill="rgb(54.499817%, 0%, 54.499817%)" fill-opacity="1" d="M 184.378906 48.382812 C 184.378906 46.730469 183.042969 45.390625 181.390625 45.390625 C 179.738281 45.390625 178.398438 46.730469 178.398438 48.382812 C 178.398438 50.035156 179.738281 51.375 181.390625 51.375 C 183.042969 51.375 184.378906 50.035156 184.378906 48.382812 M 183.382812 48.382812 C 183.382812 47.28125 182.492188 46.390625 181.390625 46.390625 C 180.289062 46.390625 179.394531 47.28125 179.394531 48.382812 C 179.394531 49.484375 180.289062 50.378906 181.390625 50.378906 C 182.492188 50.378906 183.382812 49.484375 183.382812 48.382812 "/>
<path fill-rule="evenodd" fill="rgb(100%, 100%, 0%)" fill-opacity="1" d="M 199.835938 80.292969 C 199.835938 78.917969 198.722656 77.800781 197.34375 77.800781 C 195.964844 77.800781 194.851562 78.917969 194.851562 80.292969 C 194.851562 81.671875 195.964844 82.785156 197.34375 82.785156 C 198.722656 82.785156 199.835938 81.671875 199.835938 80.292969 "/>
<path fill-rule="evenodd" fill="rgb(54.499817%, 0%, 54.499817%)" fill-opacity="1" d="M 200.335938 80.292969 C 200.335938 78.640625 198.996094 77.300781 197.34375 77.300781 C 195.691406 77.300781 194.351562 78.640625 194.351562 80.292969 C 194.351562 81.945312 195.691406 83.285156 197.34375 83.285156 C 198.996094 83.285156 200.335938 81.945312 200.335938 80.292969 M 199.339844 80.292969 C 199.339844 79.191406 198.445312 78.300781 197.34375 78.300781 C 196.242188 78.300781 195.347656 79.191406 195.347656 80.292969 C 195.347656 81.394531 196.242188 82.289062 197.34375 82.289062 C 198.445312 82.289062 199.339844 81.394531 199.339844 80.292969 "/>
<path fill-rule="evenodd" fill="rgb(100%, 100%, 0%)" fill-opacity="1" d="M 217.785156 26.445312 C 217.785156 25.070312 216.667969 23.953125 215.292969 23.953125 C 213.914062 23.953125 212.800781 25.070312 212.800781 26.445312 C 212.800781 27.824219 213.914062 28.9375 215.292969 28.9375 C 216.667969 28.9375 217.785156 27.824219 217.785156 26.445312 "/>
<path fill-rule="evenodd" fill="rgb(54.499817%, 0%, 54.499817%)" fill-opacity="1" d="M 218.285156 26.445312 C 218.285156 24.792969 216.945312 23.453125 215.292969 23.453125 C 213.640625 23.453125 212.300781 24.792969 212.300781 26.445312 C 212.300781 28.097656 213.640625 29.4375 215.292969 29.4375 C 216.945312 29.4375 218.285156 28.097656 218.285156 26.445312 M 217.285156 26.445312 C 217.285156 25.34375 216.394531 24.453125 215.292969 24.453125 C 214.191406 24.453125 213.296875 25.34375 213.296875 26.445312 C 213.296875 27.546875 214.191406 28.441406 215.292969 28.441406 C 216.394531 28.441406 217.285156 27.546875 217.285156 26.445312 "/>
<path fill-rule="evenodd" fill="rgb(100%, 100%, 0%)" fill-opacity="1" d="M 231.746094 50.378906 C 231.746094 49 230.628906 47.886719 229.253906 47.886719 C 227.875 47.886719 226.761719 49 226.761719 50.378906 C 226.761719 51.753906 227.875 52.871094 229.253906 52.871094 C 230.628906 52.871094 231.746094 51.753906 231.746094 50.378906 "/>
<path fill-rule="evenodd" fill="rgb(54.499817%, 0%, 54.499817%)" fill-opacity="1" d="M 232.246094 50.378906 C 232.246094 48.726562 230.90625 47.386719 229.253906 47.386719 C 227.601562 47.386719 226.261719 48.726562 226.261719 50.378906 C 226.261719 52.03125 227.601562 53.371094 229.253906 53.371094 C 230.90625 53.371094 232.246094 52.03125 232.246094 50.378906 M 231.246094 50.378906 C 231.246094 49.277344 230.355469 48.382812 229.253906 48.382812 C 228.152344 48.382812 227.257812 49.277344 227.257812 50.378906 C 227.257812 51.480469 228.152344 52.371094 229.253906 52.371094 C 230.355469 52.371094 231.246094 51.480469 231.246094 50.378906 "/>
<path fill-rule="evenodd" fill="rgb(100%, 100%, 0%)" fill-opacity="1" d="M 36.300781 54.367188 C 36.300781 52.988281 35.1875 51.875 33.808594 51.875 C 32.433594 51.875 31.316406 52.988281 31.316406 54.367188 C 31.316406 55.742188 32.433594 56.859375 33.808594 56.859375 C 35.1875 56.859375 36.300781 55.742188 36.300781 54.367188 "/>
<path fill-rule="evenodd" fill="rgb(54.499817%, 0%, 54.499817%)" fill-opacity="1" d="M 36.800781 54.367188 C 36.800781 52.714844 35.460938 51.375 33.808594 51.375 C 32.15625 51.375 30.816406 52.714844 30.816406 54.367188 C 30.816406 56.019531 32.15625 57.359375 33.808594 57.359375 C 35.460938 57.359375 36.800781 56.019531 36.800781 54.367188 M 35.804688 54.367188 C 35.804688 53.265625 34.910156 52.371094 33.808594 52.371094 C 32.707031 52.371094 31.816406 53.265625 31.816406 54.367188 C 31.816406 55.46875 32.707031 56.359375 33.808594 56.359375 C 34.910156 56.359375 35.804688 55.46875 35.804688 54.367188 "/>
<path fill-rule="evenodd" fill="rgb(100%, 100%, 0%)" fill-opacity="1" d="M 80.175781 14.480469 C 80.175781 13.101562 79.0625 11.988281 77.683594 11.988281 C 76.308594 11.988281 75.191406 13.101562 75.191406 14.480469 C 75.191406 15.859375 76.308594 16.972656 77.683594 16.972656 C 79.0625 16.972656 80.175781 15.859375 80.175781 14.480469 "/>
<path fill-rule="evenodd" fill="rgb(54.499817%, 0%, 54.499817%)" fill-opacity="1" d="M 80.675781 14.480469 C 80.675781 12.828125 79.335938 11.488281 77.683594 11.488281 C 76.03125 11.488281 74.691406 12.828125 74.691406 14.480469 C 74.691406 16.132812 76.03125 17.472656 77.683594 17.472656 C 79.335938 17.472656 80.675781 16.132812 80.675781 14.480469 M 79.679688 14.480469 C 79.679688 13.378906 78.785156 12.484375 77.683594 12.484375 C 76.582031 12.484375 75.691406 13.378906 75.691406 14.480469 C 75.691406 15.582031 76.582031 16.476562 77.683594 16.476562 C 78.785156 16.476562 79.679688 15.582031 79.679688 14.480469 "/>
<path fill-rule="evenodd" fill="rgb(100%, 100%, 0%)" fill-opacity="1" d="M 26.332031 22.457031 C 26.332031 21.082031 25.214844 19.964844 23.835938 19.964844 C 22.460938 19.964844 21.34375 21.082031 21.34375 22.457031 C 21.34375 23.835938 22.460938 24.949219 23.835938 24.949219 C 25.214844 24.949219 26.332031 23.835938 26.332031 22.457031 "/>
<path fill-rule="evenodd" fill="rgb(54.499817%, 0%, 54.499817%)" fill-opacity="1" d="M 26.828125 22.457031 C 26.828125 20.804688 25.488281 19.464844 23.835938 19.464844 C 22.183594 19.464844 20.847656 20.804688 20.847656 22.457031 C 20.847656 24.109375 22.183594 25.449219 23.835938 25.449219 C 25.488281 25.449219 26.828125 24.109375 26.828125 22.457031 M 25.832031 22.457031 C 25.832031 21.355469 24.9375 20.464844 23.835938 20.464844 C 22.734375 20.464844 21.84375 21.355469 21.84375 22.457031 C 21.84375 23.558594 22.734375 24.453125 23.835938 24.453125 C 24.9375 24.453125 25.832031 23.558594 25.832031 22.457031 "/>
<path fill-rule="evenodd" fill="rgb(100%, 100%, 0%)" fill-opacity="1" d="M 22.339844 88.269531 C 22.339844 86.894531 21.226562 85.777344 19.847656 85.777344 C 18.472656 85.777344 17.355469 86.894531 17.355469 88.269531 C 17.355469 89.648438 18.472656 90.761719 19.847656 90.761719 C 21.226562 90.761719 22.339844 89.648438 22.339844 88.269531 "/>
<path fill-rule="evenodd" fill="rgb(54.499817%, 0%, 54.499817%)" fill-opacity="1" d="M 22.839844 88.269531 C 22.839844 86.617188 21.5 85.277344 19.847656 85.277344 C 18.195312 85.277344 16.855469 86.617188 16.855469 88.269531 C 16.855469 89.921875 18.195312 91.261719 19.847656 91.261719 C 21.5 91.261719 22.839844 89.921875 22.839844 88.269531 M 21.84375 88.269531 C 21.84375 87.167969 20.949219 86.277344 19.847656 86.277344 C 18.746094 86.277344 17.855469 87.167969 17.855469 88.269531 C 17.855469 89.371094 18.746094 90.265625 19.847656 90.265625 C 20.949219 90.265625 21.84375 89.371094 21.84375 88.269531 "/>
<path fill-rule="evenodd" fill="rgb(100%, 100%, 0%)" fill-opacity="1" d="M 92.144531 94.253906 C 92.144531 92.875 91.027344 91.761719 89.648438 91.761719 C 88.273438 91.761719 87.15625 92.875 87.15625 94.253906 C 87.15625 95.628906 88.273438 96.746094 89.648438 96.746094 C 91.027344 96.746094 92.144531 95.628906 92.144531 94.253906 "/>
<path fill-rule="evenodd" fill="rgb(54.499817%, 0%, 54.499817%)" fill-opacity="1" d="M 92.640625 94.253906 C 92.640625 92.601562 91.300781 91.261719 89.648438 91.261719 C 87.996094 91.261719 86.660156 92.601562 86.660156 94.253906 C 86.660156 95.90625 87.996094 97.246094 89.648438 97.246094 C 91.300781 97.246094 92.640625 95.90625 92.640625 94.253906 M 91.644531 94.253906 C 91.644531 93.152344 90.75 92.257812 89.648438 92.257812 C 88.546875 92.257812 87.65625 93.152344 87.65625 94.253906 C 87.65625 95.355469 88.546875 96.246094 89.648438 96.246094 C 90.75 96.246094 91.644531 95.355469 91.644531 94.253906 "/>
<path fill-rule="evenodd" fill="rgb(100%, 100%, 0%)" fill-opacity="1" d="M 58.238281 34.421875 C 58.238281 33.046875 57.125 31.929688 55.746094 31.929688 C 54.371094 31.929688 53.253906 33.046875 53.253906 34.421875 C 53.253906 35.800781 54.371094 36.917969 55.746094 36.917969 C 57.125 36.917969 58.238281 35.800781 58.238281 34.421875 "/>
<path fill-rule="evenodd" fill="rgb(54.499817%, 0%, 54.499817%)" fill-opacity="1" d="M 58.738281 34.421875 C 58.738281 32.769531 57.398438 31.433594 55.746094 31.433594 C 54.09375 31.433594 52.753906 32.769531 52.753906 34.421875 C 52.753906 36.074219 54.09375 37.414062 55.746094 37.414062 C 57.398438 37.414062 58.738281 36.074219 58.738281 34.421875 M 57.742188 34.421875 C 57.742188 33.320312 56.847656 32.429688 55.746094 32.429688 C 54.644531 32.429688 53.753906 33.320312 53.753906 34.421875 C 53.753906 35.527344 54.644531 36.417969 55.746094 36.417969 C 56.847656 36.417969 57.742188 35.527344 57.742188 34.421875 "/>
<path fill="none" stroke-width="0.4" stroke-linecap="butt" stroke-linejoin="round" stroke="rgb(100%, 0%, 0%)" stroke-opacity="1" stroke-miterlimit="10" d="M 173.999374 286.667356 C 181.998623 290.00103 190.001789 294.000654 198.334014 291.665908 C 206.666238 289.331161 215.331438 280.665961 223.001629 279.001083 C 230.667902 277.332288 237.331332 282.667732 235.000502 290.999956 C 232.665756 299.332181 221.332834 310.665103 210.998838 315.667572 C 200.66876 320.666123 191.333692 319.33422 179.667794 314.668645 C 168.001896 309.999152 154.001252 301.999903 148.665808 295.332556 C 143.334281 288.66521 146.667954 283.333683 152.332457 282.001781 C 158.000877 280.665961 166.000125 283.333683 173.999374 286.667356 Z M 173.999374 286.667356 " transform="matrix(0.997164, 0, 0, -0.997164, -135.709026, 377.448099)"/>
<path fill="none" stroke-width="0.4" stroke-linecap="butt" stroke-linejoin="round" stroke="rgb(0%, 0%, 100%)" stroke-opacity="1" stroke-miterlimit="10" d="M 349.665544 363.001031 C 342.665222 362.668056 333.33407 359.334382 326.999699 356.333685 C 320.665329 353.332987 317.331655 350.665265 313.332031 348.00146 C 309.332406 345.333738 304.666831 342.666016 300.001255 341.001138 C 295.331762 339.332343 290.666187 338.666391 286.333586 338.333416 C 282.000986 338.00044 278.001362 338.00044 274.667689 337.667465 C 271.334015 337.334489 268.666293 336.668538 266.331547 334.999743 C 264.000718 333.334865 261.998947 330.667143 260.667044 327.000494 C 259.331225 323.333845 258.665274 318.668269 258.665274 313.998776 C 258.665274 309.333201 259.331225 304.667625 260.001093 300.331108 C 260.667044 295.998508 261.332996 291.998883 263.667742 289.668054 C 265.998571 287.333307 269.998196 286.667356 274.001738 287.000332 C 278.001362 287.333307 282.000986 288.66521 284.331816 290.666981 C 286.666562 292.668752 287.332513 295.332556 286.666562 299.332181 C 286.000611 303.331805 283.99884 308.667249 283.665864 312.999849 C 283.332889 317.33245 284.668709 320.666123 290.000235 323.999796 C 295.331762 327.333469 304.666831 330.667143 315.333802 333.66784 C 326.000773 336.668538 337.999646 339.332343 347.334715 341.667089 C 356.665866 344.001836 363.333212 345.999689 365.667959 348.334436 C 367.998788 350.665265 366.000935 353.332987 365.331066 355.001782 C 364.665115 356.66666 365.331066 357.332611 363.333212 359.001407 C 361.331442 360.666285 356.665866 363.334007 349.665544 363.001031 Z M 349.665544 363.001031 " transform="matrix(0.997164, 0, 0, -0.997164, -135.709026, 377.448099)"/>
<path fill="none" stroke-width="0.4" stroke-linecap="butt" stroke-linejoin="round" stroke="rgb(62.69989%, 12.5%, 94.099426%)" stroke-opacity="1" stroke-miterlimit="10" d="M 198.66699 346.66564 C 203.332565 340.668162 198.66699 335.332718 192.99857 330.334167 C 187.334067 325.331698 180.666721 320.666123 173.999374 317.998401 C 167.332028 315.334596 160.668599 314.668645 156.332081 323.000869 C 151.999481 331.333094 150.001628 348.667411 151.999481 357.332611 C 154.001252 366.001729 159.99873 366.001729 169.99975 362.668056 C 180.00077 359.334382 194.001414 352.667036 198.66699 346.66564 Z M 198.66699 346.66564 " transform="matrix(0.997164, 0, 0, -0.997164, -135.709026, 377.448099)"/>
<path fill="none" stroke-width="0.4" stroke-linecap="butt" stroke-linejoin="round" stroke="rgb(0%, 39.199829%, 0%)" stroke-opacity="1" stroke-miterlimit="10" d="M 250.333049 366.334704 C 265.998571 364.665909 286.000611 365.33186 296.334606 361.665211 C 306.668602 357.998563 307.334553 349.999314 301.999109 345.999689 C 296.667582 342.000065 285.33466 342.000065 276.332567 341.667089 C 267.334391 341.334114 260.667044 340.668162 256.66742 335.332718 C 252.667796 330.001191 251.331976 320.000172 248.668171 312.999849 C 246.000449 305.999527 242.000825 301.999903 237.331332 301.999903 C 232.665756 301.999903 227.334229 305.999527 225.665434 312.000923 C 224.000556 317.998401 225.998409 326.001567 227.334229 331.999045 C 228.666132 338.00044 229.332083 342.000065 225.665434 345.333738 C 221.998785 348.667411 213.999536 351.331216 208.331116 355.334758 C 202.666614 359.334382 199.332941 364.665909 200.331867 368.332558 C 201.334712 371.999207 206.666238 374.000978 214.998463 372.998134 C 223.334605 371.999207 234.667527 367.999582 250.333049 366.334704 Z M 250.333049 366.334704 " transform="matrix(0.997164, 0, 0, -0.997164, -135.709026, 377.448099)"/>
<g clip-path="url(#clip-3)">
<path fill="none" stroke-width="0.4" stroke-linecap="butt" stroke-linejoin="round" stroke="rgb(64.698792%, 16.499329%, 16.499329%)" stroke-opacity="1" stroke-miterlimit="10" d="M 362.334286 309.000225 C 370.66651 316.000547 377.333857 322.001943 378.665759 327.000494 C 380.001579 331.999045 376.001954 335.998669 369.001632 337.334489 C 362.00131 338.666391 352.00029 337.334489 341.666295 336.668538 C 331.3323 335.998669 320.665329 335.998669 315.000826 331.999045 C 309.332406 327.99942 308.666455 320.000172 312.000128 312.333898 C 315.333802 304.667625 322.667099 297.334327 326.999699 293.001727 C 331.3323 288.66521 332.668119 287.333307 338.332622 290.666981 C 344.001041 294.000654 353.998144 301.999903 362.334286 309.000225 Z M 362.334286 309.000225 " transform="matrix(0.997164, 0, 0, -0.997164, -135.709026, 377.448099)"/>
</g>
</svg>
