<?xml version="1.0" encoding="UTF-8"?>
<svg xmlns="http://www.w3.org/2000/svg" xmlns:xlink="http://www.w3.org/1999/xlink" width="248.4" height="112.4" viewBox="0 0 248.4 112.4">
<defs>
<clipPath id="clip-0">
<path clip-rule="nonzero" d="M 0.359375 0 L 247.441406 0 L 247.441406 111.804688 L 0.359375 111.804688 Z M 0.359375 0 "/>
</clipPath>
</defs>
<path fill-rule="evenodd" fill="rgb(100%, 49.798584%, 31.399536%)" fill-opacity="0.3" stroke-width="0.4" stroke-linecap="butt" stroke-linejoin="round" stroke="rgb(100%, 49.798584%, 31.399536%)" stroke-opacity="0.3" stroke-miterlimit="10" d="M 173.998941 286.668215 C 181.998447 289.998397 190.001881 294.000114 198.331264 291.667415 C 206.668501 289.334717 215.331688 280.667603 223.001318 278.998585 C 230.667021 277.333494 237.331313 282.666498 234.998614 290.999808 C 232.665916 299.333118 221.3323 310.666734 211.000095 315.665935 C 200.66789 320.665136 191.333168 319.333848 179.665749 314.668451 C 167.998329 309.999127 153.998211 301.99962 148.665207 295.331402 C 143.332202 288.66711 146.666312 283.334105 152.33312 281.998891 C 157.999928 280.667603 165.999434 283.334105 173.998941 286.668215 Z M 173.998941 286.668215 " transform="matrix(0.99469, 0, 0, -0.99469, -130.739115, 378.181239)"/>
<path fill="none" stroke-width="1.2" stroke-linecap="butt" stroke-linejoin="round" stroke="rgb(74.499512%, 74.499512%, 74.499512%)" stroke-opacity="1" stroke-miterlimit="10" d="M 198.001387 308.000232 L 237.99892 312.001949 " transform="matrix(0.99469, 0, 0, -0.99469, -130.739115, 378.181239)"/>
<path fill="none" stroke-width="1.2" stroke-linecap="butt" stroke-linejoin="round" stroke="rgb(74.499512%, 74.499512%, 74.499512%)" stroke-opacity="1" stroke-miterlimit="10" d="M 237.99892 312.001949 L 273.998663 328.000962 " transform="matrix(0.99469, 0, 0, -0.99469, -130.739115, 378.181239)"/>
<path fill="none" stroke-width="1.2" stroke-linecap="butt" stroke-linejoin="round" stroke="rgb(74.499512%, 74.499512%, 74.499512%)" stroke-opacity="1" stroke-miterlimit="10" d="M 273.998663 328.000962 L 318.001839 329.999857 " transform="matrix(0.99469, 0, 0, -0.99469, -130.739115, 378.181239)"/>
<path fill="none" stroke-width="1.2" stroke-linecap="butt" stroke-linejoin="round" stroke="rgb(74.499512%, 74.499512%, 74.499512%)" stroke-opacity="1" stroke-miterlimit="10" d="M 318.001839 329.999857 L 334.000852 298.001831 " transform="matrix(0.99469, 0, 0, -0.99469, -130.739115, 378.181239)"/>
<path fill="none" stroke-width="1.2" stroke-linecap="butt" stroke-linejoin="round" stroke="rgb(74.499512%, 74.499512%, 74.499512%)" stroke-opacity="1" stroke-miterlimit="10" d="M 334.000852 298.001831 L 365.998878 328.000962 " transform="matrix(0.99469, 0, 0, -0.99469, -130.739115, 378.181239)"/>
<path fill="none" stroke-width="1.2" stroke-linecap="butt" stroke-linejoin="round" stroke="rgb(74.499512%, 74.499512%, 74.499512%)" stroke-opacity="1" stroke-miterlimit="10" d="M 273.998663 328.000962 L 271.999768 298.001831 " transform="matrix(0.99469, 0, 0, -0.99469, -130.739115, 378.181239)"/>
<path fill="none" stroke-width="1.2" stroke-linecap="butt" stroke-linejoin="round" stroke="rgb(74.499512%, 74.499512%, 74.499512%)" stroke-opacity="1" stroke-miterlimit="10" d="M 198.001387 308.000232 L 192.000776 343.999975 " transform="matrix(0.99469, 0, 0, -0.99469, -130.739115, 378.181239)"/>
<path fill="none" stroke-width="1.2" stroke-linecap="butt" stroke-linejoin="round" stroke="rgb(74.499512%, 74.499512%, 74.499512%)" stroke-opacity="1" stroke-miterlimit="10" d="M 192.000776 343.999975 L 170.001151 323.999245 " transform="matrix(0.99469, 0, 0, -0.99469, -130.739115, 378.181239)"/>
<path fill="none" stroke-width="1.2" stroke-linecap="butt" stroke-linejoin="round" stroke="rgb(74.499512%, 74.499512%, 74.499512%)" stroke-opacity="1" stroke-miterlimit="10" d="M 156.001033 289.998397 L 198.001387 308.000232 " transform="matrix(0.99469, 0, 0, -0.99469, -130.739115, 378.181239)"/>
<path fill="none" stroke-width="1.2" stroke-linecap="butt" stroke-linejoin="round" stroke="rgb(74.499512%, 74.499512%, 74.499512%)" stroke-opacity="1" stroke-miterlimit="10" d="M 159.998823 356.001198 L 192.000776 343.999975 " transform="matrix(0.99469, 0, 0, -0.99469, -130.739115, 378.181239)"/>
<path fill="none" stroke-width="1.2" stroke-linecap="butt" stroke-linejoin="round" stroke="rgb(74.499512%, 74.499512%, 74.499512%)" stroke-opacity="1" stroke-miterlimit="10" d="M 159.998823 356.001198 L 170.001151 323.999245 " transform="matrix(0.99469, 0, 0, -0.99469, -130.739115, 378.181239)"/>
<path fill="none" stroke-width="1.2" stroke-linecap="butt" stroke-linejoin="round" stroke="rgb(74.499512%, 74.499512%, 74.499512%)" stroke-opacity="1" stroke-miterlimit="10" d="M 156.001033 289.998397 C 156.001033 289.998397 156.001033 289.998397 154.665818 295.665205 C 153.334531 301.332013 150.668029 312.665629 151.331709 323.665442 C 151.999316 334.665254 156.001033 345.331263 157.999928 350.668194 C 159.998823 356.001198 159.998823 356.001198 159.998823 356.001198 " transform="matrix(0.99469, 0, 0, -0.99469, -130.739115, 378.181239)"/>
<path fill="none" stroke-width="1.2" stroke-linecap="butt" stroke-linejoin="round" stroke="rgb(74.499512%, 74.499512%, 74.499512%)" stroke-opacity="1" stroke-miterlimit="10" d="M 156.001033 289.998397 C 156.001033 289.998397 156.001033 289.998397 151.999316 298.665511 C 148.001526 307.332625 139.998093 324.666852 137.665394 339.000774 C 135.332696 353.334696 138.666805 364.668312 148.665207 370.9988 C 158.667535 377.333216 175.334155 378.66843 187.331452 376.665608 C 199.332675 374.666713 206.668501 369.333709 210.332487 366.667207 C 214.0004 364.000705 214.0004 364.000705 214.0004 364.000705 " transform="matrix(0.99469, 0, 0, -0.99469, -130.739115, 378.181239)"/>
<path fill="none" stroke-width="1.2" stroke-linecap="butt" stroke-linejoin="round" stroke="rgb(74.499512%, 74.499512%, 74.499512%)" stroke-opacity="1" stroke-miterlimit="10" d="M 192.000776 343.999975 L 214.0004 364.000705 " transform="matrix(0.99469, 0, 0, -0.99469, -130.739115, 378.181239)"/>
<path fill="none" stroke-width="1.2" stroke-linecap="butt" stroke-linejoin="round" stroke="rgb(74.499512%, 74.499512%, 74.499512%)" stroke-opacity="1" stroke-miterlimit="10" d="M 214.0004 364.000705 L 243.999532 351.999481 " transform="matrix(0.99469, 0, 0, -0.99469, -130.739115, 378.181239)"/>
<path fill="none" stroke-width="1.2" stroke-linecap="butt" stroke-linejoin="round" stroke="rgb(74.499512%, 74.499512%, 74.499512%)" stroke-opacity="1" stroke-miterlimit="10" d="M 243.999532 351.999481 L 237.99892 312.001949 " transform="matrix(0.99469, 0, 0, -0.99469, -130.739115, 378.181239)"/>
<path fill="none" stroke-width="1.2" stroke-linecap="butt" stroke-linejoin="round" stroke="rgb(74.499512%, 74.499512%, 74.499512%)" stroke-opacity="1" stroke-miterlimit="10" d="M 226.001624 284.001713 L 198.001387 308.000232 " transform="matrix(0.99469, 0, 0, -0.99469, -130.739115, 378.181239)"/>
<path fill="none" stroke-width="1.2" stroke-linecap="butt" stroke-linejoin="round" stroke="rgb(74.499512%, 74.499512%, 74.499512%)" stroke-opacity="1" stroke-miterlimit="10" d="M 226.001624 284.001713 L 271.999768 298.001831 " transform="matrix(0.99469, 0, 0, -0.99469, -130.739115, 378.181239)"/>
<path fill="none" stroke-width="1.2" stroke-linecap="butt" stroke-linejoin="round" stroke="rgb(74.499512%, 74.499512%, 74.499512%)" stroke-opacity="1" stroke-miterlimit="10" d="M 192.000776 343.999975 C 192.000776 343.999975 192.000776 343.999975 196.999976 340.665865 C 201.999177 337.331756 212.001506 330.667464 217.668314 320.665136 C 223.331194 310.666734 224.666409 297.334223 225.334016 290.666005 C 226.001624 284.001713 226.001624 284.001713 226.001624 284.001713 " transform="matrix(0.99469, 0, 0, -0.99469, -130.739115, 378.181239)"/>
<path fill="none" stroke-width="1.2" stroke-linecap="butt" stroke-linejoin="round" stroke="rgb(74.499512%, 74.499512%, 74.499512%)" stroke-opacity="1" stroke-miterlimit="10" d="M 243.999532 351.999481 L 295.998287 353.998376 " transform="matrix(0.99469, 0, 0, -0.99469, -130.739115, 378.181239)"/>
<path fill="none" stroke-width="1.2" stroke-linecap="butt" stroke-linejoin="round" stroke="rgb(74.499512%, 74.499512%, 74.499512%)" stroke-opacity="1" stroke-miterlimit="10" d="M 295.998287 353.998376 L 351.99876 351.999481 " transform="matrix(0.99469, 0, 0, -0.99469, -130.739115, 378.181239)"/>
<path fill="none" stroke-width="1.2" stroke-linecap="butt" stroke-linejoin="round" stroke="rgb(74.499512%, 74.499512%, 74.499512%)" stroke-opacity="1" stroke-miterlimit="10" d="M 351.99876 351.999481 L 365.998878 328.000962 " transform="matrix(0.99469, 0, 0, -0.99469, -130.739115, 378.181239)"/>
<path fill="none" stroke-width="1.2" stroke-linecap="butt" stroke-linejoin="round" stroke="rgb(74.499512%, 74.499512%, 74.499512%)" stroke-opacity="1" stroke-miterlimit="10" d="M 273.998663 328.000962 L 295.998287 353.998376 " transform="matrix(0.99469, 0, 0, -0.99469, -130.739115, 378.181239)"/>
<path fill="none" stroke-width="1.2" stroke-linecap="butt" stroke-linejoin="round" stroke="rgb(74.499512%, 74.499512%, 74.499512%)" stroke-opacity="1" stroke-miterlimit="10" d="M 365.998878 328.000962 L 318.001839 329.999857 " transform="matrix(0.99469, 0, 0, -0.99469, -130.739115, 378.181239)"/>
<path fill="none" stroke-width="1.2" stroke-linecap="butt" stroke-linejoin="round" stroke="rgb(74.499512%, 74.499512%, 74.499512%)" stroke-opacity="1" stroke-miterlimit="10" d="M 295.998287 353.998376 C 295.998287 353.998376 295.998287 353.998376 295.998287 348.001692 C 295.998287 342.00108 295.998287 329.999857 302.332703 320.665136 C 308.667118 311.334342 321.332022 304.666123 327.666437 301.332013 C 334.000852 298.001831 334.000852 298.001831 334.000852 298.001831 " transform="matrix(0.99469, 0, 0, -0.99469, -130.739115, 378.181239)"/>
<path fill="none" stroke-width="1.2" stroke-linecap="butt" stroke-linejoin="round" stroke="rgb(74.499512%, 74.499512%, 74.499512%)" stroke-opacity="1" stroke-miterlimit="10" d="M 273.998663 328.000962 L 351.99876 351.999481 " transform="matrix(0.99469, 0, 0, -0.99469, -130.739115, 378.181239)"/>
<path fill="none" stroke-width="1.2" stroke-linecap="butt" stroke-linejoin="round" stroke="rgb(74.499512%, 74.499512%, 74.499512%)" stroke-opacity="1" stroke-miterlimit="10" d="M 243.999532 351.999481 L 271.999768 298.001831 " transform="matrix(0.99469, 0, 0, -0.99469, -130.739115, 378.181239)"/>
<path fill="none" stroke-width="1.2" stroke-linecap="butt" stroke-linejoin="round" stroke="rgb(74.499512%, 74.499512%, 74.499512%)" stroke-opacity="1" stroke-miterlimit="10" d="M 214.0004 364.000705 C 214.0004 364.000705 214.0004 364.000705 216.333099 357.332486 C 218.665797 350.668194 223.331194 337.331756 225.334016 323.999245 C 227.332911 310.666734 226.665304 297.334223 226.3315 290.666005 C 226.001624 284.001713 226.001624 284.001713 226.001624 284.001713 " transform="matrix(0.99469, 0, 0, -0.99469, -130.739115, 378.181239)"/>
<path fill="none" stroke-width="1.2" stroke-linecap="butt" stroke-linejoin="round" stroke="rgb(74.499512%, 74.499512%, 74.499512%)" stroke-opacity="1" stroke-miterlimit="10" d="M 170.001151 323.999245 C 170.001151 323.999245 170.001151 323.999245 178.334461 323.999245 C 186.667771 323.999245 203.334392 323.999245 217.000706 324.666852 C 230.667021 325.33446 241.333029 326.665747 254.00186 331.668875 C 266.666764 336.668076 281.334489 345.331263 288.666388 349.666783 C 295.998287 353.998376 295.998287 353.998376 295.998287 353.998376 " transform="matrix(0.99469, 0, 0, -0.99469, -130.739115, 378.181239)"/>
<path fill="none" stroke-width="1.2" stroke-linecap="butt" stroke-linejoin="round" stroke="rgb(74.499512%, 74.499512%, 74.499512%)" stroke-opacity="1" stroke-miterlimit="10" d="M 170.001151 323.999245 C 170.001151 323.999245 170.001151 323.999245 172.000046 316.333542 C 173.998941 308.667839 178.000658 293.332507 191.666972 284.001713 C 205.333287 274.666991 228.668126 271.332882 254.00186 274.666991 C 279.331667 278.001101 306.668223 287.999502 320.334538 292.998703 C 334.000852 298.001831 334.000852 298.001831 334.000852 298.001831 " transform="matrix(0.99469, 0, 0, -0.99469, -130.739115, 378.181239)"/>
<path fill-rule="evenodd" fill="rgb(67.799377%, 84.698486%, 90.19928%)" fill-opacity="0.3" stroke-width="0.4" stroke-linecap="butt" stroke-linejoin="round" stroke="rgb(67.799377%, 84.698486%, 90.19928%)" stroke-opacity="0.3" stroke-miterlimit="10" d="M 349.666061 362.999294 C 342.667966 362.66549 333.333245 359.331381 326.99883 356.331075 C 320.668341 353.334696 317.334232 350.668194 313.332515 348.001692 C 309.334725 345.331263 304.665401 342.668687 300.000004 340.999669 C 295.334607 339.334578 290.665283 338.666971 286.33369 338.333167 C 281.998169 337.999363 278.00038 337.999363 274.66627 337.66556 C 271.332161 337.331756 268.665658 336.668076 266.33296 334.999057 C 264.000261 333.333966 262.001366 330.667464 260.666152 326.999551 C 259.334864 323.331638 258.667257 318.666241 258.667257 314.000844 C 258.667257 309.33152 259.334864 304.666123 259.998545 300.334529 C 260.666152 295.999009 261.333759 292.001219 263.666458 289.668521 C 265.999156 287.331895 270.000873 286.668215 273.998663 286.998091 C 278.00038 287.331895 281.998169 288.66711 284.334795 290.666005 C 286.667493 292.668826 287.331174 295.331402 286.667493 299.333118 C 285.999886 303.334835 284.000991 308.667839 283.667188 312.999433 C 283.333384 317.334953 284.668598 320.665136 290.001603 323.999245 C 295.334607 327.333355 304.665401 330.667464 315.33141 333.66777 C 326.001346 336.668076 337.998642 339.334578 347.333363 341.667276 C 356.668084 343.999975 363.332376 345.99887 365.665075 348.331568 C 368.0017 350.668194 365.998878 353.334696 365.331271 354.999787 C 364.667591 356.668806 365.331271 357.332486 363.332376 359.001504 C 361.333481 360.666595 356.668084 363.333097 349.666061 362.999294 Z M 349.666061 362.999294 " transform="matrix(0.99469, 0, 0, -0.99469, -130.739115, 378.181239)"/>
<path fill-rule="evenodd" fill="rgb(93.299866%, 50.999451%, 93.299866%)" fill-opacity="0.3" stroke-width="0.4" stroke-linecap="butt" stroke-linejoin="round" stroke="rgb(93.299866%, 50.999451%, 93.299866%)" stroke-opacity="0.3" stroke-miterlimit="10" d="M 198.665068 346.666477 C 203.334392 340.665865 198.665068 335.332861 192.99826 330.33366 C 187.331452 325.33446 180.66716 320.665136 173.998941 317.998634 C 167.334649 315.332131 160.66643 314.668451 156.334837 323.001761 C 151.999316 331.331144 150.000421 348.665372 151.999316 357.332486 C 153.998211 365.9996 159.998823 365.9996 170.001151 362.66549 C 179.999552 359.331381 193.999671 352.667089 198.665068 346.666477 Z M 198.665068 346.666477 " transform="matrix(0.99469, 0, 0, -0.99469, -130.739115, 378.181239)"/>
<path fill-rule="evenodd" fill="rgb(56.498718%, 93.299866%, 56.498718%)" fill-opacity="0.3" stroke-width="0.4" stroke-linecap="butt" stroke-linejoin="round" stroke="rgb(56.498718%, 93.299866%, 56.498718%)" stroke-opacity="0.3" stroke-miterlimit="10" d="M 250.333947 366.333403 C 265.999156 364.668312 285.999886 365.331992 296.332091 361.668006 C 306.668223 358.000093 307.331903 350.000587 301.998899 345.99887 C 296.665895 342.00108 285.332279 342.00108 276.331361 341.667276 C 267.334371 341.333473 260.666152 340.665865 256.668362 335.332861 C 252.666645 329.999857 251.331431 320.001455 248.668856 312.999433 C 245.998426 306.001337 242.000637 301.99962 237.331313 301.99962 C 232.665916 301.99962 227.332911 306.001337 225.66782 312.001949 C 223.998802 317.998634 226.001624 325.99814 227.332911 331.998752 C 228.668126 337.999363 229.331806 342.00108 225.66782 345.331263 C 221.999907 348.665372 214.0004 351.331874 208.333592 355.333591 C 202.666784 359.331381 199.332675 364.668312 200.334086 368.332298 C 201.33157 372.000211 206.668501 373.999106 215.001811 373.001622 C 223.331194 372.000211 234.668737 367.998494 250.333947 366.333403 Z M 250.333947 366.333403 " transform="matrix(0.99469, 0, 0, -0.99469, -130.739115, 378.181239)"/>
<path fill-rule="evenodd" fill="rgb(100%, 60.099792%, 60.099792%)" fill-opacity="0.3" stroke-width="0.4" stroke-linecap="butt" stroke-linejoin="round" stroke="rgb(100%, 60.099792%, 60.099792%)" stroke-opacity="0.3" stroke-miterlimit="10" d="M 362.334892 309.001643 C 370.668202 315.999739 377.332494 322.00035 378.667709 326.999551 C 379.998996 331.998752 376.001207 336.000468 368.999184 337.331756 C 362.001088 338.666971 351.99876 337.331756 341.666555 336.668076 C 331.33435 336.000468 320.668341 336.000468 315.001533 331.998752 C 309.334725 328.000962 308.667118 320.001455 312.001227 312.331826 C 315.33141 304.666123 322.667236 297.334223 326.99883 292.998703 C 331.33435 288.66711 332.665638 287.331895 338.332446 290.666005 C 343.999254 294.000114 354.001582 301.99962 362.334892 309.001643 Z M 362.334892 309.001643 " transform="matrix(0.99469, 0, 0, -0.99469, -130.739115, 378.181239)"/>
<path fill="none" stroke-width="1.2" stroke-linecap="butt" stroke-linejoin="round" stroke="rgb(0%, 0%, 0%)" stroke-opacity="1" stroke-miterlimit="10" d="M 156.001033 289.998397 C 156.001033 289.998397 156.001033 289.998397 151.999316 298.665511 C 148.001526 307.332625 139.998093 324.666852 137.665394 339.000774 C 135.332696 353.334696 138.666805 364.668312 148.665207 370.9988 C 158.667535 377.333216 175.334155 378.66843 187.331452 376.665608 C 199.332675 374.666713 206.668501 369.333709 210.332487 366.667207 C 214.0004 364.000705 214.0004 364.000705 214.0004 364.000705 " transform="matrix(0.99469, 0, 0, -0.99469, -130.739115, 378.181239)"/>
<path fill="none" stroke-width="1.2" stroke-linecap="butt" stroke-linejoin="round" stroke="rgb(0%, 0%, 0%)" stroke-opacity="1" stroke-miterlimit="10" d="M 198.001387 308.000232 L 192.000776 343.999975 " transform="matrix(0.99469, 0, 0, -0.99469, -130.739115, 378.181239)"/>
<path fill="none" stroke-width="1.2" stroke-linecap="butt" stroke-linejoin="round" stroke="rgb(0%, 0%, 0%)" stroke-opacity="1" stroke-miterlimit="10" d="M 226.001624 284.001713 L 271.999768 298.001831 " transform="matrix(0.99469, 0, 0, -0.99469, -130.739115, 378.181239)"/>
<path fill="none" stroke-width="1.2" stroke-linecap="butt" stroke-linejoin="round" stroke="rgb(0%, 0%, 0%)" stroke-opacity="1" stroke-miterlimit="10" d="M 295.998287 353.998376 L 351.99876 351.999481 " transform="matrix(0.99469, 0, 0, -0.99469, -130.739115, 378.181239)"/>
<path fill="none" stroke-width="1.2" stroke-linecap="butt" stroke-linejoin="round" stroke="rgb(0%, 0%, 0%)" stroke-opacity="1" stroke-miterlimit="10" d="M 351.99876 351.999481 L 365.998878 328.000962 " transform="matrix(0.99469, 0, 0, -0.99469, -130.739115, 378.181239)"/>
<path fill="none" stroke-width="1.2" stroke-linecap="butt" stroke-linejoin="round" stroke="rgb(0%, 0%, 0%)" stroke-opacity="1" stroke-miterlimit="10" d="M 192.000776 343.999975 L 214.0004 364.000705 " transform="matrix(0.99469, 0, 0, -0.99469, -130.739115, 378.181239)"/>
<path fill="none" stroke-width="1.2" stroke-linecap="butt" stroke-linejoin="round" stroke="rgb(0%, 0%, 0%)" stroke-opacity="1" stroke-miterlimit="10" d="M 198.001387 308.000232 L 237.99892 312.001949 " transform="matrix(0.99469, 0, 0, -0.99469, -130.739115, 378.181239)"/>
<path fill="none" stroke-width="1.2" stroke-linecap="butt" stroke-linejoin="round" stroke="rgb(0%, 0%, 0%)" stroke-opacity="1" stroke-miterlimit="10" d="M 170.001151 323.999245 C 170.001151 323.999245 170.001151 323.999245 172.000046 316.333542 C 173.998941 308.667839 178.000658 293.332507 191.666972 284.001713 C 205.333287 274.666991 228.668126 271.332882 254.00186 274.666991 C 279.331667 278.001101 306.668223 287.999502 320.334538 292.998703 C 334.000852 298.001831 334.000852 298.001831 334.000852 298.001831 " transform="matrix(0.99469, 0, 0, -0.99469, -130.739115, 378.181239)"/>
<path fill="none" stroke-width="2" stroke-linecap="round" stroke-linejoin="round" stroke="rgb(100%, 49.798584%, 31.399536%)" stroke-opacity="0.5" stroke-miterlimit="10" d="M 226.001624 284.001713 L 198.001387 308.000232 " transform="matrix(0.99469, 0, 0, -0.99469, -130.739115, 378.181239)"/>
<path fill="none" stroke-width="2" stroke-linecap="round" stroke-linejoin="round" stroke="rgb(62.69989%, 12.5%, 94.099426%)" stroke-opacity="0.5" stroke-miterlimit="10" d="M 159.998823 356.001198 L 170.001151 323.999245 " transform="matrix(0.99469, 0, 0, -0.99469, -130.739115, 378.181239)"/>
<path fill="none" stroke-width="2" stroke-linecap="round" stroke-linejoin="round" stroke="rgb(62.69989%, 12.5%, 94.099426%)" stroke-opacity="0.5" stroke-miterlimit="10" d="M 159.998823 356.001198 L 192.000776 343.999975 " transform="matrix(0.99469, 0, 0, -0.99469, -130.739115, 378.181239)"/>
<path fill="none" stroke-width="2" stroke-linecap="round" stroke-linejoin="round" stroke="rgb(0%, 39.199829%, 0%)" stroke-opacity="0.5" stroke-miterlimit="10" d="M 214.0004 364.000705 L 243.999532 351.999481 " transform="matrix(0.99469, 0, 0, -0.99469, -130.739115, 378.181239)"/>
<path fill="none" stroke-width="2" stroke-linecap="round" stroke-linejoin="round" stroke="rgb(0%, 39.199829%, 0%)" stroke-opacity="0.5" stroke-miterlimit="10" d="M 243.999532 351.999481 L 237.99892 312.001949 " transform="matrix(0.99469, 0, 0, -0.99469, -130.739115, 378.181239)"/>
<path fill="none" stroke-width="2" stroke-linecap="round" stroke-linejoin="round" stroke="rgb(0%, 39.199829%, 0%)" stroke-opacity="0.5" stroke-miterlimit="10" d="M 243.999532 351.999481 L 295.998287 353.998376 " transform="matrix(0.99469, 0, 0, -0.99469, -130.739115, 378.181239)"/>
<path fill="none" stroke-width="2" stroke-linecap="round" stroke-linejoin="round" stroke="rgb(0%, 0%, 54.499817%)" stroke-opacity="0.5" stroke-miterlimit="10" d="M 273.998663 328.000962 L 351.99876 351.999481 " transform="matrix(0.99469, 0, 0, -0.99469, -130.739115, 378.181239)"/>
<path fill="none" stroke-width="2" stroke-linecap="round" stroke-linejoin="round" stroke="rgb(0%, 0%, 54.499817%)" stroke-opacity="0.5" stroke-miterlimit="10" d="M 273.998663 328.000962 L 271.999768 298.001831 " transform="matrix(0.99469, 0, 0, -0.99469, -130.739115, 378.181239)"/>
<path fill="none" stroke-width="2" stroke-linecap="round" stroke-linejoin="round" stroke="rgb(54.499817%, 0%, 0%)" stroke-opacity="0.5" stroke-miterlimit="10" d="M 365.998878 328.000962 L 318.001839 329.999857 " transform="matrix(0.99469, 0, 0, -0.99469, -130.739115, 378.181239)"/>
<path fill="none" stroke-width="2" stroke-linecap="round" stroke-linejoin="round" stroke="rgb(54.499817%, 0%, 0%)" stroke-opacity="0.5" stroke-miterlimit="10" d="M 334.000852 298.001831 L 365.998878 328.000962 " transform="matrix(0.99469, 0, 0, -0.99469, -130.739115, 378.181239)"/>
<path fill="none" stroke-width="2" stroke-linecap="round" stroke-linejoin="round" stroke="rgb(100%, 49.798584%, 31.399536%)" stroke-opacity="0.5" stroke-miterlimit="10" d="M 156.001033 289.998397 L 198.001387 308.000232 " transform="matrix(0.99469, 0, 0, -0.99469, -130.739115, 378.181239)"/>
<path fill-rule="evenodd" fill="rgb(100%, 100%, 0%)" fill-opacity="1" d="M 68.695312 71.816406 C 68.695312 70.441406 67.582031 69.328125 66.210938 69.328125 C 64.835938 69.328125 63.722656 70.441406 63.722656 71.816406 C 63.722656 73.191406 64.835938 74.304688 66.210938 74.304688 C 67.582031 74.304688 68.695312 73.191406 68.695312 71.816406 "/>
<path fill-rule="evenodd" fill="rgb(54.499817%, 0%, 54.499817%)" fill-opacity="1" d="M 69.195312 71.816406 C 69.195312 70.167969 67.859375 68.832031 66.210938 68.832031 C 64.5625 68.832031 63.226562 70.167969 63.226562 71.816406 C 63.226562 73.464844 64.5625 74.800781 66.210938 74.800781 C 67.859375 74.800781 69.195312 73.464844 69.195312 71.816406 M 68.199219 71.816406 C 68.199219 70.71875 67.308594 69.828125 66.210938 69.828125 C 65.109375 69.828125 64.21875 70.71875 64.21875 71.816406 C 64.21875 72.914062 65.109375 73.804688 66.210938 73.804688 C 67.308594 73.804688 68.199219 72.914062 68.199219 71.816406 "/>
<path fill-rule="evenodd" fill="rgb(100%, 100%, 0%)" fill-opacity="1" d="M 114.453125 28.050781 C 114.453125 26.675781 113.339844 25.5625 111.964844 25.5625 C 110.589844 25.5625 109.480469 26.675781 109.480469 28.050781 C 109.480469 29.425781 110.589844 30.535156 111.964844 30.535156 C 113.339844 30.535156 114.453125 29.425781 114.453125 28.050781 "/>
<path fill-rule="evenodd" fill="rgb(54.499817%, 0%, 54.499817%)" fill-opacity="1" d="M 114.949219 28.050781 C 114.949219 26.402344 113.613281 25.066406 111.964844 25.066406 C 110.316406 25.066406 108.980469 26.402344 108.980469 28.050781 C 108.980469 29.699219 110.316406 31.035156 111.964844 31.035156 C 113.613281 31.035156 114.949219 29.699219 114.949219 28.050781 M 113.953125 28.050781 C 113.953125 26.949219 113.0625 26.0625 111.964844 26.0625 C 110.867188 26.0625 109.976562 26.949219 109.976562 28.050781 C 109.976562 29.148438 110.867188 30.039062 111.964844 30.039062 C 113.0625 30.039062 113.953125 29.148438 113.953125 28.050781 "/>
<path fill-rule="evenodd" fill="rgb(100%, 100%, 0%)" fill-opacity="1" d="M 108.484375 67.835938 C 108.484375 66.464844 107.371094 65.351562 105.996094 65.351562 C 104.625 65.351562 103.511719 66.464844 103.511719 67.835938 C 103.511719 69.210938 104.625 70.324219 105.996094 70.324219 C 107.371094 70.324219 108.484375 69.210938 108.484375 67.835938 "/>
<path fill-rule="evenodd" fill="rgb(54.499817%, 0%, 54.499817%)" fill-opacity="1" d="M 108.980469 67.835938 C 108.980469 66.191406 107.644531 64.855469 105.996094 64.855469 C 104.347656 64.855469 103.011719 66.191406 103.011719 67.835938 C 103.011719 69.484375 104.347656 70.820312 105.996094 70.820312 C 107.644531 70.820312 108.980469 69.484375 108.980469 67.835938 M 107.988281 67.835938 C 107.988281 66.738281 107.097656 65.847656 105.996094 65.847656 C 104.898438 65.847656 104.007812 66.738281 104.007812 67.835938 C 104.007812 68.9375 104.898438 69.828125 105.996094 69.828125 C 107.097656 69.828125 107.988281 68.9375 107.988281 67.835938 "/>
<path fill-rule="evenodd" fill="rgb(100%, 100%, 0%)" fill-opacity="1" d="M 142.304688 81.761719 C 142.304688 80.390625 141.191406 79.277344 139.816406 79.277344 C 138.441406 79.277344 137.328125 80.390625 137.328125 81.761719 C 137.328125 83.136719 138.441406 84.25 139.816406 84.25 C 141.191406 84.25 142.304688 83.136719 142.304688 81.761719 "/>
<path fill-rule="evenodd" fill="rgb(54.499817%, 0%, 54.499817%)" fill-opacity="1" d="M 142.800781 81.761719 C 142.800781 80.117188 141.464844 78.78125 139.816406 78.78125 C 138.167969 78.78125 136.832031 80.117188 136.832031 81.761719 C 136.832031 83.410156 138.167969 84.746094 139.816406 84.746094 C 141.464844 84.746094 142.800781 83.410156 142.800781 81.761719 M 141.804688 81.761719 C 141.804688 80.664062 140.914062 79.773438 139.816406 79.773438 C 138.71875 79.773438 137.828125 80.664062 137.828125 81.761719 C 137.828125 82.863281 138.71875 83.753906 139.816406 83.753906 C 140.914062 83.753906 141.804688 82.863281 141.804688 81.761719 "/>
<path fill-rule="evenodd" fill="rgb(100%, 100%, 0%)" fill-opacity="1" d="M 144.292969 51.921875 C 144.292969 50.550781 143.179688 49.4375 141.804688 49.4375 C 140.433594 49.4375 139.320312 50.550781 139.320312 51.921875 C 139.320312 53.296875 140.433594 54.410156 141.804688 54.410156 C 143.179688 54.410156 144.292969 53.296875 144.292969 51.921875 "/>
<path fill-rule="evenodd" fill="rgb(54.499817%, 0%, 54.499817%)" fill-opacity="1" d="M 144.789062 51.921875 C 144.789062 50.273438 143.453125 48.9375 141.804688 48.9375 C 140.15625 48.9375 138.820312 50.273438 138.820312 51.921875 C 138.820312 53.570312 140.15625 54.90625 141.804688 54.90625 C 143.453125 54.90625 144.789062 53.570312 144.789062 51.921875 M 143.796875 51.921875 C 143.796875 50.824219 142.90625 49.933594 141.804688 49.933594 C 140.707031 49.933594 139.816406 50.824219 139.816406 51.921875 C 139.816406 53.023438 140.707031 53.914062 141.804688 53.914062 C 142.90625 53.914062 143.796875 53.023438 143.796875 51.921875 "/>
<path fill-rule="evenodd" fill="rgb(100%, 100%, 0%)" fill-opacity="1" d="M 166.175781 26.0625 C 166.175781 24.6875 165.0625 23.574219 163.6875 23.574219 C 162.316406 23.574219 161.203125 24.6875 161.203125 26.0625 C 161.203125 27.433594 162.316406 28.546875 163.6875 28.546875 C 165.0625 28.546875 166.175781 27.433594 166.175781 26.0625 "/>
<path fill-rule="evenodd" fill="rgb(54.499817%, 0%, 54.499817%)" fill-opacity="1" d="M 166.671875 26.0625 C 166.671875 24.414062 165.335938 23.078125 163.6875 23.078125 C 162.039062 23.078125 160.707031 24.414062 160.707031 26.0625 C 160.707031 27.710938 162.039062 29.046875 163.6875 29.046875 C 165.335938 29.046875 166.671875 27.710938 166.671875 26.0625 M 165.679688 26.0625 C 165.679688 24.960938 164.789062 24.070312 163.6875 24.070312 C 162.589844 24.070312 161.699219 24.960938 161.699219 26.0625 C 161.699219 27.160156 162.589844 28.050781 163.6875 28.050781 C 164.789062 28.050781 165.679688 27.160156 165.679688 26.0625 "/>
<path fill-rule="evenodd" fill="rgb(100%, 100%, 0%)" fill-opacity="1" d="M 188.058594 49.933594 C 188.058594 48.558594 186.945312 47.445312 185.574219 47.445312 C 184.199219 47.445312 183.085938 48.558594 183.085938 49.933594 C 183.085938 51.308594 184.199219 52.421875 185.574219 52.421875 C 186.945312 52.421875 188.058594 51.308594 188.058594 49.933594 "/>
<path fill-rule="evenodd" fill="rgb(54.499817%, 0%, 54.499817%)" fill-opacity="1" d="M 188.554688 49.933594 C 188.554688 48.285156 187.21875 46.949219 185.574219 46.949219 C 183.925781 46.949219 182.589844 48.285156 182.589844 49.933594 C 182.589844 51.582031 183.925781 52.917969 185.574219 52.917969 C 187.21875 52.917969 188.554688 51.582031 188.554688 49.933594 M 187.5625 49.933594 C 187.5625 48.835938 186.671875 47.945312 185.574219 47.945312 C 184.472656 47.945312 183.582031 48.835938 183.582031 49.933594 C 183.582031 51.03125 184.472656 51.921875 185.574219 51.921875 C 186.671875 51.921875 187.5625 51.03125 187.5625 49.933594 "/>
<path fill-rule="evenodd" fill="rgb(100%, 100%, 0%)" fill-opacity="1" d="M 203.972656 81.761719 C 203.972656 80.390625 202.859375 79.277344 201.488281 79.277344 C 200.113281 79.277344 199 80.390625 199 81.761719 C 199 83.136719 200.113281 84.25 201.488281 84.25 C 202.859375 84.25 203.972656 83.136719 203.972656 81.761719 "/>
<path fill-rule="evenodd" fill="rgb(54.499817%, 0%, 54.499817%)" fill-opacity="1" d="M 204.472656 81.761719 C 204.472656 80.117188 203.136719 78.78125 201.488281 78.78125 C 199.839844 78.78125 198.503906 80.117188 198.503906 81.761719 C 198.503906 83.410156 199.839844 84.746094 201.488281 84.746094 C 203.136719 84.746094 204.472656 83.410156 204.472656 81.761719 M 203.476562 81.761719 C 203.476562 80.664062 202.585938 79.773438 201.488281 79.773438 C 200.386719 79.773438 199.5 80.664062 199.5 81.761719 C 199.5 82.863281 200.386719 83.753906 201.488281 83.753906 C 202.585938 83.753906 203.476562 82.863281 203.476562 81.761719 "/>
<path fill-rule="evenodd" fill="rgb(100%, 100%, 0%)" fill-opacity="1" d="M 221.878906 28.050781 C 221.878906 26.675781 220.765625 25.5625 219.390625 25.5625 C 218.019531 25.5625 216.90625 26.675781 216.90625 28.050781 C 216.90625 29.425781 218.019531 30.535156 219.390625 30.535156 C 220.765625 30.535156 221.878906 29.425781 221.878906 28.050781 "/>
<path fill-rule="evenodd" fill="rgb(54.499817%, 0%, 54.499817%)" fill-opacity="1" d="M 222.375 28.050781 C 222.375 26.402344 221.039062 25.066406 219.390625 25.066406 C 217.742188 25.066406 216.40625 26.402344 216.40625 28.050781 C 216.40625 29.699219 217.742188 31.035156 219.390625 31.035156 C 221.039062 31.035156 222.375 29.699219 222.375 28.050781 M 221.382812 28.050781 C 221.382812 26.949219 220.492188 26.0625 219.390625 26.0625 C 218.292969 26.0625 217.402344 26.949219 217.402344 28.050781 C 217.402344 29.148438 218.292969 30.039062 219.390625 30.039062 C 220.492188 30.039062 221.382812 29.148438 221.382812 28.050781 "/>
<path fill-rule="evenodd" fill="rgb(100%, 100%, 0%)" fill-opacity="1" d="M 235.804688 51.921875 C 235.804688 50.550781 234.691406 49.4375 233.316406 49.4375 C 231.945312 49.4375 230.832031 50.550781 230.832031 51.921875 C 230.832031 53.296875 231.945312 54.410156 233.316406 54.410156 C 234.691406 54.410156 235.804688 53.296875 235.804688 51.921875 "/>
<path fill-rule="evenodd" fill="rgb(54.499817%, 0%, 54.499817%)" fill-opacity="1" d="M 236.300781 51.921875 C 236.300781 50.273438 234.964844 48.9375 233.316406 48.9375 C 231.667969 48.9375 230.332031 50.273438 230.332031 51.921875 C 230.332031 53.570312 231.667969 54.90625 233.316406 54.90625 C 234.964844 54.90625 236.300781 53.570312 236.300781 51.921875 M 235.308594 51.921875 C 235.308594 50.824219 234.417969 49.933594 233.316406 49.933594 C 232.21875 49.933594 231.328125 50.824219 231.328125 51.921875 C 231.328125 53.023438 232.21875 53.914062 233.316406 53.914062 C 234.417969 53.914062 235.308594 53.023438 235.308594 51.921875 "/>
<path fill-rule="evenodd" fill="rgb(100%, 100%, 0%)" fill-opacity="1" d="M 40.84375 55.902344 C 40.84375 54.527344 39.730469 53.414062 38.359375 53.414062 C 36.984375 53.414062 35.871094 54.527344 35.871094 55.902344 C 35.871094 57.273438 36.984375 58.386719 38.359375 58.386719 C 39.730469 58.386719 40.84375 57.273438 40.84375 55.902344 "/>
<path fill-rule="evenodd" fill="rgb(54.499817%, 0%, 54.499817%)" fill-opacity="1" d="M 41.34375 55.902344 C 41.34375 54.253906 40.007812 52.917969 38.359375 52.917969 C 36.710938 52.917969 35.375 54.253906 35.375 55.902344 C 35.375 57.550781 36.710938 58.886719 38.359375 58.886719 C 40.007812 58.886719 41.34375 57.550781 41.34375 55.902344 M 40.347656 55.902344 C 40.347656 54.800781 39.457031 53.914062 38.359375 53.914062 C 37.257812 53.914062 36.367188 54.800781 36.367188 55.902344 C 36.367188 57 37.257812 57.890625 38.359375 57.890625 C 39.457031 57.890625 40.347656 57 40.347656 55.902344 "/>
<path fill-rule="evenodd" fill="rgb(100%, 100%, 0%)" fill-opacity="1" d="M 84.609375 16.113281 C 84.609375 14.742188 83.5 13.628906 82.125 13.628906 C 80.75 13.628906 79.636719 14.742188 79.636719 16.113281 C 79.636719 17.488281 80.75 18.601562 82.125 18.601562 C 83.5 18.601562 84.609375 17.488281 84.609375 16.113281 "/>
<path fill-rule="evenodd" fill="rgb(54.499817%, 0%, 54.499817%)" fill-opacity="1" d="M 85.109375 16.113281 C 85.109375 14.464844 83.773438 13.128906 82.125 13.128906 C 80.476562 13.128906 79.140625 14.464844 79.140625 16.113281 C 79.140625 17.761719 80.476562 19.097656 82.125 19.097656 C 83.773438 19.097656 85.109375 17.761719 85.109375 16.113281 M 84.113281 16.113281 C 84.113281 15.015625 83.222656 14.125 82.125 14.125 C 81.027344 14.125 80.136719 15.015625 80.136719 16.113281 C 80.136719 17.214844 81.027344 18.101562 82.125 18.101562 C 83.222656 18.101562 84.113281 17.214844 84.113281 16.113281 "/>
<path fill-rule="evenodd" fill="rgb(100%, 100%, 0%)" fill-opacity="1" d="M 30.898438 24.070312 C 30.898438 22.699219 29.785156 21.585938 28.410156 21.585938 C 27.039062 21.585938 25.925781 22.699219 25.925781 24.070312 C 25.925781 25.445312 27.039062 26.558594 28.410156 26.558594 C 29.785156 26.558594 30.898438 25.445312 30.898438 24.070312 "/>
<path fill-rule="evenodd" fill="rgb(54.499817%, 0%, 54.499817%)" fill-opacity="1" d="M 31.394531 24.070312 C 31.394531 22.421875 30.058594 21.085938 28.410156 21.085938 C 26.761719 21.085938 25.425781 22.421875 25.425781 24.070312 C 25.425781 25.71875 26.761719 27.054688 28.410156 27.054688 C 30.058594 27.054688 31.394531 25.71875 31.394531 24.070312 M 30.402344 24.070312 C 30.402344 22.972656 29.511719 22.082031 28.410156 22.082031 C 27.3125 22.082031 26.421875 22.972656 26.421875 24.070312 C 26.421875 25.171875 27.3125 26.0625 28.410156 26.0625 C 29.511719 26.0625 30.402344 25.171875 30.402344 24.070312 "/>
<path fill-rule="evenodd" fill="rgb(100%, 100%, 0%)" fill-opacity="1" d="M 26.917969 89.722656 C 26.917969 88.347656 25.804688 87.234375 24.433594 87.234375 C 23.058594 87.234375 21.945312 88.347656 21.945312 89.722656 C 21.945312 91.09375 23.058594 92.207031 24.433594 92.207031 C 25.804688 92.207031 26.917969 91.09375 26.917969 89.722656 "/>
<path fill-rule="evenodd" fill="rgb(54.499817%, 0%, 54.499817%)" fill-opacity="1" d="M 27.417969 89.722656 C 27.417969 88.074219 26.082031 86.738281 24.433594 86.738281 C 22.785156 86.738281 21.449219 88.074219 21.449219 89.722656 C 21.449219 91.371094 22.785156 92.707031 24.433594 92.707031 C 26.082031 92.707031 27.417969 91.371094 27.417969 89.722656 M 26.421875 89.722656 C 26.421875 88.621094 25.53125 87.730469 24.433594 87.730469 C 23.332031 87.730469 22.441406 88.621094 22.441406 89.722656 C 22.441406 90.820312 23.332031 91.710938 24.433594 91.710938 C 25.53125 91.710938 26.421875 90.820312 26.421875 89.722656 "/>
<path fill-rule="evenodd" fill="rgb(100%, 100%, 0%)" fill-opacity="1" d="M 96.546875 95.6875 C 96.546875 94.316406 95.433594 93.203125 94.0625 93.203125 C 92.6875 93.203125 91.574219 94.316406 91.574219 95.6875 C 91.574219 97.0625 92.6875 98.175781 94.0625 98.175781 C 95.433594 98.175781 96.546875 97.0625 96.546875 95.6875 "/>
<path fill-rule="evenodd" fill="rgb(54.499817%, 0%, 54.499817%)" fill-opacity="1" d="M 97.046875 95.6875 C 97.046875 94.039062 95.710938 92.707031 94.0625 92.707031 C 92.414062 92.707031 91.078125 94.039062 91.078125 95.6875 C 91.078125 97.335938 92.414062 98.671875 94.0625 98.671875 C 95.710938 98.671875 97.046875 97.335938 97.046875 95.6875 M 96.050781 95.6875 C 96.050781 94.589844 95.160156 93.699219 94.0625 93.699219 C 92.960938 93.699219 92.070312 94.589844 92.070312 95.6875 C 92.070312 96.789062 92.960938 97.679688 94.0625 97.679688 C 95.160156 97.679688 96.050781 96.789062 96.050781 95.6875 "/>
<path fill-rule="evenodd" fill="rgb(100%, 100%, 0%)" fill-opacity="1" d="M 62.726562 36.007812 C 62.726562 34.632812 61.613281 33.519531 60.242188 33.519531 C 58.867188 33.519531 57.753906 34.632812 57.753906 36.007812 C 57.753906 37.382812 58.867188 38.496094 60.242188 38.496094 C 61.613281 38.496094 62.726562 37.382812 62.726562 36.007812 "/>
<path fill-rule="evenodd" fill="rgb(54.499817%, 0%, 54.499817%)" fill-opacity="1" d="M 63.226562 36.007812 C 63.226562 34.359375 61.890625 33.023438 60.242188 33.023438 C 58.59375 33.023438 57.257812 34.359375 57.257812 36.007812 C 57.257812 37.65625 58.59375 38.992188 60.242188 38.992188 C 61.890625 38.992188 63.226562 37.65625 63.226562 36.007812 M 62.230469 36.007812 C 62.230469 34.910156 61.339844 34.019531 60.242188 34.019531 C 59.140625 34.019531 58.253906 34.910156 58.253906 36.007812 C 58.253906 37.105469 59.140625 37.996094 60.242188 37.996094 C 61.339844 37.996094 62.230469 37.105469 62.230469 36.007812 "/>
<g clip-path="url(#clip-0)">
<path fill-rule="evenodd" fill="rgb(100%, 100%, 100%)" fill-opacity="0.5" d="M 0.558594 111.605469 L 0.558594 0.199219 L 247.242188 0.199219 L 247.242188 111.605469 Z M 0.558594 111.605469 "/>
</g>
<path fill-rule="evenodd" fill="rgb(0%, 39.199829%, 0%)" fill-opacity="1" d="M 120.917969 28.050781 C 120.917969 25.304688 118.691406 23.078125 115.945312 23.078125 C 113.199219 23.078125 110.96875 25.304688 110.96875 28.050781 C 110.96875 30.796875 113.199219 33.023438 115.945312 33.023438 C 118.691406 33.023438 120.917969 30.796875 120.917969 28.050781 "/>
<path fill-rule="evenodd" fill="rgb(0%, 100%, 0%)" fill-opacity="1" d="M 121.914062 28.050781 C 121.914062 24.753906 119.242188 22.082031 115.945312 22.082031 C 112.648438 22.082031 109.976562 24.753906 109.976562 28.050781 C 109.976562 31.347656 112.648438 34.019531 115.945312 34.019531 C 119.242188 34.019531 121.914062 31.347656 121.914062 28.050781 M 119.921875 28.050781 C 119.921875 25.851562 118.140625 24.070312 115.945312 24.070312 C 113.746094 24.070312 111.964844 25.851562 111.964844 28.050781 C 111.964844 30.246094 113.746094 32.027344 115.945312 32.027344 C 118.140625 32.027344 119.921875 30.246094 119.921875 28.050781 "/>
<path fill-rule="evenodd" fill="rgb(0%, 0%, 54.499817%)" fill-opacity="1" d="M 146.78125 53.914062 C 146.78125 51.164062 144.550781 48.9375 141.804688 48.9375 C 139.058594 48.9375 136.832031 51.164062 136.832031 53.914062 C 136.832031 56.660156 139.058594 58.886719 141.804688 58.886719 C 144.550781 58.886719 146.78125 56.660156 146.78125 53.914062 "/>
<path fill-rule="evenodd" fill="rgb(0%, 0%, 100%)" fill-opacity="1" d="M 147.773438 53.914062 C 147.773438 50.617188 145.101562 47.945312 141.804688 47.945312 C 138.507812 47.945312 135.835938 50.617188 135.835938 53.914062 C 135.835938 57.207031 138.507812 59.878906 141.804688 59.878906 C 145.101562 59.878906 147.773438 57.207031 147.773438 53.914062 M 145.785156 53.914062 C 145.785156 51.714844 144.003906 49.933594 141.804688 49.933594 C 139.609375 49.933594 137.828125 51.714844 137.828125 53.914062 C 137.828125 56.109375 139.609375 57.890625 141.804688 57.890625 C 144.003906 57.890625 145.785156 56.109375 145.785156 53.914062 "/>
<path fill-rule="evenodd" fill="rgb(64.698792%, 16.499329%, 16.499329%)" fill-opacity="1" d="M 212.429688 61.871094 C 212.429688 59.125 210.203125 56.894531 207.457031 56.894531 C 204.710938 56.894531 202.480469 59.125 202.480469 61.871094 C 202.480469 64.617188 204.710938 66.84375 207.457031 66.84375 C 210.203125 66.84375 212.429688 64.617188 212.429688 61.871094 "/>
<path fill-rule="evenodd" fill="rgb(54.499817%, 0%, 0%)" fill-opacity="1" d="M 213.421875 61.871094 C 213.421875 58.574219 210.753906 55.902344 207.457031 55.902344 C 204.160156 55.902344 201.488281 58.574219 201.488281 61.871094 C 201.488281 65.167969 204.160156 67.835938 207.457031 67.835938 C 210.753906 67.835938 213.421875 65.167969 213.421875 61.871094 M 211.433594 61.871094 C 211.433594 59.671875 209.652344 57.890625 207.457031 57.890625 C 205.257812 57.890625 203.476562 59.671875 203.476562 61.871094 C 203.476562 64.066406 205.257812 65.847656 207.457031 65.847656 C 209.652344 65.847656 211.433594 64.066406 211.433594 61.871094 "/>
<path fill-rule="evenodd" fill="rgb(100%, 64.698792%, 0%)" fill-opacity="1" d="M 69.195312 75.796875 C 69.195312 73.050781 66.964844 70.820312 64.21875 70.820312 C 61.472656 70.820312 59.246094 73.050781 59.246094 75.796875 C 59.246094 78.542969 61.472656 80.769531 64.21875 80.769531 C 66.964844 80.769531 69.195312 78.542969 69.195312 75.796875 "/>
<path fill-rule="evenodd" fill="rgb(100%, 54.899597%, 0%)" fill-opacity="1" d="M 70.1875 75.796875 C 70.1875 72.5 67.515625 69.828125 64.21875 69.828125 C 60.921875 69.828125 58.253906 72.5 58.253906 75.796875 C 58.253906 79.09375 60.921875 81.761719 64.21875 81.761719 C 67.515625 81.761719 70.1875 79.09375 70.1875 75.796875 M 68.199219 75.796875 C 68.199219 73.597656 66.417969 71.816406 64.21875 71.816406 C 62.023438 71.816406 60.242188 73.597656 60.242188 75.796875 C 60.242188 77.992188 62.023438 79.773438 64.21875 79.773438 C 66.417969 79.773438 68.199219 77.992188 68.199219 75.796875 "/>
<path fill-rule="evenodd" fill="rgb(62.69989%, 12.5%, 94.099426%)" fill-opacity="1" d="M 45.320312 37.996094 C 45.320312 35.25 43.09375 33.023438 40.347656 33.023438 C 37.601562 33.023438 35.375 35.25 35.375 37.996094 C 35.375 40.742188 37.601562 42.96875 40.347656 42.96875 C 43.09375 42.96875 45.320312 40.742188 45.320312 37.996094 "/>
<path fill-rule="evenodd" fill="rgb(54.499817%, 0%, 54.499817%)" fill-opacity="1" d="M 46.316406 37.996094 C 46.316406 34.699219 43.644531 32.027344 40.347656 32.027344 C 37.050781 32.027344 34.378906 34.699219 34.378906 37.996094 C 34.378906 41.292969 37.050781 43.964844 40.347656 43.964844 C 43.644531 43.964844 46.316406 41.292969 46.316406 37.996094 M 44.328125 37.996094 C 44.328125 35.800781 42.542969 34.019531 40.347656 34.019531 C 38.148438 34.019531 36.367188 35.800781 36.367188 37.996094 C 36.367188 40.195312 38.148438 41.976562 40.347656 41.976562 C 42.542969 41.976562 44.328125 40.195312 44.328125 37.996094 "/>
</svg>
