<?xml version="1.0" encoding="UTF-8"?>
<svg xmlns="http://www.w3.org/2000/svg" xmlns:xlink="http://www.w3.org/1999/xlink" width="243.508" height="106.31" viewBox="0 0 243.508 106.31">
<defs>
<clipPath id="clip-0">
<path clip-rule="nonzero" d="M 173 40 L 242.476562 40 L 242.476562 90 L 173 90 Z M 173 40 "/>
</clipPath>
<clipPath id="clip-1">
<path clip-rule="nonzero" d="M 0.539062 0 L 79 0 L 79 89 L 0.539062 89 Z M 0.539062 0 "/>
</clipPath>
<clipPath id="clip-2">
<path clip-rule="nonzero" d="M 33 53 L 198 53 L 198 105.625 L 33 105.625 Z M 33 53 "/>
</clipPath>
</defs>
<path fill-rule="evenodd" fill="rgb(100%, 49.798584%, 31.399536%)" fill-opacity="0.3" stroke-width="0.4" stroke-linecap="butt" stroke-linejoin="round" stroke="rgb(100%, 49.798584%, 31.399536%)" stroke-opacity="0.3" stroke-miterlimit="10" d="M 173.998422 286.667593 C 181.999235 290.001593 190.000048 294.000033 198.331115 291.668592 C 206.666114 289.33322 215.331368 280.667966 223.001926 279.000966 C 230.668553 277.333967 237.33262 282.665221 235.001179 291.00022 C 232.665807 299.331287 221.334926 310.6661 210.998741 315.667099 C 200.666488 320.668099 191.332861 319.331353 179.667794 314.668472 C 167.998796 310.001659 153.998356 302.000846 148.667102 295.332847 C 143.331916 288.668779 146.665916 283.333593 152.331356 282.00078 C 158.000728 280.667966 166.001541 283.333593 173.998422 286.667593 Z M 173.998422 286.667593 " transform="matrix(0.993551, 0, 0, -0.993551, -134.477939, 376.174458)"/>
<path fill-rule="evenodd" fill="rgb(67.799377%, 84.698486%, 90.19928%)" fill-opacity="0.3" stroke-width="0.4" stroke-linecap="butt" stroke-linejoin="round" stroke="rgb(67.799377%, 84.698486%, 90.19928%)" stroke-opacity="0.3" stroke-miterlimit="10" d="M 349.666391 362.999672 C 342.668137 362.665485 333.33451 359.331486 327.000697 356.331672 C 320.666884 353.331859 317.332885 350.666232 313.334444 348.000605 C 309.332072 345.331046 304.665259 342.665419 299.998446 340.998419 C 295.331633 339.33142 290.668751 338.666979 286.332193 338.332792 C 281.999566 337.998606 278.001125 337.998606 274.667125 337.668351 C 271.333126 337.334165 268.667499 336.665792 266.332126 334.998793 C 264.000686 333.331793 261.9995 330.666166 260.666686 327.001911 C 259.333872 323.333726 258.6655 318.666912 258.6655 314.000099 C 258.6655 309.333286 259.333872 304.666473 259.998313 300.333846 C 260.666686 296.001219 261.331127 291.998847 263.666499 289.667406 C 266.001872 287.332034 270.000312 286.667593 273.998753 287.001779 C 278.001125 287.332034 281.999566 288.668779 284.334938 290.666034 C 286.666379 292.66722 287.334751 295.332847 286.666379 299.331287 C 286.001938 303.333659 284.000752 308.668845 283.666565 313.001472 C 283.332379 317.334099 284.665193 320.668099 290.000378 323.998167 C 295.331633 327.332166 304.665259 330.666166 315.331699 333.665979 C 325.998139 336.665792 338.001323 339.33142 347.33495 341.666792 C 356.668576 343.998233 363.332644 345.999419 365.668016 348.334791 C 367.999457 350.666232 365.998271 353.331859 365.33383 354.998859 C 364.665457 356.665859 365.33383 357.334231 363.332644 359.001231 C 361.331458 360.668231 356.668576 363.333858 349.666391 362.999672 Z M 349.666391 362.999672 " transform="matrix(0.993551, 0, 0, -0.993551, -134.477939, 376.174458)"/>
<path fill-rule="evenodd" fill="rgb(93.299866%, 50.999451%, 93.299866%)" fill-opacity="0.3" stroke-width="0.4" stroke-linecap="butt" stroke-linejoin="round" stroke="rgb(93.299866%, 50.999451%, 93.299866%)" stroke-opacity="0.3" stroke-miterlimit="10" d="M 198.665301 346.667791 C 203.332115 340.668165 198.665301 335.332979 192.999861 330.33198 C 187.334421 325.334912 180.666421 320.668099 173.998422 317.99854 C 167.334355 315.332913 160.666355 314.668472 156.333728 322.999539 C 152.001102 331.334538 149.999915 348.665046 152.001102 357.334231 C 153.998356 365.999485 160.001914 365.999485 169.999982 362.665485 C 179.998049 359.331486 193.998488 352.667418 198.665301 346.667791 Z M 198.665301 346.667791 " transform="matrix(0.993551, 0, 0, -0.993551, -134.477939, 376.174458)"/>
<path fill-rule="evenodd" fill="rgb(56.498718%, 93.299866%, 56.498718%)" fill-opacity="0.3" stroke-width="0.4" stroke-linecap="butt" stroke-linejoin="round" stroke="rgb(56.498718%, 93.299866%, 56.498718%)" stroke-opacity="0.3" stroke-miterlimit="10" d="M 250.334432 366.333671 C 266.001872 364.666671 286.001938 365.331112 296.334191 361.666858 C 306.666445 357.998672 307.334818 350.001791 301.999632 345.999419 C 296.668378 342.000978 285.333565 342.000978 276.334125 341.666792 C 267.334685 341.332606 260.666686 340.668165 256.668245 335.332979 C 252.665873 330.001725 251.33306 319.999726 248.667433 313.001472 C 246.001806 305.999286 241.999433 302.000846 237.33262 302.000846 C 232.665807 302.000846 227.334553 305.999286 225.667553 311.998913 C 224.000553 317.99854 226.001739 325.999353 227.334553 331.998979 C 228.667366 337.998606 229.331807 342.000978 225.667553 345.331046 C 221.999367 348.665046 213.998554 351.334604 208.333114 355.333045 C 202.667674 359.331486 199.333674 364.666671 200.332301 368.334857 C 201.33486 371.999112 206.666114 374.000298 215.001113 373.00167 C 223.332181 371.999112 234.666993 368.000671 250.334432 366.333671 Z M 250.334432 366.333671 " transform="matrix(0.993551, 0, 0, -0.993551, -134.477939, 376.174458)"/>
<path fill-rule="evenodd" fill="rgb(100%, 60.099792%, 60.099792%)" fill-opacity="0.3" d="M 225.519531 69.167969 C 233.796875 62.210938 240.421875 56.25 241.746094 51.28125 C 243.070312 46.316406 239.097656 42.339844 232.140625 41.015625 C 225.1875 39.691406 215.253906 41.015625 204.984375 41.679688 C 194.71875 42.339844 184.121094 42.339844 178.492188 46.316406 C 172.859375 50.289062 172.199219 58.238281 175.511719 65.855469 C 178.820312 73.472656 186.109375 80.757812 190.414062 85.0625 C 194.71875 89.367188 196.042969 90.695312 201.671875 87.382812 C 207.304688 84.070312 217.238281 76.121094 225.519531 69.167969 Z M 225.519531 69.167969 "/>
<g clip-path="url(#clip-0)">
<path fill="none" stroke-width="0.4" stroke-linecap="butt" stroke-linejoin="round" stroke="rgb(100%, 60.099792%, 60.099792%)" stroke-opacity="0.3" stroke-miterlimit="10" d="M 362.334016 308.9991 C 370.665084 316.001285 377.333083 322.000912 378.665897 327.001911 C 379.99871 331.998979 376.00027 336.001352 368.998084 337.334165 C 361.99983 338.666979 352.001763 337.334165 341.665578 336.665792 C 331.333324 336.001352 320.666884 336.001352 315.001444 331.998979 C 309.332072 328.000539 308.667631 319.999726 312.001631 312.333099 C 315.331699 304.666473 322.668071 297.334033 327.000697 293.001406 C 331.333324 288.668779 332.666138 287.332034 338.331578 290.666034 C 344.00095 294.000033 353.999017 302.000846 362.334016 308.9991 Z M 362.334016 308.9991 " transform="matrix(0.993551, 0, 0, -0.993551, -134.477939, 376.174458)"/>
</g>
<g clip-path="url(#clip-1)">
<path fill="none" stroke-width="1.2" stroke-linecap="butt" stroke-linejoin="round" stroke="rgb(0%, 0%, 0%)" stroke-opacity="1" stroke-miterlimit="10" d="M 155.999542 290.001593 C 155.999542 290.001593 155.999542 290.001593 152.001102 298.666846 C 147.998729 307.3321 140.001848 324.666539 137.666476 339.001165 C 135.331103 353.331859 138.665103 364.666671 148.667102 371.000484 C 158.665169 377.334297 175.331236 378.667111 187.334421 376.665925 C 199.333674 374.66867 206.666114 369.333485 210.3343 366.667857 C 213.998554 363.998299 213.998554 363.998299 213.998554 363.998299 " transform="matrix(0.993551, 0, 0, -0.993551, -134.477939, 376.174458)"/>
</g>
<path fill="none" stroke-width="1.2" stroke-linecap="butt" stroke-linejoin="round" stroke="rgb(0%, 0%, 0%)" stroke-opacity="1" stroke-miterlimit="10" d="M 198.000861 308.000473 L 192.001234 343.998233 " transform="matrix(0.993551, 0, 0, -0.993551, -134.477939, 376.174458)"/>
<path fill="none" stroke-width="1.2" stroke-linecap="butt" stroke-linejoin="round" stroke="rgb(0%, 0%, 0%)" stroke-opacity="1" stroke-miterlimit="10" d="M 226.001739 283.998034 L 272.001498 297.998474 " transform="matrix(0.993551, 0, 0, -0.993551, -134.477939, 376.174458)"/>
<path fill="none" stroke-width="1.2" stroke-linecap="butt" stroke-linejoin="round" stroke="rgb(0%, 0%, 0%)" stroke-opacity="1" stroke-miterlimit="10" d="M 296.000005 354.000232 L 352.001763 351.999045 " transform="matrix(0.993551, 0, 0, -0.993551, -134.477939, 376.174458)"/>
<path fill="none" stroke-width="1.2" stroke-linecap="butt" stroke-linejoin="round" stroke="rgb(0%, 0%, 0%)" stroke-opacity="1" stroke-miterlimit="10" d="M 352.001763 351.999045 L 365.998271 328.000539 " transform="matrix(0.993551, 0, 0, -0.993551, -134.477939, 376.174458)"/>
<path fill="none" stroke-width="1.2" stroke-linecap="butt" stroke-linejoin="round" stroke="rgb(0%, 0%, 0%)" stroke-opacity="1" stroke-miterlimit="10" d="M 192.001234 343.998233 L 213.998554 363.998299 " transform="matrix(0.993551, 0, 0, -0.993551, -134.477939, 376.174458)"/>
<path fill="none" stroke-width="1.2" stroke-linecap="butt" stroke-linejoin="round" stroke="rgb(0%, 0%, 0%)" stroke-opacity="1" stroke-miterlimit="10" d="M 198.000861 308.000473 L 238.000993 311.998913 " transform="matrix(0.993551, 0, 0, -0.993551, -134.477939, 376.174458)"/>
<g clip-path="url(#clip-2)">
<path fill="none" stroke-width="1.2" stroke-linecap="butt" stroke-linejoin="round" stroke="rgb(0%, 0%, 0%)" stroke-opacity="1" stroke-miterlimit="10" d="M 169.999982 323.998167 C 169.999982 323.998167 169.999982 323.998167 172.001168 316.33154 C 173.998422 308.668845 178.000794 293.331661 191.667048 283.998034 C 205.333301 274.66834 228.667366 271.33434 253.998687 274.66834 C 279.333939 277.998408 306.666445 288.000406 320.332698 293.001406 C 333.998951 297.998474 333.998951 297.998474 333.998951 297.998474 " transform="matrix(0.993551, 0, 0, -0.993551, -134.477939, 376.174458)"/>
</g>
<path fill="none" stroke-width="2" stroke-linecap="round" stroke-linejoin="round" stroke="rgb(100%, 49.798584%, 31.399536%)" stroke-opacity="0.5" stroke-miterlimit="10" d="M 226.001739 283.998034 L 198.000861 308.000473 " transform="matrix(0.993551, 0, 0, -0.993551, -134.477939, 376.174458)"/>
<path fill="none" stroke-width="2" stroke-linecap="round" stroke-linejoin="round" stroke="rgb(62.69989%, 12.5%, 94.099426%)" stroke-opacity="0.5" stroke-miterlimit="10" d="M 160.001914 356.001418 L 169.999982 323.998167 " transform="matrix(0.993551, 0, 0, -0.993551, -134.477939, 376.174458)"/>
<path fill="none" stroke-width="2" stroke-linecap="round" stroke-linejoin="round" stroke="rgb(62.69989%, 12.5%, 94.099426%)" stroke-opacity="0.5" stroke-miterlimit="10" d="M 160.001914 356.001418 L 192.001234 343.998233 " transform="matrix(0.993551, 0, 0, -0.993551, -134.477939, 376.174458)"/>
<path fill="none" stroke-width="2" stroke-linecap="round" stroke-linejoin="round" stroke="rgb(0%, 39.199829%, 0%)" stroke-opacity="0.5" stroke-miterlimit="10" d="M 213.998554 363.998299 L 244.000619 351.999045 " transform="matrix(0.993551, 0, 0, -0.993551, -134.477939, 376.174458)"/>
<path fill="none" stroke-width="2" stroke-linecap="round" stroke-linejoin="round" stroke="rgb(0%, 39.199829%, 0%)" stroke-opacity="0.5" stroke-miterlimit="10" d="M 244.000619 351.999045 L 238.000993 311.998913 " transform="matrix(0.993551, 0, 0, -0.993551, -134.477939, 376.174458)"/>
<path fill="none" stroke-width="2" stroke-linecap="round" stroke-linejoin="round" stroke="rgb(0%, 39.199829%, 0%)" stroke-opacity="0.5" stroke-miterlimit="10" d="M 244.000619 351.999045 L 296.000005 354.000232 " transform="matrix(0.993551, 0, 0, -0.993551, -134.477939, 376.174458)"/>
<path fill="none" stroke-width="2" stroke-linecap="round" stroke-linejoin="round" stroke="rgb(0%, 0%, 54.499817%)" stroke-opacity="0.5" stroke-miterlimit="10" d="M 273.998753 328.000539 L 352.001763 351.999045 " transform="matrix(0.993551, 0, 0, -0.993551, -134.477939, 376.174458)"/>
<path fill="none" stroke-width="2" stroke-linecap="round" stroke-linejoin="round" stroke="rgb(0%, 0%, 54.499817%)" stroke-opacity="0.5" stroke-miterlimit="10" d="M 273.998753 328.000539 L 272.001498 297.998474 " transform="matrix(0.993551, 0, 0, -0.993551, -134.477939, 376.174458)"/>
<path fill="none" stroke-width="2" stroke-linecap="round" stroke-linejoin="round" stroke="rgb(54.499817%, 0%, 0%)" stroke-opacity="0.5" stroke-miterlimit="10" d="M 365.998271 328.000539 L 318.001257 330.001725 " transform="matrix(0.993551, 0, 0, -0.993551, -134.477939, 376.174458)"/>
<path fill="none" stroke-width="2" stroke-linecap="round" stroke-linejoin="round" stroke="rgb(54.499817%, 0%, 0%)" stroke-opacity="0.5" stroke-miterlimit="10" d="M 333.998951 297.998474 L 365.998271 328.000539 " transform="matrix(0.993551, 0, 0, -0.993551, -134.477939, 376.174458)"/>
<path fill="none" stroke-width="2" stroke-linecap="round" stroke-linejoin="round" stroke="rgb(100%, 49.798584%, 31.399536%)" stroke-opacity="0.5" stroke-miterlimit="10" d="M 155.999542 290.001593 L 198.000861 308.000473 " transform="matrix(0.993551, 0, 0, -0.993551, -134.477939, 376.174458)"/>
</svg>
