<?xml version="1.0" encoding="UTF-8"?>
<svg xmlns="http://www.w3.org/2000/svg" xmlns:xlink="http://www.w3.org/1999/xlink" width="243.508" height="106.31" viewBox="0 0 243.508 106.31">
<defs>
<clipPath id="clip-0">
<path clip-rule="nonzero" d="M 0.539062 0 L 79 0 L 79 89 L 0.539062 89 Z M 0.539062 0 "/>
</clipPath>
<clipPath id="clip-1">
<path clip-rule="nonzero" d="M 33 53 L 198 53 L 198 105.625 L 33 105.625 Z M 33 53 "/>
</clipPath>
<clipPath id="clip-2">
<path clip-rule="nonzero" d="M 173 40 L 242.476562 40 L 242.476562 90 L 173 90 Z M 173 40 "/>
</clipPath>
</defs>
<path fill-rule="evenodd" fill="rgb(100%, 49.798584%, 31.399536%)" fill-opacity="0.3" stroke-width="0.4" stroke-linecap="butt" stroke-linejoin="round" stroke="rgb(100%, 49.798584%, 31.399536%)" stroke-opacity="0.3" stroke-miterlimit="10" d="M 173.998422 286.667593 C 181.999235 290.001593 190.000048 294.000033 198.331115 291.668592 C 206.666114 289.33322 215.331368 280.667966 223.001926 279.000966 C 230.668553 277.333967 237.33262 282.665221 235.001179 291.00022 C 232.665807 299.331287 221.334926 310.6661 210.998741 315.667099 C 200.666488 320.668099 191.332861 319.331353 179.667794 314.668472 C 167.998796 310.001659 153.998356 302.000846 148.667102 295.332847 C 143.331916 288.668779 146.665916 283.333593 152.331356 282.00078 C 158.000728 280.667966 166.001541 283.333593 173.998422 286.667593 Z M 173.998422 286.667593 " transform="matrix(0.993551, 0, 0, -0.993551, -134.477939, 376.174458)"/>
<g clip-path="url(#clip-0)">
<path fill="none" stroke-width="1.2" stroke-linecap="butt" stroke-linejoin="round" stroke="rgb(62.5%, 62.5%, 62.5%)" stroke-opacity="1" stroke-miterlimit="10" d="M 155.999542 290.001593 C 155.999542 290.001593 155.999542 290.001593 152.001102 298.666846 C 147.998729 307.3321 140.001848 324.666539 137.666476 339.001165 C 135.331103 353.331859 138.665103 364.666671 148.667102 371.000484 C 158.665169 377.334297 175.331236 378.667111 187.334421 376.665925 C 199.333674 374.66867 206.666114 369.333485 210.3343 366.667857 C 213.998554 363.998299 213.998554 363.998299 213.998554 363.998299 " transform="matrix(0.993551, 0, 0, -0.993551, -134.477939, 376.174458)"/>
</g>
<path fill="none" stroke-width="1.2" stroke-linecap="butt" stroke-linejoin="round" stroke="rgb(62.5%, 62.5%, 62.5%)" stroke-opacity="1" stroke-miterlimit="10" d="M 198.000861 308.000473 L 192.001234 343.998233 " transform="matrix(0.993551, 0, 0, -0.993551, -134.477939, 376.174458)"/>
<path fill="none" stroke-width="1.2" stroke-linecap="butt" stroke-linejoin="round" stroke="rgb(62.5%, 62.5%, 62.5%)" stroke-opacity="1" stroke-miterlimit="10" d="M 226.001739 283.998034 L 272.001498 297.998474 " transform="matrix(0.993551, 0, 0, -0.993551, -134.477939, 376.174458)"/>
<path fill="none" stroke-width="1.2" stroke-linecap="butt" stroke-linejoin="round" stroke="rgb(62.5%, 62.5%, 62.5%)" stroke-opacity="1" stroke-miterlimit="10" d="M 296.000005 354.000232 L 352.001763 351.999045 " transform="matrix(0.993551, 0, 0, -0.993551, -134.477939, 376.174458)"/>
<path fill="none" stroke-width="1.2" stroke-linecap="butt" stroke-linejoin="round" stroke="rgb(62.5%, 62.5%, 62.5%)" stroke-opacity="1" stroke-miterlimit="10" d="M 352.001763 351.999045 L 365.998271 328.000539 " transform="matrix(0.993551, 0, 0, -0.993551, -134.477939, 376.174458)"/>
<path fill="none" stroke-width="1.2" stroke-linecap="butt" stroke-linejoin="round" stroke="rgb(62.5%, 62.5%, 62.5%)" stroke-opacity="1" stroke-miterlimit="10" d="M 192.001234 343.998233 L 213.998554 363.998299 " transform="matrix(0.993551, 0, 0, -0.993551, -134.477939, 376.174458)"/>
<path fill="none" stroke-width="1.2" stroke-linecap="butt" stroke-linejoin="round" stroke="rgb(62.5%, 62.5%, 62.5%)" stroke-opacity="1" stroke-miterlimit="10" d="M 198.000861 308.000473 L 238.000993 311.998913 " transform="matrix(0.993551, 0, 0, -0.993551, -134.477939, 376.174458)"/>
<g clip-path="url(#clip-1)">
<path fill="none" stroke-width="1.2" stroke-linecap="butt" stroke-linejoin="round" stroke="rgb(62.5%, 62.5%, 62.5%)" stroke-opacity="1" stroke-miterlimit="10" d="M 169.999982 323.998167 C 169.999982 323.998167 169.999982 323.998167 172.001168 316.33154 C 173.998422 308.668845 178.000794 293.331661 191.667048 283.998034 C 205.333301 274.66834 228.667366 271.33434 253.998687 274.66834 C 279.333939 277.998408 306.666445 288.000406 320.332698 293.001406 C 333.998951 297.998474 333.998951 297.998474 333.998951 297.998474 " transform="matrix(0.993551, 0, 0, -0.993551, -134.477939, 376.174458)"/>
</g>
<path fill-rule="evenodd" fill="rgb(62.5%, 62.5%, 62.5%)" fill-opacity="1" d="M 64.730469 70.160156 C 64.730469 68.789062 63.617188 67.675781 62.246094 67.675781 C 60.875 67.675781 59.761719 68.789062 59.761719 70.160156 C 59.761719 71.53125 60.875 72.644531 62.246094 72.644531 C 63.617188 72.644531 64.730469 71.53125 64.730469 70.160156 "/>
<path fill-rule="evenodd" fill="rgb(62.5%, 62.5%, 62.5%)" fill-opacity="1" d="M 65.226562 70.160156 C 65.226562 68.515625 63.890625 67.179688 62.246094 67.179688 C 60.597656 67.179688 59.265625 68.515625 59.265625 70.160156 C 59.265625 71.808594 60.597656 73.140625 62.246094 73.140625 C 63.890625 73.140625 65.226562 71.808594 65.226562 70.160156 M 64.230469 70.160156 C 64.230469 69.0625 63.34375 68.171875 62.246094 68.171875 C 61.148438 68.171875 60.257812 69.0625 60.257812 70.160156 C 60.257812 71.257812 61.148438 72.148438 62.246094 72.148438 C 63.34375 72.148438 64.230469 71.257812 64.230469 70.160156 "/>
<path fill-rule="evenodd" fill="rgb(62.5%, 62.5%, 62.5%)" fill-opacity="1" d="M 58.769531 34.394531 C 58.769531 33.019531 57.65625 31.910156 56.285156 31.910156 C 54.910156 31.910156 53.800781 33.019531 53.800781 34.394531 C 53.800781 35.765625 54.910156 36.875 56.285156 36.875 C 57.65625 36.875 58.769531 35.765625 58.769531 34.394531 "/>
<path fill-rule="evenodd" fill="rgb(62.5%, 62.5%, 62.5%)" fill-opacity="1" d="M 59.265625 34.394531 C 59.265625 32.746094 57.929688 31.414062 56.285156 31.414062 C 54.636719 31.414062 53.304688 32.746094 53.304688 34.394531 C 53.304688 36.039062 54.636719 37.375 56.285156 37.375 C 57.929688 37.375 59.265625 36.039062 59.265625 34.394531 M 58.269531 34.394531 C 58.269531 33.292969 57.382812 32.40625 56.285156 32.40625 C 55.1875 32.40625 54.296875 33.292969 54.296875 34.394531 C 54.296875 35.492188 55.1875 36.378906 56.285156 36.378906 C 57.382812 36.378906 58.269531 35.492188 58.269531 34.394531 "/>
<path fill-rule="evenodd" fill="rgb(62.5%, 62.5%, 62.5%)" fill-opacity="1" d="M 110.433594 26.445312 C 110.433594 25.074219 109.320312 23.960938 107.949219 23.960938 C 106.578125 23.960938 105.464844 25.074219 105.464844 26.445312 C 105.464844 27.816406 106.578125 28.929688 107.949219 28.929688 C 109.320312 28.929688 110.433594 27.816406 110.433594 26.445312 "/>
<path fill-rule="evenodd" fill="rgb(62.5%, 62.5%, 62.5%)" fill-opacity="1" d="M 110.929688 26.445312 C 110.929688 24.796875 109.59375 23.464844 107.949219 23.464844 C 106.300781 23.464844 104.96875 24.796875 104.96875 26.445312 C 104.96875 28.089844 106.300781 29.425781 107.949219 29.425781 C 109.59375 29.425781 110.929688 28.089844 110.929688 26.445312 M 109.9375 26.445312 C 109.9375 25.347656 109.046875 24.457031 107.949219 24.457031 C 106.851562 24.457031 105.960938 25.347656 105.960938 26.445312 C 105.960938 27.542969 106.851562 28.429688 107.949219 28.429688 C 109.046875 28.429688 109.9375 27.542969 109.9375 26.445312 "/>
<path fill-rule="evenodd" fill="rgb(62.5%, 62.5%, 62.5%)" fill-opacity="1" d="M 104.472656 66.1875 C 104.472656 64.8125 103.359375 63.703125 101.988281 63.703125 C 100.613281 63.703125 99.503906 64.8125 99.503906 66.1875 C 99.503906 67.558594 100.613281 68.671875 101.988281 68.671875 C 103.359375 68.671875 104.472656 67.558594 104.472656 66.1875 "/>
<path fill-rule="evenodd" fill="rgb(62.5%, 62.5%, 62.5%)" fill-opacity="1" d="M 104.96875 66.1875 C 104.96875 64.539062 103.632812 63.207031 101.988281 63.207031 C 100.339844 63.207031 99.007812 64.539062 99.007812 66.1875 C 99.007812 67.832031 100.339844 69.167969 101.988281 69.167969 C 103.632812 69.167969 104.96875 67.832031 104.96875 66.1875 M 103.972656 66.1875 C 103.972656 65.089844 103.085938 64.199219 101.988281 64.199219 C 100.890625 64.199219 100 65.089844 100 66.1875 C 100 67.285156 100.890625 68.171875 101.988281 68.171875 C 103.085938 68.171875 103.972656 67.285156 103.972656 66.1875 "/>
<path fill-rule="evenodd" fill="rgb(62.5%, 62.5%, 62.5%)" fill-opacity="1" d="M 138.25 80.097656 C 138.25 78.722656 137.140625 77.613281 135.769531 77.613281 C 134.394531 77.613281 133.285156 78.722656 133.285156 80.097656 C 133.285156 81.46875 134.394531 82.578125 135.769531 82.578125 C 137.140625 82.578125 138.25 81.46875 138.25 80.097656 "/>
<path fill-rule="evenodd" fill="rgb(62.5%, 62.5%, 62.5%)" fill-opacity="1" d="M 138.75 80.097656 C 138.75 78.449219 137.414062 77.117188 135.769531 77.117188 C 134.121094 77.117188 132.789062 78.449219 132.789062 80.097656 C 132.789062 81.742188 134.121094 83.078125 135.769531 83.078125 C 137.414062 83.078125 138.75 81.742188 138.75 80.097656 M 137.753906 80.097656 C 137.753906 79 136.867188 78.109375 135.769531 78.109375 C 134.671875 78.109375 133.78125 79 133.78125 80.097656 C 133.78125 81.195312 134.671875 82.082031 135.769531 82.082031 C 136.867188 82.082031 137.753906 81.195312 137.753906 80.097656 "/>
<path fill-rule="evenodd" fill="rgb(62.5%, 62.5%, 62.5%)" fill-opacity="1" d="M 140.238281 50.289062 C 140.238281 48.917969 139.128906 47.804688 137.753906 47.804688 C 136.382812 47.804688 135.269531 48.917969 135.269531 50.289062 C 135.269531 51.660156 136.382812 52.773438 137.753906 52.773438 C 139.128906 52.773438 140.238281 51.660156 140.238281 50.289062 "/>
<path fill-rule="evenodd" fill="rgb(62.5%, 62.5%, 62.5%)" fill-opacity="1" d="M 140.734375 50.289062 C 140.734375 48.644531 139.402344 47.308594 137.753906 47.308594 C 136.109375 47.308594 134.773438 48.644531 134.773438 50.289062 C 134.773438 51.9375 136.109375 53.269531 137.753906 53.269531 C 139.402344 53.269531 140.734375 51.9375 140.734375 50.289062 M 139.742188 50.289062 C 139.742188 49.191406 138.851562 48.300781 137.753906 48.300781 C 136.65625 48.300781 135.769531 49.191406 135.769531 50.289062 C 135.769531 51.386719 136.65625 52.277344 137.753906 52.277344 C 138.851562 52.277344 139.742188 51.386719 139.742188 50.289062 "/>
<path fill-rule="evenodd" fill="rgb(62.5%, 62.5%, 62.5%)" fill-opacity="1" d="M 162.097656 24.457031 C 162.097656 23.085938 160.984375 21.972656 159.613281 21.972656 C 158.242188 21.972656 157.128906 23.085938 157.128906 24.457031 C 157.128906 25.828125 158.242188 26.941406 159.613281 26.941406 C 160.984375 26.941406 162.097656 25.828125 162.097656 24.457031 "/>
<path fill-rule="evenodd" fill="rgb(62.5%, 62.5%, 62.5%)" fill-opacity="1" d="M 162.59375 24.457031 C 162.59375 22.8125 161.257812 21.476562 159.613281 21.476562 C 157.96875 21.476562 156.632812 22.8125 156.632812 24.457031 C 156.632812 26.105469 157.96875 27.4375 159.613281 27.4375 C 161.257812 27.4375 162.59375 26.105469 162.59375 24.457031 M 161.601562 24.457031 C 161.601562 23.359375 160.710938 22.46875 159.613281 22.46875 C 158.515625 22.46875 157.625 23.359375 157.625 24.457031 C 157.625 25.554688 158.515625 26.445312 159.613281 26.445312 C 160.710938 26.445312 161.601562 25.554688 161.601562 24.457031 "/>
<path fill-rule="evenodd" fill="rgb(62.5%, 62.5%, 62.5%)" fill-opacity="1" d="M 183.957031 48.300781 C 183.957031 46.929688 182.84375 45.820312 181.472656 45.820312 C 180.097656 45.820312 178.988281 46.929688 178.988281 48.300781 C 178.988281 49.675781 180.097656 50.785156 181.472656 50.785156 C 182.84375 50.785156 183.957031 49.675781 183.957031 48.300781 "/>
<path fill-rule="evenodd" fill="rgb(62.5%, 62.5%, 62.5%)" fill-opacity="1" d="M 184.453125 48.300781 C 184.453125 46.65625 183.117188 45.320312 181.472656 45.320312 C 179.824219 45.320312 178.492188 46.65625 178.492188 48.300781 C 178.492188 49.949219 179.824219 51.28125 181.472656 51.28125 C 183.117188 51.28125 184.453125 49.949219 184.453125 48.300781 M 183.457031 48.300781 C 183.457031 47.203125 182.570312 46.316406 181.472656 46.316406 C 180.375 46.316406 179.484375 47.203125 179.484375 48.300781 C 179.484375 49.398438 180.375 50.289062 181.472656 50.289062 C 182.570312 50.289062 183.457031 49.398438 183.457031 48.300781 "/>
<path fill-rule="evenodd" fill="rgb(62.5%, 62.5%, 62.5%)" fill-opacity="1" d="M 199.851562 80.097656 C 199.851562 78.722656 198.742188 77.613281 197.367188 77.613281 C 195.996094 77.613281 194.882812 78.722656 194.882812 80.097656 C 194.882812 81.46875 195.996094 82.578125 197.367188 82.578125 C 198.742188 82.578125 199.851562 81.46875 199.851562 80.097656 "/>
<path fill-rule="evenodd" fill="rgb(62.5%, 62.5%, 62.5%)" fill-opacity="1" d="M 200.347656 80.097656 C 200.347656 78.449219 199.015625 77.117188 197.367188 77.117188 C 195.722656 77.117188 194.386719 78.449219 194.386719 80.097656 C 194.386719 81.742188 195.722656 83.078125 197.367188 83.078125 C 199.015625 83.078125 200.347656 81.742188 200.347656 80.097656 M 199.355469 80.097656 C 199.355469 79 198.464844 78.109375 197.367188 78.109375 C 196.269531 78.109375 195.382812 79 195.382812 80.097656 C 195.382812 81.195312 196.269531 82.082031 197.367188 82.082031 C 198.464844 82.082031 199.355469 81.195312 199.355469 80.097656 "/>
<path fill-rule="evenodd" fill="rgb(62.5%, 62.5%, 62.5%)" fill-opacity="1" d="M 217.734375 26.445312 C 217.734375 25.074219 216.625 23.960938 215.253906 23.960938 C 213.878906 23.960938 212.769531 25.074219 212.769531 26.445312 C 212.769531 27.816406 213.878906 28.929688 215.253906 28.929688 C 216.625 28.929688 217.734375 27.816406 217.734375 26.445312 "/>
<path fill-rule="evenodd" fill="rgb(62.5%, 62.5%, 62.5%)" fill-opacity="1" d="M 218.234375 26.445312 C 218.234375 24.796875 216.898438 23.464844 215.253906 23.464844 C 213.605469 23.464844 212.273438 24.796875 212.273438 26.445312 C 212.273438 28.089844 213.605469 29.425781 215.253906 29.425781 C 216.898438 29.425781 218.234375 28.089844 218.234375 26.445312 M 217.238281 26.445312 C 217.238281 25.347656 216.351562 24.457031 215.253906 24.457031 C 214.152344 24.457031 213.265625 25.347656 213.265625 26.445312 C 213.265625 27.542969 214.152344 28.429688 215.253906 28.429688 C 216.351562 28.429688 217.238281 27.542969 217.238281 26.445312 "/>
<path fill-rule="evenodd" fill="rgb(62.5%, 62.5%, 62.5%)" fill-opacity="1" d="M 231.644531 50.289062 C 231.644531 48.917969 230.535156 47.804688 229.160156 47.804688 C 227.789062 47.804688 226.679688 48.917969 226.679688 50.289062 C 226.679688 51.660156 227.789062 52.773438 229.160156 52.773438 C 230.535156 52.773438 231.644531 51.660156 231.644531 50.289062 "/>
<path fill-rule="evenodd" fill="rgb(62.5%, 62.5%, 62.5%)" fill-opacity="1" d="M 232.140625 50.289062 C 232.140625 48.644531 230.808594 47.308594 229.160156 47.308594 C 227.515625 47.308594 226.179688 48.644531 226.179688 50.289062 C 226.179688 51.9375 227.515625 53.269531 229.160156 53.269531 C 230.808594 53.269531 232.140625 51.9375 232.140625 50.289062 M 231.148438 50.289062 C 231.148438 49.191406 230.257812 48.300781 229.160156 48.300781 C 228.0625 48.300781 227.175781 49.191406 227.175781 50.289062 C 227.175781 51.386719 228.0625 52.277344 229.160156 52.277344 C 230.257812 52.277344 231.148438 51.386719 231.148438 50.289062 "/>
<path fill-rule="evenodd" fill="rgb(62.5%, 62.5%, 62.5%)" fill-opacity="1" d="M 36.910156 54.265625 C 36.910156 52.890625 35.796875 51.78125 34.425781 51.78125 C 33.054688 51.78125 31.941406 52.890625 31.941406 54.265625 C 31.941406 55.636719 33.054688 56.746094 34.425781 56.746094 C 35.796875 56.746094 36.910156 55.636719 36.910156 54.265625 "/>
<path fill-rule="evenodd" fill="rgb(62.5%, 62.5%, 62.5%)" fill-opacity="1" d="M 37.40625 54.265625 C 37.40625 52.617188 36.070312 51.28125 34.425781 51.28125 C 32.78125 51.28125 31.445312 52.617188 31.445312 54.265625 C 31.445312 55.910156 32.78125 57.246094 34.425781 57.246094 C 36.070312 57.246094 37.40625 55.910156 37.40625 54.265625 M 36.414062 54.265625 C 36.414062 53.164062 35.523438 52.277344 34.425781 52.277344 C 33.328125 52.277344 32.4375 53.164062 32.4375 54.265625 C 32.4375 55.363281 33.328125 56.25 34.425781 56.25 C 35.523438 56.25 36.414062 55.363281 36.414062 54.265625 "/>
<path fill-rule="evenodd" fill="rgb(62.5%, 62.5%, 62.5%)" fill-opacity="1" d="M 80.625 14.523438 C 80.625 13.148438 79.515625 12.039062 78.140625 12.039062 C 76.769531 12.039062 75.65625 13.148438 75.65625 14.523438 C 75.65625 15.894531 76.769531 17.003906 78.140625 17.003906 C 79.515625 17.003906 80.625 15.894531 80.625 14.523438 "/>
<path fill-rule="evenodd" fill="rgb(62.5%, 62.5%, 62.5%)" fill-opacity="1" d="M 81.121094 14.523438 C 81.121094 12.875 79.789062 11.542969 78.140625 11.542969 C 76.496094 11.542969 75.160156 12.875 75.160156 14.523438 C 75.160156 16.167969 76.496094 17.503906 78.140625 17.503906 C 79.789062 17.503906 81.121094 16.167969 81.121094 14.523438 M 80.128906 14.523438 C 80.128906 13.425781 79.238281 12.535156 78.140625 12.535156 C 77.042969 12.535156 76.15625 13.425781 76.15625 14.523438 C 76.15625 15.621094 77.042969 16.507812 78.140625 16.507812 C 79.238281 16.507812 80.128906 15.621094 80.128906 14.523438 "/>
<path fill-rule="evenodd" fill="rgb(62.5%, 62.5%, 62.5%)" fill-opacity="1" d="M 26.972656 22.46875 C 26.972656 21.097656 25.863281 19.984375 24.492188 19.984375 C 23.117188 19.984375 22.007812 21.097656 22.007812 22.46875 C 22.007812 23.84375 23.117188 24.953125 24.492188 24.953125 C 25.863281 24.953125 26.972656 23.84375 26.972656 22.46875 "/>
<path fill-rule="evenodd" fill="rgb(62.5%, 62.5%, 62.5%)" fill-opacity="1" d="M 27.472656 22.46875 C 27.472656 20.824219 26.136719 19.488281 24.492188 19.488281 C 22.84375 19.488281 21.507812 20.824219 21.507812 22.46875 C 21.507812 24.117188 22.84375 25.449219 24.492188 25.449219 C 26.136719 25.449219 27.472656 24.117188 27.472656 22.46875 M 26.476562 22.46875 C 26.476562 21.371094 25.589844 20.484375 24.492188 20.484375 C 23.390625 20.484375 22.503906 21.371094 22.503906 22.46875 C 22.503906 23.566406 23.390625 24.457031 24.492188 24.457031 C 25.589844 24.457031 26.476562 23.566406 26.476562 22.46875 "/>
<path fill-rule="evenodd" fill="rgb(62.5%, 62.5%, 62.5%)" fill-opacity="1" d="M 23 88.042969 C 23 86.671875 21.886719 85.5625 20.515625 85.5625 C 19.144531 85.5625 18.03125 86.671875 18.03125 88.042969 C 18.03125 89.417969 19.144531 90.527344 20.515625 90.527344 C 21.886719 90.527344 23 89.417969 23 88.042969 "/>
<path fill-rule="evenodd" fill="rgb(62.5%, 62.5%, 62.5%)" fill-opacity="1" d="M 23.496094 88.042969 C 23.496094 86.398438 22.164062 85.0625 20.515625 85.0625 C 18.871094 85.0625 17.535156 86.398438 17.535156 88.042969 C 17.535156 89.691406 18.871094 91.023438 20.515625 91.023438 C 22.164062 91.023438 23.496094 89.691406 23.496094 88.042969 M 22.503906 88.042969 C 22.503906 86.945312 21.613281 86.058594 20.515625 86.058594 C 19.417969 86.058594 18.527344 86.945312 18.527344 88.042969 C 18.527344 89.140625 19.417969 90.03125 20.515625 90.03125 C 21.613281 90.03125 22.503906 89.140625 22.503906 88.042969 "/>
<path fill-rule="evenodd" fill="rgb(62.5%, 62.5%, 62.5%)" fill-opacity="1" d="M 92.546875 94.007812 C 92.546875 92.632812 91.4375 91.523438 90.066406 91.523438 C 88.691406 91.523438 87.582031 92.632812 87.582031 94.007812 C 87.582031 95.378906 88.691406 96.488281 90.066406 96.488281 C 91.4375 96.488281 92.546875 95.378906 92.546875 94.007812 "/>
<path fill-rule="evenodd" fill="rgb(62.5%, 62.5%, 62.5%)" fill-opacity="1" d="M 93.046875 94.007812 C 93.046875 92.359375 91.710938 91.023438 90.066406 91.023438 C 88.417969 91.023438 87.085938 92.359375 87.085938 94.007812 C 87.085938 95.652344 88.417969 96.988281 90.066406 96.988281 C 91.710938 96.988281 93.046875 95.652344 93.046875 94.007812 M 92.050781 94.007812 C 92.050781 92.90625 91.164062 92.019531 90.066406 92.019531 C 88.96875 92.019531 88.078125 92.90625 88.078125 94.007812 C 88.078125 95.105469 88.96875 95.992188 90.066406 95.992188 C 91.164062 95.992188 92.050781 95.105469 92.050781 94.007812 "/>
<path fill-rule="evenodd" fill="rgb(67.799377%, 84.698486%, 90.19928%)" fill-opacity="0.3" stroke-width="0.4" stroke-linecap="butt" stroke-linejoin="round" stroke="rgb(67.799377%, 84.698486%, 90.19928%)" stroke-opacity="0.3" stroke-miterlimit="10" d="M 349.666391 362.999672 C 342.668137 362.665485 333.33451 359.331486 327.000697 356.331672 C 320.666884 353.331859 317.332885 350.666232 313.334444 348.000605 C 309.332072 345.331046 304.665259 342.665419 299.998446 340.998419 C 295.331633 339.33142 290.668751 338.666979 286.332193 338.332792 C 281.999566 337.998606 278.001125 337.998606 274.667125 337.668351 C 271.333126 337.334165 268.667499 336.665792 266.332126 334.998793 C 264.000686 333.331793 261.9995 330.666166 260.666686 327.001911 C 259.333872 323.333726 258.6655 318.666912 258.6655 314.000099 C 258.6655 309.333286 259.333872 304.666473 259.998313 300.333846 C 260.666686 296.001219 261.331127 291.998847 263.666499 289.667406 C 266.001872 287.332034 270.000312 286.667593 273.998753 287.001779 C 278.001125 287.332034 281.999566 288.668779 284.334938 290.666034 C 286.666379 292.66722 287.334751 295.332847 286.666379 299.331287 C 286.001938 303.333659 284.000752 308.668845 283.666565 313.001472 C 283.332379 317.334099 284.665193 320.668099 290.000378 323.998167 C 295.331633 327.332166 304.665259 330.666166 315.331699 333.665979 C 325.998139 336.665792 338.001323 339.33142 347.33495 341.666792 C 356.668576 343.998233 363.332644 345.999419 365.668016 348.334791 C 367.999457 350.666232 365.998271 353.331859 365.33383 354.998859 C 364.665457 356.665859 365.33383 357.334231 363.332644 359.001231 C 361.331458 360.668231 356.668576 363.333858 349.666391 362.999672 Z M 349.666391 362.999672 " transform="matrix(0.993551, 0, 0, -0.993551, -134.477939, 376.174458)"/>
<path fill-rule="evenodd" fill="rgb(93.299866%, 50.999451%, 93.299866%)" fill-opacity="0.3" stroke-width="0.4" stroke-linecap="butt" stroke-linejoin="round" stroke="rgb(93.299866%, 50.999451%, 93.299866%)" stroke-opacity="0.3" stroke-miterlimit="10" d="M 198.665301 346.667791 C 203.332115 340.668165 198.665301 335.332979 192.999861 330.33198 C 187.334421 325.334912 180.666421 320.668099 173.998422 317.99854 C 167.334355 315.332913 160.666355 314.668472 156.333728 322.999539 C 152.001102 331.334538 149.999915 348.665046 152.001102 357.334231 C 153.998356 365.999485 160.001914 365.999485 169.999982 362.665485 C 179.998049 359.331486 193.998488 352.667418 198.665301 346.667791 Z M 198.665301 346.667791 " transform="matrix(0.993551, 0, 0, -0.993551, -134.477939, 376.174458)"/>
<path fill-rule="evenodd" fill="rgb(56.498718%, 93.299866%, 56.498718%)" fill-opacity="0.3" stroke-width="0.4" stroke-linecap="butt" stroke-linejoin="round" stroke="rgb(56.498718%, 93.299866%, 56.498718%)" stroke-opacity="0.3" stroke-miterlimit="10" d="M 250.334432 366.333671 C 266.001872 364.666671 286.001938 365.331112 296.334191 361.666858 C 306.666445 357.998672 307.334818 350.001791 301.999632 345.999419 C 296.668378 342.000978 285.333565 342.000978 276.334125 341.666792 C 267.334685 341.332606 260.666686 340.668165 256.668245 335.332979 C 252.665873 330.001725 251.33306 319.999726 248.667433 313.001472 C 246.001806 305.999286 241.999433 302.000846 237.33262 302.000846 C 232.665807 302.000846 227.334553 305.999286 225.667553 311.998913 C 224.000553 317.99854 226.001739 325.999353 227.334553 331.998979 C 228.667366 337.998606 229.331807 342.000978 225.667553 345.331046 C 221.999367 348.665046 213.998554 351.334604 208.333114 355.333045 C 202.667674 359.331486 199.333674 364.666671 200.332301 368.334857 C 201.33486 371.999112 206.666114 374.000298 215.001113 373.00167 C 223.332181 371.999112 234.666993 368.000671 250.334432 366.333671 Z M 250.334432 366.333671 " transform="matrix(0.993551, 0, 0, -0.993551, -134.477939, 376.174458)"/>
<path fill-rule="evenodd" fill="rgb(100%, 60.099792%, 60.099792%)" fill-opacity="0.3" d="M 225.519531 69.167969 C 233.796875 62.210938 240.421875 56.25 241.746094 51.28125 C 243.070312 46.316406 239.097656 42.339844 232.140625 41.015625 C 225.1875 39.691406 215.253906 41.015625 204.984375 41.679688 C 194.71875 42.339844 184.121094 42.339844 178.492188 46.316406 C 172.859375 50.289062 172.199219 58.238281 175.511719 65.855469 C 178.820312 73.472656 186.109375 80.757812 190.414062 85.0625 C 194.71875 89.367188 196.042969 90.695312 201.671875 87.382812 C 207.304688 84.070312 217.238281 76.121094 225.519531 69.167969 Z M 225.519531 69.167969 "/>
<g clip-path="url(#clip-2)">
<path fill="none" stroke-width="0.4" stroke-linecap="butt" stroke-linejoin="round" stroke="rgb(100%, 60.099792%, 60.099792%)" stroke-opacity="0.3" stroke-miterlimit="10" d="M 362.334016 308.9991 C 370.665084 316.001285 377.333083 322.000912 378.665897 327.001911 C 379.99871 331.998979 376.00027 336.001352 368.998084 337.334165 C 361.99983 338.666979 352.001763 337.334165 341.665578 336.665792 C 331.333324 336.001352 320.666884 336.001352 315.001444 331.998979 C 309.332072 328.000539 308.667631 319.999726 312.001631 312.333099 C 315.331699 304.666473 322.668071 297.334033 327.000697 293.001406 C 331.333324 288.668779 332.666138 287.332034 338.331578 290.666034 C 344.00095 294.000033 353.999017 302.000846 362.334016 308.9991 Z M 362.334016 308.9991 " transform="matrix(0.993551, 0, 0, -0.993551, -134.477939, 376.174458)"/>
</g>
<path fill="none" stroke-width="4" stroke-linecap="round" stroke-linejoin="round" stroke="rgb(100%, 49.798584%, 31.399536%)" stroke-opacity="0.3" stroke-miterlimit="10" d="M 226.001739 283.998034 L 198.000861 308.000473 " transform="matrix(0.993551, 0, 0, -0.993551, -134.477939, 376.174458)"/>
<path fill="none" stroke-width="4" stroke-linecap="round" stroke-linejoin="round" stroke="rgb(62.69989%, 12.5%, 94.099426%)" stroke-opacity="0.3" stroke-miterlimit="10" d="M 160.001914 356.001418 L 169.999982 323.998167 " transform="matrix(0.993551, 0, 0, -0.993551, -134.477939, 376.174458)"/>
<path fill="none" stroke-width="4" stroke-linecap="round" stroke-linejoin="round" stroke="rgb(62.69989%, 12.5%, 94.099426%)" stroke-opacity="0.3" stroke-miterlimit="10" d="M 160.001914 356.001418 L 192.001234 343.998233 " transform="matrix(0.993551, 0, 0, -0.993551, -134.477939, 376.174458)"/>
<path fill="none" stroke-width="4" stroke-linecap="round" stroke-linejoin="round" stroke="rgb(0%, 39.199829%, 0%)" stroke-opacity="0.3" stroke-miterlimit="10" d="M 213.998554 363.998299 L 244.000619 351.999045 " transform="matrix(0.993551, 0, 0, -0.993551, -134.477939, 376.174458)"/>
<path fill="none" stroke-width="4" stroke-linecap="round" stroke-linejoin="round" stroke="rgb(0%, 39.199829%, 0%)" stroke-opacity="0.3" stroke-miterlimit="10" d="M 244.000619 351.999045 L 238.000993 311.998913 " transform="matrix(0.993551, 0, 0, -0.993551, -134.477939, 376.174458)"/>
<path fill="none" stroke-width="4" stroke-linecap="round" stroke-linejoin="round" stroke="rgb(0%, 39.199829%, 0%)" stroke-opacity="0.3" stroke-miterlimit="10" d="M 244.000619 351.999045 L 296.000005 354.000232 " transform="matrix(0.993551, 0, 0, -0.993551, -134.477939, 376.174458)"/>
<path fill="none" stroke-width="4" stroke-linecap="round" stroke-linejoin="round" stroke="rgb(67.799377%, 84.698486%, 90.19928%)" stroke-opacity="0.3" stroke-miterlimit="10" d="M 273.998753 328.000539 L 352.001763 351.999045 " transform="matrix(0.993551, 0, 0, -0.993551, -134.477939, 376.174458)"/>
<path fill="none" stroke-width="4" stroke-linecap="round" stroke-linejoin="round" stroke="rgb(67.799377%, 84.698486%, 90.19928%)" stroke-opacity="0.3" stroke-miterlimit="10" d="M 273.998753 328.000539 L 272.001498 297.998474 " transform="matrix(0.993551, 0, 0, -0.993551, -134.477939, 376.174458)"/>
<path fill="none" stroke-width="4" stroke-linecap="round" stroke-linejoin="round" stroke="rgb(100%, 60.099792%, 60.099792%)" stroke-opacity="0.3" stroke-miterlimit="10" d="M 365.998271 328.000539 L 318.001257 330.001725 " transform="matrix(0.993551, 0, 0, -0.993551, -134.477939, 376.174458)"/>
<path fill="none" stroke-width="4" stroke-linecap="round" stroke-linejoin="round" stroke="rgb(100%, 60.099792%, 60.099792%)" stroke-opacity="0.3" stroke-miterlimit="10" d="M 333.998951 297.998474 L 365.998271 328.000539 " transform="matrix(0.993551, 0, 0, -0.993551, -134.477939, 376.174458)"/>
<path fill="none" stroke-width="4" stroke-linecap="round" stroke-linejoin="round" stroke="rgb(100%, 49.798584%, 31.399536%)" stroke-opacity="0.3" stroke-miterlimit="10" d="M 155.999542 290.001593 L 198.000861 308.000473 " transform="matrix(0.993551, 0, 0, -0.993551, -134.477939, 376.174458)"/>
<path fill-rule="evenodd" fill="rgb(0%, 39.199829%, 0%)" fill-opacity="1" d="M 116.890625 26.445312 C 116.890625 23.699219 114.664062 21.476562 111.921875 21.476562 C 109.179688 21.476562 106.953125 23.699219 106.953125 26.445312 C 106.953125 29.1875 109.179688 31.414062 111.921875 31.414062 C 114.664062 31.414062 116.890625 29.1875 116.890625 26.445312 "/>
<path fill-rule="evenodd" fill="rgb(0%, 100%, 0%)" fill-opacity="1" d="M 117.882812 26.445312 C 117.882812 23.152344 115.214844 20.484375 111.921875 20.484375 C 108.628906 20.484375 105.960938 23.152344 105.960938 26.445312 C 105.960938 29.738281 108.628906 32.40625 111.921875 32.40625 C 115.214844 32.40625 117.882812 29.738281 117.882812 26.445312 M 115.898438 26.445312 C 115.898438 24.25 114.117188 22.46875 111.921875 22.46875 C 109.726562 22.46875 107.949219 24.25 107.949219 26.445312 C 107.949219 28.640625 109.726562 30.417969 111.921875 30.417969 C 114.117188 30.417969 115.898438 28.640625 115.898438 26.445312 "/>
<path fill-rule="evenodd" fill="rgb(0%, 0%, 54.499817%)" fill-opacity="1" d="M 142.722656 52.277344 C 142.722656 49.535156 140.5 47.308594 137.753906 47.308594 C 135.011719 47.308594 132.789062 49.535156 132.789062 52.277344 C 132.789062 55.019531 135.011719 57.246094 137.753906 57.246094 C 140.5 57.246094 142.722656 55.019531 142.722656 52.277344 "/>
<path fill-rule="evenodd" fill="rgb(0%, 0%, 100%)" fill-opacity="1" d="M 143.714844 52.277344 C 143.714844 48.984375 141.046875 46.316406 137.753906 46.316406 C 134.460938 46.316406 131.792969 48.984375 131.792969 52.277344 C 131.792969 55.570312 134.460938 58.238281 137.753906 58.238281 C 141.046875 58.238281 143.714844 55.570312 143.714844 52.277344 M 141.730469 52.277344 C 141.730469 50.082031 139.949219 48.300781 137.753906 48.300781 C 135.558594 48.300781 133.78125 50.082031 133.78125 52.277344 C 133.78125 54.472656 135.558594 56.25 137.753906 56.25 C 139.949219 56.25 141.730469 54.472656 141.730469 52.277344 "/>
<path fill-rule="evenodd" fill="rgb(64.698792%, 16.499329%, 16.499329%)" fill-opacity="1" d="M 208.296875 60.226562 C 208.296875 57.480469 206.074219 55.257812 203.328125 55.257812 C 200.585938 55.257812 198.363281 57.480469 198.363281 60.226562 C 198.363281 62.96875 200.585938 65.191406 203.328125 65.191406 C 206.074219 65.191406 208.296875 62.96875 208.296875 60.226562 "/>
<path fill-rule="evenodd" fill="rgb(54.499817%, 0%, 0%)" fill-opacity="1" d="M 209.289062 60.226562 C 209.289062 56.933594 206.621094 54.265625 203.328125 54.265625 C 200.035156 54.265625 197.367188 56.933594 197.367188 60.226562 C 197.367188 63.519531 200.035156 66.1875 203.328125 66.1875 C 206.621094 66.1875 209.289062 63.519531 209.289062 60.226562 M 207.304688 60.226562 C 207.304688 58.03125 205.523438 56.25 203.328125 56.25 C 201.136719 56.25 199.355469 58.03125 199.355469 60.226562 C 199.355469 62.417969 201.136719 64.199219 203.328125 64.199219 C 205.523438 64.199219 207.304688 62.417969 207.304688 60.226562 "/>
<path fill-rule="evenodd" fill="rgb(100%, 64.698792%, 0%)" fill-opacity="1" d="M 65.226562 74.136719 C 65.226562 71.390625 63 69.167969 60.257812 69.167969 C 57.515625 69.167969 55.289062 71.390625 55.289062 74.136719 C 55.289062 76.878906 57.515625 79.101562 60.257812 79.101562 C 63 79.101562 65.226562 76.878906 65.226562 74.136719 "/>
<path fill-rule="evenodd" fill="rgb(100%, 54.899597%, 0%)" fill-opacity="1" d="M 66.21875 74.136719 C 66.21875 70.84375 63.550781 68.171875 60.257812 68.171875 C 56.964844 68.171875 54.296875 70.84375 54.296875 74.136719 C 54.296875 77.425781 56.964844 80.097656 60.257812 80.097656 C 63.550781 80.097656 66.21875 77.425781 66.21875 74.136719 M 64.230469 74.136719 C 64.230469 71.941406 62.453125 70.160156 60.257812 70.160156 C 58.0625 70.160156 56.285156 71.941406 56.285156 74.136719 C 56.285156 76.328125 58.0625 78.109375 60.257812 78.109375 C 62.453125 78.109375 64.230469 76.328125 64.230469 74.136719 "/>
<path fill-rule="evenodd" fill="rgb(62.69989%, 12.5%, 94.099426%)" fill-opacity="1" d="M 41.378906 36.378906 C 41.378906 33.636719 39.15625 31.414062 36.414062 31.414062 C 33.667969 31.414062 31.445312 33.636719 31.445312 36.378906 C 31.445312 39.125 33.667969 41.347656 36.414062 41.347656 C 39.15625 41.347656 41.378906 39.125 41.378906 36.378906 "/>
<path fill-rule="evenodd" fill="rgb(54.499817%, 0%, 54.499817%)" fill-opacity="1" d="M 42.375 36.378906 C 42.375 33.085938 39.707031 30.417969 36.414062 30.417969 C 33.121094 30.417969 30.453125 33.085938 30.453125 36.378906 C 30.453125 39.671875 33.121094 42.339844 36.414062 42.339844 C 39.707031 42.339844 42.375 39.671875 42.375 36.378906 M 40.386719 36.378906 C 40.386719 34.183594 38.609375 32.40625 36.414062 32.40625 C 34.21875 32.40625 32.4375 34.183594 32.4375 36.378906 C 32.4375 38.574219 34.21875 40.355469 36.414062 40.355469 C 38.609375 40.355469 40.386719 38.574219 40.386719 36.378906 "/>
</svg>
