<?xml version="1.0" encoding="UTF-8"?>
<svg xmlns="http://www.w3.org/2000/svg" xmlns:xlink="http://www.w3.org/1999/xlink" width="244.503" height="110.341" viewBox="0 0 244.503 110.341">
<defs>
<clipPath id="clip-0">
<path clip-rule="nonzero" d="M 174 40 L 243.53125 40 L 243.53125 90 L 174 90 Z M 174 40 "/>
</clipPath>
<clipPath id="clip-1">
<path clip-rule="nonzero" d="M 0.480469 35 L 205 35 L 205 109.6875 L 0.480469 109.6875 Z M 0.480469 35 "/>
</clipPath>
</defs>
<path fill-rule="evenodd" fill="rgb(100%, 49.798584%, 31.399536%)" fill-opacity="0.3" stroke-width="0.4" stroke-linecap="butt" stroke-linejoin="round" stroke="rgb(100%, 49.798584%, 31.399536%)" stroke-opacity="0.3" stroke-miterlimit="10" d="M 174.001022 286.667765 C 182.001646 290.000049 189.998341 294.000361 198.332979 291.666191 C 206.667618 289.33202 215.332341 280.667297 222.998951 279.001155 C 230.665561 277.331084 237.334057 282.667453 234.999887 290.998162 C 232.665717 299.332801 221.332809 310.665708 211.001944 315.668063 C 200.667149 320.666489 191.334398 319.334361 179.667476 314.666021 C 168.000554 310.001609 153.999461 302.000985 148.667022 295.332489 C 143.334582 288.667921 146.666866 283.331552 152.333319 281.999425 C 157.999773 280.667297 166.000398 283.331552 174.001022 286.667765 Z M 174.001022 286.667765 " transform="matrix(0.994063, 0, 0, -0.994063, -133.620332, 376.368181)"/>
<path fill="none" stroke-width="1.2" stroke-linecap="butt" stroke-linejoin="round" stroke="rgb(62.5%, 62.5%, 62.5%)" stroke-opacity="1" stroke-miterlimit="10" d="M 155.999617 290.000049 C 155.999617 290.000049 155.999617 290.000049 151.999305 298.668702 C 147.998993 307.333425 139.998369 324.666801 137.668128 339.001907 C 135.333958 353.333084 138.666241 364.665992 148.667022 371.000475 C 158.667802 377.334957 175.333149 378.667085 187.334086 376.666928 C 199.331092 374.666772 206.667618 369.334333 210.333915 366.666148 C 214.000213 364.001893 214.000213 364.001893 214.000213 364.001893 " transform="matrix(0.994063, 0, 0, -0.994063, -133.620332, 376.368181)"/>
<path fill="none" stroke-width="1.2" stroke-linecap="butt" stroke-linejoin="round" stroke="rgb(62.5%, 62.5%, 62.5%)" stroke-opacity="1" stroke-miterlimit="10" d="M 197.998965 308.001453 L 191.998497 344.000333 " transform="matrix(0.994063, 0, 0, -0.994063, -133.620332, 376.368181)"/>
<path fill="none" stroke-width="1.2" stroke-linecap="butt" stroke-linejoin="round" stroke="rgb(62.5%, 62.5%, 62.5%)" stroke-opacity="1" stroke-miterlimit="10" d="M 226.00115 283.999581 L 272.000809 298.000673 " transform="matrix(0.994063, 0, 0, -0.994063, -133.620332, 376.368181)"/>
<path fill="none" stroke-width="1.2" stroke-linecap="butt" stroke-linejoin="round" stroke="rgb(62.5%, 62.5%, 62.5%)" stroke-opacity="1" stroke-miterlimit="10" d="M 295.998752 354.001113 L 351.999192 352.000957 " transform="matrix(0.994063, 0, 0, -0.994063, -133.620332, 376.368181)"/>
<path fill="none" stroke-width="1.2" stroke-linecap="butt" stroke-linejoin="round" stroke="rgb(62.5%, 62.5%, 62.5%)" stroke-opacity="1" stroke-miterlimit="10" d="M 351.999192 352.000957 L 366.000284 327.999084 " transform="matrix(0.994063, 0, 0, -0.994063, -133.620332, 376.368181)"/>
<path fill="none" stroke-width="1.2" stroke-linecap="butt" stroke-linejoin="round" stroke="rgb(62.5%, 62.5%, 62.5%)" stroke-opacity="1" stroke-miterlimit="10" d="M 191.998497 344.000333 L 214.000213 364.001893 " transform="matrix(0.994063, 0, 0, -0.994063, -133.620332, 376.368181)"/>
<path fill="none" stroke-width="1.2" stroke-linecap="butt" stroke-linejoin="round" stroke="rgb(62.5%, 62.5%, 62.5%)" stroke-opacity="1" stroke-miterlimit="10" d="M 197.998965 308.001453 L 237.998156 312.001765 " transform="matrix(0.994063, 0, 0, -0.994063, -133.620332, 376.368181)"/>
<path fill="none" stroke-width="1.2" stroke-linecap="butt" stroke-linejoin="round" stroke="rgb(62.5%, 62.5%, 62.5%)" stroke-opacity="1" stroke-miterlimit="10" d="M 170.00071 323.998772 C 170.00071 323.998772 170.00071 323.998772 172.000866 316.332162 C 174.001022 308.665552 178.001334 293.332332 191.668412 283.999581 C 205.33156 274.666829 228.665405 271.334546 253.999405 274.666829 C 279.333405 277.999113 306.667561 287.999893 320.334639 292.998318 C 334.001717 298.000673 334.001717 298.000673 334.001717 298.000673 " transform="matrix(0.994063, 0, 0, -0.994063, -133.620332, 376.368181)"/>
<path fill-rule="evenodd" fill="rgb(62.5%, 62.5%, 62.5%)" fill-opacity="1" d="M 65.6875 70.195312 C 65.6875 68.824219 64.578125 67.710938 63.203125 67.710938 C 61.832031 67.710938 60.71875 68.824219 60.71875 70.195312 C 60.71875 71.570312 61.832031 72.683594 63.203125 72.683594 C 64.578125 72.683594 65.6875 71.570312 65.6875 70.195312 "/>
<path fill-rule="evenodd" fill="rgb(62.5%, 62.5%, 62.5%)" fill-opacity="1" d="M 66.1875 70.195312 C 66.1875 68.550781 64.851562 67.214844 63.203125 67.214844 C 61.558594 67.214844 60.222656 68.550781 60.222656 70.195312 C 60.222656 71.84375 61.558594 73.179688 63.203125 73.179688 C 64.851562 73.179688 66.1875 71.84375 66.1875 70.195312 M 65.191406 70.195312 C 65.191406 69.097656 64.300781 68.207031 63.203125 68.207031 C 62.105469 68.207031 61.214844 69.097656 61.214844 70.195312 C 61.214844 71.296875 62.105469 72.183594 63.203125 72.183594 C 64.300781 72.183594 65.191406 71.296875 65.191406 70.195312 "/>
<path fill-rule="evenodd" fill="rgb(62.5%, 62.5%, 62.5%)" fill-opacity="1" d="M 59.726562 34.410156 C 59.726562 33.039062 58.613281 31.925781 57.238281 31.925781 C 55.867188 31.925781 54.753906 33.039062 54.753906 34.410156 C 54.753906 35.785156 55.867188 36.894531 57.238281 36.894531 C 58.613281 36.894531 59.726562 35.785156 59.726562 34.410156 "/>
<path fill-rule="evenodd" fill="rgb(62.5%, 62.5%, 62.5%)" fill-opacity="1" d="M 60.222656 34.410156 C 60.222656 32.761719 58.886719 31.429688 57.238281 31.429688 C 55.59375 31.429688 54.257812 32.761719 54.257812 34.410156 C 54.257812 36.058594 55.59375 37.394531 57.238281 37.394531 C 58.886719 37.394531 60.222656 36.058594 60.222656 34.410156 M 59.226562 34.410156 C 59.226562 33.3125 58.339844 32.421875 57.238281 32.421875 C 56.140625 32.421875 55.25 33.3125 55.25 34.410156 C 55.25 35.507812 56.140625 36.398438 57.238281 36.398438 C 58.339844 36.398438 59.226562 35.507812 59.226562 34.410156 "/>
<path fill-rule="evenodd" fill="rgb(62.5%, 62.5%, 62.5%)" fill-opacity="1" d="M 111.417969 26.457031 C 111.417969 25.085938 110.304688 23.972656 108.929688 23.972656 C 107.558594 23.972656 106.445312 25.085938 106.445312 26.457031 C 106.445312 27.832031 107.558594 28.941406 108.929688 28.941406 C 110.304688 28.941406 111.417969 27.832031 111.417969 26.457031 "/>
<path fill-rule="evenodd" fill="rgb(62.5%, 62.5%, 62.5%)" fill-opacity="1" d="M 111.914062 26.457031 C 111.914062 24.8125 110.578125 23.476562 108.929688 23.476562 C 107.285156 23.476562 105.949219 24.8125 105.949219 26.457031 C 105.949219 28.105469 107.285156 29.441406 108.929688 29.441406 C 110.578125 29.441406 111.914062 28.105469 111.914062 26.457031 M 110.917969 26.457031 C 110.917969 25.359375 110.03125 24.46875 108.929688 24.46875 C 107.832031 24.46875 106.941406 25.359375 106.941406 26.457031 C 106.941406 27.554688 107.832031 28.445312 108.929688 28.445312 C 110.03125 28.445312 110.917969 27.554688 110.917969 26.457031 "/>
<path fill-rule="evenodd" fill="rgb(62.5%, 62.5%, 62.5%)" fill-opacity="1" d="M 105.453125 66.21875 C 105.453125 64.847656 104.339844 63.734375 102.964844 63.734375 C 101.59375 63.734375 100.480469 64.847656 100.480469 66.21875 C 100.480469 67.59375 101.59375 68.707031 102.964844 68.707031 C 104.339844 68.707031 105.453125 67.59375 105.453125 66.21875 "/>
<path fill-rule="evenodd" fill="rgb(62.5%, 62.5%, 62.5%)" fill-opacity="1" d="M 105.949219 66.21875 C 105.949219 64.574219 104.613281 63.238281 102.964844 63.238281 C 101.320312 63.238281 99.984375 64.574219 99.984375 66.21875 C 99.984375 67.867188 101.320312 69.203125 102.964844 69.203125 C 104.613281 69.203125 105.949219 67.867188 105.949219 66.21875 M 104.953125 66.21875 C 104.953125 65.121094 104.066406 64.230469 102.964844 64.230469 C 101.867188 64.230469 100.980469 65.121094 100.980469 66.21875 C 100.980469 67.320312 101.867188 68.207031 102.964844 68.207031 C 104.066406 68.207031 104.953125 67.320312 104.953125 66.21875 "/>
<path fill-rule="evenodd" fill="rgb(62.5%, 62.5%, 62.5%)" fill-opacity="1" d="M 139.25 80.136719 C 139.25 78.765625 138.136719 77.652344 136.765625 77.652344 C 135.390625 77.652344 134.28125 78.765625 134.28125 80.136719 C 134.28125 81.511719 135.390625 82.621094 136.765625 82.621094 C 138.136719 82.621094 139.25 81.511719 139.25 80.136719 "/>
<path fill-rule="evenodd" fill="rgb(62.5%, 62.5%, 62.5%)" fill-opacity="1" d="M 139.746094 80.136719 C 139.746094 78.488281 138.410156 77.15625 136.765625 77.15625 C 135.117188 77.15625 133.78125 78.488281 133.78125 80.136719 C 133.78125 81.785156 135.117188 83.121094 136.765625 83.121094 C 138.410156 83.121094 139.746094 81.785156 139.746094 80.136719 M 138.753906 80.136719 C 138.753906 79.039062 137.863281 78.148438 136.765625 78.148438 C 135.667969 78.148438 134.777344 79.039062 134.777344 80.136719 C 134.777344 81.234375 135.667969 82.125 136.765625 82.125 C 137.863281 82.125 138.753906 81.234375 138.753906 80.136719 "/>
<path fill-rule="evenodd" fill="rgb(62.5%, 62.5%, 62.5%)" fill-opacity="1" d="M 141.238281 50.316406 C 141.238281 48.941406 140.125 47.832031 138.753906 47.832031 C 137.378906 47.832031 136.269531 48.941406 136.269531 50.316406 C 136.269531 51.6875 137.378906 52.800781 138.753906 52.800781 C 140.125 52.800781 141.238281 51.6875 141.238281 50.316406 "/>
<path fill-rule="evenodd" fill="rgb(62.5%, 62.5%, 62.5%)" fill-opacity="1" d="M 141.734375 50.316406 C 141.734375 48.667969 140.398438 47.332031 138.753906 47.332031 C 137.105469 47.332031 135.769531 48.667969 135.769531 50.316406 C 135.769531 51.960938 137.105469 53.296875 138.753906 53.296875 C 140.398438 53.296875 141.734375 51.960938 141.734375 50.316406 M 140.742188 50.316406 C 140.742188 49.21875 139.851562 48.328125 138.753906 48.328125 C 137.65625 48.328125 136.765625 49.21875 136.765625 50.316406 C 136.765625 51.414062 137.65625 52.304688 138.753906 52.304688 C 139.851562 52.304688 140.742188 51.414062 140.742188 50.316406 "/>
<path fill-rule="evenodd" fill="rgb(62.5%, 62.5%, 62.5%)" fill-opacity="1" d="M 163.109375 24.46875 C 163.109375 23.097656 161.996094 21.984375 160.621094 21.984375 C 159.25 21.984375 158.136719 23.097656 158.136719 24.46875 C 158.136719 25.84375 159.25 26.953125 160.621094 26.953125 C 161.996094 26.953125 163.109375 25.84375 163.109375 24.46875 "/>
<path fill-rule="evenodd" fill="rgb(62.5%, 62.5%, 62.5%)" fill-opacity="1" d="M 163.605469 24.46875 C 163.605469 22.824219 162.269531 21.488281 160.621094 21.488281 C 158.976562 21.488281 157.640625 22.824219 157.640625 24.46875 C 157.640625 26.117188 158.976562 27.453125 160.621094 27.453125 C 162.269531 27.453125 163.605469 26.117188 163.605469 24.46875 M 162.609375 24.46875 C 162.609375 23.371094 161.722656 22.480469 160.621094 22.480469 C 159.523438 22.480469 158.632812 23.371094 158.632812 24.46875 C 158.632812 25.566406 159.523438 26.457031 160.621094 26.457031 C 161.722656 26.457031 162.609375 25.566406 162.609375 24.46875 "/>
<path fill-rule="evenodd" fill="rgb(62.5%, 62.5%, 62.5%)" fill-opacity="1" d="M 184.976562 48.328125 C 184.976562 46.953125 183.863281 45.84375 182.492188 45.84375 C 181.117188 45.84375 180.007812 46.953125 180.007812 48.328125 C 180.007812 49.699219 181.117188 50.8125 182.492188 50.8125 C 183.863281 50.8125 184.976562 49.699219 184.976562 48.328125 "/>
<path fill-rule="evenodd" fill="rgb(62.5%, 62.5%, 62.5%)" fill-opacity="1" d="M 185.472656 48.328125 C 185.472656 46.679688 184.140625 45.34375 182.492188 45.34375 C 180.84375 45.34375 179.507812 46.679688 179.507812 48.328125 C 179.507812 49.972656 180.84375 51.308594 182.492188 51.308594 C 184.140625 51.308594 185.472656 49.972656 185.472656 48.328125 M 184.480469 48.328125 C 184.480469 47.230469 183.589844 46.339844 182.492188 46.339844 C 181.394531 46.339844 180.503906 47.230469 180.503906 48.328125 C 180.503906 49.425781 181.394531 50.316406 182.492188 50.316406 C 183.589844 50.316406 184.480469 49.425781 184.480469 48.328125 "/>
<path fill-rule="evenodd" fill="rgb(62.5%, 62.5%, 62.5%)" fill-opacity="1" d="M 200.882812 80.136719 C 200.882812 78.765625 199.769531 77.652344 198.398438 77.652344 C 197.023438 77.652344 195.910156 78.765625 195.910156 80.136719 C 195.910156 81.511719 197.023438 82.621094 198.398438 82.621094 C 199.769531 82.621094 200.882812 81.511719 200.882812 80.136719 "/>
<path fill-rule="evenodd" fill="rgb(62.5%, 62.5%, 62.5%)" fill-opacity="1" d="M 201.378906 80.136719 C 201.378906 78.488281 200.042969 77.15625 198.398438 77.15625 C 196.75 77.15625 195.414062 78.488281 195.414062 80.136719 C 195.414062 81.785156 196.75 83.121094 198.398438 83.121094 C 200.042969 83.121094 201.378906 81.785156 201.378906 80.136719 M 200.386719 80.136719 C 200.386719 79.039062 199.496094 78.148438 198.398438 78.148438 C 197.296875 78.148438 196.410156 79.039062 196.410156 80.136719 C 196.410156 81.234375 197.296875 82.125 198.398438 82.125 C 199.496094 82.125 200.386719 81.234375 200.386719 80.136719 "/>
<path fill-rule="evenodd" fill="rgb(62.5%, 62.5%, 62.5%)" fill-opacity="1" d="M 218.773438 26.457031 C 218.773438 25.085938 217.664062 23.972656 216.289062 23.972656 C 214.917969 23.972656 213.804688 25.085938 213.804688 26.457031 C 213.804688 27.832031 214.917969 28.941406 216.289062 28.941406 C 217.664062 28.941406 218.773438 27.832031 218.773438 26.457031 "/>
<path fill-rule="evenodd" fill="rgb(62.5%, 62.5%, 62.5%)" fill-opacity="1" d="M 219.273438 26.457031 C 219.273438 24.8125 217.9375 23.476562 216.289062 23.476562 C 214.644531 23.476562 213.308594 24.8125 213.308594 26.457031 C 213.308594 28.105469 214.644531 29.441406 216.289062 29.441406 C 217.9375 29.441406 219.273438 28.105469 219.273438 26.457031 M 218.277344 26.457031 C 218.277344 25.359375 217.386719 24.46875 216.289062 24.46875 C 215.191406 24.46875 214.300781 25.359375 214.300781 26.457031 C 214.300781 27.554688 215.191406 28.445312 216.289062 28.445312 C 217.386719 28.445312 218.277344 27.554688 218.277344 26.457031 "/>
<path fill-rule="evenodd" fill="rgb(62.5%, 62.5%, 62.5%)" fill-opacity="1" d="M 232.691406 50.316406 C 232.691406 48.941406 231.578125 47.832031 230.207031 47.832031 C 228.832031 47.832031 227.722656 48.941406 227.722656 50.316406 C 227.722656 51.6875 228.832031 52.800781 230.207031 52.800781 C 231.578125 52.800781 232.691406 51.6875 232.691406 50.316406 "/>
<path fill-rule="evenodd" fill="rgb(62.5%, 62.5%, 62.5%)" fill-opacity="1" d="M 233.1875 50.316406 C 233.1875 48.667969 231.855469 47.332031 230.207031 47.332031 C 228.558594 47.332031 227.222656 48.667969 227.222656 50.316406 C 227.222656 51.960938 228.558594 53.296875 230.207031 53.296875 C 231.855469 53.296875 233.1875 51.960938 233.1875 50.316406 M 232.195312 50.316406 C 232.195312 49.21875 231.304688 48.328125 230.207031 48.328125 C 229.109375 48.328125 228.21875 49.21875 228.21875 50.316406 C 228.21875 51.414062 229.109375 52.304688 230.207031 52.304688 C 231.304688 52.304688 232.195312 51.414062 232.195312 50.316406 "/>
<path fill-rule="evenodd" fill="rgb(62.5%, 62.5%, 62.5%)" fill-opacity="1" d="M 37.855469 54.292969 C 37.855469 52.917969 36.742188 51.804688 35.371094 51.804688 C 33.996094 51.804688 32.886719 52.917969 32.886719 54.292969 C 32.886719 55.664062 33.996094 56.777344 35.371094 56.777344 C 36.742188 56.777344 37.855469 55.664062 37.855469 54.292969 "/>
<path fill-rule="evenodd" fill="rgb(62.5%, 62.5%, 62.5%)" fill-opacity="1" d="M 38.351562 54.292969 C 38.351562 52.644531 37.015625 51.308594 35.371094 51.308594 C 33.722656 51.308594 32.386719 52.644531 32.386719 54.292969 C 32.386719 55.9375 33.722656 57.273438 35.371094 57.273438 C 37.015625 57.273438 38.351562 55.9375 38.351562 54.292969 M 37.359375 54.292969 C 37.359375 53.191406 36.46875 52.304688 35.371094 52.304688 C 34.273438 52.304688 33.382812 53.191406 33.382812 54.292969 C 33.382812 55.390625 34.273438 56.28125 35.371094 56.28125 C 36.46875 56.28125 37.359375 55.390625 37.359375 54.292969 "/>
<path fill-rule="evenodd" fill="rgb(62.5%, 62.5%, 62.5%)" fill-opacity="1" d="M 81.59375 14.527344 C 81.59375 13.15625 80.480469 12.042969 79.109375 12.042969 C 77.738281 12.042969 76.625 13.15625 76.625 14.527344 C 76.625 15.902344 77.738281 17.015625 79.109375 17.015625 C 80.480469 17.015625 81.59375 15.902344 81.59375 14.527344 "/>
<path fill-rule="evenodd" fill="rgb(62.5%, 62.5%, 62.5%)" fill-opacity="1" d="M 82.089844 14.527344 C 82.089844 12.882812 80.757812 11.546875 79.109375 11.546875 C 77.460938 11.546875 76.128906 12.882812 76.128906 14.527344 C 76.128906 16.175781 77.460938 17.511719 79.109375 17.511719 C 80.757812 17.511719 82.089844 16.175781 82.089844 14.527344 M 81.097656 14.527344 C 81.097656 13.429688 80.207031 12.542969 79.109375 12.542969 C 78.011719 12.542969 77.121094 13.429688 77.121094 14.527344 C 77.121094 15.628906 78.011719 16.515625 79.109375 16.515625 C 80.207031 16.515625 81.097656 15.628906 81.097656 14.527344 "/>
<path fill-rule="evenodd" fill="rgb(62.5%, 62.5%, 62.5%)" fill-opacity="1" d="M 27.914062 22.480469 C 27.914062 21.109375 26.800781 19.996094 25.429688 19.996094 C 24.058594 19.996094 22.945312 21.109375 22.945312 22.480469 C 22.945312 23.855469 24.058594 24.96875 25.429688 24.96875 C 26.800781 24.96875 27.914062 23.855469 27.914062 22.480469 "/>
<path fill-rule="evenodd" fill="rgb(62.5%, 62.5%, 62.5%)" fill-opacity="1" d="M 28.410156 22.480469 C 28.410156 20.835938 27.078125 19.5 25.429688 19.5 C 23.78125 19.5 22.449219 20.835938 22.449219 22.480469 C 22.449219 24.128906 23.78125 25.464844 25.429688 25.464844 C 27.078125 25.464844 28.410156 24.128906 28.410156 22.480469 M 27.417969 22.480469 C 27.417969 21.382812 26.527344 20.492188 25.429688 20.492188 C 24.332031 20.492188 23.441406 21.382812 23.441406 22.480469 C 23.441406 23.582031 24.332031 24.46875 25.429688 24.46875 C 26.527344 24.46875 27.417969 23.582031 27.417969 22.480469 "/>
<path fill-rule="evenodd" fill="rgb(62.5%, 62.5%, 62.5%)" fill-opacity="1" d="M 23.9375 88.089844 C 23.9375 86.71875 22.828125 85.605469 21.453125 85.605469 C 20.082031 85.605469 18.96875 86.71875 18.96875 88.089844 C 18.96875 89.460938 20.082031 90.574219 21.453125 90.574219 C 22.828125 90.574219 23.9375 89.460938 23.9375 88.089844 "/>
<path fill-rule="evenodd" fill="rgb(62.5%, 62.5%, 62.5%)" fill-opacity="1" d="M 24.4375 88.089844 C 24.4375 86.441406 23.101562 85.109375 21.453125 85.109375 C 19.804688 85.109375 18.472656 86.441406 18.472656 88.089844 C 18.472656 89.738281 19.804688 91.070312 21.453125 91.070312 C 23.101562 91.070312 24.4375 89.738281 24.4375 88.089844 M 23.441406 88.089844 C 23.441406 86.992188 22.550781 86.101562 21.453125 86.101562 C 20.355469 86.101562 19.464844 86.992188 19.464844 88.089844 C 19.464844 89.1875 20.355469 90.078125 21.453125 90.078125 C 22.550781 90.078125 23.441406 89.1875 23.441406 88.089844 "/>
<path fill-rule="evenodd" fill="rgb(62.5%, 62.5%, 62.5%)" fill-opacity="1" d="M 93.523438 94.054688 C 93.523438 92.679688 92.410156 91.570312 91.039062 91.570312 C 89.664062 91.570312 88.554688 92.679688 88.554688 94.054688 C 88.554688 95.425781 89.664062 96.539062 91.039062 96.539062 C 92.410156 96.539062 93.523438 95.425781 93.523438 94.054688 "/>
<path fill-rule="evenodd" fill="rgb(62.5%, 62.5%, 62.5%)" fill-opacity="1" d="M 94.019531 94.054688 C 94.019531 92.40625 92.683594 91.070312 91.039062 91.070312 C 89.390625 91.070312 88.054688 92.40625 88.054688 94.054688 C 88.054688 95.703125 89.390625 97.035156 91.039062 97.035156 C 92.683594 97.035156 94.019531 95.703125 94.019531 94.054688 M 93.027344 94.054688 C 93.027344 92.957031 92.136719 92.066406 91.039062 92.066406 C 89.941406 92.066406 89.050781 92.957031 89.050781 94.054688 C 89.050781 95.152344 89.941406 96.042969 91.039062 96.042969 C 92.136719 96.042969 93.027344 95.152344 93.027344 94.054688 "/>
<path fill-rule="evenodd" fill="rgb(67.799377%, 84.698486%, 90.19928%)" fill-opacity="0.3" stroke-width="0.4" stroke-linecap="butt" stroke-linejoin="round" stroke="rgb(67.799377%, 84.698486%, 90.19928%)" stroke-opacity="0.3" stroke-miterlimit="10" d="M 349.668951 362.99985 C 342.66644 362.665836 333.333689 359.333553 326.999206 356.331354 C 320.668653 353.333084 317.33244 350.668829 313.332128 348.000645 C 309.331816 345.33246 304.667405 342.668205 299.999064 340.998134 C 295.334653 339.331992 290.666312 338.667893 286.331986 338.333879 C 282.001589 337.999865 278.001277 337.999865 274.665064 337.66585 C 271.332781 337.331836 268.668526 336.667737 266.334355 335.001595 C 264.000185 333.331524 262.000029 330.667269 260.667901 327.000971 C 259.331844 323.334673 258.667745 318.666333 258.667745 314.001922 C 258.667745 309.333581 259.331844 304.66524 259.999873 300.334843 C 260.667901 296.000517 261.332 292.000205 263.666171 289.666035 C 266.000341 287.331864 270.000653 286.667765 274.000965 287.00178 C 278.001277 287.331864 282.001589 288.667921 284.33183 290.668077 C 286.666 292.668234 287.334029 295.332489 286.666 299.332801 C 286.001901 303.333113 284.001745 308.665552 283.667731 312.999879 C 283.333717 317.334205 284.665844 320.666489 289.998284 323.998772 C 295.334653 327.331056 304.667405 330.667269 315.332284 333.665538 C 326.001093 336.667737 337.9981 339.331992 347.334781 341.666162 C 356.667533 344.000333 363.3321 346.000489 365.66627 348.334659 C 368.00044 350.668829 366.000284 353.333084 365.332256 354.999226 C 364.668157 356.665368 365.332256 357.333397 363.3321 358.999538 C 361.331944 360.66568 356.667533 363.333865 349.668951 362.99985 Z M 349.668951 362.99985 " transform="matrix(0.994063, 0, 0, -0.994063, -133.620332, 376.368181)"/>
<path fill-rule="evenodd" fill="rgb(93.299866%, 50.999451%, 93.299866%)" fill-opacity="0.3" stroke-width="0.4" stroke-linecap="butt" stroke-linejoin="round" stroke="rgb(93.299866%, 50.999451%, 93.299866%)" stroke-opacity="0.3" stroke-miterlimit="10" d="M 198.666993 346.668517 C 203.331404 340.668049 198.666993 335.33168 193.000539 330.333255 C 187.334086 325.334829 180.665589 320.666489 174.001022 317.998304 C 167.332525 315.334049 160.667958 314.666021 156.333632 323.000659 C 151.999305 331.331368 149.999149 348.668673 151.999305 357.333397 C 153.999461 365.99812 159.999929 365.99812 170.00071 362.665836 C 180.00149 359.333553 193.998653 352.665056 198.666993 346.668517 Z M 198.666993 346.668517 " transform="matrix(0.994063, 0, 0, -0.994063, -133.620332, 376.368181)"/>
<path fill-rule="evenodd" fill="rgb(56.498718%, 93.299866%, 56.498718%)" fill-opacity="0.3" stroke-width="0.4" stroke-linecap="butt" stroke-linejoin="round" stroke="rgb(56.498718%, 93.299866%, 56.498718%)" stroke-opacity="0.3" stroke-miterlimit="10" d="M 250.333107 366.332134 C 266.000341 364.665992 286.001901 365.334021 296.332766 361.667723 C 306.667561 358.001425 307.33166 350.000801 301.99922 346.000489 C 296.666781 342.000177 285.333873 342.000177 276.331206 341.666162 C 267.332468 341.332148 260.667901 340.668049 256.667589 335.33168 C 252.667277 329.99924 251.33122 319.99846 248.666965 312.999879 C 245.99878 306.001297 241.998468 302.000985 237.334057 302.000985 C 232.665717 302.000985 227.333277 306.001297 225.667135 312.001765 C 224.000993 317.998304 226.00115 325.998928 227.333277 331.999396 C 228.665405 337.999865 229.333433 342.000177 225.667135 345.33246 C 222.000837 348.668673 214.000213 351.332928 208.333759 355.33324 C 202.667305 359.333553 199.331092 364.665992 200.333135 368.33229 C 201.331248 371.998588 206.667618 373.998744 214.998326 373.000631 C 223.332965 371.998588 234.665873 367.998276 250.333107 366.332134 Z M 250.333107 366.332134 " transform="matrix(0.994063, 0, 0, -0.994063, -133.620332, 376.368181)"/>
<g clip-path="url(#clip-0)">
<path fill-rule="evenodd" fill="rgb(100%, 60.099792%, 60.099792%)" fill-opacity="0.3" stroke-width="0.4" stroke-linecap="butt" stroke-linejoin="round" stroke="rgb(100%, 60.099792%, 60.099792%)" stroke-opacity="0.3" stroke-miterlimit="10" d="M 362.333986 308.999567 C 370.668625 315.998148 377.333192 321.998616 378.66532 327.000971 C 380.001377 331.999396 376.001065 335.999709 368.998554 337.331836 C 361.999972 338.667893 351.999192 337.331836 341.668327 336.667737 C 331.333532 335.999709 320.668653 335.999709 314.99827 331.999396 C 309.331816 327.999084 308.667717 319.99846 312.000001 312.33185 C 315.332284 304.66524 322.668809 297.332645 326.999206 292.998318 C 331.333532 288.667921 332.66566 287.331864 338.332114 290.668077 C 343.998568 294.000361 353.999348 302.000985 362.333986 308.999567 Z M 362.333986 308.999567 " transform="matrix(0.994063, 0, 0, -0.994063, -133.620332, 376.368181)"/>
</g>
<path fill="none" stroke-width="1.2" stroke-linecap="butt" stroke-linejoin="round" stroke="rgb(0%, 0%, 0%)" stroke-opacity="1" stroke-miterlimit="10" d="M 172.000866 342.000177 L 195.998809 304.001141 " transform="matrix(0.994063, 0, 0, -0.994063, -133.620332, 376.368181)"/>
<path fill="none" stroke-width="1.2" stroke-linecap="butt" stroke-linejoin="round" stroke="rgb(0%, 0%, 0%)" stroke-opacity="1" stroke-miterlimit="10" d="M 195.998809 304.001141 L 247.998936 352.000957 " transform="matrix(0.994063, 0, 0, -0.994063, -133.620332, 376.368181)"/>
<path fill="none" stroke-width="1.2" stroke-linecap="butt" stroke-linejoin="round" stroke="rgb(0%, 0%, 0%)" stroke-opacity="1" stroke-miterlimit="10" d="M 172.000866 342.000177 L 247.998936 352.000957 " transform="matrix(0.994063, 0, 0, -0.994063, -133.620332, 376.368181)"/>
<path fill="none" stroke-width="1.2" stroke-linecap="butt" stroke-linejoin="round" stroke="rgb(0%, 0%, 0%)" stroke-opacity="1" stroke-miterlimit="10" d="M 247.998936 352.000957 L 274.000965 325.998928 " transform="matrix(0.994063, 0, 0, -0.994063, -133.620332, 376.368181)"/>
<path fill="none" stroke-width="1.2" stroke-linecap="butt" stroke-linejoin="round" stroke="rgb(0%, 0%, 0%)" stroke-opacity="1" stroke-miterlimit="10" d="M 195.998809 304.001141 C 195.998809 304.001141 195.998809 304.001141 201.001164 302.33107 C 205.999589 300.668858 216.000369 297.332645 224.999107 296.334531 C 234.001774 295.332489 241.998468 296.668546 249.999093 302.000985 C 257.999717 307.333425 266.000341 316.666177 270.000653 321.334517 C 274.000965 325.998928 274.000965 325.998928 274.000965 325.998928 " transform="matrix(0.994063, 0, 0, -0.994063, -133.620332, 376.368181)"/>
<path fill="none" stroke-width="1.2" stroke-linecap="butt" stroke-linejoin="round" stroke="rgb(0%, 0%, 0%)" stroke-opacity="1" stroke-miterlimit="10" d="M 274.000965 325.998928 L 339.998256 317.998304 " transform="matrix(0.994063, 0, 0, -0.994063, -133.620332, 376.368181)"/>
<g clip-path="url(#clip-1)">
<path fill="none" stroke-width="1.2" stroke-linecap="butt" stroke-linejoin="round" stroke="rgb(0%, 0%, 0%)" stroke-opacity="1" stroke-miterlimit="10" d="M 339.998256 317.998304 C 339.998256 317.998304 339.998256 317.998304 330.999518 312.001765 C 322.000781 306.001297 303.999376 294.000361 285.667887 285.665723 C 267.332468 277.331084 248.666965 272.666673 227.667291 270.666517 C 206.667618 268.666361 183.333773 269.334389 168.334568 270.332503 C 153.331433 271.334546 146.666866 272.666673 142.332539 276.332971 C 137.998213 279.999269 135.998057 285.999737 135.998057 294.000361 C 135.998057 302.000985 137.998213 312.001765 144.332695 320.332474 C 150.667178 328.667113 161.332057 335.33168 166.668426 338.667893 C 172.000866 342.000177 172.000866 342.000177 172.000866 342.000177 " transform="matrix(0.994063, 0, 0, -0.994063, -133.620332, 376.368181)"/>
</g>
<path fill="none" stroke-width="4" stroke-linecap="round" stroke-linejoin="round" stroke="rgb(100%, 49.798584%, 31.399536%)" stroke-opacity="0.3" stroke-miterlimit="10" d="M 226.00115 283.999581 L 197.998965 308.001453 " transform="matrix(0.994063, 0, 0, -0.994063, -133.620332, 376.368181)"/>
<path fill="none" stroke-width="4" stroke-linecap="round" stroke-linejoin="round" stroke="rgb(62.69989%, 12.5%, 94.099426%)" stroke-opacity="0.3" stroke-miterlimit="10" d="M 159.999929 356.001269 L 170.00071 323.998772 " transform="matrix(0.994063, 0, 0, -0.994063, -133.620332, 376.368181)"/>
<path fill="none" stroke-width="4" stroke-linecap="round" stroke-linejoin="round" stroke="rgb(62.69989%, 12.5%, 94.099426%)" stroke-opacity="0.3" stroke-miterlimit="10" d="M 159.999929 356.001269 L 191.998497 344.000333 " transform="matrix(0.994063, 0, 0, -0.994063, -133.620332, 376.368181)"/>
<path fill="none" stroke-width="4" stroke-linecap="round" stroke-linejoin="round" stroke="rgb(0%, 39.199829%, 0%)" stroke-opacity="0.3" stroke-miterlimit="10" d="M 214.000213 364.001893 L 243.998624 352.000957 " transform="matrix(0.994063, 0, 0, -0.994063, -133.620332, 376.368181)"/>
<path fill="none" stroke-width="4" stroke-linecap="round" stroke-linejoin="round" stroke="rgb(0%, 39.199829%, 0%)" stroke-opacity="0.3" stroke-miterlimit="10" d="M 243.998624 352.000957 L 237.998156 312.001765 " transform="matrix(0.994063, 0, 0, -0.994063, -133.620332, 376.368181)"/>
<path fill="none" stroke-width="4" stroke-linecap="round" stroke-linejoin="round" stroke="rgb(0%, 39.199829%, 0%)" stroke-opacity="0.3" stroke-miterlimit="10" d="M 243.998624 352.000957 L 295.998752 354.001113 " transform="matrix(0.994063, 0, 0, -0.994063, -133.620332, 376.368181)"/>
<path fill="none" stroke-width="4" stroke-linecap="round" stroke-linejoin="round" stroke="rgb(67.799377%, 84.698486%, 90.19928%)" stroke-opacity="0.3" stroke-miterlimit="10" d="M 274.000965 327.999084 L 351.999192 352.000957 " transform="matrix(0.994063, 0, 0, -0.994063, -133.620332, 376.368181)"/>
<path fill="none" stroke-width="4" stroke-linecap="round" stroke-linejoin="round" stroke="rgb(67.799377%, 84.698486%, 90.19928%)" stroke-opacity="0.3" stroke-miterlimit="10" d="M 274.000965 327.999084 L 272.000809 298.000673 " transform="matrix(0.994063, 0, 0, -0.994063, -133.620332, 376.368181)"/>
<path fill="none" stroke-width="4" stroke-linecap="round" stroke-linejoin="round" stroke="rgb(100%, 60.099792%, 60.099792%)" stroke-opacity="0.3" stroke-miterlimit="10" d="M 366.000284 327.999084 L 318.000469 329.99924 " transform="matrix(0.994063, 0, 0, -0.994063, -133.620332, 376.368181)"/>
<path fill="none" stroke-width="4" stroke-linecap="round" stroke-linejoin="round" stroke="rgb(100%, 60.099792%, 60.099792%)" stroke-opacity="0.3" stroke-miterlimit="10" d="M 334.001717 298.000673 L 366.000284 327.999084 " transform="matrix(0.994063, 0, 0, -0.994063, -133.620332, 376.368181)"/>
<path fill="none" stroke-width="4" stroke-linecap="round" stroke-linejoin="round" stroke="rgb(100%, 49.798584%, 31.399536%)" stroke-opacity="0.3" stroke-miterlimit="10" d="M 155.999617 290.000049 L 197.998965 308.001453 " transform="matrix(0.994063, 0, 0, -0.994063, -133.620332, 376.368181)"/>
<path fill-rule="evenodd" fill="rgb(0%, 39.199829%, 0%)" fill-opacity="1" d="M 117.878906 26.457031 C 117.878906 23.714844 115.652344 21.488281 112.90625 21.488281 C 110.164062 21.488281 107.9375 23.714844 107.9375 26.457031 C 107.9375 29.203125 110.164062 31.429688 112.90625 31.429688 C 115.652344 31.429688 117.878906 29.203125 117.878906 26.457031 "/>
<path fill-rule="evenodd" fill="rgb(0%, 100%, 0%)" fill-opacity="1" d="M 118.871094 26.457031 C 118.871094 23.164062 116.203125 20.492188 112.90625 20.492188 C 109.613281 20.492188 106.941406 23.164062 106.941406 26.457031 C 106.941406 29.753906 109.613281 32.421875 112.90625 32.421875 C 116.203125 32.421875 118.871094 29.753906 118.871094 26.457031 M 116.882812 26.457031 C 116.882812 24.261719 115.101562 22.480469 112.90625 22.480469 C 110.710938 22.480469 108.929688 24.261719 108.929688 26.457031 C 108.929688 28.652344 110.710938 30.433594 112.90625 30.433594 C 115.101562 30.433594 116.882812 28.652344 116.882812 26.457031 "/>
<path fill-rule="evenodd" fill="rgb(0%, 0%, 54.499817%)" fill-opacity="1" d="M 143.722656 52.304688 C 143.722656 49.558594 141.496094 47.332031 138.753906 47.332031 C 136.007812 47.332031 133.78125 49.558594 133.78125 52.304688 C 133.78125 55.046875 136.007812 57.273438 138.753906 57.273438 C 141.496094 57.273438 143.722656 55.046875 143.722656 52.304688 "/>
<path fill-rule="evenodd" fill="rgb(0%, 0%, 100%)" fill-opacity="1" d="M 144.71875 52.304688 C 144.71875 49.007812 142.046875 46.339844 138.753906 46.339844 C 135.457031 46.339844 132.789062 49.007812 132.789062 52.304688 C 132.789062 55.597656 135.457031 58.269531 138.753906 58.269531 C 142.046875 58.269531 144.71875 55.597656 144.71875 52.304688 M 142.730469 52.304688 C 142.730469 50.109375 140.949219 48.328125 138.753906 48.328125 C 136.558594 48.328125 134.777344 50.109375 134.777344 52.304688 C 134.777344 54.5 136.558594 56.28125 138.753906 56.28125 C 140.949219 56.28125 142.730469 54.5 142.730469 52.304688 "/>
<path fill-rule="evenodd" fill="rgb(64.698792%, 16.499329%, 16.499329%)" fill-opacity="1" d="M 209.332031 60.257812 C 209.332031 57.511719 207.105469 55.285156 204.359375 55.285156 C 201.617188 55.285156 199.390625 57.511719 199.390625 60.257812 C 199.390625 63 201.617188 65.226562 204.359375 65.226562 C 207.105469 65.226562 209.332031 63 209.332031 60.257812 "/>
<path fill-rule="evenodd" fill="rgb(54.499817%, 0%, 0%)" fill-opacity="1" d="M 210.324219 60.257812 C 210.324219 56.960938 207.65625 54.292969 204.359375 54.292969 C 201.066406 54.292969 198.398438 56.960938 198.398438 60.257812 C 198.398438 63.550781 201.066406 66.21875 204.359375 66.21875 C 207.65625 66.21875 210.324219 63.550781 210.324219 60.257812 M 208.335938 60.257812 C 208.335938 58.058594 206.558594 56.28125 204.359375 56.28125 C 202.164062 56.28125 200.386719 58.058594 200.386719 60.257812 C 200.386719 62.453125 202.164062 64.230469 204.359375 64.230469 C 206.558594 64.230469 208.335938 62.453125 208.335938 60.257812 "/>
<path fill-rule="evenodd" fill="rgb(100%, 64.698792%, 0%)" fill-opacity="1" d="M 66.1875 74.171875 C 66.1875 71.429688 63.960938 69.203125 61.214844 69.203125 C 58.472656 69.203125 56.246094 71.429688 56.246094 74.171875 C 56.246094 76.917969 58.472656 79.144531 61.214844 79.144531 C 63.960938 79.144531 66.1875 76.917969 66.1875 74.171875 "/>
<path fill-rule="evenodd" fill="rgb(100%, 54.899597%, 0%)" fill-opacity="1" d="M 67.179688 74.171875 C 67.179688 70.878906 64.511719 68.207031 61.214844 68.207031 C 57.921875 68.207031 55.25 70.878906 55.25 74.171875 C 55.25 77.46875 57.921875 80.136719 61.214844 80.136719 C 64.511719 80.136719 67.179688 77.46875 67.179688 74.171875 M 65.191406 74.171875 C 65.191406 71.976562 63.410156 70.195312 61.214844 70.195312 C 59.019531 70.195312 57.238281 71.976562 57.238281 74.171875 C 57.238281 76.367188 59.019531 78.148438 61.214844 78.148438 C 63.410156 78.148438 65.191406 76.367188 65.191406 74.171875 "/>
<path fill-rule="evenodd" fill="rgb(62.69989%, 12.5%, 94.099426%)" fill-opacity="1" d="M 42.328125 36.398438 C 42.328125 33.652344 40.101562 31.429688 37.359375 31.429688 C 34.613281 31.429688 32.386719 33.652344 32.386719 36.398438 C 32.386719 39.144531 34.613281 41.367188 37.359375 41.367188 C 40.101562 41.367188 42.328125 39.144531 42.328125 36.398438 "/>
<path fill-rule="evenodd" fill="rgb(54.499817%, 0%, 54.499817%)" fill-opacity="1" d="M 43.324219 36.398438 C 43.324219 33.105469 40.652344 30.433594 37.359375 30.433594 C 34.0625 30.433594 31.394531 33.105469 31.394531 36.398438 C 31.394531 39.691406 34.0625 42.363281 37.359375 42.363281 C 40.652344 42.363281 43.324219 39.691406 43.324219 36.398438 M 41.335938 36.398438 C 41.335938 34.203125 39.554688 32.421875 37.359375 32.421875 C 35.164062 32.421875 33.382812 34.203125 33.382812 36.398438 C 33.382812 38.59375 35.164062 40.375 37.359375 40.375 C 39.554688 40.375 41.335938 38.59375 41.335938 36.398438 "/>
</svg>
