<?xml version="1.0" encoding="UTF-8"?>
<svg xmlns="http://www.w3.org/2000/svg" xmlns:xlink="http://www.w3.org/1999/xlink" width="244.503" height="105.633" viewBox="0 0 244.503 105.633">
<defs>
<clipPath id="clip-0">
<path clip-rule="nonzero" d="M 174 35 L 243.832031 35 L 243.832031 85 L 174 85 Z M 174 35 "/>
</clipPath>
<clipPath id="clip-1">
<path clip-rule="nonzero" d="M 174 35 L 243.832031 35 L 243.832031 86 L 174 86 Z M 174 35 "/>
</clipPath>
<clipPath id="clip-2">
<path clip-rule="nonzero" d="M 0.175781 31 L 206 31 L 206 105 L 0.175781 105 Z M 0.175781 31 "/>
</clipPath>
</defs>
<path fill-rule="evenodd" fill="rgb(100%, 49.798584%, 31.399536%)" fill-opacity="0.3" stroke-width="0.4" stroke-linecap="butt" stroke-linejoin="round" stroke="rgb(100%, 49.798584%, 31.399536%)" stroke-opacity="0.3" stroke-miterlimit="10" d="M 174.000373 286.668454 C 182.000729 290.000302 190.001085 293.99852 198.334625 291.666226 C 206.668165 289.333932 215.334891 280.667207 222.998142 279.001283 C 230.665312 277.331439 237.332929 282.666316 235.000635 290.999856 C 232.668341 299.333397 221.332218 310.665601 210.999568 315.667293 C 200.666919 320.665065 191.333824 319.332326 179.668435 314.667738 C 167.999127 309.999231 154.001444 301.998875 148.666567 295.331259 C 143.33169 288.667563 146.667458 283.332686 152.3316 281.999946 C 157.999662 280.667207 166.000018 283.332686 174.000373 286.668454 Z M 174.000373 286.668454 " transform="matrix(0.996538, 0, 0, -0.996538, -134.257313, 372.613432)"/>
<path fill-rule="evenodd" fill="rgb(67.799377%, 84.698486%, 90.19928%)" fill-opacity="0.3" stroke-width="0.4" stroke-linecap="butt" stroke-linejoin="round" stroke="rgb(67.799377%, 84.698486%, 90.19928%)" stroke-opacity="0.3" stroke-miterlimit="10" d="M 349.667172 362.999137 C 342.666371 362.665952 333.333276 359.334104 326.998845 356.331521 C 320.668333 353.332857 317.332565 350.667379 313.334347 348.0019 C 309.332209 345.332502 304.667622 342.667023 299.999114 341.001099 C 295.334527 339.331255 290.666019 338.668805 286.334617 338.3317 C 281.999294 337.998516 278.001076 337.998516 274.665308 337.665331 C 271.33346 337.332146 268.667981 336.665776 266.331768 334.999852 C 263.999474 333.333928 262.000365 330.66845 260.667626 326.999497 C 259.334887 323.334464 258.668517 318.665956 258.668517 314.001369 C 258.668517 309.332861 259.334887 304.668274 260.001256 300.332951 C 260.667626 296.001549 261.333996 291.999411 263.666289 289.667117 C 265.998583 287.334823 270.000721 286.668454 273.998939 287.001638 C 278.001076 287.334823 281.999294 288.667563 284.331588 290.666672 C 286.667802 292.66578 287.334171 295.331259 286.667802 299.333397 C 286.001432 303.331615 283.998403 308.666492 283.665218 313.001814 C 283.332034 317.333217 284.668693 320.665065 289.99965 324.000833 C 295.334527 327.332681 304.667622 330.66845 315.333456 333.667113 C 325.99929 336.665776 338.001783 339.331255 347.334878 341.667469 C 356.667973 343.999762 363.33167 345.998871 365.667883 348.331165 C 368.000177 350.667379 366.001068 353.332857 365.334698 354.998781 C 364.668329 356.668625 365.334698 357.331075 363.33167 359.000919 C 361.332561 360.666843 356.667973 363.332322 349.667172 362.999137 Z M 349.667172 362.999137 " transform="matrix(0.996538, 0, 0, -0.996538, -134.257313, 372.613432)"/>
<path fill-rule="evenodd" fill="rgb(93.299866%, 50.999451%, 93.299866%)" fill-opacity="0.3" stroke-width="0.4" stroke-linecap="butt" stroke-linejoin="round" stroke="rgb(93.299866%, 50.999451%, 93.299866%)" stroke-opacity="0.3" stroke-miterlimit="10" d="M 198.66781 346.665241 C 203.332397 340.667914 198.66781 335.333037 192.999748 330.331345 C 187.331686 325.333573 180.66799 320.665065 174.000373 317.999587 C 167.332757 315.334108 160.665141 314.667738 156.333738 323.001279 C 151.998416 331.334819 149.999307 348.66827 151.998416 357.331075 C 154.001444 366.00172 159.998771 366.00172 169.998236 362.665952 C 180.00162 359.334104 193.999303 352.666488 198.66781 346.665241 Z M 198.66781 346.665241 " transform="matrix(0.996538, 0, 0, -0.996538, -134.257313, 372.613432)"/>
<path fill-rule="evenodd" fill="rgb(56.498718%, 93.299866%, 56.498718%)" fill-opacity="0.3" stroke-width="0.4" stroke-linecap="butt" stroke-linejoin="round" stroke="rgb(56.498718%, 93.299866%, 56.498718%)" stroke-opacity="0.3" stroke-miterlimit="10" d="M 250.331057 366.334905 C 265.998583 364.665061 286.001432 365.331431 296.334081 361.666398 C 306.666731 358.001365 307.3331 350.001009 301.998223 345.998871 C 296.667266 342.000653 285.331142 342.000653 276.331232 341.667469 C 267.331322 341.334284 260.667626 340.667914 256.665488 335.333037 C 252.66727 329.99816 251.334531 319.998695 248.665133 313.001814 C 245.999654 306.001013 242.001436 301.998875 237.332929 301.998875 C 232.668341 301.998875 227.333464 306.001013 225.66754 311.99834 C 224.001616 317.999587 226.000725 325.999942 227.333464 332.001189 C 228.666204 337.998516 229.332573 342.000653 225.66754 345.332502 C 221.998587 348.66827 213.998232 351.333748 208.33409 355.331966 C 202.666028 359.334104 199.33418 364.665061 200.333734 368.334014 C 201.333288 371.999047 206.668165 373.998156 215.001706 372.998601 C 223.331327 371.999047 234.66745 368.000829 250.331057 366.334905 Z M 250.331057 366.334905 " transform="matrix(0.996538, 0, 0, -0.996538, -134.257313, 372.613432)"/>
<g clip-path="url(#clip-0)">
<path fill-rule="evenodd" fill="rgb(100%, 60.099792%, 60.099792%)" fill-opacity="0.3" d="M 226.820312 64.683594 C 235.125 57.707031 241.769531 51.726562 243.097656 46.746094 C 244.425781 41.761719 240.441406 37.777344 233.464844 36.449219 C 226.488281 35.117188 216.523438 36.449219 206.226562 37.113281 C 195.929688 37.777344 185.300781 37.777344 179.652344 41.761719 C 174.003906 45.75 173.339844 53.722656 176.664062 61.363281 C 179.984375 69 187.292969 76.308594 191.609375 80.628906 C 195.929688 84.945312 197.257812 86.273438 202.902344 82.953125 C 208.550781 79.632812 218.515625 71.660156 226.820312 64.683594 Z M 226.820312 64.683594 "/>
</g>
<g clip-path="url(#clip-1)">
<path fill="none" stroke-width="0.4" stroke-linecap="butt" stroke-linejoin="round" stroke="rgb(100%, 60.099792%, 60.099792%)" stroke-opacity="0.3" stroke-miterlimit="10" d="M 362.332115 308.999676 C 370.665656 316.000478 377.333272 322.001724 378.666011 326.999497 C 379.998751 332.001189 376.000533 335.999407 368.999731 337.332146 C 361.99893 338.668805 351.999466 337.332146 341.666816 336.665776 C 331.334167 335.999407 320.668333 335.999407 315.000271 332.001189 C 309.332209 327.999051 308.66584 319.998695 312.001608 312.331525 C 315.333456 304.668274 322.667442 297.334288 326.998845 292.998965 C 331.334167 288.667563 332.666906 287.334823 338.331048 290.666672 C 343.99911 293.99852 353.998575 301.998875 362.332115 308.999676 Z M 362.332115 308.999676 " transform="matrix(0.996538, 0, 0, -0.996538, -134.257313, 372.613432)"/>
</g>
<path fill="none" stroke-width="1.2" stroke-linecap="butt" stroke-linejoin="round" stroke="rgb(0%, 0%, 0%)" stroke-opacity="1" stroke-miterlimit="10" d="M 172.001265 342.000653 L 195.998411 304.001904 " transform="matrix(0.996538, 0, 0, -0.996538, -134.257313, 372.613432)"/>
<path fill="none" stroke-width="1.2" stroke-linecap="butt" stroke-linejoin="round" stroke="rgb(0%, 0%, 0%)" stroke-opacity="1" stroke-miterlimit="10" d="M 195.998411 304.001904 L 247.998763 352.000118 " transform="matrix(0.996538, 0, 0, -0.996538, -134.257313, 372.613432)"/>
<path fill="none" stroke-width="1.2" stroke-linecap="butt" stroke-linejoin="round" stroke="rgb(0%, 0%, 0%)" stroke-opacity="1" stroke-miterlimit="10" d="M 172.001265 342.000653 L 247.998763 352.000118 " transform="matrix(0.996538, 0, 0, -0.996538, -134.257313, 372.613432)"/>
<path fill="none" stroke-width="1.2" stroke-linecap="butt" stroke-linejoin="round" stroke="rgb(0%, 0%, 0%)" stroke-opacity="1" stroke-miterlimit="10" d="M 247.998763 352.000118 L 273.998939 325.999942 " transform="matrix(0.996538, 0, 0, -0.996538, -134.257313, 372.613432)"/>
<path fill="none" stroke-width="1.2" stroke-linecap="butt" stroke-linejoin="round" stroke="rgb(0%, 0%, 0%)" stroke-opacity="1" stroke-miterlimit="10" d="M 195.998411 304.001904 C 195.998411 304.001904 195.998411 304.001904 201.000104 302.33206 C 206.001796 300.666136 216.00126 297.334288 225.00117 296.334733 C 234.001081 295.331259 242.001436 296.667918 250.001792 301.998875 C 257.998227 307.333752 265.998583 316.666847 270.000721 321.331435 C 273.998939 325.999942 273.998939 325.999942 273.998939 325.999942 " transform="matrix(0.996538, 0, 0, -0.996538, -134.257313, 372.613432)"/>
<path fill="none" stroke-width="1.2" stroke-linecap="butt" stroke-linejoin="round" stroke="rgb(0%, 0%, 0%)" stroke-opacity="1" stroke-miterlimit="10" d="M 273.998939 325.999942 L 340.000892 317.999587 " transform="matrix(0.996538, 0, 0, -0.996538, -134.257313, 372.613432)"/>
<g clip-path="url(#clip-2)">
<path fill="none" stroke-width="1.2" stroke-linecap="butt" stroke-linejoin="round" stroke="rgb(0%, 0%, 0%)" stroke-opacity="1" stroke-miterlimit="10" d="M 340.000892 317.999587 C 340.000892 317.999587 340.000892 317.999587 331.000982 311.99834 C 322.001072 306.001013 304.001252 293.99852 285.668247 285.668899 C 267.331322 277.331439 248.665133 272.666851 227.666649 270.667742 C 206.668165 268.668634 183.333468 269.331083 168.332312 270.334558 C 153.331155 271.334112 146.667458 272.666851 142.332136 276.331884 C 138.000733 280.000837 136.001624 285.998164 136.001624 293.99852 C 136.001624 301.998875 138.000733 311.99834 144.331245 320.33188 C 150.665676 328.665421 161.331511 335.333037 166.666388 338.668805 C 172.001265 342.000653 172.001265 342.000653 172.001265 342.000653 " transform="matrix(0.996538, 0, 0, -0.996538, -134.257313, 372.613432)"/>
</g>
<path fill-rule="evenodd" fill="rgb(0%, 39.199829%, 0%)" fill-opacity="1" d="M 117.867188 21.832031 C 117.867188 19.082031 115.636719 16.847656 112.882812 16.847656 C 110.132812 16.847656 107.902344 19.082031 107.902344 21.832031 C 107.902344 24.582031 110.132812 26.816406 112.882812 26.816406 C 115.636719 26.816406 117.867188 24.582031 117.867188 21.832031 "/>
<path fill-rule="evenodd" fill="rgb(0%, 100%, 0%)" fill-opacity="1" d="M 118.863281 21.832031 C 118.863281 18.53125 116.1875 15.851562 112.882812 15.851562 C 109.582031 15.851562 106.90625 18.53125 106.90625 21.832031 C 106.90625 25.132812 109.582031 27.8125 112.882812 27.8125 C 116.1875 27.8125 118.863281 25.132812 118.863281 21.832031 M 116.871094 21.832031 C 116.871094 19.628906 115.085938 17.847656 112.882812 17.847656 C 110.683594 17.847656 108.898438 19.628906 108.898438 21.832031 C 108.898438 24.035156 110.683594 25.816406 112.882812 25.816406 C 115.085938 25.816406 116.871094 24.035156 116.871094 21.832031 "/>
<path fill-rule="evenodd" fill="rgb(0%, 0%, 54.499817%)" fill-opacity="1" d="M 143.777344 47.742188 C 143.777344 44.992188 141.546875 42.757812 138.792969 42.757812 C 136.042969 42.757812 133.8125 44.992188 133.8125 47.742188 C 133.8125 50.492188 136.042969 52.726562 138.792969 52.726562 C 141.546875 52.726562 143.777344 50.492188 143.777344 47.742188 "/>
<path fill-rule="evenodd" fill="rgb(0%, 0%, 100%)" fill-opacity="1" d="M 144.773438 47.742188 C 144.773438 44.441406 142.097656 41.761719 138.792969 41.761719 C 135.492188 41.761719 132.816406 44.441406 132.816406 47.742188 C 132.816406 51.042969 135.492188 53.722656 138.792969 53.722656 C 142.097656 53.722656 144.773438 51.042969 144.773438 47.742188 M 142.78125 47.742188 C 142.78125 45.539062 140.996094 43.757812 138.792969 43.757812 C 136.59375 43.757812 134.808594 45.539062 134.808594 47.742188 C 134.808594 49.945312 136.59375 51.726562 138.792969 51.726562 C 140.996094 51.726562 142.78125 49.945312 142.78125 47.742188 "/>
<path fill-rule="evenodd" fill="rgb(64.698792%, 16.499329%, 16.499329%)" fill-opacity="1" d="M 209.546875 55.714844 C 209.546875 52.964844 207.316406 50.730469 204.566406 50.730469 C 201.8125 50.730469 199.582031 52.964844 199.582031 55.714844 C 199.582031 58.464844 201.8125 60.695312 204.566406 60.695312 C 207.316406 60.695312 209.546875 58.464844 209.546875 55.714844 "/>
<path fill-rule="evenodd" fill="rgb(54.499817%, 0%, 0%)" fill-opacity="1" d="M 210.542969 55.714844 C 210.542969 52.410156 207.867188 49.734375 204.566406 49.734375 C 201.261719 49.734375 198.585938 52.410156 198.585938 55.714844 C 198.585938 59.015625 201.261719 61.695312 204.566406 61.695312 C 207.867188 61.695312 210.542969 59.015625 210.542969 55.714844 M 208.550781 55.714844 C 208.550781 53.511719 206.765625 51.726562 204.566406 51.726562 C 202.363281 51.726562 200.578125 53.511719 200.578125 55.714844 C 200.578125 57.914062 202.363281 59.699219 204.566406 59.699219 C 206.765625 59.699219 208.550781 57.914062 208.550781 55.714844 "/>
<path fill-rule="evenodd" fill="rgb(100%, 64.698792%, 0%)" fill-opacity="1" d="M 66.046875 69.664062 C 66.046875 66.914062 63.816406 64.683594 61.0625 64.683594 C 58.3125 64.683594 56.082031 66.914062 56.082031 69.664062 C 56.082031 72.417969 58.3125 74.648438 61.0625 74.648438 C 63.816406 74.648438 66.046875 72.417969 66.046875 69.664062 "/>
<path fill-rule="evenodd" fill="rgb(100%, 54.899597%, 0%)" fill-opacity="1" d="M 67.042969 69.664062 C 67.042969 66.363281 64.367188 63.6875 61.0625 63.6875 C 57.761719 63.6875 55.085938 66.363281 55.085938 69.664062 C 55.085938 72.96875 57.761719 75.644531 61.0625 75.644531 C 64.367188 75.644531 67.042969 72.96875 67.042969 69.664062 M 65.050781 69.664062 C 65.050781 67.464844 63.265625 65.679688 61.0625 65.679688 C 58.863281 65.679688 57.078125 67.464844 57.078125 69.664062 C 57.078125 71.867188 58.863281 73.652344 61.0625 73.652344 C 63.265625 73.652344 65.050781 71.867188 65.050781 69.664062 "/>
<path fill-rule="evenodd" fill="rgb(62.69989%, 12.5%, 94.099426%)" fill-opacity="1" d="M 42.128906 31.796875 C 42.128906 29.046875 39.898438 26.816406 37.148438 26.816406 C 34.394531 26.816406 32.164062 29.046875 32.164062 31.796875 C 32.164062 34.550781 34.394531 36.78125 37.148438 36.78125 C 39.898438 36.78125 42.128906 34.550781 42.128906 31.796875 "/>
<path fill-rule="evenodd" fill="rgb(54.499817%, 0%, 54.499817%)" fill-opacity="1" d="M 43.125 31.796875 C 43.125 28.496094 40.449219 25.816406 37.148438 25.816406 C 33.84375 25.816406 31.167969 28.496094 31.167969 31.796875 C 31.167969 35.101562 33.84375 37.777344 37.148438 37.777344 C 40.449219 37.777344 43.125 35.101562 43.125 31.796875 M 41.132812 31.796875 C 41.132812 29.597656 39.347656 27.8125 37.148438 27.8125 C 34.945312 27.8125 33.160156 29.597656 33.160156 31.796875 C 33.160156 34 34.945312 35.785156 37.148438 35.785156 C 39.347656 35.785156 41.132812 34 41.132812 31.796875 "/>
</svg>
