<?xml version="1.0" encoding="UTF-8"?>
<svg xmlns="http://www.w3.org/2000/svg" xmlns:xlink="http://www.w3.org/1999/xlink" width="211.8" height="90.425" viewBox="0 0 211.8 90.425">
<defs>
<clipPath id="clip-0">
<path clip-rule="nonzero" d="M 1 15 L 205 15 L 205 89.855469 L 1 89.855469 Z M 1 15 "/>
</clipPath>
</defs>
<path fill="none" stroke-width="1.2" stroke-linecap="butt" stroke-linejoin="round" stroke="rgb(0%, 0%, 0%)" stroke-opacity="1" stroke-miterlimit="10" d="M 171.998225 342.000733 L 196.001457 303.998892 " transform="matrix(0.993681, 0, 0, -0.993681, -133.47783, 356.433489)"/>
<path fill="none" stroke-width="1.2" stroke-linecap="butt" stroke-linejoin="round" stroke="rgb(0%, 0%, 0%)" stroke-opacity="1" stroke-miterlimit="10" d="M 196.001457 303.998892 L 248.001906 352.001424 " transform="matrix(0.993681, 0, 0, -0.993681, -133.47783, 356.433489)"/>
<path fill="none" stroke-width="1.2" stroke-linecap="butt" stroke-linejoin="round" stroke="rgb(0%, 0%, 0%)" stroke-opacity="1" stroke-miterlimit="10" d="M 171.998225 342.000733 L 248.001906 352.001424 " transform="matrix(0.993681, 0, 0, -0.993681, -133.47783, 356.433489)"/>
<path fill="none" stroke-width="1.2" stroke-linecap="butt" stroke-linejoin="round" stroke="rgb(0%, 0%, 0%)" stroke-opacity="1" stroke-miterlimit="10" d="M 248.001906 352.001424 L 273.998199 326.001199 " transform="matrix(0.993681, 0, 0, -0.993681, -133.47783, 356.433489)"/>
<path fill="none" stroke-width="1.2" stroke-linecap="butt" stroke-linejoin="round" stroke="rgb(0%, 0%, 0%)" stroke-opacity="1" stroke-miterlimit="10" d="M 196.001457 303.998892 C 196.001457 303.998892 196.001457 303.998892 201.001802 302.332111 C 205.998217 300.665329 215.998908 297.331765 225.001102 296.333268 C 233.999366 295.334772 241.999133 296.667411 249.998899 302.001899 C 257.998666 307.332456 265.998433 316.668793 270.000282 321.331065 C 273.998199 326.001199 273.998199 326.001199 273.998199 326.001199 " transform="matrix(0.993681, 0, 0, -0.993681, -133.47783, 356.433489)"/>
<path fill="none" stroke-width="1.2" stroke-linecap="butt" stroke-linejoin="round" stroke="rgb(0%, 0%, 0%)" stroke-opacity="1" stroke-miterlimit="10" d="M 273.998199 326.001199 L 340.001189 318.001432 " transform="matrix(0.993681, 0, 0, -0.993681, -133.47783, 356.433489)"/>
<g clip-path="url(#clip-0)">
<path fill="none" stroke-width="1.2" stroke-linecap="butt" stroke-linejoin="round" stroke="rgb(0%, 0%, 0%)" stroke-opacity="1" stroke-miterlimit="10" d="M 340.001189 318.001432 C 340.001189 318.001432 340.001189 318.001432 330.998994 311.998659 C 322.000731 305.999817 304.000273 293.998201 285.665673 285.668223 C 267.331072 277.334314 248.66626 272.668111 227.666381 270.667186 C 206.666502 268.666262 183.331556 269.334547 168.33445 270.333044 C 153.333413 271.33154 146.666286 272.668111 142.334226 276.331886 C 137.998234 279.999592 136.001241 285.998434 136.001241 293.998201 C 136.001241 302.001899 137.998234 311.998659 144.331219 320.332568 C 150.668135 328.666478 161.33318 335.333605 166.667668 338.667169 C 171.998225 342.000733 171.998225 342.000733 171.998225 342.000733 " transform="matrix(0.993681, 0, 0, -0.993681, -133.47783, 356.433489)"/>
</g>
<path fill-rule="evenodd" fill="rgb(0%, 39.199829%, 0%)" fill-opacity="1" d="M 117.921875 6.65625 C 117.921875 3.914062 115.699219 1.6875 112.957031 1.6875 C 110.210938 1.6875 107.988281 3.914062 107.988281 6.65625 C 107.988281 9.402344 110.210938 11.625 112.957031 11.625 C 115.699219 11.625 117.921875 9.402344 117.921875 6.65625 "/>
<path fill-rule="evenodd" fill="rgb(0%, 100%, 0%)" fill-opacity="1" d="M 118.917969 6.65625 C 118.917969 3.363281 116.25 0.695312 112.957031 0.695312 C 109.660156 0.695312 106.992188 3.363281 106.992188 6.65625 C 106.992188 9.949219 109.660156 12.621094 112.957031 12.621094 C 116.25 12.621094 118.917969 9.949219 118.917969 6.65625 M 116.929688 6.65625 C 116.929688 4.460938 115.148438 2.683594 112.957031 2.683594 C 110.761719 2.683594 108.980469 4.460938 108.980469 6.65625 C 108.980469 8.851562 110.761719 10.632812 112.957031 10.632812 C 115.148438 10.632812 116.929688 8.851562 116.929688 6.65625 "/>
<path fill-rule="evenodd" fill="rgb(0%, 0%, 54.499817%)" fill-opacity="1" d="M 143.757812 32.492188 C 143.757812 29.75 141.535156 27.523438 138.789062 27.523438 C 136.046875 27.523438 133.824219 29.75 133.824219 32.492188 C 133.824219 35.238281 136.046875 37.460938 138.789062 37.460938 C 141.535156 37.460938 143.757812 35.238281 143.757812 32.492188 "/>
<path fill-rule="evenodd" fill="rgb(0%, 0%, 100%)" fill-opacity="1" d="M 144.753906 32.492188 C 144.753906 29.199219 142.082031 26.53125 138.789062 26.53125 C 135.496094 26.53125 132.828125 29.199219 132.828125 32.492188 C 132.828125 35.785156 135.496094 38.457031 138.789062 38.457031 C 142.082031 38.457031 144.753906 35.785156 144.753906 32.492188 M 142.765625 32.492188 C 142.765625 30.296875 140.984375 28.519531 138.789062 28.519531 C 136.597656 28.519531 134.816406 30.296875 134.816406 32.492188 C 134.816406 34.6875 136.597656 36.46875 138.789062 36.46875 C 140.984375 36.46875 142.765625 34.6875 142.765625 32.492188 "/>
<path fill-rule="evenodd" fill="rgb(64.698792%, 16.499329%, 16.499329%)" fill-opacity="1" d="M 209.34375 40.441406 C 209.34375 37.699219 207.117188 35.472656 204.375 35.472656 C 201.628906 35.472656 199.40625 37.699219 199.40625 40.441406 C 199.40625 43.1875 201.628906 45.410156 204.375 45.410156 C 207.117188 45.410156 209.34375 43.1875 209.34375 40.441406 "/>
<path fill-rule="evenodd" fill="rgb(54.499817%, 0%, 0%)" fill-opacity="1" d="M 210.335938 40.441406 C 210.335938 37.148438 207.667969 34.480469 204.375 34.480469 C 201.082031 34.480469 198.410156 37.148438 198.410156 40.441406 C 198.410156 43.734375 201.082031 46.40625 204.375 46.40625 C 207.667969 46.40625 210.335938 43.734375 210.335938 40.441406 M 208.347656 40.441406 C 208.347656 38.246094 206.570312 36.46875 204.375 36.46875 C 202.179688 36.46875 200.398438 38.246094 200.398438 40.441406 C 200.398438 42.636719 202.179688 44.417969 204.375 44.417969 C 206.570312 44.417969 208.347656 42.636719 208.347656 40.441406 "/>
<path fill-rule="evenodd" fill="rgb(100%, 64.698792%, 0%)" fill-opacity="1" d="M 66.253906 54.355469 C 66.253906 51.609375 64.027344 49.386719 61.285156 49.386719 C 58.539062 49.386719 56.316406 51.609375 56.316406 54.355469 C 56.316406 57.097656 58.539062 59.324219 61.285156 59.324219 C 64.027344 59.324219 66.253906 57.097656 66.253906 54.355469 "/>
<path fill-rule="evenodd" fill="rgb(100%, 54.899597%, 0%)" fill-opacity="1" d="M 67.246094 54.355469 C 67.246094 51.0625 64.578125 48.390625 61.285156 48.390625 C 57.992188 48.390625 55.320312 51.0625 55.320312 54.355469 C 55.320312 57.648438 57.992188 60.316406 61.285156 60.316406 C 64.578125 60.316406 67.246094 57.648438 67.246094 54.355469 M 65.257812 54.355469 C 65.257812 52.160156 63.480469 50.378906 61.285156 50.378906 C 59.089844 50.378906 57.308594 52.160156 57.308594 54.355469 C 57.308594 56.550781 59.089844 58.328125 61.285156 58.328125 C 63.480469 58.328125 65.257812 56.550781 65.257812 54.355469 "/>
<path fill-rule="evenodd" fill="rgb(62.69989%, 12.5%, 94.099426%)" fill-opacity="1" d="M 42.402344 16.59375 C 42.402344 13.851562 40.179688 11.625 37.433594 11.625 C 34.691406 11.625 32.46875 13.851562 32.46875 16.59375 C 32.46875 19.339844 34.691406 21.5625 37.433594 21.5625 C 40.179688 21.5625 42.402344 19.339844 42.402344 16.59375 "/>
<path fill-rule="evenodd" fill="rgb(54.499817%, 0%, 54.499817%)" fill-opacity="1" d="M 43.398438 16.59375 C 43.398438 13.300781 40.726562 10.632812 37.433594 10.632812 C 34.140625 10.632812 31.472656 13.300781 31.472656 16.59375 C 31.472656 19.886719 34.140625 22.554688 37.433594 22.554688 C 40.726562 22.554688 43.398438 19.886719 43.398438 16.59375 M 41.410156 16.59375 C 41.410156 14.398438 39.628906 12.621094 37.433594 12.621094 C 35.242188 12.621094 33.460938 14.398438 33.460938 16.59375 C 33.460938 18.789062 35.242188 20.570312 37.433594 20.570312 C 39.628906 20.570312 41.410156 18.789062 41.410156 16.59375 "/>
</svg>
