<?xml version="1.0" encoding="UTF-8"?>
<svg xmlns="http://www.w3.org/2000/svg" xmlns:xlink="http://www.w3.org/1999/xlink" width="230.305" height="105.91" viewBox="0 0 230.305 105.91">
<defs>
<clipPath id="clip-0">
<path clip-rule="nonzero" d="M 0 0.113281 L 79 0.113281 L 79 90 L 0 90 Z M 0 0.113281 "/>
</clipPath>
<clipPath id="clip-1">
<path clip-rule="nonzero" d="M 197 50 L 229.613281 50 L 229.613281 81 L 197 81 Z M 197 50 "/>
</clipPath>
<clipPath id="clip-2">
<path clip-rule="nonzero" d="M 215 26 L 229.613281 26 L 229.613281 51 L 215 51 Z M 215 26 "/>
</clipPath>
<clipPath id="clip-3">
<path clip-rule="nonzero" d="M 181 48 L 229.613281 48 L 229.613281 51 L 181 51 Z M 181 48 "/>
</clipPath>
<clipPath id="clip-4">
<path clip-rule="nonzero" d="M 33 54 L 198 54 L 198 105.707031 L 33 105.707031 Z M 33 54 "/>
</clipPath>
</defs>
<path fill="none" stroke-width="1.2" stroke-linecap="butt" stroke-linejoin="round" stroke="rgb(0%, 0%, 54.499817%)" stroke-opacity="1" stroke-miterlimit="10" d="M 197.999821 307.998464 L 237.999071 311.99878 " transform="matrix(0.996991, 0, 0, -0.996991, -135.486138, 377.591333)"/>
<path fill="none" stroke-width="1.2" stroke-linecap="butt" stroke-linejoin="round" stroke="rgb(0%, 0%, 54.499817%)" stroke-opacity="1" stroke-miterlimit="10" d="M 197.999821 307.998464 L 192.001305 344.001315 " transform="matrix(0.996991, 0, 0, -0.996991, -135.486138, 377.591333)"/>
<path fill="none" stroke-width="1.2" stroke-linecap="butt" stroke-linejoin="round" stroke="rgb(0%, 0%, 54.499817%)" stroke-opacity="1" stroke-miterlimit="10" d="M 192.001305 344.001315 L 170.001521 323.999731 " transform="matrix(0.996991, 0, 0, -0.996991, -135.486138, 377.591333)"/>
<path fill="none" stroke-width="1.2" stroke-linecap="butt" stroke-linejoin="round" stroke="rgb(0%, 0%, 54.499817%)" stroke-opacity="1" stroke-miterlimit="10" d="M 155.998453 289.998997 L 197.999821 307.998464 " transform="matrix(0.996991, 0, 0, -0.996991, -135.486138, 377.591333)"/>
<path fill="none" stroke-width="1.2" stroke-linecap="butt" stroke-linejoin="round" stroke="rgb(0%, 0%, 54.499817%)" stroke-opacity="1" stroke-miterlimit="10" d="M 159.99877 355.998348 L 192.001305 344.001315 " transform="matrix(0.996991, 0, 0, -0.996991, -135.486138, 377.591333)"/>
<path fill="none" stroke-width="1.2" stroke-linecap="butt" stroke-linejoin="round" stroke="rgb(0%, 0%, 54.499817%)" stroke-opacity="1" stroke-miterlimit="10" d="M 159.99877 355.998348 L 170.001521 323.999731 " transform="matrix(0.996991, 0, 0, -0.996991, -135.486138, 377.591333)"/>
<g clip-path="url(#clip-0)">
<path fill="none" stroke-width="1.2" stroke-linecap="butt" stroke-linejoin="round" stroke="rgb(0%, 0%, 54.499817%)" stroke-opacity="1" stroke-miterlimit="10" d="M 155.998453 289.998997 C 155.998453 289.998997 155.998453 289.998997 151.998136 298.665697 C 148.001738 307.332397 140.001104 324.665797 137.665953 339.001899 C 135.334721 353.334082 138.665053 364.665048 148.667804 371.000515 C 158.666637 377.332065 175.333971 378.668116 187.334921 376.665998 C 199.331954 374.667799 206.666521 369.331431 210.333805 366.667165 C 214.001088 363.998981 214.001088 363.998981 214.001088 363.998981 " transform="matrix(0.996991, 0, 0, -0.996991, -135.486138, 377.591333)"/>
</g>
<path fill="none" stroke-width="1.2" stroke-linecap="butt" stroke-linejoin="round" stroke="rgb(0%, 0%, 54.499817%)" stroke-opacity="1" stroke-miterlimit="10" d="M 192.001305 344.001315 L 214.001088 363.998981 " transform="matrix(0.996991, 0, 0, -0.996991, -135.486138, 377.591333)"/>
<path fill="none" stroke-width="1.2" stroke-linecap="butt" stroke-linejoin="round" stroke="rgb(0%, 0%, 54.499817%)" stroke-opacity="1" stroke-miterlimit="10" d="M 192.001305 344.001315 C 192.001305 344.001315 192.001305 344.001315 197.000721 340.667065 C 202.000138 337.332814 211.998971 330.668232 217.668372 320.665481 C 223.333855 310.666648 224.665988 297.333564 225.332054 290.665063 C 225.998121 284.000481 225.998121 284.000481 225.998121 284.000481 " transform="matrix(0.996991, 0, 0, -0.996991, -135.486138, 377.591333)"/>
<path fill="none" stroke-width="1.2" stroke-linecap="butt" stroke-linejoin="round" stroke="rgb(0%, 0%, 54.499817%)" stroke-opacity="1" stroke-miterlimit="10" d="M 214.001088 363.998981 C 214.001088 363.998981 214.001088 363.998981 216.332321 357.334399 C 218.667472 350.665898 223.333855 337.332814 225.332054 323.999731 C 227.334172 310.666648 226.668105 297.333564 226.331154 290.665063 C 225.998121 284.000481 225.998121 284.000481 225.998121 284.000481 " transform="matrix(0.996991, 0, 0, -0.996991, -135.486138, 377.591333)"/>
<path fill="none" stroke-width="0.4" stroke-linecap="butt" stroke-linejoin="round" stroke="rgb(0%, 0%, 0%)" stroke-opacity="1" stroke-miterlimit="10" d="M 197.999821 307.998464 L 237.999071 311.99878 " transform="matrix(0.996991, 0, 0, -0.996991, -135.486138, 377.591333)"/>
<path fill="none" stroke-width="0.4" stroke-linecap="butt" stroke-linejoin="round" stroke="rgb(0%, 0%, 0%)" stroke-opacity="1" stroke-miterlimit="10" d="M 237.999071 311.99878 L 274.001923 328.000048 " transform="matrix(0.996991, 0, 0, -0.996991, -135.486138, 377.591333)"/>
<path fill="none" stroke-width="0.4" stroke-linecap="butt" stroke-linejoin="round" stroke="rgb(0%, 0%, 0%)" stroke-opacity="1" stroke-miterlimit="10" d="M 274.001923 328.000048 L 318.00149 329.998247 " transform="matrix(0.996991, 0, 0, -0.996991, -135.486138, 377.591333)"/>
<path fill="none" stroke-width="0.4" stroke-linecap="butt" stroke-linejoin="round" stroke="rgb(0%, 0%, 0%)" stroke-opacity="1" stroke-miterlimit="10" d="M 318.00149 329.998247 L 333.998839 297.999631 " transform="matrix(0.996991, 0, 0, -0.996991, -135.486138, 377.591333)"/>
<g clip-path="url(#clip-1)">
<path fill="none" stroke-width="0.4" stroke-linecap="butt" stroke-linejoin="round" stroke="rgb(0%, 0%, 0%)" stroke-opacity="1" stroke-miterlimit="10" d="M 333.998839 297.999631 L 366.001374 328.000048 " transform="matrix(0.996991, 0, 0, -0.996991, -135.486138, 377.591333)"/>
</g>
<path fill="none" stroke-width="0.4" stroke-linecap="butt" stroke-linejoin="round" stroke="rgb(0%, 0%, 0%)" stroke-opacity="1" stroke-miterlimit="10" d="M 274.001923 328.000048 L 271.999805 297.999631 " transform="matrix(0.996991, 0, 0, -0.996991, -135.486138, 377.591333)"/>
<path fill="none" stroke-width="0.4" stroke-linecap="butt" stroke-linejoin="round" stroke="rgb(0%, 0%, 0%)" stroke-opacity="1" stroke-miterlimit="10" d="M 197.999821 307.998464 L 192.001305 344.001315 " transform="matrix(0.996991, 0, 0, -0.996991, -135.486138, 377.591333)"/>
<path fill="none" stroke-width="0.4" stroke-linecap="butt" stroke-linejoin="round" stroke="rgb(0%, 0%, 0%)" stroke-opacity="1" stroke-miterlimit="10" d="M 192.001305 344.001315 L 170.001521 323.999731 " transform="matrix(0.996991, 0, 0, -0.996991, -135.486138, 377.591333)"/>
<path fill="none" stroke-width="0.4" stroke-linecap="butt" stroke-linejoin="round" stroke="rgb(0%, 0%, 0%)" stroke-opacity="1" stroke-miterlimit="10" d="M 155.998453 289.998997 L 197.999821 307.998464 " transform="matrix(0.996991, 0, 0, -0.996991, -135.486138, 377.591333)"/>
<path fill="none" stroke-width="0.4" stroke-linecap="butt" stroke-linejoin="round" stroke="rgb(0%, 0%, 0%)" stroke-opacity="1" stroke-miterlimit="10" d="M 159.99877 355.998348 L 192.001305 344.001315 " transform="matrix(0.996991, 0, 0, -0.996991, -135.486138, 377.591333)"/>
<path fill="none" stroke-width="0.4" stroke-linecap="butt" stroke-linejoin="round" stroke="rgb(0%, 0%, 0%)" stroke-opacity="1" stroke-miterlimit="10" d="M 159.99877 355.998348 L 170.001521 323.999731 " transform="matrix(0.996991, 0, 0, -0.996991, -135.486138, 377.591333)"/>
<path fill="none" stroke-width="0.4" stroke-linecap="butt" stroke-linejoin="round" stroke="rgb(0%, 0%, 0%)" stroke-opacity="1" stroke-miterlimit="10" d="M 155.998453 289.998997 C 155.998453 289.998997 155.998453 289.998997 154.66632 295.668398 C 153.334187 301.333881 150.666003 312.668765 151.33207 323.666698 C 151.998136 334.668549 155.998453 345.333448 158.000571 350.665898 C 159.99877 355.998348 159.99877 355.998348 159.99877 355.998348 " transform="matrix(0.996991, 0, 0, -0.996991, -135.486138, 377.591333)"/>
<path fill="none" stroke-width="0.4" stroke-linecap="butt" stroke-linejoin="round" stroke="rgb(0%, 0%, 0%)" stroke-opacity="1" stroke-miterlimit="10" d="M 155.998453 289.998997 C 155.998453 289.998997 155.998453 289.998997 151.998136 298.665697 C 148.001738 307.332397 140.001104 324.665797 137.665953 339.001899 C 135.334721 353.334082 138.665053 364.665048 148.667804 371.000515 C 158.666637 377.332065 175.333971 378.668116 187.334921 376.665998 C 199.331954 374.667799 206.666521 369.331431 210.333805 366.667165 C 214.001088 363.998981 214.001088 363.998981 214.001088 363.998981 " transform="matrix(0.996991, 0, 0, -0.996991, -135.486138, 377.591333)"/>
<path fill="none" stroke-width="0.4" stroke-linecap="butt" stroke-linejoin="round" stroke="rgb(0%, 0%, 0%)" stroke-opacity="1" stroke-miterlimit="10" d="M 192.001305 344.001315 L 214.001088 363.998981 " transform="matrix(0.996991, 0, 0, -0.996991, -135.486138, 377.591333)"/>
<path fill="none" stroke-width="0.4" stroke-linecap="butt" stroke-linejoin="round" stroke="rgb(0%, 0%, 0%)" stroke-opacity="1" stroke-miterlimit="10" d="M 214.001088 363.998981 L 244.001506 352.001949 " transform="matrix(0.996991, 0, 0, -0.996991, -135.486138, 377.591333)"/>
<path fill="none" stroke-width="0.4" stroke-linecap="butt" stroke-linejoin="round" stroke="rgb(0%, 0%, 0%)" stroke-opacity="1" stroke-miterlimit="10" d="M 244.001506 352.001949 L 237.999071 311.99878 " transform="matrix(0.996991, 0, 0, -0.996991, -135.486138, 377.591333)"/>
<path fill="none" stroke-width="0.4" stroke-linecap="butt" stroke-linejoin="round" stroke="rgb(0%, 0%, 0%)" stroke-opacity="1" stroke-miterlimit="10" d="M 225.998121 284.000481 L 197.999821 307.998464 " transform="matrix(0.996991, 0, 0, -0.996991, -135.486138, 377.591333)"/>
<path fill="none" stroke-width="0.4" stroke-linecap="butt" stroke-linejoin="round" stroke="rgb(0%, 0%, 0%)" stroke-opacity="1" stroke-miterlimit="10" d="M 225.998121 284.000481 L 271.999805 297.999631 " transform="matrix(0.996991, 0, 0, -0.996991, -135.486138, 377.591333)"/>
<path fill="none" stroke-width="0.4" stroke-linecap="butt" stroke-linejoin="round" stroke="rgb(0%, 0%, 0%)" stroke-opacity="1" stroke-miterlimit="10" d="M 192.001305 344.001315 C 192.001305 344.001315 192.001305 344.001315 197.000721 340.667065 C 202.000138 337.332814 211.998971 330.668232 217.668372 320.665481 C 223.333855 310.666648 224.665988 297.333564 225.332054 290.665063 C 225.998121 284.000481 225.998121 284.000481 225.998121 284.000481 " transform="matrix(0.996991, 0, 0, -0.996991, -135.486138, 377.591333)"/>
<path fill="none" stroke-width="0.4" stroke-linecap="butt" stroke-linejoin="round" stroke="rgb(0%, 0%, 0%)" stroke-opacity="1" stroke-miterlimit="10" d="M 244.001506 352.001949 L 296.001706 354.000148 " transform="matrix(0.996991, 0, 0, -0.996991, -135.486138, 377.591333)"/>
<path fill="none" stroke-width="0.4" stroke-linecap="butt" stroke-linejoin="round" stroke="rgb(0%, 0%, 0%)" stroke-opacity="1" stroke-miterlimit="10" d="M 296.001706 354.000148 L 351.998306 352.001949 " transform="matrix(0.996991, 0, 0, -0.996991, -135.486138, 377.591333)"/>
<g clip-path="url(#clip-2)">
<path fill="none" stroke-width="0.4" stroke-linecap="butt" stroke-linejoin="round" stroke="rgb(0%, 0%, 0%)" stroke-opacity="1" stroke-miterlimit="10" d="M 351.998306 352.001949 L 366.001374 328.000048 " transform="matrix(0.996991, 0, 0, -0.996991, -135.486138, 377.591333)"/>
</g>
<path fill="none" stroke-width="0.4" stroke-linecap="butt" stroke-linejoin="round" stroke="rgb(0%, 0%, 0%)" stroke-opacity="1" stroke-miterlimit="10" d="M 274.001923 328.000048 L 296.001706 354.000148 " transform="matrix(0.996991, 0, 0, -0.996991, -135.486138, 377.591333)"/>
<g clip-path="url(#clip-3)">
<path fill="none" stroke-width="0.4" stroke-linecap="butt" stroke-linejoin="round" stroke="rgb(0%, 0%, 0%)" stroke-opacity="1" stroke-miterlimit="10" d="M 366.001374 328.000048 L 318.00149 329.998247 " transform="matrix(0.996991, 0, 0, -0.996991, -135.486138, 377.591333)"/>
</g>
<path fill="none" stroke-width="0.4" stroke-linecap="butt" stroke-linejoin="round" stroke="rgb(0%, 0%, 0%)" stroke-opacity="1" stroke-miterlimit="10" d="M 296.001706 354.000148 C 296.001706 354.000148 296.001706 354.000148 296.001706 348.001632 C 296.001706 341.999198 296.001706 329.998247 302.333256 320.665481 C 308.668723 311.332714 321.331822 304.668131 327.66729 301.333881 C 333.998839 297.999631 333.998839 297.999631 333.998839 297.999631 " transform="matrix(0.996991, 0, 0, -0.996991, -135.486138, 377.591333)"/>
<path fill="none" stroke-width="0.4" stroke-linecap="butt" stroke-linejoin="round" stroke="rgb(0%, 0%, 0%)" stroke-opacity="1" stroke-miterlimit="10" d="M 274.001923 328.000048 L 351.998306 352.001949 " transform="matrix(0.996991, 0, 0, -0.996991, -135.486138, 377.591333)"/>
<path fill="none" stroke-width="0.4" stroke-linecap="butt" stroke-linejoin="round" stroke="rgb(0%, 0%, 0%)" stroke-opacity="1" stroke-miterlimit="10" d="M 244.001506 352.001949 L 271.999805 297.999631 " transform="matrix(0.996991, 0, 0, -0.996991, -135.486138, 377.591333)"/>
<path fill="none" stroke-width="0.4" stroke-linecap="butt" stroke-linejoin="round" stroke="rgb(0%, 0%, 0%)" stroke-opacity="1" stroke-miterlimit="10" d="M 214.001088 363.998981 C 214.001088 363.998981 214.001088 363.998981 216.332321 357.334399 C 218.667472 350.665898 223.333855 337.332814 225.332054 323.999731 C 227.334172 310.666648 226.668105 297.333564 226.331154 290.665063 C 225.998121 284.000481 225.998121 284.000481 225.998121 284.000481 " transform="matrix(0.996991, 0, 0, -0.996991, -135.486138, 377.591333)"/>
<path fill="none" stroke-width="0.4" stroke-linecap="butt" stroke-linejoin="round" stroke="rgb(0%, 0%, 0%)" stroke-opacity="1" stroke-miterlimit="10" d="M 170.001521 323.999731 C 170.001521 323.999731 170.001521 323.999731 178.33127 323.999731 C 186.668855 323.999731 203.332271 323.999731 216.998387 324.665797 C 230.668422 325.331864 241.333322 326.667915 254.000339 331.667331 C 266.667356 336.666748 281.332572 345.333448 288.667139 349.666798 C 296.001706 354.000148 296.001706 354.000148 296.001706 354.000148 " transform="matrix(0.996991, 0, 0, -0.996991, -135.486138, 377.591333)"/>
<g clip-path="url(#clip-4)">
<path fill="none" stroke-width="0.4" stroke-linecap="butt" stroke-linejoin="round" stroke="rgb(0%, 0%, 0%)" stroke-opacity="1" stroke-miterlimit="10" d="M 170.001521 323.999731 C 170.001521 323.999731 170.001521 323.999731 171.999721 316.332131 C 174.001838 308.668448 177.998237 293.333247 191.668271 284.000481 C 205.334388 274.667714 228.666305 271.333464 254.000339 274.667714 C 279.334373 277.998046 306.666606 288.000797 320.332723 293.000214 C 333.998839 297.999631 333.998839 297.999631 333.998839 297.999631 " transform="matrix(0.996991, 0, 0, -0.996991, -135.486138, 377.591333)"/>
</g>
<path fill-rule="evenodd" fill="rgb(0%, 100%, 0%)" fill-opacity="1" d="M 50.953125 39.609375 L 60.921875 39.609375 L 60.921875 29.640625 L 50.953125 29.640625 Z M 50.953125 39.609375 "/>
<path fill-rule="evenodd" fill="rgb(100%, 0%, 0%)" fill-opacity="1" d="M 49.953125 40.609375 L 61.917969 40.609375 L 61.917969 28.644531 L 49.953125 28.644531 Z M 51.949219 38.613281 L 59.925781 38.613281 L 59.925781 30.636719 L 51.949219 30.636719 Z M 51.949219 38.613281 "/>
<path fill-rule="evenodd" fill="rgb(0%, 100%, 0%)" fill-opacity="1" d="M 36.496094 54.566406 C 36.496094 53.1875 35.378906 52.074219 34.003906 52.074219 C 32.625 52.074219 31.511719 53.1875 31.511719 54.566406 C 31.511719 55.941406 32.625 57.058594 34.003906 57.058594 C 35.378906 57.058594 36.496094 55.941406 36.496094 54.566406 "/>
<path fill-rule="evenodd" fill="rgb(100%, 0%, 0%)" fill-opacity="1" d="M 36.992188 54.566406 C 36.992188 52.914062 35.65625 51.574219 34.003906 51.574219 C 32.351562 51.574219 31.011719 52.914062 31.011719 54.566406 C 31.011719 56.21875 32.351562 57.558594 34.003906 57.558594 C 35.65625 57.558594 36.992188 56.21875 36.992188 54.566406 M 35.996094 54.566406 C 35.996094 53.464844 35.105469 52.570312 34.003906 52.570312 C 32.902344 52.570312 32.007812 53.464844 32.007812 54.566406 C 32.007812 55.667969 32.902344 56.558594 34.003906 56.558594 C 35.105469 56.558594 35.996094 55.667969 35.996094 54.566406 "/>
<path fill-rule="evenodd" fill="rgb(0%, 100%, 0%)" fill-opacity="1" d="M 64.410156 70.519531 C 64.410156 69.140625 63.296875 68.027344 61.917969 68.027344 C 60.542969 68.027344 59.425781 69.140625 59.425781 70.519531 C 59.425781 71.894531 60.542969 73.011719 61.917969 73.011719 C 63.296875 73.011719 64.410156 71.894531 64.410156 70.519531 "/>
<path fill-rule="evenodd" fill="rgb(100%, 0%, 0%)" fill-opacity="1" d="M 64.910156 70.519531 C 64.910156 68.867188 63.570312 67.527344 61.917969 67.527344 C 60.265625 67.527344 58.925781 68.867188 58.925781 70.519531 C 58.925781 72.171875 60.265625 73.507812 61.917969 73.507812 C 63.570312 73.507812 64.910156 72.171875 64.910156 70.519531 M 63.914062 70.519531 C 63.914062 69.417969 63.019531 68.523438 61.917969 68.523438 C 60.816406 68.523438 59.925781 69.417969 59.925781 70.519531 C 59.925781 71.621094 60.816406 72.511719 61.917969 72.511719 C 63.019531 72.511719 63.914062 71.621094 63.914062 70.519531 "/>
<path fill-rule="evenodd" fill="rgb(0%, 100%, 0%)" fill-opacity="1" d="M 92.328125 94.445312 C 92.328125 93.070312 91.210938 91.953125 89.832031 91.953125 C 88.457031 91.953125 87.339844 93.070312 87.339844 94.445312 C 87.339844 95.824219 88.457031 96.9375 89.832031 96.9375 C 91.210938 96.9375 92.328125 95.824219 92.328125 94.445312 "/>
<path fill-rule="evenodd" fill="rgb(100%, 0%, 0%)" fill-opacity="1" d="M 92.824219 94.445312 C 92.824219 92.792969 91.484375 91.453125 89.832031 91.453125 C 88.183594 91.453125 86.84375 92.792969 86.84375 94.445312 C 86.84375 96.097656 88.183594 97.4375 89.832031 97.4375 C 91.484375 97.4375 92.824219 96.097656 92.824219 94.445312 M 91.828125 94.445312 C 91.828125 93.34375 90.9375 92.453125 89.832031 92.453125 C 88.730469 92.453125 87.839844 93.34375 87.839844 94.445312 C 87.839844 95.546875 88.730469 96.441406 89.832031 96.441406 C 90.9375 96.441406 91.828125 95.546875 91.828125 94.445312 "/>
<path fill-rule="evenodd" fill="rgb(0%, 100%, 0%)" fill-opacity="1" d="M 80.363281 14.6875 C 80.363281 13.308594 79.246094 12.195312 77.871094 12.195312 C 76.492188 12.195312 75.378906 13.308594 75.378906 14.6875 C 75.378906 16.0625 76.492188 17.179688 77.871094 17.179688 C 79.246094 17.179688 80.363281 16.0625 80.363281 14.6875 "/>
<path fill-rule="evenodd" fill="rgb(100%, 0%, 0%)" fill-opacity="1" d="M 80.859375 14.6875 C 80.859375 13.035156 79.523438 11.695312 77.871094 11.695312 C 76.21875 11.695312 74.878906 13.035156 74.878906 14.6875 C 74.878906 16.339844 76.21875 17.675781 77.871094 17.675781 C 79.523438 17.675781 80.859375 16.339844 80.859375 14.6875 M 79.863281 14.6875 C 79.863281 13.585938 78.972656 12.691406 77.871094 12.691406 C 76.769531 12.691406 75.875 13.585938 75.875 14.6875 C 75.875 15.789062 76.769531 16.679688 77.871094 16.679688 C 78.972656 16.679688 79.863281 15.789062 79.863281 14.6875 "/>
<path fill-rule="evenodd" fill="rgb(0%, 100%, 0%)" fill-opacity="1" d="M 22.535156 88.464844 C 22.535156 87.085938 21.421875 85.972656 20.042969 85.972656 C 18.667969 85.972656 17.550781 87.085938 17.550781 88.464844 C 17.550781 89.839844 18.667969 90.957031 20.042969 90.957031 C 21.421875 90.957031 22.535156 89.839844 22.535156 88.464844 "/>
<path fill-rule="evenodd" fill="rgb(100%, 0%, 0%)" fill-opacity="1" d="M 23.035156 88.464844 C 23.035156 86.8125 21.695312 85.472656 20.042969 85.472656 C 18.390625 85.472656 17.054688 86.8125 17.054688 88.464844 C 17.054688 90.117188 18.390625 91.453125 20.042969 91.453125 C 21.695312 91.453125 23.035156 90.117188 23.035156 88.464844 M 22.039062 88.464844 C 22.039062 87.363281 21.144531 86.46875 20.042969 86.46875 C 18.941406 86.46875 18.050781 87.363281 18.050781 88.464844 C 18.050781 89.566406 18.941406 90.457031 20.042969 90.457031 C 21.144531 90.457031 22.039062 89.566406 22.039062 88.464844 "/>
<path fill-rule="evenodd" fill="rgb(0%, 100%, 0%)" fill-opacity="1" d="M 104.289062 66.53125 C 104.289062 65.152344 103.175781 64.039062 101.796875 64.039062 C 100.421875 64.039062 99.304688 65.152344 99.304688 66.53125 C 99.304688 67.90625 100.421875 69.023438 101.796875 69.023438 C 103.175781 69.023438 104.289062 67.90625 104.289062 66.53125 "/>
<path fill-rule="evenodd" fill="rgb(100%, 0%, 0%)" fill-opacity="1" d="M 104.789062 66.53125 C 104.789062 64.878906 103.449219 63.539062 101.796875 63.539062 C 100.144531 63.539062 98.808594 64.878906 98.808594 66.53125 C 98.808594 68.183594 100.144531 69.519531 101.796875 69.519531 C 103.449219 69.519531 104.789062 68.183594 104.789062 66.53125 M 103.792969 66.53125 C 103.792969 65.429688 102.898438 64.535156 101.796875 64.535156 C 100.695312 64.535156 99.804688 65.429688 99.804688 66.53125 C 99.804688 67.632812 100.695312 68.523438 101.796875 68.523438 C 102.898438 68.523438 103.792969 67.632812 103.792969 66.53125 "/>
<path fill-rule="evenodd" fill="rgb(0%, 100%, 0%)" fill-opacity="1" d="M 26.523438 22.664062 C 26.523438 21.285156 25.410156 20.171875 24.03125 20.171875 C 22.65625 20.171875 21.539062 21.285156 21.539062 22.664062 C 21.539062 24.039062 22.65625 25.15625 24.03125 25.15625 C 25.410156 25.15625 26.523438 24.039062 26.523438 22.664062 "/>
<path fill-rule="evenodd" fill="rgb(100%, 0%, 0%)" fill-opacity="1" d="M 27.023438 22.664062 C 27.023438 21.011719 25.683594 19.671875 24.03125 19.671875 C 22.378906 19.671875 21.042969 21.011719 21.042969 22.664062 C 21.042969 24.3125 22.378906 25.652344 24.03125 25.652344 C 25.683594 25.652344 27.023438 24.3125 27.023438 22.664062 M 26.027344 22.664062 C 26.027344 21.5625 25.132812 20.667969 24.03125 20.667969 C 22.929688 20.667969 22.039062 21.5625 22.039062 22.664062 C 22.039062 23.765625 22.929688 24.65625 24.03125 24.65625 C 25.132812 24.65625 26.027344 23.765625 26.027344 22.664062 "/>
</svg>
