<?xml version="1.0" encoding="UTF-8"?>
<svg xmlns="http://www.w3.org/2000/svg" xmlns:xlink="http://www.w3.org/1999/xlink" width="248.4" height="125.667" viewBox="0 0 248.4 125.667">
<path fill-rule="evenodd" fill="rgb(0%, 100%, 0%)" fill-opacity="1" d="M 55.082031 46.378906 L 65.058594 46.378906 L 65.058594 36.402344 L 55.082031 36.402344 Z M 55.082031 46.378906 "/>
<path fill-rule="evenodd" fill="rgb(100%, 0%, 0%)" fill-opacity="1" d="M 54.085938 47.375 L 66.054688 47.375 L 66.054688 35.40625 L 54.085938 35.40625 Z M 56.082031 45.378906 L 64.058594 45.378906 L 64.058594 37.402344 L 56.082031 37.402344 Z M 56.082031 45.378906 "/>
<path fill-rule="evenodd" fill="rgb(0%, 100%, 0%)" fill-opacity="1" d="M 40.621094 61.335938 C 40.621094 59.960938 39.503906 58.84375 38.128906 58.84375 C 36.75 58.84375 35.632812 59.960938 35.632812 61.335938 C 35.632812 62.714844 36.75 63.832031 38.128906 63.832031 C 39.503906 63.832031 40.621094 62.714844 40.621094 61.335938 "/>
<path fill-rule="evenodd" fill="rgb(100%, 0%, 0%)" fill-opacity="1" d="M 41.121094 61.335938 C 41.121094 59.683594 39.78125 58.34375 38.128906 58.34375 C 36.476562 58.34375 35.136719 59.683594 35.136719 61.335938 C 35.136719 62.988281 36.476562 64.328125 38.128906 64.328125 C 39.78125 64.328125 41.121094 62.988281 41.121094 61.335938 M 40.121094 61.335938 C 40.121094 60.234375 39.230469 59.34375 38.128906 59.34375 C 37.027344 59.34375 36.132812 60.234375 36.132812 61.335938 C 36.132812 62.441406 37.027344 63.332031 38.128906 63.332031 C 39.230469 63.332031 40.121094 62.441406 40.121094 61.335938 "/>
<path fill-rule="evenodd" fill="rgb(0%, 100%, 0%)" fill-opacity="1" d="M 68.546875 77.296875 C 68.546875 75.917969 67.429688 74.800781 66.054688 74.800781 C 64.675781 74.800781 63.5625 75.917969 63.5625 77.296875 C 63.5625 78.671875 64.675781 79.789062 66.054688 79.789062 C 67.429688 79.789062 68.546875 78.671875 68.546875 77.296875 "/>
<path fill-rule="evenodd" fill="rgb(100%, 0%, 0%)" fill-opacity="1" d="M 69.046875 77.296875 C 69.046875 75.640625 67.707031 74.304688 66.054688 74.304688 C 64.402344 74.304688 63.0625 75.640625 63.0625 77.296875 C 63.0625 78.949219 64.402344 80.289062 66.054688 80.289062 C 67.707031 80.289062 69.046875 78.949219 69.046875 77.296875 M 68.046875 77.296875 C 68.046875 76.191406 67.15625 75.300781 66.054688 75.300781 C 64.953125 75.300781 64.058594 76.191406 64.058594 77.296875 C 64.058594 78.398438 64.953125 79.289062 66.054688 79.289062 C 67.15625 79.289062 68.046875 78.398438 68.046875 77.296875 "/>
<path fill-rule="evenodd" fill="rgb(0%, 100%, 0%)" fill-opacity="1" d="M 96.472656 101.230469 C 96.472656 99.855469 95.359375 98.738281 93.980469 98.738281 C 92.601562 98.738281 91.488281 99.855469 91.488281 101.230469 C 91.488281 102.609375 92.601562 103.726562 93.980469 103.726562 C 95.359375 103.726562 96.472656 102.609375 96.472656 101.230469 "/>
<path fill-rule="evenodd" fill="rgb(100%, 0%, 0%)" fill-opacity="1" d="M 96.972656 101.230469 C 96.972656 99.578125 95.632812 98.238281 93.980469 98.238281 C 92.328125 98.238281 90.988281 99.578125 90.988281 101.230469 C 90.988281 102.882812 92.328125 104.222656 93.980469 104.222656 C 95.632812 104.222656 96.972656 102.882812 96.972656 101.230469 M 95.976562 101.230469 C 95.976562 100.128906 95.082031 99.238281 93.980469 99.238281 C 92.878906 99.238281 91.984375 100.128906 91.984375 101.230469 C 91.984375 102.332031 92.878906 103.226562 93.980469 103.226562 C 95.082031 103.226562 95.976562 102.332031 95.976562 101.230469 "/>
<path fill-rule="evenodd" fill="rgb(0%, 100%, 0%)" fill-opacity="1" d="M 84.503906 21.441406 C 84.503906 20.066406 83.390625 18.949219 82.011719 18.949219 C 80.632812 18.949219 79.519531 20.066406 79.519531 21.441406 C 79.519531 22.820312 80.632812 23.9375 82.011719 23.9375 C 83.390625 23.9375 84.503906 22.820312 84.503906 21.441406 "/>
<path fill-rule="evenodd" fill="rgb(100%, 0%, 0%)" fill-opacity="1" d="M 85.003906 21.441406 C 85.003906 19.789062 83.664062 18.449219 82.011719 18.449219 C 80.359375 18.449219 79.019531 19.789062 79.019531 21.441406 C 79.019531 23.097656 80.359375 24.433594 82.011719 24.433594 C 83.664062 24.433594 85.003906 23.097656 85.003906 21.441406 M 84.007812 21.441406 C 84.007812 20.339844 83.113281 19.449219 82.011719 19.449219 C 80.910156 19.449219 80.015625 20.339844 80.015625 21.441406 C 80.015625 22.546875 80.910156 23.4375 82.011719 23.4375 C 83.113281 23.4375 84.007812 22.546875 84.007812 21.441406 "/>
<path fill-rule="evenodd" fill="rgb(0%, 100%, 0%)" fill-opacity="1" d="M 26.660156 95.246094 C 26.660156 93.871094 25.542969 92.753906 24.164062 92.753906 C 22.789062 92.753906 21.671875 93.871094 21.671875 95.246094 C 21.671875 96.625 22.789062 97.742188 24.164062 97.742188 C 25.542969 97.742188 26.660156 96.625 26.660156 95.246094 "/>
<path fill-rule="evenodd" fill="rgb(100%, 0%, 0%)" fill-opacity="1" d="M 27.15625 95.246094 C 27.15625 93.59375 25.816406 92.253906 24.164062 92.253906 C 22.511719 92.253906 21.171875 93.59375 21.171875 95.246094 C 21.171875 96.898438 22.511719 98.238281 24.164062 98.238281 C 25.816406 98.238281 27.15625 96.898438 27.15625 95.246094 M 26.160156 95.246094 C 26.160156 94.144531 25.265625 93.253906 24.164062 93.253906 C 23.0625 93.253906 22.171875 94.144531 22.171875 95.246094 C 22.171875 96.351562 23.0625 97.242188 24.164062 97.242188 C 25.265625 97.242188 26.160156 96.351562 26.160156 95.246094 "/>
<path fill-rule="evenodd" fill="rgb(0%, 100%, 0%)" fill-opacity="1" d="M 108.441406 73.304688 C 108.441406 71.929688 107.324219 70.8125 105.949219 70.8125 C 104.570312 70.8125 103.453125 71.929688 103.453125 73.304688 C 103.453125 74.683594 104.570312 75.800781 105.949219 75.800781 C 107.324219 75.800781 108.441406 74.683594 108.441406 73.304688 "/>
<path fill-rule="evenodd" fill="rgb(100%, 0%, 0%)" fill-opacity="1" d="M 108.941406 73.304688 C 108.941406 71.652344 107.601562 70.3125 105.949219 70.3125 C 104.296875 70.3125 102.957031 71.652344 102.957031 73.304688 C 102.957031 74.957031 104.296875 76.296875 105.949219 76.296875 C 107.601562 76.296875 108.941406 74.957031 108.941406 73.304688 M 107.941406 73.304688 C 107.941406 72.203125 107.050781 71.3125 105.949219 71.3125 C 104.847656 71.3125 103.953125 72.203125 103.953125 73.304688 C 103.953125 74.40625 104.847656 75.300781 105.949219 75.300781 C 107.050781 75.300781 107.941406 74.40625 107.941406 73.304688 "/>
<path fill-rule="evenodd" fill="rgb(0%, 100%, 0%)" fill-opacity="1" d="M 30.648438 29.421875 C 30.648438 28.042969 29.53125 26.929688 28.15625 26.929688 C 26.777344 26.929688 25.660156 28.042969 25.660156 29.421875 C 25.660156 30.800781 26.777344 31.914062 28.15625 31.914062 C 29.53125 31.914062 30.648438 30.800781 30.648438 29.421875 "/>
<path fill-rule="evenodd" fill="rgb(100%, 0%, 0%)" fill-opacity="1" d="M 31.148438 29.421875 C 31.148438 27.769531 29.808594 26.429688 28.15625 26.429688 C 26.5 26.429688 25.164062 27.769531 25.164062 29.421875 C 25.164062 31.074219 26.5 32.414062 28.15625 32.414062 C 29.808594 32.414062 31.148438 31.074219 31.148438 29.421875 M 30.148438 29.421875 C 30.148438 28.320312 29.257812 27.425781 28.15625 27.425781 C 27.050781 27.425781 26.160156 28.320312 26.160156 29.421875 C 26.160156 30.523438 27.050781 31.417969 28.15625 31.417969 C 29.257812 31.417969 30.148438 30.523438 30.148438 29.421875 "/>
</svg>
