<?xml version="1.0" encoding="UTF-8"?>
<svg xmlns="http://www.w3.org/2000/svg" xmlns:xlink="http://www.w3.org/1999/xlink" width="248.4" height="125.667" viewBox="0 0 248.4 125.667">
<path fill="none" stroke-width="2" stroke-linecap="round" stroke-linejoin="round" stroke="rgb(100%, 49.798584%, 31.399536%)" stroke-opacity="0.5" stroke-miterlimit="10" d="M 226.000391 284.001285 L 198.000611 307.998299 " transform="matrix(0.997357, 0, 0, -0.997357, -131.422636, 384.481179)"/>
<path fill="none" stroke-width="2" stroke-linecap="round" stroke-linejoin="round" stroke="rgb(62.69989%, 12.5%, 94.099426%)" stroke-opacity="0.5" stroke-miterlimit="10" d="M 160.001747 356.000161 L 170.00083 324.001531 " transform="matrix(0.997357, 0, 0, -0.997357, -131.422636, 384.481179)"/>
<path fill="none" stroke-width="2" stroke-linecap="round" stroke-linejoin="round" stroke="rgb(62.69989%, 12.5%, 94.099426%)" stroke-opacity="0.5" stroke-miterlimit="10" d="M 160.001747 356.000161 L 192.000378 343.999696 " transform="matrix(0.997357, 0, 0, -0.997357, -131.422636, 384.481179)"/>
<path fill="none" stroke-width="2" stroke-linecap="round" stroke-linejoin="round" stroke="rgb(0%, 39.199829%, 0%)" stroke-opacity="0.5" stroke-miterlimit="10" d="M 213.999926 364.001777 L 244.001089 352.001312 " transform="matrix(0.997357, 0, 0, -0.997357, -131.422636, 384.481179)"/>
<path fill="none" stroke-width="2" stroke-linecap="round" stroke-linejoin="round" stroke="rgb(0%, 39.199829%, 0%)" stroke-opacity="0.5" stroke-miterlimit="10" d="M 244.001089 352.001312 L 238.000857 312.001065 " transform="matrix(0.997357, 0, 0, -0.997357, -131.422636, 384.481179)"/>
<path fill="none" stroke-width="2" stroke-linecap="round" stroke-linejoin="round" stroke="rgb(0%, 39.199829%, 0%)" stroke-opacity="0.5" stroke-miterlimit="10" d="M 244.001089 352.001312 L 296.001801 353.998778 " transform="matrix(0.997357, 0, 0, -0.997357, -131.422636, 384.481179)"/>
<path fill="none" stroke-width="2" stroke-linecap="round" stroke-linejoin="round" stroke="rgb(0%, 0%, 54.499817%)" stroke-opacity="0.5" stroke-miterlimit="10" d="M 273.998337 328.00038 L 352.001363 352.001312 " transform="matrix(0.997357, 0, 0, -0.997357, -131.422636, 384.481179)"/>
<path fill="none" stroke-width="2" stroke-linecap="round" stroke-linejoin="round" stroke="rgb(0%, 0%, 54.499817%)" stroke-opacity="0.5" stroke-miterlimit="10" d="M 273.998337 328.00038 L 272.00087 297.999217 " transform="matrix(0.997357, 0, 0, -0.997357, -131.422636, 384.481179)"/>
<path fill="none" stroke-width="2" stroke-linecap="round" stroke-linejoin="round" stroke="rgb(54.499817%, 0%, 0%)" stroke-opacity="0.5" stroke-miterlimit="10" d="M 365.999295 328.00038 L 318.001349 330.001764 " transform="matrix(0.997357, 0, 0, -0.997357, -131.422636, 384.481179)"/>
<path fill="none" stroke-width="2" stroke-linecap="round" stroke-linejoin="round" stroke="rgb(54.499817%, 0%, 0%)" stroke-opacity="0.5" stroke-miterlimit="10" d="M 334.000664 297.999217 L 365.999295 328.00038 " transform="matrix(0.997357, 0, 0, -0.997357, -131.422636, 384.481179)"/>
<path fill="none" stroke-width="2" stroke-linecap="round" stroke-linejoin="round" stroke="rgb(100%, 49.798584%, 31.399536%)" stroke-opacity="0.5" stroke-miterlimit="10" d="M 155.998981 290.001517 L 198.000611 307.998299 " transform="matrix(0.997357, 0, 0, -0.997357, -131.422636, 384.481179)"/>
</svg>
