<?xml version="1.0" encoding="UTF-8"?>
<svg xmlns="http://www.w3.org/2000/svg" xmlns:xlink="http://www.w3.org/1999/xlink" width="248.4" height="125.667" viewBox="0 0 248.4 125.667">
<path fill-rule="evenodd" fill="rgb(0%, 39.199829%, 0%)" fill-opacity="1" d="M 120.910156 33.410156 C 120.910156 30.65625 118.675781 28.425781 115.921875 28.425781 C 113.167969 28.425781 110.933594 30.65625 110.933594 33.410156 C 110.933594 36.164062 113.167969 38.398438 115.921875 38.398438 C 118.675781 38.398438 120.910156 36.164062 120.910156 33.410156 "/>
<path fill-rule="evenodd" fill="rgb(0%, 100%, 0%)" fill-opacity="1" d="M 121.90625 33.410156 C 121.90625 30.105469 119.226562 27.425781 115.921875 27.425781 C 112.617188 27.425781 109.9375 30.105469 109.9375 33.410156 C 109.9375 36.714844 112.617188 39.394531 115.921875 39.394531 C 119.226562 39.394531 121.90625 36.714844 121.90625 33.410156 M 119.910156 33.410156 C 119.910156 31.207031 118.125 29.421875 115.921875 29.421875 C 113.71875 29.421875 111.933594 31.207031 111.933594 33.410156 C 111.933594 35.613281 113.71875 37.402344 115.921875 37.402344 C 118.125 37.402344 119.910156 35.613281 119.910156 33.410156 "/>
<path fill-rule="evenodd" fill="rgb(0%, 0%, 54.499817%)" fill-opacity="1" d="M 146.839844 59.34375 C 146.839844 56.589844 144.605469 54.355469 141.851562 54.355469 C 139.097656 54.355469 136.867188 56.589844 136.867188 59.34375 C 136.867188 62.097656 139.097656 64.328125 141.851562 64.328125 C 144.605469 64.328125 146.839844 62.097656 146.839844 59.34375 "/>
<path fill-rule="evenodd" fill="rgb(0%, 0%, 100%)" fill-opacity="1" d="M 147.835938 59.34375 C 147.835938 56.039062 145.160156 53.359375 141.851562 53.359375 C 138.546875 53.359375 135.867188 56.039062 135.867188 59.34375 C 135.867188 62.648438 138.546875 65.328125 141.851562 65.328125 C 145.160156 65.328125 147.835938 62.648438 147.835938 59.34375 M 145.84375 59.34375 C 145.84375 57.140625 144.054688 55.351562 141.851562 55.351562 C 139.648438 55.351562 137.863281 57.140625 137.863281 59.34375 C 137.863281 61.546875 139.648438 63.332031 141.851562 63.332031 C 144.054688 63.332031 145.84375 61.546875 145.84375 59.34375 "/>
<path fill-rule="evenodd" fill="rgb(64.698792%, 16.499329%, 16.499329%)" fill-opacity="1" d="M 212.664062 67.320312 C 212.664062 64.566406 210.433594 62.335938 207.679688 62.335938 C 204.925781 62.335938 202.691406 64.566406 202.691406 67.320312 C 202.691406 70.074219 204.925781 72.308594 207.679688 72.308594 C 210.433594 72.308594 212.664062 70.074219 212.664062 67.320312 "/>
<path fill-rule="evenodd" fill="rgb(54.499817%, 0%, 0%)" fill-opacity="1" d="M 213.664062 67.320312 C 213.664062 64.015625 210.984375 61.335938 207.679688 61.335938 C 204.375 61.335938 201.695312 64.015625 201.695312 67.320312 C 201.695312 70.625 204.375 73.304688 207.679688 73.304688 C 210.984375 73.304688 213.664062 70.625 213.664062 67.320312 M 211.667969 67.320312 C 211.667969 65.117188 209.882812 63.332031 207.679688 63.332031 C 205.476562 63.332031 203.6875 65.117188 203.6875 67.320312 C 203.6875 69.523438 205.476562 71.3125 207.679688 71.3125 C 209.882812 71.3125 211.667969 69.523438 211.667969 67.320312 "/>
<path fill-rule="evenodd" fill="rgb(100%, 64.698792%, 0%)" fill-opacity="1" d="M 69.046875 81.285156 C 69.046875 78.53125 66.8125 76.296875 64.058594 76.296875 C 61.304688 76.296875 59.074219 78.53125 59.074219 81.285156 C 59.074219 84.039062 61.304688 86.269531 64.058594 86.269531 C 66.8125 86.269531 69.046875 84.039062 69.046875 81.285156 "/>
<path fill-rule="evenodd" fill="rgb(100%, 54.899597%, 0%)" fill-opacity="1" d="M 70.042969 81.285156 C 70.042969 77.980469 67.363281 75.300781 64.058594 75.300781 C 60.753906 75.300781 58.074219 77.980469 58.074219 81.285156 C 58.074219 84.589844 60.753906 87.269531 64.058594 87.269531 C 67.363281 87.269531 70.042969 84.589844 70.042969 81.285156 M 68.046875 81.285156 C 68.046875 79.082031 66.261719 77.296875 64.058594 77.296875 C 61.855469 77.296875 60.070312 79.082031 60.070312 81.285156 C 60.070312 83.488281 61.855469 85.273438 64.058594 85.273438 C 66.261719 85.273438 68.046875 83.488281 68.046875 81.285156 "/>
<path fill-rule="evenodd" fill="rgb(62.69989%, 12.5%, 94.099426%)" fill-opacity="1" d="M 45.109375 43.386719 C 45.109375 40.632812 42.875 38.398438 40.121094 38.398438 C 37.367188 38.398438 35.136719 40.632812 35.136719 43.386719 C 35.136719 46.140625 37.367188 48.371094 40.121094 48.371094 C 42.875 48.371094 45.109375 46.140625 45.109375 43.386719 "/>
<path fill-rule="evenodd" fill="rgb(54.499817%, 0%, 54.499817%)" fill-opacity="1" d="M 46.105469 43.386719 C 46.105469 40.078125 43.429688 37.402344 40.121094 37.402344 C 36.816406 37.402344 34.136719 40.078125 34.136719 43.386719 C 34.136719 46.691406 36.816406 49.371094 40.121094 49.371094 C 43.429688 49.371094 46.105469 46.691406 46.105469 43.386719 M 44.113281 43.386719 C 44.113281 41.183594 42.324219 39.394531 40.121094 39.394531 C 37.917969 39.394531 36.132812 41.183594 36.132812 43.386719 C 36.132812 45.589844 37.917969 47.375 40.121094 47.375 C 42.324219 47.375 44.113281 45.589844 44.113281 43.386719 "/>
</svg>
