<?xml version="1.0" encoding="UTF-8"?>
<svg xmlns="http://www.w3.org/2000/svg" xmlns:xlink="http://www.w3.org/1999/xlink" width="253.137" height="145.011" viewBox="0 0 253.137 145.011">
<path fill-rule="evenodd" fill="rgb(0%, 39.199829%, 0%)" fill-opacity="0.1" stroke-width="0.4" stroke-linecap="butt" stroke-linejoin="round" stroke="rgb(0%, 39.199829%, 0%)" stroke-opacity="0.1" stroke-miterlimit="10" d="M 304.66616 237.601372 C 324.932349 241.066249 363.867972 232.531875 363.065663 224.799811 C 362.267286 217.067746 321.734908 210.134059 302.267096 214.401246 C 282.799284 218.668433 284.399971 234.132562 304.66616 237.601372 Z M 304.66616 237.601372 " transform="matrix(0.993226, 0, 0, -0.993226, -142.465641, 307.027023)"/>
<path fill-rule="evenodd" fill="rgb(12.5%, 12.5%, 12.5%)" fill-opacity="0.1" stroke-width="0.4" stroke-linecap="butt" stroke-linejoin="round" stroke="rgb(100%, 49.798584%, 0%)" stroke-opacity="0.1" stroke-miterlimit="10" d="M 288.667158 200.266435 C 279.601844 182.934183 239.600406 167.466121 224.399781 170.400058 C 209.199156 173.333995 218.799344 194.665997 227.868591 211.998249 C 236.933906 229.334434 245.46828 242.666936 260.668905 239.732999 C 275.865597 236.799062 297.732472 217.598687 288.667158 200.266435 Z M 288.667158 200.266435 " transform="matrix(0.993226, 0, 0, -0.993226, -142.465641, 307.027023)"/>
<path fill-rule="evenodd" fill="rgb(0%, 0%, 54.499817%)" fill-opacity="0.1" stroke-width="0.4" stroke-linecap="butt" stroke-linejoin="round" stroke="rgb(0%, 74.899292%, 100%)" stroke-opacity="0.1" stroke-miterlimit="10" d="M 324.133972 242.666936 C 320.134221 258.131064 280.667657 284.265127 265.467032 288.001374 C 250.266407 291.733688 259.331722 273.068185 263.331472 257.600124 C 267.331223 242.132063 266.265409 229.865375 281.466034 226.133061 C 296.666659 222.400747 328.133722 227.198874 324.133972 242.666936 Z M 324.133972 242.666936 " transform="matrix(0.993226, 0, 0, -0.993226, -142.465641, 307.027023)"/>
<path fill-rule="evenodd" fill="rgb(69.799805%, 13.299561%, 13.299561%)" fill-opacity="0.1" stroke-width="0.4" stroke-linecap="butt" stroke-linejoin="round" stroke="rgb(69.799805%, 13.299561%, 13.299561%)" stroke-opacity="0.1" stroke-miterlimit="10" d="M 208.436176 225.838094 C 194.340693 238.879561 195.481232 263.36181 192.779335 275.628498 C 190.081372 287.891253 183.540974 287.946313 180.9374 275.306001 C 178.333826 262.665688 179.667076 237.333935 177.511851 231.462128 C 175.36056 225.590322 169.716861 239.182394 165.5126 253.132359 C 161.308339 267.082325 158.539584 281.394116 164.804679 291.187016 C 171.073708 300.979915 186.376588 306.249989 199.547841 305.766244 C 212.719094 305.278565 223.75872 299.041 237.012564 282.054842 C 250.266407 265.068685 265.734469 237.333935 258.800781 224.26887 C 251.867094 211.199872 222.531658 212.800559 208.436176 225.838094 Z M 208.436176 225.838094 " transform="matrix(0.993226, 0, 0, -0.993226, -142.465641, 307.027023)"/>
<path fill-rule="evenodd" fill="rgb(54.499817%, 0%, 54.499817%)" fill-opacity="0.1" stroke-width="0.4" stroke-linecap="butt" stroke-linejoin="round" stroke="rgb(11.799622%, 56.498718%, 100%)" stroke-opacity="0.1" stroke-miterlimit="10" d="M 293.732722 247.465063 C 316.932848 250.666437 360.666599 210.134059 359.333349 186.666497 C 358.000099 163.198934 311.599847 156.80012 289.732972 177.066309 C 267.866096 197.332498 270.532596 244.267622 293.732722 247.465063 Z M 293.732722 247.465063 " transform="matrix(0.993226, 0, 0, -0.993226, -142.465641, 307.027023)"/>
<path fill-rule="evenodd" fill="rgb(56.498718%, 93.299866%, 56.498718%)" fill-opacity="0.1" stroke-width="0.4" stroke-linecap="butt" stroke-linejoin="round" stroke="rgb(54.499817%, 0%, 0%)" stroke-opacity="0.1" stroke-miterlimit="10" d="M 284.399971 236.000685 C 287.601344 234.667435 287.601344 227.733747 284.399971 225.598188 C 281.198597 223.46656 274.799783 226.133061 274.799783 229.601871 C 274.799783 233.066748 281.198597 237.333935 284.399971 236.000685 Z M 284.399971 236.000685 " transform="matrix(0.993226, 0, 0, -0.993226, -142.465641, 307.027023)"/>
<path fill-rule="evenodd" fill="rgb(67.799377%, 84.698486%, 90.19928%)" fill-opacity="0.1" stroke-width="0.4" stroke-linecap="butt" stroke-linejoin="round" stroke="rgb(67.799377%, 84.698486%, 90.19928%)" stroke-opacity="0.1" stroke-miterlimit="10" d="M 262.265659 225.598188 C 258.265908 225.598188 251.332221 220.80006 251.867094 217.866123 C 252.398034 214.932186 260.401468 213.866373 264.401219 213.866373 C 268.400969 213.866373 268.400969 214.932186 267.866096 217.866123 C 267.331223 220.80006 266.265409 225.598188 262.265659 225.598188 Z M 262.265659 225.598188 " transform="matrix(0.993226, 0, 0, -0.993226, -142.465641, 307.027023)"/>
<path fill-rule="evenodd" fill="rgb(84.698486%, 74.899292%, 84.698486%)" fill-opacity="0.1" stroke-width="0.4" stroke-linecap="butt" stroke-linejoin="round" stroke="rgb(84.698486%, 74.899292%, 84.698486%)" stroke-opacity="0.1" stroke-miterlimit="10" d="M 285.198348 202.665498 C 286.531598 197.867371 283.865098 187.73231 281.198597 187.468806 C 278.532097 187.20137 275.865597 196.801557 277.198847 201.867121 C 278.532097 206.932685 283.865098 207.467559 285.198348 202.665498 Z M 285.198348 202.665498 " transform="matrix(0.993226, 0, 0, -0.993226, -142.465641, 307.027023)"/>
<path fill-rule="evenodd" fill="rgb(49.798584%, 100%, 83.099365%)" fill-opacity="0.1" stroke-width="0.4" stroke-linecap="butt" stroke-linejoin="round" stroke="rgb(0%, 39.199829%, 0%)" stroke-opacity="0.1" stroke-miterlimit="10" d="M 310.80147 250.399 C 307.33266 253.86781 295.065972 253.332937 292.132035 251.73225 C 289.198098 250.131563 295.600845 247.465063 299.065723 244.000186 C 302.534533 240.531376 303.065473 236.268122 305.99941 237.868808 C 308.933347 239.465562 314.266347 246.934123 310.80147 250.399 Z M 310.80147 250.399 " transform="matrix(0.993226, 0, 0, -0.993226, -142.465641, 307.027023)"/>
<path fill-rule="evenodd" fill="rgb(59.599304%, 96.099854%, 100%)" fill-opacity="0.1" stroke-width="0.4" stroke-linecap="butt" stroke-linejoin="round" stroke="rgb(0%, 54.499817%, 54.499817%)" stroke-opacity="0.1" stroke-miterlimit="10" d="M 292.666908 232.799311 C 296.131786 234.667435 296.666659 242.132063 293.465285 244.000186 C 290.267845 245.868309 283.334157 242.132063 279.865347 240.267872 C 276.40047 238.399749 276.40047 238.399749 279.601844 236.531625 C 282.799284 234.667435 289.198098 230.931188 292.666908 232.799311 Z M 292.666908 232.799311 " transform="matrix(0.993226, 0, 0, -0.993226, -142.465641, 307.027023)"/>
<path fill-rule="evenodd" fill="rgb(100%, 100%, 87.799072%)" fill-opacity="0.1" stroke-width="0.4" stroke-linecap="butt" stroke-linejoin="round" stroke="rgb(54.499817%, 54.499817%, 0%)" stroke-opacity="0.1" stroke-miterlimit="10" d="M 324.668845 203.731312 C 324.401408 207.467559 314.801221 211.734746 308.398474 211.734746 C 301.999659 211.734746 298.798286 207.467559 299.065723 203.731312 C 299.333159 199.998998 303.065473 196.801557 309.46822 196.801557 C 315.867034 196.801557 324.932349 199.998998 324.668845 203.731312 Z M 324.668845 203.731312 " transform="matrix(0.993226, 0, 0, -0.993226, -142.465641, 307.027023)"/>
<path fill-rule="evenodd" fill="rgb(73.699951%, 93.299866%, 40.79895%)" fill-opacity="0.1" stroke-width="0.4" stroke-linecap="butt" stroke-linejoin="round" stroke="rgb(17.999268%, 54.499817%, 34.098816%)" stroke-opacity="0.1" stroke-miterlimit="10" d="M 274.001406 249.333186 C 274.268843 244.798563 267.331223 238.399749 264.932159 237.601372 C 262.533095 236.799062 264.668655 241.601122 264.401219 246.131813 C 264.133782 250.666437 261.467282 254.933624 263.866345 255.732001 C 266.265409 256.53431 273.73397 253.86781 274.001406 249.333186 Z M 274.001406 249.333186 " transform="matrix(0.993226, 0, 0, -0.993226, -142.465641, 307.027023)"/>
<path fill-rule="evenodd" fill="rgb(100%, 41.598511%, 41.598511%)" fill-opacity="0.1" stroke-width="0.4" stroke-linecap="butt" stroke-linejoin="round" stroke="rgb(100%, 41.598511%, 41.598511%)" stroke-opacity="0.1" stroke-miterlimit="10" d="M 290.000408 211.467309 C 293.465285 215.46706 302.534533 218.13356 303.600346 215.46706 C 304.66616 212.800559 297.732472 204.801058 293.201782 203.467808 C 288.667158 202.134558 286.531598 207.467559 290.000408 211.467309 Z M 290.000408 211.467309 " transform="matrix(0.993226, 0, 0, -0.993226, -142.465641, 307.027023)"/>
<path fill-rule="evenodd" fill="rgb(100%, 64.698792%, 0%)" fill-opacity="0.1" stroke-width="0.4" stroke-linecap="butt" stroke-linejoin="round" stroke="rgb(54.499817%, 0%, 54.499817%)" stroke-opacity="0.1" stroke-miterlimit="10" d="M 248.665721 232.531875 C 251.867094 233.601621 254.533594 240.000435 252.398034 244.531126 C 250.266407 249.06575 243.33272 251.73225 240.131346 250.666437 C 236.933906 249.600623 237.468779 244.798563 239.600406 240.267872 C 241.732033 235.733248 245.46828 231.466061 248.665721 232.531875 Z M 248.665721 232.531875 " transform="matrix(0.993226, 0, 0, -0.993226, -142.465641, 307.027023)"/>
<path fill-rule="evenodd" fill="rgb(54.499817%, 0%, 0%)" fill-opacity="0.1" stroke-width="0.4" stroke-linecap="butt" stroke-linejoin="round" stroke="rgb(54.499817%, 0%, 0%)" stroke-opacity="0.1" stroke-miterlimit="10" d="M 323.331662 209.599186 C 328.133722 210.668932 328.668595 222.931687 324.133972 228.001184 C 319.599348 233.066748 309.99916 230.931188 309.731724 224.799811 C 309.46822 218.668433 318.533535 208.533372 323.331662 209.599186 Z M 323.331662 209.599186 " transform="matrix(0.993226, 0, 0, -0.993226, -142.465641, 307.027023)"/>
<path fill-rule="evenodd" fill="rgb(0%, 0%, 93.299866%)" fill-opacity="0.1" stroke-width="0.4" stroke-linecap="butt" stroke-linejoin="round" stroke="rgb(0%, 0%, 93.299866%)" stroke-opacity="0.1" stroke-miterlimit="10" d="M 276.40047 222.13331 C 281.198597 223.46656 290.798785 221.334933 290.267845 222.931687 C 289.732972 224.532374 279.06697 229.865375 274.268843 228.532124 C 269.466783 227.198874 270.532596 219.199373 271.067469 217.598687 C 271.59841 216.001933 271.59841 220.80006 276.40047 222.13331 Z M 276.40047 222.13331 " transform="matrix(0.993226, 0, 0, -0.993226, -142.465641, 307.027023)"/>
<path fill-rule="evenodd" fill="rgb(59.999084%, 19.599915%, 79.998779%)" fill-opacity="0.1" stroke-width="0.4" stroke-linecap="butt" stroke-linejoin="round" stroke="rgb(59.999084%, 19.599915%, 79.998779%)" stroke-opacity="0.1" stroke-miterlimit="10" d="M 292.666908 237.333935 C 297.201532 237.333935 306.80172 233.066748 307.065223 230.931188 C 307.33266 228.799561 298.267346 228.799561 293.465285 230.931188 C 288.667158 233.066748 288.132285 237.333935 292.666908 237.333935 Z M 292.666908 237.333935 " transform="matrix(0.993226, 0, 0, -0.993226, -142.465641, 307.027023)"/>
<path fill="none" stroke-width="0.8" stroke-linecap="butt" stroke-linejoin="round" stroke="rgb(0%, 39.199829%, 0%)" stroke-opacity="1" stroke-miterlimit="10" d="M 304.66616 237.601372 C 324.932349 241.066249 363.867972 232.531875 363.065663 224.799811 C 362.267286 217.067746 321.734908 210.134059 302.267096 214.401246 C 282.799284 218.668433 284.399971 234.132562 304.66616 237.601372 Z M 304.66616 237.601372 " transform="matrix(0.993226, 0, 0, -0.993226, -142.465641, 307.027023)"/>
<path fill="none" stroke-width="0.8" stroke-linecap="butt" stroke-linejoin="round" stroke="rgb(12.5%, 12.5%, 12.5%)" stroke-opacity="1" stroke-miterlimit="10" d="M 288.667158 200.266435 C 279.601844 182.934183 239.600406 167.466121 224.399781 170.400058 C 209.199156 173.333995 218.799344 194.665997 227.868591 211.998249 C 236.933906 229.334434 245.46828 242.666936 260.668905 239.732999 C 275.865597 236.799062 297.732472 217.598687 288.667158 200.266435 Z M 288.667158 200.266435 " transform="matrix(0.993226, 0, 0, -0.993226, -142.465641, 307.027023)"/>
<path fill="none" stroke-width="0.8" stroke-linecap="butt" stroke-linejoin="round" stroke="rgb(0%, 0%, 54.499817%)" stroke-opacity="1" stroke-miterlimit="10" d="M 324.133972 242.666936 C 320.134221 258.131064 280.667657 284.265127 265.467032 288.001374 C 250.266407 291.733688 259.331722 273.068185 263.331472 257.600124 C 267.331223 242.132063 266.265409 229.865375 281.466034 226.133061 C 296.666659 222.400747 328.133722 227.198874 324.133972 242.666936 Z M 324.133972 242.666936 " transform="matrix(0.993226, 0, 0, -0.993226, -142.465641, 307.027023)"/>
<path fill="none" stroke-width="0.8" stroke-linecap="butt" stroke-linejoin="round" stroke="rgb(54.499817%, 0%, 54.499817%)" stroke-opacity="1" stroke-miterlimit="10" d="M 293.732722 247.465063 C 316.932848 250.666437 360.666599 210.134059 359.333349 186.666497 C 358.000099 163.198934 311.599847 156.80012 289.732972 177.066309 C 267.866096 197.332498 270.532596 244.267622 293.732722 247.465063 Z M 293.732722 247.465063 " transform="matrix(0.993226, 0, 0, -0.993226, -142.465641, 307.027023)"/>
<path fill="none" stroke-width="0.8" stroke-linecap="butt" stroke-linejoin="round" stroke="rgb(54.499817%, 0%, 0%)" stroke-opacity="1" stroke-miterlimit="10" d="M 284.399971 236.000685 C 287.601344 234.667435 287.601344 227.733747 284.399971 225.598188 C 281.198597 223.46656 274.799783 226.133061 274.799783 229.601871 C 274.799783 233.066748 281.198597 237.333935 284.399971 236.000685 Z M 284.399971 236.000685 " transform="matrix(0.993226, 0, 0, -0.993226, -142.465641, 307.027023)"/>
<path fill="none" stroke-width="0.8" stroke-linecap="butt" stroke-linejoin="round" stroke="rgb(67.799377%, 84.698486%, 90.19928%)" stroke-opacity="1" stroke-miterlimit="10" d="M 262.265659 225.598188 C 258.265908 225.598188 251.332221 220.80006 251.867094 217.866123 C 252.398034 214.932186 260.401468 213.866373 264.401219 213.866373 C 268.400969 213.866373 268.400969 214.932186 267.866096 217.866123 C 267.331223 220.80006 266.265409 225.598188 262.265659 225.598188 Z M 262.265659 225.598188 " transform="matrix(0.993226, 0, 0, -0.993226, -142.465641, 307.027023)"/>
<path fill="none" stroke-width="0.8" stroke-linecap="butt" stroke-linejoin="round" stroke="rgb(84.698486%, 74.899292%, 84.698486%)" stroke-opacity="1" stroke-miterlimit="10" d="M 285.198348 202.665498 C 286.531598 197.867371 283.865098 187.73231 281.198597 187.468806 C 278.532097 187.20137 275.865597 196.801557 277.198847 201.867121 C 278.532097 206.932685 283.865098 207.467559 285.198348 202.665498 Z M 285.198348 202.665498 " transform="matrix(0.993226, 0, 0, -0.993226, -142.465641, 307.027023)"/>
<path fill="none" stroke-width="0.8" stroke-linecap="butt" stroke-linejoin="round" stroke="rgb(0%, 39.199829%, 0%)" stroke-opacity="1" stroke-miterlimit="10" d="M 310.80147 250.399 C 307.33266 253.86781 295.065972 253.332937 292.132035 251.73225 C 289.198098 250.131563 295.600845 247.465063 299.065723 244.000186 C 302.534533 240.531376 303.065473 236.268122 305.99941 237.868808 C 308.933347 239.465562 314.266347 246.934123 310.80147 250.399 Z M 310.80147 250.399 " transform="matrix(0.993226, 0, 0, -0.993226, -142.465641, 307.027023)"/>
<path fill="none" stroke-width="0.8" stroke-linecap="butt" stroke-linejoin="round" stroke="rgb(0%, 54.499817%, 54.499817%)" stroke-opacity="1" stroke-miterlimit="10" d="M 292.666908 232.799311 C 296.131786 234.667435 296.666659 242.132063 293.465285 244.000186 C 290.267845 245.868309 283.334157 242.132063 279.865347 240.267872 C 276.40047 238.399749 276.40047 238.399749 279.601844 236.531625 C 282.799284 234.667435 289.198098 230.931188 292.666908 232.799311 Z M 292.666908 232.799311 " transform="matrix(0.993226, 0, 0, -0.993226, -142.465641, 307.027023)"/>
<path fill="none" stroke-width="0.8" stroke-linecap="butt" stroke-linejoin="round" stroke="rgb(54.499817%, 54.499817%, 0%)" stroke-opacity="1" stroke-miterlimit="10" d="M 324.668845 203.731312 C 324.401408 207.467559 314.801221 211.734746 308.398474 211.734746 C 301.999659 211.734746 298.798286 207.467559 299.065723 203.731312 C 299.333159 199.998998 303.065473 196.801557 309.46822 196.801557 C 315.867034 196.801557 324.932349 199.998998 324.668845 203.731312 Z M 324.668845 203.731312 " transform="matrix(0.993226, 0, 0, -0.993226, -142.465641, 307.027023)"/>
<path fill="none" stroke-width="0.8" stroke-linecap="butt" stroke-linejoin="round" stroke="rgb(17.999268%, 54.499817%, 34.098816%)" stroke-opacity="1" stroke-miterlimit="10" d="M 274.001406 249.333186 C 274.268843 244.798563 267.331223 238.399749 264.932159 237.601372 C 262.533095 236.799062 264.668655 241.601122 264.401219 246.131813 C 264.133782 250.666437 261.467282 254.933624 263.866345 255.732001 C 266.265409 256.53431 273.73397 253.86781 274.001406 249.333186 Z M 274.001406 249.333186 " transform="matrix(0.993226, 0, 0, -0.993226, -142.465641, 307.027023)"/>
<path fill="none" stroke-width="0.8" stroke-linecap="butt" stroke-linejoin="round" stroke="rgb(100%, 41.598511%, 41.598511%)" stroke-opacity="1" stroke-miterlimit="10" d="M 290.000408 211.467309 C 293.465285 215.46706 302.534533 218.13356 303.600346 215.46706 C 304.66616 212.800559 297.732472 204.801058 293.201782 203.467808 C 288.667158 202.134558 286.531598 207.467559 290.000408 211.467309 Z M 290.000408 211.467309 " transform="matrix(0.993226, 0, 0, -0.993226, -142.465641, 307.027023)"/>
<path fill="none" stroke-width="0.8" stroke-linecap="butt" stroke-linejoin="round" stroke="rgb(54.499817%, 0%, 54.499817%)" stroke-opacity="1" stroke-miterlimit="10" d="M 248.665721 232.531875 C 251.867094 233.601621 254.533594 240.000435 252.398034 244.531126 C 250.266407 249.06575 243.33272 251.73225 240.131346 250.666437 C 236.933906 249.600623 237.468779 244.798563 239.600406 240.267872 C 241.732033 235.733248 245.46828 231.466061 248.665721 232.531875 Z M 248.665721 232.531875 " transform="matrix(0.993226, 0, 0, -0.993226, -142.465641, 307.027023)"/>
<path fill="none" stroke-width="0.8" stroke-linecap="butt" stroke-linejoin="round" stroke="rgb(54.499817%, 0%, 0%)" stroke-opacity="1" stroke-miterlimit="10" d="M 323.331662 209.599186 C 328.133722 210.668932 328.668595 222.931687 324.133972 228.001184 C 319.599348 233.066748 309.99916 230.931188 309.731724 224.799811 C 309.46822 218.668433 318.533535 208.533372 323.331662 209.599186 Z M 323.331662 209.599186 " transform="matrix(0.993226, 0, 0, -0.993226, -142.465641, 307.027023)"/>
<path fill="none" stroke-width="0.8" stroke-linecap="butt" stroke-linejoin="round" stroke="rgb(0%, 0%, 93.299866%)" stroke-opacity="1" stroke-miterlimit="10" d="M 276.40047 222.13331 C 281.198597 223.46656 290.798785 221.334933 290.267845 222.931687 C 289.732972 224.532374 279.06697 229.865375 274.268843 228.532124 C 269.466783 227.198874 270.532596 219.199373 271.067469 217.598687 C 271.59841 216.001933 271.59841 220.80006 276.40047 222.13331 Z M 276.40047 222.13331 " transform="matrix(0.993226, 0, 0, -0.993226, -142.465641, 307.027023)"/>
<path fill="none" stroke-width="0.8" stroke-linecap="butt" stroke-linejoin="round" stroke="rgb(59.999084%, 19.599915%, 79.998779%)" stroke-opacity="1" stroke-miterlimit="10" d="M 292.666908 237.333935 C 297.201532 237.333935 306.80172 233.066748 307.065223 230.931188 C 307.33266 228.799561 298.267346 228.799561 293.465285 230.931188 C 288.667158 233.066748 288.132285 237.333935 292.666908 237.333935 Z M 292.666908 237.333935 " transform="matrix(0.993226, 0, 0, -0.993226, -142.465641, 307.027023)"/>
<path fill="none" stroke-width="0.8" stroke-linecap="butt" stroke-linejoin="round" stroke="rgb(69.799805%, 13.299561%, 13.299561%)" stroke-opacity="1" stroke-miterlimit="10" d="M 208.436176 225.838094 C 194.340693 238.879561 195.481232 263.36181 192.779335 275.628498 C 190.081372 287.891253 183.540974 287.946313 180.9374 275.306001 C 178.333826 262.665688 179.667076 237.333935 177.511851 231.462128 C 175.36056 225.590322 169.716861 239.182394 165.5126 253.132359 C 161.308339 267.082325 158.539584 281.394116 164.804679 291.187016 C 171.073708 300.979915 186.376588 306.249989 199.547841 305.766244 C 212.719094 305.278565 223.75872 299.041 237.012564 282.054842 C 250.266407 265.068685 265.734469 237.333935 258.800781 224.26887 C 251.867094 211.199872 222.531658 212.800559 208.436176 225.838094 Z M 208.436176 225.838094 " transform="matrix(0.993226, 0, 0, -0.993226, -142.465641, 307.027023)"/>
<path fill-rule="evenodd" fill="rgb(100%, 0%, 0%)" fill-opacity="0.1" stroke-width="2" stroke-linecap="butt" stroke-linejoin="round" stroke="rgb(100%, 0%, 0%)" stroke-opacity="1" stroke-miterlimit="10" d="M 312.756117 228.799561 C 312.756117 246.226202 298.629172 260.357081 281.198597 260.357081 C 263.771956 260.357081 249.641078 246.226202 249.641078 228.799561 C 249.641078 211.37292 263.771956 197.242041 281.198597 197.242041 C 298.629172 197.242041 312.756117 211.37292 312.756117 228.799561 " transform="matrix(0.993226, 0, 0, -0.993226, -142.465641, 307.027023)"/>
</svg>
