<?xml version="1.0" encoding="UTF-8"?>
<svg xmlns="http://www.w3.org/2000/svg" xmlns:xlink="http://www.w3.org/1999/xlink" width="253.137" height="145.011" viewBox="0 0 253.137 145.011">
<path fill-rule="evenodd" fill="rgb(0%, 39.199829%, 0%)" fill-opacity="0.1" stroke-width="0.4" stroke-linecap="butt" stroke-linejoin="round" stroke="rgb(0%, 39.199829%, 0%)" stroke-opacity="0.1" stroke-miterlimit="10" d="M 304.66616 237.601372 C 324.932349 241.066249 363.867972 232.531875 363.065663 224.799811 C 362.267286 217.067746 321.734908 210.134059 302.267096 214.401246 C 282.799284 218.668433 284.399971 234.132562 304.66616 237.601372 Z M 304.66616 237.601372 " transform="matrix(0.993226, 0, 0, -0.993226, -142.465641, 307.027023)"/>
<path fill-rule="evenodd" fill="rgb(12.5%, 12.5%, 12.5%)" fill-opacity="0.1" stroke-width="0.4" stroke-linecap="butt" stroke-linejoin="round" stroke="rgb(100%, 49.798584%, 0%)" stroke-opacity="0.1" stroke-miterlimit="10" d="M 288.667158 200.266435 C 279.601844 182.934183 239.600406 167.466121 224.399781 170.400058 C 209.199156 173.333995 218.799344 194.665997 227.868591 211.998249 C 236.933906 229.334434 245.46828 242.666936 260.668905 239.732999 C 275.865597 236.799062 297.732472 217.598687 288.667158 200.266435 Z M 288.667158 200.266435 " transform="matrix(0.993226, 0, 0, -0.993226, -142.465641, 307.027023)"/>
<path fill-rule="evenodd" fill="rgb(0%, 0%, 54.499817%)" fill-opacity="0.1" stroke-width="0.4" stroke-linecap="butt" stroke-linejoin="round" stroke="rgb(0%, 74.899292%, 100%)" stroke-opacity="0.1" stroke-miterlimit="10" d="M 324.133972 242.666936 C 320.134221 258.131064 280.667657 284.265127 265.467032 288.001374 C 250.266407 291.733688 259.331722 273.068185 263.331472 257.600124 C 267.331223 242.132063 266.265409 229.865375 281.466034 226.133061 C 296.666659 222.400747 328.133722 227.198874 324.133972 242.666936 Z M 324.133972 242.666936 " transform="matrix(0.993226, 0, 0, -0.993226, -142.465641, 307.027023)"/>
<path fill-rule="evenodd" fill="rgb(69.799805%, 13.299561%, 13.299561%)" fill-opacity="0.1" stroke-width="0.4" stroke-linecap="butt" stroke-linejoin="round" stroke="rgb(69.799805%, 13.299561%, 13.299561%)" stroke-opacity="0.1" stroke-miterlimit="10" d="M 208.436176 225.838094 C 194.340693 238.879561 195.481232 263.36181 192.779335 275.628498 C 190.081372 287.891253 183.540974 287.946313 180.9374 275.306001 C 178.333826 262.665688 179.667076 237.333935 177.511851 231.462128 C 175.36056 225.590322 169.716861 239.182394 165.5126 253.132359 C 161.308339 267.082325 158.539584 281.394116 164.804679 291.187016 C 171.073708 300.979915 186.376588 306.249989 199.547841 305.766244 C 212.719094 305.278565 223.75872 299.041 237.012564 282.054842 C 250.266407 265.068685 265.734469 237.333935 258.800781 224.26887 C 251.867094 211.199872 222.531658 212.800559 208.436176 225.838094 Z M 208.436176 225.838094 " transform="matrix(0.993226, 0, 0, -0.993226, -142.465641, 307.027023)"/>
<path fill-rule="evenodd" fill="rgb(54.499817%, 0%, 54.499817%)" fill-opacity="0.1" stroke-width="0.4" stroke-linecap="butt" stroke-linejoin="round" stroke="rgb(11.799622%, 56.498718%, 100%)" stroke-opacity="0.1" stroke-miterlimit="10" d="M 293.732722 247.465063 C 316.932848 250.666437 360.666599 210.134059 359.333349 186.666497 C 358.000099 163.198934 311.599847 156.80012 289.732972 177.066309 C 267.866096 197.332498 270.532596 244.267622 293.732722 247.465063 Z M 293.732722 247.465063 " transform="matrix(0.993226, 0, 0, -0.993226, -142.465641, 307.027023)"/>
<path fill="none" stroke-width="0.8" stroke-linecap="butt" stroke-linejoin="round" stroke="rgb(0%, 39.199829%, 0%)" stroke-opacity="1" stroke-miterlimit="10" d="M 304.66616 237.601372 C 324.932349 241.066249 363.867972 232.531875 363.065663 224.799811 C 362.267286 217.067746 321.734908 210.134059 302.267096 214.401246 C 282.799284 218.668433 284.399971 234.132562 304.66616 237.601372 Z M 304.66616 237.601372 " transform="matrix(0.993226, 0, 0, -0.993226, -142.465641, 307.027023)"/>
<path fill="none" stroke-width="0.8" stroke-linecap="butt" stroke-linejoin="round" stroke="rgb(12.5%, 12.5%, 12.5%)" stroke-opacity="1" stroke-miterlimit="10" d="M 288.667158 200.266435 C 279.601844 182.934183 239.600406 167.466121 224.399781 170.400058 C 209.199156 173.333995 218.799344 194.665997 227.868591 211.998249 C 236.933906 229.334434 245.46828 242.666936 260.668905 239.732999 C 275.865597 236.799062 297.732472 217.598687 288.667158 200.266435 Z M 288.667158 200.266435 " transform="matrix(0.993226, 0, 0, -0.993226, -142.465641, 307.027023)"/>
<path fill="none" stroke-width="0.8" stroke-linecap="butt" stroke-linejoin="round" stroke="rgb(0%, 0%, 54.499817%)" stroke-opacity="1" stroke-miterlimit="10" d="M 324.133972 242.666936 C 320.134221 258.131064 280.667657 284.265127 265.467032 288.001374 C 250.266407 291.733688 259.331722 273.068185 263.331472 257.600124 C 267.331223 242.132063 266.265409 229.865375 281.466034 226.133061 C 296.666659 222.400747 328.133722 227.198874 324.133972 242.666936 Z M 324.133972 242.666936 " transform="matrix(0.993226, 0, 0, -0.993226, -142.465641, 307.027023)"/>
<path fill="none" stroke-width="0.8" stroke-linecap="butt" stroke-linejoin="round" stroke="rgb(54.499817%, 0%, 54.499817%)" stroke-opacity="1" stroke-miterlimit="10" d="M 293.732722 247.465063 C 316.932848 250.666437 360.666599 210.134059 359.333349 186.666497 C 358.000099 163.198934 311.599847 156.80012 289.732972 177.066309 C 267.866096 197.332498 270.532596 244.267622 293.732722 247.465063 Z M 293.732722 247.465063 " transform="matrix(0.993226, 0, 0, -0.993226, -142.465641, 307.027023)"/>
<path fill="none" stroke-width="0.8" stroke-linecap="butt" stroke-linejoin="round" stroke="rgb(69.799805%, 13.299561%, 13.299561%)" stroke-opacity="1" stroke-miterlimit="10" d="M 208.436176 225.838094 C 194.340693 238.879561 195.481232 263.36181 192.779335 275.628498 C 190.081372 287.891253 183.540974 287.946313 180.9374 275.306001 C 178.333826 262.665688 179.667076 237.333935 177.511851 231.462128 C 175.36056 225.590322 169.716861 239.182394 165.5126 253.132359 C 161.308339 267.082325 158.539584 281.394116 164.804679 291.187016 C 171.073708 300.979915 186.376588 306.249989 199.547841 305.766244 C 212.719094 305.278565 223.75872 299.041 237.012564 282.054842 C 250.266407 265.068685 265.734469 237.333935 258.800781 224.26887 C 251.867094 211.199872 222.531658 212.800559 208.436176 225.838094 Z M 208.436176 225.838094 " transform="matrix(0.993226, 0, 0, -0.993226, -142.465641, 307.027023)"/>
<path fill-rule="evenodd" fill="rgb(100%, 0%, 0%)" fill-opacity="0.1" stroke-width="2" stroke-linecap="butt" stroke-linejoin="round" stroke="rgb(100%, 0%, 0%)" stroke-opacity="1" stroke-miterlimit="10" d="M 312.756117 228.799561 C 312.756117 246.226202 298.629172 260.357081 281.198597 260.357081 C 263.771956 260.357081 249.641078 246.226202 249.641078 228.799561 C 249.641078 211.37292 263.771956 197.242041 281.198597 197.242041 C 298.629172 197.242041 312.756117 211.37292 312.756117 228.799561 " transform="matrix(0.993226, 0, 0, -0.993226, -142.465641, 307.027023)"/>
</svg>
