<?xml version="1.0" encoding="UTF-8"?>
<svg xmlns="http://www.w3.org/2000/svg" xmlns:xlink="http://www.w3.org/1999/xlink" width="253.137" height="145.011" viewBox="0 0 253.137 145.011">
<defs>
<clipPath id="clip-0">
<path clip-rule="nonzero" d="M 0.429688 75 L 85 75 L 85 122 L 0.429688 122 Z M 0.429688 75 "/>
</clipPath>
<clipPath id="clip-1">
<path clip-rule="nonzero" d="M 164 0 L 251.851562 0 L 251.851562 46 L 164 46 Z M 164 0 "/>
</clipPath>
<clipPath id="clip-2">
<path clip-rule="nonzero" d="M 0.429688 75 L 86 75 L 86 122 L 0.429688 122 Z M 0.429688 75 "/>
</clipPath>
<clipPath id="clip-3">
<path clip-rule="nonzero" d="M 164 0 L 251.851562 0 L 251.851562 46 L 164 46 Z M 164 0 "/>
</clipPath>
</defs>
<path fill-rule="evenodd" fill="rgb(80.39856%, 6.298828%, 46.299744%)" fill-opacity="0.1" stroke-width="0.4" stroke-linecap="butt" stroke-linejoin="round" stroke="rgb(80.39856%, 6.298828%, 46.299744%)" stroke-opacity="0.1" stroke-miterlimit="10" d="M 360.934036 280.80025 C 375.068847 270.401685 393.734349 238.399749 389.467162 216.001933 C 385.199975 193.600184 358.000099 180.798623 343.865287 191.20112 C 329.734409 201.599685 328.668595 235.198375 332.93185 257.600124 C 337.199037 280.001873 346.799224 291.198814 360.934036 280.80025 Z M 360.934036 280.80025 " transform="matrix(0.993226, 0, 0, -0.993226, -142.465641, 307.027023)"/>
<path fill-rule="evenodd" fill="rgb(100%, 100%, 0%)" fill-opacity="0.1" stroke-width="0.4" stroke-linecap="butt" stroke-linejoin="round" stroke="rgb(54.499817%, 49.398804%, 39.99939%)" stroke-opacity="0.1" stroke-miterlimit="10" d="M 236.131596 293.601811 C 249.200594 286.400687 253.998721 265.599625 245.731784 251.468746 C 237.468779 237.333935 216.132844 229.865375 203.067779 237.066499 C 189.998781 244.267622 185.200654 266.134498 193.467591 280.265377 C 201.734529 294.400188 223.066531 300.799002 236.131596 293.601811 Z M 236.131596 293.601811 " transform="matrix(0.993226, 0, 0, -0.993226, -142.465641, 307.027023)"/>
<path fill-rule="evenodd" fill="rgb(0%, 39.199829%, 0%)" fill-opacity="0.1" d="M 84.121094 90.105469 C 80.679688 81.894531 61.078125 71.300781 40.421875 78.1875 C 19.761719 85.074219 -1.957031 109.441406 1.484375 117.652344 C 4.929688 125.863281 33.535156 117.917969 54.191406 111.03125 C 74.851562 104.144531 87.566406 98.316406 84.121094 90.105469 Z M 84.121094 90.105469 "/>
<g clip-path="url(#clip-0)">
<path fill="none" stroke-width="0.4" stroke-linecap="butt" stroke-linejoin="round" stroke="rgb(79.199219%, 100%, 43.899536%)" stroke-opacity="0.1" stroke-miterlimit="10" d="M 228.132095 218.400996 C 224.667218 226.667934 204.931969 237.333935 184.13484 230.400248 C 163.333778 223.46656 141.466902 198.933185 144.93178 190.666247 C 148.40059 182.399309 177.201153 190.39881 197.998282 197.332498 C 218.799344 204.266185 231.600905 210.134059 228.132095 218.400996 Z M 228.132095 218.400996 " transform="matrix(0.993226, 0, 0, -0.993226, -142.465641, 307.027023)"/>
</g>
<path fill-rule="evenodd" fill="rgb(100%, 64.698792%, 30.999756%)" fill-opacity="0.1" d="M 183.976562 3.230469 C 201.984375 -1.800781 230.589844 0.847656 243.304688 10.914062 C 256.015625 20.976562 252.839844 38.457031 234.828125 43.492188 C 216.816406 48.523438 183.976562 41.109375 171.261719 31.042969 C 158.546875 20.976562 165.964844 8.265625 183.976562 3.230469 Z M 183.976562 3.230469 "/>
<g clip-path="url(#clip-1)">
<path fill="none" stroke-width="0.4" stroke-linecap="butt" stroke-linejoin="round" stroke="rgb(100%, 64.698792%, 30.999756%)" stroke-opacity="0.1" stroke-miterlimit="10" d="M 328.668595 305.868499 C 346.799224 310.934063 375.599787 308.267563 388.401348 298.132502 C 401.198977 288.001374 398.001536 270.401685 379.866974 265.332188 C 361.732413 260.266624 328.668595 267.731252 315.867034 277.866313 C 303.065473 288.001374 310.534034 300.799002 328.668595 305.868499 Z M 328.668595 305.868499 " transform="matrix(0.993226, 0, 0, -0.993226, -142.465641, 307.027023)"/>
</g>
<path fill="none" stroke-width="0.8" stroke-linecap="butt" stroke-linejoin="round" stroke="rgb(80.39856%, 6.298828%, 46.299744%)" stroke-opacity="1" stroke-miterlimit="10" d="M 360.934036 280.80025 C 375.068847 270.401685 393.734349 238.399749 389.467162 216.001933 C 385.199975 193.600184 358.000099 180.798623 343.865287 191.20112 C 329.734409 201.599685 328.668595 235.198375 332.93185 257.600124 C 337.199037 280.001873 346.799224 291.198814 360.934036 280.80025 Z M 360.934036 280.80025 " transform="matrix(0.993226, 0, 0, -0.993226, -142.465641, 307.027023)"/>
<path fill="none" stroke-width="0.8" stroke-linecap="butt" stroke-linejoin="round" stroke="rgb(54.499817%, 49.398804%, 39.99939%)" stroke-opacity="1" stroke-miterlimit="10" d="M 236.131596 293.601811 C 249.200594 286.400687 253.998721 265.599625 245.731784 251.468746 C 237.468779 237.333935 216.132844 229.865375 203.067779 237.066499 C 189.998781 244.267622 185.200654 266.134498 193.467591 280.265377 C 201.734529 294.400188 223.066531 300.799002 236.131596 293.601811 Z M 236.131596 293.601811 " transform="matrix(0.993226, 0, 0, -0.993226, -142.465641, 307.027023)"/>
<g clip-path="url(#clip-2)">
<path fill="none" stroke-width="0.8" stroke-linecap="butt" stroke-linejoin="round" stroke="rgb(0%, 39.199829%, 0%)" stroke-opacity="1" stroke-miterlimit="10" d="M 228.132095 218.400996 C 224.667218 226.667934 204.931969 237.333935 184.13484 230.400248 C 163.333778 223.46656 141.466902 198.933185 144.93178 190.666247 C 148.40059 182.399309 177.201153 190.39881 197.998282 197.332498 C 218.799344 204.266185 231.600905 210.134059 228.132095 218.400996 Z M 228.132095 218.400996 " transform="matrix(0.993226, 0, 0, -0.993226, -142.465641, 307.027023)"/>
</g>
<g clip-path="url(#clip-3)">
<path fill="none" stroke-width="0.8" stroke-linecap="butt" stroke-linejoin="round" stroke="rgb(54.499817%, 21.199036%, 14.898682%)" stroke-opacity="1" stroke-miterlimit="10" d="M 328.668595 305.868499 C 346.799224 310.934063 375.599787 308.267563 388.401348 298.132502 C 401.198977 288.001374 398.001536 270.401685 379.866974 265.332188 C 361.732413 260.266624 328.668595 267.731252 315.867034 277.866313 C 303.065473 288.001374 310.534034 300.799002 328.668595 305.868499 Z M 328.668595 305.868499 " transform="matrix(0.993226, 0, 0, -0.993226, -142.465641, 307.027023)"/>
</g>
</svg>
