<?xml version="1.0" encoding="UTF-8"?>
<svg xmlns="http://www.w3.org/2000/svg" xmlns:xlink="http://www.w3.org/1999/xlink" width="1000" height="1000" viewBox="0 0 1000 1000">
<path fill-rule="nonzero" fill="rgb(14.117432%, 87.449646%, 68.234253%)" fill-opacity="1" d="M 342 406.5 C 342 484.097656 279.097656 547 201.5 547 C 123.902344 547 61 484.097656 61 406.5 C 61 328.902344 123.902344 266 201.5 266 C 279.097656 266 342 328.902344 342 406.5 "/>
<path fill-rule="nonzero" fill="rgb(14.117432%, 87.449646%, 68.234253%)" fill-opacity="1" d="M 202.90625 406.5 C 202.90625 408.375 200.09375 408.375 200.09375 406.5 C 200.09375 404.625 202.90625 404.625 202.90625 406.5 "/>
<path fill-rule="nonzero" fill="rgb(90.194702%, 54.508972%, 44.7052%)" fill-opacity="1" d="M 542 211 C 542 288.320312 479.320312 351 402 351 C 324.679688 351 262 288.320312 262 211 C 262 133.679688 324.679688 71 402 71 C 479.320312 71 542 133.679688 542 211 "/>
<path fill-rule="nonzero" fill="rgb(90.194702%, 54.508972%, 44.7052%)" fill-opacity="1" d="M 403.398438 211 C 403.398438 212.867188 400.601562 212.867188 400.601562 211 C 400.601562 209.132812 403.398438 209.132812 403.398438 211 "/>
<path fill-rule="nonzero" fill="rgb(72.547913%, 3.921509%, 23.921204%)" fill-opacity="1" d="M 612 482.5 C 612 560.097656 549.097656 623 471.5 623 C 393.902344 623 331 560.097656 331 482.5 C 331 404.902344 393.902344 342 471.5 342 C 549.097656 342 612 404.902344 612 482.5 "/>
<path fill-rule="nonzero" fill="rgb(72.547913%, 3.921509%, 23.921204%)" fill-opacity="1" d="M 472.90625 482.5 C 472.90625 484.375 470.09375 484.375 470.09375 482.5 C 470.09375 480.625 472.90625 480.625 472.90625 482.5 "/>
<path fill-rule="nonzero" fill="rgb(0.784302%, 9.803772%, 67.0578%)" fill-opacity="1" d="M 339 361.5 C 339 364.832031 334 364.832031 334 361.5 C 334 358.167969 339 358.167969 339 361.5 "/>
<path fill-rule="nonzero" fill="rgb(0.784302%, 9.803772%, 67.0578%)" fill-opacity="1" d="M 336.523438 361.5 C 336.523438 361.535156 336.476562 361.535156 336.476562 361.5 C 336.476562 361.464844 336.523438 361.464844 336.523438 361.5 "/>
<path fill-rule="nonzero" fill="rgb(85.096741%, 0.392151%, 73.332214%)" fill-opacity="1" d="M 352 349 C 352 355.074219 347.074219 360 341 360 C 334.925781 360 330 355.074219 330 349 C 330 342.925781 334.925781 338 341 338 C 347.074219 338 352 342.925781 352 349 "/>
<path fill-rule="nonzero" fill="rgb(85.096741%, 0.392151%, 73.332214%)" fill-opacity="1" d="M 341.109375 349 C 341.109375 349.148438 340.890625 349.148438 340.890625 349 C 340.890625 348.851562 341.109375 348.851562 341.109375 349 "/>
<path fill-rule="nonzero" fill="rgb(76.861572%, 59.999084%, 64.312744%)" fill-opacity="1" d="M 357 369 C 357 374.523438 352.523438 379 347 379 C 341.476562 379 337 374.523438 337 369 C 337 363.476562 341.476562 359 347 359 C 352.523438 359 357 363.476562 357 369 "/>
<path fill-rule="nonzero" fill="rgb(76.861572%, 59.999084%, 64.312744%)" fill-opacity="1" d="M 347.101562 369 C 347.101562 369.132812 346.898438 369.132812 346.898438 369 C 346.898438 368.867188 347.101562 368.867188 347.101562 369 "/>
<path fill-rule="nonzero" fill="rgb(75.68512%, 32.940674%, 54.116821%)" fill-opacity="1" d="M 363 390 C 363 396.074219 358.074219 401 352 401 C 345.925781 401 341 396.074219 341 390 C 341 383.925781 345.925781 379 352 379 C 358.074219 379 363 383.925781 363 390 "/>
<path fill-rule="nonzero" fill="rgb(75.68512%, 32.940674%, 54.116821%)" fill-opacity="1" d="M 352.109375 390 C 352.109375 390.148438 351.890625 390.148438 351.890625 390 C 351.890625 389.851562 352.109375 389.851562 352.109375 390 "/>
<path fill-rule="nonzero" fill="rgb(70.587158%, 4.705811%, 54.901123%)" fill-opacity="1" d="M 376 375 C 376 380.523438 371.523438 385 366 385 C 360.476562 385 356 380.523438 356 375 C 356 369.476562 360.476562 365 366 365 C 371.523438 365 376 369.476562 376 375 "/>
<path fill-rule="nonzero" fill="rgb(70.587158%, 4.705811%, 54.901123%)" fill-opacity="1" d="M 366.101562 375 C 366.101562 375.132812 365.898438 375.132812 365.898438 375 C 365.898438 374.867188 366.101562 374.867188 366.101562 375 "/>
<path fill-rule="nonzero" fill="rgb(94.116211%, 31.764221%, 62.744141%)" fill-opacity="1" d="M 371 355 C 371 360.523438 366.523438 365 361 365 C 355.476562 365 351 360.523438 351 355 C 351 349.476562 355.476562 345 361 345 C 366.523438 345 371 349.476562 371 355 "/>
<path fill-rule="nonzero" fill="rgb(94.116211%, 31.764221%, 62.744141%)" fill-opacity="1" d="M 361.101562 355 C 361.101562 355.132812 360.898438 355.132812 360.898438 355 C 360.898438 354.867188 361.101562 354.867188 361.101562 355 "/>
<path fill-rule="nonzero" fill="rgb(86.273193%, 50.979614%, 98.03772%)" fill-opacity="1" d="M 393 360 C 393 366.074219 388.074219 371 382 371 C 375.925781 371 371 366.074219 371 360 C 371 353.925781 375.925781 349 382 349 C 388.074219 349 393 353.925781 393 360 "/>
<path fill-rule="nonzero" fill="rgb(86.273193%, 50.979614%, 98.03772%)" fill-opacity="1" d="M 382.109375 360 C 382.109375 360.148438 381.890625 360.148438 381.890625 360 C 381.890625 359.851562 382.109375 359.851562 382.109375 360 "/>
<path fill-rule="nonzero" fill="rgb(73.724365%, 18.823242%, 56.077576%)" fill-opacity="1" d="M 381 373.5 C 381 376.832031 376 376.832031 376 373.5 C 376 370.167969 381 370.167969 381 373.5 "/>
<path fill-rule="nonzero" fill="rgb(73.724365%, 18.823242%, 56.077576%)" fill-opacity="1" d="M 378.523438 373.5 C 378.523438 373.535156 378.476562 373.535156 378.476562 373.5 C 378.476562 373.464844 378.523438 373.464844 378.523438 373.5 "/>
</svg>
