<?xml version="1.0" encoding="UTF-8"?>
<svg xmlns="http://www.w3.org/2000/svg" xmlns:xlink="http://www.w3.org/1999/xlink" width="436.4" height="429.4" viewBox="0 0 436.4 429.4">
<defs>
<clipPath id="clip-0">
<path clip-rule="nonzero" d="M 0.00390625 0 L 435.796875 0 L 435.796875 428 L 0.00390625 428 Z M 0.00390625 0 "/>
</clipPath>
<clipPath id="clip-1">
<path clip-rule="nonzero" d="M 423 207 L 435.796875 207 L 435.796875 220 L 423 220 Z M 423 207 "/>
</clipPath>
<clipPath id="clip-2">
<path clip-rule="nonzero" d="M 240 416 L 253 416 L 253 428.800781 L 240 428.800781 Z M 240 416 "/>
</clipPath>
</defs>
<g clip-path="url(#clip-0)">
<path fill-rule="evenodd" fill="rgb(100%, 100%, 100%)" fill-opacity="1" stroke-width="0.4" stroke-linecap="butt" stroke-linejoin="round" stroke="rgb(100%, 100%, 100%)" stroke-opacity="1" stroke-miterlimit="10" d="M 43.998518 456.000503 L 43.998518 28.00095 L 480.001426 28.00095 L 480.001426 456.000503 Z M 43.998518 456.000503 " transform="matrix(0.998605, 0, 0, -0.998605, -43.734, 455.563442)"/>
</g>
<path fill="none" stroke-width="2" stroke-linecap="butt" stroke-linejoin="round" stroke="rgb(0%, 0%, 0%)" stroke-opacity="1" stroke-miterlimit="10" d="M 223.999683 446.999662 L 222.998285 403.000769 " transform="matrix(0.998605, 0, 0, -0.998605, -43.734, 455.563442)"/>
<path fill="none" stroke-width="2" stroke-linecap="butt" stroke-linejoin="round" stroke="rgb(0%, 0%, 0%)" stroke-opacity="1" stroke-miterlimit="10" d="M 223.999683 446.999662 L 270.001371 448.00106 " transform="matrix(0.998605, 0, 0, -0.998605, -43.734, 455.563442)"/>
<path fill="none" stroke-width="2" stroke-linecap="butt" stroke-linejoin="round" stroke="rgb(0%, 0%, 0%)" stroke-opacity="1" stroke-miterlimit="10" d="M 223.999683 446.999662 L 127.001055 440.999102 " transform="matrix(0.998605, 0, 0, -0.998605, -43.734, 455.563442)"/>
<path fill="none" stroke-width="2" stroke-linecap="butt" stroke-linejoin="round" stroke="rgb(0%, 0%, 0%)" stroke-opacity="1" stroke-miterlimit="10" d="M 455.999184 328.999073 L 423.000014 305.000743 " transform="matrix(0.998605, 0, 0, -0.998605, -43.734, 455.563442)"/>
<path fill="none" stroke-width="2" stroke-linecap="butt" stroke-linejoin="round" stroke="rgb(0%, 0%, 0%)" stroke-opacity="1" stroke-miterlimit="10" d="M 455.999184 328.999073 L 474.000865 241.998771 " transform="matrix(0.998605, 0, 0, -0.998605, -43.734, 455.563442)"/>
<path fill="none" stroke-width="2" stroke-linecap="butt" stroke-linejoin="round" stroke="rgb(0%, 0%, 0%)" stroke-opacity="1" stroke-miterlimit="10" d="M 455.999184 328.999073 L 421.998617 348.999637 " transform="matrix(0.998605, 0, 0, -0.998605, -43.734, 455.563442)"/>
<path fill="none" stroke-width="2" stroke-linecap="butt" stroke-linejoin="round" stroke="rgb(0%, 0%, 0%)" stroke-opacity="1" stroke-miterlimit="10" d="M 451.000021 118.999018 L 432.99834 152.999586 " transform="matrix(0.998605, 0, 0, -0.998605, -43.734, 455.563442)"/>
<path fill="none" stroke-width="2" stroke-linecap="butt" stroke-linejoin="round" stroke="rgb(0%, 0%, 0%)" stroke-opacity="1" stroke-miterlimit="10" d="M 290.999421 33.000114 L 175.001626 39.998159 " transform="matrix(0.998605, 0, 0, -0.998605, -43.734, 455.563442)"/>
<path fill="none" stroke-width="2" stroke-linecap="butt" stroke-linejoin="round" stroke="rgb(0%, 0%, 0%)" stroke-opacity="1" stroke-miterlimit="10" d="M 214.998842 241.001285 L 192.999395 230.999047 " transform="matrix(0.998605, 0, 0, -0.998605, -43.734, 455.563442)"/>
<path fill="none" stroke-width="2" stroke-linecap="butt" stroke-linejoin="round" stroke="rgb(0%, 0%, 0%)" stroke-opacity="1" stroke-miterlimit="10" d="M 214.998842 241.001285 L 203.999119 269.998778 " transform="matrix(0.998605, 0, 0, -0.998605, -43.734, 455.563442)"/>
<path fill="none" stroke-width="2" stroke-linecap="butt" stroke-linejoin="round" stroke="rgb(0%, 0%, 0%)" stroke-opacity="1" stroke-miterlimit="10" d="M 314.000265 93.001806 L 362.000836 103.000132 " transform="matrix(0.998605, 0, 0, -0.998605, -43.734, 455.563442)"/>
<path fill="none" stroke-width="2" stroke-linecap="butt" stroke-linejoin="round" stroke="rgb(0%, 0%, 0%)" stroke-opacity="1" stroke-miterlimit="10" d="M 314.000265 93.001806 L 282.999977 112.998458 " transform="matrix(0.998605, 0, 0, -0.998605, -43.734, 455.563442)"/>
<path fill="none" stroke-width="2" stroke-linecap="butt" stroke-linejoin="round" stroke="rgb(0%, 0%, 0%)" stroke-opacity="1" stroke-miterlimit="10" d="M 343.999155 238.998491 L 309.001102 258.999055 " transform="matrix(0.998605, 0, 0, -0.998605, -43.734, 455.563442)"/>
<path fill="none" stroke-width="2" stroke-linecap="butt" stroke-linejoin="round" stroke="rgb(0%, 0%, 0%)" stroke-opacity="1" stroke-miterlimit="10" d="M 343.999155 238.998491 L 334.000829 204.000437 " transform="matrix(0.998605, 0, 0, -0.998605, -43.734, 455.563442)"/>
<path fill="none" stroke-width="2" stroke-linecap="butt" stroke-linejoin="round" stroke="rgb(0%, 0%, 0%)" stroke-opacity="1" stroke-miterlimit="10" d="M 343.999155 238.998491 L 382.998886 222.999604 " transform="matrix(0.998605, 0, 0, -0.998605, -43.734, 455.563442)"/>
<path fill="none" stroke-width="2" stroke-linecap="butt" stroke-linejoin="round" stroke="rgb(0%, 0%, 0%)" stroke-opacity="1" stroke-miterlimit="10" d="M 376.998325 291.000739 L 404.998333 266.998498 " transform="matrix(0.998605, 0, 0, -0.998605, -43.734, 455.563442)"/>
<path fill="none" stroke-width="2" stroke-linecap="butt" stroke-linejoin="round" stroke="rgb(0%, 0%, 0%)" stroke-opacity="1" stroke-miterlimit="10" d="M 376.998325 291.000739 L 352.999996 303.999346 " transform="matrix(0.998605, 0, 0, -0.998605, -43.734, 455.563442)"/>
<path fill="none" stroke-width="2" stroke-linecap="butt" stroke-linejoin="round" stroke="rgb(0%, 0%, 0%)" stroke-opacity="1" stroke-miterlimit="10" d="M 309.998587 294.998505 L 309.001102 258.999055 " transform="matrix(0.998605, 0, 0, -0.998605, -43.734, 455.563442)"/>
<path fill="none" stroke-width="2" stroke-linecap="butt" stroke-linejoin="round" stroke="rgb(0%, 0%, 0%)" stroke-opacity="1" stroke-miterlimit="10" d="M 309.998587 294.998505 L 324.999988 325.998793 " transform="matrix(0.998605, 0, 0, -0.998605, -43.734, 455.563442)"/>
<path fill="none" stroke-width="2" stroke-linecap="butt" stroke-linejoin="round" stroke="rgb(0%, 0%, 0%)" stroke-opacity="1" stroke-miterlimit="10" d="M 309.001102 258.999055 L 309.998587 294.998505 " transform="matrix(0.998605, 0, 0, -0.998605, -43.734, 455.563442)"/>
<path fill="none" stroke-width="2" stroke-linecap="butt" stroke-linejoin="round" stroke="rgb(0%, 0%, 0%)" stroke-opacity="1" stroke-miterlimit="10" d="M 324.999988 325.998793 L 348.000833 345.001871 " transform="matrix(0.998605, 0, 0, -0.998605, -43.734, 455.563442)"/>
<path fill="none" stroke-width="2" stroke-linecap="butt" stroke-linejoin="round" stroke="rgb(0%, 0%, 0%)" stroke-opacity="1" stroke-miterlimit="10" d="M 324.999988 325.998793 L 352.999996 303.999346 " transform="matrix(0.998605, 0, 0, -0.998605, -43.734, 455.563442)"/>
<path fill="none" stroke-width="2" stroke-linecap="butt" stroke-linejoin="round" stroke="rgb(0%, 0%, 0%)" stroke-opacity="1" stroke-miterlimit="10" d="M 264.000811 320.99963 L 239.001084 309.999906 " transform="matrix(0.998605, 0, 0, -0.998605, -43.734, 455.563442)"/>
<path fill="none" stroke-width="2" stroke-linecap="butt" stroke-linejoin="round" stroke="rgb(0%, 0%, 0%)" stroke-opacity="1" stroke-miterlimit="10" d="M 270.001371 233.999328 L 275.000534 204.000437 " transform="matrix(0.998605, 0, 0, -0.998605, -43.734, 455.563442)"/>
<path fill="none" stroke-width="2" stroke-linecap="butt" stroke-linejoin="round" stroke="rgb(0%, 0%, 0%)" stroke-opacity="1" stroke-miterlimit="10" d="M 334.000829 204.000437 L 365.998602 182.998476 " transform="matrix(0.998605, 0, 0, -0.998605, -43.734, 455.563442)"/>
<path fill="none" stroke-width="2" stroke-linecap="butt" stroke-linejoin="round" stroke="rgb(0%, 0%, 0%)" stroke-opacity="1" stroke-miterlimit="10" d="M 334.000829 204.000437 L 298.998864 193.9982 " transform="matrix(0.998605, 0, 0, -0.998605, -43.734, 455.563442)"/>
<path fill="none" stroke-width="2" stroke-linecap="butt" stroke-linejoin="round" stroke="rgb(0%, 0%, 0%)" stroke-opacity="1" stroke-miterlimit="10" d="M 216.000239 165.000707 L 175.001626 197.999877 " transform="matrix(0.998605, 0, 0, -0.998605, -43.734, 455.563442)"/>
<path fill="none" stroke-width="2" stroke-linecap="butt" stroke-linejoin="round" stroke="rgb(0%, 0%, 0%)" stroke-opacity="1" stroke-miterlimit="10" d="M 275.000534 204.000437 L 298.998864 193.9982 " transform="matrix(0.998605, 0, 0, -0.998605, -43.734, 455.563442)"/>
<path fill="none" stroke-width="2" stroke-linecap="butt" stroke-linejoin="round" stroke="rgb(0%, 0%, 0%)" stroke-opacity="1" stroke-miterlimit="10" d="M 298.998864 193.9982 L 284.001375 159.000146 " transform="matrix(0.998605, 0, 0, -0.998605, -43.734, 455.563442)"/>
<path fill="none" stroke-width="2" stroke-linecap="butt" stroke-linejoin="round" stroke="rgb(0%, 0%, 0%)" stroke-opacity="1" stroke-miterlimit="10" d="M 222.0008 320.99963 L 239.001084 309.999906 " transform="matrix(0.998605, 0, 0, -0.998605, -43.734, 455.563442)"/>
<path fill="none" stroke-width="2" stroke-linecap="butt" stroke-linejoin="round" stroke="rgb(0%, 0%, 0%)" stroke-opacity="1" stroke-miterlimit="10" d="M 200.998838 383.000205 L 222.998285 403.000769 " transform="matrix(0.998605, 0, 0, -0.998605, -43.734, 455.563442)"/>
<path fill="none" stroke-width="2" stroke-linecap="butt" stroke-linejoin="round" stroke="rgb(0%, 0%, 0%)" stroke-opacity="1" stroke-miterlimit="10" d="M 200.998838 383.000205 L 174.000229 393.999928 " transform="matrix(0.998605, 0, 0, -0.998605, -43.734, 455.563442)"/>
<path fill="none" stroke-width="2" stroke-linecap="butt" stroke-linejoin="round" stroke="rgb(0%, 0%, 0%)" stroke-opacity="1" stroke-miterlimit="10" d="M 401.000567 414.000492 L 424.998897 403.998254 " transform="matrix(0.998605, 0, 0, -0.998605, -43.734, 455.563442)"/>
<path fill="none" stroke-width="2" stroke-linecap="butt" stroke-linejoin="round" stroke="rgb(0%, 0%, 0%)" stroke-opacity="1" stroke-miterlimit="10" d="M 349.999715 381.001322 L 321.999708 379.999924 " transform="matrix(0.998605, 0, 0, -0.998605, -43.734, 455.563442)"/>
<path fill="none" stroke-width="2" stroke-linecap="butt" stroke-linejoin="round" stroke="rgb(0%, 0%, 0%)" stroke-opacity="1" stroke-miterlimit="10" d="M 349.999715 381.001322 L 348.000833 345.001871 " transform="matrix(0.998605, 0, 0, -0.998605, -43.734, 455.563442)"/>
<path fill="none" stroke-width="2" stroke-linecap="butt" stroke-linejoin="round" stroke="rgb(0%, 0%, 0%)" stroke-opacity="1" stroke-miterlimit="10" d="M 236.000803 118.999018 L 195.999675 107.001809 " transform="matrix(0.998605, 0, 0, -0.998605, -43.734, 455.563442)"/>
<path fill="none" stroke-width="2" stroke-linecap="butt" stroke-linejoin="round" stroke="rgb(0%, 0%, 0%)" stroke-opacity="1" stroke-miterlimit="10" d="M 236.000803 118.999018 L 261.000531 99.999852 " transform="matrix(0.998605, 0, 0, -0.998605, -43.734, 455.563442)"/>
<path fill="none" stroke-width="2" stroke-linecap="butt" stroke-linejoin="round" stroke="rgb(0%, 0%, 0%)" stroke-opacity="1" stroke-miterlimit="10" d="M 282.999977 112.998458 L 261.000531 99.999852 " transform="matrix(0.998605, 0, 0, -0.998605, -43.734, 455.563442)"/>
<path fill="none" stroke-width="2" stroke-linecap="butt" stroke-linejoin="round" stroke="rgb(0%, 0%, 0%)" stroke-opacity="1" stroke-miterlimit="10" d="M 282.999977 112.998458 L 307.999705 143.00126 " transform="matrix(0.998605, 0, 0, -0.998605, -43.734, 455.563442)"/>
<path fill="none" stroke-width="2" stroke-linecap="butt" stroke-linejoin="round" stroke="rgb(0%, 0%, 0%)" stroke-opacity="1" stroke-miterlimit="10" d="M 256.001367 73.001242 L 261.000531 99.999852 " transform="matrix(0.998605, 0, 0, -0.998605, -43.734, 455.563442)"/>
<path fill="none" stroke-width="2" stroke-linecap="butt" stroke-linejoin="round" stroke="rgb(0%, 0%, 0%)" stroke-opacity="1" stroke-miterlimit="10" d="M 175.001626 39.998159 L 152.000782 56.998443 " transform="matrix(0.998605, 0, 0, -0.998605, -43.734, 455.563442)"/>
<path fill="none" stroke-width="2" stroke-linecap="butt" stroke-linejoin="round" stroke="rgb(0%, 0%, 0%)" stroke-opacity="1" stroke-miterlimit="10" d="M 108.999373 157.998749 L 119.999097 202.99904 " transform="matrix(0.998605, 0, 0, -0.998605, -43.734, 455.563442)"/>
<path fill="none" stroke-width="2" stroke-linecap="butt" stroke-linejoin="round" stroke="rgb(0%, 0%, 0%)" stroke-opacity="1" stroke-miterlimit="10" d="M 108.999373 157.998749 L 80.999366 162.000426 " transform="matrix(0.998605, 0, 0, -0.998605, -43.734, 455.563442)"/>
<path fill="none" stroke-width="2" stroke-linecap="butt" stroke-linejoin="round" stroke="rgb(0%, 0%, 0%)" stroke-opacity="1" stroke-miterlimit="10" d="M 376.998325 71.999844 L 362.000836 103.000132 " transform="matrix(0.998605, 0, 0, -0.998605, -43.734, 455.563442)"/>
<path fill="none" stroke-width="2" stroke-linecap="butt" stroke-linejoin="round" stroke="rgb(0%, 0%, 0%)" stroke-opacity="1" stroke-miterlimit="10" d="M 362.000836 103.000132 L 376.998325 71.999844 " transform="matrix(0.998605, 0, 0, -0.998605, -43.734, 455.563442)"/>
<path fill="none" stroke-width="2" stroke-linecap="butt" stroke-linejoin="round" stroke="rgb(0%, 0%, 0%)" stroke-opacity="1" stroke-miterlimit="10" d="M 362.000836 103.000132 L 357.999159 126.998462 " transform="matrix(0.998605, 0, 0, -0.998605, -43.734, 455.563442)"/>
<path fill="none" stroke-width="2" stroke-linecap="butt" stroke-linejoin="round" stroke="rgb(0%, 0%, 0%)" stroke-opacity="1" stroke-miterlimit="10" d="M 365.998602 182.998476 L 390.000843 177.999313 " transform="matrix(0.998605, 0, 0, -0.998605, -43.734, 455.563442)"/>
<path fill="none" stroke-width="2" stroke-linecap="butt" stroke-linejoin="round" stroke="rgb(0%, 0%, 0%)" stroke-opacity="1" stroke-miterlimit="10" d="M 382.998886 222.999604 L 413.001688 218.000441 " transform="matrix(0.998605, 0, 0, -0.998605, -43.734, 455.563442)"/>
<path fill="none" stroke-width="2" stroke-linecap="butt" stroke-linejoin="round" stroke="rgb(0%, 0%, 0%)" stroke-opacity="1" stroke-miterlimit="10" d="M 390.000843 177.999313 L 407.998613 154.000983 " transform="matrix(0.998605, 0, 0, -0.998605, -43.734, 455.563442)"/>
<path fill="none" stroke-width="2" stroke-linecap="butt" stroke-linejoin="round" stroke="rgb(0%, 0%, 0%)" stroke-opacity="1" stroke-miterlimit="10" d="M 407.998613 154.000983 L 432.99834 152.999586 " transform="matrix(0.998605, 0, 0, -0.998605, -43.734, 455.563442)"/>
<path fill="none" stroke-width="2" stroke-linecap="butt" stroke-linejoin="round" stroke="rgb(0%, 0%, 0%)" stroke-opacity="1" stroke-miterlimit="10" d="M 423.000014 305.000743 L 424.998897 280.001016 " transform="matrix(0.998605, 0, 0, -0.998605, -43.734, 455.563442)"/>
<path fill="none" stroke-width="2" stroke-linecap="butt" stroke-linejoin="round" stroke="rgb(0%, 0%, 0%)" stroke-opacity="1" stroke-miterlimit="10" d="M 421.998617 348.999637 L 424.998897 403.998254 " transform="matrix(0.998605, 0, 0, -0.998605, -43.734, 455.563442)"/>
<path fill="none" stroke-width="2" stroke-linecap="butt" stroke-linejoin="round" stroke="rgb(0%, 0%, 0%)" stroke-opacity="1" stroke-miterlimit="10" d="M 424.998897 403.998254 L 421.998617 348.999637 " transform="matrix(0.998605, 0, 0, -0.998605, -43.734, 455.563442)"/>
<path fill="none" stroke-width="2" stroke-linecap="butt" stroke-linejoin="round" stroke="rgb(0%, 0%, 0%)" stroke-opacity="1" stroke-miterlimit="10" d="M 310.999985 442.000499 L 270.001371 448.00106 " transform="matrix(0.998605, 0, 0, -0.998605, -43.734, 455.563442)"/>
<path fill="none" stroke-width="2" stroke-linecap="butt" stroke-linejoin="round" stroke="rgb(0%, 0%, 0%)" stroke-opacity="1" stroke-miterlimit="10" d="M 180.998274 300.00158 L 203.999119 269.998778 " transform="matrix(0.998605, 0, 0, -0.998605, -43.734, 455.563442)"/>
<path fill="none" stroke-width="2" stroke-linecap="butt" stroke-linejoin="round" stroke="rgb(0%, 0%, 0%)" stroke-opacity="1" stroke-miterlimit="10" d="M 230.000243 283.001296 L 239.001084 309.999906 " transform="matrix(0.998605, 0, 0, -0.998605, -43.734, 455.563442)"/>
<path fill="none" stroke-width="2" stroke-linecap="butt" stroke-linejoin="round" stroke="rgb(0%, 0%, 0%)" stroke-opacity="1" stroke-miterlimit="10" d="M 230.000243 283.001296 L 203.999119 269.998778 " transform="matrix(0.998605, 0, 0, -0.998605, -43.734, 455.563442)"/>
<path fill="none" stroke-width="2" stroke-linecap="butt" stroke-linejoin="round" stroke="rgb(0%, 0%, 0%)" stroke-opacity="1" stroke-miterlimit="10" d="M 203.999119 269.998778 L 230.000243 283.001296 " transform="matrix(0.998605, 0, 0, -0.998605, -43.734, 455.563442)"/>
<path fill="none" stroke-width="2" stroke-linecap="butt" stroke-linejoin="round" stroke="rgb(0%, 0%, 0%)" stroke-opacity="1" stroke-miterlimit="10" d="M 150.001899 252.998494 L 136.001895 283.001296 " transform="matrix(0.998605, 0, 0, -0.998605, -43.734, 455.563442)"/>
<path fill="none" stroke-width="2" stroke-linecap="butt" stroke-linejoin="round" stroke="rgb(0%, 0%, 0%)" stroke-opacity="1" stroke-miterlimit="10" d="M 150.001899 252.998494 L 138.000778 215.000161 " transform="matrix(0.998605, 0, 0, -0.998605, -43.734, 455.563442)"/>
<path fill="none" stroke-width="2" stroke-linecap="butt" stroke-linejoin="round" stroke="rgb(0%, 0%, 0%)" stroke-opacity="1" stroke-miterlimit="10" d="M 136.001895 283.001296 L 150.001899 252.998494 " transform="matrix(0.998605, 0, 0, -0.998605, -43.734, 455.563442)"/>
<path fill="none" stroke-width="2" stroke-linecap="butt" stroke-linejoin="round" stroke="rgb(0%, 0%, 0%)" stroke-opacity="1" stroke-miterlimit="10" d="M 99.998533 289.001857 L 74.998806 266.998498 " transform="matrix(0.998605, 0, 0, -0.998605, -43.734, 455.563442)"/>
<path fill="none" stroke-width="2" stroke-linecap="butt" stroke-linejoin="round" stroke="rgb(0%, 0%, 0%)" stroke-opacity="1" stroke-miterlimit="10" d="M 150.001899 344.000474 L 121.000494 370.999084 " transform="matrix(0.998605, 0, 0, -0.998605, -43.734, 455.563442)"/>
<path fill="none" stroke-width="2" stroke-linecap="butt" stroke-linejoin="round" stroke="rgb(0%, 0%, 0%)" stroke-opacity="1" stroke-miterlimit="10" d="M 127.001055 440.999102 L 150.999384 425.000215 " transform="matrix(0.998605, 0, 0, -0.998605, -43.734, 455.563442)"/>
<path fill="none" stroke-width="2" stroke-linecap="butt" stroke-linejoin="round" stroke="rgb(0%, 0%, 0%)" stroke-opacity="1" stroke-miterlimit="10" d="M 127.001055 440.999102 L 99.998533 415.999375 " transform="matrix(0.998605, 0, 0, -0.998605, -43.734, 455.563442)"/>
<path fill="none" stroke-width="2" stroke-linecap="butt" stroke-linejoin="round" stroke="rgb(0%, 0%, 0%)" stroke-opacity="1" stroke-miterlimit="10" d="M 150.999384 425.000215 L 174.000229 393.999928 " transform="matrix(0.998605, 0, 0, -0.998605, -43.734, 455.563442)"/>
<path fill="none" stroke-width="2" stroke-linecap="butt" stroke-linejoin="round" stroke="rgb(0%, 0%, 0%)" stroke-opacity="1" stroke-miterlimit="10" d="M 150.999384 425.000215 L 127.001055 440.999102 " transform="matrix(0.998605, 0, 0, -0.998605, -43.734, 455.563442)"/>
<path fill="none" stroke-width="2" stroke-linecap="butt" stroke-linejoin="round" stroke="rgb(0%, 0%, 0%)" stroke-opacity="1" stroke-miterlimit="10" d="M 99.998533 415.999375 L 74.998806 266.998498 " transform="matrix(0.998605, 0, 0, -0.998605, -43.734, 455.563442)"/>
<path fill="none" stroke-width="2" stroke-linecap="butt" stroke-linejoin="round" stroke="rgb(0%, 0%, 0%)" stroke-opacity="1" stroke-miterlimit="10" d="M 91.001604 221.998207 L 74.998806 266.998498 " transform="matrix(0.998605, 0, 0, -0.998605, -43.734, 455.563442)"/>
<path fill="none" stroke-width="2" stroke-linecap="butt" stroke-linejoin="round" stroke="rgb(0%, 0%, 0%)" stroke-opacity="1" stroke-miterlimit="10" d="M 91.001604 221.998207 L 119.999097 202.99904 " transform="matrix(0.998605, 0, 0, -0.998605, -43.734, 455.563442)"/>
<path fill="none" stroke-width="2" stroke-linecap="butt" stroke-linejoin="round" stroke="rgb(0%, 0%, 0%)" stroke-opacity="1" stroke-miterlimit="10" d="M 80.999366 162.000426 L 83.999646 92.000408 " transform="matrix(0.998605, 0, 0, -0.998605, -43.734, 455.563442)"/>
<path fill="none" stroke-width="2" stroke-linecap="butt" stroke-linejoin="round" stroke="rgb(0%, 0%, 0%)" stroke-opacity="1" stroke-miterlimit="10" d="M 83.999646 92.000408 L 116.001331 81.000685 " transform="matrix(0.998605, 0, 0, -0.998605, -43.734, 455.563442)"/>
<path fill="none" stroke-width="2" stroke-linecap="butt" stroke-linejoin="round" stroke="rgb(0%, 0%, 0%)" stroke-opacity="1" stroke-miterlimit="10" d="M 116.001331 81.000685 L 83.999646 92.000408 " transform="matrix(0.998605, 0, 0, -0.998605, -43.734, 455.563442)"/>
<path fill="none" stroke-width="2" stroke-linecap="butt" stroke-linejoin="round" stroke="rgb(0%, 0%, 0%)" stroke-opacity="1" stroke-miterlimit="10" d="M 116.001331 81.000685 L 152.000782 56.998443 " transform="matrix(0.998605, 0, 0, -0.998605, -43.734, 455.563442)"/>
<path fill="none" stroke-width="2" stroke-linecap="butt" stroke-linejoin="round" stroke="rgb(0%, 0%, 0%)" stroke-opacity="1" stroke-miterlimit="10" d="M 272.000254 373.999364 L 292.998304 393.999928 " transform="matrix(0.998605, 0, 0, -0.998605, -43.734, 455.563442)"/>
<path fill="none" stroke-width="2" stroke-linecap="butt" stroke-linejoin="round" stroke="rgb(0%, 0%, 0%)" stroke-opacity="1" stroke-miterlimit="10" d="M 321.999708 379.999924 L 292.998304 393.999928 " transform="matrix(0.998605, 0, 0, -0.998605, -43.734, 455.563442)"/>
<path fill="none" stroke-width="2" stroke-linecap="butt" stroke-linejoin="round" stroke="rgb(0%, 0%, 0%)" stroke-opacity="1" stroke-miterlimit="10" d="M 370.000279 347.000754 L 348.000833 345.001871 " transform="matrix(0.998605, 0, 0, -0.998605, -43.734, 455.563442)"/>
<path fill="none" stroke-width="2" stroke-linecap="butt" stroke-linejoin="round" stroke="rgb(0%, 0%, 0%)" stroke-opacity="1" stroke-miterlimit="10" d="M 348.000833 345.001871 L 370.000279 347.000754 " transform="matrix(0.998605, 0, 0, -0.998605, -43.734, 455.563442)"/>
<path fill="none" stroke-width="2" stroke-linecap="butt" stroke-linejoin="round" stroke="rgb(0%, 0%, 0%)" stroke-opacity="1" stroke-miterlimit="10" d="M 404.998333 266.998498 L 424.998897 280.001016 " transform="matrix(0.998605, 0, 0, -0.998605, -43.734, 455.563442)"/>
<path fill="none" stroke-width="2" stroke-linecap="butt" stroke-linejoin="round" stroke="rgb(0%, 0%, 0%)" stroke-opacity="1" stroke-miterlimit="10" d="M 413.001688 218.000441 L 443.998063 219.001838 " transform="matrix(0.998605, 0, 0, -0.998605, -43.734, 455.563442)"/>
<path fill="none" stroke-width="2" stroke-linecap="butt" stroke-linejoin="round" stroke="rgb(0%, 0%, 0%)" stroke-opacity="1" stroke-miterlimit="10" d="M 443.998063 219.001838 L 474.000865 241.998771 " transform="matrix(0.998605, 0, 0, -0.998605, -43.734, 455.563442)"/>
<path fill="none" stroke-width="2" stroke-linecap="butt" stroke-linejoin="round" stroke="rgb(0%, 0%, 0%)" stroke-opacity="1" stroke-miterlimit="10" d="M 474.000865 241.998771 L 443.998063 219.001838 " transform="matrix(0.998605, 0, 0, -0.998605, -43.734, 455.563442)"/>
<path fill="none" stroke-width="2" stroke-linecap="butt" stroke-linejoin="round" stroke="rgb(0%, 0%, 0%)" stroke-opacity="1" stroke-miterlimit="10" d="M 334.998315 146.999026 L 307.999705 143.00126 " transform="matrix(0.998605, 0, 0, -0.998605, -43.734, 455.563442)"/>
<path fill="none" stroke-width="2" stroke-linecap="butt" stroke-linejoin="round" stroke="rgb(0%, 0%, 0%)" stroke-opacity="1" stroke-miterlimit="10" d="M 334.998315 146.999026 L 357.999159 126.998462 " transform="matrix(0.998605, 0, 0, -0.998605, -43.734, 455.563442)"/>
<path fill="none" stroke-width="2" stroke-linecap="butt" stroke-linejoin="round" stroke="rgb(0%, 0%, 0%)" stroke-opacity="1" stroke-miterlimit="10" d="M 307.999705 143.00126 L 284.001375 159.000146 " transform="matrix(0.998605, 0, 0, -0.998605, -43.734, 455.563442)"/>
<path fill="none" stroke-width="2" stroke-linecap="butt" stroke-linejoin="round" stroke="rgb(0%, 0%, 0%)" stroke-opacity="1" stroke-miterlimit="10" d="M 284.001375 159.000146 L 307.999705 143.00126 " transform="matrix(0.998605, 0, 0, -0.998605, -43.734, 455.563442)"/>
<path fill="none" stroke-width="2" stroke-linecap="butt" stroke-linejoin="round" stroke="rgb(0%, 0%, 0%)" stroke-opacity="1" stroke-miterlimit="10" d="M 284.001375 159.000146 L 264.000811 157.001263 " transform="matrix(0.998605, 0, 0, -0.998605, -43.734, 455.563442)"/>
<path fill="none" stroke-width="2" stroke-linecap="butt" stroke-linejoin="round" stroke="rgb(0%, 0%, 0%)" stroke-opacity="1" stroke-miterlimit="10" d="M 264.000811 157.001263 L 284.001375 159.000146 " transform="matrix(0.998605, 0, 0, -0.998605, -43.734, 455.563442)"/>
<path fill="none" stroke-width="2" stroke-linecap="butt" stroke-linejoin="round" stroke="rgb(0%, 0%, 0%)" stroke-opacity="1" stroke-miterlimit="10" d="M 138.000778 215.000161 L 119.999097 202.99904 " transform="matrix(0.998605, 0, 0, -0.998605, -43.734, 455.563442)"/>
<path fill="none" stroke-width="2" stroke-linecap="butt" stroke-linejoin="round" stroke="rgb(0%, 0%, 0%)" stroke-opacity="1" stroke-miterlimit="10" d="M 138.000778 215.000161 L 175.001626 197.999877 " transform="matrix(0.998605, 0, 0, -0.998605, -43.734, 455.563442)"/>
<path fill="none" stroke-width="2" stroke-linecap="butt" stroke-linejoin="round" stroke="rgb(0%, 0%, 0%)" stroke-opacity="1" stroke-miterlimit="10" d="M 119.999097 202.99904 L 138.000778 215.000161 " transform="matrix(0.998605, 0, 0, -0.998605, -43.734, 455.563442)"/>
<path fill="none" stroke-width="2" stroke-linecap="butt" stroke-linejoin="round" stroke="rgb(0%, 0%, 0%)" stroke-opacity="1" stroke-miterlimit="10" d="M 175.001626 197.999877 L 192.999395 230.999047 " transform="matrix(0.998605, 0, 0, -0.998605, -43.734, 455.563442)"/>
<path fill="none" stroke-width="2" stroke-linecap="butt" stroke-linejoin="round" stroke="rgb(0%, 0%, 0%)" stroke-opacity="1" stroke-miterlimit="10" d="M 192.999395 230.999047 L 175.001626 197.999877 " transform="matrix(0.998605, 0, 0, -0.998605, -43.734, 455.563442)"/>
<path fill="none" stroke-width="2" stroke-linecap="butt" stroke-linejoin="round" stroke="rgb(0%, 0%, 0%)" stroke-opacity="1" stroke-miterlimit="10" d="M 314.000265 93.001806 L 282.999977 112.998458 " transform="matrix(0.998605, 0, 0, -0.998605, -43.734, 455.563442)"/>
<path fill="none" stroke-width="2" stroke-linecap="butt" stroke-linejoin="round" stroke="rgb(0%, 0%, 0%)" stroke-opacity="1" stroke-miterlimit="10" d="M 376.998325 291.000739 L 404.998333 266.998498 " transform="matrix(0.998605, 0, 0, -0.998605, -43.734, 455.563442)"/>
<path fill="none" stroke-width="2" stroke-linecap="butt" stroke-linejoin="round" stroke="rgb(0%, 0%, 0%)" stroke-opacity="1" stroke-miterlimit="10" d="M 324.999988 325.998793 L 348.000833 345.001871 " transform="matrix(0.998605, 0, 0, -0.998605, -43.734, 455.563442)"/>
<path fill="none" stroke-width="2" stroke-linecap="butt" stroke-linejoin="round" stroke="rgb(0%, 0%, 0%)" stroke-opacity="1" stroke-miterlimit="10" d="M 200.998838 383.000205 L 222.998285 403.000769 " transform="matrix(0.998605, 0, 0, -0.998605, -43.734, 455.563442)"/>
<path fill="none" stroke-width="2" stroke-linecap="butt" stroke-linejoin="round" stroke="rgb(0%, 0%, 0%)" stroke-opacity="1" stroke-miterlimit="10" d="M 200.998838 383.000205 L 174.000229 393.999928 " transform="matrix(0.998605, 0, 0, -0.998605, -43.734, 455.563442)"/>
<path fill="none" stroke-width="2" stroke-linecap="butt" stroke-linejoin="round" stroke="rgb(0%, 0%, 0%)" stroke-opacity="1" stroke-miterlimit="10" d="M 256.001367 73.001242 L 261.000531 99.999852 " transform="matrix(0.998605, 0, 0, -0.998605, -43.734, 455.563442)"/>
<path fill="none" stroke-width="2" stroke-linecap="butt" stroke-linejoin="round" stroke="rgb(0%, 0%, 0%)" stroke-opacity="1" stroke-miterlimit="10" d="M 108.999373 157.998749 L 80.999366 162.000426 " transform="matrix(0.998605, 0, 0, -0.998605, -43.734, 455.563442)"/>
<path fill="none" stroke-width="2" stroke-linecap="butt" stroke-linejoin="round" stroke="rgb(0%, 0%, 0%)" stroke-opacity="1" stroke-miterlimit="10" d="M 362.000836 103.000132 L 357.999159 126.998462 " transform="matrix(0.998605, 0, 0, -0.998605, -43.734, 455.563442)"/>
<path fill="none" stroke-width="2" stroke-linecap="butt" stroke-linejoin="round" stroke="rgb(0%, 0%, 0%)" stroke-opacity="1" stroke-miterlimit="10" d="M 382.998886 222.999604 L 413.001688 218.000441 " transform="matrix(0.998605, 0, 0, -0.998605, -43.734, 455.563442)"/>
<path fill="none" stroke-width="2" stroke-linecap="butt" stroke-linejoin="round" stroke="rgb(0%, 0%, 0%)" stroke-opacity="1" stroke-miterlimit="10" d="M 390.000843 177.999313 L 407.998613 154.000983 " transform="matrix(0.998605, 0, 0, -0.998605, -43.734, 455.563442)"/>
<path fill="none" stroke-width="2" stroke-linecap="butt" stroke-linejoin="round" stroke="rgb(0%, 0%, 0%)" stroke-opacity="1" stroke-miterlimit="10" d="M 272.000254 373.999364 L 292.998304 393.999928 " transform="matrix(0.998605, 0, 0, -0.998605, -43.734, 455.563442)"/>
<path fill-rule="evenodd" fill="rgb(100%, 0%, 0%)" fill-opacity="1" d="M 51.042969 45.136719 L 61.03125 45.136719 L 61.03125 35.152344 L 51.042969 35.152344 Z M 51.042969 45.136719 "/>
<path fill-rule="evenodd" fill="rgb(54.499817%, 0%, 0%)" fill-opacity="1" d="M 50.046875 46.136719 L 62.027344 46.136719 L 62.027344 34.152344 L 50.046875 34.152344 Z M 52.042969 44.136719 L 60.03125 44.136719 L 60.03125 36.148438 L 52.042969 36.148438 Z M 52.042969 44.136719 "/>
<path fill-rule="evenodd" fill="rgb(100%, 0%, 0%)" fill-opacity="1" d="M 102.152344 36.148438 L 112.136719 36.148438 L 112.136719 26.164062 L 102.152344 26.164062 Z M 102.152344 36.148438 "/>
<path fill-rule="evenodd" fill="rgb(54.499817%, 0%, 0%)" fill-opacity="1" d="M 101.152344 37.148438 L 113.136719 37.148438 L 113.136719 25.164062 L 101.152344 25.164062 Z M 103.152344 35.152344 L 111.140625 35.152344 L 111.140625 27.160156 L 103.152344 27.160156 Z M 103.152344 35.152344 "/>
<path fill-rule="evenodd" fill="rgb(100%, 0%, 0%)" fill-opacity="1" d="M 174.871094 14.179688 L 184.855469 14.179688 L 184.855469 4.195312 L 174.871094 4.195312 Z M 174.871094 14.179688 "/>
<path fill-rule="evenodd" fill="rgb(54.499817%, 0%, 0%)" fill-opacity="1" d="M 173.871094 15.179688 L 185.855469 15.179688 L 185.855469 3.195312 L 173.871094 3.195312 Z M 175.871094 13.179688 L 183.859375 13.179688 L 183.859375 5.191406 L 175.871094 5.191406 Z M 175.871094 13.179688 "/>
<path fill-rule="evenodd" fill="rgb(100%, 0%, 0%)" fill-opacity="1" d="M 222.984375 87.078125 L 232.96875 87.078125 L 232.96875 77.09375 L 222.984375 77.09375 Z M 222.984375 87.078125 "/>
<path fill-rule="evenodd" fill="rgb(54.499817%, 0%, 0%)" fill-opacity="1" d="M 221.984375 88.078125 L 233.96875 88.078125 L 233.96875 76.09375 L 221.984375 76.09375 Z M 223.980469 86.078125 L 231.972656 86.078125 L 231.972656 78.089844 L 223.980469 78.089844 Z M 223.980469 86.078125 "/>
<path fill-rule="evenodd" fill="rgb(100%, 0%, 0%)" fill-opacity="1" d="M 261.75 19.171875 L 271.734375 19.171875 L 271.734375 9.1875 L 261.75 9.1875 Z M 261.75 19.171875 "/>
<path fill-rule="evenodd" fill="rgb(54.499817%, 0%, 0%)" fill-opacity="1" d="M 260.75 20.171875 L 272.734375 20.171875 L 272.734375 8.1875 L 260.75 8.1875 Z M 262.746094 18.175781 L 270.738281 18.175781 L 270.738281 10.1875 L 262.746094 10.1875 Z M 262.746094 18.175781 "/>
<path fill-rule="evenodd" fill="rgb(100%, 0%, 0%)" fill-opacity="1" d="M 352.304688 47.632812 L 362.292969 47.632812 L 362.292969 37.648438 L 352.304688 37.648438 Z M 352.304688 47.632812 "/>
<path fill-rule="evenodd" fill="rgb(54.499817%, 0%, 0%)" fill-opacity="1" d="M 351.308594 48.632812 L 363.292969 48.632812 L 363.292969 36.648438 L 351.308594 36.648438 Z M 353.304688 46.636719 L 361.292969 46.636719 L 361.292969 38.644531 L 353.304688 38.644531 Z M 353.304688 46.636719 "/>
<path fill-rule="evenodd" fill="rgb(100%, 0%, 0%)" fill-opacity="1" d="M 372.59375 112.042969 L 382.582031 112.042969 L 382.582031 102.058594 L 372.59375 102.058594 Z M 372.59375 112.042969 "/>
<path fill-rule="evenodd" fill="rgb(54.499817%, 0%, 0%)" fill-opacity="1" d="M 371.59375 113.042969 L 383.578125 113.042969 L 383.578125 101.058594 L 371.59375 101.058594 Z M 373.59375 111.042969 L 381.582031 111.042969 L 381.582031 103.054688 L 373.59375 103.054688 Z M 373.59375 111.042969 "/>
<path fill-rule="evenodd" fill="rgb(100%, 0%, 0%)" fill-opacity="1" d="M 373.59375 155.980469 L 383.578125 155.980469 L 383.578125 145.996094 L 373.59375 145.996094 Z M 373.59375 155.980469 "/>
<path fill-rule="evenodd" fill="rgb(54.499817%, 0%, 0%)" fill-opacity="1" d="M 372.59375 156.980469 L 384.578125 156.980469 L 384.578125 144.996094 L 372.59375 144.996094 Z M 374.589844 154.984375 L 382.582031 154.984375 L 382.582031 146.996094 L 374.589844 146.996094 Z M 374.589844 154.984375 "/>
<path fill-rule="evenodd" fill="rgb(100%, 0%, 0%)" fill-opacity="1" d="M 424.523438 218.894531 L 434.507812 218.894531 L 434.507812 208.90625 L 424.523438 208.90625 Z M 424.523438 218.894531 "/>
<g clip-path="url(#clip-1)">
<path fill-rule="evenodd" fill="rgb(54.499817%, 0%, 0%)" fill-opacity="1" d="M 423.523438 219.894531 L 435.507812 219.894531 L 435.507812 207.910156 L 423.523438 207.910156 Z M 425.519531 217.894531 L 433.507812 217.894531 L 433.507812 209.90625 L 425.519531 209.90625 Z M 425.519531 217.894531 "/>
</g>
<path fill-rule="evenodd" fill="rgb(100%, 0%, 0%)" fill-opacity="1" d="M 401.554688 341.722656 L 411.539062 341.722656 L 411.539062 331.738281 L 401.554688 331.738281 Z M 401.554688 341.722656 "/>
<path fill-rule="evenodd" fill="rgb(54.499817%, 0%, 0%)" fill-opacity="1" d="M 400.554688 342.722656 L 412.539062 342.722656 L 412.539062 330.738281 L 400.554688 330.738281 Z M 402.550781 340.722656 L 410.542969 340.722656 L 410.542969 332.734375 L 402.550781 332.734375 Z M 402.550781 340.722656 "/>
<path fill-rule="evenodd" fill="rgb(100%, 0%, 0%)" fill-opacity="1" d="M 327.65625 388.65625 L 337.644531 388.65625 L 337.644531 378.671875 L 327.65625 378.671875 Z M 327.65625 388.65625 "/>
<path fill-rule="evenodd" fill="rgb(54.499817%, 0%, 0%)" fill-opacity="1" d="M 326.660156 389.65625 L 338.640625 389.65625 L 338.640625 377.671875 L 326.660156 377.671875 Z M 328.65625 387.660156 L 336.644531 387.660156 L 336.644531 379.667969 L 328.65625 379.667969 Z M 328.65625 387.660156 "/>
<path fill-rule="evenodd" fill="rgb(100%, 0%, 0%)" fill-opacity="1" d="M 241.777344 427.601562 L 251.761719 427.601562 L 251.761719 417.617188 L 241.777344 417.617188 Z M 241.777344 427.601562 "/>
<g clip-path="url(#clip-2)">
<path fill-rule="evenodd" fill="rgb(54.499817%, 0%, 0%)" fill-opacity="1" d="M 240.777344 428.601562 L 252.761719 428.601562 L 252.761719 416.617188 L 240.777344 416.617188 Z M 242.777344 426.605469 L 250.765625 426.605469 L 250.765625 418.613281 L 242.777344 418.613281 Z M 242.777344 426.605469 "/>
</g>
<path fill-rule="evenodd" fill="rgb(100%, 0%, 0%)" fill-opacity="1" d="M 102.972656 403.636719 L 112.957031 403.636719 L 112.957031 393.648438 L 102.972656 393.648438 Z M 102.972656 403.636719 "/>
<path fill-rule="evenodd" fill="rgb(54.499817%, 0%, 0%)" fill-opacity="1" d="M 101.972656 404.632812 L 113.957031 404.632812 L 113.957031 392.652344 L 101.972656 392.652344 Z M 103.96875 402.636719 L 111.957031 402.636719 L 111.957031 394.648438 L 103.96875 394.648438 Z M 103.96875 402.636719 "/>
<path fill-rule="evenodd" fill="rgb(100%, 0%, 0%)" fill-opacity="1" d="M 35.066406 368.683594 L 45.050781 368.683594 L 45.050781 358.699219 L 35.066406 358.699219 Z M 35.066406 368.683594 "/>
<path fill-rule="evenodd" fill="rgb(54.499817%, 0%, 0%)" fill-opacity="1" d="M 34.066406 369.683594 L 46.050781 369.683594 L 46.050781 357.699219 L 34.066406 357.699219 Z M 36.066406 367.6875 L 44.054688 367.6875 L 44.054688 359.699219 L 36.066406 359.699219 Z M 36.066406 367.6875 "/>
<path fill-rule="evenodd" fill="rgb(100%, 0%, 0%)" fill-opacity="1" d="M 42.234375 238.867188 L 52.222656 238.867188 L 52.222656 228.878906 L 42.234375 228.878906 Z M 42.234375 238.867188 "/>
<path fill-rule="evenodd" fill="rgb(54.499817%, 0%, 0%)" fill-opacity="1" d="M 41.238281 239.863281 L 53.21875 239.863281 L 53.21875 227.882812 L 41.238281 227.882812 Z M 43.234375 237.867188 L 51.222656 237.867188 L 51.222656 229.878906 L 43.234375 229.878906 Z M 43.234375 237.867188 "/>
<path fill-rule="evenodd" fill="rgb(100%, 0%, 0%)" fill-opacity="1" d="M 60.210938 302.777344 L 70.195312 302.777344 L 70.195312 292.789062 L 60.210938 292.789062 Z M 60.210938 302.777344 "/>
<path fill-rule="evenodd" fill="rgb(54.499817%, 0%, 0%)" fill-opacity="1" d="M 59.210938 303.777344 L 71.195312 303.777344 L 71.195312 291.792969 L 59.210938 291.792969 Z M 61.210938 301.777344 L 69.199219 301.777344 L 69.199219 293.789062 L 61.210938 293.789062 Z M 61.210938 301.777344 "/>
<path fill-rule="evenodd" fill="rgb(100%, 0%, 0%)" fill-opacity="1" d="M 147.089844 353.707031 L 157.074219 353.707031 L 157.074219 343.71875 L 147.089844 343.71875 Z M 147.089844 353.707031 "/>
<path fill-rule="evenodd" fill="rgb(54.499817%, 0%, 0%)" fill-opacity="1" d="M 146.089844 354.703125 L 158.074219 354.703125 L 158.074219 342.722656 L 146.089844 342.722656 Z M 148.089844 352.707031 L 156.078125 352.707031 L 156.078125 344.71875 L 148.089844 344.71875 Z M 148.089844 352.707031 "/>
<path fill-rule="evenodd" fill="rgb(100%, 0%, 0%)" fill-opacity="1" d="M 167.0625 295.785156 L 177.046875 295.785156 L 177.046875 285.800781 L 167.0625 285.800781 Z M 167.0625 295.785156 "/>
<path fill-rule="evenodd" fill="rgb(54.499817%, 0%, 0%)" fill-opacity="1" d="M 166.0625 296.785156 L 178.046875 296.785156 L 178.046875 284.800781 L 166.0625 284.800781 Z M 168.058594 294.789062 L 176.050781 294.789062 L 176.050781 286.800781 L 168.058594 286.800781 Z M 168.058594 294.789062 "/>
<path fill-rule="evenodd" fill="rgb(100%, 0%, 0%)" fill-opacity="1" d="M 143.914062 229.878906 L 153.898438 229.878906 L 153.898438 219.894531 L 143.914062 219.894531 Z M 143.914062 229.878906 "/>
<path fill-rule="evenodd" fill="rgb(54.499817%, 0%, 0%)" fill-opacity="1" d="M 142.914062 230.878906 L 154.898438 230.878906 L 154.898438 218.894531 L 142.914062 218.894531 Z M 144.914062 228.878906 L 152.902344 228.878906 L 152.902344 220.890625 L 144.914062 220.890625 Z M 144.914062 228.878906 "/>
<path fill-rule="evenodd" fill="rgb(100%, 0%, 0%)" fill-opacity="1" d="M 88.992188 245.855469 L 98.976562 245.855469 L 98.976562 235.871094 L 88.992188 235.871094 Z M 88.992188 245.855469 "/>
<path fill-rule="evenodd" fill="rgb(54.499817%, 0%, 0%)" fill-opacity="1" d="M 87.992188 246.855469 L 99.976562 246.855469 L 99.976562 234.871094 L 87.992188 234.871094 Z M 89.988281 244.859375 L 97.976562 244.859375 L 97.976562 236.867188 L 89.988281 236.867188 Z M 89.988281 244.859375 "/>
<path fill-rule="evenodd" fill="rgb(100%, 0%, 0%)" fill-opacity="1" d="M 260.839844 165.96875 L 270.828125 165.96875 L 270.828125 155.980469 L 260.839844 155.980469 Z M 260.839844 165.96875 "/>
<path fill-rule="evenodd" fill="rgb(54.499817%, 0%, 0%)" fill-opacity="1" d="M 259.84375 166.964844 L 271.824219 166.964844 L 271.824219 154.984375 L 259.84375 154.984375 Z M 261.839844 164.96875 L 269.828125 164.96875 L 269.828125 156.980469 L 261.839844 156.980469 Z M 261.839844 164.96875 "/>
<path fill-rule="evenodd" fill="rgb(100%, 0%, 0%)" fill-opacity="1" d="M 298.878906 116.039062 L 308.863281 116.039062 L 308.863281 106.050781 L 298.878906 106.050781 Z M 298.878906 116.039062 "/>
<path fill-rule="evenodd" fill="rgb(54.499817%, 0%, 0%)" fill-opacity="1" d="M 297.878906 117.035156 L 309.863281 117.035156 L 309.863281 105.054688 L 297.878906 105.054688 Z M 299.875 115.039062 L 307.863281 115.039062 L 307.863281 107.050781 L 299.875 107.050781 Z M 299.875 115.039062 "/>
<path fill-rule="evenodd" fill="rgb(100%, 0%, 0%)" fill-opacity="1" d="M 190.03125 150.988281 L 200.015625 150.988281 L 200.015625 141.003906 L 190.03125 141.003906 Z M 190.03125 150.988281 "/>
<path fill-rule="evenodd" fill="rgb(54.499817%, 0%, 0%)" fill-opacity="1" d="M 189.03125 151.988281 L 201.015625 151.988281 L 201.015625 140.003906 L 189.03125 140.003906 Z M 191.027344 149.992188 L 199.015625 149.992188 L 199.015625 142 L 191.027344 142 Z M 191.027344 149.992188 "/>
<path fill-rule="evenodd" fill="rgb(100%, 0%, 0%)" fill-opacity="1" d="M 100.972656 117.035156 L 110.960938 117.035156 L 110.960938 107.050781 L 100.972656 107.050781 Z M 100.972656 117.035156 "/>
<path fill-rule="evenodd" fill="rgb(54.499817%, 0%, 0%)" fill-opacity="1" d="M 99.976562 118.035156 L 111.957031 118.035156 L 111.957031 106.050781 L 99.976562 106.050781 Z M 101.972656 116.039062 L 109.960938 116.039062 L 109.960938 108.050781 L 101.972656 108.050781 Z M 101.972656 116.039062 "/>
<path fill-rule="evenodd" fill="rgb(100%, 0%, 0%)" fill-opacity="1" d="M 51.222656 171.960938 L 61.210938 171.960938 L 61.210938 161.972656 L 51.222656 161.972656 Z M 51.222656 171.960938 "/>
<path fill-rule="evenodd" fill="rgb(54.499817%, 0%, 0%)" fill-opacity="1" d="M 50.226562 172.957031 L 62.207031 172.957031 L 62.207031 160.976562 L 50.226562 160.976562 Z M 52.222656 170.960938 L 60.210938 170.960938 L 60.210938 162.972656 L 52.222656 162.972656 Z M 52.222656 170.960938 "/>
<path fill-rule="evenodd" fill="rgb(100%, 0%, 0%)" fill-opacity="1" d="M 294.792969 221.890625 L 304.777344 221.890625 L 304.777344 211.902344 L 294.792969 211.902344 Z M 294.792969 221.890625 "/>
<path fill-rule="evenodd" fill="rgb(54.499817%, 0%, 0%)" fill-opacity="1" d="M 293.792969 222.886719 L 305.777344 222.886719 L 305.777344 210.90625 L 293.792969 210.90625 Z M 295.792969 220.890625 L 303.78125 220.890625 L 303.78125 212.902344 L 295.792969 212.902344 Z M 295.792969 220.890625 "/>
<path fill-rule="evenodd" fill="rgb(100%, 0%, 0%)" fill-opacity="1" d="M 250.261719 266.328125 L 260.246094 266.328125 L 260.246094 256.34375 L 250.261719 256.34375 Z M 250.261719 266.328125 "/>
<path fill-rule="evenodd" fill="rgb(54.499817%, 0%, 0%)" fill-opacity="1" d="M 249.261719 267.328125 L 261.246094 267.328125 L 261.246094 255.34375 L 249.261719 255.34375 Z M 251.261719 265.328125 L 259.25 265.328125 L 259.25 257.339844 L 251.261719 257.339844 Z M 251.261719 265.328125 "/>
<path fill-rule="evenodd" fill="rgb(100%, 0%, 0%)" fill-opacity="1" d="M 220.492188 226.382812 L 230.476562 226.382812 L 230.476562 216.398438 L 220.492188 216.398438 Z M 220.492188 226.382812 "/>
<path fill-rule="evenodd" fill="rgb(54.499817%, 0%, 0%)" fill-opacity="1" d="M 219.492188 227.382812 L 231.476562 227.382812 L 231.476562 215.398438 L 219.492188 215.398438 Z M 221.488281 225.386719 L 229.476562 225.386719 L 229.476562 217.394531 L 221.488281 217.394531 Z M 221.488281 225.386719 "/>
<path fill-rule="evenodd" fill="rgb(100%, 0%, 0%)" fill-opacity="1" d="M 363.605469 242.859375 L 373.59375 242.859375 L 373.59375 232.875 L 363.605469 232.875 Z M 363.605469 242.859375 "/>
<path fill-rule="evenodd" fill="rgb(54.499817%, 0%, 0%)" fill-opacity="1" d="M 362.609375 243.859375 L 374.589844 243.859375 L 374.589844 231.875 L 362.609375 231.875 Z M 364.605469 241.863281 L 372.59375 241.863281 L 372.59375 233.875 L 364.605469 233.875 Z M 364.605469 241.863281 "/>
<path fill-rule="evenodd" fill="rgb(100%, 0%, 0%)" fill-opacity="1" d="M 358.613281 306.769531 L 368.601562 306.769531 L 368.601562 296.785156 L 358.613281 296.785156 Z M 358.613281 306.769531 "/>
<path fill-rule="evenodd" fill="rgb(54.499817%, 0%, 0%)" fill-opacity="1" d="M 357.613281 307.769531 L 369.597656 307.769531 L 369.597656 295.785156 L 357.613281 295.785156 Z M 359.613281 305.773438 L 367.601562 305.773438 L 367.601562 297.785156 L 359.613281 297.785156 Z M 359.613281 305.773438 "/>
<path fill-rule="evenodd" fill="rgb(100%, 0%, 0%)" fill-opacity="1" d="M 308.683594 333.734375 L 318.667969 333.734375 L 318.667969 323.746094 L 308.683594 323.746094 Z M 308.683594 333.734375 "/>
<path fill-rule="evenodd" fill="rgb(54.499817%, 0%, 0%)" fill-opacity="1" d="M 307.683594 334.730469 L 319.667969 334.730469 L 319.667969 322.75 L 307.683594 322.75 Z M 309.683594 332.734375 L 317.671875 332.734375 L 317.671875 324.746094 L 309.683594 324.746094 Z M 309.683594 332.734375 "/>
<path fill-rule="evenodd" fill="rgb(100%, 0%, 0%)" fill-opacity="1" d="M 212 360.695312 L 221.984375 360.695312 L 221.984375 350.710938 L 212 350.710938 Z M 212 360.695312 "/>
<path fill-rule="evenodd" fill="rgb(54.499817%, 0%, 0%)" fill-opacity="1" d="M 211 361.695312 L 222.984375 361.695312 L 222.984375 349.710938 L 211 349.710938 Z M 212.996094 359.699219 L 220.984375 359.699219 L 220.984375 351.707031 L 212.996094 351.707031 Z M 212.996094 359.699219 "/>
<path fill-rule="evenodd" fill="rgb(100%, 0%, 0%)" fill-opacity="1" d="M 214.816406 303.777344 L 224.800781 303.777344 L 224.800781 293.789062 L 214.816406 293.789062 Z M 214.816406 303.777344 "/>
<path fill-rule="evenodd" fill="rgb(54.499817%, 0%, 0%)" fill-opacity="1" d="M 213.816406 304.773438 L 225.800781 304.773438 L 225.800781 292.789062 L 213.816406 292.789062 Z M 215.8125 302.777344 L 223.800781 302.777344 L 223.800781 294.789062 L 215.8125 294.789062 Z M 215.8125 302.777344 "/>
<path fill-rule="evenodd" fill="rgb(100%, 0%, 0%)" fill-opacity="1" d="M 272.914062 81.085938 L 282.898438 81.085938 L 282.898438 71.101562 L 272.914062 71.101562 Z M 272.914062 81.085938 "/>
<path fill-rule="evenodd" fill="rgb(54.499817%, 0%, 0%)" fill-opacity="1" d="M 271.914062 82.085938 L 283.898438 82.085938 L 283.898438 70.101562 L 271.914062 70.101562 Z M 273.914062 80.089844 L 281.902344 80.089844 L 281.902344 72.097656 L 273.914062 72.097656 Z M 273.914062 80.089844 "/>
<path fill-rule="evenodd" fill="rgb(100%, 0%, 0%)" fill-opacity="1" d="M 151.398438 77.589844 L 161.386719 77.589844 L 161.386719 67.605469 L 151.398438 67.605469 Z M 151.398438 77.589844 "/>
<path fill-rule="evenodd" fill="rgb(54.499817%, 0%, 0%)" fill-opacity="1" d="M 150.402344 78.589844 L 162.382812 78.589844 L 162.382812 66.605469 L 150.402344 66.605469 Z M 152.398438 76.59375 L 160.386719 76.59375 L 160.386719 68.605469 L 152.398438 68.605469 Z M 152.398438 76.59375 "/>
<path fill-rule="evenodd" fill="rgb(100%, 0%, 0%)" fill-opacity="1" d="M 155.078125 190.933594 L 165.0625 190.933594 L 165.0625 180.945312 L 155.078125 180.945312 Z M 155.078125 190.933594 "/>
<path fill-rule="evenodd" fill="rgb(54.499817%, 0%, 0%)" fill-opacity="1" d="M 154.078125 191.933594 L 166.0625 191.933594 L 166.0625 179.949219 L 154.078125 179.949219 Z M 156.078125 189.933594 L 164.066406 189.933594 L 164.066406 181.945312 L 156.078125 181.945312 Z M 156.078125 189.933594 "/>
<path fill-rule="evenodd" fill="rgb(100%, 0%, 0%)" fill-opacity="1" d="M 316.851562 277.8125 L 326.839844 277.8125 L 326.839844 267.824219 L 316.851562 267.824219 Z M 316.851562 277.8125 "/>
<path fill-rule="evenodd" fill="rgb(54.499817%, 0%, 0%)" fill-opacity="1" d="M 315.855469 278.808594 L 327.835938 278.808594 L 327.835938 266.828125 L 315.855469 266.828125 Z M 317.851562 276.8125 L 325.839844 276.8125 L 325.839844 268.824219 L 317.851562 268.824219 Z M 317.851562 276.8125 "/>
<path fill-rule="evenodd" fill="rgb(100%, 0%, 0%)" fill-opacity="1" d="M 355.203125 193.429688 L 365.191406 193.429688 L 365.191406 183.445312 L 355.203125 183.445312 Z M 355.203125 193.429688 "/>
<path fill-rule="evenodd" fill="rgb(54.499817%, 0%, 0%)" fill-opacity="1" d="M 354.207031 194.429688 L 366.1875 194.429688 L 366.1875 182.445312 L 354.207031 182.445312 Z M 356.203125 192.429688 L 364.191406 192.429688 L 364.191406 184.441406 L 356.203125 184.441406 Z M 356.203125 192.429688 "/>
<path fill-rule="evenodd" fill="rgb(0%, 0%, 100%)" fill-opacity="1" d="M 182.542969 134.511719 C 182.542969 131.753906 180.308594 129.519531 177.550781 129.519531 C 174.792969 129.519531 172.558594 131.753906 172.558594 134.511719 C 172.558594 137.269531 174.792969 139.503906 177.550781 139.503906 C 180.308594 139.503906 182.542969 137.269531 182.542969 134.511719 "/>
<path fill-rule="evenodd" fill="rgb(0%, 0%, 54.499817%)" fill-opacity="1" d="M 183.542969 134.511719 C 183.542969 131.203125 180.859375 128.519531 177.550781 128.519531 C 174.242188 128.519531 171.558594 131.203125 171.558594 134.511719 C 171.558594 137.820312 174.242188 140.503906 177.550781 140.503906 C 180.859375 140.503906 183.542969 137.820312 183.542969 134.511719 M 181.546875 134.511719 C 181.546875 132.304688 179.757812 130.519531 177.550781 130.519531 C 175.34375 130.519531 173.554688 132.304688 173.554688 134.511719 C 173.554688 136.71875 175.34375 138.507812 177.550781 138.507812 C 179.757812 138.507812 181.546875 136.71875 181.546875 134.511719 "/>
<path fill-rule="evenodd" fill="rgb(0%, 0%, 100%)" fill-opacity="1" d="M 224.800781 135.011719 C 224.800781 132.253906 222.566406 130.019531 219.808594 130.019531 C 217.050781 130.019531 214.816406 132.253906 214.816406 135.011719 C 214.816406 137.769531 217.050781 140.003906 219.808594 140.003906 C 222.566406 140.003906 224.800781 137.769531 224.800781 135.011719 "/>
<path fill-rule="evenodd" fill="rgb(0%, 0%, 54.499817%)" fill-opacity="1" d="M 225.800781 135.011719 C 225.800781 131.703125 223.117188 129.019531 219.808594 129.019531 C 216.5 129.019531 213.816406 131.703125 213.816406 135.011719 C 213.816406 138.320312 216.5 141.003906 219.808594 141.003906 C 223.117188 141.003906 225.800781 138.320312 225.800781 135.011719 M 223.800781 135.011719 C 223.800781 132.804688 222.011719 131.015625 219.808594 131.015625 C 217.601562 131.015625 215.8125 132.804688 215.8125 135.011719 C 215.8125 137.21875 217.601562 139.003906 219.808594 139.003906 C 222.011719 139.003906 223.800781 137.21875 223.800781 135.011719 "/>
<path fill-rule="evenodd" fill="rgb(0%, 0%, 100%)" fill-opacity="1" d="M 285.894531 129.519531 C 285.894531 126.761719 283.660156 124.527344 280.902344 124.527344 C 278.144531 124.527344 275.910156 126.761719 275.910156 129.519531 C 275.910156 132.277344 278.144531 134.511719 280.902344 134.511719 C 283.660156 134.511719 285.894531 132.277344 285.894531 129.519531 "/>
<path fill-rule="evenodd" fill="rgb(0%, 0%, 54.499817%)" fill-opacity="1" d="M 286.894531 129.519531 C 286.894531 126.210938 284.210938 123.527344 280.902344 123.527344 C 277.59375 123.527344 274.910156 126.210938 274.910156 129.519531 C 274.910156 132.828125 277.59375 135.511719 280.902344 135.511719 C 284.210938 135.511719 286.894531 132.828125 286.894531 129.519531 M 284.898438 129.519531 C 284.898438 127.3125 283.109375 125.523438 280.902344 125.523438 C 278.695312 125.523438 276.90625 127.3125 276.90625 129.519531 C 276.90625 131.726562 278.695312 133.511719 280.902344 133.511719 C 283.109375 133.511719 284.898438 131.726562 284.898438 129.519531 "/>
<path fill-rule="evenodd" fill="rgb(0%, 0%, 100%)" fill-opacity="1" d="M 337.554688 164.96875 C 337.554688 162.210938 335.316406 159.976562 332.558594 159.976562 C 329.804688 159.976562 327.566406 162.210938 327.566406 164.96875 C 327.566406 167.726562 329.804688 169.960938 332.558594 169.960938 C 335.316406 169.960938 337.554688 167.726562 337.554688 164.96875 "/>
<path fill-rule="evenodd" fill="rgb(0%, 0%, 54.499817%)" fill-opacity="1" d="M 338.550781 164.96875 C 338.550781 161.660156 335.871094 158.976562 332.558594 158.976562 C 329.25 158.976562 326.570312 161.660156 326.570312 164.96875 C 326.570312 168.277344 329.25 170.960938 332.558594 170.960938 C 335.871094 170.960938 338.550781 168.277344 338.550781 164.96875 M 336.554688 164.96875 C 336.554688 162.761719 334.765625 160.976562 332.558594 160.976562 C 330.355469 160.976562 328.566406 162.761719 328.566406 164.96875 C 328.566406 167.175781 330.355469 168.964844 332.558594 168.964844 C 334.765625 168.964844 336.554688 167.175781 336.554688 164.96875 "/>
<path fill-rule="evenodd" fill="rgb(0%, 0%, 100%)" fill-opacity="1" d="M 385.574219 175.953125 C 385.574219 173.195312 383.339844 170.960938 380.582031 170.960938 C 377.824219 170.960938 375.589844 173.195312 375.589844 175.953125 C 375.589844 178.710938 377.824219 180.945312 380.582031 180.945312 C 383.339844 180.945312 385.574219 178.710938 385.574219 175.953125 "/>
<path fill-rule="evenodd" fill="rgb(0%, 0%, 54.499817%)" fill-opacity="1" d="M 386.574219 175.953125 C 386.574219 172.644531 383.890625 169.960938 380.582031 169.960938 C 377.273438 169.960938 374.589844 172.644531 374.589844 175.953125 C 374.589844 179.261719 377.273438 181.945312 380.582031 181.945312 C 383.890625 181.945312 386.574219 179.261719 386.574219 175.953125 M 384.578125 175.953125 C 384.578125 173.75 382.789062 171.960938 380.582031 171.960938 C 378.378906 171.960938 376.589844 173.75 376.589844 175.953125 C 376.589844 178.160156 378.378906 179.949219 380.582031 179.949219 C 382.789062 179.949219 384.578125 178.160156 384.578125 175.953125 "/>
<path fill-rule="evenodd" fill="rgb(0%, 0%, 100%)" fill-opacity="1" d="M 404.550781 236.867188 C 404.550781 234.113281 402.3125 231.875 399.554688 231.875 C 396.800781 231.875 394.5625 234.113281 394.5625 236.867188 C 394.5625 239.625 396.800781 241.863281 399.554688 241.863281 C 402.3125 241.863281 404.550781 239.625 404.550781 236.867188 "/>
<path fill-rule="evenodd" fill="rgb(0%, 0%, 54.499817%)" fill-opacity="1" d="M 405.546875 236.867188 C 405.546875 233.558594 402.867188 230.878906 399.554688 230.878906 C 396.246094 230.878906 393.566406 233.558594 393.566406 236.867188 C 393.566406 240.179688 396.246094 242.859375 399.554688 242.859375 C 402.867188 242.859375 405.546875 240.179688 405.546875 236.867188 M 403.550781 236.867188 C 403.550781 234.664062 401.761719 232.875 399.554688 232.875 C 397.351562 232.875 395.5625 234.664062 395.5625 236.867188 C 395.5625 239.074219 397.351562 240.863281 399.554688 240.863281 C 401.761719 240.863281 403.550781 239.074219 403.550781 236.867188 "/>
<path fill-rule="evenodd" fill="rgb(0%, 0%, 100%)" fill-opacity="1" d="M 393.746094 302.777344 C 393.746094 300.019531 391.507812 297.785156 388.75 297.785156 C 385.996094 297.785156 383.757812 300.019531 383.757812 302.777344 C 383.757812 305.535156 385.996094 307.769531 388.75 307.769531 C 391.507812 307.769531 393.746094 305.535156 393.746094 302.777344 "/>
<path fill-rule="evenodd" fill="rgb(0%, 0%, 54.499817%)" fill-opacity="1" d="M 394.742188 302.777344 C 394.742188 299.46875 392.0625 296.785156 388.75 296.785156 C 385.441406 296.785156 382.761719 299.46875 382.761719 302.777344 C 382.761719 306.085938 385.441406 308.769531 388.75 308.769531 C 392.0625 308.769531 394.742188 306.085938 394.742188 302.777344 M 392.746094 302.777344 C 392.746094 300.570312 390.957031 298.78125 388.75 298.78125 C 386.546875 298.78125 384.757812 300.570312 384.757812 302.777344 C 384.757812 304.984375 386.546875 306.769531 388.75 306.769531 C 390.957031 306.769531 392.746094 304.984375 392.746094 302.777344 "/>
<path fill-rule="evenodd" fill="rgb(0%, 0%, 100%)" fill-opacity="1" d="M 350.625 277.8125 C 350.625 275.054688 348.390625 272.820312 345.632812 272.820312 C 342.875 272.820312 340.640625 275.054688 340.640625 277.8125 C 340.640625 280.570312 342.875 282.804688 345.632812 282.804688 C 348.390625 282.804688 350.625 280.570312 350.625 277.8125 "/>
<path fill-rule="evenodd" fill="rgb(0%, 0%, 54.499817%)" fill-opacity="1" d="M 351.625 277.8125 C 351.625 274.503906 348.941406 271.820312 345.632812 271.820312 C 342.324219 271.820312 339.640625 274.503906 339.640625 277.8125 C 339.640625 281.121094 342.324219 283.804688 345.632812 283.804688 C 348.941406 283.804688 351.625 281.121094 351.625 277.8125 M 349.625 277.8125 C 349.625 275.605469 347.835938 273.816406 345.632812 273.816406 C 343.425781 273.816406 341.636719 275.605469 341.636719 277.8125 C 341.636719 280.019531 343.425781 281.804688 345.632812 281.804688 C 347.835938 281.804688 349.625 280.019531 349.625 277.8125 "/>
<path fill-rule="evenodd" fill="rgb(0%, 0%, 100%)" fill-opacity="1" d="M 322.484375 352.707031 C 322.484375 349.949219 320.25 347.714844 317.492188 347.714844 C 314.734375 347.714844 312.5 349.949219 312.5 352.707031 C 312.5 355.464844 314.734375 357.699219 317.492188 357.699219 C 320.25 357.699219 322.484375 355.464844 322.484375 352.707031 "/>
<path fill-rule="evenodd" fill="rgb(0%, 0%, 54.499817%)" fill-opacity="1" d="M 323.484375 352.707031 C 323.484375 349.398438 320.800781 346.714844 317.492188 346.714844 C 314.183594 346.714844 311.5 349.398438 311.5 352.707031 C 311.5 356.015625 314.183594 358.699219 317.492188 358.699219 C 320.800781 358.699219 323.484375 356.015625 323.484375 352.707031 M 321.484375 352.707031 C 321.484375 350.5 319.695312 348.710938 317.492188 348.710938 C 315.285156 348.710938 313.496094 350.5 313.496094 352.707031 C 313.496094 354.914062 315.285156 356.703125 317.492188 356.703125 C 319.695312 356.703125 321.484375 354.914062 321.484375 352.707031 "/>
<path fill-rule="evenodd" fill="rgb(0%, 0%, 100%)" fill-opacity="1" d="M 216.992188 382.664062 C 216.992188 379.90625 214.753906 377.671875 212 377.671875 C 209.242188 377.671875 207.003906 379.90625 207.003906 382.664062 C 207.003906 385.421875 209.242188 387.660156 212 387.660156 C 214.753906 387.660156 216.992188 385.421875 216.992188 382.664062 "/>
<path fill-rule="evenodd" fill="rgb(0%, 0%, 54.499817%)" fill-opacity="1" d="M 217.992188 382.664062 C 217.992188 379.355469 215.308594 376.671875 212 376.671875 C 208.6875 376.671875 206.007812 379.355469 206.007812 382.664062 C 206.007812 385.972656 208.6875 388.65625 212 388.65625 C 215.308594 388.65625 217.992188 385.972656 217.992188 382.664062 M 215.992188 382.664062 C 215.992188 380.460938 214.203125 378.671875 212 378.671875 C 209.792969 378.671875 208.003906 380.460938 208.003906 382.664062 C 208.003906 384.871094 209.792969 386.660156 212 386.660156 C 214.203125 386.660156 215.992188 384.871094 215.992188 382.664062 "/>
<path fill-rule="evenodd" fill="rgb(0%, 0%, 100%)" fill-opacity="1" d="M 135.925781 415.621094 C 135.925781 412.863281 133.6875 410.625 130.933594 410.625 C 128.175781 410.625 125.9375 412.863281 125.9375 415.621094 C 125.9375 418.375 128.175781 420.613281 130.933594 420.613281 C 133.6875 420.613281 135.925781 418.375 135.925781 415.621094 "/>
<path fill-rule="evenodd" fill="rgb(0%, 0%, 54.499817%)" fill-opacity="1" d="M 136.921875 415.621094 C 136.921875 412.308594 134.242188 409.628906 130.933594 409.628906 C 127.621094 409.628906 124.941406 412.308594 124.941406 415.621094 C 124.941406 418.929688 127.621094 421.609375 130.933594 421.609375 C 134.242188 421.609375 136.921875 418.929688 136.921875 415.621094 M 134.925781 415.621094 C 134.925781 413.414062 133.136719 411.625 130.933594 411.625 C 128.726562 411.625 126.9375 413.414062 126.9375 415.621094 C 126.9375 417.824219 128.726562 419.613281 130.933594 419.613281 C 133.136719 419.613281 134.925781 417.824219 134.925781 415.621094 "/>
<path fill-rule="evenodd" fill="rgb(0%, 0%, 100%)" fill-opacity="1" d="M 76.917969 374.675781 C 76.917969 371.917969 74.679688 369.683594 71.925781 369.683594 C 69.167969 369.683594 66.929688 371.917969 66.929688 374.675781 C 66.929688 377.433594 69.167969 379.667969 71.925781 379.667969 C 74.679688 379.667969 76.917969 377.433594 76.917969 374.675781 "/>
<path fill-rule="evenodd" fill="rgb(0%, 0%, 54.499817%)" fill-opacity="1" d="M 77.917969 374.675781 C 77.917969 371.367188 75.234375 368.683594 71.925781 368.683594 C 68.613281 368.683594 65.933594 371.367188 65.933594 374.675781 C 65.933594 377.984375 68.613281 380.667969 71.925781 380.667969 C 75.234375 380.667969 77.917969 377.984375 77.917969 374.675781 M 75.917969 374.675781 C 75.917969 372.46875 74.128906 370.683594 71.925781 370.683594 C 69.71875 370.683594 67.929688 372.46875 67.929688 374.675781 C 67.929688 376.882812 69.71875 378.671875 71.925781 378.671875 C 74.128906 378.671875 75.917969 376.882812 75.917969 374.675781 "/>
<path fill-rule="evenodd" fill="rgb(0%, 0%, 100%)" fill-opacity="1" d="M 42.054688 293.789062 C 42.054688 291.03125 39.820312 288.796875 37.0625 288.796875 C 34.304688 288.796875 32.070312 291.03125 32.070312 293.789062 C 32.070312 296.546875 34.304688 298.78125 37.0625 298.78125 C 39.820312 298.78125 42.054688 296.546875 42.054688 293.789062 "/>
<path fill-rule="evenodd" fill="rgb(0%, 0%, 54.499817%)" fill-opacity="1" d="M 43.054688 293.789062 C 43.054688 290.480469 40.371094 287.796875 37.0625 287.796875 C 33.753906 287.796875 31.070312 290.480469 31.070312 293.789062 C 31.070312 297.097656 33.753906 299.78125 37.0625 299.78125 C 40.371094 299.78125 43.054688 297.097656 43.054688 293.789062 M 41.058594 293.789062 C 41.058594 291.582031 39.269531 289.796875 37.0625 289.796875 C 34.855469 289.796875 33.070312 291.582031 33.070312 293.789062 C 33.070312 295.996094 34.855469 297.785156 37.0625 297.785156 C 39.269531 297.785156 41.058594 295.996094 41.058594 293.789062 "/>
<path fill-rule="evenodd" fill="rgb(0%, 0%, 100%)" fill-opacity="1" d="M 36.066406 188.9375 C 36.066406 186.179688 33.828125 183.941406 31.070312 183.941406 C 28.3125 183.941406 26.078125 186.179688 26.078125 188.9375 C 26.078125 191.691406 28.3125 193.929688 31.070312 193.929688 C 33.828125 193.929688 36.066406 191.691406 36.066406 188.9375 "/>
<path fill-rule="evenodd" fill="rgb(0%, 0%, 54.499817%)" fill-opacity="1" d="M 37.0625 188.9375 C 37.0625 185.625 34.378906 182.945312 31.070312 182.945312 C 27.761719 182.945312 25.078125 185.625 25.078125 188.9375 C 25.078125 192.246094 27.761719 194.925781 31.070312 194.925781 C 34.378906 194.925781 37.0625 192.246094 37.0625 188.9375 M 35.066406 188.9375 C 35.066406 186.730469 33.277344 184.941406 31.070312 184.941406 C 28.867188 184.941406 27.078125 186.730469 27.078125 188.9375 C 27.078125 191.140625 28.867188 192.929688 31.070312 192.929688 C 33.277344 192.929688 35.066406 191.140625 35.066406 188.9375 "/>
<path fill-rule="evenodd" fill="rgb(0%, 0%, 100%)" fill-opacity="1" d="M 82 85.082031 C 82 82.324219 79.765625 80.089844 77.007812 80.089844 C 74.25 80.089844 72.015625 82.324219 72.015625 85.082031 C 72.015625 87.839844 74.25 90.074219 77.007812 90.074219 C 79.765625 90.074219 82 87.839844 82 85.082031 "/>
<path fill-rule="evenodd" fill="rgb(0%, 0%, 54.499817%)" fill-opacity="1" d="M 83 85.082031 C 83 81.773438 80.316406 79.089844 77.007812 79.089844 C 73.699219 79.089844 71.015625 81.773438 71.015625 85.082031 C 71.015625 88.390625 73.699219 91.074219 77.007812 91.074219 C 80.316406 91.074219 83 88.390625 83 85.082031 M 81 85.082031 C 81 82.875 79.214844 81.085938 77.007812 81.085938 C 74.800781 81.085938 73.011719 82.875 73.011719 85.082031 C 73.011719 87.285156 74.800781 89.074219 77.007812 89.074219 C 79.214844 89.074219 81 87.285156 81 85.082031 "/>
<path fill-rule="evenodd" fill="rgb(0%, 0%, 100%)" fill-opacity="1" d="M 135.015625 62.113281 C 135.015625 59.355469 132.78125 57.121094 130.023438 57.121094 C 127.265625 57.121094 125.03125 59.355469 125.03125 62.113281 C 125.03125 64.871094 127.265625 67.105469 130.023438 67.105469 C 132.78125 67.105469 135.015625 64.871094 135.015625 62.113281 "/>
<path fill-rule="evenodd" fill="rgb(0%, 0%, 54.499817%)" fill-opacity="1" d="M 136.015625 62.113281 C 136.015625 58.804688 133.332031 56.121094 130.023438 56.121094 C 126.714844 56.121094 124.03125 58.804688 124.03125 62.113281 C 124.03125 65.421875 126.714844 68.105469 130.023438 68.105469 C 133.332031 68.105469 136.015625 65.421875 136.015625 62.113281 M 134.019531 62.113281 C 134.019531 59.90625 132.230469 58.117188 130.023438 58.117188 C 127.816406 58.117188 126.027344 59.90625 126.027344 62.113281 C 126.027344 64.320312 127.816406 66.109375 130.023438 66.109375 C 132.230469 66.109375 134.019531 64.320312 134.019531 62.113281 "/>
<path fill-rule="evenodd" fill="rgb(0%, 0%, 100%)" fill-opacity="1" d="M 183.859375 53.125 C 183.859375 50.367188 181.621094 48.132812 178.863281 48.132812 C 176.109375 48.132812 173.871094 50.367188 173.871094 53.125 C 173.871094 55.882812 176.109375 58.117188 178.863281 58.117188 C 181.621094 58.117188 183.859375 55.882812 183.859375 53.125 "/>
<path fill-rule="evenodd" fill="rgb(0%, 0%, 54.499817%)" fill-opacity="1" d="M 184.855469 53.125 C 184.855469 49.816406 182.175781 47.132812 178.863281 47.132812 C 175.554688 47.132812 172.875 49.816406 172.875 53.125 C 172.875 56.433594 175.554688 59.117188 178.863281 59.117188 C 182.175781 59.117188 184.855469 56.433594 184.855469 53.125 M 182.859375 53.125 C 182.859375 50.917969 181.070312 49.132812 178.863281 49.132812 C 176.660156 49.132812 174.871094 50.917969 174.871094 53.125 C 174.871094 55.332031 176.660156 57.121094 178.863281 57.121094 C 181.070312 57.121094 182.859375 55.332031 182.859375 53.125 "/>
<path fill-rule="evenodd" fill="rgb(0%, 0%, 100%)" fill-opacity="1" d="M 253.761719 62.113281 C 253.761719 59.355469 251.523438 57.121094 248.765625 57.121094 C 246.011719 57.121094 243.773438 59.355469 243.773438 62.113281 C 243.773438 64.871094 246.011719 67.105469 248.765625 67.105469 C 251.523438 67.105469 253.761719 64.871094 253.761719 62.113281 "/>
<path fill-rule="evenodd" fill="rgb(0%, 0%, 54.499817%)" fill-opacity="1" d="M 254.757812 62.113281 C 254.757812 58.804688 252.078125 56.121094 248.765625 56.121094 C 245.457031 56.121094 242.777344 58.804688 242.777344 62.113281 C 242.777344 65.421875 245.457031 68.105469 248.765625 68.105469 C 252.078125 68.105469 254.757812 65.421875 254.757812 62.113281 M 252.761719 62.113281 C 252.761719 59.90625 250.972656 58.117188 248.765625 58.117188 C 246.5625 58.117188 244.773438 59.90625 244.773438 62.113281 C 244.773438 64.320312 246.5625 66.109375 248.765625 66.109375 C 250.972656 66.109375 252.761719 64.320312 252.761719 62.113281 "/>
<path fill-rule="evenodd" fill="rgb(0%, 0%, 100%)" fill-opacity="1" d="M 310.769531 75.09375 C 310.769531 72.339844 308.535156 70.101562 305.777344 70.101562 C 303.019531 70.101562 300.785156 72.339844 300.785156 75.09375 C 300.785156 77.851562 303.019531 80.089844 305.777344 80.089844 C 308.535156 80.089844 310.769531 77.851562 310.769531 75.09375 "/>
<path fill-rule="evenodd" fill="rgb(0%, 0%, 54.499817%)" fill-opacity="1" d="M 311.769531 75.09375 C 311.769531 71.785156 309.085938 69.101562 305.777344 69.101562 C 302.46875 69.101562 299.785156 71.785156 299.785156 75.09375 C 299.785156 78.40625 302.46875 81.085938 305.777344 81.085938 C 309.085938 81.085938 311.769531 78.40625 311.769531 75.09375 M 309.773438 75.09375 C 309.773438 72.890625 307.984375 71.101562 305.777344 71.101562 C 303.570312 71.101562 301.785156 72.890625 301.785156 75.09375 C 301.785156 77.300781 303.570312 79.089844 305.777344 79.089844 C 307.984375 79.089844 309.773438 77.300781 309.773438 75.09375 "/>
<path fill-rule="evenodd" fill="rgb(0%, 0%, 100%)" fill-opacity="1" d="M 385.757812 52.128906 C 385.757812 49.371094 383.519531 47.132812 380.761719 47.132812 C 378.003906 47.132812 375.769531 49.371094 375.769531 52.128906 C 375.769531 54.882812 378.003906 57.121094 380.761719 57.121094 C 383.519531 57.121094 385.757812 54.882812 385.757812 52.128906 "/>
<path fill-rule="evenodd" fill="rgb(0%, 0%, 54.499817%)" fill-opacity="1" d="M 386.753906 52.128906 C 386.753906 48.816406 384.070312 46.136719 380.761719 46.136719 C 377.453125 46.136719 374.769531 48.816406 374.769531 52.128906 C 374.769531 55.4375 377.453125 58.117188 380.761719 58.117188 C 384.070312 58.117188 386.753906 55.4375 386.753906 52.128906 M 384.757812 52.128906 C 384.757812 49.921875 382.96875 48.132812 380.761719 48.132812 C 378.558594 48.132812 376.769531 49.921875 376.769531 52.128906 C 376.769531 54.332031 378.558594 56.121094 380.761719 56.121094 C 382.96875 56.121094 384.757812 54.332031 384.757812 52.128906 "/>
<path fill-rule="evenodd" fill="rgb(0%, 0%, 100%)" fill-opacity="1" d="M 330.832031 109.046875 C 330.832031 106.289062 328.597656 104.054688 325.839844 104.054688 C 323.082031 104.054688 320.847656 106.289062 320.847656 109.046875 C 320.847656 111.804688 323.082031 114.039062 325.839844 114.039062 C 328.597656 114.039062 330.832031 111.804688 330.832031 109.046875 "/>
<path fill-rule="evenodd" fill="rgb(0%, 0%, 54.499817%)" fill-opacity="1" d="M 331.832031 109.046875 C 331.832031 105.738281 329.148438 103.054688 325.839844 103.054688 C 322.53125 103.054688 319.847656 105.738281 319.847656 109.046875 C 319.847656 112.355469 322.53125 115.039062 325.839844 115.039062 C 329.148438 115.039062 331.832031 112.355469 331.832031 109.046875 M 329.835938 109.046875 C 329.835938 106.839844 328.046875 105.054688 325.839844 105.054688 C 323.632812 105.054688 321.84375 106.839844 321.84375 109.046875 C 321.84375 111.253906 323.632812 113.042969 325.839844 113.042969 C 328.046875 113.042969 329.835938 111.253906 329.835938 109.046875 "/>
<path fill-rule="evenodd" fill="rgb(0%, 0%, 100%)" fill-opacity="1" d="M 294.972656 251.847656 C 294.972656 249.089844 292.738281 246.855469 289.980469 246.855469 C 287.222656 246.855469 284.988281 249.089844 284.988281 251.847656 C 284.988281 254.605469 287.222656 256.839844 289.980469 256.839844 C 292.738281 256.839844 294.972656 254.605469 294.972656 251.847656 "/>
<path fill-rule="evenodd" fill="rgb(0%, 0%, 54.499817%)" fill-opacity="1" d="M 295.972656 251.847656 C 295.972656 248.539062 293.289062 245.855469 289.980469 245.855469 C 286.671875 245.855469 283.988281 248.539062 283.988281 251.847656 C 283.988281 255.15625 286.671875 257.839844 289.980469 257.839844 C 293.289062 257.839844 295.972656 255.15625 295.972656 251.847656 M 293.972656 251.847656 C 293.972656 249.640625 292.1875 247.855469 289.980469 247.855469 C 287.773438 247.855469 285.984375 249.640625 285.984375 251.847656 C 285.984375 254.054688 287.773438 255.84375 289.980469 255.84375 C 292.1875 255.84375 293.972656 254.054688 293.972656 251.847656 "/>
<path fill-rule="evenodd" fill="rgb(0%, 0%, 100%)" fill-opacity="1" d="M 269.738281 197.425781 C 269.738281 194.667969 267.503906 192.429688 264.746094 192.429688 C 261.988281 192.429688 259.75 194.667969 259.75 197.425781 C 259.75 200.179688 261.988281 202.417969 264.746094 202.417969 C 267.503906 202.417969 269.738281 200.179688 269.738281 197.425781 "/>
<path fill-rule="evenodd" fill="rgb(0%, 0%, 54.499817%)" fill-opacity="1" d="M 270.738281 197.425781 C 270.738281 194.113281 268.054688 191.433594 264.746094 191.433594 C 261.4375 191.433594 258.753906 194.113281 258.753906 197.425781 C 258.753906 200.734375 261.4375 203.414062 264.746094 203.414062 C 268.054688 203.414062 270.738281 200.734375 270.738281 197.425781 M 268.738281 197.425781 C 268.738281 195.21875 266.949219 193.429688 264.746094 193.429688 C 262.539062 193.429688 260.75 195.21875 260.75 197.425781 C 260.75 199.628906 262.539062 201.417969 264.746094 201.417969 C 266.949219 201.417969 268.738281 199.628906 268.738281 197.425781 "/>
<path fill-rule="evenodd" fill="rgb(0%, 0%, 100%)" fill-opacity="1" d="M 235.28125 251.347656 C 235.28125 248.589844 233.046875 246.355469 230.289062 246.355469 C 227.53125 246.355469 225.296875 248.589844 225.296875 251.347656 C 225.296875 254.105469 227.53125 256.34375 230.289062 256.34375 C 233.046875 256.34375 235.28125 254.105469 235.28125 251.347656 "/>
<path fill-rule="evenodd" fill="rgb(0%, 0%, 54.499817%)" fill-opacity="1" d="M 236.28125 251.347656 C 236.28125 248.039062 233.597656 245.355469 230.289062 245.355469 C 226.980469 245.355469 224.296875 248.039062 224.296875 251.347656 C 224.296875 254.65625 226.980469 257.339844 230.289062 257.339844 C 233.597656 257.339844 236.28125 254.65625 236.28125 251.347656 M 234.285156 251.347656 C 234.285156 249.144531 232.496094 247.355469 230.289062 247.355469 C 228.082031 247.355469 226.292969 249.144531 226.292969 251.347656 C 226.292969 253.554688 228.082031 255.34375 230.289062 255.34375 C 232.496094 255.34375 234.285156 253.554688 234.285156 251.347656 "/>
<path fill-rule="evenodd" fill="rgb(0%, 0%, 100%)" fill-opacity="1" d="M 176.050781 214.898438 C 176.050781 212.140625 173.8125 209.90625 171.054688 209.90625 C 168.296875 209.90625 166.0625 212.140625 166.0625 214.898438 C 166.0625 217.65625 168.296875 219.894531 171.054688 219.894531 C 173.8125 219.894531 176.050781 217.65625 176.050781 214.898438 "/>
<path fill-rule="evenodd" fill="rgb(0%, 0%, 54.499817%)" fill-opacity="1" d="M 177.046875 214.898438 C 177.046875 211.589844 174.367188 208.90625 171.054688 208.90625 C 167.746094 208.90625 165.0625 211.589844 165.0625 214.898438 C 165.0625 218.210938 167.746094 220.890625 171.054688 220.890625 C 174.367188 220.890625 177.046875 218.210938 177.046875 214.898438 M 175.050781 214.898438 C 175.050781 212.695312 173.261719 210.90625 171.054688 210.90625 C 168.851562 210.90625 167.0625 212.695312 167.0625 214.898438 C 167.0625 217.105469 168.851562 218.894531 171.054688 218.894531 C 173.261719 218.894531 175.050781 217.105469 175.050781 214.898438 "/>
<path fill-rule="evenodd" fill="rgb(0%, 0%, 100%)" fill-opacity="1" d="M 136.105469 257.839844 C 136.105469 255.082031 133.867188 252.847656 131.113281 252.847656 C 128.355469 252.847656 126.117188 255.082031 126.117188 257.839844 C 126.117188 260.597656 128.355469 262.832031 131.113281 262.832031 C 133.867188 262.832031 136.105469 260.597656 136.105469 257.839844 "/>
<path fill-rule="evenodd" fill="rgb(0%, 0%, 54.499817%)" fill-opacity="1" d="M 137.101562 257.839844 C 137.101562 254.53125 134.421875 251.847656 131.113281 251.847656 C 127.800781 251.847656 125.121094 254.53125 125.121094 257.839844 C 125.121094 261.148438 127.800781 263.832031 131.113281 263.832031 C 134.421875 263.832031 137.101562 261.148438 137.101562 257.839844 M 135.105469 257.839844 C 135.105469 255.632812 133.316406 253.84375 131.113281 253.84375 C 128.90625 253.84375 127.117188 255.632812 127.117188 257.839844 C 127.117188 260.046875 128.90625 261.835938 131.113281 261.835938 C 133.316406 261.835938 135.105469 260.046875 135.105469 257.839844 "/>
<path fill-rule="evenodd" fill="rgb(0%, 0%, 100%)" fill-opacity="1" d="M 110.960938 202.917969 C 110.960938 200.160156 108.722656 197.921875 105.96875 197.921875 C 103.210938 197.921875 100.972656 200.160156 100.972656 202.917969 C 100.972656 205.671875 103.210938 207.910156 105.96875 207.910156 C 108.722656 207.910156 110.960938 205.671875 110.960938 202.917969 "/>
<path fill-rule="evenodd" fill="rgb(0%, 0%, 54.499817%)" fill-opacity="1" d="M 111.957031 202.917969 C 111.957031 199.605469 109.277344 196.925781 105.96875 196.925781 C 102.65625 196.925781 99.976562 199.605469 99.976562 202.917969 C 99.976562 206.226562 102.65625 208.90625 105.96875 208.90625 C 109.277344 208.90625 111.957031 206.226562 111.957031 202.917969 M 109.960938 202.917969 C 109.960938 200.710938 108.171875 198.921875 105.96875 198.921875 C 103.761719 198.921875 101.972656 200.710938 101.972656 202.917969 C 101.972656 205.121094 103.761719 206.910156 105.96875 206.910156 C 108.171875 206.910156 109.960938 205.121094 109.960938 202.917969 "/>
<path fill-rule="evenodd" fill="rgb(0%, 0%, 100%)" fill-opacity="1" d="M 244.773438 296.785156 C 244.773438 294.027344 242.535156 291.792969 239.78125 291.792969 C 237.023438 291.792969 234.785156 294.027344 234.785156 296.785156 C 234.785156 299.542969 237.023438 301.777344 239.78125 301.777344 C 242.535156 301.777344 244.773438 299.542969 244.773438 296.785156 "/>
<path fill-rule="evenodd" fill="rgb(0%, 0%, 54.499817%)" fill-opacity="1" d="M 245.769531 296.785156 C 245.769531 293.476562 243.089844 290.792969 239.78125 290.792969 C 236.46875 290.792969 233.789062 293.476562 233.789062 296.785156 C 233.789062 300.09375 236.46875 302.777344 239.78125 302.777344 C 243.089844 302.777344 245.769531 300.09375 245.769531 296.785156 M 243.773438 296.785156 C 243.773438 294.578125 241.984375 292.789062 239.78125 292.789062 C 237.574219 292.789062 235.785156 294.578125 235.785156 296.785156 C 235.785156 298.992188 237.574219 300.78125 239.78125 300.78125 C 241.984375 300.78125 243.773438 298.992188 243.773438 296.785156 "/>
<path fill-rule="evenodd" fill="rgb(0%, 0%, 100%)" fill-opacity="1" d="M 196.839844 336.730469 C 196.839844 333.972656 194.605469 331.738281 191.847656 331.738281 C 189.089844 331.738281 186.855469 333.972656 186.855469 336.730469 C 186.855469 339.488281 189.089844 341.722656 191.847656 341.722656 C 194.605469 341.722656 196.839844 339.488281 196.839844 336.730469 "/>
<path fill-rule="evenodd" fill="rgb(0%, 0%, 54.499817%)" fill-opacity="1" d="M 197.839844 336.730469 C 197.839844 333.421875 195.15625 330.738281 191.847656 330.738281 C 188.539062 330.738281 185.855469 333.421875 185.855469 336.730469 C 185.855469 340.039062 188.539062 342.722656 191.847656 342.722656 C 195.15625 342.722656 197.839844 340.039062 197.839844 336.730469 M 195.839844 336.730469 C 195.839844 334.523438 194.054688 332.734375 191.847656 332.734375 C 189.640625 332.734375 187.851562 334.523438 187.851562 336.730469 C 187.851562 338.933594 189.640625 340.722656 191.847656 340.722656 C 194.054688 340.722656 195.839844 338.933594 195.839844 336.730469 "/>
<path fill-rule="evenodd" fill="rgb(0%, 0%, 100%)" fill-opacity="1" d="M 343.816406 232.875 C 343.816406 230.117188 341.578125 227.882812 338.820312 227.882812 C 336.0625 227.882812 333.828125 230.117188 333.828125 232.875 C 333.828125 235.632812 336.0625 237.867188 338.820312 237.867188 C 341.578125 237.867188 343.816406 235.632812 343.816406 232.875 "/>
<path fill-rule="evenodd" fill="rgb(0%, 0%, 54.499817%)" fill-opacity="1" d="M 344.8125 232.875 C 344.8125 229.566406 342.128906 226.882812 338.820312 226.882812 C 335.511719 226.882812 332.828125 229.566406 332.828125 232.875 C 332.828125 236.183594 335.511719 238.867188 338.820312 238.867188 C 342.128906 238.867188 344.8125 236.183594 344.8125 232.875 M 342.816406 232.875 C 342.816406 230.667969 341.027344 228.878906 338.820312 228.878906 C 336.617188 228.878906 334.828125 230.667969 334.828125 232.875 C 334.828125 235.082031 336.617188 236.867188 338.820312 236.867188 C 341.027344 236.867188 342.816406 235.082031 342.816406 232.875 "/>
<path fill-rule="evenodd" fill="rgb(100%, 0%, 0%)" fill-opacity="1" d="M 87.171875 177.953125 L 97.160156 177.953125 L 97.160156 167.964844 L 87.171875 167.964844 Z M 87.171875 177.953125 "/>
<path fill-rule="evenodd" fill="rgb(54.499817%, 0%, 0%)" fill-opacity="1" d="M 86.175781 178.949219 L 98.15625 178.949219 L 98.15625 166.964844 L 86.175781 166.964844 Z M 88.171875 176.953125 L 96.160156 176.953125 L 96.160156 168.964844 L 88.171875 168.964844 Z M 88.171875 176.953125 "/>
<path fill-rule="evenodd" fill="rgb(0%, 0%, 100%)" fill-opacity="1" d="M 79.503906 252.847656 C 79.503906 250.917969 77.9375 249.351562 76.007812 249.351562 C 74.078125 249.351562 72.511719 250.917969 72.511719 252.847656 C 72.511719 254.777344 74.078125 256.34375 76.007812 256.34375 C 77.9375 256.34375 79.503906 254.777344 79.503906 252.847656 "/>
<path fill-rule="evenodd" fill="rgb(0%, 0%, 54.499817%)" fill-opacity="1" d="M 80.203125 252.847656 C 80.203125 250.53125 78.324219 248.652344 76.007812 248.652344 C 73.691406 248.652344 71.816406 250.53125 71.816406 252.847656 C 71.816406 255.164062 73.691406 257.039062 76.007812 257.039062 C 78.324219 257.039062 80.203125 255.164062 80.203125 252.847656 M 78.804688 252.847656 C 78.804688 251.304688 77.550781 250.050781 76.007812 250.050781 C 74.464844 250.050781 73.210938 251.304688 73.210938 252.847656 C 73.210938 254.390625 74.464844 255.644531 76.007812 255.644531 C 77.550781 255.644531 78.804688 254.390625 78.804688 252.847656 "/>
<path fill-rule="evenodd" fill="rgb(0%, 0%, 100%)" fill-opacity="1" d="M 81.179688 252.847656 C 81.179688 250.089844 78.945312 247.855469 76.1875 247.855469 C 73.429688 247.855469 71.195312 250.089844 71.195312 252.847656 C 71.195312 255.605469 73.429688 257.839844 76.1875 257.839844 C 78.945312 257.839844 81.179688 255.605469 81.179688 252.847656 "/>
<path fill-rule="evenodd" fill="rgb(0%, 0%, 54.499817%)" fill-opacity="1" d="M 82.179688 252.847656 C 82.179688 249.539062 79.496094 246.855469 76.1875 246.855469 C 72.878906 246.855469 70.195312 249.539062 70.195312 252.847656 C 70.195312 256.15625 72.878906 258.839844 76.1875 258.839844 C 79.496094 258.839844 82.179688 256.15625 82.179688 252.847656 M 80.183594 252.847656 C 80.183594 250.640625 78.394531 248.851562 76.1875 248.851562 C 73.984375 248.851562 72.195312 250.640625 72.195312 252.847656 C 72.195312 255.050781 73.984375 256.839844 76.1875 256.839844 C 78.394531 256.839844 80.183594 255.050781 80.183594 252.847656 "/>
<path fill-rule="evenodd" fill="rgb(0%, 0%, 100%)" fill-opacity="1" d="M 190.9375 173.457031 C 190.9375 170.699219 188.703125 168.464844 185.945312 168.464844 C 183.1875 168.464844 180.953125 170.699219 180.953125 173.457031 C 180.953125 176.214844 183.1875 178.449219 185.945312 178.449219 C 188.703125 178.449219 190.9375 176.214844 190.9375 173.457031 "/>
<path fill-rule="evenodd" fill="rgb(0%, 0%, 54.499817%)" fill-opacity="1" d="M 191.9375 173.457031 C 191.9375 170.148438 189.253906 167.464844 185.945312 167.464844 C 182.636719 167.464844 179.953125 170.148438 179.953125 173.457031 C 179.953125 176.765625 182.636719 179.449219 185.945312 179.449219 C 189.253906 179.449219 191.9375 176.765625 191.9375 173.457031 M 189.941406 173.457031 C 189.941406 171.25 188.152344 169.464844 185.945312 169.464844 C 183.738281 169.464844 181.949219 171.25 181.949219 173.457031 C 181.949219 175.664062 183.738281 177.453125 185.945312 177.453125 C 188.152344 177.453125 189.941406 175.664062 189.941406 173.457031 "/>
<path fill-rule="evenodd" fill="rgb(0%, 0%, 100%)" fill-opacity="1" d="M 243.773438 342.722656 C 243.773438 339.964844 241.539062 337.726562 238.78125 337.726562 C 236.023438 337.726562 233.789062 339.964844 233.789062 342.722656 C 233.789062 345.476562 236.023438 347.714844 238.78125 347.714844 C 241.539062 347.714844 243.773438 345.476562 243.773438 342.722656 "/>
<path fill-rule="evenodd" fill="rgb(0%, 0%, 54.499817%)" fill-opacity="1" d="M 244.773438 342.722656 C 244.773438 339.410156 242.089844 336.730469 238.78125 336.730469 C 235.472656 336.730469 232.789062 339.410156 232.789062 342.722656 C 232.789062 346.03125 235.472656 348.710938 238.78125 348.710938 C 242.089844 348.710938 244.773438 346.03125 244.773438 342.722656 M 242.777344 342.722656 C 242.777344 340.515625 240.988281 338.726562 238.78125 338.726562 C 236.574219 338.726562 234.785156 340.515625 234.785156 342.722656 C 234.785156 344.925781 236.574219 346.714844 238.78125 346.714844 C 240.988281 346.714844 242.777344 344.925781 242.777344 342.722656 "/>
<path fill-rule="evenodd" fill="rgb(100%, 0%, 0%)" fill-opacity="1" d="M 258.933594 317.757812 L 268.917969 317.757812 L 268.917969 307.769531 L 258.933594 307.769531 Z M 258.933594 317.757812 "/>
<path fill-rule="evenodd" fill="rgb(54.499817%, 0%, 0%)" fill-opacity="1" d="M 257.933594 318.753906 L 269.917969 318.753906 L 269.917969 306.769531 L 257.933594 306.769531 Z M 259.933594 316.757812 L 267.921875 316.757812 L 267.921875 308.769531 L 259.933594 308.769531 Z M 259.933594 316.757812 "/>
<path fill-rule="evenodd" fill="rgb(0%, 0%, 100%)" fill-opacity="1" d="M 295.703125 308.769531 C 295.703125 306.011719 293.464844 303.777344 290.707031 303.777344 C 287.953125 303.777344 285.714844 306.011719 285.714844 308.769531 C 285.714844 311.527344 287.953125 313.761719 290.707031 313.761719 C 293.464844 313.761719 295.703125 311.527344 295.703125 308.769531 "/>
<path fill-rule="evenodd" fill="rgb(0%, 0%, 54.499817%)" fill-opacity="1" d="M 296.699219 308.769531 C 296.699219 305.460938 294.019531 302.777344 290.707031 302.777344 C 287.398438 302.777344 284.71875 305.460938 284.71875 308.769531 C 284.71875 312.078125 287.398438 314.761719 290.707031 314.761719 C 294.019531 314.761719 296.699219 312.078125 296.699219 308.769531 M 294.703125 308.769531 C 294.703125 306.5625 292.914062 304.773438 290.707031 304.773438 C 288.503906 304.773438 286.714844 306.5625 286.714844 308.769531 C 286.714844 310.972656 288.503906 312.761719 290.707031 312.761719 C 292.914062 312.761719 294.703125 310.972656 294.703125 308.769531 "/>
<path fill-rule="evenodd" fill="rgb(100%, 0%, 0%)" fill-opacity="1" d="M 264.746094 367.6875 L 274.730469 367.6875 L 274.730469 357.699219 L 264.746094 357.699219 Z M 264.746094 367.6875 "/>
<path fill-rule="evenodd" fill="rgb(54.499817%, 0%, 0%)" fill-opacity="1" d="M 263.746094 368.683594 L 275.730469 368.683594 L 275.730469 356.703125 L 263.746094 356.703125 Z M 265.742188 366.6875 L 273.730469 366.6875 L 273.730469 358.699219 L 265.742188 358.699219 Z M 265.742188 366.6875 "/>
<path fill-rule="evenodd" fill="rgb(0%, 0%, 100%)" fill-opacity="1" d="M 142.097656 155.980469 C 142.097656 153.226562 139.859375 150.988281 137.101562 150.988281 C 134.347656 150.988281 132.109375 153.226562 132.109375 155.980469 C 132.109375 158.738281 134.347656 160.976562 137.101562 160.976562 C 139.859375 160.976562 142.097656 158.738281 142.097656 155.980469 "/>
<path fill-rule="evenodd" fill="rgb(0%, 0%, 54.499817%)" fill-opacity="1" d="M 143.09375 155.980469 C 143.09375 152.671875 140.414062 149.992188 137.101562 149.992188 C 133.792969 149.992188 131.113281 152.671875 131.113281 155.980469 C 131.113281 159.292969 133.792969 161.972656 137.101562 161.972656 C 140.414062 161.972656 143.09375 159.292969 143.09375 155.980469 M 141.097656 155.980469 C 141.097656 153.777344 139.308594 151.988281 137.101562 151.988281 C 134.898438 151.988281 133.109375 153.777344 133.109375 155.980469 C 133.109375 158.1875 134.898438 159.976562 137.101562 159.976562 C 139.308594 159.976562 141.097656 158.1875 141.097656 155.980469 "/>
<path fill-rule="evenodd" fill="rgb(0%, 0%, 100%)" fill-opacity="1" d="M 88.082031 15.179688 C 88.082031 12.421875 85.847656 10.1875 83.089844 10.1875 C 80.332031 10.1875 78.097656 12.421875 78.097656 15.179688 C 78.097656 17.9375 80.332031 20.171875 83.089844 20.171875 C 85.847656 20.171875 88.082031 17.9375 88.082031 15.179688 "/>
<path fill-rule="evenodd" fill="rgb(0%, 0%, 54.499817%)" fill-opacity="1" d="M 89.082031 15.179688 C 89.082031 11.871094 86.398438 9.1875 83.089844 9.1875 C 79.78125 9.1875 77.097656 11.871094 77.097656 15.179688 C 77.097656 18.488281 79.78125 21.171875 83.089844 21.171875 C 86.398438 21.171875 89.082031 18.488281 89.082031 15.179688 M 87.082031 15.179688 C 87.082031 12.972656 85.292969 11.183594 83.089844 11.183594 C 80.882812 11.183594 79.09375 12.972656 79.09375 15.179688 C 79.09375 17.382812 80.882812 19.171875 83.089844 19.171875 C 85.292969 19.171875 87.082031 17.382812 87.082031 15.179688 "/>
<path fill-rule="evenodd" fill="rgb(0%, 0%, 100%)" fill-opacity="1" d="M 416.710938 127.023438 C 416.710938 124.265625 414.476562 122.03125 411.71875 122.03125 C 408.960938 122.03125 406.726562 124.265625 406.726562 127.023438 C 406.726562 129.78125 408.960938 132.015625 411.71875 132.015625 C 414.476562 132.015625 416.710938 129.78125 416.710938 127.023438 "/>
<path fill-rule="evenodd" fill="rgb(0%, 0%, 54.499817%)" fill-opacity="1" d="M 417.710938 127.023438 C 417.710938 123.714844 415.027344 121.03125 411.71875 121.03125 C 408.410156 121.03125 405.726562 123.714844 405.726562 127.023438 C 405.726562 130.332031 408.410156 133.015625 411.71875 133.015625 C 415.027344 133.015625 417.710938 130.332031 417.710938 127.023438 M 415.714844 127.023438 C 415.714844 124.816406 413.925781 123.027344 411.71875 123.027344 C 409.515625 123.027344 407.726562 124.816406 407.726562 127.023438 C 407.726562 129.226562 409.515625 131.015625 411.71875 131.015625 C 413.925781 131.015625 415.714844 129.226562 415.714844 127.023438 "/>
<path fill-rule="evenodd" fill="rgb(100%, 0%, 0%)" fill-opacity="1" d="M 303.691406 156.980469 L 313.675781 156.980469 L 313.675781 146.996094 L 303.691406 146.996094 Z M 303.691406 156.980469 "/>
<path fill-rule="evenodd" fill="rgb(54.499817%, 0%, 0%)" fill-opacity="1" d="M 302.691406 157.980469 L 314.675781 157.980469 L 314.675781 145.996094 L 302.691406 145.996094 Z M 304.6875 155.980469 L 312.679688 155.980469 L 312.679688 147.992188 L 304.6875 147.992188 Z M 304.6875 155.980469 "/>
<path fill-rule="evenodd" fill="rgb(0%, 0%, 100%)" fill-opacity="1" d="M 230.972656 8.1875 C 230.972656 5.429688 228.734375 3.195312 225.980469 3.195312 C 223.222656 3.195312 220.984375 5.429688 220.984375 8.1875 C 220.984375 10.945312 223.222656 13.179688 225.980469 13.179688 C 228.734375 13.179688 230.972656 10.945312 230.972656 8.1875 "/>
<path fill-rule="evenodd" fill="rgb(0%, 0%, 54.499817%)" fill-opacity="1" d="M 231.972656 8.1875 C 231.972656 4.878906 229.289062 2.195312 225.980469 2.195312 C 222.667969 2.195312 219.988281 4.878906 219.988281 8.1875 C 219.988281 11.496094 222.667969 14.179688 225.980469 14.179688 C 229.289062 14.179688 231.972656 11.496094 231.972656 8.1875 M 229.972656 8.1875 C 229.972656 5.984375 228.183594 4.195312 225.980469 4.195312 C 223.773438 4.195312 221.984375 5.984375 221.984375 8.1875 C 221.984375 10.394531 223.773438 12.183594 225.980469 12.183594 C 228.183594 12.183594 229.972656 10.394531 229.972656 8.1875 "/>
<path fill-rule="evenodd" fill="rgb(0%, 100%, 0%)" fill-opacity="1" d="M 69.566406 261.386719 L 84.546875 246.40625 L 82.449219 244.308594 L 67.46875 259.289062 Z M 69.566406 261.386719 "/>
<path fill-rule="evenodd" fill="rgb(0%, 100%, 0%)" fill-opacity="1" d="M 69.566406 244.308594 L 84.546875 259.289062 L 82.449219 261.386719 L 67.46875 246.40625 Z M 69.566406 244.308594 "/>
<path fill-rule="evenodd" fill="rgb(0%, 100%, 0%)" fill-opacity="1" d="M 257.484375 321.300781 L 272.464844 306.320312 L 270.367188 304.226562 L 255.386719 319.203125 Z M 257.484375 321.300781 "/>
<path fill-rule="evenodd" fill="rgb(0%, 100%, 0%)" fill-opacity="1" d="M 257.484375 304.226562 L 272.464844 319.203125 L 270.367188 321.300781 L 255.386719 306.320312 Z M 257.484375 304.226562 "/>
<path fill-rule="evenodd" fill="rgb(0%, 100%, 0%)" fill-opacity="1" d="M 293.433594 224.9375 L 308.414062 209.957031 L 306.316406 207.859375 L 291.335938 222.839844 Z M 293.433594 224.9375 "/>
<path fill-rule="evenodd" fill="rgb(0%, 100%, 0%)" fill-opacity="1" d="M 293.433594 207.859375 L 308.414062 222.839844 L 306.316406 224.9375 L 291.335938 209.957031 Z M 293.433594 207.859375 "/>
<path fill-rule="evenodd" fill="rgb(0%, 100%, 0%)" fill-opacity="1" d="M 405.277344 135.5625 L 420.257812 120.582031 L 418.160156 118.484375 L 403.179688 133.464844 Z M 405.277344 135.5625 "/>
<path fill-rule="evenodd" fill="rgb(0%, 100%, 0%)" fill-opacity="1" d="M 405.277344 118.484375 L 420.257812 133.464844 L 418.160156 135.5625 L 403.179688 120.582031 Z M 405.277344 118.484375 "/>
<path fill-rule="evenodd" fill="rgb(0%, 100%, 0%)" fill-opacity="1" d="M 76.558594 23.71875 L 91.535156 8.738281 L 89.441406 6.640625 L 74.460938 21.621094 Z M 76.558594 23.71875 "/>
<path fill-rule="evenodd" fill="rgb(0%, 100%, 0%)" fill-opacity="1" d="M 76.558594 6.640625 L 91.535156 21.621094 L 89.441406 23.71875 L 74.460938 8.738281 Z M 76.558594 6.640625 "/>
</svg>
