<?xml version="1.0" encoding="UTF-8"?>
<svg xmlns="http://www.w3.org/2000/svg" xmlns:xlink="http://www.w3.org/1999/xlink" width="443.4" height="444.4" viewBox="0 0 443.4 444.4">
<defs>
<clipPath id="clip-0">
<path clip-rule="nonzero" d="M 337 195 L 442.800781 195 L 442.800781 301 L 337 301 Z M 337 195 "/>
</clipPath>
<clipPath id="clip-1">
<path clip-rule="nonzero" d="M 195 337 L 302 337 L 302 443.800781 L 195 443.800781 Z M 195 337 "/>
</clipPath>
</defs>
<path fill-rule="nonzero" fill="rgb(21.899414%, 51.298523%, 66.598511%)" fill-opacity="1" stroke-width="0.4" stroke-linecap="butt" stroke-linejoin="round" stroke="rgb(0%, 0%, 0%)" stroke-opacity="1" stroke-miterlimit="10" d="M 254.999975 238.998059 C 254.999975 231.820391 249.179609 226.000025 242.001941 226.000025 C 234.820361 226.000025 228.999996 231.820391 228.999996 238.998059 C 228.999996 246.179639 234.820361 252.000004 242.001941 252.000004 C 249.179609 252.000004 254.999975 246.179639 254.999975 238.998059 " transform="matrix(0.998649, 0, 0, -0.998649, -20.272568, 460.577432)"/>
<path fill-rule="nonzero" fill="rgb(1.098633%, 50.099182%, 12.5%)" fill-opacity="1" stroke-width="0.4" stroke-linecap="butt" stroke-linejoin="round" stroke="rgb(0%, 0%, 0%)" stroke-opacity="1" stroke-miterlimit="10" d="M 256.001328 255.500829 C 256.001328 252.461565 253.53706 250.001209 250.501708 250.001209 C 247.462445 250.001209 244.998177 252.461565 244.998177 255.500829 C 244.998177 258.540092 247.462445 261.000448 250.501708 261.000448 C 253.53706 261.000448 256.001328 258.540092 256.001328 255.500829 " transform="matrix(0.998649, 0, 0, -0.998649, -20.272568, 460.577432)"/>
<path fill-rule="nonzero" fill="rgb(7.798767%, 8.198547%, 82.299805%)" fill-opacity="1" stroke-width="0.4" stroke-linecap="butt" stroke-linejoin="round" stroke="rgb(0%, 0%, 0%)" stroke-opacity="1" stroke-miterlimit="10" d="M 244.998177 257.499624 C 244.998177 254.186553 242.310952 251.499328 239.001793 251.499328 C 235.688722 251.499328 233.001497 254.186553 233.001497 257.499624 C 233.001497 260.812695 235.688722 263.49992 239.001793 263.49992 C 242.310952 263.49992 244.998177 260.812695 244.998177 257.499624 " transform="matrix(0.998649, 0, 0, -0.998649, -20.272568, 460.577432)"/>
<path fill-rule="nonzero" fill="rgb(27.799988%, 87.399292%, 23.899841%)" fill-opacity="1" stroke-width="0.4" stroke-linecap="butt" stroke-linejoin="round" stroke="rgb(0%, 0%, 0%)" stroke-opacity="1" stroke-miterlimit="10" d="M 235.000292 252.000004 C 235.000292 248.686933 232.313067 245.999708 228.999996 245.999708 C 225.686925 245.999708 222.9997 248.686933 222.9997 252.000004 C 222.9997 255.313075 225.686925 258.0003 228.999996 258.0003 C 232.313067 258.0003 235.000292 255.313075 235.000292 252.000004 " transform="matrix(0.998649, 0, 0, -0.998649, -20.272568, 460.577432)"/>
<path fill-rule="nonzero" fill="rgb(17.199707%, 84.698486%, 96.798706%)" fill-opacity="1" stroke-width="0.4" stroke-linecap="butt" stroke-linejoin="round" stroke="rgb(0%, 0%, 0%)" stroke-opacity="1" stroke-miterlimit="10" d="M 228.999996 241.998207 C 228.999996 238.962855 226.53964 236.498588 223.500376 236.498588 C 220.461113 236.498588 218.000757 238.962855 218.000757 241.998207 C 218.000757 245.03747 220.461113 247.501738 223.500376 247.501738 C 226.53964 247.501738 228.999996 245.03747 228.999996 241.998207 " transform="matrix(0.998649, 0, 0, -0.998649, -20.272568, 460.577432)"/>
<path fill-rule="nonzero" fill="rgb(29.798889%, 59.599304%, 37.199402%)" fill-opacity="1" stroke-width="0.4" stroke-linecap="butt" stroke-linejoin="round" stroke="rgb(0%, 0%, 0%)" stroke-opacity="1" stroke-miterlimit="10" d="M 230.998791 230.498292 C 230.998791 227.46294 228.538435 224.998672 225.499171 224.998672 C 222.459908 224.998672 219.999552 227.46294 219.999552 230.498292 C 219.999552 233.537555 222.459908 236.001823 225.499171 236.001823 C 228.538435 236.001823 230.998791 233.537555 230.998791 230.498292 " transform="matrix(0.998649, 0, 0, -0.998649, -20.272568, 460.577432)"/>
<path fill-rule="nonzero" fill="rgb(86.199951%, 46.199036%, 68.199158%)" fill-opacity="1" stroke-width="0.4" stroke-linecap="butt" stroke-linejoin="round" stroke="rgb(0%, 0%, 0%)" stroke-opacity="1" stroke-miterlimit="10" d="M 239.001793 222.499201 C 239.001793 219.459937 236.537525 216.999581 233.498262 216.999581 C 230.46291 216.999581 227.998643 219.459937 227.998643 222.499201 C 227.998643 225.538464 230.46291 227.99882 233.498262 227.99882 C 236.537525 227.99882 239.001793 225.538464 239.001793 222.499201 " transform="matrix(0.998649, 0, 0, -0.998649, -20.272568, 460.577432)"/>
<path fill-rule="nonzero" fill="rgb(8.599854%, 4.998779%, 100%)" fill-opacity="1" stroke-width="0.4" stroke-linecap="butt" stroke-linejoin="round" stroke="rgb(0%, 0%, 0%)" stroke-opacity="1" stroke-miterlimit="10" d="M 250.998473 220.500406 C 250.998473 217.187335 248.311248 214.50011 244.998177 214.50011 C 241.689018 214.50011 239.001793 217.187335 239.001793 220.500406 C 239.001793 223.813477 241.689018 226.500702 244.998177 226.500702 C 248.311248 226.500702 250.998473 223.813477 250.998473 220.500406 " transform="matrix(0.998649, 0, 0, -0.998649, -20.272568, 460.577432)"/>
<path fill-rule="nonzero" fill="rgb(72.099304%, 83.898926%, 62.298584%)" fill-opacity="1" stroke-width="0.4" stroke-linecap="butt" stroke-linejoin="round" stroke="rgb(0%, 0%, 0%)" stroke-opacity="1" stroke-miterlimit="10" d="M 261.000271 226.000025 C 261.000271 222.686954 258.313046 219.999729 254.999975 219.999729 C 251.686904 219.999729 248.999679 222.686954 248.999679 226.000025 C 248.999679 229.313096 251.686904 232.000321 254.999975 232.000321 C 258.313046 232.000321 261.000271 229.313096 261.000271 226.000025 " transform="matrix(0.998649, 0, 0, -0.998649, -20.272568, 460.577432)"/>
<path fill-rule="nonzero" fill="rgb(1.899719%, 23.899841%, 55.599976%)" fill-opacity="1" stroke-width="0.4" stroke-linecap="butt" stroke-linejoin="round" stroke="rgb(0%, 0%, 0%)" stroke-opacity="1" stroke-miterlimit="10" d="M 265.999213 236.001823 C 265.999213 232.962559 263.538857 230.498292 260.499594 230.498292 C 257.460331 230.498292 254.999975 232.962559 254.999975 236.001823 C 254.999975 239.037174 257.460331 241.501442 260.499594 241.501442 C 263.538857 241.501442 265.999213 239.037174 265.999213 236.001823 " transform="matrix(0.998649, 0, 0, -0.998649, -20.272568, 460.577432)"/>
<path fill-rule="nonzero" fill="rgb(53.29895%, 90.899658%, 97.999573%)" fill-opacity="1" stroke-width="0.4" stroke-linecap="butt" stroke-linejoin="round" stroke="rgb(0%, 0%, 0%)" stroke-opacity="1" stroke-miterlimit="10" d="M 264.000419 247.501738 C 264.000419 244.462475 261.540063 241.998207 258.500799 241.998207 C 255.461536 241.998207 253.00118 244.462475 253.00118 247.501738 C 253.00118 250.53709 255.461536 253.001357 258.500799 253.001357 C 261.540063 253.001357 264.000419 250.53709 264.000419 247.501738 " transform="matrix(0.998649, 0, 0, -0.998649, -20.272568, 460.577432)"/>
<path fill-rule="nonzero" fill="rgb(3.09906%, 3.09906%, 19.599915%)" fill-opacity="1" stroke-width="0.4" stroke-linecap="butt" stroke-linejoin="round" stroke="rgb(0%, 0%, 0%)" stroke-opacity="1" stroke-miterlimit="10" d="M 274.999657 262.001801 C 274.999657 256.478713 270.52486 252.000004 265.001772 252.000004 C 259.478683 252.000004 254.999975 256.478713 254.999975 262.001801 C 254.999975 267.52489 259.478683 271.999687 265.001772 271.999687 C 270.52486 271.999687 274.999657 267.52489 274.999657 262.001801 " transform="matrix(0.998649, 0, 0, -0.998649, -20.272568, 460.577432)"/>
<path fill-rule="nonzero" fill="rgb(11.299133%, 85.798645%, 20.698547%)" fill-opacity="1" stroke-width="0.4" stroke-linecap="butt" stroke-linejoin="round" stroke="rgb(0%, 0%, 0%)" stroke-opacity="1" stroke-miterlimit="10" d="M 256.998769 270.998334 C 256.998769 265.475245 252.523972 261.000448 247.000884 261.000448 C 241.477795 261.000448 236.999087 265.475245 236.999087 270.998334 C 236.999087 276.521423 241.477795 281.000131 247.000884 281.000131 C 252.523972 281.000131 256.998769 276.521423 256.998769 270.998334 " transform="matrix(0.998649, 0, 0, -0.998649, -20.272568, 460.577432)"/>
<path fill-rule="nonzero" fill="rgb(99.198914%, 9.399414%, 28.599548%)" fill-opacity="1" stroke-width="0.4" stroke-linecap="butt" stroke-linejoin="round" stroke="rgb(0%, 0%, 0%)" stroke-opacity="1" stroke-miterlimit="10" d="M 236.999087 267.998186 C 236.999087 262.475097 232.52429 258.0003 227.001201 258.0003 C 221.478112 258.0003 216.999404 262.475097 216.999404 267.998186 C 216.999404 273.521275 221.478112 277.999983 227.001201 277.999983 C 232.52429 277.999983 236.999087 273.521275 236.999087 267.998186 " transform="matrix(0.998649, 0, 0, -0.998649, -20.272568, 460.577432)"/>
<path fill-rule="nonzero" fill="rgb(83.499146%, 5.799866%, 56.399536%)" fill-opacity="1" stroke-width="0.4" stroke-linecap="butt" stroke-linejoin="round" stroke="rgb(0%, 0%, 0%)" stroke-opacity="1" stroke-miterlimit="10" d="M 222.9997 253.998799 C 222.9997 248.47571 218.524903 244.000913 213.001814 244.000913 C 207.478725 244.000913 203.000017 248.47571 203.000017 253.998799 C 203.000017 259.521888 207.478725 264.000596 213.001814 264.000596 C 218.524903 264.000596 222.9997 259.521888 222.9997 253.998799 " transform="matrix(0.998649, 0, 0, -0.998649, -20.272568, 460.577432)"/>
<path fill-rule="nonzero" fill="rgb(43.099976%, 43.099976%, 73.699951%)" fill-opacity="1" stroke-width="0.4" stroke-linecap="butt" stroke-linejoin="round" stroke="rgb(0%, 0%, 0%)" stroke-opacity="1" stroke-miterlimit="10" d="M 219.999552 233.999116 C 219.999552 228.476028 215.524755 224.001231 210.001666 224.001231 C 204.478577 224.001231 199.999869 228.476028 199.999869 233.999116 C 199.999869 239.522205 204.478577 244.000913 210.001666 244.000913 C 215.524755 244.000913 219.999552 239.522205 219.999552 233.999116 " transform="matrix(0.998649, 0, 0, -0.998649, -20.272568, 460.577432)"/>
<path fill-rule="nonzero" fill="rgb(89.399719%, 11.299133%, 3.09906%)" fill-opacity="1" stroke-width="0.4" stroke-linecap="butt" stroke-linejoin="round" stroke="rgb(0%, 0%, 0%)" stroke-opacity="1" stroke-miterlimit="10" d="M 228.999996 215.998228 C 228.999996 210.47514 224.521287 206.000343 218.998199 206.000343 C 213.47511 206.000343 209.000313 210.47514 209.000313 215.998228 C 209.000313 221.521317 213.47511 226.000025 218.998199 226.000025 C 224.521287 226.000025 228.999996 221.521317 228.999996 215.998228 " transform="matrix(0.998649, 0, 0, -0.998649, -20.272568, 460.577432)"/>
<path fill-rule="nonzero" fill="rgb(94.499207%, 10.899353%, 89.7995%)" fill-opacity="1" stroke-width="0.4" stroke-linecap="butt" stroke-linejoin="round" stroke="rgb(0%, 0%, 0%)" stroke-opacity="1" stroke-miterlimit="10" d="M 247.000884 207.001696 C 247.000884 201.478607 242.522175 196.999899 236.999087 196.999899 C 231.475998 196.999899 227.001201 201.478607 227.001201 207.001696 C 227.001201 212.524784 231.475998 216.999581 236.999087 216.999581 C 242.522175 216.999581 247.000884 212.524784 247.000884 207.001696 " transform="matrix(0.998649, 0, 0, -0.998649, -20.272568, 460.577432)"/>
<path fill-rule="nonzero" fill="rgb(77.999878%, 73.298645%, 98.399353%)" fill-opacity="1" stroke-width="0.4" stroke-linecap="butt" stroke-linejoin="round" stroke="rgb(0%, 0%, 0%)" stroke-opacity="1" stroke-miterlimit="10" d="M 267.000567 210.001844 C 267.000567 204.478755 262.521858 200.000047 256.998769 200.000047 C 251.475681 200.000047 247.000884 204.478755 247.000884 210.001844 C 247.000884 215.524932 251.475681 219.999729 256.998769 219.999729 C 262.521858 219.999729 267.000567 215.524932 267.000567 210.001844 " transform="matrix(0.998649, 0, 0, -0.998649, -20.272568, 460.577432)"/>
<path fill-rule="nonzero" fill="rgb(1.899719%, 28.599548%, 70.098877%)" fill-opacity="1" stroke-width="0.4" stroke-linecap="butt" stroke-linejoin="round" stroke="rgb(0%, 0%, 0%)" stroke-opacity="1" stroke-miterlimit="10" d="M 280.999953 224.001231 C 280.999953 218.478142 276.521245 213.999433 270.998156 213.999433 C 265.475068 213.999433 261.000271 218.478142 261.000271 224.001231 C 261.000271 229.524319 265.475068 233.999116 270.998156 233.999116 C 276.521245 233.999116 280.999953 229.524319 280.999953 224.001231 " transform="matrix(0.998649, 0, 0, -0.998649, -20.272568, 460.577432)"/>
<path fill-rule="nonzero" fill="rgb(92.89856%, 26.199341%, 72.099304%)" fill-opacity="1" stroke-width="0.4" stroke-linecap="butt" stroke-linejoin="round" stroke="rgb(0%, 0%, 0%)" stroke-opacity="1" stroke-miterlimit="10" d="M 284.000101 244.000913 C 284.000101 238.477825 279.521393 233.999116 273.998304 233.999116 C 268.475216 233.999116 264.000419 238.477825 264.000419 244.000913 C 264.000419 249.524002 268.475216 253.998799 273.998304 253.998799 C 279.521393 253.998799 284.000101 249.524002 284.000101 244.000913 " transform="matrix(0.998649, 0, 0, -0.998649, -20.272568, 460.577432)"/>
<path fill-rule="nonzero" fill="rgb(95.999146%, 45.799255%, 25%)" fill-opacity="1" stroke-width="0.4" stroke-linecap="butt" stroke-linejoin="round" stroke="rgb(0%, 0%, 0%)" stroke-opacity="1" stroke-miterlimit="10" d="M 310.00008 264.501273 C 310.00008 254.835868 302.165274 247.001061 292.499869 247.001061 C 282.834464 247.001061 274.999657 254.835868 274.999657 264.501273 C 274.999657 274.162766 282.834464 282.001484 292.499869 282.001484 C 302.165274 282.001484 310.00008 274.162766 310.00008 264.501273 " transform="matrix(0.998649, 0, 0, -0.998649, -20.272568, 460.577432)"/>
<path fill-rule="nonzero" fill="rgb(81.498718%, 66.598511%, 28.199768%)" fill-opacity="1" stroke-width="0.4" stroke-linecap="butt" stroke-linejoin="round" stroke="rgb(0%, 0%, 0%)" stroke-opacity="1" stroke-miterlimit="10" d="M 285.001455 289.499899 C 285.001455 279.834493 277.162737 271.999687 267.501243 271.999687 C 257.835838 271.999687 250.001032 279.834493 250.001032 289.499899 C 250.001032 299.165304 257.835838 307.00011 267.501243 307.00011 C 277.162737 307.00011 285.001455 299.165304 285.001455 289.499899 " transform="matrix(0.998649, 0, 0, -0.998649, -20.272568, 460.577432)"/>
<path fill-rule="nonzero" fill="rgb(90.899658%, 95.199585%, 39.898682%)" fill-opacity="1" stroke-width="0.4" stroke-linecap="butt" stroke-linejoin="round" stroke="rgb(0%, 0%, 0%)" stroke-opacity="1" stroke-miterlimit="10" d="M 250.001032 294.498841 C 250.001032 285.107244 242.389183 277.499306 233.001497 277.499306 C 223.609899 277.499306 215.998051 285.107244 215.998051 294.498841 C 215.998051 303.890439 223.609899 311.498376 233.001497 311.498376 C 242.389183 311.498376 250.001032 303.890439 250.001032 294.498841 " transform="matrix(0.998649, 0, 0, -0.998649, -20.272568, 460.577432)"/>
<path fill-rule="nonzero" fill="rgb(97.198486%, 51.298523%, 38.798523%)" fill-opacity="1" stroke-width="0.4" stroke-linecap="butt" stroke-linejoin="round" stroke="rgb(0%, 0%, 0%)" stroke-opacity="1" stroke-miterlimit="10" d="M 218.998199 278.50066 C 218.998199 269.109062 211.390261 261.501125 201.998664 261.501125 C 192.607066 261.501125 184.999129 269.109062 184.999129 278.50066 C 184.999129 287.892257 192.607066 295.500195 201.998664 295.500195 C 211.390261 295.500195 218.998199 287.892257 218.998199 278.50066 " transform="matrix(0.998649, 0, 0, -0.998649, -20.272568, 460.577432)"/>
<path fill-rule="nonzero" fill="rgb(39.898682%, 25%, 21.899414%)" fill-opacity="1" stroke-width="0.4" stroke-linecap="butt" stroke-linejoin="round" stroke="rgb(0%, 0%, 0%)" stroke-opacity="1" stroke-miterlimit="10" d="M 204.00137 247.501738 C 204.00137 237.836333 196.162652 230.001527 186.501159 230.001527 C 176.835754 230.001527 169.000947 237.836333 169.000947 247.501738 C 169.000947 257.163232 176.835754 265.001949 186.501159 265.001949 C 196.162652 265.001949 204.00137 257.163232 204.00137 247.501738 " transform="matrix(0.998649, 0, 0, -0.998649, -20.272568, 460.577432)"/>
<path fill-rule="nonzero" fill="rgb(51.298523%, 28.199768%, 64.99939%)" fill-opacity="1" stroke-width="0.4" stroke-linecap="butt" stroke-linejoin="round" stroke="rgb(0%, 0%, 0%)" stroke-opacity="1" stroke-miterlimit="10" d="M 209.000313 213.498757 C 209.000313 203.837263 201.165507 195.998545 191.500101 195.998545 C 181.834696 195.998545 173.99989 203.837263 173.99989 213.498757 C 173.99989 223.164162 181.834696 230.998968 191.500101 230.998968 C 201.165507 230.998968 209.000313 223.164162 209.000313 213.498757 " transform="matrix(0.998649, 0, 0, -0.998649, -20.272568, 460.577432)"/>
<path fill-rule="nonzero" fill="rgb(62.298584%, 17.599487%, 54.098511%)" fill-opacity="1" stroke-width="0.4" stroke-linecap="butt" stroke-linejoin="round" stroke="rgb(0%, 0%, 0%)" stroke-opacity="1" stroke-miterlimit="10" d="M 233.998939 188.500131 C 233.998939 178.834726 226.164132 170.99992 216.498727 170.99992 C 206.837234 170.99992 198.998516 178.834726 198.998516 188.500131 C 198.998516 198.165536 206.837234 206.000343 216.498727 206.000343 C 226.164132 206.000343 233.998939 198.165536 233.998939 188.500131 " transform="matrix(0.998649, 0, 0, -0.998649, -20.272568, 460.577432)"/>
<path fill-rule="nonzero" fill="rgb(35.598755%, 15.99884%, 48.199463%)" fill-opacity="1" stroke-width="0.4" stroke-linecap="butt" stroke-linejoin="round" stroke="rgb(0%, 0%, 0%)" stroke-opacity="1" stroke-miterlimit="10" d="M 268.00192 183.501188 C 268.00192 174.109591 260.390071 166.501653 250.998473 166.501653 C 241.610787 166.501653 233.998939 174.109591 233.998939 183.501188 C 233.998939 192.892786 241.610787 200.500723 250.998473 200.500723 C 260.390071 200.500723 268.00192 192.892786 268.00192 183.501188 " transform="matrix(0.998649, 0, 0, -0.998649, -20.272568, 460.577432)"/>
<path fill-rule="nonzero" fill="rgb(64.299011%, 86.199951%, 26.199341%)" fill-opacity="1" stroke-width="0.4" stroke-linecap="butt" stroke-linejoin="round" stroke="rgb(0%, 0%, 0%)" stroke-opacity="1" stroke-miterlimit="10" d="M 299.000842 199.49937 C 299.000842 190.107772 291.392904 182.499835 282.001307 182.499835 C 272.609709 182.499835 265.001772 190.107772 265.001772 199.49937 C 265.001772 208.890968 272.609709 216.498905 282.001307 216.498905 C 291.392904 216.498905 299.000842 208.890968 299.000842 199.49937 " transform="matrix(0.998649, 0, 0, -0.998649, -20.272568, 460.577432)"/>
<path fill-rule="nonzero" fill="rgb(90.899658%, 58.399963%, 28.199768%)" fill-opacity="1" stroke-width="0.4" stroke-linecap="butt" stroke-linejoin="round" stroke="rgb(0%, 0%, 0%)" stroke-opacity="1" stroke-miterlimit="10" d="M 314.999023 230.498292 C 314.999023 220.836798 307.164217 212.99808 297.498812 212.99808 C 287.837318 212.99808 279.9986 220.836798 279.9986 230.498292 C 279.9986 240.163697 287.837318 247.998503 297.498812 247.998503 C 307.164217 247.998503 314.999023 240.163697 314.999023 230.498292 " transform="matrix(0.998649, 0, 0, -0.998649, -20.272568, 460.577432)"/>
<path fill-rule="nonzero" fill="rgb(36.399841%, 83.499146%, 20.698547%)" fill-opacity="1" stroke-width="0.4" stroke-linecap="butt" stroke-linejoin="round" stroke="rgb(0%, 0%, 0%)" stroke-opacity="1" stroke-miterlimit="10" d="M 369.001687 254.499476 C 369.001687 237.93021 355.569473 224.501907 339.000207 224.501907 C 322.430941 224.501907 308.998727 237.93021 308.998727 254.499476 C 308.998727 271.068742 322.430941 284.500956 339.000207 284.500956 C 355.569473 284.500956 369.001687 271.068742 369.001687 254.499476 " transform="matrix(0.998649, 0, 0, -0.998649, -20.272568, 460.577432)"/>
<path fill-rule="nonzero" fill="rgb(3.09906%, 11.698914%, 16.398621%)" fill-opacity="1" stroke-width="0.4" stroke-linecap="butt" stroke-linejoin="round" stroke="rgb(0%, 0%, 0%)" stroke-opacity="1" stroke-miterlimit="10" d="M 342.000355 308.498228 C 342.000355 291.655155 328.345184 277.999983 311.498199 277.999983 C 294.655125 277.999983 280.999953 291.655155 280.999953 308.498228 C 280.999953 325.345213 294.655125 339.000385 311.498199 339.000385 C 328.345184 339.000385 342.000355 325.345213 342.000355 308.498228 " transform="matrix(0.998649, 0, 0, -0.998649, -20.272568, 460.577432)"/>
<path fill-rule="nonzero" fill="rgb(98.399353%, 51.699829%, 98.399353%)" fill-opacity="1" stroke-width="0.4" stroke-linecap="butt" stroke-linejoin="round" stroke="rgb(0%, 0%, 0%)" stroke-opacity="1" stroke-miterlimit="10" d="M 287.000249 336.000237 C 287.000249 319.430971 273.571947 305.998757 256.998769 305.998757 C 240.429504 305.998757 227.001201 319.430971 227.001201 336.000237 C 227.001201 352.569503 240.429504 366.001717 256.998769 366.001717 C 273.571947 366.001717 287.000249 352.569503 287.000249 336.000237 " transform="matrix(0.998649, 0, 0, -0.998649, -20.272568, 460.577432)"/>
<path fill-rule="nonzero" fill="rgb(49.798584%, 90.499878%, 88.999939%)" fill-opacity="1" stroke-width="0.4" stroke-linecap="butt" stroke-linejoin="round" stroke="rgb(0%, 0%, 0%)" stroke-opacity="1" stroke-miterlimit="10" d="M 227.998643 326.499116 C 227.998643 309.656043 214.343471 296.000871 197.500397 296.000871 C 180.657324 296.000871 166.998241 309.656043 166.998241 326.499116 C 166.998241 343.34219 180.657324 357.001273 197.500397 357.001273 C 214.343471 357.001273 227.998643 343.34219 227.998643 326.499116 " transform="matrix(0.998649, 0, 0, -0.998649, -20.272568, 460.577432)"/>
<path fill-rule="nonzero" fill="rgb(74.899292%, 12.098694%, 85.798645%)" fill-opacity="1" stroke-width="0.4" stroke-linecap="butt" stroke-linejoin="round" stroke="rgb(0%, 0%, 0%)" stroke-opacity="1" stroke-miterlimit="10" d="M 184.999129 283.499603 C 184.999129 266.656529 171.343957 253.001357 154.500884 253.001357 C 137.65781 253.001357 123.998727 266.656529 123.998727 283.499603 C 123.998727 300.342676 137.65781 314.001759 154.500884 314.001759 C 171.343957 314.001759 184.999129 300.342676 184.999129 283.499603 " transform="matrix(0.998649, 0, 0, -0.998649, -20.272568, 460.577432)"/>
<path fill-rule="nonzero" fill="rgb(2.69928%, 77.598572%, 25.799561%)" fill-opacity="1" stroke-width="0.4" stroke-linecap="butt" stroke-linejoin="round" stroke="rgb(0%, 0%, 0%)" stroke-opacity="1" stroke-miterlimit="10" d="M 175.001243 223.500554 C 175.001243 206.931288 161.569029 193.499074 144.999763 193.499074 C 128.430497 193.499074 114.998283 206.931288 114.998283 223.500554 C 114.998283 240.06982 128.430497 253.498122 144.999763 253.498122 C 161.569029 253.498122 175.001243 240.06982 175.001243 223.500554 " transform="matrix(0.998649, 0, 0, -0.998649, -20.272568, 460.577432)"/>
<path fill-rule="nonzero" fill="rgb(20.698547%, 31.298828%, 77.198792%)" fill-opacity="1" stroke-width="0.4" stroke-linecap="butt" stroke-linejoin="round" stroke="rgb(0%, 0%, 0%)" stroke-opacity="1" stroke-miterlimit="10" d="M 203.000017 169.501801 C 203.000017 152.654816 189.344845 138.999645 172.501772 138.999645 C 155.654787 138.999645 141.999615 152.654816 141.999615 169.501801 C 141.999615 186.344875 155.654787 200.000047 172.501772 200.000047 C 189.344845 200.000047 203.000017 186.344875 203.000017 169.501801 " transform="matrix(0.998649, 0, 0, -0.998649, -20.272568, 460.577432)"/>
<path fill-rule="nonzero" fill="rgb(36.799622%, 79.899597%, 39.599609%)" fill-opacity="1" stroke-width="0.4" stroke-linecap="butt" stroke-linejoin="round" stroke="rgb(0%, 0%, 0%)" stroke-opacity="1" stroke-miterlimit="10" d="M 256.998769 141.999793 C 256.998769 125.430527 243.570467 111.998313 227.001201 111.998313 C 210.431935 111.998313 196.999721 125.430527 196.999721 141.999793 C 196.999721 158.569059 210.431935 172.001273 227.001201 172.001273 C 243.570467 172.001273 256.998769 158.569059 256.998769 141.999793 " transform="matrix(0.998649, 0, 0, -0.998649, -20.272568, 460.577432)"/>
<path fill-rule="nonzero" fill="rgb(22.698975%, 5.799866%, 75.19989%)" fill-opacity="1" stroke-width="0.4" stroke-linecap="butt" stroke-linejoin="round" stroke="rgb(0%, 0%, 0%)" stroke-opacity="1" stroke-miterlimit="10" d="M 317.00173 151.500913 C 317.00173 134.65784 303.342646 120.998757 286.499573 120.998757 C 269.656499 120.998757 256.001328 134.65784 256.001328 151.500913 C 256.001328 168.343987 269.656499 181.999158 286.499573 181.999158 C 303.342646 181.999158 317.00173 168.343987 317.00173 151.500913 " transform="matrix(0.998649, 0, 0, -0.998649, -20.272568, 460.577432)"/>
<path fill-rule="nonzero" fill="rgb(81.098938%, 34.098816%, 39.199829%)" fill-opacity="1" stroke-width="0.4" stroke-linecap="butt" stroke-linejoin="round" stroke="rgb(0%, 0%, 0%)" stroke-opacity="1" stroke-miterlimit="10" d="M 360.001243 194.500427 C 360.001243 177.657354 346.34216 163.99827 329.499087 163.99827 C 312.656013 163.99827 299.000842 177.657354 299.000842 194.500427 C 299.000842 211.343501 312.656013 224.998672 329.499087 224.998672 C 346.34216 224.998672 360.001243 211.343501 360.001243 194.500427 " transform="matrix(0.998649, 0, 0, -0.998649, -20.272568, 460.577432)"/>
<g clip-path="url(#clip-0)">
<path fill-rule="nonzero" fill="rgb(64.698792%, 54.899597%, 29.798889%)" fill-opacity="1" stroke-width="0.4" stroke-linecap="butt" stroke-linejoin="round" stroke="rgb(0%, 0%, 0%)" stroke-opacity="1" stroke-miterlimit="10" d="M 462.999805 212.501315 C 462.999805 183.5051 439.495387 160.000681 410.499171 160.000681 C 381.502956 160.000681 357.998537 183.5051 357.998537 212.501315 C 357.998537 241.49753 381.502956 265.001949 410.499171 265.001949 C 439.495387 265.001949 462.999805 241.49753 462.999805 212.501315 " transform="matrix(0.998649, 0, 0, -0.998649, -20.272568, 460.577432)"/>
</g>
<path fill-rule="nonzero" fill="rgb(76.399231%, 71.299744%, 66.598511%)" fill-opacity="1" stroke-width="0.4" stroke-linecap="butt" stroke-linejoin="round" stroke="rgb(0%, 0%, 0%)" stroke-opacity="1" stroke-miterlimit="10" d="M 447.001624 317.001907 C 447.001624 287.731884 423.270336 264.000596 394.000313 264.000596 C 364.73029 264.000596 340.999002 287.731884 340.999002 317.001907 C 340.999002 346.27193 364.73029 369.999306 394.000313 369.999306 C 423.270336 369.999306 447.001624 346.27193 447.001624 317.001907 " transform="matrix(0.998649, 0, 0, -0.998649, -20.272568, 460.577432)"/>
<path fill-rule="nonzero" fill="rgb(27.799988%, 69.398499%, 69.799805%)" fill-opacity="1" stroke-width="0.4" stroke-linecap="butt" stroke-linejoin="round" stroke="rgb(0%, 0%, 0%)" stroke-opacity="1" stroke-miterlimit="10" d="M 372.001835 391.501019 C 372.001835 362.230996 348.270547 338.499708 319.000524 338.499708 C 289.730502 338.499708 265.999213 362.230996 265.999213 391.501019 C 265.999213 420.771042 289.730502 444.498418 319.000524 444.498418 C 348.270547 444.498418 372.001835 420.771042 372.001835 391.501019 " transform="matrix(0.998649, 0, 0, -0.998649, -20.272568, 460.577432)"/>
<path fill-rule="nonzero" fill="rgb(17.999268%, 58.399963%, 67.799377%)" fill-opacity="1" stroke-width="0.4" stroke-linecap="butt" stroke-linejoin="round" stroke="rgb(0%, 0%, 0%)" stroke-opacity="1" stroke-miterlimit="10" d="M 268.00192 407.499201 C 268.00192 378.229178 244.270632 354.501801 215.000609 354.501801 C 185.730586 354.501801 161.999298 378.229178 161.999298 407.499201 C 161.999298 436.769224 185.730586 460.500512 215.000609 460.500512 C 244.270632 460.500512 268.00192 436.769224 268.00192 407.499201 " transform="matrix(0.998649, 0, 0, -0.998649, -20.272568, 460.577432)"/>
<path fill-rule="nonzero" fill="rgb(30.099487%, 43.899536%, 17.199707%)" fill-opacity="1" stroke-width="0.4" stroke-linecap="butt" stroke-linejoin="round" stroke="rgb(0%, 0%, 0%)" stroke-opacity="1" stroke-miterlimit="10" d="M 173.99989 359.500744 C 173.99989 330.230721 150.268602 306.499433 120.998579 306.499433 C 91.728556 306.499433 68.00118 330.230721 68.00118 359.500744 C 68.00118 388.770767 91.728556 412.498144 120.998579 412.498144 C 150.268602 412.498144 173.99989 388.770767 173.99989 359.500744 " transform="matrix(0.998649, 0, 0, -0.998649, -20.272568, 460.577432)"/>
<path fill-rule="nonzero" fill="rgb(7.398987%, 69.799805%, 92.098999%)" fill-opacity="1" stroke-width="0.4" stroke-linecap="butt" stroke-linejoin="round" stroke="rgb(0%, 0%, 0%)" stroke-opacity="1" stroke-miterlimit="10" d="M 126.001434 265.498714 C 126.001434 236.502499 102.497015 212.99808 73.500799 212.99808 C 44.504584 212.99808 21.000165 236.502499 21.000165 265.498714 C 21.000165 294.49493 44.504584 317.999349 73.500799 317.999349 C 102.497015 317.999349 126.001434 294.49493 126.001434 265.498714 " transform="matrix(0.998649, 0, 0, -0.998649, -20.272568, 460.577432)"/>
<path fill-rule="nonzero" fill="rgb(39.199829%, 46.998596%, 95.199585%)" fill-opacity="1" stroke-width="0.4" stroke-linecap="butt" stroke-linejoin="round" stroke="rgb(0%, 0%, 0%)" stroke-opacity="1" stroke-miterlimit="10" d="M 143.000968 160.998122 C 143.000968 131.7281 119.26968 108.000723 89.999657 108.000723 C 60.729635 108.000723 36.998347 131.7281 36.998347 160.998122 C 36.998347 190.268145 60.729635 213.999433 89.999657 213.999433 C 119.26968 213.999433 143.000968 190.268145 143.000968 160.998122 " transform="matrix(0.998649, 0, 0, -0.998649, -20.272568, 460.577432)"/>
<path fill-rule="nonzero" fill="rgb(18.798828%, 86.599731%, 15.59906%)" fill-opacity="1" stroke-width="0.4" stroke-linecap="butt" stroke-linejoin="round" stroke="rgb(0%, 0%, 0%)" stroke-opacity="1" stroke-miterlimit="10" d="M 218.000757 86.49901 C 218.000757 57.228988 194.269469 33.501611 164.999446 33.501611 C 135.729423 33.501611 111.998135 57.228988 111.998135 86.49901 C 111.998135 115.769033 135.729423 139.500321 164.999446 139.500321 C 194.269469 139.500321 218.000757 115.769033 218.000757 86.49901 " transform="matrix(0.998649, 0, 0, -0.998649, -20.272568, 460.577432)"/>
<g clip-path="url(#clip-1)">
<path fill-rule="nonzero" fill="rgb(24.699402%, 61.499023%, 52.49939%)" fill-opacity="1" stroke-width="0.4" stroke-linecap="butt" stroke-linejoin="round" stroke="rgb(0%, 0%, 0%)" stroke-opacity="1" stroke-miterlimit="10" d="M 322.000672 70.500829 C 322.000672 41.230806 298.269384 17.499518 268.999361 17.499518 C 239.729339 17.499518 215.998051 41.230806 215.998051 70.500829 C 215.998051 99.770852 239.729339 123.498228 268.999361 123.498228 C 298.269384 123.498228 322.000672 99.770852 322.000672 70.500829 " transform="matrix(0.998649, 0, 0, -0.998649, -20.272568, 460.577432)"/>
</g>
<path fill-rule="nonzero" fill="rgb(58.799744%, 0.299072%, 75.19989%)" fill-opacity="1" stroke-width="0.4" stroke-linecap="butt" stroke-linejoin="round" stroke="rgb(0%, 0%, 0%)" stroke-opacity="1" stroke-miterlimit="10" d="M 415.998791 118.499285 C 415.998791 89.229263 392.271414 65.501886 363.001391 65.501886 C 333.731368 65.501886 310.00008 89.229263 310.00008 118.499285 C 310.00008 147.769308 333.731368 171.500596 363.001391 171.500596 C 392.271414 171.500596 415.998791 147.769308 415.998791 118.499285 " transform="matrix(0.998649, 0, 0, -0.998649, -20.272568, 460.577432)"/>
</svg>
