<?xml version="1.0" encoding="UTF-8"?>
<svg xmlns="http://www.w3.org/2000/svg" xmlns:xlink="http://www.w3.org/1999/xlink" width="1000" height="1000" viewBox="0 0 1000 1000">
<rect x="-100" y="-100" width="1200" height="1200" fill="rgb(100%, 100%, 100%)" fill-opacity="1"/>
<path fill="none" stroke-width="2" stroke-linecap="butt" stroke-linejoin="miter" stroke="rgb(9.999084%, 9.999084%, 9.999084%)" stroke-opacity="0.7" stroke-miterlimit="10" d="M 900 500 L 846.410156 700 "/>
<path fill="none" stroke-width="2" stroke-linecap="butt" stroke-linejoin="miter" stroke="rgb(9.999084%, 9.999084%, 9.999084%)" stroke-opacity="0.7" stroke-miterlimit="10" d="M 900 500 L 700 846.410156 "/>
<path fill="none" stroke-width="2" stroke-linecap="butt" stroke-linejoin="miter" stroke="rgb(9.999084%, 9.999084%, 9.999084%)" stroke-opacity="0.7" stroke-miterlimit="10" d="M 900 500 L 500 900 "/>
<path fill="none" stroke-width="2" stroke-linecap="butt" stroke-linejoin="miter" stroke="rgb(9.999084%, 9.999084%, 9.999084%)" stroke-opacity="0.7" stroke-miterlimit="10" d="M 900 500 L 300 846.410156 "/>
<path fill="none" stroke-width="2" stroke-linecap="butt" stroke-linejoin="miter" stroke="rgb(9.999084%, 9.999084%, 9.999084%)" stroke-opacity="0.7" stroke-miterlimit="10" d="M 900 500 L 153.589844 700 "/>
<path fill="none" stroke-width="2" stroke-linecap="butt" stroke-linejoin="miter" stroke="rgb(9.999084%, 9.999084%, 9.999084%)" stroke-opacity="0.7" stroke-miterlimit="10" d="M 900 500 L 100 500 "/>
<path fill="none" stroke-width="2" stroke-linecap="butt" stroke-linejoin="miter" stroke="rgb(9.999084%, 9.999084%, 9.999084%)" stroke-opacity="0.7" stroke-miterlimit="10" d="M 900 500 L 153.589844 300 "/>
<path fill="none" stroke-width="2" stroke-linecap="butt" stroke-linejoin="miter" stroke="rgb(9.999084%, 9.999084%, 9.999084%)" stroke-opacity="0.7" stroke-miterlimit="10" d="M 900 500 L 300 153.589844 "/>
<path fill="none" stroke-width="2" stroke-linecap="butt" stroke-linejoin="miter" stroke="rgb(9.999084%, 9.999084%, 9.999084%)" stroke-opacity="0.7" stroke-miterlimit="10" d="M 900 500 L 500 100 "/>
<path fill="none" stroke-width="2" stroke-linecap="butt" stroke-linejoin="miter" stroke="rgb(9.999084%, 9.999084%, 9.999084%)" stroke-opacity="0.7" stroke-miterlimit="10" d="M 900 500 L 700 153.589844 "/>
<path fill="none" stroke-width="2" stroke-linecap="butt" stroke-linejoin="miter" stroke="rgb(9.999084%, 9.999084%, 9.999084%)" stroke-opacity="0.7" stroke-miterlimit="10" d="M 900 500 L 846.410156 300 "/>
<path fill="none" stroke-width="2" stroke-linecap="butt" stroke-linejoin="miter" stroke="rgb(9.999084%, 9.999084%, 9.999084%)" stroke-opacity="0.7" stroke-miterlimit="10" d="M 846.410156 700 L 700 846.410156 "/>
<path fill="none" stroke-width="2" stroke-linecap="butt" stroke-linejoin="miter" stroke="rgb(9.999084%, 9.999084%, 9.999084%)" stroke-opacity="0.7" stroke-miterlimit="10" d="M 846.410156 700 L 500 900 "/>
<path fill="none" stroke-width="2" stroke-linecap="butt" stroke-linejoin="miter" stroke="rgb(9.999084%, 9.999084%, 9.999084%)" stroke-opacity="0.7" stroke-miterlimit="10" d="M 846.410156 700 L 300 846.410156 "/>
<path fill="none" stroke-width="2" stroke-linecap="butt" stroke-linejoin="miter" stroke="rgb(9.999084%, 9.999084%, 9.999084%)" stroke-opacity="0.7" stroke-miterlimit="10" d="M 846.410156 700 L 153.589844 700 "/>
<path fill="none" stroke-width="2" stroke-linecap="butt" stroke-linejoin="miter" stroke="rgb(9.999084%, 9.999084%, 9.999084%)" stroke-opacity="0.7" stroke-miterlimit="10" d="M 846.410156 700 L 100 500 "/>
<path fill="none" stroke-width="2" stroke-linecap="butt" stroke-linejoin="miter" stroke="rgb(9.999084%, 9.999084%, 9.999084%)" stroke-opacity="0.7" stroke-miterlimit="10" d="M 846.410156 700 L 153.589844 300 "/>
<path fill="none" stroke-width="2" stroke-linecap="butt" stroke-linejoin="miter" stroke="rgb(9.999084%, 9.999084%, 9.999084%)" stroke-opacity="0.7" stroke-miterlimit="10" d="M 846.410156 700 L 300 153.589844 "/>
<path fill="none" stroke-width="2" stroke-linecap="butt" stroke-linejoin="miter" stroke="rgb(9.999084%, 9.999084%, 9.999084%)" stroke-opacity="0.7" stroke-miterlimit="10" d="M 846.410156 700 L 500 100 "/>
<path fill="none" stroke-width="2" stroke-linecap="butt" stroke-linejoin="miter" stroke="rgb(9.999084%, 9.999084%, 9.999084%)" stroke-opacity="0.7" stroke-miterlimit="10" d="M 846.410156 700 L 700 153.589844 "/>
<path fill="none" stroke-width="2" stroke-linecap="butt" stroke-linejoin="miter" stroke="rgb(9.999084%, 9.999084%, 9.999084%)" stroke-opacity="0.7" stroke-miterlimit="10" d="M 846.410156 700 L 846.410156 300 "/>
<path fill="none" stroke-width="2" stroke-linecap="butt" stroke-linejoin="miter" stroke="rgb(9.999084%, 9.999084%, 9.999084%)" stroke-opacity="0.7" stroke-miterlimit="10" d="M 700 846.410156 L 500 900 "/>
<path fill="none" stroke-width="2" stroke-linecap="butt" stroke-linejoin="miter" stroke="rgb(9.999084%, 9.999084%, 9.999084%)" stroke-opacity="0.7" stroke-miterlimit="10" d="M 700 846.410156 L 300 846.410156 "/>
<path fill="none" stroke-width="2" stroke-linecap="butt" stroke-linejoin="miter" stroke="rgb(9.999084%, 9.999084%, 9.999084%)" stroke-opacity="0.7" stroke-miterlimit="10" d="M 700 846.410156 L 153.589844 700 "/>
<path fill="none" stroke-width="2" stroke-linecap="butt" stroke-linejoin="miter" stroke="rgb(9.999084%, 9.999084%, 9.999084%)" stroke-opacity="0.7" stroke-miterlimit="10" d="M 700 846.410156 L 100 500 "/>
<path fill="none" stroke-width="2" stroke-linecap="butt" stroke-linejoin="miter" stroke="rgb(9.999084%, 9.999084%, 9.999084%)" stroke-opacity="0.7" stroke-miterlimit="10" d="M 700 846.410156 L 153.589844 300 "/>
<path fill="none" stroke-width="2" stroke-linecap="butt" stroke-linejoin="miter" stroke="rgb(9.999084%, 9.999084%, 9.999084%)" stroke-opacity="0.7" stroke-miterlimit="10" d="M 700 846.410156 L 300 153.589844 "/>
<path fill="none" stroke-width="2" stroke-linecap="butt" stroke-linejoin="miter" stroke="rgb(9.999084%, 9.999084%, 9.999084%)" stroke-opacity="0.7" stroke-miterlimit="10" d="M 700 846.410156 L 500 100 "/>
<path fill="none" stroke-width="2" stroke-linecap="butt" stroke-linejoin="miter" stroke="rgb(9.999084%, 9.999084%, 9.999084%)" stroke-opacity="0.7" stroke-miterlimit="10" d="M 700 846.410156 L 700 153.589844 "/>
<path fill="none" stroke-width="2" stroke-linecap="butt" stroke-linejoin="miter" stroke="rgb(9.999084%, 9.999084%, 9.999084%)" stroke-opacity="0.7" stroke-miterlimit="10" d="M 700 846.410156 L 846.410156 300 "/>
<path fill="none" stroke-width="2" stroke-linecap="butt" stroke-linejoin="miter" stroke="rgb(9.999084%, 9.999084%, 9.999084%)" stroke-opacity="0.7" stroke-miterlimit="10" d="M 500 900 L 300 846.410156 "/>
<path fill="none" stroke-width="2" stroke-linecap="butt" stroke-linejoin="miter" stroke="rgb(9.999084%, 9.999084%, 9.999084%)" stroke-opacity="0.7" stroke-miterlimit="10" d="M 500 900 L 153.589844 700 "/>
<path fill="none" stroke-width="2" stroke-linecap="butt" stroke-linejoin="miter" stroke="rgb(9.999084%, 9.999084%, 9.999084%)" stroke-opacity="0.7" stroke-miterlimit="10" d="M 500 900 L 100 500 "/>
<path fill="none" stroke-width="2" stroke-linecap="butt" stroke-linejoin="miter" stroke="rgb(9.999084%, 9.999084%, 9.999084%)" stroke-opacity="0.7" stroke-miterlimit="10" d="M 500 900 L 153.589844 300 "/>
<path fill="none" stroke-width="2" stroke-linecap="butt" stroke-linejoin="miter" stroke="rgb(9.999084%, 9.999084%, 9.999084%)" stroke-opacity="0.7" stroke-miterlimit="10" d="M 500 900 L 300 153.589844 "/>
<path fill="none" stroke-width="2" stroke-linecap="butt" stroke-linejoin="miter" stroke="rgb(9.999084%, 9.999084%, 9.999084%)" stroke-opacity="0.7" stroke-miterlimit="10" d="M 500 900 L 500 100 "/>
<path fill="none" stroke-width="2" stroke-linecap="butt" stroke-linejoin="miter" stroke="rgb(9.999084%, 9.999084%, 9.999084%)" stroke-opacity="0.7" stroke-miterlimit="10" d="M 500 900 L 700 153.589844 "/>
<path fill="none" stroke-width="2" stroke-linecap="butt" stroke-linejoin="miter" stroke="rgb(9.999084%, 9.999084%, 9.999084%)" stroke-opacity="0.7" stroke-miterlimit="10" d="M 500 900 L 846.410156 300 "/>
<path fill="none" stroke-width="2" stroke-linecap="butt" stroke-linejoin="miter" stroke="rgb(9.999084%, 9.999084%, 9.999084%)" stroke-opacity="0.7" stroke-miterlimit="10" d="M 300 846.410156 L 153.589844 700 "/>
<path fill="none" stroke-width="2" stroke-linecap="butt" stroke-linejoin="miter" stroke="rgb(9.999084%, 9.999084%, 9.999084%)" stroke-opacity="0.7" stroke-miterlimit="10" d="M 300 846.410156 L 100 500 "/>
<path fill="none" stroke-width="2" stroke-linecap="butt" stroke-linejoin="miter" stroke="rgb(9.999084%, 9.999084%, 9.999084%)" stroke-opacity="0.7" stroke-miterlimit="10" d="M 300 846.410156 L 153.589844 300 "/>
<path fill="none" stroke-width="2" stroke-linecap="butt" stroke-linejoin="miter" stroke="rgb(9.999084%, 9.999084%, 9.999084%)" stroke-opacity="0.7" stroke-miterlimit="10" d="M 300 846.410156 L 300 153.589844 "/>
<path fill="none" stroke-width="2" stroke-linecap="butt" stroke-linejoin="miter" stroke="rgb(9.999084%, 9.999084%, 9.999084%)" stroke-opacity="0.7" stroke-miterlimit="10" d="M 300 846.410156 L 500 100 "/>
<path fill="none" stroke-width="2" stroke-linecap="butt" stroke-linejoin="miter" stroke="rgb(9.999084%, 9.999084%, 9.999084%)" stroke-opacity="0.7" stroke-miterlimit="10" d="M 300 846.410156 L 700 153.589844 "/>
<path fill="none" stroke-width="2" stroke-linecap="butt" stroke-linejoin="miter" stroke="rgb(9.999084%, 9.999084%, 9.999084%)" stroke-opacity="0.7" stroke-miterlimit="10" d="M 300 846.410156 L 846.410156 300 "/>
<path fill="none" stroke-width="2" stroke-linecap="butt" stroke-linejoin="miter" stroke="rgb(9.999084%, 9.999084%, 9.999084%)" stroke-opacity="0.7" stroke-miterlimit="10" d="M 153.589844 700 L 100 500 "/>
<path fill="none" stroke-width="2" stroke-linecap="butt" stroke-linejoin="miter" stroke="rgb(9.999084%, 9.999084%, 9.999084%)" stroke-opacity="0.7" stroke-miterlimit="10" d="M 153.589844 700 L 153.589844 300 "/>
<path fill="none" stroke-width="2" stroke-linecap="butt" stroke-linejoin="miter" stroke="rgb(9.999084%, 9.999084%, 9.999084%)" stroke-opacity="0.7" stroke-miterlimit="10" d="M 153.589844 700 L 300 153.589844 "/>
<path fill="none" stroke-width="2" stroke-linecap="butt" stroke-linejoin="miter" stroke="rgb(9.999084%, 9.999084%, 9.999084%)" stroke-opacity="0.7" stroke-miterlimit="10" d="M 153.589844 700 L 500 100 "/>
<path fill="none" stroke-width="2" stroke-linecap="butt" stroke-linejoin="miter" stroke="rgb(9.999084%, 9.999084%, 9.999084%)" stroke-opacity="0.7" stroke-miterlimit="10" d="M 153.589844 700 L 700 153.589844 "/>
<path fill="none" stroke-width="2" stroke-linecap="butt" stroke-linejoin="miter" stroke="rgb(9.999084%, 9.999084%, 9.999084%)" stroke-opacity="0.7" stroke-miterlimit="10" d="M 153.589844 700 L 846.410156 300 "/>
<path fill="none" stroke-width="2" stroke-linecap="butt" stroke-linejoin="miter" stroke="rgb(9.999084%, 9.999084%, 9.999084%)" stroke-opacity="0.7" stroke-miterlimit="10" d="M 100 500 L 153.589844 300 "/>
<path fill="none" stroke-width="2" stroke-linecap="butt" stroke-linejoin="miter" stroke="rgb(9.999084%, 9.999084%, 9.999084%)" stroke-opacity="0.7" stroke-miterlimit="10" d="M 100 500 L 300 153.589844 "/>
<path fill="none" stroke-width="2" stroke-linecap="butt" stroke-linejoin="miter" stroke="rgb(9.999084%, 9.999084%, 9.999084%)" stroke-opacity="0.7" stroke-miterlimit="10" d="M 100 500 L 500 100 "/>
<path fill="none" stroke-width="2" stroke-linecap="butt" stroke-linejoin="miter" stroke="rgb(9.999084%, 9.999084%, 9.999084%)" stroke-opacity="0.7" stroke-miterlimit="10" d="M 100 500 L 700 153.589844 "/>
<path fill="none" stroke-width="2" stroke-linecap="butt" stroke-linejoin="miter" stroke="rgb(9.999084%, 9.999084%, 9.999084%)" stroke-opacity="0.7" stroke-miterlimit="10" d="M 100 500 L 846.410156 300 "/>
<path fill="none" stroke-width="2" stroke-linecap="butt" stroke-linejoin="miter" stroke="rgb(9.999084%, 9.999084%, 9.999084%)" stroke-opacity="0.7" stroke-miterlimit="10" d="M 153.589844 300 L 300 153.589844 "/>
<path fill="none" stroke-width="2" stroke-linecap="butt" stroke-linejoin="miter" stroke="rgb(9.999084%, 9.999084%, 9.999084%)" stroke-opacity="0.7" stroke-miterlimit="10" d="M 153.589844 300 L 500 100 "/>
<path fill="none" stroke-width="2" stroke-linecap="butt" stroke-linejoin="miter" stroke="rgb(9.999084%, 9.999084%, 9.999084%)" stroke-opacity="0.7" stroke-miterlimit="10" d="M 153.589844 300 L 700 153.589844 "/>
<path fill="none" stroke-width="2" stroke-linecap="butt" stroke-linejoin="miter" stroke="rgb(9.999084%, 9.999084%, 9.999084%)" stroke-opacity="0.7" stroke-miterlimit="10" d="M 153.589844 300 L 846.410156 300 "/>
<path fill="none" stroke-width="2" stroke-linecap="butt" stroke-linejoin="miter" stroke="rgb(9.999084%, 9.999084%, 9.999084%)" stroke-opacity="0.7" stroke-miterlimit="10" d="M 300 153.589844 L 500 100 "/>
<path fill="none" stroke-width="2" stroke-linecap="butt" stroke-linejoin="miter" stroke="rgb(9.999084%, 9.999084%, 9.999084%)" stroke-opacity="0.7" stroke-miterlimit="10" d="M 300 153.589844 L 700 153.589844 "/>
<path fill="none" stroke-width="2" stroke-linecap="butt" stroke-linejoin="miter" stroke="rgb(9.999084%, 9.999084%, 9.999084%)" stroke-opacity="0.7" stroke-miterlimit="10" d="M 300 153.589844 L 846.410156 300 "/>
<path fill="none" stroke-width="2" stroke-linecap="butt" stroke-linejoin="miter" stroke="rgb(9.999084%, 9.999084%, 9.999084%)" stroke-opacity="0.7" stroke-miterlimit="10" d="M 500 100 L 700 153.589844 "/>
<path fill="none" stroke-width="2" stroke-linecap="butt" stroke-linejoin="miter" stroke="rgb(9.999084%, 9.999084%, 9.999084%)" stroke-opacity="0.7" stroke-miterlimit="10" d="M 500 100 L 846.410156 300 "/>
<path fill="none" stroke-width="2" stroke-linecap="butt" stroke-linejoin="miter" stroke="rgb(9.999084%, 9.999084%, 9.999084%)" stroke-opacity="0.7" stroke-miterlimit="10" d="M 700 153.589844 L 846.410156 300 "/>
<path fill-rule="nonzero" fill="rgb(81.358337%, 89.99939%, 17.999268%)" fill-opacity="1" d="M 912 500 C 912 506.628906 906.628906 512 900 512 C 893.371094 512 888 506.628906 888 500 C 888 493.371094 893.371094 488 900 488 C 906.628906 488 912 493.371094 912 500 "/>
<path fill-rule="nonzero" fill="rgb(89.99939%, 29.866028%, 17.999268%)" fill-opacity="1" d="M 858.410156 700 C 858.410156 706.628906 853.039062 712 846.410156 712 C 839.78125 712 834.410156 706.628906 834.410156 700 C 834.410156 693.371094 839.78125 688 846.410156 688 C 853.039062 688 858.410156 693.371094 858.410156 700 "/>
<path fill-rule="nonzero" fill="rgb(17.999268%, 35.961914%, 89.99939%)" fill-opacity="1" d="M 712 846.410156 C 712 853.039062 706.628906 858.410156 700 858.410156 C 693.371094 858.410156 688 853.039062 688 846.410156 C 688 839.78125 693.371094 834.410156 700 834.410156 C 706.628906 834.410156 712 839.78125 712 846.410156 "/>
<path fill-rule="nonzero" fill="rgb(52.958679%, 17.999268%, 89.99939%)" fill-opacity="1" d="M 512 900 C 512 906.628906 506.628906 912 500 912 C 493.371094 912 488 906.628906 488 900 C 488 893.371094 493.371094 888 500 888 C 506.628906 888 512 893.371094 512 900 "/>
<path fill-rule="nonzero" fill="rgb(89.99939%, 39.483643%, 17.999268%)" fill-opacity="1" d="M 312 846.410156 C 312 853.039062 306.628906 858.410156 300 858.410156 C 293.371094 858.410156 288 853.039062 288 846.410156 C 288 839.78125 293.371094 834.410156 300 834.410156 C 306.628906 834.410156 312 839.78125 312 846.410156 "/>
<path fill-rule="nonzero" fill="rgb(60.215759%, 89.99939%, 17.999268%)" fill-opacity="1" d="M 165.589844 700 C 165.589844 706.628906 160.21875 712 153.589844 712 C 146.960938 712 141.589844 706.628906 141.589844 700 C 141.589844 693.371094 146.960938 688 153.589844 688 C 160.21875 688 165.589844 693.371094 165.589844 700 "/>
<path fill-rule="nonzero" fill="rgb(85.423279%, 89.99939%, 17.999268%)" fill-opacity="1" d="M 112 500 C 112 506.628906 106.628906 512 100 512 C 93.371094 512 88 506.628906 88 500 C 88 493.371094 93.371094 488 100 488 C 106.628906 488 112 493.371094 112 500 "/>
<path fill-rule="nonzero" fill="rgb(21.69342%, 89.99939%, 17.999268%)" fill-opacity="1" d="M 165.589844 300 C 165.589844 306.628906 160.21875 312 153.589844 312 C 146.960938 312 141.589844 306.628906 141.589844 300 C 141.589844 293.371094 146.960938 288 153.589844 288 C 160.21875 288 165.589844 293.371094 165.589844 300 "/>
<path fill-rule="nonzero" fill="rgb(49.89624%, 89.99939%, 17.999268%)" fill-opacity="1" d="M 312 153.589844 C 312 160.21875 306.628906 165.589844 300 165.589844 C 293.371094 165.589844 288 160.21875 288 153.589844 C 288 146.960938 293.371094 141.589844 300 141.589844 C 306.628906 141.589844 312 146.960938 312 153.589844 "/>
<path fill-rule="nonzero" fill="rgb(89.99939%, 33.384705%, 17.999268%)" fill-opacity="1" d="M 512 100 C 512 106.628906 506.628906 112 500 112 C 493.371094 112 488 106.628906 488 100 C 488 93.371094 493.371094 88 500 88 C 506.628906 88 512 93.371094 512 100 "/>
<path fill-rule="nonzero" fill="rgb(39.109802%, 17.999268%, 89.99939%)" fill-opacity="1" d="M 712 153.589844 C 712 160.21875 706.628906 165.589844 700 165.589844 C 693.371094 165.589844 688 160.21875 688 153.589844 C 688 146.960938 693.371094 141.589844 700 141.589844 C 706.628906 141.589844 712 146.960938 712 153.589844 "/>
<path fill-rule="nonzero" fill="rgb(43.547058%, 17.999268%, 89.99939%)" fill-opacity="1" d="M 858.410156 300 C 858.410156 306.628906 853.039062 312 846.410156 312 C 839.78125 312 834.410156 306.628906 834.410156 300 C 834.410156 293.371094 839.78125 288 846.410156 288 C 853.039062 288 858.410156 293.371094 858.410156 300 "/>
</svg>
