<?xml version="1.0" encoding="UTF-8"?>
<svg xmlns="http://www.w3.org/2000/svg" xmlns:xlink="http://www.w3.org/1999/xlink" width="152.4" height="112.4" viewBox="0 0 152.4 112.4">
<defs>
<clipPath id="clip-0">
<path clip-rule="nonzero" d="M 0.105469 12 L 60 12 L 60 64 L 0.105469 64 Z M 0.105469 12 "/>
</clipPath>
<clipPath id="clip-1">
<path clip-rule="nonzero" d="M 0.105469 50 L 60 50 L 60 102 L 0.105469 102 Z M 0.105469 50 "/>
</clipPath>
</defs>
<path fill-rule="evenodd" fill="rgb(100%, 0%, 0%)" fill-opacity="0.1" d="M 30.011719 51.195312 L 58.886719 101.210938 L 1.136719 101.210938 Z M 30.011719 51.195312 "/>
<path fill-rule="evenodd" fill="rgb(0%, 0%, 100%)" fill-opacity="0.1" d="M 39.234375 7.046875 L 74.527344 68.175781 L 109.824219 7.046875 Z M 39.234375 7.046875 "/>
<path fill-rule="evenodd" fill="rgb(100%, 100%, 0%)" fill-opacity="0.1" d="M 96.808594 19.828125 L 76.277344 55.394531 L 117.34375 55.394531 Z M 96.808594 19.828125 "/>
<path fill-rule="evenodd" fill="rgb(0%, 100%, 0%)" fill-opacity="0.1" d="M 64.726562 48.414062 L 96.808594 103.988281 L 128.894531 48.414062 Z M 64.726562 48.414062 "/>
<path fill-rule="evenodd" fill="rgb(62.69989%, 12.5%, 94.099426%)" fill-opacity="0.1" d="M 74.527344 45.636719 L 109.824219 106.765625 L 39.234375 106.765625 Z M 74.527344 45.636719 "/>
<path fill-rule="evenodd" fill="rgb(0%, 100%, 0%)" fill-opacity="0.1" d="M 52.246094 103.988281 L 20.164062 48.414062 L 84.332031 48.414062 Z M 52.246094 103.988281 "/>
<path fill-rule="evenodd" fill="rgb(100%, 100%, 0%)" fill-opacity="0.1" d="M 72.78125 55.394531 L 31.714844 55.394531 L 52.246094 19.828125 Z M 72.78125 55.394531 "/>
<path fill-rule="evenodd" fill="rgb(0%, 0%, 100%)" fill-opacity="0.1" d="M 90.304688 12.601562 L 119.179688 62.617188 L 148.054688 12.601562 Z M 90.304688 12.601562 "/>
<path fill-rule="evenodd" fill="rgb(0%, 0%, 100%)" fill-opacity="0.1" d="M 1.039062 12.601562 L 29.917969 62.617188 L 58.792969 12.601562 Z M 1.039062 12.601562 "/>
<path fill-rule="evenodd" fill="rgb(100%, 0%, 0%)" fill-opacity="0.1" d="M 119.074219 51.195312 L 147.953125 101.210938 L 90.199219 101.210938 Z M 119.074219 51.195312 "/>
<path fill="none" stroke-width="2" stroke-linecap="butt" stroke-linejoin="round" stroke="rgb(0%, 0%, 100%)" stroke-opacity="1" stroke-miterlimit="10" d="M 183.13705 233.115508 L 218.618415 171.660291 L 254.103707 233.115508 Z M 183.13705 233.115508 " transform="matrix(0.99469, 0, 0, -0.99469, -142.930265, 238.924602)"/>
<path fill="none" stroke-width="2" stroke-linecap="butt" stroke-linejoin="round" stroke="rgb(0%, 39.199829%, 0%)" stroke-opacity="1" stroke-miterlimit="10" d="M 208.765316 191.527499 L 241.018604 135.656621 L 273.275819 191.527499 Z M 208.765316 191.527499 " transform="matrix(0.99469, 0, 0, -0.99469, -142.930265, 238.924602)"/>
<path fill="none" stroke-width="2" stroke-linecap="butt" stroke-linejoin="round" stroke="rgb(0%, 39.199829%, 0%)" stroke-opacity="1" stroke-miterlimit="10" d="M 196.218226 135.656621 L 163.964938 191.527499 L 228.475441 191.527499 Z M 196.218226 135.656621 " transform="matrix(0.99469, 0, 0, -0.99469, -142.930265, 238.924602)"/>
<path fill="none" stroke-width="1.2" stroke-linecap="butt" stroke-linejoin="round" stroke="rgb(0%, 0%, 100%)" stroke-opacity="1" stroke-miterlimit="10" d="M 183.13705 233.115508 L 218.618415 171.660291 L 254.103707 233.115508 Z M 183.13705 233.115508 " transform="matrix(0.99469, 0, 0, -0.99469, -142.930265, 238.924602)"/>
<path fill="none" stroke-width="1.2" stroke-linecap="butt" stroke-linejoin="round" stroke="rgb(0%, 54.499817%, 54.499817%)" stroke-opacity="1" stroke-miterlimit="10" d="M 241.018604 220.266031 L 220.377757 184.509768 L 261.663379 184.509768 Z M 241.018604 220.266031 " transform="matrix(0.99469, 0, 0, -0.99469, -142.930265, 238.924602)"/>
<path fill="none" stroke-width="1.2" stroke-linecap="butt" stroke-linejoin="round" stroke="rgb(0%, 0%, 0%)" stroke-opacity="1" stroke-miterlimit="10" d="M 208.765316 191.527499 L 241.018604 135.656621 L 273.275819 191.527499 Z M 208.765316 191.527499 " transform="matrix(0.99469, 0, 0, -0.99469, -142.930265, 238.924602)"/>
<path fill="none" stroke-width="1.2" stroke-linecap="butt" stroke-linejoin="round" stroke="rgb(100%, 0%, 0%)" stroke-opacity="1" stroke-miterlimit="10" d="M 218.618415 194.319669 L 254.103707 132.864452 L 183.13705 132.864452 Z M 218.618415 194.319669 " transform="matrix(0.99469, 0, 0, -0.99469, -142.930265, 238.924602)"/>
<path fill="none" stroke-width="1.2" stroke-linecap="butt" stroke-linejoin="round" stroke="rgb(0%, 0%, 0%)" stroke-opacity="1" stroke-miterlimit="10" d="M 196.218226 135.656621 L 163.964938 191.527499 L 228.475441 191.527499 Z M 196.218226 135.656621 " transform="matrix(0.99469, 0, 0, -0.99469, -142.930265, 238.924602)"/>
<path fill="none" stroke-width="1.2" stroke-linecap="butt" stroke-linejoin="round" stroke="rgb(0%, 54.499817%, 54.499817%)" stroke-opacity="1" stroke-miterlimit="10" d="M 216.863 184.509768 L 175.577379 184.509768 L 196.218226 220.266031 Z M 216.863 184.509768 " transform="matrix(0.99469, 0, 0, -0.99469, -142.930265, 238.924602)"/>
<path fill="none" stroke-width="1.2" stroke-linecap="butt" stroke-linejoin="round" stroke="rgb(0%, 0%, 100%)" stroke-opacity="1" stroke-miterlimit="10" d="M 234.479979 227.531169 L 263.509116 177.248557 L 292.538253 227.531169 Z M 234.479979 227.531169 " transform="matrix(0.99469, 0, 0, -0.99469, -142.930265, 238.924602)"/>
<g clip-path="url(#clip-0)">
<path fill="none" stroke-width="1.2" stroke-linecap="butt" stroke-linejoin="round" stroke="rgb(0%, 0%, 100%)" stroke-opacity="1" stroke-miterlimit="10" d="M 144.737848 227.531169 L 173.770912 177.248557 L 202.800049 227.531169 Z M 144.737848 227.531169 " transform="matrix(0.99469, 0, 0, -0.99469, -142.930265, 238.924602)"/>
</g>
<g clip-path="url(#clip-1)">
<path fill="none" stroke-width="1.2" stroke-linecap="butt" stroke-linejoin="round" stroke="rgb(100%, 0%, 0%)" stroke-opacity="1" stroke-miterlimit="10" d="M 173.865162 188.731403 L 202.894299 138.448791 L 144.836025 138.448791 Z M 173.865162 188.731403 " transform="matrix(0.99469, 0, 0, -0.99469, -142.930265, 238.924602)"/>
</g>
<path fill="none" stroke-width="1.2" stroke-linecap="butt" stroke-linejoin="round" stroke="rgb(100%, 0%, 0%)" stroke-opacity="1" stroke-miterlimit="10" d="M 263.403085 188.731403 L 292.436149 138.448791 L 234.373948 138.448791 Z M 263.403085 188.731403 " transform="matrix(0.99469, 0, 0, -0.99469, -142.930265, 238.924602)"/>
<path fill-rule="evenodd" fill="rgb(100%, 100%, 0%)" fill-opacity="1" d="M 34.941406 56.90625 C 34.941406 54.160156 32.714844 51.933594 29.964844 51.933594 C 27.21875 51.933594 24.992188 54.160156 24.992188 56.90625 C 24.992188 59.652344 27.21875 61.878906 29.964844 61.878906 C 32.714844 61.878906 34.941406 59.652344 34.941406 56.90625 "/>
<path fill-rule="evenodd" fill="rgb(0%, 0%, 0%)" fill-opacity="1" d="M 35.933594 56.90625 C 35.933594 53.609375 33.261719 50.9375 29.964844 50.9375 C 26.671875 50.9375 24 53.609375 24 56.90625 C 24 60.203125 26.671875 62.875 29.964844 62.875 C 33.261719 62.875 35.933594 60.203125 35.933594 56.90625 M 33.945312 56.90625 C 33.945312 54.707031 32.164062 52.925781 29.964844 52.925781 C 27.769531 52.925781 25.988281 54.707031 25.988281 56.90625 C 25.988281 59.101562 27.769531 60.886719 29.964844 60.886719 C 32.164062 60.886719 33.945312 59.101562 33.945312 56.90625 "/>
<path fill-rule="evenodd" fill="rgb(100%, 100%, 0%)" fill-opacity="1" d="M 54.992188 14.453125 C 54.992188 11.707031 52.765625 9.480469 50.019531 9.480469 C 47.273438 9.480469 45.046875 11.707031 45.046875 14.453125 C 45.046875 17.203125 47.273438 19.429688 50.019531 19.429688 C 52.765625 19.429688 54.992188 17.203125 54.992188 14.453125 "/>
<path fill-rule="evenodd" fill="rgb(0%, 0%, 0%)" fill-opacity="1" d="M 55.988281 14.453125 C 55.988281 11.160156 53.316406 8.488281 50.019531 8.488281 C 46.722656 8.488281 44.050781 11.160156 44.050781 14.453125 C 44.050781 17.75 46.722656 20.421875 50.019531 20.421875 C 53.316406 20.421875 55.988281 17.75 55.988281 14.453125 M 54 14.453125 C 54 12.257812 52.21875 10.476562 50.019531 10.476562 C 47.824219 10.476562 46.039062 12.257812 46.039062 14.453125 C 46.039062 16.652344 47.824219 18.433594 50.019531 18.433594 C 52.21875 18.433594 54 16.652344 54 14.453125 "/>
<path fill-rule="evenodd" fill="rgb(100%, 100%, 0%)" fill-opacity="1" d="M 104.011719 12.941406 C 104.011719 10.195312 101.785156 7.96875 99.039062 7.96875 C 96.292969 7.96875 94.066406 10.195312 94.066406 12.941406 C 94.066406 15.6875 96.292969 17.914062 99.039062 17.914062 C 101.785156 17.914062 104.011719 15.6875 104.011719 12.941406 "/>
<path fill-rule="evenodd" fill="rgb(0%, 0%, 0%)" fill-opacity="1" d="M 105.007812 12.941406 C 105.007812 9.648438 102.335938 6.972656 99.039062 6.972656 C 95.742188 6.972656 93.070312 9.648438 93.070312 12.941406 C 93.070312 16.238281 95.742188 18.910156 99.039062 18.910156 C 102.335938 18.910156 105.007812 16.238281 105.007812 12.941406 M 103.015625 12.941406 C 103.015625 10.746094 101.234375 8.964844 99.039062 8.964844 C 96.839844 8.964844 95.058594 10.746094 95.058594 12.941406 C 95.058594 15.140625 96.839844 16.921875 99.039062 16.921875 C 101.234375 16.921875 103.015625 15.140625 103.015625 12.941406 "/>
<path fill-rule="evenodd" fill="rgb(100%, 100%, 0%)" fill-opacity="1" d="M 124.066406 56.90625 C 124.066406 54.160156 121.835938 51.933594 119.089844 51.933594 C 116.34375 51.933594 114.117188 54.160156 114.117188 56.90625 C 114.117188 59.652344 116.34375 61.878906 119.089844 61.878906 C 121.835938 61.878906 124.066406 59.652344 124.066406 56.90625 "/>
<path fill-rule="evenodd" fill="rgb(0%, 0%, 0%)" fill-opacity="1" d="M 125.058594 56.90625 C 125.058594 53.609375 122.386719 50.9375 119.089844 50.9375 C 115.792969 50.9375 113.121094 53.609375 113.121094 56.90625 C 113.121094 60.203125 115.792969 62.875 119.089844 62.875 C 122.386719 62.875 125.058594 60.203125 125.058594 56.90625 M 123.070312 56.90625 C 123.070312 54.707031 121.289062 52.925781 119.089844 52.925781 C 116.894531 52.925781 115.113281 54.707031 115.113281 56.90625 C 115.113281 59.101562 116.894531 60.886719 119.089844 60.886719 C 121.289062 60.886719 123.070312 59.101562 123.070312 56.90625 "/>
<path fill-rule="evenodd" fill="rgb(100%, 100%, 0%)" fill-opacity="1" d="M 101.785156 95.5 C 101.785156 92.75 99.554688 90.523438 96.808594 90.523438 C 94.0625 90.523438 91.835938 92.75 91.835938 95.5 C 91.835938 98.246094 94.0625 100.472656 96.808594 100.472656 C 99.554688 100.472656 101.785156 98.246094 101.785156 95.5 "/>
<path fill-rule="evenodd" fill="rgb(0%, 0%, 0%)" fill-opacity="1" d="M 102.777344 95.5 C 102.777344 92.203125 100.105469 89.53125 96.808594 89.53125 C 93.511719 89.53125 90.84375 92.203125 90.84375 95.5 C 90.84375 98.792969 93.511719 101.464844 96.808594 101.464844 C 100.105469 101.464844 102.777344 98.792969 102.777344 95.5 M 100.789062 95.5 C 100.789062 93.300781 99.007812 91.519531 96.808594 91.519531 C 94.613281 91.519531 92.832031 93.300781 92.832031 95.5 C 92.832031 97.695312 94.613281 99.476562 96.808594 99.476562 C 99.007812 99.476562 100.789062 97.695312 100.789062 95.5 "/>
<path fill-rule="evenodd" fill="rgb(100%, 100%, 0%)" fill-opacity="1" d="M 57.222656 95.5 C 57.222656 92.75 54.996094 90.523438 52.246094 90.523438 C 49.5 90.523438 47.273438 92.75 47.273438 95.5 C 47.273438 98.246094 49.5 100.472656 52.246094 100.472656 C 54.996094 100.472656 57.222656 98.246094 57.222656 95.5 "/>
<path fill-rule="evenodd" fill="rgb(0%, 0%, 0%)" fill-opacity="1" d="M 58.214844 95.5 C 58.214844 92.203125 55.542969 89.53125 52.246094 89.53125 C 48.953125 89.53125 46.28125 92.203125 46.28125 95.5 C 46.28125 98.792969 48.953125 101.464844 52.246094 101.464844 C 55.542969 101.464844 58.214844 98.792969 58.214844 95.5 M 56.226562 95.5 C 56.226562 93.300781 54.445312 91.519531 52.246094 91.519531 C 50.050781 91.519531 48.269531 93.300781 48.269531 95.5 C 48.269531 97.695312 50.050781 99.476562 52.246094 99.476562 C 54.445312 99.476562 56.226562 97.695312 56.226562 95.5 "/>
<path fill-rule="evenodd" fill="rgb(100%, 100%, 0%)" fill-opacity="1" d="M 79.503906 56.90625 C 79.503906 54.160156 77.273438 51.933594 74.527344 51.933594 C 71.78125 51.933594 69.554688 54.160156 69.554688 56.90625 C 69.554688 59.652344 71.78125 61.878906 74.527344 61.878906 C 77.273438 61.878906 79.503906 59.652344 79.503906 56.90625 "/>
<path fill-rule="evenodd" fill="rgb(0%, 0%, 0%)" fill-opacity="1" d="M 80.496094 56.90625 C 80.496094 53.609375 77.824219 50.9375 74.527344 50.9375 C 71.234375 50.9375 68.5625 53.609375 68.5625 56.90625 C 68.5625 60.203125 71.234375 62.875 74.527344 62.875 C 77.824219 62.875 80.496094 60.203125 80.496094 56.90625 M 78.507812 56.90625 C 78.507812 54.707031 76.726562 52.925781 74.527344 52.925781 C 72.332031 52.925781 70.550781 54.707031 70.550781 56.90625 C 70.550781 59.101562 72.332031 60.886719 74.527344 60.886719 C 76.726562 60.886719 78.507812 59.101562 78.507812 56.90625 "/>
<path fill-rule="evenodd" fill="rgb(0%, 0%, 100%)" fill-opacity="0.3" d="M 39.234375 7.046875 L 74.527344 68.175781 L 109.824219 7.046875 Z M 39.234375 7.046875 "/>
<path fill-rule="evenodd" fill="rgb(0%, 39.199829%, 0%)" fill-opacity="0.3" d="M 64.726562 48.414062 L 96.808594 103.988281 L 128.894531 48.414062 Z M 64.726562 48.414062 "/>
<path fill-rule="evenodd" fill="rgb(0%, 39.199829%, 0%)" fill-opacity="0.3" d="M 52.246094 103.988281 L 20.164062 48.414062 L 84.332031 48.414062 Z M 52.246094 103.988281 "/>
</svg>
