<?xml version="1.0" encoding="UTF-8"?>
<svg xmlns="http://www.w3.org/2000/svg" xmlns:xlink="http://www.w3.org/1999/xlink" width="152.4" height="112.4" viewBox="0 0 152.4 112.4">
<defs>
<clipPath id="clip-0">
<path clip-rule="nonzero" d="M 0.105469 12 L 60 12 L 60 64 L 0.105469 64 Z M 0.105469 12 "/>
</clipPath>
<clipPath id="clip-1">
<path clip-rule="nonzero" d="M 0.105469 50 L 60 50 L 60 102 L 0.105469 102 Z M 0.105469 50 "/>
</clipPath>
<clipPath id="clip-2">
<path clip-rule="nonzero" d="M 0.105469 0 L 151.695312 0 L 151.695312 111.804688 L 0.105469 111.804688 Z M 0.105469 0 "/>
</clipPath>
</defs>
<path fill-rule="evenodd" fill="rgb(100%, 0%, 0%)" fill-opacity="0.1" d="M 30.011719 51.195312 L 58.886719 101.210938 L 1.136719 101.210938 Z M 30.011719 51.195312 "/>
<path fill-rule="evenodd" fill="rgb(0%, 0%, 100%)" fill-opacity="0.1" d="M 39.234375 7.046875 L 74.527344 68.175781 L 109.824219 7.046875 Z M 39.234375 7.046875 "/>
<path fill-rule="evenodd" fill="rgb(100%, 100%, 0%)" fill-opacity="0.1" d="M 96.808594 19.828125 L 76.277344 55.394531 L 117.34375 55.394531 Z M 96.808594 19.828125 "/>
<path fill-rule="evenodd" fill="rgb(0%, 100%, 0%)" fill-opacity="0.1" d="M 64.726562 48.414062 L 96.808594 103.988281 L 128.894531 48.414062 Z M 64.726562 48.414062 "/>
<path fill-rule="evenodd" fill="rgb(62.69989%, 12.5%, 94.099426%)" fill-opacity="0.1" d="M 74.527344 45.636719 L 109.824219 106.765625 L 39.234375 106.765625 Z M 74.527344 45.636719 "/>
<path fill-rule="evenodd" fill="rgb(0%, 100%, 0%)" fill-opacity="0.1" d="M 52.246094 103.988281 L 20.164062 48.414062 L 84.332031 48.414062 Z M 52.246094 103.988281 "/>
<path fill-rule="evenodd" fill="rgb(100%, 100%, 0%)" fill-opacity="0.1" d="M 72.78125 55.394531 L 31.714844 55.394531 L 52.246094 19.828125 Z M 72.78125 55.394531 "/>
<path fill-rule="evenodd" fill="rgb(0%, 0%, 100%)" fill-opacity="0.1" d="M 90.304688 12.601562 L 119.179688 62.617188 L 148.054688 12.601562 Z M 90.304688 12.601562 "/>
<path fill-rule="evenodd" fill="rgb(0%, 0%, 100%)" fill-opacity="0.1" d="M 1.039062 12.601562 L 29.917969 62.617188 L 58.792969 12.601562 Z M 1.039062 12.601562 "/>
<path fill-rule="evenodd" fill="rgb(100%, 0%, 0%)" fill-opacity="0.1" d="M 119.074219 51.195312 L 147.953125 101.210938 L 90.199219 101.210938 Z M 119.074219 51.195312 "/>
<path fill="none" stroke-width="1.2" stroke-linecap="butt" stroke-linejoin="round" stroke="rgb(0%, 0%, 100%)" stroke-opacity="1" stroke-miterlimit="10" d="M 183.13705 233.115508 L 218.618415 171.660291 L 254.103707 233.115508 Z M 183.13705 233.115508 " transform="matrix(0.99469, 0, 0, -0.99469, -142.930265, 238.924602)"/>
<path fill="none" stroke-width="1.2" stroke-linecap="butt" stroke-linejoin="round" stroke="rgb(0%, 54.499817%, 54.499817%)" stroke-opacity="1" stroke-miterlimit="10" d="M 241.018604 220.266031 L 220.377757 184.509768 L 261.663379 184.509768 Z M 241.018604 220.266031 " transform="matrix(0.99469, 0, 0, -0.99469, -142.930265, 238.924602)"/>
<path fill="none" stroke-width="1.2" stroke-linecap="butt" stroke-linejoin="round" stroke="rgb(0%, 0%, 0%)" stroke-opacity="1" stroke-miterlimit="10" d="M 208.765316 191.527499 L 241.018604 135.656621 L 273.275819 191.527499 Z M 208.765316 191.527499 " transform="matrix(0.99469, 0, 0, -0.99469, -142.930265, 238.924602)"/>
<path fill="none" stroke-width="1.2" stroke-linecap="butt" stroke-linejoin="round" stroke="rgb(100%, 0%, 0%)" stroke-opacity="1" stroke-miterlimit="10" d="M 218.618415 194.319669 L 254.103707 132.864452 L 183.13705 132.864452 Z M 218.618415 194.319669 " transform="matrix(0.99469, 0, 0, -0.99469, -142.930265, 238.924602)"/>
<path fill="none" stroke-width="1.2" stroke-linecap="butt" stroke-linejoin="round" stroke="rgb(0%, 0%, 0%)" stroke-opacity="1" stroke-miterlimit="10" d="M 196.218226 135.656621 L 163.964938 191.527499 L 228.475441 191.527499 Z M 196.218226 135.656621 " transform="matrix(0.99469, 0, 0, -0.99469, -142.930265, 238.924602)"/>
<path fill="none" stroke-width="1.2" stroke-linecap="butt" stroke-linejoin="round" stroke="rgb(0%, 54.499817%, 54.499817%)" stroke-opacity="1" stroke-miterlimit="10" d="M 216.863 184.509768 L 175.577379 184.509768 L 196.218226 220.266031 Z M 216.863 184.509768 " transform="matrix(0.99469, 0, 0, -0.99469, -142.930265, 238.924602)"/>
<path fill="none" stroke-width="1.2" stroke-linecap="butt" stroke-linejoin="round" stroke="rgb(0%, 0%, 100%)" stroke-opacity="1" stroke-miterlimit="10" d="M 234.479979 227.531169 L 263.509116 177.248557 L 292.538253 227.531169 Z M 234.479979 227.531169 " transform="matrix(0.99469, 0, 0, -0.99469, -142.930265, 238.924602)"/>
<g clip-path="url(#clip-0)">
<path fill="none" stroke-width="1.2" stroke-linecap="butt" stroke-linejoin="round" stroke="rgb(0%, 0%, 100%)" stroke-opacity="1" stroke-miterlimit="10" d="M 144.737848 227.531169 L 173.770912 177.248557 L 202.800049 227.531169 Z M 144.737848 227.531169 " transform="matrix(0.99469, 0, 0, -0.99469, -142.930265, 238.924602)"/>
</g>
<g clip-path="url(#clip-1)">
<path fill="none" stroke-width="1.2" stroke-linecap="butt" stroke-linejoin="round" stroke="rgb(100%, 0%, 0%)" stroke-opacity="1" stroke-miterlimit="10" d="M 173.865162 188.731403 L 202.894299 138.448791 L 144.836025 138.448791 Z M 173.865162 188.731403 " transform="matrix(0.99469, 0, 0, -0.99469, -142.930265, 238.924602)"/>
</g>
<path fill="none" stroke-width="1.2" stroke-linecap="butt" stroke-linejoin="round" stroke="rgb(100%, 0%, 0%)" stroke-opacity="1" stroke-miterlimit="10" d="M 263.403085 188.731403 L 292.436149 138.448791 L 234.373948 138.448791 Z M 263.403085 188.731403 " transform="matrix(0.99469, 0, 0, -0.99469, -142.930265, 238.924602)"/>
<path fill-rule="evenodd" fill="rgb(100%, 100%, 0%)" fill-opacity="1" d="M 52.507812 14.453125 C 52.507812 13.082031 51.394531 11.96875 50.019531 11.96875 C 48.644531 11.96875 47.53125 13.082031 47.53125 14.453125 C 47.53125 15.828125 48.644531 16.941406 50.019531 16.941406 C 51.394531 16.941406 52.507812 15.828125 52.507812 14.453125 "/>
<path fill-rule="evenodd" fill="rgb(0%, 0%, 0%)" fill-opacity="1" d="M 53.003906 14.453125 C 53.003906 12.804688 51.667969 11.472656 50.019531 11.472656 C 48.371094 11.472656 47.035156 12.804688 47.035156 14.453125 C 47.035156 16.101562 48.371094 17.4375 50.019531 17.4375 C 51.667969 17.4375 53.003906 16.101562 53.003906 14.453125 M 52.007812 14.453125 C 52.007812 13.355469 51.117188 12.464844 50.019531 12.464844 C 48.921875 12.464844 48.03125 13.355469 48.03125 14.453125 C 48.03125 15.554688 48.921875 16.445312 50.019531 16.445312 C 51.117188 16.445312 52.007812 15.554688 52.007812 14.453125 "/>
<path fill-rule="evenodd" fill="rgb(100%, 100%, 0%)" fill-opacity="1" d="M 101.523438 12.941406 C 101.523438 11.570312 100.410156 10.457031 99.039062 10.457031 C 97.664062 10.457031 96.550781 11.570312 96.550781 12.941406 C 96.550781 14.316406 97.664062 15.429688 99.039062 15.429688 C 100.410156 15.429688 101.523438 14.316406 101.523438 12.941406 "/>
<path fill-rule="evenodd" fill="rgb(0%, 0%, 0%)" fill-opacity="1" d="M 102.023438 12.941406 C 102.023438 11.292969 100.6875 9.957031 99.039062 9.957031 C 97.390625 9.957031 96.054688 11.292969 96.054688 12.941406 C 96.054688 14.589844 97.390625 15.925781 99.039062 15.925781 C 100.6875 15.925781 102.023438 14.589844 102.023438 12.941406 M 101.027344 12.941406 C 101.027344 11.84375 100.136719 10.953125 99.039062 10.953125 C 97.9375 10.953125 97.046875 11.84375 97.046875 12.941406 C 97.046875 14.042969 97.9375 14.929688 99.039062 14.929688 C 100.136719 14.929688 101.027344 14.042969 101.027344 12.941406 "/>
<path fill-rule="evenodd" fill="rgb(100%, 100%, 0%)" fill-opacity="1" d="M 99.296875 95.5 C 99.296875 94.125 98.183594 93.011719 96.808594 93.011719 C 95.4375 93.011719 94.324219 94.125 94.324219 95.5 C 94.324219 96.871094 95.4375 97.984375 96.808594 97.984375 C 98.183594 97.984375 99.296875 96.871094 99.296875 95.5 "/>
<path fill-rule="evenodd" fill="rgb(0%, 0%, 0%)" fill-opacity="1" d="M 99.792969 95.5 C 99.792969 93.851562 98.457031 92.515625 96.808594 92.515625 C 95.160156 92.515625 93.824219 93.851562 93.824219 95.5 C 93.824219 97.144531 95.160156 98.480469 96.808594 98.480469 C 98.457031 98.480469 99.792969 97.144531 99.792969 95.5 M 98.800781 95.5 C 98.800781 94.398438 97.910156 93.507812 96.808594 93.507812 C 95.710938 93.507812 94.820312 94.398438 94.820312 95.5 C 94.820312 96.597656 95.710938 97.488281 96.808594 97.488281 C 97.910156 97.488281 98.800781 96.597656 98.800781 95.5 "/>
<path fill-rule="evenodd" fill="rgb(100%, 100%, 0%)" fill-opacity="1" d="M 54.734375 95.5 C 54.734375 94.125 53.621094 93.011719 52.246094 93.011719 C 50.875 93.011719 49.761719 94.125 49.761719 95.5 C 49.761719 96.871094 50.875 97.984375 52.246094 97.984375 C 53.621094 97.984375 54.734375 96.871094 54.734375 95.5 "/>
<path fill-rule="evenodd" fill="rgb(0%, 0%, 0%)" fill-opacity="1" d="M 55.230469 95.5 C 55.230469 93.851562 53.894531 92.515625 52.246094 92.515625 C 50.601562 92.515625 49.265625 93.851562 49.265625 95.5 C 49.265625 97.144531 50.601562 98.480469 52.246094 98.480469 C 53.894531 98.480469 55.230469 97.144531 55.230469 95.5 M 54.238281 95.5 C 54.238281 94.398438 53.347656 93.507812 52.246094 93.507812 C 51.148438 93.507812 50.257812 94.398438 50.257812 95.5 C 50.257812 96.597656 51.148438 97.488281 52.246094 97.488281 C 53.347656 97.488281 54.238281 96.597656 54.238281 95.5 "/>
<g clip-path="url(#clip-2)">
<path fill-rule="evenodd" fill="rgb(100%, 100%, 100%)" fill-opacity="0.6" d="M 0.304688 0.199219 L 0.304688 111.605469 L 151.5 111.605469 L 151.5 0.199219 Z M 0.304688 0.199219 "/>
</g>
<path fill-rule="evenodd" fill="rgb(100%, 100%, 0%)" fill-opacity="1" d="M 33.449219 56.90625 C 33.449219 54.984375 31.890625 53.425781 29.964844 53.425781 C 28.042969 53.425781 26.484375 54.984375 26.484375 56.90625 C 26.484375 58.828125 28.042969 60.386719 29.964844 60.386719 C 31.890625 60.386719 33.449219 58.828125 33.449219 56.90625 "/>
<path fill-rule="evenodd" fill="rgb(100%, 0%, 0%)" fill-opacity="1" d="M 34.144531 56.90625 C 34.144531 54.597656 32.273438 52.730469 29.964844 52.730469 C 27.660156 52.730469 25.789062 54.597656 25.789062 56.90625 C 25.789062 59.214844 27.660156 61.082031 29.964844 61.082031 C 32.273438 61.082031 34.144531 59.214844 34.144531 56.90625 M 32.75 56.90625 C 32.75 55.367188 31.503906 54.121094 29.964844 54.121094 C 28.429688 54.121094 27.183594 55.367188 27.183594 56.90625 C 27.183594 58.445312 28.429688 59.691406 29.964844 59.691406 C 31.503906 59.691406 32.75 58.445312 32.75 56.90625 "/>
<path fill-rule="evenodd" fill="rgb(100%, 100%, 0%)" fill-opacity="1" d="M 122.574219 56.90625 C 122.574219 54.984375 121.015625 53.425781 119.089844 53.425781 C 117.167969 53.425781 115.609375 54.984375 115.609375 56.90625 C 115.609375 58.828125 117.167969 60.386719 119.089844 60.386719 C 121.015625 60.386719 122.574219 58.828125 122.574219 56.90625 "/>
<path fill-rule="evenodd" fill="rgb(100%, 0%, 0%)" fill-opacity="1" d="M 123.269531 56.90625 C 123.269531 54.597656 121.398438 52.730469 119.089844 52.730469 C 116.785156 52.730469 114.914062 54.597656 114.914062 56.90625 C 114.914062 59.214844 116.785156 61.082031 119.089844 61.082031 C 121.398438 61.082031 123.269531 59.214844 123.269531 56.90625 M 121.875 56.90625 C 121.875 55.367188 120.628906 54.121094 119.089844 54.121094 C 117.554688 54.121094 116.304688 55.367188 116.304688 56.90625 C 116.304688 58.445312 117.554688 59.691406 119.089844 59.691406 C 120.628906 59.691406 121.875 58.445312 121.875 56.90625 "/>
<path fill-rule="evenodd" fill="rgb(100%, 100%, 0%)" fill-opacity="1" d="M 78.011719 56.90625 C 78.011719 54.984375 76.453125 53.425781 74.527344 53.425781 C 72.605469 53.425781 71.046875 54.984375 71.046875 56.90625 C 71.046875 58.828125 72.605469 60.386719 74.527344 60.386719 C 76.453125 60.386719 78.011719 58.828125 78.011719 56.90625 "/>
<path fill-rule="evenodd" fill="rgb(100%, 0%, 0%)" fill-opacity="1" d="M 78.707031 56.90625 C 78.707031 54.597656 76.835938 52.730469 74.527344 52.730469 C 72.222656 52.730469 70.351562 54.597656 70.351562 56.90625 C 70.351562 59.214844 72.222656 61.082031 74.527344 61.082031 C 76.835938 61.082031 78.707031 59.214844 78.707031 56.90625 M 77.3125 56.90625 C 77.3125 55.367188 76.066406 54.121094 74.527344 54.121094 C 72.992188 54.121094 71.742188 55.367188 71.742188 56.90625 C 71.742188 58.445312 72.992188 59.691406 74.527344 59.691406 C 76.066406 59.691406 77.3125 58.445312 77.3125 56.90625 "/>
<path fill-rule="evenodd" fill="rgb(100%, 100%, 0%)" fill-opacity="1" d="M 101.070312 41.128906 C 101.070312 39.207031 99.511719 37.648438 97.589844 37.648438 C 95.667969 37.648438 94.105469 39.207031 94.105469 41.128906 C 94.105469 43.050781 95.667969 44.609375 97.589844 44.609375 C 99.511719 44.609375 101.070312 43.050781 101.070312 41.128906 "/>
<path fill-rule="evenodd" fill="rgb(100%, 0%, 0%)" fill-opacity="1" d="M 101.765625 41.128906 C 101.765625 38.820312 99.898438 36.953125 97.589844 36.953125 C 95.28125 36.953125 93.410156 38.820312 93.410156 41.128906 C 93.410156 43.4375 95.28125 45.308594 97.589844 45.308594 C 99.898438 45.308594 101.765625 43.4375 101.765625 41.128906 M 100.375 41.128906 C 100.375 39.589844 99.128906 38.34375 97.589844 38.34375 C 96.050781 38.34375 94.804688 39.589844 94.804688 41.128906 C 94.804688 42.667969 96.050781 43.914062 97.589844 43.914062 C 99.128906 43.914062 100.375 42.667969 100.375 41.128906 "/>
<path fill-rule="evenodd" fill="rgb(100%, 100%, 0%)" fill-opacity="1" d="M 53.589844 40.375 C 53.589844 38.449219 52.03125 36.890625 50.105469 36.890625 C 48.183594 36.890625 46.625 38.449219 46.625 40.375 C 46.625 42.296875 48.183594 43.855469 50.105469 43.855469 C 52.03125 43.855469 53.589844 42.296875 53.589844 40.375 "/>
<path fill-rule="evenodd" fill="rgb(100%, 0%, 0%)" fill-opacity="1" d="M 54.285156 40.375 C 54.285156 38.066406 52.414062 36.195312 50.105469 36.195312 C 47.800781 36.195312 45.929688 38.066406 45.929688 40.375 C 45.929688 42.679688 47.800781 44.550781 50.105469 44.550781 C 52.414062 44.550781 54.285156 42.679688 54.285156 40.375 M 52.890625 40.375 C 52.890625 38.835938 51.644531 37.589844 50.105469 37.589844 C 48.570312 37.589844 47.320312 38.835938 47.320312 40.375 C 47.320312 41.910156 48.570312 43.160156 50.105469 43.160156 C 51.644531 43.160156 52.890625 41.910156 52.890625 40.375 "/>
<path fill-rule="evenodd" fill="rgb(100%, 100%, 0%)" fill-opacity="1" d="M 33.449219 56.90625 C 33.449219 54.984375 31.890625 53.425781 29.964844 53.425781 C 28.042969 53.425781 26.484375 54.984375 26.484375 56.90625 C 26.484375 58.828125 28.042969 60.386719 29.964844 60.386719 C 31.890625 60.386719 33.449219 58.828125 33.449219 56.90625 "/>
<path fill-rule="evenodd" fill="rgb(100%, 0%, 0%)" fill-opacity="1" d="M 34.144531 56.90625 C 34.144531 54.597656 32.273438 52.730469 29.964844 52.730469 C 27.660156 52.730469 25.789062 54.597656 25.789062 56.90625 C 25.789062 59.214844 27.660156 61.082031 29.964844 61.082031 C 32.273438 61.082031 34.144531 59.214844 34.144531 56.90625 M 32.75 56.90625 C 32.75 55.367188 31.503906 54.121094 29.964844 54.121094 C 28.429688 54.121094 27.183594 55.367188 27.183594 56.90625 C 27.183594 58.445312 28.429688 59.691406 29.964844 59.691406 C 31.503906 59.691406 32.75 58.445312 32.75 56.90625 "/>
<path fill-rule="evenodd" fill="rgb(100%, 100%, 0%)" fill-opacity="1" d="M 122.574219 56.90625 C 122.574219 54.984375 121.015625 53.425781 119.089844 53.425781 C 117.167969 53.425781 115.609375 54.984375 115.609375 56.90625 C 115.609375 58.828125 117.167969 60.386719 119.089844 60.386719 C 121.015625 60.386719 122.574219 58.828125 122.574219 56.90625 "/>
<path fill-rule="evenodd" fill="rgb(100%, 0%, 0%)" fill-opacity="1" d="M 123.269531 56.90625 C 123.269531 54.597656 121.398438 52.730469 119.089844 52.730469 C 116.785156 52.730469 114.914062 54.597656 114.914062 56.90625 C 114.914062 59.214844 116.785156 61.082031 119.089844 61.082031 C 121.398438 61.082031 123.269531 59.214844 123.269531 56.90625 M 121.875 56.90625 C 121.875 55.367188 120.628906 54.121094 119.089844 54.121094 C 117.554688 54.121094 116.304688 55.367188 116.304688 56.90625 C 116.304688 58.445312 117.554688 59.691406 119.089844 59.691406 C 120.628906 59.691406 121.875 58.445312 121.875 56.90625 "/>
<path fill-rule="evenodd" fill="rgb(100%, 100%, 0%)" fill-opacity="1" d="M 78.011719 56.90625 C 78.011719 54.984375 76.453125 53.425781 74.527344 53.425781 C 72.605469 53.425781 71.046875 54.984375 71.046875 56.90625 C 71.046875 58.828125 72.605469 60.386719 74.527344 60.386719 C 76.453125 60.386719 78.011719 58.828125 78.011719 56.90625 "/>
<path fill-rule="evenodd" fill="rgb(100%, 0%, 0%)" fill-opacity="1" d="M 78.707031 56.90625 C 78.707031 54.597656 76.835938 52.730469 74.527344 52.730469 C 72.222656 52.730469 70.351562 54.597656 70.351562 56.90625 C 70.351562 59.214844 72.222656 61.082031 74.527344 61.082031 C 76.835938 61.082031 78.707031 59.214844 78.707031 56.90625 M 77.3125 56.90625 C 77.3125 55.367188 76.066406 54.121094 74.527344 54.121094 C 72.992188 54.121094 71.742188 55.367188 71.742188 56.90625 C 71.742188 58.445312 72.992188 59.691406 74.527344 59.691406 C 76.066406 59.691406 77.3125 58.445312 77.3125 56.90625 "/>
<path fill-rule="evenodd" fill="rgb(100%, 100%, 0%)" fill-opacity="1" d="M 101.070312 41.128906 C 101.070312 39.207031 99.511719 37.648438 97.589844 37.648438 C 95.667969 37.648438 94.105469 39.207031 94.105469 41.128906 C 94.105469 43.050781 95.667969 44.609375 97.589844 44.609375 C 99.511719 44.609375 101.070312 43.050781 101.070312 41.128906 "/>
<path fill-rule="evenodd" fill="rgb(100%, 0%, 0%)" fill-opacity="1" d="M 101.765625 41.128906 C 101.765625 38.820312 99.898438 36.953125 97.589844 36.953125 C 95.28125 36.953125 93.410156 38.820312 93.410156 41.128906 C 93.410156 43.4375 95.28125 45.308594 97.589844 45.308594 C 99.898438 45.308594 101.765625 43.4375 101.765625 41.128906 M 100.375 41.128906 C 100.375 39.589844 99.128906 38.34375 97.589844 38.34375 C 96.050781 38.34375 94.804688 39.589844 94.804688 41.128906 C 94.804688 42.667969 96.050781 43.914062 97.589844 43.914062 C 99.128906 43.914062 100.375 42.667969 100.375 41.128906 "/>
<path fill-rule="evenodd" fill="rgb(100%, 100%, 0%)" fill-opacity="1" d="M 53.589844 40.375 C 53.589844 38.449219 52.03125 36.890625 50.105469 36.890625 C 48.183594 36.890625 46.625 38.449219 46.625 40.375 C 46.625 42.296875 48.183594 43.855469 50.105469 43.855469 C 52.03125 43.855469 53.589844 42.296875 53.589844 40.375 "/>
<path fill-rule="evenodd" fill="rgb(100%, 0%, 0%)" fill-opacity="1" d="M 54.285156 40.375 C 54.285156 38.066406 52.414062 36.195312 50.105469 36.195312 C 47.800781 36.195312 45.929688 38.066406 45.929688 40.375 C 45.929688 42.679688 47.800781 44.550781 50.105469 44.550781 C 52.414062 44.550781 54.285156 42.679688 54.285156 40.375 M 52.890625 40.375 C 52.890625 38.835938 51.644531 37.589844 50.105469 37.589844 C 48.570312 37.589844 47.320312 38.835938 47.320312 40.375 C 47.320312 41.910156 48.570312 43.160156 50.105469 43.160156 C 51.644531 43.160156 52.890625 41.910156 52.890625 40.375 "/>
</svg>
