<?xml version="1.0" encoding="UTF-8"?>
<svg xmlns="http://www.w3.org/2000/svg" xmlns:xlink="http://www.w3.org/1999/xlink" width="152.4" height="112.4" viewBox="0 0 152.4 112.4">
<defs>
<clipPath id="clip-0">
<path clip-rule="nonzero" d="M 0.105469 12 L 60 12 L 60 64 L 0.105469 64 Z M 0.105469 12 "/>
</clipPath>
<clipPath id="clip-1">
<path clip-rule="nonzero" d="M 0.105469 50 L 60 50 L 60 102 L 0.105469 102 Z M 0.105469 50 "/>
</clipPath>
</defs>
<path fill-rule="evenodd" fill="rgb(100%, 0%, 0%)" fill-opacity="0.1" d="M 30.011719 51.195312 L 58.886719 101.210938 L 1.136719 101.210938 Z M 30.011719 51.195312 "/>
<path fill-rule="evenodd" fill="rgb(0%, 0%, 100%)" fill-opacity="0.1" d="M 39.234375 7.046875 L 74.527344 68.175781 L 109.824219 7.046875 Z M 39.234375 7.046875 "/>
<path fill-rule="evenodd" fill="rgb(100%, 100%, 0%)" fill-opacity="0.1" d="M 96.808594 19.828125 L 76.277344 55.394531 L 117.34375 55.394531 Z M 96.808594 19.828125 "/>
<path fill-rule="evenodd" fill="rgb(0%, 100%, 0%)" fill-opacity="0.1" d="M 64.726562 48.414062 L 96.808594 103.988281 L 128.894531 48.414062 Z M 64.726562 48.414062 "/>
<path fill-rule="evenodd" fill="rgb(62.69989%, 12.5%, 94.099426%)" fill-opacity="0.1" d="M 74.527344 45.636719 L 109.824219 106.765625 L 39.234375 106.765625 Z M 74.527344 45.636719 "/>
<path fill-rule="evenodd" fill="rgb(0%, 100%, 0%)" fill-opacity="0.1" d="M 52.246094 103.988281 L 20.164062 48.414062 L 84.332031 48.414062 Z M 52.246094 103.988281 "/>
<path fill-rule="evenodd" fill="rgb(100%, 100%, 0%)" fill-opacity="0.1" d="M 72.78125 55.394531 L 31.714844 55.394531 L 52.246094 19.828125 Z M 72.78125 55.394531 "/>
<path fill-rule="evenodd" fill="rgb(0%, 0%, 100%)" fill-opacity="0.1" d="M 90.304688 12.601562 L 119.179688 62.617188 L 148.054688 12.601562 Z M 90.304688 12.601562 "/>
<path fill-rule="evenodd" fill="rgb(0%, 0%, 100%)" fill-opacity="0.1" d="M 1.039062 12.601562 L 29.917969 62.617188 L 58.792969 12.601562 Z M 1.039062 12.601562 "/>
<path fill-rule="evenodd" fill="rgb(100%, 0%, 0%)" fill-opacity="0.1" d="M 119.074219 51.195312 L 147.953125 101.210938 L 90.199219 101.210938 Z M 119.074219 51.195312 "/>
<path fill-rule="evenodd" fill="rgb(100%, 100%, 0%)" fill-opacity="1" d="M 34.941406 56.90625 C 34.941406 54.160156 32.714844 51.933594 29.964844 51.933594 C 27.21875 51.933594 24.992188 54.160156 24.992188 56.90625 C 24.992188 59.652344 27.21875 61.878906 29.964844 61.878906 C 32.714844 61.878906 34.941406 59.652344 34.941406 56.90625 "/>
<path fill-rule="evenodd" fill="rgb(0%, 0%, 0%)" fill-opacity="1" d="M 35.933594 56.90625 C 35.933594 53.609375 33.261719 50.9375 29.964844 50.9375 C 26.671875 50.9375 24 53.609375 24 56.90625 C 24 60.203125 26.671875 62.875 29.964844 62.875 C 33.261719 62.875 35.933594 60.203125 35.933594 56.90625 M 33.945312 56.90625 C 33.945312 54.707031 32.164062 52.925781 29.964844 52.925781 C 27.769531 52.925781 25.988281 54.707031 25.988281 56.90625 C 25.988281 59.101562 27.769531 60.886719 29.964844 60.886719 C 32.164062 60.886719 33.945312 59.101562 33.945312 56.90625 "/>
<path fill-rule="evenodd" fill="rgb(100%, 100%, 0%)" fill-opacity="1" d="M 124.066406 56.90625 C 124.066406 54.160156 121.835938 51.933594 119.089844 51.933594 C 116.34375 51.933594 114.117188 54.160156 114.117188 56.90625 C 114.117188 59.652344 116.34375 61.878906 119.089844 61.878906 C 121.835938 61.878906 124.066406 59.652344 124.066406 56.90625 "/>
<path fill-rule="evenodd" fill="rgb(0%, 0%, 0%)" fill-opacity="1" d="M 125.058594 56.90625 C 125.058594 53.609375 122.386719 50.9375 119.089844 50.9375 C 115.792969 50.9375 113.121094 53.609375 113.121094 56.90625 C 113.121094 60.203125 115.792969 62.875 119.089844 62.875 C 122.386719 62.875 125.058594 60.203125 125.058594 56.90625 M 123.070312 56.90625 C 123.070312 54.707031 121.289062 52.925781 119.089844 52.925781 C 116.894531 52.925781 115.113281 54.707031 115.113281 56.90625 C 115.113281 59.101562 116.894531 60.886719 119.089844 60.886719 C 121.289062 60.886719 123.070312 59.101562 123.070312 56.90625 "/>
<path fill-rule="evenodd" fill="rgb(100%, 100%, 0%)" fill-opacity="1" d="M 79.503906 56.90625 C 79.503906 54.160156 77.273438 51.933594 74.527344 51.933594 C 71.78125 51.933594 69.554688 54.160156 69.554688 56.90625 C 69.554688 59.652344 71.78125 61.878906 74.527344 61.878906 C 77.273438 61.878906 79.503906 59.652344 79.503906 56.90625 "/>
<path fill-rule="evenodd" fill="rgb(0%, 0%, 0%)" fill-opacity="1" d="M 80.496094 56.90625 C 80.496094 53.609375 77.824219 50.9375 74.527344 50.9375 C 71.234375 50.9375 68.5625 53.609375 68.5625 56.90625 C 68.5625 60.203125 71.234375 62.875 74.527344 62.875 C 77.824219 62.875 80.496094 60.203125 80.496094 56.90625 M 78.507812 56.90625 C 78.507812 54.707031 76.726562 52.925781 74.527344 52.925781 C 72.332031 52.925781 70.550781 54.707031 70.550781 56.90625 C 70.550781 59.101562 72.332031 60.886719 74.527344 60.886719 C 76.726562 60.886719 78.507812 59.101562 78.507812 56.90625 "/>
<path fill-rule="evenodd" fill="rgb(100%, 100%, 0%)" fill-opacity="1" d="M 102.5625 41.128906 C 102.5625 38.382812 100.335938 36.15625 97.589844 36.15625 C 94.84375 36.15625 92.617188 38.382812 92.617188 41.128906 C 92.617188 43.875 94.84375 46.101562 97.589844 46.101562 C 100.335938 46.101562 102.5625 43.875 102.5625 41.128906 "/>
<path fill-rule="evenodd" fill="rgb(0%, 0%, 0%)" fill-opacity="1" d="M 103.558594 41.128906 C 103.558594 37.832031 100.886719 35.160156 97.589844 35.160156 C 94.292969 35.160156 91.621094 37.832031 91.621094 41.128906 C 91.621094 44.425781 94.292969 47.097656 97.589844 47.097656 C 100.886719 47.097656 103.558594 44.425781 103.558594 41.128906 M 101.566406 41.128906 C 101.566406 38.933594 99.785156 37.152344 97.589844 37.152344 C 95.390625 37.152344 93.609375 38.933594 93.609375 41.128906 C 93.609375 43.328125 95.390625 45.109375 97.589844 45.109375 C 99.785156 45.109375 101.566406 43.328125 101.566406 41.128906 "/>
<path fill-rule="evenodd" fill="rgb(100%, 100%, 0%)" fill-opacity="1" d="M 55.082031 40.375 C 55.082031 37.625 52.855469 35.398438 50.105469 35.398438 C 47.359375 35.398438 45.132812 37.625 45.132812 40.375 C 45.132812 43.121094 47.359375 45.347656 50.105469 45.347656 C 52.855469 45.347656 55.082031 43.121094 55.082031 40.375 "/>
<path fill-rule="evenodd" fill="rgb(0%, 0%, 0%)" fill-opacity="1" d="M 56.074219 40.375 C 56.074219 37.078125 53.402344 34.40625 50.105469 34.40625 C 46.8125 34.40625 44.140625 37.078125 44.140625 40.375 C 44.140625 43.667969 46.8125 46.339844 50.105469 46.339844 C 53.402344 46.339844 56.074219 43.667969 56.074219 40.375 M 54.085938 40.375 C 54.085938 38.175781 52.304688 36.394531 50.105469 36.394531 C 47.910156 36.394531 46.128906 38.175781 46.128906 40.375 C 46.128906 42.570312 47.910156 44.351562 50.105469 44.351562 C 52.304688 44.351562 54.085938 42.570312 54.085938 40.375 "/>
<path fill="none" stroke-width="1.2" stroke-linecap="butt" stroke-linejoin="round" stroke="rgb(0%, 0%, 100%)" stroke-opacity="1" stroke-miterlimit="10" d="M 183.13705 233.115508 L 218.618415 171.660291 L 254.103707 233.115508 Z M 183.13705 233.115508 " transform="matrix(0.99469, 0, 0, -0.99469, -142.930265, 238.924602)"/>
<path fill="none" stroke-width="1.2" stroke-linecap="butt" stroke-linejoin="round" stroke="rgb(0%, 54.499817%, 54.499817%)" stroke-opacity="1" stroke-miterlimit="10" d="M 241.018604 220.266031 L 220.377757 184.509768 L 261.663379 184.509768 Z M 241.018604 220.266031 " transform="matrix(0.99469, 0, 0, -0.99469, -142.930265, 238.924602)"/>
<path fill="none" stroke-width="1.2" stroke-linecap="butt" stroke-linejoin="round" stroke="rgb(0%, 0%, 0%)" stroke-opacity="1" stroke-miterlimit="10" d="M 208.765316 191.527499 L 241.018604 135.656621 L 273.275819 191.527499 Z M 208.765316 191.527499 " transform="matrix(0.99469, 0, 0, -0.99469, -142.930265, 238.924602)"/>
<path fill="none" stroke-width="1.2" stroke-linecap="butt" stroke-linejoin="round" stroke="rgb(100%, 0%, 0%)" stroke-opacity="1" stroke-miterlimit="10" d="M 218.618415 194.319669 L 254.103707 132.864452 L 183.13705 132.864452 Z M 218.618415 194.319669 " transform="matrix(0.99469, 0, 0, -0.99469, -142.930265, 238.924602)"/>
<path fill="none" stroke-width="1.2" stroke-linecap="butt" stroke-linejoin="round" stroke="rgb(0%, 0%, 0%)" stroke-opacity="1" stroke-miterlimit="10" d="M 196.218226 135.656621 L 163.964938 191.527499 L 228.475441 191.527499 Z M 196.218226 135.656621 " transform="matrix(0.99469, 0, 0, -0.99469, -142.930265, 238.924602)"/>
<path fill="none" stroke-width="1.2" stroke-linecap="butt" stroke-linejoin="round" stroke="rgb(0%, 54.499817%, 54.499817%)" stroke-opacity="1" stroke-miterlimit="10" d="M 216.863 184.509768 L 175.577379 184.509768 L 196.218226 220.266031 Z M 216.863 184.509768 " transform="matrix(0.99469, 0, 0, -0.99469, -142.930265, 238.924602)"/>
<path fill="none" stroke-width="1.2" stroke-linecap="butt" stroke-linejoin="round" stroke="rgb(0%, 0%, 100%)" stroke-opacity="1" stroke-miterlimit="10" d="M 234.479979 227.531169 L 263.509116 177.248557 L 292.538253 227.531169 Z M 234.479979 227.531169 " transform="matrix(0.99469, 0, 0, -0.99469, -142.930265, 238.924602)"/>
<g clip-path="url(#clip-0)">
<path fill="none" stroke-width="1.2" stroke-linecap="butt" stroke-linejoin="round" stroke="rgb(0%, 0%, 100%)" stroke-opacity="1" stroke-miterlimit="10" d="M 144.737848 227.531169 L 173.770912 177.248557 L 202.800049 227.531169 Z M 144.737848 227.531169 " transform="matrix(0.99469, 0, 0, -0.99469, -142.930265, 238.924602)"/>
</g>
<g clip-path="url(#clip-1)">
<path fill="none" stroke-width="1.2" stroke-linecap="butt" stroke-linejoin="round" stroke="rgb(100%, 0%, 0%)" stroke-opacity="1" stroke-miterlimit="10" d="M 173.865162 188.731403 L 202.894299 138.448791 L 144.836025 138.448791 Z M 173.865162 188.731403 " transform="matrix(0.99469, 0, 0, -0.99469, -142.930265, 238.924602)"/>
</g>
<path fill="none" stroke-width="1.2" stroke-linecap="butt" stroke-linejoin="round" stroke="rgb(100%, 0%, 0%)" stroke-opacity="1" stroke-miterlimit="10" d="M 263.403085 188.731403 L 292.436149 138.448791 L 234.373948 138.448791 Z M 263.403085 188.731403 " transform="matrix(0.99469, 0, 0, -0.99469, -142.930265, 238.924602)"/>
</svg>
