<?xml version="1.0" encoding="UTF-8"?>
<svg xmlns="http://www.w3.org/2000/svg" xmlns:xlink="http://www.w3.org/1999/xlink" width="152.4" height="112.4" viewBox="0 0 152.4 112.4">
<path fill-rule="evenodd" fill="rgb(0%, 0%, 0%)" fill-opacity="1" d="M 76.320312 56.90625 C 76.320312 55.917969 75.519531 55.117188 74.527344 55.117188 C 73.539062 55.117188 72.738281 55.917969 72.738281 56.90625 C 72.738281 57.894531 73.539062 58.695312 74.527344 58.695312 C 75.519531 58.695312 76.320312 57.894531 76.320312 56.90625 "/>
<path fill="none" stroke-width="0.4" stroke-linecap="butt" stroke-linejoin="round" stroke="rgb(0%, 0%, 0%)" stroke-opacity="1" stroke-miterlimit="10" d="M 263.418793 182.98998 C 263.418793 207.730722 243.363084 227.790358 218.618415 227.790358 C 193.877673 227.790358 173.818037 207.730722 173.818037 182.98998 C 173.818037 158.249238 193.877673 138.189602 218.618415 138.189602 C 243.363084 138.189602 263.418793 158.249238 263.418793 182.98998 " transform="matrix(0.99469, 0, 0, -0.99469, -142.930265, 238.924602)"/>
<path fill="none" stroke-width="0.4" stroke-linecap="butt" stroke-linejoin="round" stroke="rgb(0%, 0%, 0%)" stroke-opacity="1" stroke-miterlimit="10" d="M 267.899616 182.98998 L 243.260979 225.669723 L 193.979778 225.669723 L 169.341141 182.98998 L 193.979778 140.310237 L 243.260979 140.310237 Z M 267.899616 182.98998 " transform="matrix(0.99469, 0, 0, -0.99469, -142.930265, 238.924602)"/>
<path fill="none" stroke-width="0.4" stroke-linecap="butt" stroke-linejoin="round" stroke="rgb(0%, 0%, 0%)" stroke-opacity="1" stroke-miterlimit="10" d="M 196.218226 221.789746 L 218.618415 182.98998 L 241.018604 221.789746 Z M 196.218226 221.789746 " transform="matrix(0.99469, 0, 0, -0.99469, -142.930265, 238.924602)"/>
<path fill="none" stroke-width="0.4" stroke-linecap="butt" stroke-linejoin="round" stroke="rgb(0%, 0%, 0%)" stroke-opacity="1" stroke-miterlimit="10" d="M 241.018604 221.789746 L 218.618415 182.98998 L 263.418793 182.98998 Z M 241.018604 221.789746 " transform="matrix(0.99469, 0, 0, -0.99469, -142.930265, 238.924602)"/>
<path fill="none" stroke-width="0.4" stroke-linecap="butt" stroke-linejoin="round" stroke="rgb(0%, 0%, 0%)" stroke-opacity="1" stroke-miterlimit="10" d="M 218.618415 182.98998 L 241.018604 144.190214 L 263.418793 182.98998 Z M 218.618415 182.98998 " transform="matrix(0.99469, 0, 0, -0.99469, -142.930265, 238.924602)"/>
<path fill="none" stroke-width="0.4" stroke-linecap="butt" stroke-linejoin="round" stroke="rgb(0%, 0%, 0%)" stroke-opacity="1" stroke-miterlimit="10" d="M 218.618415 182.98998 L 241.018604 144.190214 L 196.218226 144.190214 Z M 218.618415 182.98998 " transform="matrix(0.99469, 0, 0, -0.99469, -142.930265, 238.924602)"/>
<path fill="none" stroke-width="0.4" stroke-linecap="butt" stroke-linejoin="round" stroke="rgb(0%, 0%, 0%)" stroke-opacity="1" stroke-miterlimit="10" d="M 196.218226 144.190214 L 173.818037 182.98998 L 218.618415 182.98998 Z M 196.218226 144.190214 " transform="matrix(0.99469, 0, 0, -0.99469, -142.930265, 238.924602)"/>
<path fill="none" stroke-width="0.4" stroke-linecap="butt" stroke-linejoin="round" stroke="rgb(0%, 0%, 0%)" stroke-opacity="1" stroke-miterlimit="10" d="M 218.618415 182.98998 L 173.818037 182.98998 L 196.218226 221.789746 Z M 218.618415 182.98998 " transform="matrix(0.99469, 0, 0, -0.99469, -142.930265, 238.924602)"/>
</svg>
