<?xml version="1.0" encoding="UTF-8"?>
<svg xmlns="http://www.w3.org/2000/svg" xmlns:xlink="http://www.w3.org/1999/xlink" width="152.4" height="112.4" viewBox="0 0 152.4 112.4">
<path fill="none" stroke-width="0.4" stroke-linecap="butt" stroke-linejoin="round" stroke="rgb(0%, 0%, 0%)" stroke-opacity="1" stroke-miterlimit="10" d="M 191.74133 225.669723 L 218.618415 179.110003 L 245.499427 225.669723 Z M 191.74133 225.669723 " transform="matrix(0.99469, 0, 0, -0.99469, -142.930265, 238.924602)"/>
<path fill="none" stroke-width="0.4" stroke-linecap="butt" stroke-linejoin="round" stroke="rgb(0%, 0%, 0%)" stroke-opacity="1" stroke-miterlimit="10" d="M 241.018604 225.669723 L 214.141519 179.110003 L 267.899616 179.110003 Z M 241.018604 225.669723 " transform="matrix(0.99469, 0, 0, -0.99469, -142.930265, 238.924602)"/>
<path fill="none" stroke-width="0.4" stroke-linecap="butt" stroke-linejoin="round" stroke="rgb(0%, 0%, 0%)" stroke-opacity="1" stroke-miterlimit="10" d="M 214.141519 186.869957 L 241.018604 140.310237 L 267.899616 186.869957 Z M 214.141519 186.869957 " transform="matrix(0.99469, 0, 0, -0.99469, -142.930265, 238.924602)"/>
<path fill="none" stroke-width="0.4" stroke-linecap="butt" stroke-linejoin="round" stroke="rgb(0%, 0%, 0%)" stroke-opacity="1" stroke-miterlimit="10" d="M 218.618415 186.869957 L 245.499427 140.310237 L 191.74133 140.310237 Z M 218.618415 186.869957 " transform="matrix(0.99469, 0, 0, -0.99469, -142.930265, 238.924602)"/>
<path fill="none" stroke-width="0.4" stroke-linecap="butt" stroke-linejoin="round" stroke="rgb(0%, 0%, 0%)" stroke-opacity="1" stroke-miterlimit="10" d="M 196.218226 140.310237 L 169.341141 186.869957 L 223.099238 186.869957 Z M 196.218226 140.310237 " transform="matrix(0.99469, 0, 0, -0.99469, -142.930265, 238.924602)"/>
<path fill="none" stroke-width="0.4" stroke-linecap="butt" stroke-linejoin="round" stroke="rgb(0%, 0%, 0%)" stroke-opacity="1" stroke-miterlimit="10" d="M 223.099238 179.110003 L 169.341141 179.110003 L 196.218226 225.669723 Z M 223.099238 179.110003 " transform="matrix(0.99469, 0, 0, -0.99469, -142.930265, 238.924602)"/>
</svg>
