<?xml version="1.0" encoding="UTF-8"?>
<svg xmlns="http://www.w3.org/2000/svg" xmlns:xlink="http://www.w3.org/1999/xlink" width="152.4" height="112.4" viewBox="0 0 152.4 112.4">
<defs>
<clipPath id="clip-0">
<path clip-rule="nonzero" d="M 0.105469 12 L 60 12 L 60 64 L 0.105469 64 Z M 0.105469 12 "/>
</clipPath>
<clipPath id="clip-1">
<path clip-rule="nonzero" d="M 0.105469 50 L 60 50 L 60 102 L 0.105469 102 Z M 0.105469 50 "/>
</clipPath>
</defs>
<path fill="none" stroke-width="1.2" stroke-linecap="butt" stroke-linejoin="round" stroke="rgb(0%, 0%, 100%)" stroke-opacity="1" stroke-miterlimit="10" d="M 183.13705 233.115508 L 218.618415 171.660291 L 254.103707 233.115508 Z M 183.13705 233.115508 " transform="matrix(0.99469, 0, 0, -0.99469, -142.930265, 238.924602)"/>
<path fill="none" stroke-width="1.2" stroke-linecap="butt" stroke-linejoin="round" stroke="rgb(0%, 54.499817%, 54.499817%)" stroke-opacity="1" stroke-miterlimit="10" d="M 241.018604 220.266031 L 220.377757 184.509768 L 261.663379 184.509768 Z M 241.018604 220.266031 " transform="matrix(0.99469, 0, 0, -0.99469, -142.930265, 238.924602)"/>
<path fill="none" stroke-width="1.2" stroke-linecap="butt" stroke-linejoin="round" stroke="rgb(0%, 0%, 0%)" stroke-opacity="1" stroke-miterlimit="10" d="M 208.765316 191.527499 L 241.018604 135.656621 L 273.275819 191.527499 Z M 208.765316 191.527499 " transform="matrix(0.99469, 0, 0, -0.99469, -142.930265, 238.924602)"/>
<path fill="none" stroke-width="1.2" stroke-linecap="butt" stroke-linejoin="round" stroke="rgb(100%, 0%, 0%)" stroke-opacity="1" stroke-miterlimit="10" d="M 218.618415 194.319669 L 254.103707 132.864452 L 183.13705 132.864452 Z M 218.618415 194.319669 " transform="matrix(0.99469, 0, 0, -0.99469, -142.930265, 238.924602)"/>
<path fill="none" stroke-width="1.2" stroke-linecap="butt" stroke-linejoin="round" stroke="rgb(0%, 0%, 0%)" stroke-opacity="1" stroke-miterlimit="10" d="M 196.218226 135.656621 L 163.964938 191.527499 L 228.475441 191.527499 Z M 196.218226 135.656621 " transform="matrix(0.99469, 0, 0, -0.99469, -142.930265, 238.924602)"/>
<path fill="none" stroke-width="1.2" stroke-linecap="butt" stroke-linejoin="round" stroke="rgb(0%, 54.499817%, 54.499817%)" stroke-opacity="1" stroke-miterlimit="10" d="M 216.863 184.509768 L 175.577379 184.509768 L 196.218226 220.266031 Z M 216.863 184.509768 " transform="matrix(0.99469, 0, 0, -0.99469, -142.930265, 238.924602)"/>
<path fill="none" stroke-width="1.2" stroke-linecap="butt" stroke-linejoin="round" stroke="rgb(0%, 0%, 100%)" stroke-opacity="1" stroke-miterlimit="10" d="M 234.479979 227.531169 L 263.509116 177.248557 L 292.538253 227.531169 Z M 234.479979 227.531169 " transform="matrix(0.99469, 0, 0, -0.99469, -142.930265, 238.924602)"/>
<g clip-path="url(#clip-0)">
<path fill="none" stroke-width="1.2" stroke-linecap="butt" stroke-linejoin="round" stroke="rgb(0%, 0%, 100%)" stroke-opacity="1" stroke-miterlimit="10" d="M 144.737848 227.531169 L 173.770912 177.248557 L 202.800049 227.531169 Z M 144.737848 227.531169 " transform="matrix(0.99469, 0, 0, -0.99469, -142.930265, 238.924602)"/>
</g>
<g clip-path="url(#clip-1)">
<path fill="none" stroke-width="1.2" stroke-linecap="butt" stroke-linejoin="round" stroke="rgb(100%, 0%, 0%)" stroke-opacity="1" stroke-miterlimit="10" d="M 173.865162 188.731403 L 202.894299 138.448791 L 144.836025 138.448791 Z M 173.865162 188.731403 " transform="matrix(0.99469, 0, 0, -0.99469, -142.930265, 238.924602)"/>
</g>
<path fill="none" stroke-width="1.2" stroke-linecap="butt" stroke-linejoin="round" stroke="rgb(100%, 0%, 0%)" stroke-opacity="1" stroke-miterlimit="10" d="M 263.403085 188.731403 L 292.436149 138.448791 L 234.373948 138.448791 Z M 263.403085 188.731403 " transform="matrix(0.99469, 0, 0, -0.99469, -142.930265, 238.924602)"/>
</svg>
