<?xml version="1.0" encoding="UTF-8"?>
<svg xmlns="http://www.w3.org/2000/svg" xmlns:xlink="http://www.w3.org/1999/xlink" width="152.4" height="112.4" viewBox="0 0 152.4 112.4">
<path fill-rule="evenodd" fill="rgb(100%, 100%, 0%)" fill-opacity="1" d="M 33.449219 56.90625 C 33.449219 54.984375 31.890625 53.425781 29.964844 53.425781 C 28.042969 53.425781 26.484375 54.984375 26.484375 56.90625 C 26.484375 58.828125 28.042969 60.386719 29.964844 60.386719 C 31.890625 60.386719 33.449219 58.828125 33.449219 56.90625 "/>
<path fill-rule="evenodd" fill="rgb(100%, 0%, 0%)" fill-opacity="1" d="M 34.144531 56.90625 C 34.144531 54.597656 32.273438 52.730469 29.964844 52.730469 C 27.660156 52.730469 25.789062 54.597656 25.789062 56.90625 C 25.789062 59.214844 27.660156 61.082031 29.964844 61.082031 C 32.273438 61.082031 34.144531 59.214844 34.144531 56.90625 M 32.75 56.90625 C 32.75 55.367188 31.503906 54.121094 29.964844 54.121094 C 28.429688 54.121094 27.183594 55.367188 27.183594 56.90625 C 27.183594 58.445312 28.429688 59.691406 29.964844 59.691406 C 31.503906 59.691406 32.75 58.445312 32.75 56.90625 "/>
<path fill-rule="evenodd" fill="rgb(100%, 100%, 0%)" fill-opacity="1" d="M 122.574219 56.90625 C 122.574219 54.984375 121.015625 53.425781 119.089844 53.425781 C 117.167969 53.425781 115.609375 54.984375 115.609375 56.90625 C 115.609375 58.828125 117.167969 60.386719 119.089844 60.386719 C 121.015625 60.386719 122.574219 58.828125 122.574219 56.90625 "/>
<path fill-rule="evenodd" fill="rgb(100%, 0%, 0%)" fill-opacity="1" d="M 123.269531 56.90625 C 123.269531 54.597656 121.398438 52.730469 119.089844 52.730469 C 116.785156 52.730469 114.914062 54.597656 114.914062 56.90625 C 114.914062 59.214844 116.785156 61.082031 119.089844 61.082031 C 121.398438 61.082031 123.269531 59.214844 123.269531 56.90625 M 121.875 56.90625 C 121.875 55.367188 120.628906 54.121094 119.089844 54.121094 C 117.554688 54.121094 116.304688 55.367188 116.304688 56.90625 C 116.304688 58.445312 117.554688 59.691406 119.089844 59.691406 C 120.628906 59.691406 121.875 58.445312 121.875 56.90625 "/>
<path fill-rule="evenodd" fill="rgb(100%, 100%, 0%)" fill-opacity="1" d="M 78.011719 56.90625 C 78.011719 54.984375 76.453125 53.425781 74.527344 53.425781 C 72.605469 53.425781 71.046875 54.984375 71.046875 56.90625 C 71.046875 58.828125 72.605469 60.386719 74.527344 60.386719 C 76.453125 60.386719 78.011719 58.828125 78.011719 56.90625 "/>
<path fill-rule="evenodd" fill="rgb(100%, 0%, 0%)" fill-opacity="1" d="M 78.707031 56.90625 C 78.707031 54.597656 76.835938 52.730469 74.527344 52.730469 C 72.222656 52.730469 70.351562 54.597656 70.351562 56.90625 C 70.351562 59.214844 72.222656 61.082031 74.527344 61.082031 C 76.835938 61.082031 78.707031 59.214844 78.707031 56.90625 M 77.3125 56.90625 C 77.3125 55.367188 76.066406 54.121094 74.527344 54.121094 C 72.992188 54.121094 71.742188 55.367188 71.742188 56.90625 C 71.742188 58.445312 72.992188 59.691406 74.527344 59.691406 C 76.066406 59.691406 77.3125 58.445312 77.3125 56.90625 "/>
<path fill-rule="evenodd" fill="rgb(100%, 100%, 0%)" fill-opacity="1" d="M 101.070312 41.128906 C 101.070312 39.207031 99.511719 37.648438 97.589844 37.648438 C 95.667969 37.648438 94.105469 39.207031 94.105469 41.128906 C 94.105469 43.050781 95.667969 44.609375 97.589844 44.609375 C 99.511719 44.609375 101.070312 43.050781 101.070312 41.128906 "/>
<path fill-rule="evenodd" fill="rgb(100%, 0%, 0%)" fill-opacity="1" d="M 101.765625 41.128906 C 101.765625 38.820312 99.898438 36.953125 97.589844 36.953125 C 95.28125 36.953125 93.410156 38.820312 93.410156 41.128906 C 93.410156 43.4375 95.28125 45.308594 97.589844 45.308594 C 99.898438 45.308594 101.765625 43.4375 101.765625 41.128906 M 100.375 41.128906 C 100.375 39.589844 99.128906 38.34375 97.589844 38.34375 C 96.050781 38.34375 94.804688 39.589844 94.804688 41.128906 C 94.804688 42.667969 96.050781 43.914062 97.589844 43.914062 C 99.128906 43.914062 100.375 42.667969 100.375 41.128906 "/>
<path fill-rule="evenodd" fill="rgb(100%, 100%, 0%)" fill-opacity="1" d="M 53.589844 40.375 C 53.589844 38.449219 52.03125 36.890625 50.105469 36.890625 C 48.183594 36.890625 46.625 38.449219 46.625 40.375 C 46.625 42.296875 48.183594 43.855469 50.105469 43.855469 C 52.03125 43.855469 53.589844 42.296875 53.589844 40.375 "/>
<path fill-rule="evenodd" fill="rgb(100%, 0%, 0%)" fill-opacity="1" d="M 54.285156 40.375 C 54.285156 38.066406 52.414062 36.195312 50.105469 36.195312 C 47.800781 36.195312 45.929688 38.066406 45.929688 40.375 C 45.929688 42.679688 47.800781 44.550781 50.105469 44.550781 C 52.414062 44.550781 54.285156 42.679688 54.285156 40.375 M 52.890625 40.375 C 52.890625 38.835938 51.644531 37.589844 50.105469 37.589844 C 48.570312 37.589844 47.320312 38.835938 47.320312 40.375 C 47.320312 41.910156 48.570312 43.160156 50.105469 43.160156 C 51.644531 43.160156 52.890625 41.910156 52.890625 40.375 "/>
</svg>
